<svg xmlns="http://www.w3.org/2000/svg" width="485" height="265" fill="none"><path stroke="#667550" stroke-miterlimit="10" stroke-width="1" d="M86.25 116.574v1.014a5.905 5.905 0 0 1-1.746 4.197 5.866 5.866 0 0 1-4.175 1.728H15.436c-.682 0-1.337.192-1.91.576-1.174.796-1.72 2.277-1.473 3.676l23.385 133.353M327.986.942a43.37 43.37 0 0 1 15.442.002l.006.001a1.706 1.706 0 0 1 1.421 1.702v12.502h-18.299V2.647c0-.825.6-1.547 1.43-1.705Zm-20.819 0a43.364 43.364 0 0 1 15.441.002l.006.001a1.706 1.706 0 0 1 1.421 1.702v12.502h-18.298V2.647a1.75 1.75 0 0 1 1.43-1.705Zm-20.803 0a43.37 43.37 0 0 1 15.442.002l.006.001c.818.134 1.42.845 1.42 1.702v12.502h-18.298V2.647a1.75 1.75 0 0 1 1.43-1.705Zm-20.787 0a43.374 43.374 0 0 1 15.443.002l.006.001a1.706 1.706 0 0 1 1.421 1.702v12.502h-18.298V2.647a1.75 1.75 0 0 1 1.428-1.705Zm-20.795 0a43.37 43.37 0 0 1 15.442.002l.006.001a1.706 1.706 0 0 1 1.421 1.702v12.502h-18.299V2.647a1.75 1.75 0 0 1 1.43-1.705Zm-20.793 0a43.374 43.374 0 0 1 15.443.002l.006.001a1.706 1.706 0 0 1 1.421 1.702v12.502h-18.3V2.647a1.753 1.753 0 0 1 1.43-1.705Zm-20.801 0a43.364 43.364 0 0 1 15.441.002l.007.001c.816.134 1.42.845 1.42 1.702v12.502h-18.298V2.647a1.75 1.75 0 0 1 1.43-1.705Zm-20.794 0a43.38 43.38 0 0 1 15.444.002l.006.001a1.711 1.711 0 0 1 1.42 1.702v12.502h-18.299V2.647c.001-.825.6-1.547 1.429-1.705Zm-20.791 0a43.364 43.364 0 0 1 15.441.002l.007.001c.816.134 1.42.845 1.42 1.702v12.502h-18.298V2.647a1.75 1.75 0 0 1 1.43-1.705Zm-20.797 0a43.38 43.38 0 0 1 15.444.002l.004.001a1.705 1.705 0 0 1 1.421 1.702v12.502h-18.299V2.647c0-.825.601-1.547 1.43-1.705Z"/><path stroke="#667550" stroke-miterlimit="10" stroke-width="1" d="M139.56 15.531c-3.821 0-6.932 3.127-6.932 6.967 0 .411.028.822.11 1.206l47.755 233.357a3.477 3.477 0 0 1-3.411 4.087H31.304a3.466 3.466 0 0 1-3.41-2.88L3.77 120.662c-.032-.2-.05-.401-.055-.604a3.48 3.48 0 0 1 3.467-3.482h82.521v-3.484H7.183c-3.822 0-6.933 3.127-6.933 6.966 0 .412.028.797.109 1.207L24.51 258.872a6.952 6.952 0 0 0 6.822 5.76h145.75c3.821 0 6.931-3.127 6.931-6.968a5.83 5.83 0 0 0-.109-1.207L136.149 23.102a3.48 3.48 0 0 1 3.411-4.088h205.103c.191 0 .41 0 .601.056a3.483 3.483 0 0 1 2.81 4.032l-40.933 233.355c-.655 3.786 1.855 7.406 5.622 8.064.409.055.791.111 1.2.111h138.928a6.922 6.922 0 0 0 6.822-5.76l24.151-137.607c.656-3.784-1.855-7.405-5.621-8.063a5.979 5.979 0 0 0-1.201-.11H394.52v3.484h82.522c.191 0 .409 0 .6.054a3.484 3.484 0 0 1 2.811 4.032l-24.151 137.606a3.462 3.462 0 0 1-3.411 2.88H313.963c-.191 0-.409 0-.6-.055a3.48 3.48 0 0 1-2.811-4.032l40.934-233.357c.654-3.785-1.857-7.406-5.622-8.064a5.928 5.928 0 0 0-1.201-.109H139.56Z"/><path stroke="#667550" stroke-miterlimit="10" stroke-width="1" d="m143.848 60.712 2.539-.494a3.482 3.482 0 0 0 2.81-4.032l-4.366-24.657a5.088 5.088 0 0 1-.082-.905c0-2.88 2.319-5.24 5.185-5.24h184.255c.3 0 .6.028.901.082 2.838.494 4.721 3.21 4.229 6.063l-4.311 24.657a3.48 3.48 0 0 0 2.81 4.032l3.603.63M89.708 100.202c0-1.042-.736-1.92-1.747-2.085a43.788 43.788 0 0 0-15.581 0 2.138 2.138 0 0 0-1.747 2.085v12.891m19.07-.005v-12.89m-22.533.004a2.096 2.096 0 0 0-1.747-2.085 43.797 43.797 0 0 0-15.583 0 2.138 2.138 0 0 0-1.747 2.085v12.891m19.072-.005v-12.89m-22.507.004a2.096 2.096 0 0 0-1.747-2.085 43.797 43.797 0 0 0-15.583 0 2.138 2.138 0 0 0-1.747 2.085v12.891m19.072-.005v-12.89m-22.548.004c0-1.042-.736-1.92-1.746-2.085a43.788 43.788 0 0 0-15.582 0 2.138 2.138 0 0 0-1.746 2.085v14.18m19.091-1.294v-12.89m375.842 16.377v1.014c0 1.564.627 3.101 1.746 4.197a5.866 5.866 0 0 0 4.175 1.728h64.893c.682 0 1.337.192 1.91.576 1.174.796 1.72 2.277 1.473 3.676l-23.386 133.353m32.391-160.917a2.098 2.098 0 0 0-1.747-2.085 43.786 43.786 0 0 0-15.581 0 2.137 2.137 0 0 0-1.746 2.085v12.891m19.076 1.366v-14.261m-22.508.004a2.093 2.093 0 0 0-1.746-2.085 43.797 43.797 0 0 0-15.583 0 2.135 2.135 0 0 0-1.745 2.085v12.891m19.063-.005v-12.89m-22.541.004c0-1.042-.736-1.92-1.747-2.085a43.786 43.786 0 0 0-15.581 0 2.14 2.14 0 0 0-1.747 2.085v12.891m19.08-.005v-12.89m-22.534.004a2.098 2.098 0 0 0-1.747-2.085 43.797 43.797 0 0 0-15.583 0 2.137 2.137 0 0 0-1.746 2.085v12.891m19.071-.005v-12.89"/></svg>