<svg xmlns="http://www.w3.org/2000/svg" width="169" height="252" fill="none"><path stroke="#667550" stroke-miterlimit="10" stroke-width="1" d="M34.237 72.075v51.495l-1.667.08V79.677m129.195 24.741a2.022 2.022 0 0 0-1.801-1.907 43.163 43.163 0 0 0-15.09.848 2.058 2.058 0 0 0-1.563 2.12l.716 12.396m18.426-.874-.716-12.583M52.584 110.22a2.042 2.042 0 0 0-1.774-1.934 42.651 42.651 0 0 0-15.116.716 2.002 2.002 0 0 0-1.457 1.297m0 3.337.476 9.934 18.48-.954-.582-12.37M6.333 247.806c.186.026.397.053.583.053h154.558a3.37 3.37 0 0 0 3.363-3.365V123.677a3.37 3.37 0 0 0-3.363-3.364h-.186l-137.164 7.151L3.606 243.912a3.367 3.367 0 0 0 2.727 3.894ZM138.176 63.969a2.695 2.695 0 0 0-2.833-2.543h-.133L33.893 72.022l-9.16 51.999 116.169-6.04-2.726-54.012ZM.298 243.329 30.822 70.195c.079-.478.053-.981-.052-1.458L13.535 4.42l3.256-.873 17.234 64.316s.107.715.159 1.483l100.788-10.569h.292a5.382 5.382 0 0 1 5.664 5.086l2.728 54.012 17.526-.9h.343a6.733 6.733 0 0 1 6.725 6.728v120.819a6.733 6.733 0 0 1-6.725 6.728H6.969c-.397 0-.793-.027-1.165-.107-3.654-.635-6.089-4.132-5.453-7.788l-.053-.026Zm74.101-134.275a2.042 2.042 0 0 0-1.774-1.934 42.704 42.704 0 0 0-15.117.716 2.053 2.053 0 0 0-1.588 2.092l.583 12.477 18.478-.953-.582-12.398Zm65.524-3.523a2.04 2.04 0 0 0-1.8-1.907 43.192 43.192 0 0 0-15.091.847c-.98.239-1.642 1.113-1.562 2.119l.715 12.398 18.479-.954-.715-12.476-.026-.027Zm-21.895 1.166a2.014 2.014 0 0 0-1.8-1.908 43.163 43.163 0 0 0-15.09.848 2.064 2.064 0 0 0-1.562 2.119l.714 12.397 18.48-.98-.715-12.476h-.027Zm-21.761 1.218a2.041 2.041 0 0 0-1.774-1.934 42.68 42.68 0 0 0-15.117.716 2.053 2.053 0 0 0-1.588 2.093l.583 12.476 18.478-.953-.582-12.398ZM44.959 60.473a2.072 2.072 0 0 0 1.509-2.172c-.45-5.06-1.773-10.014-3.971-14.596a2.072 2.072 0 0 0-2.382-1.113l-12.02 3.259 4.845 17.88 12.02-3.258Zm-5.665-21.138a2.072 2.072 0 0 0 1.508-2.173 43.043 43.043 0 0 0-3.97-14.595 2.072 2.072 0 0 0-2.383-1.113l-12.02 3.258 4.846 17.854 12.02-3.259v.028Zm-5.665-21.14a2.071 2.071 0 0 0 1.508-2.172 43.057 43.057 0 0 0-3.97-14.596A2.07 2.07 0 0 0 28.782.316L16.765 3.547l4.792 17.933 12.072-3.285Z"/></svg>