<svg xmlns="http://www.w3.org/2000/svg" width="115" height="316" fill="none"><path stroke="#667550" stroke-miterlimit="10" stroke-width="1" d="M99.146 4.804h.147m7.443 4.246V9.2M97.75 7.264l1.423-2.421m7.59 4.357-1.571 2.667m-15.245-.81v-.371m20.875 7.368.074-1.304M3.7 18.054l-.074-1.304M92.61 9.117h-.258l.11-.223-.11-.224s.11-.149.073-.224l-.11-.186-.934-.558-.194.112v.074l-.037.038h-.037l-.037.036-.037.038H91v.037h-.037l-.037.037h-.037l-.037.038h-.037l-.037.037h-.037l-.037.037h-.037l-.037.037h-.037l-.037.037h-.037l-.037.038h-.037l-.046.037v.075s-.037.036-.185.111v1.08l.11.149s.158.111.232.075l.074.111s0 .038.074.112m-.749 1.266v2.533-2.943c0-.111.074-.186.148-.26l.222-.186 2.32-1.267.26-.148-4.374-7.82v-.038l-.148-.26c-.074-.15-.037-.335.111-.41l.416-.261s.333-.037.444.112l.148.224v.036l5.01 7.709s.038.075.075.075c0 0 .037.074.083.074 0 0 .037.075.074.075s.037.074.074.074l.629.968c0 .037.083.074.12.112.148.075.333 0 .444-.112l1.118-1.936.157-.298s.148-.112.222-.075a.445.445 0 0 1 .111.075v.037h.037l.037.038h.037l.037.036h.037l.037.075h.037l.037.075h.074l.083.074h.074l.074.074h.074l.074.075h.074l.074.075h.074l.074.036h.074l.074.112h.083l.074.112h.074l.074.112h.074l.074.112h.074l.11.111h.112l.11.112h.12l.112.111h.111l.111.113.111.073.11.075.111.075.111.074.121.075.11.074.111.074.111.075.111.075.111.074.111.074.12.075.111.075.111.074.111.075.111.074.111.074.111.075.111.075.12.073.111.075.111.075.111.074h.111l.111.112.111.075h.12l.111.111h.111l.111.112h.111l.111.111h.074l.11.113h.084l.074.111h.074l.074.112h.074l.073.111h.075l.073.075h.074l.074.075h.074l.074.073h.084l.073.075h.074l.074.075h.074l.074.074h.037l.037.075h.037l.037.037h.037l.037.037h.037l.037.038v.037l.12.074c.074.037.111.15.074.223 0 0-.037.075-.074.113-.046.073-.12.185-.12.185l-.592 1.043m-6.452-9.524-.075-.075v-.111l1.313-2.272c.148-.224.407-.373.675-.298 1.045.224 2.089.596 3.023 1.117l.185.112v.074h.037l.037.038h.046l.037.037h.037l.037.037h.037l.037.038h.037l.037.036h.037l.037.038h.037l.037.037h.037l.037.037h.037l.037.038h.037l.037.075h.037l.037.073h.037l.037.075h.037l.046.075h.037l.037.036h.037l.037.075h.037l.037.038h.037l.037.037h.037l.037.037h.037l.037.037h.037l.037.037h.037l.037.038h.037l.037.037h.037v.037h.037v.038c1.091.632 1.95 1.34 2.662 2.16a.726.726 0 0 1 .111.67v.15s-1.091 1.787-1.276 2.121v.038s-.037.037-.074.037c-.074 0-.147-.037-.147-.037V9.05l-.037-.037h-.037l-.037-.038h-.037l-.037-.036h-.037l-.074-.075h-.083l-.074-.075h-.074l-.074-.073h-.074l-.074-.075h-.074l-.074-.075h-.074l-.074-.075h-.074l-.074-.111h-.083l-.074-.112h-.074l-.111-.111h-.074l-.111-.113-.111-.073-.111-.075h-.12l-.111-.112-.111-.074-.111-.075-.111-.075-.111-.074-.111-.074-.111-.075-.12-.074-.111-.075-.111-.075-.111-.073-.111-.075-.111-.075-.11-.074-.121-.074-.111-.075-.111-.074-.11-.075-.111-.075-.111-.074-.111-.074-.111-.075-.12-.075-.111-.074-.111-.074-.111-.075-.111-.074-.111-.075-.111-.075-.111-.073-.12-.075-.111-.075-.111-.074-.111-.075-.111-.074-.111-.075-.111-.074-.12-.075-.111-.075h-.111l-.11-.111h-.112l-.11-.112h-.112l-.074-.111h-.12l-.074-.112h-.074l-.074-.112h-.074l-.074-.112h-.073l-.075-.074h-.073l-.074-.074h-.074l-.084-.075h-.073l-.075-.074h-.073l-.074-.075h-.037l-.037-.074h-.037l-.037-.038h-.037l-.037-.037-.037-.037v-.037c-.037 0-.074-.037-.111-.037l.555.67ZM3.663 312.267h12.712V57.972H3.663v254.295Zm16.114 0H32.49V57.972H19.777v254.295Zm15.745 0h12.712V57.972H35.522v254.295Zm15.698 0H63.93V57.972H51.22v254.295Zm15.744 0h12.712V57.972H66.964v254.295Zm15.698 0h12.712V57.972H82.662v254.295Zm16.114 0h12.712V57.972H98.776v254.295ZM2.508 56.855V313.31h109.96V56.855H2.508ZM.26 315.25h114V18.054h-114V315.25ZM89.92 13.846H.79c-.232 0-.417.187-.417.372l-.11 2.532H114.26l-.111-2.532c0-.223-.194-.371-.416-.371H89.919Z"/></svg>