<svg xmlns="http://www.w3.org/2000/svg" fill="none" viewBox="0 0 80 80" height="80" width="80"><path fill="#E9E778" d="M71.5 40C71.5 57.397 57.397 71.5 40 71.5C22.603 71.5 8.5 57.397 8.5 40C8.5 22.603 22.603 8.5 40 8.5C57.397 8.5 71.5 22.603 71.5 40ZM73 40C73 58.2254 58.2254 73 40 73C21.7746 73 7 58.2254 7 40C7 21.7746 21.7746 7 40 7C58.2254 7 73 21.7746 73 40ZM33.3366 26.5551C32.8462 27.0396 33.092 27.8406 33.7064 28.1532C34.6839 28.6508 35.56 29.3187 36.2951 30.1176C36.5756 30.4224 36.5559 30.8969 36.2511 31.1774C35.9463 31.4578 35.4718 31.4381 35.1913 31.1333C33.7928 29.6136 31.7894 28.6629 29.5628 28.6629C25.3397 28.6629 21.9162 32.0862 21.9162 36.3089C21.9162 40.5094 25.3037 43.9188 29.4962 43.9546C29.5188 43.9526 29.5416 43.9515 29.5647 43.9515H32.1438C32.2075 43.9515 32.2709 43.9434 32.3342 43.9353C32.3662 43.9312 32.3982 43.9272 32.4302 43.9241C32.4777 43.9196 32.5255 43.9196 32.573 43.9241C32.605 43.9272 32.637 43.9312 32.669 43.9353C32.7324 43.9434 32.7957 43.9515 32.8595 43.9515H48.8768C53.5637 43.9515 57.363 40.1523 57.363 35.4659C57.363 30.7795 53.5637 26.9804 48.8768 26.9804C46.0073 26.9804 43.4702 28.4038 41.9331 30.5863C41.6946 30.925 41.2267 31.0062 40.888 30.7677C40.5494 30.5292 40.4682 30.0613 40.7067 29.7227C41.7069 28.3025 43.069 27.1542 44.6592 26.4122C45.427 26.0539 45.6241 24.976 44.8597 24.6106C43.5336 23.9767 42.0487 23.622 40.4806 23.622C37.6964 23.622 35.1732 24.7409 33.3366 26.5551ZM29.6344 45.4515C30.0129 45.4515 30.2025 45.9092 29.9348 46.1769L26.7396 49.3721C26.4467 49.665 26.4467 50.1399 26.7396 50.4328C27.0325 50.7257 27.5073 50.7257 27.8002 50.4328L32.4886 45.7444C32.6761 45.5569 32.9305 45.4515 33.1957 45.4515H36.3833C37.2742 45.4515 37.7204 46.5287 37.0904 47.1586L27.9015 56.3475C27.6086 56.6404 27.6086 57.1153 27.9015 57.4082C28.1944 57.7011 28.6693 57.7011 28.9622 57.4082L40.5882 45.7822C40.7499 45.6205 40.9394 45.4515 41.168 45.4515H44.523C45.4139 45.4515 45.86 46.5287 45.2301 47.1586L38.3664 54.0223C38.0735 54.3152 38.0735 54.7901 38.3664 55.083C38.6593 55.3759 39.1342 55.3759 39.427 55.083L48.7279 45.7822C48.8897 45.6203 49.0795 45.4521 49.3082 45.4424C54.6232 45.2165 58.863 40.8363 58.863 35.4659C58.863 29.951 54.392 25.4804 48.8768 25.4804C48.7464 25.4804 48.6209 25.4304 48.5265 25.3405C46.4341 23.347 43.5998 22.122 40.4806 22.122C36.683 22.122 33.3099 23.9369 31.1806 26.7439C30.9507 27.0469 30.5803 27.211 30.2009 27.1848C29.9901 27.1703 29.7773 27.1629 29.5628 27.1629C24.5114 27.1629 20.4162 31.2577 20.4162 36.3089C20.4162 41.3601 24.5114 45.4549 29.5628 45.4549C29.5869 45.4549 29.6108 45.4538 29.6344 45.4515ZM47.6662 52.8602C47.3733 53.1531 47.3733 53.6279 47.6662 53.9208C47.9591 54.2137 48.4339 54.2137 48.7268 53.9208L51.052 51.5956C51.3449 51.3027 51.3449 50.8279 51.052 50.535C50.7592 50.2421 50.2843 50.2421 49.9914 50.535L47.6662 52.8602ZM23.2526 53.9208C22.9597 53.6279 22.9597 53.1531 23.2526 52.8602L24.4152 51.6976C24.7081 51.4047 25.183 51.4047 25.4759 51.6976C25.7688 51.9905 25.7688 52.4653 25.4759 52.7582L24.3133 53.9208C24.0204 54.2137 23.5455 54.2137 23.2526 53.9208Z" clip-rule="evenodd" fill-rule="evenodd"/></svg>