<svg xmlns="http://www.w3.org/2000/svg" fill="none" viewBox="0 0 80 80" height="80" width="80"><path fill="#E9E778" d="M37.2045 71.3777C38.323 71.476 39.25 70.5668 39.25 69.444V60.2518C39.25 59.7214 39.0393 59.2127 38.6642 58.8376L24.4436 44.617C24.1508 44.3241 24.1508 43.8492 24.4437 43.5563C24.7365 43.2635 25.2114 43.2635 25.5043 43.5564L35.8358 53.8878C37.0957 55.1478 39.25 54.2554 39.25 52.4736V45.2523C39.25 44.7219 39.0393 44.2132 38.6642 43.8381L27.3008 32.4747C27.0079 32.1818 27.0079 31.7069 27.3008 31.414C27.5937 31.1211 28.0686 31.1211 28.3615 31.414L35.8358 38.8883C37.0957 40.1483 39.25 39.2559 39.25 37.4741V32.0068C39.25 31.4763 39.0393 30.9676 38.6642 30.5926L31.5662 23.4945C31.2733 23.2016 31.2733 22.7267 31.5662 22.4338C31.8591 22.1409 32.3339 22.1409 32.6268 22.4338L35.8358 25.6428C37.0957 26.9027 39.25 26.0104 39.25 24.2286L39.25 15.75C39.25 15.3358 39.5858 15 40 15C40.4142 15 40.75 15.3358 40.75 15.75L40.75 24.2286C40.75 26.0104 42.9043 26.9027 44.1642 25.6428L47.3732 22.4338C47.6661 22.141 48.1409 22.141 48.4338 22.4338C48.7267 22.7267 48.7267 23.2016 48.4338 23.4945L41.3358 30.5926C40.9607 30.9676 40.75 31.4763 40.75 32.0068V37.4741C40.75 39.2559 42.9043 40.1483 44.1642 38.8883L51.6385 31.414C51.9314 31.1211 52.4063 31.1211 52.6992 31.414C52.9921 31.7069 52.9921 32.1818 52.6992 32.4747L41.3358 43.8381C40.9607 44.2132 40.75 44.7219 40.75 45.2523V52.4736C40.75 54.2554 42.9043 55.1478 44.1642 53.8878L54.4957 43.5564C54.7886 43.2635 55.2635 43.2635 55.5564 43.5564C55.8492 43.8492 55.8492 44.3241 55.5564 44.617L41.3358 58.8376C40.9607 59.2126 40.75 59.7213 40.75 60.2518V69.444C40.75 70.5668 41.677 71.476 42.7955 71.3777C58.883 69.9629 71.5 56.4549 71.5 40C71.5 22.603 57.397 8.5 40 8.5C22.603 8.5 8.5 22.603 8.5 40C8.5 56.4549 21.117 69.9629 37.2045 71.3777ZM39.25 72.9958C39.25 72.9935 39.2481 72.9916 39.2458 72.9916C21.3688 72.5907 7 57.9733 7 40C7 21.7746 21.7746 7 40 7C58.2254 7 73 21.7746 73 40C73 57.9733 58.6312 72.5907 40.7542 72.9916C40.7519 72.9916 40.75 72.9935 40.75 72.9958C40.75 72.9981 40.7481 73 40.7458 73H40H39.2542C39.2519 73 39.25 72.9981 39.25 72.9958Z" clip-rule="evenodd" fill-rule="evenodd"/></svg>