<svg xmlns="http://www.w3.org/2000/svg" fill="none" viewBox="0 0 80 80" height="80" width="80"><path fill="#E9E778" d="M71.5 40C71.5 57.397 57.397 71.5 40 71.5C35.1599 71.5 30.5747 70.4084 26.4772 68.4578C25.0312 67.7695 25.5282 65.0555 26.6607 63.923L44.0707 46.5129C44.5688 46.0148 45.2906 45.827 45.9857 45.9408C50.0348 46.6035 54.3198 45.3837 57.4275 42.276C60.1539 39.5496 61.4273 35.9171 61.2513 32.3328C61.2503 32.312 61.2492 32.2911 61.2481 32.2703C61.1961 31.304 60.0498 30.9564 59.3656 31.6406L54.2679 36.7383C53.7685 37.2377 53.0427 37.4367 52.3584 37.2618L46.5224 35.7704C45.814 35.5894 45.2609 35.0362 45.0799 34.3279L43.5884 28.4918C43.4136 27.8076 43.6125 27.0818 44.1119 26.5824L49.1496 21.5448C49.835 20.8593 49.4806 19.7121 48.5121 19.6705C48.4909 19.6695 48.4697 19.6687 48.4485 19.6679C44.9111 19.5326 41.3393 20.8081 38.6495 23.4979C35.4421 26.7053 34.2456 31.1667 35.0542 35.3284C35.193 36.0431 35.0107 36.7949 34.496 37.3097L17.2717 54.534C16.0457 55.76 13.0874 56.4698 12.2637 54.9442C9.86278 50.4975 8.5 45.4079 8.5 40C8.5 22.603 22.603 8.5 40 8.5C57.397 8.5 71.5 22.603 71.5 40ZM17.3327 63.9833C10.97 57.9677 7 49.4474 7 40C7 21.7746 21.7746 7 40 7C58.2254 7 73 21.7746 73 40C73 58.2254 58.2254 73 40 73C31.3156 73 23.4147 69.6454 17.5224 64.1613C17.4583 64.1034 17.3951 64.0441 17.3327 63.9833ZM54.7512 38.8329L55.3748 38.2094C56.7087 36.8755 58.501 37.9085 57.4219 39.4557C57.0463 39.9943 56.6185 40.507 56.1385 40.987C53.2201 43.9054 49.0899 44.8953 45.3206 43.9425C44.6982 43.7851 44.0389 43.9668 43.5849 44.4208L31.0087 56.997C29.9421 58.0636 26.5603 56.7683 25.4937 55.7018C24.4276 54.6356 23.1317 51.2519 24.1979 50.1858L36.6193 37.7643C37.0885 37.2951 37.2657 36.6081 37.0819 35.9705C35.9679 32.1056 36.9254 27.8 39.9385 24.7869C40.3433 24.3821 40.7715 24.0143 41.2188 23.6837C42.7479 22.5536 43.7932 24.3232 42.4487 25.6677L42.0174 26.099C41.5622 26.5542 41.3808 27.2157 41.5402 27.8393L43.6073 35.9281C43.7723 36.5738 44.2765 37.0779 44.9221 37.2429L53.0109 39.3101C53.6346 39.4694 54.2961 39.2881 54.7512 38.8329ZM24.1461 62.1463C22.7062 63.5862 20.398 63.6125 18.9905 62.205C17.583 60.7975 17.6093 58.4893 19.0492 57.0494C20.4891 55.6096 22.7973 55.5833 24.2048 56.9908C25.6122 58.3982 25.586 60.7065 24.1461 62.1463Z" clip-rule="evenodd" fill-rule="evenodd"/></svg>