<svg viewBox="0 0 531.27 288" xmlns:xlink="http://www.w3.org/1999/xlink" xmlns="http://www.w3.org/2000/svg" id="Camada_2"><defs><style>.cls-1,.cls-2{fill:none;}.cls-3{fill:#12100c;}.cls-2{stroke:#12100c;stroke-linecap:round;stroke-linejoin:round;stroke-width:.34px;}</style><symbol viewBox="0 0 531.27 288" id="fundo_transparente"><rect height="288" width="531.27" x="0" class="cls-1"/></symbol></defs><g id="Nature"><g id="Rotas_religiosas"><g id="placas_direcionais"><use xlink:href="#fundo_transparente" height="288" width="531.27"/><g id="MTEXT"><path d="M237.3,112.13c-.24-.12-.44-.29-.61-.51-.17-.22-.3-.5-.39-.82s-.14-.69-.14-1.09.05-.8.15-1.15c.1-.35.24-.64.43-.89.18-.25.41-.43.67-.56.26-.13.55-.2.88-.2.37,0,.7.09.97.27.27.18.47.43.59.76l-.64.29c-.07-.21-.18-.37-.34-.48-.16-.11-.35-.17-.56-.17-.2,0-.38.05-.55.14s-.31.23-.44.4c-.13.17-.22.37-.29.61s-.1.49-.1.77v.17c0,.06,0,.1,0,.15.08-.25.23-.45.45-.59.22-.14.48-.21.79-.21.24,0,.46.04.65.12.2.08.36.19.5.34.14.15.25.32.33.52.08.2.12.42.12.66s-.04.47-.13.68c-.08.21-.2.38-.35.53-.15.14-.32.26-.53.34s-.43.12-.68.12c-.3,0-.57-.06-.81-.18ZM238.47,111.56c.12-.05.22-.12.3-.21.08-.09.15-.19.2-.31.05-.12.07-.26.07-.41s-.02-.29-.07-.41c-.05-.12-.12-.23-.2-.32s-.19-.16-.31-.21-.25-.07-.4-.07-.27.02-.39.07-.22.12-.31.2c-.09.09-.15.19-.2.31-.05.12-.07.25-.07.4s.03.28.08.41.12.24.21.34.2.17.32.22c.12.05.26.08.4.08s.26-.03.38-.08Z"/><path d="M243.51,106.97v.65h-1.92l-.25,1.54c.1-.09.22-.16.36-.21.14-.05.29-.07.46-.07.25,0,.47.04.68.13.21.08.38.2.53.35.15.15.27.33.35.54.08.21.12.44.12.69s-.04.48-.13.7c-.09.21-.21.4-.36.55-.16.15-.34.27-.56.36-.21.08-.45.13-.71.13-.2,0-.39-.03-.58-.08s-.35-.13-.5-.23c-.15-.1-.28-.22-.39-.36-.11-.14-.19-.3-.24-.48l.63-.31c.07.24.19.43.39.56.19.14.42.21.67.21.15,0,.29-.03.41-.08.13-.05.23-.12.33-.21.09-.09.16-.2.21-.33.05-.13.08-.27.08-.43s-.03-.3-.08-.44c-.05-.13-.13-.25-.22-.34s-.21-.17-.34-.22c-.13-.05-.28-.08-.44-.08-.18,0-.35.04-.49.1-.14.07-.26.17-.36.31l-.62-.15.47-2.79h2.52Z"/><path d="M247.25,107.12c.25.13.47.32.65.55.18.23.32.52.42.85.1.33.15.69.15,1.08s-.05.76-.15,1.1-.24.62-.42.86c-.18.24-.4.43-.65.56-.25.13-.52.2-.83.2s-.57-.07-.82-.2-.47-.32-.65-.56c-.18-.24-.32-.53-.42-.86-.1-.33-.15-.7-.15-1.1s.05-.75.15-1.08c.1-.33.24-.61.42-.85.18-.24.4-.42.65-.55.25-.13.53-.2.83-.2s.58.07.83.2ZM245.9,107.75c-.16.1-.29.23-.41.41-.11.18-.2.38-.27.63-.07.24-.1.51-.1.81s.03.57.09.82c.06.25.15.46.27.64.12.18.25.32.41.42.16.1.33.15.52.15s.37-.05.53-.15c.16-.1.3-.24.41-.42.11-.18.2-.39.27-.64.06-.25.09-.52.09-.82s-.03-.56-.09-.81c-.06-.25-.15-.46-.26-.63-.11-.17-.25-.31-.41-.41-.16-.1-.34-.15-.53-.15s-.37.05-.52.15Z"/><path d="M252.08,108.62v.67c.11-.24.26-.42.45-.54.18-.12.4-.18.63-.18.26,0,.48.07.67.2.19.14.32.33.41.59.11-.26.27-.45.46-.59.2-.14.43-.2.7-.2.38,0,.67.12.88.37.21.25.31.61.31,1.07v2.25h-.7v-2.16c0-.29-.07-.52-.2-.69-.13-.17-.31-.25-.54-.25-.12,0-.22.02-.32.07-.1.05-.18.11-.26.2-.07.09-.13.19-.16.32-.04.12-.06.26-.06.4v2.11h-.7v-2.16c0-.14-.02-.27-.06-.38-.04-.12-.09-.22-.15-.3-.06-.08-.14-.14-.23-.19-.09-.04-.2-.07-.31-.07s-.22.02-.32.07c-.1.05-.18.12-.25.21-.07.09-.12.2-.17.32-.04.12-.06.26-.06.41v2.09h-.7v-3.64h.68Z"/><path d="M258.26,108.62v.67c.11-.24.26-.42.45-.54.18-.12.4-.18.63-.18.26,0,.48.07.67.2.19.14.32.33.41.59.11-.26.27-.45.46-.59.2-.14.43-.2.7-.2.38,0,.67.12.88.37.21.25.31.61.31,1.07v2.25h-.7v-2.16c0-.29-.07-.52-.2-.69-.13-.17-.31-.25-.54-.25-.12,0-.22.02-.32.07-.1.05-.18.11-.26.2-.07.09-.13.19-.16.32-.04.12-.06.26-.06.4v2.11h-.7v-2.16c0-.14-.02-.27-.06-.38-.04-.12-.09-.22-.15-.3-.06-.08-.14-.14-.23-.19-.09-.04-.2-.07-.31-.07s-.22.02-.32.07c-.1.05-.18.12-.25.21-.07.09-.12.2-.17.32-.04.12-.06.26-.06.41v2.09h-.7v-3.64h.68Z"/></g><g id="LINE"><line y2="117.02" x2="469.48" y1="117.02" x1="29.65" class="cls-2"/><rect height="2.19" width=".34" y="115.92" x="29.48" class="cls-3"/><rect height="2.19" width=".34" y="115.92" x="469.31" class="cls-3"/></g><g id="MTEXT-2"><path d="M5.24,241.99h5.29v.72h-4.54l.64,1.3h-.73l-.67-1.36v-.67Z"/><path d="M5.24,238.04h.65v1.92l1.54.25c-.09-.1-.16-.22-.21-.36-.05-.14-.07-.29-.07-.46,0-.25.04-.47.13-.68.08-.21.2-.38.35-.53.15-.15.33-.27.54-.35.21-.08.44-.12.69-.12s.48.04.7.13c.21.09.4.21.55.36.15.16.27.34.36.56.08.21.13.45.13.71,0,.2-.03.39-.08.58s-.13.35-.23.5c-.1.15-.22.28-.36.39-.14.11-.3.19-.48.24l-.31-.63c.24-.07.43-.19.56-.39.14-.19.21-.42.21-.67,0-.15-.03-.29-.08-.41-.05-.13-.12-.23-.21-.33-.09-.09-.2-.16-.33-.21-.13-.05-.27-.08-.43-.08s-.3.03-.44.08c-.13.05-.25.13-.34.22s-.17.21-.22.34c-.05.13-.08.28-.08.44,0,.18.04.35.1.49.07.14.17.26.31.36l-.15.62-2.79-.47v-2.52Z"/><path d="M5.38,234.3c.13-.25.32-.47.55-.65.23-.18.52-.32.85-.42.33-.1.69-.15,1.08-.15s.76.05,1.1.15.62.24.86.42c.24.18.43.4.56.65.13.25.2.52.2.83s-.07.57-.2.82-.32.47-.56.65c-.24.18-.53.32-.86.42-.33.1-.7.15-1.1.15s-.75-.05-1.08-.15c-.33-.1-.61-.24-.85-.42-.24-.18-.42-.4-.55-.65-.13-.25-.2-.53-.2-.83s.07-.58.2-.83ZM6.02,235.65c.1.16.23.29.41.41.18.11.38.2.63.27.24.07.51.1.81.1s.57-.03.82-.09c.25-.06.46-.15.64-.27.18-.12.32-.25.42-.41.1-.16.15-.33.15-.52s-.05-.37-.15-.53c-.1-.16-.24-.3-.42-.41-.18-.11-.39-.2-.64-.27-.25-.06-.52-.09-.82-.09s-.56.03-.81.09c-.25.06-.46.15-.63.26-.17.11-.31.25-.41.41-.1.16-.15.34-.15.53s.05.37.15.52Z"/><path d="M6.89,229.47h.67c-.24-.11-.42-.26-.54-.45-.12-.18-.18-.4-.18-.63,0-.26.07-.48.2-.67.14-.19.33-.32.59-.41-.26-.11-.45-.27-.59-.46-.14-.2-.2-.43-.2-.7,0-.38.12-.67.37-.88.25-.21.61-.31,1.07-.31h2.25v.7h-2.16c-.29,0-.52.07-.69.2-.17.13-.25.31-.25.54,0,.12.02.22.07.32.05.1.11.18.2.26.09.07.19.13.32.16.12.04.26.06.4.06h2.11v.7h-2.16c-.14,0-.27.02-.38.06-.12.04-.22.09-.3.15-.08.06-.14.14-.19.23-.04.09-.07.2-.07.31s.02.22.07.32c.05.1.12.18.21.25.09.07.2.12.32.17.12.04.26.06.41.06h2.09v.7h-3.64v-.68Z"/><path d="M6.89,223.29h.67c-.24-.11-.42-.26-.54-.45-.12-.18-.18-.4-.18-.63,0-.26.07-.48.2-.67.14-.19.33-.32.59-.41-.26-.11-.45-.27-.59-.46-.14-.2-.2-.43-.2-.7,0-.38.12-.67.37-.88.25-.21.61-.31,1.07-.31h2.25v.7h-2.16c-.29,0-.52.07-.69.2-.17.13-.25.31-.25.54,0,.12.02.22.07.32.05.1.11.18.2.26.09.07.19.13.32.16.12.04.26.06.4.06h2.11v.7h-2.16c-.14,0-.27.02-.38.06-.12.04-.22.09-.3.15-.08.06-.14.14-.19.23-.04.09-.07.2-.07.31s.02.22.07.32c.05.1.12.18.21.25.09.07.2.12.32.17.12.04.26.06.41.06h2.09v.7h-3.64v-.68Z"/></g><g id="LINE-2"><line y2="281.94" x2="15.29" y1="180.63" x1="15.29" class="cls-2"/><rect height=".34" width="2.19" y="180.46" x="14.19" class="cls-3"/><rect height=".34" width="2.19" y="281.77" x="14.19" class="cls-3"/></g><g id="MTEXT-3"><path d="M5.28,143.29h5.29v.72h-4.54l.64,1.3h-.73l-.67-1.36v-.67Z"/><path d="M5.43,139.58c.13-.25.32-.47.55-.65.23-.18.52-.32.85-.42.33-.1.69-.15,1.08-.15s.76.05,1.1.15.62.24.86.42c.24.18.43.4.56.65.13.25.2.52.2.83s-.07.57-.2.82-.32.47-.56.65c-.24.18-.53.32-.86.42-.33.1-.7.15-1.1.15s-.75-.05-1.08-.15c-.33-.1-.61-.24-.85-.42-.24-.18-.42-.4-.55-.65-.13-.25-.2-.53-.2-.83s.07-.58.2-.83ZM6.06,140.94c.1.16.23.29.41.41.18.11.38.2.63.27.24.07.51.1.81.1s.57-.03.82-.09c.25-.06.46-.15.64-.27.18-.12.32-.25.42-.41.1-.16.15-.33.15-.52s-.05-.37-.15-.53c-.1-.16-.24-.3-.42-.41-.18-.11-.39-.2-.64-.27-.25-.06-.52-.09-.82-.09s-.56.03-.81.09c-.25.06-.46.15-.63.26-.17.11-.31.25-.41.41-.1.16-.15.34-.15.53s.05.37.15.52Z"/><path d="M6.93,134.76h.67c-.24-.11-.42-.26-.54-.45-.12-.18-.18-.4-.18-.63,0-.26.07-.48.2-.67.14-.19.33-.32.59-.41-.26-.11-.45-.27-.59-.46-.14-.2-.2-.43-.2-.7,0-.38.12-.67.37-.88.25-.21.61-.31,1.07-.31h2.25v.7h-2.16c-.29,0-.52.07-.69.2-.17.13-.25.31-.25.54,0,.12.02.22.07.32.05.1.11.18.2.26.09.07.19.13.32.16.12.04.26.06.4.06h2.11v.7h-2.16c-.14,0-.27.02-.38.06-.12.04-.22.09-.3.15-.08.06-.14.14-.19.23-.04.09-.07.2-.07.31s.02.22.07.32c.05.1.12.18.21.25.09.07.2.12.32.17.12.04.26.06.41.06h2.09v.7h-3.64v-.68Z"/><path d="M6.93,128.57h.67c-.24-.11-.42-.26-.54-.45-.12-.18-.18-.4-.18-.63,0-.26.07-.48.2-.67.14-.19.33-.32.59-.41-.26-.11-.45-.27-.59-.46-.14-.2-.2-.43-.2-.7,0-.38.12-.67.37-.88.25-.21.61-.31,1.07-.31h2.25v.7h-2.16c-.29,0-.52.07-.69.2-.17.13-.25.31-.25.54,0,.12.02.22.07.32.05.1.11.18.2.26.09.07.19.13.32.16.12.04.26.06.4.06h2.11v.7h-2.16c-.14,0-.27.02-.38.06-.12.04-.22.09-.3.15-.08.06-.14.14-.19.23-.04.09-.07.2-.07.31s.02.22.07.32c.05.1.12.18.21.25.09.07.2.12.32.17.12.04.26.06.41.06h2.09v.7h-3.64v-.68Z"/></g><g id="LINE-3"><line y2="137.8" x2="15.33" y1="131.36" x1="15.33" class="cls-2"/><rect height=".34" width="2.19" y="131.19" x="14.24" class="cls-3"/><rect height=".34" width="2.19" y="137.63" x="14.24" class="cls-3"/></g><rect transform="translate(1031.64 462.57) rotate(-180)" height="101.9" width="6.78" y="180.33" x="512.43" class="cls-2"/><rect transform="translate(114.99 384.14) rotate(-90)" height="440.13" width="6.78" y="-85.49" x="246.18" class="cls-2"/><path d="M467.4,237.38l-38.48,38.49c-3.35,3.35-10.04,6.21-14.82,6.21H38.07c-4.78,0-8.61-3.82-8.61-8.61v-84.38c0-4.78,3.83-8.61,8.61-8.61h376.03c4.78,0,11.47,2.63,14.82,5.98l38.48,38.73c3.35,3.35,3.35,8.85,0,12.19Z" class="cls-2"/></g></g></g></svg>