<svg viewBox="0 0 531.26 288" xmlns="http://www.w3.org/2000/svg"><defs><style>.cls-1 {
        stroke-width: .28px;
      }

      .cls-1, .cls-2 {
        stroke-linecap: round;
        stroke-linejoin: round;
      }

      .cls-1, .cls-2, .cls-3, .cls-4 {
        fill: none;
        stroke: #000;
      }

      .cls-2, .cls-4 {
        stroke-width: .3px;
      }

      .cls-3 {
        stroke-width: .28px;
      }

      .cls-3, .cls-4 {
        stroke-miterlimit: 10;
      }</style></defs><g id="bases"><rect height="358.35" width="589.11" y="-33.95" x="-25.44" class="cls-3"/></g><g id="Urban"><g id="Frame"><g id="ecoponto_R900"><g><path d="M427.92,190.03c.24.12.44.29.61.51.17.22.3.5.39.82.09.32.14.69.14,1.09s-.05.8-.15,1.15c-.1.35-.24.64-.43.89s-.41.43-.67.56c-.26.13-.55.2-.88.2-.37,0-.7-.09-.97-.27-.27-.18-.47-.43-.59-.76l.64-.29c.07.21.18.37.34.48.16.11.35.17.56.17.2,0,.38-.05.55-.14.17-.09.31-.23.44-.4.13-.17.22-.37.29-.61.07-.24.1-.49.1-.77v-.17c0-.06,0-.1,0-.15-.08.25-.23.45-.45.59-.22.14-.48.21-.79.21-.24,0-.46-.04-.65-.12-.2-.08-.36-.19-.5-.34-.14-.14-.25-.32-.33-.52-.08-.2-.12-.42-.12-.66s.04-.47.13-.68c.08-.21.2-.38.35-.52.15-.14.32-.26.53-.34.21-.08.43-.12.68-.12.3,0,.57.06.81.18ZM426.75,190.6c-.12.05-.22.12-.3.21-.08.09-.15.19-.2.31-.05.12-.07.26-.07.41s.02.29.07.41c.05.12.12.23.2.32.09.09.19.16.31.21.12.05.25.07.4.07s.27-.02.39-.07c.12-.05.22-.12.31-.2.09-.09.15-.19.2-.31.05-.12.07-.25.07-.4s-.03-.28-.08-.41c-.05-.13-.13-.24-.21-.34-.09-.1-.2-.17-.32-.22s-.26-.08-.4-.08-.26.03-.38.08Z"/><path d="M432.49,190.05c.25.13.47.32.65.55.18.23.32.52.42.85.1.33.15.69.15,1.08s-.05.76-.15,1.1-.24.62-.42.86c-.18.24-.4.43-.65.56-.25.13-.52.2-.83.2s-.57-.07-.82-.2-.47-.32-.65-.56c-.18-.24-.32-.53-.42-.86-.1-.33-.15-.7-.15-1.1s.05-.75.15-1.08c.1-.33.24-.61.42-.85.18-.24.4-.42.65-.55.25-.13.53-.2.83-.2s.58.07.83.2ZM431.14,190.68c-.16.1-.29.23-.41.41-.11.18-.2.38-.27.63-.07.24-.1.51-.1.81s.03.57.09.82c.06.25.15.46.27.64.12.18.25.32.41.42.16.1.33.15.52.15s.37-.05.53-.15c.16-.1.3-.24.41-.42.11-.18.2-.39.27-.64.06-.25.09-.52.09-.82s-.03-.56-.09-.81c-.06-.25-.15-.46-.26-.63-.11-.17-.25-.31-.41-.41-.16-.1-.34-.15-.53-.15s-.37.05-.52.15Z"/><path d="M437.12,190.05c.25.13.47.32.65.55.18.23.32.52.42.85.1.33.15.69.15,1.08s-.05.76-.15,1.1-.24.62-.42.86c-.18.24-.4.43-.65.56-.25.13-.52.2-.83.2s-.57-.07-.82-.2-.47-.32-.65-.56c-.18-.24-.32-.53-.42-.86-.1-.33-.15-.7-.15-1.1s.05-.75.15-1.08c.1-.33.24-.61.42-.85.18-.24.4-.42.65-.55.25-.13.53-.2.83-.2s.58.07.83.2ZM435.77,190.68c-.16.1-.29.23-.41.41-.11.18-.2.38-.27.63-.07.24-.1.51-.1.81s.03.57.09.82c.06.25.15.46.27.64.12.18.25.32.41.42.16.1.33.15.52.15s.37-.05.53-.15c.16-.1.3-.24.41-.42.11-.18.2-.39.27-.64.06-.25.09-.52.09-.82s-.03-.56-.09-.81c-.06-.25-.15-.46-.26-.63-.11-.17-.25-.31-.41-.41-.16-.1-.34-.15-.53-.15s-.37.05-.52.15Z"/><path d="M441.95,191.55v.67c.11-.24.26-.42.45-.54.18-.12.4-.18.63-.18.26,0,.48.07.67.2.19.14.32.33.41.59.11-.26.27-.45.46-.59.2-.14.43-.2.7-.2.38,0,.67.12.88.37.21.25.31.61.31,1.07v2.25h-.7v-2.16c0-.29-.07-.52-.2-.69-.13-.17-.31-.25-.54-.25-.12,0-.22.02-.32.07-.1.05-.18.11-.26.2-.07.09-.13.19-.16.32-.04.12-.06.26-.06.4v2.11h-.7v-2.16c0-.14-.02-.27-.06-.38-.04-.12-.09-.22-.15-.3-.06-.08-.14-.14-.23-.19-.09-.04-.2-.07-.31-.07s-.22.02-.32.07c-.1.05-.18.12-.25.21-.07.09-.12.2-.17.32-.04.12-.06.26-.06.41v2.09h-.7v-3.64h.68Z"/><path d="M448.14,191.55v.67c.11-.24.26-.42.45-.54.18-.12.4-.18.63-.18.26,0,.48.07.67.2.19.14.32.33.41.59.11-.26.27-.45.46-.59.2-.14.43-.2.7-.2.38,0,.67.12.88.37.21.25.31.61.31,1.07v2.25h-.7v-2.16c0-.29-.07-.52-.2-.69-.13-.17-.31-.25-.54-.25-.12,0-.22.02-.32.07-.1.05-.18.11-.26.2-.07.09-.13.19-.16.32-.04.12-.06.26-.06.4v2.11h-.7v-2.16c0-.14-.02-.27-.06-.38-.04-.12-.09-.22-.15-.3-.06-.08-.14-.14-.23-.19-.09-.04-.2-.07-.31-.07s-.22.02-.32.07c-.1.05-.18.12-.25.21-.07.09-.12.2-.17.32-.04.12-.06.26-.06.41v2.09h-.7v-3.64h.68Z"/></g><g><path d="M7.26,201.49h5.29v.72h-4.54l.64,1.3h-.73l-.67-1.36v-.67Z"/><path d="M7.4,197.79c.13-.25.32-.47.55-.65.23-.18.52-.32.85-.42.33-.1.69-.15,1.08-.15s.76.05,1.1.15.62.24.86.42c.24.18.43.4.56.65.13.25.2.52.2.83s-.07.57-.2.82-.32.47-.56.65c-.24.18-.53.32-.86.42-.33.1-.7.15-1.1.15s-.75-.05-1.08-.15c-.33-.1-.61-.24-.85-.42-.24-.18-.42-.4-.55-.65-.13-.25-.2-.53-.2-.83s.07-.58.2-.83ZM8.03,199.14c.1.16.23.29.41.41.18.11.38.2.63.27.24.07.51.1.81.1s.57-.03.82-.09c.25-.06.46-.15.64-.27.18-.12.32-.25.42-.41.1-.16.15-.33.15-.52s-.05-.37-.15-.53c-.1-.16-.24-.3-.42-.41-.18-.11-.39-.2-.64-.27-.25-.06-.52-.09-.82-.09s-.56.03-.81.09c-.25.06-.46.15-.63.26-.17.11-.31.25-.41.41-.1.16-.15.34-.15.53s.05.37.15.52Z"/><path d="M7.4,193.15c.13-.25.32-.47.55-.65.23-.18.52-.32.85-.42.33-.1.69-.15,1.08-.15s.76.05,1.1.15.62.24.86.42c.24.18.43.4.56.65.13.25.2.52.2.83s-.07.57-.2.82-.32.47-.56.65c-.24.18-.53.32-.86.42-.33.1-.7.15-1.1.15s-.75-.05-1.08-.15c-.33-.1-.61-.24-.85-.42-.24-.18-.42-.4-.55-.65-.13-.25-.2-.53-.2-.83s.07-.58.2-.83ZM8.03,194.51c.1.16.23.29.41.41.18.11.38.2.63.27.24.07.51.1.81.1s.57-.03.82-.09c.25-.06.46-.15.64-.27.18-.12.32-.25.42-.41.1-.16.15-.33.15-.52s-.05-.37-.15-.53c-.1-.16-.24-.3-.42-.41-.18-.11-.39-.2-.64-.27-.25-.06-.52-.09-.82-.09s-.56.03-.81.09c-.25.06-.46.15-.63.26-.17.11-.31.25-.41.41-.1.16-.15.34-.15.53s.05.37.15.52Z"/><path d="M7.4,188.52c.13-.25.32-.47.55-.65.23-.18.52-.32.85-.42.33-.1.69-.15,1.08-.15s.76.05,1.1.15.62.24.86.42c.24.18.43.4.56.65.13.25.2.52.2.83s-.07.57-.2.82-.32.47-.56.65c-.24.18-.53.32-.86.42-.33.1-.7.15-1.1.15s-.75-.05-1.08-.15c-.33-.1-.61-.24-.85-.42-.24-.18-.42-.4-.55-.65-.13-.25-.2-.53-.2-.83s.07-.58.2-.83ZM8.03,189.87c.1.16.23.29.41.41.18.11.38.2.63.27.24.07.51.1.81.1s.57-.03.82-.09c.25-.06.46-.15.64-.27.18-.12.32-.25.42-.41.1-.16.15-.33.15-.52s-.05-.37-.15-.53c-.1-.16-.24-.3-.42-.41-.18-.11-.39-.2-.64-.27-.25-.06-.52-.09-.82-.09s-.56.03-.81.09c-.25.06-.46.15-.63.26-.17.11-.31.25-.41.41-.1.16-.15.34-.15.53s.05.37.15.52Z"/><path d="M8.9,183.69h.67c-.24-.11-.42-.26-.54-.45-.12-.18-.18-.4-.18-.63,0-.26.07-.48.2-.67.14-.19.33-.32.59-.41-.26-.11-.45-.27-.59-.46-.14-.2-.2-.43-.2-.7,0-.38.12-.67.37-.88.25-.21.61-.31,1.07-.31h2.25v.7h-2.16c-.29,0-.52.07-.69.2-.17.13-.25.31-.25.54,0,.12.02.22.07.32.05.1.11.18.2.26.09.07.19.13.32.16.12.04.26.06.4.06h2.11v.7h-2.16c-.14,0-.27.02-.38.06-.12.04-.22.09-.3.15-.08.06-.14.14-.19.23-.04.09-.07.2-.07.31s.02.22.07.32c.05.1.12.18.21.25.09.07.2.12.32.17.12.04.26.06.41.06h2.09v.7h-3.64v-.68Z"/><path d="M8.9,177.51h.67c-.24-.11-.42-.26-.54-.45-.12-.18-.18-.4-.18-.63,0-.26.07-.48.2-.67.14-.19.33-.32.59-.41-.26-.11-.45-.27-.59-.46-.14-.2-.2-.43-.2-.7,0-.38.12-.67.37-.88.25-.21.61-.31,1.07-.31h2.25v.7h-2.16c-.29,0-.52.07-.69.2-.17.13-.25.31-.25.54,0,.12.02.22.07.32.05.1.11.18.2.26.09.07.19.13.32.16.12.04.26.06.4.06h2.11v.7h-2.16c-.14,0-.27.02-.38.06-.12.04-.22.09-.3.15-.08.06-.14.14-.19.23-.04.09-.07.2-.07.31s.02.22.07.32c.05.1.12.18.21.25.09.07.2.12.32.17.12.04.26.06.41.06h2.09v.7h-3.64v-.68Z"/></g><g><path d="M325.21,260.42h.55l.98.65c.06.04.1.07.15.1.04.03.08.06.13.09s.09.06.13.09.09.06.15.09c.02-.19.08-.37.18-.52s.21-.29.35-.41c.14-.12.3-.21.48-.27s.38-.09.59-.09c.24,0,.47.04.67.13.2.08.38.2.52.36.14.15.26.34.34.54s.12.44.12.69c0,.21-.03.4-.08.58-.05.18-.13.35-.23.49-.1.15-.22.28-.37.39-.14.11-.31.2-.49.26l-.31-.63c.24-.08.44-.22.58-.41.14-.19.21-.42.21-.67,0-.15-.02-.28-.07-.4-.05-.12-.11-.23-.2-.31-.09-.09-.19-.15-.31-.2-.12-.05-.26-.07-.41-.07s-.29.03-.42.08c-.13.06-.23.13-.32.22-.09.09-.16.21-.21.34-.05.13-.08.28-.08.44v.35l-.44.08-1.07-.72s-.09-.06-.12-.09c-.03-.03-.07-.05-.12-.08s-.08-.06-.12-.08c-.03-.03-.07-.06-.12-.09v2.18h-.65v-3.09Z"/><path d="M325.21,256.53h5.29v.73h-4.36s.08.04.1.06c.03.02.06.04.09.07l2.02,1.35s.06.04.08.05.05.03.08.06v-3.2h.64v3.98h-.59l-3.35-2.22v-.87Z"/><path d="M325.21,252.11h.65v1.92l1.54.25c-.09-.1-.16-.22-.21-.36-.05-.14-.07-.29-.07-.46,0-.25.04-.47.13-.68.08-.21.2-.38.35-.53.15-.15.33-.27.54-.35.21-.08.44-.12.69-.12s.48.04.7.13c.21.09.4.21.55.36.15.16.27.34.36.56.08.21.13.45.13.71,0,.2-.03.39-.08.58s-.13.35-.23.5c-.1.15-.22.28-.36.39-.14.11-.3.19-.48.24l-.31-.63c.24-.07.43-.19.56-.39.14-.19.21-.42.21-.67,0-.15-.03-.29-.08-.41-.05-.13-.12-.23-.21-.33-.09-.09-.2-.16-.33-.21-.13-.05-.27-.08-.43-.08s-.3.03-.44.08c-.13.05-.25.13-.34.22s-.17.21-.22.34c-.05.13-.08.28-.08.44,0,.18.04.35.1.49.07.14.17.26.31.36l-.15.62-2.79-.47v-2.52Z"/><path d="M326.86,248.17h.67c-.24-.11-.42-.26-.54-.45-.12-.18-.18-.4-.18-.63,0-.26.07-.48.2-.67.14-.19.33-.32.59-.41-.26-.11-.45-.27-.59-.46-.14-.2-.2-.43-.2-.7,0-.38.12-.67.37-.88.25-.21.61-.31,1.07-.31h2.25v.7h-2.16c-.29,0-.52.07-.69.2-.17.13-.25.31-.25.54,0,.12.02.22.07.32.05.1.11.18.2.26.09.07.19.13.32.16.12.04.26.06.4.06h2.11v.7h-2.16c-.14,0-.27.02-.38.06-.12.04-.22.09-.3.15-.08.06-.14.14-.19.23-.04.09-.07.2-.07.31s.02.22.07.32c.05.1.12.18.21.25.09.07.2.12.32.17.12.04.26.06.41.06h2.09v.7h-3.64v-.68Z"/><path d="M326.86,241.99h.67c-.24-.11-.42-.26-.54-.45-.12-.18-.18-.4-.18-.63,0-.26.07-.48.2-.67.14-.19.33-.32.59-.41-.26-.11-.45-.27-.59-.46-.14-.2-.2-.43-.2-.7,0-.38.12-.67.37-.88.25-.21.61-.31,1.07-.31h2.25v.7h-2.16c-.29,0-.52.07-.69.2-.17.13-.25.31-.25.54,0,.12.02.22.07.32.05.1.11.18.2.26.09.07.19.13.32.16.12.04.26.06.4.06h2.11v.7h-2.16c-.14,0-.27.02-.38.06-.12.04-.22.09-.3.15-.08.06-.14.14-.19.23-.04.09-.07.2-.07.31s.02.22.07.32c.05.1.12.18.21.25.09.07.2.12.32.17.12.04.26.06.41.06h2.09v.7h-3.64v-.68Z"/></g><g><line y2="199.11" x2="523.71" y1="199.11" x1="352.38" class="cls-1"/><rect height="1.79" width=".28" y="198.22" x="352.24"/><rect height="1.79" width=".28" y="198.22" x="523.58"/></g><g><line y2="283.19" x2="334.42" y1="217.68" x1="334.42" class="cls-1"/><rect height=".28" width="1.79" y="217.54" x="333.53"/><rect height=".28" width="1.79" y="283.05" x="333.53"/></g><g><line y2="283.37" x2="16.47" y1="92.99" x1="16.47" class="cls-2"/><rect height=".3" width="1.95" y="92.84" x="15.49"/><rect height=".3" width="1.95" y="283.22" x="15.49"/></g><g><rect height="60.83" width="171.61" y="220.02" x="352.24" class="cls-4"/><g><polyline points="354.15 220.02 354.15 218.11 354.16 218 354.2 217.89 354.25 217.79 354.32 217.71 354.41 217.64 354.51 217.58 354.61 217.55 354.72 217.54 361.03 217.54 361.14 217.55 361.25 217.58 361.35 217.64 361.44 217.71 361.51 217.79 361.56 217.89 361.59 218 361.6 218.11 361.6 220.02" class="cls-4"/><polyline points="363.57 220.02 363.57 218.11 363.58 218 363.62 217.89 363.67 217.79 363.74 217.71 363.83 217.64 363.93 217.58 364.03 217.55 364.15 217.54 370.45 217.54 370.56 217.55 370.67 217.58 370.77 217.64 370.86 217.71 370.93 217.79 370.98 217.89 371.02 218 371.03 218.11 371.03 220.02" class="cls-4"/><polyline points="372.99 220.02 372.99 218.11 373.01 218 373.04 217.89 373.09 217.79 373.16 217.71 373.25 217.64 373.35 217.58 373.46 217.55 373.57 217.54 379.87 217.54 379.99 217.55 380.09 217.58 380.19 217.64 380.28 217.71 380.35 217.79 380.4 217.89 380.44 218 380.45 218.11 380.45 220.02" class="cls-4"/><polyline points="382.42 220.02 382.42 218.11 382.43 218 382.46 217.89 382.51 217.79 382.58 217.71 382.67 217.64 382.77 217.58 382.88 217.55 382.99 217.54 389.3 217.54 389.41 217.55 389.52 217.58 389.61 217.64 389.7 217.71 389.77 217.79 389.83 217.89 389.86 218 389.87 218.11 389.87 220.02" class="cls-4"/><polyline points="391.84 220.02 391.84 218.11 391.85 218 391.88 217.89 391.93 217.79 392.01 217.71 392.09 217.64 392.19 217.58 392.3 217.55 392.41 217.54 398.72 217.54 398.83 217.55 398.94 217.58 399.04 217.64 399.12 217.71 399.19 217.79 399.25 217.89 399.28 218 399.29 218.11 399.29 220.02" class="cls-4"/><polyline points="401.26 220.02 401.26 218.11 401.27 218 401.3 217.89 401.36 217.79 401.43 217.71 401.51 217.64 401.61 217.58 401.72 217.55 401.83 217.54 408.14 217.54 408.25 217.55 408.36 217.58 408.46 217.64 408.54 217.71 408.62 217.79 408.67 217.89 408.7 218 408.71 218.11 408.71 220.02" class="cls-4"/><polyline points="410.68 220.02 410.68 218.11 410.69 218 410.72 217.89 410.78 217.79 410.85 217.71 410.94 217.64 411.04 217.58 411.14 217.55 411.25 217.54 417.56 217.54 417.67 217.55 417.78 217.58 417.88 217.64 417.97 217.71 418.04 217.79 418.09 217.89 418.12 218 418.13 218.11 418.13 220.02" class="cls-4"/><polyline points="420.1 220.02 420.1 218.11 420.11 218 420.15 217.89 420.2 217.79 420.27 217.71 420.36 217.64 420.46 217.58 420.56 217.55 420.68 217.54 426.98 217.54 427.09 217.55 427.2 217.58 427.3 217.64 427.39 217.71 427.46 217.79 427.51 217.89 427.55 218 427.56 218.11 427.56 220.02" class="cls-4"/><polyline points="429.52 220.02 429.52 218.11 429.53 218 429.57 217.89 429.62 217.79 429.69 217.71 429.78 217.64 429.88 217.58 429.98 217.55 430.1 217.54 436.4 217.54 436.51 217.55 436.62 217.58 436.72 217.64 436.81 217.71 436.88 217.79 436.93 217.89 436.97 218 436.98 218.11 436.98 220.02" class="cls-4"/><polyline points="438.94 220.02 438.94 218.11 438.96 218 438.99 217.89 439.04 217.79 439.11 217.71 439.2 217.64 439.3 217.58 439.41 217.55 439.52 217.54 445.82 217.54 445.94 217.55 446.04 217.58 446.14 217.64 446.23 217.71 446.3 217.79 446.35 217.89 446.39 218 446.4 218.11 446.4 220.02" class="cls-4"/><polyline points="448.37 220.02 448.37 218.11 448.38 218 448.41 217.89 448.46 217.79 448.53 217.71 448.62 217.64 448.72 217.58 448.83 217.55 448.94 217.54 455.25 217.54 455.36 217.55 455.47 217.58 455.57 217.64 455.65 217.71 455.72 217.79 455.78 217.89 455.81 218 455.82 218.11 455.82 220.02" class="cls-4"/><polyline points="457.79 220.02 457.79 218.11 457.8 218 457.83 217.89 457.88 217.79 457.96 217.71 458.04 217.64 458.14 217.58 458.25 217.55 458.36 217.54 464.67 217.54 464.78 217.55 464.89 217.58 464.99 217.64 465.07 217.71 465.14 217.79 465.2 217.89 465.23 218 465.24 218.11 465.24 220.02" class="cls-4"/><polyline points="467.21 220.02 467.21 218.11 467.22 218 467.25 217.89 467.31 217.79 467.38 217.71 467.46 217.64 467.56 217.58 467.67 217.55 467.78 217.54 474.09 217.54 474.2 217.55 474.31 217.58 474.41 217.64 474.49 217.71 474.57 217.79 474.62 217.89 474.65 218 474.66 218.11 474.66 220.02" class="cls-4"/><polyline points="476.63 220.02 476.63 218.11 476.64 218 476.67 217.89 476.73 217.79 476.8 217.71 476.89 217.64 476.99 217.58 477.09 217.55 477.2 217.54 483.51 217.54 483.62 217.55 483.73 217.58 483.83 217.64 483.92 217.71 483.99 217.79 484.04 217.89 484.07 218 484.08 218.11 484.08 220.02" class="cls-4"/><polyline points="486.05 220.02 486.05 218.11 486.06 218 486.1 217.89 486.15 217.79 486.22 217.71 486.31 217.64 486.41 217.58 486.51 217.55 486.63 217.54 492.93 217.54 493.04 217.55 493.15 217.58 493.25 217.64 493.34 217.71 493.41 217.79 493.46 217.89 493.5 218 493.51 218.11 493.51 220.02" class="cls-4"/><polyline points="495.47 220.02 495.47 218.11 495.49 218 495.52 217.89 495.57 217.79 495.64 217.71 495.73 217.64 495.83 217.58 495.94 217.55 496.05 217.54 502.35 217.54 502.47 217.55 502.57 217.58 502.67 217.64 502.76 217.71 502.83 217.79 502.88 217.89 502.92 218 502.93 218.11 502.93 220.02" class="cls-4"/><polyline points="504.89 220.02 504.89 218.11 504.91 218 504.94 217.89 504.99 217.79 505.06 217.71 505.15 217.64 505.25 217.58 505.36 217.55 505.47 217.54 511.77 217.54 511.89 217.55 511.99 217.58 512.09 217.64 512.18 217.71 512.25 217.79 512.3 217.89 512.34 218 512.35 218.11 512.35 220.02" class="cls-4"/><polyline points="514.49 220.02 514.49 218.11 514.5 218 514.53 217.89 514.59 217.79 514.66 217.71 514.74 217.64 514.84 217.58 514.95 217.55 515.06 217.54 521.37 217.54 521.48 217.55 521.59 217.58 521.69 217.64 521.77 217.71 521.85 217.79 521.9 217.89 521.93 218 521.94 218.11 521.94 220.02" class="cls-4"/></g><g><polyline points="522.33 280.84 522.33 282.75 522.31 282.86 522.28 282.97 522.23 283.07 522.16 283.15 522.07 283.23 521.97 283.28 521.86 283.31 521.75 283.32 515.45 283.32 515.33 283.31 515.23 283.28 515.13 283.23 515.04 283.15 514.97 283.07 514.92 282.97 514.88 282.86 514.87 282.75 514.87 280.84" class="cls-4"/><polyline points="512.9 280.84 512.9 282.75 512.89 282.86 512.86 282.97 512.81 283.07 512.74 283.15 512.65 283.23 512.55 283.28 512.44 283.31 512.33 283.32 506.02 283.32 505.91 283.31 505.8 283.28 505.7 283.23 505.62 283.15 505.55 283.07 505.49 282.97 505.46 282.86 505.45 282.75 505.45 280.84" class="cls-4"/><polyline points="503.48 280.84 503.48 282.75 503.47 282.86 503.44 282.97 503.39 283.07 503.31 283.15 503.23 283.23 503.13 283.28 503.02 283.31 502.91 283.32 496.6 283.32 496.49 283.31 496.38 283.28 496.28 283.23 496.2 283.15 496.13 283.07 496.07 282.97 496.04 282.86 496.03 282.75 496.03 280.84" class="cls-4"/><polyline points="494.06 280.84 494.06 282.75 494.05 282.86 494.02 282.97 493.96 283.07 493.89 283.15 493.8 283.23 493.71 283.28 493.6 283.31 493.49 283.32 487.18 283.32 487.07 283.31 486.96 283.28 486.86 283.23 486.77 283.15 486.7 283.07 486.65 282.97 486.62 282.86 486.61 282.75 486.61 280.84" class="cls-4"/><polyline points="484.64 280.84 484.64 282.75 484.63 282.86 484.59 282.97 484.54 283.07 484.47 283.15 484.38 283.23 484.28 283.28 484.18 283.31 484.07 283.32 477.76 283.32 477.65 283.31 477.54 283.28 477.44 283.23 477.35 283.15 477.28 283.07 477.23 282.97 477.2 282.86 477.19 282.75 477.19 280.84" class="cls-4"/><polyline points="475.22 280.84 475.22 282.75 475.21 282.86 475.17 282.97 475.12 283.07 475.05 283.15 474.96 283.23 474.86 283.28 474.76 283.31 474.64 283.32 468.34 283.32 468.23 283.31 468.12 283.28 468.02 283.23 467.93 283.15 467.86 283.07 467.81 282.97 467.77 282.86 467.76 282.75 467.76 280.84" class="cls-4"/><polyline points="465.8 280.84 465.8 282.75 465.78 282.86 465.75 282.97 465.7 283.07 465.63 283.15 465.54 283.23 465.44 283.28 465.33 283.31 465.22 283.32 458.92 283.32 458.8 283.31 458.7 283.28 458.6 283.23 458.51 283.15 458.44 283.07 458.39 282.97 458.35 282.86 458.34 282.75 458.34 280.84" class="cls-4"/><polyline points="456.37 280.84 456.37 282.75 456.36 282.86 456.33 282.97 456.28 283.07 456.21 283.15 456.12 283.23 456.02 283.28 455.91 283.31 455.8 283.32 449.49 283.32 449.38 283.31 449.27 283.28 449.17 283.23 449.09 283.15 449.02 283.07 448.96 282.97 448.93 282.86 448.92 282.75 448.92 280.84" class="cls-4"/><polyline points="446.95 280.84 446.95 282.75 446.94 282.86 446.91 282.97 446.86 283.07 446.78 283.15 446.7 283.23 446.6 283.28 446.49 283.31 446.38 283.32 440.07 283.32 439.96 283.31 439.85 283.28 439.75 283.23 439.67 283.15 439.6 283.07 439.54 282.97 439.51 282.86 439.5 282.75 439.5 280.84" class="cls-4"/><polyline points="437.53 280.84 437.53 282.75 437.52 282.86 437.49 282.97 437.43 283.07 437.36 283.15 437.28 283.23 437.18 283.28 437.07 283.31 436.96 283.32 430.65 283.32 430.54 283.31 430.43 283.28 430.33 283.23 430.25 283.15 430.17 283.07 430.12 282.97 430.09 282.86 430.08 282.75 430.08 280.84" class="cls-4"/><polyline points="428.11 280.84 428.11 282.75 428.1 282.86 428.07 282.97 428.01 283.07 427.94 283.15 427.85 283.23 427.76 283.28 427.65 283.31 427.54 283.32 421.23 283.32 421.12 283.31 421.01 283.28 420.91 283.23 420.82 283.15 420.75 283.07 420.7 282.97 420.67 282.86 420.66 282.75 420.66 280.84" class="cls-4"/><polyline points="418.69 280.84 418.69 282.75 418.68 282.86 418.64 282.97 418.59 283.07 418.52 283.15 418.43 283.23 418.33 283.28 418.23 283.31 418.11 283.32 411.81 283.32 411.7 283.31 411.59 283.28 411.49 283.23 411.4 283.15 411.33 283.07 411.28 282.97 411.25 282.86 411.23 282.75 411.23 280.84" class="cls-4"/><polyline points="409.27 280.84 409.27 282.75 409.26 282.86 409.22 282.97 409.17 283.07 409.1 283.15 409.01 283.23 408.91 283.28 408.81 283.31 408.69 283.32 402.39 283.32 402.28 283.31 402.17 283.28 402.07 283.23 401.98 283.15 401.91 283.07 401.86 282.97 401.82 282.86 401.81 282.75 401.81 280.84" class="cls-4"/><polyline points="399.85 280.84 399.85 282.75 399.83 282.86 399.8 282.97 399.75 283.07 399.68 283.15 399.59 283.23 399.49 283.28 399.38 283.31 399.27 283.32 392.97 283.32 392.85 283.31 392.75 283.28 392.65 283.23 392.56 283.15 392.49 283.07 392.44 282.97 392.4 282.86 392.39 282.75 392.39 280.84" class="cls-4"/><polyline points="390.42 280.84 390.42 282.75 390.41 282.86 390.38 282.97 390.33 283.07 390.26 283.15 390.17 283.23 390.07 283.28 389.96 283.31 389.85 283.32 383.54 283.32 383.43 283.31 383.32 283.28 383.22 283.23 383.14 283.15 383.07 283.07 383.01 282.97 382.98 282.86 382.97 282.75 382.97 280.84" class="cls-4"/><polyline points="381 280.84 381 282.75 380.99 282.86 380.96 282.97 380.91 283.07 380.83 283.15 380.75 283.23 380.65 283.28 380.54 283.31 380.43 283.32 374.12 283.32 374.01 283.31 373.9 283.28 373.8 283.23 373.72 283.15 373.65 283.07 373.59 282.97 373.56 282.86 373.55 282.75 373.55 280.84" class="cls-4"/><polyline points="371.58 280.84 371.58 282.75 371.57 282.86 371.54 282.97 371.48 283.07 371.41 283.15 371.33 283.23 371.23 283.28 371.12 283.31 371.01 283.32 364.7 283.32 364.59 283.31 364.48 283.28 364.38 283.23 364.3 283.15 364.22 283.07 364.17 282.97 364.14 282.86 364.13 282.75 364.13 280.84" class="cls-4"/><polyline points="361.99 280.84 361.99 282.75 361.98 282.86 361.94 282.97 361.89 283.07 361.82 283.15 361.73 283.23 361.63 283.28 361.53 283.31 361.41 283.32 355.11 283.32 355 283.31 354.89 283.28 354.79 283.23 354.7 283.15 354.63 283.07 354.58 282.97 354.54 282.86 354.53 282.75 354.53 280.84" class="cls-4"/></g></g><g><rect height="190.68" width="60.65" y="92.64" x="242.66" class="cls-4"/><g><rect height="117.06" width="2.48" y="130.48" x="240.19" class="cls-4"/><rect height="117.06" width="2.48" y="130.51" x="303.31" class="cls-4"/></g></g><g><polyline points="40.52 129.93 40.52 281.75 209.07 281.75 209.07 129.93 40.52 129.93" class="cls-4"/><rect height="190.68" width="171.61" y="92.64" x="38.99" class="cls-4"/><rect height="34.24" width="168.55" y="94.17" x="40.52" class="cls-4"/><circle r="2.1" cy="135.83" cx="205.33" class="cls-4"/><circle r=".95" cy="135.83" cx="205.33" class="cls-4"/><g><rect height="117.45" width="7.49" y="129.93" x="40.52" class="cls-4"/><rect height="117.45" width="7.49" y="129.93" x="49.98" class="cls-4"/><rect height="117.45" width="7.49" y="129.93" x="59.45" class="cls-4"/><rect height="117.45" width="7.49" y="129.93" x="68.91" class="cls-4"/><rect height="117.45" width="7.49" y="129.93" x="78.38" class="cls-4"/><rect height="117.45" width="7.49" y="129.93" x="87.84" class="cls-4"/><rect height="117.45" width="7.49" y="129.93" x="97.31" class="cls-4"/><rect height="117.45" width="7.49" y="129.93" x="106.77" class="cls-4"/><rect height="117.45" width="7.49" y="129.93" x="116.23" class="cls-4"/><rect height="117.45" width="7.49" y="129.93" x="125.7" class="cls-4"/><rect height="117.45" width="7.49" y="129.93" x="135.16" class="cls-4"/><rect height="117.45" width="7.49" y="129.93" x="144.63" class="cls-4"/><rect height="117.45" width="7.49" y="129.93" x="154.09" class="cls-4"/><rect height="117.45" width="7.49" y="129.93" x="163.56" class="cls-4"/><rect height="117.45" width="7.49" y="129.93" x="173.02" class="cls-4"/><rect height="117.45" width="7.49" y="129.93" x="182.49" class="cls-4"/><rect height="117.45" width="7.49" y="129.93" x="191.95" class="cls-4"/><rect height="117.45" width="7.49" y="129.93" x="201.59" class="cls-4"/></g><line y2="247.39" x2="209.07" y1="247.39" x1="40.52" class="cls-4"/></g></g></g></g></svg>