<svg viewBox="0 0 531.26 288" xmlns="http://www.w3.org/2000/svg"><defs><style>.cls-1 {
        fill: #12100a;
      }

      .cls-2 {
        stroke: #000;
        stroke-miterlimit: 10;
        stroke-width: .28px;
      }

      .cls-2, .cls-3 {
        fill: none;
      }

      .cls-3 {
        stroke: #12100a;
        stroke-linecap: round;
        stroke-linejoin: round;
        stroke-width: .3px;
      }</style></defs><g id="bases"><rect height="358.35" width="589.11" y="-33.95" x="-25.44" class="cls-2"/></g><g id="Urban"><g id="Frame"><g id="ecoponto_Q600"><g><path d="M449.19,138.61c-.24-.12-.44-.29-.61-.51-.17-.22-.3-.5-.39-.82s-.14-.69-.14-1.09.05-.8.15-1.15c.1-.35.24-.64.43-.89.18-.25.41-.43.67-.56.26-.13.55-.2.88-.2.37,0,.7.09.97.27.27.18.47.43.59.76l-.64.29c-.07-.21-.18-.37-.34-.48-.16-.11-.35-.17-.56-.17-.2,0-.38.05-.55.14s-.31.23-.44.4c-.13.17-.22.37-.29.61s-.1.49-.1.77v.17c0,.06,0,.1,0,.15.08-.25.23-.45.45-.59.22-.14.48-.21.79-.21.24,0,.46.04.65.12.2.08.36.19.5.34.14.15.25.32.33.52.08.2.12.42.12.66s-.04.47-.13.68c-.08.21-.2.38-.35.53-.15.14-.32.26-.53.34s-.43.12-.68.12c-.3,0-.57-.06-.81-.18ZM450.36,138.04c.12-.05.22-.12.3-.21.08-.09.15-.19.2-.31.05-.12.07-.26.07-.41s-.02-.29-.07-.41c-.05-.12-.12-.23-.2-.32s-.19-.16-.31-.21-.25-.07-.4-.07-.27.02-.39.07-.22.12-.31.2c-.09.09-.15.19-.2.31-.05.12-.07.25-.07.4s.03.28.08.41.12.24.21.34.2.17.32.22c.12.05.26.08.4.08s.26-.03.38-.08Z"/><path d="M454.29,133.45v5.29h-.72v-4.54l-1.3.64v-.73l1.36-.67h.67Z"/><path d="M458,133.59c.25.13.47.32.65.55.18.23.32.52.42.85.1.33.15.69.15,1.08s-.05.76-.15,1.1-.24.62-.42.86c-.18.24-.4.43-.65.56-.25.13-.52.2-.83.2s-.57-.07-.82-.2-.47-.32-.65-.56c-.18-.24-.32-.53-.42-.86-.1-.33-.15-.7-.15-1.1s.05-.75.15-1.08c.1-.33.24-.61.42-.85.18-.24.4-.42.65-.55.25-.13.53-.2.83-.2s.58.07.83.2ZM456.64,134.23c-.16.1-.29.23-.41.41-.11.18-.2.38-.27.63-.07.24-.1.51-.1.81s.03.57.09.82c.06.25.15.46.27.64.12.18.25.32.41.42.16.1.33.15.52.15s.37-.05.53-.15c.16-.1.3-.24.41-.42.11-.18.2-.39.27-.64.06-.25.09-.52.09-.82s-.03-.56-.09-.81c-.06-.25-.15-.46-.26-.63-.11-.17-.25-.31-.41-.41-.16-.1-.34-.15-.53-.15s-.37.05-.52.15Z"/><path d="M462.82,135.09v.67c.11-.24.26-.42.45-.54.18-.12.4-.18.63-.18.26,0,.48.07.67.2.19.14.32.33.41.59.11-.26.27-.45.46-.59.2-.14.43-.2.7-.2.38,0,.67.12.88.37.21.25.31.61.31,1.07v2.25h-.7v-2.16c0-.29-.07-.52-.2-.69-.13-.17-.31-.25-.54-.25-.12,0-.22.02-.32.07-.1.05-.18.11-.26.2-.07.09-.13.19-.16.32-.04.12-.06.26-.06.4v2.11h-.7v-2.16c0-.14-.02-.27-.06-.38-.04-.12-.09-.22-.15-.3-.06-.08-.14-.14-.23-.19-.09-.04-.2-.07-.31-.07s-.22.02-.32.07c-.1.05-.18.12-.25.21-.07.09-.12.2-.17.32-.04.12-.06.26-.06.41v2.09h-.7v-3.64h.68Z"/><path d="M469.01,135.09v.67c.11-.24.26-.42.45-.54.18-.12.4-.18.63-.18.26,0,.48.07.67.2.19.14.32.33.41.59.11-.26.27-.45.46-.59.2-.14.43-.2.7-.2.38,0,.67.12.88.37.21.25.31.61.31,1.07v2.25h-.7v-2.16c0-.29-.07-.52-.2-.69-.13-.17-.31-.25-.54-.25-.12,0-.22.02-.32.07-.1.05-.18.11-.26.2-.07.09-.13.19-.16.32-.04.12-.06.26-.06.4v2.11h-.7v-2.16c0-.14-.02-.27-.06-.38-.04-.12-.09-.22-.15-.3-.06-.08-.14-.14-.23-.19-.09-.04-.2-.07-.31-.07s-.22.02-.32.07c-.1.05-.18.12-.25.21-.07.09-.12.2-.17.32-.04.12-.06.26-.06.41v2.09h-.7v-3.64h.68Z"/></g><g><path d="M7.54,201.23h5.29v.72h-4.54l.64,1.3h-.73l-.67-1.36v-.67Z"/><path d="M7.69,197.53c.13-.25.32-.47.55-.65.23-.18.52-.32.85-.42.33-.1.69-.15,1.08-.15s.76.05,1.1.15.62.24.86.42c.24.18.43.4.56.65.13.25.2.52.2.83s-.07.57-.2.82-.32.47-.56.65c-.24.18-.53.32-.86.42-.33.1-.7.15-1.1.15s-.75-.05-1.08-.15c-.33-.1-.61-.24-.85-.42-.24-.18-.42-.4-.55-.65-.13-.25-.2-.53-.2-.83s.07-.58.2-.83ZM8.32,198.88c.1.16.23.29.41.41.18.11.38.2.63.27.24.07.51.1.81.1s.57-.03.82-.09c.25-.06.46-.15.64-.27.18-.12.32-.25.42-.41.1-.16.15-.33.15-.52s-.05-.37-.15-.53c-.1-.16-.24-.3-.42-.41-.18-.11-.39-.2-.64-.27-.25-.06-.52-.09-.82-.09s-.56.03-.81.09c-.25.06-.46.15-.63.26-.17.11-.31.25-.41.41-.1.16-.15.34-.15.53s.05.37.15.52Z"/><path d="M7.69,192.89c.13-.25.32-.47.55-.65.23-.18.52-.32.85-.42.33-.1.69-.15,1.08-.15s.76.05,1.1.15.62.24.86.42c.24.18.43.4.56.65.13.25.2.52.2.83s-.07.57-.2.82-.32.47-.56.65c-.24.18-.53.32-.86.42-.33.1-.7.15-1.1.15s-.75-.05-1.08-.15c-.33-.1-.61-.24-.85-.42-.24-.18-.42-.4-.55-.65-.13-.25-.2-.53-.2-.83s.07-.58.2-.83ZM8.32,194.25c.1.16.23.29.41.41.18.11.38.2.63.27.24.07.51.1.81.1s.57-.03.82-.09c.25-.06.46-.15.64-.27.18-.12.32-.25.42-.41.1-.16.15-.33.15-.52s-.05-.37-.15-.53c-.1-.16-.24-.3-.42-.41-.18-.11-.39-.2-.64-.27-.25-.06-.52-.09-.82-.09s-.56.03-.81.09c-.25.06-.46.15-.63.26-.17.11-.31.25-.41.41-.1.16-.15.34-.15.53s.05.37.15.52Z"/><path d="M7.69,188.26c.13-.25.32-.47.55-.65.23-.18.52-.32.85-.42.33-.1.69-.15,1.08-.15s.76.05,1.1.15.62.24.86.42c.24.18.43.4.56.65.13.25.2.52.2.83s-.07.57-.2.82-.32.47-.56.65c-.24.18-.53.32-.86.42-.33.1-.7.15-1.1.15s-.75-.05-1.08-.15c-.33-.1-.61-.24-.85-.42-.24-.18-.42-.4-.55-.65-.13-.25-.2-.53-.2-.83s.07-.58.2-.83ZM8.32,189.61c.1.16.23.29.41.41.18.11.38.2.63.27.24.07.51.1.81.1s.57-.03.82-.09c.25-.06.46-.15.64-.27.18-.12.32-.25.42-.41.1-.16.15-.33.15-.52s-.05-.37-.15-.53c-.1-.16-.24-.3-.42-.41-.18-.11-.39-.2-.64-.27-.25-.06-.52-.09-.82-.09s-.56.03-.81.09c-.25.06-.46.15-.63.26-.17.11-.31.25-.41.41-.1.16-.15.34-.15.53s.05.37.15.52Z"/><path d="M9.19,183.43h.67c-.24-.11-.42-.26-.54-.45-.12-.18-.18-.4-.18-.63,0-.26.07-.48.2-.67.14-.19.33-.32.59-.41-.26-.11-.45-.27-.59-.46-.14-.2-.2-.43-.2-.7,0-.38.12-.67.37-.88.25-.21.61-.31,1.07-.31h2.25v.7h-2.16c-.29,0-.52.07-.69.2-.17.13-.25.31-.25.54,0,.12.02.22.07.32.05.1.11.18.2.26.09.07.19.13.32.16.12.04.26.06.4.06h2.11v.7h-2.16c-.14,0-.27.02-.38.06-.12.04-.22.09-.3.15-.08.06-.14.14-.19.23-.04.09-.07.2-.07.31s.02.22.07.32c.05.1.12.18.21.25.09.07.2.12.32.17.12.04.26.06.41.06h2.09v.7h-3.64v-.68Z"/><path d="M9.19,177.25h.67c-.24-.11-.42-.26-.54-.45-.12-.18-.18-.4-.18-.63,0-.26.07-.48.2-.67.14-.19.33-.32.59-.41-.26-.11-.45-.27-.59-.46-.14-.2-.2-.43-.2-.7,0-.38.12-.67.37-.88.25-.21.61-.31,1.07-.31h2.25v.7h-2.16c-.29,0-.52.07-.69.2-.17.13-.25.31-.25.54,0,.12.02.22.07.32.05.1.11.18.2.26.09.07.19.13.32.16.12.04.26.06.4.06h2.11v.7h-2.16c-.14,0-.27.02-.38.06-.12.04-.22.09-.3.15-.08.06-.14.14-.19.23-.04.09-.07.2-.07.31s.02.22.07.32c.05.1.12.18.21.25.09.07.2.12.32.17.12.04.26.06.41.06h2.09v.7h-3.64v-.68Z"/></g><g><path d="M365.75,237.33h.65v1.92l1.54.25c-.09-.1-.16-.22-.21-.36-.05-.14-.07-.29-.07-.46,0-.25.04-.47.13-.68.08-.21.2-.38.35-.53.15-.15.33-.27.54-.35.21-.08.44-.12.69-.12s.48.04.7.13c.21.09.4.21.55.36.15.16.27.34.36.56.08.21.13.45.13.71,0,.2-.03.39-.08.58s-.13.35-.23.5c-.1.15-.22.28-.36.39-.14.11-.3.19-.48.24l-.31-.63c.24-.07.43-.19.56-.39.14-.19.21-.42.21-.67,0-.15-.03-.29-.08-.41-.05-.13-.12-.23-.21-.33-.09-.09-.2-.16-.33-.21-.13-.05-.27-.08-.43-.08s-.3.03-.44.08c-.13.05-.25.13-.34.22s-.17.21-.22.34c-.05.13-.08.28-.08.44,0,.18.04.35.1.49.07.14.17.26.31.36l-.15.62-2.79-.47v-2.52Z"/><path d="M365.87,233.93c.12-.24.29-.44.51-.61.22-.17.5-.3.82-.39.32-.09.69-.14,1.09-.14s.8.05,1.15.15c.35.1.64.24.89.43s.43.41.56.67c.13.26.2.55.2.88,0,.37-.09.7-.27.97-.18.27-.43.47-.76.59l-.29-.64c.21-.07.37-.18.48-.34.11-.16.17-.35.17-.56,0-.2-.05-.38-.14-.55-.09-.17-.23-.31-.4-.44-.17-.13-.37-.22-.61-.29-.24-.07-.49-.1-.77-.1h-.17c-.06,0-.1,0-.15,0,.25.08.45.23.59.45.14.22.21.48.21.79,0,.24-.04.46-.12.65-.08.2-.19.36-.34.5-.14.14-.32.25-.52.33-.2.08-.42.12-.66.12s-.47-.04-.68-.13c-.21-.08-.38-.2-.52-.35-.14-.15-.26-.32-.34-.53-.08-.21-.12-.43-.12-.68,0-.3.06-.57.18-.81ZM366.44,235.09c.05.12.12.22.21.3.09.08.19.15.31.2.12.05.26.07.41.07s.29-.02.41-.07c.12-.05.23-.12.32-.2.09-.09.16-.19.21-.31.05-.12.07-.25.07-.4s-.02-.27-.07-.39c-.05-.12-.12-.22-.2-.31-.09-.09-.19-.15-.31-.2-.12-.05-.25-.07-.4-.07s-.28.03-.41.08c-.13.05-.24.13-.34.21-.1.09-.17.2-.22.32s-.08.26-.08.4.03.26.08.38Z"/><path d="M365.89,229.36c.13-.25.32-.47.55-.65.23-.18.52-.32.85-.42.33-.1.69-.15,1.08-.15s.76.05,1.1.15.62.24.86.42c.24.18.43.4.56.65.13.25.2.52.2.83s-.07.57-.2.82-.32.47-.56.65c-.24.18-.53.32-.86.42-.33.1-.7.15-1.1.15s-.75-.05-1.08-.15c-.33-.1-.61-.24-.85-.42-.24-.18-.42-.4-.55-.65-.13-.25-.2-.53-.2-.83s.07-.58.2-.83ZM366.52,230.71c.1.16.23.29.41.41.18.11.38.2.63.27.24.07.51.1.81.1s.57-.03.82-.09c.25-.06.46-.15.64-.27.18-.12.32-.25.42-.41.1-.16.15-.33.15-.52s-.05-.37-.15-.53c-.1-.16-.24-.3-.42-.41-.18-.11-.39-.2-.64-.27-.25-.06-.52-.09-.82-.09s-.56.03-.81.09c-.25.06-.46.15-.63.26-.17.11-.31.25-.41.41-.1.16-.15.34-.15.53s.05.37.15.52Z"/><path d="M367.39,224.53h.67c-.24-.11-.42-.26-.54-.45-.12-.18-.18-.4-.18-.63,0-.26.07-.48.2-.67.14-.19.33-.32.59-.41-.26-.11-.45-.27-.59-.46-.14-.2-.2-.43-.2-.7,0-.38.12-.67.37-.88.25-.21.61-.31,1.07-.31h2.25v.7h-2.16c-.29,0-.52.07-.69.2-.17.13-.25.31-.25.54,0,.12.02.22.07.32.05.1.11.18.2.26.09.07.19.13.32.16.12.04.26.06.4.06h2.11v.7h-2.16c-.14,0-.27.02-.38.06-.12.04-.22.09-.3.15-.08.06-.14.14-.19.23-.04.09-.07.2-.07.31s.02.22.07.32c.05.1.12.18.21.25.09.07.2.12.32.17.12.04.26.06.41.06h2.09v.7h-3.64v-.68Z"/><path d="M367.39,218.35h.67c-.24-.11-.42-.26-.54-.45-.12-.18-.18-.4-.18-.63,0-.26.07-.48.2-.67.14-.19.33-.32.59-.41-.26-.11-.45-.27-.59-.46-.14-.2-.2-.43-.2-.7,0-.38.12-.67.37-.88.25-.21.61-.31,1.07-.31h2.25v.7h-2.16c-.29,0-.52.07-.69.2-.17.13-.25.31-.25.54,0,.12.02.22.07.32.05.1.11.18.2.26.09.07.19.13.32.16.12.04.26.06.4.06h2.11v.7h-2.16c-.14,0-.27.02-.38.06-.12.04-.22.09-.3.15-.08.06-.14.14-.19.23-.04.09-.07.2-.07.31s.02.22.07.32c.05.1.12.18.21.25.09.07.2.12.32.17.12.04.26.06.41.06h2.09v.7h-3.64v-.68Z"/></g><g><line y2="142.66" x2="402.93" y1="142.66" x1="518.84" class="cls-3"/><rect height="1.95" width=".3" y="141.69" x="518.69" class="cls-1"/><rect height="1.95" width=".3" y="141.69" x="402.78" class="cls-1"/></g><g><line y2="283.1" x2="374.96" y1="170.99" x1="374.96" class="cls-3"/><rect height=".3" width="1.95" y="170.84" x="373.98" class="cls-1"/><rect height=".3" width="1.95" y="282.95" x="373.98" class="cls-1"/></g><g><line y2="283" x2="16.75" y1="92.78" x1="16.75" class="cls-3"/><rect height=".3" width="1.95" y="92.63" x="15.78" class="cls-1"/><rect height=".3" width="1.95" y="282.85" x="15.78" class="cls-1"/></g><g><rect height="107.45" width="116.22" y="173.32" x="402.59" class="cls-3"/><g><polyline points="404.68 173.29 404.68 171.36 404.69 171.26 404.72 171.15 404.77 171.06 404.85 170.97 404.93 170.91 405.03 170.86 405.14 170.82 405.25 170.81 411.53 170.81 411.64 170.82 411.74 170.86 411.84 170.91 411.93 170.97 412 171.06 412.05 171.15 412.08 171.26 412.1 171.36 412.1 173.29" class="cls-3"/><polyline points="414.19 173.29 414.19 171.36 414.2 171.26 414.23 171.15 414.29 171.06 414.36 170.97 414.44 170.91 414.54 170.86 414.65 170.82 414.76 170.81 421.04 170.81 421.15 170.82 421.25 170.86 421.35 170.91 421.44 170.97 421.51 171.06 421.56 171.15 421.6 171.26 421.61 171.36 421.61 173.29" class="cls-3"/><polyline points="423.7 173.29 423.7 171.36 423.71 171.26 423.74 171.15 423.8 171.06 423.87 170.97 423.95 170.91 424.05 170.86 424.16 170.82 424.27 170.81 430.55 170.81 430.66 170.82 430.76 170.86 430.86 170.91 430.95 170.97 431.02 171.06 431.07 171.15 431.11 171.26 431.12 171.36 431.12 173.29" class="cls-3"/><polyline points="433.21 173.29 433.21 171.36 433.22 171.26 433.25 171.15 433.31 171.06 433.38 170.97 433.46 170.91 433.56 170.86 433.67 170.82 433.78 170.81 440.06 170.81 440.17 170.82 440.27 170.86 440.37 170.91 440.46 170.97 440.53 171.06 440.58 171.15 440.62 171.26 440.63 171.36 440.63 173.29" class="cls-3"/><polyline points="442.72 173.29 442.72 171.36 442.73 171.26 442.76 171.15 442.82 171.06 442.89 170.97 442.97 170.91 443.07 170.86 443.18 170.82 443.29 170.81 449.57 170.81 449.68 170.82 449.79 170.86 449.89 170.91 449.97 170.97 450.04 171.06 450.09 171.15 450.13 171.26 450.14 171.36 450.14 173.29" class="cls-3"/><polyline points="452.23 173.29 452.23 171.36 452.24 171.26 452.27 171.15 452.33 171.06 452.4 170.97 452.48 170.91 452.58 170.86 452.69 170.82 452.8 170.81 459.08 170.81 459.19 170.82 459.3 170.86 459.4 170.91 459.48 170.97 459.55 171.06 459.6 171.15 459.64 171.26 459.65 171.36 459.65 173.29" class="cls-3"/><polyline points="461.74 173.29 461.74 171.36 461.75 171.26 461.78 171.15 461.84 171.06 461.91 170.97 461.99 170.91 462.09 170.86 462.2 170.82 462.31 170.81 468.59 170.81 468.7 170.82 468.81 170.86 468.91 170.91 468.99 170.97 469.06 171.06 469.12 171.15 469.15 171.26 469.16 171.36 469.16 173.29" class="cls-3"/><polyline points="471.25 173.29 471.25 171.36 471.26 171.26 471.29 171.15 471.35 171.06 471.42 170.97 471.51 170.91 471.6 170.86 471.71 170.82 471.82 170.81 478.1 170.81 478.21 170.82 478.32 170.86 478.42 170.91 478.5 170.97 478.57 171.06 478.63 171.15 478.66 171.26 478.67 171.36 478.67 173.29" class="cls-3"/><polyline points="480.76 173.29 480.76 171.36 480.77 171.26 480.8 171.15 480.86 171.06 480.93 170.97 481.02 170.91 481.11 170.86 481.22 170.82 481.33 170.81 487.61 170.81 487.72 170.82 487.83 170.86 487.93 170.91 488.01 170.97 488.08 171.06 488.14 171.15 488.17 171.26 488.18 171.36 488.18 173.29" class="cls-3"/><polyline points="490.27 173.29 490.27 171.36 490.28 171.26 490.32 171.15 490.37 171.06 490.44 170.97 490.53 170.91 490.63 170.86 490.73 170.82 490.84 170.81 497.12 170.81 497.23 170.82 497.34 170.86 497.44 170.91 497.52 170.97 497.59 171.06 497.65 171.15 497.68 171.26 497.69 171.36 497.69 173.29" class="cls-3"/><polyline points="499.78 173.29 499.78 171.36 499.79 171.26 499.83 171.15 499.88 171.06 499.95 170.97 500.04 170.91 500.14 170.86 500.24 170.82 500.35 170.81 506.63 170.81 506.74 170.82 506.85 170.86 506.95 170.91 507.03 170.97 507.11 171.06 507.16 171.15 507.19 171.26 507.2 171.36 507.2 173.29" class="cls-3"/><polyline points="509.29 173.29 509.29 171.36 509.3 171.26 509.34 171.15 509.39 171.06 509.46 170.97 509.55 170.91 509.65 170.86 509.75 170.82 509.86 170.81 516.14 170.81 516.25 170.82 516.36 170.86 516.46 170.91 516.54 170.97 516.62 171.06 516.67 171.15 516.7 171.26 516.71 171.36 516.71 173.29" class="cls-3"/></g><g><polyline points="516.71 280.8 516.71 282.73 516.7 282.84 516.67 282.94 516.62 283.04 516.54 283.12 516.46 283.19 516.36 283.24 516.25 283.27 516.14 283.28 509.87 283.28 509.75 283.27 509.65 283.24 509.55 283.19 509.46 283.12 509.39 283.04 509.34 282.94 509.31 282.84 509.29 282.73 509.29 280.8" class="cls-3"/><polyline points="507.2 280.8 507.2 282.73 507.19 282.84 507.16 282.94 507.11 283.04 507.03 283.12 506.95 283.19 506.85 283.24 506.74 283.27 506.63 283.28 500.35 283.28 500.24 283.27 500.14 283.24 500.04 283.19 499.95 283.12 499.88 283.04 499.83 282.94 499.8 282.84 499.78 282.73 499.78 280.8" class="cls-3"/><polyline points="497.69 280.8 497.69 282.73 497.68 282.84 497.65 282.94 497.59 283.04 497.52 283.12 497.44 283.19 497.34 283.24 497.23 283.27 497.12 283.28 490.84 283.28 490.73 283.27 490.63 283.24 490.53 283.19 490.44 283.12 490.37 283.04 490.32 282.94 490.28 282.84 490.27 282.73 490.27 280.8" class="cls-3"/><polyline points="488.18 280.8 488.18 282.73 488.17 282.84 488.14 282.94 488.08 283.04 488.01 283.12 487.93 283.19 487.83 283.24 487.72 283.27 487.61 283.28 481.33 283.28 481.22 283.27 481.12 283.24 481.02 283.19 480.93 283.12 480.86 283.04 480.81 282.94 480.77 282.84 480.76 282.73 480.76 280.8" class="cls-3"/><polyline points="478.67 280.8 478.67 282.73 478.66 282.84 478.63 282.94 478.57 283.04 478.5 283.12 478.42 283.19 478.32 283.24 478.21 283.27 478.1 283.28 471.82 283.28 471.71 283.27 471.6 283.24 471.5 283.19 471.42 283.12 471.35 283.04 471.3 282.94 471.26 282.84 471.25 282.73 471.25 280.8" class="cls-3"/><polyline points="469.16 280.8 469.16 282.73 469.15 282.84 469.12 282.94 469.06 283.04 468.99 283.12 468.91 283.19 468.81 283.24 468.7 283.27 468.59 283.28 462.31 283.28 462.2 283.27 462.09 283.24 462 283.19 461.91 283.12 461.84 283.04 461.79 282.94 461.75 282.84 461.74 282.73 461.74 280.8" class="cls-3"/><polyline points="459.65 280.8 459.65 282.73 459.64 282.84 459.61 282.94 459.55 283.04 459.48 283.12 459.4 283.19 459.3 283.24 459.19 283.27 459.08 283.28 452.8 283.28 452.69 283.27 452.58 283.24 452.48 283.19 452.4 283.12 452.33 283.04 452.27 282.94 452.24 282.84 452.23 282.73 452.23 280.8" class="cls-3"/><polyline points="450.14 280.8 450.14 282.73 450.13 282.84 450.1 282.94 450.04 283.04 449.97 283.12 449.88 283.19 449.79 283.24 449.68 283.27 449.57 283.28 443.29 283.28 443.18 283.27 443.07 283.24 442.97 283.19 442.89 283.12 442.82 283.04 442.76 282.94 442.73 282.84 442.72 282.73 442.72 280.8" class="cls-3"/><polyline points="440.63 280.8 440.63 282.73 440.62 282.84 440.59 282.94 440.53 283.04 440.46 283.12 440.37 283.19 440.28 283.24 440.17 283.27 440.06 283.28 433.78 283.28 433.67 283.27 433.56 283.24 433.46 283.19 433.38 283.12 433.31 283.04 433.25 282.94 433.22 282.84 433.21 282.73 433.21 280.8" class="cls-3"/><polyline points="431.12 280.8 431.12 282.73 431.11 282.84 431.07 282.94 431.02 283.04 430.95 283.12 430.86 283.19 430.76 283.24 430.66 283.27 430.55 283.28 424.27 283.28 424.16 283.27 424.05 283.24 423.95 283.19 423.87 283.12 423.8 283.04 423.74 282.94 423.71 282.84 423.7 282.73 423.7 280.8" class="cls-3"/><polyline points="421.61 280.8 421.61 282.73 421.6 282.84 421.56 282.94 421.51 283.04 421.44 283.12 421.35 283.19 421.25 283.24 421.15 283.27 421.04 283.28 414.76 283.28 414.65 283.27 414.54 283.24 414.44 283.19 414.36 283.12 414.29 283.04 414.23 282.94 414.2 282.84 414.19 282.73 414.19 280.8" class="cls-3"/><polyline points="412.1 280.8 412.1 282.73 412.09 282.84 412.05 282.94 412 283.04 411.93 283.12 411.84 283.19 411.74 283.24 411.64 283.27 411.53 283.28 405.25 283.28 405.14 283.27 405.03 283.24 404.93 283.19 404.85 283.12 404.77 283.04 404.72 282.94 404.69 282.84 404.68 282.73 404.68 280.8" class="cls-3"/></g></g><g><rect height="190.52" width="107.43" y="92.76" x="206.24" class="cls-3"/><g><rect height="117.06" width="2.49" y="130.63" x="203.75" class="cls-3"/><rect height="117.06" width="2.49" y="130.63" x="313.67" class="cls-3"/></g></g><g><line y2="128.42" x2="154.25" y1="128.42" x1="41.08" class="cls-3"/><line y2="129.94" x2="154.25" y1="129.94" x1="41.08" class="cls-3"/><rect height="190.52" width="116.22" y="92.67" x="39.56" class="cls-3"/><polyline points="41.08 128.42 41.08 94.2 154.25 94.2 154.25 128.42" class="cls-3"/><polyline points="154.25 129.94 154.25 281.67 41.08 281.67 41.08 129.94" class="cls-3"/><g><rect height="117.51" width="7.48" y="129.94" x="41.08" class="cls-3"/><rect height="117.51" width="7.48" y="129.94" x="50.68" class="cls-3"/><rect height="117.51" width="7.48" y="129.94" x="60.29" class="cls-3"/><rect height="117.51" width="7.48" y="129.94" x="69.89" class="cls-3"/><rect height="117.51" width="7.48" y="129.94" x="79.5" class="cls-3"/><rect height="117.51" width="7.48" y="129.94" x="89.1" class="cls-3"/><rect height="117.51" width="7.48" y="129.94" x="98.71" class="cls-3"/><rect height="117.51" width="7.48" y="129.94" x="108.31" class="cls-3"/><rect height="117.51" width="7.48" y="129.94" x="117.92" class="cls-3"/><rect height="117.51" width="7.48" y="129.94" x="127.52" class="cls-3"/><rect height="117.51" width="7.48" y="129.94" x="137.13" class="cls-3"/><rect height="117.51" width="7.48" y="129.94" x="146.77" class="cls-3"/></g><line y2="247.45" x2="154.25" y1="247.45" x1="41.08" class="cls-3"/></g><circle r="2.1" cy="136.36" cx="150.59" class="cls-3"/><circle r=".95" cy="136.36" cx="150.59" class="cls-3"/></g></g></g></svg>