<svg viewBox="0 0 531.27 288" xmlns:xlink="http://www.w3.org/1999/xlink" xmlns="http://www.w3.org/2000/svg" id="Camada_2"><defs><style>.cls-1,.cls-2{fill:none;}.cls-3{fill:#12100c;}.cls-2{stroke:#12100c;stroke-linecap:round;stroke-linejoin:round;stroke-width:.3px;}</style><symbol viewBox="0 0 531.27 288" id="fundo_transparente"><rect height="288" width="531.27" x="0" class="cls-1"/></symbol></defs><g id="RePlastic"><g id="portão_cancela_Crayons"><use xlink:href="#fundo_transparente" height="288" width="531.27"/><path d="M140.14,11.68v5.29h-.72v-4.54l-1.3.64v-.73l1.36-.67h.67Z"/><path d="M142.97,11.68v5.29h-.72v-4.54l-1.3.64v-.73l1.36-.67h.67Z"/><path d="M146.35,11.8c.24.12.44.29.61.51.17.22.3.5.39.82.09.32.14.69.14,1.09s-.05.8-.15,1.15c-.1.35-.24.64-.43.89s-.41.43-.67.56c-.26.13-.55.2-.88.2-.37,0-.7-.09-.97-.27-.27-.18-.47-.43-.59-.76l.64-.29c.07.21.18.37.34.48.16.11.35.17.56.17.2,0,.38-.05.55-.14.17-.09.31-.23.44-.4.13-.17.22-.37.29-.61.07-.24.1-.49.1-.77v-.17c0-.06,0-.1,0-.15-.08.25-.23.45-.45.59-.22.14-.48.21-.79.21-.24,0-.46-.04-.65-.12-.2-.08-.36-.19-.5-.34-.14-.14-.25-.32-.33-.52-.08-.2-.12-.42-.12-.66s.04-.47.13-.68c.08-.21.2-.38.35-.52.15-.14.32-.26.53-.34.21-.08.43-.12.68-.12.3,0,.57.06.81.18ZM145.18,12.37c-.12.05-.22.12-.3.21-.08.09-.15.19-.2.31-.05.12-.07.26-.07.41s.02.29.07.41c.05.12.12.23.2.32.09.09.19.16.31.21.12.05.25.07.4.07s.27-.02.39-.07c.12-.05.22-.12.31-.2.09-.09.15-.19.2-.31.05-.12.07-.25.07-.4s-.03-.28-.08-.41c-.05-.13-.13-.24-.21-.34-.09-.1-.2-.17-.32-.22s-.26-.08-.4-.08-.26.03-.38.08Z"/><path d="M150.91,11.82c.25.13.47.32.65.55.18.23.32.52.42.85.1.33.15.69.15,1.08s-.05.76-.15,1.1-.24.62-.42.86c-.18.24-.4.43-.65.56-.25.13-.52.2-.83.2s-.57-.07-.82-.2-.47-.32-.65-.56c-.18-.24-.32-.53-.42-.86-.1-.33-.15-.7-.15-1.1s.05-.75.15-1.08c.1-.33.24-.61.42-.85.18-.24.4-.42.65-.55.25-.13.53-.2.83-.2s.58.07.83.2ZM149.56,12.46c-.16.1-.29.23-.41.41-.11.18-.2.38-.27.63-.07.24-.1.51-.1.81s.03.57.09.82c.06.25.15.46.27.64.12.18.25.32.41.42.16.1.33.15.52.15s.37-.05.53-.15c.16-.1.3-.24.41-.42.11-.18.2-.39.27-.64.06-.25.09-.52.09-.82s-.03-.56-.09-.81c-.06-.25-.15-.46-.26-.63-.11-.17-.25-.31-.41-.41-.16-.1-.34-.15-.53-.15s-.37.05-.52.15Z"/><path d="M155.74,13.32v.67c.11-.24.26-.42.45-.54.18-.12.4-.18.63-.18.26,0,.48.07.67.2.19.14.32.33.41.59.11-.26.27-.45.46-.59.2-.14.43-.2.7-.2.38,0,.67.12.88.37.21.25.31.61.31,1.07v2.25h-.7v-2.16c0-.29-.07-.52-.2-.69-.13-.17-.31-.25-.54-.25-.12,0-.22.02-.32.07-.1.05-.18.11-.26.2-.07.09-.13.19-.16.32-.04.12-.06.26-.06.4v2.11h-.7v-2.16c0-.14-.02-.27-.06-.38-.04-.12-.09-.22-.15-.3-.06-.08-.14-.14-.23-.19-.09-.04-.2-.07-.31-.07s-.22.02-.32.07c-.1.05-.18.12-.25.21-.07.09-.12.2-.17.32-.04.12-.06.26-.06.41v2.09h-.7v-3.64h.68Z"/><path d="M161.93,13.32v.67c.11-.24.26-.42.45-.54.18-.12.4-.18.63-.18.26,0,.48.07.67.2.19.14.32.33.41.59.11-.26.27-.45.46-.59.2-.14.43-.2.7-.2.38,0,.67.12.88.37.21.25.31.61.31,1.07v2.25h-.7v-2.16c0-.29-.07-.52-.2-.69-.13-.17-.31-.25-.54-.25-.12,0-.22.02-.32.07-.1.05-.18.11-.26.2-.07.09-.13.19-.16.32-.04.12-.06.26-.06.4v2.11h-.7v-2.16c0-.14-.02-.27-.06-.38-.04-.12-.09-.22-.15-.3-.06-.08-.14-.14-.23-.19-.09-.04-.2-.07-.31-.07s-.22.02-.32.07c-.1.05-.18.12-.25.21-.07.09-.12.2-.17.32-.04.12-.06.26-.06.41v2.09h-.7v-3.64h.68Z"/><line y2="21.72" x2="270.89" y1="21.72" x1="33.88" class="cls-2"/><rect height="1.95" width=".3" y="20.75" x="33.73" class="cls-3"/><rect height="1.95" width=".3" y="20.75" x="270.74" class="cls-3"/><path d="M9.7,200c.12-.24.29-.44.51-.61.22-.17.5-.3.82-.39.32-.09.69-.14,1.09-.14s.8.05,1.15.15c.35.1.64.24.89.43s.43.41.56.67c.13.26.2.55.2.88,0,.37-.09.7-.27.97-.18.27-.43.47-.76.59l-.29-.64c.21-.07.37-.18.48-.34.11-.16.17-.35.17-.56,0-.2-.05-.38-.14-.55-.09-.17-.23-.31-.4-.44-.17-.13-.37-.22-.61-.29-.24-.07-.49-.1-.77-.1h-.17c-.06,0-.1,0-.15,0,.25.08.45.23.59.45.14.22.21.48.21.79,0,.24-.04.46-.12.65-.08.2-.19.36-.34.5-.14.14-.32.25-.52.33-.2.08-.42.12-.66.12s-.47-.04-.68-.13c-.21-.08-.38-.2-.52-.35-.14-.15-.26-.32-.34-.53-.08-.21-.12-.43-.12-.68,0-.3.06-.57.18-.81ZM10.27,201.17c.05.12.12.22.21.3.09.08.19.15.31.2.12.05.26.07.41.07s.29-.02.41-.07c.12-.05.23-.12.32-.2.09-.09.16-.19.21-.31.05-.12.07-.25.07-.4s-.02-.27-.07-.39c-.05-.12-.12-.22-.2-.31-.09-.09-.19-.15-.31-.2-.12-.05-.25-.07-.4-.07s-.28.03-.41.08c-.13.05-.24.13-.34.21-.1.09-.17.2-.22.32s-.08.26-.08.4.03.26.08.38Z"/><path d="M9.72,195.43c.13-.25.32-.47.55-.65.23-.18.52-.32.85-.42.33-.1.69-.15,1.08-.15s.76.05,1.1.15.62.24.86.42c.24.18.43.4.56.65.13.25.2.52.2.83s-.07.57-.2.82-.32.47-.56.65c-.24.18-.53.32-.86.42-.33.1-.7.15-1.1.15s-.75-.05-1.08-.15c-.33-.1-.61-.24-.85-.42-.24-.18-.42-.4-.55-.65-.13-.25-.2-.53-.2-.83s.07-.58.2-.83ZM10.36,196.78c.1.16.23.29.41.41.18.11.38.2.63.27.24.07.51.1.81.1s.57-.03.82-.09c.25-.06.46-.15.64-.27.18-.12.32-.25.42-.41.1-.16.15-.33.15-.52s-.05-.37-.15-.53c-.1-.16-.24-.3-.42-.41-.18-.11-.39-.2-.64-.27-.25-.06-.52-.09-.82-.09s-.56.03-.81.09c-.25.06-.46.15-.63.26-.17.11-.31.25-.41.41-.1.16-.15.34-.15.53s.05.37.15.52Z"/><path d="M9.72,190.8c.13-.25.32-.47.55-.65.23-.18.52-.32.85-.42.33-.1.69-.15,1.08-.15s.76.05,1.1.15.62.24.86.42c.24.18.43.4.56.65.13.25.2.52.2.83s-.07.57-.2.82-.32.47-.56.65c-.24.18-.53.32-.86.42-.33.1-.7.15-1.1.15s-.75-.05-1.08-.15c-.33-.1-.61-.24-.85-.42-.24-.18-.42-.4-.55-.65-.13-.25-.2-.53-.2-.83s.07-.58.2-.83ZM10.36,192.15c.1.16.23.29.41.41.18.11.38.2.63.27.24.07.51.1.81.1s.57-.03.82-.09c.25-.06.46-.15.64-.27.18-.12.32-.25.42-.41.1-.16.15-.33.15-.52s-.05-.37-.15-.53c-.1-.16-.24-.3-.42-.41-.18-.11-.39-.2-.64-.27-.25-.06-.52-.09-.82-.09s-.56.03-.81.09c-.25.06-.46.15-.63.26-.17.11-.31.25-.41.41-.1.16-.15.34-.15.53s.05.37.15.52Z"/><path d="M11.23,185.97h.67c-.24-.11-.42-.26-.54-.45-.12-.18-.18-.4-.18-.63,0-.26.07-.48.2-.67.14-.19.33-.32.59-.41-.26-.11-.45-.27-.59-.46-.14-.2-.2-.43-.2-.7,0-.38.12-.67.37-.88.25-.21.61-.31,1.07-.31h2.25v.7h-2.16c-.29,0-.52.07-.69.2-.17.13-.25.31-.25.54,0,.12.02.22.07.32.05.1.11.18.2.26.09.07.19.13.32.16.12.04.26.06.4.06h2.11v.7h-2.16c-.14,0-.27.02-.38.06-.12.04-.22.09-.3.15-.08.06-.14.14-.19.23-.04.09-.07.2-.07.31s.02.22.07.32c.05.1.12.18.21.25.09.07.2.12.32.17.12.04.26.06.41.06h2.09v.7h-3.64v-.68Z"/><path d="M11.23,179.78h.67c-.24-.11-.42-.26-.54-.45-.12-.18-.18-.4-.18-.63,0-.26.07-.48.2-.67.14-.19.33-.32.59-.41-.26-.11-.45-.27-.59-.46-.14-.2-.2-.43-.2-.7,0-.38.12-.67.37-.88.25-.21.61-.31,1.07-.31h2.25v.7h-2.16c-.29,0-.52.07-.69.2-.17.13-.25.31-.25.54,0,.12.02.22.07.32.05.1.11.18.2.26.09.07.19.13.32.16.12.04.26.06.4.06h2.11v.7h-2.16c-.14,0-.27.02-.38.06-.12.04-.22.09-.3.15-.08.06-.14.14-.19.23-.04.09-.07.2-.07.31s.02.22.07.32c.05.1.12.18.21.25.09.07.2.12.32.17.12.04.26.06.41.06h2.09v.7h-3.64v-.68Z"/><line y2="99.24" x2="19.63" y1="278.37" x1="19.63" class="cls-2"/><rect height=".3" width="1.95" y="278.22" x="18.65" class="cls-3"/><rect height=".3" width="1.95" y="99.09" x="18.65" class="cls-3"/><path d="M9.51,57.14h5.29v.72h-4.54l.64,1.3h-.73l-.67-1.36v-.67Z"/><path d="M9.65,53.43c.13-.25.32-.47.55-.65.23-.18.52-.32.85-.42.33-.1.69-.15,1.08-.15s.76.05,1.1.15.62.24.86.42c.24.18.43.4.56.65.13.25.2.52.2.83s-.07.57-.2.82-.32.47-.56.65c-.24.18-.53.32-.86.42-.33.1-.7.15-1.1.15s-.75-.05-1.08-.15c-.33-.1-.61-.24-.85-.42-.24-.18-.42-.4-.55-.65-.13-.25-.2-.53-.2-.83s.07-.58.2-.83ZM10.29,54.78c.1.16.23.29.41.41.18.11.38.2.63.27.24.07.51.1.81.1s.57-.03.82-.09c.25-.06.46-.15.64-.27.18-.12.32-.25.42-.41.1-.16.15-.33.15-.52s-.05-.37-.15-.53c-.1-.16-.24-.3-.42-.41-.18-.11-.39-.2-.64-.27-.25-.06-.52-.09-.82-.09s-.56.03-.81.09c-.25.06-.46.15-.63.26-.17.11-.31.25-.41.41-.1.16-.15.34-.15.53s.05.37.15.52Z"/><path d="M9.51,48.6h5.29v.73h-4.36s.08.04.1.06c.03.02.06.04.09.07l2.02,1.35s.06.04.08.05.05.03.08.06v-3.2h.64v3.98h-.59l-3.35-2.22v-.87Z"/><path d="M11.16,44.23h.67c-.24-.11-.42-.26-.54-.45-.12-.18-.18-.4-.18-.63,0-.26.07-.48.2-.67.14-.19.33-.32.59-.41-.26-.11-.45-.27-.59-.46-.14-.2-.2-.43-.2-.7,0-.38.12-.67.37-.88.25-.21.61-.31,1.07-.31h2.25v.7h-2.16c-.29,0-.52.07-.69.2-.17.13-.25.31-.25.54,0,.12.02.22.07.32.05.1.11.18.2.26.09.07.19.13.32.16.12.04.26.06.4.06h2.11v.7h-2.16c-.14,0-.27.02-.38.06-.12.04-.22.09-.3.15-.08.06-.14.14-.19.23-.04.09-.07.2-.07.31s.02.22.07.32c.05.1.12.18.21.25.09.07.2.12.32.17.12.04.26.06.41.06h2.09v.7h-3.64v-.68Z"/><path d="M11.16,38.04h.67c-.24-.11-.42-.26-.54-.45-.12-.18-.18-.4-.18-.63,0-.26.07-.48.2-.67.14-.19.33-.32.59-.41-.26-.11-.45-.27-.59-.46-.14-.2-.2-.43-.2-.7,0-.38.12-.67.37-.88.25-.21.61-.31,1.07-.31h2.25v.7h-2.16c-.29,0-.52.07-.69.2-.17.13-.25.31-.25.54,0,.12.02.22.07.32.05.1.11.18.2.26.09.07.19.13.32.16.12.04.26.06.4.06h2.11v.7h-2.16c-.14,0-.27.02-.38.06-.12.04-.22.09-.3.15-.08.06-.14.14-.19.23-.04.09-.07.2-.07.31s.02.22.07.32c.05.1.12.18.21.25.09.07.2.12.32.17.12.04.26.06.41.06h2.09v.7h-3.64v-.68Z"/><line y2="36.05" x2="19.56" y1="56.43" x1="19.56" class="cls-2"/><rect height=".3" width="1.95" y="56.28" x="18.58" class="cls-3"/><rect height=".3" width="1.95" y="35.9" x="18.58" class="cls-3"/><path d="M54.69,53.83h-1.83M52.86,53.83h-1.2" class="cls-2"/><rect height="17.94" width="18.01" y="35.9" x="253.04" class="cls-2"/><rect height="5.98" width="19.91" y="41.88" x="231.16" class="cls-2"/><rect height="5.98" width="19.9" y="41.88" x="195.85" class="cls-2"/><rect height="5.98" width="19.97" y="41.88" x="160.55" class="cls-2"/><rect height="5.98" width="19.97" y="41.88" x="125.24" class="cls-2"/><rect height="5.98" width="19.9" y="41.88" x="90" class="cls-2"/><rect height="5.98" width="196.38" y="47.85" x="54.69" class="cls-2"/><rect height="5.98" width="19.9" y="41.88" x="54.69" class="cls-2"/><rect height="17.94" width="17.94" y="35.9" x="33.73" class="cls-2"/><path d="M53.21,53.83c-.49,0-.98.28-1.2.63h-15.68v-.63h16.88Z" class="cls-2"/><path d="M69.39,53.83v.63h-15.05c-.21-.35-.63-.63-1.13-.63h16.18Z" class="cls-2"/><path d="M54.34,54.47c-.21-.35-.63-.63-1.13-.63s-.98.28-1.2.63c-.14.21-.21.42-.21.7,0,.77.63,1.41,1.41,1.41.7,0,1.34-.63,1.34-1.41,0-.28-.07-.49-.21-.7ZM53.21,55.66c-.28,0-.56-.21-.56-.49s.28-.49.56-.49.49.21.49.49-.21.49-.49.49Z" class="cls-2"/><path d="M53.7,55.17c0,.28-.21.49-.49.49s-.56-.21-.56-.49.28-.49.56-.49.49.21.49.49Z" class="cls-2"/><path d="M53.7,55.17c0,.28-.21.49-.49.49s-.56-.21-.56-.49.28-.49.56-.49.49.21.49.49Z" class="cls-2"/><path d="M51.52,215.99h2.81M51.52,220.99h2.81M54.34,215.99h.42M54.34,220.99h.42M51.52,141.23h2.81M51.52,136.23h2.81M54.34,141.23h.42M54.34,136.23h.42M51.52,136.23h2.81M51.73,143.83h3.02M51.52,141.23h2.81M51.1,136.23h.42M51.1,141.23h.42M51.73,223.59h3.02M51.52,220.99h2.81M51.52,215.99h2.81M51.1,215.99h.42M51.1,220.99h.42M231.16,208.54l-15.4-8.09M195.85,189.97l-15.33-8.09M160.54,171.4l-15.33-8.09M125.24,152.83l-7.81-4.08M90.07,156.84l-15.4-8.09M125.24,175.34l-15.33-8.02M188.33,208.54l-7.81-4.08v-.07l-19.98-10.48-15.33-8.02M54.76,143.83v-.07M54.76,133.77v-.07M90.07,156.84v-.07M180.52,204.39v4.15M160.54,208.54v-14.63" class="cls-2"/><polygon points="251.07 208.54 251.07 228.44 54.76 228.44 54.76 223.52 54.83 223.52 54.9 223.59 56.52 223.59 56.52 223.52 56.59 223.52 56.59 223.45 57.08 221.76 57.15 221.69 57.15 221.62 57.29 221.62 57.29 221.55 66.93 220.99 67 220.99 67 221.06 67.07 221.06 67.14 221.13 67.63 223.45 67.7 223.45 67.7 223.52 67.77 223.59 69.39 223.59 69.39 223.52 69.46 223.52 69.46 213.46 69.39 213.46 69.32 213.39 67.84 213.39 67.77 213.46 67.7 213.46 67.7 213.53 67.63 213.6 67.14 215.85 67.14 215.92 67.07 215.92 67.07 215.99 66.93 215.99 57.29 215.43 57.22 215.43 57.22 215.36 57.15 215.36 57.15 215.29 57.08 215.29 56.59 213.53 56.52 213.46 56.45 213.46 56.45 213.39 54.9 213.39 54.9 213.46 54.83 213.46 54.76 213.53 54.76 208.54 251.07 208.54" class="cls-2"/><rect height="30.1" width="19.91" y="228.44" x="231.16" class="cls-2"/><rect height="30.1" width="19.9" y="228.44" x="195.85" class="cls-2"/><rect height="30.1" width="19.97" y="228.44" x="160.55" class="cls-2"/><rect height="30.1" width="19.97" y="228.44" x="125.24" class="cls-2"/><rect height="30.1" width="19.83" y="228.44" x="90.07" class="cls-2"/><rect height="30.1" width="19.9" y="228.44" x="54.76" class="cls-2"/><polygon points="109.9 167.32 109.9 208.54 90.07 208.54 90.07 156.84 109.9 167.32" class="cls-2"/><polygon points="145.21 185.82 145.21 208.54 125.24 208.54 125.24 175.34 145.21 185.82" class="cls-2"/><polygon points="145.21 148.75 145.21 163.31 125.24 152.83 125.24 148.75 145.21 148.75" class="cls-2"/><polygon points="180.52 148.75 180.52 181.88 160.55 171.4 160.55 148.75 180.52 148.75" class="cls-2"/><polygon points="215.76 148.75 215.76 200.45 195.85 189.97 195.85 148.75 215.76 148.75" class="cls-2"/><rect height="59.79" width="19.91" y="148.75" x="231.16" class="cls-2"/><rect height="59.79" width="19.9" y="148.75" x="54.76" class="cls-2"/><polygon points="251.07 128.78 251.07 148.75 54.76 148.75 54.76 143.83 56.52 143.83 56.52 143.76 56.59 143.76 56.59 143.69 57.08 142 57.15 141.93 57.15 141.86 57.29 141.86 66.93 141.23 67 141.23 67 141.3 67.07 141.3 67.14 141.37 67.14 141.44 67.63 143.69 67.7 143.69 67.7 143.76 67.77 143.83 69.39 143.83 69.46 143.76 69.46 133.7 67.7 133.7 67.7 133.77 67.63 133.84 67.14 136.09 67.14 136.16 67.07 136.16 67.07 136.23 66.93 136.23 57.29 135.67 57.22 135.67 57.15 135.6 57.15 135.53 57.08 135.53 56.59 133.84 56.59 133.77 56.52 133.7 54.76 133.7 54.76 128.78 251.07 128.78" class="cls-2"/><polygon points="271.04 108.03 271.04 278.52 253.04 278.52 253.04 108.03 253.11 107.25 253.18 106.48 253.39 105.64 253.67 104.86 253.95 104.16 254.3 103.46 254.8 102.75 255.29 102.12 255.85 101.56 256.41 101.06 257.12 100.57 257.82 100.15 258.52 99.8 259.3 99.52 260.07 99.31 260.84 99.17 261.62 99.09 262.46 99.09 263.24 99.17 264.01 99.31 264.78 99.52 265.56 99.8 266.26 100.15 266.96 100.57 267.67 101.06 268.23 101.56 268.79 102.12 269.29 102.75 269.71 103.46 270.13 104.16 270.41 104.86 270.69 105.64 270.83 106.48 270.97 107.25 271.04 108.03" class="cls-2"/><polygon points="251.07 108.17 251.07 128.78 231.16 128.78 231.16 108.17 231.3 107.32 231.44 106.55 231.73 105.71 232.01 104.93 232.43 104.16 232.85 103.46 233.34 102.75 233.91 102.12 234.54 101.56 235.17 100.99 235.88 100.57 236.65 100.15 237.35 99.8 238.2 99.52 238.97 99.31 239.81 99.17 240.66 99.09 241.5 99.09 242.35 99.17 243.19 99.31 244.03 99.52 244.81 99.8 245.58 100.15 246.36 100.57 247.06 100.99 247.69 101.56 248.33 102.12 248.89 102.75 249.38 103.46 249.8 104.16 250.15 104.93 250.5 105.71 250.79 106.55 250.93 107.32 251.07 108.17" class="cls-2"/><polygon points="215.76 108.17 215.76 128.78 195.85 128.78 195.85 108.17 195.99 107.32 196.13 106.55 196.42 105.71 196.7 104.93 197.12 104.16 197.54 103.46 198.03 102.75 198.6 102.12 199.23 101.56 199.86 100.99 200.57 100.57 201.34 100.15 202.11 99.8 202.89 99.52 203.73 99.31 204.57 99.17 205.42 99.09 206.26 99.09 207.11 99.17 207.88 99.31 208.72 99.52 209.5 99.8 210.27 100.15 211.05 100.57 211.75 100.99 212.38 101.56 213.02 102.12 213.58 102.75 214.07 103.46 214.49 104.16 214.92 104.93 215.2 105.71 215.48 106.55 215.62 107.32 215.76 108.17" class="cls-2"/><polygon points="180.52 109.01 180.52 128.78 160.55 128.78 160.55 109.01 160.69 107.32 160.9 106.55 161.11 105.71 161.46 104.93 161.81 104.16 162.23 103.46 162.8 102.75 163.36 102.12 163.92 101.56 164.62 100.99 165.33 100.57 166.03 100.15 166.8 99.8 167.58 99.52 168.42 99.31 169.27 99.17 170.11 99.09 170.96 99.09 171.8 99.17 172.64 99.31 173.42 99.52 174.26 99.8 175.03 100.15 175.74 100.57 176.44 100.99 177.14 101.56 177.71 102.12 178.27 102.75 178.76 103.46 179.25 104.16 179.61 104.93 179.96 105.71 180.17 106.55 180.38 107.32 180.52 109.01" class="cls-2"/><polygon points="145.21 109.01 145.21 128.78 125.24 128.78 125.24 109.01 125.38 107.32 125.59 106.55 125.87 105.71 126.15 104.93 126.5 104.16 126.99 103.46 127.49 102.75 128.05 102.12 128.68 101.56 129.31 100.99 130.02 100.57 130.72 100.15 131.5 99.8 132.34 99.52 133.11 99.31 133.96 99.17 134.8 99.09 135.65 99.09 136.49 99.17 137.33 99.31 138.18 99.52 138.95 99.8 139.72 100.15 140.43 100.57 141.13 100.99 141.83 101.56 142.4 102.12 142.96 102.75 143.52 103.46 143.95 104.16 144.3 104.93 144.65 105.71 144.86 106.55 145.07 107.32 145.21 109.01" class="cls-2"/><polygon points="109.9 108.17 109.9 128.78 90.07 128.78 90.07 108.17 90.21 107.32 90.35 106.55 90.63 105.71 90.91 104.93 91.33 104.16 91.76 103.46 92.25 102.75 92.81 102.12 93.44 101.56 94.08 100.99 94.78 100.57 95.55 100.15 96.33 99.8 97.1 99.52 97.95 99.31 98.72 99.17 99.49 99.09 100.34 99.09 101.18 99.17 102.03 99.31 102.87 99.52 103.64 99.8 104.42 100.15 105.19 100.57 105.89 100.99 107.16 102.12 107.72 102.75 108.21 103.46 108.64 104.16 109.06 104.93 109.34 105.71 109.62 106.55 109.76 107.32 109.9 108.17" class="cls-2"/><polygon points="74.66 108.17 74.66 128.78 54.76 128.78 54.76 108.17 54.9 107.32 55.11 106.55 55.32 105.71 55.67 104.93 56.02 104.16 56.45 103.46 56.94 102.75 57.5 102.12 58.77 100.99 59.47 100.57 60.24 100.15 61.02 99.8 61.79 99.52 62.64 99.31 63.48 99.17 64.32 99.09 65.17 99.09 66.01 99.17 66.86 99.31 67.63 99.52 68.47 99.8 69.18 100.15 69.95 100.57 70.66 100.99 71.29 101.56 71.92 102.12 72.48 102.75 72.98 103.46 73.4 104.16 73.82 104.93 74.1 105.71 74.38 106.55 74.52 107.32 74.66 108.17" class="cls-2"/><path d="M38.79,136.23v-.07h-.07v-.07l-.49-2.25v-.07l-.07-.07h-1.69l-.07.07v9.99h.07v.07h1.62l.07-.07h.07v-.07l.49-2.25v-.07h.07v-.07h.07l.07-.07,9.64.63h.14v.07h.07v.07l.49,1.69.07.07v.07h2.39v68.23c-.42.28-.63.77-.63,1.34h-1.62l-.07.07h-.07v.07h-.07l-.49,1.76v.07h-.07l-.07.07h-.07l-9.64.56h-.14v-.07l-.07-.07-.49-2.25v-.07l-.07-.07h-.07v-.07h-1.55v.07h-.07l-.07.07v9.99h.07l.07.07h1.55l.07-.07h.07v-.07l.49-2.32h.07v-.07h.07v-.07h.07l9.64.56.07.07h.07l.07.07v.07l.49,1.69.14.14h2.32v54.93h-17.93V108.03l.14-1.55.21-.84.21-.77.35-.7.35-.7.49-.7.49-.63.56-.56.56-.49.7-.49.63-.42.77-.35.7-.28.77-.21.84-.14.77-.07h.84l.77.07.77.14.77.21.77.28.7.35.7.42.63.49.63.49.56.56.49.63.42.7.42.7.28.7.28.77.14.84.14.77v25.04c-.42.35-.63.84-.63,1.41h-1.76v.07h-.07v.07l-.49,1.69v.07h-.07v.07h-.14l-9.64.56h-.14Z" class="cls-2"/><path d="M38.93,138.69c0,.56-.49.98-.99.98-.56,0-.98-.42-.98-.98s.42-.98.98-.98c.49,0,.99.42.99.98Z" class="cls-2"/><path d="M49.34,133.7v.07h-.07v.07l-.49,1.69v.07h-.07v.07h-.14l-9.64.56h-.14v-.07h-.07v-.07l-.49-2.25v-.07l-.07-.07h-1.69l-.07.07v9.99h.07v.07h1.62l.07-.07h.07v-.07l.49-2.25v-.07h.07v-.07h.07l.07-.07,9.64.63h.14v.07h.07v.07l.49,1.69.07.07v.07h1.76v-10.13h-1.76ZM37.95,139.68c-.56,0-.98-.42-.98-.98s.42-.98.98-.98c.49,0,.99.42.99.98s-.49.98-.99.98ZM48.01,139.68c-.56,0-.99-.42-.99-.98s.42-.98.99-.98c.49,0,.98.42.98.98s-.49.98-.98.98Z" class="cls-2"/><path d="M48.99,138.69c0,.56-.49.98-.98.98-.56,0-.99-.42-.99-.98s.42-.98.99-.98c.49,0,.98.42.98.98Z" class="cls-2"/><path d="M58.84,138.69c0,.56-.49.98-.98.98-.56,0-.99-.42-.99-.98s.42-.98.99-.98c.49,0,.98.42.98.98Z" class="cls-2"/><path d="M67.7,133.7v.07l-.07.07-.49,2.25v.07h-.07v.07h-.14l-9.64-.56h-.07l-.07-.07v-.07h-.07l-.49-1.69v-.07l-.07-.07h-1.69l-.07.07v9.99h.07v.07h1.69v-.07h.07v-.07l.49-1.69.07-.07v-.07h.14l9.64-.63h.07v.07h.07l.07.07v.07l.49,2.25h.07v.07l.07.07h1.62l.07-.07v-10.06h-1.76ZM57.85,139.68c-.56,0-.99-.42-.99-.98s.42-.98.99-.98c.49,0,.98.42.98.98s-.49.98-.98.98ZM67.91,139.68c-.56,0-.98-.42-.98-.98s.42-.98.98-.98c.49,0,.99.42.99.98s-.49.98-.99.98Z" class="cls-2"/><path d="M68.9,138.69c0,.56-.49.98-.99.98-.56,0-.98-.42-.98-.98s.42-.98.98-.98c.49,0,.99.42.99.98Z" class="cls-2"/><path d="M54.76,133.7h-3.66c0-.56.21-1.06.63-1.41.28-.28.7-.42,1.2-.42.98,0,1.83.77,1.83,1.83Z" class="cls-2"/><path d="M38.93,218.46c0,.49-.49.98-.99.98-.56,0-.98-.49-.98-.98,0-.56.42-.98.98-.98.49,0,.99.42.99.98Z" class="cls-2"/><path d="M49.48,213.39l-.07.07h-.07v.07h-.07l-.49,1.76v.07h-.07l-.07.07h-.07l-9.64.56h-.14v-.07l-.07-.07-.49-2.25v-.07l-.07-.07h-.07v-.07h-1.55v.07h-.07l-.07.07v9.99h.07l.07.07h1.55l.07-.07h.07v-.07l.49-2.32h.07v-.07h.07v-.07h.07l9.64.56.07.07h.07l.07.07v.07l.49,1.69.14.14h1.69v-10.2h-1.62ZM37.95,219.44c-.56,0-.98-.49-.98-.98,0-.56.42-.98.98-.98.49,0,.99.42.99.98,0,.49-.49.98-.99.98ZM48.01,219.44c-.56,0-.99-.49-.99-.98,0-.56.42-.98.99-.98.49,0,.98.42.98.98,0,.49-.49.98-.98.98Z" class="cls-2"/><path d="M48.99,218.46c0,.49-.49.98-.98.98-.56,0-.99-.49-.99-.98,0-.56.42-.98.99-.98.49,0,.98.42.98.98Z" class="cls-2"/><path d="M58.84,218.46c0,.49-.49.98-.98.98-.56,0-.99-.49-.99-.98,0-.56.42-.98.99-.98.49,0,.98.42.98.98Z" class="cls-2"/><path d="M69.39,213.46l-.07-.07h-1.48l-.07.07h-.07v.07l-.07.07-.49,2.25v.07h-.07v.07h-.14l-9.64-.56h-.07v-.07h-.07v-.07h-.07l-.49-1.76-.07-.07h-.07v-.07h-1.55v.07h-.07l-.07.07v9.99h.07l.07.07h1.62v-.07h.07v-.07l.49-1.69.07-.07v-.07h.14v-.07l9.64-.56h.07v.07h.07l.07.07.49,2.32h.07v.07l.07.07h1.62v-.07h.07v-10.06h-.07ZM57.85,219.44c-.56,0-.99-.49-.99-.98,0-.56.42-.98.99-.98.49,0,.98.42.98.98,0,.49-.49.98-.98.98ZM67.91,219.44c-.56,0-.98-.49-.98-.98,0-.56.42-.98.98-.98.49,0,.99.42.99.98,0,.49-.49.98-.99.98Z" class="cls-2"/><path d="M68.9,218.46c0,.49-.49.98-.99.98-.56,0-.98-.49-.98-.98,0-.56.42-.98.98-.98.49,0,.99.42.99.98Z" class="cls-2"/><path d="M54.76,213.39h-3.66c0-.56.21-1.06.63-1.34.28-.35.7-.49,1.2-.49.98,0,1.83.84,1.83,1.83Z" class="cls-2"/><rect height="2.6" width="2.81" y="220.99" x="313.56" class="cls-2"/><rect height="4.99" width="2.81" y="215.99" x="313.56" class="cls-2"/><rect height="2.6" width="2.81" y="213.39" x="313.56" class="cls-2"/><polygon points="316.38 213.39 313.56 213.39 313.56 213.25 313.63 213.04 313.7 212.9 313.84 212.69 313.99 212.62 314.2 212.48 314.34 212.41 315.53 212.41 315.74 212.48 315.88 212.62 316.03 212.69 316.17 212.9 316.24 213.04 316.31 213.25 316.38 213.39" class="cls-2"/><rect height="8.93" width="17.94" y="99.09" x="316.38" class="cls-2"/><rect height="170.5" width="17.94" y="108.03" x="316.38" class="cls-2"/><line y2="143.87" x2="316.05" y1="143.87" x1="316.05" class="cls-2"/><line y2="133.67" x2="316.05" y1="133.67" x1="316.05" class="cls-2"/><line y2="133.67" x2="313.59" y1="133.67" x1="313.59" class="cls-2"/><line y2="133.67" x2="316.05" y1="133.67" x1="316.05" class="cls-2"/><rect height="2.6" width="2.81" y="141.3" x="313.56" class="cls-2"/><rect height="2.6" width="2.81" y="133.7" x="313.56" class="cls-2"/><rect height="4.99" width="2.81" y="136.3" x="313.56" class="cls-2"/><polygon points="316.38 133.7 313.56 133.7 313.56 133.56 313.63 133.35 313.7 133.21 313.84 133 313.99 132.93 314.2 132.79 314.34 132.72 315.53 132.72 315.74 132.79 315.88 132.93 316.03 133 316.17 133.21 316.24 133.35 316.31 133.56 316.38 133.7" class="cls-2"/></g></g></svg>