<svg viewBox="0 0 531.26 288" xmlns="http://www.w3.org/2000/svg"><defs><style>.cls-1 {
        stroke: #12100b;
        stroke-linecap: round;
        stroke-linejoin: round;
        stroke-width: .3px;
      }

      .cls-1, .cls-2 {
        fill: none;
      }

      .cls-3 {
        fill: #12100b;
      }

      .cls-4 {
        font-family: ZimulaVariable-Medium, &apos;Zimula Variable&apos;;
        font-size: 7px;
        font-variation-settings: &apos;wght&apos; 500, &apos;cnct&apos; 500;
        font-weight: 500;
        letter-spacing: 0em;
      }

      .cls-2 {
        stroke: #000;
        stroke-miterlimit: 10;
        stroke-width: .28px;
      }</style></defs><g id="bases"><rect height="358.35" width="589.11" y="-33.95" x="-25.44" class="cls-2"/></g><g id="Golf"><g id="Campo_de_Golf"><g id="tee_number_Cube"><g><g id="LINE"><path d="M110.15,110.37c0-3.44-2.06-5.96-5.73-5.96-2.98,0-4.89,1.53-6.27,4.36-1.07,2.22-2.68,3.44-4.82,3.44-2.75,0-4.82-1.91-4.82-4.74,0-.38.08-.84.15-1.3,1.15-5.58,6.96-10.78,16.21-10.78,9.86,0,15.98,6.42,15.98,14.83,0,4.97-2.06,8.79-5.27,12.61l-13.68,16.12v.15h14.6c3.13,0,4.89,1.83,4.89,4.59s-1.76,4.51-4.89,4.51h-23.85c-3.06,0-4.97-1.91-4.97-4.59,0-2.22.84-3.82,3.21-6.65l16.21-19.41c1.99-2.37,3.06-4.51,3.06-7.18Z" class="cls-1"/></g><g id="SPLINE"><path d="M68.87,95.77c2.6,0,4.97,1.83,4.97,4.74,0,.99-.23,1.99-.84,3.06l-7.57,13.68.15.08c.53-.31,1.91-.54,3.29-.54,8.26,0,14.91,6.11,14.91,15.59,0,10.47-7.57,16.66-17.43,16.66s-17.43-6.19-17.43-16.35c0-4.43,1.38-8.41,3.82-12.84l11.39-21.09c1.07-1.99,2.83-2.98,4.74-2.98" class="cls-1"/><path d="M66.35,125.57c-4.13,0-6.88,2.98-6.88,7.18s2.75,7.26,6.88,7.26,6.88-2.98,6.88-7.26-2.75-7.18-6.88-7.18" class="cls-1"/></g><rect ry="2.21" rx="2.21" height="130.92" width="109.1" y="55.54" x="30.91" class="cls-1"/></g><g><path d="M57.44,186.54v94.63c-.67.78-3.27,3.83-3.27,3.83,0,0-2.39-2.76-3.27-3.83v-94.63h6.55" class="cls-1"/><path d="M120.03,186.54v94.63c-.67.78-3.27,3.83-3.27,3.83,0,0-2.39-2.76-3.27-3.83v-94.63h6.55" class="cls-1"/></g><g><path d="M205.88,186.54v94.63c-.67.78-3.27,3.83-3.27,3.83,0,0-2.39-2.76-3.27-3.83v-94.63h6.55" class="cls-1"/><path d="M268.47,186.54v94.63c-.67.78-3.27,3.83-3.27,3.83,0,0-2.39-2.76-3.27-3.83v-94.63h6.55" class="cls-1"/></g><g><g id="LINE-2"><path d="M110.15,110.37c0-3.44-2.06-5.96-5.73-5.96-2.98,0-4.89,1.53-6.27,4.36-1.07,2.22-2.68,3.44-4.82,3.44-2.75,0-4.82-1.91-4.82-4.74,0-.38.08-.84.15-1.3,1.15-5.58,6.96-10.78,16.21-10.78,9.86,0,15.98,6.42,15.98,14.83,0,4.97-2.06,8.79-5.27,12.61l-13.68,16.12v.15h14.6c3.13,0,4.89,1.83,4.89,4.59s-1.76,4.51-4.89,4.51h-23.85c-3.06,0-4.97-1.91-4.97-4.59,0-2.22.84-3.82,3.21-6.65l16.21-19.41c1.99-2.37,3.06-4.51,3.06-7.18Z" class="cls-1"/></g><g id="SPLINE-2"><path d="M68.87,95.77c2.6,0,4.97,1.83,4.97,4.74,0,.99-.23,1.99-.84,3.06l-7.57,13.68.15.08c.53-.31,1.91-.54,3.29-.54,8.26,0,14.91,6.11,14.91,15.59,0,10.47-7.57,16.66-17.43,16.66s-17.43-6.19-17.43-16.35c0-4.43,1.38-8.41,3.82-12.84l11.39-21.09c1.07-1.99,2.83-2.98,4.74-2.98" class="cls-1"/><path d="M66.35,125.57c-4.13,0-6.88,2.98-6.88,7.18s2.75,7.26,6.88,7.26,6.88-2.98,6.88-7.26-2.75-7.18-6.88-7.18" class="cls-1"/></g><rect ry="2.21" rx="2.21" height="130.92" width="109.1" y="55.54" x="30.91" class="cls-1"/></g><g><path d="M57.44,186.54v94.63c-.67.78-3.27,3.83-3.27,3.83,0,0-2.39-2.76-3.27-3.83v-94.63h6.55" class="cls-1"/><path d="M120.03,186.54v94.63c-.67.78-3.27,3.83-3.27,3.83,0,0-2.39-2.76-3.27-3.83v-94.63h6.55" class="cls-1"/></g><g><path d="M205.88,186.54v94.63c-.67.78-3.27,3.83-3.27,3.83,0,0-2.39-2.76-3.27-3.83v-94.63h6.55" class="cls-1"/><path d="M268.47,186.54v94.63c-.67.78-3.27,3.83-3.27,3.83,0,0-2.39-2.76-3.27-3.83v-94.63h6.55" class="cls-1"/></g><g><g><g id="LINE-3"><path d="M258.6,110.37c0-3.44-2.06-5.96-5.73-5.96-2.98,0-4.89,1.53-6.27,4.36-1.07,2.22-2.68,3.44-4.82,3.44-2.75,0-4.82-1.91-4.82-4.74,0-.38.08-.84.15-1.3,1.15-5.58,6.96-10.78,16.21-10.78,9.86,0,15.98,6.42,15.98,14.83,0,4.97-2.06,8.79-5.27,12.61l-13.68,16.12v.15h14.6c3.13,0,4.89,1.83,4.89,4.59s-1.76,4.51-4.89,4.51h-23.85c-3.06,0-4.97-1.91-4.97-4.59,0-2.22.84-3.82,3.21-6.65l16.21-19.41c1.99-2.37,3.06-4.51,3.06-7.18Z" class="cls-1"/></g><g id="SPLINE-3"><path d="M217.32,95.77c2.6,0,4.97,1.83,4.97,4.74,0,.99-.23,1.99-.84,3.06l-7.57,13.68.15.08c.53-.31,1.91-.54,3.29-.54,8.26,0,14.91,6.11,14.91,15.59,0,10.47-7.57,16.66-17.43,16.66s-17.43-6.19-17.43-16.35c0-4.43,1.38-8.41,3.82-12.84l11.39-21.09c1.07-1.99,2.83-2.98,4.74-2.98" class="cls-1"/><path d="M214.79,125.57c-4.13,0-6.88,2.98-6.88,7.18s2.75,7.26,6.88,7.26,6.88-2.98,6.88-7.26-2.75-7.18-6.88-7.18" class="cls-1"/></g><rect ry="2.21" rx="2.21" height="130.92" width="109.1" y="55.54" x="179.35" class="cls-1"/></g><g><g id="LINE-4"><path d="M258.6,110.37c0-3.44-2.06-5.96-5.73-5.96-2.98,0-4.89,1.53-6.27,4.36-1.07,2.22-2.68,3.44-4.82,3.44-2.75,0-4.82-1.91-4.82-4.74,0-.38.08-.84.15-1.3,1.15-5.58,6.96-10.78,16.21-10.78,9.86,0,15.98,6.42,15.98,14.83,0,4.97-2.06,8.79-5.27,12.61l-13.68,16.12v.15h14.6c3.13,0,4.89,1.83,4.89,4.59s-1.76,4.51-4.89,4.51h-23.85c-3.06,0-4.97-1.91-4.97-4.59,0-2.22.84-3.82,3.21-6.65l16.21-19.41c1.99-2.37,3.06-4.51,3.06-7.18Z" class="cls-1"/></g><g id="SPLINE-4"><path d="M217.32,95.77c2.6,0,4.97,1.83,4.97,4.74,0,.99-.23,1.99-.84,3.06l-7.57,13.68.15.08c.53-.31,1.91-.54,3.29-.54,8.26,0,14.91,6.11,14.91,15.59,0,10.47-7.57,16.66-17.43,16.66s-17.43-6.19-17.43-16.35c0-4.43,1.38-8.41,3.82-12.84l11.39-21.09c1.07-1.99,2.83-2.98,4.74-2.98" class="cls-1"/><path d="M214.79,125.57c-4.13,0-6.88,2.98-6.88,7.18s2.75,7.26,6.88,7.26,6.88-2.98,6.88-7.26-2.75-7.18-6.88-7.18" class="cls-1"/></g><rect ry="2.21" rx="2.21" height="130.92" width="109.1" y="55.54" x="179.35" class="cls-1"/></g></g><g><line y2="55.69" x2="18.72" y1="186.31" x1="18.72" class="cls-1"/><rect height=".3" width="1.95" y="186.16" x="17.75" class="cls-3"/><rect height=".3" width="1.95" y="55.54" x="17.75" class="cls-3"/></g><g id="MTEXT"><text transform="translate(13.89 133.99) rotate(-90)" class="cls-4"><tspan y="0" x="0">120 mm</tspan></text></g><g><line y2="176.05" x2="354.46" y1="284.85" x1="354.46" class="cls-1"/><rect height=".3" width="1.95" y="284.7" x="353.48" class="cls-3"/><rect height=".3" width="1.95" y="175.9" x="353.48" class="cls-3"/></g><g><line y2="153.93" x2="484.3" y1="153.93" x1="375.5" class="cls-1"/><rect height="1.95" width=".3" y="152.96" x="375.35" class="cls-3"/><rect height="1.95" width=".3" y="152.96" x="484.15" class="cls-3"/></g><g id="MTEXT-2"><text transform="translate(349.62 243.74) rotate(-90)" class="cls-4"><tspan y="0" x="0">100 mm</tspan></text></g><g id="MTEXT-3"><text transform="translate(416.61 149.1)" class="cls-4"><tspan y="0" x="0">100 mm</tspan></text></g><g><rect ry="2.79" rx="2.79" height="109.1" width="109.1" y="175.9" x="375.35" class="cls-1"/><rect ry="1.69" rx="1.69" height="76.63" width="76.63" y="192.11" x="391.41" class="cls-1"/></g><g><rect ry="2.79" rx="2.79" height="109.1" width="109.1" y="175.9" x="375.35" class="cls-1"/><rect ry="1.69" rx="1.69" height="76.63" width="76.63" y="192.11" x="391.41" class="cls-1"/></g></g></g></g></svg>