<svg viewBox="0 0 531.27 288" xmlns:xlink="http://www.w3.org/1999/xlink" xmlns="http://www.w3.org/2000/svg" id="Camada_2"><defs><style>.cls-1,.cls-2{fill:none;}.cls-3{fill:#12100c;}.cls-2{stroke:#12100c;stroke-linecap:round;stroke-linejoin:round;stroke-width:.3px;}</style><symbol viewBox="0 0 531.27 288" id="fundo_transparente"><rect height="288" width="531.27" x="0" class="cls-1"/></symbol></defs><g id="RePlastic"><g id="deck_apoiado_ao_solo_1500_mm"><use xlink:href="#fundo_transparente" height="288" width="531.27"/><g id="LINE"><line y2="175.54" x2="14.28" y1="281.72" x1="14.28" class="cls-2"/><rect height=".3" width="1.95" y="281.57" x="13.3" class="cls-3"/><rect height=".3" width="1.95" y="175.39" x="13.3" class="cls-3"/></g><g id="MTEXT"><path d="M4.23,241.65h5.29v.72h-4.54l.64,1.3h-.73l-.67-1.36v-.67Z"/><path d="M4.23,237.71h.65v1.92l1.54.25c-.09-.1-.16-.22-.21-.36-.05-.14-.07-.29-.07-.46,0-.25.04-.47.13-.68.08-.21.2-.38.35-.53.15-.15.33-.27.54-.35.21-.08.44-.12.69-.12s.48.04.7.13c.21.09.4.21.55.36.15.16.27.34.36.56.08.21.13.45.13.71,0,.2-.03.39-.08.58s-.13.35-.23.5c-.1.15-.22.28-.36.39-.14.11-.3.19-.48.24l-.31-.63c.24-.07.43-.19.56-.39.14-.19.21-.42.21-.67,0-.15-.03-.29-.08-.41-.05-.13-.12-.23-.21-.33-.09-.09-.2-.16-.33-.21-.13-.05-.27-.08-.43-.08s-.3.03-.44.08c-.13.05-.25.13-.34.22s-.17.21-.22.34c-.05.13-.08.28-.08.44,0,.18.04.35.1.49.07.14.17.26.31.36l-.15.62-2.79-.47v-2.52Z"/><path d="M4.38,233.96c.13-.25.32-.47.55-.65.23-.18.52-.32.85-.42.33-.1.69-.15,1.08-.15s.76.05,1.1.15.62.24.86.42c.24.18.43.4.56.65.13.25.2.52.2.83s-.07.57-.2.82-.32.47-.56.65c-.24.18-.53.32-.86.42-.33.1-.7.15-1.1.15s-.75-.05-1.08-.15c-.33-.1-.61-.24-.85-.42-.24-.18-.42-.4-.55-.65-.13-.25-.2-.53-.2-.83s.07-.58.2-.83ZM5.01,235.32c.1.16.23.29.41.41.18.11.38.2.63.27.24.07.51.1.81.1s.57-.03.82-.09c.25-.06.46-.15.64-.27.18-.12.32-.25.42-.41.1-.16.15-.33.15-.52s-.05-.37-.15-.53c-.1-.16-.24-.3-.42-.41-.18-.11-.39-.2-.64-.27-.25-.06-.52-.09-.82-.09s-.56.03-.81.09c-.25.06-.46.15-.63.26-.17.11-.31.25-.41.41-.1.16-.15.34-.15.53s.05.37.15.52Z"/><path d="M4.38,229.33c.13-.25.32-.47.55-.65.23-.18.52-.32.85-.42.33-.1.69-.15,1.08-.15s.76.05,1.1.15.62.24.86.42c.24.18.43.4.56.65.13.25.2.52.2.83s-.07.57-.2.82-.32.47-.56.65c-.24.18-.53.32-.86.42-.33.1-.7.15-1.1.15s-.75-.05-1.08-.15c-.33-.1-.61-.24-.85-.42-.24-.18-.42-.4-.55-.65-.13-.25-.2-.53-.2-.83s.07-.58.2-.83ZM5.01,230.68c.1.16.23.29.41.41.18.11.38.2.63.27.24.07.51.1.81.1s.57-.03.82-.09c.25-.06.46-.15.64-.27.18-.12.32-.25.42-.41.1-.16.15-.33.15-.52s-.05-.37-.15-.53c-.1-.16-.24-.3-.42-.41-.18-.11-.39-.2-.64-.27-.25-.06-.52-.09-.82-.09s-.56.03-.81.09c-.25.06-.46.15-.63.26-.17.11-.31.25-.41.41-.1.16-.15.34-.15.53s.05.37.15.52Z"/><path d="M5.88,224.5h.67c-.24-.11-.42-.26-.54-.45-.12-.18-.18-.4-.18-.63,0-.26.07-.48.2-.67.14-.19.33-.32.59-.41-.26-.11-.45-.27-.59-.46-.14-.2-.2-.43-.2-.7,0-.38.12-.67.37-.88.25-.21.61-.31,1.07-.31h2.25v.7h-2.16c-.29,0-.52.07-.69.2-.17.13-.25.31-.25.54,0,.12.02.22.07.32.05.1.11.18.2.26.09.07.19.13.32.16.12.04.26.06.4.06h2.11v.7h-2.16c-.14,0-.27.02-.38.06-.12.04-.22.09-.3.15-.08.06-.14.14-.19.23-.04.09-.07.2-.07.31s.02.22.07.32c.05.1.12.18.21.25.09.07.2.12.32.17.12.04.26.06.41.06h2.09v.7h-3.64v-.68Z"/><path d="M5.88,218.32h.67c-.24-.11-.42-.26-.54-.45-.12-.18-.18-.4-.18-.63,0-.26.07-.48.2-.67.14-.19.33-.32.59-.41-.26-.11-.45-.27-.59-.46-.14-.2-.2-.43-.2-.7,0-.38.12-.67.37-.88.25-.21.61-.31,1.07-.31h2.25v.7h-2.16c-.29,0-.52.07-.69.2-.17.13-.25.31-.25.54,0,.12.02.22.07.32.05.1.11.18.2.26.09.07.19.13.32.16.12.04.26.06.4.06h2.11v.7h-2.16c-.14,0-.27.02-.38.06-.12.04-.22.09-.3.15-.08.06-.14.14-.19.23-.04.09-.07.2-.07.31s.02.22.07.32c.05.1.12.18.21.25.09.07.2.12.32.17.12.04.26.06.41.06h2.09v.7h-3.64v-.68Z"/></g><rect height="8.55" width="207.27" y="124.35" x="28.45" class="cls-2"/><line y2="132.74" x2="32.58" y1="124.35" x1="32.58" class="cls-2"/><line y2="132.74" x2="231.4" y1="124.35" x1="231.4" class="cls-2"/><path d="M41.85,121.54h-.65v.02c0,.19-.13.34-.3.34-.15,0-.27-.14-.27-.34v-.02h-.45v.02c0,.19-.13.34-.27.34-.18,0-.3-.14-.3-.34v-.02h-.42v.02c0,.19-.13.34-.28.34s-.3-.14-.3-.34v-.02h-.43v.02c0,.19-.12.34-.3.34-.15,0-.28-.14-.28-.34v-.02h-.4v.02c0,.19-.13.34-.28.34-.17,0-.3-.14-.3-.34v-.02h-.47v.02c0,.19-.13.34-.28.34-.17,0-.3-.14-.3-.34v-.02h-.38v.02c0,.19-.15.34-.3.34s-.28-.14-.28-.34v-.02h-.47v.02c0,.19-.13.34-.27.34s-.28-.14-.28-.34v-.02h-.45v.02c0,.19-.13.34-.28.34-.18,0-.3-.14-.3-.34v-.02h-.48v.02c0,.19-.13.34-.27.34-.18,0-.3-.14-.3-.34v-.02h-.42v.02c0,.19-.13.34-.28.34-.17,0-.3-.14-.3-.34v-.02h-.43v.02c0,.19-.12.34-.3.34-.15,0-.28-.14-.28-.34v-.02h-.55c-.3,0-.52.24-.52.51v2.29h13.9v-2.29c0-.27-.23-.51-.5-.51Z" class="cls-2"/><path d="M56.63,121.54h-.65v.02c0,.19-.13.34-.3.34-.15,0-.27-.14-.27-.34v-.02h-.45v.02c0,.19-.13.34-.27.34-.18,0-.3-.14-.3-.34v-.02h-.42v.02c0,.19-.13.34-.28.34s-.3-.14-.3-.34v-.02h-.43v.02c0,.19-.12.34-.3.34-.15,0-.28-.14-.28-.34v-.02h-.4v.02c0,.19-.13.34-.28.34-.17,0-.3-.14-.3-.34v-.02h-.47v.02c0,.19-.13.34-.28.34-.17,0-.3-.14-.3-.34v-.02h-.38v.02c0,.19-.15.34-.3.34s-.28-.14-.28-.34v-.02h-.47v.02c0,.19-.13.34-.27.34s-.28-.14-.28-.34v-.02h-.45v.02c0,.19-.13.34-.28.34-.18,0-.3-.14-.3-.34v-.02h-.48v.02c0,.19-.13.34-.27.34-.18,0-.3-.14-.3-.34v-.02h-.42v.02c0,.19-.13.34-.28.34-.17,0-.3-.14-.3-.34v-.02h-.43v.02c0,.19-.12.34-.3.34-.15,0-.28-.14-.28-.34v-.02h-.55c-.3,0-.52.24-.52.51v2.29h13.9v-2.29c0-.27-.23-.51-.5-.51Z" class="cls-2"/><path d="M71.61,121.54h-.65v.02c0,.19-.13.34-.3.34-.15,0-.27-.14-.27-.34v-.02h-.45v.02c0,.19-.13.34-.27.34-.18,0-.3-.14-.3-.34v-.02h-.42v.02c0,.19-.13.34-.28.34s-.3-.14-.3-.34v-.02h-.43v.02c0,.19-.12.34-.3.34-.15,0-.28-.14-.28-.34v-.02h-.4v.02c0,.19-.13.34-.28.34-.17,0-.3-.14-.3-.34v-.02h-.47v.02c0,.19-.13.34-.28.34-.17,0-.3-.14-.3-.34v-.02h-.38v.02c0,.19-.15.34-.3.34s-.28-.14-.28-.34v-.02h-.47v.02c0,.19-.13.34-.27.34s-.28-.14-.28-.34v-.02h-.45v.02c0,.19-.13.34-.28.34-.18,0-.3-.14-.3-.34v-.02h-.48v.02c0,.19-.13.34-.27.34-.18,0-.3-.14-.3-.34v-.02h-.42v.02c0,.19-.13.34-.28.34-.17,0-.3-.14-.3-.34v-.02h-.43v.02c0,.19-.12.34-.3.34-.15,0-.28-.14-.28-.34v-.02h-.55c-.3,0-.52.24-.52.51v2.29h13.9v-2.29c0-.27-.23-.51-.5-.51Z" class="cls-2"/><path d="M86.46,121.54h-.65v.02c0,.19-.13.34-.3.34-.15,0-.27-.14-.27-.34v-.02h-.45v.02c0,.19-.13.34-.27.34-.18,0-.3-.14-.3-.34v-.02h-.42v.02c0,.19-.13.34-.28.34s-.3-.14-.3-.34v-.02h-.43v.02c0,.19-.12.34-.3.34-.15,0-.28-.14-.28-.34v-.02h-.4v.02c0,.19-.13.34-.28.34-.17,0-.3-.14-.3-.34v-.02h-.47v.02c0,.19-.13.34-.28.34-.17,0-.3-.14-.3-.34v-.02h-.38v.02c0,.19-.15.34-.3.34s-.28-.14-.28-.34v-.02h-.47v.02c0,.19-.13.34-.27.34s-.28-.14-.28-.34v-.02h-.45v.02c0,.19-.13.34-.28.34-.18,0-.3-.14-.3-.34v-.02h-.48v.02c0,.19-.13.34-.27.34-.18,0-.3-.14-.3-.34v-.02h-.42v.02c0,.19-.13.34-.28.34-.17,0-.3-.14-.3-.34v-.02h-.43v.02c0,.19-.12.34-.3.34-.15,0-.28-.14-.28-.34v-.02h-.55c-.3,0-.52.24-.52.51v2.29h13.9v-2.29c0-.27-.23-.51-.5-.51Z" class="cls-2"/><path d="M101.32,121.54h-.65v.02c0,.19-.13.34-.3.34-.15,0-.27-.14-.27-.34v-.02h-.45v.02c0,.19-.13.34-.27.34-.18,0-.3-.14-.3-.34v-.02h-.42v.02c0,.19-.13.34-.28.34s-.3-.14-.3-.34v-.02h-.43v.02c0,.19-.12.34-.3.34-.15,0-.28-.14-.28-.34v-.02h-.4v.02c0,.19-.13.34-.28.34-.17,0-.3-.14-.3-.34v-.02h-.47v.02c0,.19-.13.34-.28.34-.17,0-.3-.14-.3-.34v-.02h-.38v.02c0,.19-.15.34-.3.34s-.28-.14-.28-.34v-.02h-.47v.02c0,.19-.13.34-.27.34s-.28-.14-.28-.34v-.02h-.45v.02c0,.19-.13.34-.28.34-.18,0-.3-.14-.3-.34v-.02h-.48v.02c0,.19-.13.34-.27.34-.18,0-.3-.14-.3-.34v-.02h-.42v.02c0,.19-.13.34-.28.34-.17,0-.3-.14-.3-.34v-.02h-.43v.02c0,.19-.12.34-.3.34-.15,0-.28-.14-.28-.34v-.02h-.55c-.3,0-.52.24-.52.51v2.29h13.9v-2.29c0-.27-.23-.51-.5-.51Z" class="cls-2"/><path d="M116.09,121.54h-.65v.02c0,.19-.13.34-.3.34-.15,0-.27-.14-.27-.34v-.02h-.45v.02c0,.19-.13.34-.27.34-.18,0-.3-.14-.3-.34v-.02h-.42v.02c0,.19-.13.34-.28.34s-.3-.14-.3-.34v-.02h-.43v.02c0,.19-.12.34-.3.34-.15,0-.28-.14-.28-.34v-.02h-.4v.02c0,.19-.13.34-.28.34-.17,0-.3-.14-.3-.34v-.02h-.47v.02c0,.19-.13.34-.28.34-.17,0-.3-.14-.3-.34v-.02h-.38v.02c0,.19-.15.34-.3.34s-.28-.14-.28-.34v-.02h-.47v.02c0,.19-.13.34-.27.34s-.28-.14-.28-.34v-.02h-.45v.02c0,.19-.13.34-.28.34-.18,0-.3-.14-.3-.34v-.02h-.48v.02c0,.19-.13.34-.27.34-.18,0-.3-.14-.3-.34v-.02h-.42v.02c0,.19-.13.34-.28.34-.17,0-.3-.14-.3-.34v-.02h-.43v.02c0,.19-.12.34-.3.34-.15,0-.28-.14-.28-.34v-.02h-.55c-.3,0-.52.24-.52.51v2.29h13.9v-2.29c0-.27-.23-.51-.5-.51Z" class="cls-2"/><path d="M130.94,121.54h-.65v.02c0,.19-.13.34-.3.34-.15,0-.27-.14-.27-.34v-.02h-.45v.02c0,.19-.13.34-.27.34-.18,0-.3-.14-.3-.34v-.02h-.42v.02c0,.19-.13.34-.28.34s-.3-.14-.3-.34v-.02h-.43v.02c0,.19-.12.34-.3.34-.15,0-.28-.14-.28-.34v-.02h-.4v.02c0,.19-.13.34-.28.34-.17,0-.3-.14-.3-.34v-.02h-.47v.02c0,.19-.13.34-.28.34-.17,0-.3-.14-.3-.34v-.02h-.38v.02c0,.19-.15.34-.3.34s-.28-.14-.28-.34v-.02h-.47v.02c0,.19-.13.34-.27.34s-.28-.14-.28-.34v-.02h-.45v.02c0,.19-.13.34-.28.34-.18,0-.3-.14-.3-.34v-.02h-.48v.02c0,.19-.13.34-.27.34-.18,0-.3-.14-.3-.34v-.02h-.42v.02c0,.19-.13.34-.28.34-.17,0-.3-.14-.3-.34v-.02h-.43v.02c0,.19-.12.34-.3.34-.15,0-.28-.14-.28-.34v-.02h-.55c-.3,0-.52.24-.52.51v2.29h13.9v-2.29c0-.27-.23-.51-.5-.51Z" class="cls-2"/><path d="M145.9,121.54h-.65v.02c0,.19-.13.34-.3.34-.15,0-.27-.14-.27-.34v-.02h-.45v.02c0,.19-.13.34-.27.34-.18,0-.3-.14-.3-.34v-.02h-.42v.02c0,.19-.13.34-.28.34s-.3-.14-.3-.34v-.02h-.43v.02c0,.19-.12.34-.3.34-.15,0-.28-.14-.28-.34v-.02h-.4v.02c0,.19-.13.34-.28.34-.17,0-.3-.14-.3-.34v-.02h-.47v.02c0,.19-.13.34-.28.34-.17,0-.3-.14-.3-.34v-.02h-.38v.02c0,.19-.15.34-.3.34s-.28-.14-.28-.34v-.02h-.47v.02c0,.19-.13.34-.27.34s-.28-.14-.28-.34v-.02h-.45v.02c0,.19-.13.34-.28.34-.18,0-.3-.14-.3-.34v-.02h-.48v.02c0,.19-.13.34-.27.34-.18,0-.3-.14-.3-.34v-.02h-.42v.02c0,.19-.13.34-.28.34-.17,0-.3-.14-.3-.34v-.02h-.43v.02c0,.19-.12.34-.3.34-.15,0-.28-.14-.28-.34v-.02h-.55c-.3,0-.52.24-.52.51v2.29h13.9v-2.29c0-.27-.23-.51-.5-.51Z" class="cls-2"/><path d="M160.91,121.54h-.65v.02c0,.19-.13.34-.3.34-.15,0-.27-.14-.27-.34v-.02h-.45v.02c0,.19-.13.34-.27.34-.18,0-.3-.14-.3-.34v-.02h-.42v.02c0,.19-.13.34-.28.34s-.3-.14-.3-.34v-.02h-.43v.02c0,.19-.12.34-.3.34-.15,0-.28-.14-.28-.34v-.02h-.4v.02c0,.19-.13.34-.28.34-.17,0-.3-.14-.3-.34v-.02h-.47v.02c0,.19-.13.34-.28.34-.17,0-.3-.14-.3-.34v-.02h-.38v.02c0,.19-.15.34-.3.34s-.28-.14-.28-.34v-.02h-.47v.02c0,.19-.13.34-.27.34s-.28-.14-.28-.34v-.02h-.45v.02c0,.19-.13.34-.28.34-.18,0-.3-.14-.3-.34v-.02h-.48v.02c0,.19-.13.34-.27.34-.18,0-.3-.14-.3-.34v-.02h-.42v.02c0,.19-.13.34-.28.34-.17,0-.3-.14-.3-.34v-.02h-.43v.02c0,.19-.12.34-.3.34-.15,0-.28-.14-.28-.34v-.02h-.55c-.3,0-.52.24-.52.51v2.29h13.9v-2.29c0-.27-.23-.51-.5-.51Z" class="cls-2"/><path d="M175.58,121.54h-.65v.02c0,.19-.13.34-.3.34-.15,0-.27-.14-.27-.34v-.02h-.45v.02c0,.19-.13.34-.27.34-.18,0-.3-.14-.3-.34v-.02h-.42v.02c0,.19-.13.34-.28.34s-.3-.14-.3-.34v-.02h-.43v.02c0,.19-.12.34-.3.34-.15,0-.28-.14-.28-.34v-.02h-.4v.02c0,.19-.13.34-.28.34-.17,0-.3-.14-.3-.34v-.02h-.47v.02c0,.19-.13.34-.28.34-.17,0-.3-.14-.3-.34v-.02h-.38v.02c0,.19-.15.34-.3.34s-.28-.14-.28-.34v-.02h-.47v.02c0,.19-.13.34-.27.34s-.28-.14-.28-.34v-.02h-.45v.02c0,.19-.13.34-.28.34-.18,0-.3-.14-.3-.34v-.02h-.48v.02c0,.19-.13.34-.27.34-.18,0-.3-.14-.3-.34v-.02h-.42v.02c0,.19-.13.34-.28.34-.17,0-.3-.14-.3-.34v-.02h-.43v.02c0,.19-.12.34-.3.34-.15,0-.28-.14-.28-.34v-.02h-.55c-.3,0-.52.24-.52.51v2.29h13.9v-2.29c0-.27-.23-.51-.5-.51Z" class="cls-2"/><path d="M190.47,121.54h-.65v.02c0,.19-.13.34-.3.34-.15,0-.27-.14-.27-.34v-.02h-.45v.02c0,.19-.13.34-.27.34-.18,0-.3-.14-.3-.34v-.02h-.42v.02c0,.19-.13.34-.28.34s-.3-.14-.3-.34v-.02h-.43v.02c0,.19-.12.34-.3.34-.15,0-.28-.14-.28-.34v-.02h-.4v.02c0,.19-.13.34-.28.34-.17,0-.3-.14-.3-.34v-.02h-.47v.02c0,.19-.13.34-.28.34-.17,0-.3-.14-.3-.34v-.02h-.38v.02c0,.19-.15.34-.3.34s-.28-.14-.28-.34v-.02h-.47v.02c0,.19-.13.34-.27.34s-.28-.14-.28-.34v-.02h-.45v.02c0,.19-.13.34-.28.34-.18,0-.3-.14-.3-.34v-.02h-.48v.02c0,.19-.13.34-.27.34-.18,0-.3-.14-.3-.34v-.02h-.42v.02c0,.19-.13.34-.28.34-.17,0-.3-.14-.3-.34v-.02h-.43v.02c0,.19-.12.34-.3.34-.15,0-.28-.14-.28-.34v-.02h-.55c-.3,0-.52.24-.52.51v2.29h13.9v-2.29c0-.27-.23-.51-.5-.51Z" class="cls-2"/><path d="M205.44,121.54h-.65v.02c0,.19-.13.34-.3.34-.15,0-.27-.14-.27-.34v-.02h-.45v.02c0,.19-.13.34-.27.34-.18,0-.3-.14-.3-.34v-.02h-.42v.02c0,.19-.13.34-.28.34s-.3-.14-.3-.34v-.02h-.43v.02c0,.19-.12.34-.3.34-.15,0-.28-.14-.28-.34v-.02h-.4v.02c0,.19-.13.34-.28.34-.17,0-.3-.14-.3-.34v-.02h-.47v.02c0,.19-.13.34-.28.34-.17,0-.3-.14-.3-.34v-.02h-.38v.02c0,.19-.15.34-.3.34s-.28-.14-.28-.34v-.02h-.47v.02c0,.19-.13.34-.27.34s-.28-.14-.28-.34v-.02h-.45v.02c0,.19-.13.34-.28.34-.18,0-.3-.14-.3-.34v-.02h-.48v.02c0,.19-.13.34-.27.34-.18,0-.3-.14-.3-.34v-.02h-.42v.02c0,.19-.13.34-.28.34-.17,0-.3-.14-.3-.34v-.02h-.43v.02c0,.19-.12.34-.3.34-.15,0-.28-.14-.28-.34v-.02h-.55c-.3,0-.52.24-.52.51v2.29h13.9v-2.29c0-.27-.23-.51-.5-.51Z" class="cls-2"/><path d="M220.26,121.54h-.65v.02c0,.19-.13.34-.3.34-.15,0-.27-.14-.27-.34v-.02h-.45v.02c0,.19-.13.34-.27.34-.18,0-.3-.14-.3-.34v-.02h-.42v.02c0,.19-.13.34-.28.34s-.3-.14-.3-.34v-.02h-.43v.02c0,.19-.12.34-.3.34-.15,0-.28-.14-.28-.34v-.02h-.4v.02c0,.19-.13.34-.28.34-.17,0-.3-.14-.3-.34v-.02h-.47v.02c0,.19-.13.34-.28.34-.17,0-.3-.14-.3-.34v-.02h-.38v.02c0,.19-.15.34-.3.34s-.28-.14-.28-.34v-.02h-.47v.02c0,.19-.13.34-.27.34s-.28-.14-.28-.34v-.02h-.45v.02c0,.19-.13.34-.28.34-.18,0-.3-.14-.3-.34v-.02h-.48v.02c0,.19-.13.34-.27.34-.18,0-.3-.14-.3-.34v-.02h-.42v.02c0,.19-.13.34-.28.34-.17,0-.3-.14-.3-.34v-.02h-.43v.02c0,.19-.12.34-.3.34-.15,0-.28-.14-.28-.34v-.02h-.55c-.3,0-.52.24-.52.51v2.29h13.9v-2.29c0-.27-.23-.51-.5-.51Z" class="cls-2"/><path d="M235.23,121.54h-.65v.02c0,.19-.13.34-.3.34-.15,0-.27-.14-.27-.34v-.02h-.45v.02c0,.19-.13.34-.27.34-.18,0-.3-.14-.3-.34v-.02h-.42v.02c0,.19-.13.34-.28.34s-.3-.14-.3-.34v-.02h-.43v.02c0,.19-.12.34-.3.34-.15,0-.28-.14-.28-.34v-.02h-.4v.02c0,.19-.13.34-.28.34-.17,0-.3-.14-.3-.34v-.02h-.47v.02c0,.19-.13.34-.28.34-.17,0-.3-.14-.3-.34v-.02h-.38v.02c0,.19-.15.34-.3.34s-.28-.14-.28-.34v-.02h-.47v.02c0,.19-.13.34-.27.34s-.28-.14-.28-.34v-.02h-.45v.02c0,.19-.13.34-.28.34-.18,0-.3-.14-.3-.34v-.02h-.48v.02c0,.19-.13.34-.27.34-.18,0-.3-.14-.3-.34v-.02h-.42v.02c0,.19-.13.34-.28.34-.17,0-.3-.14-.3-.34v-.02h-.43v.02c0,.19-.12.34-.3.34-.15,0-.28-.14-.28-.34v-.02h-.55c-.3,0-.52.24-.52.51v2.29h13.9v-2.29c0-.27-.23-.51-.5-.51Z" class="cls-2"/><path d="M383.78,274.33c.27,0,.5.24.5.51v2.29s-106.19,0-106.19,0v-2.29c0-.27.22-.51.52-.51h.55s104.62,0,104.62,0Z" class="cls-2"/><rect transform="translate(610.66 -51.7) rotate(90)" height="106.19" width="4.69" y="226.39" x="328.83" class="cls-2"/><rect height="106.4" width="14.15" y="175.42" x="28.45" class="cls-2"/><rect height="4.31" width=".73" y="243.66" x="42.59" class="cls-2"/><rect height="4.31" width=".7" y="243.66" x="57.47" class="cls-2"/><rect height="4.31" width=".7" y="243.66" x="72.32" class="cls-2"/><rect height="4.31" width=".73" y="243.66" x="87.17" class="cls-2"/><rect height="4.31" width=".7" y="243.66" x="102.04" class="cls-2"/><rect height="4.31" width=".7" y="243.66" x="116.87" class="cls-2"/><rect height="4.31" width=".7" y="243.66" x="131.71" class="cls-2"/><rect height="4.31" width=".73" y="243.66" x="146.56" class="cls-2"/><rect height="4.31" width=".7" y="243.66" x="161.44" class="cls-2"/><rect height="4.31" width=".7" y="243.66" x="176.29" class="cls-2"/><rect height="4.31" width=".73" y="243.66" x="191.14" class="cls-2"/><rect height="4.31" width=".7" y="243.66" x="206.01" class="cls-2"/><rect height="4.31" width=".7" y="243.66" x="220.86" class="cls-2"/><rect height="4.31" width=".73" y="209.53" x="42.59" class="cls-2"/><rect height="4.31" width=".7" y="209.53" x="57.47" class="cls-2"/><rect height="4.31" width=".7" y="209.53" x="72.32" class="cls-2"/><rect height="4.31" width=".73" y="209.53" x="87.17" class="cls-2"/><rect height="4.31" width=".7" y="209.53" x="102.04" class="cls-2"/><rect height="4.31" width=".7" y="209.53" x="116.87" class="cls-2"/><rect height="4.31" width=".7" y="209.53" x="131.71" class="cls-2"/><rect height="4.31" width=".73" y="209.53" x="146.56" class="cls-2"/><rect height="4.31" width=".7" y="209.53" x="161.44" class="cls-2"/><rect height="4.31" width=".7" y="209.53" x="176.29" class="cls-2"/><rect height="4.31" width=".73" y="209.53" x="191.14" class="cls-2"/><rect height="4.31" width=".7" y="209.53" x="206.01" class="cls-2"/><rect height="4.31" width=".7" y="209.53" x="220.86" class="cls-2"/><rect height="106.4" width="14.15" y="175.42" x="43.32" class="cls-2"/><rect height="4.31" width=".73" y="175.42" x="42.59" class="cls-2"/><rect height="4.31" width=".7" y="175.42" x="57.47" class="cls-2"/><rect height="106.4" width="14.15" y="175.42" x="73.02" class="cls-2"/><rect height="4.31" width=".7" y="175.42" x="72.32" class="cls-2"/><rect height="4.31" width=".73" y="175.42" x="87.17" class="cls-2"/><rect height="106.4" width="14.12" y="175.42" x="102.74" class="cls-2"/><rect height="4.31" width=".7" y="175.42" x="102.04" class="cls-2"/><rect height="4.31" width=".7" y="175.42" x="116.87" class="cls-2"/><rect height="106.4" width="14.15" y="175.42" x="132.42" class="cls-2"/><rect height="4.31" width=".7" y="175.42" x="131.71" class="cls-2"/><rect height="4.31" width=".73" y="175.42" x="146.56" class="cls-2"/><rect height="106.4" width="14.15" y="175.42" x="162.14" class="cls-2"/><rect height="4.31" width=".7" y="175.42" x="161.44" class="cls-2"/><rect height="4.31" width=".7" y="175.42" x="176.29" class="cls-2"/><rect height="106.4" width="14.15" y="175.42" x="191.87" class="cls-2"/><rect height="4.31" width=".73" y="175.42" x="191.14" class="cls-2"/><rect height="4.31" width=".7" y="175.42" x="206.01" class="cls-2"/><rect height="106.4" width="14" y="175.42" x="221.56" class="cls-2"/><rect height="4.31" width=".7" y="175.42" x="220.86" class="cls-2"/><rect height="4.31" width=".73" y="277.52" x="42.59" class="cls-2"/><rect height="106.4" width="14.15" y="175.42" x="58.17" class="cls-2"/><rect height="4.31" width=".7" y="277.52" x="57.47" class="cls-2"/><rect height="4.31" width=".7" y="277.52" x="72.32" class="cls-2"/><rect height="106.4" width="14.15" y="175.42" x="87.89" class="cls-2"/><rect height="4.31" width=".73" y="277.52" x="87.17" class="cls-2"/><rect height="4.31" width=".7" y="277.52" x="102.04" class="cls-2"/><rect height="106.4" width="14.15" y="175.42" x="117.57" class="cls-2"/><rect height="4.31" width=".7" y="277.52" x="116.87" class="cls-2"/><rect height="4.31" width=".7" y="277.52" x="131.71" class="cls-2"/><rect height="106.4" width="14.15" y="175.42" x="147.29" class="cls-2"/><rect height="4.31" width=".73" y="277.52" x="146.56" class="cls-2"/><rect height="4.31" width=".7" y="277.52" x="161.44" class="cls-2"/><rect height="106.4" width="14.15" y="175.42" x="176.99" class="cls-2"/><rect height="4.31" width=".7" y="277.52" x="176.29" class="cls-2"/><rect height="4.31" width=".73" y="277.52" x="191.14" class="cls-2"/><rect height="106.4" width="14.15" y="175.42" x="206.71" class="cls-2"/><rect height="4.31" width=".7" y="277.52" x="206.01" class="cls-2"/><rect height="4.31" width=".7" y="277.52" x="220.86" class="cls-2"/></g></g></svg>