<svg viewBox="0 0 531.26 288" xmlns="http://www.w3.org/2000/svg" id="Urban"><defs><style>.cls-1{fill:#12100a;}.cls-2{fill:none;stroke:#12100a;stroke-linecap:round;stroke-linejoin:round;stroke-width:.3px;}</style></defs><g id="Frame"><g id="banco_sem_costas_1400"><line y2="23.87" x2="39.18" y1="23.87" x1="299.39" class="cls-2"/><rect height="1.95" width=".3" y="22.9" x="299.24" class="cls-1"/><rect height="1.95" width=".3" y="22.9" x="39.03" class="cls-1"/><path d="M7.01,97.52h5.29v.73h-4.36s.08.04.1.06c.03.02.06.04.09.07l2.02,1.35s.06.04.08.05.05.03.08.06v-3.2h.64v3.98h-.59l-3.35-2.22v-.87Z"/><path d="M12.17,95.08c-.12.24-.29.44-.51.61-.22.17-.5.3-.82.39s-.69.14-1.09.14-.8-.05-1.15-.15c-.35-.1-.64-.24-.89-.43-.25-.18-.43-.41-.56-.67-.13-.26-.2-.55-.2-.88,0-.37.09-.7.27-.97.18-.27.43-.47.76-.59l.29.64c-.21.07-.37.18-.48.34-.11.16-.17.35-.17.56,0,.2.05.38.14.55s.23.31.4.44c.17.13.37.22.61.29s.49.1.77.1h.17c.06,0,.1,0,.15,0-.25-.08-.45-.23-.59-.45-.14-.22-.21-.48-.21-.79,0-.24.04-.46.12-.65.08-.2.19-.36.34-.5.15-.14.32-.25.52-.33.2-.08.42-.12.66-.12s.47.04.68.13c.21.08.38.2.53.35.14.15.26.32.34.53s.12.43.12.68c0,.3-.06.57-.18.81ZM11.6,93.91c-.05-.12-.12-.22-.21-.3-.09-.08-.19-.15-.31-.2-.12-.05-.26-.07-.41-.07s-.29.02-.41.07c-.12.05-.23.12-.32.2s-.16.19-.21.31-.07.25-.07.4.02.27.07.39.12.22.2.31c.09.09.19.15.31.2.12.05.25.07.4.07s.28-.03.41-.08.24-.12.34-.21.17-.2.22-.32c.05-.12.08-.26.08-.4s-.03-.26-.08-.38Z"/><path d="M7.15,89.11c.13-.25.32-.47.55-.65.23-.18.52-.32.85-.42.33-.1.69-.15,1.08-.15s.76.05,1.1.15.62.24.86.42c.24.18.43.4.56.65.13.25.2.52.2.83s-.07.57-.2.82-.32.47-.56.65c-.24.18-.53.32-.86.42-.33.1-.7.15-1.1.15s-.75-.05-1.08-.15c-.33-.1-.61-.24-.85-.42-.24-.18-.42-.4-.55-.65-.13-.25-.2-.53-.2-.83s.07-.58.2-.83ZM7.79,90.46c.1.16.23.29.41.41.18.11.38.2.63.27.24.07.51.1.81.1s.57-.03.82-.09c.25-.06.46-.15.64-.27.18-.12.32-.25.42-.41.1-.16.15-.33.15-.52s-.05-.37-.15-.53c-.1-.16-.24-.3-.42-.41-.18-.11-.39-.2-.64-.27-.25-.06-.52-.09-.82-.09s-.56.03-.81.09c-.25.06-.46.15-.63.26-.17.11-.31.25-.41.41-.1.16-.15.34-.15.53s.05.37.15.52Z"/><path d="M8.65,84.28h.67c-.24-.11-.42-.26-.54-.45-.12-.18-.18-.4-.18-.63,0-.26.07-.48.2-.67.14-.19.33-.32.59-.41-.26-.11-.45-.27-.59-.46-.14-.2-.2-.43-.2-.7,0-.38.12-.67.37-.88.25-.21.61-.31,1.07-.31h2.25v.7h-2.16c-.29,0-.52.07-.69.2-.17.13-.25.31-.25.54,0,.12.02.22.07.32.05.1.11.18.2.26.09.07.19.13.32.16.12.04.26.06.4.06h2.11v.7h-2.16c-.14,0-.27.02-.38.06-.12.04-.22.09-.3.15-.08.06-.14.14-.19.23-.04.09-.07.2-.07.31s.02.22.07.32c.05.1.12.18.21.25.09.07.2.12.32.17.12.04.26.06.41.06h2.09v.7h-3.64v-.68Z"/><path d="M8.65,78.09h.67c-.24-.11-.42-.26-.54-.45-.12-.18-.18-.4-.18-.63,0-.26.07-.48.2-.67.14-.19.33-.32.59-.41-.26-.11-.45-.27-.59-.46-.14-.2-.2-.43-.2-.7,0-.38.12-.67.37-.88.25-.21.61-.31,1.07-.31h2.25v.7h-2.16c-.29,0-.52.07-.69.2-.17.13-.25.31-.25.54,0,.12.02.22.07.32.05.1.11.18.2.26.09.07.19.13.32.16.12.04.26.06.4.06h2.11v.7h-2.16c-.14,0-.27.02-.38.06-.12.04-.22.09-.3.15-.08.06-.14.14-.19.23-.04.09-.07.2-.07.31s.02.22.07.32c.05.1.12.18.21.25.09.07.2.12.32.17.12.04.26.06.41.06h2.09v.7h-3.64v-.68Z"/><line y2="130.13" x2="16.63" y1="43.85" x1="16.63" class="cls-2"/><rect height=".3" width="1.95" y="43.7" x="15.66" class="cls-1"/><rect height=".3" width="1.95" y="129.98" x="15.66" class="cls-1"/><path d="M7.28,257.48h5.29v.73h-4.36s.08.04.1.06c.03.02.06.04.09.07l2.02,1.35s.06.04.08.05.05.03.08.06v-3.2h.64v3.98h-.59l-3.35-2.22v-.87Z"/><path d="M12.44,255.03c-.12.24-.29.44-.51.61-.22.17-.5.3-.82.39s-.69.14-1.09.14-.8-.05-1.15-.15c-.35-.1-.64-.24-.89-.43-.25-.18-.43-.41-.56-.67-.13-.26-.2-.55-.2-.88,0-.37.09-.7.27-.97.18-.27.43-.47.76-.59l.29.64c-.21.07-.37.18-.48.34-.11.16-.17.35-.17.56,0,.2.05.38.14.55s.23.31.4.44c.17.13.37.22.61.29s.49.1.77.1h.17c.06,0,.1,0,.15,0-.25-.08-.45-.23-.59-.45-.14-.22-.21-.48-.21-.79,0-.24.04-.46.12-.65.08-.2.19-.36.34-.5.15-.14.32-.25.52-.33.2-.08.42-.12.66-.12s.47.04.68.13c.21.08.38.2.53.35.14.15.26.32.34.53s.12.43.12.68c0,.3-.06.57-.18.81ZM11.87,253.87c-.05-.12-.12-.22-.21-.3-.09-.08-.19-.15-.31-.2-.12-.05-.26-.07-.41-.07s-.29.02-.41.07c-.12.05-.23.12-.32.2s-.16.19-.21.31-.07.25-.07.4.02.27.07.39.12.22.2.31c.09.09.19.15.31.2.12.05.25.07.4.07s.28-.03.41-.08.24-.12.34-.21.17-.2.22-.32c.05-.12.08-.26.08-.4s-.03-.26-.08-.38Z"/><path d="M7.42,249.06c.13-.25.32-.47.55-.65.23-.18.52-.32.85-.42.33-.1.69-.15,1.08-.15s.76.05,1.1.15.62.24.86.42c.24.18.43.4.56.65.13.25.2.52.2.83s-.07.57-.2.82-.32.47-.56.65c-.24.18-.53.32-.86.42-.33.1-.7.15-1.1.15s-.75-.05-1.08-.15c-.33-.1-.61-.24-.85-.42-.24-.18-.42-.4-.55-.65-.13-.25-.2-.53-.2-.83s.07-.58.2-.83ZM8.06,250.42c.1.16.23.29.41.41.18.11.38.2.63.27.24.07.51.1.81.1s.57-.03.82-.09c.25-.06.46-.15.64-.27.18-.12.32-.25.42-.41.1-.16.15-.33.15-.52s-.05-.37-.15-.53c-.1-.16-.24-.3-.42-.41-.18-.11-.39-.2-.64-.27-.25-.06-.52-.09-.82-.09s-.56.03-.81.09c-.25.06-.46.15-.63.26-.17.11-.31.25-.41.41-.1.16-.15.34-.15.53s.05.37.15.52Z"/><path d="M8.93,244.24h.67c-.24-.11-.42-.26-.54-.45-.12-.18-.18-.4-.18-.63,0-.26.07-.48.2-.67.14-.19.33-.32.59-.41-.26-.11-.45-.27-.59-.46-.14-.2-.2-.43-.2-.7,0-.38.12-.67.37-.88.25-.21.61-.31,1.07-.31h2.25v.7h-2.16c-.29,0-.52.07-.69.2-.17.13-.25.31-.25.54,0,.12.02.22.07.32.05.1.11.18.2.26.09.07.19.13.32.16.12.04.26.06.4.06h2.11v.7h-2.16c-.14,0-.27.02-.38.06-.12.04-.22.09-.3.15-.08.06-.14.14-.19.23-.04.09-.07.2-.07.31s.02.22.07.32c.05.1.12.18.21.25.09.07.2.12.32.17.12.04.26.06.41.06h2.09v.7h-3.64v-.68Z"/><path d="M8.93,238.05h.67c-.24-.11-.42-.26-.54-.45-.12-.18-.18-.4-.18-.63,0-.26.07-.48.2-.67.14-.19.33-.32.59-.41-.26-.11-.45-.27-.59-.46-.14-.2-.2-.43-.2-.7,0-.38.12-.67.37-.88.25-.21.61-.31,1.07-.31h2.25v.7h-2.16c-.29,0-.52.07-.69.2-.17.13-.25.31-.25.54,0,.12.02.22.07.32.05.1.11.18.2.26.09.07.19.13.32.16.12.04.26.06.4.06h2.11v.7h-2.16c-.14,0-.27.02-.38.06-.12.04-.22.09-.3.15-.08.06-.14.14-.19.23-.04.09-.07.2-.07.31s.02.22.07.32c.05.1.12.18.21.25.09.07.2.12.32.17.12.04.26.06.41.06h2.09v.7h-3.64v-.68Z"/><line y2="282.03" x2="16.63" y1="195.75" x1="16.63" class="cls-2"/><rect height=".3" width="1.95" y="195.6" x="15.66" class="cls-1"/><rect height=".3" width="1.95" y="281.88" x="15.66" class="cls-1"/><rect height="1.84" width="260.5" y="196.38" x="38.92" class="cls-2"/><polygon points="282.68 198.18 55.67 198.18 38.92 198.18 38.92 214.77 38.92 282.97 55.67 282.97 55.67 214.77 282.68 214.77 282.68 282.97 299.42 282.97 299.42 214.77 299.42 198.18 282.68 198.18" class="cls-2"/><polygon points="428.32 196.38 426.46 196.38 426.46 281.09 343.64 281.09 343.64 196.38 341.78 196.38 341.76 196.38 341.76 282.92 341.78 282.92 341.78 282.97 428.32 282.97 428.32 282.92 428.34 282.92 428.34 196.38 428.32 196.38" class="cls-2"/><path d="M354.18,196.38h5.27c.62,0,1.13.51,1.13,1.13v13.93h-7.53v-13.93c0-.62.51-1.13,1.13-1.13Z" class="cls-2"/><path d="M344.77,196.38h5.27c.62,0,1.13.51,1.13,1.13v13.93h-7.53v-13.93c0-.62.51-1.13,1.13-1.13Z" class="cls-2"/><path d="M373,196.38h5.27c.62,0,1.13.51,1.13,1.13v13.93h-7.53v-13.93c0-.62.51-1.13,1.13-1.13Z" class="cls-2"/><path d="M363.59,196.38h5.27c.62,0,1.13.51,1.13,1.13v13.93h-7.53v-13.93c0-.62.51-1.13,1.13-1.13Z" class="cls-2"/><path d="M391.83,196.38h5.27c.62,0,1.13.51,1.13,1.13v13.93h-7.53v-13.93c0-.62.51-1.13,1.13-1.13Z" class="cls-2"/><path d="M401.24,196.38h5.27c.62,0,1.13.51,1.13,1.13v13.93h-7.53v-13.93c0-.62.51-1.13,1.13-1.13Z" class="cls-2"/><path d="M410.65,196.38h5.27c.62,0,1.13.51,1.13,1.13v13.93h-7.53v-13.93c0-.62.51-1.13,1.13-1.13Z" class="cls-2"/><path d="M420.06,196.38h5.27c.62,0,1.13.51,1.13,1.13v13.93h-7.53v-13.93c0-.62.51-1.13,1.13-1.13Z" class="cls-2"/><path d="M382.42,196.38h5.27c.62,0,1.13.51,1.13,1.13v13.93h-7.53v-13.93c0-.62.51-1.13,1.13-1.13Z" class="cls-2"/><path d="M426.45,211.41v3.77h-82.8v-3.77h7.51v-5.31c0-.2.07-.33.27-.33h1.34c.13,0,.27.13.27.33v5.31h7.56v-5.31c0-.2.13-.33.33-.33h1.26c.13,0,.27.13.27.33v5.31h7.56v-5.31c0-.2.13-.33.27-.33h1.26c.2,0,.33.13.33.33v5.31h7.53v-5.31c0-.2.13-.33.27-.33h1.3c.2,0,.33.13.33.33v5.31h7.5v-5.31c0-.2.13-.33.27-.33h1.36c.2,0,.27.13.27.33v5.31h7.51v-5.31c0-.2.13-.33.27-.33h1.37c.13,0,.27.13.27.33v5.31h7.54v-5.31c0-.2.13-.33.27-.33h1.35c.13,0,.27.13.27.33v5.31h7.53v-5.31c0-.2.07-.33.27-.33h1.33c.13,0,.27.13.27.33v5.31h7.54Z" class="cls-2"/><rect height="2.12" width="260.5" y="128.16" x="39.03" class="cls-2"/><rect height="1.79" width="260.5" y="118.86" x="39.03" class="cls-2"/><rect height="1.79" width="260.5" y="109.5" x="39.03" class="cls-2"/><rect height="1.79" width="260.5" y="100.14" x="39.03" class="cls-2"/><rect height="1.79" width="260.5" y="90.77" x="39.03" class="cls-2"/><rect height="1.79" width="260.5" y="81.41" x="39.03" class="cls-2"/><rect height="1.86" width="260.5" y="72.05" x="39.03" class="cls-2"/><rect height="1.86" width="260.5" y="62.69" x="39.03" class="cls-2"/><rect height="1.86" width="260.5" y="53.32" x="39.03" class="cls-2"/><rect height="2.12" width="260.5" y="43.69" x="39.03" class="cls-2"/><rect height="7.5" width="260.5" y="120.65" x="39.03" class="cls-2"/><rect height="7.57" width="260.5" y="111.29" x="39.03" class="cls-2"/><rect height="7.57" width="260.5" y="101.93" x="39.03" class="cls-2"/><rect height="7.57" width="260.5" y="92.57" x="39.03" class="cls-2"/><rect height="7.57" width="260.5" y="83.2" x="39.03" class="cls-2"/><rect height="7.5" width="260.5" y="73.91" x="39.03" class="cls-2"/><rect height="7.5" width="260.5" y="64.54" x="39.03" class="cls-2"/><rect height="7.5" width="260.5" y="55.18" x="39.03" class="cls-2"/><rect height="7.5" width="260.5" y="45.82" x="39.03" class="cls-2"/><line y2="53.32" x2="63.82" y1="55.18" x1="63.82" class="cls-2"/><line y2="72.05" x2="63.82" y1="73.91" x1="63.82" class="cls-2"/><line y2="90.77" x2="63.82" y1="92.57" x1="63.82" class="cls-2"/><line y2="109.5" x2="63.82" y1="111.29" x1="63.82" class="cls-2"/><line y2="118.86" x2="63.82" y1="120.65" x1="63.82" class="cls-2"/><line y2="100.14" x2="63.82" y1="101.93" x1="63.82" class="cls-2"/><line y2="81.41" x2="63.82" y1="83.2" x1="63.82" class="cls-2"/><line y2="62.69" x2="63.82" y1="64.54" x1="63.82" class="cls-2"/><line y2="53.32" x2="55.15" y1="55.18" x1="55.15" class="cls-2"/><line y2="72.05" x2="55.15" y1="73.91" x1="55.15" class="cls-2"/><line y2="90.77" x2="55.15" y1="92.57" x1="55.15" class="cls-2"/><line y2="109.5" x2="55.15" y1="111.29" x1="55.15" class="cls-2"/><line y2="118.86" x2="55.15" y1="120.65" x1="55.15" class="cls-2"/><line y2="100.14" x2="55.15" y1="101.93" x1="55.15" class="cls-2"/><line y2="81.41" x2="55.15" y1="83.2" x1="55.15" class="cls-2"/><line y2="62.69" x2="55.15" y1="64.54" x1="55.15" class="cls-2"/><line y2="53.32" x2="56.99" y1="55.18" x1="56.99" class="cls-2"/><line y2="72.05" x2="56.99" y1="73.91" x1="56.99" class="cls-2"/><line y2="90.77" x2="56.99" y1="92.57" x1="56.99" class="cls-2"/><line y2="109.5" x2="56.99" y1="111.29" x1="56.99" class="cls-2"/><line y2="118.86" x2="56.99" y1="120.65" x1="56.99" class="cls-2"/><line y2="100.14" x2="56.99" y1="101.93" x1="56.99" class="cls-2"/><line y2="81.41" x2="56.99" y1="83.2" x1="56.99" class="cls-2"/><line y2="62.69" x2="56.99" y1="64.54" x1="56.99" class="cls-2"/><line y2="53.32" x2="136.56" y1="55.18" x1="136.56" class="cls-2"/><line y2="72.05" x2="136.56" y1="73.91" x1="136.56" class="cls-2"/><line y2="90.77" x2="136.56" y1="92.57" x1="136.56" class="cls-2"/><line y2="109.5" x2="136.56" y1="111.29" x1="136.56" class="cls-2"/><line y2="118.86" x2="136.56" y1="120.65" x1="136.56" class="cls-2"/><line y2="100.14" x2="136.56" y1="101.93" x1="136.56" class="cls-2"/><line y2="81.41" x2="136.56" y1="83.2" x1="136.56" class="cls-2"/><line y2="62.69" x2="136.56" y1="64.54" x1="136.56" class="cls-2"/><line y2="53.32" x2="127.89" y1="55.18" x1="127.89" class="cls-2"/><line y2="72.05" x2="127.89" y1="73.91" x1="127.89" class="cls-2"/><line y2="90.77" x2="127.89" y1="92.57" x1="127.89" class="cls-2"/><line y2="109.5" x2="127.89" y1="111.29" x1="127.89" class="cls-2"/><line y2="118.86" x2="127.89" y1="120.65" x1="127.89" class="cls-2"/><line y2="100.14" x2="127.89" y1="101.93" x1="127.89" class="cls-2"/><line y2="81.41" x2="127.89" y1="83.2" x1="127.89" class="cls-2"/><line y2="62.69" x2="127.89" y1="64.54" x1="127.89" class="cls-2"/><line y2="53.32" x2="129.67" y1="55.18" x1="129.67" class="cls-2"/><line y2="72.05" x2="129.67" y1="73.91" x1="129.67" class="cls-2"/><line y2="90.77" x2="129.67" y1="92.57" x1="129.67" class="cls-2"/><line y2="109.5" x2="129.67" y1="111.29" x1="129.67" class="cls-2"/><line y2="118.86" x2="129.67" y1="120.65" x1="129.67" class="cls-2"/><line y2="100.14" x2="129.67" y1="101.93" x1="129.67" class="cls-2"/><line y2="81.41" x2="129.67" y1="83.2" x1="129.67" class="cls-2"/><line y2="62.69" x2="129.67" y1="64.54" x1="129.67" class="cls-2"/><line y2="53.32" x2="201.88" y1="55.18" x1="201.88" class="cls-2"/><line y2="72.05" x2="201.88" y1="73.91" x1="201.88" class="cls-2"/><line y2="90.77" x2="201.88" y1="92.57" x1="201.88" class="cls-2"/><line y2="109.5" x2="201.88" y1="111.29" x1="201.88" class="cls-2"/><line y2="118.86" x2="201.88" y1="120.65" x1="201.88" class="cls-2"/><line y2="100.14" x2="201.88" y1="101.93" x1="201.88" class="cls-2"/><line y2="81.41" x2="201.88" y1="83.2" x1="201.88" class="cls-2"/><line y2="62.69" x2="201.88" y1="64.54" x1="201.88" class="cls-2"/><line y2="53.32" x2="210.61" y1="55.18" x1="210.61" class="cls-2"/><line y2="72.05" x2="210.61" y1="73.91" x1="210.61" class="cls-2"/><line y2="90.77" x2="210.61" y1="92.57" x1="210.61" class="cls-2"/><line y2="109.5" x2="210.61" y1="111.29" x1="210.61" class="cls-2"/><line y2="118.86" x2="210.61" y1="120.65" x1="210.61" class="cls-2"/><line y2="100.14" x2="210.61" y1="101.93" x1="210.61" class="cls-2"/><line y2="81.41" x2="210.61" y1="83.2" x1="210.61" class="cls-2"/><line y2="62.69" x2="210.61" y1="64.54" x1="210.61" class="cls-2"/><line y2="53.32" x2="208.77" y1="55.18" x1="208.77" class="cls-2"/><line y2="72.05" x2="208.77" y1="73.91" x1="208.77" class="cls-2"/><line y2="90.77" x2="208.77" y1="92.57" x1="208.77" class="cls-2"/><line y2="109.5" x2="208.77" y1="111.29" x1="208.77" class="cls-2"/><line y2="118.86" x2="208.77" y1="120.65" x1="208.77" class="cls-2"/><line y2="100.14" x2="208.77" y1="101.93" x1="208.77" class="cls-2"/><line y2="81.41" x2="208.77" y1="83.2" x1="208.77" class="cls-2"/><line y2="62.69" x2="208.77" y1="64.54" x1="208.77" class="cls-2"/><line y2="53.32" x2="274.75" y1="55.18" x1="274.75" class="cls-2"/><line y2="72.05" x2="274.75" y1="73.91" x1="274.75" class="cls-2"/><line y2="90.77" x2="274.75" y1="92.57" x1="274.75" class="cls-2"/><line y2="109.5" x2="274.75" y1="111.29" x1="274.75" class="cls-2"/><line y2="118.86" x2="274.75" y1="120.65" x1="274.75" class="cls-2"/><line y2="100.14" x2="274.75" y1="101.93" x1="274.75" class="cls-2"/><line y2="81.41" x2="274.75" y1="83.2" x1="274.75" class="cls-2"/><line y2="62.69" x2="274.75" y1="64.54" x1="274.75" class="cls-2"/><line y2="53.32" x2="283.42" y1="55.18" x1="283.42" class="cls-2"/><line y2="72.05" x2="283.42" y1="73.91" x1="283.42" class="cls-2"/><line y2="90.77" x2="283.42" y1="92.57" x1="283.42" class="cls-2"/><line y2="109.5" x2="283.42" y1="111.29" x1="283.42" class="cls-2"/><line y2="118.86" x2="283.42" y1="120.65" x1="283.42" class="cls-2"/><line y2="100.14" x2="283.42" y1="101.93" x1="283.42" class="cls-2"/><line y2="81.41" x2="283.42" y1="83.2" x1="283.42" class="cls-2"/><line y2="62.69" x2="283.42" y1="64.54" x1="283.42" class="cls-2"/><line y2="53.32" x2="281.65" y1="55.18" x1="281.65" class="cls-2"/><line y2="72.05" x2="281.65" y1="73.91" x1="281.65" class="cls-2"/><line y2="90.77" x2="281.65" y1="92.57" x1="281.65" class="cls-2"/><line y2="109.5" x2="281.65" y1="111.29" x1="281.65" class="cls-2"/><line y2="118.86" x2="281.65" y1="120.65" x1="281.65" class="cls-2"/><line y2="100.14" x2="281.65" y1="101.93" x1="281.65" class="cls-2"/><line y2="81.41" x2="281.65" y1="83.2" x1="281.65" class="cls-2"/><line y2="62.69" x2="281.65" y1="64.54" x1="281.65" class="cls-2"/><path d="M156.6,14.84v5.11h-.7v-3.75c0-.07,0-.13-.02-.18-.01-.05-.03-.09-.05-.12-.02-.03-.06-.06-.1-.07-.04-.02-.09-.02-.15-.02-.06,0-.12,0-.18.03-.06.02-.13.05-.2.08l-.56.28v-.7l1.31-.64h.64Z"/><path d="M160.34,14.84v5.11h-.7v-3.53s0-.07-.01-.09c0-.03-.02-.05-.03-.07-.02-.02-.03-.03-.06-.04-.02,0-.05-.01-.08-.01-.02,0-.04,0-.06,0-.02,0-.03.01-.05.03-.02.02-.04.04-.06.06s-.05.06-.08.09l-.74,1.1s-.03.05-.05.08c-.01.02-.02.05-.03.07s-.01.05-.02.07c0,.02-.01.05-.01.07,0,.04,0,.08.02.11s.03.06.06.08.06.04.1.05c.04.01.08.02.13.02h2.53v.62h-3.85v-.57l2.15-3.24h.84Z"/><path d="M164.35,14.98c.24.13.45.31.62.53.17.23.31.5.41.82.1.32.15.67.15,1.05s-.05.74-.15,1.06c-.1.32-.23.6-.41.83s-.38.41-.62.54c-.24.13-.51.19-.8.19s-.55-.06-.8-.19-.46-.31-.63-.54c-.17-.23-.31-.51-.41-.83-.1-.32-.15-.68-.15-1.06s.05-.73.15-1.05.23-.59.41-.82c.17-.23.38-.41.62-.53.24-.13.51-.19.8-.19s.56.06.8.19ZM163.04,15.59c-.15.09-.28.23-.39.4-.11.17-.2.37-.26.61-.06.23-.09.49-.09.78s.03.55.09.8c.06.24.15.45.26.62.11.17.25.31.4.41s.32.15.5.15.35-.05.51-.15.29-.23.4-.41c.11-.17.2-.38.26-.62.06-.24.09-.5.09-.79s-.03-.55-.09-.78c-.06-.24-.15-.44-.25-.61-.11-.17-.24-.3-.4-.4-.16-.09-.33-.14-.51-.14s-.35.05-.5.14Z"/><path d="M168.8,14.98c.24.13.45.31.62.53.17.23.31.5.41.82.1.32.15.67.15,1.05s-.05.74-.15,1.06c-.1.32-.23.6-.41.83s-.38.41-.62.54c-.24.13-.51.19-.8.19s-.55-.06-.8-.19-.46-.31-.63-.54c-.17-.23-.31-.51-.41-.83-.1-.32-.15-.68-.15-1.06s.05-.73.15-1.05.23-.59.41-.82c.17-.23.38-.41.62-.53.24-.13.51-.19.8-.19s.56.06.8.19ZM167.49,15.59c-.15.09-.28.23-.39.4-.11.17-.2.37-.26.61-.06.23-.09.49-.09.78s.03.55.09.8c.06.24.15.45.26.62.11.17.25.31.4.41s.32.15.5.15.35-.05.51-.15.29-.23.4-.41c.11-.17.2-.38.26-.62.06-.24.09-.5.09-.79s-.03-.55-.09-.78c-.06-.24-.15-.44-.25-.61-.11-.17-.24-.3-.4-.4-.16-.09-.33-.14-.51-.14s-.35.05-.5.14Z"/><path d="M173.39,16.43v.14c0,.06.01.11.03.13.02.02.05.03.09.03.02,0,.03,0,.05,0,.02,0,.03-.01.05-.02.02,0,.04-.02.05-.03.02-.02.04-.03.06-.05.1-.09.21-.15.33-.19.12-.04.25-.06.39-.06.16,0,.31.03.44.08.13.05.25.14.36.26.05.05.09.09.13.11.04.02.08.03.13.03.02,0,.04,0,.06,0s.04-.01.05-.02c.02,0,.03-.02.06-.04.02-.02.05-.04.07-.06.11-.12.24-.21.39-.27.14-.06.3-.09.47-.09.36,0,.64.12.84.37s.3.59.3,1.03v2.18h-.68v-2.09c0-.28-.06-.5-.19-.66-.13-.16-.3-.24-.52-.24-.11,0-.22.02-.31.07s-.18.11-.25.2c-.07.09-.12.19-.16.31-.04.12-.05.25-.05.39v2.04h-.68v-2.09c0-.14-.02-.26-.05-.37-.04-.11-.08-.21-.15-.29-.06-.08-.14-.14-.22-.18-.09-.04-.19-.06-.3-.06s-.21.02-.31.07c-.1.05-.18.11-.24.2-.07.09-.12.19-.16.31-.04.12-.06.25-.06.4v2.02h-.68v-3.52h.64Z"/><path d="M179.34,16.43v.14c0,.06.01.11.03.13.02.02.05.03.09.03.02,0,.03,0,.05,0,.02,0,.03-.01.05-.02.02,0,.04-.02.05-.03.02-.02.04-.03.06-.05.1-.09.21-.15.33-.19.12-.04.25-.06.39-.06.16,0,.31.03.44.08.13.05.25.14.36.26.05.05.09.09.13.11.04.02.08.03.13.03.02,0,.04,0,.06,0s.04-.01.05-.02c.02,0,.03-.02.06-.04.02-.02.05-.04.07-.06.11-.12.24-.21.39-.27.14-.06.3-.09.47-.09.36,0,.64.12.84.37s.3.59.3,1.03v2.18h-.68v-2.09c0-.28-.06-.5-.19-.66-.13-.16-.3-.24-.52-.24-.11,0-.22.02-.31.07s-.18.11-.25.2c-.07.09-.12.19-.16.31-.04.12-.05.25-.05.39v2.04h-.68v-2.09c0-.14-.02-.26-.05-.37-.04-.11-.08-.21-.15-.29-.06-.08-.14-.14-.22-.18-.09-.04-.19-.06-.3-.06s-.21.02-.31.07c-.1.05-.18.11-.24.2-.07.09-.12.19-.16.31-.04.12-.06.25-.06.4v2.02h-.68v-3.52h.64Z"/></g></g></svg>