<svg xml:space="preserve" style="enable-background:new 0 0 531.3 288;" viewBox="0 0 531.3 288" y="0px" x="0px" xmlns:xlink="http://www.w3.org/1999/xlink" xmlns="http://www.w3.org/2000/svg" id="Layer_1" version="1.1"><style type="text/css">.st0{fill:none;stroke:#000000;stroke-width:0.28;stroke-miterlimit:10;}
	.st1{fill:none;stroke:#12100A;stroke-width:0.3;stroke-linecap:round;stroke-linejoin:round;}
	.st2{fill:#12100A;}
	.st3{fill:none;stroke:#000000;stroke-width:0.3;stroke-miterlimit:10;}</style><g id="bases"><rect height="358.4" width="589.1" class="st0" y="-33.9" x="-25.4"/></g><g id="Urban"><g id="Frame"><g id="papeleira"><g><path d="M337.4,258c0.1-0.2,0.2-0.4,0.3-0.5c0.1-0.1,0.3-0.3,0.5-0.4c0.2-0.1,0.4-0.1,0.7-0.1c0.1,0,0.3,0,0.4,0
					s0.3,0.1,0.4,0.1c0.1,0.1,0.3,0.2,0.4,0.3c0.1,0.1,0.3,0.2,0.5,0.4l1.4,1.3v-2.3h0.7v3.3H342l-1.9-1.8c-0.1-0.1-0.2-0.2-0.3-0.3
					c-0.1-0.1-0.2-0.1-0.3-0.2c-0.1,0-0.2-0.1-0.3-0.1c-0.1,0-0.2,0-0.3,0c-0.1,0-0.3,0-0.4,0.1c-0.1,0-0.2,0.1-0.3,0.2
					c-0.1,0.1-0.2,0.2-0.2,0.3s-0.1,0.2-0.1,0.4c0,0.2,0.1,0.5,0.2,0.6c0.1,0.2,0.4,0.3,0.6,0.4l-0.2,0.7c-0.4-0.1-0.7-0.3-1-0.6
					s-0.3-0.7-0.3-1.1C337.3,258.4,337.3,258.2,337.4,258L337.4,258z"/><path d="M342.6,255.6l-4.6-1.8v2.7h-0.7V253h0.6l4.7,1.8V255.6L342.6,255.6z"/><path d="M342.5,251.5c-0.1,0.2-0.3,0.4-0.5,0.6s-0.5,0.3-0.8,0.4s-0.7,0.1-1.1,0.1s-0.8-0.1-1.1-0.1c-0.4-0.1-0.6-0.2-0.9-0.4
					c-0.2-0.2-0.4-0.4-0.6-0.7s-0.2-0.6-0.2-0.9c0-0.4,0.1-0.7,0.3-1s0.4-0.5,0.8-0.6l0.3,0.6c-0.2,0.1-0.4,0.2-0.5,0.3
					c-0.1,0.2-0.2,0.4-0.2,0.6c0,0.2,0,0.4,0.1,0.6s0.2,0.3,0.4,0.4c0.2,0.1,0.4,0.2,0.6,0.3s0.5,0.1,0.8,0.1h0.2c0.1,0,0.1,0,0.1,0
					c-0.2-0.1-0.5-0.2-0.6-0.4c-0.1-0.2-0.2-0.5-0.2-0.8c0-0.2,0-0.5,0.1-0.6c0.1-0.2,0.2-0.4,0.3-0.5s0.3-0.2,0.5-0.3
					c0.2-0.1,0.4-0.1,0.7-0.1s0.5,0,0.7,0.1c0.2,0.1,0.4,0.2,0.5,0.4c0.1,0.1,0.3,0.3,0.3,0.5s0.1,0.4,0.1,0.7
					C342.7,251,342.6,251.3,342.5,251.5L342.5,251.5z M341.9,250.3c0-0.1-0.1-0.2-0.2-0.3s-0.2-0.1-0.3-0.2s-0.3-0.1-0.4-0.1
					s-0.3,0-0.4,0.1s-0.2,0.1-0.3,0.2s-0.2,0.2-0.2,0.3s-0.1,0.2-0.1,0.4s0,0.3,0.1,0.4s0.1,0.2,0.2,0.3c0.1,0.1,0.2,0.1,0.3,0.2
					s0.2,0.1,0.4,0.1s0.3,0,0.4-0.1s0.2-0.1,0.3-0.2s0.2-0.2,0.2-0.3c0-0.1,0.1-0.3,0.1-0.4S342,250.4,341.9,250.3L341.9,250.3z"/><path d="M339,245.3h0.7c-0.2-0.1-0.4-0.3-0.5-0.4c-0.1-0.2-0.2-0.4-0.2-0.6c0-0.3,0.1-0.5,0.2-0.7c0.1-0.2,0.3-0.3,0.6-0.4
					c-0.3-0.1-0.5-0.3-0.6-0.5c-0.1-0.2-0.2-0.4-0.2-0.7c0-0.4,0.1-0.7,0.4-0.9s0.6-0.3,1.1-0.3h2.2v0.7h-2.2
					c-0.3,0-0.5,0.1-0.7,0.2c-0.2,0.1-0.2,0.3-0.2,0.5c0,0.1,0,0.2,0.1,0.3c0,0.1,0.1,0.2,0.2,0.3c0.1,0.1,0.2,0.1,0.3,0.2
					c0.1,0,0.3,0.1,0.4,0.1h2.1v0.7h-2.2c-0.1,0-0.3,0-0.4,0.1c-0.1,0-0.2,0.1-0.3,0.1s-0.1,0.1-0.2,0.2c0,0.1-0.1,0.2-0.1,0.3
					s0,0.2,0.1,0.3c0,0.1,0.1,0.2,0.2,0.2s0.2,0.1,0.3,0.2c0.1,0,0.3,0.1,0.4,0.1h2.1v0.7H339V245.3L339,245.3z"/><path d="M339,239.1h0.7c-0.2-0.1-0.4-0.3-0.5-0.4c-0.1-0.2-0.2-0.4-0.2-0.6c0-0.3,0.1-0.5,0.2-0.7c0.1-0.2,0.3-0.3,0.6-0.4
					c-0.3-0.1-0.5-0.3-0.6-0.5c-0.1-0.2-0.2-0.4-0.2-0.7c0-0.4,0.1-0.7,0.4-0.9s0.6-0.3,1.1-0.3h2.2v0.7h-2.2
					c-0.3,0-0.5,0.1-0.7,0.2c-0.2,0.1-0.2,0.3-0.2,0.5c0,0.1,0,0.2,0.1,0.3c0,0.1,0.1,0.2,0.2,0.3c0.1,0.1,0.2,0.1,0.3,0.2
					c0.1,0,0.3,0.1,0.4,0.1h2.1v0.7h-2.2c-0.1,0-0.3,0-0.4,0.1c-0.1,0-0.2,0.1-0.3,0.1s-0.1,0.1-0.2,0.2c0,0.1-0.1,0.2-0.1,0.3
					s0,0.2,0.1,0.3c0,0.1,0.1,0.2,0.2,0.2s0.2,0.1,0.3,0.2c0.1,0,0.3,0.1,0.4,0.1h2.1v0.7H339V239.1L339,239.1z"/></g><g><line y2="283.1" x2="346.5" y1="209.5" x1="346.5" class="st1"/><rect height="0.2" width="1.4" class="st2" y="209.4" x="345.8"/><rect height="0.2" width="1.4" class="st2" y="283" x="345.8"/></g><g><path d="M423.7,176.3v0.6h-1.9l-0.2,1.5c0.1-0.1,0.2-0.2,0.4-0.2c0.1-0.1,0.3-0.1,0.5-0.1c0.2,0,0.5,0,0.7,0.1
					c0.2,0.1,0.4,0.2,0.5,0.4c0.1,0.1,0.3,0.3,0.4,0.5c0.1,0.2,0.1,0.4,0.1,0.7s0,0.5-0.1,0.7c-0.1,0.2-0.2,0.4-0.4,0.6
					c-0.2,0.1-0.3,0.3-0.6,0.4c-0.2,0.1-0.5,0.1-0.7,0.1c-0.2,0-0.4,0-0.6-0.1s-0.4-0.1-0.5-0.2c-0.1-0.1-0.3-0.2-0.4-0.4
					c-0.1-0.1-0.2-0.3-0.2-0.5l0.6-0.3c0.1,0.2,0.2,0.4,0.4,0.6c0.2,0.1,0.4,0.2,0.7,0.2c0.1,0,0.3,0,0.4-0.1
					c0.1-0.1,0.2-0.1,0.3-0.2c0.1-0.1,0.2-0.2,0.2-0.3s0.1-0.3,0.1-0.4s0-0.3-0.1-0.4c0-0.1-0.1-0.2-0.2-0.3s-0.2-0.2-0.3-0.2
					s-0.3-0.1-0.4-0.1c-0.2,0-0.4,0-0.5,0.1c-0.1,0.1-0.3,0.2-0.4,0.3l-0.6-0.1l0.5-2.8L423.7,176.3L423.7,176.3z"/><path d="M427.5,176.5c0.2,0.1,0.5,0.3,0.6,0.6s0.3,0.5,0.4,0.9s0.1,0.7,0.1,1.1s0,0.8-0.1,1.1s-0.2,0.6-0.4,0.9
					c-0.2,0.2-0.4,0.4-0.6,0.6s-0.5,0.2-0.8,0.2s-0.6-0.1-0.8-0.2s-0.5-0.3-0.6-0.6c-0.2-0.2-0.3-0.5-0.4-0.9s-0.1-0.7-0.1-1.1
					s0-0.8,0.1-1.1s0.2-0.6,0.4-0.9c0.2-0.2,0.4-0.4,0.6-0.6s0.5-0.2,0.8-0.2S427.2,176.3,427.5,176.5L427.5,176.5z M426.1,177.1
					c-0.2,0.1-0.3,0.2-0.4,0.4c-0.1,0.2-0.2,0.4-0.3,0.6c-0.1,0.2-0.1,0.5-0.1,0.8s0,0.6,0.1,0.8s0.1,0.5,0.3,0.6s0.2,0.3,0.4,0.4
					c0.2,0.1,0.3,0.1,0.5,0.1s0.4-0.1,0.5-0.1c0.2-0.1,0.3-0.2,0.4-0.4c0.1-0.2,0.2-0.4,0.3-0.6c0.1-0.2,0.1-0.5,0.1-0.8
					s0-0.6-0.1-0.8s-0.1-0.5-0.3-0.6c-0.1-0.2-0.2-0.3-0.4-0.4s-0.3-0.1-0.5-0.1S426.3,177,426.1,177.1L426.1,177.1z"/><path d="M432.1,176.5c0.2,0.1,0.5,0.3,0.6,0.6s0.3,0.5,0.4,0.9s0.1,0.7,0.1,1.1s0,0.8-0.1,1.1s-0.2,0.6-0.4,0.9
					c-0.2,0.2-0.4,0.4-0.6,0.6s-0.5,0.2-0.8,0.2s-0.6-0.1-0.8-0.2s-0.5-0.3-0.6-0.6c-0.2-0.2-0.3-0.5-0.4-0.9s-0.1-0.7-0.1-1.1
					s0-0.8,0.1-1.1s0.2-0.6,0.4-0.9c0.2-0.2,0.4-0.4,0.6-0.6s0.5-0.2,0.8-0.2S431.9,176.3,432.1,176.5L432.1,176.5z M430.8,177.1
					c-0.2,0.1-0.3,0.2-0.4,0.4c-0.1,0.2-0.2,0.4-0.3,0.6c-0.1,0.2-0.1,0.5-0.1,0.8s0,0.6,0.1,0.8s0.1,0.5,0.3,0.6s0.2,0.3,0.4,0.4
					c0.2,0.1,0.3,0.1,0.5,0.1s0.4-0.1,0.5-0.1c0.2-0.1,0.3-0.2,0.4-0.4c0.1-0.2,0.2-0.4,0.3-0.6c0.1-0.2,0.1-0.5,0.1-0.8
					s0-0.6-0.1-0.8s-0.1-0.5-0.3-0.6c-0.1-0.2-0.2-0.3-0.4-0.4s-0.3-0.1-0.5-0.1S430.9,177,430.8,177.1L430.8,177.1z"/><path d="M436.9,178v0.7c0.1-0.2,0.3-0.4,0.5-0.5c0.2-0.1,0.4-0.2,0.6-0.2c0.3,0,0.5,0.1,0.7,0.2c0.2,0.1,0.3,0.3,0.4,0.6
					c0.1-0.3,0.3-0.4,0.5-0.6c0.2-0.1,0.4-0.2,0.7-0.2c0.4,0,0.7,0.1,0.9,0.4s0.3,0.6,0.3,1.1v2.2h-0.7v-2.2c0-0.3-0.1-0.5-0.2-0.7
					s-0.3-0.2-0.5-0.2c-0.1,0-0.2,0-0.3,0.1s-0.2,0.1-0.3,0.2c-0.1,0.1-0.1,0.2-0.2,0.3c0,0.1-0.1,0.3-0.1,0.4v2.1h-0.7v-2.2
					c0-0.1,0-0.3-0.1-0.4c0-0.1-0.1-0.2-0.1-0.3s-0.1-0.1-0.2-0.2c-0.1,0-0.2-0.1-0.3-0.1s-0.2,0-0.3,0.1s-0.2,0.1-0.2,0.2
					c-0.1,0.1-0.1,0.2-0.2,0.3c0,0.1-0.1,0.3-0.1,0.4v2.1h-0.7V178L436.9,178L436.9,178z"/><path d="M443.1,178v0.7c0.1-0.2,0.3-0.4,0.5-0.5c0.2-0.1,0.4-0.2,0.6-0.2c0.3,0,0.5,0.1,0.7,0.2c0.2,0.1,0.3,0.3,0.4,0.6
					c0.1-0.3,0.3-0.4,0.5-0.6c0.2-0.1,0.4-0.2,0.7-0.2c0.4,0,0.7,0.1,0.9,0.4s0.3,0.6,0.3,1.1v2.2h-0.7v-2.2c0-0.3-0.1-0.5-0.2-0.7
					s-0.3-0.2-0.5-0.2c-0.1,0-0.2,0-0.3,0.1s-0.2,0.1-0.3,0.2c-0.1,0.1-0.1,0.2-0.2,0.3c0,0.1-0.1,0.3-0.1,0.4v2.1h-0.7v-2.2
					c0-0.1,0-0.3-0.1-0.4c0-0.1-0.1-0.2-0.1-0.3s-0.1-0.1-0.2-0.2c-0.1,0-0.2-0.1-0.3-0.1s-0.2,0-0.3,0.1s-0.2,0.1-0.2,0.2
					c-0.1,0.1-0.1,0.2-0.2,0.3c0,0.1-0.1,0.3-0.1,0.4v2.1h-0.7V178L443.1,178L443.1,178z"/></g><g><line y2="185.5" x2="368.6" y1="185.5" x1="502" class="st1"/><rect height="1.4" width="0.2" class="st2" y="184.8" x="501.9"/><rect height="1.4" width="0.2" class="st2" y="184.8" x="368.5"/></g><g><path d="M7.5,162.8h5.3v0.7H8.2l0.6,1.3H8.1l-0.7-1.4L7.5,162.8L7.5,162.8z"/><path d="M7.6,159.1c0.1-0.2,0.3-0.5,0.5-0.6s0.5-0.3,0.9-0.4c0.3-0.1,0.7-0.1,1.1-0.1s0.8,0.1,1.1,0.1s0.6,0.2,0.9,0.4
					s0.4,0.4,0.6,0.6s0.2,0.5,0.2,0.8s-0.1,0.6-0.2,0.8s-0.3,0.5-0.6,0.6c-0.2,0.2-0.5,0.3-0.9,0.4c-0.3,0.1-0.7,0.1-1.1,0.1
					S9.3,162,9,161.9c-0.3-0.1-0.6-0.2-0.9-0.4c-0.2-0.2-0.4-0.4-0.6-0.6s-0.2-0.5-0.2-0.8S7.5,159.4,7.6,159.1L7.6,159.1z
					 M8.2,160.5c0.1,0.2,0.2,0.3,0.4,0.4c0.2,0.1,0.4,0.2,0.6,0.3c0.2,0.1,0.5,0.1,0.8,0.1s0.6,0,0.8-0.1s0.5-0.1,0.6-0.3
					c0.2-0.1,0.3-0.2,0.4-0.4s0.1-0.3,0.1-0.5s-0.1-0.4-0.1-0.5c-0.1-0.2-0.2-0.3-0.4-0.4s-0.4-0.2-0.6-0.3
					c-0.2-0.1-0.5-0.1-0.8-0.1s-0.6,0-0.8,0.1s-0.5,0.1-0.6,0.3s-0.3,0.2-0.4,0.4c-0.1,0.2-0.1,0.3-0.1,0.5S8.1,160.3,8.2,160.5z"/><path d="M7.6,154.5c0.1-0.2,0.3-0.5,0.5-0.6s0.5-0.3,0.9-0.4c0.3-0.1,0.7-0.1,1.1-0.1s0.8,0.1,1.1,0.1s0.6,0.2,0.9,0.4
					s0.4,0.4,0.6,0.6s0.2,0.5,0.2,0.8s-0.1,0.6-0.2,0.8s-0.3,0.5-0.6,0.6c-0.2,0.2-0.5,0.3-0.9,0.4c-0.3,0.1-0.7,0.1-1.1,0.1
					s-0.8-0.1-1.1-0.1c-0.3-0.1-0.6-0.2-0.9-0.4c-0.2-0.2-0.4-0.4-0.6-0.6s-0.2-0.5-0.2-0.8S7.5,154.7,7.6,154.5L7.6,154.5z
					 M8.2,155.9c0.1,0.2,0.2,0.3,0.4,0.4c0.2,0.1,0.4,0.2,0.6,0.3c0.2,0.1,0.5,0.1,0.8,0.1s0.6,0,0.8-0.1s0.5-0.1,0.6-0.3
					c0.2-0.1,0.3-0.2,0.4-0.4s0.1-0.3,0.1-0.5s-0.1-0.4-0.1-0.5c-0.1-0.2-0.2-0.3-0.4-0.4s-0.4-0.2-0.6-0.3
					c-0.2-0.1-0.5-0.1-0.8-0.1s-0.6,0-0.8,0.1s-0.5,0.1-0.6,0.3s-0.3,0.2-0.4,0.4c-0.1,0.2-0.1,0.3-0.1,0.5S8.1,155.7,8.2,155.9z"/><path d="M7.6,149.9c0.1-0.2,0.3-0.5,0.5-0.6s0.5-0.3,0.9-0.4c0.3-0.1,0.7-0.1,1.1-0.1s0.8,0.1,1.1,0.1s0.6,0.2,0.9,0.4
					s0.4,0.4,0.6,0.6s0.2,0.5,0.2,0.8s-0.1,0.6-0.2,0.8s-0.3,0.5-0.6,0.6c-0.2,0.2-0.5,0.3-0.9,0.4c-0.3,0.1-0.7,0.1-1.1,0.1
					s-0.8-0.1-1.1-0.1c-0.3-0.1-0.6-0.2-0.9-0.4c-0.2-0.2-0.4-0.4-0.6-0.6s-0.2-0.5-0.2-0.8S7.5,150.1,7.6,149.9L7.6,149.9z
					 M8.2,151.2c0.1,0.2,0.2,0.3,0.4,0.4c0.2,0.1,0.4,0.2,0.6,0.3c0.2,0.1,0.5,0.1,0.8,0.1s0.6,0,0.8-0.1s0.5-0.1,0.6-0.3
					c0.2-0.1,0.3-0.2,0.4-0.4s0.1-0.3,0.1-0.5s-0.1-0.4-0.1-0.5c-0.1-0.2-0.2-0.3-0.4-0.4s-0.4-0.2-0.6-0.3
					c-0.2-0.1-0.5-0.1-0.8-0.1s-0.6,0-0.8,0.1s-0.5,0.1-0.6,0.3s-0.3,0.2-0.4,0.4c-0.1,0.2-0.1,0.3-0.1,0.5S8.1,151.1,8.2,151.2z"/><path d="M9.1,145h0.7c-0.2-0.1-0.4-0.3-0.5-0.4c-0.1-0.2-0.2-0.4-0.2-0.6c0-0.3,0.1-0.5,0.2-0.7c0.1-0.2,0.3-0.3,0.6-0.4
					c-0.3-0.1-0.4-0.3-0.6-0.5c-0.1-0.2-0.2-0.4-0.2-0.7c0-0.4,0.1-0.7,0.4-0.9s0.6-0.3,1.1-0.3h2.2v0.7h-2.2
					c-0.3,0-0.5,0.1-0.7,0.2c-0.2,0.1-0.2,0.3-0.2,0.5c0,0.1,0,0.2,0.1,0.3c0.1,0.1,0.1,0.2,0.2,0.3c0.1,0.1,0.2,0.1,0.3,0.2
					c0.1,0,0.3,0.1,0.4,0.1h2.1v0.7h-2.2c-0.1,0-0.3,0-0.4,0.1c-0.1,0-0.2,0.1-0.3,0.1s-0.1,0.1-0.2,0.2c0,0.1-0.1,0.2-0.1,0.3
					s0,0.2,0.1,0.3c0.1,0.1,0.1,0.2,0.2,0.2s0.2,0.1,0.3,0.2c0.1,0,0.3,0.1,0.4,0.1h2.1v0.7H9.1L9.1,145L9.1,145z"/><path d="M9.1,138.9h0.7c-0.2-0.1-0.4-0.3-0.5-0.4c-0.1-0.2-0.2-0.4-0.2-0.6c0-0.3,0.1-0.5,0.2-0.7c0.1-0.2,0.3-0.3,0.6-0.4
					c-0.3-0.1-0.4-0.3-0.6-0.5c-0.1-0.2-0.2-0.4-0.2-0.7c0-0.4,0.1-0.7,0.4-0.9s0.6-0.3,1.1-0.3h2.2v0.7h-2.2
					c-0.3,0-0.5,0.1-0.7,0.2c-0.2,0.1-0.2,0.3-0.2,0.5c0,0.1,0,0.2,0.1,0.3c0.1,0.1,0.1,0.2,0.2,0.3c0.1,0.1,0.2,0.1,0.3,0.2
					c0.1,0,0.3,0.1,0.4,0.1h2.1v0.7h-2.2c-0.1,0-0.3,0-0.4,0.1c-0.1,0-0.2,0.1-0.3,0.1s-0.1,0.1-0.2,0.2c0,0.1-0.1,0.2-0.1,0.3
					s0,0.2,0.1,0.3c0.1,0.1,0.1,0.2,0.2,0.2s0.2,0.1,0.3,0.2c0.1,0,0.3,0.1,0.4,0.1h2.1v0.7H9.1L9.1,138.9L9.1,138.9z"/></g><g><line y2="282.9" x2="16.7" y1="16" x1="16.7" class="st1"/><rect height="0.3" width="1.9" class="st2" y="15.9" x="15.7"/><rect height="0.3" width="1.9" class="st2" y="282.8" x="15.7"/></g><g><rect height="66.8" width="133.6" class="st1" y="212.9" x="368.9"/><g><polyline points="371.1,212.8 371.1,210 371.1,209.9 371.2,209.7 371.2,209.6 371.4,209.5 371.5,209.4 
						371.6,209.4 371.8,209.3 371.9,209.3 380.7,209.3 380.9,209.3 381,209.4 381.2,209.4 381.3,209.5 381.4,209.6 381.5,209.7 
						381.5,209.9 381.5,210 381.5,212.8" class="st1"/><polyline points="384.3,212.8 384.3,210 384.3,209.9 384.4,209.7 384.5,209.6 384.5,209.5 384.7,209.4 
						384.8,209.4 385,209.3 385.1,209.3 393.9,209.3 394.1,209.3 394.2,209.4 394.4,209.4 394.5,209.5 394.6,209.6 394.7,209.7 
						394.7,209.9 394.7,210 394.7,212.8" class="st1"/><polyline points="397.5,212.8 397.5,210 397.5,209.9 397.6,209.7 397.6,209.6 397.8,209.5 397.9,209.4 398,209.4 
						398.2,209.3 398.3,209.3 407.1,209.3 407.3,209.3 407.4,209.4 407.6,209.4 407.7,209.5 407.8,209.6 407.9,209.7 407.9,209.9 
						407.9,210 407.9,212.8" class="st1"/><polyline points="410.7,212.8 410.7,210 410.7,209.9 410.8,209.7 410.9,209.6 411,209.5 411.1,209.4 411.2,209.4 
						411.4,209.3 411.5,209.3 420.3,209.3 420.5,209.3 420.6,209.4 420.8,209.4 420.9,209.5 421,209.6 421.1,209.7 421.1,209.9 
						421.1,210 421.1,212.8" class="st1"/><polyline points="423.9,212.8 423.9,210 423.9,209.9 424,209.7 424,209.6 424.1,209.5 424.3,209.4 424.4,209.4 
						424.6,209.3 424.7,209.3 433.5,209.3 433.7,209.3 433.8,209.4 434,209.4 434.1,209.5 434.2,209.6 434.3,209.7 434.3,209.9 
						434.3,210 434.3,212.8" class="st1"/><polyline points="437.1,212.8 437.1,210 437.1,209.9 437.2,209.7 437.2,209.6 437.4,209.5 437.5,209.4 
						437.6,209.4 437.8,209.3 437.9,209.3 446.7,209.3 446.9,209.3 447,209.4 447.2,209.4 447.3,209.5 447.4,209.6 447.5,209.7 
						447.5,209.9 447.5,210 447.5,212.8" class="st1"/><polyline points="450.3,212.8 450.3,210 450.3,209.9 450.4,209.7 450.5,209.6 450.5,209.5 450.7,209.4 
						450.8,209.4 451,209.3 451.1,209.3 459.9,209.3 460.1,209.3 460.2,209.4 460.4,209.4 460.5,209.5 460.6,209.6 460.7,209.7 
						460.7,209.9 460.7,210 460.7,212.8" class="st1"/><polyline points="463.5,212.8 463.5,210 463.5,209.9 463.6,209.7 463.6,209.6 463.8,209.5 463.9,209.4 464,209.4 
						464.2,209.3 464.3,209.3 473.1,209.3 473.3,209.3 473.4,209.4 473.6,209.4 473.7,209.5 473.8,209.6 473.9,209.7 473.9,209.9 
						473.9,210 473.9,212.8" class="st1"/><polyline points="476.7,212.8 476.7,210 476.7,209.9 476.8,209.7 476.9,209.6 477,209.5 477.1,209.4 477.2,209.4 
						477.4,209.3 477.5,209.3 486.3,209.3 486.5,209.3 486.6,209.4 486.8,209.4 486.9,209.5 487,209.6 487.1,209.7 487.1,209.9 
						487.1,210 487.1,212.8" class="st1"/><polyline points="489.9,212.8 489.9,210 489.9,209.9 490,209.7 490,209.6 490.1,209.5 490.3,209.4 490.4,209.4 
						490.6,209.3 490.7,209.3 499.5,209.3 499.7,209.3 499.8,209.4 500,209.4 500.1,209.5 500.2,209.6 500.3,209.7 500.3,209.9 
						500.3,210 500.3,212.8" class="st1"/></g><g><polyline points="371.1,279.7 371.1,282.5 371.1,282.6 371.2,282.8 371.2,282.9 371.4,283 371.5,283.1 
						371.6,283.1 371.8,283.2 371.9,283.2 380.7,283.2 380.9,283.2 381,283.1 381.2,283.1 381.3,283 381.4,282.9 381.5,282.8 
						381.5,282.6 381.5,282.5 381.5,279.7" class="st1"/><polyline points="384.3,279.7 384.3,282.5 384.3,282.6 384.4,282.8 384.5,282.9 384.5,283 384.7,283.1 
						384.8,283.1 385,283.2 385.1,283.2 393.9,283.2 394.1,283.2 394.2,283.1 394.4,283.1 394.5,283 394.6,282.9 394.7,282.8 
						394.7,282.6 394.7,282.5 394.7,279.7" class="st1"/><polyline points="397.5,279.7 397.5,282.5 397.5,282.6 397.6,282.8 397.6,282.9 397.8,283 397.9,283.1 398,283.1 
						398.2,283.2 398.3,283.2 407.1,283.2 407.3,283.2 407.4,283.1 407.6,283.1 407.7,283 407.8,282.9 407.9,282.8 407.9,282.6 
						407.9,282.5 407.9,279.7" class="st1"/><polyline points="410.7,279.7 410.7,282.5 410.7,282.6 410.8,282.8 410.9,282.9 411,283 411.1,283.1 411.2,283.1 
						411.4,283.2 411.5,283.2 420.3,283.2 420.5,283.2 420.6,283.1 420.8,283.1 420.9,283 421,282.9 421.1,282.8 421.1,282.6 
						421.1,282.5 421.1,279.7" class="st1"/><polyline points="423.9,279.7 423.9,282.5 423.9,282.6 424,282.8 424,282.9 424.1,283 424.3,283.1 424.4,283.1 
						424.6,283.2 424.7,283.2 433.5,283.2 433.7,283.2 433.8,283.1 434,283.1 434.1,283 434.2,282.9 434.3,282.8 434.3,282.6 
						434.3,282.5 434.3,279.7" class="st1"/><polyline points="437.1,279.7 437.1,282.5 437.1,282.6 437.2,282.8 437.2,282.9 437.4,283 437.5,283.1 
						437.6,283.1 437.8,283.2 437.9,283.2 446.7,283.2 446.9,283.2 447,283.1 447.2,283.1 447.3,283 447.4,282.9 447.5,282.8 
						447.5,282.6 447.5,282.5 447.5,279.7" class="st1"/><polyline points="450.3,279.7 450.3,282.5 450.3,282.6 450.4,282.8 450.5,282.9 450.5,283 450.7,283.1 
						450.8,283.1 451,283.2 451.1,283.2 459.9,283.2 460.1,283.2 460.2,283.1 460.4,283.1 460.5,283 460.6,282.9 460.7,282.8 
						460.7,282.6 460.7,282.5 460.7,279.7" class="st1"/><polyline points="463.5,279.7 463.5,282.5 463.5,282.6 463.6,282.8 463.6,282.9 463.8,283 463.9,283.1 464,283.1 
						464.2,283.2 464.3,283.2 473.1,283.2 473.3,283.2 473.4,283.1 473.6,283.1 473.7,283 473.8,282.9 473.9,282.8 473.9,282.6 
						473.9,282.5 473.9,279.7" class="st1"/><polyline points="476.7,279.7 476.7,282.5 476.7,282.6 476.8,282.8 476.9,282.9 477,283 477.1,283.1 477.2,283.1 
						477.4,283.2 477.5,283.2 486.3,283.2 486.5,283.2 486.6,283.1 486.8,283.1 486.9,283 487,282.9 487.1,282.8 487.1,282.6 
						487.1,282.5 487.1,279.7" class="st1"/><polyline points="489.9,279.7 489.9,282.5 489.9,282.6 490,282.8 490,282.9 490.1,283 490.3,283.1 490.4,283.1 
						490.6,283.2 490.7,283.2 499.5,283.2 499.7,283.2 499.8,283.1 500,283.1 500.1,283 500.2,282.9 500.3,282.8 500.3,282.6 
						500.3,282.5 500.3,279.7" class="st1"/></g></g><g><g><line y2="233.3" x2="52" y1="69.3" x1="52" class="st1"/><line y2="233.3" x2="65.1" y1="69.3" x1="65.1" class="st1"/><line y2="69.3" x2="54.6" y1="233.3" x1="54.6" class="st1"/><line y2="233.3" x2="78.2" y1="69.3" x1="78.2" class="st1"/><line y2="69.3" x2="67.7" y1="233.3" x1="67.7" class="st1"/><line y2="69.3" x2="80.8" y1="233.3" x1="80.8" class="st1"/><line y2="233.3" x2="91.2" y1="69.3" x1="91.2" class="st1"/><line y2="69.3" x2="93.9" y1="233.3" x1="93.9" class="st1"/><line y2="233.3" x2="104.3" y1="69.3" x1="104.3" class="st1"/><line y2="233.3" x2="117.4" y1="69.3" x1="117.4" class="st1"/><line y2="69.3" x2="107" y1="233.3" x1="107" class="st1"/><line y2="69.3" x2="120.1" y1="233.3" x1="120.1" class="st1"/><line y2="233.3" x2="130.5" y1="69.3" x1="130.5" class="st1"/><line y2="69.3" x2="133.2" y1="233.3" x1="133.2" class="st1"/><line y2="233.3" x2="143.6" y1="69.3" x1="143.6" class="st1"/><line y2="69.3" x2="146.3" y1="233.3" x1="146.3" class="st1"/><line y2="233.3" x2="156.7" y1="69.3" x1="156.7" class="st1"/><line y2="69.3" x2="159.4" y1="233.3" x1="159.4" class="st1"/></g><rect height="267.2" width="133.6" class="st1" y="16" x="38.9"/><polyline points="41,66.1 41,18.1 170.3,18.1 170.3,66.1" class="st1"/><polyline points="170.3,69.3 170.3,281.1 41,281.1 41,69.3" class="st1"/><rect height="48" width="129.3" class="st1" y="18.1" x="41"/><line y2="66.1" x2="170.3" y1="66.1" x1="41" class="st1"/><line y2="69.3" x2="41" y1="69.3" x1="170.3" class="st1"/><rect height="47.7" width="129.3" class="st1" y="233.3" x="41"/></g><g><rect height="267.2" width="65.8" class="st1" y="16" x="236.8"/><g><rect height="164" width="3.5" class="st1" y="69" x="233.3"/><rect height="164" width="3.5" class="st1" y="69.3" x="302.6"/></g></g></g></g></g><circle r="3" cy="80.2" cx="164.9" class="st3"/><circle r="1.3" cy="80.2" cx="164.9" class="st3"/></svg>