<svg viewBox="0 0 531.26 288" xmlns="http://www.w3.org/2000/svg" id="Golf"><defs><style>.cls-1{stroke:#12100b;}.cls-1,.cls-2{fill:none;stroke-linecap:round;stroke-linejoin:round;}.cls-1,.cls-2,.cls-3{stroke-width:.3px;}.cls-4{fill-rule:evenodd;}.cls-4,.cls-5{fill:#1d1d1b;}.cls-2,.cls-3{stroke:#000;}.cls-3{fill:#f1efea;stroke-miterlimit:10;}</style></defs><g id="Club_House"><g id="dispensador_de_água_Palmer"><rect ry="1.85" rx="1.85" height="97.32" width="97.32" y="187.34" x="304.03" class="cls-2"/><g id="LINE"><line y2="187.49" x2="288.57" y1="284.51" x1="288.57" class="cls-2"/><rect height=".3" width="1.95" y="284.36" x="287.59"/><rect height=".3" width="1.95" y="187.34" x="287.59"/></g><g id="MTEXT"><path d="M284.52,248.27c-.12.24-.29.44-.51.61-.22.17-.5.3-.82.39s-.69.14-1.09.14-.8-.05-1.15-.15c-.35-.1-.64-.24-.89-.43-.25-.18-.43-.41-.56-.67s-.2-.55-.2-.88c0-.37.09-.7.27-.97.18-.27.43-.47.76-.59l.29.64c-.21.07-.37.18-.48.34-.11.16-.17.35-.17.56,0,.2.05.38.14.55.09.17.22.31.4.44.17.13.37.22.61.29.24.07.49.1.77.1h.17c.06,0,.11,0,.15,0-.25-.08-.45-.23-.59-.45s-.21-.48-.21-.79c0-.24.04-.46.12-.65.08-.2.19-.36.34-.5.15-.14.32-.25.52-.33.2-.08.42-.12.66-.12s.47.04.68.13c.21.08.38.2.53.35.14.15.26.32.34.53.08.21.12.43.12.68,0,.3-.06.57-.18.81ZM283.95,247.1c-.05-.12-.12-.22-.21-.3-.09-.08-.19-.15-.31-.2-.12-.05-.26-.07-.41-.07s-.29.02-.41.07c-.12.05-.23.12-.32.2s-.16.19-.21.31-.07.25-.07.4.02.27.07.39.12.22.2.31c.09.09.19.15.31.2.12.05.25.07.4.07s.28-.03.41-.08c.13-.05.24-.12.34-.21s.17-.2.22-.32c.05-.12.08-.26.08-.4s-.03-.26-.08-.38Z"/><path d="M279.36,242.01h.55l.98.65c.06.04.11.07.15.1.04.03.08.06.13.09.04.03.09.06.13.09s.09.06.15.09c.02-.19.08-.37.18-.52.09-.16.21-.29.35-.41.14-.12.3-.21.48-.27s.38-.09.59-.09c.24,0,.47.04.67.13.2.08.38.2.52.36.14.15.26.34.34.54.08.21.12.44.12.69,0,.21-.03.4-.08.58-.05.18-.13.35-.23.49-.1.15-.22.28-.37.39-.14.11-.31.2-.49.26l-.31-.63c.24-.08.44-.22.58-.41.14-.19.21-.42.21-.67,0-.15-.02-.28-.07-.4-.05-.12-.11-.23-.2-.31-.09-.09-.19-.15-.32-.2-.12-.05-.26-.07-.41-.07s-.29.03-.42.08c-.13.06-.23.13-.32.22-.09.09-.16.21-.21.34-.05.13-.08.28-.08.44v.35l-.44.08-1.07-.72s-.09-.06-.12-.09c-.03-.03-.07-.05-.12-.08-.04-.03-.08-.06-.12-.08-.03-.03-.07-.06-.12-.09v2.18h-.65v-3.09Z"/><path d="M279.5,238.31c.13-.25.32-.47.55-.65.23-.18.52-.32.85-.42.33-.1.69-.15,1.08-.15s.76.05,1.1.15c.33.1.62.24.86.42s.43.4.56.65c.13.25.2.52.2.83s-.07.57-.2.82-.32.47-.56.65c-.24.18-.53.32-.86.42-.33.1-.7.15-1.1.15s-.75-.05-1.08-.15c-.33-.1-.61-.24-.85-.42-.24-.18-.42-.4-.55-.65-.13-.25-.2-.53-.2-.83s.07-.58.2-.83ZM280.14,239.67c.1.16.23.29.41.41.18.11.38.2.63.27.24.07.51.1.8.1s.57-.03.82-.09c.25-.06.46-.15.64-.27.18-.12.32-.25.42-.41.1-.16.15-.33.15-.52s-.05-.37-.15-.53c-.1-.16-.24-.3-.42-.41-.18-.11-.39-.2-.64-.27-.25-.06-.52-.09-.82-.09s-.56.03-.81.09c-.25.06-.46.15-.63.26-.17.11-.31.25-.41.41-.1.16-.15.34-.15.53s.05.37.15.52Z"/><path d="M281,233.49h.67c-.24-.11-.42-.26-.54-.45s-.18-.4-.18-.63c0-.26.07-.48.2-.67.14-.19.33-.32.59-.41-.26-.11-.45-.27-.59-.46-.13-.2-.2-.43-.2-.7,0-.38.12-.67.37-.88s.61-.31,1.07-.31h2.25v.7h-2.16c-.29,0-.52.07-.69.2-.17.13-.25.31-.25.54,0,.12.02.22.07.32.05.1.11.18.2.26.09.07.2.13.32.16.12.04.26.06.4.06h2.11v.7h-2.16c-.14,0-.27.02-.38.06-.12.04-.22.09-.3.15-.08.06-.14.14-.19.23-.04.09-.07.2-.07.31s.02.22.07.32c.05.1.12.18.21.25s.2.12.32.17c.12.04.26.06.41.06h2.09v.7h-3.64v-.68Z"/><path d="M281,227.3h.67c-.24-.11-.42-.26-.54-.45s-.18-.4-.18-.63c0-.26.07-.48.2-.67.14-.19.33-.32.59-.41-.26-.11-.45-.27-.59-.46-.13-.2-.2-.43-.2-.7,0-.38.12-.67.37-.88s.61-.31,1.07-.31h2.25v.7h-2.16c-.29,0-.52.07-.69.2-.17.13-.25.31-.25.54,0,.12.02.22.07.32.05.1.11.18.2.26.09.07.2.13.32.16.12.04.26.06.4.06h2.11v.7h-2.16c-.14,0-.27.02-.38.06-.12.04-.22.09-.3.15-.08.06-.14.14-.19.23-.04.09-.07.2-.07.31s.02.22.07.32c.05.1.12.18.21.25s.2.12.32.17c.12.04.26.06.41.06h2.09v.7h-3.64v-.68Z"/></g><g id="LINE-2"><line y2="174.32" x2="401.2" y1="174.32" x1="304.18" class="cls-2"/><rect height="1.95" width=".3" y="173.34" x="304.03"/><rect height="1.95" width=".3" y="173.34" x="401.05"/></g><g id="MTEXT-2"><path d="M340.43,170.27c-.24-.12-.44-.29-.61-.51-.17-.22-.3-.5-.39-.82s-.14-.69-.14-1.09.05-.8.15-1.15c.1-.35.24-.64.43-.89.18-.25.41-.43.67-.56.26-.13.55-.2.88-.2.37,0,.7.09.97.27.27.18.47.43.59.76l-.64.29c-.07-.21-.18-.37-.34-.48-.16-.11-.35-.17-.56-.17-.2,0-.38.05-.55.14s-.31.23-.44.4c-.13.17-.22.37-.29.61s-.1.49-.1.77v.17c0,.06,0,.1,0,.15.08-.25.23-.45.45-.59.22-.14.48-.21.79-.21.24,0,.46.04.65.12.2.08.36.19.5.34.14.15.25.32.33.52.08.2.12.42.12.66s-.04.47-.13.68c-.08.21-.2.38-.35.53-.15.14-.32.26-.53.34s-.43.12-.68.12c-.3,0-.57-.06-.81-.18ZM341.59,169.7c.12-.05.22-.12.3-.21.08-.09.15-.19.2-.31.05-.12.07-.26.07-.41s-.02-.29-.07-.41c-.05-.12-.12-.23-.2-.32s-.19-.16-.31-.21-.25-.07-.4-.07-.27.02-.39.07-.22.12-.31.2c-.09.09-.15.19-.2.31-.05.12-.07.25-.07.4s.03.28.08.41.12.24.21.34.2.17.32.22c.12.05.26.08.4.08s.26-.03.38-.08Z"/><path d="M346.69,165.11v.55l-.65.98c-.04.06-.07.1-.1.15-.03.04-.06.08-.09.13s-.06.09-.09.13-.06.09-.09.15c.19.02.37.08.52.18s.29.21.41.35c.12.14.21.3.27.48s.09.38.09.59c0,.24-.04.47-.13.67-.08.2-.2.38-.36.52-.15.14-.34.26-.54.34s-.44.12-.69.12c-.21,0-.4-.03-.58-.08-.18-.05-.35-.13-.49-.23-.15-.1-.28-.22-.39-.37-.11-.14-.2-.31-.26-.49l.63-.31c.08.24.22.44.41.58.19.14.42.21.67.21.15,0,.28-.02.4-.07.12-.05.23-.11.31-.2.09-.09.15-.19.2-.31.05-.12.07-.26.07-.41s-.03-.29-.08-.42c-.06-.13-.13-.23-.22-.32-.09-.09-.21-.16-.34-.21-.13-.05-.28-.08-.44-.08h-.35l-.08-.44.72-1.07s.06-.09.09-.12c.03-.03.05-.07.08-.12s.06-.08.08-.12c.03-.03.06-.07.09-.12h-2.18v-.65h3.09Z"/><path d="M350.38,165.25c.25.13.47.32.65.55.18.23.32.52.42.85.1.33.15.69.15,1.08s-.05.76-.15,1.1-.24.62-.42.86c-.18.24-.4.43-.65.56-.25.13-.52.2-.83.2s-.57-.07-.82-.2-.47-.32-.65-.56c-.18-.24-.32-.53-.42-.86-.1-.33-.15-.7-.15-1.1s.05-.75.15-1.08c.1-.33.24-.61.42-.85.18-.24.4-.42.65-.55.25-.13.53-.2.83-.2s.58.07.83.2ZM349.03,165.88c-.16.1-.29.23-.41.41-.11.18-.2.38-.27.63-.07.24-.1.51-.1.81s.03.57.09.82c.06.25.15.46.27.64.12.18.25.32.41.42.16.1.33.15.52.15s.37-.05.53-.15c.16-.1.3-.24.41-.42.11-.18.2-.39.27-.64.06-.25.09-.52.09-.82s-.03-.56-.09-.81c-.06-.25-.15-.46-.26-.63-.11-.17-.25-.31-.41-.41-.16-.1-.34-.15-.53-.15s-.37.05-.52.15Z"/><path d="M355.21,166.75v.67c.11-.24.26-.42.45-.54.18-.12.4-.18.63-.18.26,0,.48.07.67.2.19.14.32.33.41.59.11-.26.27-.45.46-.59.2-.14.43-.2.7-.2.38,0,.67.12.88.37.21.25.31.61.31,1.07v2.25h-.7v-2.16c0-.29-.07-.52-.2-.69-.13-.17-.31-.25-.54-.25-.12,0-.22.02-.32.07-.1.05-.18.11-.26.2-.07.09-.13.19-.16.32-.04.12-.06.26-.06.4v2.11h-.7v-2.16c0-.14-.02-.27-.06-.38-.04-.12-.09-.22-.15-.3-.06-.08-.14-.14-.23-.19-.09-.04-.2-.07-.31-.07s-.22.02-.32.07c-.1.05-.18.12-.25.21-.07.09-.12.2-.17.32-.04.12-.06.26-.06.41v2.09h-.7v-3.64h.68Z"/><path d="M361.39,166.75v.67c.11-.24.26-.42.45-.54.18-.12.4-.18.63-.18.26,0,.48.07.67.2.19.14.32.33.41.59.11-.26.27-.45.46-.59.2-.14.43-.2.7-.2.38,0,.67.12.88.37.21.25.31.61.31,1.07v2.25h-.7v-2.16c0-.29-.07-.52-.2-.69-.13-.17-.31-.25-.54-.25-.12,0-.22.02-.32.07-.1.05-.18.11-.26.2-.07.09-.13.19-.16.32-.04.12-.06.26-.06.4v2.11h-.7v-2.16c0-.14-.02-.27-.06-.38-.04-.12-.09-.22-.15-.3-.06-.08-.14-.14-.23-.19-.09-.04-.2-.07-.31-.07s-.22.02-.32.07c-.1.05-.18.12-.25.21-.07.09-.12.2-.17.32-.04.12-.06.26-.06.41v2.09h-.7v-3.64h.68Z"/></g><line y2="266.62" x2="181.78" y1="135.2" x1="181.78" class="cls-1"/><line y2="96.61" x2="181.78" y1="40.94" x1="181.78" class="cls-1"/><line y2="266.62" x2="187.78" y1="135.2" x1="187.78" class="cls-1"/><line y2="97.68" x2="187.78" y1="38.57" x1="187.78" class="cls-1"/><line y2="266.62" x2="193.77" y1="37.2" x1="193.77" class="cls-1"/><line y2="266.62" x2="199.77" y1="36.54" x1="199.77" class="cls-1"/><line y2="266.62" x2="205.76" y1="36.54" x1="205.76" class="cls-1"/><line y2="266.62" x2="211.76" y1="37.2" x1="211.76" class="cls-1"/><line y2="266.62" x2="217.75" y1="38.57" x1="217.75" class="cls-1"/><line y2="266.62" x2="223.74" y1="40.94" x1="223.74" class="cls-1"/><path d="M175.79,135.2v131.43h53.95V44.9c-10.22-10.95-43.73-10.95-53.95,0v51.71" class="cls-1"/><line y2="275.08" x2="237.16" y1="275.08" x1="167.96" class="cls-2"/><path d="M190.46,128.17s-.02-.03-.02-.05v-17.37s-.01,0-.01,0c0,0,.01,0,.01-.01-.02-.28-.03-.57-.09-.86-.06-.26-.15-.53-.28-.8-.12-.25-.27-.49-.43-.69-.17-.21-.36-.41-.56-.59-.21-.18-.43-.35-.67-.5-.24-.16-.49-.29-.74-.42-.26-.13-.53-.25-.8-.35-.28-.11-.56-.2-.85-.29-.33-.1-.66-.18-.99-.26-.34-.07-.67-.14-1-.19-.33-.05-.65-.1-.98-.14-.3-.04-.62-.07-.93-.1-.28-.02-.56-.04-.85-.06-.25-.01-.49-.03-.74-.03h-.6s0-.01-.01-.01h-.53s-.63.04-.63.04h0s-.89.06-.89.06c0,0,0,0,0,0l-.42.04s0,0,0,0c0,0,0,0-.01,0l-.17.02c-.29.03-.59.07-.87.11-.37.05-.73.12-1.1.19s-.73.17-1.1.27c-.36.1-.72.22-1.07.36-.36.14-.7.29-1.01.45-.25.13-.49.28-.72.44-.22.16-.43.33-.63.52-.19.18-.37.39-.53.62-.17.24-.29.48-.4.72-.09.25-.16.51-.22.78,0,.01.02.01.02.03,0,.01-.02,0-.02.02-.02.12-.03.24-.04.33-.01.1-.02.21-.02.31,0,0,0,0,0,0v17.4s.01,0,.01.01c0,0-.01,0-.01.01.01.2.02.41.07.6.04.19.11.39.21.59.09.18.2.35.32.51.12.16.26.3.43.44.16.13.33.25.53.35.21.1.41.18.61.22.21.04.41.06.63.07h15.3c.21-.01.4-.03.6-.07.2-.04.39-.11.59-.2.19-.1.37-.2.51-.32.15-.11.29-.25.43-.42.13-.16.25-.34.35-.53.1-.2.18-.41.23-.62.04-.18.05-.36.07-.61,0-.01.02-.02.02-.04Z" class="cls-2"/><rect height="262.01" width="14.03" y="22.83" x="153.75" class="cls-2"/><rect height="262.08" width="14.03" y="22.83" x="237.16" class="cls-2"/><polygon points="153.75 21.96 251.19 21.96 251.19 22.83 251.19 22.83 153.75 22.83 153.75 21.96" class="cls-3"/><line y2="22.83" x2="159.94" y1="284.65" x1="159.94" class="cls-2"/><line y2="22.83" x2="161.48" y1="284.65" x1="161.48" class="cls-2"/><line y2="22.83" x2="243.46" y1="284.77" x1="243.46" class="cls-2"/><line y2="22.83" x2="245" y1="284.77" x1="245" class="cls-2"/><path d="M177.36,101.72l.08.06c-.22.42-.55.63-.99.63-.34,0-.61-.12-.82-.37-.2-.25-.3-.53-.3-.86,0-.38.12-.7.34-.95s.51-.38.85-.38c.23,0,.43.06.6.18s.25.26.25.43c0,.09-.03.16-.09.22-.06.06-.13.1-.23.1-.23,0-.36-.16-.39-.47-.02-.18-.1-.27-.25-.27-.12,0-.21.07-.28.21s-.11.32-.11.55c0,.29.06.57.2.83.13.26.32.39.58.39.2,0,.39-.09.56-.28Z" class="cls-5"/><path d="M179.85,99.9v2.15c.02.11.07.17.18.18v.09h-.91v-.31c-.11.13-.22.22-.34.29-.11.07-.23.1-.35.1-.21,0-.37-.07-.48-.21-.12-.14-.18-.34-.18-.61v-1.23c0-.13-.02-.21-.04-.26-.03-.05-.08-.08-.15-.09v-.1h.92v1.68c0,.15.02.27.06.35.04.07.09.11.17.11.08,0,.15-.03.22-.08.06-.05.13-.13.18-.23v-1.38c0-.12-.02-.21-.06-.26s-.12-.08-.23-.09v-.1h1.02Z" class="cls-5"/><path d="M181.19,99.9v.29c.07-.11.16-.2.25-.26.1-.06.2-.09.31-.09.23,0,.43.12.59.35.17.23.25.54.25.93s-.09.71-.28.94-.39.34-.62.34c-.11,0-.2-.02-.28-.07-.08-.05-.15-.11-.22-.21v.75c0,.18.02.3.05.37.03.06.1.09.2.09h.11v.1h-1.37v-.1c.12,0,.2-.03.23-.09.04-.06.05-.18.05-.37v-2.4c0-.19-.02-.32-.06-.38s-.11-.09-.23-.09v-.1h1ZM181.19,100.47v1.42c.07.09.13.15.19.19.06.04.11.06.17.06.1,0,.17-.06.22-.19.05-.13.07-.4.07-.82,0-.33-.03-.57-.08-.74-.05-.17-.14-.25-.25-.25-.06,0-.12.02-.18.08-.05.05-.1.13-.15.23Z" class="cls-5"/><path d="M182.86,101.54h.06c.09.22.21.39.37.51.15.12.31.18.47.18.1,0,.18-.03.26-.08.07-.06.11-.13.11-.23,0-.09-.04-.17-.11-.23-.07-.07-.22-.15-.42-.25-.28-.13-.47-.25-.59-.38s-.18-.28-.18-.47c0-.21.07-.38.22-.53.15-.14.33-.22.55-.22.12,0,.25.03.4.09.1.04.17.06.2.06.08,0,.15-.05.21-.15h.06l.04.82h-.06c-.07-.19-.18-.35-.34-.46-.15-.11-.31-.17-.47-.17-.09,0-.17.02-.22.07-.06.05-.1.11-.1.18,0,.13.15.27.47.42.33.16.55.3.68.43.12.13.19.29.19.49s-.08.39-.23.55-.36.23-.61.23c-.13,0-.29-.04-.48-.11-.1-.04-.16-.06-.19-.06-.07,0-.13.05-.18.16h-.05l-.06-.86Z" class="cls-5"/><g id="LINE-3"><line y2="21.95" x2="18.12" y1="284.27" x1="18.12" class="cls-2"/><rect height=".3" width="1.95" y="284.12" x="17.14"/><rect height=".3" width="1.95" y="21.8" x="17.14"/></g><g id="MTEXT-3"><path d="M8.9,165.99h5.29v.72h-4.54l.64,1.3h-.73l-.67-1.36v-.67Z"/><path d="M14.19,164.42l-4.62-1.78v2.69h-.67v-3.5h.59l4.7,1.77v.83Z"/><path d="M9.05,158.59c.13-.25.32-.47.55-.65.23-.18.52-.32.85-.42.33-.1.69-.15,1.08-.15s.76.05,1.1.15.62.24.86.42c.24.18.43.4.56.65.13.25.2.52.2.83s-.07.57-.2.82-.32.47-.56.65c-.24.18-.53.32-.86.42-.33.1-.7.15-1.1.15s-.75-.05-1.08-.15c-.33-.1-.61-.24-.85-.42-.24-.18-.42-.4-.55-.65-.13-.25-.2-.53-.2-.83s.07-.58.2-.83ZM9.68,159.94c.1.16.23.29.41.41.18.11.38.2.63.27.24.07.51.1.81.1s.57-.03.82-.09c.25-.06.46-.15.64-.27.18-.12.32-.25.42-.41.1-.16.15-.33.15-.52s-.05-.37-.15-.53c-.1-.16-.24-.3-.42-.41-.18-.11-.39-.2-.64-.27-.25-.06-.52-.09-.82-.09s-.56.03-.81.09c-.25.06-.46.15-.63.26-.17.11-.31.25-.41.41-.1.16-.15.34-.15.53s.05.37.15.52Z"/><path d="M9.05,153.95c.13-.25.32-.47.55-.65.23-.18.52-.32.85-.42.33-.1.69-.15,1.08-.15s.76.05,1.1.15.62.24.86.42c.24.18.43.4.56.65.13.25.2.52.2.83s-.07.57-.2.82-.32.47-.56.65c-.24.18-.53.32-.86.42-.33.1-.7.15-1.1.15s-.75-.05-1.08-.15c-.33-.1-.61-.24-.85-.42-.24-.18-.42-.4-.55-.65-.13-.25-.2-.53-.2-.83s.07-.58.2-.83ZM9.68,155.31c.1.16.23.29.41.41.18.11.38.2.63.27.24.07.51.1.81.1s.57-.03.82-.09c.25-.06.46-.15.64-.27.18-.12.32-.25.42-.41.1-.16.15-.33.15-.52s-.05-.37-.15-.53c-.1-.16-.24-.3-.42-.41-.18-.11-.39-.2-.64-.27-.25-.06-.52-.09-.82-.09s-.56.03-.81.09c-.25.06-.46.15-.63.26-.17.11-.31.25-.41.41-.1.16-.15.34-.15.53s.05.37.15.52Z"/><path d="M10.55,149.13h.67c-.24-.11-.42-.26-.54-.45-.12-.18-.18-.4-.18-.63,0-.26.07-.48.2-.67.14-.19.33-.32.59-.41-.26-.11-.45-.27-.59-.46-.14-.2-.2-.43-.2-.7,0-.38.12-.67.37-.88.25-.21.61-.31,1.07-.31h2.25v.7h-2.16c-.29,0-.52.07-.69.2-.17.13-.25.31-.25.54,0,.12.02.22.07.32.05.1.11.18.2.26.09.07.19.13.32.16.12.04.26.06.4.06h2.11v.7h-2.16c-.14,0-.27.02-.38.06-.12.04-.22.09-.3.15-.08.06-.14.14-.19.23-.04.09-.07.2-.07.31s.02.22.07.32c.05.1.12.18.21.25.09.07.2.12.32.17.12.04.26.06.41.06h2.09v.7h-3.64v-.68Z"/><path d="M10.55,142.94h.67c-.24-.11-.42-.26-.54-.45-.12-.18-.18-.4-.18-.63,0-.26.07-.48.2-.67.14-.19.33-.32.59-.41-.26-.11-.45-.27-.59-.46-.14-.2-.2-.43-.2-.7,0-.38.12-.67.37-.88.25-.21.61-.31,1.07-.31h2.25v.7h-2.16c-.29,0-.52.07-.69.2-.17.13-.25.31-.25.54,0,.12.02.22.07.32.05.1.11.18.2.26.09.07.19.13.32.16.12.04.26.06.4.06h2.11v.7h-2.16c-.14,0-.27.02-.38.06-.12.04-.22.09-.3.15-.08.06-.14.14-.19.23-.04.09-.07.2-.07.31s.02.22.07.32c.05.1.12.18.21.25.09.07.2.12.32.17.12.04.26.06.41.06h2.09v.7h-3.64v-.68Z"/></g><line y2="266.31" x2="59.52" y1="40.81" x1="59.52" class="cls-1"/><line y2="266.31" x2="65.52" y1="38.43" x1="65.52" class="cls-1"/><line y2="160.42" x2="71.52" y1="151.23" x1="71.52" class="cls-1"/><line y2="108.39" x2="71.52" y1="71.31" x1="71.52" class="cls-1"/><line y2="59.98" x2="71.52" y1="37.06" x1="71.52" class="cls-1"/><line y2="157.8" x2="77.52" y1="153.88" x1="77.52" class="cls-1"/><line y2="105.9" x2="77.52" y1="73.08" x1="77.52" class="cls-1"/><line y2="58.27" x2="77.52" y1="36.4" x1="77.52" class="cls-1"/><line y2="157.8" x2="83.51" y1="153.88" x1="83.51" class="cls-1"/><line y2="105.9" x2="83.51" y1="73.02" x1="83.51" class="cls-1"/><line y2="58.34" x2="83.51" y1="36.4" x1="83.51" class="cls-1"/><line y2="160.42" x2="89.51" y1="151.23" x1="89.51" class="cls-1"/><line y2="266.31" x2="71.52" y1="204.77" x1="71.52" class="cls-1"/><line y2="266.31" x2="77.52" y1="207.19" x1="77.52" class="cls-1"/><line y2="266.31" x2="83.51" y1="207.19" x1="83.51" class="cls-1"/><line y2="266.31" x2="89.51" y1="204.77" x1="89.51" class="cls-1"/><line y2="108.39" x2="89.51" y1="70.92" x1="89.51" class="cls-1"/><line y2="60.37" x2="89.51" y1="37.06" x1="89.51" class="cls-1"/><line y2="266.31" x2="95.51" y1="38.43" x1="95.51" class="cls-1"/><line y2="266.31" x2="101.51" y1="40.81" x1="101.51" class="cls-1"/><path d="M107.5,44.76c-10.23-10.96-43.76-10.96-53.98,0v221.85h53.98V44.76Z" class="cls-1"/><line y2="275.08" x2="114.66" y1="275.08" x1="45.23" class="cls-2"/><path d="M80.61,149.99h.2c.28-.01.57-.02.84-.04.39-.02.77-.05,1.16-.09.41-.04.82-.09,1.23-.15.42-.06.83-.13,1.24-.22.32-.06.64-.14.96-.21.31-.08.62-.17.92-.27.29-.09.59-.2.87-.31.23-.1.46-.21.77-.36h0s.02,0,.03-.01l.35-.21c.15-.09.29-.19.43-.3.16-.13.31-.26.46-.4.16-.16.31-.34.44-.51.11-.15.22-.31.3-.49.1-.18.18-.36.25-.56.07-.21.12-.42.16-.64.03-.23.04-.46.05-.69,0,0,0,0,0,0s0,0,0,0v-24.26s0,0,0,0,0,0,0,0c-.01-.25-.02-.5-.07-.74-.04-.24-.11-.47-.2-.7-.07-.17-.14-.34-.24-.5-.09-.15-.19-.3-.29-.44,0,0-.02,0-.02,0,0,0,0-.02,0-.02-.2-.23-.4-.45-.62-.65-.21-.19-.46-.37-.77-.56-.27-.17-.57-.32-.86-.46-.3-.14-.61-.26-.93-.37-.33-.11-.65-.21-.98-.3-.43-.11-.87-.21-1.31-.29-.42-.08-.85-.14-1.27-.2-.34-.04-.67-.07-1-.1l-.2-.02s0,0,0,0c0,0,0,0,0,0l-.68-.05c-.21-.01-.41-.02-.61-.03l-.79-.02h-.48c-.19.02-.37.02-.55.03-.31.02-.63.04-.99.06v.03s-.01-.02-.02-.02h-.04c-.36.03-.71.07-1.07.11-.41.05-.81.11-1.2.19-.42.08-.83.17-1.23.27-.41.1-.81.22-1.2.37-.31.11-.61.23-.91.37-.28.13-.57.29-.83.45-.29.18-.53.36-.75.55-.19.17-.36.37-.53.56l-.06.07s.01.02,0,.04c0,.01-.03,0-.03,0l-.06.1c-.11.15-.21.3-.3.47-.11.21-.2.43-.27.66-.05.18-.09.37-.12.57-.02.19-.03.39-.04.58,0,0,0,0,0,0s0,0,0,0v24.26s.01,0,.01.01-.01,0-.01.01c.02.29.03.59.1.88.06.27.15.54.29.82.12.24.27.48.45.71.17.21.36.41.58.61.22.19.45.36.69.52.25.16.51.3.77.43.38.19.8.36,1.26.52.42.14.87.26,1.34.37.45.1.9.19,1.35.26.43.07.86.12,1.3.17,0,0,.01,0,.02,0l.88.08c.27.02.53.03.81.05l1.01.03h0" class="cls-2"/><path d="M80.61,197.1h.2c.28-.01.57-.02.84-.04.39-.02.77-.05,1.16-.09.41-.04.82-.09,1.23-.15.42-.06.83-.13,1.24-.22.32-.06.64-.14.96-.21.31-.08.62-.17.92-.27.29-.09.59-.2.87-.31.23-.1.46-.21.77-.36h0s.02,0,.03-.01l.35-.21c.15-.09.29-.19.43-.3.16-.13.31-.26.46-.4.16-.16.31-.34.44-.51.11-.15.22-.31.3-.49.1-.18.18-.36.25-.56.07-.21.12-.42.16-.64.03-.23.04-.46.05-.69,0,0,0,0,0,0s0,0,0,0v-24.26s0,0,0,0,0,0,0,0c-.01-.25-.02-.5-.07-.74-.04-.24-.11-.47-.2-.7-.07-.17-.14-.34-.24-.5-.09-.15-.19-.3-.29-.44,0,0-.02,0-.02,0,0,0,0-.02,0-.02-.2-.23-.4-.45-.62-.65-.21-.19-.46-.37-.77-.56-.27-.17-.57-.32-.86-.46-.3-.14-.61-.26-.93-.37-.33-.11-.65-.21-.98-.3-.43-.11-.87-.21-1.31-.29-.42-.08-.85-.14-1.27-.2-.34-.04-.67-.07-1-.1l-.2-.02s0,0,0,0c0,0,0,0,0,0l-.68-.05c-.21-.01-.41-.02-.61-.03l-.79-.02h-.48c-.19.02-.37.02-.55.03-.31.02-.63.04-.99.06v.03s-.01-.02-.02-.02h-.04c-.36.03-.71.07-1.07.11-.41.05-.81.11-1.2.19-.42.08-.83.17-1.23.27-.41.1-.81.22-1.2.37-.31.11-.61.23-.91.37-.28.13-.57.29-.83.45-.29.18-.53.36-.75.55-.19.17-.36.37-.53.56l-.06.07s.01.02,0,.04c0,.01-.03,0-.03,0l-.06.1c-.11.15-.21.3-.3.47-.11.21-.2.43-.27.66-.05.18-.09.37-.12.57-.02.19-.03.39-.04.58,0,0,0,0,0,0s0,0,0,0v24.26s.01,0,.01.01-.01,0-.01.01c.02.29.03.59.1.88.06.27.15.54.29.82.12.24.27.48.45.71.17.21.36.41.58.61.22.19.45.36.69.52.25.16.51.3.77.43.38.19.8.36,1.26.52.42.14.87.26,1.34.37.45.1.9.19,1.35.26.43.07.86.12,1.3.17,0,0,.01,0,.02,0l.88.08c.27.02.53.03.81.05l1.01.03h0" class="cls-2"/><path d="M75.46,202.91l-.25-1.93-1.06,1.63-.13-.03-.24-1.9c-.03-.29-.08-.49-.12-.58-.03-.07-.09-.12-.17-.17l.02-.09,1.22.28-.02.09c-.08-.02-.14-.02-.18,0s-.06.04-.07.07c0,.03,0,.13.02.29l.14,1.02.56-.87v-.07c-.03-.14-.06-.24-.09-.28-.03-.04-.08-.08-.16-.12l.02-.09,1.23.29-.02.09c-.1-.02-.16-.02-.19,0-.03.02-.05.04-.06.08,0,.04,0,.13.02.27l.12,1.02.51-.8c.07-.12.12-.2.13-.24.02-.07.01-.12-.01-.16s-.08-.07-.18-.1l.02-.09.72.17-.02.09c-.08,0-.15,0-.21.04s-.15.15-.27.35l-1.12,1.76-.15-.03Z" class="cls-4"/><path d="M79.06,202.89c-.32.25-.59.37-.83.36-.14,0-.26-.06-.35-.16-.09-.1-.13-.22-.12-.36,0-.19.1-.35.27-.5.17-.14.54-.32,1.09-.55v-.25c.02-.19.02-.3,0-.35-.02-.05-.05-.09-.11-.13-.05-.04-.12-.06-.19-.06-.12,0-.21.01-.29.06-.05.03-.07.07-.07.11,0,.04.02.08.07.14.06.08.09.15.09.22,0,.09-.04.16-.11.22-.07.06-.15.08-.26.08-.11,0-.2-.04-.27-.12s-.1-.15-.1-.24c0-.13.06-.25.17-.36.11-.11.25-.19.44-.24.18-.05.37-.07.57-.06.23.01.42.07.55.18.13.11.21.22.25.34.02.08.02.25.01.51l-.05.96c0,.11,0,.18,0,.21,0,.03.02.05.04.07s.04.02.06.02c.05,0,.1-.03.15-.09l.08.07c-.1.13-.19.22-.29.27s-.21.08-.33.07c-.14,0-.25-.05-.33-.12-.08-.07-.12-.17-.13-.31ZM79.07,202.7l.04-.82c-.22.11-.39.24-.5.38-.07.09-.11.19-.12.28,0,.08.02.15.08.22.04.05.1.08.18.08.09,0,.19-.04.32-.14Z" class="cls-4"/><path d="M82.27,200.67l.08.84h-.09c-.12-.24-.24-.41-.36-.49-.12-.09-.24-.13-.35-.12-.07,0-.13.03-.18.08-.05.05-.07.11-.07.17,0,.05.02.09.06.13.06.07.22.18.49.35.27.16.44.3.53.42.09.12.14.25.14.4,0,.14-.02.27-.08.41s-.15.24-.27.32c-.12.08-.26.12-.41.13-.12,0-.28-.02-.48-.09-.05-.02-.09-.02-.11-.02-.06,0-.1.05-.14.14h-.09s-.09-.88-.09-.88h.09c.09.22.21.39.35.5s.28.16.4.15c.08,0,.15-.03.2-.09.05-.05.07-.12.07-.19,0-.08-.03-.16-.09-.21-.06-.06-.18-.15-.37-.26-.28-.17-.46-.31-.54-.4-.12-.14-.19-.29-.2-.47,0-.19.05-.37.17-.53.12-.16.31-.25.56-.26.13,0,.26.02.39.08.05.02.09.04.12.03.03,0,.06,0,.08-.02.02-.01.05-.05.09-.12h.09Z" class="cls-4"/><path d="M83.85,199.61l.14.9.58-.09.04.26-.58.09.24,1.51c.02.14.04.23.06.27.02.04.05.07.08.09s.07.03.1.02c.11-.02.21-.12.28-.31l.09.04c-.09.36-.29.56-.61.61-.16.02-.29,0-.41-.07-.12-.07-.2-.16-.25-.26-.03-.06-.06-.22-.1-.48l-.21-1.32-.32.05v-.09c.18-.19.34-.38.47-.58.13-.2.23-.41.31-.64h.09Z" class="cls-4"/><path d="M87.37,200.86l-1.31.38c.11.31.26.54.47.68.16.11.32.14.48.09.1-.03.19-.08.25-.16.07-.08.13-.21.18-.38l.1.03c-.05.3-.14.53-.27.68-.13.15-.29.26-.5.32-.35.1-.66.04-.92-.18-.21-.18-.36-.43-.45-.75-.11-.4-.1-.74.05-1.04.15-.3.37-.49.65-.57.24-.07.48-.03.71.12.23.15.41.41.54.8ZM86.7,200.87c-.08-.27-.15-.46-.21-.55s-.13-.16-.21-.19c-.04-.02-.1-.02-.16,0-.09.03-.15.09-.18.19-.06.18-.05.4.03.66l.03.09.69-.2Z" class="cls-4"/><path d="M76.29,112.15l-1.1-1.61-.21,1.93-.13.03-1.08-1.58c-.16-.24-.29-.4-.38-.46-.06-.04-.13-.07-.23-.07l-.02-.09,1.22-.3.02.09c-.08.02-.14.05-.16.08-.02.03-.03.06-.03.1,0,.03.06.11.15.25l.59.85.11-1.03-.04-.06c-.08-.12-.15-.19-.2-.22-.05-.03-.11-.04-.2-.03l-.02-.09,1.23-.31.02.09c-.09.03-.15.06-.17.09-.02.03-.03.06-.02.1,0,.04.06.12.14.23l.57.85.09-.94c.01-.14.01-.23,0-.27-.02-.07-.05-.11-.09-.14-.04-.02-.11-.03-.2,0l-.02-.09.72-.18.02.09c-.08.03-.13.07-.17.13-.03.06-.06.2-.08.44l-.2,2.08-.15.04Z" class="cls-4"/><path d="M79.25,111.35c-.28.29-.54.44-.78.46-.14,0-.26-.03-.36-.11-.1-.09-.15-.2-.16-.34-.01-.19.06-.36.21-.53s.49-.39,1.02-.68l-.02-.25c-.01-.19-.03-.3-.06-.35-.02-.05-.07-.09-.12-.12-.06-.03-.12-.05-.2-.04-.12,0-.21.04-.28.1-.04.03-.06.07-.06.12,0,.04.03.08.08.13.07.07.11.14.12.21,0,.09-.02.16-.08.23-.06.07-.14.1-.25.11-.11,0-.21-.02-.29-.08-.08-.06-.12-.14-.13-.23,0-.13.03-.25.13-.37.09-.12.23-.22.4-.29.18-.07.36-.12.55-.13.23-.02.42.02.57.11.14.09.24.19.29.3.03.07.05.24.07.51l.07.96c0,.11.02.18.03.21.01.03.03.05.04.06.02.01.04.02.06.02.05,0,.09-.04.14-.11l.08.06c-.08.14-.16.24-.25.3-.09.07-.2.1-.32.11-.14,0-.25-.02-.34-.08-.08-.06-.14-.16-.17-.29ZM79.24,111.16l-.06-.82c-.2.14-.35.28-.45.43-.06.1-.09.2-.08.3,0,.08.04.15.1.21.05.04.11.06.19.06.09,0,.19-.06.3-.17Z" class="cls-4"/><path d="M81.84,108.32l-.03.91.59.02v.26s-.6-.02-.6-.02l-.05,1.53c0,.14,0,.24.01.28.01.04.03.08.07.1.03.03.06.04.09.04.11,0,.23-.08.33-.25l.08.06c-.15.33-.39.49-.71.48-.16,0-.29-.05-.39-.15-.11-.09-.17-.19-.2-.3-.02-.06-.02-.22,0-.49l.05-1.34h-.33s0-.1,0-.1c.23-.15.42-.31.59-.48.16-.17.31-.36.43-.57h.09Z" class="cls-4"/><path d="M84.93,110.74l-1.35-.19c-.03.33.02.6.15.81.1.16.24.26.41.28.11.01.2,0,.3-.05.09-.05.2-.14.32-.28l.08.07c-.17.25-.34.42-.52.51-.18.09-.37.12-.58.09-.36-.05-.62-.23-.77-.54-.12-.25-.15-.54-.11-.87.06-.41.21-.72.47-.93.26-.21.53-.3.83-.25.25.03.45.17.6.4.15.23.21.54.17.95ZM84.31,110.48c.04-.28.05-.48.04-.59-.02-.11-.05-.2-.11-.26-.03-.04-.08-.06-.14-.07-.09-.01-.17.02-.24.1-.13.14-.21.35-.25.62v.09s.7.1.7.1Z" class="cls-4"/><path d="M86.86,110.07l-.15.54c.23-.2.41-.32.55-.37.14-.05.27-.05.38-.02.1.03.16.08.2.15.04.07.04.17.01.27-.03.11-.09.19-.16.24s-.15.06-.23.04c-.09-.03-.16-.08-.21-.15s-.08-.12-.09-.13c-.01-.02-.03-.03-.05-.03-.05-.01-.1,0-.16.02-.09.04-.16.11-.23.2-.1.15-.18.32-.24.52l-.16.55-.04.14c-.03.1-.04.16-.04.19,0,.05.03.09.06.13.03.03.1.07.19.1l-.03.09-1.29-.37.03-.09c.11.02.19.01.24-.02.05-.04.11-.16.17-.37l.38-1.32c.04-.14.06-.23.06-.27,0-.05-.02-.1-.04-.13-.03-.03-.08-.06-.16-.1l.03-.09.98.28Z" class="cls-4"/><rect height="261.73" width="14.03" y="22.68" x="31.2" class="cls-2"/><rect height="262.23" width="14.03" y="22.68" x="114.66" class="cls-2"/><polygon points="31.2 21.81 128.69 21.81 128.69 22.68 128.69 22.68 31.2 22.68 31.2 21.81" class="cls-3"/><line y2="22.68" x2="37.39" y1="284.23" x1="37.39" class="cls-2"/><line y2="22.68" x2="38.94" y1="284.23" x1="38.94" class="cls-2"/><line y2="22.68" x2="120.96" y1="284.72" x1="120.96" class="cls-2"/><line y2="22.68" x2="122.5" y1="284.72" x1="122.5" class="cls-2"/><ellipse ry="6.76" rx="12.06" cy="65.66" cx="80.18" class="cls-3"/><ellipse ry="6.19" rx="11.38" cy="65.66" cx="80.18" class="cls-3"/></g></g></svg>