<svg viewBox="0 0 531.27 288" xmlns:xlink="http://www.w3.org/1999/xlink" xmlns="http://www.w3.org/2000/svg" id="Camada_2"><defs><style>.cls-1,.cls-2{fill:none;}.cls-3{fill:#12100c;}.cls-2{stroke:#12100c;stroke-linecap:round;stroke-linejoin:round;stroke-width:.3px;}</style><symbol viewBox="0 0 531.27 288" id="fundo_transparente"><rect height="288" width="531.27" x="0" class="cls-1"/></symbol></defs><g id="RePlastic"><g id="resguardo_Simple_horizontal_1600"><use xlink:href="#fundo_transparente" height="288" width="531.27"/><use xlink:href="#fundo_transparente" height="288" width="531.27"/><line y2="267.87" x2="288.42" y1="268.52" x1="288.42" class="cls-2"/><line y2="253.45" x2="288.42" y1="254.1" x1="288.42" class="cls-2"/><line y2="239.03" x2="288.42" y1="239.68" x1="288.42" class="cls-2"/><line y2="224.61" x2="288.42" y1="225.26" x1="288.42" class="cls-2"/><line y2="210.19" x2="288.42" y1="210.84" x1="288.42" class="cls-2"/><line y2="195.76" x2="288.42" y1="196.42" x1="288.42" class="cls-2"/><line y2="181.34" x2="288.42" y1="182" x1="288.42" class="cls-2"/><line y2="188.55" x2="288.42" y1="189.21" x1="288.42" class="cls-2"/><line y2="202.98" x2="288.42" y1="203.63" x1="288.42" class="cls-2"/><line y2="217.4" x2="288.42" y1="218.05" x1="288.42" class="cls-2"/><line y2="231.82" x2="288.42" y1="232.47" x1="288.42" class="cls-2"/><line y2="246.24" x2="288.42" y1="246.89" x1="288.42" class="cls-2"/><line y2="260.66" x2="288.42" y1="261.31" x1="288.42" class="cls-2"/><line y2="275.08" x2="288.42" y1="275.73" x1="288.42" class="cls-2"/><line y2="267.87" x2="208.5" y1="268.52" x1="208.5" class="cls-2"/><line y2="253.45" x2="208.5" y1="254.1" x1="208.5" class="cls-2"/><line y2="239.03" x2="208.5" y1="239.68" x1="208.5" class="cls-2"/><line y2="224.61" x2="208.5" y1="225.26" x1="208.5" class="cls-2"/><line y2="210.19" x2="208.5" y1="210.84" x1="208.5" class="cls-2"/><line y2="195.76" x2="208.5" y1="196.42" x1="208.5" class="cls-2"/><line y2="181.34" x2="208.5" y1="182" x1="208.5" class="cls-2"/><line y2="188.55" x2="208.5" y1="189.21" x1="208.5" class="cls-2"/><line y2="202.98" x2="208.5" y1="203.63" x1="208.5" class="cls-2"/><line y2="217.4" x2="208.5" y1="218.05" x1="208.5" class="cls-2"/><line y2="231.82" x2="208.5" y1="232.47" x1="208.5" class="cls-2"/><line y2="246.24" x2="208.5" y1="246.89" x1="208.5" class="cls-2"/><line y2="260.66" x2="208.5" y1="261.31" x1="208.5" class="cls-2"/><line y2="275.08" x2="208.5" y1="275.73" x1="208.5" class="cls-2"/><rect height="6.55" width="2.03" y="174.79" x="294.31" class="cls-2"/><rect height="6.55" width="91.7" y="174.79" x="202.61" class="cls-2"/><rect height="6.55" width="2.03" y="182" x="294.31" class="cls-2"/><rect height="6.55" width="91.7" y="182" x="202.61" class="cls-2"/><rect height="6.55" width="2.03" y="189.21" x="294.31" class="cls-2"/><rect height="6.56" width="2.03" y="196.42" x="294.31" class="cls-2"/><rect height="6.56" width="91.7" y="196.42" x="202.61" class="cls-2"/><rect height="6.56" width="2.03" y="203.63" x="294.31" class="cls-2"/><rect height="6.56" width="2.03" y="210.84" x="294.31" class="cls-2"/><rect height="6.56" width="91.7" y="210.84" x="202.61" class="cls-2"/><rect height="6.56" width="2.03" y="218.05" x="294.31" class="cls-2"/><rect height="6.56" width="2.03" y="225.26" x="294.31" class="cls-2"/><rect height="6.56" width="91.7" y="225.26" x="202.61" class="cls-2"/><rect height="6.56" width="2.03" y="232.47" x="294.31" class="cls-2"/><rect height="6.56" width="2.03" y="239.68" x="294.31" class="cls-2"/><rect height="6.56" width="91.7" y="239.68" x="202.61" class="cls-2"/><rect height="6.56" width="2.03" y="246.89" x="294.31" class="cls-2"/><rect height="6.56" width="2.03" y="254.1" x="294.31" class="cls-2"/><rect height="6.56" width="91.7" y="254.1" x="202.61" class="cls-2"/><rect height="6.56" width="2.03" y="261.31" x="294.31" class="cls-2"/><rect height="6.56" width="2.03" y="268.52" x="294.31" class="cls-2"/><rect height="6.56" width="91.7" y="268.52" x="202.61" class="cls-2"/><rect height="6.56" width="2.03" y="275.73" x="294.31" class="cls-2"/><rect height="6.56" width="91.7" y="275.73" x="202.61" class="cls-2"/><g id="LINE"><line y2="181.34" x2="294.31" y1="182" x1="294.31" class="cls-2"/><rect height="6.55" width="91.7" y="189.21" x="202.61" class="cls-2"/><line y2="195.76" x2="294.31" y1="196.42" x1="294.31" class="cls-2"/><rect height="6.56" width="91.7" y="203.63" x="202.61" class="cls-2"/><line y2="210.19" x2="294.31" y1="210.84" x1="294.31" class="cls-2"/><rect height="6.56" width="91.7" y="218.05" x="202.61" class="cls-2"/><line y2="224.61" x2="294.31" y1="225.26" x1="294.31" class="cls-2"/><rect height="6.56" width="91.7" y="232.47" x="202.61" class="cls-2"/><line y2="239.03" x2="294.31" y1="239.68" x1="294.31" class="cls-2"/><rect height="6.56" width="91.7" y="246.89" x="202.61" class="cls-2"/><line y2="253.45" x2="294.31" y1="254.1" x1="294.31" class="cls-2"/><line y2="275.08" x2="294.31" y1="275.73" x1="294.31" class="cls-2"/><line y2="260.66" x2="294.31" y1="261.31" x1="294.31" class="cls-2"/><rect height="6.56" width="91.7" y="261.31" x="202.61" class="cls-2"/><line y2="267.87" x2="294.31" y1="268.52" x1="294.31" class="cls-2"/><line y2="246.24" x2="294.31" y1="246.89" x1="294.31" class="cls-2"/><line y2="231.82" x2="294.31" y1="232.47" x1="294.31" class="cls-2"/><line y2="217.4" x2="294.31" y1="218.05" x1="294.31" class="cls-2"/><line y2="202.98" x2="294.31" y1="203.63" x1="294.31" class="cls-2"/><line y2="188.55" x2="294.31" y1="189.21" x1="294.31" class="cls-2"/></g><polygon points="160.08 174.79 160.08 181.42 158.11 181.42 158.11 176.1 152.22 176.1 152.22 181.42 97.48 181.42 97.48 176.1 91.58 176.1 91.58 181.42 36.84 181.42 36.84 176.1 30.95 176.1 30.95 181.42 28.98 181.42 28.98 174.79 160.08 174.79" class="cls-2"/><rect height="6.63" width="1.97" y="181.96" x="28.98" class="cls-2"/><rect height="6.63" width="54.74" y="181.96" x="36.84" class="cls-2"/><rect height="6.63" width="54.74" y="181.96" x="97.48" class="cls-2"/><rect height="6.63" width="1.97" y="181.96" x="158.11" class="cls-2"/><rect height="6.64" width="1.97" y="189.24" x="28.98" class="cls-2"/><rect height="6.64" width="54.74" y="189.24" x="36.84" class="cls-2"/><rect height="6.64" width="54.74" y="189.24" x="97.48" class="cls-2"/><rect height="6.64" width="1.97" y="189.24" x="158.11" class="cls-2"/><rect height="6.63" width="1.97" y="196.41" x="28.98" class="cls-2"/><rect height="6.63" width="54.74" y="196.41" x="36.84" class="cls-2"/><rect height="6.63" width="54.74" y="196.41" x="97.48" class="cls-2"/><rect height="6.63" width="1.97" y="196.41" x="158.11" class="cls-2"/><rect height="6.63" width="1.97" y="203.62" x="28.98" class="cls-2"/><rect height="6.63" width="54.74" y="203.62" x="36.84" class="cls-2"/><rect height="6.63" width="54.74" y="203.62" x="97.48" class="cls-2"/><rect height="6.63" width="1.97" y="203.62" x="158.11" class="cls-2"/><rect height="6.63" width="1.97" y="210.79" x="28.98" class="cls-2"/><rect height="6.63" width="54.74" y="210.79" x="36.84" class="cls-2"/><rect height="6.63" width="54.74" y="210.79" x="97.48" class="cls-2"/><rect height="6.63" width="1.97" y="210.79" x="158.11" class="cls-2"/><rect height="6.64" width="1.97" y="218.07" x="28.98" class="cls-2"/><rect height="6.64" width="54.74" y="218.07" x="36.84" class="cls-2"/><rect height="6.64" width="54.74" y="218.07" x="97.48" class="cls-2"/><rect height="6.64" width="1.97" y="218.07" x="158.11" class="cls-2"/><rect height="6.63" width="1.97" y="225.24" x="28.98" class="cls-2"/><rect height="6.63" width="54.74" y="225.24" x="36.84" class="cls-2"/><rect height="6.63" width="54.74" y="225.24" x="97.48" class="cls-2"/><rect height="6.63" width="1.97" y="225.24" x="158.11" class="cls-2"/><rect height="6.63" width="1.97" y="232.41" x="28.98" class="cls-2"/><rect height="6.63" width="54.74" y="232.41" x="36.84" class="cls-2"/><rect height="6.63" width="54.74" y="232.41" x="97.48" class="cls-2"/><rect height="6.63" width="1.97" y="232.41" x="158.11" class="cls-2"/><rect height="6.64" width="1.97" y="239.57" x="28.98" class="cls-2"/><rect height="6.64" width="54.74" y="239.57" x="36.84" class="cls-2"/><rect height="6.64" width="54.74" y="239.57" x="97.48" class="cls-2"/><rect height="6.64" width="1.97" y="239.57" x="158.11" class="cls-2"/><rect height="6.63" width="1.97" y="246.86" x="28.98" class="cls-2"/><rect height="6.63" width="54.74" y="246.86" x="36.84" class="cls-2"/><rect height="6.63" width="54.74" y="246.86" x="97.48" class="cls-2"/><rect height="6.63" width="1.97" y="246.86" x="158.11" class="cls-2"/><rect height="6.63" width="1.97" y="254.03" x="28.98" class="cls-2"/><rect height="6.63" width="54.74" y="254.03" x="36.84" class="cls-2"/><rect height="6.63" width="54.74" y="254.03" x="97.48" class="cls-2"/><rect height="6.63" width="1.97" y="254.03" x="158.11" class="cls-2"/><rect height="6.63" width="1.97" y="261.24" x="28.98" class="cls-2"/><rect height="6.63" width="54.74" y="261.24" x="36.84" class="cls-2"/><rect height="6.63" width="54.74" y="261.24" x="97.48" class="cls-2"/><rect height="6.63" width="1.97" y="261.24" x="158.11" class="cls-2"/><rect height="6.64" width="1.97" y="268.4" x="28.98" class="cls-2"/><rect height="6.64" width="54.74" y="268.4" x="36.84" class="cls-2"/><rect height="6.64" width="54.74" y="268.4" x="97.48" class="cls-2"/><rect height="6.64" width="1.97" y="268.4" x="158.11" class="cls-2"/><rect height="6.63" width="1.97" y="275.69" x="28.98" class="cls-2"/><rect height="6.63" width="54.74" y="275.69" x="36.84" class="cls-2"/><rect height="6.63" width="54.74" y="275.69" x="97.48" class="cls-2"/><rect height="6.63" width="1.97" y="275.69" x="158.11" class="cls-2"/><g id="LINE-2"><line y2="174.83" x2="30.95" y1="176.1" x1="30.95" class="cls-2"/></g><g id="LINE-3"><line y2="174.83" x2="158.11" y1="176.1" x1="158.11" class="cls-2"/></g><rect height="106.22" width="5.89" y="176.1" x="152.22" class="cls-2"/><rect height="106.22" width="5.89" y="176.1" x="30.95" class="cls-2"/><rect height="106.22" width="5.9" y="176.1" x="91.58" class="cls-2"/><rect height="1.96" width="131.1" y="38.54" x="28.99" class="cls-2"/><rect transform="translate(-56.4 116.34) rotate(-90)" height="1.97" width="91.74" y="85.39" x="-15.9" class="cls-2"/><rect transform="translate(72.73 245.47) rotate(-90)" height="1.97" width="91.74" y="85.39" x="113.23" class="cls-2"/><rect height="5.96" width="5.9" y="40.5" x="152.22" class="cls-2"/><rect height="5.96" width="5.9" y="40.5" x="30.95" class="cls-2"/><rect height="5.96" width="5.9" y="126.32" x="30.95" class="cls-2"/><rect height="5.96" width="5.9" y="40.54" x="91.58" class="cls-2"/><rect height="5.96" width="5.9" y="126.32" x="152.22" class="cls-2"/><g id="MTEXT"><path d="M4.77,241.73h5.29v.72h-4.54l.64,1.3h-.73l-.67-1.36v-.67Z"/><path d="M9.93,239.76c-.12.24-.29.44-.51.61-.22.17-.5.3-.82.39s-.69.14-1.09.14-.8-.05-1.15-.15c-.35-.1-.64-.24-.89-.43-.25-.18-.43-.41-.56-.67-.13-.26-.2-.55-.2-.88,0-.37.09-.7.27-.97.18-.27.43-.47.76-.59l.29.64c-.21.07-.37.18-.48.34-.11.16-.17.35-.17.56,0,.2.05.38.14.55s.23.31.4.44c.17.13.37.22.61.29s.49.1.77.1h.17c.06,0,.1,0,.15,0-.25-.08-.45-.23-.59-.45-.14-.22-.21-.48-.21-.79,0-.24.04-.46.12-.65.08-.2.19-.36.34-.5.15-.14.32-.25.52-.33.2-.08.42-.12.66-.12s.47.04.68.13c.21.08.38.2.53.35.14.15.26.32.34.53s.12.43.12.68c0,.3-.06.57-.18.81ZM9.36,238.59c-.05-.12-.12-.22-.21-.3-.09-.08-.19-.15-.31-.2-.12-.05-.26-.07-.41-.07s-.29.02-.41.07c-.12.05-.23.12-.32.2s-.16.19-.21.31-.07.25-.07.4.02.27.07.39.12.22.2.31c.09.09.19.15.31.2.12.05.25.07.4.07s.28-.03.41-.08.24-.12.34-.21.17-.2.22-.32c.05-.12.08-.26.08-.4s-.03-.26-.08-.38Z"/><path d="M4.91,233.79c.13-.25.32-.47.55-.65.23-.18.52-.32.85-.42.33-.1.69-.15,1.08-.15s.76.05,1.1.15.62.24.86.42c.24.18.43.4.56.65.13.25.2.52.2.83s-.07.57-.2.82-.32.47-.56.65c-.24.18-.53.32-.86.42-.33.1-.7.15-1.1.15s-.75-.05-1.08-.15c-.33-.1-.61-.24-.85-.42-.24-.18-.42-.4-.55-.65-.13-.25-.2-.53-.2-.83s.07-.58.2-.83ZM5.54,235.14c.1.16.23.29.41.41.18.11.38.2.63.27.24.07.51.1.81.1s.57-.03.82-.09c.25-.06.46-.15.64-.27.18-.12.32-.25.42-.41.1-.16.15-.33.15-.52s-.05-.37-.15-.53c-.1-.16-.24-.3-.42-.41-.18-.11-.39-.2-.64-.27-.25-.06-.52-.09-.82-.09s-.56.03-.81.09c-.25.06-.46.15-.63.26-.17.11-.31.25-.41.41-.1.16-.15.34-.15.53s.05.37.15.52Z"/><path d="M4.91,229.15c.13-.25.32-.47.55-.65.23-.18.52-.32.85-.42.33-.1.69-.15,1.08-.15s.76.05,1.1.15.62.24.86.42c.24.18.43.4.56.65.13.25.2.52.2.83s-.07.57-.2.82-.32.47-.56.65c-.24.18-.53.32-.86.42-.33.1-.7.15-1.1.15s-.75-.05-1.08-.15c-.33-.1-.61-.24-.85-.42-.24-.18-.42-.4-.55-.65-.13-.25-.2-.53-.2-.83s.07-.58.2-.83ZM5.54,230.51c.1.16.23.29.41.41.18.11.38.2.63.27.24.07.51.1.81.1s.57-.03.82-.09c.25-.06.46-.15.64-.27.18-.12.32-.25.42-.41.1-.16.15-.33.15-.52s-.05-.37-.15-.53c-.1-.16-.24-.3-.42-.41-.18-.11-.39-.2-.64-.27-.25-.06-.52-.09-.82-.09s-.56.03-.81.09c-.25.06-.46.15-.63.26-.17.11-.31.25-.41.41-.1.16-.15.34-.15.53s.05.37.15.52Z"/><path d="M6.41,224.33h.67c-.24-.11-.42-.26-.54-.45-.12-.18-.18-.4-.18-.63,0-.26.07-.48.2-.67.14-.19.33-.32.59-.41-.26-.11-.45-.27-.59-.46-.14-.2-.2-.43-.2-.7,0-.38.12-.67.37-.88.25-.21.61-.31,1.07-.31h2.25v.7h-2.16c-.29,0-.52.07-.69.2-.17.13-.25.31-.25.54,0,.12.02.22.07.32.05.1.11.18.2.26.09.07.19.13.32.16.12.04.26.06.4.06h2.11v.7h-2.16c-.14,0-.27.02-.38.06-.12.04-.22.09-.3.15-.08.06-.14.14-.19.23-.04.09-.07.2-.07.31s.02.22.07.32c.05.1.12.18.21.25.09.07.2.12.32.17.12.04.26.06.41.06h2.09v.7h-3.64v-.68Z"/><path d="M6.41,218.14h.67c-.24-.11-.42-.26-.54-.45-.12-.18-.18-.4-.18-.63,0-.26.07-.48.2-.67.14-.19.33-.32.59-.41-.26-.11-.45-.27-.59-.46-.14-.2-.2-.43-.2-.7,0-.38.12-.67.37-.88.25-.21.61-.31,1.07-.31h2.25v.7h-2.16c-.29,0-.52.07-.69.2-.17.13-.25.31-.25.54,0,.12.02.22.07.32.05.1.11.18.2.26.09.07.19.13.32.16.12.04.26.06.4.06h2.11v.7h-2.16c-.14,0-.27.02-.38.06-.12.04-.22.09-.3.15-.08.06-.14.14-.19.23-.04.09-.07.2-.07.31s.02.22.07.32c.05.1.12.18.21.25.09.07.2.12.32.17.12.04.26.06.41.06h2.09v.7h-3.64v-.68Z"/></g><line y2="174.98" x2="14.81" y1="282.18" x1="14.81" class="cls-2"/><rect height=".3" width="1.95" y="282.03" x="13.84" class="cls-3"/><rect height=".3" width="1.95" y="174.83" x="13.84" class="cls-3"/></g></g></svg>