<svg viewBox="0 0 531.26 288" xmlns="http://www.w3.org/2000/svg"><defs><style>.cls-1 {
        fill: #12100a;
      }

      .cls-2 {
        stroke: #000;
        stroke-miterlimit: 10;
        stroke-width: .28px;
      }

      .cls-2, .cls-3 {
        fill: none;
      }

      .cls-3 {
        stroke: #12100a;
        stroke-linecap: round;
        stroke-linejoin: round;
        stroke-width: .3px;
      }</style></defs><g id="bases"><rect height="358.35" width="589.11" y="-33.95" x="-25.44" class="cls-2"/></g><g id="Urban"><g id="Plaza"><g id="mesa_de_piquenique"><g><g id="LINE"><g><line y2="20.2" x2="16.53" y1="192.27" x1="16.53" class="cls-3"/><rect height=".3" width="1.95" y="192.12" x="15.55" class="cls-1"/><rect height=".3" width="1.95" y="20.05" x="15.55" class="cls-1"/></g></g><g id="MTEXT"><g><path d="M7.32,119.38h5.29v.72h-4.54l.64,1.3h-.73l-.67-1.36v-.67Z"/><path d="M7.44,116.01c.12-.24.29-.44.51-.61.22-.17.5-.3.82-.39.32-.09.69-.14,1.09-.14s.8.05,1.15.15c.35.1.64.24.89.43s.43.41.56.67c.13.26.2.55.2.88,0,.37-.09.7-.27.97-.18.27-.43.47-.76.59l-.29-.64c.21-.07.37-.18.48-.34.11-.16.17-.35.17-.56,0-.2-.05-.38-.14-.55-.09-.17-.23-.31-.4-.44-.17-.13-.37-.22-.61-.29-.24-.07-.49-.1-.77-.1h-.17c-.06,0-.1,0-.15,0,.25.08.45.23.59.45.14.22.21.48.21.79,0,.24-.04.46-.12.65-.08.2-.19.36-.34.5-.14.14-.32.25-.52.33-.2.08-.42.12-.66.12s-.47-.04-.68-.13c-.21-.08-.38-.2-.52-.35-.14-.15-.26-.32-.34-.53-.08-.21-.12-.43-.12-.68,0-.3.06-.57.18-.81ZM8.01,117.18c.05.12.12.22.21.3.09.08.19.15.31.2.12.05.26.07.41.07s.29-.02.41-.07c.12-.05.23-.12.32-.2.09-.09.16-.19.21-.31.05-.12.07-.25.07-.4s-.02-.27-.07-.39c-.05-.12-.12-.22-.2-.31-.09-.09-.19-.15-.31-.2-.12-.05-.25-.07-.4-.07s-.28.03-.41.08c-.13.05-.24.13-.34.21-.1.09-.17.2-.22.32s-.08.26-.08.4.03.26.08.38Z"/><path d="M7.46,111.44c.13-.25.32-.47.55-.65.23-.18.52-.32.85-.42.33-.1.69-.15,1.08-.15s.76.05,1.1.15.62.24.86.42c.24.18.43.4.56.65.13.25.2.52.2.83s-.07.57-.2.82-.32.47-.56.65c-.24.18-.53.32-.86.42-.33.1-.7.15-1.1.15s-.75-.05-1.08-.15c-.33-.1-.61-.24-.85-.42-.24-.18-.42-.4-.55-.65-.13-.25-.2-.53-.2-.83s.07-.58.2-.83ZM8.09,112.8c.1.16.23.29.41.41.18.11.38.2.63.27.24.07.51.1.81.1s.57-.03.82-.09c.25-.06.46-.15.64-.27.18-.12.32-.25.42-.41.1-.16.15-.33.15-.52s-.05-.37-.15-.53c-.1-.16-.24-.3-.42-.41-.18-.11-.39-.2-.64-.27-.25-.06-.52-.09-.82-.09s-.56.03-.81.09c-.25.06-.46.15-.63.26-.17.11-.31.25-.41.41-.1.16-.15.34-.15.53s.05.37.15.52Z"/><path d="M7.46,106.81c.13-.25.32-.47.55-.65.23-.18.52-.32.85-.42.33-.1.69-.15,1.08-.15s.76.05,1.1.15.62.24.86.42c.24.18.43.4.56.65.13.25.2.52.2.83s-.07.57-.2.82-.32.47-.56.65c-.24.18-.53.32-.86.42-.33.1-.7.15-1.1.15s-.75-.05-1.08-.15c-.33-.1-.61-.24-.85-.42-.24-.18-.42-.4-.55-.65-.13-.25-.2-.53-.2-.83s.07-.58.2-.83ZM8.09,108.16c.1.16.23.29.41.41.18.11.38.2.63.27.24.07.51.1.81.1s.57-.03.82-.09c.25-.06.46-.15.64-.27.18-.12.32-.25.42-.41.1-.16.15-.33.15-.52s-.05-.37-.15-.53c-.1-.16-.24-.3-.42-.41-.18-.11-.39-.2-.64-.27-.25-.06-.52-.09-.82-.09s-.56.03-.81.09c-.25.06-.46.15-.63.26-.17.11-.31.25-.41.41-.1.16-.15.34-.15.53s.05.37.15.52Z"/><path d="M8.96,101.98h.67c-.24-.11-.42-.26-.54-.45-.12-.18-.18-.4-.18-.63,0-.26.07-.48.2-.67.14-.19.33-.32.59-.41-.26-.11-.45-.27-.59-.46-.14-.2-.2-.43-.2-.7,0-.38.12-.67.37-.88.25-.21.61-.31,1.07-.31h2.25v.7h-2.16c-.29,0-.52.07-.69.2-.17.13-.25.31-.25.54,0,.12.02.22.07.32.05.1.11.18.2.26.09.07.19.13.32.16.12.04.26.06.4.06h2.11v.7h-2.16c-.14,0-.27.02-.38.06-.12.04-.22.09-.3.15-.08.06-.14.14-.19.23-.04.09-.07.2-.07.31s.02.22.07.32c.05.1.12.18.21.25.09.07.2.12.32.17.12.04.26.06.41.06h2.09v.7h-3.64v-.68Z"/><path d="M8.96,95.8h.67c-.24-.11-.42-.26-.54-.45-.12-.18-.18-.4-.18-.63,0-.26.07-.48.2-.67.14-.19.33-.32.59-.41-.26-.11-.45-.27-.59-.46-.14-.2-.2-.43-.2-.7,0-.38.12-.67.37-.88.25-.21.61-.31,1.07-.31h2.25v.7h-2.16c-.29,0-.52.07-.69.2-.17.13-.25.31-.25.54,0,.12.02.22.07.32.05.1.11.18.2.26.09.07.19.13.32.16.12.04.26.06.4.06h2.11v.7h-2.16c-.14,0-.27.02-.38.06-.12.04-.22.09-.3.15-.08.06-.14.14-.19.23-.04.09-.07.2-.07.31s.02.22.07.32c.05.1.12.18.21.25.09.07.2.12.32.17.12.04.26.06.41.06h2.09v.7h-3.64v-.68Z"/></g></g><g id="LINE-2"><g><line y2="283.23" x2="16.53" y1="215.03" x1="16.53" class="cls-3"/><rect height=".3" width="1.95" y="214.88" x="15.55" class="cls-1"/><rect height=".3" width="1.95" y="283.08" x="15.55" class="cls-1"/></g></g><g id="MTEXT-2"><g><path d="M12.6,261.2l-4.62-1.78v2.69h-.67v-3.5h.59l4.7,1.77v.83Z"/><path d="M7.32,255.13h.65v1.92l1.54.25c-.09-.1-.16-.22-.21-.36-.05-.14-.07-.29-.07-.46,0-.25.04-.47.13-.68.08-.21.2-.38.35-.53.15-.15.33-.27.54-.35.21-.08.44-.12.69-.12s.48.04.7.13c.21.09.4.21.55.36.15.16.27.34.36.56.08.21.13.45.13.71,0,.2-.03.39-.08.58s-.13.35-.23.5c-.1.15-.22.28-.36.39-.14.11-.3.19-.48.24l-.31-.63c.24-.07.43-.19.56-.39.14-.19.21-.42.21-.67,0-.15-.03-.29-.08-.41-.05-.13-.12-.23-.21-.33-.09-.09-.2-.16-.33-.21-.13-.05-.27-.08-.43-.08s-.3.03-.44.08c-.13.05-.25.13-.34.22s-.17.21-.22.34c-.05.13-.08.28-.08.44,0,.18.04.35.1.49.07.14.17.26.31.36l-.15.62-2.79-.47v-2.52Z"/><path d="M7.32,251.15h.65v1.92l1.54.25c-.09-.1-.16-.22-.21-.36-.05-.14-.07-.29-.07-.46,0-.25.04-.47.13-.68.08-.21.2-.38.35-.53.15-.15.33-.27.54-.35.21-.08.44-.12.69-.12s.48.04.7.13c.21.09.4.21.55.36.15.16.27.34.36.56.08.21.13.45.13.71,0,.2-.03.39-.08.58s-.13.35-.23.5c-.1.15-.22.28-.36.39-.14.11-.3.19-.48.24l-.31-.63c.24-.07.43-.19.56-.39.14-.19.21-.42.21-.67,0-.15-.03-.29-.08-.41-.05-.13-.12-.23-.21-.33-.09-.09-.2-.16-.33-.21-.13-.05-.27-.08-.43-.08s-.3.03-.44.08c-.13.05-.25.13-.34.22s-.17.21-.22.34c-.05.13-.08.28-.08.44,0,.18.04.35.1.49.07.14.17.26.31.36l-.15.62-2.79-.47v-2.52Z"/><path d="M8.96,247.21h.67c-.24-.11-.42-.26-.54-.45-.12-.18-.18-.4-.18-.63,0-.26.07-.48.2-.67.14-.19.33-.32.59-.41-.26-.11-.45-.27-.59-.46-.14-.2-.2-.43-.2-.7,0-.38.12-.67.37-.88.25-.21.61-.31,1.07-.31h2.25v.7h-2.16c-.29,0-.52.07-.69.2-.17.13-.25.31-.25.54,0,.12.02.22.07.32.05.1.11.18.2.26.09.07.19.13.32.16.12.04.26.06.4.06h2.11v.7h-2.16c-.14,0-.27.02-.38.06-.12.04-.22.09-.3.15-.08.06-.14.14-.19.23-.04.09-.07.2-.07.31s.02.22.07.32c.05.1.12.18.21.25.09.07.2.12.32.17.12.04.26.06.41.06h2.09v.7h-3.64v-.68Z"/><path d="M8.96,241.03h.67c-.24-.11-.42-.26-.54-.45-.12-.18-.18-.4-.18-.63,0-.26.07-.48.2-.67.14-.19.33-.32.59-.41-.26-.11-.45-.27-.59-.46-.14-.2-.2-.43-.2-.7,0-.38.12-.67.37-.88.25-.21.61-.31,1.07-.31h2.25v.7h-2.16c-.29,0-.52.07-.69.2-.17.13-.25.31-.25.54,0,.12.02.22.07.32.05.1.11.18.2.26.09.07.19.13.32.16.12.04.26.06.4.06h2.11v.7h-2.16c-.14,0-.27.02-.38.06-.12.04-.22.09-.3.15-.08.06-.14.14-.19.23-.04.09-.07.2-.07.31s.02.22.07.32c.05.1.12.18.21.25.09.07.2.12.32.17.12.04.26.06.41.06h2.09v.7h-3.64v-.68Z"/></g></g><g id="LINE-3"><g><line y2="11.89" x2="40.04" y1="11.89" x1="172.38" class="cls-3"/><rect height="1.95" width=".3" y="10.91" x="172.23" class="cls-1"/><rect height="1.95" width=".3" y="10.91" x="39.89" class="cls-1"/></g></g><g id="MTEXT-3"><g><path d="M93.5,2.68v5.29h-.72V3.43l-1.3.64v-.73l1.36-.67h.67Z"/><path d="M97.39,2.68v5.29h-.73V3.6s-.04.08-.06.1c-.02.03-.04.06-.07.09l-1.35,2.02s-.04.06-.05.08-.03.05-.06.08h3.2v.64h-3.98v-.59l2.22-3.35h.87Z"/><path d="M99.84,7.84c-.24-.12-.44-.29-.61-.51-.17-.22-.3-.5-.39-.82s-.14-.69-.14-1.09.05-.8.15-1.15c.1-.35.24-.64.43-.89.18-.25.41-.43.67-.56.26-.13.55-.2.88-.2.37,0,.7.09.97.27.27.18.47.43.59.76l-.64.29c-.07-.21-.18-.37-.34-.48-.16-.11-.35-.17-.56-.17-.2,0-.38.05-.55.14s-.31.23-.44.4c-.13.17-.22.37-.29.61s-.1.49-.1.77v.17c0,.06,0,.1,0,.15.08-.25.23-.45.45-.59.22-.14.48-.21.79-.21.24,0,.46.04.65.12.2.08.36.19.5.34.14.15.25.32.33.52.08.2.12.42.12.66s-.04.47-.13.68c-.08.21-.2.38-.35.53-.15.14-.32.26-.53.34s-.43.12-.68.12c-.3,0-.57-.06-.81-.18ZM101.01,7.27c.12-.05.22-.12.3-.21.08-.09.15-.19.2-.31.05-.12.07-.26.07-.41s-.02-.29-.07-.41c-.05-.12-.12-.23-.2-.32s-.19-.16-.31-.21-.25-.07-.4-.07-.27.02-.39.07-.22.12-.31.2c-.09.09-.15.19-.2.31-.05.12-.07.25-.07.4s.03.28.08.41.12.24.21.34.2.17.32.22c.12.05.26.08.4.08s.26-.03.38-.08Z"/><path d="M105.29,2.74c.21.08.39.19.54.33.15.14.27.31.35.51.08.2.13.42.13.67,0,.14-.02.28-.05.42-.03.14-.08.28-.15.41-.07.14-.16.27-.27.42-.11.14-.24.29-.39.45l-1.31,1.35h2.29v.67h-3.32v-.59l1.79-1.85c.12-.12.22-.23.3-.33.08-.1.15-.21.2-.3.05-.1.09-.19.11-.29.02-.09.03-.19.03-.29,0-.15-.02-.28-.07-.4-.04-.12-.11-.23-.2-.32-.09-.09-.19-.16-.3-.21-.11-.05-.24-.07-.39-.07-.25,0-.47.08-.65.23-.18.15-.31.36-.39.63l-.67-.23c.12-.42.32-.74.62-.97s.66-.34,1.1-.34c.25,0,.48.04.69.12Z"/><path d="M110.03,4.32v.67c.11-.24.26-.42.45-.54.18-.12.4-.18.63-.18.26,0,.48.07.67.2.19.14.32.33.41.59.11-.26.27-.45.46-.59.2-.14.43-.2.7-.2.38,0,.67.12.88.37.21.25.31.61.31,1.07v2.25h-.7v-2.16c0-.29-.07-.52-.2-.69-.13-.17-.31-.25-.54-.25-.12,0-.22.02-.32.07-.1.05-.18.11-.26.2-.07.09-.13.19-.16.32-.04.12-.06.26-.06.4v2.11h-.7v-2.16c0-.14-.02-.27-.06-.38-.04-.12-.09-.22-.15-.3-.06-.08-.14-.14-.23-.19-.09-.04-.2-.07-.31-.07s-.22.02-.32.07c-.1.05-.18.12-.25.21-.07.09-.12.2-.17.32-.04.12-.06.26-.06.41v2.09h-.7v-3.64h.68Z"/><path d="M116.21,4.32v.67c.11-.24.26-.42.45-.54.18-.12.4-.18.63-.18.26,0,.48.07.67.2.19.14.32.33.41.59.11-.26.27-.45.46-.59.2-.14.43-.2.7-.2.38,0,.67.12.88.37.21.25.31.61.31,1.07v2.25h-.7v-2.16c0-.29-.07-.52-.2-.69-.13-.17-.31-.25-.54-.25-.12,0-.22.02-.32.07-.1.05-.18.11-.26.2-.07.09-.13.19-.16.32-.04.12-.06.26-.06.4v2.11h-.7v-2.16c0-.14-.02-.27-.06-.38-.04-.12-.09-.22-.15-.3-.06-.08-.14-.14-.23-.19-.09-.04-.2-.07-.31-.07s-.22.02-.32.07c-.1.05-.18.12-.25.21-.07.09-.12.2-.17.32-.04.12-.06.26-.06.41v2.09h-.7v-3.64h.68Z"/></g></g><g><path d="M75.13,228.35l.69-.12c.51-.09.86-.55.77-1.03l-.46-3.21c-.01-.08-.02-.15-.02-.23,0-.74.64-1.34,1.42-1.34h55.85c.08,0,.17,0,.25.02.77.13,1.29.82,1.15,1.55l-.44,3.2c-.06.55.22.98.75,1.03l.6.04" class="cls-3"/><path d="M84.58,281.21l-11.02-60.76c-.01-.05-.02-.1-.02-.16,0-.5.46-.9,1.04-.9h61.44c.06,0,.12,0,.18.01.56.09.94.56.84,1.05l-10.56,60.79c-.2.98.56,1.92,1.68,2.09.12.02.24.03.36.03l35.27-.13c1.01,0,1.87-.63,2.05-1.49l5.96-33.92c.2-.98-.41-2.02-1.54-2.19-.12-.02-.24-.03-.36-.03h-22.76v.91l22.6.02c.06,0,.12,0,.18.01.56.09.94.56.84,1.05l-5.95,33.99c-.09.43-.52.75-1.02.75l-35.27.13c-.06,0-.12,0-.18-.01-.56-.09-.94-.56-.84-1.05l10.56-60.79c.2-.98-.56-1.92-1.68-2.09-.12-.02-.24-.03-.36-.03h-61.44" class="cls-3"/><path d="M74.58,218.48c-1.15,0-2.08.81-2.08,1.81,0,.11.01.21.03.31l11.02,60.76" class="cls-3"/><g id="LINE-4"><path d="M62.74,246.45v1.55c0,.4-.17.79-.47,1.08-.3.29-.71.45-1.14.45h-17.43c-.18,0-.37.04-.52.14-.32.2-.47.58-.4.94l.02.1.05.3.09.48.12.64c.05.26.1.53.14.79l.17.93c.06.35.13.7.19,1.05.07.39.14.77.21,1.16l.23,1.25.24,1.32c.08.46.17.92.25,1.39.09.48.17.96.26,1.43s.18.98.27,1.47l.27,1.48c.09.5.18.99.27,1.49s.18.98.27,1.48.18.97.26,1.45c.09.47.17.94.26,1.41s.16.9.25,1.36l.23,1.29c.07.4.15.8.22,1.2.07.37.13.73.2,1.1l.18.99.16.86.13.72c.06.33.11.66.17.99.07.33.23.65.53.82.3.18.66.21,1.01.21.34,0,.7,0,1.04,0,.16,0,.3.02.45.09.13.07.25.17.35.28.27.31.23.72.23,1.1,0,.32,0,.65,0,.99" class="cls-3"/></g><g id="LINE-5"><path d="M148.16,246.52v1.49c0,.4.17.79.47,1.08.3.29.71.45,1.14.45h17.43c.18,0,.37.04.52.14.32.2.47.58.4.94l-.02.1-.05.3-.09.48-.12.64-.14.79-.17.93c-.06.35-.13.7-.19,1.05l-.21,1.16-.23,1.25c-.08.44-.16.88-.24,1.32s-.17.92-.25,1.39-.17.96-.26,1.43l-.27,1.47-.27,1.48c-.09.5-.18.99-.27,1.49-.09.49-.18.98-.27,1.48l-.26,1.45-.26,1.41c-.08.45-.16.9-.25,1.36l-.23,1.29-.22,1.2-.2,1.1-.18.99-.16.86-.13.72c-.06.33-.11.66-.17.99-.07.33-.23.65-.53.82-.3.18-.66.21-1.01.21-.34,0-.7,0-1.04,0-.16,0-.3.02-.45.09-.13.07-.25.17-.35.28-.27.31-.23.72-.23,1.1,0,.32,0,.65,0,.99" class="cls-3"/></g><rect height="3.6" width="7.22" y="241.98" x="162.52" class="cls-3"/><rect height="3.6" width="7.22" y="241.98" x="154.84" class="cls-3"/><rect height="3.6" width="7.22" y="241.98" x="147.16" class="cls-3"/><path d="M84.57,281.12c.2.98-.56,1.92-1.68,2.09-.12.02-.24.03-.36.03l-35.27-.13c-1.01,0-1.87-.63-2.05-1.49l-5.96-33.92c-.2-.98.41-2.02,1.54-2.19.12-.02.24-.03.36-.03h22.76v.91l-22.6.02c-.06,0-.12,0-.18.01-.56.09-.94.56-.84,1.05l5.95,33.99c.09.43.52.75,1.02.75l35.27.13c.06,0,.12,0,.18-.01.56-.09.94-.56.84-1.05" class="cls-3"/><rect transform="translate(89.87 487.34) rotate(180)" height="3.6" width="7.22" y="241.87" x="41.32" class="cls-3"/><rect transform="translate(105.22 487.34) rotate(180)" height="3.6" width="7.22" y="241.87" x="49" class="cls-3"/><rect transform="translate(120.57 487.34) rotate(180)" height="3.6" width="7.22" y="241.87" x="56.67" class="cls-3"/><g><rect height="3.6" width="7.3" y="214.86" x="89.98" class="cls-3"/><rect height="3.6" width="7.3" y="214.86" x="97.73" class="cls-3"/><rect height="3.6" width="7.3" y="214.86" x="105.49" class="cls-3"/><rect height="3.6" width="7.3" y="214.86" x="113.24" class="cls-3"/><rect height="3.6" width="7.3" y="214.86" x="121" class="cls-3"/><rect height="3.6" width="7.3" y="214.86" x="128.75" class="cls-3"/><rect height="3.6" width="7.3" y="214.86" x="82.22" class="cls-3"/><rect height="3.6" width="7.3" y="214.86" x="74.47" class="cls-3"/></g><circle r=".64" cy="220.8" cx="91.15" class="cls-3"/><circle r=".64" cy="220.8" cx="119.68" class="cls-3"/><circle r=".64" cy="247.9" cx="47.69" class="cls-3"/><circle r=".64" cy="247.9" cx="56.77" class="cls-3"/><circle r=".64" cy="247.9" cx="154.15" class="cls-3"/><circle r=".64" cy="247.9" cx="163.23" class="cls-3"/></g><g><rect height="3.97" width="160.74" y="245.63" x="220.81" class="cls-3"/><rect height="3.97" width=".03" y="245.63" x="387.44" class="cls-3"/><rect height="3.9" width="160.74" y="218.49" x="220.81" class="cls-3"/><rect height="23.52" width="5.89" y="218.49" x="214.92" class="cls-3"/><rect height="3.62" width="172.52" y="214.87" x="214.92" class="cls-3"/><rect height="37.73" width="5.89" y="245.63" x="214.92" class="cls-3"/><rect height="3.62" width="172.52" y="242.01" x="214.92" class="cls-3"/><rect height="23.52" width="5.89" y="218.49" x="381.55" class="cls-3"/><rect height="37.73" width="5.89" y="245.63" x="381.55" class="cls-3"/></g><rect height="172.37" width="7.27" y="19.45" x="48.99" class="cls-3"/><rect height="172.37" width="7.27" y="19.45" x="74.46" class="cls-3"/><rect height="172.37" width="7.23" y="19.45" x="90.08" class="cls-3"/><rect height="172.37" width="7.27" y="19.45" x="105.67" class="cls-3"/><rect height="172.37" width="7.26" y="19.45" x="121.28" class="cls-3"/><rect height="172.37" width="7.23" y="19.45" x="147.08" class="cls-3"/><rect height="172.37" width="7.23" y="19.45" x="162.51" class="cls-3"/><g><rect height="5.89" width="1.98" y="19.45" x="39.29" class="cls-3"/><rect height="5.89" width=".45" y="19.45" x="48.54" class="cls-3"/><rect height="5.89" width=".45" y="19.45" x="56.25" class="cls-3"/><rect height="5.89" width="10.5" y="19.45" x="63.96" class="cls-3"/><rect height="5.89" width=".54" y="19.45" x="81.73" class="cls-3"/><rect height="5.89" width=".54" y="19.45" x="89.54" class="cls-3"/><rect height="5.89" width=".54" y="19.45" x="97.31" class="cls-3"/><rect height="5.89" width=".54" y="19.45" x="105.12" class="cls-3"/><rect height="5.89" width=".54" y="19.45" x="112.93" class="cls-3"/><rect height="5.89" width=".54" y="19.45" x="120.74" class="cls-3"/><rect height="5.89" width=".54" y="19.45" x="128.55" class="cls-3"/><rect height="5.89" width="10.75" y="19.45" x="136.33" class="cls-3"/><rect height="5.89" width=".48" y="19.45" x="154.31" class="cls-3"/><rect height="5.89" width=".48" y="19.45" x="162.03" class="cls-3"/><rect height="5.89" width="2.18" y="19.45" x="169.74" class="cls-3"/></g><rect height="2.91" width=".45" y="151.77" x="48.54" class="cls-3"/><rect height="2.91" width=".45" y="151.77" x="56.25" class="cls-3"/><rect height="2.91" width=".54" y="151.77" x="81.73" class="cls-3"/><rect height="2.91" width=".54" y="151.77" x="89.54" class="cls-3"/><rect height="2.91" width=".54" y="151.77" x="97.31" class="cls-3"/><rect height="2.91" width=".54" y="151.77" x="105.12" class="cls-3"/><rect height="2.91" width=".54" y="151.77" x="112.93" class="cls-3"/><rect height="2.91" width=".54" y="151.77" x="120.74" class="cls-3"/><rect height="2.91" width=".54" y="151.77" x="128.55" class="cls-3"/><rect height="2.91" width=".48" y="151.64" x="154.31" class="cls-3"/><rect height="2.91" width=".48" y="151.64" x="162.03" class="cls-3"/><rect height="172.37" width="7.26" y="19.45" x="41.27" class="cls-3"/><rect height="5.89" width="1.98" y="185.89" x="39.29" class="cls-3"/><rect height="5.89" width=".45" y="185.89" x="48.54" class="cls-3"/><rect height="172.37" width="7.26" y="19.45" x="56.7" class="cls-3"/><rect height="5.89" width=".45" y="185.89" x="56.25" class="cls-3"/><rect height="5.89" width="10.5" y="185.89" x="63.96" class="cls-3"/><rect height="172.37" width="7.26" y="19.45" x="82.27" class="cls-3"/><rect height="5.89" width=".54" y="185.89" x="81.73" class="cls-3"/><rect height="5.89" width=".54" y="185.89" x="89.54" class="cls-3"/><rect height="172.37" width="7.27" y="19.45" x="97.86" class="cls-3"/><rect height="5.89" width=".54" y="185.89" x="97.31" class="cls-3"/><rect height="5.89" width=".54" y="185.89" x="105.12" class="cls-3"/><rect height="172.37" width="7.26" y="19.45" x="113.48" class="cls-3"/><rect height="5.89" width=".54" y="185.89" x="112.93" class="cls-3"/><rect height="5.89" width=".54" y="185.89" x="120.74" class="cls-3"/><rect height="172.37" width="7.23" y="19.45" x="129.09" class="cls-3"/><rect height="5.89" width=".54" y="185.89" x="128.55" class="cls-3"/><rect height="5.89" width="10.75" y="185.89" x="136.33" class="cls-3"/><rect height="172.37" width="7.23" y="19.45" x="154.79" class="cls-3"/><rect height="5.89" width=".48" y="185.89" x="154.31" class="cls-3"/><rect height="5.89" width=".48" y="185.89" x="162.03" class="cls-3"/><rect height="5.89" width="2.18" y="185.89" x="169.74" class="cls-3"/></g></g></g></g></svg>