<svg viewBox="0 0 531.26 288" xmlns="http://www.w3.org/2000/svg" id="Golf"><defs><style>.cls-1,.cls-2{stroke-linecap:round;stroke-linejoin:round;}.cls-1,.cls-2,.cls-3,.cls-4{fill:none;stroke:#000;}.cls-1,.cls-4{stroke-width:.3px;}.cls-2,.cls-3{stroke-width:.3px;}.cls-3,.cls-4{stroke-miterlimit:10;}</style></defs><g id="Club_House"><g id="papeleira_Palmer"><rect height="1.75" width="131.12" y="22.19" x="45.63" class="cls-3"/><line y2="261.35" x2="156.35" y1="261.35" x1="66.02" class="cls-1"/><path d="M176.75,23.93v260.58h-8.75v-35.89c2.18-.48,3.86-2.38,3.98-4.72.13-2.51-1.6-4.69-3.98-5.22V23.93h8.75Z" class="cls-4"/><path d="M161.79,243.4c-.1,2.27,1.28,4.26,3.3,5.02v36.09h-8.74V23.93h8.74v214.95c-1.84.69-3.19,2.43-3.3,4.52Z" class="cls-4"/><line y2="284.52" x2="168.01" y1="284.52" x1="165.09" class="cls-1"/><rect height="260.58" width="8.74" y="23.94" x="57.28" class="cls-4"/><rect height="260.58" width="8.74" y="23.94" x="45.63" class="cls-4"/><line y2="284.52" x2="57.28" y1="284.52" x1="54.37" class="cls-1"/><path d="M171.98,243.9c-.12,2.34-1.8,4.24-3.98,4.72-.43.1-.89.14-1.36.12-.54-.03-1.06-.14-1.55-.32-2.02-.76-3.4-2.75-3.3-5.02.11-2.09,1.46-3.83,3.3-4.52.63-.24,1.33-.36,2.05-.32.29.02.58.06.86.12,2.38.53,4.11,2.71,3.98,5.22Z" class="cls-4"/><path d="M145.77,44.91c-9.84-6.64-22.13-10.29-34.61-10.29-.01,0-.03,0-.04,0,0,0,0,0,0,0,0,0,0,0,0,0-12.46,0-24.73,3.66-34.56,10.29-.06.04-.1.11-.1.18v204.66c0,.12.1.22.22.22h11.48s0,0,0,0,0,0,0,0h11.48s0,0,0,0c0,0,0,0,0,0h11.48s0,0,0,0c0,0,0,0,0,0h11.48s0,0,0,0c0,0,0,0,0,0h11.48s0,0,0,0c0,0,0,0,0,0h11.56c.12,0,.22-.1.22-.22V45.09c0-.07-.04-.14-.1-.18ZM145.43,249.53h-11.12V117.53c-.14.16-.29.31-.44.46v131.55h-11.04v-125.52c-.15.04-.29.08-.44.12v125.4h-11.04v-123.97c-.06,0-.12,0-.18,0-.09,0-.17,0-.26,0v123.97h-11.04v-125.42c-.15-.04-.29-.08-.44-.12v125.54h-11.04V117.91c-.15-.16-.3-.31-.44-.47v132.1h-11.04V45.21c3.42-2.29,7.13-4.22,11.04-5.76v63.72c.14-.16.29-.32.44-.47v-63.34s-.02-.04-.03-.07c3.55-1.37,7.27-2.43,11.07-3.14v60.46c.15-.04.29-.08.44-.12v-60.37s-.02-.03-.02-.05c3.63-.65,7.34-.99,11.06-1.01v59.98c.09,0,.17,0,.26,0,.06,0,.12,0,.18,0v-59.98c3.73.01,7.44.35,11.07,1,0,.02-.03.04-.03.06v60.35c.15.04.29.08.44.12v-60.46c3.81.71,7.53,1.76,11.08,3.13-.02.03-.04.06-.04.09v63.26c.15.15.3.3.44.46v-63.66c3.94,1.55,7.68,3.48,11.12,5.79v204.33Z"/><ellipse ry="13.69" rx="24.59" cy="110.3" cx="111.17" class="cls-4"/><ellipse ry="12.55" rx="23.2" cy="110.3" cx="111.17" class="cls-4"/><g id="LINE"><rect height="1.75" width="131.12" y="22.47" x="205" class="cls-2"/></g><g id="LINE-2"><line y2="261.63" x2="315.73" y1="261.63" x1="225.4" class="cls-1"/></g><g id="LINE-3"><path d="M336.12,24.21v260.57h-8.74v-35.88c2.28-.51,3.98-2.54,3.98-4.97s-1.7-4.47-3.98-4.98V24.21h8.74Z" class="cls-1"/></g><g id="LINE-4"><path d="M321.16,243.93c0,2.18,1.38,4.04,3.31,4.76v36.09h-8.74V24.21h8.74v214.95c-1.93.72-3.31,2.58-3.31,4.77Z" class="cls-1"/></g><g id="LINE-5"><line y2="284.79" x2="327.38" y1="284.79" x1="324.47" class="cls-1"/></g><g id="LINE-6"><rect height="260.58" width="8.74" y="24.21" x="216.66" class="cls-1"/></g><g id="LINE-7"><rect height="260.58" width="8.74" y="24.21" x="205" class="cls-1"/></g><g id="LINE-8"><line y2="284.79" x2="216.66" y1="284.79" x1="213.74" class="cls-1"/></g><path d="M331.36,243.93c0,2.43-1.7,4.46-3.98,4.97-.36.08-.74.12-1.12.12-.63,0-1.24-.11-1.79-.33-1.93-.72-3.31-2.58-3.31-4.76s1.38-4.05,3.31-4.77c.55-.22,1.16-.33,1.79-.33.38,0,.76.04,1.12.12,2.28.51,3.98,2.54,3.98,4.98Z" class="cls-1"/><path d="M305.03,115.71c.12,0,.22-.1.22-.22V45.37c0-.07-.04-.14-.1-.18-9.84-6.64-22.13-10.29-34.61-10.29s-24.76,3.65-34.61,10.29c-.06.04-.1.11-.1.18v204.66c0,.12.1.22.22.22h11.48s0,0,0,0,0,0,0,0h11.48s0,0,0,0,0,0,0,0h11.48s0,0,0,0,0,0,0,0h11.48s0,0,0,0,0,0,0,0h11.48s0,0,0,0,0,0,0,0h11.56c.12,0,.22-.1.22-.22V115.49c0-.12-.1-.22-.22-.22s-.22.1-.22.22v134.32h-11.12V39.63c0-.12-.1-.22-.22-.22s-.22.1-.22.22v210.18h-11.04V36.39c0-.12-.1-.22-.22-.22s-.22.1-.22.22v213.41h-11.04V35.11c0-.12-.1-.22-.22-.22s-.22.1-.22.22v214.7h-11.04V36.39c0-.12-.1-.22-.22-.22s-.22.1-.22.22v213.41h-11.04V39.63c0-.12-.1-.22-.22-.22s-.22.1-.22.22v210.18h-11.04V45.48c9.75-6.55,21.92-10.15,34.27-10.15s24.51,3.6,34.26,10.15v70.01c0,.12.1.22.22.22Z"/><g id="LINE-9"><line y2="21.92" x2="18.13" y1="284.79" x1="18.13" class="cls-1"/><rect height=".3" width="1.95" y="284.64" x="17.15"/><rect height=".3" width="1.95" y="21.77" x="17.15"/></g><g id="MTEXT"><path d="M9.04,164.54c.12-.24.29-.44.51-.61.22-.17.5-.3.82-.39.32-.09.69-.14,1.09-.14s.8.05,1.15.15c.35.1.64.24.89.43s.43.41.56.67c.13.26.2.55.2.88,0,.37-.09.7-.27.97-.18.27-.43.47-.76.59l-.29-.64c.21-.07.37-.18.48-.34.11-.16.17-.35.17-.56,0-.2-.05-.38-.14-.55-.09-.17-.23-.31-.4-.44-.17-.13-.37-.22-.61-.29-.24-.07-.49-.1-.77-.1h-.17c-.06,0-.1,0-.15,0,.25.08.45.23.59.45.14.22.21.48.21.79,0,.24-.04.46-.12.65-.08.2-.19.36-.34.5-.14.14-.32.25-.52.33-.2.08-.42.12-.66.12s-.47-.04-.68-.13c-.21-.08-.38-.2-.52-.35-.14-.15-.26-.32-.34-.53-.08-.21-.12-.43-.12-.68,0-.3.06-.57.18-.81ZM9.61,165.71c.05.12.12.22.21.3.09.08.19.15.31.2.12.05.26.07.41.07s.29-.02.41-.07c.12-.05.23-.12.32-.2.09-.09.16-.19.21-.31.05-.12.07-.25.07-.4s-.02-.27-.07-.39c-.05-.12-.12-.22-.2-.31-.09-.09-.19-.15-.31-.2-.12-.05-.25-.07-.4-.07s-.28.03-.41.08c-.13.05-.24.13-.34.21-.1.09-.17.2-.22.32s-.08.26-.08.4.03.26.08.38Z"/><path d="M9.06,159.98c.13-.25.32-.47.55-.65.23-.18.52-.32.85-.42.33-.1.69-.15,1.08-.15s.76.05,1.1.15.62.24.86.42c.24.18.43.4.56.65.13.25.2.52.2.83s-.07.57-.2.82-.32.47-.56.65c-.24.18-.53.32-.86.42-.33.1-.7.15-1.1.15s-.75-.05-1.08-.15c-.33-.1-.61-.24-.85-.42-.24-.18-.42-.4-.55-.65-.13-.25-.2-.53-.2-.83s.07-.58.2-.83ZM9.7,161.33c.1.16.23.29.41.41.18.11.38.2.63.27.24.07.51.1.81.1s.57-.03.82-.09c.25-.06.46-.15.64-.27.18-.12.32-.25.42-.41.1-.16.15-.33.15-.52s-.05-.37-.15-.53c-.1-.16-.24-.3-.42-.41-.18-.11-.39-.2-.64-.27-.25-.06-.52-.09-.82-.09s-.56.03-.81.09c-.25.06-.46.15-.63.26-.17.11-.31.25-.41.41-.1.16-.15.34-.15.53s.05.37.15.52Z"/><path d="M9.06,155.34c.13-.25.32-.47.55-.65.23-.18.52-.32.85-.42.33-.1.69-.15,1.08-.15s.76.05,1.1.15.62.24.86.42c.24.18.43.4.56.65.13.25.2.52.2.83s-.07.57-.2.82-.32.47-.56.65c-.24.18-.53.32-.86.42-.33.1-.7.15-1.1.15s-.75-.05-1.08-.15c-.33-.1-.61-.24-.85-.42-.24-.18-.42-.4-.55-.65-.13-.25-.2-.53-.2-.83s.07-.58.2-.83ZM9.7,156.7c.1.16.23.29.41.41.18.11.38.2.63.27.24.07.51.1.81.1s.57-.03.82-.09c.25-.06.46-.15.64-.27.18-.12.32-.25.42-.41.1-.16.15-.33.15-.52s-.05-.37-.15-.53c-.1-.16-.24-.3-.42-.41-.18-.11-.39-.2-.64-.27-.25-.06-.52-.09-.82-.09s-.56.03-.81.09c-.25.06-.46.15-.63.26-.17.11-.31.25-.41.41-.1.16-.15.34-.15.53s.05.37.15.52Z"/><path d="M10.56,150.51h.67c-.24-.11-.42-.26-.54-.45-.12-.18-.18-.4-.18-.63,0-.26.07-.48.2-.67.14-.19.33-.32.59-.41-.26-.11-.45-.27-.59-.46-.14-.2-.2-.43-.2-.7,0-.38.12-.67.37-.88.25-.21.61-.31,1.07-.31h2.25v.7h-2.16c-.29,0-.52.07-.69.2-.17.13-.25.31-.25.54,0,.12.02.22.07.32.05.1.11.18.2.26.09.07.19.13.32.16.12.04.26.06.4.06h2.11v.7h-2.16c-.14,0-.27.02-.38.06-.12.04-.22.09-.3.15-.08.06-.14.14-.19.23-.04.09-.07.2-.07.31s.02.22.07.32c.05.1.12.18.21.25.09.07.2.12.32.17.12.04.26.06.41.06h2.09v.7h-3.64v-.68Z"/><path d="M10.56,144.33h.67c-.24-.11-.42-.26-.54-.45-.12-.18-.18-.4-.18-.63,0-.26.07-.48.2-.67.14-.19.33-.32.59-.41-.26-.11-.45-.27-.59-.46-.14-.2-.2-.43-.2-.7,0-.38.12-.67.37-.88.25-.21.61-.31,1.07-.31h2.25v.7h-2.16c-.29,0-.52.07-.69.2-.17.13-.25.31-.25.54,0,.12.02.22.07.32.05.1.11.18.2.26.09.07.19.13.32.16.12.04.26.06.4.06h2.11v.7h-2.16c-.14,0-.27.02-.38.06-.12.04-.22.09-.3.15-.08.06-.14.14-.19.23-.04.09-.07.2-.07.31s.02.22.07.32c.05.1.12.18.21.25.09.07.2.12.32.17.12.04.26.06.41.06h2.09v.7h-3.64v-.68Z"/></g><g id="LINE-10"><line y2="137.89" x2="515.98" y1="137.89" x1="387.6" class="cls-1"/><rect height="1.95" width=".3" y="136.92" x="387.45"/><rect height="1.95" width=".3" y="136.92" x="515.83"/></g><g id="MTEXT-2"><path d="M441.38,128.68v5.29h-.73v-4.36s-.04.08-.06.1c-.02.03-.04.06-.07.09l-1.35,2.02s-.04.06-.05.08-.03.05-.06.08h3.2v.64h-3.98v-.59l2.22-3.35h.87Z"/><path d="M445.81,128.68v.65h-1.92l-.25,1.54c.1-.09.22-.16.36-.21.14-.05.29-.07.46-.07.25,0,.47.04.68.13.21.08.38.2.53.35.15.15.27.33.35.54.08.21.12.44.12.69s-.04.48-.13.7c-.09.21-.21.4-.36.55-.16.15-.34.27-.56.36-.21.08-.45.13-.71.13-.2,0-.39-.03-.58-.08s-.35-.13-.5-.23c-.15-.1-.28-.22-.39-.36-.11-.14-.19-.3-.24-.48l.63-.31c.07.24.19.43.39.56.19.14.42.21.67.21.15,0,.29-.03.41-.08.13-.05.23-.12.33-.21.09-.09.16-.2.21-.33.05-.13.08-.27.08-.43s-.03-.3-.08-.44c-.05-.13-.13-.25-.22-.34s-.21-.17-.34-.22c-.13-.05-.28-.08-.44-.08-.18,0-.35.04-.49.1-.14.07-.26.17-.36.31l-.62-.15.47-2.79h2.52Z"/><path d="M449.55,128.82c.25.13.47.32.65.55.18.23.32.52.42.85.1.33.15.69.15,1.08s-.05.76-.15,1.1-.24.62-.42.86c-.18.24-.4.43-.65.56-.25.13-.52.2-.83.2s-.57-.07-.82-.2-.47-.32-.65-.56c-.18-.24-.32-.53-.42-.86-.1-.33-.15-.7-.15-1.1s.05-.75.15-1.08c.1-.33.24-.61.42-.85.18-.24.4-.42.65-.55.25-.13.53-.2.83-.2s.58.07.83.2ZM448.2,129.46c-.16.1-.29.23-.41.41-.11.18-.2.38-.27.63-.07.24-.1.51-.1.81s.03.57.09.82c.06.25.15.46.27.64.12.18.25.32.41.42.16.1.33.15.52.15s.37-.05.53-.15c.16-.1.3-.24.41-.42.11-.18.2-.39.27-.64.06-.25.09-.52.09-.82s-.03-.56-.09-.81c-.06-.25-.15-.46-.26-.63-.11-.17-.25-.31-.41-.41-.16-.1-.34-.15-.53-.15s-.37.05-.52.15Z"/><path d="M454.38,130.33v.67c.11-.24.26-.42.45-.54.18-.12.4-.18.63-.18.26,0,.48.07.67.2.19.14.32.33.41.59.11-.26.27-.45.46-.59.2-.14.43-.2.7-.2.38,0,.67.12.88.37.21.25.31.61.31,1.07v2.25h-.7v-2.16c0-.29-.07-.52-.2-.69-.13-.17-.31-.25-.54-.25-.12,0-.22.02-.32.07-.1.05-.18.11-.26.2-.07.09-.13.19-.16.32-.04.12-.06.26-.06.4v2.11h-.7v-2.16c0-.14-.02-.27-.06-.38-.04-.12-.09-.22-.15-.3-.06-.08-.14-.14-.23-.19-.09-.04-.2-.07-.31-.07s-.22.02-.32.07c-.1.05-.18.12-.25.21-.07.09-.12.2-.17.32-.04.12-.06.26-.06.41v2.09h-.7v-3.64h.68Z"/><path d="M460.56,130.33v.67c.11-.24.26-.42.45-.54.18-.12.4-.18.63-.18.26,0,.48.07.67.2.19.14.32.33.41.59.11-.26.27-.45.46-.59.2-.14.43-.2.7-.2.38,0,.67.12.88.37.21.25.31.61.31,1.07v2.25h-.7v-2.16c0-.29-.07-.52-.2-.69-.13-.17-.31-.25-.54-.25-.12,0-.22.02-.32.07-.1.05-.18.11-.26.2-.07.09-.13.19-.16.32-.04.12-.06.26-.06.4v2.11h-.7v-2.16c0-.14-.02-.27-.06-.38-.04-.12-.09-.22-.15-.3-.06-.08-.14-.14-.23-.19-.09-.04-.2-.07-.31-.07s-.22.02-.32.07c-.1.05-.18.12-.25.21-.07.09-.12.2-.17.32-.04.12-.06.26-.06.41v2.09h-.7v-3.64h.68Z"/></g><rect ry="4.06" rx="4.06" height="128.53" width="129.98" y="156.26" x="387.66" class="cls-1"/><g id="LINE-11"><line y2="284.64" x2="366.37" y1="153.78" x1="366.37" class="cls-1"/><rect height=".3" width="1.95" y="153.63" x="365.39"/><rect height=".3" width="1.95" y="284.49" x="365.39"/></g><g id="MTEXT-3"><path d="M357.16,229.62h5.29v.73h-4.36s.08.04.1.06c.03.02.06.04.09.07l2.02,1.35s.06.04.08.05.05.03.08.06v-3.2h.64v3.98h-.59l-3.35-2.22v-.87Z"/><path d="M357.16,225.2h.65v1.92l1.54.25c-.09-.1-.16-.22-.21-.36-.05-.14-.07-.29-.07-.46,0-.25.04-.47.13-.68.08-.21.2-.38.35-.53.15-.15.33-.27.54-.35.21-.08.44-.12.69-.12s.48.04.7.13c.21.09.4.21.55.36.15.16.27.34.36.56.08.21.13.45.13.71,0,.2-.03.39-.08.58s-.13.35-.23.5c-.1.15-.22.28-.36.39-.14.11-.3.19-.48.24l-.31-.63c.24-.07.43-.19.56-.39.14-.19.21-.42.21-.67,0-.15-.03-.29-.08-.41-.05-.13-.12-.23-.21-.33-.09-.09-.2-.16-.33-.21-.13-.05-.27-.08-.43-.08s-.3.03-.44.08c-.13.05-.25.13-.34.22s-.17.21-.22.34c-.05.13-.08.28-.08.44,0,.18.04.35.1.49.07.14.17.26.31.36l-.15.62-2.79-.47v-2.52Z"/><path d="M357.3,221.45c.13-.25.32-.47.55-.65.23-.18.52-.32.85-.42.33-.1.69-.15,1.08-.15s.76.05,1.1.15.62.24.86.42c.24.18.43.4.56.65.13.25.2.52.2.83s-.07.57-.2.82-.32.47-.56.65c-.24.18-.53.32-.86.42-.33.1-.7.15-1.1.15s-.75-.05-1.08-.15c-.33-.1-.61-.24-.85-.42-.24-.18-.42-.4-.55-.65-.13-.25-.2-.53-.2-.83s.07-.58.2-.83ZM357.93,222.81c.1.16.23.29.41.41.18.11.38.2.63.27.24.07.51.1.81.1s.57-.03.82-.09c.25-.06.46-.15.64-.27.18-.12.32-.25.42-.41.1-.16.15-.33.15-.52s-.05-.37-.15-.53c-.1-.16-.24-.3-.42-.41-.18-.11-.39-.2-.64-.27-.25-.06-.52-.09-.82-.09s-.56.03-.81.09c-.25.06-.46.15-.63.26-.17.11-.31.25-.41.41-.1.16-.15.34-.15.53s.05.37.15.52Z"/><path d="M358.8,216.63h.67c-.24-.11-.42-.26-.54-.45-.12-.18-.18-.4-.18-.63,0-.26.07-.48.2-.67.14-.19.33-.32.59-.41-.26-.11-.45-.27-.59-.46-.14-.2-.2-.43-.2-.7,0-.38.12-.67.37-.88.25-.21.61-.31,1.07-.31h2.25v.7h-2.16c-.29,0-.52.07-.69.2-.17.13-.25.31-.25.54,0,.12.02.22.07.32.05.1.11.18.2.26.09.07.19.13.32.16.12.04.26.06.4.06h2.11v.7h-2.16c-.14,0-.27.02-.38.06-.12.04-.22.09-.3.15-.08.06-.14.14-.19.23-.04.09-.07.2-.07.31s.02.22.07.32c.05.1.12.18.21.25.09.07.2.12.32.17.12.04.26.06.41.06h2.09v.7h-3.64v-.68Z"/><path d="M358.8,210.44h.67c-.24-.11-.42-.26-.54-.45-.12-.18-.18-.4-.18-.63,0-.26.07-.48.2-.67.14-.19.33-.32.59-.41-.26-.11-.45-.27-.59-.46-.14-.2-.2-.43-.2-.7,0-.38.12-.67.37-.88.25-.21.61-.31,1.07-.31h2.25v.7h-2.16c-.29,0-.52.07-.69.2-.17.13-.25.31-.25.54,0,.12.02.22.07.32.05.1.11.18.2.26.09.07.19.13.32.16.12.04.26.06.4.06h2.11v.7h-2.16c-.14,0-.27.02-.38.06-.12.04-.22.09-.3.15-.08.06-.14.14-.19.23-.04.09-.07.2-.07.31s.02.22.07.32c.05.1.12.18.21.25.09.07.2.12.32.17.12.04.26.06.41.06h2.09v.7h-3.64v-.68Z"/></g><path d="M164.52,242.79h.27s0,1.7,0,1.7h-.27s0-1.7,0-1.7Z"/><path d="M166.2,243.91c0,.33-.28.61-.62.61s-.62-.27-.62-.61c0-.33.28-.61.62-.61s.62.27.62.61ZM165.23,243.91c0,.2.16.36.35.36s.35-.16.35-.36-.16-.36-.35-.36c-.19,0-.35.16-.35.36Z"/><path d="M167.49,243.91s0,.05,0,.06h-.91c.02.18.16.3.37.3.14,0,.26-.06.3-.16l.23.09c-.08.21-.28.32-.54.32-.38,0-.65-.25-.65-.61s.25-.61.6-.61.6.25.6.6ZM167.19,243.76c-.04-.13-.15-.21-.29-.21s-.25.08-.3.21h.6Z"/><path d="M167.93,243.32v.05s.01.05.04.05c.02,0,.04-.01.07-.04.06-.06.14-.08.23-.08.11,0,.2.04.26.11.03.03.05.05.08.05.03,0,.05,0,.08-.04.07-.08.17-.11.28-.11.24,0,.38.17.38.46v.73s-.27,0-.27,0v-.69c0-.17-.08-.27-.21-.27-.14,0-.23.12-.23.29v.67s-.27,0-.27,0v-.69c0-.17-.08-.27-.21-.27s-.23.12-.23.3v.67s-.27,0-.27,0v-1.17s.26,0,.26,0Z"/><path d="M170.57,243.77v.72s-.25,0-.25,0v-.08s-.01-.06-.05-.06c-.02,0-.05.01-.08.04-.07.07-.16.11-.28.11-.22,0-.37-.13-.37-.32,0-.2.16-.34.44-.38l.31-.05c-.02-.14-.12-.21-.28-.21-.14,0-.23.06-.26.16l-.24-.07c.06-.21.25-.33.5-.33.31,0,.54.2.54.47ZM170.04,244.02c-.16.03-.23.08-.23.16s.07.13.18.13c.18,0,.3-.13.31-.34l-.26.05Z"/><path d="M164.38,242.79h-1.17v1.7h.28v-1.07c0-.08.09-.11.14-.06l.45.45.18-.18-.45-.45c-.05-.05-.02-.14.06-.14h.5v-.26Z"/><path d="M171.49,244.16c0,.2-.16.35-.37.35s-.37-.15-.37-.35.16-.35.37-.35.37.15.37.35ZM170.84,244.16c0,.16.13.29.29.29s.29-.12.29-.29-.12-.28-.29-.28-.29.12-.29.28ZM171.2,244.19s-.02.01-.02.02c0,0,0,.02,0,.02l.09.12h-.09s-.1-.15-.1-.15v.15s-.08,0-.08,0v-.38s.14,0,.14,0c.08,0,.13.05.13.12,0,.05-.03.08-.07.1Z"/><path d="M169.05,244.99s.02.02.02.04c0,0,0,.02,0,.02,0,0,0,.01-.01.02,0,0-.01,0-.02.01,0,0-.01,0-.02,0,0,0-.02,0-.02,0,0,0-.01,0-.02-.01,0,0,0-.01-.01-.02,0,0,0-.01,0-.02,0-.02,0-.03.02-.04s.02-.01.04-.01.03,0,.04.01Z"/><path d="M169.43,244.83s0-.02-.02-.03c0,0-.02-.02-.02-.02,0,0-.02-.01-.03-.01-.01,0-.02,0-.04,0-.02,0-.03,0-.05,0-.02,0-.03.02-.04.03-.01.01-.02.02-.03.04,0,.02,0,.03,0,.05,0,.02,0,.04,0,.05,0,.02.01.03.03.04.01.01.02.02.04.03.02,0,.03,0,.05,0,.03,0,.05,0,.07-.02.02-.01.03-.03.04-.05l.06.02s-.03.07-.06.09-.07.03-.11.03c-.03,0-.06,0-.08-.01-.02,0-.05-.02-.06-.04-.02-.02-.03-.04-.04-.06-.01-.02-.02-.05-.02-.08s0-.05.02-.08.02-.04.04-.06c.02-.02.04-.03.06-.04.02,0,.05-.01.08-.01.02,0,.04,0,.06,0,.02,0,.04.01.05.02.02.01.03.02.04.04.01.01.02.03.02.05l-.06.02Z"/><path d="M169.82,244.7s.05.02.06.04.03.04.04.06.02.05.02.08,0,.05-.02.08-.02.04-.04.06c-.02.02-.04.03-.06.04-.02.01-.05.02-.08.02s-.05,0-.08-.02c-.02-.01-.05-.02-.06-.04-.02-.02-.03-.04-.04-.06-.01-.02-.02-.05-.02-.08s0-.05.02-.08c.01-.02.02-.04.04-.06.02-.02.04-.03.06-.04.02-.01.05-.02.08-.02s.05,0,.08.02ZM169.69,244.77s-.03.02-.04.03c-.01.01-.02.03-.03.04,0,.02,0,.03,0,.05s0,.03,0,.05c0,.02.02.03.03.04.01.01.02.02.04.03.02,0,.03,0,.05,0s.03,0,.05,0c.02,0,.03-.02.04-.03s.02-.03.03-.04,0-.03,0-.05,0-.03,0-.05c0-.02-.02-.03-.03-.04s-.03-.02-.04-.03c-.02,0-.03,0-.05,0s-.03,0-.05,0Z"/><path d="M170.09,244.69v.02s0,.01,0,.01,0,0,0,0c0,0,0,0,0,0,0,0,0,0,0,0s0,0,0,0,0,0,0,0c.01,0,.02-.02.04-.02.01,0,.03,0,.04,0,.02,0,.03,0,.05,0,.01,0,.03.02.04.03,0,0,0,0,.01.01,0,0,0,0,.01,0,0,0,0,0,0,0,0,0,0,0,0,0,0,0,0,0,0,0s0,0,0,0c.01-.01.03-.02.04-.03.02,0,.03,0,.05,0,.04,0,.07.01.09.04.02.03.03.06.03.11v.24h-.07v-.23s0-.05-.02-.07c-.01-.02-.03-.03-.06-.03-.01,0-.02,0-.03,0-.01,0-.02.01-.03.02,0,0-.01.02-.02.03,0,.01,0,.03,0,.04v.22h-.07v-.23s0-.03,0-.04c0-.01,0-.02-.02-.03,0,0-.01-.02-.02-.02s-.02,0-.03,0-.02,0-.03,0c-.01,0-.02.01-.03.02s-.01.02-.02.03c0,.01,0,.03,0,.04v.22h-.07v-.38h.07Z"/><path d="M323.89,243.07h.27s0,1.7,0,1.7h-.27s0-1.7,0-1.7Z"/><path d="M325.57,244.18c0,.33-.28.61-.62.61s-.62-.27-.62-.61c0-.33.28-.61.62-.61s.62.27.62.61ZM324.6,244.18c0,.2.16.36.35.36s.35-.16.35-.36-.16-.36-.35-.36c-.19,0-.35.16-.35.36Z"/><path d="M326.87,244.18s0,.05,0,.06h-.91c.02.18.16.3.37.3.14,0,.26-.06.3-.16l.23.09c-.08.21-.28.32-.54.32-.38,0-.65-.25-.65-.61s.25-.61.6-.61.6.25.6.6ZM326.57,244.04c-.04-.13-.15-.21-.29-.21s-.25.08-.3.21h.6Z"/><path d="M327.31,243.6v.05s.01.05.04.05c.02,0,.04-.01.07-.04.06-.06.14-.08.23-.08.11,0,.2.04.26.11.03.03.05.05.08.05.03,0,.05,0,.08-.04.07-.08.17-.11.28-.11.24,0,.38.17.38.46v.73s-.27,0-.27,0v-.69c0-.17-.08-.27-.21-.27-.14,0-.23.12-.23.29v.67s-.27,0-.27,0v-.69c0-.17-.08-.27-.21-.27s-.23.12-.23.3v.67s-.27,0-.27,0v-1.17s.26,0,.26,0Z"/><path d="M329.94,244.05v.72s-.25,0-.25,0v-.08s-.01-.06-.05-.06c-.02,0-.05.01-.08.04-.07.07-.16.11-.28.11-.22,0-.37-.13-.37-.32,0-.2.16-.34.44-.38l.31-.05c-.02-.14-.12-.21-.28-.21-.14,0-.23.06-.26.16l-.24-.07c.06-.21.25-.33.5-.33.31,0,.54.2.54.47ZM329.42,244.29c-.16.03-.23.08-.23.16s.07.13.18.13c.18,0,.3-.13.31-.34l-.26.05Z"/><path d="M323.76,243.07h-1.17v1.7h.28v-1.07c0-.08.09-.11.14-.06l.45.45.18-.18-.45-.45c-.05-.05-.02-.14.06-.14h.5v-.26Z"/><path d="M330.87,244.44c0,.2-.16.35-.37.35s-.37-.15-.37-.35.16-.35.37-.35.37.15.37.35ZM330.21,244.44c0,.16.13.29.29.29s.29-.12.29-.29-.12-.28-.29-.28-.29.12-.29.28ZM330.58,244.46s-.02.01-.02.02c0,0,0,.02,0,.02l.09.12h-.09s-.1-.15-.1-.15v.15s-.08,0-.08,0v-.38s.14,0,.14,0c.08,0,.13.05.13.12,0,.05-.03.08-.07.1Z"/><path d="M328.42,245.27s.02.02.02.04c0,0,0,.02,0,.02,0,0,0,.01-.01.02,0,0-.01,0-.02.01,0,0-.01,0-.02,0,0,0-.02,0-.02,0,0,0-.01,0-.02-.01,0,0,0-.01-.01-.02,0,0,0-.01,0-.02,0-.02,0-.03.02-.04s.02-.01.04-.01.03,0,.04.01Z"/><path d="M328.8,245.1s0-.02-.02-.03c0,0-.02-.02-.02-.02,0,0-.02-.01-.03-.01-.01,0-.02,0-.04,0-.02,0-.03,0-.05,0-.02,0-.03.02-.04.03-.01.01-.02.02-.03.04,0,.02,0,.03,0,.05,0,.02,0,.04,0,.05,0,.02.01.03.03.04.01.01.02.02.04.03.02,0,.03,0,.05,0,.03,0,.05,0,.07-.02.02-.01.03-.03.04-.05l.06.02s-.03.07-.06.09-.07.03-.11.03c-.03,0-.06,0-.08-.01-.02,0-.05-.02-.06-.04-.02-.02-.03-.04-.04-.06-.01-.02-.02-.05-.02-.08s0-.05.02-.08.02-.04.04-.06c.02-.02.04-.03.06-.04.02,0,.05-.01.08-.01.02,0,.04,0,.06,0,.02,0,.04.01.05.02.02.01.03.02.04.04.01.01.02.03.02.05l-.06.02Z"/><path d="M329.2,244.98s.05.02.06.04.03.04.04.06.02.05.02.08,0,.05-.02.08-.02.04-.04.06c-.02.02-.04.03-.06.04-.02.01-.05.02-.08.02s-.05,0-.08-.02c-.02-.01-.05-.02-.06-.04-.02-.02-.03-.04-.04-.06-.01-.02-.02-.05-.02-.08s0-.05.02-.08c.01-.02.02-.04.04-.06.02-.02.04-.03.06-.04.02-.01.05-.02.08-.02s.05,0,.08.02ZM329.07,245.04s-.03.02-.04.03c-.01.01-.02.03-.03.04,0,.02,0,.03,0,.05s0,.03,0,.05c0,.02.02.03.03.04.01.01.02.02.04.03.02,0,.03,0,.05,0s.03,0,.05,0c.02,0,.03-.02.04-.03s.02-.03.03-.04,0-.03,0-.05,0-.03,0-.05c0-.02-.02-.03-.03-.04s-.03-.02-.04-.03c-.02,0-.03,0-.05,0s-.03,0-.05,0Z"/><path d="M329.47,244.97v.02s0,.01,0,.01,0,0,0,0c0,0,0,0,0,0,0,0,0,0,0,0s0,0,0,0,0,0,0,0c.01,0,.02-.02.04-.02.01,0,.03,0,.04,0,.02,0,.03,0,.05,0,.01,0,.03.02.04.03,0,0,0,0,.01.01,0,0,0,0,.01,0,0,0,0,0,0,0,0,0,0,0,0,0,0,0,0,0,0,0s0,0,0,0c.01-.01.03-.02.04-.03.02,0,.03,0,.05,0,.04,0,.07.01.09.04.02.03.03.06.03.11v.24h-.07v-.23s0-.05-.02-.07c-.01-.02-.03-.03-.06-.03-.01,0-.02,0-.03,0-.01,0-.02.01-.03.02,0,0-.01.02-.02.03,0,.01,0,.03,0,.04v.22h-.07v-.23s0-.03,0-.04c0-.01,0-.02-.02-.03,0,0-.01-.02-.02-.02s-.02,0-.03,0-.02,0-.03,0c-.01,0-.02.01-.03.02s-.01.02-.02.03c0,.01,0,.03,0,.04v.22h-.07v-.38h.07Z"/></g></g></svg>