<svg viewBox="0 0 531.26 288" xmlns="http://www.w3.org/2000/svg" id="Golf"><defs><style>.cls-1,.cls-2{fill:#f1efea;}.cls-3{stroke:#12100b;}.cls-3,.cls-4,.cls-2,.cls-5,.cls-6,.cls-7,.cls-8,.cls-9{stroke-width:.3px;}.cls-3,.cls-4,.cls-5,.cls-7,.cls-8,.cls-9{fill:none;}.cls-3,.cls-6,.cls-8{stroke-linecap:round;stroke-linejoin:round;}.cls-10{fill:#1d1e1c;}.cls-11{fill:#12100b;}.cls-4{stroke:#1f1e1d;}.cls-4,.cls-2,.cls-5,.cls-7,.cls-9{stroke-miterlimit:10;}.cls-12,.cls-6{fill:#fff;}.cls-2{stroke:#000;}.cls-5{stroke:#1d1d1b;}.cls-6,.cls-8,.cls-9{stroke:#2a2928;}.cls-7{stroke:#1d1e1c;}.cls-13{fill:#2a2928;}</style></defs><g id="Club_House"><g id="podium_starter_Palmer"><line y2="195.06" x2="357.95" y1="195.06" x1="495.93" class="cls-7"/><path d="M510.24,194.07h-13.46c-.46,0-.84.38-.84.84v74.04c0,.46-.38.84-.84.84h-136.3c-.46,0-.84-.38-.84-.84v-74.04c0-.46-.38-.84-.84-.84h-13.46c-.46,0-.84.38-.84.84v89.18c0,.46.38.84.84.84h166.59c.46,0,.84-.38.84-.84v-89.18c0-.46-.38-.84-.84-.84Z" class="cls-7"/><g id="LINE"><line y2="194.22" x2="329.67" y1="284.79" x1="329.67" class="cls-7"/><rect height=".3" width="1.95" y="284.64" x="328.7" class="cls-10"/><rect height=".3" width="1.95" y="194.07" x="328.7" class="cls-10"/></g><g id="MTEXT"><path d="M320.46,249.86h.65v1.92l1.54.25c-.09-.1-.16-.22-.21-.36-.05-.14-.07-.29-.07-.46,0-.25.04-.47.13-.68.08-.21.2-.38.35-.53.15-.15.33-.27.54-.35.21-.08.44-.12.69-.12s.48.04.7.13c.21.09.4.21.55.36.15.16.27.34.36.56.08.21.13.45.13.71,0,.2-.03.39-.08.58s-.13.35-.23.5c-.1.15-.22.28-.36.39-.14.11-.3.19-.48.24l-.31-.63c.24-.07.43-.19.56-.39.14-.19.21-.42.21-.67,0-.15-.03-.29-.08-.41-.05-.13-.12-.23-.21-.33-.09-.09-.2-.16-.33-.21-.13-.05-.27-.08-.43-.08s-.3.03-.44.08c-.13.05-.25.13-.34.22s-.17.21-.22.34c-.05.13-.08.28-.08.44,0,.18.04.35.1.49.07.14.17.26.31.36l-.15.62-2.79-.47v-2.52Z"/><path d="M320.46,245.93h5.29v.73h-4.36s.08.04.1.06c.03.02.06.04.09.07l2.02,1.35s.06.04.08.05.05.03.08.06v-3.2h.64v3.98h-.59l-3.35-2.22v-.87Z"/><path d="M320.6,241.75c.13-.25.32-.47.55-.65.23-.18.52-.32.85-.42.33-.1.69-.15,1.08-.15s.76.05,1.1.15.62.24.86.42c.24.18.43.4.56.65.13.25.2.52.2.83s-.07.57-.2.82-.32.47-.56.65c-.24.18-.53.32-.86.42-.33.1-.7.15-1.1.15s-.75-.05-1.08-.15c-.33-.1-.61-.24-.85-.42-.24-.18-.42-.4-.55-.65-.13-.25-.2-.53-.2-.83s.07-.58.2-.83ZM321.24,243.1c.1.16.23.29.41.41.18.11.38.2.63.27.24.07.51.1.81.1s.57-.03.82-.09c.25-.06.46-.15.64-.27.18-.12.32-.25.42-.41.1-.16.15-.33.15-.52s-.05-.37-.15-.53c-.1-.16-.24-.3-.42-.41-.18-.11-.39-.2-.64-.27-.25-.06-.52-.09-.82-.09s-.56.03-.81.09c-.25.06-.46.15-.63.26-.17.11-.31.25-.41.41-.1.16-.15.34-.15.53s.05.37.15.52Z"/><path d="M322.11,236.92h.67c-.24-.11-.42-.26-.54-.45-.12-.18-.18-.4-.18-.63,0-.26.07-.48.2-.67.14-.19.33-.32.59-.41-.26-.11-.45-.27-.59-.46-.14-.2-.2-.43-.2-.7,0-.38.12-.67.37-.88.25-.21.61-.31,1.07-.31h2.25v.7h-2.16c-.29,0-.52.07-.69.2-.17.13-.25.31-.25.54,0,.12.02.22.07.32.05.1.11.18.2.26.09.07.19.13.32.16.12.04.26.06.4.06h2.11v.7h-2.16c-.14,0-.27.02-.38.06-.12.04-.22.09-.3.15-.08.06-.14.14-.19.23-.04.09-.07.2-.07.31s.02.22.07.32c.05.1.12.18.21.25.09.07.2.12.32.17.12.04.26.06.41.06h2.09v.7h-3.64v-.68Z"/><path d="M322.11,230.73h.67c-.24-.11-.42-.26-.54-.45-.12-.18-.18-.4-.18-.63,0-.26.07-.48.2-.67.14-.19.33-.32.59-.41-.26-.11-.45-.27-.59-.46-.14-.2-.2-.43-.2-.7,0-.38.12-.67.37-.88.25-.21.61-.31,1.07-.31h2.25v.7h-2.16c-.29,0-.52.07-.69.2-.17.13-.25.31-.25.54,0,.12.02.22.07.32.05.1.11.18.2.26.09.07.19.13.32.16.12.04.26.06.4.06h2.11v.7h-2.16c-.14,0-.27.02-.38.06-.12.04-.22.09-.3.15-.08.06-.14.14-.19.23-.04.09-.07.2-.07.31s.02.22.07.32c.05.1.12.18.21.25.09.07.2.12.32.17.12.04.26.06.41.06h2.09v.7h-3.64v-.68Z"/></g><g id="LINE-2"><line y2="172.55" x2="510.96" y1="172.55" x1="342.99" class="cls-3"/><rect height="1.95" width=".3" y="171.57" x="342.84" class="cls-11"/><rect height="1.95" width=".3" y="171.57" x="510.81" class="cls-11"/></g><g id="MTEXT-2"><path d="M413.63,163.34v5.29h-.72v-4.54l-1.3.64v-.73l1.36-.67h.67Z"/><path d="M417.33,163.48c.25.13.47.32.65.55.18.23.32.52.42.85.1.33.15.69.15,1.08s-.05.76-.15,1.1-.24.62-.42.86c-.18.24-.4.43-.65.56-.25.13-.52.2-.83.2s-.57-.07-.82-.2-.47-.32-.65-.56c-.18-.24-.32-.53-.42-.86-.1-.33-.15-.7-.15-1.1s.05-.75.15-1.08c.1-.33.24-.61.42-.85.18-.24.4-.42.65-.55.25-.13.53-.2.83-.2s.58.07.83.2ZM415.98,164.12c-.16.1-.29.23-.41.41-.11.18-.2.38-.27.63-.07.24-.1.51-.1.81s.03.57.09.82c.06.25.15.46.27.64.12.18.25.32.41.42.16.1.33.15.52.15s.37-.05.53-.15c.16-.1.3-.24.41-.42.11-.18.2-.39.27-.64.06-.25.09-.52.09-.82s-.03-.56-.09-.81c-.06-.25-.15-.46-.26-.63-.11-.17-.25-.31-.41-.41-.16-.1-.34-.15-.53-.15s-.37.05-.52.15Z"/><path d="M421.97,163.48c.25.13.47.32.65.55.18.23.32.52.42.85.1.33.15.69.15,1.08s-.05.76-.15,1.1-.24.62-.42.86c-.18.24-.4.43-.65.56-.25.13-.52.2-.83.2s-.57-.07-.82-.2-.47-.32-.65-.56c-.18-.24-.32-.53-.42-.86-.1-.33-.15-.7-.15-1.1s.05-.75.15-1.08c.1-.33.24-.61.42-.85.18-.24.4-.42.65-.55.25-.13.53-.2.83-.2s.58.07.83.2ZM420.62,164.12c-.16.1-.29.23-.41.41-.11.18-.2.38-.27.63-.07.24-.1.51-.1.81s.03.57.09.82c.06.25.15.46.27.64.12.18.25.32.41.42.16.1.33.15.52.15s.37-.05.53-.15c.16-.1.3-.24.41-.42.11-.18.2-.39.27-.64.06-.25.09-.52.09-.82s-.03-.56-.09-.81c-.06-.25-.15-.46-.26-.63-.11-.17-.25-.31-.41-.41-.16-.1-.34-.15-.53-.15s-.37.05-.52.15Z"/><path d="M426.6,163.48c.25.13.47.32.65.55.18.23.32.52.42.85.1.33.15.69.15,1.08s-.05.76-.15,1.1-.24.62-.42.86c-.18.24-.4.43-.65.56-.25.13-.52.2-.83.2s-.57-.07-.82-.2-.47-.32-.65-.56c-.18-.24-.32-.53-.42-.86-.1-.33-.15-.7-.15-1.1s.05-.75.15-1.08c.1-.33.24-.61.42-.85.18-.24.4-.42.65-.55.25-.13.53-.2.83-.2s.58.07.83.2ZM425.25,164.12c-.16.1-.29.23-.41.41-.11.18-.2.38-.27.63-.07.24-.1.51-.1.81s.03.57.09.82c.06.25.15.46.27.64.12.18.25.32.41.42.16.1.33.15.52.15s.37-.05.53-.15c.16-.1.3-.24.41-.42.11-.18.2-.39.27-.64.06-.25.09-.52.09-.82s-.03-.56-.09-.81c-.06-.25-.15-.46-.26-.63-.11-.17-.25-.31-.41-.41-.16-.1-.34-.15-.53-.15s-.37.05-.52.15Z"/><path d="M431.43,164.98v.67c.11-.24.26-.42.45-.54.18-.12.4-.18.63-.18.26,0,.48.07.67.2.19.14.32.33.41.59.11-.26.27-.45.46-.59.2-.14.43-.2.7-.2.38,0,.67.12.88.37.21.25.31.61.31,1.07v2.25h-.7v-2.16c0-.29-.07-.52-.2-.69-.13-.17-.31-.25-.54-.25-.12,0-.22.02-.32.07-.1.05-.18.11-.26.2-.07.09-.13.19-.16.32-.04.12-.06.26-.06.4v2.11h-.7v-2.16c0-.14-.02-.27-.06-.38-.04-.12-.09-.22-.15-.3-.06-.08-.14-.14-.23-.19-.09-.04-.2-.07-.31-.07s-.22.02-.32.07c-.1.05-.18.12-.25.21-.07.09-.12.2-.17.32-.04.12-.06.26-.06.41v2.09h-.7v-3.64h.68Z"/><path d="M437.62,164.98v.67c.11-.24.26-.42.45-.54.18-.12.4-.18.63-.18.26,0,.48.07.67.2.19.14.32.33.41.59.11-.26.27-.45.46-.59.2-.14.43-.2.7-.2.38,0,.67.12.88.37.21.25.31.61.31,1.07v2.25h-.7v-2.16c0-.29-.07-.52-.2-.69-.13-.17-.31-.25-.54-.25-.12,0-.22.02-.32.07-.1.05-.18.11-.26.2-.07.09-.13.19-.16.32-.04.12-.06.26-.06.4v2.11h-.7v-2.16c0-.14-.02-.27-.06-.38-.04-.12-.09-.22-.15-.3-.06-.08-.14-.14-.23-.19-.09-.04-.2-.07-.31-.07s-.22.02-.32.07c-.1.05-.18.12-.25.21-.07.09-.12.2-.17.32-.04.12-.06.26-.06.41v2.09h-.7v-3.64h.68Z"/></g><g id="LINE-3"><line y2="84.27" x2="18.09" y1="286.3" x1="18.09" class="cls-12"/><line y2="84.42" x2="18.09" y1="286.15" x1="18.09" class="cls-8"/><rect height=".3" width="1.95" y="286" x="17.11" class="cls-13"/><rect height=".3" width="1.95" y="84.27" x="17.11" class="cls-13"/></g><g id="MTEXT-3"><path d="M8.88,198.33h5.29v.72h-4.54l.64,1.3h-.73l-.67-1.36v-.67Z"/><path d="M8.94,195.15c.08-.21.19-.39.33-.54.14-.15.31-.27.51-.35.2-.08.42-.13.67-.13.14,0,.28.02.42.05.14.03.28.08.41.15.14.07.27.16.42.27.14.11.29.24.45.39l1.35,1.31v-2.29h.67v3.32h-.59l-1.85-1.79c-.12-.12-.23-.22-.33-.3-.1-.08-.21-.15-.3-.2-.1-.05-.19-.09-.29-.11-.09-.02-.19-.03-.29-.03-.15,0-.28.02-.4.07-.12.04-.23.11-.32.2-.09.09-.16.19-.21.3-.05.11-.07.24-.07.39,0,.25.08.47.23.65.15.18.36.31.63.39l-.23.67c-.42-.12-.74-.32-.97-.62s-.34-.66-.34-1.1c0-.25.04-.48.12-.69Z"/><path d="M9.02,190.6c.13-.25.32-.47.55-.65.23-.18.52-.32.85-.42.33-.1.69-.15,1.08-.15s.76.05,1.1.15.62.24.86.42c.24.18.43.4.56.65.13.25.2.52.2.83s-.07.57-.2.82-.32.47-.56.65c-.24.18-.53.32-.86.42-.33.1-.7.15-1.1.15s-.75-.05-1.08-.15c-.33-.1-.61-.24-.85-.42-.24-.18-.42-.4-.55-.65-.13-.25-.2-.53-.2-.83s.07-.58.2-.83ZM9.65,191.95c.1.16.23.29.41.41.18.11.38.2.63.27.24.07.51.1.81.1s.57-.03.82-.09c.25-.06.46-.15.64-.27.18-.12.32-.25.42-.41.1-.16.15-.33.15-.52s-.05-.37-.15-.53c-.1-.16-.24-.3-.42-.41-.18-.11-.39-.2-.64-.27-.25-.06-.52-.09-.82-.09s-.56.03-.81.09c-.25.06-.46.15-.63.26-.17.11-.31.25-.41.41-.1.16-.15.34-.15.53s.05.37.15.52Z"/><path d="M9.02,185.96c.13-.25.32-.47.55-.65.23-.18.52-.32.85-.42.33-.1.69-.15,1.08-.15s.76.05,1.1.15.62.24.86.42c.24.18.43.4.56.65.13.25.2.52.2.83s-.07.57-.2.82-.32.47-.56.65c-.24.18-.53.32-.86.42-.33.1-.7.15-1.1.15s-.75-.05-1.08-.15c-.33-.1-.61-.24-.85-.42-.24-.18-.42-.4-.55-.65-.13-.25-.2-.53-.2-.83s.07-.58.2-.83ZM9.65,187.32c.1.16.23.29.41.41.18.11.38.2.63.27.24.07.51.1.81.1s.57-.03.82-.09c.25-.06.46-.15.64-.27.18-.12.32-.25.42-.41.1-.16.15-.33.15-.52s-.05-.37-.15-.53c-.1-.16-.24-.3-.42-.41-.18-.11-.39-.2-.64-.27-.25-.06-.52-.09-.82-.09s-.56.03-.81.09c-.25.06-.46.15-.63.26-.17.11-.31.25-.41.41-.1.16-.15.34-.15.53s.05.37.15.52Z"/><path d="M10.52,181.14h.67c-.24-.11-.42-.26-.54-.45-.12-.18-.18-.4-.18-.63,0-.26.07-.48.2-.67.14-.19.33-.32.59-.41-.26-.11-.45-.27-.59-.46-.14-.2-.2-.43-.2-.7,0-.38.12-.67.37-.88.25-.21.61-.31,1.07-.31h2.25v.7h-2.16c-.29,0-.52.07-.69.2-.17.13-.25.31-.25.54,0,.12.02.22.07.32.05.1.11.18.2.26.09.07.19.13.32.16.12.04.26.06.4.06h2.11v.7h-2.16c-.14,0-.27.02-.38.06-.12.04-.22.09-.3.15-.08.06-.14.14-.19.23-.04.09-.07.2-.07.31s.02.22.07.32c.05.1.12.18.21.25.09.07.2.12.32.17.12.04.26.06.41.06h2.09v.7h-3.64v-.68Z"/><path d="M10.52,174.95h.67c-.24-.11-.42-.26-.54-.45-.12-.18-.18-.4-.18-.63,0-.26.07-.48.2-.67.14-.19.33-.32.59-.41-.26-.11-.45-.27-.59-.46-.14-.2-.2-.43-.2-.7,0-.38.12-.67.37-.88.25-.21.61-.31,1.07-.31h2.25v.7h-2.16c-.29,0-.52.07-.69.2-.17.13-.25.31-.25.54,0,.12.02.22.07.32.05.1.11.18.2.26.09.07.19.13.32.16.12.04.26.06.4.06h2.11v.7h-2.16c-.14,0-.27.02-.38.06-.12.04-.22.09-.3.15-.08.06-.14.14-.19.23-.04.09-.07.2-.07.31s.02.22.07.32c.05.1.12.18.21.25.09.07.2.12.32.17.12.04.26.06.41.06h2.09v.7h-3.64v-.68Z"/></g><rect height="189.45" width="67.4" y="83.72" x="227.46" class="cls-9"/><polygon points="215.67 82.72 306.66 82.72 306.66 83.72 306.66 83.72 215.67 83.72 215.67 82.72" class="cls-4"/><rect height="201.19" width="15.16" y="83.72" x="215.67" class="cls-2"/><line y2="83.72" x2="223.25" y1="284.91" x1="223.25" class="cls-2"/><rect height="201.19" width="1.35" y="83.72" x="222.58" class="cls-2"/><rect height="201.19" width="15.16" y="83.72" x="291.49" class="cls-2"/><rect height="201.19" width="1.35" y="83.72" x="298.4" class="cls-8"/><line y2="266.47" x2="244.31" y1="105.14" x1="244.31" class="cls-6"/><line y2="266.47" x2="237.57" y1="108.65" x1="237.57" class="cls-6"/><line y2="266.47" x2="251.05" y1="103.16" x1="251.05" class="cls-6"/><line y2="266.47" x2="257.79" y1="102.38" x1="257.79" class="cls-6"/><line y2="266.47" x2="264.53" y1="102.38" x1="264.53" class="cls-6"/><line y2="266.47" x2="271.27" y1="103.16" x1="271.27" class="cls-6"/><line y2="266.47" x2="278.01" y1="105.14" x1="278.01" class="cls-6"/><line y2="266.47" x2="284.75" y1="108.65" x1="284.75" class="cls-6"/><line y2="266.47" x2="284.75" y1="266.47" x1="237.57" class="cls-6"/><path d="M237.57,108.65c4.7-3.88,13.5-6.49,23.59-6.49s18.89,2.61,23.59,6.49" class="cls-8"/><rect ry="4.4" rx="4.4" height="8.99" width="18.23" y="179.24" x="252.05" class="cls-1"/><rect ry="2.77" rx="2.77" height="5.66" width="15.16" y="180.91" x="253.58" class="cls-2"/><rect height="184.12" width="144.88" y="83.75" x="46.23" class="cls-8"/><rect height="201.19" width="15.16" y="83.75" x="184.69" class="cls-2"/><line y2="83.75" x2="192.27" y1="284.94" x1="192.27" class="cls-2"/><rect height="201.19" width="1.35" y="83.75" x="191.59" class="cls-2"/><rect height="201.19" width="15.16" y="83.75" x="31.25" class="cls-2"/><line y2="83.75" x2="38.83" y1="284.94" x1="38.83" class="cls-2"/><rect height="201.19" width="1.35" y="83.75" x="38.16" class="cls-2"/><polygon points="31.22 82.75 199.85 82.75 199.85 83.75 199.85 83.75 31.22 83.75 31.22 82.75" class="cls-4"/><line y2="261.02" x2="177.81" y1="261.02" x1="53.15" class="cls-8"/><line y2="261.02" x2="66.27" y1="107.92" x1="66.27" class="cls-8"/><line y2="261.02" x2="85.96" y1="103.99" x1="85.96" class="cls-8"/><line y2="261.02" x2="79.4" y1="105.13" x1="79.4" class="cls-8"/><line y2="261.02" x2="72.84" y1="106.39" x1="72.84" class="cls-8"/><line y2="261.02" x2="53.15" y1="112.96" x1="53.15" class="cls-8"/><line y2="261.02" x2="105.64" y1="136.92" x1="105.64" class="cls-8"/><line y2="117.84" x2="105.64" y1="102.32" x1="105.64" class="cls-8"/><line y2="261.02" x2="99.08" y1="132.4" x1="99.08" class="cls-8"/><line y2="122.33" x2="99.08" y1="102.89" x1="99.08" class="cls-8"/><line y2="261.02" x2="59.71" y1="110.1" x1="59.71" class="cls-8"/><line y2="261.02" x2="92.52" y1="103.45" x1="92.52" class="cls-8"/><line y2="261.02" x2="112.2" y1="138.44" x1="112.2" class="cls-8"/><line y2="116.29" x2="112.2" y1="102.27" x1="112.2" class="cls-8"/><line y2="261.02" x2="118.76" y1="138.33" x1="118.76" class="cls-8"/><line y2="116.43" x2="118.76" y1="102.27" x1="118.76" class="cls-8"/><line y2="261.02" x2="125.32" y1="136.55" x1="125.32" class="cls-8"/><line y2="118.18" x2="125.32" y1="102.32" x1="125.32" class="cls-8"/><line y2="261.02" x2="138.45" y1="103.42" x1="138.45" class="cls-8"/><line y2="261.02" x2="145.01" y1="103.99" x1="145.01" class="cls-8"/><line y2="261.02" x2="131.89" y1="131.23" x1="131.89" class="cls-8"/><line y2="123.44" x2="131.89" y1="102.89" x1="131.89" class="cls-8"/><line y2="261.02" x2="171.25" y1="110.1" x1="171.25" class="cls-8"/><line y2="261.02" x2="151.57" y1="105.13" x1="151.57" class="cls-8"/><line y2="261.02" x2="158.13" y1="106.39" x1="158.13" class="cls-8"/><line y2="261.02" x2="164.69" y1="107.92" x1="164.69" class="cls-8"/><line y2="261.02" x2="177.81" y1="112.96" x1="177.81" class="cls-8"/><path d="M53.15,112.96c12.42-6.43,35.67-10.77,62.33-10.77s49.91,4.34,62.33,10.77" class="cls-8"/><path d="M115.09,138.45c-9.83,0-17.83-4.98-17.83-11.09s8-11.09,17.83-11.09,17.83,4.98,17.83,11.09-8,11.09-17.83,11.09Z" class="cls-1"/><ellipse ry="10.25" rx="16.99" cy="127.36" cx="115.09" class="cls-8"/><path d="M115.09,136.77c-8.9,0-16.14-4.22-16.14-9.41s7.24-9.41,16.14-9.41,16.14,4.22,16.14,9.41-7.24,9.41-16.14,9.41Z" class="cls-5"/></g></g></svg>