<svg viewBox="0 0 531.27 288" xmlns:xlink="http://www.w3.org/1999/xlink" xmlns="http://www.w3.org/2000/svg" id="Camada_2"><defs><style>.cls-1,.cls-2,.cls-3,.cls-4,.cls-5{fill:none;}.cls-2{stroke-dasharray:2.85 2.85;}.cls-2,.cls-3,.cls-4,.cls-5{stroke:#12100c;stroke-linecap:round;stroke-linejoin:round;}.cls-2,.cls-3,.cls-5{stroke-width:.3px;}.cls-6{fill:#12100c;}.cls-4{stroke-width:.3px;}.cls-5{stroke-dasharray:2.85 2.85 2.85 2.85;}</style><symbol viewBox="0 0 531.27 288" id="fundo_transparente"><rect height="288" width="531.27" x="0" class="cls-1"/></symbol></defs><g id="Nature"><g id="mesa_interpretativa"><use xlink:href="#fundo_transparente" height="288" width="531.27"/><g id="LINE"><line y2="151.67" x2="13.82" y1="283.83" x1="13.82" class="cls-4"/><rect height=".3" width="1.95" y="283.68" x="12.85" class="cls-6"/><rect height=".3" width="1.95" y="151.52" x="12.85" class="cls-6"/></g><g id="MTEXT"><path d="M3.78,230.19h5.29v.72h-4.54l.64,1.3h-.73l-.67-1.36v-.67Z"/><path d="M3.78,227.36h5.29v.72h-4.54l.64,1.3h-.73l-.67-1.36v-.67Z"/><path d="M3.92,223.66c.13-.25.32-.47.55-.65.23-.18.52-.32.85-.42.33-.1.69-.15,1.08-.15s.76.05,1.1.15.62.24.86.42c.24.18.43.4.56.65.13.25.2.52.2.83s-.07.57-.2.82-.32.47-.56.65c-.24.18-.53.32-.86.42-.33.1-.7.15-1.1.15s-.75-.05-1.08-.15c-.33-.1-.61-.24-.85-.42-.24-.18-.42-.4-.55-.65-.13-.25-.2-.53-.2-.83s.07-.58.2-.83ZM4.56,225.01c.1.16.23.29.41.41.18.11.38.2.63.27.24.07.51.1.81.1s.57-.03.82-.09c.25-.06.46-.15.64-.27.18-.12.32-.25.42-.41.1-.16.15-.33.15-.52s-.05-.37-.15-.53c-.1-.16-.24-.3-.42-.41-.18-.11-.39-.2-.64-.27-.25-.06-.52-.09-.82-.09s-.56.03-.81.09c-.25.06-.46.15-.63.26-.17.11-.31.25-.41.41-.1.16-.15.34-.15.53s.05.37.15.52Z"/><path d="M3.92,219.02c.13-.25.32-.47.55-.65.23-.18.52-.32.85-.42.33-.1.69-.15,1.08-.15s.76.05,1.1.15.62.24.86.42c.24.18.43.4.56.65.13.25.2.52.2.83s-.07.57-.2.82-.32.47-.56.65c-.24.18-.53.32-.86.42-.33.1-.7.15-1.1.15s-.75-.05-1.08-.15c-.33-.1-.61-.24-.85-.42-.24-.18-.42-.4-.55-.65-.13-.25-.2-.53-.2-.83s.07-.58.2-.83ZM4.56,220.37c.1.16.23.29.41.41.18.11.38.2.63.27.24.07.51.1.81.1s.57-.03.82-.09c.25-.06.46-.15.64-.27.18-.12.32-.25.42-.41.1-.16.15-.33.15-.52s-.05-.37-.15-.53c-.1-.16-.24-.3-.42-.41-.18-.11-.39-.2-.64-.27-.25-.06-.52-.09-.82-.09s-.56.03-.81.09c-.25.06-.46.15-.63.26-.17.11-.31.25-.41.41-.1.16-.15.34-.15.53s.05.37.15.52Z"/><path d="M5.42,214.19h.67c-.24-.11-.42-.26-.54-.45-.12-.18-.18-.4-.18-.63,0-.26.07-.48.2-.67.14-.19.33-.32.59-.41-.26-.11-.45-.27-.59-.46-.14-.2-.2-.43-.2-.7,0-.38.12-.67.37-.88.25-.21.61-.31,1.07-.31h2.25v.7h-2.16c-.29,0-.52.07-.69.2-.17.13-.25.31-.25.54,0,.12.02.22.07.32.05.1.11.18.2.26.09.07.19.13.32.16.12.04.26.06.4.06h2.11v.7h-2.16c-.14,0-.27.02-.38.06-.12.04-.22.09-.3.15-.08.06-.14.14-.19.23-.04.09-.07.2-.07.31s.02.22.07.32c.05.1.12.18.21.25.09.07.2.12.32.17.12.04.26.06.41.06h2.09v.7h-3.64v-.68Z"/><path d="M5.42,208.01h.67c-.24-.11-.42-.26-.54-.45-.12-.18-.18-.4-.18-.63,0-.26.07-.48.2-.67.14-.19.33-.32.59-.41-.26-.11-.45-.27-.59-.46-.14-.2-.2-.43-.2-.7,0-.38.12-.67.37-.88.25-.21.61-.31,1.07-.31h2.25v.7h-2.16c-.29,0-.52.07-.69.2-.17.13-.25.31-.25.54,0,.12.02.22.07.32.05.1.11.18.2.26.09.07.19.13.32.16.12.04.26.06.4.06h2.11v.7h-2.16c-.14,0-.27.02-.38.06-.12.04-.22.09-.3.15-.08.06-.14.14-.19.23-.04.09-.07.2-.07.31s.02.22.07.32c.05.1.12.18.21.25.09.07.2.12.32.17.12.04.26.06.41.06h2.09v.7h-3.64v-.68Z"/></g><g id="LINE-2"><line y2="44.25" x2="13.82" y1="122.83" x1="13.82" class="cls-4"/><rect height=".3" width="1.95" y="122.68" x="12.85" class="cls-6"/><rect height=".3" width="1.95" y="44.1" x="12.85" class="cls-6"/></g><g id="MTEXT-2"><path d="M8.94,95.48c-.12.24-.29.44-.51.61-.22.17-.5.3-.82.39s-.69.14-1.09.14-.8-.05-1.15-.15c-.35-.1-.64-.24-.89-.43-.25-.18-.43-.41-.56-.67-.13-.26-.2-.55-.2-.88,0-.37.09-.7.27-.97.18-.27.43-.47.76-.59l.29.64c-.21.07-.37.18-.48.34-.11.16-.17.35-.17.56,0,.2.05.38.14.55s.23.31.4.44c.17.13.37.22.61.29s.49.1.77.1h.17c.06,0,.1,0,.15,0-.25-.08-.45-.23-.59-.45-.14-.22-.21-.48-.21-.79,0-.24.04-.46.12-.65.08-.2.19-.36.34-.5.15-.14.32-.25.52-.33.2-.08.42-.12.66-.12s.47.04.68.13c.21.08.38.2.53.35.14.15.26.32.34.53s.12.43.12.68c0,.3-.06.57-.18.81ZM8.37,94.31c-.05-.12-.12-.22-.21-.3-.09-.08-.19-.15-.31-.2-.12-.05-.26-.07-.41-.07s-.29.02-.41.07c-.12.05-.23.12-.32.2s-.16.19-.21.31-.07.25-.07.4.02.27.07.39.12.22.2.31c.09.09.19.15.31.2.12.05.25.07.4.07s.28-.03.41-.08.24-.12.34-.21.17-.2.22-.32c.05-.12.08-.26.08-.4s-.03-.26-.08-.38Z"/><path d="M3.78,89.27h.65v1.92l1.54.25c-.09-.1-.16-.22-.21-.36-.05-.14-.07-.29-.07-.46,0-.25.04-.47.13-.68.08-.21.2-.38.35-.53.15-.15.33-.27.54-.35.21-.08.44-.12.69-.12s.48.04.7.13c.21.09.4.21.55.36.15.16.27.34.36.56.08.21.13.45.13.71,0,.2-.03.39-.08.58s-.13.35-.23.5c-.1.15-.22.28-.36.39-.14.11-.3.19-.48.24l-.31-.63c.24-.07.43-.19.56-.39.14-.19.21-.42.21-.67,0-.15-.03-.29-.08-.41-.05-.13-.12-.23-.21-.33-.09-.09-.2-.16-.33-.21-.13-.05-.27-.08-.43-.08s-.3.03-.44.08c-.13.05-.25.13-.34.22s-.17.21-.22.34c-.05.13-.08.28-.08.44,0,.18.04.35.1.49.07.14.17.26.31.36l-.15.62-2.79-.47v-2.52Z"/><path d="M3.78,85.29h.65v1.92l1.54.25c-.09-.1-.16-.22-.21-.36-.05-.14-.07-.29-.07-.46,0-.25.04-.47.13-.68.08-.21.2-.38.35-.53.15-.15.33-.27.54-.35.21-.08.44-.12.69-.12s.48.04.7.13c.21.09.4.21.55.36.15.16.27.34.36.56.08.21.13.45.13.71,0,.2-.03.39-.08.58s-.13.35-.23.5c-.1.15-.22.28-.36.39-.14.11-.3.19-.48.24l-.31-.63c.24-.07.43-.19.56-.39.14-.19.21-.42.21-.67,0-.15-.03-.29-.08-.41-.05-.13-.12-.23-.21-.33-.09-.09-.2-.16-.33-.21-.13-.05-.27-.08-.43-.08s-.3.03-.44.08c-.13.05-.25.13-.34.22s-.17.21-.22.34c-.05.13-.08.28-.08.44,0,.18.04.35.1.49.07.14.17.26.31.36l-.15.62-2.79-.47v-2.52Z"/><path d="M5.42,81.35h.67c-.24-.11-.42-.26-.54-.45-.12-.18-.18-.4-.18-.63,0-.26.07-.48.2-.67.14-.19.33-.32.59-.41-.26-.11-.45-.27-.59-.46-.14-.2-.2-.43-.2-.7,0-.38.12-.67.37-.88.25-.21.61-.31,1.07-.31h2.25v.7h-2.16c-.29,0-.52.07-.69.2-.17.13-.25.31-.25.54,0,.12.02.22.07.32.05.1.11.18.2.26.09.07.19.13.32.16.12.04.26.06.4.06h2.11v.7h-2.16c-.14,0-.27.02-.38.06-.12.04-.22.09-.3.15-.08.06-.14.14-.19.23-.04.09-.07.2-.07.31s.02.22.07.32c.05.1.12.18.21.25.09.07.2.12.32.17.12.04.26.06.41.06h2.09v.7h-3.64v-.68Z"/><path d="M5.42,75.17h.67c-.24-.11-.42-.26-.54-.45-.12-.18-.18-.4-.18-.63,0-.26.07-.48.2-.67.14-.19.33-.32.59-.41-.26-.11-.45-.27-.59-.46-.14-.2-.2-.43-.2-.7,0-.38.12-.67.37-.88.25-.21.61-.31,1.07-.31h2.25v.7h-2.16c-.29,0-.52.07-.69.2-.17.13-.25.31-.25.54,0,.12.02.22.07.32.05.1.11.18.2.26.09.07.19.13.32.16.12.04.26.06.4.06h2.11v.7h-2.16c-.14,0-.27.02-.38.06-.12.04-.22.09-.3.15-.08.06-.14.14-.19.23-.04.09-.07.2-.07.31s.02.22.07.32c.05.1.12.18.21.25.09.07.2.12.32.17.12.04.26.06.41.06h2.09v.7h-3.64v-.68Z"/></g><g id="LINE-3"><line y2="30.73" x2="172.35" y1="30.73" x1="28.15" class="cls-4"/><rect height="1.95" width=".3" y="29.75" x="28" class="cls-6"/><rect height="1.95" width=".3" y="29.75" x="172.2" class="cls-6"/></g><g id="MTEXT-3"><path d="M87.21,20.68v5.29h-.72v-4.54l-1.3.64v-.73l1.36-.67h.67Z"/><path d="M90.39,20.74c.21.08.39.19.54.33s.27.31.35.51c.08.2.13.42.13.67,0,.14-.02.28-.05.42-.03.14-.08.28-.15.41-.07.14-.16.27-.27.42-.11.14-.24.29-.39.45l-1.31,1.35h2.29v.67h-3.32v-.59l1.79-1.85c.12-.12.22-.23.3-.33.08-.1.15-.21.2-.3s.09-.19.11-.29c.02-.09.03-.19.03-.29,0-.15-.02-.28-.07-.4-.04-.12-.11-.23-.2-.32-.09-.09-.19-.16-.3-.21-.12-.05-.25-.07-.39-.07-.25,0-.47.08-.65.23-.18.15-.31.36-.39.63l-.67-.23c.12-.42.32-.74.62-.97s.66-.34,1.1-.34c.25,0,.48.04.69.12Z"/><path d="M94.94,20.82c.25.13.47.32.65.55s.32.52.42.85c.1.33.15.69.15,1.08s-.05.76-.15,1.1-.24.62-.42.86c-.18.24-.4.43-.64.56-.25.13-.52.2-.83.2s-.57-.07-.82-.2-.47-.32-.65-.56c-.18-.24-.32-.53-.42-.86s-.15-.7-.15-1.1.05-.75.15-1.08c.1-.33.24-.61.42-.85.18-.24.39-.42.65-.55.25-.13.53-.2.83-.2s.58.07.83.2ZM93.58,21.46c-.16.1-.29.23-.41.41-.11.18-.2.38-.27.63-.07.24-.1.51-.1.81s.03.57.09.82c.06.25.15.46.27.64.12.18.25.32.41.42.16.1.33.15.52.15s.37-.05.53-.15c.16-.1.3-.24.41-.42.11-.18.2-.39.27-.64.06-.25.09-.52.09-.82s-.03-.56-.09-.81c-.06-.25-.15-.46-.26-.63-.11-.17-.25-.31-.41-.41-.16-.1-.34-.15-.53-.15s-.37.05-.52.15Z"/><path d="M99.57,20.82c.25.13.46.32.64.55.18.23.32.52.42.85.1.33.15.69.15,1.08s-.05.76-.15,1.1-.24.62-.42.86c-.18.24-.4.43-.65.56s-.52.2-.83.2-.57-.07-.82-.2-.47-.32-.65-.56c-.18-.24-.32-.53-.42-.86-.1-.33-.15-.7-.15-1.1s.05-.75.15-1.08c.1-.33.24-.61.42-.85.18-.24.4-.42.65-.55.25-.13.53-.2.83-.2s.58.07.83.2ZM98.22,21.46c-.16.1-.29.23-.41.41-.12.18-.21.38-.27.63-.07.24-.1.51-.1.81s.03.57.09.82c.06.25.15.46.27.64.12.18.25.32.41.42.16.1.33.15.52.15s.37-.05.53-.15c.16-.1.3-.24.41-.42.12-.18.2-.39.27-.64.06-.25.09-.52.09-.82s-.03-.56-.09-.81c-.06-.25-.15-.46-.26-.63-.11-.17-.25-.31-.41-.41-.16-.1-.34-.15-.53-.15s-.37.05-.52.15Z"/><path d="M104.4,22.33v.67c.11-.24.26-.42.45-.54.18-.12.4-.18.63-.18.26,0,.48.07.67.2.19.14.32.33.41.59.11-.26.27-.45.46-.59.2-.14.43-.2.7-.2.38,0,.67.12.88.37.21.25.31.61.31,1.07v2.25h-.7v-2.16c0-.29-.07-.52-.2-.69-.13-.17-.31-.25-.54-.25-.12,0-.22.02-.32.07-.1.05-.18.11-.26.2-.07.09-.13.19-.17.32-.04.12-.06.26-.06.4v2.11h-.7v-2.16c0-.14-.02-.27-.06-.38s-.09-.22-.15-.3c-.06-.08-.14-.14-.23-.19-.09-.04-.2-.07-.31-.07s-.22.02-.32.07c-.1.05-.18.12-.25.21-.07.09-.12.2-.17.32-.04.12-.06.26-.06.41v2.09h-.7v-3.64h.68Z"/><path d="M110.58,22.33v.67c.11-.24.26-.42.45-.54.18-.12.4-.18.63-.18.26,0,.48.07.67.2.19.14.32.33.41.59.11-.26.27-.45.46-.59.2-.14.43-.2.7-.2.38,0,.67.12.88.37.21.25.31.61.31,1.07v2.25h-.7v-2.16c0-.29-.07-.52-.2-.69-.13-.17-.31-.25-.54-.25-.12,0-.22.02-.32.07-.1.05-.18.11-.26.2-.07.09-.13.19-.17.32-.04.12-.06.26-.06.4v2.11h-.7v-2.16c0-.14-.02-.27-.06-.38s-.09-.22-.15-.3c-.06-.08-.14-.14-.23-.19-.09-.04-.2-.07-.31-.07s-.22.02-.32.07c-.1.05-.18.12-.25.21-.07.09-.12.2-.17.32-.04.12-.06.26-.06.41v2.09h-.7v-3.64h.68Z"/></g><rect ry=".48" rx=".48" height="78.27" width="144.5" y="44.9" x="28" class="cls-4"/><ellipse ry=".72" rx=".72" cy="80.49" cx="31.6" class="cls-4"/><ellipse ry=".72" rx=".72" cy="87.58" cx="31.6" class="cls-4"/><ellipse ry=".72" rx=".72" cy="80.49" cx="169.02" class="cls-4"/><ellipse ry=".72" rx=".72" cy="87.58" cx="169.02" class="cls-4"/><g id="LINE-4"><polyline points="28 173.39 28 283.98 37.63 283.98 37.63 173.61" class="cls-4"/></g><g id="LINE-5"><polyline points="162.87 173.61 162.87 283.89 172.5 283.89 172.5 173.31" class="cls-4"/></g><g id="LWPOLYLINE"><polyline points="28 171.83 28.02 171.89 28.09 171.94 28.2 172 28.35 172.04 28.53 172.08 28.74 172.11 28.97 172.13 29.2 172.13 171.3 172.13 171.53 172.13 171.76 172.11 171.96 172.08 172.15 172.04 172.3 172 172.41 171.94 172.48 171.89 172.5 171.83" class="cls-4"/></g><g id="LWPOLYLINE-2"><polygon points="29.2 173.61 28.97 173.61 28.74 173.59 28.53 173.56 28.35 173.52 28.2 173.48 28.09 173.42 28.02 173.37 28 173.31 28 171.83 28 151.82 28.02 151.76 28.09 151.71 28.2 151.65 28.35 151.61 28.53 151.57 28.74 151.54 28.97 151.52 29.2 151.52 171.3 151.52 171.53 151.52 171.76 151.54 171.96 151.57 172.15 151.61 172.3 151.65 172.41 151.71 172.48 151.76 172.5 151.82 172.5 171.83 172.5 173.31 172.48 173.37 172.41 173.42 172.3 173.48 172.15 173.52 171.96 173.56 171.76 173.59 171.53 173.61 171.3 173.61 29.2 173.61" class="cls-4"/></g><ellipse ry=".19" rx=".75" cy="160.45" cx="31.61" class="cls-4"/><ellipse ry=".19" rx=".75" cy="163.81" cx="31.61" class="cls-4"/><ellipse ry=".19" rx=".75" cy="160.45" cx="168.89" class="cls-4"/><ellipse ry=".19" rx=".75" cy="163.81" cx="168.89" class="cls-4"/><polyline points="232.98 165.88 232.98 283.98 251.91 283.98 251.91 160.8" class="cls-4"/><polygon points="206.15 173.07 281.02 153 280.63 151.52 204.99 171.9 204.81 171.94 205.23 173.29 206.15 173.07" class="cls-4"/><path d="M216.84,158.66l-5.25.64-.09-.72,4.5-.55-.8-1.22.72-.09.82,1.27.08.66Z"/><path d="M217.32,162.58l-.65.08-.23-1.91-1.56-.06c.1.09.19.2.26.33.06.13.11.28.13.45.03.25.02.48-.04.69-.06.21-.15.4-.28.57-.13.17-.29.3-.49.41-.2.11-.42.17-.67.21-.25.03-.49.02-.71-.04s-.42-.16-.59-.3c-.17-.14-.31-.31-.42-.51-.11-.2-.18-.43-.21-.69-.02-.2-.02-.39,0-.58s.08-.36.17-.52c.08-.16.19-.3.31-.43.13-.13.28-.23.45-.3l.38.59c-.23.09-.4.24-.51.45s-.15.44-.12.69c.02.15.06.28.13.4.07.12.15.22.25.3.1.08.22.14.35.17.13.04.28.04.44.02s.3-.06.43-.13c.12-.07.23-.16.31-.26.08-.11.14-.23.18-.37.04-.14.05-.29.03-.45-.02-.18-.08-.34-.16-.47-.09-.13-.2-.24-.35-.32l.07-.64,2.82.13.3,2.5Z"/><path d="M217.6,165.14c-.04.15-.1.29-.19.41-.09.12-.2.21-.32.29-.13.08-.27.12-.43.14-.16.02-.32,0-.46-.03-.15-.04-.28-.11-.39-.2-.11-.09-.21-.21-.28-.35-.08-.14-.13-.29-.15-.45-.02-.16,0-.32.03-.47.04-.15.11-.29.2-.41.09-.12.2-.21.33-.29.13-.08.27-.12.43-.14.16-.02.31,0,.45.04.14.05.27.11.39.21.12.09.21.21.28.35.07.14.12.29.14.45.02.16.01.32-.03.47ZM217.08,164.47c-.04-.08-.1-.14-.17-.2-.07-.05-.14-.09-.23-.12-.08-.02-.17-.03-.27-.02-.09.01-.17.04-.24.08-.08.04-.14.1-.19.17-.05.07-.09.15-.12.23-.03.09-.03.18-.02.27.01.09.04.18.08.25.04.08.1.14.16.2.07.05.14.09.23.12.08.02.17.03.26.02.1-.01.18-.04.26-.08.07-.04.14-.1.19-.17.05-.07.09-.14.11-.23.02-.09.03-.17.02-.27-.01-.09-.04-.18-.08-.26Z"/><line y2="151.45" x2="279.3" y1="151.45" x1="280.72" class="cls-3"/><line y2="151.45" x2="272.17" y1="151.45" x1="276.45" class="cls-2"/><line y2="151.45" x2="203.69" y1="151.45" x1="270.74" class="cls-5"/><line y2="151.45" x2="200.85" y1="151.45" x1="202.26" class="cls-3"/><path d="M213.78,169.47c-2.72-1.9-4.51-5.77-4.51-10.31,0-3.05.8-5.65,2.18-7.72" class="cls-4"/></g></g></svg>