<svg viewBox="0 0 531.26 288" xmlns:xlink="http://www.w3.org/1999/xlink" xmlns="http://www.w3.org/2000/svg" id="Urban"><defs><style>.cls-1,.cls-2{fill:none;}.cls-3{fill:#12100c;}.cls-2{stroke:#12100c;stroke-linecap:round;stroke-linejoin:round;stroke-width:.3px;}</style><symbol viewBox="0 0 531.27 288" id="fundo_transparente"><rect height="288" width="531.27" x="0" class="cls-1"/></symbol></defs><g id="Plaza"><g id="Camada_377"><use xlink:href="#fundo_transparente" transform="translate(0)" height="288" width="531.27"/><rect height="5.28" width="10.09" y="206.59" x="366.33" class="cls-2"/><rect height="70.44" width="10.09" y="211.87" x="366.33" class="cls-2"/><rect height="5.28" width="10.09" y="206.59" x="28.27" class="cls-2"/><rect height="70.44" width="10.09" y="211.87" x="28.27" class="cls-2"/><polygon points="172.89 231.75 172.89 240.17 172.77 240.05 172.59 240 172.35 239.94 172.11 239.94 171.82 239.88 170.57 239.88 170.33 239.94 170.04 239.94 169.86 240 169.68 240.05 169.56 240.11 169.56 231.45 169.68 231.15 169.86 230.86 170.04 230.62 170.33 230.44 170.57 230.26 170.93 230.2 171.22 230.14 171.52 230.2 171.82 230.26 172.11 230.44 172.35 230.62 172.59 230.86 172.77 231.15 172.83 231.45 172.89 231.75" class="cls-2"/><polygon points="172.89 240.17 172.89 282.3 169.56 282.3 169.56 240.11 169.68 240.05 169.86 240 170.04 239.94 170.33 239.94 170.57 239.88 171.82 239.88 172.11 239.94 172.35 239.94 172.59 240 172.77 240.05 172.89 240.17" class="cls-2"/><polygon points="235.19 231.75 235.19 240.17 235.07 240.05 234.9 240 234.66 239.94 234.42 239.94 234.12 239.88 232.88 239.88 232.58 239.94 232.34 239.94 232.17 240 231.99 240.05 231.87 240.11 231.81 240.17 231.81 231.75 231.87 231.45 231.99 231.15 232.17 230.86 232.34 230.62 232.58 230.44 232.88 230.26 233.17 230.2 233.53 230.14 233.83 230.2 234.12 230.26 234.42 230.44 234.66 230.62 234.9 230.86 235.07 231.15 235.13 231.45 235.19 231.75" class="cls-2"/><rect height="3.32" width="58.92" y="262.13" x="172.89" class="cls-2"/><polygon points="235.19 240.17 235.19 282.3 231.81 282.3 231.81 240.17 231.87 240.11 231.99 240.05 232.17 240 232.34 239.94 232.58 239.94 232.88 239.88 234.12 239.88 234.42 239.94 234.66 239.94 234.9 240 235.07 240.05 235.19 240.17" class="cls-2"/><polygon points="248.66 231.75 248.66 240.17 248.6 240.11 248.48 240.05 248.37 240 248.13 239.94 247.89 239.94 247.59 239.88 246.35 239.88 246.05 239.94 245.81 239.94 245.58 240 245.46 240.05 245.34 240.11 245.28 240.17 245.28 231.75 245.34 231.45 245.46 231.15 245.58 230.86 245.81 230.62 246.05 230.44 246.35 230.26 246.94 230.14 247.3 230.2 247.59 230.26 247.89 230.44 248.13 230.62 248.37 230.86 248.48 231.15 248.6 231.45 248.66 231.75" class="cls-2"/><polygon points="248.66 240.17 248.66 282.3 245.28 282.3 245.28 240.17 245.34 240.11 245.46 240.05 245.58 240 245.81 239.94 246.05 239.94 246.35 239.88 247.59 239.88 247.89 239.94 248.13 239.94 248.37 240 248.48 240.05 248.6 240.11 248.66 240.17" class="cls-2"/><polygon points="97.17 231.75 97.17 240.17 97.11 240.11 96.99 240.05 96.81 240 96.63 239.94 96.39 239.94 96.1 239.88 94.85 239.88 94.56 239.94 94.32 239.94 94.08 240 93.96 240.05 93.84 240.11 93.78 240.17 93.78 231.75 93.84 231.45 93.96 231.15 94.08 230.86 94.32 230.62 94.56 230.44 94.85 230.26 95.15 230.2 95.45 230.14 95.8 230.2 96.1 230.26 96.39 230.44 96.63 230.62 96.81 230.86 96.99 231.15 97.11 231.45 97.17 231.75" class="cls-2"/><polygon points="97.17 240.17 97.17 282.3 93.78 282.3 93.78 240.17 93.84 240.11 93.96 240.05 94.08 240 94.32 239.94 94.56 239.94 94.85 239.88 96.1 239.88 96.39 239.94 96.63 239.94 96.81 240 96.99 240.05 97.11 240.11 97.17 240.17" class="cls-2"/><polygon points="83.7 231.75 83.7 240.17 83.64 240.11 83.52 240.05 83.4 240 83.16 239.94 82.92 239.94 82.63 239.88 81.38 239.88 81.09 239.94 80.85 239.94 80.61 240 80.49 240.05 80.37 240.11 80.31 240.17 80.31 231.75 80.37 231.45 80.49 231.15 80.61 230.86 80.85 230.62 81.09 230.44 81.38 230.26 81.68 230.2 82.04 230.14 82.63 230.26 82.92 230.44 83.16 230.62 83.4 230.86 83.52 231.15 83.64 231.45 83.7 231.75" class="cls-2"/><rect height="3.32" width="41.95" y="262.13" x="38.36" class="cls-2"/><polygon points="83.7 240.17 83.7 282.3 80.31 282.3 80.31 240.17 80.37 240.11 80.49 240.05 80.61 240 80.85 239.94 81.09 239.94 81.38 239.88 82.63 239.88 82.92 239.94 83.16 239.94 83.4 240 83.52 240.05 83.64 240.11 83.7 240.17" class="cls-2"/><polygon points="159.41 231.45 159.41 240.11 159.3 240.05 159.12 240 158.94 239.94 158.64 239.94 158.41 239.88 157.16 239.88 156.86 239.94 156.63 239.94 156.39 240 156.21 240.05 156.09 240.17 156.09 231.75 156.15 231.45 156.21 231.15 156.39 230.86 156.63 230.62 156.86 230.44 157.16 230.26 157.46 230.2 157.75 230.14 158.05 230.2 158.41 230.26 158.64 230.44 158.94 230.62 159.12 230.86 159.3 231.15 159.41 231.45" class="cls-2"/><rect height="3.32" width="58.92" y="262.13" x="97.17" class="cls-2"/><polygon points="159.41 240.11 159.41 282.3 156.09 282.3 156.09 240.17 156.21 240.05 156.39 240 156.63 239.94 156.86 239.94 157.16 239.88 158.41 239.88 158.64 239.94 158.94 239.94 159.12 240 159.3 240.05 159.41 240.11" class="cls-2"/><polygon points="310.97 231.75 310.97 240.17 310.91 240.11 310.79 240.05 310.61 240 310.43 239.94 310.2 239.94 309.9 239.88 308.65 239.88 308.36 239.94 308.12 239.94 307.88 240 307.76 240.05 307.65 240.11 307.59 240.17 307.59 231.75 307.65 231.45 307.76 231.15 307.88 230.86 308.12 230.62 308.36 230.44 308.65 230.26 309.25 230.14 309.6 230.2 309.9 230.26 310.2 230.44 310.43 230.62 310.61 230.86 310.79 231.15 310.91 231.45 310.97 231.75" class="cls-2"/><rect height="3.32" width="58.92" y="262.13" x="248.66" class="cls-2"/><polygon points="310.97 240.17 310.97 282.3 307.59 282.3 307.59 240.17 307.65 240.11 307.76 240.05 307.88 240 308.12 239.94 308.36 239.94 308.65 239.88 309.9 239.88 310.2 239.94 310.43 239.94 310.61 240 310.79 240.05 310.91 240.11 310.97 240.17" class="cls-2"/><polygon points="324.44 231.45 324.44 240.11 324.32 240.05 324.14 240 323.96 239.94 323.67 239.94 323.43 239.88 322.18 239.88 321.89 239.94 321.65 239.94 321.41 240 321.24 240.05 321.12 240.17 321.12 231.75 321.18 231.45 321.24 231.15 321.41 230.86 321.65 230.62 321.89 230.44 322.18 230.26 322.48 230.2 322.78 230.14 323.07 230.2 323.43 230.26 323.67 230.44 323.96 230.62 324.14 230.86 324.32 231.15 324.44 231.45" class="cls-2"/><polygon points="324.44 240.11 324.44 282.3 321.12 282.3 321.12 240.17 321.24 240.05 321.41 240 321.65 239.94 321.89 239.94 322.18 239.88 323.43 239.88 323.67 239.94 323.96 239.94 324.14 240 324.32 240.05 324.44 240.11" class="cls-2"/><rect height="3.32" width="41.89" y="262.13" x="324.44" class="cls-2"/><rect height="3.38" width="41.89" y="274.71" x="324.44" class="cls-2"/><rect height="3.38" width="41.95" y="249.49" x="38.36" class="cls-2"/><rect height="3.38" width="10.09" y="249.49" x="83.7" class="cls-2"/><rect height="3.38" width="58.92" y="249.49" x="97.17" class="cls-2"/><rect height="3.38" width="10.15" y="249.49" x="159.41" class="cls-2"/><rect height="3.38" width="58.92" y="249.49" x="172.89" class="cls-2"/><rect height="3.38" width="10.09" y="249.49" x="235.19" class="cls-2"/><rect height="3.38" width="58.92" y="249.49" x="248.66" class="cls-2"/><rect height="3.38" width="10.15" y="249.49" x="310.97" class="cls-2"/><rect height="3.38" width="41.89" y="249.49" x="324.44" class="cls-2"/><rect height="3.38" width="10.15" y="274.71" x="310.97" class="cls-2"/><rect height="3.38" width="58.92" y="274.71" x="248.66" class="cls-2"/><rect height="3.38" width="10.09" y="274.71" x="235.19" class="cls-2"/><rect height="3.38" width="58.92" y="274.71" x="172.89" class="cls-2"/><rect height="3.38" width="10.15" y="274.71" x="159.41" class="cls-2"/><rect height="3.38" width="58.92" y="274.71" x="97.17" class="cls-2"/><rect height="3.38" width="10.09" y="274.71" x="83.7" class="cls-2"/><rect height="3.38" width="41.95" y="274.71" x="38.36" class="cls-2"/><rect height="3.32" width="10.09" y="262.13" x="83.7" class="cls-2"/><rect height="3.32" width="10.15" y="262.13" x="159.41" class="cls-2"/><rect height="3.32" width="10.09" y="262.13" x="235.19" class="cls-2"/><rect height="3.32" width="10.15" y="262.13" x="310.97" class="cls-2"/><path d="M38.36,162.17h-10.09M376.42,162.17h-10.09M156.09,70.37h-58.92M156.09,73.69h-58.92M156.09,74.82h-58.92M156.09,78.14h-58.92M28.27,162.17v-.06M38.36,162.17v-.06M366.33,162.17v-.06M376.42,162.17v-.06" class="cls-2"/><rect height="3.38" width="58.92" y="153.8" x="172.89" class="cls-2"/><rect height="3.38" width="10.09" y="153.8" x="235.19" class="cls-2"/><polygon points="235.19 154.99 235.19 162.64 235.07 162.94 234.95 163.18 234.78 163.41 234.6 163.65 234.36 163.83 234.06 163.95 233.83 164.01 233.53 164.07 233.23 164.01 232.94 163.95 232.7 163.83 232.46 163.65 232.23 163.41 232.05 163.18 231.93 162.94 231.81 162.35 231.81 154.99 231.87 155.28 231.99 155.58 232.17 155.88 232.34 156.12 232.58 156.29 233.17 156.53 233.83 156.53 234.12 156.41 234.42 156.29 234.66 156.12 234.9 155.88 235.07 155.58 235.19 154.99" class="cls-2"/><polygon points="248.66 154.99 248.66 162.35 248.6 162.64 248.54 162.94 248.42 163.18 248.25 163.41 248.07 163.65 247.83 163.83 247.53 163.95 247.24 164.01 246.94 164.07 246.7 164.01 246.41 163.95 246.11 163.83 245.87 163.65 245.69 163.41 245.52 163.18 245.4 162.94 245.34 162.64 245.28 162.35 245.28 154.99 245.34 155.28 245.58 155.88 245.81 156.12 246.05 156.29 246.35 156.41 246.64 156.53 247.3 156.53 247.89 156.29 248.13 156.12 248.37 155.88 248.6 155.28 248.66 154.99" class="cls-2"/><rect height="3.38" width="58.92" y="153.8" x="248.66" class="cls-2"/><rect height="3.38" width="10.15" y="153.8" x="310.97" class="cls-2"/><polygon points="310.97 154.99 310.97 162.35 310.91 162.64 310.85 162.94 310.73 163.18 310.55 163.41 310.38 163.65 310.08 163.83 309.84 163.95 309.54 164.01 309.25 164.07 308.95 164.01 308.71 163.95 308.42 163.83 308.18 163.65 308 163.41 307.82 163.18 307.71 162.94 307.59 162.64 307.59 154.99 307.65 155.28 307.88 155.88 308.12 156.12 308.36 156.29 308.65 156.41 308.95 156.53 309.6 156.53 310.2 156.29 310.43 156.12 310.61 155.88 310.79 155.58 310.91 155.28 310.97 154.99" class="cls-2"/><polygon points="324.44 67.11 324.44 74.46 324.32 74.17 324.14 73.87 323.96 73.63 323.67 73.46 323.43 73.28 323.07 73.22 322.78 73.16 322.18 73.28 321.89 73.46 321.65 73.63 321.41 73.87 321.24 74.17 321.12 74.76 321.12 67.11 321.18 66.81 321.35 66.57 321.47 66.33 321.71 66.1 321.95 65.92 322.18 65.8 322.48 65.74 322.78 65.68 323.07 65.74 323.37 65.8 323.61 65.92 323.85 66.1 324.08 66.33 324.26 66.57 324.38 66.81 324.44 67.11" class="cls-2"/><rect height="3.32" width="10.15" y="70.37" x="310.97" class="cls-2"/><rect height="3.32" width="10.15" y="74.82" x="310.97" class="cls-2"/><polygon points="310.97 67.4 310.97 74.76 310.91 74.46 310.79 74.17 310.61 73.87 310.43 73.63 310.2 73.46 309.9 73.28 309.6 73.22 309.25 73.16 308.65 73.28 308.36 73.46 308.12 73.63 307.88 73.87 307.65 74.46 307.59 74.76 307.59 67.11 307.71 66.81 307.82 66.57 308 66.33 308.18 66.1 308.42 65.92 308.71 65.8 308.95 65.74 309.25 65.68 309.54 65.74 309.84 65.8 310.08 65.92 310.38 66.1 310.55 66.33 310.73 66.57 310.85 66.81 310.91 67.11 310.97 67.4" class="cls-2"/><rect height="3.32" width="58.92" y="70.37" x="248.66" class="cls-2"/><rect height="3.32" width="58.92" y="74.82" x="248.66" class="cls-2"/><polygon points="248.66 67.4 248.66 74.76 248.6 74.46 248.37 73.87 248.13 73.63 247.89 73.46 247.59 73.28 247.3 73.22 246.94 73.16 246.35 73.28 246.05 73.46 245.81 73.63 245.58 73.87 245.46 74.17 245.34 74.46 245.28 74.76 245.28 67.4 245.34 67.11 245.4 66.81 245.52 66.57 245.69 66.33 245.87 66.1 246.11 65.92 246.41 65.8 246.7 65.74 246.94 65.68 247.24 65.74 247.53 65.8 247.83 65.92 248.07 66.1 248.25 66.33 248.42 66.57 248.54 66.81 248.6 67.11 248.66 67.4" class="cls-2"/><rect height="3.32" width="10.09" y="70.37" x="235.19" class="cls-2"/><rect height="3.32" width="10.09" y="74.82" x="235.19" class="cls-2"/><polygon points="235.19 67.11 235.19 74.76 235.07 74.17 234.9 73.87 234.66 73.63 234.42 73.46 234.12 73.28 233.53 73.16 233.17 73.22 232.88 73.28 232.58 73.46 232.34 73.63 232.17 73.87 231.99 74.17 231.87 74.46 231.81 74.76 231.81 67.4 231.93 66.81 232.05 66.57 232.23 66.33 232.46 66.1 232.7 65.92 232.94 65.8 233.23 65.74 233.53 65.68 233.83 65.74 234.06 65.8 234.36 65.92 234.6 66.1 234.78 66.33 234.95 66.57 235.07 66.81 235.19 67.11" class="cls-2"/><rect height="3.32" width="58.92" y="74.82" x="172.89" class="cls-2"/><rect height="3.32" width="58.92" y="70.37" x="172.89" class="cls-2"/><polygon points="172.89 67.11 172.89 74.76 172.77 74.17 172.59 73.87 172.35 73.63 172.11 73.46 171.82 73.28 171.52 73.22 171.22 73.16 170.93 73.22 170.57 73.28 170.33 73.46 170.04 73.63 169.86 73.87 169.68 74.17 169.56 74.46 169.56 67.11 169.62 66.81 169.74 66.57 169.92 66.33 170.15 66.1 170.39 65.92 170.63 65.8 170.93 65.74 171.22 65.68 171.52 65.74 171.82 65.8 172.05 65.92 172.29 66.1 172.53 66.33 172.65 66.57 172.83 66.81 172.89 67.11" class="cls-2"/><polygon points="159.41 67.11 159.41 74.46 159.3 74.17 159.12 73.87 158.94 73.63 158.64 73.46 158.41 73.28 158.05 73.22 157.75 73.16 157.46 73.22 157.16 73.28 156.86 73.46 156.63 73.63 156.39 73.87 156.21 74.17 156.09 74.76 156.09 67.11 156.15 66.81 156.33 66.57 156.45 66.33 156.68 66.1 156.92 65.92 157.16 65.8 157.46 65.74 157.75 65.68 158.05 65.74 158.35 65.8 158.58 65.92 158.82 66.1 159.06 66.33 159.24 66.57 159.36 66.81 159.41 67.11" class="cls-2"/><rect height="3.32" width="10.15" y="70.37" x="159.41" class="cls-2"/><rect height="3.32" width="10.15" y="74.82" x="159.41" class="cls-2"/><rect height="3.38" width="10.15" y="153.8" x="159.41" class="cls-2"/><polygon points="159.41 74.46 159.41 155.28 159.3 155.58 159.12 155.88 158.94 156.12 158.64 156.29 158.41 156.41 158.05 156.53 157.46 156.53 156.86 156.29 156.63 156.12 156.39 155.88 156.21 155.58 156.09 154.99 156.09 74.76 156.21 74.17 156.39 73.87 156.63 73.63 156.86 73.46 157.16 73.28 157.46 73.22 157.75 73.16 158.05 73.22 158.41 73.28 158.64 73.46 158.94 73.63 159.12 73.87 159.3 74.17 159.41 74.46" class="cls-2"/><polygon points="172.89 74.76 172.89 154.99 172.77 155.58 172.59 155.88 172.35 156.12 172.11 156.29 171.82 156.41 171.52 156.53 170.93 156.53 170.57 156.41 170.33 156.29 170.04 156.12 169.86 155.88 169.68 155.58 169.56 155.28 169.56 74.46 169.68 74.17 169.86 73.87 170.04 73.63 170.33 73.46 170.57 73.28 170.93 73.22 171.22 73.16 171.52 73.22 171.82 73.28 172.11 73.46 172.35 73.63 172.59 73.87 172.77 74.17 172.89 74.76" class="cls-2"/><polygon points="172.89 154.99 172.89 162.64 172.83 162.94 172.65 163.18 172.53 163.41 172.29 163.65 172.05 163.83 171.82 163.95 171.52 164.01 171.22 164.07 170.93 164.01 170.63 163.95 170.39 163.83 170.15 163.65 169.92 163.41 169.74 163.18 169.62 162.94 169.56 162.64 169.56 155.28 169.68 155.58 169.86 155.88 170.04 156.12 170.33 156.29 170.57 156.41 170.93 156.53 171.52 156.53 171.82 156.41 172.11 156.29 172.35 156.12 172.59 155.88 172.77 155.58 172.89 154.99" class="cls-2"/><polygon points="159.41 155.28 159.41 162.64 159.36 162.94 159.24 163.18 159.06 163.41 158.82 163.65 158.58 163.83 158.35 163.95 158.05 164.01 157.75 164.07 157.46 164.01 157.16 163.95 156.92 163.83 156.68 163.65 156.45 163.41 156.33 163.18 156.15 162.94 156.09 162.64 156.09 154.99 156.21 155.58 156.39 155.88 156.63 156.12 156.86 156.29 157.46 156.53 158.05 156.53 158.41 156.41 158.64 156.29 158.94 156.12 159.12 155.88 159.3 155.58 159.41 155.28" class="cls-2"/><polygon points="83.7 154.99 83.7 162.35 83.64 162.64 83.58 162.94 83.46 163.18 83.28 163.41 83.1 163.65 82.87 163.83 82.57 163.95 82.27 164.01 82.04 164.07 81.74 164.01 81.44 163.95 81.14 163.83 80.91 163.65 80.73 163.41 80.55 163.18 80.43 162.94 80.31 162.35 80.31 154.99 80.37 155.28 80.61 155.88 80.85 156.12 81.09 156.29 81.38 156.41 81.68 156.53 82.33 156.53 82.92 156.29 83.16 156.12 83.4 155.88 83.52 155.58 83.64 155.28 83.7 154.99" class="cls-2"/><polygon points="97.17 154.99 97.17 162.35 97.05 162.94 96.93 163.18 96.57 163.65 96.28 163.83 96.04 163.95 95.74 164.01 95.45 164.07 95.15 164.01 94.91 163.95 94.62 163.83 94.38 163.65 94.2 163.41 94.02 163.18 93.9 162.94 93.78 162.64 93.78 154.99 93.84 155.28 93.96 155.58 94.08 155.88 94.32 156.12 94.56 156.29 95.15 156.53 95.8 156.53 96.39 156.29 96.63 156.12 96.81 155.88 96.99 155.58 97.11 155.28 97.17 154.99" class="cls-2"/><rect height="3.32" width="10.09" y="70.37" x="83.7" class="cls-2"/><rect height="3.32" width="10.09" y="74.82" x="83.7" class="cls-2"/><rect height="3.38" width="58.92" y="153.8" x="97.17" class="cls-2"/><rect height="3.38" width="10.09" y="153.8" x="83.7" class="cls-2"/><polygon points="324.44 155.28 324.44 162.64 324.38 162.94 324.26 163.18 324.08 163.41 323.85 163.65 323.61 163.83 323.37 163.95 323.07 164.01 322.78 164.07 322.48 164.01 322.18 163.95 321.95 163.83 321.71 163.65 321.47 163.41 321.35 163.18 321.18 162.94 321.12 162.64 321.12 154.99 321.24 155.58 321.41 155.88 321.65 156.12 321.89 156.29 322.48 156.53 323.07 156.53 323.43 156.41 323.67 156.29 323.96 156.12 324.14 155.88 324.32 155.58 324.44 155.28" class="cls-2"/><polygon points="97.17 74.76 97.17 154.99 97.11 155.28 96.99 155.58 96.81 155.88 96.63 156.12 96.39 156.29 95.8 156.53 95.15 156.53 94.56 156.29 94.32 156.12 94.08 155.88 93.96 155.58 93.84 155.28 93.78 154.99 93.78 74.76 93.84 74.46 94.08 73.87 94.32 73.63 94.56 73.46 94.85 73.28 95.45 73.16 95.8 73.22 96.1 73.28 96.39 73.46 96.63 73.63 96.81 73.87 96.99 74.17 97.11 74.46 97.17 74.76" class="cls-2"/><polygon points="97.17 67.4 97.17 74.76 97.11 74.46 96.99 74.17 96.81 73.87 96.63 73.63 96.39 73.46 96.1 73.28 95.8 73.22 95.45 73.16 94.85 73.28 94.56 73.46 94.32 73.63 94.08 73.87 93.84 74.46 93.78 74.76 93.78 67.11 93.9 66.81 94.02 66.57 94.2 66.33 94.38 66.1 94.62 65.92 94.91 65.8 95.15 65.74 95.45 65.68 95.74 65.74 96.04 65.8 96.28 65.92 96.57 66.1 96.75 66.33 96.93 66.57 97.05 66.81 97.17 67.4" class="cls-2"/><polygon points="83.7 67.4 83.7 74.76 83.64 74.46 83.52 74.17 83.4 73.87 83.16 73.63 82.92 73.46 82.63 73.28 82.04 73.16 81.68 73.22 81.38 73.28 81.09 73.46 80.85 73.63 80.61 73.87 80.37 74.46 80.31 74.76 80.31 67.4 80.43 66.81 80.55 66.57 80.73 66.33 80.91 66.1 81.14 65.92 81.44 65.8 81.74 65.74 82.04 65.68 82.27 65.74 82.57 65.8 82.87 65.92 83.1 66.1 83.28 66.33 83.46 66.57 83.58 66.81 83.64 67.11 83.7 67.4" class="cls-2"/><rect height="3.38" width="41.95" y="153.8" x="38.36" class="cls-2"/><rect height="3.32" width="41.95" y="70.37" x="38.36" class="cls-2"/><polygon points="235.19 74.76 235.19 154.99 235.07 155.58 234.9 155.88 234.66 156.12 234.42 156.29 234.12 156.41 233.83 156.53 233.17 156.53 232.58 156.29 232.34 156.12 232.17 155.88 231.99 155.58 231.87 155.28 231.81 154.99 231.81 74.76 231.87 74.46 231.99 74.17 232.17 73.87 232.34 73.63 232.58 73.46 232.88 73.28 233.17 73.22 233.53 73.16 234.12 73.28 234.42 73.46 234.66 73.63 234.9 73.87 235.07 74.17 235.19 74.76" class="cls-2"/><polygon points="248.66 74.76 248.66 154.99 248.6 155.28 248.37 155.88 248.13 156.12 247.89 156.29 247.3 156.53 246.64 156.53 246.35 156.41 246.05 156.29 245.81 156.12 245.58 155.88 245.34 155.28 245.28 154.99 245.28 74.76 245.34 74.46 245.46 74.17 245.58 73.87 245.81 73.63 246.05 73.46 246.35 73.28 246.94 73.16 247.3 73.22 247.59 73.28 247.89 73.46 248.13 73.63 248.37 73.87 248.6 74.46 248.66 74.76" class="cls-2"/><polygon points="310.97 74.76 310.97 154.99 310.91 155.28 310.79 155.58 310.61 155.88 310.43 156.12 310.2 156.29 309.6 156.53 308.95 156.53 308.65 156.41 308.36 156.29 308.12 156.12 307.88 155.88 307.65 155.28 307.59 154.99 307.59 74.76 307.65 74.46 307.88 73.87 308.12 73.63 308.36 73.46 308.65 73.28 309.25 73.16 309.6 73.22 309.9 73.28 310.2 73.46 310.43 73.63 310.61 73.87 310.79 74.17 310.91 74.46 310.97 74.76" class="cls-2"/><polygon points="324.44 74.46 324.44 155.28 324.32 155.58 324.14 155.88 323.96 156.12 323.67 156.29 323.43 156.41 323.07 156.53 322.48 156.53 321.89 156.29 321.65 156.12 321.41 155.88 321.24 155.58 321.12 154.99 321.12 74.76 321.24 74.17 321.41 73.87 321.65 73.63 321.89 73.46 322.18 73.28 322.78 73.16 323.07 73.22 323.43 73.28 323.67 73.46 323.96 73.63 324.14 73.87 324.32 74.17 324.44 74.46" class="cls-2"/><rect height="3.32" width="41.89" y="70.37" x="324.44" class="cls-2"/><rect height="3.38" width="41.89" y="153.8" x="324.44" class="cls-2"/><rect height="11.81" width="10.09" y="150.3" x="366.33" class="cls-2"/><rect height="6.29" width="10.09" y="144.01" x="366.33" class="cls-2"/><rect height="58.39" width="10.09" y="85.62" x="366.33" class="cls-2"/><rect height="6.23" width="10.09" y="79.39" x="366.33" class="cls-2"/><rect height="3.32" width="41.89" y="74.82" x="324.44" class="cls-2"/><rect height="11.81" width="10.09" y="67.58" x="366.33" class="cls-2"/><rect height="11.81" width="10.09" y="150.3" x="28.27" class="cls-2"/><rect height="6.29" width="10.09" y="144.01" x="28.27" class="cls-2"/><rect height="58.39" width="10.09" y="85.62" x="28.27" class="cls-2"/><rect height="6.23" width="10.09" y="79.39" x="28.27" class="cls-2"/><polygon points="83.7 74.76 83.7 154.99 83.64 155.28 83.52 155.58 83.4 155.88 83.16 156.12 82.92 156.29 82.33 156.53 81.68 156.53 81.38 156.41 81.09 156.29 80.85 156.12 80.61 155.88 80.37 155.28 80.31 154.99 80.31 74.76 80.37 74.46 80.61 73.87 80.85 73.63 81.09 73.46 81.38 73.28 81.68 73.22 82.04 73.16 82.63 73.28 82.92 73.46 83.16 73.63 83.4 73.87 83.52 74.17 83.64 74.46 83.7 74.76" class="cls-2"/><rect height="3.32" width="41.95" y="74.82" x="38.36" class="cls-2"/><rect height="11.81" width="10.09" y="67.58" x="28.27" class="cls-2"/><path d="M4.06,254.85h5.29v.73h-4.36s.08.04.1.06c.03.02.06.04.09.07l2.02,1.35s.06.04.08.05.05.03.08.06v-3.2h.64v3.98h-.59l-3.35-2.22v-.87Z"/><path d="M4.06,250.43h.65v1.92l1.54.25c-.09-.1-.16-.22-.21-.36-.05-.14-.07-.29-.07-.46,0-.25.04-.47.13-.68.08-.21.2-.38.35-.53.15-.15.33-.27.54-.35.21-.08.44-.12.69-.12s.48.04.7.13c.21.09.4.21.55.36.15.16.27.34.36.56.08.21.13.45.13.71,0,.2-.03.39-.08.58s-.13.35-.23.5c-.1.15-.22.28-.36.39-.14.11-.3.19-.48.24l-.31-.63c.24-.07.43-.19.56-.39.14-.19.21-.42.21-.67,0-.15-.03-.29-.08-.41-.05-.13-.12-.23-.21-.33-.09-.09-.2-.16-.33-.21-.13-.05-.27-.08-.43-.08s-.3.03-.44.08c-.13.05-.25.13-.34.22s-.17.21-.22.34c-.05.13-.08.28-.08.44,0,.18.04.35.1.49.07.14.17.26.31.36l-.15.62-2.79-.47v-2.52Z"/><path d="M4.2,246.69c.13-.25.32-.47.55-.65.23-.18.52-.32.85-.42.33-.1.69-.15,1.08-.15s.76.05,1.1.15.62.24.86.42c.24.18.43.4.56.65.13.25.2.52.2.83s-.07.57-.2.82-.32.47-.56.65c-.24.18-.53.32-.86.42-.33.1-.7.15-1.1.15s-.75-.05-1.08-.15c-.33-.1-.61-.24-.85-.42-.24-.18-.42-.4-.55-.65-.13-.25-.2-.53-.2-.83s.07-.58.2-.83ZM4.83,248.04c.1.16.23.29.41.41.18.11.38.2.63.27.24.07.51.1.81.1s.57-.03.82-.09c.25-.06.46-.15.64-.27.18-.12.32-.25.42-.41.1-.16.15-.33.15-.52s-.05-.37-.15-.53c-.1-.16-.24-.3-.42-.41-.18-.11-.39-.2-.64-.27-.25-.06-.52-.09-.82-.09s-.56.03-.81.09c-.25.06-.46.15-.63.26-.17.11-.31.25-.41.41-.1.16-.15.34-.15.53s.05.37.15.52Z"/><path d="M5.7,241.86h.67c-.24-.11-.42-.26-.54-.45-.12-.18-.18-.4-.18-.63,0-.26.07-.48.2-.67.14-.19.33-.32.59-.41-.26-.11-.45-.27-.59-.46-.14-.2-.2-.43-.2-.7,0-.38.12-.67.37-.88.25-.21.61-.31,1.07-.31h2.25v.7h-2.16c-.29,0-.52.07-.69.2-.17.13-.25.31-.25.54,0,.12.02.22.07.32.05.1.11.18.2.26.09.07.19.13.32.16.12.04.26.06.4.06h2.11v.7h-2.16c-.14,0-.27.02-.38.06-.12.04-.22.09-.3.15-.08.06-.14.14-.19.23-.04.09-.07.2-.07.31s.02.22.07.32c.05.1.12.18.21.25.09.07.2.12.32.17.12.04.26.06.41.06h2.09v.7h-3.64v-.68Z"/><path d="M5.7,235.68h.67c-.24-.11-.42-.26-.54-.45-.12-.18-.18-.4-.18-.63,0-.26.07-.48.2-.67.14-.19.33-.32.59-.41-.26-.11-.45-.27-.59-.46-.14-.2-.2-.43-.2-.7,0-.38.12-.67.37-.88.25-.21.61-.31,1.07-.31h2.25v.7h-2.16c-.29,0-.52.07-.69.2-.17.13-.25.31-.25.54,0,.12.02.22.07.32.05.1.11.18.2.26.09.07.19.13.32.16.12.04.26.06.4.06h2.11v.7h-2.16c-.14,0-.27.02-.38.06-.12.04-.22.09-.3.15-.08.06-.14.14-.19.23-.04.09-.07.2-.07.31s.02.22.07.32c.05.1.12.18.21.25.09.07.2.12.32.17.12.04.26.06.41.06h2.09v.7h-3.64v-.68Z"/><line y2="206.74" x2="14.1" y1="282.15" x1="14.1" class="cls-2"/><rect height=".3" width="1.95" y="282" x="13.12" class="cls-3"/><rect height=".3" width="1.95" y="206.59" x="13.12" class="cls-3"/><path d="M4.06,124.76h.65v1.92l1.54.25c-.09-.1-.16-.22-.21-.36-.05-.14-.07-.29-.07-.46,0-.25.04-.47.13-.68.08-.21.2-.38.35-.53.15-.15.33-.27.54-.35.21-.08.44-.12.69-.12s.48.04.7.13c.21.09.4.21.55.36.15.16.27.34.36.56.08.21.13.45.13.71,0,.2-.03.39-.08.58s-.13.35-.23.5c-.1.15-.22.28-.36.39-.14.11-.3.19-.48.24l-.31-.63c.24-.07.43-.19.56-.39.14-.19.21-.42.21-.67,0-.15-.03-.29-.08-.41-.05-.13-.12-.23-.21-.33-.09-.09-.2-.16-.33-.21-.13-.05-.27-.08-.43-.08s-.3.03-.44.08c-.13.05-.25.13-.34.22s-.17.21-.22.34c-.05.13-.08.28-.08.44,0,.18.04.35.1.49.07.14.17.26.31.36l-.15.62-2.79-.47v-2.52Z"/><path d="M9.29,122.85c-.07.22-.17.4-.31.56-.13.15-.29.28-.47.36s-.38.13-.6.13c-.16,0-.31-.02-.45-.07-.15-.05-.28-.11-.4-.2-.12-.09-.22-.19-.3-.31s-.14-.25-.18-.4c-.05.14-.12.25-.2.36-.08.1-.17.19-.27.27s-.21.13-.33.17c-.12.04-.25.06-.38.06-.21,0-.39-.04-.56-.12-.17-.08-.32-.2-.44-.34-.13-.14-.22-.32-.29-.52-.07-.2-.1-.42-.1-.66s.03-.46.1-.66c.07-.2.17-.37.29-.52.12-.15.27-.26.44-.35.17-.08.36-.13.57-.13.13,0,.26.02.38.06.12.04.24.1.34.17.1.07.19.16.27.27.08.1.14.22.19.35.04-.15.1-.28.18-.4s.19-.22.31-.3c.12-.08.25-.15.4-.2.14-.05.29-.07.45-.07.21,0,.41.04.6.13.18.09.34.21.47.36.13.15.24.34.31.56.07.22.11.46.11.72s-.04.5-.11.72ZM4.73,122.48c.04.11.09.2.16.28.07.08.15.14.26.18s.21.07.33.07c.11,0,.22-.02.32-.07.1-.04.19-.11.26-.19.07-.08.13-.17.17-.28s.06-.23.06-.35-.02-.25-.06-.35c-.04-.1-.1-.2-.17-.28s-.16-.14-.26-.19c-.1-.04-.21-.07-.32-.07-.12,0-.23.02-.33.07-.1.04-.19.11-.26.19-.07.08-.12.17-.16.28-.04.11-.06.23-.06.36s.02.24.06.35ZM8.66,121.71c-.04-.13-.11-.23-.19-.32-.08-.09-.18-.16-.29-.21-.11-.05-.24-.08-.37-.08s-.26.03-.37.08c-.11.05-.21.12-.29.21-.08.09-.15.2-.2.33-.05.13-.07.26-.07.41s.02.28.07.41c.04.13.11.23.19.33s.18.16.3.21c.11.05.24.07.37.07.14,0,.27-.02.38-.07.11-.05.21-.12.29-.21.08-.09.14-.2.19-.33.04-.13.07-.26.07-.41s-.02-.29-.07-.41Z"/><path d="M4.06,116.69h.65v1.92l1.54.25c-.09-.1-.16-.22-.21-.36-.05-.14-.07-.29-.07-.46,0-.25.04-.47.13-.68.08-.21.2-.38.35-.53.15-.15.33-.27.54-.35.21-.08.44-.12.69-.12s.48.04.7.13c.21.09.4.21.55.36.15.16.27.34.36.56.08.21.13.45.13.71,0,.2-.03.39-.08.58s-.13.35-.23.5c-.1.15-.22.28-.36.39-.14.11-.3.19-.48.24l-.31-.63c.24-.07.43-.19.56-.39.14-.19.21-.42.21-.67,0-.15-.03-.29-.08-.41-.05-.13-.12-.23-.21-.33-.09-.09-.2-.16-.33-.21-.13-.05-.27-.08-.43-.08s-.3.03-.44.08c-.13.05-.25.13-.34.22s-.17.21-.22.34c-.05.13-.08.28-.08.44,0,.18.04.35.1.49.07.14.17.26.31.36l-.15.62-2.79-.47v-2.52Z"/><path d="M5.7,112.76h.67c-.24-.11-.42-.26-.54-.45-.12-.18-.18-.4-.18-.63,0-.26.07-.48.2-.67.14-.19.33-.32.59-.41-.26-.11-.45-.27-.59-.46-.14-.2-.2-.43-.2-.7,0-.38.12-.67.37-.88.25-.21.61-.31,1.07-.31h2.25v.7h-2.16c-.29,0-.52.07-.69.2-.17.13-.25.31-.25.54,0,.12.02.22.07.32.05.1.11.18.2.26.09.07.19.13.32.16.12.04.26.06.4.06h2.11v.7h-2.16c-.14,0-.27.02-.38.06-.12.04-.22.09-.3.15-.08.06-.14.14-.19.23-.04.09-.07.2-.07.31s.02.22.07.32c.05.1.12.18.21.25.09.07.2.12.32.17.12.04.26.06.41.06h2.09v.7h-3.64v-.68Z"/><path d="M5.7,106.58h.67c-.24-.11-.42-.26-.54-.45-.12-.18-.18-.4-.18-.63,0-.26.07-.48.2-.67.14-.19.33-.32.59-.41-.26-.11-.45-.27-.59-.46-.14-.2-.2-.43-.2-.7,0-.38.12-.67.37-.88.25-.21.61-.31,1.07-.31h2.25v.7h-2.16c-.29,0-.52.07-.69.2-.17.13-.25.31-.25.54,0,.12.02.22.07.32.05.1.11.18.2.26.09.07.19.13.32.16.12.04.26.06.4.06h2.11v.7h-2.16c-.14,0-.27.02-.38.06-.12.04-.22.09-.3.15-.08.06-.14.14-.19.23-.04.09-.07.2-.07.31s.02.22.07.32c.05.1.12.18.21.25.09.07.2.12.32.17.12.04.26.06.41.06h2.09v.7h-3.64v-.68Z"/><line y2="65.4" x2="14.1" y1="164.35" x1="14.1" class="cls-2"/><rect height=".3" width="1.95" y="164.2" x="13.12" class="cls-3"/><rect height=".3" width="1.95" y="65.25" x="13.12" class="cls-3"/><path d="M189.29,41.53c.21.08.39.19.54.33.15.14.27.31.35.51.08.2.13.42.13.67,0,.14-.02.28-.05.42-.03.14-.08.28-.15.41-.07.14-.16.27-.27.42-.11.14-.24.29-.39.45l-1.31,1.35h2.29v.67h-3.32v-.59l1.79-1.85c.12-.12.22-.23.3-.33.08-.1.15-.21.2-.3.05-.1.09-.19.11-.29.02-.09.03-.19.03-.29,0-.15-.02-.28-.07-.4-.04-.12-.11-.23-.2-.32-.09-.09-.19-.16-.3-.21-.11-.05-.24-.07-.39-.07-.25,0-.47.08-.65.23-.18.15-.31.36-.39.63l-.67-.23c.12-.42.32-.74.62-.97s.66-.34,1.1-.34c.25,0,.48.04.69.12Z"/><path d="M193.83,41.61c.25.13.47.32.65.55.18.23.32.52.42.85.1.33.15.69.15,1.08s-.05.76-.15,1.1-.24.62-.42.86c-.18.24-.4.43-.65.56-.25.13-.52.2-.83.2s-.57-.07-.82-.2-.47-.32-.65-.56c-.18-.24-.32-.53-.42-.86-.1-.33-.15-.7-.15-1.1s.05-.75.15-1.08c.1-.33.24-.61.42-.85.18-.24.4-.42.65-.55.25-.13.53-.2.83-.2s.58.07.83.2ZM192.48,42.24c-.16.1-.29.23-.41.41-.11.18-.2.38-.27.63-.07.24-.1.51-.1.81s.03.57.09.82c.06.25.15.46.27.64.12.18.25.32.41.42.16.1.33.15.52.15s.37-.05.53-.15c.16-.1.3-.24.41-.42.11-.18.2-.39.27-.64.06-.25.09-.52.09-.82s-.03-.56-.09-.81c-.06-.25-.15-.46-.26-.63-.11-.17-.25-.31-.41-.41-.16-.1-.34-.15-.53-.15s-.37.05-.52.15Z"/><path d="M196.21,46.75l1.78-4.62h-2.69v-.67h3.5v.59l-1.77,4.7h-.83Z"/><path d="M202.04,41.61c.25.13.47.32.65.55.18.23.32.52.42.85.1.33.15.69.15,1.08s-.05.76-.15,1.1-.24.62-.42.86c-.18.24-.4.43-.65.56-.25.13-.52.2-.83.2s-.57-.07-.82-.2-.47-.32-.65-.56c-.18-.24-.32-.53-.42-.86-.1-.33-.15-.7-.15-1.1s.05-.75.15-1.08c.1-.33.24-.61.42-.85.18-.24.4-.42.65-.55.25-.13.53-.2.83-.2s.58.07.83.2ZM200.69,42.24c-.16.1-.29.23-.41.41-.11.18-.2.38-.27.63-.07.24-.1.51-.1.81s.03.57.09.82c.06.25.15.46.27.64.12.18.25.32.41.42.16.1.33.15.52.15s.37-.05.53-.15c.16-.1.3-.24.41-.42.11-.18.2-.39.27-.64.06-.25.09-.52.09-.82s-.03-.56-.09-.81c-.06-.25-.15-.46-.26-.63-.11-.17-.25-.31-.41-.41-.16-.1-.34-.15-.53-.15s-.37.05-.52.15Z"/><path d="M206.87,43.11v.67c.11-.24.26-.42.45-.54.18-.12.4-.18.63-.18.26,0,.48.07.67.2.19.14.32.33.41.59.11-.26.27-.45.46-.59.2-.14.43-.2.7-.2.38,0,.67.12.88.37.21.25.31.61.31,1.07v2.25h-.7v-2.16c0-.29-.07-.52-.2-.69-.13-.17-.31-.25-.54-.25-.12,0-.22.02-.32.07-.1.05-.18.11-.26.2-.07.09-.13.19-.16.32-.04.12-.06.26-.06.4v2.11h-.7v-2.16c0-.14-.02-.27-.06-.38-.04-.12-.09-.22-.15-.3-.06-.08-.14-.14-.23-.19-.09-.04-.2-.07-.31-.07s-.22.02-.32.07c-.1.05-.18.12-.25.21-.07.09-.12.2-.17.32-.04.12-.06.26-.06.41v2.09h-.7v-3.64h.68Z"/><path d="M213.05,43.11v.67c.11-.24.26-.42.45-.54.18-.12.4-.18.63-.18.26,0,.48.07.67.2.19.14.32.33.41.59.11-.26.27-.45.46-.59.2-.14.43-.2.7-.2.38,0,.67.12.88.37.21.25.31.61.31,1.07v2.25h-.7v-2.16c0-.29-.07-.52-.2-.69-.13-.17-.31-.25-.54-.25-.12,0-.22.02-.32.07-.1.05-.18.11-.26.2-.07.09-.13.19-.16.32-.04.12-.06.26-.06.4v2.11h-.7v-2.16c0-.14-.02-.27-.06-.38-.04-.12-.09-.22-.15-.3-.06-.08-.14-.14-.23-.19-.09-.04-.2-.07-.31-.07s-.22.02-.32.07c-.1.05-.18.12-.25.21-.07.09-.12.2-.17.32-.04.12-.06.26-.06.41v2.09h-.7v-3.64h.68Z"/><line y2="51.51" x2="376.29" y1="51.51" x1="28.4" class="cls-2"/><rect height="1.95" width=".3" y="50.53" x="28.25" class="cls-3"/><rect height="1.95" width=".3" y="50.53" x="376.14" class="cls-3"/><polyline points="513.93 282.31 513.99 282.31 514.04 282.31 514.16 282.31 514.34 282.31 514.52 282.31 514.82 282.31 515.05 282.31 515.35 282.31 515.65 282.31 515.94 282.31 516.24 282.31 516.48 282.31 516.71 282.31 516.95 282.31 517.13 282.31 517.25 282.31 517.31 282.31 517.37 282.31" class="cls-2"/><path d="M431.28,263.14l-.12-.42-.24-.3-.24-.36-.3-.24-.3-.24-.42-.12-.36-.12-3.2-.59-.71-.12-1.6,8.96.71.12,3.2.59.42.06.41-.06.36-.06.36-.18.36-.18.3-.24.3-.3.18-.36.18-.36.12-.42.71-3.98v-.77l-.12-.36Z" class="cls-2"/><path d="M515.49,278.74l-7.71-43.85-4.09-23.02-.12-.59-.24-.59-.24-.59-.3-.59-.42-.47-.42-.47-.48-.47-.47-.36-.53-.36-.59-.24-.59-.24-.65-.18-.59-.06-.65-.06h-58.45l-.65.06-.59.06-.65.18-.59.24-.59.24-.53.36-.48.36-.47.47-.83.95-.3.59-.24.59-.24.59-.12.59-4.04,22.96v.06l-7.77,43.85-.06.42.06.47.06.42.18.42.18.42.24.36.3.3.36.24.24.18.18.06.42.18.83.12h88.71l.83-.12.42-.18.12-.06.3-.18.3-.24.36-.3.24-.36.18-.42.18-.42.06-.42.06-.47-.06-.42ZM514.12,279.63l-.06.3-.18.3-.24.24-.24.18-.3.18-.3.12h-89.31l-.3-.12-.3-.18-.24-.18-.24-.24-.18-.3-.06-.3-.06-.36v-.3l1.66-9.38,1.6-8.96,4.87-27.59,3.68-20.95.12-.53.24-.59.24-.53.36-.47.36-.42.42-.42.47-.36.53-.3.53-.24.53-.18.59-.12h59.64l.59.12.53.18.53.24.53.3.48.36.42.42.36.42.36.47.24.53.24.59.12.53,3.68,20.95,2.61,15.01h.06l1.54,8.96,2.2,12.64h.06l1.54,8.9.06.42.06.3-.06.36Z" class="cls-2"/><polygon points="424.52 269.72 422.68 280.47 422.44 280.23 422.26 279.93 422.2 279.63 422.15 279.28 422.15 278.98 423.81 269.61 424.52 269.72" class="cls-2"/><polygon points="512.46 269.67 511.75 269.78 509.49 257.14 510.26 257.03 512.46 269.67" class="cls-2"/><polygon points="508.66 248.07 507.95 248.18 506.59 240.47 506.41 239.76 506.23 239.05 505.93 238.39 505.58 237.74 505.16 237.09 504.75 236.49 504.27 235.96 503.68 235.49 503.14 235.01 501.84 234.3 501.19 234 500.47 233.82 499.76 233.65 499.05 233.53 437.28 233.53 436.5 233.65 435.79 233.82 435.14 234 434.43 234.3 433.78 234.65 433.18 235.01 432.59 235.49 432.05 235.96 431.52 236.49 431.11 237.09 430.69 237.74 430.39 238.39 430.1 239.05 429.86 239.76 429.68 240.47 426.12 260.76 425.41 260.65 430.27 233.05 430.75 232.64 431.46 232.1 432.17 231.69 432.94 231.27 433.78 230.92 434.61 230.68 435.44 230.44 436.27 230.26 437.1 230.2 437.99 230.14 498.28 230.14 499.17 230.2 500 230.26 500.89 230.44 501.72 230.68 502.55 230.92 503.32 231.27 504.09 231.69 504.81 232.1 505.52 232.64 506.05 233.05 508.66 248.07" class="cls-2"/><path d="M508.72,248.07h-.06l-.71.12-3.2.59-.36.06-.36.18-.36.18-.3.3-.24.3-.18.36-.18.36-.06.36-.06.42.06.42.71,3.98.06.36.18.36.24.36.24.3.3.24.36.24.36.12.42.12h.36l.42-.06,3.15-.53.77-.12-1.54-8.96Z" class="cls-2"/><path d="M512.52,269.67h-.06l-.71.12-3.14.53-.42.12-.36.18-.36.18-.3.3-.24.3-.18.36-.18.36-.06.36-.06.42.06.42.71,3.98.24.71.24.36.24.3.3.24.36.18.36.18.42.06.42.06.36-.06,3.92-.71-1.54-8.9Z" class="cls-2"/><polygon points="514.18 279.28 514.12 279.63 514.06 279.93 513.88 280.23 513.65 280.47 513.41 280.64 513.11 280.82 512.82 280.94 423.51 280.94 423.21 280.82 422.92 280.64 422.68 280.47 424.52 269.72 427.72 270.32 428.14 270.38 428.55 270.32 428.91 270.26 429.27 270.08 429.62 269.9 429.92 269.67 430.21 269.37 430.39 269.01 430.57 268.66 430.69 268.24 431.4 264.27 431.4 263.49 431.28 263.14 431.16 262.72 430.93 262.43 430.69 262.07 430.39 261.83 430.1 261.59 429.68 261.48 429.33 261.36 426.12 260.76 429.68 240.47 429.86 239.76 430.1 239.05 430.39 238.39 430.69 237.74 431.11 237.09 431.52 236.49 432.05 235.96 432.59 235.49 433.18 235.01 433.78 234.65 434.43 234.3 435.14 234 435.79 233.82 436.5 233.65 437.28 233.53 499.05 233.53 499.76 233.65 500.47 233.82 501.19 234 501.84 234.3 503.14 235.01 503.68 235.49 504.27 235.96 504.75 236.49 505.16 237.09 505.58 237.74 505.93 238.39 506.23 239.05 506.41 239.76 506.59 240.47 507.95 248.18 504.75 248.78 504.39 248.84 504.03 249.01 503.68 249.19 503.38 249.49 503.14 249.79 502.97 250.14 502.79 250.5 502.73 250.85 502.67 251.27 502.73 251.69 503.44 255.66 503.5 256.02 503.68 256.37 503.92 256.73 504.15 257.03 504.45 257.26 504.81 257.5 505.16 257.62 505.58 257.74 505.93 257.74 506.35 257.68 509.49 257.14 511.75 269.78 508.6 270.32 508.19 270.44 507.83 270.61 507.48 270.79 507.18 271.09 506.94 271.39 506.76 271.74 506.59 272.1 506.53 272.45 506.47 272.87 506.53 273.28 507.24 277.26 507.48 277.97 507.71 278.33 507.95 278.63 508.25 278.86 508.6 279.04 508.96 279.22 509.37 279.28 509.79 279.34 510.15 279.28 514.06 278.57 514.12 278.98 514.18 279.28" class="cls-2"/><line y2="260.76" x2="426.12" y1="260.82" x1="426.12" class="cls-2"/><polygon points="422.15 281.77 422.38 281.95 422.32 282.3 418.94 282.3 426.42 239.88 426.6 239.05 426.83 238.21 427.13 237.38 427.49 236.61 427.9 235.84 428.38 235.13 428.61 234.89 420.84 278.74 420.78 279.16 420.84 279.63 420.9 280.05 421.08 280.47 421.25 280.88 421.49 281.24 421.79 281.53 422.15 281.77" class="cls-2"/><line y2="230.16" x2="468.14" y1="230.16" x1="468.14" class="cls-2"/><line y2="233.55" x2="468.14" y1="233.55" x1="468.14" class="cls-2"/><polyline points="509.89 239.89 509.71 239.06 509.48 238.23 509.12 237.4 508.77 236.63 508.35 235.86 507.88 235.15 507.76 234.91" class="cls-2"/><line y2="239.89" x2="509.89" y1="282.31" x1="517.37" class="cls-2"/><line y2="282.31" x2="513.93" y1="281.95" x1="513.87" class="cls-2"/><line y2="280.53" x2="513.63" y1="278.75" x1="513.33" class="cls-2"/><circle r=".79" cy="267.83" cx="428.22" class="cls-2"/><circle r=".79" cy="272.82" cx="509.02" class="cls-2"/><circle r=".79" cy="255.23" cx="505.92" class="cls-2"/></g></g></svg>