<svg viewBox="0 0 531.27 288" xmlns:xlink="http://www.w3.org/1999/xlink" xmlns="http://www.w3.org/2000/svg"><defs><style>.cls-1,.cls-2,.cls-3{fill:none;}.cls-4{fill:#12100c;}.cls-5{isolation:isolate;}.cls-2{mix-blend-mode:multiply;opacity:.85;}.cls-2,.cls-3{stroke:#12100c;stroke-linecap:round;stroke-linejoin:round;stroke-width:.3px;}</style><symbol viewBox="0 0 531.27 288" id="fundo_transparente"><rect height="288" width="531.27" x="0" class="cls-1"/></symbol></defs><g class="cls-5"><g id="Camada_2"><g id="Golf"><g id="Campo_de_Golf"><g id="tee_totem_Palmer"><use xlink:href="#fundo_transparente" height="288" width="531.27"/><g id="LINE"><line y2="285.25" x2="15.11" y1="8.01" x1="15.11" class="cls-3"/><rect height=".3" width="1.95" y="7.86" x="14.14" class="cls-4"/><rect height=".3" width="1.95" y="285.1" x="14.14" class="cls-4"/></g><g id="MTEXT"><path d="M5.07,159.51h5.29v.72h-4.54l.64,1.3h-.73l-.67-1.36v-.67Z"/><path d="M10.35,157.94l-4.62-1.78v2.69h-.67v-3.5h.59l4.7,1.77v.83Z"/><path d="M5.21,152.11c.13-.25.32-.47.55-.65.23-.18.52-.32.85-.42.33-.1.69-.15,1.08-.15s.76.05,1.1.15.62.24.86.42c.24.18.43.4.56.65.13.25.2.52.2.83s-.07.57-.2.82-.32.47-.56.65c-.24.18-.53.32-.86.42-.33.1-.7.15-1.1.15s-.75-.05-1.08-.15c-.33-.1-.61-.24-.85-.42-.24-.18-.42-.4-.55-.65-.13-.25-.2-.53-.2-.83s.07-.58.2-.83ZM5.84,153.46c.1.16.23.29.41.41.18.11.38.2.63.27.24.07.51.1.81.1s.57-.03.82-.09c.25-.06.46-.15.64-.27.18-.12.32-.25.42-.41.1-.16.15-.33.15-.52s-.05-.37-.15-.53c-.1-.16-.24-.3-.42-.41-.18-.11-.39-.2-.64-.27-.25-.06-.52-.09-.82-.09s-.56.03-.81.09c-.25.06-.46.15-.63.26-.17.11-.31.25-.41.41-.1.16-.15.34-.15.53s.05.37.15.52Z"/><path d="M5.21,147.47c.13-.25.32-.47.55-.65.23-.18.52-.32.85-.42.33-.1.69-.15,1.08-.15s.76.05,1.1.15.62.24.86.42c.24.18.43.4.56.65.13.25.2.52.2.83s-.07.57-.2.82-.32.47-.56.65c-.24.18-.53.32-.86.42-.33.1-.7.15-1.1.15s-.75-.05-1.08-.15c-.33-.1-.61-.24-.85-.42-.24-.18-.42-.4-.55-.65-.13-.25-.2-.53-.2-.83s.07-.58.2-.83ZM5.84,148.82c.1.16.23.29.41.41.18.11.38.2.63.27.24.07.51.1.81.1s.57-.03.82-.09c.25-.06.46-.15.64-.27.18-.12.32-.25.42-.41.1-.16.15-.33.15-.52s-.05-.37-.15-.53c-.1-.16-.24-.3-.42-.41-.18-.11-.39-.2-.64-.27-.25-.06-.52-.09-.82-.09s-.56.03-.81.09c-.25.06-.46.15-.63.26-.17.11-.31.25-.41.41-.1.16-.15.34-.15.53s.05.37.15.52Z"/><path d="M6.71,142.64h.67c-.24-.11-.42-.26-.54-.45-.12-.18-.18-.4-.18-.63,0-.26.07-.48.2-.67.14-.19.33-.32.59-.41-.26-.11-.45-.27-.59-.46-.14-.2-.2-.43-.2-.7,0-.38.12-.67.37-.88.25-.21.61-.31,1.07-.31h2.25v.7h-2.16c-.29,0-.52.07-.69.2-.17.13-.25.31-.25.54,0,.12.02.22.07.32.05.1.11.18.2.26.09.07.19.13.32.16.12.04.26.06.4.06h2.11v.7h-2.16c-.14,0-.27.02-.38.06-.12.04-.22.09-.3.15-.08.06-.14.14-.19.23-.04.09-.07.2-.07.31s.02.22.07.32c.05.1.12.18.21.25.09.07.2.12.32.17.12.04.26.06.41.06h2.09v.7h-3.64v-.68Z"/><path d="M6.71,136.46h.67c-.24-.11-.42-.26-.54-.45-.12-.18-.18-.4-.18-.63,0-.26.07-.48.2-.67.14-.19.33-.32.59-.41-.26-.11-.45-.27-.59-.46-.14-.2-.2-.43-.2-.7,0-.38.12-.67.37-.88.25-.21.61-.31,1.07-.31h2.25v.7h-2.16c-.29,0-.52.07-.69.2-.17.13-.25.31-.25.54,0,.12.02.22.07.32.05.1.11.18.2.26.09.07.19.13.32.16.12.04.26.06.4.06h2.11v.7h-2.16c-.14,0-.27.02-.38.06-.12.04-.22.09-.3.15-.08.06-.14.14-.19.23-.04.09-.07.2-.07.31s.02.22.07.32c.05.1.12.18.21.25.09.07.2.12.32.17.12.04.26.06.41.06h2.09v.7h-3.64v-.68Z"/></g><g id="LINE-2"><line y2="254.84" x2="261.52" y1="254.84" x1="292.23" class="cls-3"/><rect height="1.95" width=".3" y="253.86" x="292.08" class="cls-4"/><rect height="1.95" width=".3" y="253.86" x="261.37" class="cls-4"/></g><g id="MTEXT-2"><path d="M266.04,244.79v5.29h-.72v-4.54l-1.3.64v-.73l1.36-.67h.67Z"/><path d="M269.42,244.91c.24.12.44.29.61.51.17.22.3.5.39.82.09.32.14.69.14,1.09s-.05.8-.15,1.15c-.1.35-.24.64-.43.89s-.41.43-.67.56c-.26.13-.55.2-.88.2-.37,0-.7-.09-.97-.27-.27-.18-.47-.43-.59-.76l.64-.29c.07.21.18.37.34.48.16.11.35.17.56.17.2,0,.38-.05.55-.14.17-.09.31-.23.44-.4.13-.17.22-.37.29-.61.07-.24.1-.49.1-.77v-.17c0-.06,0-.1,0-.15-.08.25-.23.45-.45.59-.22.14-.48.21-.79.21-.24,0-.46-.04-.65-.12-.2-.08-.36-.19-.5-.34-.14-.14-.25-.32-.33-.52-.08-.2-.12-.42-.12-.66s.04-.47.13-.68c.08-.21.2-.38.35-.52.15-.14.32-.26.53-.34.21-.08.43-.12.68-.12.3,0,.57.06.81.18ZM268.25,245.48c-.12.05-.22.12-.3.21-.08.09-.15.19-.2.31-.05.12-.07.26-.07.41s.02.29.07.41c.05.12.12.23.2.32.09.09.19.16.31.21.12.05.25.07.4.07s.27-.02.39-.07c.12-.05.22-.12.31-.2.09-.09.15-.19.2-.31.05-.12.07-.25.07-.4s-.03-.28-.08-.41c-.05-.13-.13-.24-.21-.34-.09-.1-.2-.17-.32-.22s-.26-.08-.4-.08-.26.03-.38.08Z"/><path d="M273.99,244.93c.25.13.47.32.65.55.18.23.32.52.42.85.1.33.15.69.15,1.08s-.05.76-.15,1.1-.24.62-.42.86c-.18.24-.4.43-.65.56-.25.13-.52.2-.83.2s-.57-.07-.82-.2-.47-.32-.65-.56c-.18-.24-.32-.53-.42-.86-.1-.33-.15-.7-.15-1.1s.05-.75.15-1.08c.1-.33.24-.61.42-.85.18-.24.4-.42.65-.55.25-.13.53-.2.83-.2s.58.07.83.2ZM272.63,245.57c-.16.1-.29.23-.41.41-.11.18-.2.38-.27.63-.07.24-.1.51-.1.81s.03.57.09.82c.06.25.15.46.27.64.12.18.25.32.41.42.16.1.33.15.52.15s.37-.05.53-.15c.16-.1.3-.24.41-.42.11-.18.2-.39.27-.64.06-.25.09-.52.09-.82s-.03-.56-.09-.81c-.06-.25-.15-.46-.26-.63-.11-.17-.25-.31-.41-.41-.16-.1-.34-.15-.53-.15s-.37.05-.52.15Z"/><path d="M278.81,246.44v.67c.11-.24.26-.42.45-.54.18-.12.4-.18.63-.18.26,0,.48.07.67.2.19.14.32.33.41.59.11-.26.27-.45.46-.59.2-.14.43-.2.7-.2.38,0,.67.12.88.37.21.25.31.61.31,1.07v2.25h-.7v-2.16c0-.29-.07-.52-.2-.69-.13-.17-.31-.25-.54-.25-.12,0-.22.02-.32.07-.1.05-.18.11-.26.2-.07.09-.13.19-.16.32-.04.12-.06.26-.06.4v2.11h-.7v-2.16c0-.14-.02-.27-.06-.38-.04-.12-.09-.22-.15-.3-.06-.08-.14-.14-.23-.19-.09-.04-.2-.07-.31-.07s-.22.02-.32.07c-.1.05-.18.12-.25.21-.07.09-.12.2-.17.32-.04.12-.06.26-.06.41v2.09h-.7v-3.64h.68Z"/><path d="M285,246.44v.67c.11-.24.26-.42.45-.54.18-.12.4-.18.63-.18.26,0,.48.07.67.2.19.14.32.33.41.59.11-.26.27-.45.46-.59.2-.14.43-.2.7-.2.38,0,.67.12.88.37.21.25.31.61.31,1.07v2.25h-.7v-2.16c0-.29-.07-.52-.2-.69-.13-.17-.31-.25-.54-.25-.12,0-.22.02-.32.07-.1.05-.18.11-.26.2-.07.09-.13.19-.16.32-.04.12-.06.26-.06.4v2.11h-.7v-2.16c0-.14-.02-.27-.06-.38-.04-.12-.09-.22-.15-.3-.06-.08-.14-.14-.23-.19-.09-.04-.2-.07-.31-.07s-.22.02-.32.07c-.1.05-.18.12-.25.21-.07.09-.12.2-.17.32-.04.12-.06.26-.06.41v2.09h-.7v-3.64h.68Z"/></g><g id="LINE-3"><line y2="285.18" x2="247.19" y1="269.16" x1="247.19" class="cls-3"/><rect height=".3" width="1.95" y="269.01" x="246.22" class="cls-4"/><rect height=".3" width="1.95" y="285.03" x="246.22" class="cls-4"/></g><g id="MTEXT-3"><path d="M237.15,283.08h5.29v.72h-4.54l.64,1.3h-.73l-.67-1.36v-.67Z"/><path d="M237.29,279.37c.13-.25.32-.47.55-.65.23-.18.52-.32.85-.42.33-.1.69-.15,1.08-.15s.76.05,1.1.15.62.24.86.42c.24.18.43.4.56.65.13.25.2.52.2.83s-.07.57-.2.82-.32.47-.56.65c-.24.18-.53.32-.86.42-.33.1-.7.15-1.1.15s-.75-.05-1.08-.15c-.33-.1-.61-.24-.85-.42-.24-.18-.42-.4-.55-.65-.13-.25-.2-.53-.2-.83s.07-.58.2-.83ZM237.93,280.72c.1.16.23.29.41.41.18.11.38.2.63.27.24.07.51.1.81.1s.57-.03.82-.09c.25-.06.46-.15.64-.27.18-.12.32-.25.42-.41.1-.16.15-.33.15-.52s-.05-.37-.15-.53c-.1-.16-.24-.3-.42-.41-.18-.11-.39-.2-.64-.27-.25-.06-.52-.09-.82-.09s-.56.03-.81.09c-.25.06-.46.15-.63.26-.17.11-.31.25-.41.41-.1.16-.15.34-.15.53s.05.37.15.52Z"/><path d="M237.29,274.74c.13-.25.32-.47.55-.65.23-.18.52-.32.85-.42.33-.1.69-.15,1.08-.15s.76.05,1.1.15.62.24.86.42c.24.18.43.4.56.65.13.25.2.52.2.83s-.07.57-.2.82-.32.47-.56.65c-.24.18-.53.32-.86.42-.33.1-.7.15-1.1.15s-.75-.05-1.08-.15c-.33-.1-.61-.24-.85-.42-.24-.18-.42-.4-.55-.65-.13-.25-.2-.53-.2-.83s.07-.58.2-.83ZM237.93,276.09c.1.16.23.29.41.41.18.11.38.2.63.27.24.07.51.1.81.1s.57-.03.82-.09c.25-.06.46-.15.64-.27.18-.12.32-.25.42-.41.1-.16.15-.33.15-.52s-.05-.37-.15-.53c-.1-.16-.24-.3-.42-.41-.18-.11-.39-.2-.64-.27-.25-.06-.52-.09-.82-.09s-.56.03-.81.09c-.25.06-.46.15-.63.26-.17.11-.31.25-.41.41-.1.16-.15.34-.15.53s.05.37.15.52Z"/><path d="M238.79,269.91h.67c-.24-.11-.42-.26-.54-.45-.12-.18-.18-.4-.18-.63,0-.26.07-.48.2-.67.14-.19.33-.32.59-.41-.26-.11-.45-.27-.59-.46-.14-.2-.2-.43-.2-.7,0-.38.12-.67.37-.88.25-.21.61-.31,1.07-.31h2.25v.7h-2.16c-.29,0-.52.07-.69.2-.17.13-.25.31-.25.54,0,.12.02.22.07.32.05.1.11.18.2.26.09.07.19.13.32.16.12.04.26.06.4.06h2.11v.7h-2.16c-.14,0-.27.02-.38.06-.12.04-.22.09-.3.15-.08.06-.14.14-.19.23-.04.09-.07.2-.07.31s.02.22.07.32c.05.1.12.18.21.25.09.07.2.12.32.17.12.04.26.06.41.06h2.09v.7h-3.64v-.68Z"/><path d="M238.79,263.72h.67c-.24-.11-.42-.26-.54-.45-.12-.18-.18-.4-.18-.63,0-.26.07-.48.2-.67.14-.19.33-.32.59-.41-.26-.11-.45-.27-.59-.46-.14-.2-.2-.43-.2-.7,0-.38.12-.67.37-.88.25-.21.61-.31,1.07-.31h2.25v.7h-2.16c-.29,0-.52.07-.69.2-.17.13-.25.31-.25.54,0,.12.02.22.07.32.05.1.11.18.2.26.09.07.19.13.32.16.12.04.26.06.4.06h2.11v.7h-2.16c-.14,0-.27.02-.38.06-.12.04-.22.09-.3.15-.08.06-.14.14-.19.23-.04.09-.07.2-.07.31s.02.22.07.32c.05.1.12.18.21.25.09.07.2.12.32.17.12.04.26.06.41.06h2.09v.7h-3.64v-.68Z"/></g><polygon points="269.51 284.37 276.02 284.37 276.02 277.97 274.39 277.97 274.39 276.37 276.02 276.37 276.02 269.97 269.51 269.97 269.51 271.57 267.88 271.57 267.88 269.97 261.37 269.97 261.37 276.37 262.99 276.37 262.99 277.97 261.37 277.97 261.37 284.37 267.88 284.37 267.88 282.77 269.51 282.77 269.51 284.37" class="cls-3"/><polygon points="285.86 284.37 292.37 284.37 292.37 277.97 290.75 277.97 290.75 276.37 292.37 276.37 292.37 269.97 285.86 269.97 285.86 271.57 284.23 271.57 284.23 269.97 277.72 269.97 277.72 276.37 279.35 276.37 279.35 277.97 277.72 277.97 277.72 284.37 284.23 284.37 284.23 282.77 285.86 282.77 285.86 284.37" class="cls-3"/><polygon points="292.38 277.97 292.38 276.37 261.37 276.37 261.37 277.97 292.38 277.97 292.38 277.97" class="cls-3"/><polygon points="292.06 285.33 292.34 284.85 292.34 284.37 261.41 284.37 261.41 284.85 261.64 285.33 292.06 285.33" class="cls-3"/><polygon points="287.29 269.97 287.29 269.49 287.06 269.01 266.75 269.01 266.46 269.49 266.46 269.97 287.29 269.97 287.29 269.97" class="cls-3"/><path d="M112.37,20.83v1.33h-1.69v-1.33h-6.81v264.5h15.31V20.83h-6.81Z" class="cls-3"/><path d="M112.37,22.16v120.34c-.26-.08-.55-.12-.84-.12s-.59.05-.86.13V20.83h.01v1.33h1.69Z" class="cls-2"/><path d="M112.37,148.1v137.23h-1.7v-137.24c.27.08.56.13.86.13s.58-.04.84-.12Z" class="cls-2"/><polygon points="120.2 21.8 119.69 21.63 119.18 21.63 119.18 152.32 119.69 152.32 120.2 152.09 120.2 21.8" class="cls-3"/><polygon points="102.85 29.75 103.36 29.58 103.87 29.58 103.87 69.21 103.36 69.21 102.85 68.98 102.85 29.75" class="cls-3"/><rect height="14.37" width="1.69" y="7.79" x="110.68" class="cls-3"/><path d="M114.45,145.3c0,1.32-.87,2.44-2.08,2.8-.26.08-.55.12-.84.12s-.59-.05-.86-.13c-1.19-.37-2.06-1.48-2.06-2.79s.87-2.42,2.06-2.79c.27-.08.56-.13.86-.13s.58.04.84.12c1.21.36,2.08,1.48,2.08,2.8Z" class="cls-3"/><path d="M110.18,144.81h.15s0,.98,0,.98h-.15s0-.98,0-.98Z" class="cls-4"/><path d="M111.14,145.45c0,.19-.16.35-.36.35s-.36-.16-.36-.35.16-.35.36-.35.36.16.36.35ZM110.58,145.45c0,.11.09.2.2.2s.2-.09.2-.2-.09-.2-.2-.2-.2.09-.2.2Z" class="cls-4"/><path d="M111.88,145.45s0,.03,0,.03h-.52c.01.1.09.17.21.17.08,0,.15-.03.17-.09l.13.05c-.05.12-.16.18-.31.18-.22,0-.37-.14-.37-.35s.15-.35.34-.35.34.15.34.35ZM111.71,145.37c-.02-.07-.09-.12-.17-.12s-.15.05-.17.12h.34Z" class="cls-4"/><path d="M112.13,145.11v.03s0,.03.02.03c.01,0,.02,0,.04-.02.04-.03.08-.05.13-.05.06,0,.11.02.15.06.02.02.03.03.05.03.02,0,.03,0,.04-.02.04-.04.1-.07.16-.07.14,0,.22.1.22.27v.42s-.15,0-.15,0v-.4c0-.1-.05-.16-.12-.16-.08,0-.13.07-.13.17v.39s-.15,0-.15,0v-.4c0-.1-.05-.16-.12-.16s-.13.07-.13.17v.38s-.15,0-.15,0v-.67s.15,0,.15,0Z" class="cls-4"/><path d="M113.64,145.37v.41s-.15,0-.15,0v-.04s0-.03-.03-.03c-.01,0-.03,0-.04.02-.04.04-.09.06-.16.06-.13,0-.21-.07-.21-.19s.09-.19.25-.22l.18-.03c0-.08-.07-.12-.16-.12-.08,0-.13.03-.15.09l-.14-.04c.04-.12.14-.19.29-.19.18,0,.31.11.31.27ZM113.34,145.51c-.09.02-.13.05-.13.09s.04.07.1.07c.1,0,.17-.07.18-.2l-.15.03Z" class="cls-4"/><path d="M110.1,144.81h-.67v.98h.16v-.61s.05-.06.08-.03l.26.26.1-.1-.26-.26s0-.08.03-.08h.29v-.15Z" class="cls-4"/><path d="M114.17,145.59c0,.11-.09.2-.21.2s-.21-.09-.21-.2.09-.2.21-.2.21.09.21.2ZM113.79,145.59c0,.09.07.16.17.16s.16-.07.16-.16-.07-.16-.16-.16-.17.07-.17.16ZM114,145.61s-.01,0-.01.01c0,0,0,0,0,.01l.05.07h-.05s-.06-.08-.06-.08v.08s-.05,0-.05,0v-.22s.08,0,.08,0c.04,0,.08.03.08.07,0,.03-.02.05-.04.06Z" class="cls-4"/><path d="M32.5,20.23c-.07,0-.12-.05-.12-.12v-8.06c0-.07.05-.12.12-.12s.12.05.12.12v8.06c0,.07-.05.12-.12.12Z" class="cls-3"/><path d="M36.01,20.23c-.07,0-.12-.05-.12-.12v-9.87c0-.07.05-.12.12-.12s.12.05.12.12v9.87c0,.07-.05.12-.12.12Z" class="cls-3"/><path d="M39.53,10.82c-.07,0-.12-.05-.12-.12v-1.48c0-.07.05-.12.12-.12s.12.05.12.12v1.48c0,.07-.05.12-.12.12Z" class="cls-3"/><path d="M43.04,9.66c-.07,0-.12-.05-.12-.12v-.77c0-.07.05-.12.12-.12s.12.05.12.12v.77c0,.07-.05.12-.12.12Z" class="cls-3"/><path d="M46.56,9.71c-.07,0-.12-.05-.12-.12v-.81c0-.07.05-.12.12-.12s.12.05.12.12v.81c0,.07-.05.12-.12.12Z" class="cls-3"/><path d="M50.07,10.87c-.07,0-.12-.05-.12-.12v-1.53c0-.07.05-.12.12-.12s.12.05.12.12v1.53c0,.07-.05.12-.12.12Z" class="cls-3"/><path d="M39.53,20.23c-.07,0-.12-.05-.12-.12v-1.73c0-.07.05-.12.12-.12s.12.05.12.12v1.73c0,.07-.05.12-.12.12Z" class="cls-3"/><path d="M43.04,20.24c-.07,0-.12-.05-.12-.12v-.58c0-.07.05-.12.12-.12s.12.05.12.12v.58c0,.07-.05.12-.12.12Z" class="cls-3"/><path d="M46.56,20.23c-.07,0-.12-.05-.12-.12v-.57c0-.07.05-.12.12-.12s.12.05.12.12v.57c0,.07-.05.12-.12.12Z" class="cls-3"/><path d="M50.07,20.23c-.07,0-.12-.05-.12-.12v-1.71c0-.07.05-.12.12-.12s.12.05.12.12v1.71c0,.07-.05.12-.12.12Z" class="cls-3"/><path d="M53.58,20.23c-.07,0-.12-.05-.12-.12v-9.87c0-.07.05-.12.12-.12s.12.05.12.12v9.87c0,.07-.05.12-.12.12Z" class="cls-3"/><path d="M57.1,20.23c-.07,0-.12-.05-.12-.12v-8.06c0-.07.05-.12.12-.12s.12.05.12.12v8.06c0,.07-.05.12-.12.12Z" class="cls-3"/><path d="M51.29,14.54c0,2.02-2.97,3.72-6.5,3.72s-6.49-1.7-6.49-3.72,2.97-3.72,6.49-3.72,6.5,1.71,6.5,3.72Z" class="cls-3"/><path d="M44.8,7.92c-8.52,0-15.43,3.72-15.52,7.63v5.37h31.03v-5.37c-.08-3.91-6.99-7.63-15.51-7.63ZM44.79,18.84c-3.9,0-7.06-1.93-7.06-4.3s3.16-4.29,7.06-4.29,7.07,1.92,7.07,4.29-3.16,4.3-7.07,4.3Z" class="cls-3"/><path d="M44.79,10.25c-3.9,0-7.06,1.92-7.06,4.29s3.16,4.3,7.06,4.3,7.07-1.93,7.07-4.3-3.16-4.29-7.07-4.29ZM44.79,18.26c-3.52,0-6.49-1.7-6.49-3.72s2.97-3.72,6.49-3.72,6.5,1.71,6.5,3.72-2.97,3.72-6.5,3.72Z" class="cls-3"/><path d="M52.1,151.87v133.46h-6.48v-132.51c2.34-.07,4.53-.41,6.48-.95Z" class="cls-3"/><path d="M60.31,145.43v139.9h-6.57v-133.99c3.81-1.4,6.35-3.61,6.57-5.91Z" class="cls-3"/><path d="M53.74,151.34v133.99h-1.64v-133.46c.57-.16,1.12-.34,1.64-.53Z" class="cls-2"/><path d="M43.98,152.82v132.51h-14.7v-144.08h.02v3.93c.04,1.96,1.79,3.87,4.59,5.3.59.3,1.22.57,1.89.82.52.19,1.06.37,1.63.53,1.97.57,4.2.92,6.57.99Z" class="cls-3"/><path d="M37.41,151.83v133.5h-1.63v-134.03c.52.19,1.06.37,1.63.53Z" class="cls-2"/><rect height="119.03" width="31.03" y="20.92" x="29.28" class="cls-3"/><path d="M60.31,139.95v5.48c-.22,2.3-2.76,4.51-6.57,5.91-.52.19-1.07.37-1.64.53-1.95.54-4.14.88-6.48.95-.27.01-.54.01-.81.01s-.56,0-.83-.01c-2.37-.07-4.6-.42-6.57-.99-.57-.16-1.11-.34-1.63-.53-.67-.25-1.3-.52-1.89-.82-2.8-1.43-4.55-3.34-4.59-5.3v-3.93h-.02v-1.3h31.03Z" class="cls-3"/><path d="M60.33,139.79v5.39c0,.08-.01.17-.02.25v-5.64h.02Z" class="cls-3"/><line y2="140.73" x2="32.51" y1="148.58" x1="32.51" class="cls-3"/><line y2="140.73" x2="36.02" y1="150.6" x1="36.02" class="cls-3"/><line y2="140.73" x2="39.54" y1="151.49" x1="39.54" class="cls-3"/><line y2="140.73" x2="43.05" y1="151.89" x1="43.05" class="cls-3"/><line y2="140.73" x2="46.57" y1="151.98" x1="46.57" class="cls-3"/><line y2="140.73" x2="50.08" y1="151.47" x1="50.08" class="cls-3"/><line y2="140.73" x2="53.6" y1="150.49" x1="53.6" class="cls-3"/><line y2="140.73" x2="57.11" y1="148.58" x1="57.11" class="cls-3"/><path d="M177.42,30.09h-.01v-.23c.01.08.01.15.01.23Z" class="cls-3"/><path d="M179.06,29.86v.23h-.01c0-.08,0-.15.01-.23Z" class="cls-3"/><path d="M179.06,69.59v83.23c-.27.01-.54.01-.81.01s-.56,0-.84-.01v-83.23c.28.05.55.07.83.07s.55-.02.82-.07Z" class="cls-3"/><path d="M178.27,31s-.01.01-.03.01-.02,0-.03-.01h.06Z" class="cls-3"/><path d="M193.77,139.79v5.39h-.01s0,.08,0,.12v-5.51h.02Z" class="cls-3"/><path d="M165.93,20.23c-.07,0-.12-.05-.12-.12v-8.06c0-.07.05-.12.12-.12s.12.05.12.12v8.06c0,.07-.05.12-.12.12Z" class="cls-3"/><path d="M169.45,20.23c-.07,0-.12-.05-.12-.12v-9.87c0-.07.05-.12.12-.12s.12.05.12.12v9.87c0,.07-.05.12-.12.12Z" class="cls-3"/><path d="M172.96,10.82c-.07,0-.12-.05-.12-.12v-1.48c0-.07.05-.12.12-.12s.12.05.12.12v1.48c0,.07-.05.12-.12.12Z" class="cls-3"/><path d="M176.48,9.66c-.07,0-.12-.05-.12-.12v-.77c0-.07.05-.12.12-.12s.12.05.12.12v.77c0,.07-.05.12-.12.12Z" class="cls-3"/><path d="M179.99,9.71c-.07,0-.12-.05-.12-.12v-.81c0-.07.05-.12.12-.12s.12.05.12.12v.81c0,.07-.05.12-.12.12Z" class="cls-3"/><path d="M183.5,10.87c-.07,0-.12-.05-.12-.12v-1.53c0-.07.05-.12.12-.12s.12.05.12.12v1.53c0,.07-.05.12-.12.12Z" class="cls-3"/><path d="M172.96,20.23c-.07,0-.12-.05-.12-.12v-1.73c0-.07.05-.12.12-.12s.12.05.12.12v1.73c0,.07-.05.12-.12.12Z" class="cls-3"/><path d="M176.48,20.24c-.07,0-.12-.05-.12-.12v-.58c0-.07.05-.12.12-.12s.12.05.12.12v.58c0,.07-.05.12-.12.12Z" class="cls-3"/><path d="M179.99,20.23c-.07,0-.12-.05-.12-.12v-.57c0-.07.05-.12.12-.12s.12.05.12.12v.57c0,.07-.05.12-.12.12Z" class="cls-3"/><path d="M183.5,20.23c-.07,0-.12-.05-.12-.12v-1.71c0-.07.05-.12.12-.12s.12.05.12.12v1.71c0,.07-.05.12-.12.12Z" class="cls-3"/><path d="M187.02,20.23c-.07,0-.12-.05-.12-.12v-9.87c0-.07.05-.12.12-.12s.12.05.12.12v9.87c0,.07-.05.12-.12.12Z" class="cls-3"/><path d="M190.53,20.23c-.07,0-.12-.05-.12-.12v-8.06c0-.07.05-.12.12-.12s.12.05.12.12v8.06c0,.07-.05.12-.12.12Z" class="cls-3"/><path d="M178.23,10.25c-3.9,0-7.07,1.92-7.07,4.29s3.17,4.3,7.07,4.3,7.07-1.93,7.07-4.3-3.16-4.29-7.07-4.29ZM178.23,18.26c-3.52,0-6.49-1.7-6.49-3.72s2.97-3.72,6.49-3.72,6.5,1.71,6.5,3.72-2.98,3.72-6.5,3.72Z" class="cls-3"/><path d="M178.24,7.92c-8.52,0-15.43,3.72-15.52,7.63v5.37h31.03v-5.37c-.08-3.91-7-7.63-15.51-7.63ZM178.23,18.84c-3.9,0-7.07-1.93-7.07-4.3s3.17-4.29,7.07-4.29,7.07,1.92,7.07,4.29-3.16,4.3-7.07,4.3ZM178.21,31s0,.01.03.01.02,0,.03-.01h-.06Z" class="cls-3"/><path d="M179.06,20.92v8.94c-.01.08-.01.15-.01.23-.27-.05-.54-.07-.81-.07s-.55.02-.82.07c0-.08,0-.15-.01-.23v-8.94h1.65Z" class="cls-3"/><path d="M184.73,14.54c0,2.02-2.98,3.72-6.5,3.72s-6.49-1.7-6.49-3.72,2.97-3.72,6.49-3.72,6.5,1.71,6.5,3.72Z" class="cls-3"/><path d="M185.54,20.92v14.76c-1.69-3.16-3.97-5.23-6.48-5.59v-9.17h6.48Z" class="cls-3"/><path d="M193.75,139.79v145.54h-6.57V60.09c.95-2.99,1.5-6.49,1.5-10.25s-.55-7.25-1.5-10.24v-18.68h6.56v118.87h.01Z" class="cls-3"/><rect height="118.87" width=".01" y="20.92" x="193.74" class="cls-3"/><path d="M185.54,64.01v221.32h-6.48V69.59c2.51-.36,4.79-2.43,6.48-5.58Z" class="cls-3"/><path d="M187.18,20.92v18.68c-.46-1.44-1.01-2.76-1.64-3.92v-14.76h1.64Z" class="cls-2"/><path d="M187.18,60.09v225.24h-1.64V64.01c.63-1.17,1.18-2.48,1.64-3.92Z" class="cls-2"/><path d="M169.21,39.9c-.9,2.92-1.41,6.32-1.41,9.94s.51,7.03,1.41,9.95v225.54h-6.49V20.92h6.49v18.98Z" class="cls-3"/><path d="M177.41,20.92v9.17c-2.55.37-4.85,2.51-6.56,5.76v-14.93h6.56Z" class="cls-3"/><path d="M177.41,69.59v215.74h-6.56V63.84c1.71,3.25,4.01,5.38,6.56,5.75Z" class="cls-3"/><path d="M170.85,20.92v14.93c-.63,1.21-1.19,2.56-1.64,4.05v-18.98h1.64Z" class="cls-3"/><path d="M170.85,63.84v221.49h-1.64V59.79c.45,1.49,1.01,2.84,1.64,4.05Z" class="cls-3"/><path d="M187.18,39.6c-.46-1.44-1.01-2.76-1.64-3.92-1.69-3.16-3.97-5.23-6.48-5.59h-.01c-.27-.05-.54-.07-.81-.07s-.55.02-.82.07h-.01c-2.55.37-4.85,2.51-6.56,5.76-.63,1.21-1.19,2.56-1.64,4.05-.9,2.92-1.41,6.32-1.41,9.94s.51,7.03,1.41,9.95c.45,1.49,1.01,2.84,1.64,4.05,1.71,3.25,4.01,5.38,6.56,5.75.28.05.55.07.83.07s.55-.02.82-.07c2.51-.36,4.79-2.43,6.48-5.58.63-1.17,1.18-2.48,1.64-3.92.95-2.99,1.5-6.49,1.5-10.25s-.55-7.25-1.5-10.24ZM185.54,61.73c-.24.58-.5,1.14-.78,1.67-.9,1.7-1.93,3.03-3.07,3.94-.84.68-1.73,1.11-2.63,1.27-.27.05-.55.07-.82.07s-.56-.03-.83-.07c-.89-.17-1.77-.59-2.62-1.27-1.13-.91-2.17-2.24-3.06-3.94-.32-.6-.61-1.24-.88-1.91-.74-1.82-1.29-3.87-1.64-6.05-.28-1.79-.43-3.67-.43-5.6s.15-3.81.43-5.6c.35-2.18.9-4.23,1.64-6.05.27-.67.56-1.31.88-1.91.89-1.7,1.93-3.02,3.06-3.94.85-.68,1.73-1.1,2.62-1.27.25-.04.51-.07.77-.07h.12c.26,0,.51.03.76.07.9.16,1.79.59,2.63,1.27,1.14.92,2.17,2.24,3.07,3.94.28.53.54,1.09.78,1.67.73,1.74,1.28,3.68,1.64,5.76.34,1.94.52,4.01.52,6.13s-.18,4.19-.52,6.13c-.36,2.08-.91,4.02-1.64,5.76Z" class="cls-3"/><path d="M178.27,31s-.01.01-.03.01-.02,0-.03-.01h.06Z" class="cls-3"/><path d="M178.27,31s-.01.01-.03.01-.02,0-.03-.01h.06Z" class="cls-3"/><path d="M187.7,49.84c0,2.12-.18,4.19-.52,6.13-.36,2.08-.91,4.02-1.64,5.76-.24.58-.5,1.14-.78,1.67-.9,1.7-1.93,3.03-3.07,3.94-.84.68-1.73,1.11-2.63,1.27-.27.05-.55.07-.82.07s-.56-.03-.83-.07c-.89-.17-1.77-.59-2.62-1.27-1.13-.91-2.17-2.24-3.06-3.94-.32-.6-.61-1.24-.88-1.91-.74-1.82-1.29-3.87-1.64-6.05-.28-1.79-.43-3.67-.43-5.6s.15-3.81.43-5.6c.35-2.18.9-4.23,1.64-6.05.27-.67.56-1.31.88-1.91.89-1.7,1.93-3.02,3.06-3.94.85-.68,1.73-1.1,2.62-1.27.25-.04.51-.07.77-.07h.03s.01.01.03.01.02,0,.03-.01h.03c.26,0,.51.03.76.07.9.16,1.79.59,2.63,1.27,1.14.92,2.17,2.24,3.07,3.94.28.53.54,1.09.78,1.67.73,1.74,1.28,3.68,1.64,5.76.34,1.94.52,4.01.52,6.13Z" class="cls-3"/></g></g></g></g></g></svg>