<svg viewBox="0 0 531.27 288" xmlns:xlink="http://www.w3.org/1999/xlink" xmlns="http://www.w3.org/2000/svg"><defs><style>.cls-1,.cls-2{fill:none;}.cls-3{fill:#12100c;}.cls-4{isolation:isolate;}.cls-5{mix-blend-mode:multiply;}.cls-2{stroke:#12100c;stroke-linecap:round;stroke-linejoin:round;stroke-width:.3px;}</style><symbol viewBox="0 0 531.27 288" id="fundo_transparente"><rect height="288" width="531.27" x="0" class="cls-1"/></symbol></defs><g class="cls-4"><g id="Camada_2"><g id="Nature"><g id="Centros_Cyclin_Portugal"><g id="bike_station_Low_Tech"><use xlink:href="#fundo_transparente" height="288" width="531.27"/><path d="M327.44,244.69l-18.47,18.28c-.7.69-1.63,1.06-2.58,1.06-.47,0-.95-.09-1.4-.27-1.36-.56-2.25-1.88-2.25-3.34v-36.56c0-1.46.89-2.78,2.25-3.34,1.37-.56,2.93-.25,3.98.78l18.47,18.28c1.42,1.41,1.42,3.7,0,5.11M311.57,283.35h-7.34c-.83,0-1.5-.67-1.5-1.5,0-2.57,0-7.57,0-7.71.01-.35.16-.7.43-.96l7.41-7.33c.28-.28.66-.42,1.04-.42.19,0,.38.04.56.11.55.22.9.75.9,1.34v14.98c0,.83-.67,1.5-1.5,1.5M311.22,218.98c-1.29-1.26-3.01-1.95-4.84-1.95-.9,0-1.78.17-2.62.51-1.26.5-2.32,1.35-3.08,2.45-.76,1.11-1.16,2.39-1.16,3.73v61.39h16.75v-23.65c0-1.16.68-2.76,1.52-3.57l11.9-11.54c1.3-1.26,2.02-2.95,2.02-4.74s-.72-3.47-2.02-4.74l-18.47-17.9Z" class="cls-2"/><path d="M63.64,29.67c0-.34-.31-.61-.69-.61h-9.22c-.25,0-.46.18-.46.41v5.55c0,1.69-1.54,3.06-3.45,3.06h0c-1.9,0-3.45-1.37-3.45-3.06v-5.55c0-.23-.21-.41-.46-.41h-9.22c-.38,0-.69.27-.69.61v35.2h27.64V29.67Z" class="cls-2"/><path d="M71.2,81.18v-15.24c0-.57-.53-1.02-1.18-1.02H29.62c-.65,0-1.18.46-1.18,1.02v15.24c0,.57.53,1.02,1.18,1.02h40.4c.65,0,1.18-.46,1.18-1.02Z" class="cls-2"/><path d="M151.11,141.83h-36.77c-.35,0-.64-.29-.64-.64v-3.85c0-.31.32-.52.6-.39l4.3,1.96c.43.2.88.29,1.33.29,1.22,0,2.38-.7,2.92-1.88.73-1.61.02-3.51-1.59-4.25l-7.31-3.33c-.15-.07-.25-.22-.25-.39v-3.99c0-.35.29-.64.64-.64h37.9" class="cls-2"/><rect height="1.07" width="18.18" y="124.72" x="151.11" class="cls-2"/><polyline points="151.11 285.11 169.29 285.11 169.29 125.82 151.11 125.82 151.11 285.11" class="cls-2"/><g class="cls-5"><g class="cls-5"><path d="M139.09,132.95h.58v-1.54h-.5v-.38c.29-.05.47-.13.66-.24h.45v2.17h.5v.5h-1.7v-.5Z" class="cls-3"/><path d="M141.17,132.11c0-.91.38-1.37.95-1.37s.95.47.95,1.37-.38,1.4-.95,1.4-.95-.49-.95-1.4ZM142.5,132.11c0-.73-.16-.9-.37-.9s-.37.16-.37.9.16.92.37.92.37-.19.37-.92Z" class="cls-3"/><path d="M143.39,132.11c0-.91.38-1.37.95-1.37s.95.47.95,1.37-.38,1.4-.95,1.4-.95-.49-.95-1.4ZM144.72,132.11c0-.73-.16-.9-.37-.9s-.37.16-.37.9.16.92.37.92.37-.19.37-.92Z" class="cls-3"/><path d="M145.57,131.53c0-.55.29-.87.68-.87s.69.32.69.87-.29.87-.69.87-.68-.32-.68-.87ZM146.5,131.53c0-.39-.11-.52-.25-.52s-.25.13-.25.52.11.53.25.53.25-.14.25-.53ZM147.82,130.66h.36l-1.48,2.84h-.36l1.48-2.84ZM147.59,132.63c0-.55.29-.87.68-.87s.69.32.69.87-.29.87-.69.87-.68-.32-.68-.87ZM148.52,132.63c0-.39-.11-.52-.25-.52s-.25.13-.25.52.11.53.25.53.25-.14.25-.53Z" class="cls-3"/><path d="M139.26,134.49h.54c.31,0,.58.11.58.46,0,.21-.09.34-.23.42l.31.56h-.43l-.25-.48h-.15v.48h-.38v-1.44ZM139.78,135.15c.15,0,.23-.07.23-.19s-.08-.16-.23-.16h-.14v.35h.14Z" class="cls-3"/><path d="M140.66,134.49h.93v.32h-.55v.23h.47v.32h-.47v.26h.57v.32h-.95v-1.44Z" class="cls-3"/><path d="M141.83,135.22c0-.48.33-.76.7-.76.19,0,.35.09.45.19l-.2.24c-.07-.06-.14-.11-.24-.11-.17,0-.31.15-.31.42s.12.42.31.42c.11,0,.2-.06.26-.12l.2.24c-.12.14-.29.21-.47.21-.37,0-.69-.24-.69-.73Z" class="cls-3"/><path d="M143.4,135.43l-.43-.94h.41l.11.3c.04.11.07.21.11.32h0c.04-.11.08-.21.11-.32l.11-.3h.4l-.43.94v.5h-.38v-.5Z" class="cls-3"/><path d="M144.24,135.22c0-.48.33-.76.7-.76.19,0,.35.09.45.19l-.2.24c-.07-.06-.14-.11-.24-.11-.17,0-.31.15-.31.42s.12.42.31.42c.11,0,.2-.06.26-.12l.2.24c-.12.14-.29.21-.47.21-.37,0-.69-.24-.69-.73Z" class="cls-3"/><path d="M145.6,134.49h.38v1.12h.54v.32h-.93v-1.44Z" class="cls-3"/><path d="M146.77,134.49h.93v.32h-.55v.23h.47v.32h-.47v.26h.57v.32h-.95v-1.44Z" class="cls-3"/><path d="M148,134.49h.43c.44,0,.74.2.74.71s-.3.73-.72.73h-.45v-1.44ZM148.41,135.62c.21,0,.37-.08.37-.42s-.16-.41-.37-.41h-.02v.83h.02Z" class="cls-3"/><path d="M139.26,136.76h.53c.31,0,.58.12.58.48s-.27.5-.58.5h-.16v.46h-.38v-1.44ZM139.78,137.44c.15,0,.22-.08.22-.2s-.08-.18-.23-.18h-.13v.38h.14Z" class="cls-3"/><path d="M140.61,136.76h.38v1.12h.54v.32h-.93v-1.44Z" class="cls-3"/><path d="M142.02,136.76h.46l.44,1.44h-.4l-.07-.31h-.4l-.07.31h-.39l.44-1.44ZM142.11,137.6h.27l-.02-.1c-.04-.14-.07-.31-.11-.46h0c-.03.15-.07.32-.1.46l-.02.1Z" class="cls-3"/><path d="M142.97,138.02l.22-.26c.1.08.23.14.34.14.12,0,.16-.04.16-.1,0-.07-.07-.09-.19-.14l-.18-.08c-.15-.06-.29-.19-.29-.4,0-.25.22-.45.54-.45.16,0,.35.06.48.19l-.19.24c-.1-.07-.18-.1-.29-.1-.09,0-.15.03-.15.1,0,.07.08.09.21.14l.17.07c.18.07.28.19.28.39,0,.24-.2.46-.56.46-.18,0-.39-.07-.54-.21Z" class="cls-3"/><path d="M144.53,137.08h-.38v-.32h1.14v.32h-.38v1.12h-.38v-1.12Z" class="cls-3"/><path d="M145.51,136.76h.38v1.44h-.38v-1.44Z" class="cls-3"/><path d="M146.14,137.49c0-.48.33-.76.7-.76.19,0,.35.09.45.19l-.2.24c-.07-.06-.14-.11-.24-.11-.17,0-.31.15-.31.42s.12.42.31.42c.11,0,.2-.06.26-.12l.2.24c-.12.14-.29.21-.47.21-.37,0-.69-.24-.69-.73Z" class="cls-3"/></g><rect height="1.41" width=".22" y="127.83" x="140" class="cls-3"/><path d="M141.4,128.76c0,.28-.23.5-.52.5s-.52-.23-.52-.5.23-.5.52-.5.52.23.52.5M140.59,128.76c0,.16.13.29.29.29s.29-.13.29-.29-.13-.29-.29-.29-.29.13-.29.29" class="cls-3"/><path d="M142.47,128.76s0,.04,0,.05h-.76c.02.15.14.25.31.25.12,0,.21-.05.25-.13l.19.07c-.07.17-.23.27-.45.27-.31,0-.53-.21-.53-.5s.21-.5.5-.5.49.21.49.5M142.22,128.64c-.03-.11-.12-.18-.24-.18s-.21.07-.25.18h.49Z" class="cls-3"/><path d="M142.83,128.27v.04s0,.04.03.04c.02,0,.04,0,.06-.03.05-.05.11-.07.19-.07.09,0,.16.03.22.09.02.03.04.04.07.04.02,0,.04,0,.06-.03.06-.06.14-.1.23-.1.2,0,.32.14.32.38v.6h-.22v-.57c0-.14-.07-.23-.17-.23-.11,0-.19.1-.19.24v.56h-.22v-.57c0-.14-.07-.23-.18-.23s-.19.1-.19.24v.55h-.22v-.97h.21Z" class="cls-3"/><path d="M145.01,128.64v.6h-.21v-.06s0-.05-.04-.05c-.02,0-.04,0-.06.04-.06.06-.14.09-.23.09-.18,0-.3-.11-.3-.27s.13-.28.37-.32l.26-.04c-.01-.11-.1-.18-.23-.18-.11,0-.19.05-.22.14l-.2-.06c.05-.17.21-.27.41-.27.26,0,.45.16.45.39M144.58,128.85c-.13.02-.19.07-.19.13s.06.11.15.11c.15,0,.25-.11.25-.28l-.21.04Z" class="cls-3"/><path d="M139.89,127.83h-.97v1.41h.23v-.88c0-.06.08-.09.12-.05l.37.37.15-.15-.37-.37s-.01-.12.05-.12h.42v-.21Z" class="cls-3"/></g><path d="M170.26,238.49c-.33.27-.64.52-.94.75-.01,0-.02.02-.03.02v-3.3c1.02-.92,2.05-2.1,2.86-3.8.6-3.67.72-8.62-.38-15.11-.65-3.86-1.48-7.46-2.48-10.8v-7.61c1.01,2.42,1.92,5.02,2.71,7.78-.74-4.69-1.7-8.86-2.71-11.31v-3.96c.63.16,1.17.67,1.67,1.55,3.61,6.4,6.72,32.2,3.98,39.38-.13.33-.26.65-.4.96-1.02,5.76-3.24,9.34-5.25,10.8v-3.65c.28-.41.61-.97.96-1.7Z" class="cls-2"/><g id="LINE"><line y2="124.8" x2="14.28" y1="285.03" x1="14.28" class="cls-2"/><rect height=".3" width="1.95" y="284.88" x="13.3" class="cls-3"/><rect height=".3" width="1.95" y="124.65" x="13.3" class="cls-3"/></g><line y2="285.11" x2="66.52" y1="285.11" x1="34.31" class="cls-2"/><line y2="285.11" x2="64.28" y1="285.11" x1="36.56" class="cls-2"/><rect height="1.07" width="41.53" y="124.72" x="29.65" class="cls-2"/><rect height="1.07" width="41.53" y="124.72" x="29.65" class="cls-2"/><polygon points="65.51 207.8 65.51 208.37 65.47 208.44 65.47 209.46 65.43 209.54 65.43 210.03 65.38 210.1 65.38 210.41 65.34 210.48 65.34 210.82 65.3 210.9 65.3 211.12 65.26 211.24 65.26 211.46 65.22 211.54 65.22 211.69 65.17 211.8 65.17 212.03 65.13 212.1 65.13 212.29 65.09 212.37 65.09 212.44 65.05 212.52 65.05 212.67 65.01 212.74 65.01 212.93 64.97 213.01 64.97 213.08 64.92 213.16 64.92 213.35 64.88 213.42 64.88 213.5 64.84 213.57 64.84 213.65 64.8 213.73 64.8 213.91 64.76 213.99 64.76 214.06 64.71 214.14 64.71 214.22 64.67 214.29 64.67 214.37 64.63 214.48 64.63 214.56 64.59 214.63 64.59 214.71 64.55 214.78 64.55 214.86 64.5 214.93 64.46 215.05 64.46 215.12 64.42 215.2 64.42 215.27 64.38 215.35 64.38 215.42 64.34 215.5 64.29 215.57 64.29 214.67 64.34 214.59 64.34 214.48 64.38 214.37 64.38 214.14 64.42 214.03 64.42 213.95 64.46 213.84 64.46 213.61 64.5 213.5 64.5 213.27 64.55 213.16 64.55 212.93 64.59 212.82 64.59 212.59 64.63 212.48 64.63 212.14 64.67 212.03 64.67 211.8 64.71 211.69 64.71 211.31 64.76 211.2 64.76 210.86 64.8 210.75 64.8 210.37 64.84 210.26 64.84 209.76 64.88 209.5 64.88 209.27 64.92 209.01 64.92 208.63 64.97 208.56 64.97 207.77 65.01 207.69 65.01 205.5 64.97 205.43 64.97 204.56 64.92 204.48 64.92 203.92 64.88 203.84 64.88 203.39 64.92 203.5 64.97 203.62 64.97 203.69 65.01 203.77 65.01 203.88 65.05 203.96 65.05 204.07 65.09 204.14 65.09 204.3 65.13 204.33 65.13 204.41 65.17 204.48 65.17 204.67 65.22 204.75 65.22 204.9 65.26 204.97 65.26 205.16 65.3 205.24 65.3 205.46 65.34 205.54 65.34 205.73 65.38 205.8 65.38 206.18 65.43 206.26 65.43 206.67 65.47 206.75 65.47 207.73 65.51 207.8" class="cls-2"/><polygon points="71.16 125.84 71.16 285.09 64.29 285.09 64.29 220.97 64.34 220.89 64.42 220.74 64.46 220.63 64.5 220.55 64.55 220.48 64.59 220.4 64.67 220.25 64.71 220.18 64.76 220.1 64.76 220.02 64.8 219.95 64.84 219.84 64.88 219.76 64.92 219.69 65.01 219.53 65.05 219.46 65.13 219.31 65.13 219.2 65.22 219.04 65.26 218.97 65.3 218.89 65.34 218.82 65.34 218.7 65.43 218.55 65.47 218.48 65.51 218.4 65.51 218.29 65.55 218.21 65.59 218.14 65.63 218.06 65.68 217.99 65.68 217.87 65.72 217.8 65.8 217.65 65.8 217.57 65.84 217.46 65.89 217.38 65.93 217.31 65.93 217.23 65.97 217.12 66.01 217.05 66.01 216.97 66.05 216.89 66.1 216.78 66.1 216.71 66.14 216.63 66.18 216.55 66.18 216.44 66.22 216.37 66.26 216.29 66.26 216.22 66.31 216.1 66.35 216.03 66.35 215.95 66.39 215.88 66.39 215.76 66.43 215.69 66.47 215.61 66.47 215.54 66.51 215.42 66.51 215.35 66.56 215.27 66.56 215.16 66.6 215.08 66.64 215.01 66.64 214.93 66.68 214.82 66.68 214.74 66.72 214.67 66.72 214.56 66.77 214.48 66.77 214.4 66.81 214.33 66.81 214.22 66.85 214.14 66.85 214.06 66.89 213.95 66.89 213.88 66.93 213.8 66.93 213.61 66.98 213.54 66.98 213.46 67.02 213.35 67.02 213.27 67.06 213.2 67.06 213.01 67.1 212.93 67.1 212.86 67.14 212.74 67.14 212.59 67.18 212.48 67.18 212.33 67.23 212.25 67.23 212.07 67.27 211.99 67.27 211.8 67.31 211.73 67.31 211.46 67.35 211.39 67.35 211.12 67.39 211.01 67.39 210.78 67.44 210.67 67.44 210.33 67.48 210.26 67.48 209.84 67.52 209.73 67.52 209.05 67.56 208.97 67.56 207.24 67.52 207.12 67.52 206.48 67.48 206.41 67.48 205.99 67.44 205.92 67.44 205.62 67.39 205.54 67.39 205.28 67.35 205.2 67.35 204.97 67.31 204.9 67.31 204.75 67.27 204.67 67.27 204.52 67.23 204.45 67.23 204.3 67.18 204.22 67.18 204.07 67.14 203.99 67.14 203.84 67.1 203.77 67.1 203.69 67.06 203.62 67.06 203.54 67.02 203.47 67.02 203.31 66.98 203.24 66.98 203.16 66.93 203.01 66.89 202.9 66.85 202.75 66.81 202.6 66.77 202.48 66.72 202.33 66.72 202.22 66.68 202.07 66.64 201.96 66.6 201.81 66.56 201.65 66.56 201.54 66.51 201.39 66.47 201.28 66.43 201.13 66.39 201.01 66.39 200.86 66.35 200.71 66.31 200.6 66.26 200.45 66.22 200.33 66.22 200.18 66.18 200.07 66.14 199.92 66.1 199.81 66.1 199.66 66.01 199.39 65.97 199.13 65.89 198.86 65.84 198.6 65.76 198.34 65.72 198.07 65.63 197.81 65.55 197.28 65.43 196.75 65.34 196.49 65.3 196.26 65.22 196 65.13 195.47 65.05 195.24 65.01 194.98 64.92 194.71 64.92 194.6 64.88 194.49 64.84 194.34 64.84 194.22 64.8 194.11 64.76 193.96 64.71 193.85 64.71 193.73 64.67 193.62 64.63 193.47 64.59 193.36 64.59 193.24 64.55 193.13 64.5 192.98 64.5 192.87 64.46 192.75 64.42 192.64 64.38 192.53 64.38 192.38 64.34 192.26 64.29 192.15 64.29 125.84 71.16 125.84" class="cls-2"/><polygon points="36.57 125.84 36.57 184.27 36.53 184.34 36.49 184.38 36.41 184.42 36.36 184.49 36.28 184.57 36.24 184.64 36.15 184.68 36.11 184.76 36.07 184.79 36.03 184.83 35.99 184.91 35.9 184.94 35.86 185.02 35.82 185.06 35.78 185.1 35.74 185.17 35.69 185.21 35.61 185.28 35.57 185.32 35.53 185.36 35.48 185.44 35.44 185.47 35.4 185.55 35.36 185.59 35.32 185.66 35.23 185.7 35.19 185.74 35.15 185.81 35.11 185.85 35.06 185.93 35.02 185.96 34.98 186.04 34.94 186.08 34.9 186.15 34.86 186.19 34.81 186.26 34.77 186.3 34.73 186.38 34.69 186.42 34.6 186.45 34.56 186.53 34.52 186.57 34.48 186.64 34.44 186.68 34.4 186.76 34.35 186.79 34.31 186.87 34.27 186.91 34.23 186.98 34.19 187.02 34.14 187.09 34.1 187.17 34.06 187.21 34.02 187.28 33.98 187.32 33.93 187.4 33.89 187.43 33.89 187.51 33.85 187.55 33.81 187.62 33.77 187.66 33.73 187.74 33.68 187.77 33.64 187.85 33.6 187.89 33.56 187.96 33.52 188 33.47 188.08 33.43 188.11 33.39 188.19 33.35 188.26 33.35 188.3 33.31 188.38 33.26 188.41 33.22 188.49 33.18 188.53 33.14 188.6 33.1 188.64 33.05 188.72 33.01 188.79 33.01 188.83 32.97 188.91 32.93 188.94 32.89 189.02 32.85 189.06 32.8 189.13 32.8 189.17 32.76 189.24 32.72 189.32 32.68 189.36 32.64 189.43 32.59 189.47 32.59 189.55 32.55 189.58 32.51 189.66 32.43 189.77 32.39 189.89 32.34 189.96 32.3 190 32.26 190.07 32.22 190.19 32.13 190.3 32.13 190.38 32.09 190.41 32.05 190.49 32.01 190.53 31.97 190.64 31.88 190.79 31.88 190.83 31.84 190.9 31.8 190.94 31.8 191.02 31.76 191.06 31.72 191.13 31.67 191.21 31.67 191.24 31.63 191.32 31.59 191.36 31.59 191.43 31.55 191.47 31.51 191.55 31.51 191.58 31.46 191.66 31.42 191.7 31.42 191.77 31.38 191.85 31.34 191.89 31.34 191.96 31.3 192 31.25 192.07 31.25 192.11 31.21 192.19 31.17 192.22 31.17 192.3 31.13 192.34 31.13 192.41 31.09 192.45 31.05 192.53 31.05 192.56 30.96 192.68 30.92 192.83 30.88 192.94 30.84 193.05 30.79 193.17 30.75 193.28 30.67 193.39 30.63 193.51 30.58 193.58 30.54 193.7 30.5 193.81 30.46 193.92 30.42 194.04 30.38 194.15 30.33 194.26 30.25 194.49 30.21 194.6 30.17 194.68 30.12 194.79 30.08 194.9 30.04 195.02 30 195.13 29.96 195.2 29.91 195.32 29.91 195.43 29.87 195.54 29.83 195.62 29.79 195.73 29.75 195.85 29.7 195.92 29.7 196.03 29.66 196.15 29.66 125.84 36.57 125.84" class="cls-2"/><polygon points="36.57 199.66 36.57 215.2 36.53 215.16 36.53 215.12 36.49 215.05 36.49 215.01 36.45 214.97 36.45 214.89 36.41 214.86 36.41 214.74 36.36 214.71 36.36 214.67 36.32 214.59 36.32 214.52 36.28 214.44 36.28 214.4 36.24 214.37 36.24 214.25 36.2 214.22 36.2 214.14 36.15 214.1 36.15 213.99 36.11 213.95 36.11 213.88 36.07 213.84 36.07 213.73 36.03 213.69 36.03 213.57 35.99 213.54 35.99 213.42 35.94 213.39 35.94 213.27 35.9 213.24 35.9 213.12 35.86 213.05 35.86 212.97 35.82 212.9 35.82 212.78 35.78 212.74 35.78 212.63 35.74 212.59 35.74 212.44 35.69 212.37 35.69 212.29 35.65 212.22 35.65 212.07 35.61 212.03 35.61 211.84 35.57 211.8 35.57 211.65 35.53 211.58 35.53 211.42 35.48 211.39 35.48 211.24 35.44 211.16 35.44 211.01 35.4 210.97 35.4 210.75 35.36 210.71 35.36 210.48 35.32 210.41 35.32 210.14 35.27 210.1 35.27 209.84 35.23 209.76 35.23 209.46 35.19 209.39 35.19 209.09 35.15 209.01 35.15 208.56 35.11 208.48 35.11 207.88 35.06 207.84 35.06 205.16 35.11 205.05 35.11 204.75 35.15 204.67 35.15 204.52 35.19 204.48 35.19 204.33 35.23 204.26 35.23 204.11 35.27 204.07 35.27 203.92 35.36 203.69 35.36 203.58 35.4 203.47 35.4 203.39 35.44 203.28 35.48 203.16 35.48 203.05 35.53 202.94 35.57 202.86 35.57 202.75 35.61 202.64 35.65 202.52 35.65 202.41 35.69 202.3 35.74 202.22 35.74 202.11 35.78 201.99 35.82 201.88 35.86 201.77 35.86 201.65 35.9 201.58 35.94 201.47 35.99 201.35 36.03 201.24 36.03 201.13 36.07 201.01 36.11 200.94 36.15 200.83 36.2 200.71 36.24 200.6 36.28 200.49 36.28 200.37 36.32 200.3 36.36 200.18 36.41 200.07 36.45 199.96 36.49 199.84 36.53 199.73 36.57 199.66" class="cls-2"/><polygon points="32.64 208.14 32.64 209.43 32.68 209.5 32.68 210.22 32.72 210.29 32.72 210.63 32.76 210.71 32.76 211.05 32.8 211.09 32.8 211.35 32.85 211.42 32.85 211.61 32.89 211.65 32.89 211.88 32.93 211.92 32.93 212.07 32.97 212.1 32.97 212.25 33.01 212.33 33.01 212.48 33.05 212.52 33.05 212.67 33.1 212.71 33.1 212.82 33.14 212.86 33.14 212.97 33.18 213.01 33.18 213.08 33.22 213.16 33.22 213.24 33.26 213.31 33.26 213.39 33.31 213.42 33.31 213.54 33.35 213.57 33.35 213.69 33.39 213.73 33.39 213.76 33.43 213.84 33.43 213.91 33.47 213.95 33.47 214.03 33.52 214.06 33.52 214.14 33.56 214.22 33.56 214.25 33.6 214.29 33.6 214.37 33.64 214.44 33.64 214.48 33.68 214.52 33.68 214.56 33.73 214.63 33.73 214.67 33.77 214.71 33.77 214.74 33.81 214.78 33.81 214.86 33.85 214.89 33.85 214.93 33.89 214.97 33.89 215.05 33.93 215.08 33.93 215.12 33.98 215.16 33.98 215.2 34.02 215.23 34.02 215.31 34.06 215.35 34.06 215.39 34.1 215.42 34.1 215.46 34.14 215.54 34.14 215.57 34.23 215.65 34.23 215.69 34.27 215.72 34.27 215.8 34.31 215.84 34.31 215.88 34.35 215.91 34.4 215.95 34.4 215.99 34.44 216.03 34.44 216.1 34.52 216.18 34.52 216.22 34.6 216.29 34.6 216.33 34.65 216.37 34.69 216.44 34.69 216.48 34.77 216.55 34.77 216.59 34.81 216.63 34.86 216.67 34.86 216.71 34.9 216.74 34.94 216.78 34.94 216.86 34.98 216.89 35.02 216.93 35.02 216.97 35.06 216.97 35.06 217.05 35.11 217.08 35.11 217.12 35.15 217.2 35.19 217.23 35.19 217.31 35.23 217.35 35.23 217.42 35.27 217.46 35.27 217.5 35.32 217.57 35.36 217.61 35.36 217.69 35.4 217.72 35.4 217.76 35.44 217.84 35.48 217.87 35.48 217.95 35.57 218.03 35.57 218.1 35.61 218.14 35.61 218.21 35.69 218.29 35.69 218.37 35.74 218.4 35.78 218.44 35.78 218.52 35.82 218.55 35.86 218.63 35.86 218.67 35.9 218.7 35.94 218.78 35.94 218.82 35.99 218.89 36.03 218.93 36.03 218.97 36.07 219.04 36.11 219.08 36.11 219.12 36.15 219.2 36.24 219.27 36.24 219.35 36.28 219.38 36.32 219.46 36.32 219.5 36.36 219.53 36.41 219.61 36.45 219.65 36.45 219.69 36.49 219.76 36.53 219.8 36.57 219.84 36.57 285.09 29.66 285.09 29.66 201.69 29.83 201.65 30.12 201.5 30.38 201.24 30.5 200.94 30.5 200.79 30.54 200.71 30.54 200.6 30.58 200.56 30.58 200.41 30.63 200.33 30.63 200.22 30.67 200.15 30.67 200.03 30.71 199.96 30.71 199.84 30.75 199.77 30.75 199.66 30.79 199.62 30.79 199.47 30.84 199.43 30.84 199.35 30.88 199.28 30.88 199.17 30.92 199.09 30.92 199.01 30.96 198.94 30.96 198.86 31 198.83 31 198.75 31.05 198.68 31.05 198.6 31.09 198.52 31.09 198.45 31.13 198.34 31.13 198.26 31.17 198.18 31.17 198.11 31.21 198.03 31.25 197.96 31.25 197.85 31.3 197.77 31.3 197.69 31.34 197.62 31.38 197.51 31.38 197.43 31.42 197.35 31.46 197.24 31.46 197.17 31.51 197.09 31.55 196.98 31.55 196.9 31.59 196.79 31.63 196.71 31.67 196.6 31.67 196.52 31.72 196.41 31.76 196.34 31.8 196.22 31.84 196.15 31.84 196.03 31.88 195.92 31.92 195.85 31.97 195.73 32.01 195.62 32.05 195.54 32.09 195.43 32.13 195.32 32.18 195.24 32.18 195.13 32.22 195.02 32.26 194.9 32.3 194.83 32.34 194.71 32.39 194.6 32.43 194.49 32.47 194.37 32.51 194.3 32.55 194.19 32.64 194.07 32.68 193.96 32.72 193.85 32.76 193.73 32.8 193.66 32.85 193.55 32.93 193.32 32.97 193.28 33.01 193.21 33.01 193.17 33.05 193.09 33.05 193.05 33.1 192.98 33.1 192.94 33.14 192.87 33.18 192.83 33.18 192.75 33.26 192.68 33.26 192.6 33.31 192.56 33.31 192.49 33.35 192.45 33.39 192.38 33.39 192.34 33.43 192.26 33.47 192.22 33.47 192.15 33.52 192.11 33.56 192.04 33.56 192 33.6 191.96 33.64 191.89 33.64 191.85 33.68 191.77 33.73 191.73 33.73 191.66 33.77 191.62 33.81 191.55 33.81 191.51 33.85 191.43 33.89 191.4 33.89 191.32 33.93 191.28 33.98 191.21 34.02 191.17 34.02 191.09 34.1 191.02 34.1 190.94 34.14 190.9 34.19 190.83 34.23 190.79 34.23 190.72 34.27 190.68 34.31 190.6 34.35 190.57 34.35 190.49 34.4 190.45 34.44 190.38 34.48 190.34 34.48 190.26 34.52 190.23 34.56 190.19 34.6 190.11 34.65 190.07 34.65 190 34.69 189.96 34.73 189.89 34.77 189.85 34.81 189.77 34.81 189.74 34.86 189.66 34.9 189.62 34.94 189.58 34.98 189.51 34.98 189.47 35.02 189.4 35.06 189.36 35.11 189.28 35.15 189.24 35.19 189.17 35.19 189.13 35.23 189.09 35.27 189.02 35.32 188.98 35.36 188.91 35.4 188.87 35.44 188.79 35.44 188.75 35.48 188.72 35.53 188.64 35.57 188.6 35.61 188.53 35.69 188.45 35.74 188.38 35.78 188.34 35.78 188.26 35.86 188.19 35.9 188.11 35.94 188.08 35.99 188 36.07 187.92 36.11 187.85 36.15 187.81 36.2 187.74 36.24 187.7 36.28 187.66 36.32 187.59 36.32 187.55 36.36 187.51 36.41 187.43 36.45 187.4 36.49 187.36 36.53 187.28 36.57 187.25 36.57 191.51 36.53 191.62 36.45 191.7 36.41 191.81 36.36 191.89 36.32 192 36.28 192.07 36.24 192.19 36.2 192.3 36.15 192.38 36.11 192.49 36.07 192.56 35.99 192.68 35.94 192.75 35.9 192.87 35.86 192.98 35.82 193.05 35.78 193.17 35.74 193.28 35.69 193.36 35.65 193.47 35.61 193.58 35.57 193.66 35.53 193.77 35.48 193.88 35.44 193.96 35.4 194.07 35.36 194.19 35.32 194.26 35.23 194.49 35.19 194.6 35.15 194.68 35.15 194.79 35.11 194.9 35.06 195.02 35.02 195.09 34.98 195.2 34.94 195.32 34.9 195.43 34.86 195.51 34.81 195.62 34.81 195.73 34.77 195.85 34.73 195.96 34.69 196.03 34.65 196.15 34.6 196.26 34.6 196.37 34.56 196.49 34.52 196.56 34.48 196.68 34.44 196.79 34.44 196.9 34.4 197.02 34.35 197.13 34.31 197.24 34.31 197.32 34.27 197.43 34.23 197.54 34.19 197.66 34.19 197.77 34.14 197.88 34.1 198 34.1 198.11 34.06 198.22 34.02 198.3 34.02 198.41 33.98 198.52 33.93 198.64 33.93 198.75 33.89 198.86 33.85 198.98 33.85 199.09 33.81 199.2 33.81 199.32 33.77 199.43 33.73 199.54 33.73 199.66 33.68 199.77 33.68 199.84 33.64 199.96 33.64 200.07 33.6 200.18 33.6 200.3 33.56 200.41 33.56 200.52 33.52 200.64 33.52 200.75 33.47 200.86 33.47 200.98 33.43 201.09 33.43 201.2 33.39 201.32 33.39 201.43 33.35 201.54 33.35 201.77 33.31 201.88 33.31 202.11 33.26 202.22 33.26 202.33 33.22 202.45 33.22 202.67 33.18 202.79 33.18 203.13 33.14 203.24 33.14 203.5 33.1 203.62 33.1 204.07 33.05 204.18 33.05 204.67 33.01 204.75 33.01 204.9 32.97 204.97 32.97 205.09 32.93 205.2 32.93 205.43 32.89 205.54 32.89 205.69 32.85 205.73 32.85 206.03 32.8 206.07 32.8 206.41 32.76 206.45 32.76 206.78 32.72 206.9 32.72 207.28 32.68 207.35 32.68 208.03 32.64 208.14" class="cls-2"/><path d="M59.96,269.58v-1.34c0-.77-.46-1.15-1.39-1.15h-.2c-.48,0-.82.1-1.03.29-.21.19-.32.48-.32.86v1.34h2.95ZM55.7,269.58v-1.33c0-.31-.1-.55-.29-.71-.2-.16-.47-.24-.81-.24s-.59.09-.79.26c-.19.17-.29.41-.29.71v1.32h2.17ZM60.91,271.11h-8.31c-.16,0-.29-.07-.38-.2-.09-.13-.14-.29-.14-.48v-2.3c0-1.59.75-2.39,2.25-2.39,1.04,0,1.72.34,2.03,1.01.17-.4.41-.71.72-.91.31-.21.76-.31,1.36-.31h.27c.95,0,1.63.21,2.06.64.43.43.65,1.01.65,1.74v2.52c0,.2-.05.36-.15.49-.1.13-.22.19-.36.19" class="cls-2"/><path d="M60.89,264.43h-8.31c-.17,0-.3-.08-.38-.23-.08-.15-.13-.33-.13-.55s.04-.4.13-.55c.09-.15.21-.23.38-.23h8.31c.16,0,.29.08.38.23.09.15.14.33.14.54s-.05.4-.14.55c-.09.15-.22.23-.38.23" class="cls-2"/><path d="M60.89,261.45h-8.31c-.17,0-.3-.08-.38-.23-.08-.15-.13-.33-.13-.55s.04-.4.13-.55c.09-.15.21-.23.38-.23h3.49l-3.76-2.57c-.16-.11-.24-.25-.24-.43,0-.2.09-.4.28-.59.18-.2.38-.3.58-.3.13,0,.23.03.32.09l2.86,2.13,4.24-2.59c.09-.06.18-.08.29-.08.2,0,.39.1.57.29.17.19.26.41.26.64s-.11.42-.32.53l-3.64,2.24.87.64h2.51c.16,0,.29.08.38.23.09.15.14.33.14.54s-.05.4-.14.55c-.09.15-.22.23-.38.23" class="cls-2"/><path d="M60.89,254.89h-8.29c-.16,0-.29-.07-.38-.2-.09-.14-.14-.29-.14-.48v-4.23c0-.16.07-.28.22-.36.15-.08.31-.13.5-.13.2,0,.38.04.52.13.14.09.22.21.22.36v3.37h2.56v-1.81c0-.15.07-.27.2-.36.13-.09.29-.13.47-.13.16,0,.31.04.44.12.13.08.2.21.2.36v1.81h2.57v-3.37c0-.15.07-.27.22-.36.14-.09.32-.13.52-.13.19,0,.35.04.5.13.15.08.22.2.22.36v4.23c0,.18-.05.34-.14.48-.09.13-.22.2-.38.2" class="cls-2"/><path d="M52.74,246.81c-.18,0-.33-.11-.47-.32-.13-.21-.2-.44-.2-.67,0-.29.11-.46.33-.51l6.93-1.88-4.45-1.01c-.31-.07-.46-.32-.46-.76s.15-.68.46-.75l4.45-1.01-6.93-1.88c-.22-.06-.33-.23-.33-.51,0-.23.07-.45.2-.67.13-.21.29-.32.47-.32.05,0,.1,0,.15.02l8.04,2.36c.37.12.56.46.56,1.01,0,.24-.05.45-.15.64-.1.19-.24.31-.42.35l-3.45.76,3.45.77c.18.04.32.15.42.34.1.19.15.4.15.64s-.05.46-.15.66c-.1.19-.24.31-.42.36l-8.04,2.36c-.05.02-.1.02-.15.02" class="cls-2"/><path d="M58.08,234.48v-2.06l-3.92,1.04,3.92,1.02ZM60.68,236.95s-.06,0-.14-.02l-8.04-2.3c-.16-.05-.28-.16-.37-.35-.09-.19-.13-.4-.13-.64s.05-.45.15-.64c.1-.19.24-.31.42-.36l8.04-2.3c.07-.02.11-.02.13-.02.19,0,.35.11.49.32s.2.43.2.65c0,.29-.11.47-.33.52l-1.7.45v2.55l1.7.44c.22.06.33.26.33.59,0,.26-.07.51-.21.74-.14.24-.32.35-.53.35" class="cls-2"/><path d="M52.19,227.76s-.04-.04-.04-.08c-.08-.34-.13-.68-.13-1.06,0-.19,0-.41.04-.64s.08-.49.13-.72c.08-.26.21-.49.34-.64.17-.15.34-.26.54-.26.17,0,.38.08.59.19s.29.26.29.45c0,.08-.08.26-.25.57-.17.34-.25.68-.25,1.06,0,.41.08.72.25.94" class="cls-2"/><path d="M55.54,227.04v-.04c.13-.3.25-.6.42-.94.21-.3.38-.6.59-.91.21-.26.5-.53.88-.72.42-.19.84-.26,1.38-.26.25,0,.46.04.67.04" class="cls-2"/><path d="M61.15,225.42c.25.45.38.98.38,1.58,0,.75-.17,1.4-.5,1.92-.34.57-.67.83-1.09.83-.17,0-.38-.08-.59-.23-.21-.11-.29-.3-.29-.45,0-.11.04-.23.17-.38.08-.11.21-.23.34-.38.13-.11.25-.3.34-.53.13-.23.17-.49.17-.75,0-.19-.04-.34-.04-.53" class="cls-2"/><path d="M54.24,229.46c.13.08.25.08.38.08.38,0,.75-.08,1.09-.19.29-.15.5-.3.71-.57" class="cls-2"/><path d="M55.92,221.35v-2.45h-3.35c-.17,0-.29-.08-.38-.23s-.13-.34-.13-.57c0-.19.04-.38.13-.53s.21-.23.38-.23h8.33c.17,0,.29.08.38.23,0,.04.04.08.04.11" class="cls-2"/><polyline points="57.22 221.12 57.22 218.89 60.65 218.89" class="cls-2"/><path d="M60.78,221.57h.13c.17,0,.29.08.38.23.04.04.04.08.04.15" class="cls-2"/><line y2="223.12" x2="57.13" y1="223.12" x1="60.48" class="cls-2"/><path d="M54.72,159.84c.05-.02.11-.07.12-.12.24-.86.41-2.03.46-2.36,0-.05.01-.13.01-.18v-12.9c0-.05-.03-.12-.06-.17-1.42-1.73-.36-2.46-.03-2.64.05-.02.09-.08.08-.13l-.15-1.67c0-.05-.05-.1-.11-.11-.32-.06-1.23-.28-.06-.6.05-.01.09-.07.09-.12,0-.19-.03-.67-.09-1.52-.06-.94-2.71-.78-2.77-1.2-.07-.51-.14-1.03-.19-1.42,0-.05-.02-.09-.02-.09,0,0,0,0-.01,0-.1,0-.18-.08-.18-.17,0-.05.03-.1.07-.13.04-.03.09-.07.08-.11,0-.03,0-.05,0-.07,0-.05-.06-.09-.11-.1h-2.86c-.05,0-.1.05-.11.1,0,.02,0,.04,0,.07,0,.04.04.07.08.11.04.03.07.08.07.13,0,.09-.08.17-.18.17,0,0,0,0-.01,0,0,0-.02.04-.02.09-.05.39-.12.91-.19,1.42-.06.41-2.71.26-2.77,1.2-.05.84-.08,1.33-.09,1.52,0,.05.04.1.09.12,1.17.32.26.54-.06.6-.05.01-.1.06-.11.11l-.15,1.67c0,.05.03.11.08.13.33.17,1.4.91-.03,2.64-.03.04-.06.11-.06.17v12.9c0,.05,0,.13.01.18.04.33.21,1.5.46,2.36.01.05.07.1.12.12,1.53.5,3.01.66,4.3.66,1.3,0,2.78-.16,4.3-.66" class="cls-2"/><path d="M53.18,154.73c-.18-.15-.43-.22-.73-.22s-.55.07-.73.22c-.18.15-.27.38-.27.69v1.11c0,.32.09.55.27.69.18.15.43.22.73.22s.55-.07.73-.22c.18-.15.27-.38.27-.69v-1.11c0-.32-.09-.55-.27-.69ZM52.9,156.53c0,.31-.15.46-.45.46s-.45-.15-.45-.46v-1.11c0-.31.15-.46.45-.46s.45.15.45.46v1.11Z" class="cls-3"/><path d="M47.94,157.26c0,.05-.03.09-.08.12-.06.03-.12.04-.2.04s-.14-.01-.2-.04c-.05-.03-.08-.07-.08-.12v-2.59c0-.05.03-.09.08-.12.05-.03.12-.04.2-.04s.14.01.2.04c.05.03.08.07.08.12v1.04h.97v-1.04c0-.05.03-.09.08-.12.05-.03.12-.04.2-.04s.14.01.2.04c.05.03.08.07.08.12v2.59c0,.05-.03.09-.08.12-.06.03-.12.04-.2.04s-.14-.01-.2-.04c-.05-.03-.08-.07-.08-.12v-1.15h-.97v1.15Z" class="cls-3"/><path d="M50.11,158.26s-.06,0-.09-.03c-.03-.02-.04-.04-.04-.06v-.22c0-.07.02-.13.07-.19.05-.06.11-.12.18-.17l.23-.15c.08-.05.14-.11.19-.17.05-.06.08-.12.08-.17,0-.05-.02-.1-.06-.14-.04-.04-.09-.06-.17-.06-.06,0-.11.02-.15.05-.04.03-.06.08-.06.15,0,.03-.01.05-.04.08-.03.02-.07.03-.12.03-.09,0-.14-.05-.14-.16,0-.12.05-.22.15-.3.1-.08.22-.11.36-.11.15,0,.27.04.38.12.11.08.16.19.16.32,0,.09-.03.17-.08.25-.05.08-.12.14-.19.2-.07.05-.15.11-.22.15-.07.05-.14.09-.19.14-.05.05-.08.09-.08.13v.05h.67s.05.01.07.04c.02.02.03.05.03.09s0,.06-.03.09c-.02.03-.04.04-.07.04h-.84Z" class="cls-3"/><path d="M50.42,149.21c-1.12,0-2.03-.85-2.03-1.89v-5.81c0-1.04.91-1.89,2.03-1.89s2.03.85,2.03,1.89v5.81c0,1.04-.91,1.89-2.03,1.89" class="cls-2"/><path d="M55.46,227.04v.04l.04-.04h-.04ZM55.46,227.04v.04l.04-.04h-.04Z" class="cls-2"/><path d="M67.52,207.12v-.64l-.04-.08v-.41l-.04-.08v-.3l-.04-.08v-.26l-.04-.08v-.23l-.04-.08v-.15l-.04-.08v-.15l-.04-.08v-.15l-.04-.08v-.15l-.04-.08v-.15l-.04-.08v-.08l-.04-.08v-.08l-.04-.08v-.15l-.04-.08v-.08l-.04-.15-.04-.11-.04-.15-.04-.15-.04-.11-.04-.15v-.11l-.04-.15-.04-.11-.04-.15-.04-.15v-.11l-.04-.15-.04-.11-.04-.15-.04-.11v-.15l-.04-.15-.04-.11-.04-.15-.04-.11v-.15l-.04-.11-.04-.15-.04-.11v-.15l-.08-.26-.04-.26-.08-.26-.04-.26-.08-.26-.04-.26-.08-.26-.08-.53-.13-.53-.08-.26-.04-.23-.08-.26-.08-.53-.08-.23-.04-.26-.08-.26v-.11l-.04-.11-.04-.15v-.11l-.04-.11-.04-.15-.04-.11v-.11l-.04-.11-.04-.15-.04-.11v-.11l-.04-.11-.04-.15v-.11l-.04-.11-.04-.11-.04-.11v-.15l-.04-.11-.04-.11-.04-.11v-.11l-.04-.11-.04-.15-.08-.23v-.11l-.04-.11-.04-.11-.04-.11v-.11l-.04-.11-.04-.11-.04-.11-.04-.11-.04-.11v-.11l-.04-.11-.04-.11-.04-.11-.04-.11-.04-.11-.04-.11v-.11l-.04-.11-.04-.11-.04-.11-.04-.11-.04-.11-.04-.11-.04-.08v-.08l-.04-.04v-.08l-.04-.04v-.08l-.04-.04v-.11l-.04-.04v-.08l-.04-.04v-.04l-.04-.08v-.04l-.04-.08v-.04l-.04-.04v-.08l-.04-.04v-.04l-.04-.08v-.04l-.04-.08v-.04l-.04-.04v-.08l-.04-.04v-.04l-.04-.08v-.04l-.04-.04-.04-.08v-.04l-.04-.04v-.08l-.04-.04v-.04l-.04-.08v-.04l-.04-.04v-.04l-.04-.08-.04-.04v-.04l-.04-.08v-.04l-.04-.04v-.08l-.04-.04v-.04l-.04-.04-.04-.08v-.04l-.04-.04v-.04l-.04-.08-.04-.04v-.04l-.04-.04v-.08l-.04-.04-.04-.04v-.04l-.04-.08v-.04l-.04-.04-.04-.04v-.04l-.04-.08-.04-.04v-.04l-.04-.04-.04-.04v-.08l-.08-.08v-.04l-.04-.04v-.08l-.04-.04-.04-.04v-.04l-.04-.04-.08-.08v-.08l-.04-.04-.04-.04v-.04l-.04-.04-.04-.04v-.04l-.04-.08-.08-.08v-.04l-.04-.04-.04-.04v-.04l-.04-.04-.08-.08v-.04l-.04-.08-.04-.04-.04-.04v-.04l-.13-.11-.04-.04v-.04l-.08-.08-.04-.04-.04-.04v-.04l-.17-.15v-.04l-.04-.04-.04-.04-.13-.11v-.04l-.29-.26v-.04l-.04-.04h-.04l-.17-.15-.04-.04-.04-.04-.08-.08v-.04h-.04l-.25-.23h-.04l-.04-.04-.04-.04-.04-.04-.04-.04h-.04l-.08-.08-.04-.04-.04-.04h-.04l-.04-.04-.08-.08h-.04l-.04-.04-.08-.08h-.04l-.04-.04-.04-.04-.08-.04h-.04l-.08-.08h-.04l-.04-.04-.04-.04h-.04l-.04-.04-.04-.04h-.04l-.08-.04-.04-.04h-.04l-.08-.08h-.04l-.04-.04-.08-.04h-.04l-.04-.04h-.04l-.04-.04h-.04l-.08-.04-.04-.04h-.04l-.04-.04h-.04l-.08-.04h-.04l-.04-.04h-.04l-.04-.04h-.08l-.04-.04h-.04l-.04-.04h-.08l-.04-.04h-.04l-.04-.04h-.08l-.04-.04h-.04l-.04-.04h-.13l-.04-.04h-.08l-.04-.04h-.13l-.04-.04h-.04l-.04-.04h-.13l-.04-.04h-.13l-.08-.04h-.08l-.08-.04h-.17l-.04-.04h-.17l-.08-.04h-.17l-.04-.04h-.25l-.08-.04h-.21l-.08-.04h-.42l-.08-.04h-.38v3.73l.04.04h.08v.04h.08l.04.04h.08v.04h.08v.04h.08l.04.04h.04l.04.04h.04l.04.04h.04l.04.04h.04l.04.04h.08l.04.04.04.04h.04l.08.08h.08l.04.04.04.04h.04l.04.04.04.04h.08l.04.04.08.08h.04l.08.08.04.04h.08l.17.15h.04l.04.04.04.04.08.08h.04l.04.04.04.04.08.04.04.04.04.04.04.04.08.08h.04l.08.08.04.04.04.04.17.15.04.04.04.04.17.15.04.04v.04l.04.04.13.11.04.04.04.04.04.04.04.04.04.08.04.04.04.04.04.04v.04l.04.04.04.04.04.04.04.08.13.11.04.04v.04l.04.08.13.11.04.04v.08l.04.04.08.08.04.08.04.04v.04l.04.04.04.08.04.04.04.04v.04l.04.08.04.04.04.04v.08l.04.04.04.04.04.08v.04l.04.04.04.08.04.04v.04l.04.08.04.04.04.04v.08l.04.04.04.08v.04l.04.04.04.08.04.04v.08l.04.04.04.08v.04l.04.04.04.08v.04l.04.08.04.04v.08l.04.04v.08l.04.04.04.08v.04l.04.08.04.04v.08l.04.04v.08l.04.04.04.08v.08l.04.04v.08l.04.04.04.08v.04l.04.08v.08l.04.04v.08l.04.04v.08l.04.04v.08l.04.08.04.04v.08l.04.08v.04l.04.08v.04l.04.08v.08l.04.04v.08l.04.08v.11l.04.08v.08l.04.04v.08l.04.08v.04l.04.08v.08l.04.04v.15l.04.08v.04l.04.08v.11l.04.08v.08l.04.08v.11l.04.08v.08l.04.04v.15l.04.08v.11l.04.08v.15l.04.08v.11l.04.08v.19l.04.08v.15l.04.08v.19l.04.08v.15l.04.08v.26l.04.08v.23l.04.04v.3l.04.08v.26l.04.08v.45l.04.08v.49l.04.08v.72l.04.08v2.15l-.04.08v.83l-.04.08v.53l-.04.15v.34l-.04.08v.3l-.04.08v.23l-.04.15v.3l-.04.08v.23l-.04.08v.23l-.04.08v.23l-.04.08v.19l-.04.08v.15l-.04.08v.08l-.04.15v.23l-.04.08v.15l-.04.08v.11l-.04.08v.15l-.04.08v.08l-.04.08v.15l-.04.08v.11l-.04.08v.08l-.04.08v.15l-.04.08v.08l-.04.08v.11l-.04.08v.08l-.04.08v.08l-.04.08v.11l-.04.08v.08l-.04.08v.08l-.04.08v.08l-.04.04v.08l-.04.08v.08l-.04.08v.08l-.04.04v.15l-.04.08-.04.08v.08l-.04.04v.08l-.04.08v.08l-.04.08v.04l-.04.08v.08l-.04.08v.08l-.04.04v.08l-.04.08v.08l-.04.04-.04.08v.08l-.04.08v.04l-.04.08v.08l-.04.08-.04.04v.08l-.04.08v.08l-.04.04v.08l-.04.08-.04.04v.08l-.04.08v.04l-.04.08-.04.08v.08l-.04.04-.04.08v.08l-.04.04v.08l-.04.04-.04.08v.08l-.04.04-.04.08v.04l-.04.08v.04l-.04.08-.04.04v.08l-.04.04v.04l-.04.08-.04.04v.08l-.04.04v.04l-.04.08-.04.04v.04l-.04.08v.04l-.04.04-.04.04v.08l-.04.04v.04l-.04.04v.04l-.04.08-.04.04v.04l-.04.04v.04l-.04.04v.04l-.04.04-.04.04v.04l-.04.04v.04l-.04.04v.04l-.04.04v.04l-.04.04-.04.04v.04l-.04.04v.04l-.04.04v.04h-.04v.04l-.04.04v.04l-.04.04-.04.04v.04l-.08.08v.04h-.04v.04l-.08.08v.04h-.04v.04h-.04v.04l-.04.04-.08.08v.04h-.04l-.04.04-.04.04v.04h-.04l-.08.08h-.04v.04h-.04v.04h-.04l-.04.04h-.04v.04h-.13v.04h-.21v-.04h-.08v-.04h-.08v-.04h-.04v-.04h-.04l-.04-.04-.04-.04h-.04v-.04l-.04-.04-.08-.08v-.04h-.04v-.04h-.04v-.04h-.04v-.04l-.04-.04v-.04h-.04v-.04l-.04-.04v-.04h-.04v-.04h-.04v-.04l-.04-.04v-.04l-.04-.04v-.04h-.04v-.08h-.04v-.04l-.04-.04v-.04l-.04-.04v-.04h-.04v-.08h-.04v-.08h-.04v-.08h-.04v-.08l-.04-.04v-.04l-.04-.04v-.04l-.04-.04v-.08h-.04v-.08l-.04-.04v-.04l-.04-.04v-.08h-.04v-.04l-.04-.08v-.08l-.04-.04-.04-.08v-.08l-.04-.04-.04-.08v-.08l-.04-.08-.04-.04v-.08l-.04-.08v-.08l-.04-.08-.04-.04v-.08l-.04-.08v-.08l-.04-.08-.04-.08v-.08l-.04-.04v-.08l-.04-.08v-.08l-.04-.08v-.08l-.04-.08-.04-.08v-.08l-.04-.08v-.08l-.04-.08v-.08l-.04-.08v-.08l-.04-.08v-.08l-.04-.08v-.08l-.04-.08v-.08l-.04-.08v-.15l-.04-.08v-.08l-.04-.08v-.08l-.04-.08v-.15l-.04-.08v-.08l-.04-.08v-.15l-.04-.08v-.15l-.04-.08v-.08l-.04-.08v-.15l-.04-.08v-.23l-.04-.04v-.15l-.04-.08v-.23l-.04-.08v-.19l-.04-.08v-.23l-.04-.04v-.34l-.04-.08v-.3l-.04-.08v-.6l-.04-.08v-.08l-.04-.34-.21-.3-.29-.19-.34-.11h-.33l-.33.11-.29.23-.17.3-.04.34v.42l.04.08v.45l.04.08v.34l.04.08v.3l.04.04v.23l.04.08v.23l.04.08v.15l.04.08v.26l.04.08v.15l.04.08v.15l.04.08v.08l.04.08v.19l.04.08v.08l.04.08v.15l.04.08v.11l.04.08v.08l.04.08v.15l.04.08v.11l.04.08v.08l.04.08v.08l.04.08v.11l.04.08v.08l.04.08.04.08v.08l.04.08v.11l.04.08v.08l.04.08v.08l.04.08.04.08v.08l.04.08v.11l.08.15v.08l.08.15v.08l.04.08.04.08v.08l.08.15v.08l.08.15v.08l.04.08.08.15v.08l.08.15.04.08v.04l.04.04v.08l.04.04v.04l.04.04v.08l.04.04v.04l.04.04v.04l.04.04v.04l.04.04v.04l.04.04v.08h.04v.04l.04.04v.08l.04.04v.04l.08.08v.04l.04.04v.08h.04v.04l.04.04v.04l.04.04.04.04v.04l.04.04v.04h.04v.08l.04.04v.04h.04v.04l.04.04v.04h.04v.04l.04.04v.04h.04v.04l.04.04h.04v.04l.04.04v.04h.04v.04l.04.04.04.04v.04h.04v.04l.04.04h.04v.04l.08.08v.04h.04l.04.04.04.04v.04h.04l.13.11.04.04h.04v.04h.04l.04.04.04.04h.04v.04h.04l.08.08h.04l.04.04.04.04h.04l.04.04h.04l.04.04h.04l.04.04h.04l.04.04h.08v.04h.13l.04.04h.08l.04.04h.21l.04.04h.59l.04-.04h.17l.04-.04h.13l.04-.04h.08v-.04h.08l.04-.04h.08l.08-.08h.04l.04-.04h.08v-.04h.04l.04-.04h.04l.04-.04.08-.08h.04l.04-.04h.04v-.04l.04-.04h.04l.04-.04v-.04h.04l.17-.15h.04v-.04l.08-.08h.04v-.04l.17-.15v-.04l.08-.08h.04v-.04l.04-.04.04-.04v-.04l.08-.08v-.04l.08-.08v-.04l.04-.04.04-.04.04-.04v-.04l.08-.08v-.04l.04-.04.04-.04v-.04l.08-.08v-.04l.08-.08v-.04l.04-.08.04-.04v-.04l.04-.04.04-.04v-.04l.04-.08.04-.04v-.04l.04-.04.04-.08v-.04l.04-.04.04-.08v-.04l.08-.08v-.08l.04-.04.04-.08v-.04l.04-.04.04-.08v-.04l.04-.08.04-.04v-.04l.04-.08.04-.04v-.08l.04-.04v-.08l.04-.08.04-.04v-.08l.04-.04.04-.08v-.04l.04-.08.04-.08v-.04l.04-.08.04-.08v-.04l.08-.15v-.04l.04-.08.04-.08v-.08l.04-.04.04-.08v-.08l.04-.08.04-.08v-.04l.04-.08.04-.08v-.08l.04-.08.04-.08v-.04l.08-.15v-.08l.04-.08v-.08l.04-.04.04-.08v-.08l.04-.08v-.08l.08-.15v-.08l.04-.04v-.08l.04-.08v-.08l.04-.08.04-.08v-.08l.04-.08v-.08l.04-.08v-.04l.04-.08v-.08l.04-.08.04-.08v-.08l.04-.08v-.08l.04-.08v-.08l.04-.08v-.08l.04-.08v-.08l.04-.08v-.08l.04-.08v-.04l.04-.08v-.08l.04-.08v-.15l.04-.08v-.08l.04-.08v-.08l.04-.08v-.08l.04-.08v-.15l.04-.08v-.08l.04-.08v-.08l.04-.08v-.15l.04-.08v-.08l.04-.08v-.15l.04-.08v-.15l.04-.08v-.08l.04-.08v-.19l.04-.08v-.15l.04-.08v-.15l.04-.08v-.15l.04-.08v-.23l.04-.08v-.15l.04-.08v-.23l.04-.11v-.23l.04-.08v-.23l.04-.08v-.23l.04-.08v-.34l.04-.08v-.3l.04-.08v-.38l.04-.11v-.45l.04-.08v-.72l.04-.08v-.79l.04.08v.15l.04.08v.11l.04.08v.23l.04.08v.15l.04.08v.23l.04.08v.23l.04.08v.23l.04.08v.26l.04.08v.3l.04.08v.3l.04.08v.34l.04.08v.38l.04.08v.49l.04.08v.68l.04.08v1.51l.04.08v.11l-.04.15v1.4l-.04.15v.53l-.04.26v.26l-.04.23v.26l-.04.23v.38l-.04.11v.34l-.04.11v.34l-.04.11v.34l-.04.11v.23l-.04.11v.34l-.04.11v.19l-.04.11v.23l-.04.11v.19l-.04.11v.19l-.04.11v.11l-.04.08v.19l-.04.11v.15l-.04.04v.19l-.04.08v.11l-.04.08v.11l-.04.04v.19l-.04.04v.15l-.04.04v.11l-.04.04v.11l-.04.04v.15l-.04.04v.08l-.04.04v.15l-.04.04v.08l-.04.04v.08l-.04.04v.08l-.04.04v.15l-.04.04v.08l-.04.04v.04l-.04.04v.08l-.04.04v.08l-.04.04v.08l-.04.04v.08l-.04.04-.04.04v.08l-.04.04v.04l-.04.04v.08l-.04.04v.04l-.04.04v.04l-.04.04v.04l-.04.04v.04l-.04.04v.04l-.04.04v.04l-.04.04v.04l-.04.04-.04.04v.08l-.04.04v.04h-.04v.04l-.04.04v.04h-.04v.04l-.04.04v.04h-.04v.04l-.04.04v.04h-.04v.04l-.04.04v.04h-.04v.04l-.04.04-.04.04-.04.04v.04h-.04v.04l-.08.08v.04h-.04l-.04.04v.04h-.04v.04l-.04.04-.04.04h-.04v.04l-.08.08h-.04v.04l-.04.04h-.04v.04h-.04v.04l-.04.04h-.04v.04h-.04l-.04.04-.04.04h-.04v.04l-.04.04h-.04l-.04.04-.04.04h-.04v.04h-.04l-.04.04h-.04v.04h-.04l-.04.04h-.04v.04h-.04l-.04.04h-.04v.04h-.04l-.04.04h-.08v.04h-.04l-.04.04h-.04l-.04.04h-.04v.04h-.08l-.04.04h-.04l-.04.04h-.04l-.04.04h-.04l-.04.04h-.08l-.04.04h-.08l-.04.04h-.04l-.04.04h-.08l-.04.04h-.08l-.04.04h-.13l-.04.04h-.08l-.04.04h-.08l-.04.04h-.13l-.04.04h-.17l-.04.04h-.13l-.08.04h-.13l-.04.04h-.21l-.04.04h-.29l-.04.04h-.38l-.08.04h-.59l-.04.04h-1.3l-.04-.04h-.71l-.08-.04h-.42l-.08-.04h-.29l-.08-.04h-.29l-.08-.04h-.25l-.08-.04h-.25l-.08-.04h-.25l-.08-.04h-.17l-.08-.04h-.17l-.08-.04h-.17l-.08-.04h-.17l-.08-.04h-.08l-.08-.04h-.21l-.08-.04h-.08l-.08-.04h-.21l-.08-.04h-.08l-.08-.04h-.08l-.13-.04h-.08l-.08-.04h-.08l-.13-.04h-.08l-.08-.04h-.13l-.08-.04h-.08l-.13-.04h-.08l-.08-.04h-.13l-.08-.04h-.08l-.13-.04-.08-.04h-.13l-.08-.04h-.13l-.08-.04-.08-.04h-.13l-.08-.04h-.13l-.08-.04-.13-.04h-.08l-.13-.04-.08-.04h-.13l-.13-.04-.08-.04h-.13l-.08-.04-.13-.04h-.13l-.08-.04-.13-.04-.08-.04h-.13l-.13-.04-.08-.04-.13-.04h-.13l-.13-.04-.08-.04-.13-.04-.13-.04h-.13l-.17-.08h-.08l-.04-.04h-.13l-.04-.04h-.08l-.04-.04h-.04l-.04-.04h-.13l-.04-.04h-.04l-.04-.04h-.08l-.04-.04h-.04l-.04-.04h-.13l-.04-.04h-.04l-.04-.04h-.04l-.08-.04h-.04l-.04-.04h-.04l-.04-.04h-.04l-.04-.04h-.08l-.04-.04h-.04l-.04-.04h-.04l-.04-.04h-.04l-.08-.08h-.04l-.04-.04h-.08l-.04-.04h-.04l-.04-.04h-.04l-.04-.04-.04-.04h-.04l-.04-.04h-.04l-.04-.04h-.04l-.08-.08h-.04l-.04-.04h-.04l-.04-.04-.04-.04h-.04l-.04-.04h-.04l-.04-.04-.04-.04h-.04l-.04-.04-.13-.11h-.04l-.04-.04h-.04l-.08-.08h-.04l-.08-.08-.04-.04-.04-.04h-.04l-.04-.04-.08-.08-.04-.04-.04-.04h-.04l-.04-.04-.04-.04-.08-.08-.04-.04h-.04l-.04-.04v-.04l-.04-.04h-.04l-.04-.04-.04-.04v-.04h-.04l-.08-.08v-.04h-.04l-.04-.04-.04-.04v-.04h-.04l-.08-.08v-.04l-.04-.04h-.04v-.04l-.04-.04-.04-.04h-.04v-.04l-.04-.04-.04-.04v-.04l-.04-.04h-.04v-.04l-.04-.04-.04-.04v-.04h-.04l-.04-.04v-.04l-.04-.04v-.04l-.17-.15v-.04h-.04v-.11l-.04-.04v-.04l-.04-.08v-.04l-.04-.04v-.08l-.04-.04v-.04l-.04-.08v-.04l-.04-.04v-.08l-.04-.04v-.11l-.04-.04v-.04l-.04-.08v-.04l-.04-.04v-.08l-.04-.04v-.11l-.04-.04v-.04l-.04-.08v-.08l-.04-.08v-.04l-.04-.04v-.11l-.04-.04v-.08l-.04-.04v-.11l-.04-.04v-.08l-.04-.04v-.11l-.04-.04v-.11l-.04-.04v-.11l-.04-.04v-.11l-.04-.04v-.11l-.04-.08v-.08l-.04-.08v-.11l-.04-.04v-.11l-.04-.04v-.15l-.04-.08v-.08l-.04-.08v-.15l-.04-.04v-.19l-.04-.04v-.15l-.04-.08v-.15l-.04-.04v-.15l-.04-.08v-.15l-.04-.04v-.23l-.04-.04v-.23l-.04-.08v-.26l-.04-.04v-.26l-.04-.08v-.3l-.04-.08v-.3l-.04-.08v-.45l-.04-.08v-.6l-.04-.04v-2.68l.04-.11v-.3l.04-.08v-.15l.04-.04v-.15l.04-.08v-.15l.04-.04v-.15l.08-.23v-.11l.04-.11v-.08l.04-.11.04-.11v-.11l.04-.11.04-.08v-.11l.04-.11.04-.11v-.11l.04-.11.04-.08v-.11l.04-.11.04-.11.04-.11v-.11l.04-.08.04-.11.04-.11.04-.11v-.11l.04-.11.04-.08.04-.11.04-.11.04-.11.04-.11v-.11l.04-.08.04-.11.04-.11.04-.11.04-.11.04-.11.04-.08.04-.11.04-.11.04-.11.04-.11.04-.11.04-.08.04-.11.04-.11.04-.11.04-.11.04-.11.04-.08.04-.11.08-.23.04-.11.04-.08.04-.11.04-.11.04-.11.04-.11.04-.08.08-.11.04-.11.04-.11.04-.11.04-.08.04-.11.04-.11.08-.11.04-.11.04-.08.04-.11.04-.11.08-.11.04-.08.04-.11.04-.11.08-.11.04-.08.08-.23.08-.11.04-.08.04-.11.04-.11.08-.08.04-.11.04-.11.08-.08.04-.11.04-.11.04-.11.08-.08.04-.11.04-.11.08-.08.04-.11.04-.11.08-.08.04-.11.08-.08.04-.11.04-.11.08-.08.04-.11.08-.11.04-.08.04-.11.08-.08.04-.11.08-.08.04-.11.04-.11.08-.08.04-.11.08-.08.04-.11.08-.08.04-.11.08-.08.04-.11.04-.08.08-.11.04-.08.08-.11.04-.08.08-.11.04-.08.08-.11.04-.08.08-.08.04-.11.08-.08.04-.11.08-.08.04-.08.08-.11.08-.08.04-.08.08-.11.04-.08.08-.11.04-.08.08-.08.04-.08.08-.11.04-.08.08-.08.08-.11.04-.08.08-.08.04-.08.08-.11.04-.08.08-.08.08-.08.04-.08.08-.11.04-.08.08-.08.04-.08.08-.08.08-.08.04-.08.08-.08.04-.11.17-.15.04-.08.08-.08.04-.08.08-.08.08-.08.04-.08.08-.08.08-.08.04-.08.08-.08.04-.08.08-.08.08-.08.13-.11.04-.08.17-.15.04-.08.08-.08.08-.04.04-.08.08-.08.04-.08.08-.08.08-.04.04-.08.17-.15.04-.04.08-.08.04-.08.08-.04.08-.08.04-.08.08-.04.04-.08.08-.04.08-.08.38-.34.04-.04.04-.04h.04l.04-.04v-.04h.04l.21-.19h.04l.04-.04v-.04h.04l.04-.04.04-.04h.04v-.04l.04-.04h.04l.04-.04v-.04h.04l.04-.04.04-.04h.04v-.04l.04-.04h.04l.04-.04h.04v-.04l.04-.04h.04l.04-.04.04-.04.04-.04h.04l.04-.04h.04l.04-.04v-3.36h-1.88l-.04.04h-.42l-.04.04h-.29l-.04.04h-.25l-.04.04h-.25l-.04.04h-.13l-.04.04h-.21l-.04.04h-.13l-.04.04h-.17l-.04.04h-.13l-.04.04h-.08l-.04.04h-.13l-.04.04h-.13l-.04.04h-.08l-.04.04h-.08l-.08.04h-.08l-.17.08h-.04l-.08.04h-.08l-.08.04-.04.04h-.08l-.17.08h-.08l-.04.04-.08.04h-.08l-.08.04-.04.04-.08.04h-.08l-.04.04-.08.04-.08.04-.08.04h-.04l-.08.04-.08.04-.04.04-.08.04h-.08l-.04.04-.17.08-.04.04-.08.04-.04.04-.08.04h-.08l-.04.04-.17.08-.04.04-.08.04-.04.04-.08.04-.04.04-.08.04-.08.04-.04.04-.08.04-.04.04-.08.04-.04.04-.08.04-.04.04-.08.04-.04.04-.08.04-.04.04-.08.04-.04.04-.08.04-.04.08-.08.04-.04.04-.08.04-.04.04-.08.04-.04.04-.04.04-.08.04-.04.08-.08.04-.04.04-.08.04-.04.04-.13.11-.04.04-.08.04-.25.23-.08.04-.04.08-.04.04-.08.04-.04.04-.04.08-.08.04-.25.23-.04.08-.08.04-.21.19-.04.04-.04.08-.08.04-.04.04-.04.08-.04.04-.08.04-.04.08-.08.08-.04.08-.08.04-.04.08-.04.04-.04.04-.04.08-.08.04-.04.08-.04.04-.04.04-.04.08-.04.04-.08.08-.04.04-.04.04-.04.08-.04.04-.04.08-.04.04-.04.08-.08.04-.04.04-.04.08-.04.04-.04.08-.04.04-.04.08-.04.04-.04.08-.04.04-.04.08-.04.04-.04.08-.04.04-.08.04-.04.08-.04.04-.04.08-.04.04-.04.08-.04.04-.04.08-.04.04-.04.08-.04.04-.04.08-.04.08-.04.04-.04.08-.04.04-.04.08-.04.04v.08l-.04.04-.04.08-.04.04-.04.08-.04.04-.04.08-.04.04-.04.08-.04.04-.04.08-.04.04-.04.08-.04.08v.04l-.04.08-.04.04-.04.08-.04.04-.04.08-.04.04-.04.08-.04.08v.04l-.04.08-.04.04-.04.08-.04.04-.04.08v.04l-.04.08-.04.08-.04.04-.04.08-.04.04v.08l-.04.04-.04.08-.08.11-.04.11-.04.08-.04.04-.04.08-.04.11-.08.11v.08l-.04.04-.04.08-.04.04-.04.11-.08.15v.04l-.04.08-.04.04v.08l-.04.04-.04.08-.04.08v.04l-.04.08-.04.04v.08l-.04.04-.04.08v.04l-.04.08-.04.04v.08l-.04.08-.04.04v.08l-.04.04-.04.08v.04l-.04.08-.04.04v.08l-.04.04v.08l-.04.04-.04.08v.04l-.08.11-.04.15-.04.11-.04.11-.04.11-.04.11-.08.11-.04.11-.04.08-.04.11-.04.11-.04.11-.04.11-.04.11-.04.11-.08.23-.04.11-.04.08-.04.11-.04.11-.04.11-.04.11-.04.08-.04.11v.11l-.04.11-.04.08-.04.11-.04.11-.04.08v.11l-.04.11-.04.08-.04.11-.04.08v.11l-.04.08-.04.11v.08l-.04.11-.04.08v.11l-.08.15v.11l-.08.15v.11l-.04.08v.08l-.04.08-.04.08v.11l-.04.08v.08l-.04.08v.08l-.04.08v.08l-.04.15-.04.08v.11l-.04.08v.08l-.04.08v.11l-.04.08v.11l-.04.08v.11l-.04.08-.04.11v.11l-.04.08v.11l-.04.08v.15l-.04.04v.15l-.04.04v.45l.13.3.21.26.34.15.33.08.21-.04.17-.04.29-.15.25-.26.13-.3v-.15l.04-.08v-.11l.04-.04v-.15l.04-.08v-.11l.04-.08v-.11l.04-.08v-.11l.04-.08v-.11l.04-.04v-.15l.04-.04v-.08l.04-.08v-.11l.04-.08v-.08l.04-.08v-.08l.04-.04v-.08l.04-.08v-.08l.04-.08v-.08l.04-.11v-.08l.04-.08v-.08l.04-.08.04-.08v-.11l.04-.08v-.08l.04-.08.04-.11v-.08l.04-.08.04-.11v-.08l.04-.08.04-.11v-.08l.04-.11.04-.08.04-.11v-.08l.04-.11.04-.08.04-.11.04-.08v-.11l.04-.11.04-.08.04-.11.04-.11.04-.08.04-.11.04-.11.04-.08v-.11l.04-.11.04-.11.04-.08.04-.11.04-.11.04-.11.04-.11.04-.08.04-.11.08-.11.04-.11.04-.11.04-.11.04-.08.04-.11.08-.23.04-.04.04-.08v-.04l.04-.08v-.04l.04-.08v-.04l.04-.08.04-.04v-.08l.08-.08v-.08l.04-.04v-.08l.04-.04.04-.08v-.04l.04-.08.04-.04v-.08l.04-.04.04-.08v-.04l.04-.04.04-.08v-.04l.04-.08.04-.04v-.08l.04-.04.04-.08v-.04l.04-.08.04-.04v-.08l.04-.04.04-.08.04-.04v-.08l.08-.08v-.08l.04-.04.04-.08.04-.04v-.08l.04-.04.04-.08.04-.04v-.08l.04-.04.04-.08.04-.04v-.08l.04-.04.04-.04.04-.08.04-.04v-.08l.04-.04.04-.08.04-.04.04-.08v-.04l.04-.08.04-.04.04-.04.04-.08v-.04l.04-.08.04-.04.04-.08.04-.04.04-.08v-.04l.04-.04.04-.08.04-.04.04-.08.04-.04.04-.08v-.04l.04-.04.04-.08.04-.04.04-.08.08-.08.04-.08.04-.04v-.08l.08-.08.04-.08.04-.04.04-.08.08-.08.04-.08.04-.04.04-.08.04-.04.04-.04.04-.08v-.04l.04-.04.04-.08.04-.04.04-.04.04-.08.08-.08.04-.08.08-.08.04-.08.04-.04.04-.04.04-.08.08-.08.04-.08.08-.08.04-.08.04-.04.04-.04.08-.04.04-.08.08-.08.04-.04.04-.08.04-.04.08-.08.04-.08.08-.08.04-.04.04-.08.08-.04.08-.08.04-.04.04-.08.04-.04.13-.11.08-.08.04-.04.17-.15.04-.04.08-.08.13-.11.04-.04.08-.04.04-.04.04-.04.04-.08.04-.04.04-.04.08-.04.08-.08.04-.04.08-.04.04-.04.04-.04.08-.08.08-.04.08-.08.04-.04.08-.04.13-.11.08-.04.04-.04.04-.04.08-.04.08-.08.04-.04.08-.04.04-.04.04-.04.08-.04.04-.04h.04l.08-.04.04-.04.04-.04.08-.04.08-.08h.08l.04-.04.04-.04.08-.04.08-.08h.08l.04-.04.08-.04.08-.08h.08l.04-.04.08-.04.04-.04h.04l.08-.04.04-.04.08-.04h.04l.08-.04.04-.04h.04l.08-.04.04-.04h.08l.04-.04.08-.04h.04l.08-.04.04-.04h.08l.04-.04h.08l.04-.04.08-.04h.04l.08-.04h.04l.08-.04h.04l.08-.04h.04l.08-.04h.04l.08-.04h.04l.08-.04h.04l.04-.04h.13v-.04h.17v-.04h.13l.04-.04h.13l.04-.04h.17v-.04h.17v-.04h.21v-.04h.21l.04-.04h.25l.04-.04h.21l-.04.04h-.04l-.04.04h-.04l-.04.04h-.08l-.04.04h-.04l-.04.04h-.04l-.04.04h-.04l-.04.04h-.04l-.04.04h-.04l-.04.04h-.04l-.04.04h-.04l-.04.04h-.04l-.04.04h-.04v.04h-.04l-.04.04h-.04l-.04.04h-.04l-.04.04h-.04l-.04.04h-.04v.04l-.04.04h-.04l-.04.04h-.04l-.04.04h-.04l-.04.04h-.04v.04l-.04.04h-.04l-.04.04h-.04l-.04.04-.04.04h-.04l-.13.11h-.04l-.08.08h-.04l-.04.04-.08.08h-.04l-.08.08h-.04v.04l-.04.04h-.04l-.08.08h-.04l-.04.04v.04h-.04l-.04.04-.04.04-.04.04h-.04l-.04.04v.04h-.04l-.04.04-.04.04h-.04l-.04.04-.04.08-.08.04-.04.04-.04.04-.04.04-.04.04-.04.04-.08.04v.04l-.08.08h-.04l-.04.04-.04.04v.04h-.04l-.04.04-.08.08v.04h-.04l-.04.04-.08.08-.13.11-.04.04-.04.04v.04l-.04.04h-.04l-.08.08v.04l-.13.11h-.04v.04l-.08.08-.04.04v.04l-.08.08h-.04l-.04.04v.04l-.04.04-.13.11v.04l-.04.04-.04.04-.17.15v.04l-.04.04-.04.04-.04.04v.04l-.08.08-.08.08-.04.08-.08.08-.04.08-.08.08-.04.04-.04.08-.08.08-.04.08-.08.08-.04.08-.08.08-.04.11-.08.08-.04.08-.08.08-.04.08-.04.08-.08.08-.04.08-.08.08-.04.08-.04.08-.08.11-.04.08-.08.08-.04.08-.04.08-.08.11-.04.08-.04.08-.08.08-.04.08-.08.11-.08.15-.04.08-.08.11-.04.08-.04.08-.08.11-.04.08-.04.08-.08.11-.04.08-.04.08-.04.11-.08.08-.04.08-.04.11-.04.08-.08.11-.04.08-.04.08-.04.11-.08.08-.04.11-.04.08-.04.11-.04.08-.04.11-.08.08-.04.11-.04.08-.04.11-.04.08-.04.11-.08.08-.04.11-.04.08-.04.11-.04.08-.04.11-.04.11-.04.08-.04.11-.04.08-.08.11-.04.08-.04.11-.04.11-.04.08-.04.11-.04.11-.04.08-.04.11-.04.11-.04.08-.04.11-.04.11-.04.08-.04.11-.04.11-.04.08-.08.23-.04.11-.04.08v.11l-.04.11-.04.11-.04.08-.04.11-.04.11-.04.11-.04.08-.04.11v.11l-.04.11-.04.11-.04.08-.04.11-.04.11v.11l-.04.11-.04.08-.04.11-.04.11v.11l-.04.11-.04.11-.04.11v.08l-.04.11-.04.11-.04.11v.11l-.04.11-.04.11v.11l-.04.11-.04.08v.11l-.04.11-.04.11v.11l-.04.11-.04.11v.11l-.04.11v.11l-.04.11-.04.11v.11l-.04.11v.08l-.04.11v.11l-.04.11v.11l-.04.11v.11l-.04.11v.11l-.04.11v.11l-.04.11v.11l-.04.11v.11l-.04.11v.23l-.04.11v.23l-.04.11v.11l-.04.11v.23l-.04.11v.34l-.04.11v.26l-.04.11v.45l-.04.11v.49l-.04.08v.15l-.04.08v.11l-.04.11v.23l-.04.11v.15l-.04.04v.3l-.04.04v.34l-.04.04v.34l-.04.11v.38l-.04.08v.68l-.04.11v1.28l.04.08v.72l.04.08v.34l.04.08v.34l.04.04v.26l.04.08v.19l.04.04v.23l.04.04v.15l.04.04v.15l.04.08v.15l.04.04v.15l.04.04v.11l.04.04v.11l.04.04v.08l.04.08v.08l.04.08v.08l.04.04v.11l.04.04v.11l.04.04v.04l.04.08v.08l.04.04v.08l.04.04v.08l.04.08v.04l.04.04v.08l.04.08v.04l.04.04v.04l.04.08v.04l.04.04v.04l.04.04v.08l.04.04v.04l.04.04v.08l.04.04v.04l.04.04v.04l.04.04v.08l.04.04v.04l.04.04v.04l.04.08v.04l.08.08v.04l.04.04v.08l.04.04v.04l.04.04.04.04v.04l.04.04v.08l.08.08v.04l.08.08v.04l.04.04.04.08v.04l.08.08v.04l.04.04.04.04v.04l.04.04.04.04v.08l.04.04.04.04v.04h.04v.08l.04.04v.04l.04.08.04.04v.08l.04.04v.08l.04.04v.04l.04.08.04.04v.08l.04.04v.04l.04.08.04.04v.08l.08.08v.08l.04.04v.08l.08.08v.08l.04.04.04.04v.08l.04.04.04.08v.04l.04.04.04.08v.04l.04.08.04.04v.04l.04.08.04.04v.04l.04.08.08.08v.08l.04.04.04.08v.04l.04.04.04.08.04.04v.04l.04.08.04.04.04.04v.08l.04.04.04.04.04.08v.04l.04.04.04.08.04.04v.04l.04.08.04.04.04.04.04.08v.04l.04.04.04.04.04.08.04.04v.04l.04.08.08.08.04.08.04.04v.04l.04.04.04.08.08.08.04.08v.04l.04.04.04.08.08.08.04.04.04.08.04.04v.04l.04.04.04.08.08.08.04.04.04.08.04.04.08.08.04.08v.04l.08.08.04.08.08.08.04.04.04.08.04.04.08.08.04.08.08.08.04.04.04.04.04.08.13.11.04.04.04.08.17.15.04.08.17.15.04.08.04.04.04.04.08.08.08.04.04.08.04.04.17.15.04.04.04.08.08.08.08.04.04.04.04.04.04.04.04.08.08.08.04.04.08.04.17.15.04.08.08.04.13.11.04.04.04.04.08.04.13.11.04.08.08.04.17.15.08.04.17.15.08.04.04.04.13.11.08.04.04.04.04.04.08.08.08.04.08.08.04.04.04.04.08.04h.04l.13.11.08.04.04.04.17.15h.08l.04.04.04.04.08.08.08.04.04.04h.04l.04.04.04.04.04.04.08.04.04.04h.04l.13.11.08.04h.04l.08.08.04.04h.08l.08.08.04.04h.04l.04.04.08.04.04.04h.04l.04.04.04.04h.04l.08.04.08.08h.04l.08.08h.04l.08.04.04.04h.04l.08.08h.04l.08.04h.04l.08.08h.04l.04.04.04.04h.08l.04.04h.04l.08.08h.04l.08.04h.04l.04.04h.04l.04.04h.04l.04.04.08.04h.04l.04.04h.04l.04.04h.04l.04.04h.04l.08.04h.04l.04.04h.04l.04.04h.04l.04.04h.13l.04.04h.04l.04.04h.04l.04.04h.04l.08.04h.08l.04.04h.04l.04.04h.08l.08.04h.04l.04.04h.08l.04.04h.08l.08.04h.08l.04.04h.08l.04.04h.08l.08.04h.08l.04.04h.13l.04.04h.08l.08.04h.13l.04.04h.17l.04.04h.21l.04.04h.17l.04.04h.25l.04.04h.29l.04.04h.5l.04.04h1.13l.04-.04h.46l.04-.04h.34l.04-.04h.21l.04-.04h.21l.04-.04h.17l.04-.04h.13l.04-.04h.13l.04-.04h.13l.04-.04h.13l.04-.04h.13l.04-.04h.08v-.04h.08l.04-.04h.08l.04-.04h.08l.04-.04h.08l.04-.04h.08l.04-.04h.08l.04-.04h.04l.04-.04h.04l.04-.04h.08l.04-.04h.04l.04-.04h.08l.08-.08h.08l.04-.04h.04l.04-.04h.04l.04-.04h.04v-.04h.08l.04-.04h.04l.04-.04h.04l.04-.04h.04l.04-.04.04-.04h.04l.04-.04h.04l.04-.04h.04l.08-.08h.04l.04-.04h.04l.04-.04h.04v-.04h.04l.04-.04h.04l.08-.08h.04v-.04h.04l.04-.04h.04l.04-.04h.04l.04-.04v-.04h.04l.04-.04h.04l.04-.04h.04v-.04l.04-.04h.04l.04-.04h.04v-.04l.04-.04h.04l.08-.08h.04v-.04h.04l.04-.04.04-.04h.04v-.04l.04-.04h.04l.04-.04h.04v-.04l.04-.04h.04l.13-.11.04-.04h.04l.04-.04v-.04h.04l.13-.11.04-.04.04-.04h.04v-.04l.04-.04h.04l.04-.04v-.04h.04l.08-.08v-.04h.04l.04-.04h.04v-.04l.04-.04.13-.11.04-.04.04-.04.04-.04.13-.11.04-.08.08-.04.04-.08.08-.04.04-.08.08-.04.04-.08.04-.08.08-.04.04-.08.08-.04.04-.04v-.04l.04-.08.08-.04.04-.08.04-.08.08-.04.04-.08.08-.08.04-.04.04-.08.13-.11.04-.08.04-.08.08-.08.04-.04.04-.08.08-.08.04-.08.04-.04.04-.08.08-.08.04-.08.04-.08.13-.11.04-.08.08-.15.08-.08.04-.08.04-.04.04-.08.04-.08.04-.08.08-.08.04-.08.08-.15.04-.08.13-.11.04-.08.04-.08.04-.08.04-.08.04-.08.08-.15.04-.08.04-.08.08-.08.04-.08.08-.15.04-.08.04-.08.04-.08.04-.08.08-.15.04-.08.04-.08.04-.08.04-.08.08-.15.04-.11.04-.08.04-.08.04-.08.08-.15.04-.08.04-.08v-.08l.04-.08.04-.11.04-.08.04-.08.08-.15.04-.08.08-.15v-.11l.08-.15.04-.08.04-.08.04-.08v-.11l.08-.15.04-.08.04-.08v-.11l.04-.08.04-.08.04-.08.04-.08v-.11l.04-.08.08-.15v-.08l.04-.11.04-.08.04-.08v-.08l.04-.11.04-.08v-.08l.04-.08.04-.11v-.08l.04-.08.04-.08v-.11l.04-.08.04-.08v-.08l.04-.11.04-.08v-.08l.04-.08v-.11l.04-.08.04-.08v-.08l.04-.11v-.08l.04-.08v-.11l.04-.08.04-.08v-.08l.04-.11v-.08l.04-.08v-.11l.04-.08v-.08l.04-.08v-.11l.04-.08v-.08l.04-.11v-.08l.04-.08v-.19l.04-.08v-.08l.04-.11v-.08l.04-.08v-.19l.04-.08v-.08l.04-.11v-.15l.04-.11v-.15l.04-.08v-.19l.04-.08v-.19l.04-.08v-.26l.04-.08v-.26l.04-.11v-.23l.04-.11v-.34l.04-.08v-.42l.04-.11v-.68l.04-.08v-1.74l-.04-.11ZM61.66,190.49l-.04-.04-.08-.15v-.08l-.08-.15-.04-.08-.04-.08-.04-.08v-.04l-.04-.08-.08-.15-.04-.08v-.08l-.04-.08-.04-.04-.04-.08-.08-.15-.04-.08-.04-.08v-.04l-.04-.08-.13-.23-.04-.04-.04-.08-.04-.08-.04-.08v-.08l-.04-.04-.04-.08-.04-.08-.08-.15-.04-.04-.13-.23-.04-.04-.04-.08-.04-.08-.04-.08-.04-.04-.08-.15-.04-.04-.04-.08-.04-.08-.04-.08-.04-.04-.08-.15-.04-.04-.04-.08-.04-.08-.04-.04-.04-.08-.04-.08-.04-.04-.04-.08-.04-.08-.04-.04-.04-.08-.04-.04-.04-.08-.04-.08-.13-.11-.04-.04-.04-.08-.04-.08-.04-.04-.04-.08-.04-.04-.04-.08-.04-.08-.08-.04-.04-.08-.04-.04-.04-.08-.04-.04-.04-.08-.04-.04-.08-.08-.04-.04-.04-.08-.04-.04-.04-.08-.08-.04-.04-.08-.04-.04-.04-.08-.21-.19-.04-.08-.04-.04-.13-.11-.04-.08-.04-.04-.08-.04-.04-.08-.08-.08-.08-.08-.04-.04-.04-.08-.08-.04-.04-.04-.04-.08-.08-.04-.08-.08-.04-.08-.08-.04-.04-.04-.04-.08-.08-.04-.04-.04-.08-.04-.04-.08-.04-.04-.08-.04-.04-.04-.04-.08-.08-.04-.04-.04-.08-.04-.04-.04-.04-.08-.08-.04-.04-.04-.08-.04-.04-.04-.04-.04-.08-.04v-.04h.04l.04.04h.08l.04.04h.04l.04.04h.08l.04.04h.04l.04.04h.08l.04.04h.04l.04.04h.04l.04.04h.04l.04.04h.04l.04.04h.04l.04.04h.04l.08.08h.04l.04.04h.04l.04.04h.04l.04.04.04.04h.04l.08.08h.04v.04h.04l.04.04h.04l.04.04.08.08h.04l.04.04.04.04.04.04h.04l.04.04v.04h.04l.08.08h.04v.04h.04l.08.08v.04h.04l.04.04.04.04.08.08h.04v.04l.04.04h.04v.04l.04.04.04.04h.04v.04l.04.04.04.04.04.04.04.04.13.11v.04l.04.04h.04v.04l.04.04.04.04v.04h.04l.04.04v.04l.08.08v.04l.04.04h.04v.04l.04.04.04.04v.04l.08.08v.04h.04v.04l.04.04.04.04v.04l.08.08v.04l.04.04v.04l.04.04.04.04.04.04v.04l.04.04.04.04v.04l.04.04v.04l.04.04.04.04v.04l.04.04v.04l.04.04v.04l.04.04.04.04v.04l.04.04v.04l.04.08v.04l.04.04.04.04v.04l.04.04v.04l.04.04v.04l.04.04v.04l.04.04v.04l.04.04.04.08v.04l.04.04v.04l.04.04v.04l.04.04v.04l.04.08v.04l.04.04v.04l.04.04v.04l.04.08v.04l.04.04v.04l.04.04v.04l.04.08v.04l.04.04v.04l.04.04v.08l.04.04v.04l.04.04v.04l.04.08v.04l.04.04v.04l.04.08v.04l.04.04v.11l.04.04v.04l.04.04v.08l.04.04v.04l.04.08v.04l.04.04v.11l.04.04v.04l.04.08v.04l.04.04v.08l.04.04v.11l.04.08.04.11.04.11.04.11.04.08.04.11v.11l.04.11.04.08.04.11.04.11v.11ZM62.87,219.31l-.08.15-.04.08-.04.08-.04.04-.04.08-.08.15v.08l-.04.08-.08.15-.04.08-.04.08-.04.04-.04.08-.08.15-.04.08-.08.15-.04.04-.04.08-.04.08-.04.08-.04.08-.04.08-.04.04-.04.08-.04.08-.04.08-.04.08-.04.04-.13.23-.04.04-.04.08-.04.08-.04.04-.04.08-.08.15-.13.11-.04.08-.04.04-.04.08-.04.08-.04.04-.04.08-.04.08-.04.04-.08.08-.04.04-.04.08v.04l-.08.08-.04.08-.04.04-.08.08-.04.04-.04.08-.04.04-.04.08-.04.08-.08.04-.04.08-.04.04-.04.08-.08.04-.04.04-.04.08-.04.04-.04.08-.08.04-.04.08-.08.08-.08.08-.04.04-.04.08-.04.04-.08.04-.04.08-.04.04-.17.15-.04.04-.04.04-.08.08h-.04v.04l-.04.04h-.04v.04l-.04.04-.08.04v.04l-.04.04h-.04l-.04.08h-.04v.04h-.04l-.17.15h-.04v.04l-.08.08-.08.04h-.04l-.04.04-.04.04v.04h-.04l-.04.04-.04.04h-.04v.04h-.04l-.04.04-.04.04h-.04l-.04.04-.04.04h-.04v.04l-.04.04h-.04v.04h-.08l-.08.08h-.04v.04h-.04l-.08.08h-.04l-.04.04-.08.04v.04h-.08l-.04.04-.04.04h-.04l-.04.04h-.04l-.08.08h-.04l-.04.04h-.04l-.04.04h-.04v.04h-.08v.04h-.08l-.04.04-.04.04h-.08v.04h-.08l-.04.04-.04.04h-.04l-.04.04h-.08l-.04.04h-.04l-.04.04h-.08l-.04.04h-.04l-.04.04h-.08v.04h-.13v.04h-.08l-.04.04h-.08l-.04.04h-.08l-.04.04h-.08l-.04.04h-.13l-.04.04h-.08l-.04.04h-.13l-.04.04h-.17l-.04.04h-.17l-.04.04h-.21v.04h-.29l-.04.04h-.42l-.04.04h-1.05l-.04-.04h-.42l-.04-.04h-.29l-.04-.04h-.21l-.04-.04h-.17l-.04-.04h-.17l-.04-.04h-.13l-.04-.04h-.13l-.04-.04h-.13l-.04-.04h-.13v-.04h-.13l-.04-.04h-.08l-.04-.04h-.08l-.04-.04h-.08l-.04-.04h-.08l-.04-.04h-.08l-.04-.04h-.04l-.04-.04h-.08l-.04-.04h-.04l-.04-.04h-.08l-.04-.04h-.04l-.04-.04h-.08l-.04-.04h-.04l-.04-.04h-.04l-.04-.04h-.08l-.04-.04h-.04l-.04-.04h-.04l-.04-.04h-.04l-.04-.04h-.04l-.04-.04h-.04l-.04-.04h-.04l-.04-.04h-.04l-.04-.04h-.04l-.04-.04h-.04l-.04-.04h-.04l-.04-.04-.04-.04h-.04l-.04-.04h-.04l-.04-.04h-.04l-.08-.08h-.04l-.04-.04h-.04l-.04-.04-.08-.04h-.04l-.04-.04h-.04l-.04-.04-.04-.04h-.04l-.08-.08h-.04l-.08-.08h-.04l-.04-.04-.04-.04h-.04l-.08-.08h-.04l-.08-.08-.08-.04h-.04l-.04-.04-.08-.08h-.04l-.08-.08-.04-.04h-.04l-.04-.04-.08-.08h-.04l-.08-.04-.08-.08-.04-.04h-.04l-.04-.04-.04-.04-.13-.11h-.04l-.04-.04-.08-.04-.17-.15h-.04l-.04-.04-.13-.11-.08-.04-.04-.04-.04-.04-.04-.04-.04-.04h-.04l-.04-.04-.04-.04-.04-.04-.08-.04-.04-.04-.04-.04-.04-.04-.13-.11-.04-.04-.04-.04-.08-.04-.13-.11-.04-.04-.04-.04-.04-.04-.17-.15-.04-.04-.04-.04-.08-.08-.08-.04-.54-.49-.04-.08-.04-.04-.17-.15-.04-.04-.04-.04-.04-.04v-.04l-.08-.08-.04-.04-.04-.04-.04-.04-.04-.08-.04-.04-.04-.04-.08-.08-.04-.04-.08-.08-.04-.04v-.04l-.04-.04-.04-.08-.04-.04-.04-.04-.04-.04-.13-.11v-.04l-.04-.04-.04-.08-.17-.15v-.04l-.04-.04-.04-.04-.04-.08-.04-.04-.04-.04v-.04l-.08-.08-.04-.04-.04-.08-.04-.04v-.04l-.08-.08v-.04l.08.04.04.04h.04l.04.04.08.04h.04l.04.04h.08l.08.08h.08l.04.04h.04l.08.04.04.04h.04l.08.04h.04l.04.04h.08l.08.08h.08l.04.04h.04l.08.04h.04l.08.04h.04l.04.04h.08l.04.04h.08l.04.04h.08l.04.04h.08l.04.04h.04l.08.04h.04l.08.04h.13l.04.04.13.04.13.04h.13l.08.04.13.04.13.04.13.04h.13l.08.04.13.04.13.04h.08l.13.04.13.04.13.04h.08l.13.04.13.04h.08l.13.04.08.04h.13l.13.04.08.04h.13l.08.04.13.04h.08l.13.04.13.04h.08l.13.04h.08l.13.04.08.04h.13l.08.04h.08l.13.04.08.04h.13l.08.04h.13l.08.04h.08l.13.04h.08l.13.04h.08l.08.04h.13l.08.04h.08l.13.04h.08l.08.04h.21l.08.04h.08l.08.04h.13l.08.04h.17l.13.04h.08l.08.04h.17l.08.04h.21l.08.04h.17l.08.04h.17l.13.04h.25l.08.04h.17l.08.04h.25l.08.04h.33l.08.04h.29l.08.04h.5l.08.04h.75l.04.04h1.26l.04-.04h.75l.04-.04h.33l.08-.04h.29l.08-.04h.17l.08-.04h.21l.08-.04h.13l.04-.04h.17l.08-.04h.08l.08-.04h.08l.08-.04h.08l.08-.04h.08l.08-.04h.04l.04-.04h.13l.04-.04h.04l.08-.04h.04l.04-.04h.13l.04-.04h.04l.04-.04h.08l.04-.04h.04l.04-.04h.04l.08-.04h.04l.04-.04h.04l.04-.04h.08l.04-.04.04-.04h.04l.04-.04h.04l.04-.04h.08l.04-.04.04-.04h.04l.04-.04h.04l.04-.04.04-.04h.04l.08-.08h.04l.08-.04.04-.04h.04l.08-.08h.04l.04-.04.04-.04h.04l.04-.04.04-.04h.04l.04-.04.04-.04.04-.04h.04v-.04l.04-.04.04-.04.04-.04h.04l.13-.11h.04l.13-.11v-.04l.04-.04h.04l.17-.15v-.04l.04-.04h.04l.08-.08v-.04l.04-.04.04-.04.08-.08v-.04h.04l.04-.04.04-.04v-.04l.04-.04.08-.08v-.04l.04-.04.08-.08v-.04l.04-.04.04-.04v-.04l.08-.08v-.04l.08-.08v-.04l.04-.04.04-.04v-.04l.08-.08v-.04l.04-.04v-.04l.08-.08v-.04l.04-.04v-.04l.08-.08v-.04l.04-.08v-.04h.04v.08ZM62.87,219.2v-.04h.04l-.04.04ZM62.91,219.12v-.04h.04l-.04.04ZM62.95,219.04v-.04h.04l-.04.04ZM63.04,218.93v-.08h.04l-.04.08ZM63.21,218.52v-.04h.04l-.04.04ZM63.25,218.44v-.04h.04l-.04.04ZM63.54,217.8l-.04.04v-.08l.04-.04v.08ZM63.67,217.5l-.04.08-.04.04v-.08l.04-.04v-.04l.04-.04v.08ZM63.67,217.35v-.04h.04l-.04.04ZM65.51,208.37l-.04.08v1.02l-.04.08v.49l-.04.08v.3l-.04.08v.34l-.04.08v.23l-.04.11v.23l-.04.08v.15l-.04.11v.23l-.04.08v.19l-.04.08v.08l-.04.08v.15l-.04.08v.19l-.04.08v.08l-.04.08v.19l-.04.08v.08l-.04.08v.08l-.04.08v.19l-.04.08v.08l-.04.08v.08l-.04.08v.08l-.04.11v.08l-.04.08v.08l-.04.08v.08l-.04.08-.04.11v.08l-.04.08v.08l-.04.08v.08l-.04.08-.04.08v.11l-.04.08v.08l-.04.08-.04.08v.08l-.04.08v.08l-.08.15v.11l-.04.08-.04.08v.08l-.08.15v.08l-.08.15v.08l-.04.08-.04.04v-.08l.04-.08v-.08l.04-.04v-.11l.04-.04v-.08l.04-.04v-.15l.04-.04v-.08l.04-.08v-.08l.04-.08v-.15l.04-.04v-.11l.04-.04v-.15l.04-.04v-.15l.04-.08v-.15l.04-.04v-.15l.04-.04v-.19l.04-.04v-.23l.04-.08v-.11l.04-.11v-.23l.04-.11v-.08l.04-.11v-.23l.04-.11v-.23l.04-.11v-.23l.04-.11v-.23l.04-.11v-.34l.04-.11v-.23l.04-.11v-.38l.04-.11v-.34l.04-.11v-.38l.04-.11v-.49l.04-.26v-.23l.04-.26v-.38l.04-.08v-.79l.04-.08v-2.19l-.04-.08v-.87l-.04-.08v-.57l-.04-.08v-.45l.04.11.04.11v.08l.04.08v.11l.04.08v.11l.04.08v.15l.04.04v.08l.04.08v.19l.04.08v.15l.04.08v.19l.04.08v.23l.04.08v.19l.04.08v.38l.04.08v.41l.04.08v.98l.04.08v.57Z" class="cls-2"/><rect height="13.39" width="4.06" y="178.72" x="48.38" class="cls-2"/><path d="M49.76,205.73c-1.13-.3-1.93-1.24-1.93-2.34,0-1.32,1.17-2.38,2.6-2.38s2.55,1.06,2.55,2.38c0,.83-.46,1.58-1.17,2" class="cls-2"/><polyline points="224.89 146.24 224.9 146.24 250.6 146.24 250.61 146.24" class="cls-2"/><polyline points="218.51 125.79 218.51 124.72 257 124.72 257 125.79" class="cls-2"/><polyline points="218.51 285.11 224.91 285.11 224.91 125.82 218.51 125.82 218.51 285.11" class="cls-2"/><path d="M239.16,270.99c-.14-.09-.21-.21-.21-.37v-5.18c0-.16.07-.29.21-.37.14-.09.3-.13.48-.13s.35.04.49.13c.14.09.21.21.21.37v1.71s.03.08.08.08h6.96c.16,0,.28.08.37.24.09.16.13.35.13.56s-.04.41-.13.56c-.09.16-.21.23-.37.23h-6.96s-.08.03-.08.08v1.72c0,.16-.07.28-.2.37-.13.09-.3.13-.5.13-.18,0-.34-.04-.48-.13Z" class="cls-2"/><path d="M245.15,264.31h-3.41c-.97,0-1.68-.26-2.13-.78-.45-.52-.67-1.21-.67-2.09s.22-1.57.67-2.09c.45-.52,1.16-.78,2.13-.78h3.41c.97,0,1.68.26,2.13.78.45.52.67,1.22.67,2.09s-.22,1.57-.67,2.09c-.45.52-1.16.78-2.13.78ZM245.15,262.71c.94,0,1.4-.42,1.4-1.27s-.47-1.29-1.4-1.29h-3.41c-.94,0-1.4.43-1.4,1.29s.47,1.27,1.4,1.27h3.41Z" class="cls-2"/><path d="M245.15,257.3h-3.41c-.97,0-1.68-.26-2.13-.78-.45-.52-.67-1.21-.67-2.09s.22-1.57.67-2.09c.45-.52,1.16-.78,2.13-.78h3.41c.97,0,1.68.26,2.13.78.45.52.67,1.22.67,2.09s-.22,1.57-.67,2.09c-.45.52-1.16.78-2.13.78ZM245.15,255.71c.94,0,1.4-.42,1.4-1.27s-.47-1.29-1.4-1.29h-3.41c-.94,0-1.4.43-1.4,1.29s.47,1.27,1.4,1.27h3.41Z" class="cls-2"/><path d="M247.67,245.27c-.14-.09-.3-.13-.49-.13s-.35.04-.49.13c-.14.08-.21.2-.21.35v2.91s-.03.08-.07.08h-4.72c-.36.27-.79.43-1.28.43-.45,0-.86-.14-1.2-.37-.06.04-.1.09-.14.17-.08.15-.12.34-.12.56s.04.41.12.57c.08.15.2.23.36.23h7.94c.16,0,.28-.07.37-.21.09-.14.14-.3.14-.49v-3.88c0-.15-.07-.27-.21-.35Z" class="cls-2"/><path d="M239.45,244.27c-.15,0-.28-.07-.37-.21-.09-.14-.13-.3-.13-.49v-2.36c0-1.64.72-2.46,2.15-2.46.96,0,1.6.32,1.91.97.02.04.04.04.06,0,.16-.38.38-.67.66-.87.3-.21.73-.32,1.3-.32h.26c.9,0,1.56.22,1.97.66.41.44.62,1.04.62,1.79v2.6c0,.2-.05.37-.15.5-.1.13-.21.2-.34.2h-7.94ZM242.42,242.62v-1.3c0-.32-.09-.56-.28-.73-.19-.17-.44-.25-.77-.25s-.57.09-.75.26c-.18.18-.27.42-.27.73v1.28s.03.08.08.08h1.93s.08-.03.08-.08ZM246.49,242.62v-1.31c0-.79-.44-1.19-1.33-1.19h-.2c-.46,0-.79.1-.99.3-.2.2-.31.5-.31.89v1.31s.03.08.08.08h2.67s.08-.03.08-.08Z" class="cls-2"/><path d="M245.15,237.49h-3.41c-.97,0-1.68-.26-2.13-.78-.45-.52-.67-1.21-.67-2.09s.22-1.57.67-2.09c.45-.52,1.16-.78,2.13-.78h3.41c.97,0,1.68.26,2.13.78.45.52.67,1.22.67,2.09s-.22,1.57-.67,2.09c-.45.52-1.16.78-2.13.78ZM245.15,235.89c.94,0,1.4-.42,1.4-1.27s-.47-1.29-1.4-1.29h-3.41c-.94,0-1.4.43-1.4,1.29s.47,1.27,1.4,1.27h3.41Z" class="cls-2"/><path d="M246.85,230.98l-3.38-2.08s-.09-.02-.13,0l-3.37,2.01c-.12.07-.24.11-.34.11-.2,0-.38-.11-.53-.32-.15-.22-.22-.45-.22-.69,0-.23.11-.4.34-.53l2.93-1.63s.04-.05,0-.07l-2.93-1.63c-.23-.13-.34-.31-.34-.54,0-.24.07-.48.22-.69.15-.22.32-.32.53-.32.11,0,.22.04.34.11l3.37,2.01s.09.02.13,0l3.38-2.08c.11-.06.2-.09.29-.09.21,0,.4.11.56.34.16.23.24.46.24.7,0,.2-.09.34-.26.43l-3.07,1.76s-.04.05,0,.07l3.07,1.75c.17.1.26.24.26.44,0,.23-.08.46-.24.69-.16.23-.34.35-.56.35-.08,0-.18-.03-.29-.1Z" class="cls-2"/><polyline points="250.6 285.11 257 285.11 257 125.82 250.6 125.82 250.6 285.11" class="cls-2"/><path d="M238.31,138.41v-4.77c0-.06-.04-.12-.1-.12s-.1.05-.1.12v4.77c0,.06.04.12.1.12s.1-.05.1-.12Z" class="cls-3"/><path d="M235.15,134.86s.03.06.06.06h.15v.03s.03.06.06.06.06-.03.06-.06v-.09s-.03-.06-.06-.06h-.21s-.06.03-.06.06Z" class="cls-3"/><path d="M234.64,134.8s-.06.03-.06.06v.09s.03.06.06.06.06-.03.06-.06v-.03h.12s.06-.03.06-.06-.03-.06-.06-.06h-.18Z" class="cls-3"/><path d="M235.35,135.3v.06s.03.06.06.06.06-.03.06-.06v-.06s-.03-.06-.06-.06-.06.03-.06.06Z" class="cls-3"/><path d="M234.7,135.36v-.06s-.03-.06-.06-.06-.06.03-.06.06v.06s.03.06.06.06.06-.03.06-.06Z" class="cls-3"/><path d="M235.36,136.53c0,.59.48,1.08,1.08,1.08s1.08-.48,1.08-1.08-.48-1.08-1.08-1.08c-.12,0-.23.02-.33.05l-.35-.85h.16s.09-.04.09-.09-.04-.09-.09-.09h-.29s-.06.01-.07.04c0,.01-.01.03-.01.05,0,.01,0,.02,0,.03l.18.44h-1.32l-.16-.38h.14s.09-.04.09-.09-.04-.09-.09-.09h-.45s-.09.04-.09.09.04.09.09.09h.12l.19.46-.31.47c-.16-.09-.33-.14-.53-.14-.59,0-1.08.48-1.08,1.08s.48,1.08,1.08,1.08c.56,0,1.02-.43,1.07-.97h.45s0,0,0,0c.01,0,.02,0,.04,0,.03-.01.04-.03.05-.06l.83-1.26.11.26c-.35.18-.58.54-.58.96ZM235.69,135.21l-.75,1.14-.47-1.14h1.21ZM234.32,135.32l.21.52.25.62h-.31c-.02-.31-.17-.59-.4-.77l.25-.37ZM234.26,136.46h-.69l.39-.59c.17.14.28.35.3.59ZM233.4,137.39c-.47,0-.86-.39-.86-.86s.39-.86.86-.86c.15,0,.28.04.41.1l-.48.73s-.01.03-.01.05c0,.01,0,.03.01.04.02.03.05.05.08.05h.85c-.05.42-.41.75-.85.75ZM236.43,135.67c.47,0,.86.39.86.86s-.39.86-.86.86-.86-.39-.86-.86c0-.33.18-.61.45-.76l.33.81s.07.07.12.05c.05-.02.07-.07.05-.12l-.33-.81c.08-.02.16-.04.25-.04Z" class="cls-3"/><path d="M241.5,134.44s.03.06.06.06h.15v.03s.03.06.06.06.06-.03.06-.06v-.09s-.03-.06-.06-.06h-.21s-.06.03-.06.06Z" class="cls-3"/><path d="M241.23,134.44s-.03-.06-.06-.06h-.18s-.06.03-.06.06v.09s.03.06.06.06.06-.03.06-.06v-.03h.12s.06-.03.06-.06Z" class="cls-3"/><path d="M241.7,134.89s.03.06.06.06.06-.03.06-.06v-.06s-.03-.06-.06-.06-.06.03-.06.06v.06Z" class="cls-3"/><path d="M240.93,134.89s.03.06.06.06.06-.03.06-.06v-.06s-.03-.06-.06-.06-.06.03-.06.06v.06Z" class="cls-3"/><path d="M241.09,134.04s0,.02,0,.03c0,.03.02.07.06.08l.12.05v.64s-.48.33-.48.33c-.11-.14-.26-.25-.43-.32-.55-.23-1.18.04-1.4.59-.05.13-.08.27-.08.41,0,.44.26.83.67,1,.52.21,1.11,0,1.36-.5l.41.17s.02,0,.03,0c0,0,0,0,0,0h0s0,0,0,0h0s0,0,0,0c.02,0,.04-.01.05-.02l1.25-.85v.28c-.11,0-.22.04-.32.08-.27.11-.47.32-.58.59-.05.13-.08.27-.08.41,0,.44.26.83.67,1,.27.11.56.11.82,0,.27-.11.47-.32.58-.59.05-.13.08-.27.08-.41,0-.44-.26-.83-.67-1-.1-.04-.21-.07-.32-.08v-.93s.14.06.14.06c.05.02.1,0,.12-.05.02-.05,0-.1-.05-.12l-.26-.11s-.06,0-.08,0c-.02.02-.04.04-.04.07v.48s-1.22-.5-1.22-.5v-.56s.13.05.13.05c.05.02.1,0,.12-.05.02-.05,0-.1-.05-.12l-.43-.18s-.1,0-.12.05ZM243.07,136.21c.32.13.53.45.53.8,0,.11-.02.22-.06.33-.09.21-.25.38-.46.47-.21.09-.45.09-.66,0-.32-.13-.53-.45-.53-.8,0-.11.02-.22.06-.33.09-.21.25-.38.46-.47.08-.03.16-.05.24-.06v.87s0,0,0,0c0,.05.04.09.09.09.05,0,.09-.04.09-.09v-.87c.08,0,.16.03.24.06ZM241.44,135.04l1.12.46-1.12.77v-1.23ZM241.25,135.07v1.23s-.29-.12-.29-.12c.04-.11.05-.22.05-.34,0-.19-.05-.37-.14-.53l.37-.25ZM240.76,136.1l-.64-.26.58-.39c.06.12.1.26.1.4,0,.09-.01.17-.04.25ZM239.61,136.65c-.32-.13-.53-.45-.53-.8,0-.11.02-.22.06-.33.18-.44.68-.65,1.12-.47.13.05.25.14.33.25l-.71.49s-.04.04-.04.07c0,0,0,0,0,0,0,.03.02.06.05.07l.79.33c-.21.38-.67.55-1.08.38Z" class="cls-3"/><path d="M230.17,146.26s-.67,31.27,0,51.85c.45,13.73.43,32.22.37,43.01" class="cls-2"/><path d="M235.27,264.02c-.01-1.67-.03-4.17-.06-7.29" class="cls-2"/><path d="M235.2,254.3c-.02-2-.03-4.2-.05-6.54h0c-.15-20.71-.36-52.9-.36-65.5,0-19.24.5-36,.5-36" class="cls-2"/><path d="M245.53,146.26s.6,15.29,0,42.22c1.35,16.29.58,21.37.58,21.37" class="cls-2"/><polyline points="240.42 244.79 240.43 244.27 240.45 242.69 240.48 240.77 240.51 238.81 240.53 237.32 240.56 235.43 240.59 233.77 240.62 231.9 240.64 230.51 240.67 228.68 240.69 226.96 240.72 225.15 241.11 199.59 240.41 146.26" class="cls-2"/><path d="M237.87,146.26s2.1,35.39,0,45.18c-2.11,9.8-.3,25.6-.91,37.4-.29,5.74-1.08,12.99-1.81,18.91h0c-.3,2.42-.59,4.6-.83,6.38" class="cls-2"/><path d="M234.49,260.45l-.2,1.06c-.05.26-.31.44-.57.39l-1.79-.35c-.26-.05-.44-.31-.39-.58l.21-1.08c.3.58.91.97,1.61.97.43,0,.82-.15,1.13-.41Z" class="cls-2"/><path d="M235.57,254.87l-.36,1.85h0s-.27,1.43-.27,1.43c-.22-.41-.6-.73-1.06-.85h0c-.17-.06-.34-.09-.52-.09-.45,0-.86.16-1.18.45l.64-3.32c.05-.27.31-.44.57-.39l.93.18.86.16s.01,0,.02.01c.25.05.42.31.37.57Z" class="cls-2"/><path d="M235.18,259.04c0,.58-.27,1.09-.69,1.41-.31.26-.7.41-1.13.41-.7,0-1.31-.39-1.61-.97-.14-.25-.22-.54-.22-.85,0-.56.25-1.06.65-1.38.32-.29.73-.45,1.18-.45.18,0,.35.03.52.08h0c.46.13.84.45,1.06.86.16.26.24.57.24.89Z" class="cls-2"/><path d="M236.26,272.48c-.04.14-.03.26.02.27l.37.1c-.03.22-.19.38-.4.38h-1.92c-.23,0-.42-.2-.42-.45v-5.24l.72-2.75c.03-.14.03-.27-.02-.28l-.39-.1s-.12.09-.15.23l-.16.61v-.78c0-.25.19-.45.42-.45h1.92c.23,0,.41.2.41.45v6.48l-.4,1.53Z" class="cls-2"/><path d="M238.05,267.93l-1.23,4.69c-.04.14-.1.25-.15.24h-.02s-.37-.11-.37-.11c-.05-.01-.06-.13-.02-.27l.4-1.53.83-3.17c.03-.14.1-.25.15-.23l.39.1c.05.01.05.13.02.28Z" class="cls-2"/><path d="M234.63,264.79l-.72,2.75-.51,1.95c-.03.14-.1.24-.15.23l-.39-.11c-.05-.01-.06-.13-.02-.27l1.07-4.09.16-.61c.03-.14.1-.25.15-.23l.39.1c.05.01.05.14.02.28Z" class="cls-2"/><path d="M231.46,245.87v9.31c0,.27-.14.5-.31.5h-1.42c-.17,0-.31-.23-.31-.5v-5.95l1.08-3.04.29-.82h.36c.17,0,.31.22.31.5Z" class="cls-2"/><path d="M231.94,242.15l-1.15,3.22-.29.82-1.08,3.04-.6,1.69c-.1.26-.3.43-.46.37l-1.34-.48c-.16-.06-.22-.32-.12-.58l3.12-8.76c.09-.27.3-.43.46-.37l.06.02,1.28.46c.16.05.21.31.12.57Z" class="cls-2"/><path d="M240.42,244.79h-.01c-1.18,0-2.12.95-2.12,2.12,0,.73.36,1.38.92,1.76.34.23.75.37,1.2.37.49,0,.92-.16,1.28-.43.51-.39.84-1.01.84-1.7,0-1.17-.94-2.11-2.11-2.12ZM240.41,245.77c.62,0,1.13.52,1.13,1.14s-.51,1.14-1.13,1.14-1.14-.51-1.14-1.14.51-1.14,1.14-1.14Z" class="cls-2"/><path d="M241.54,246.91c0,.63-.51,1.14-1.13,1.14s-1.14-.51-1.14-1.14.51-1.14,1.14-1.14,1.13.52,1.13,1.14Z" class="cls-2"/><path d="M245.86,212.59s.14-.05.31-.04l1.4.14c.17.02.3.06.29.09l-.12,1.19s-.14.05-.31.04l-1.4-.14c-.17-.02-.3-.06-.29-.09l.12-1.19Z" class="cls-2"/><path d="M248.84,124.72h-22.18c-.94,0-1.71.77-1.71,1.71v14.75c0,.35.29.64.64.64h4.16c.59,0,1.07-.48,1.07-1.07v-10.69l1.07-1.07h11.72l1.07,1.07v10.69c0,.59.48,1.07,1.07,1.07h4.16c.35,0,.64-.29.64-.64v-14.75c0-.94-.76-1.71-1.71-1.71Z" class="cls-2"/><path d="M225.39,136.91h5.01c.24,0,.43.19.43.43v3.45c0,.58-.47,1.04-1.04,1.04h-4.19c-.35,0-.63-.28-.63-.63v-3.86c0-.24.19-.43.43-.43Z" class="cls-2"/><path d="M245.11,136.91h5.01c.24,0,.43.19.43.43v3.86c0,.35-.28.63-.63.63h-4.19c-.58,0-1.04-.47-1.04-1.04v-3.45c0-.24.19-.43.43-.43Z" class="cls-2"/><path d="M234.56,125.15c0-.24-.19-.43-.43-.43h-7.57c-.88,0-1.6.72-1.6,1.6v3.74h5.86l1.07-1.07h2.24c.24,0,.43-.19.43-.43v-3.42Z" class="cls-2"/><path d="M240.95,125.15c0-.24.19-.43.43-.43h7.57c.88,0,1.6.72,1.6,1.6v3.74s-5.86,0-5.86,0l-1.07-1.07h-2.24c-.24,0-.43-.19-.43-.43v-3.42Z" class="cls-2"/><line y2="285.11" x2="251.1" y1="285.11" x1="224.33" class="cls-2"/><path d="M245.09,209.12c.01-.14.16-.25.33-.23l1.4.14c.17.02.29.15.27.29l-.47,4.84c-.01.14-.16.25-.33.23l-1.4-.14c-.17-.02-.29-.15-.27-.29l.47-4.84Z" class="cls-2"/><path d="M247.98,210.93c.01-.14.06-.26.11-.25l.4.04s.08.13.06.27l-.47,4.84c-.01.14-.06.26-.11.25l-.4-.04s-.08-.13-.06-.27l.47-4.84Z" class="cls-2"/><g id="MTEXT"><path d="M4.23,217.94h5.29v.72h-4.54l.64,1.3h-.73l-.67-1.36v-.67Z"/><path d="M4.23,213.99h.65v1.92l1.54.25c-.09-.1-.16-.22-.21-.36-.05-.14-.07-.29-.07-.46,0-.25.04-.47.13-.68.08-.21.2-.38.35-.53.15-.15.33-.27.54-.35.21-.08.44-.12.69-.12s.48.04.7.13c.21.09.4.21.55.36.15.16.27.34.36.56.08.21.13.45.13.71,0,.2-.03.39-.08.58s-.13.35-.23.5c-.1.15-.22.28-.36.39-.14.11-.3.19-.48.24l-.31-.63c.24-.07.43-.19.56-.39.14-.19.21-.42.21-.67,0-.15-.03-.29-.08-.41-.05-.13-.12-.23-.21-.33-.09-.09-.2-.16-.33-.21-.13-.05-.27-.08-.43-.08s-.3.03-.44.08c-.13.05-.25.13-.34.22s-.17.21-.22.34c-.05.13-.08.28-.08.44,0,.18.04.35.1.49.07.14.17.26.31.36l-.15.62-2.79-.47v-2.52Z"/><path d="M4.37,210.25c.13-.25.32-.47.55-.65.23-.18.52-.32.85-.42.33-.1.69-.15,1.08-.15s.76.05,1.1.15.62.24.86.42c.24.18.43.4.56.65.13.25.2.52.2.83s-.07.57-.2.82-.32.47-.56.65c-.24.18-.53.32-.86.42-.33.1-.7.15-1.1.15s-.75-.05-1.08-.15c-.33-.1-.61-.24-.85-.42-.24-.18-.42-.4-.55-.65-.13-.25-.2-.53-.2-.83s.07-.58.2-.83ZM5.01,211.6c.1.16.23.29.41.41.18.11.38.2.63.27.24.07.51.1.81.1s.57-.03.82-.09c.25-.06.46-.15.64-.27.18-.12.32-.25.42-.41.1-.16.15-.33.15-.52s-.05-.37-.15-.53c-.1-.16-.24-.3-.42-.41-.18-.11-.39-.2-.64-.27-.25-.06-.52-.09-.82-.09s-.56.03-.81.09c-.25.06-.46.15-.63.26-.17.11-.31.25-.41.41-.1.16-.15.34-.15.53s.05.37.15.52Z"/><path d="M4.37,205.61c.13-.25.32-.47.55-.65.23-.18.52-.32.85-.42.33-.1.69-.15,1.08-.15s.76.05,1.1.15.62.24.86.42c.24.18.43.4.56.65.13.25.2.52.2.83s-.07.57-.2.82-.32.47-.56.65c-.24.18-.53.32-.86.42-.33.1-.7.15-1.1.15s-.75-.05-1.08-.15c-.33-.1-.61-.24-.85-.42-.24-.18-.42-.4-.55-.65-.13-.25-.2-.53-.2-.83s.07-.58.2-.83ZM5.01,206.97c.1.16.23.29.41.41.18.11.38.2.63.27.24.07.51.1.81.1s.57-.03.82-.09c.25-.06.46-.15.64-.27.18-.12.32-.25.42-.41.1-.16.15-.33.15-.52s-.05-.37-.15-.53c-.1-.16-.24-.3-.42-.41-.18-.11-.39-.2-.64-.27-.25-.06-.52-.09-.82-.09s-.56.03-.81.09c-.25.06-.46.15-.63.26-.17.11-.31.25-.41.41-.1.16-.15.34-.15.53s.05.37.15.52Z"/><path d="M5.88,200.79h.67c-.24-.11-.42-.26-.54-.45-.12-.18-.18-.4-.18-.63,0-.26.07-.48.2-.67.14-.19.33-.32.59-.41-.26-.11-.45-.27-.59-.46-.14-.2-.2-.43-.2-.7,0-.38.12-.67.37-.88.25-.21.61-.31,1.07-.31h2.25v.7h-2.16c-.29,0-.52.07-.69.2-.17.13-.25.31-.25.54,0,.12.02.22.07.32.05.1.11.18.2.26.09.07.19.13.32.16.12.04.26.06.4.06h2.11v.7h-2.16c-.14,0-.27.02-.38.06-.12.04-.22.09-.3.15-.08.06-.14.14-.19.23-.04.09-.07.2-.07.31s.02.22.07.32c.05.1.12.18.21.25.09.07.2.12.32.17.12.04.26.06.41.06h2.09v.7h-3.64v-.68Z"/><path d="M5.88,194.6h.67c-.24-.11-.42-.26-.54-.45-.12-.18-.18-.4-.18-.63,0-.26.07-.48.2-.67.14-.19.33-.32.59-.41-.26-.11-.45-.27-.59-.46-.14-.2-.2-.43-.2-.7,0-.38.12-.67.37-.88.25-.21.61-.31,1.07-.31h2.25v.7h-2.16c-.29,0-.52.07-.69.2-.17.13-.25.31-.25.54,0,.12.02.22.07.32.05.1.11.18.2.26.09.07.19.13.32.16.12.04.26.06.4.06h2.11v.7h-2.16c-.14,0-.27.02-.38.06-.12.04-.22.09-.3.15-.08.06-.14.14-.19.23-.04.09-.07.2-.07.31s.02.22.07.32c.05.1.12.18.21.25.09.07.2.12.32.17.12.04.26.06.41.06h2.09v.7h-3.64v-.68Z"/></g><g id="LINE-2"><line y2="29.21" x2="14.26" y1="82.05" x1="14.26" class="cls-2"/><rect height=".3" width="1.95" y="81.9" x="13.28" class="cls-3"/><rect height=".3" width="1.95" y="29.06" x="13.28" class="cls-3"/></g><g id="MTEXT-2"><path d="M4.21,65.63h5.29v.73h-4.36s.08.04.1.06c.03.02.06.04.09.07l2.02,1.35s.06.04.08.05.05.03.08.06v-3.2h.64v3.98h-.59l-3.35-2.22v-.87Z"/><path d="M4.34,61.78c.12-.24.29-.44.51-.61.22-.17.5-.3.82-.39.32-.09.69-.14,1.09-.14s.8.05,1.15.15c.35.1.64.24.89.43s.43.41.56.67c.13.26.2.55.2.88,0,.37-.09.7-.27.97-.18.27-.43.47-.76.59l-.29-.64c.21-.07.37-.18.48-.34.11-.16.17-.35.17-.56,0-.2-.05-.38-.14-.55-.09-.17-.23-.31-.4-.44-.17-.13-.37-.22-.61-.29-.24-.07-.49-.1-.77-.1h-.17c-.06,0-.1,0-.15,0,.25.08.45.23.59.45.14.22.21.48.21.79,0,.24-.04.46-.12.65-.08.2-.19.36-.34.5-.14.14-.32.25-.52.33-.2.08-.42.12-.66.12s-.47-.04-.68-.13c-.21-.08-.38-.2-.52-.35-.14-.15-.26-.32-.34-.53-.08-.21-.12-.43-.12-.68,0-.3.06-.57.18-.81ZM4.91,62.95c.05.12.12.22.21.3.09.08.19.15.31.2.12.05.26.07.41.07s.29-.02.41-.07c.12-.05.23-.12.32-.2.09-.09.16-.19.21-.31.05-.12.07-.25.07-.4s-.02-.27-.07-.39c-.05-.12-.12-.22-.2-.31-.09-.09-.19-.15-.31-.2-.12-.05-.25-.07-.4-.07s-.28.03-.41.08c-.13.05-.24.13-.34.21-.1.09-.17.2-.22.32s-.08.26-.08.4.03.26.08.38Z"/><path d="M9.5,59.48l-4.62-1.78v2.69h-.67v-3.5h.59l4.7,1.77v.83Z"/><path d="M5.86,53.45h.67c-.24-.11-.42-.26-.54-.45-.12-.18-.18-.4-.18-.63,0-.26.07-.48.2-.67.14-.19.33-.32.59-.41-.26-.11-.45-.27-.59-.46-.14-.2-.2-.43-.2-.7,0-.38.12-.67.37-.88.25-.21.61-.31,1.07-.31h2.25v.7h-2.16c-.29,0-.52.07-.69.2-.17.13-.25.31-.25.54,0,.12.02.22.07.32.05.1.11.18.2.26.09.07.19.13.32.16.12.04.26.06.4.06h2.11v.7h-2.16c-.14,0-.27.02-.38.06-.12.04-.22.09-.3.15-.08.06-.14.14-.19.23-.04.09-.07.2-.07.31s.02.22.07.32c.05.1.12.18.21.25.09.07.2.12.32.17.12.04.26.06.41.06h2.09v.7h-3.64v-.68Z"/><path d="M5.86,47.27h.67c-.24-.11-.42-.26-.54-.45-.12-.18-.18-.4-.18-.63,0-.26.07-.48.2-.67.14-.19.33-.32.59-.41-.26-.11-.45-.27-.59-.46-.14-.2-.2-.43-.2-.7,0-.38.12-.67.37-.88.25-.21.61-.31,1.07-.31h2.25v.7h-2.16c-.29,0-.52.07-.69.2-.17.13-.25.31-.25.54,0,.12.02.22.07.32.05.1.11.18.2.26.09.07.19.13.32.16.12.04.26.06.4.06h2.11v.7h-2.16c-.14,0-.27.02-.38.06-.12.04-.22.09-.3.15-.08.06-.14.14-.19.23-.04.09-.07.2-.07.31s.02.22.07.32c.05.1.12.18.21.25.09.07.2.12.32.17.12.04.26.06.41.06h2.09v.7h-3.64v-.68Z"/></g><g id="LINE-3"><line y2="14.89" x2="71.05" y1="14.89" x1="28.58" class="cls-2"/><rect height="1.95" width=".3" y="13.91" x="28.43" class="cls-3"/><rect height="1.95" width=".3" y="13.91" x="70.9" class="cls-3"/></g><g id="MTEXT-3"><path d="M39.08,4.84v5.29h-.73v-4.36s-.04.08-.06.1c-.02.03-.04.06-.07.09l-1.35,2.02s-.04.06-.05.08-.03.05-.06.08h3.2v.64h-3.98v-.59l2.22-3.35h.87Z"/><path d="M43.26,4.99c.25.13.47.32.65.55.18.23.32.52.42.85.1.33.15.69.15,1.08s-.05.76-.15,1.1-.24.62-.42.86c-.18.24-.4.43-.65.56-.25.13-.52.2-.83.2s-.57-.07-.82-.2-.47-.32-.65-.56c-.18-.24-.32-.53-.42-.86-.1-.33-.15-.7-.15-1.1s.05-.75.15-1.08c.1-.33.24-.61.42-.85.18-.24.4-.42.65-.55.25-.13.53-.2.83-.2s.58.07.83.2ZM41.91,5.62c-.16.1-.29.23-.41.41-.11.18-.2.38-.27.63-.07.24-.1.51-.1.81s.03.57.09.82c.06.25.15.46.27.64.12.18.25.32.41.42.16.1.33.15.52.15s.37-.05.53-.15c.16-.1.3-.24.41-.42.11-.18.2-.39.27-.64.06-.25.09-.52.09-.82s-.03-.56-.09-.81c-.06-.25-.15-.46-.26-.63-.11-.17-.25-.31-.41-.41-.16-.1-.34-.15-.53-.15s-.37.05-.52.15Z"/><path d="M47.9,4.99c.25.13.47.32.65.55.18.23.32.52.42.85.1.33.15.69.15,1.08s-.05.76-.15,1.1-.24.62-.42.86c-.18.24-.4.43-.65.56-.25.13-.52.2-.83.2s-.57-.07-.82-.2-.47-.32-.65-.56c-.18-.24-.32-.53-.42-.86-.1-.33-.15-.7-.15-1.1s.05-.75.15-1.08c.1-.33.24-.61.42-.85.18-.24.4-.42.65-.55.25-.13.53-.2.83-.2s.58.07.83.2ZM46.55,5.62c-.16.1-.29.23-.41.41-.11.18-.2.38-.27.63-.07.24-.1.51-.1.81s.03.57.09.82c.06.25.15.46.27.64.12.18.25.32.41.42.16.1.33.15.52.15s.37-.05.53-.15c.16-.1.3-.24.41-.42.11-.18.2-.39.27-.64.06-.25.09-.52.09-.82s-.03-.56-.09-.81c-.06-.25-.15-.46-.26-.63-.11-.17-.25-.31-.41-.41-.16-.1-.34-.15-.53-.15s-.37.05-.52.15Z"/><path d="M52.73,6.49v.67c.11-.24.26-.42.45-.54.18-.12.4-.18.63-.18.26,0,.48.07.67.2.19.14.32.33.41.59.11-.26.27-.45.46-.59.2-.14.43-.2.7-.2.38,0,.67.12.88.37.21.25.31.61.31,1.07v2.25h-.7v-2.16c0-.29-.07-.52-.2-.69-.13-.17-.31-.25-.54-.25-.12,0-.22.02-.32.07-.1.05-.18.11-.26.2-.07.09-.13.19-.16.32-.04.12-.06.26-.06.4v2.11h-.7v-2.16c0-.14-.02-.27-.06-.38-.04-.12-.09-.22-.15-.3-.06-.08-.14-.14-.23-.19-.09-.04-.2-.07-.31-.07s-.22.02-.32.07c-.1.05-.18.12-.25.21-.07.09-.12.2-.17.32-.04.12-.06.26-.06.41v2.09h-.7v-3.64h.68Z"/><path d="M58.91,6.49v.67c.11-.24.26-.42.45-.54.18-.12.4-.18.63-.18.26,0,.48.07.67.2.19.14.32.33.41.59.11-.26.27-.45.46-.59.2-.14.43-.2.7-.2.38,0,.67.12.88.37.21.25.31.61.31,1.07v2.25h-.7v-2.16c0-.29-.07-.52-.2-.69-.13-.17-.31-.25-.54-.25-.12,0-.22.02-.32.07-.1.05-.18.11-.26.2-.07.09-.13.19-.16.32-.04.12-.06.26-.06.4v2.11h-.7v-2.16c0-.14-.02-.27-.06-.38-.04-.12-.09-.22-.15-.3-.06-.08-.14-.14-.23-.19-.09-.04-.2-.07-.31-.07s-.22.02-.32.07c-.1.05-.18.12-.25.21-.07.09-.12.2-.17.32-.04.12-.06.26-.06.41v2.09h-.7v-3.64h.68Z"/></g></g></g></g></g></g></svg>