<svg viewBox="0 0 531.26 288" xmlns:xlink="http://www.w3.org/1999/xlink" xmlns="http://www.w3.org/2000/svg" id="Nature"><defs><style>.cls-1{fill:#12100c;}.cls-2{fill:#1d1d1b;}.cls-3{fill:none;stroke:#12100c;stroke-linecap:round;stroke-linejoin:round;stroke-width:.3px;}</style><symbol viewBox="0 0 135.29 37.45" id="Floema_.com"><path d="M21.3,0h4.42s0,27.85,0,27.85h-4.42S21.3,0,21.3,0Z" class="cls-2"/><path d="M48.8,18.26c0,5.46-4.53,9.92-10.18,9.92-5.64,0-10.18-4.46-10.18-9.92,0-5.46,4.53-9.92,10.18-9.92,5.6,0,10.18,4.46,10.18,9.92ZM32.91,18.26c0,3.24,2.54,5.83,5.71,5.83,3.17,0,5.71-2.58,5.71-5.83s-2.54-5.83-5.71-5.83c-3.17,0-5.71,2.58-5.71,5.83Z" class="cls-2"/><path d="M69.95,18.23c0,.48-.04.81-.07.96h-14.93c.37,2.95,2.69,4.9,6.05,4.9,2.36,0,4.2-1,4.98-2.65l3.8,1.47c-1.36,3.36-4.61,5.27-8.85,5.27-6.19,0-10.54-4.09-10.54-9.92,0-5.71,4.17-9.92,9.84-9.92,5.64,0,9.73,4.17,9.73,9.88ZM65.01,15.9c-.59-2.1-2.43-3.47-4.76-3.47-2.32,0-4.17,1.36-4.98,3.47h9.73Z" class="cls-2"/><path d="M77.13,8.68v.74c0,.63.18.88.66.88.37,0,.7-.18,1.18-.59,1.03-.92,2.25-1.36,3.8-1.36,1.81,0,3.21.59,4.31,1.81.48.55.85.74,1.36.74.44,0,.77-.15,1.25-.66,1.22-1.25,2.73-1.88,4.61-1.88,3.95,0,6.23,2.8,6.23,7.6v11.91s-4.42,0-4.42,0v-11.28c0-2.77-1.33-4.5-3.43-4.5-2.25,0-3.72,1.92-3.72,4.76v11.02s-4.42,0-4.42,0v-11.28c0-2.77-1.33-4.5-3.47-4.5-2.21,0-3.72,1.95-3.72,4.83v10.95s-4.42,0-4.42,0V8.68s4.2,0,4.2,0Z" class="cls-2"/><path d="M120.15,16.02v11.84s-4.17,0-4.17,0l.04-1.25c0-.63-.22-.92-.77-.92-.41,0-.74.18-1.25.7-1.22,1.22-2.69,1.81-4.53,1.81-3.58,0-5.97-2.14-5.97-5.31,0-3.28,2.54-5.49,7.23-6.27l5.12-.85c-.26-2.21-1.88-3.5-4.5-3.5-2.21,0-3.69.92-4.28,2.69l-3.91-1.22c1.03-3.36,4.09-5.38,8.15-5.38,5.12,0,8.85,3.21,8.85,7.67ZM111.64,20.03c-2.54.44-3.76,1.29-3.76,2.65,0,1.33,1.14,2.14,2.99,2.14,2.95,0,4.87-2.14,5.01-5.57l-4.24.77Z" class="cls-2"/><path d="M19.08.01H0s0,27.84,0,27.84h4.57V10.41c0-1.23,1.49-1.85,2.36-.98l7.35,7.35,2.9-2.9-7.29-7.29c-.87-.87-.25-2.36.98-2.36h8.21V.01Z" class="cls-2"/><path d="M135.29,22.39c0,3.26-2.61,5.79-5.96,5.79-3.35,0-5.96-2.53-5.96-5.79,0-3.26,2.61-5.77,5.96-5.77,3.36,0,5.96,2.53,5.96,5.77ZM124.6,22.39c0,2.63,2.06,4.67,4.72,4.67,2.66,0,4.7-2.04,4.7-4.67s-2.04-4.65-4.7-4.65c-2.66,0-4.72,2.01-4.72,4.65ZM130.57,22.81c-.2.07-.3.2-.3.4,0,.12.07.27.15.4l1.39,1.89h-1.49s-1.71-2.41-1.71-2.41v2.41s-1.32,0-1.32,0v-6.19s2.31,0,2.31,0c1.27,0,2.19.8,2.19,1.89,0,.77-.47,1.37-1.22,1.62Z" class="cls-2"/><path d="M95.35,35.97c.17.16.25.36.25.6,0,.13-.02.25-.07.35-.05.11-.11.2-.19.28-.08.08-.16.14-.26.18-.1.04-.21.07-.34.07-.14,0-.26-.02-.37-.07-.11-.04-.2-.1-.28-.18-.07-.08-.13-.17-.18-.27-.05-.1-.07-.22-.07-.35,0-.25.08-.45.25-.61s.38-.24.62-.24.47.08.64.23Z" class="cls-2"/><path d="M101.56,33.29c-.06-.18-.15-.34-.26-.48-.11-.14-.25-.27-.41-.37-.16-.1-.34-.18-.53-.23-.19-.05-.39-.08-.6-.08-.29,0-.56.05-.8.16-.25.1-.46.25-.64.43-.18.18-.32.41-.42.67-.1.26-.15.54-.15.83,0,.31.05.6.15.85.1.26.24.48.43.67.19.19.41.33.66.44.25.1.53.16.84.16.42,0,.78-.1,1.1-.3.32-.2.55-.48.7-.84l1.05.31c-.19.61-.54,1.08-1.05,1.43s-1.12.52-1.81.52c-.47,0-.91-.08-1.31-.24-.4-.16-.75-.38-1.04-.67-.3-.29-.53-.63-.7-1.02-.17-.4-.25-.83-.25-1.29s.08-.89.25-1.28.39-.73.67-1.01c.28-.28.62-.51,1.02-.67.4-.16.82-.24,1.28-.24.35,0,.68.05.99.14.31.09.59.22.84.4.25.17.47.38.65.61.18.24.32.5.4.8l-1.06.32Z" class="cls-2"/><path d="M107.98,31.28c.4.17.75.4,1.04.68s.53.63.7,1.02.26.81.26,1.26-.09.85-.26,1.24-.41.73-.71,1.02c-.3.29-.65.52-1.04.7-.4.17-.82.26-1.26.26s-.89-.08-1.29-.25c-.4-.17-.74-.4-1.04-.68-.3-.29-.54-.63-.71-1.02-.17-.39-.26-.81-.26-1.26s.09-.87.26-1.26c.17-.39.41-.73.71-1.02.3-.29.65-.52,1.04-.68.4-.17.82-.25,1.28-.25s.87.08,1.28.25ZM105.89,32.3c-.25.1-.47.25-.66.44-.19.19-.33.42-.44.67-.1.26-.16.53-.16.83s.05.56.16.82c.1.26.25.49.44.68.19.19.41.34.66.44.25.1.52.16.81.16s.55-.05.8-.16c.25-.11.47-.26.67-.45s.34-.41.44-.67.16-.53.16-.82-.05-.56-.16-.82c-.1-.26-.25-.48-.44-.68s-.41-.34-.67-.44c-.25-.1-.52-.16-.8-.16s-.56.05-.81.16Z" class="cls-2"/><path d="M112.43,31.12v.25c0,.11.02.19.05.23s.09.06.16.06c.03,0,.06,0,.09-.01.03,0,.06-.02.09-.03s.06-.03.1-.06.07-.06.11-.09c.18-.15.38-.26.59-.34.21-.07.44-.11.7-.11.29,0,.55.05.78.14.24.1.45.25.63.47.08.1.15.16.22.2.07.04.15.05.23.05.03,0,.07,0,.1-.01.04,0,.07-.02.1-.04.03-.02.06-.04.1-.07s.08-.07.12-.11c.2-.21.43-.37.68-.47.26-.11.54-.16.84-.16.64,0,1.14.22,1.49.65.36.43.53,1.04.53,1.82v3.86h-1.2v-3.7c0-.5-.11-.89-.34-1.17-.23-.29-.53-.43-.92-.43-.2,0-.38.04-.55.12-.17.08-.31.2-.44.35-.12.15-.22.33-.28.55-.06.21-.1.44-.1.69v3.61h-1.2v-3.7c0-.24-.03-.46-.1-.66-.06-.2-.15-.37-.26-.51-.11-.14-.24-.25-.4-.32s-.33-.11-.53-.11-.37.04-.55.12c-.17.08-.32.2-.43.35s-.21.34-.28.55c-.07.21-.1.45-.1.7v3.58h-1.2v-6.23h1.14Z" class="cls-2"/></symbol></defs><g id="Centros_Cyclin_Portugal"><g id="estacionamento_para_bicicletas_Triatlo_M"><path d="M45.62,109.43v179.02h-11.97V109.43c0-.21.16-.37.37-.37h11.23c.21,0,.37.16.37.37Z" class="cls-3"/><path d="M45.62,36.22v23.83h-11.97v-23.83c0-.05.16-.05.37-.05h11.23c.21,0,.37,0,.37.05Z" class="cls-3"/><rect height="7.01" width="191.31" y="116.55" x="45.62" class="cls-3"/><path d="M248.89,109.43v179.02h-11.97V109.43c0-.21.16-.37.37-.37h11.23c.21,0,.37.16.37.37Z" class="cls-3"/><path d="M452.17,109.43v179.02h-11.97V109.43c0-.21.16-.37.37-.37h11.23c.21,0,.37.16.37.37Z" class="cls-3"/><rect height="7.01" width="191.31" y="116.55" x="248.89" class="cls-3"/><path d="M236.92,44.61v7.01H45.62v-7.01h191.31Z" class="cls-3"/><path d="M248.89,36.22v23.83h-11.97v-23.83c0-.05.16-.05.37-.05h11.23c.21,0,.37,0,.37.05Z" class="cls-3"/><path d="M452.17,36.22v23.83h-11.97v-23.83c0-.05.16-.05.37-.05h11.23c.21,0,.37,0,.37.05Z" class="cls-3"/><path d="M440.2,44.61v7.01h-191.31v-7.01h191.31Z" class="cls-3"/><line y2="12.17" x2="452.02" y1="11.79" x1="33.8" class="cls-3"/><rect height="1.95" width=".3" y="10.82" x="33.65" class="cls-1"/><rect height="1.95" width=".3" y="11.2" x="451.87" class="cls-1"/><path d="M228.23,1.36c.21.08.39.19.54.33.15.14.27.31.35.51.08.2.13.42.13.67,0,.14-.02.28-.05.42-.03.14-.08.28-.15.41-.07.14-.16.27-.27.42-.11.14-.24.29-.39.45l-1.31,1.35h2.29v.67h-3.32v-.59l1.79-1.85c.12-.12.22-.23.3-.33.08-.1.15-.21.2-.3.05-.1.09-.19.11-.29.02-.09.03-.19.03-.29,0-.15-.02-.28-.07-.4-.04-.12-.11-.23-.2-.32-.09-.09-.19-.16-.3-.21-.11-.05-.24-.07-.39-.07-.25,0-.47.08-.65.23-.18.15-.31.36-.39.63l-.67-.23c.12-.42.32-.74.62-.97s.66-.34,1.1-.34c.25,0,.48.04.69.12Z"/><path d="M230.96,6.53c-.22-.07-.4-.17-.56-.31-.15-.13-.28-.29-.36-.47s-.13-.38-.13-.6c0-.16.02-.31.07-.45.05-.15.11-.28.2-.4.09-.12.19-.22.31-.3s.25-.14.4-.18c-.14-.05-.25-.12-.36-.2-.1-.08-.19-.17-.27-.27s-.13-.21-.17-.33c-.04-.12-.06-.25-.06-.38,0-.21.04-.39.12-.56.08-.17.2-.32.34-.44.14-.13.32-.22.52-.29.2-.07.42-.1.66-.1s.46.03.66.1c.2.07.37.17.52.29.15.12.26.27.35.44.08.17.13.36.13.57,0,.13-.02.26-.06.38-.04.12-.1.24-.17.34-.07.1-.16.19-.27.27-.1.08-.22.14-.35.19.15.04.28.1.4.18s.22.19.3.31c.08.12.15.25.2.4.05.14.07.29.07.45,0,.21-.04.41-.13.6-.09.18-.21.34-.36.47-.15.13-.34.24-.56.31-.22.07-.46.11-.72.11s-.5-.04-.72-.11ZM232.09,5.9c.13-.04.23-.11.32-.19.09-.08.16-.18.21-.29.05-.11.08-.24.08-.37s-.03-.26-.08-.37c-.05-.11-.12-.21-.21-.29-.09-.08-.2-.15-.33-.2-.13-.05-.26-.07-.41-.07s-.28.02-.41.07c-.13.04-.23.11-.33.19s-.16.18-.21.3c-.05.11-.07.24-.07.37,0,.14.02.27.07.38.05.11.12.21.21.29.09.08.2.14.33.19.13.04.26.07.41.07s.29-.02.41-.07ZM231.32,1.97c-.11.04-.2.09-.28.16-.08.07-.14.15-.18.26s-.07.21-.07.33c0,.11.02.22.07.32.04.1.11.19.19.26.08.07.17.13.28.17s.23.06.35.06.25-.02.35-.06c.1-.04.2-.1.28-.17s.14-.16.19-.26c.04-.1.07-.21.07-.32,0-.12-.02-.23-.07-.33-.04-.1-.11-.19-.19-.26-.08-.07-.17-.12-.28-.16-.11-.04-.23-.06-.36-.06s-.24.02-.35.06Z"/><path d="M236.87,1.44c.25.13.47.32.65.55.18.23.32.52.42.85.1.33.15.69.15,1.08s-.05.76-.15,1.1-.24.62-.42.86c-.18.24-.4.43-.65.56-.25.13-.52.2-.83.2s-.57-.07-.82-.2-.47-.32-.65-.56c-.18-.24-.32-.53-.42-.86-.1-.33-.15-.7-.15-1.1s.05-.75.15-1.08c.1-.33.24-.61.42-.85.18-.24.4-.42.65-.55.25-.13.53-.2.83-.2s.58.07.83.2ZM235.52,2.07c-.16.1-.29.23-.41.41-.11.18-.2.38-.27.63-.07.24-.1.51-.1.81s.03.57.09.82c.06.25.15.46.27.64.12.18.25.32.41.42.16.1.33.15.52.15s.37-.05.53-.15c.16-.1.3-.24.41-.42.11-.18.2-.39.27-.64.06-.25.09-.52.09-.82s-.03-.56-.09-.81c-.06-.25-.15-.46-.26-.63-.11-.17-.25-.31-.41-.41-.16-.1-.34-.15-.53-.15s-.37.05-.52.15Z"/><path d="M241.5,1.44c.25.13.47.32.65.55.18.23.32.52.42.85.1.33.15.69.15,1.08s-.05.76-.15,1.1-.24.62-.42.86c-.18.24-.4.43-.65.56-.25.13-.52.2-.83.2s-.57-.07-.82-.2-.47-.32-.65-.56c-.18-.24-.32-.53-.42-.86-.1-.33-.15-.7-.15-1.1s.05-.75.15-1.08c.1-.33.24-.61.42-.85.18-.24.4-.42.65-.55.25-.13.53-.2.83-.2s.58.07.83.2ZM240.15,2.07c-.16.1-.29.23-.41.41-.11.18-.2.38-.27.63-.07.24-.1.51-.1.81s.03.57.09.82c.06.25.15.46.27.64.12.18.25.32.41.42.16.1.33.15.52.15s.37-.05.53-.15c.16-.1.3-.24.41-.42.11-.18.2-.39.27-.64.06-.25.09-.52.09-.82s-.03-.56-.09-.81c-.06-.25-.15-.46-.26-.63-.11-.17-.25-.31-.41-.41-.16-.1-.34-.15-.53-.15s-.37.05-.52.15Z"/><path d="M246.33,2.94v.67c.11-.24.26-.42.45-.54.18-.12.4-.18.63-.18.26,0,.48.07.67.2.19.14.32.33.41.59.11-.26.27-.45.46-.59.2-.14.43-.2.7-.2.38,0,.67.12.88.37.21.25.31.61.31,1.07v2.25h-.7v-2.16c0-.29-.07-.52-.2-.69-.13-.17-.31-.25-.54-.25-.12,0-.22.02-.32.07-.1.05-.18.11-.26.2-.07.09-.13.19-.16.32-.04.12-.06.26-.06.4v2.11h-.7v-2.16c0-.14-.02-.27-.06-.38-.04-.12-.09-.22-.15-.3-.06-.08-.14-.14-.23-.19-.09-.04-.2-.07-.31-.07s-.22.02-.32.07c-.1.05-.18.12-.25.21-.07.09-.12.2-.17.32-.04.12-.06.26-.06.41v2.09h-.7v-3.64h.68Z"/><path d="M252.52,2.94v.67c.11-.24.26-.42.45-.54.18-.12.4-.18.63-.18.26,0,.48.07.67.2.19.14.32.33.41.59.11-.26.27-.45.46-.59.2-.14.43-.2.7-.2.38,0,.67.12.88.37.21.25.31.61.31,1.07v2.25h-.7v-2.16c0-.29-.07-.52-.2-.69-.13-.17-.31-.25-.54-.25-.12,0-.22.02-.32.07-.1.05-.18.11-.26.2-.07.09-.13.19-.16.32-.04.12-.06.26-.06.4v2.11h-.7v-2.16c0-.14-.02-.27-.06-.38-.04-.12-.09-.22-.15-.3-.06-.08-.14-.14-.23-.19-.09-.04-.2-.07-.31-.07s-.22.02-.32.07c-.1.05-.18.12-.25.21-.07.09-.12.2-.17.32-.04.12-.06.26-.06.41v2.09h-.7v-3.64h.68Z"/><line y2="109.23" x2="12.23" y1="288.3" x1="12.23" class="cls-3"/><rect height=".3" width="1.95" y="109.08" x="11.25" class="cls-1"/><path d="M1.1,213.11h5.29v.72H1.84l.64,1.3h-.73l-.67-1.36v-.67Z"/><path d="M1.16,209.92c.08-.21.19-.39.33-.54.14-.15.31-.27.51-.35.2-.08.42-.13.67-.13.14,0,.28.02.42.05.14.03.28.08.41.15.14.07.27.16.42.27.14.11.29.24.45.39l1.35,1.31v-2.29h.67v3.32h-.59l-1.85-1.79c-.12-.12-.23-.22-.33-.3-.1-.08-.21-.15-.3-.2-.1-.05-.19-.09-.29-.11-.09-.02-.19-.03-.29-.03-.15,0-.28.02-.4.07-.12.04-.23.11-.32.2-.09.09-.16.19-.21.3-.05.11-.07.24-.07.39,0,.25.08.47.23.65.15.18.36.31.63.39l-.23.67c-.42-.12-.74-.32-.97-.62s-.34-.66-.34-1.1c0-.25.04-.48.12-.69Z"/><path d="M1.24,205.38c.13-.25.32-.47.55-.65.23-.18.52-.32.85-.42.33-.1.69-.15,1.08-.15s.76.05,1.1.15.62.24.86.42c.24.18.43.4.56.65.13.25.2.52.2.83s-.07.57-.2.82-.32.47-.56.65c-.24.18-.53.32-.86.42-.33.1-.7.15-1.1.15s-.75-.05-1.08-.15c-.33-.1-.61-.24-.85-.42-.24-.18-.42-.4-.55-.65-.13-.25-.2-.53-.2-.83s.07-.58.2-.83ZM1.87,206.73c.1.16.23.29.41.41.18.11.38.2.63.27.24.07.51.1.81.1s.57-.03.82-.09c.25-.06.46-.15.64-.27.18-.12.32-.25.42-.41.1-.16.15-.33.15-.52s-.05-.37-.15-.53c-.1-.16-.24-.3-.42-.41-.18-.11-.39-.2-.64-.27-.25-.06-.52-.09-.82-.09s-.56.03-.81.09c-.25.06-.46.15-.63.26-.17.11-.31.25-.41.41-.1.16-.15.34-.15.53s.05.37.15.52Z"/><path d="M1.24,200.74c.13-.25.32-.47.55-.65.23-.18.52-.32.85-.42.33-.1.69-.15,1.08-.15s.76.05,1.1.15.62.24.86.42c.24.18.43.4.56.65.13.25.2.52.2.83s-.07.57-.2.82-.32.47-.56.65c-.24.18-.53.32-.86.42-.33.1-.7.15-1.1.15s-.75-.05-1.08-.15c-.33-.1-.61-.24-.85-.42-.24-.18-.42-.4-.55-.65-.13-.25-.2-.53-.2-.83s.07-.58.2-.83ZM1.87,202.09c.1.16.23.29.41.41.18.11.38.2.63.27.24.07.51.1.81.1s.57-.03.82-.09c.25-.06.46-.15.64-.27.18-.12.32-.25.42-.41.1-.16.15-.33.15-.52s-.05-.37-.15-.53c-.1-.16-.24-.3-.42-.41-.18-.11-.39-.2-.64-.27-.25-.06-.52-.09-.82-.09s-.56.03-.81.09c-.25.06-.46.15-.63.26-.17.11-.31.25-.41.41-.1.16-.15.34-.15.53s.05.37.15.52Z"/><path d="M2.74,195.91h.67c-.24-.11-.42-.26-.54-.45-.12-.18-.18-.4-.18-.63,0-.26.07-.48.2-.67.14-.19.33-.32.59-.41-.26-.11-.45-.27-.59-.46-.14-.2-.2-.43-.2-.7,0-.38.12-.67.37-.88.25-.21.61-.31,1.07-.31h2.25v.7h-2.16c-.29,0-.52.07-.69.2-.17.13-.25.31-.25.54,0,.12.02.22.07.32.05.1.11.18.2.26.09.07.19.13.32.16.12.04.26.06.4.06h2.11v.7h-2.16c-.14,0-.27.02-.38.06-.12.04-.22.09-.3.15-.08.06-.14.14-.19.23-.04.09-.07.2-.07.31s.02.22.07.32c.05.1.12.18.21.25.09.07.2.12.32.17.12.04.26.06.41.06h2.09v.7h-3.64v-.68Z"/><path d="M2.74,189.73h.67c-.24-.11-.42-.26-.54-.45-.12-.18-.18-.4-.18-.63,0-.26.07-.48.2-.67.14-.19.33-.32.59-.41-.26-.11-.45-.27-.59-.46-.14-.2-.2-.43-.2-.7,0-.38.12-.67.37-.88.25-.21.61-.31,1.07-.31h2.25v.7h-2.16c-.29,0-.52.07-.69.2-.17.13-.25.31-.25.54,0,.12.02.22.07.32.05.1.11.18.2.26.09.07.19.13.32.16.12.04.26.06.4.06h2.11v.7h-2.16c-.14,0-.27.02-.38.06-.12.04-.22.09-.3.15-.08.06-.14.14-.19.23-.04.09-.07.2-.07.31s.02.22.07.32c.05.1.12.18.21.25.09.07.2.12.32.17.12.04.26.06.41.06h2.09v.7h-3.64v-.68Z"/><line y2="36.31" x2="12.23" y1="59.92" x1="12.23" class="cls-3"/><rect height=".3" width="1.95" y="59.77" x="11.25" class="cls-1"/><rect height=".3" width="1.95" y="36.16" x="11.25" class="cls-1"/><path d="M1.1,60.06h5.29v.72H1.84l.64,1.3h-.73l-.67-1.36v-.67Z"/><path d="M6.26,58.09c-.12.24-.29.44-.51.61-.22.17-.5.3-.82.39s-.69.14-1.09.14-.8-.05-1.15-.15c-.35-.1-.64-.24-.89-.43-.25-.18-.43-.41-.56-.67-.13-.26-.2-.55-.2-.88,0-.37.09-.7.27-.97.18-.27.43-.47.76-.59l.29.64c-.21.07-.37.18-.48.34-.11.16-.17.35-.17.56,0,.2.05.38.14.55s.23.31.4.44c.17.13.37.22.61.29s.49.1.77.1h.17c.06,0,.1,0,.15,0-.25-.08-.45-.23-.59-.45-.14-.22-.21-.48-.21-.79,0-.24.04-.46.12-.65.08-.2.19-.36.34-.5.15-.14.32-.25.52-.33.2-.08.42-.12.66-.12s.47.04.68.13c.21.08.38.2.53.35.14.15.26.32.34.53s.12.43.12.68c0,.3-.06.57-.18.81ZM5.69,56.92c-.05-.12-.12-.22-.21-.3-.09-.08-.19-.15-.31-.2-.12-.05-.26-.07-.41-.07s-.29.02-.41.07c-.12.05-.23.12-.32.2s-.16.19-.21.31-.07.25-.07.4.02.27.07.39.12.22.2.31c.09.09.19.15.31.2.12.05.25.07.4.07s.28-.03.41-.08.24-.12.34-.21.17-.2.22-.32c.05-.12.08-.26.08-.4s-.03-.26-.08-.38Z"/><path d="M1.24,52.12c.13-.25.32-.47.55-.65.23-.18.52-.32.85-.42.33-.1.69-.15,1.08-.15s.76.05,1.1.15.62.24.86.42c.24.18.43.4.56.65.13.25.2.52.2.83s-.07.57-.2.82-.32.47-.56.65c-.24.18-.53.32-.86.42-.33.1-.7.15-1.1.15s-.75-.05-1.08-.15c-.33-.1-.61-.24-.85-.42-.24-.18-.42-.4-.55-.65-.13-.25-.2-.53-.2-.83s.07-.58.2-.83ZM1.87,53.47c.1.16.23.29.41.41.18.11.38.2.63.27.24.07.51.1.81.1s.57-.03.82-.09c.25-.06.46-.15.64-.27.18-.12.32-.25.42-.41.1-.16.15-.33.15-.52s-.05-.37-.15-.53c-.1-.16-.24-.3-.42-.41-.18-.11-.39-.2-.64-.27-.25-.06-.52-.09-.82-.09s-.56.03-.81.09c-.25.06-.46.15-.63.26-.17.11-.31.25-.41.41-.1.16-.15.34-.15.53s.05.37.15.52Z"/><path d="M2.74,47.29h.67c-.24-.11-.42-.26-.54-.45-.12-.18-.18-.4-.18-.63,0-.26.07-.48.2-.67.14-.19.33-.32.59-.41-.26-.11-.45-.27-.59-.46-.14-.2-.2-.43-.2-.7,0-.38.12-.67.37-.88.25-.21.61-.31,1.07-.31h2.25v.7h-2.16c-.29,0-.52.07-.69.2-.17.13-.25.31-.25.54,0,.12.02.22.07.32.05.1.11.18.2.26.09.07.19.13.32.16.12.04.26.06.4.06h2.11v.7h-2.16c-.14,0-.27.02-.38.06-.12.04-.22.09-.3.15-.08.06-.14.14-.19.23-.04.09-.07.2-.07.31s.02.22.07.32c.05.1.12.18.21.25.09.07.2.12.32.17.12.04.26.06.41.06h2.09v.7h-3.64v-.68Z"/><path d="M2.74,41.11h.67c-.24-.11-.42-.26-.54-.45-.12-.18-.18-.4-.18-.63,0-.26.07-.48.2-.67.14-.19.33-.32.59-.41-.26-.11-.45-.27-.59-.46-.14-.2-.2-.43-.2-.7,0-.38.12-.67.37-.88.25-.21.61-.31,1.07-.31h2.25v.7h-2.16c-.29,0-.52.07-.69.2-.17.13-.25.31-.25.54,0,.12.02.22.07.32.05.1.11.18.2.26.09.07.19.13.32.16.12.04.26.06.4.06h2.11v.7h-2.16c-.14,0-.27.02-.38.06-.12.04-.22.09-.3.15-.08.06-.14.14-.19.23-.04.09-.07.2-.07.31s.02.22.07.32c.05.1.12.18.21.25.09.07.2.12.32.17.12.04.26.06.41.06h2.09v.7h-3.64v-.68Z"/><rect height="179.37" width="19.13" y="109.08" x="512.13" class="cls-3"/><path d="M525.85,117.68c-.07-.72-.57-1.31-1.26-1.52-.18-.05-.36-.08-.54-.07l-.16-1.45.24.07c.08.02.16-.02.18-.1.02-.08-.02-.16-.1-.18l-.45-.13s-.1,0-.13.03c-.04.03-.06.08-.05.13l.08.71-2.09-.62-.07-.71.23.07c.08.02.16-.02.18-.1.02-.08-.02-.16-.1-.18l-.73-.21c-.08-.02-.16.02-.18.1,0,.02,0,.04,0,.06,0,.06.05.11.11.12l.2.06.09.85-.73.61c-.21-.21-.47-.37-.76-.46-.94-.28-1.93.26-2.2,1.2-.07.22-.09.45-.06.68.07.72.57,1.31,1.26,1.52.89.26,1.82-.2,2.15-1.05l.7.21s.03,0,.05,0c0,0,0,0,.01,0h0s0,0,0,0h0s0,0,0,0c.03,0,.06-.02.08-.05l1.9-1.61.05.46c-.18.03-.35.1-.52.18-.42.23-.72.6-.85,1.06-.07.22-.09.45-.06.68.07.72.57,1.31,1.26,1.52.45.13.93.08,1.35-.14.42-.23.72-.6.85-1.06.07-.22.09-.45.06-.68ZM518.9,117.8c-.55-.16-.95-.64-1.01-1.21-.02-.18,0-.37.05-.55.22-.75,1.01-1.18,1.76-.96.23.07.43.19.59.35l-1.09.92s-.06.08-.05.13c0,0,0,0,0,.01.01.05.05.09.1.11l1.35.4c-.28.65-1.01,1.01-1.7.8ZM520.69,116.72l-1.09-.32.88-.74c.13.19.21.41.23.64.01.14,0,.28-.02.42ZM521.03,116.82c.04-.18.05-.37.03-.56-.03-.31-.14-.6-.31-.84l.57-.48.2,2.02-.49-.14ZM521.81,116.87l-.2-2.01,1.91.56-1.71,1.45ZM525.45,118.26c-.11.36-.35.66-.68.84-.33.18-.71.22-1.08.11-.55-.16-.95-.64-1.01-1.21-.02-.18,0-.37.05-.55.11-.36.35-.66.68-.84.12-.07.25-.11.38-.14l.15,1.42h0c0,.08.08.14.16.13.08,0,.14-.08.13-.16l-.15-1.42c.14,0,.27.02.41.06.55.16.95.64,1.01,1.21.02.18,0,.37-.05.55Z" class="cls-1"/><path d="M523.12,119.56h-4.09s-.03.02-.03.03.02.03.03.03h4.09s.03-.02.03-.03-.02-.03-.03-.03Z" class="cls-1"/><use xlink:href="#Floema_.com" transform="translate(518.92 121.59) scale(.04)" height="37.45" width="135.29"/><circle r="6" cy="118.33" cx="521.69" class="cls-3"/><path d="M522.04,114.15l-.05-.05v-.02s-.03-.01-.03-.01h-.03s-.02-.01-.02-.01h-.02s-.05-.01-.05-.01l-.08.03-.06.06-.03.05v.07l.02.07.04.06h.02s.02.03.02.03h.05s.02.02.02.02h.05l.08-.03.06-.06.02-.06v-.07s-.01-.07-.01-.07ZM521.98,114.29l-.02.03-.04.04h-.04s-.01.01-.01.01h-.05s-.04-.03-.04-.03l-.03-.04v-.04s0-.06,0-.06l.03-.04.04-.03h.04s.01-.02.01-.02h.01l.04.02.04.02.03.03v.05s0,.06,0,.06Z" class="cls-1"/><circle r=".36" cy="273.99" cx="521.69" class="cls-3"/></g></g></svg>