<svg viewBox="0 0 531.27 288" xmlns:xlink="http://www.w3.org/1999/xlink" xmlns="http://www.w3.org/2000/svg" id="Camada_2"><defs><style>.cls-1,.cls-2{fill:none;}.cls-3{fill:#12100c;}.cls-2{stroke:#12100c;stroke-linecap:round;stroke-linejoin:round;stroke-width:.3px;}</style><symbol viewBox="0 0 531.27 288" id="fundo_transparente"><rect height="288" width="531.27" x="0" class="cls-1"/></symbol></defs><g id="Urban"><g id="Reuse"><g id="set_de_piquenique"><use xlink:href="#fundo_transparente" height="288" width="531.27"/><g id="LINE"><line y2="284.42" x2="16.58" y1="221.71" x1="16.58" class="cls-2"/><rect height=".3" width="1.95" y="221.56" x="15.6" class="cls-3"/><rect height=".3" width="1.95" y="284.27" x="15.6" class="cls-3"/></g><g id="LINE-2"><line y2="14.34" x2="199.69" y1="14.34" x1="30.9" class="cls-2"/><rect height="1.95" width=".3" y="13.36" x="30.75" class="cls-3"/><rect height="1.95" width=".3" y="13.36" x="199.54" class="cls-3"/></g><g id="MTEXT"><path d="M102.35,4.29v5.29h-.72v-4.54l-1.3.64v-.73l1.36-.67h.67Z"/><path d="M105.72,4.41c.24.12.44.29.61.51.17.22.3.5.39.82.09.32.14.69.14,1.09s-.05.8-.15,1.15c-.1.35-.24.64-.43.89s-.41.43-.67.56c-.26.13-.55.2-.88.2-.37,0-.7-.09-.97-.27-.27-.18-.47-.43-.59-.76l.64-.29c.07.21.18.37.34.48.16.11.35.17.56.17.2,0,.38-.05.55-.14.17-.09.31-.23.44-.4.13-.17.22-.37.29-.61.07-.24.1-.49.1-.77v-.17c0-.06,0-.1,0-.15-.08.25-.23.45-.45.59-.22.14-.48.21-.79.21-.24,0-.46-.04-.65-.12-.2-.08-.36-.19-.5-.34-.14-.14-.25-.32-.33-.52-.08-.2-.12-.42-.12-.66s.04-.47.13-.68c.08-.21.2-.38.35-.52.15-.14.32-.26.53-.34.21-.08.43-.12.68-.12.3,0,.57.06.81.18ZM104.55,4.98c-.12.05-.22.12-.3.21-.08.09-.15.19-.2.31-.05.12-.07.26-.07.41s.02.29.07.41c.05.12.12.23.2.32.09.09.19.16.31.21.12.05.25.07.4.07s.27-.02.39-.07c.12-.05.22-.12.31-.2.09-.09.15-.19.2-.31.05-.12.07-.25.07-.4s-.03-.28-.08-.41c-.05-.13-.13-.24-.21-.34-.09-.1-.2-.17-.32-.22s-.26-.08-.4-.08-.26.03-.38.08Z"/><path d="M109.96,4.41c.24.12.44.29.61.51.17.22.3.5.39.82.09.32.14.69.14,1.09s-.05.8-.15,1.15c-.1.35-.24.64-.43.89s-.41.43-.67.56c-.26.13-.55.2-.88.2-.37,0-.7-.09-.97-.27-.27-.18-.47-.43-.59-.76l.64-.29c.07.21.18.37.34.48.16.11.35.17.56.17.2,0,.38-.05.55-.14.17-.09.31-.23.44-.4.13-.17.22-.37.29-.61.07-.24.1-.49.1-.77v-.17c0-.06,0-.1,0-.15-.08.25-.23.45-.45.59-.22.14-.48.21-.79.21-.24,0-.46-.04-.65-.12-.2-.08-.36-.19-.5-.34-.14-.14-.25-.32-.33-.52-.08-.2-.12-.42-.12-.66s.04-.47.13-.68c.08-.21.2-.38.35-.52.15-.14.32-.26.53-.34.21-.08.43-.12.68-.12.3,0,.57.06.81.18ZM108.79,4.98c-.12.05-.22.12-.3.21-.08.09-.15.19-.2.31-.05.12-.07.26-.07.41s.02.29.07.41c.05.12.12.23.2.32.09.09.19.16.31.21.12.05.25.07.4.07s.27-.02.39-.07c.12-.05.22-.12.31-.2.09-.09.15-.19.2-.31.05-.12.07-.25.07-.4s-.03-.28-.08-.41c-.05-.13-.13-.24-.21-.34-.09-.1-.2-.17-.32-.22s-.26-.08-.4-.08-.26.03-.38.08Z"/><path d="M114.53,4.43c.25.13.47.32.65.55.18.23.32.52.42.85.1.33.15.69.15,1.08s-.05.76-.15,1.1-.24.62-.42.86c-.18.24-.4.43-.65.56-.25.13-.52.2-.83.2s-.57-.07-.82-.2-.47-.32-.65-.56c-.18-.24-.32-.53-.42-.86-.1-.33-.15-.7-.15-1.1s.05-.75.15-1.08c.1-.33.24-.61.42-.85.18-.24.4-.42.65-.55.25-.13.53-.2.83-.2s.58.07.83.2ZM113.17,5.07c-.16.1-.29.23-.41.41-.11.18-.2.38-.27.63-.07.24-.1.51-.1.81s.03.57.09.82c.06.25.15.46.27.64.12.18.25.32.41.42.16.1.33.15.52.15s.37-.05.53-.15c.16-.1.3-.24.41-.42.11-.18.2-.39.27-.64.06-.25.09-.52.09-.82s-.03-.56-.09-.81c-.06-.25-.15-.46-.26-.63-.11-.17-.25-.31-.41-.41-.16-.1-.34-.15-.53-.15s-.37.05-.52.15Z"/><path d="M119.35,5.94v.67c.11-.24.26-.42.45-.54.18-.12.4-.18.63-.18.26,0,.48.07.67.2.19.14.32.33.41.59.11-.26.27-.45.46-.59.2-.14.43-.2.7-.2.38,0,.67.12.88.37.21.25.31.61.31,1.07v2.25h-.7v-2.16c0-.29-.07-.52-.2-.69-.13-.17-.31-.25-.54-.25-.12,0-.22.02-.32.07-.1.05-.18.11-.26.2-.07.09-.13.19-.16.32-.04.12-.06.26-.06.4v2.11h-.7v-2.16c0-.14-.02-.27-.06-.38-.04-.12-.09-.22-.15-.3-.06-.08-.14-.14-.23-.19-.09-.04-.2-.07-.31-.07s-.22.02-.32.07c-.1.05-.18.12-.25.21-.07.09-.12.2-.17.32-.04.12-.06.26-.06.41v2.09h-.7v-3.64h.68Z"/><path d="M125.54,5.94v.67c.11-.24.26-.42.45-.54.18-.12.4-.18.63-.18.26,0,.48.07.67.2.19.14.32.33.41.59.11-.26.27-.45.46-.59.2-.14.43-.2.7-.2.38,0,.67.12.88.37.21.25.31.61.31,1.07v2.25h-.7v-2.16c0-.29-.07-.52-.2-.69-.13-.17-.31-.25-.54-.25-.12,0-.22.02-.32.07-.1.05-.18.11-.26.2-.07.09-.13.19-.16.32-.04.12-.06.26-.06.4v2.11h-.7v-2.16c0-.14-.02-.27-.06-.38-.04-.12-.09-.22-.15-.3-.06-.08-.14-.14-.23-.19-.09-.04-.2-.07-.31-.07s-.22.02-.32.07c-.1.05-.18.12-.25.21-.07.09-.12.2-.17.32-.04.12-.06.26-.06.41v2.09h-.7v-3.64h.68Z"/></g><g id="MTEXT-2"><path d="M11.82,265.51l-4.62-1.78v2.69h-.67v-3.5h.59l4.7,1.77v.83Z"/><path d="M6.53,259.78h5.29v.73h-4.36s.08.04.1.06c.03.02.06.04.09.07l2.02,1.35s.06.04.08.05.05.03.08.06v-3.2h.64v3.98h-.59l-3.35-2.22v-.87Z"/><path d="M6.67,255.6c.13-.25.32-.47.55-.65.23-.18.52-.32.85-.42.33-.1.69-.15,1.08-.15s.76.05,1.1.15.62.24.86.42c.24.18.43.4.56.65.13.25.2.52.2.83s-.07.57-.2.82-.32.47-.56.65c-.24.18-.53.32-.86.42-.33.1-.7.15-1.1.15s-.75-.05-1.08-.15c-.33-.1-.61-.24-.85-.42-.24-.18-.42-.4-.55-.65-.13-.25-.2-.53-.2-.83s.07-.58.2-.83ZM7.31,256.95c.1.16.23.29.41.41.18.11.38.2.63.27.24.07.51.1.81.1s.57-.03.82-.09c.25-.06.46-.15.64-.27.18-.12.32-.25.42-.41.1-.16.15-.33.15-.52s-.05-.37-.15-.53c-.1-.16-.24-.3-.42-.41-.18-.11-.39-.2-.64-.27-.25-.06-.52-.09-.82-.09s-.56.03-.81.09c-.25.06-.46.15-.63.26-.17.11-.31.25-.41.41-.1.16-.15.34-.15.53s.05.37.15.52Z"/><path d="M8.18,250.77h.67c-.24-.11-.42-.26-.54-.45-.12-.18-.18-.4-.18-.63,0-.26.07-.48.2-.67.14-.19.33-.32.59-.41-.26-.11-.45-.27-.59-.46-.14-.2-.2-.43-.2-.7,0-.38.12-.67.37-.88.25-.21.61-.31,1.07-.31h2.25v.7h-2.16c-.29,0-.52.07-.69.2-.17.13-.25.31-.25.54,0,.12.02.22.07.32.05.1.11.18.2.26.09.07.19.13.32.16.12.04.26.06.4.06h2.11v.7h-2.16c-.14,0-.27.02-.38.06-.12.04-.22.09-.3.15-.08.06-.14.14-.19.23-.04.09-.07.2-.07.31s.02.22.07.32c.05.1.12.18.21.25.09.07.2.12.32.17.12.04.26.06.41.06h2.09v.7h-3.64v-.68Z"/><path d="M8.18,244.59h.67c-.24-.11-.42-.26-.54-.45-.12-.18-.18-.4-.18-.63,0-.26.07-.48.2-.67.14-.19.33-.32.59-.41-.26-.11-.45-.27-.59-.46-.14-.2-.2-.43-.2-.7,0-.38.12-.67.37-.88.25-.21.61-.31,1.07-.31h2.25v.7h-2.16c-.29,0-.52.07-.69.2-.17.13-.25.31-.25.54,0,.12.02.22.07.32.05.1.11.18.2.26.09.07.19.13.32.16.12.04.26.06.4.06h2.11v.7h-2.16c-.14,0-.27.02-.38.06-.12.04-.22.09-.3.15-.08.06-.14.14-.19.23-.04.09-.07.2-.07.31s.02.22.07.32c.05.1.12.18.21.25.09.07.2.12.32.17.12.04.26.06.41.06h2.09v.7h-3.64v-.68Z"/></g><g id="LINE-3"><line y2="178.89" x2="16.58" y1="28.66" x1="16.58" class="cls-2"/><rect height=".3" width="1.95" y="28.51" x="15.6" class="cls-3"/><rect height=".3" width="1.95" y="178.74" x="15.6" class="cls-3"/></g><g id="MTEXT-3"><path d="M6.53,115.46h5.29v.72h-4.54l.64,1.3h-.73l-.67-1.36v-.67Z"/><path d="M6.53,111.52h.65v1.92l1.54.25c-.09-.1-.16-.22-.21-.36-.05-.14-.07-.29-.07-.46,0-.25.04-.47.13-.68.08-.21.2-.38.35-.53.15-.15.33-.27.54-.35.21-.08.44-.12.69-.12s.48.04.7.13c.21.09.4.21.55.36.15.16.27.34.36.56.08.21.13.45.13.71,0,.2-.03.39-.08.58s-.13.35-.23.5c-.1.15-.22.28-.36.39-.14.11-.3.19-.48.24l-.31-.63c.24-.07.43-.19.56-.39.14-.19.21-.42.21-.67,0-.15-.03-.29-.08-.41-.05-.13-.12-.23-.21-.33-.09-.09-.2-.16-.33-.21-.13-.05-.27-.08-.43-.08s-.3.03-.44.08c-.13.05-.25.13-.34.22s-.17.21-.22.34c-.05.13-.08.28-.08.44,0,.18.04.35.1.49.07.14.17.26.31.36l-.15.62-2.79-.47v-2.52Z"/><path d="M6.53,108.86h5.29v.72h-4.54l.64,1.3h-.73l-.67-1.36v-.67Z"/><path d="M6.53,104.91h.65v1.92l1.54.25c-.09-.1-.16-.22-.21-.36-.05-.14-.07-.29-.07-.46,0-.25.04-.47.13-.68.08-.21.2-.38.35-.53.15-.15.33-.27.54-.35.21-.08.44-.12.69-.12s.48.04.7.13c.21.09.4.21.55.36.15.16.27.34.36.56.08.21.13.45.13.71,0,.2-.03.39-.08.58s-.13.35-.23.5c-.1.15-.22.28-.36.39-.14.11-.3.19-.48.24l-.31-.63c.24-.07.43-.19.56-.39.14-.19.21-.42.21-.67,0-.15-.03-.29-.08-.41-.05-.13-.12-.23-.21-.33-.09-.09-.2-.16-.33-.21-.13-.05-.27-.08-.43-.08s-.3.03-.44.08c-.13.05-.25.13-.34.22s-.17.21-.22.34c-.05.13-.08.28-.08.44,0,.18.04.35.1.49.07.14.17.26.31.36l-.15.62-2.79-.47v-2.52Z"/><path d="M8.18,100.98h.67c-.24-.11-.42-.26-.54-.45-.12-.18-.18-.4-.18-.63,0-.26.07-.48.2-.67.14-.19.33-.32.59-.41-.26-.11-.45-.27-.59-.46-.14-.2-.2-.43-.2-.7,0-.38.12-.67.37-.88.25-.21.61-.31,1.07-.31h2.25v.7h-2.16c-.29,0-.52.07-.69.2-.17.13-.25.31-.25.54,0,.12.02.22.07.32.05.1.11.18.2.26.09.07.19.13.32.16.12.04.26.06.4.06h2.11v.7h-2.16c-.14,0-.27.02-.38.06-.12.04-.22.09-.3.15-.08.06-.14.14-.19.23-.04.09-.07.2-.07.31s.02.22.07.32c.05.1.12.18.21.25.09.07.2.12.32.17.12.04.26.06.41.06h2.09v.7h-3.64v-.68Z"/><path d="M8.18,94.79h.67c-.24-.11-.42-.26-.54-.45-.12-.18-.18-.4-.18-.63,0-.26.07-.48.2-.67.14-.19.33-.32.59-.41-.26-.11-.45-.27-.59-.46-.14-.2-.2-.43-.2-.7,0-.38.12-.67.37-.88.25-.21.61-.31,1.07-.31h2.25v.7h-2.16c-.29,0-.52.07-.69.2-.17.13-.25.31-.25.54,0,.12.02.22.07.32.05.1.11.18.2.26.09.07.19.13.32.16.12.04.26.06.4.06h2.11v.7h-2.16c-.14,0-.27.02-.38.06-.12.04-.22.09-.3.15-.08.06-.14.14-.19.23-.04.09-.07.2-.07.31s.02.22.07.32c.05.1.12.18.21.25.09.07.2.12.32.17.12.04.26.06.41.06h2.09v.7h-3.64v-.68Z"/></g><path d="M119.46,227.99h64.23M46.91,227.99h67.02M184.94,251.83v.39M199.84,245.95v-10.6M199,245.95v-10.6M199.84,233.69v1.65M199,235.35v-1.65M199.84,235.35h-.84M199.84,226.73v6.97M199,226.73v6.97M199,233.69h.84M199.84,226.73v-4.59M199,222.13h.84M199,226.73v-4.59M31.59,235.35v10.6M30.75,235.35v10.6M31.59,233.69v1.65M30.75,235.35v-1.65M31.59,235.35h-.84M31.59,226.73v6.97M30.75,226.73v6.97M30.75,233.69h.84M31.59,222.13h0v4.59M30.75,222.13h0v4.59M31.59,226.73h-.84M31.59,222.13h-.84M196.45,230.96v14.45M199,223.78h-.24M195.61,282.7l.06-.12M195.61,282.79v-.09M31.59,223.78h.27M35.01,282.79v-.09M34.14,230.96v14.45M35.01,282.7l-.06-.12M190.44,230.27l-1.32-1.32M192.09,230.96h6.91M192.09,230.96l-.21-.03-.24-.03-.21-.06-.24-.06-.21-.12-.18-.09-.18-.15-.18-.15M199,228.95h-9.88M188.79,228.62v-.24M189.12,228.95l-.12-.12-.12-.12-.09-.09M184.94,228.41h3.63M188.58,228.41v-.03M188.58,228.38h.21M188.79,228.38h0M188.79,228.38h10.21M193.65,227.87h5.35M192.84,227.87h.81M184.94,227.84h5.44M183.68,227.87h.24l.12-.03h.9M183.68,227.87v.51M184.94,228.41h-.57l-.18-.03h-.51M190.38,227.84h1.62l.27.03h.57M40.15,230.27l1.32-1.32M38.5,230.96h-6.91M38.5,230.96l.24-.03.21-.03.24-.06.21-.06.21-.12.18-.09.21-.15.15-.15M31.59,228.95h9.88M41.47,228.95l.12-.12.12-.12.09-.09M41.8,228.62v-.24M33.99,228.23h0M46.91,227.35v.51M33.99,228.23h0M45.65,228.41h-3.63M45.65,228.41h.57l.18-.03h.51M46.91,227.87v.51M46.91,227.87h-.24l-.12-.03h-.9M45.65,227.84h-5.44M37.78,227.87h-.81M36.97,227.87h-5.38M41.8,228.38h-10.21M41.8,228.38h0M42.01,228.38h-.21M42.01,228.41v-.03M40.21,227.84h-1.59l-.3.03h-.54M32.7,245.41h-.15l-.18.06-.15.09-.12.09-.09.15-.09.12-.06.18v.15M32.7,245.41h165.19M197.89,245.41h.18l.15.06.15.09.12.09.12.15.06.12.06.18.03.15M31.86,250.99v-4.74M32.7,251.83h0M198.76,246.25v4.74M197.89,251.83h0M32.7,221.56l-.15.03-.18.03-.15.09-.12.12-.09.12-.09.15-.06.15v.18M31.86,226.52v-4.08M32.7,227.36l-.15-.03-.18-.03-.15-.09-.12-.09-.09-.15-.09-.15-.06-.15v-.15M197.89,221.56H32.7M197.89,227.36H32.7M198.76,222.43l-.03-.18-.06-.15-.06-.15-.12-.12-.12-.12-.15-.09-.15-.03-.18-.03M198.76,226.52l-.03.15-.06.15-.06.15-.12.15-.12.09-.15.09-.15.03-.18.03M198.76,222.43h0v4.08M193.47,284.57h.84M194.32,283.55h-.84M193.47,283.55v1.02M199,284.57h-4.69M199,283.55h-4.69M199,246.82v-.87M199.84,245.95v.87M199,283.55v-36.73M199.84,284.57v-37.75M199,284.57h.84M34.14,254.72v24.99M34.14,254.72l.03-.15.03-.18.09-.12.12-.15.12-.09.15-.09.15-.03.18-.03M35.01,253.87h3.39M38.41,253.87l.18-.03.15-.03.15-.09.12-.09.12-.15.06-.15.06-.15v-.15M39.25,253.03v-.81M35.01,283.55v-.75M34.95,282.58l-.18-.33-.18-.33-.12-.36-.12-.36-.09-.36-.06-.39-.03-.36-.03-.39M195.67,282.58l.18-.33.15-.33.15-.36.09-.36.09-.36.06-.39.06-.36v-.39M191.34,253.03v-.81M191.34,253.03l.03.15.03.15.09.15.09.15.15.09.15.09.15.03.15.03M195.61,253.87h-3.42M195.61,253.87l.15.03.18.03.12.09.15.09.09.15.09.12.06.18v.15M196.45,254.72v24.99M195.67,282.58l-.03.03v.06l-.03.03v.09M195.61,283.55v-.75M184.94,252.22h6.4M183.68,252.19h0M184.94,252.22h-1.26v-.03M45.65,252.22h-14.06M45.65,252.22h1.26v-.03M46.91,252.19v-.36M198.7,251.29h.3M198.16,251.8h.84M184.94,252.22h14.06M183.68,252.19v-.36M184.94,252.22h-1.11l-.09-.03h-.06M31.59,245.95v.87M30.75,246.82v-.87M31.59,283.55v-36.73M30.75,284.57v-37.75M30.75,284.57h.84M37.12,284.57h-.84M37.12,283.55v1.02M36.28,283.55h.84M31.59,284.57h4.69M31.59,283.55h4.69M32.7,251.83h165.19M31.86,250.99v.15l.06.18.09.15.09.12.12.09.15.09.18.06h.15M197.89,251.83h.18l.15-.06.15-.09.12-.09.12-.12.06-.15.06-.18.03-.15M46.91,227.99h136.77" class="cls-2"/><path d="M31.86,101.1h-.27M31.86,106.45h-.27M199,138.37h0v-2.34M199.84,138.37h0v-2.34M199,136.03v-64.54M199.84,136.03v-64.54M199,136.03h.84M199.84,71.49v-2.34M199,71.49v-2.34M199,71.49h.84M30.75,136.03v2.34M31.59,136.03v2.34M30.75,71.49v64.54M31.59,71.49v64.54M30.75,69.15v2.34M31.59,69.15v2.34M199,103.35h-1.11M197.29,103.35v.84M199,104.2h-1.11M31.59,104.2h1.11M31.59,103.35h1.11M198.76,131.44h.24M198.76,131.44h.24M31.86,102.06h-.27M31.86,76.08h-.27M31.86,76.08h-.27M198.76,76.08h.24M198.76,76.08h.24M31.86,105.49h-.27M31.86,131.44h-.27M31.86,131.44h-.27M198.76,178.17l-.03.18-.06.15-.06.15-.12.12-.12.12-.15.06-.15.06-.18.03M197.89,179.04H32.7M32.7,179.04l-.15-.03-.18-.06-.15-.06-.12-.12-.09-.12-.09-.15-.06-.15v-.18M31.86,178.17v-31M198.76,147.17v31M31.86,147.17v-2.04M198.76,145.13h0v2.04M32.7,103.35l-.15-.03-.18-.06-.15-.06-.12-.12-.09-.12-.09-.15-.06-.15v-.18M197.89,103.35H32.7M198.76,102.48l-.03.18-.06.15-.06.15-.12.12-.12.12-.15.06-.15.06-.18.03M198.76,71.49v31M31.86,102.48v-31M31.86,71.49v-2.04M198.76,69.45h0v2.04M31.86,138.07h0v-2.04M198.76,136.03v2.04M31.86,136.03v-31M197.89,104.2h.18l.15.06.15.09.12.09.12.12.06.15.06.18.03.15M198.76,105.04v31M32.7,104.2h165.19M31.86,105.04v-.15l.06-.18.09-.15.09-.12.12-.09.15-.09.18-.06h.15M198.76,60.34v2.04M31.86,62.39h0v-2.04M31.86,60.34v-31M198.76,29.35v31M31.86,29.35v-.15l.06-.18.09-.15.09-.12.12-.09.15-.09.18-.06h.15M32.7,28.51h165.19M197.89,28.51h.18l.15.06.15.09.12.09.12.12.06.15.06.18.03.15M30.75,60.34v2.34M31.59,60.34v2.34M30.75,29.92v30.42M31.59,29.92v30.42M31.59,29.05v.87M30.75,29.05h.84M30.75,29.92v-.87M199.84,177.63v.84M199,178.47h0v-.84M199.84,178.47h-.84M199.84,147.17v-2.34M199,147.17v-2.34M199.84,177.63v-30.45M199,177.63v-30.45M198.76,55.87h.24M198.76,55.87h.24M198.76,30.76h.24M31.86,151.65h-.27M31.86,151.65h-.27M31.86,176.76h-.27M198.76,151.65h.24M198.76,176.76h.24M198.76,151.65h.24M31.86,55.87h-.27M31.86,30.76h-.27M31.86,55.87h-.27M199.84,60.34v2.34M199,60.34v2.34M199.84,29.92v30.42M199,29.92v30.42M199.84,60.34h-.84M199.84,29.05v.87M199,29.05h.84M199,29.92v-.87M31.59,177.63v.84M30.75,178.47h0v-.84M31.59,178.47h-.84M31.59,147.17v-2.34M30.75,147.17v-2.34M31.59,177.63v-30.45M30.75,177.63v-30.45M199,138.37h.84M199.84,69.15h-.84M30.75,138.37h.84M31.59,69.15h-.84M32.7,144.29l-.15.03-.18.03-.15.09-.12.09-.09.15-.09.12-.06.18v.15M198.76,145.13l-.03-.15-.06-.18-.06-.12-.12-.15-.12-.09-.15-.09-.15-.03-.18-.03M197.89,144.29H32.7M32.7,68.6l-.15.03-.18.03-.15.09-.12.09-.09.15-.09.12-.06.18v.15M197.89,68.6H32.7M198.76,69.45l-.03-.15-.06-.18-.06-.12-.12-.15-.12-.09-.15-.09-.15-.03-.18-.03M31.86,138.07v.18l.06.15.09.15.09.12.12.12.15.06.18.06h.15M197.89,138.92h.18l.15-.06.15-.06.12-.12.12-.12.06-.15.06-.15.03-.18M32.7,138.92h165.19M197.89,63.23h.18l.15-.06.15-.06.12-.12.12-.12.06-.15.06-.15.03-.18M31.86,62.39v.18l.06.15.09.15.09.12.12.12.15.06.18.06h.15M32.7,63.23h165.19M30.75,62.69h.84M199.84,144.83h-.84M199,62.69h.84M31.59,144.83h-.84" class="cls-2"/><path d="M310.39,283.55h.48M310.39,284.57h.48M324.39,283.55h.48M324.39,284.57h.48M312.52,283.55h-1.65M312.52,284.57h-1.65M322.73,283.55h1.65M322.73,284.57h1.65M349.89,222.13h.27l.27.06.27.06.24.12.24.12.21.18.21.18.18.21.15.21.12.24.09.24.06.27.03.27v.27l-.03.27-.06.27-.09.24-.09.24-.15.24-.18.21-.18.18-.21.18-.24.12-.24.12-.27.09M285.37,222.13h64.51M284.77,226.73l-.27-.09-.24-.12-.24-.12-.21-.18-.18-.18-.18-.21-.12-.24-.12-.24-.09-.24-.06-.27-.03-.27v-.27l.03-.27.06-.27.09-.24.15-.24.15-.21.15-.21.21-.18.21-.18.24-.12.24-.12.27-.06.27-.06h.27M284.77,226.73l26.49,6.97M311.26,233.69l.24.09.21.12.21.15.18.15.15.21.12.21.09.24.03.24.03.24M312.52,283.55v-48.2M322.73,284.57h-10.21M322.73,235.35v48.2M322.73,235.35l.03-.24.06-.24.06-.24.12-.21.18-.21.15-.15.21-.15.24-.12.21-.09M350.49,226.73l-26.49,6.97M243.23,245.41h-.18l-.15.06-.15.09-.12.09-.12.15-.09.12-.03.18-.03.15M242.36,250.99l.03.15.03.18.09.15.12.12.12.12.15.06h.03M242.36,250.99v-4.74M274.26,251.2l-2.04.03M243.23,245.41h30.97M274.2,245.41h.3l.3.06.3.09.27.09.27.15.27.15.24.18.21.21.18.24.15.27.15.24.12.3.06.27.06.3.03.3-.03.3-.03.3-.09.3-.09.27-.15.27-.15.27-.18.24-.21.21-.24.18-.24.18-.27.15-.27.09-.3.09-.3.06-.3.03M318.92,221.56l-.18.03-.15.03-.15.09-.12.12-.12.12-.09.15v.03M349.95,227.36l-2.01.03M318.92,221.56h30.97M349.89,221.56l.3.03.3.03.3.09.27.09.27.15.27.15.24.21.21.21.18.21.15.27.15.27.12.27.06.3.06.3.03.3-.03.3-.03.3-.09.27-.09.3-.15.27-.15.24-.18.24-.21.21-.24.21-.24.15-.27.15-.27.12-.3.06-.3.06-.3.03M285.31,227.36l-.3-.03-.3-.06-.3-.06-.27-.12-.27-.15-.24-.15-.24-.21-.21-.21-.18-.24-.15-.24-.15-.27-.09-.3-.09-.27-.03-.3-.03-.3.03-.3.06-.3.06-.3.12-.27.15-.27.15-.27.18-.21.24-.21.21-.21.27-.15.27-.15.27-.09.3-.09.3-.03.3-.03M287.32,227.39l-2.01-.03M285.37,221.56h31M316.37,221.56l.15.03.15.03.15.09.15.12.09.12.09.15v.03M361,251.2l-.3-.03-.3-.06-.3-.09-.27-.09-.27-.15-.24-.18-.24-.18-.21-.21-.18-.24-.15-.27-.15-.27-.09-.27-.09-.3-.03-.3-.03-.3.03-.3.06-.3.06-.27.12-.3.15-.24.15-.27.18-.24.24-.21.21-.18.27-.15.27-.15.27-.09.3-.09.3-.06h.3M392.9,246.25v4.74M361.06,245.41h31M363.04,251.23l-2.04-.03M392.9,250.99l-.03.15-.03.18-.09.15-.12.12-.12.12-.15.06h-.03M392.05,245.41h.15l.15.06.15.09.15.09.09.15.09.12.03.18.03.15M254.95,283.55h.39M254.95,284.57h.39M254.95,283.55h-1.8M254.95,284.57h-1.8M243.77,245.95h30.42M243.77,245.95l-.18.03-.15.06-.15.06-.12.12-.12.12-.06.15-.06.15v.18M242.93,284.57v-37.75M253.15,284.57h-10.21M253.15,256.82v26.73M253.15,256.82v-.12l.03-.15.06-.12.09-.12.09-.09.12-.09.12-.06.12-.06M274.8,250.57l-21.02,5.44M274.2,245.95l.27.03.27.03.27.09.24.12.24.12.21.15.21.18.18.21.15.24.12.24.09.24.06.27.03.27v.27l-.03.27-.06.27-.09.24-.12.24-.12.24-.18.21-.18.18-.24.18-.21.12-.27.12-.24.09M270.87,251.68h0M270.87,251.68h0M392.32,284.57v-37.75M392.32,246.82v-.18l-.06-.15-.06-.15-.12-.12-.12-.12-.15-.06-.15-.06-.18-.03M391.48,245.95h-30.42M361.06,245.95l-.27.03-.27.03-.27.09-.24.12-.24.12-.21.15-.21.18-.18.21-.15.24-.12.24-.09.24-.06.27-.03.27v.27l.03.27.06.27.09.24.12.24.12.24.18.21.21.18.21.18.21.12.27.12.24.09M360.46,250.57l21.02,5.44M381.48,256.01l.12.06.15.06.09.09.09.09.09.12.06.12.03.15v.12M382.12,256.74v26.81M382.11,284.57h10.21M380.31,284.57h-.39M380.31,283.55h-.39M380.31,284.57h1.8M380.31,283.55h1.8M310.39,283.55v1.02M324.87,284.57v-1.02M255.34,284.57v-1.02M379.92,283.55v1.02" class="cls-2"/></g></g></g></svg>