<svg viewBox="0 0 531.27 288" xmlns:xlink="http://www.w3.org/1999/xlink" xmlns="http://www.w3.org/2000/svg" id="Camada_2"><defs><style>.cls-1,.cls-2,.cls-3{fill:none;}.cls-4{fill:#12100c;}.cls-2{stroke-width:.3px;}.cls-2,.cls-3{stroke:#12100c;stroke-linecap:round;stroke-linejoin:round;}.cls-3{stroke-width:.3px;}</style><symbol viewBox="0 0 531.27 288" id="fundo_transparente"><rect height="288" width="531.27" x="0" class="cls-1"/></symbol></defs><g id="Nature"><g id="Rotas_cicláveis"><g id="placas_direcionais_S"><use xlink:href="#fundo_transparente" height="288" width="531.27"/><g id="MTEXT"><path d="M116.51,123.68v.55l-.65.98c-.04.06-.07.1-.1.15s-.06.08-.09.13c-.03.04-.06.09-.09.13s-.06.09-.09.15c.19.02.37.08.52.18s.29.21.41.35c.12.14.21.3.27.48s.09.38.09.59c0,.24-.04.47-.13.67-.08.2-.2.38-.36.52-.15.14-.34.26-.54.34s-.44.12-.69.12c-.21,0-.4-.03-.58-.08-.18-.05-.35-.13-.49-.23-.15-.1-.28-.22-.39-.37s-.2-.31-.26-.49l.63-.31c.08.24.22.44.41.58.19.14.42.21.67.21.14,0,.28-.02.4-.07.12-.05.23-.11.31-.2.09-.09.15-.19.2-.31.05-.12.07-.26.07-.41s-.03-.29-.08-.42-.13-.23-.22-.32c-.09-.09-.21-.16-.34-.21-.13-.05-.28-.08-.43-.08h-.35l-.08-.44.72-1.07s.06-.09.09-.12c.03-.03.05-.07.08-.12.03-.04.06-.08.08-.12.03-.03.06-.07.09-.12h-2.18v-.65h3.09Z"/><path d="M120.45,123.68v.65h-1.92l-.25,1.54c.1-.09.22-.16.36-.21.14-.05.29-.07.46-.07.25,0,.47.04.68.13.21.08.38.2.53.35s.27.33.35.54c.08.21.12.44.12.69s-.04.48-.13.7c-.09.21-.21.4-.36.55-.16.15-.34.27-.56.36s-.45.13-.72.13c-.2,0-.39-.03-.57-.08-.18-.05-.35-.13-.5-.23-.15-.1-.28-.22-.39-.36-.11-.14-.19-.3-.24-.48l.63-.31c.07.24.19.43.39.56.19.14.42.21.67.21.15,0,.29-.03.41-.08.13-.05.23-.12.33-.21.09-.09.16-.2.21-.33.05-.13.08-.27.08-.43s-.03-.3-.08-.44c-.05-.13-.13-.25-.22-.34s-.21-.17-.34-.22-.28-.08-.45-.08c-.18,0-.34.04-.49.1-.14.07-.26.17-.36.31l-.62-.15.47-2.79h2.52Z"/><path d="M124.19,123.82c.25.13.47.32.65.55.18.23.32.52.42.85.1.33.15.69.15,1.08s-.05.76-.15,1.1-.24.62-.42.86c-.18.24-.4.43-.65.56s-.52.2-.83.2-.57-.07-.82-.2-.47-.32-.65-.56c-.18-.24-.32-.53-.42-.86s-.15-.7-.15-1.1.05-.75.15-1.08c.1-.33.24-.61.42-.85.18-.24.4-.42.65-.55.25-.13.53-.2.83-.2s.58.07.83.2ZM122.84,124.45c-.16.1-.29.23-.41.41-.11.18-.2.38-.27.63-.07.24-.1.51-.1.81s.03.57.09.82c.06.25.15.46.27.64.12.18.25.32.41.42.16.1.33.15.52.15s.37-.05.53-.15c.16-.1.3-.24.41-.42.11-.18.2-.39.27-.64.06-.25.09-.52.09-.82s-.03-.56-.09-.81c-.06-.25-.15-.46-.26-.63-.11-.17-.25-.31-.41-.41-.16-.1-.34-.15-.53-.15s-.37.05-.52.15Z"/><path d="M129.02,125.32v.67c.11-.24.26-.42.44-.54.19-.12.4-.18.63-.18.26,0,.48.07.67.2.19.14.32.33.41.59.11-.26.27-.45.46-.59.2-.14.43-.2.7-.2.38,0,.67.12.88.37.21.25.31.61.31,1.07v2.25h-.7v-2.16c0-.29-.07-.52-.2-.69s-.31-.25-.54-.25c-.12,0-.22.02-.32.07-.1.05-.18.11-.26.2-.07.09-.13.19-.16.32-.04.12-.06.26-.06.4v2.11h-.7v-2.16c0-.14-.02-.27-.06-.38s-.09-.22-.15-.3c-.06-.08-.14-.14-.23-.19-.09-.04-.19-.07-.31-.07s-.22.02-.32.07c-.1.05-.18.12-.25.21-.07.09-.12.2-.16.32-.04.12-.06.26-.06.41v2.09h-.7v-3.64h.68Z"/><path d="M135.2,125.32v.67c.11-.24.26-.42.44-.54.19-.12.4-.18.63-.18.26,0,.48.07.67.2.19.14.32.33.41.59.11-.26.27-.45.46-.59.2-.14.43-.2.7-.2.38,0,.67.12.88.37.21.25.31.61.31,1.07v2.25h-.7v-2.16c0-.29-.07-.52-.2-.69s-.31-.25-.54-.25c-.12,0-.22.02-.32.07-.1.05-.18.11-.26.2-.07.09-.13.19-.16.32-.04.12-.06.26-.06.4v2.11h-.7v-2.16c0-.14-.02-.27-.06-.38s-.09-.22-.15-.3c-.06-.08-.14-.14-.23-.19-.09-.04-.19-.07-.31-.07s-.22.02-.32.07c-.1.05-.18.12-.25.21-.07.09-.12.2-.16.32-.04.12-.06.26-.06.41v2.09h-.7v-3.64h.68Z"/></g><g id="MTEXT-2"><path d="M5.68,249.2h5.28v.72h-4.54l.64,1.3h-.73l-.66-1.36v-.67Z"/><path d="M5.68,245.26h.65v1.92l1.54.25c-.09-.1-.16-.22-.21-.36-.05-.14-.07-.29-.07-.46,0-.25.04-.47.13-.68.08-.21.2-.38.35-.53.15-.15.33-.27.54-.35.21-.08.44-.12.69-.12s.48.04.7.13c.21.09.4.21.55.36s.27.34.36.56c.08.21.13.45.13.71,0,.2-.03.39-.08.58-.05.18-.13.35-.23.5-.1.15-.22.28-.36.39-.14.11-.3.19-.48.24l-.31-.63c.24-.07.43-.19.56-.39.14-.19.21-.42.21-.67,0-.15-.03-.29-.08-.41-.05-.13-.12-.23-.21-.33-.09-.09-.2-.16-.33-.21-.13-.05-.27-.08-.43-.08s-.3.03-.44.08-.25.13-.34.22-.17.21-.22.34c-.05.13-.08.28-.08.44,0,.18.04.35.1.49.07.14.17.26.31.36l-.15.62-2.79-.47v-2.52Z"/><path d="M5.83,241.51c.13-.25.32-.47.55-.65.23-.18.52-.32.85-.42.33-.1.69-.15,1.09-.15s.76.05,1.1.15c.33.1.62.24.86.42s.43.4.56.65c.13.25.2.52.2.83s-.07.57-.2.82c-.13.25-.32.47-.56.65-.24.18-.53.32-.86.42-.33.1-.7.15-1.1.15s-.75-.05-1.09-.15c-.33-.1-.61-.24-.85-.42-.24-.18-.42-.4-.55-.65-.13-.25-.2-.53-.2-.83s.07-.58.2-.83ZM6.46,242.87c.1.16.23.29.41.41.17.11.38.2.63.27.24.07.51.1.8.1s.57-.03.82-.09c.25-.06.46-.15.64-.27.18-.12.32-.25.42-.41.1-.16.15-.33.15-.52s-.05-.37-.15-.53c-.1-.16-.24-.3-.42-.41-.18-.11-.39-.2-.64-.27s-.52-.09-.82-.09-.56.03-.81.09c-.24.06-.46.15-.63.26-.18.11-.31.25-.41.41-.1.16-.15.34-.15.53s.05.37.15.52Z"/><path d="M7.33,236.69h.67c-.24-.11-.42-.26-.54-.45s-.18-.4-.18-.63c0-.26.07-.48.2-.67s.33-.32.59-.41c-.26-.11-.45-.27-.59-.46s-.2-.43-.2-.7c0-.38.12-.67.37-.88.25-.21.61-.31,1.07-.31h2.25v.7h-2.16c-.29,0-.52.07-.69.2-.17.13-.25.31-.25.54,0,.12.02.22.07.32s.11.18.2.26.19.13.32.16c.12.04.26.06.4.06h2.11v.7h-2.16c-.14,0-.27.02-.38.06-.12.04-.22.09-.3.15s-.14.14-.19.23c-.04.09-.07.2-.07.31s.02.22.07.32.12.18.21.25.2.12.32.17c.12.04.26.06.41.06h2.09v.7h-3.64v-.68Z"/><path d="M7.33,230.5h.67c-.24-.11-.42-.26-.54-.45s-.18-.4-.18-.63c0-.26.07-.48.2-.67s.33-.32.59-.41c-.26-.11-.45-.27-.59-.46s-.2-.43-.2-.7c0-.38.12-.67.37-.88.25-.21.61-.31,1.07-.31h2.25v.7h-2.16c-.29,0-.52.07-.69.2-.17.13-.25.31-.25.54,0,.12.02.22.07.32s.11.18.2.26.19.13.32.16c.12.04.26.06.4.06h2.11v.7h-2.16c-.14,0-.27.02-.38.06-.12.04-.22.09-.3.15s-.14.14-.19.23c-.04.09-.07.2-.07.31s.02.22.07.32.12.18.21.25.2.12.32.17c.12.04.26.06.41.06h2.09v.7h-3.64v-.68Z"/></g><g id="MTEXT-3"><path d="M3.4,159.44h5.29v.72h-4.54l.64,1.3h-.73l-.67-1.36v-.67Z"/><path d="M3.54,155.73c.13-.25.32-.47.55-.65.23-.18.52-.32.85-.42s.69-.15,1.08-.15.76.05,1.1.15c.33.1.62.24.86.42s.43.4.56.65c.13.25.2.52.2.83s-.07.57-.2.82c-.13.25-.32.47-.56.65-.24.18-.53.32-.86.42-.33.1-.7.15-1.1.15s-.75-.05-1.08-.15c-.33-.1-.61-.24-.85-.42-.24-.18-.42-.4-.55-.65-.13-.25-.2-.53-.2-.83s.07-.58.2-.83ZM4.18,157.08c.1.16.23.29.41.41.17.11.38.2.63.27.24.07.51.1.81.1s.57-.03.82-.09c.25-.06.46-.15.64-.27.18-.12.32-.25.42-.41.1-.16.15-.33.15-.52s-.05-.37-.15-.53c-.1-.16-.24-.3-.42-.41-.18-.11-.39-.2-.64-.27-.25-.06-.52-.09-.82-.09s-.56.03-.81.09c-.24.06-.46.15-.63.26-.17.11-.31.25-.41.41-.1.16-.15.34-.15.53s.05.37.15.52Z"/><path d="M5.04,150.9h.67c-.24-.11-.42-.26-.54-.45-.12-.18-.18-.4-.18-.63,0-.26.07-.48.2-.67s.33-.32.59-.41c-.26-.11-.45-.27-.59-.46s-.2-.43-.2-.7c0-.38.12-.67.37-.88.25-.21.61-.31,1.07-.31h2.25v.7h-2.16c-.29,0-.52.07-.69.2-.17.13-.25.31-.25.54,0,.12.02.22.07.32.05.1.11.18.2.26.09.07.19.13.32.16.12.04.26.06.4.06h2.11v.7h-2.16c-.14,0-.27.02-.39.06-.12.04-.22.09-.3.15s-.14.14-.19.23c-.04.09-.07.2-.07.31s.02.22.07.32c.05.1.12.18.21.25.09.07.2.12.32.17.12.04.26.06.41.06h2.09v.7h-3.64v-.68Z"/><path d="M5.04,144.72h.67c-.24-.11-.42-.26-.54-.45-.12-.18-.18-.4-.18-.63,0-.26.07-.48.2-.67s.33-.32.59-.41c-.26-.11-.45-.27-.59-.46s-.2-.43-.2-.7c0-.38.12-.67.37-.88.25-.21.61-.31,1.07-.31h2.25v.7h-2.16c-.29,0-.52.07-.69.2-.17.13-.25.31-.25.54,0,.12.02.22.07.32.05.1.11.18.2.26.09.07.19.13.32.16.12.04.26.06.4.06h2.11v.7h-2.16c-.14,0-.27.02-.39.06-.12.04-.22.09-.3.15s-.14.14-.19.23c-.04.09-.07.2-.07.31s.02.22.07.32c.05.1.12.18.21.25.09.07.2.12.32.17.12.04.26.06.41.06h2.09v.7h-3.64v-.68Z"/></g><line y2="133.72" x2="227.77" y1="133.72" x1="25.49" class="cls-2"/><rect height="1.95" width=".3" y="132.75" x="25.34" class="cls-4"/><rect height="1.95" width=".3" y="132.75" x="227.62" class="cls-4"/><line y2="153.4" x2="13.44" y1="148.05" x1="13.44" class="cls-2"/><rect height=".3" width="1.95" y="147.9" x="12.47" class="cls-4"/><rect height=".3" width="1.95" y="153.25" x="12.47" class="cls-4"/><line y2="280.78" x2="15.73" y1="196.52" x1="15.73" class="cls-2"/><rect height=".3" width="1.95" y="196.36" x="14.75" class="cls-4"/><rect height=".3" width="1.95" y="280.63" x="14.75" class="cls-4"/><rect height="5.66" width="198.02" y="147.9" x="27.62" class="cls-3"/><rect height="84.85" width="5.66" y="196.07" x="270.44" class="cls-3"/><path d="M184.56,196.07H35.56c-3.13,0-5.66,2.53-5.66,5.66v73.54c0,3.12,2.53,5.66,5.66,5.66h149c1.5,0,2.94-.6,4-1.66l38.37-38.37c1.32-1.32,1.32-3.47,0-4.8l-38.37-38.37c-1.06-1.06-2.5-1.66-4-1.66" class="cls-3"/><path d="M182.84,199.72H36.5c-1.56,0-2.83,1.27-2.83,2.83v71.91c0,1.56,1.27,2.83,2.83,2.83h146.35c1.37,0,2.69-.54,3.66-1.51l35.08-35.08c1.21-1.21,1.21-3.17,0-4.39l-35.08-35.07c-.97-.97-2.28-1.52-3.66-1.52M182.84,202.55c.62,0,1.21.24,1.66.69l25.5,33.2c.94,1.22.94,2.92,0,4.14l-25.5,33.2c-.44.44-1.03.69-1.66.69H36.97c-.31,0-.57-.25-.57-.57v-70.77c0-.31.25-.57.57-.57h145.87Z" class="cls-3"/><path d="M129.15,235.31c1.56,0,3.03.4,4.31,1.1l-5.17,7.33c-.22.32-.25.73-.07,1.08.18.35.54.56.93.56h8.97c-.52,4.49-4.34,7.99-8.97,7.99-4.98,0-9.03-4.05-9.03-9.03s4.05-9.03,9.03-9.03M139.18,231.91l3.4,11.4h-2.37c-.28-2.95-1.71-5.57-3.85-7.4l2.82-4ZM157.18,229.37l-12.71,12.98-3.52-11.83,16.23-1.15ZM138.12,243.3h-6.96l4-5.69c1.61,1.44,2.69,3.44,2.95,5.69M163.49,235.31c4.98,0,9.03,4.05,9.03,9.03s-4.05,9.03-9.03,9.03-9.03-4.05-9.03-9.03c0-3.57,2.09-6.67,5.11-8.13l2.9,8.47c.15.44.55.71.99.71.11,0,.23-.02.34-.06.55-.19.84-.78.65-1.33l-2.91-8.47c.63-.14,1.29-.22,1.96-.22M129.15,255.46c5.78,0,10.54-4.43,11.07-10.07h3.78s.09,0,.13,0h.04s.08-.02.12-.03h.01s0,0,0,0c.02,0,.04,0,.05-.02.01,0,.03-.01.05-.02,0,0,.02,0,.03,0,.09-.04.17-.09.24-.15h0s.05-.05.07-.07l13.23-13.52.92,2.68c-3.83,1.76-6.51,5.63-6.51,10.11,0,6.13,4.99,11.12,11.12,11.12s11.12-4.99,11.12-11.12-4.99-11.12-11.12-11.12c-.91,0-1.79.11-2.64.32l-1.41-4.12c0-.05-.02-.11-.04-.16l-.45-1.33c-.02-.06-.05-.11-.07-.16l-1.9-5.53c-.15-.42-.54-.7-.99-.7h-3.2c-.58,0-1.04.46-1.04,1.04s.47,1.04,1.04,1.04h2.45l1.27,3.71-16.17,1.15-.89-2.99h1.68c.57,0,1.04-.46,1.04-1.04s-.47-1.04-1.04-1.04h-6.15c-.58,0-1.04.46-1.04,1.04s.46,1.04,1.04,1.04h2.3l1.15,3.87-3.76,5.34c-1.63-.93-3.51-1.47-5.52-1.47-6.13,0-11.12,4.98-11.12,11.12s4.98,11.12,11.12,11.12" class="cls-4"/><path d="M98.27,266.54h-50.95c-1.56,0-2.83-1.27-2.83-2.83v-50.87c0-1.56,1.27-2.83,2.83-2.83h50.95c1.56,0,2.83,1.27,2.83,2.83v50.87c0,1.56-1.27,2.83-2.83,2.83" class="cls-3"/><path d="M85.04,260.44c.21-.03.4-.05.57-.08.15-.04.21-.16.21-.31,0-.14-.08-.24-.2-.28-.18-.06-.38-.12-.58-.01v.68ZM84.17,262.3v-3.22h.7c.32,0,.64,0,.96,0,.43.01.71.21.83.6.12.38-.02.73-.38.98-.03.02-.06.05-.08.06.06.1.13.17.16.26.16.43.32.87.48,1.33h-.9c-.11-.32-.21-.63-.33-.94-.08-.24-.25-.35-.55-.29-.03.4,0,.8-.02,1.22h-.88Z" class="cls-4"/><path d="M50.23,259.92s-.05,0-.07,0c-.11.35-.22.71-.34,1.07h.72c-.11-.37-.21-.72-.31-1.07M50.97,262.3c-.07-.21-.15-.42-.22-.63h-1.12c-.06.14-.13.3-.17.46-.04.16-.14.2-.3.2-.21,0-.41,0-.66,0,.4-1.1.78-2.16,1.17-3.23h1.07c.39,1.05.78,2.11,1.19,3.2h-.96Z" class="cls-4"/><path d="M93.6,232.46h.63v1.3h.62v-1.22h.7v1.22h.68v-1.29c.29-.1.35-.1.69-.03v2.16c-.28.07-2.29.09-3.3.04-.06-.26-.08-1.61-.02-2.17" class="cls-4"/><path d="M96.91,222.43c.01.08.03.14.03.2v.83c-1.12.35-2.22.69-3.35,1.04v-.91c.78-.2,1.56-.41,2.35-.62-.76-.32-1.56-.47-2.35-.71v-.87c1.12.35,2.22.7,3.32,1.04" class="cls-4"/><path d="M73.26,261.55c.02.23.04.45.07.69-.76.23-1.48.25-2.15-.22-.41-.29-.59-.73-.6-1.21-.02-.96.43-1.64,1.47-1.78.43-.06.86,0,1.27.17-.02.23-.04.46-.06.69-.23-.06-.44-.12-.65-.17-.43-.1-.87.18-1.01.49-.27.58-.04,1.27.51,1.44.27.09.56.06.84,0,.1-.03.21-.06.33-.09" class="cls-4"/><path d="M94.42,230.37v-.82c.08-.01.16-.03.23-.03.67,0,1.35,0,2.02,0,.26,0,.27,0,.27.27,0,.16,0,.31,0,.48-.12.01-.21.03-.32.04.03.04.05.06.07.08.29.27.33.62.26.98-.06.32-.38.59-.75.6-.59.02-1.17,0-1.78,0v-.79c.12,0,.25,0,.38-.01.37-.02.74-.02,1.1-.06.2-.02.33-.14.33-.29,0-.17-.08-.32-.24-.38-.12-.05-.26-.08-.39-.09-.38,0-.76,0-1.18,0" class="cls-4"/><path d="M91.61,262.31c-.01-.09-.03-.18-.04-.28-.05.04-.09.07-.12.09-.26.25-.58.33-.92.24-.41-.11-.63-.31-.68-.89-.04-.51,0-1.02,0-1.56h.85c0,.35,0,.7,0,1.05,0,.12,0,.25.03.37.03.17.14.29.31.32.13.03.35-.11.4-.26.05-.14.07-.29.08-.43,0-.34,0-.68,0-1.05h.83v2.39h-.73Z" class="cls-4"/><path d="M95.58,226.48c.16-.02.26-.01.35-.04.25-.06.37-.21.39-.43.01-.25-.09-.41-.35-.48-.24-.07-.49-.07-.72.05-.16.08-.27.21-.27.41,0,.18.09.31.24.38.13.07.27.09.36.12M96.97,225.98c.02.9-.63,1.37-1.32,1.35-.72-.02-1.3-.44-1.31-1.34,0-.88.55-1.35,1.32-1.36.72-.01,1.34.49,1.31,1.36" class="cls-4"/><path d="M95.61,216.52c.15-.02.25-.02.35-.05.25-.07.36-.21.37-.44,0-.24-.09-.38-.34-.46-.25-.08-.51-.07-.75.05-.33.17-.34.59-.03.77.13.08.3.1.4.13M96.97,216.02c.02.9-.63,1.36-1.32,1.35-.72-.02-1.3-.44-1.31-1.34,0-.88.55-1.35,1.32-1.36.72-.02,1.34.49,1.31,1.36" class="cls-4"/><path d="M75.27,261.11c-.04-.14-.06-.29-.12-.42-.14-.29-.58-.32-.77-.06-.17.22-.19.66-.03.9.2.31.64.3.81-.03.06-.12.07-.26.11-.39M74.74,259.83c.64,0,1.13.3,1.3.82.26.8-.13,1.64-1.14,1.73-.19.02-.39-.01-.58-.06-.52-.12-.83-.45-.92-.98-.09-.51.05-.95.47-1.27.25-.2.55-.27.86-.26" class="cls-4"/><path d="M58.72,262.31h-.84v-2.39c.21-.04.43-.01.65-.02.16,0,.1.14.17.23.25-.19.52-.33.86-.3.46.04.79.34.8.8.02.55,0,1.1,0,1.68-.26.06-.51,0-.81.03,0-.35,0-.68,0-1,0-.17-.04-.34-.06-.51-.02-.14-.1-.23-.23-.25-.15-.04-.29,0-.39.14-.1.15-.14.31-.14.49v1.11" class="cls-4"/><path d="M88.78,261.14c-.03-.12-.04-.23-.07-.33-.07-.22-.21-.33-.42-.34-.26,0-.37.07-.47.32-.1.24-.07.48.03.71.08.18.23.27.44.26.2,0,.32-.11.4-.27.05-.11.07-.23.09-.34M88.25,262.39c-.71,0-1.19-.36-1.34-1.01-.15-.67.25-1.43,1.09-1.53.21-.03.45,0,.65.04.75.17,1,.74.97,1.32-.05.69-.54,1.14-1.23,1.19-.05,0-.1,0-.15,0" class="cls-4"/><path d="M56.79,261.24c-.2,0-.33,0-.46,0-.08,0-.18.03-.24.08-.07.06-.12.16-.13.24,0,.1.08.16.19.2.17.06.36,0,.48-.17.06-.09.09-.19.17-.36M56.77,260.78c-.08-.12-.12-.23-.19-.26-.14-.06-.3-.09-.46-.1-.11,0-.22.03-.33.06-.1.03-.2.07-.33.13v-.6c.42-.21.86-.25,1.31-.14.44.11.69.3.74.88.04.51,0,1.03,0,1.57-.21,0-.42,0-.62,0-.15,0-.11-.13-.18-.21-.1.07-.19.14-.3.19-.52.27-1.16-.03-1.26-.58-.05-.27.07-.64.36-.78.19-.09.38-.17.6-.16.2,0,.39,0,.64,0" class="cls-4"/><path d="M77.79,261.23c-.2.02-.37.02-.53.06-.18.04-.25.17-.22.32.03.13.19.21.35.19.22-.04.34-.19.4-.57M78.62,262.31h-.73c-.02-.08-.03-.16-.05-.24-.02,0-.04,0-.05.02-.29.37-.81.37-1.17.18-.5-.28-.53-1.02-.03-1.3.18-.1.39-.14.59-.17.19-.03.39,0,.58,0,.05-.14-.03-.21-.1-.26-.16-.11-.34-.14-.53-.09-.19.05-.38.1-.58.16v-.58c.43-.18.87-.24,1.32-.12.48.13.71.43.72.93,0,.32,0,.64,0,.96,0,.17.02.34.03.55" class="cls-4"/><path d="M95.4,219.82c-.36.08-.52.23-.48.46.02.09.07.19.14.25.09.09.2.13.34.08v-.79ZM95.94,219.09v1.52c.33-.09.48-.34.43-.69-.02-.11-.04-.22-.07-.32-.03-.09-.07-.18-.11-.28h.6c.39.67.22,1.6-.37,1.97-.6.38-1.43.23-1.79-.21-.31-.38-.37-.83-.2-1.28.16-.46.57-.62,1-.7.15-.03.31,0,.51,0" class="cls-4"/><path d="M95.28,260.86h.62c.07,0,.14,0,.21,0-.06-.35-.12-.44-.36-.45-.25-.02-.33.06-.47.46M96.88,261.36h-1.53c.07.3.12.35.36.39.26.05.53,0,.94-.13,0,.05.02.1.02.14,0,.15,0,.29,0,.46-.49.2-.98.24-1.47.06-.48-.19-.74-.56-.74-1.08,0-.18,0-.37.05-.54.17-.63.75-.89,1.39-.82.53.05.92.48.98,1.07.01.13,0,.27,0,.46" class="cls-4"/><path d="M78.86,262.24c.02-.21.03-.4.05-.6.36.07.72.26,1.08.03-.05-.21-.2-.24-.34-.29-.14-.05-.28-.08-.42-.14-.46-.2-.54-.79-.15-1.16.17-.15.38-.22.6-.25.33-.03.58,0,.95.14v.6c-.19-.05-.35-.09-.51-.13-.18-.05-.34,0-.52.12.07.06.11.13.18.16.17.07.35.09.53.16.36.14.51.34.5.72,0,.27-.12.58-.53.72-.4.13-1.03.12-1.42-.07" class="cls-4"/><path d="M60.97,260.5c-.15,0-.28-.02-.43-.03v-.56c.14-.02.29-.03.44-.05v-.52c.27-.09.53-.18.82-.27.07.27,0,.52.05.8.15,0,.31.02.48.03.07.17.02.35.04.57-.18,0-.34.02-.54.03,0,.32,0,.62,0,.92,0,.29.06.33.35.34.06,0,.12,0,.2,0,.01.18.02.34.04.53-.38.15-.74.14-1.1-.03-.28-.13-.32-.39-.34-.65-.02-.23,0-.47,0-.7v-.42" class="cls-4"/><path d="M92.94,260.51c-.16-.01-.29-.03-.44-.04v-.56c.15,0,.29-.02.47-.03,0-.18.01-.35.02-.55.26-.08.51-.16.78-.25v.79c.2,0,.37.02.56.03v.56c-.18,0-.35.02-.55.03,0,.3,0,.6,0,.88,0,.33.07.38.39.38h.17v.54c-.33.14-.68.12-1.03-.02-.18-.07-.29-.23-.33-.42-.03-.19-.05-.39-.05-.58,0-.26,0-.51,0-.78" class="cls-4"/><path d="M82.16,259.9h.54v.55c-.16.1-.35,0-.56.07,0,.3-.01.62,0,.93.02.25.09.31.35.32.06,0,.12,0,.2,0v.55c-.28.09-.57.1-.86.02-.36-.1-.51-.3-.52-.67,0-.38,0-.76,0-1.17-.16-.02-.31-.03-.47-.05v-.55c.14,0,.29-.02.46-.04,0-.17.02-.35.03-.54.25-.08.49-.16.76-.25.08.25,0,.51.06.81" class="cls-4"/><path d="M53.7,261.76v.56c-.28.11-.57.1-.86.03-.36-.09-.51-.28-.53-.66,0-.33,0-.66,0-1v-.19c-.17,0-.31-.02-.47-.03v-.56c.16,0,.3-.02.47-.03v-.53c.27-.09.52-.17.81-.27v.81h.56v.58c-.17,0-.34.02-.53.03-.05.32-.06.65,0,.98.04.29.08.29.33.3.06,0,.12,0,.22,0" class="cls-4"/><path d="M65.8,260.6c-.37-.14-.7-.22-.97.11-.16.2-.17.53-.02.73.27.38.63.34,1,.19.03.03.04.04.04.05.1.66.08.65-.56.7-.47.04-.9-.09-1.2-.5-.6-.81-.11-1.94.89-2.05.26-.03.51-.02.76.07.09.04.14.08.12.2-.03.16-.04.32-.06.5" class="cls-4"/><rect height=".84" width="3.66" y="217.77" x="93.29" class="cls-4"/><rect height="3.51" width=".77" y="258.81" x="54.04" class="cls-4"/><path d="M62.69,259.9h.79c.07.26.08,1.73.03,2.41-.12,0-.25,0-.38,0-.13,0-.27,0-.4,0-.07-.28-.09-1.69-.03-2.42" class="cls-4"/><path d="M62.67,259.5v-.6c.27-.05.53-.02.81-.02.08.2.03.4.04.62-.3.03-.58.05-.85,0" class="cls-4"/><path d="M73.21,243.56h-4.19v-12.39c-1,.77-1.95,1.51-2.92,2.25-.62-1.03-1.24-2.04-1.86-3.07.09-.07.17-.15.25-.21,1.61-1.14,3.23-2.28,4.84-3.42.11-.08.22-.14.37-.14,1.13,0,2.26,0,3.4,0,.03,0,.07.02.11.03v16.94Z" class="cls-4"/><path d="M61.91,221.42c-.58-.41-1.12-.78-1.66-1.15-.54.37-1.08.75-1.67,1.16.2-.67.39-1.29.58-1.95-.52-.4-1.04-.8-1.62-1.25.72-.02,1.37-.03,2.04-.05.22-.63.44-1.26.67-1.92.23.66.45,1.28.68,1.93h2.04c-.12.11-.17.16-.23.21-.4.31-.8.61-1.2.91-.15.11-.19.23-.13.41.16.5.31,1.01.46,1.51.01.05.02.09.04.18" class="cls-4"/><path d="M85.66,225.76c.16.64.4,1.24.55,1.93-.49-.34-.93-.64-1.36-.94-.03-.02-.06-.05-.09-.07-.13-.11-.25-.11-.39,0-.33.25-.68.48-1.02.72-.12.08-.24.17-.43.29.15-.69.38-1.29.55-1.93-.52-.4-1.03-.79-1.6-1.22.16-.02.27-.03.37-.03.47,0,.93,0,1.4-.02.25,0,.25,0,.33-.25.19-.53.37-1.06.58-1.66.27.64.44,1.26.69,1.89.64.03,1.3,0,2.02.06-.58.44-1.09.83-1.61,1.23" class="cls-4"/><path d="M54.97,243.78c.2.64.38,1.25.58,1.91-.22-.1-.38-.24-.55-.35-.18-.13-.36-.25-.55-.38s-.36-.25-.57-.39c-.53.37-1.07.73-1.65,1.14.15-.69.4-1.29.55-1.94-.52-.4-1.03-.79-1.59-1.22.61-.02,1.16-.04,1.71-.06.35,0,.31.02.43-.32.17-.46.32-.93.48-1.39.02-.05.05-.08.09-.17.23.65.44,1.25.65,1.86.66.02,1.3.05,2.02.07-.57.43-1.08.82-1.6,1.23" class="cls-4"/><path d="M70.86,219.08c-.52-.36-1.05-.73-1.58-1.1-.54.37-1.07.74-1.67,1.16.21-.7.39-1.31.58-1.95-.51-.39-1.02-.78-1.59-1.22.7-.08,1.34-.03,2.01-.07.21-.6.43-1.22.68-1.91.24.69.45,1.29.68,1.94h1.94s.01.05.02.07c-.51.39-1.02.78-1.56,1.19.19.62.37,1.24.55,1.85-.02.01-.04.03-.06.04" class="cls-4"/><path d="M71.99,251.18c-.19.15-.38.3-.58.45-.26.2-.53.4-.79.6-.2.15-.2.16-.13.4.16.54.33,1.07.51,1.69-.61-.39-1.13-.79-1.67-1.14-.54.37-1.07.74-1.67,1.15.1-.33.17-.59.24-.84.08-.28.17-.57.26-.84.07-.19.04-.31-.14-.44-.41-.29-.8-.6-1.2-.91-.06-.04-.12-.08-.19-.12.02-.02.03-.04.04-.07h1.96c.22-.64.44-1.26.68-1.94.23.67.45,1.28.68,1.93h1.95s.02.05.02.07" class="cls-4"/><path d="M79.65,251.84c-.48-.32-.95-.64-1.46-.99-.54.37-1.08.74-1.67,1.15.2-.68.39-1.29.58-1.94-.51-.39-1.02-.78-1.6-1.22.72-.03,1.37-.05,2.02-.07.22-.62.43-1.22.66-1.87.05.12.09.2.12.28.16.44.31.88.47,1.32.1.29.1.29.42.29.49.01.98.02,1.47.04.06,0,.12,0,.22.02-.55.42-1.06.81-1.58,1.21.16.57.31,1.12.47,1.67,0,.08-.03.13-.11.12" class="cls-4"/><path d="M54.49,224.92h1.99c-.26.3-.55.46-.79.65-.26.2-.52.4-.79.61.19.63.37,1.24.58,1.93-.6-.37-1.1-.76-1.67-1.13-.53.36-1.07.73-1.67,1.14.09-.3.16-.53.22-.76.1-.33.19-.66.3-.98.05-.14.02-.23-.1-.32-.37-.28-.74-.56-1.11-.85-.1-.08-.2-.17-.37-.3h2.05c.22-.64.45-1.27.68-1.94.23.67.45,1.28.68,1.94" class="cls-4"/><path d="M50.62,234.95c-.51-.39-1.03-.79-1.61-1.23.72-.02,1.36-.04,2.02-.06.22-.62.44-1.23.67-1.88.05.11.09.19.12.28.16.46.33.92.48,1.39.05.15.12.21.29.21.45,0,.91.03,1.36.04.13,0,.26,0,.47,0-.35.27-.64.49-.93.72-.17.14-.34.28-.53.4-.14.09-.16.2-.11.34.16.5.31,1.01.47,1.51.01.04.02.09.04.2-.57-.4-1.1-.76-1.65-1.14-.54.37-1.08.74-1.67,1.15.21-.69.39-1.3.58-1.94" class="cls-4"/><path d="M88.56,236.67c-.59-.41-1.11-.77-1.66-1.15-.54.37-1.07.74-1.67,1.15.2-.69.39-1.3.58-1.94-.52-.4-1.04-.8-1.61-1.23.71-.02,1.37-.03,2.03-.05.22-.64.44-1.25.67-1.92.23.66.44,1.26.66,1.88.65.12,1.31.03,2.01.08-.09.08-.15.14-.22.2-.39.3-.78.6-1.18.89-.15.1-.17.21-.12.37.16.5.31,1,.47,1.51.01.04.02.09.05.21" class="cls-4"/><path d="M86.34,245.61c-.59-.41-1.12-.77-1.67-1.15-.53.37-1.07.73-1.64,1.13.02-.11.03-.19.05-.26.13-.46.27-.91.41-1.37.08-.29.09-.29-.16-.48-.38-.29-.76-.58-1.14-.87-.06-.04-.11-.09-.21-.18.5,0,.95-.02,1.4-.02.62,0,.62,0,.82-.59.15-.43.3-.85.47-1.36.15.42.28.76.4,1.11.06.16.11.33.17.49.12.34.12.34.5.35.45,0,.91,0,1.36.01h.3c-.57.44-1.09.83-1.63,1.24.19.62.37,1.25.58,1.95" class="cls-4"/><path d="M60.32,250.88c-.55.38-1.08.74-1.65,1.14.03-.12.04-.2.06-.27.13-.46.27-.92.4-1.38.08-.29.08-.29-.16-.47-.37-.29-.74-.57-1.12-.85-.07-.05-.13-.11-.24-.21h2.01c.22-.65.45-1.27.69-1.95.23.68.45,1.3.68,1.94h1.92c-.2.3-.47.47-.73.66-.25.2-.5.39-.78.6.19.62.37,1.25.58,1.95-.59-.41-1.13-.78-1.67-1.15" class="cls-4"/><path d="M77.87,220.25c-.55.38-1.07.74-1.65,1.14.05-.2.08-.35.13-.5.12-.4.24-.8.36-1.19.07-.24.07-.25-.12-.4-.36-.28-.73-.55-1.09-.82-.09-.07-.18-.15-.33-.28h2.02c.22-.64.45-1.27.69-1.94.24.68.46,1.3.68,1.94h2.01c-.3.28-.57.46-.82.65-.25.2-.51.39-.78.6.19.62.37,1.25.58,1.95-.59-.41-1.12-.77-1.67-1.15" class="cls-4"/><path d="M79.65,251.84c.09,0,.12-.03.11-.12.03.07.05.14.1.29-.11-.09-.17-.13-.22-.17" class="cls-4"/><rect height=".62" width="2.26" y="260.73" x="67.03" class="cls-4"/><path d="M94.46,228.31h.08c.06,0,.1-.02.12-.04.03,0,.04-.04.04-.08,0,0,0-.02,0-.02,0-.02,0-.02,0-.04,0,0-.02-.02-.03-.02,0-.02-.02-.04-.03-.04l-.09-.12s-.05-.08-.07-.12c0-.06-.03-.1-.03-.16,0-.06-.02-.1-.02-.16,0-.04,0-.08,0-.1s0-.06.02-.1h.6s-.02.06-.03.12c0,.04,0,.08,0,.14,0,.1.02.19.05.29.03.08.07.16.13.21s.13.1.21.12c.09.04.19.06.29.06h1.2v.64h-2.43v-.6Z" class="cls-4"/><g id="MTEXT-4"><path d="M375.42,10.5v5.29h-.72v-4.54l-1.3.64v-.73l1.36-.67h.67Z"/><path d="M379.37,10.5v.65h-1.92l-.25,1.54c.1-.09.22-.16.36-.21.14-.05.29-.07.46-.07.25,0,.47.04.68.13.21.08.38.2.53.35.15.15.27.33.35.54.08.21.12.44.12.69s-.04.48-.13.7c-.09.21-.21.4-.36.55-.16.15-.34.27-.56.36-.21.08-.45.13-.71.13-.2,0-.39-.03-.58-.08s-.35-.13-.5-.23c-.15-.1-.28-.22-.39-.36-.11-.14-.19-.3-.24-.48l.63-.31c.07.24.19.43.39.56.19.14.42.21.67.21.15,0,.29-.03.41-.08.13-.05.23-.12.33-.21.09-.09.16-.2.21-.33.05-.13.08-.27.08-.43s-.03-.3-.08-.44c-.05-.13-.13-.25-.22-.34s-.21-.17-.34-.22c-.13-.05-.28-.08-.44-.08-.18,0-.35.04-.49.1-.14.07-.26.17-.36.31l-.62-.15.47-2.79h2.52Z"/><path d="M383.11,10.64c.25.13.47.32.65.55.18.23.32.52.42.85.1.33.15.69.15,1.08s-.05.76-.15,1.1-.24.62-.42.86c-.18.24-.4.43-.65.56-.25.13-.52.2-.83.2s-.57-.07-.82-.2-.47-.32-.65-.56c-.18-.24-.32-.53-.42-.86-.1-.33-.15-.7-.15-1.1s.05-.75.15-1.08c.1-.33.24-.61.42-.85.18-.24.4-.42.65-.55.25-.13.53-.2.83-.2s.58.07.83.2ZM381.76,11.28c-.16.1-.29.23-.41.41-.11.18-.2.38-.27.63-.07.24-.1.51-.1.81s.03.57.09.82c.06.25.15.46.27.64.12.18.25.32.41.42.16.1.33.15.52.15s.37-.05.53-.15c.16-.1.3-.24.41-.42.11-.18.2-.39.27-.64.06-.25.09-.52.09-.82s-.03-.56-.09-.81c-.06-.25-.15-.46-.26-.63-.11-.17-.25-.31-.41-.41-.16-.1-.34-.15-.53-.15s-.37.05-.52.15Z"/><path d="M387.94,12.15v.67c.11-.24.26-.42.45-.54.18-.12.4-.18.63-.18.26,0,.48.07.67.2.19.14.32.33.41.59.11-.26.27-.45.46-.59.2-.14.43-.2.7-.2.38,0,.67.12.88.37.21.25.31.61.31,1.07v2.25h-.7v-2.16c0-.29-.07-.52-.2-.69-.13-.17-.31-.25-.54-.25-.12,0-.22.02-.32.07-.1.05-.18.11-.26.2-.07.09-.13.19-.16.32-.04.12-.06.26-.06.4v2.11h-.7v-2.16c0-.14-.02-.27-.06-.38-.04-.12-.09-.22-.15-.3-.06-.08-.14-.14-.23-.19-.09-.04-.2-.07-.31-.07s-.22.02-.32.07c-.1.05-.18.12-.25.21-.07.09-.12.2-.17.32-.04.12-.06.26-.06.41v2.09h-.7v-3.64h.68Z"/><path d="M394.12,12.15v.67c.11-.24.26-.42.45-.54.18-.12.4-.18.63-.18.26,0,.48.07.67.2.19.14.32.33.41.59.11-.26.27-.45.46-.59.2-.14.43-.2.7-.2.38,0,.67.12.88.37.21.25.31.61.31,1.07v2.25h-.7v-2.16c0-.29-.07-.52-.2-.69-.13-.17-.31-.25-.54-.25-.12,0-.22.02-.32.07-.1.05-.18.11-.26.2-.07.09-.13.19-.16.32-.04.12-.06.26-.06.4v2.11h-.7v-2.16c0-.14-.02-.27-.06-.38-.04-.12-.09-.22-.15-.3-.06-.08-.14-.14-.23-.19-.09-.04-.2-.07-.31-.07s-.22.02-.32.07c-.1.05-.18.12-.25.21-.07.09-.12.2-.17.32-.04.12-.06.26-.06.41v2.09h-.7v-3.64h.68Z"/></g><g id="MTEXT-5"><path d="M319.48,192.03h.55l.98.65c.06.04.11.07.15.1.04.03.08.06.13.09.04.03.09.06.13.09s.09.06.15.09c.02-.19.08-.37.18-.52.09-.16.21-.29.35-.41.14-.12.3-.21.48-.27s.38-.09.59-.09c.24,0,.47.04.67.13.2.08.38.2.52.36.14.15.26.34.34.54.08.21.12.44.12.69,0,.21-.03.4-.08.58-.05.18-.13.35-.23.49-.1.15-.22.28-.37.39-.14.11-.31.2-.49.26l-.31-.63c.24-.08.44-.22.58-.41.14-.19.21-.42.21-.67,0-.15-.02-.28-.07-.4-.05-.12-.11-.23-.2-.31-.09-.09-.19-.15-.32-.2-.12-.05-.26-.07-.41-.07s-.29.03-.42.08c-.13.06-.23.13-.32.22-.09.09-.16.21-.21.34-.05.13-.08.28-.08.44v.35l-.44.08-1.07-.72s-.09-.06-.12-.09c-.03-.03-.07-.05-.12-.08-.04-.03-.08-.06-.12-.08-.03-.03-.07-.06-.12-.09v2.18h-.65v-3.09Z"/><path d="M319.48,188.09h.65v1.92l1.54.25c-.09-.1-.16-.22-.21-.36-.05-.14-.07-.29-.07-.46,0-.25.04-.47.13-.68.08-.21.2-.38.35-.53.15-.15.33-.27.54-.35.21-.08.44-.12.69-.12s.48.04.7.13c.21.09.4.21.55.36s.27.34.36.56c.08.21.13.45.13.71,0,.2-.03.39-.08.58-.05.18-.13.35-.23.5-.1.15-.22.28-.36.39-.14.11-.3.19-.48.24l-.31-.63c.24-.07.43-.19.56-.39.14-.19.21-.42.21-.67,0-.15-.03-.29-.08-.41-.05-.13-.12-.23-.21-.33-.09-.09-.2-.16-.33-.21-.13-.05-.27-.08-.43-.08s-.3.03-.44.08-.25.13-.34.22-.17.21-.22.34c-.05.13-.08.28-.08.44,0,.18.04.35.1.49.07.14.17.26.31.36l-.15.62-2.79-.47v-2.52Z"/><path d="M319.62,184.35c.13-.25.32-.47.55-.65.23-.18.52-.32.85-.42.33-.1.69-.15,1.08-.15s.76.05,1.1.15c.33.1.62.24.86.42s.43.4.56.65c.13.25.2.52.2.83s-.07.57-.2.82-.32.47-.56.65c-.24.18-.53.32-.86.42-.33.1-.7.15-1.1.15s-.75-.05-1.08-.15c-.33-.1-.61-.24-.85-.42-.24-.18-.42-.4-.55-.65-.13-.25-.2-.53-.2-.83s.07-.58.2-.83ZM320.25,185.7c.1.16.23.29.41.41.18.11.38.2.63.27.24.07.51.1.8.1s.57-.03.82-.09c.25-.06.46-.15.64-.27.18-.12.32-.25.42-.41.1-.16.15-.33.15-.52s-.05-.37-.15-.53c-.1-.16-.24-.3-.42-.41-.18-.11-.39-.2-.64-.27-.25-.06-.52-.09-.82-.09s-.56.03-.81.09c-.25.06-.46.15-.63.26-.17.11-.31.25-.41.41-.1.16-.15.34-.15.53s.05.37.15.52Z"/><path d="M321.12,179.52h.67c-.24-.11-.42-.26-.54-.45s-.18-.4-.18-.63c0-.26.07-.48.2-.67.14-.19.33-.32.59-.41-.26-.11-.45-.27-.59-.46-.13-.2-.2-.43-.2-.7,0-.38.12-.67.37-.88s.61-.31,1.07-.31h2.25v.7h-2.16c-.29,0-.52.07-.69.2-.17.13-.25.31-.25.54,0,.12.02.22.07.32.05.1.11.18.2.26.09.07.2.13.32.16.12.04.26.06.4.06h2.11v.7h-2.16c-.14,0-.27.02-.38.06-.12.04-.22.09-.3.15-.08.06-.14.14-.19.23-.04.09-.07.2-.07.31s.02.22.07.32c.05.1.12.18.21.25s.2.12.32.17c.12.04.26.06.41.06h2.09v.7h-3.64v-.68Z"/><path d="M321.12,173.34h.67c-.24-.11-.42-.26-.54-.45s-.18-.4-.18-.63c0-.26.07-.48.2-.67.14-.19.33-.32.59-.41-.26-.11-.45-.27-.59-.46-.13-.2-.2-.43-.2-.7,0-.38.12-.67.37-.88s.61-.31,1.07-.31h2.25v.7h-2.16c-.29,0-.52.07-.69.2-.17.13-.25.31-.25.54,0,.12.02.22.07.32.05.1.11.18.2.26.09.07.2.13.32.16.12.04.26.06.4.06h2.11v.7h-2.16c-.14,0-.27.02-.38.06-.12.04-.22.09-.3.15-.08.06-.14.14-.19.23-.04.09-.07.2-.07.31s.02.22.07.32c.05.1.12.18.21.25s.2.12.32.17c.12.04.26.06.41.06h2.09v.7h-3.64v-.68Z"/></g><g id="MTEXT-6"><path d="M319.48,46.26h5.29v.72h-4.54l.64,1.3h-.73l-.67-1.36v-.67Z"/><path d="M319.62,42.55c.13-.25.32-.47.55-.65.23-.18.52-.32.85-.42.33-.1.69-.15,1.08-.15s.76.05,1.1.15c.33.1.62.24.86.42s.43.4.56.65c.13.25.2.52.2.83s-.07.57-.2.82-.32.47-.56.65c-.24.18-.53.32-.86.42-.33.1-.7.15-1.1.15s-.75-.05-1.08-.15c-.33-.1-.61-.24-.85-.42-.24-.18-.42-.4-.55-.65-.13-.25-.2-.53-.2-.83s.07-.58.2-.83ZM320.25,43.91c.1.16.23.29.41.41.18.11.38.2.63.27.24.07.51.1.8.1s.57-.03.82-.09c.25-.06.46-.15.64-.27.18-.12.32-.25.42-.41.1-.16.15-.33.15-.52s-.05-.37-.15-.53c-.1-.16-.24-.3-.42-.41-.18-.11-.39-.2-.64-.27-.25-.06-.52-.09-.82-.09s-.56.03-.81.09c-.25.06-.46.15-.63.26-.17.11-.31.25-.41.41-.1.16-.15.34-.15.53s.05.37.15.52Z"/><path d="M321.12,37.73h.67c-.24-.11-.42-.26-.54-.45s-.18-.4-.18-.63c0-.26.07-.48.2-.67.14-.19.33-.32.59-.41-.26-.11-.45-.27-.59-.46-.13-.2-.2-.43-.2-.7,0-.38.12-.67.37-.88s.61-.31,1.07-.31h2.25v.7h-2.16c-.29,0-.52.07-.69.2-.17.13-.25.31-.25.54,0,.12.02.22.07.32.05.1.11.18.2.26.09.07.2.13.32.16.12.04.26.06.4.06h2.11v.7h-2.16c-.14,0-.27.02-.38.06-.12.04-.22.09-.3.15-.08.06-.14.14-.19.23-.04.09-.07.2-.07.31s.02.22.07.32c.05.1.12.18.21.25s.2.12.32.17c.12.04.26.06.41.06h2.09v.7h-3.64v-.68Z"/><path d="M321.12,31.54h.67c-.24-.11-.42-.26-.54-.45s-.18-.4-.18-.63c0-.26.07-.48.2-.67.14-.19.33-.32.59-.41-.26-.11-.45-.27-.59-.46-.13-.2-.2-.43-.2-.7,0-.38.12-.67.37-.88s.61-.31,1.07-.31h2.25v.7h-2.16c-.29,0-.52.07-.69.2-.17.13-.25.31-.25.54,0,.12.02.22.07.32.05.1.11.18.2.26.09.07.2.13.32.16.12.04.26.06.4.06h2.11v.7h-2.16c-.14,0-.27.02-.38.06-.12.04-.22.09-.3.15-.08.06-.14.14-.19.23-.04.09-.07.2-.07.31s.02.22.07.32c.05.1.12.18.21.25s.2.12.32.17c.12.04.26.06.41.06h2.09v.7h-3.64v-.68Z"/></g><line y2="20.55" x2="428.41" y1="20.55" x1="343.85" class="cls-2"/><rect height="1.95" width=".3" y="19.57" x="343.69" class="cls-4"/><rect height="1.95" width=".3" y="19.57" x="428.26" class="cls-4"/><line y2="40.23" x2="329.52" y1="34.87" x1="329.52" class="cls-2"/><rect height=".3" width="1.95" y="34.72" x="328.54" class="cls-4"/><rect height=".3" width="1.95" y="40.08" x="328.54" class="cls-4"/><line y2="280.78" x2="329.52" y1="83.05" x1="329.52" class="cls-2"/><rect height=".3" width="1.95" y="82.9" x="328.54" class="cls-4"/><rect height=".3" width="1.95" y="280.63" x="328.54" class="cls-4"/><rect height="5.66" width="84.87" y="34.72" x="343.69" class="cls-3"/><rect height="198.03" width="5.66" y="82.9" x="471.08" class="cls-3"/><path d="M422.9,280.93h-73.55c-3.13,0-5.66-2.53-5.66-5.66V88.56c0-3.13,2.53-5.66,5.66-5.66h73.55c3.12,0,5.66,2.53,5.66,5.66v186.71c0,3.13-2.53,5.66-5.66,5.66" class="cls-3"/><path d="M422.08,86.63h-71.9c-1.56,0-2.83,1.27-2.83,2.83v184.9c0,1.56,1.27,2.83,2.83,2.83h71.9c1.56,0,2.83-1.27,2.83-2.83V89.46c0-1.56-1.27-2.83-2.83-2.83M422.08,89.46h0v184.9h-71.9V89.46h71.9Z" class="cls-3"/><path d="M416.75,129.52l-28.76-28.76c-1.03-1.03-2.7-1.03-3.73,0l-28.76,28.76c-.62.62-.79,1.55-.42,2.35.56,1.22,2.1,1.6,3.17.78l26.12-18.07c1.03-.79,2.48-.79,3.51,0l26.12,18.07c1.06.81,2.61.43,3.17-.78.36-.79.2-1.73-.42-2.35" class="cls-3"/><path d="M368.95,161.55c1.56,0,3.03.4,4.31,1.1l-5.17,7.33c-.22.32-.25.74-.07,1.08.18.35.54.56.93.56h8.97c-.52,4.49-4.34,7.99-8.97,7.99-4.98,0-9.03-4.05-9.03-9.03s4.05-9.03,9.03-9.03M378.99,158.14l3.4,11.4h-2.37c-.28-2.95-1.71-5.57-3.84-7.4l2.82-4ZM396.99,155.61l-12.7,12.98-3.53-11.83,16.23-1.15ZM377.92,169.54h-6.96l4.01-5.69c1.61,1.43,2.69,3.43,2.95,5.69M403.3,161.55c4.98,0,9.03,4.05,9.03,9.03s-4.05,9.03-9.03,9.03-9.03-4.05-9.03-9.03c0-3.57,2.08-6.67,5.1-8.13l2.9,8.47c.15.44.55.71.99.71.11,0,.23-.02.34-.06.55-.19.84-.78.65-1.33l-2.91-8.48c.63-.14,1.29-.22,1.96-.22M368.95,181.7c5.78,0,10.54-4.43,11.07-10.07h3.78s.08,0,.12,0c0,0,.03,0,.04,0,.04,0,.08-.02.12-.03h.01s0,0,0,0c.02,0,.04-.01.05-.02s.03,0,.05-.02c0,0,.02,0,.03-.01.09-.04.17-.09.24-.15h0s.05-.05.07-.07h0s13.24-13.52,13.24-13.52l.92,2.68c-3.83,1.76-6.51,5.63-6.51,10.11,0,6.13,4.99,11.12,11.12,11.12s11.12-4.99,11.12-11.12-4.98-11.12-11.12-11.12c-.91,0-1.79.11-2.64.32l-1.41-4.12c0-.05-.02-.11-.04-.16l-.45-1.33c-.02-.06-.05-.11-.07-.16l-1.9-5.53c-.15-.42-.54-.7-.99-.7h-3.2c-.58,0-1.05.46-1.05,1.04s.47,1.04,1.05,1.04h2.45l1.27,3.71-16.18,1.15-.89-2.99h1.68c.57,0,1.04-.46,1.04-1.04s-.47-1.04-1.04-1.04h-6.15c-.58,0-1.04.47-1.04,1.04s.46,1.04,1.04,1.04h2.3l1.15,3.87-3.76,5.34c-1.63-.94-3.51-1.47-5.52-1.47-6.13,0-11.12,4.99-11.12,11.12s4.99,11.12,11.12,11.12" class="cls-4"/><path d="M411.38,266.9h-50.96c-1.56,0-2.83-1.27-2.83-2.83v-50.88c0-1.56,1.27-2.83,2.83-2.83h50.96c1.56,0,2.83,1.27,2.83,2.83v50.88c0,1.56-1.27,2.83-2.83,2.83" class="cls-3"/><path d="M398.15,260.8c.22-.03.4-.05.57-.08.15-.04.21-.16.21-.31,0-.14-.09-.24-.2-.28-.18-.06-.38-.12-.58-.01v.68ZM397.27,262.66v-3.22h.7c.32,0,.64,0,.96,0,.44.01.71.21.83.6.12.38-.02.73-.38.98-.03.02-.06.05-.08.06.06.1.13.17.16.26.16.44.32.87.48,1.33h-.9c-.11-.32-.21-.63-.33-.94-.08-.24-.25-.35-.55-.29-.03.4,0,.8-.02,1.22h-.88Z" class="cls-4"/><path d="M363.33,260.28s-.05,0-.07,0c-.11.35-.22.71-.34,1.07h.72c-.11-.37-.21-.72-.31-1.07M364.06,262.66c-.07-.21-.15-.42-.22-.63h-1.13c-.05.14-.13.3-.17.46s-.14.2-.3.2c-.21,0-.41,0-.66,0,.4-1.1.78-2.16,1.17-3.23h1.07c.39,1.05.78,2.11,1.19,3.2h-.96Z" class="cls-4"/><path d="M406.7,232.81h.63v1.3h.62v-1.22h.7v1.22h.68v-1.29c.28-.1.35-.1.69-.03v2.16c-.28.07-2.29.09-3.3.04-.07-.26-.08-1.61-.03-2.17" class="cls-4"/><path d="M410.02,222.78c.01.08.03.14.03.2,0,.27,0,.54,0,.83-1.12.35-2.23.69-3.35,1.04v-.91c.78-.2,1.56-.41,2.35-.62-.76-.32-1.56-.47-2.35-.71v-.88c1.12.35,2.22.7,3.32,1.04" class="cls-4"/><path d="M386.36,261.91c.02.23.04.45.06.69-.76.23-1.48.25-2.15-.22-.41-.29-.59-.73-.6-1.21-.02-.96.43-1.64,1.47-1.78.43-.06.86,0,1.27.17-.02.23-.04.46-.06.69-.23-.06-.44-.12-.65-.17-.43-.1-.86.18-1.01.49-.27.58-.04,1.27.51,1.44.27.08.56.06.84,0,.1-.03.21-.06.33-.09" class="cls-4"/><path d="M407.52,230.72v-.82c.08-.01.16-.03.23-.03.67,0,1.35,0,2.02,0,.26,0,.27,0,.27.27,0,.16,0,.31,0,.48-.12.02-.21.03-.32.04.03.04.05.06.07.08.3.27.33.62.26.98-.06.32-.38.59-.75.6-.59.02-1.17,0-1.78,0v-.79c.12,0,.25,0,.38-.01.36-.02.73-.02,1.1-.06.2-.02.33-.14.33-.29,0-.17-.08-.32-.24-.38-.12-.05-.26-.08-.39-.09-.38,0-.76,0-1.18,0" class="cls-4"/><path d="M404.71,262.66c-.01-.09-.03-.18-.04-.28-.05.04-.09.06-.12.09-.26.25-.58.33-.92.24-.41-.11-.63-.31-.68-.88-.04-.51,0-1.03,0-1.56h.85c0,.35,0,.7,0,1.05,0,.12,0,.25.03.37.03.17.14.29.31.32.13.03.35-.11.4-.27.04-.14.07-.29.08-.43,0-.34,0-.68,0-1.05h.83v2.39h-.73Z" class="cls-4"/><path d="M408.68,226.83c.16-.02.26-.01.36-.04.25-.06.37-.21.38-.43.01-.25-.09-.41-.35-.48-.24-.07-.49-.07-.72.05-.17.08-.27.21-.27.41,0,.18.1.31.24.38.13.07.27.09.36.12M410.08,226.34c.02.9-.63,1.37-1.32,1.35-.72-.02-1.3-.44-1.31-1.34,0-.88.55-1.35,1.32-1.36.72-.01,1.34.49,1.31,1.36" class="cls-4"/><path d="M408.71,216.87c.15-.02.25-.02.35-.05.25-.07.36-.21.37-.44,0-.24-.08-.38-.34-.46-.25-.08-.51-.07-.75.05-.33.17-.35.59-.03.77.13.08.29.1.4.13M410.08,216.37c.02.9-.63,1.36-1.32,1.35-.72-.02-1.3-.44-1.31-1.34,0-.88.55-1.35,1.32-1.36.72-.02,1.34.49,1.31,1.36" class="cls-4"/><path d="M388.37,261.47c-.04-.14-.06-.29-.12-.42-.14-.29-.58-.32-.77-.06-.17.22-.19.66-.03.9.2.31.64.3.81-.03.06-.12.07-.26.11-.39M387.84,260.18c.64,0,1.13.3,1.3.82.26.8-.13,1.64-1.14,1.73-.19.02-.39-.01-.58-.06-.52-.12-.83-.45-.92-.98-.09-.51.05-.95.47-1.27.25-.2.55-.27.86-.26" class="cls-4"/><path d="M371.82,262.67h-.84v-2.39c.21-.04.43-.01.65-.02.16,0,.1.14.16.23.25-.19.53-.33.87-.3.45.04.79.34.8.8.01.55,0,1.1,0,1.68-.26.06-.51,0-.81.03,0-.35,0-.68,0-1,0-.17-.04-.34-.06-.51-.02-.14-.11-.23-.23-.25-.15-.04-.29,0-.39.14-.11.15-.14.31-.14.49v1.11" class="cls-4"/><path d="M401.88,261.5c-.03-.12-.04-.23-.07-.33-.07-.22-.21-.33-.42-.34-.26,0-.37.07-.47.32-.1.24-.07.48.03.71.08.18.23.27.44.26.2,0,.33-.11.4-.27.05-.11.07-.23.1-.34M401.36,262.75c-.71,0-1.18-.36-1.34-1.01-.16-.67.25-1.43,1.09-1.53.21-.03.44,0,.65.04.75.17,1.01.74.97,1.32-.05.69-.54,1.14-1.23,1.19-.05,0-.1,0-.15,0" class="cls-4"/><path d="M369.88,261.6c-.2,0-.34,0-.47,0-.08,0-.18.03-.23.08-.06.06-.12.16-.13.24,0,.1.08.16.19.2.17.06.36,0,.48-.17.06-.09.09-.19.17-.36M369.87,261.14c-.08-.12-.12-.23-.19-.26-.14-.06-.3-.09-.46-.1-.11,0-.22.03-.33.06-.1.03-.2.07-.33.13v-.6c.41-.21.86-.25,1.31-.14.44.11.69.3.74.88.04.51,0,1.03,0,1.57-.21,0-.41,0-.62,0-.15,0-.11-.13-.18-.21-.1.07-.19.14-.29.19-.52.27-1.16-.03-1.26-.58-.05-.27.07-.64.36-.78.19-.09.38-.17.6-.16.2,0,.39,0,.64,0" class="cls-4"/><path d="M390.89,261.59c-.2.02-.37.02-.53.06-.18.04-.25.17-.22.32.03.13.19.21.35.19.22-.04.34-.19.4-.57M391.72,262.67h-.73c-.02-.08-.03-.16-.05-.24-.02,0-.04,0-.05.02-.29.37-.81.37-1.17.18-.5-.28-.53-1.02-.03-1.3.18-.1.39-.14.59-.17.19-.03.39,0,.58,0,.05-.14-.03-.21-.1-.26-.16-.11-.34-.14-.53-.09-.19.05-.38.1-.58.16v-.58c.43-.18.87-.24,1.32-.12.48.13.71.43.72.93,0,.32,0,.64,0,.96,0,.17.02.34.03.55" class="cls-4"/><path d="M408.51,220.17c-.36.08-.52.23-.48.46.02.09.07.19.14.25.08.09.2.13.34.08v-.79ZM409.04,219.44v1.52c.33-.09.48-.34.43-.69-.02-.11-.04-.22-.07-.32-.03-.09-.07-.18-.12-.28h.6c.38.67.21,1.6-.37,1.97-.6.38-1.43.23-1.79-.21-.31-.38-.37-.83-.21-1.28.17-.46.57-.62,1.01-.7.15-.03.31,0,.51,0" class="cls-4"/><path d="M408.38,261.22h.62c.07,0,.14,0,.21,0-.06-.35-.12-.44-.36-.45-.25-.02-.33.06-.47.46M409.99,261.72h-1.53c.06.3.12.35.36.39.27.05.54,0,.94-.13,0,.05.02.1.02.14,0,.15,0,.29,0,.46-.49.2-.98.25-1.47.06-.48-.19-.73-.56-.74-1.08,0-.18,0-.37.05-.54.17-.63.75-.89,1.39-.82.53.05.92.48.98,1.07.01.13,0,.27,0,.46" class="cls-4"/><path d="M391.96,262.6c.02-.21.03-.4.05-.6.37.07.72.26,1.08.03-.05-.2-.2-.24-.34-.29-.14-.05-.28-.08-.42-.14-.46-.2-.54-.79-.15-1.16.17-.16.38-.23.6-.25.33-.04.58,0,.95.14v.6c-.19-.05-.35-.1-.51-.14-.18-.04-.34,0-.52.12.07.06.11.14.18.16.17.06.35.09.53.16.36.13.51.34.5.72,0,.27-.12.58-.53.72-.4.13-1.03.12-1.42-.07" class="cls-4"/><path d="M374.06,260.86c-.15-.01-.28-.02-.43-.03v-.56c.15-.02.29-.03.44-.05v-.52c.27-.09.53-.18.82-.28.07.27,0,.53.05.8.15,0,.31.02.48.03.07.17.02.35.04.57-.17,0-.34.02-.53.03,0,.32,0,.62,0,.92,0,.29.07.34.35.34h.2c0,.18.02.34.03.53-.38.15-.74.14-1.1-.03-.28-.12-.32-.39-.34-.65-.02-.23,0-.47,0-.7v-.42Z" class="cls-4"/><path d="M406.04,260.87c-.16-.01-.29-.03-.44-.04v-.56c.15,0,.29-.02.47-.03,0-.18.02-.35.03-.55.26-.08.51-.16.78-.25v.79c.19,0,.37.02.56.03v.56c-.18,0-.35.02-.55.03,0,.3,0,.6,0,.88,0,.33.06.38.39.38h.17v.54c-.33.14-.69.12-1.03-.02-.18-.07-.29-.23-.32-.42-.04-.19-.05-.39-.06-.58,0-.26,0-.51,0-.78" class="cls-4"/><path d="M395.26,260.26h.54v.55c-.16.1-.35,0-.56.07,0,.3-.02.62,0,.93.02.26.09.31.35.32.06,0,.12,0,.21,0v.56c-.28.09-.57.1-.86.02-.36-.1-.51-.3-.52-.67,0-.38,0-.76,0-1.17-.16-.02-.31-.03-.47-.05v-.55c.14,0,.29-.02.46-.04,0-.17.02-.35.03-.54.25-.08.5-.16.76-.25.08.25,0,.51.06.81" class="cls-4"/><path d="M366.8,262.12v.56c-.28.11-.57.1-.86.03-.36-.09-.51-.28-.53-.66,0-.33,0-.66,0-1v-.19c-.17,0-.31-.02-.47-.03v-.56c.16,0,.3-.02.47-.03v-.53c.27-.09.52-.17.81-.27v.81h.56v.58c-.17,0-.34.02-.53.03-.05.32-.06.65,0,.98.04.29.08.29.33.3.06,0,.12,0,.22,0" class="cls-4"/><path d="M378.89,260.96c-.37-.14-.7-.23-.97.11-.16.2-.16.53-.02.73.27.38.64.34,1,.19.03.03.04.04.04.05.1.66.08.65-.56.7-.47.04-.9-.09-1.2-.5-.6-.81-.11-1.95.89-2.05.26-.03.51-.02.76.07.09.03.14.08.12.19-.03.16-.04.32-.06.5" class="cls-4"/><rect height=".84" width="3.66" y="218.12" x="406.39" class="cls-4"/><rect height="3.51" width=".77" y="259.17" x="367.13" class="cls-4"/><path d="M375.78,260.26h.79c.07.26.08,1.73.03,2.41-.12,0-.25,0-.38,0-.13,0-.27,0-.4,0-.07-.28-.09-1.69-.03-2.42" class="cls-4"/><path d="M375.77,259.86v-.6c.27-.05.53-.02.81-.02.08.2.03.4.05.62-.3.03-.58.04-.85,0" class="cls-4"/><path d="M386.31,243.92h-4.19v-12.39c-1,.77-1.95,1.51-2.92,2.25-.63-1.03-1.24-2.04-1.86-3.07.09-.07.17-.15.25-.21,1.61-1.14,3.23-2.28,4.84-3.42.11-.08.22-.14.37-.14,1.13,0,2.26,0,3.4,0,.03,0,.07.02.11.03v16.94Z" class="cls-4"/><path d="M375.01,221.77c-.58-.41-1.12-.78-1.66-1.15-.54.37-1.08.75-1.68,1.16.2-.67.39-1.29.58-1.95-.52-.4-1.04-.8-1.62-1.25.72-.02,1.37-.03,2.04-.05.22-.63.44-1.26.67-1.92.23.66.45,1.28.68,1.93h2.04c-.12.11-.17.16-.23.21-.4.3-.8.61-1.2.91-.15.11-.19.23-.13.41.16.5.31,1.01.46,1.51.01.05.02.09.04.18" class="cls-4"/><path d="M398.77,226.11c.16.64.4,1.24.55,1.93-.49-.34-.92-.64-1.36-.94-.03-.02-.06-.04-.08-.07-.13-.11-.25-.11-.39,0-.33.25-.68.48-1.02.72-.12.08-.24.17-.42.29.15-.69.38-1.29.55-1.93-.52-.4-1.03-.79-1.6-1.22.17-.02.27-.03.37-.03.47,0,.93,0,1.4-.02.25,0,.25,0,.34-.25.19-.53.37-1.06.58-1.66.27.65.44,1.27.69,1.89.64.03,1.3,0,2.02.06-.58.44-1.09.83-1.61,1.23" class="cls-4"/><path d="M368.07,244.14c.2.64.38,1.25.58,1.91-.22-.1-.38-.24-.55-.35-.19-.13-.36-.25-.55-.38-.18-.13-.36-.25-.57-.39-.54.37-1.07.74-1.65,1.14.15-.69.4-1.29.55-1.94-.52-.4-1.03-.79-1.59-1.22.61-.02,1.16-.05,1.71-.06.35,0,.31.02.43-.32.16-.46.32-.93.48-1.39.01-.05.04-.08.09-.17.23.65.44,1.25.65,1.86.66.02,1.3.05,2.02.07-.57.43-1.08.82-1.6,1.23" class="cls-4"/><path d="M383.96,219.43c-.52-.36-1.05-.73-1.58-1.1-.54.37-1.07.74-1.68,1.16.21-.7.39-1.31.58-1.95-.51-.39-1.02-.78-1.59-1.22.7-.08,1.34-.03,2.01-.07.21-.6.43-1.22.67-1.91.24.69.46,1.29.68,1.94h1.95s.01.05.02.07c-.51.39-1.02.78-1.56,1.19.19.62.37,1.24.55,1.85l-.06.04" class="cls-4"/><path d="M385.09,251.54c-.19.15-.38.3-.58.45-.27.2-.53.4-.79.6-.2.15-.2.16-.13.4.16.54.33,1.07.51,1.69-.61-.39-1.13-.79-1.68-1.14-.54.37-1.07.74-1.67,1.15.1-.33.17-.59.24-.84.08-.28.17-.56.26-.84.06-.19.04-.31-.14-.44-.41-.29-.8-.6-1.21-.9-.06-.05-.12-.08-.18-.12.01-.02.03-.05.04-.07h1.97c.22-.64.44-1.26.68-1.93.24.66.46,1.28.68,1.92h1.95s.02.05.03.07" class="cls-4"/><path d="M392.75,252.2c-.48-.32-.95-.64-1.46-.99-.53.37-1.07.74-1.67,1.15.2-.68.39-1.29.58-1.94-.51-.39-1.02-.78-1.6-1.22.72-.03,1.37-.05,2.02-.07.22-.62.43-1.22.66-1.87.05.12.09.2.12.28.16.44.31.88.47,1.32.1.29.1.29.42.29.49.01.98.02,1.47.04.06,0,.12,0,.22.02-.55.42-1.06.81-1.58,1.21.16.57.32,1.12.47,1.67,0,.09-.03.13-.11.12" class="cls-4"/><path d="M367.59,225.27h1.99c-.26.3-.54.46-.79.65-.26.2-.52.4-.79.61.19.63.37,1.24.58,1.93-.6-.37-1.11-.76-1.67-1.13-.53.36-1.07.73-1.67,1.14.08-.3.15-.53.22-.76.1-.33.19-.66.3-.98.05-.14.02-.23-.09-.32-.37-.28-.74-.56-1.12-.85-.1-.08-.2-.17-.37-.3h2.05c.23-.64.45-1.27.68-1.94.23.67.45,1.28.68,1.94" class="cls-4"/><path d="M363.72,235.3c-.51-.39-1.03-.79-1.61-1.23.72-.02,1.36-.04,2.02-.06.22-.62.43-1.23.66-1.88.05.11.09.19.12.28.17.46.33.92.48,1.39.05.15.12.21.29.21.46,0,.91.03,1.36.04.13,0,.26,0,.47,0-.35.27-.64.49-.93.72-.18.14-.35.28-.53.4-.14.09-.16.2-.11.34.16.5.31,1.01.47,1.51.01.04.02.09.04.2-.58-.4-1.1-.76-1.65-1.14-.54.37-1.08.74-1.68,1.15.21-.69.39-1.3.58-1.94" class="cls-4"/><path d="M401.66,237.02c-.59-.41-1.11-.77-1.66-1.15-.54.37-1.07.74-1.68,1.16.2-.69.39-1.31.58-1.95-.52-.4-1.04-.8-1.61-1.23.71-.02,1.37-.03,2.02-.05.23-.64.44-1.25.68-1.92.23.66.44,1.26.66,1.88.65.12,1.31.03,2.01.08-.09.08-.15.14-.22.2-.39.3-.78.6-1.18.89-.15.11-.17.21-.12.37.16.5.31,1.01.47,1.51.01.05.02.09.05.21" class="cls-4"/><path d="M399.44,245.96c-.59-.41-1.12-.77-1.67-1.15-.53.37-1.06.74-1.64,1.13.02-.11.03-.19.05-.26.13-.46.27-.91.41-1.37.08-.29.09-.29-.16-.48-.38-.29-.76-.58-1.14-.87-.06-.05-.11-.09-.21-.18.5,0,.95-.02,1.4-.02.62,0,.62,0,.82-.59.15-.43.29-.85.47-1.36.15.42.27.76.4,1.11.06.16.11.33.17.49.12.34.12.34.49.35.46,0,.91,0,1.37.01h.31c-.58.44-1.09.83-1.63,1.24.19.62.37,1.25.58,1.95" class="cls-4"/><path d="M373.41,251.23c-.55.38-1.08.74-1.65,1.14.03-.12.04-.2.06-.27.14-.46.27-.92.41-1.38q.08-.29-.16-.48c-.37-.28-.74-.56-1.12-.85-.07-.05-.13-.11-.24-.21h2.01c.23-.65.45-1.27.69-1.95.24.68.46,1.3.68,1.94h1.92c-.2.3-.47.47-.73.66-.25.2-.5.39-.78.6.19.62.37,1.25.58,1.95-.6-.41-1.13-.78-1.67-1.15" class="cls-4"/><path d="M390.97,220.6c-.55.38-1.07.74-1.65,1.15.05-.2.08-.35.13-.5.12-.4.24-.8.36-1.19.07-.24.07-.25-.12-.4-.36-.28-.72-.55-1.08-.82-.1-.07-.19-.15-.34-.28h2.02c.22-.64.45-1.27.69-1.95.24.68.46,1.3.68,1.94h2.01c-.3.28-.57.46-.82.65-.25.2-.5.39-.78.6.19.62.37,1.25.58,1.95-.59-.41-1.12-.77-1.67-1.15" class="cls-4"/><path d="M392.75,252.2c.09,0,.12-.03.11-.12.03.07.05.15.11.29-.12-.09-.17-.13-.22-.17" class="cls-4"/><rect height=".62" width="2.26" y="261.08" x="380.12" class="cls-4"/><path d="M407.56,228.76h.08c.06,0,.1-.02.12-.04.03,0,.04-.04.04-.08,0,0,0-.02,0-.02,0-.02,0-.02,0-.04,0,0-.02-.02-.03-.02,0-.02-.02-.04-.03-.04l-.09-.12s-.05-.08-.07-.12c0-.06-.03-.1-.03-.16,0-.06-.02-.1-.02-.16,0-.04,0-.08,0-.1s0-.06.02-.1h.6s-.02.06-.03.12c0,.04,0,.08,0,.14,0,.1.02.19.05.29.03.08.07.16.13.21s.13.1.21.12c.09.04.19.06.29.06h1.2v.64h-2.43v-.6Z" class="cls-4"/></g></g></g></svg>