<svg viewBox="0 0 531.27 288" xmlns:xlink="http://www.w3.org/1999/xlink" xmlns="http://www.w3.org/2000/svg" id="Camada_2"><defs><style>.cls-1,.cls-2{fill:none;}.cls-3{fill:#12100c;}.cls-2{stroke:#12100c;stroke-linecap:round;stroke-linejoin:round;stroke-width:.3px;}</style><symbol viewBox="0 0 531.27 288" id="fundo_transparente"><rect height="288" width="531.27" x="0" class="cls-1"/></symbol></defs><g id="RePlastic"><g id="vedação_Crayons_900"><use xlink:href="#fundo_transparente" height="288" width="531.27"/><path d="M43.41,127.59l-.08-.23v-.23l-.15-.23-.15-.23-.15-.15-.23-.15-.23-.15h-.23l-.23-.08h-9.93l-.3.08h-.23l-.23.15-.23.15-.15.15-.15.23-.08.23-.08.23v.23M135.76,168.14v72.53h-7.07v-72.53h-35.57v72.53h-7.07v-72.53h-14.21v72.53h-7.14v-72.53M169.9,127.59l-.08-.23-.08-.23-.08-.23-.15-.23-.15-.15-.23-.15-.23-.15h-.23l-.23-.08h-10l-.23.08h-.23l-.23.15-.23.15-.15.15-.15.23-.08.23-.08.23v.23M50.48,240.67v-72.53h-7.07v72.53h-12.78v-86.75,14.22h139.28v-14.22H30.62v-26.33h12.78v26.33h7.07v-17.08l.08-.6.08-.6.08-.6.23-.53.23-.6.23-.53.3-.53.38-.45.38-.45.45-.45.45-.38.53-.3.53-.3.53-.3.6-.15.6-.15.6-.15h1.8l.6.15.53.15.6.15.53.3.53.3.53.3.45.38.45.45.38.45.38.45.3.53.3.53.23.6.15.53.15.6.08.6v17.68h7.14v-17.68l.08-.6.15-.6.15-.53.23-.6.3-.53.3-.53.38-.45.38-.45.45-.45.45-.38.53-.3.53-.3.53-.3.53-.15.6-.15.6-.15h1.8l.6.15.6.15.53.15.6.3.53.3.45.3.53.38.38.45.45.45.3.45.38.53.23.53.23.6.23.53.08.6.08.6.08.6v17.08h7.07v-17.68l.08-.6.15-.6.23-.53.15-.6.3-.53.3-.53.38-.45.38-.45.45-.45.45-.38.53-.3.53-.3.53-.3.6-.15.6-.15.6-.15h1.8l.6.15.53.15.6.15.53.3.53.3.53.3.45.38.45.45.38.45.38.45.3.53.3.53.23.6.15.53.15.6.08.6v17.68h7.14v-17.68l.08-.6.15-.6.15-.53.23-.6.3-.53.3-.53.38-.45.38-.45.45-.45.45-.38.53-.3.53-.3.53-.3.53-.15.6-.15.6-.15h1.8l.6.15.6.15.53.15.6.3.53.3.45.3.45.38.45.45.45.45.3.45.38.53.23.53.23.6.23.53.08.6.08.6.08.6v17.08h7.07v-17.68l.08-.6.15-.6.15-.53.23-.6.3-.53.3-.53.38-.45.38-.45.45-.45.45-.38.53-.3.53-.3.53-.3.6-.15.6-.15.6-.15h1.8l.53.15.6.15.6.15.53.3.53.3.53.3.45.38.45.45.38.45.38.45.3.53.3.53.23.6.15.53.15.6.08.6v17.68h7.14v-26.33h12.78v113.08h-12.78v-72.53h-7.14v72.53h-35.5v-72.53h-7.14v72.53M30.62,254.39v-13.73h139.28v41.91h-12.78v-27.69h-7.14v17h-14.21v-17h-7.07v17h-14.21v-17h-7.14v17h-14.21v-17h-7.07v17h-14.21v-17h-7.14v17h-14.21v-17h-7.07v27.69h-12.78v-27.69M169.9,278.66v-23.77H30.62v-.49" class="cls-2"/><path d="M107.33,60.9h-14.21M107.33,65.19h-14.21M93.12,65.19v-4.29M107.33,65.19v-4.29M86.05,60.9h-14.21M71.84,65.19v-4.29M86.05,65.19h-14.21M86.05,65.19v-4.29M64.69,60.9h-14.21M50.48,65.19v-4.29M64.69,65.19h-14.21M64.69,65.19v-4.29M149.97,60.9h-14.21M135.75,65.19v-4.29M149.97,65.19h-14.21M149.97,65.19v-4.29M128.69,60.9h-14.21M114.47,65.19v-4.29M128.69,65.19h-14.21M128.69,65.19v-4.29M30.63,69.41h139.26M169.89,65.19v4.22M149.97,65.19h7.14M128.69,65.19h7.07M107.33,65.19h7.14M86.05,65.19h7.07M64.69,65.19h7.14M43.41,65.19h7.07M30.63,65.19v4.22M169.89,65.19h-12.78M169.89,52.32v12.87M157.11,65.19v-12.87M157.11,52.32h12.78M43.41,65.19h-12.78M43.41,52.32v12.87M30.63,65.19v-12.87M30.63,52.32h12.78M29.2,83.64h0v-.3M30.63,83.34v.3M30.63,83.64h-1.43M29.2,34.17v-.3M30.63,33.87h0v.3M29.2,33.87h1.43M29.2,83.34v-18.14M30.63,83.34v-13.93M29.2,83.34h1.43M29.2,65.19v-12.87M29.2,65.19h1.43M30.63,52.32v-18.14M30.63,34.17h-1.43M29.2,52.32v-18.14M29.2,52.32h1.43M169.89,83.64h0v-.3M171.25,83.34v.3M171.25,83.64h-1.35M169.89,34.17v-.3M171.25,33.87h0v.3M169.89,33.87h1.35M169.89,83.34v-13.93M171.25,83.34v-18.14M169.89,83.34h1.35M171.25,65.19v-12.87M169.89,65.19h1.35M171.25,52.32v-18.14M171.25,34.17h-1.35M169.89,52.32v-18.14M169.89,52.32h1.35M29.05,57.36h0v-4.37M171.4,53v4.37M171.4,60.15h0v4.37M29.05,64.51v-4.37M29.05,60.15h0M29.05,53l-.23.3-.23.38-.15.38-.15.38-.08.38v.83l.08.38.15.38.15.38.23.3.23.3M29.2,53h-.15M29.05,57.36h.15M171.4,57.36l.23-.3.23-.3.23-.38.08-.38.08-.38.08-.45-.08-.38-.08-.38-.08-.38-.23-.38-.23-.38-.23-.3M171.25,57.36h.15M171.4,53h-.15M171.25,64.51h.15M171.4,60.15h-.15M171.4,64.51l.23-.3.23-.38.23-.38.08-.38.08-.38.08-.38-.08-.45-.08-.38-.08-.38-.23-.38-.23-.3-.23-.3M29.2,60.15h-.15M29.05,64.51h.15M29.05,60.15l-.23.3-.23.3-.15.38-.15.38-.08.38v.83l.08.38.15.38.15.38.23.38.23.3" class="cls-2"/><path d="M216.71,153.92v14.22M216.71,168.14h-4.29M216.71,153.92h-4.29M212.42,153.92v14.22M216.71,254.89v-14.22M212.42,240.67h4.29M212.42,254.89v-14.22M212.42,254.89h4.29M229.49,127.59v154.99M216.71,127.59v154.99M216.71,127.59v-.23l.08-.23.15-.23.15-.23.15-.15.23-.15.23-.15h.23l.23-.08M229.49,127.59h-12.78M228.06,126.16l.3.08h.23l.23.15.15.15.23.15.15.23.08.23.08.23v.23M218.13,126.16h9.92M216.71,282.57h12.78" class="cls-2"/><g id="LINE"><line y2="126.31" x2="16.45" y1="282.42" x1="16.45" class="cls-2"/><rect height=".3" width="1.95" y="282.27" x="15.47" class="cls-3"/><rect height=".3" width="1.95" y="126.16" x="15.47" class="cls-3"/></g><g id="MTEXT"><path d="M6.53,215.56c.12-.24.29-.44.51-.61.22-.17.5-.3.82-.39.32-.09.69-.14,1.09-.14s.8.05,1.15.15c.35.1.64.24.89.43s.43.41.56.67c.13.26.2.55.2.88,0,.37-.09.7-.27.97-.18.27-.43.47-.76.59l-.29-.64c.21-.07.37-.18.48-.34.11-.16.17-.35.17-.56,0-.2-.05-.38-.14-.55-.09-.17-.23-.31-.4-.44-.17-.13-.37-.22-.61-.29-.24-.07-.49-.1-.77-.1h-.17c-.06,0-.1,0-.15,0,.25.08.45.23.59.45.14.22.21.48.21.79,0,.24-.04.46-.12.65-.08.2-.19.36-.34.5-.14.14-.32.25-.52.33-.2.08-.42.12-.66.12s-.47-.04-.68-.13c-.21-.08-.38-.2-.52-.35-.14-.15-.26-.32-.34-.53-.08-.21-.12-.43-.12-.68,0-.3.06-.57.18-.81ZM7.1,216.72c.05.12.12.22.21.3.09.08.19.15.31.2.12.05.26.07.41.07s.29-.02.41-.07c.12-.05.23-.12.32-.2.09-.09.16-.19.21-.31.05-.12.07-.25.07-.4s-.02-.27-.07-.39c-.05-.12-.12-.22-.2-.31-.09-.09-.19-.15-.31-.2-.12-.05-.25-.07-.4-.07s-.28.03-.41.08c-.13.05-.24.13-.34.21-.1.09-.17.2-.22.32s-.08.26-.08.4.03.26.08.38Z"/><path d="M6.55,210.99c.13-.25.32-.47.55-.65.23-.18.52-.32.85-.42.33-.1.69-.15,1.08-.15s.76.05,1.1.15.62.24.86.42c.24.18.43.4.56.65.13.25.2.52.2.83s-.07.57-.2.82-.32.47-.56.65c-.24.18-.53.32-.86.42-.33.1-.7.15-1.1.15s-.75-.05-1.08-.15c-.33-.1-.61-.24-.85-.42-.24-.18-.42-.4-.55-.65-.13-.25-.2-.53-.2-.83s.07-.58.2-.83ZM7.18,212.34c.1.16.23.29.41.41.18.11.38.2.63.27.24.07.51.1.81.1s.57-.03.82-.09c.25-.06.46-.15.64-.27.18-.12.32-.25.42-.41.1-.16.15-.33.15-.52s-.05-.37-.15-.53c-.1-.16-.24-.3-.42-.41-.18-.11-.39-.2-.64-.27-.25-.06-.52-.09-.82-.09s-.56.03-.81.09c-.25.06-.46.15-.63.26-.17.11-.31.25-.41.41-.1.16-.15.34-.15.53s.05.37.15.52Z"/><path d="M6.55,206.35c.13-.25.32-.47.55-.65.23-.18.52-.32.85-.42.33-.1.69-.15,1.08-.15s.76.05,1.1.15.62.24.86.42c.24.18.43.4.56.65.13.25.2.52.2.83s-.07.57-.2.82-.32.47-.56.65c-.24.18-.53.32-.86.42-.33.1-.7.15-1.1.15s-.75-.05-1.08-.15c-.33-.1-.61-.24-.85-.42-.24-.18-.42-.4-.55-.65-.13-.25-.2-.53-.2-.83s.07-.58.2-.83ZM7.18,207.71c.1.16.23.29.41.41.18.11.38.2.63.27.24.07.51.1.81.1s.57-.03.82-.09c.25-.06.46-.15.64-.27.18-.12.32-.25.42-.41.1-.16.15-.33.15-.52s-.05-.37-.15-.53c-.1-.16-.24-.3-.42-.41-.18-.11-.39-.2-.64-.27-.25-.06-.52-.09-.82-.09s-.56.03-.81.09c-.25.06-.46.15-.63.26-.17.11-.31.25-.41.41-.1.16-.15.34-.15.53s.05.37.15.52Z"/><path d="M8.05,201.52h.67c-.24-.11-.42-.26-.54-.45-.12-.18-.18-.4-.18-.63,0-.26.07-.48.2-.67.14-.19.33-.32.59-.41-.26-.11-.45-.27-.59-.46-.14-.2-.2-.43-.2-.7,0-.38.12-.67.37-.88.25-.21.61-.31,1.07-.31h2.25v.7h-2.16c-.29,0-.52.07-.69.2-.17.13-.25.31-.25.54,0,.12.02.22.07.32.05.1.11.18.2.26.09.07.19.13.32.16.12.04.26.06.4.06h2.11v.7h-2.16c-.14,0-.27.02-.38.06-.12.04-.22.09-.3.15-.08.06-.14.14-.19.23-.04.09-.07.2-.07.31s.02.22.07.32c.05.1.12.18.21.25.09.07.2.12.32.17.12.04.26.06.41.06h2.09v.7h-3.64v-.68Z"/><path d="M8.05,195.34h.67c-.24-.11-.42-.26-.54-.45-.12-.18-.18-.4-.18-.63,0-.26.07-.48.2-.67.14-.19.33-.32.59-.41-.26-.11-.45-.27-.59-.46-.14-.2-.2-.43-.2-.7,0-.38.12-.67.37-.88.25-.21.61-.31,1.07-.31h2.25v.7h-2.16c-.29,0-.52.07-.69.2-.17.13-.25.31-.25.54,0,.12.02.22.07.32.05.1.11.18.2.26.09.07.19.13.32.16.12.04.26.06.4.06h2.11v.7h-2.16c-.14,0-.27.02-.38.06-.12.04-.22.09-.3.15-.08.06-.14.14-.19.23-.04.09-.07.2-.07.31s.02.22.07.32c.05.1.12.18.21.25.09.07.2.12.32.17.12.04.26.06.41.06h2.09v.7h-3.64v-.68Z"/></g></g></g></svg>