<svg viewBox="0 0 531.27 288" xmlns:xlink="http://www.w3.org/1999/xlink" xmlns="http://www.w3.org/2000/svg" id="Camada_2"><defs><style>.cls-1,.cls-2{fill:none;}.cls-3{fill:#12100c;}.cls-2{stroke:#12100c;stroke-linecap:round;stroke-linejoin:round;stroke-width:.3px;}</style><symbol viewBox="0 0 531.27 288" id="fundo_transparente"><rect height="288" width="531.27" x="0" class="cls-1"/></symbol></defs><g id="Golf"><g id="Campo_de_Golf"><g id="tee_totem_Clássico"><g id="ARC"><path d="M153.11,33.29c.07,0,.12.05.12.12v11.9c0,.07-.05.12-.12.12h-11.9c-.07,0-.12-.05-.12-.12v-11.9c0-.07.05-.12.12-.12h11.9" class="cls-2"/></g><g id="ARC-2"><path d="M39.08,33.29c.07,0,.12.05.12.12v11.9c0,.07-.05.12-.12.12h-11.9c-.07,0-.12-.05-.12-.12v-11.9c0-.07.05-.12.12-.12h11.9" class="cls-2"/></g><g id="LINE"><line y2="40.04" x2="54.36" y1="38.69" x1="54.36" class="cls-2"/></g><g id="LINE-2"><line y2="38.69" x2="125.99" y1="40.04" x1="125.99" class="cls-2"/></g><rect height="1.35" width="101.88" y="38.69" x="39.21" class="cls-2"/><line y2="285.17" x2="12.89" y1="73.93" x1="12.89" class="cls-2"/><rect height=".3" width="1.95" y="73.78" x="11.91" class="cls-3"/><rect height=".3" width="1.95" y="285.02" x="11.91" class="cls-3"/><line y2="45.29" x2="12.89" y1="32.73" x1="12.89" class="cls-2"/><rect height=".3" width="1.95" y="32.58" x="11.91" class="cls-3"/><rect height=".3" width="1.95" y="45.14" x="11.91" class="cls-3"/><path d="M5.68,188.81h5.29v.72h-4.54l.64,1.3h-.73l-.67-1.36v-.67Z"/><path d="M5.68,184.86h.65v1.92l1.54.25c-.09-.1-.16-.22-.21-.36-.05-.14-.07-.29-.07-.46,0-.25.04-.47.13-.68.08-.21.2-.38.35-.53.15-.15.33-.27.54-.35.21-.08.44-.12.69-.12s.48.04.7.13c.21.09.4.21.55.36.15.16.27.34.36.56.08.21.13.45.13.71,0,.2-.03.39-.08.58s-.13.35-.23.5c-.1.15-.22.28-.36.39-.14.11-.3.19-.48.24l-.31-.63c.24-.07.43-.19.56-.39.14-.19.21-.42.21-.67,0-.15-.03-.29-.08-.41-.05-.13-.12-.23-.21-.33-.09-.09-.2-.16-.33-.21-.13-.05-.27-.08-.43-.08s-.3.03-.44.08c-.13.05-.25.13-.34.22s-.17.21-.22.34c-.05.13-.08.28-.08.44,0,.18.04.35.1.49.07.14.17.26.31.36l-.15.62-2.79-.47v-2.52Z"/><path d="M10.96,183.46l-4.62-1.78v2.69h-.67v-3.5h.59l4.7,1.77v.83Z"/><path d="M5.82,177.63c.13-.25.32-.47.55-.65.23-.18.52-.32.85-.42.33-.1.69-.15,1.08-.15s.76.05,1.1.15.62.24.86.42c.24.18.43.4.56.65.13.25.2.52.2.83s-.07.57-.2.82-.32.47-.56.65c-.24.18-.53.32-.86.42-.33.1-.7.15-1.1.15s-.75-.05-1.08-.15c-.33-.1-.61-.24-.85-.42-.24-.18-.42-.4-.55-.65-.13-.25-.2-.53-.2-.83s.07-.58.2-.83ZM6.45,178.99c.1.16.23.29.41.41.18.11.38.2.63.27.24.07.51.1.81.1s.57-.03.82-.09c.25-.06.46-.15.64-.27.18-.12.32-.25.42-.41.1-.16.15-.33.15-.52s-.05-.37-.15-.53c-.1-.16-.24-.3-.42-.41-.18-.11-.39-.2-.64-.27-.25-.06-.52-.09-.82-.09s-.56.03-.81.09c-.25.06-.46.15-.63.26-.17.11-.31.25-.41.41-.1.16-.15.34-.15.53s.05.37.15.52Z"/><path d="M7.32,172.81h.67c-.24-.11-.42-.26-.54-.45-.12-.18-.18-.4-.18-.63,0-.26.07-.48.2-.67.14-.19.33-.32.59-.41-.26-.11-.45-.27-.59-.46-.14-.2-.2-.43-.2-.7,0-.38.12-.67.37-.88.25-.21.61-.31,1.07-.31h2.25v.7h-2.16c-.29,0-.52.07-.69.2-.17.13-.25.31-.25.54,0,.12.02.22.07.32.05.1.11.18.2.26.09.07.19.13.32.16.12.04.26.06.4.06h2.11v.7h-2.16c-.14,0-.27.02-.38.06-.12.04-.22.09-.3.15-.08.06-.14.14-.19.23-.04.09-.07.2-.07.31s.02.22.07.32c.05.1.12.18.21.25.09.07.2.12.32.17.12.04.26.06.41.06h2.09v.7h-3.64v-.68Z"/><path d="M7.32,166.62h.67c-.24-.11-.42-.26-.54-.45-.12-.18-.18-.4-.18-.63,0-.26.07-.48.2-.67.14-.19.33-.32.59-.41-.26-.11-.45-.27-.59-.46-.14-.2-.2-.43-.2-.7,0-.38.12-.67.37-.88.25-.21.61-.31,1.07-.31h2.25v.7h-2.16c-.29,0-.52.07-.69.2-.17.13-.25.31-.25.54,0,.12.02.22.07.32.05.1.11.18.2.26.09.07.19.13.32.16.12.04.26.06.4.06h2.11v.7h-2.16c-.14,0-.27.02-.38.06-.12.04-.22.09-.3.15-.08.06-.14.14-.19.23-.04.09-.07.2-.07.31s.02.22.07.32c.05.1.12.18.21.25.09.07.2.12.32.17.12.04.26.06.41.06h2.09v.7h-3.64v-.68Z"/><path d="M2.97,47.88c.12-.24.29-.44.51-.61.22-.17.5-.3.82-.39.32-.09.69-.14,1.09-.14s.8.05,1.15.15c.35.1.64.24.89.43s.43.41.56.67c.13.26.2.55.2.88,0,.37-.09.7-.27.97-.18.27-.43.47-.76.59l-.29-.64c.21-.07.37-.18.48-.34.11-.16.17-.35.17-.56,0-.2-.05-.38-.14-.55-.09-.17-.23-.31-.4-.44-.17-.13-.37-.22-.61-.29-.24-.07-.49-.1-.77-.1h-.17c-.06,0-.1,0-.15,0,.25.08.45.23.59.45.14.22.21.48.21.79,0,.24-.04.46-.12.65-.08.2-.19.36-.34.5-.14.14-.32.25-.52.33-.2.08-.42.12-.66.12s-.47-.04-.68-.13c-.21-.08-.38-.2-.52-.35-.14-.15-.26-.32-.34-.53-.08-.21-.12-.43-.12-.68,0-.3.06-.57.18-.81ZM3.54,49.05c.05.12.12.22.21.3.09.08.19.15.31.2.12.05.26.07.41.07s.29-.02.41-.07c.12-.05.23-.12.32-.2.09-.09.16-.19.21-.31.05-.12.07-.25.07-.4s-.02-.27-.07-.39c-.05-.12-.12-.22-.2-.31-.09-.09-.19-.15-.31-.2-.12-.05-.25-.07-.4-.07s-.28.03-.41.08c-.13.05-.24.13-.34.21-.1.09-.17.2-.22.32s-.08.26-.08.4.03.26.08.38Z"/><path d="M2.99,43.31c.13-.25.32-.47.55-.65.23-.18.52-.32.85-.42.33-.1.69-.15,1.08-.15s.76.05,1.1.15.62.24.86.42c.24.18.43.4.56.65.13.25.2.52.2.83s-.07.57-.2.82-.32.47-.56.65c-.24.18-.53.32-.86.42-.33.1-.7.15-1.1.15s-.75-.05-1.08-.15c-.33-.1-.61-.24-.85-.42-.24-.18-.42-.4-.55-.65-.13-.25-.2-.53-.2-.83s.07-.58.2-.83ZM3.62,44.66c.1.16.23.29.41.41.18.11.38.2.63.27.24.07.51.1.81.1s.57-.03.82-.09c.25-.06.46-.15.64-.27.18-.12.32-.25.42-.41.1-.16.15-.33.15-.52s-.05-.37-.15-.53c-.1-.16-.24-.3-.42-.41-.18-.11-.39-.2-.64-.27-.25-.06-.52-.09-.82-.09s-.56.03-.81.09c-.25.06-.46.15-.63.26-.17.11-.31.25-.41.41-.1.16-.15.34-.15.53s.05.37.15.52Z"/><path d="M4.49,38.48h.67c-.24-.11-.42-.26-.54-.45-.12-.18-.18-.4-.18-.63,0-.26.07-.48.2-.67.14-.19.33-.32.59-.41-.26-.11-.45-.27-.59-.46-.14-.2-.2-.43-.2-.7,0-.38.12-.67.37-.88.25-.21.61-.31,1.07-.31h2.25v.7h-2.16c-.29,0-.52.07-.69.2-.17.13-.25.31-.25.54,0,.12.02.22.07.32.05.1.11.18.2.26.09.07.19.13.32.16.12.04.26.06.4.06h2.11v.7h-2.16c-.14,0-.27.02-.38.06-.12.04-.22.09-.3.15-.08.06-.14.14-.19.23-.04.09-.07.2-.07.31s.02.22.07.32c.05.1.12.18.21.25.09.07.2.12.32.17.12.04.26.06.41.06h2.09v.7h-3.64v-.68Z"/><path d="M4.49,32.3h.67c-.24-.11-.42-.26-.54-.45-.12-.18-.18-.4-.18-.63,0-.26.07-.48.2-.67.14-.19.33-.32.59-.41-.26-.11-.45-.27-.59-.46-.14-.2-.2-.43-.2-.7,0-.38.12-.67.37-.88.25-.21.61-.31,1.07-.31h2.25v.7h-2.16c-.29,0-.52.07-.69.2-.17.13-.25.31-.25.54,0,.12.02.22.07.32.05.1.11.18.2.26.09.07.19.13.32.16.12.04.26.06.4.06h2.11v.7h-2.16c-.14,0-.27.02-.38.06-.12.04-.22.09-.3.15-.08.06-.14.14-.19.23-.04.09-.07.2-.07.31s.02.22.07.32c.05.1.12.18.21.25.09.07.2.12.32.17.12.04.26.06.41.06h2.09v.7h-3.64v-.68Z"/><line y2="19.12" x2="153.38" y1="19.12" x1="27.21" class="cls-2"/><rect height="1.95" width=".3" y="18.14" x="27.06" class="cls-3"/><rect height="1.95" width=".3" y="18.14" x="153.23" class="cls-3"/><path d="M79.75,9.2c.24.12.44.29.61.51.17.22.3.5.39.82.09.32.14.69.14,1.09s-.05.8-.15,1.15c-.1.35-.24.64-.43.89s-.41.43-.67.56c-.26.13-.55.2-.88.2-.37,0-.7-.09-.97-.27-.27-.18-.47-.43-.59-.76l.64-.29c.07.21.18.37.34.48.16.11.35.17.56.17.2,0,.38-.05.55-.14.17-.09.31-.23.44-.4.13-.17.22-.37.29-.61.07-.24.1-.49.1-.77v-.17c0-.06,0-.1,0-.15-.08.25-.23.45-.45.59-.22.14-.48.21-.79.21-.24,0-.46-.04-.65-.12-.2-.08-.36-.19-.5-.34-.14-.14-.25-.32-.33-.52-.08-.2-.12-.42-.12-.66s.04-.47.13-.68c.08-.21.2-.38.35-.52.15-.14.32-.26.53-.34.21-.08.43-.12.68-.12.3,0,.57.06.81.18ZM78.58,9.77c-.12.05-.22.12-.3.21-.08.09-.15.19-.2.31-.05.12-.07.26-.07.41s.02.29.07.41c.05.12.12.23.2.32.09.09.19.16.31.21.12.05.25.07.4.07s.27-.02.39-.07c.12-.05.22-.12.31-.2.09-.09.15-.19.2-.31.05-.12.07-.25.07-.4s-.03-.28-.08-.41c-.05-.13-.13-.24-.21-.34-.09-.1-.2-.17-.32-.22s-.26-.08-.4-.08-.26.03-.38.08Z"/><path d="M84.61,9.07v.55l-.65.98c-.04.06-.07.1-.1.15-.03.04-.06.08-.09.13s-.06.09-.09.13-.06.09-.09.15c.19.02.37.08.52.18s.29.21.41.35c.12.14.21.3.27.48s.09.38.09.59c0,.24-.04.47-.13.67-.08.2-.2.38-.36.52-.15.14-.34.26-.54.34s-.44.12-.69.12c-.21,0-.4-.03-.58-.08-.18-.05-.35-.13-.49-.23-.15-.1-.28-.22-.39-.37-.11-.14-.2-.31-.26-.49l.63-.31c.08.24.22.44.41.58.19.14.42.21.67.21.15,0,.28-.02.4-.07.12-.05.23-.11.31-.2.09-.09.15-.19.2-.31.05-.12.07-.26.07-.41s-.03-.29-.08-.42c-.06-.13-.13-.23-.22-.32-.09-.09-.21-.16-.34-.21-.13-.05-.28-.08-.44-.08h-.35l-.08-.44.72-1.07s.06-.09.09-.12c.03-.03.05-.07.08-.12s.06-.08.08-.12c.03-.03.06-.07.09-.12h-2.18v-.65h3.09Z"/><path d="M88.54,9.07v.65h-1.92l-.25,1.54c.1-.09.22-.16.36-.21.14-.05.29-.07.46-.07.25,0,.47.04.68.13.21.08.38.2.53.35.15.15.27.33.35.54.08.21.12.44.12.69s-.04.48-.13.7c-.09.21-.21.4-.36.55-.16.15-.34.27-.56.36-.21.08-.45.13-.71.13-.2,0-.39-.03-.58-.08s-.35-.13-.5-.23c-.15-.1-.28-.22-.39-.36-.11-.14-.19-.3-.24-.48l.63-.31c.07.24.19.43.39.56.19.14.42.21.67.21.15,0,.29-.03.41-.08.13-.05.23-.12.33-.21.09-.09.16-.2.21-.33.05-.13.08-.27.08-.43s-.03-.3-.08-.44c-.05-.13-.13-.25-.22-.34s-.21-.17-.34-.22c-.13-.05-.28-.08-.44-.08-.18,0-.35.04-.49.1-.14.07-.26.17-.36.31l-.62-.15.47-2.79h2.52Z"/><path d="M92.48,10.72v.67c.11-.24.26-.42.45-.54.18-.12.4-.18.63-.18.26,0,.48.07.67.2.19.14.32.33.41.59.11-.26.27-.45.46-.59.2-.14.43-.2.7-.2.38,0,.67.12.88.37.21.25.31.61.31,1.07v2.25h-.7v-2.16c0-.29-.07-.52-.2-.69-.13-.17-.31-.25-.54-.25-.12,0-.22.02-.32.07-.1.05-.18.11-.26.2-.07.09-.13.19-.16.32-.04.12-.06.26-.06.4v2.11h-.7v-2.16c0-.14-.02-.27-.06-.38-.04-.12-.09-.22-.15-.3-.06-.08-.14-.14-.23-.19-.09-.04-.2-.07-.31-.07s-.22.02-.32.07c-.1.05-.18.12-.25.21-.07.09-.12.2-.17.32-.04.12-.06.26-.06.41v2.09h-.7v-3.64h.68Z"/><path d="M98.66,10.72v.67c.11-.24.26-.42.45-.54.18-.12.4-.18.63-.18.26,0,.48.07.67.2.19.14.32.33.41.59.11-.26.27-.45.46-.59.2-.14.43-.2.7-.2.38,0,.67.12.88.37.21.25.31.61.31,1.07v2.25h-.7v-2.16c0-.29-.07-.52-.2-.69-.13-.17-.31-.25-.54-.25-.12,0-.22.02-.32.07-.1.05-.18.11-.26.2-.07.09-.13.19-.16.32-.04.12-.06.26-.06.4v2.11h-.7v-2.16c0-.14-.02-.27-.06-.38-.04-.12-.09-.22-.15-.3-.06-.08-.14-.14-.23-.19-.09-.04-.2-.07-.31-.07s-.22.02-.32.07c-.1.05-.18.12-.25.21-.07.09-.12.2-.17.32-.04.12-.06.26-.06.41v2.09h-.7v-3.64h.68Z"/><g id="LINE-3"><path d="M39.21,179.71v26.95h101.88v-26.95H39.21ZM133.95,201.54c-.01.06-.01.12-.04.18-.02.05-.06.09-.1.13-.04.03-.08.06-.12.07-.05.02-.1.02-.14.03H46.75c-.06-.01-.12-.02-.17-.04-.05-.03-.1-.07-.14-.11-.03-.04-.05-.08-.07-.12-.01-.04-.02-.09-.02-.14v-16.71c.01-.06.02-.12.04-.18.02-.05.06-.09.11-.13.03-.03.07-.06.11-.07.05-.02.1-.02.14-.03h86.8c.06.01.12.02.17.04.05.03.1.07.14.11.03.04.05.08.07.12,0,.04.02.09.02.14v16.71Z" class="cls-2"/><path d="M133.95,184.83v16.71c-.01.06-.01.12-.04.18-.02.05-.06.09-.1.13-.04.03-.08.06-.12.07-.05.02-.1.02-.14.03H46.75c-.06-.01-.12-.02-.17-.04-.05-.03-.1-.07-.14-.11-.03-.04-.05-.08-.07-.12-.01-.04-.02-.09-.02-.14v-16.71c.01-.06.02-.12.04-.18.02-.05.06-.09.11-.13.03-.03.07-.06.11-.07.05-.02.1-.02.14-.03h86.8c.06.01.12.02.17.04.05.03.1.07.14.11.03.04.05.08.07.12,0,.04.02.09.02.14Z" class="cls-2"/></g><g id="SPLINE"><path d="M141.09,88.62v71.52H39.21v-71.52h14.81c.14,0,.27-.07.34-.19,5.37-8.55,19.38-14.65,35.82-14.65s30.44,6.1,35.81,14.65c.07.12.2.19.34.19h14.76Z" class="cls-2"/></g><rect ry=".07" rx=".07" height="202.42" width="12.15" y="83.22" x="27.06" class="cls-2"/><rect ry=".07" rx=".07" height="202.42" width="12.15" y="83.22" x="141.09" class="cls-2"/><g id="SPLINE-2"><path d="M186.98,83.22v-9.44h1.35v.28c0,.09,0,.21,0,.34v8.81" class="cls-2"/></g><rect ry=".07" rx=".07" height="202.42" width="12.14" y="83.22" x="181.58" class="cls-2"/><use xlink:href="#fundo_transparente" height="288" width="531.27"/><g id="ARC-3"><path d="M362.3,33.29c.07,0,.12.05.12.12v11.9c0,.07-.05.12-.12.12h-11.9c-.07,0-.12-.05-.12-.12v-11.9c0-.07.05-.12.12-.12h11.9" class="cls-2"/></g><g id="ARC-4"><path d="M248.27,33.29c.07,0,.12.05.12.12v11.9c0,.07-.05.12-.12.12h-11.9c-.07,0-.12-.05-.12-.12v-11.9c0-.07.05-.12.12-.12h11.9" class="cls-2"/></g><g id="LINE-4"><line y2="40.04" x2="263.55" y1="38.69" x1="263.55" class="cls-2"/></g><g id="LINE-5"><line y2="38.69" x2="335.18" y1="40.04" x1="335.18" class="cls-2"/></g><rect height="1.35" width="101.88" y="38.69" x="248.4" class="cls-2"/><g id="SPLINE-3"><path d="M350.28,88.62v71.52h-101.88v-71.52h14.81c.14,0,.27-.07.34-.19,5.37-8.55,19.38-14.65,35.82-14.65s30.44,6.1,35.81,14.65c.07.12.2.19.34.19h14.76Z" class="cls-2"/></g><rect ry=".07" rx=".07" height="202.42" width="12.15" y="83.22" x="236.25" class="cls-2"/><rect ry=".07" rx=".07" height="202.42" width="12.15" y="83.22" x="350.28" class="cls-2"/><g id="SPLINE-4"><path d="M396.17,83.22v-9.44h1.35v.28c0,.09,0,.21,0,.34v8.81" class="cls-2"/></g><rect ry=".07" rx=".07" height="202.42" width="12.14" y="83.22" x="390.77" class="cls-2"/></g></g></g></svg>