<svg viewBox="0 0 531.27 288" xmlns:xlink="http://www.w3.org/1999/xlink" xmlns="http://www.w3.org/2000/svg" id="Camada_2"><defs><style>.cls-1,.cls-2{fill:none;}.cls-3{fill:#f1efea;}.cls-2{stroke:#12100b;stroke-linecap:round;stroke-linejoin:round;stroke-width:.3px;}.cls-4{fill:#1d1d1b;}.cls-5{fill:#12100b;}</style><symbol viewBox="0 0 531.27 288" id="fundo_transparente"><rect height="288" width="531.27" x="0" class="cls-1"/></symbol></defs><g id="Golf"><g id="Campo_de_Golf"><g id="sand_bottle_box_Palmer"><use xlink:href="#fundo_transparente" height="288" width="531.27"/><path d="M342.68,204.48v78.83c0,.84.68,1.52,1.52,1.52h166.77c.84,0,1.52-.68,1.52-1.52v-78.83c0-.84-.68-1.52-1.52-1.52h-166.77c-.84,0-1.52.68-1.52,1.52ZM470.64,216.24c3.98,0,7.2,3.22,7.2,7.2s-3.22,7.2-7.2,7.2-7.2-3.22-7.2-7.2,3.22-7.2,7.2-7.2ZM449.11,216.24c3.98,0,7.2,3.22,7.2,7.2s-3.22,7.2-7.2,7.2-7.2-3.22-7.2-7.2,3.22-7.2,7.2-7.2ZM427.58,216.24c3.98,0,7.2,3.22,7.2,7.2s-3.22,7.2-7.2,7.2-7.2-3.22-7.2-7.2,3.22-7.2,7.2-7.2ZM406.05,216.24c3.98,0,7.2,3.22,7.2,7.2s-3.22,7.2-7.2,7.2-7.2-3.22-7.2-7.2,3.22-7.2,7.2-7.2ZM384.52,216.24c3.98,0,7.2,3.22,7.2,7.2s-3.22,7.2-7.2,7.2-7.2-3.22-7.2-7.2,3.22-7.2,7.2-7.2ZM362.98,216.24c3.98,0,7.2,3.22,7.2,7.2s-3.22,7.2-7.2,7.2-7.2-3.22-7.2-7.2,3.22-7.2,7.2-7.2ZM362.98,271.55c-3.98,0-7.2-3.22-7.2-7.2s3.22-7.2,7.2-7.2,7.2,3.22,7.2,7.2-3.22,7.2-7.2,7.2ZM366.55,243.89c0-3.98,3.22-7.2,7.2-7.2s7.2,3.22,7.2,7.2-3.22,7.2-7.2,7.2-7.2-3.22-7.2-7.2ZM384.52,271.55c-3.98,0-7.2-3.22-7.2-7.2s3.22-7.2,7.2-7.2,7.2,3.22,7.2,7.2-3.22,7.2-7.2,7.2ZM388.08,243.89c0-3.98,3.22-7.2,7.2-7.2s7.2,3.22,7.2,7.2-3.22,7.2-7.2,7.2-7.2-3.22-7.2-7.2ZM406.05,271.55c-3.98,0-7.2-3.22-7.2-7.2s3.22-7.2,7.2-7.2,7.2,3.22,7.2,7.2-3.22,7.2-7.2,7.2ZM409.61,243.89c0-3.98,3.22-7.2,7.2-7.2s7.2,3.22,7.2,7.2-3.22,7.2-7.2,7.2-7.2-3.22-7.2-7.2ZM427.58,271.55c-3.98,0-7.2-3.22-7.2-7.2s3.22-7.2,7.2-7.2,7.2,3.22,7.2,7.2-3.22,7.2-7.2,7.2ZM431.14,243.89c0-3.98,3.22-7.2,7.2-7.2s7.2,3.22,7.2,7.2-3.22,7.2-7.2,7.2-7.2-3.22-7.2-7.2ZM449.11,271.55c-3.98,0-7.2-3.22-7.2-7.2s3.22-7.2,7.2-7.2,7.2,3.22,7.2,7.2-3.22,7.2-7.2,7.2ZM452.68,243.89c0-3.98,3.22-7.2,7.2-7.2s7.2,3.22,7.2,7.2-3.22,7.2-7.2,7.2-7.2-3.22-7.2-7.2ZM470.64,271.55c-3.98,0-7.2-3.22-7.2-7.2s3.22-7.2,7.2-7.2,7.2,3.22,7.2,7.2-3.22,7.2-7.2,7.2ZM474.21,243.89c0-3.98,3.22-7.2,7.2-7.2s7.2,3.22,7.2,7.2-3.22,7.2-7.2,7.2-7.2-3.22-7.2-7.2ZM492.17,271.55c-3.98,0-7.2-3.22-7.2-7.2s3.22-7.2,7.2-7.2,7.2,3.22,7.2,7.2-3.22,7.2-7.2,7.2ZM492.17,230.64c-3.98,0-7.2-3.22-7.2-7.2s3.22-7.2,7.2-7.2,7.2,3.22,7.2,7.2-3.22,7.2-7.2,7.2Z" class="cls-2"/><path d="M362.98,256.2c-4.49,0-8.15,3.66-8.15,8.15s3.66,8.15,8.15,8.15,8.15-3.66,8.15-8.15-3.66-8.15-8.15-8.15Z" class="cls-2"/><path d="M492.17,215.29c-4.49,0-8.15,3.66-8.15,8.15s3.66,8.15,8.15,8.15,8.15-3.66,8.15-8.15-3.66-8.15-8.15-8.15Z" class="cls-2"/><path d="M427.58,215.29c-4.49,0-8.15,3.66-8.15,8.15s3.66,8.15,8.15,8.15,8.15-3.66,8.15-8.15-3.66-8.15-8.15-8.15Z" class="cls-2"/><path d="M406.05,215.29c-4.49,0-8.15,3.66-8.15,8.15s3.66,8.15,8.15,8.15,8.15-3.66,8.15-8.15-3.66-8.15-8.15-8.15Z" class="cls-2"/><path d="M384.52,215.29c-4.49,0-8.15,3.66-8.15,8.15s3.66,8.15,8.15,8.15,8.15-3.66,8.15-8.15-3.66-8.15-8.15-8.15Z" class="cls-2"/><path d="M362.98,215.29c-4.49,0-8.15,3.66-8.15,8.15s3.66,8.15,8.15,8.15,8.15-3.66,8.15-8.15-3.66-8.15-8.15-8.15Z" class="cls-2"/><path d="M470.64,215.29c-4.49,0-8.15,3.66-8.15,8.15s3.66,8.15,8.15,8.15,8.15-3.66,8.15-8.15-3.66-8.15-8.15-8.15Z" class="cls-2"/><path d="M449.11,215.29c-4.49,0-8.15,3.66-8.15,8.15s3.66,8.15,8.15,8.15,8.15-3.66,8.15-8.15-3.66-8.15-8.15-8.15Z" class="cls-2"/><path d="M416.81,235.75c-4.49,0-8.15,3.66-8.15,8.15s3.66,8.15,8.15,8.15,8.15-3.66,8.15-8.15-3.66-8.15-8.15-8.15Z" class="cls-2"/><path d="M395.28,235.75c-4.49,0-8.15,3.66-8.15,8.15s3.66,8.15,8.15,8.15,8.15-3.66,8.15-8.15-3.66-8.15-8.15-8.15Z" class="cls-2"/><path d="M373.75,235.75c-4.49,0-8.15,3.66-8.15,8.15s3.66,8.15,8.15,8.15,8.15-3.66,8.15-8.15-3.66-8.15-8.15-8.15Z" class="cls-2"/><path d="M438.34,235.75c-4.49,0-8.15,3.66-8.15,8.15s3.66,8.15,8.15,8.15,8.15-3.66,8.15-8.15-3.66-8.15-8.15-8.15Z" class="cls-2"/><path d="M481.41,235.75c-4.49,0-8.15,3.66-8.15,8.15s3.66,8.15,8.15,8.15,8.15-3.66,8.15-8.15-3.66-8.15-8.15-8.15Z" class="cls-2"/><path d="M459.88,235.75c-4.49,0-8.15,3.66-8.15,8.15s3.66,8.15,8.15,8.15,8.15-3.66,8.15-8.15-3.66-8.15-8.15-8.15Z" class="cls-2"/><path d="M492.17,256.2c-4.49,0-8.15,3.66-8.15,8.15s3.66,8.15,8.15,8.15,8.15-3.66,8.15-8.15-3.66-8.15-8.15-8.15Z" class="cls-2"/><path d="M470.64,256.2c-4.49,0-8.15,3.66-8.15,8.15s3.66,8.15,8.15,8.15,8.15-3.66,8.15-8.15-3.66-8.15-8.15-8.15Z" class="cls-2"/><path d="M449.11,256.2c-4.49,0-8.15,3.66-8.15,8.15s3.66,8.15,8.15,8.15,8.15-3.66,8.15-8.15-3.66-8.15-8.15-8.15Z" class="cls-2"/><path d="M427.58,256.2c-4.49,0-8.15,3.66-8.15,8.15s3.66,8.15,8.15,8.15,8.15-3.66,8.15-8.15-3.66-8.15-8.15-8.15Z" class="cls-2"/><path d="M406.05,256.2c-4.49,0-8.15,3.66-8.15,8.15s3.66,8.15,8.15,8.15,8.15-3.66,8.15-8.15-3.66-8.15-8.15-8.15Z" class="cls-2"/><path d="M384.52,256.2c-4.49,0-8.15,3.66-8.15,8.15s3.66,8.15,8.15,8.15,8.15-3.66,8.15-8.15-3.66-8.15-8.15-8.15Z" class="cls-2"/><line y2="163.81" x2="18.09" y1="284.8" x1="18.09" class="cls-2"/><rect height=".3" width="1.95" y="284.65" x="17.11" class="cls-5"/><rect height=".3" width="1.95" y="163.66" x="17.11" class="cls-5"/><path d="M14.11,236.91c-.07.22-.17.4-.31.56-.13.15-.29.28-.47.36s-.38.13-.6.13c-.16,0-.31-.02-.45-.07-.15-.05-.28-.11-.4-.2-.12-.09-.22-.19-.3-.31s-.14-.25-.18-.4c-.05.14-.12.25-.2.36-.08.1-.17.19-.27.27s-.21.13-.33.17c-.12.04-.25.06-.38.06-.21,0-.39-.04-.56-.12-.17-.08-.32-.2-.44-.34-.13-.14-.22-.32-.29-.52-.07-.2-.1-.42-.1-.66s.03-.46.1-.66c.07-.2.17-.37.29-.52.12-.15.27-.26.44-.35.17-.08.36-.13.57-.13.13,0,.26.02.38.06.12.04.24.1.34.17.1.07.19.16.27.27.08.1.14.22.19.35.04-.15.1-.28.18-.4s.19-.22.31-.3c.12-.08.25-.15.4-.2.14-.05.29-.07.45-.07.21,0,.41.04.6.13.18.09.34.21.47.36.13.15.24.34.31.56.07.22.11.46.11.72s-.04.5-.11.72ZM9.55,236.55c.04.11.09.2.16.28.07.08.15.14.26.18s.21.07.33.07c.11,0,.22-.02.32-.07.1-.04.19-.11.26-.19.07-.08.13-.17.17-.28s.06-.23.06-.35-.02-.25-.06-.35c-.04-.1-.1-.2-.17-.28s-.16-.14-.26-.19c-.1-.04-.21-.07-.32-.07-.12,0-.23.02-.33.07-.1.04-.19.11-.26.19-.07.08-.12.17-.16.28-.04.11-.06.23-.06.36s.02.24.06.35ZM13.48,235.78c-.04-.13-.11-.23-.19-.32-.08-.09-.18-.16-.29-.21-.11-.05-.24-.08-.37-.08s-.26.03-.37.08c-.11.05-.21.12-.29.21-.08.09-.15.2-.2.33-.05.13-.07.26-.07.41s.02.28.07.41c.04.13.11.23.19.33s.18.16.3.21c.11.05.24.07.37.07.14,0,.27-.02.38-.07.11-.05.21-.12.29-.21.08-.09.14-.2.19-.33.04-.13.07-.26.07-.41s-.02-.29-.07-.41Z"/><path d="M9.02,231c.13-.25.32-.47.55-.65.23-.18.52-.32.85-.42.33-.1.69-.15,1.08-.15s.76.05,1.1.15.62.24.86.42c.24.18.43.4.56.65.13.25.2.52.2.83s-.07.57-.2.82-.32.47-.56.65c-.24.18-.53.32-.86.42-.33.1-.7.15-1.1.15s-.75-.05-1.08-.15c-.33-.1-.61-.24-.85-.42-.24-.18-.42-.4-.55-.65-.13-.25-.2-.53-.2-.83s.07-.58.2-.83ZM9.66,232.35c.1.16.23.29.41.41.18.11.38.2.63.27.24.07.51.1.81.1s.57-.03.82-.09c.25-.06.46-.15.64-.27.18-.12.32-.25.42-.41.1-.16.15-.33.15-.52s-.05-.37-.15-.53c-.1-.16-.24-.3-.42-.41-.18-.11-.39-.2-.64-.27-.25-.06-.52-.09-.82-.09s-.56.03-.81.09c-.25.06-.46.15-.63.26-.17.11-.31.25-.41.41-.1.16-.15.34-.15.53s.05.37.15.52Z"/><path d="M9.02,226.37c.13-.25.32-.47.55-.65.23-.18.52-.32.85-.42.33-.1.69-.15,1.08-.15s.76.05,1.1.15.62.24.86.42c.24.18.43.4.56.65.13.25.2.52.2.83s-.07.57-.2.82-.32.47-.56.65c-.24.18-.53.32-.86.42-.33.1-.7.15-1.1.15s-.75-.05-1.08-.15c-.33-.1-.61-.24-.85-.42-.24-.18-.42-.4-.55-.65-.13-.25-.2-.53-.2-.83s.07-.58.2-.83ZM9.66,227.72c.1.16.23.29.41.41.18.11.38.2.63.27.24.07.51.1.81.1s.57-.03.82-.09c.25-.06.46-.15.64-.27.18-.12.32-.25.42-.41.1-.16.15-.33.15-.52s-.05-.37-.15-.53c-.1-.16-.24-.3-.42-.41-.18-.11-.39-.2-.64-.27-.25-.06-.52-.09-.82-.09s-.56.03-.81.09c-.25.06-.46.15-.63.26-.17.11-.31.25-.41.41-.1.16-.15.34-.15.53s.05.37.15.52Z"/><path d="M10.52,221.54h.67c-.24-.11-.42-.26-.54-.45-.12-.18-.18-.4-.18-.63,0-.26.07-.48.2-.67.14-.19.33-.32.59-.41-.26-.11-.45-.27-.59-.46-.14-.2-.2-.43-.2-.7,0-.38.12-.67.37-.88.25-.21.61-.31,1.07-.31h2.25v.7h-2.16c-.29,0-.52.07-.69.2-.17.13-.25.31-.25.54,0,.12.02.22.07.32.05.1.11.18.2.26.09.07.19.13.32.16.12.04.26.06.4.06h2.11v.7h-2.16c-.14,0-.27.02-.38.06-.12.04-.22.09-.3.15-.08.06-.14.14-.19.23-.04.09-.07.2-.07.31s.02.22.07.32c.05.1.12.18.21.25.09.07.2.12.32.17.12.04.26.06.41.06h2.09v.7h-3.64v-.68Z"/><path d="M10.52,215.35h.67c-.24-.11-.42-.26-.54-.45-.12-.18-.18-.4-.18-.63,0-.26.07-.48.2-.67.14-.19.33-.32.59-.41-.26-.11-.45-.27-.59-.46-.14-.2-.2-.43-.2-.7,0-.38.12-.67.37-.88.25-.21.61-.31,1.07-.31h2.25v.7h-2.16c-.29,0-.52.07-.69.2-.17.13-.25.31-.25.54,0,.12.02.22.07.32.05.1.11.18.2.26.09.07.19.13.32.16.12.04.26.06.4.06h2.11v.7h-2.16c-.14,0-.27.02-.38.06-.12.04-.22.09-.3.15-.08.06-.14.14-.19.23-.04.09-.07.2-.07.31s.02.22.07.32c.05.1.12.18.21.25.09.07.2.12.32.17.12.04.26.06.41.06h2.09v.7h-3.64v-.68Z"/><line y2="203.11" x2="327.34" y1="284.68" x1="327.34" class="cls-2"/><rect height=".3" width="1.95" y="284.53" x="326.37" class="cls-5"/><rect height=".3" width="1.95" y="202.96" x="326.37" class="cls-5"/><path d="M318.13,254.25h.65v1.92l1.54.25c-.09-.1-.16-.22-.21-.36-.05-.14-.07-.29-.07-.46,0-.25.04-.47.13-.68.08-.21.2-.38.35-.53.15-.15.33-.27.54-.35.21-.08.44-.12.69-.12s.48.04.7.13c.21.09.4.21.55.36.15.16.27.34.36.56.08.21.13.45.13.71,0,.2-.03.39-.08.58s-.13.35-.23.5c-.1.15-.22.28-.36.39-.14.11-.3.19-.48.24l-.31-.63c.24-.07.43-.19.56-.39.14-.19.21-.42.21-.67,0-.15-.03-.29-.08-.41-.05-.13-.12-.23-.21-.33-.09-.09-.2-.16-.33-.21-.13-.05-.27-.08-.43-.08s-.3.03-.44.08c-.13.05-.25.13-.34.22s-.17.21-.22.34c-.05.13-.08.28-.08.44,0,.18.04.35.1.49.07.14.17.26.31.36l-.15.62-2.79-.47v-2.52Z"/><path d="M318.13,250.32h5.29v.73h-4.36s.08.04.1.06c.03.02.06.04.09.07l2.02,1.35s.06.04.08.05.05.03.08.06v-3.2h.64v3.98h-.59l-3.35-2.22v-.87Z"/><path d="M318.28,246.14c.13-.25.32-.47.55-.65.23-.18.52-.32.85-.42.33-.1.69-.15,1.08-.15s.76.05,1.1.15.62.24.86.42c.24.18.43.4.56.65.13.25.2.52.2.83s-.07.57-.2.82-.32.47-.56.65c-.24.18-.53.32-.86.42-.33.1-.7.15-1.1.15s-.75-.05-1.08-.15c-.33-.1-.61-.24-.85-.42-.24-.18-.42-.4-.55-.65-.13-.25-.2-.53-.2-.83s.07-.58.2-.83ZM318.91,247.49c.1.16.23.29.41.41.18.11.38.2.63.27.24.07.51.1.81.1s.57-.03.82-.09c.25-.06.46-.15.64-.27.18-.12.32-.25.42-.41.1-.16.15-.33.15-.52s-.05-.37-.15-.53c-.1-.16-.24-.3-.42-.41-.18-.11-.39-.2-.64-.27-.25-.06-.52-.09-.82-.09s-.56.03-.81.09c-.25.06-.46.15-.63.26-.17.11-.31.25-.41.41-.1.16-.15.34-.15.53s.05.37.15.52Z"/><path d="M319.78,241.31h.67c-.24-.11-.42-.26-.54-.45-.12-.18-.18-.4-.18-.63,0-.26.07-.48.2-.67.14-.19.33-.32.59-.41-.26-.11-.45-.27-.59-.46-.14-.2-.2-.43-.2-.7,0-.38.12-.67.37-.88.25-.21.61-.31,1.07-.31h2.25v.7h-2.16c-.29,0-.52.07-.69.2-.17.13-.25.31-.25.54,0,.12.02.22.07.32.05.1.11.18.2.26.09.07.19.13.32.16.12.04.26.06.4.06h2.11v.7h-2.16c-.14,0-.27.02-.38.06-.12.04-.22.09-.3.15-.08.06-.14.14-.19.23-.04.09-.07.2-.07.31s.02.22.07.32c.05.1.12.18.21.25.09.07.2.12.32.17.12.04.26.06.41.06h2.09v.7h-3.64v-.68Z"/><path d="M319.78,235.13h.67c-.24-.11-.42-.26-.54-.45-.12-.18-.18-.4-.18-.63,0-.26.07-.48.2-.67.14-.19.33-.32.59-.41-.26-.11-.45-.27-.59-.46-.14-.2-.2-.43-.2-.7,0-.38.12-.67.37-.88.25-.21.61-.31,1.07-.31h2.25v.7h-2.16c-.29,0-.52.07-.69.2-.17.13-.25.31-.25.54,0,.12.02.22.07.32.05.1.11.18.2.26.09.07.19.13.32.16.12.04.26.06.4.06h2.11v.7h-2.16c-.14,0-.27.02-.38.06-.12.04-.22.09-.3.15-.08.06-.14.14-.19.23-.04.09-.07.2-.07.31s.02.22.07.32c.05.1.12.18.21.25.09.07.2.12.32.17.12.04.26.06.41.06h2.09v.7h-3.64v-.68Z"/><line y2="185.12" x2="512.33" y1="185.12" x1="342.83" class="cls-2"/><rect height="1.95" width=".3" y="184.15" x="342.68" class="cls-5"/><rect height="1.95" width=".3" y="184.15" x="512.18" class="cls-5"/><path d="M415.44,175.91v5.29h-.72v-4.54l-1.3.64v-.73l1.36-.67h.67Z"/><path d="M418.27,175.91v5.29h-.72v-4.54l-1.3.64v-.73l1.36-.67h.67Z"/><path d="M421.45,175.98c.21.08.39.19.54.33.15.14.27.31.35.51.08.2.13.42.13.67,0,.14-.02.28-.05.42-.03.14-.08.28-.15.41-.07.14-.16.27-.27.42-.11.14-.24.29-.39.45l-1.31,1.35h2.29v.67h-3.32v-.59l1.79-1.85c.12-.12.22-.23.3-.33.08-.1.15-.21.2-.3.05-.1.09-.19.11-.29.02-.09.03-.19.03-.29,0-.15-.02-.28-.07-.4-.04-.12-.11-.23-.2-.32-.09-.09-.19-.16-.3-.21-.11-.05-.24-.07-.39-.07-.25,0-.47.08-.65.23-.18.15-.31.36-.39.63l-.67-.23c.12-.42.32-.74.62-.97s.66-.34,1.1-.34c.25,0,.48.04.69.12Z"/><path d="M426,176.06c.25.13.47.32.65.55.18.23.32.52.42.85.1.33.15.69.15,1.08s-.05.76-.15,1.1-.24.62-.42.86c-.18.24-.4.43-.65.56-.25.13-.52.2-.83.2s-.57-.07-.82-.2-.47-.32-.65-.56c-.18-.24-.32-.53-.42-.86-.1-.33-.15-.7-.15-1.1s.05-.75.15-1.08c.1-.33.24-.61.42-.85.18-.24.4-.42.65-.55.25-.13.53-.2.83-.2s.58.07.83.2ZM424.65,176.69c-.16.1-.29.23-.41.41-.11.18-.2.38-.27.63-.07.24-.1.51-.1.81s.03.57.09.82c.06.25.15.46.27.64.12.18.25.32.41.42.16.1.33.15.52.15s.37-.05.53-.15c.16-.1.3-.24.41-.42.11-.18.2-.39.27-.64.06-.25.09-.52.09-.82s-.03-.56-.09-.81c-.06-.25-.15-.46-.26-.63-.11-.17-.25-.31-.41-.41-.16-.1-.34-.15-.53-.15s-.37.05-.52.15Z"/><path d="M430.83,177.56v.67c.11-.24.26-.42.45-.54.18-.12.4-.18.63-.18.26,0,.48.07.67.2.19.14.32.33.41.59.11-.26.27-.45.46-.59.2-.14.43-.2.7-.2.38,0,.67.12.88.37.21.25.31.61.31,1.07v2.25h-.7v-2.16c0-.29-.07-.52-.2-.69-.13-.17-.31-.25-.54-.25-.12,0-.22.02-.32.07-.1.05-.18.11-.26.2-.07.09-.13.19-.16.32-.04.12-.06.26-.06.4v2.11h-.7v-2.16c0-.14-.02-.27-.06-.38-.04-.12-.09-.22-.15-.3-.06-.08-.14-.14-.23-.19-.09-.04-.2-.07-.31-.07s-.22.02-.32.07c-.1.05-.18.12-.25.21-.07.09-.12.2-.17.32-.04.12-.06.26-.06.41v2.09h-.7v-3.64h.68Z"/><path d="M437.01,177.56v.67c.11-.24.26-.42.45-.54.18-.12.4-.18.63-.18.26,0,.48.07.67.2.19.14.32.33.41.59.11-.26.27-.45.46-.59.2-.14.43-.2.7-.2.38,0,.67.12.88.37.21.25.31.61.31,1.07v2.25h-.7v-2.16c0-.29-.07-.52-.2-.69-.13-.17-.31-.25-.54-.25-.12,0-.22.02-.32.07-.1.05-.18.11-.26.2-.07.09-.13.19-.16.32-.04.12-.06.26-.06.4v2.11h-.7v-2.16c0-.14-.02-.27-.06-.38-.04-.12-.09-.22-.15-.3-.06-.08-.14-.14-.23-.19-.09-.04-.2-.07-.31-.07s-.22.02-.32.07c-.1.05-.18.12-.25.21-.07.09-.12.2-.17.32-.04.12-.06.26-.06.41v2.09h-.7v-3.64h.68Z"/><path d="M116.15,239.08c51.62,0,71.43-8.86,71.43-19.78v-54.72s-142.51,0-142.51,0v54.72c0,10.92,19.46,19.78,71.08,19.78Z" class="cls-2"/><rect height="120.4" width="13.64" y="164.55" x="31.42" class="cls-2"/><rect height="120.4" width="13.64" y="164.55" x="187.58" class="cls-2"/><rect height="120.4" width="1.21" y="164.55" x="37.64" class="cls-2"/><rect height="120.4" width="1.21" y="164.55" x="193.79" class="cls-2"/><rect height=".9" width="169.8" y="163.66" x="31.42" class="cls-2"/><line y2="165.39" x2="51.01" y1="227.48" x1="51.01" class="cls-2"/><line y2="230.79" x2="56.94" y1="165.39" x1="56.94" class="cls-2"/><line y2="165.39" x2="62.88" y1="232.91" x1="62.88" class="cls-2"/><line y2="234.43" x2="68.82" y1="165.39" x1="68.82" class="cls-2"/><line y2="165.39" x2="74.76" y1="235.57" x1="74.76" class="cls-2"/><line y2="236.44" x2="80.69" y1="165.39" x1="80.69" class="cls-2"/><line y2="165.39" x2="86.63" y1="237.09" x1="86.63" class="cls-2"/><line y2="237.58" x2="92.57" y1="165.39" x1="92.57" class="cls-2"/><line y2="165.39" x2="98.51" y1="237.93" x1="98.51" class="cls-2"/><line y2="238.15" x2="104.45" y1="165.39" x1="104.45" class="cls-2"/><line y2="165.39" x2="110.38" y1="238.28" x1="110.38" class="cls-2"/><line y2="238.32" x2="116.33" y1="165.39" x1="116.33" class="cls-2"/><line y2="165.39" x2="122.26" y1="238.28" x1="122.26" class="cls-2"/><line y2="238.15" x2="128.2" y1="165.39" x1="128.2" class="cls-2"/><line y2="165.39" x2="134.13" y1="237.92" x1="134.13" class="cls-2"/><line y2="237.57" x2="140.08" y1="165.39" x1="140.08" class="cls-2"/><line y2="165.39" x2="146.01" y1="237.08" x1="146.01" class="cls-2"/><line y2="236.43" x2="151.95" y1="165.39" x1="151.95" class="cls-2"/><line y2="165.39" x2="157.89" y1="235.57" x1="157.89" class="cls-2"/><line y2="234.43" x2="163.82" y1="165.39" x1="163.82" class="cls-2"/><line y2="165.39" x2="181.64" y1="227.4" x1="181.64" class="cls-2"/><line y2="165.39" x2="169.77" y1="232.89" x1="169.77" class="cls-2"/><line y2="230.75" x2="175.7" y1="165.39" x1="175.7" class="cls-2"/><path d="M116.32,213.31c-12.61,0-22.86-6.2-22.86-13.81s10.26-13.81,22.86-13.81,22.86,6.2,22.86,13.81-10.26,13.81-22.86,13.81Z" class="cls-3"/><path d="M116.32,212.55c-12.19,0-22.1-5.86-22.1-13.05s9.92-13.05,22.1-13.05,22.1,5.86,22.1,13.05-9.92,13.05-22.1,13.05Z" class="cls-2"/><path d="M116.32,212.02c-11.9,0-21.57-5.62-21.57-12.52s9.68-12.52,21.57-12.52,21.57,5.62,21.57,12.52-9.68,12.52-21.57,12.52ZM116.32,187.2c-11.77,0-21.35,5.52-21.35,12.3s9.58,12.3,21.35,12.3,21.35-5.52,21.35-12.3-9.58-12.3-21.35-12.3Z" class="cls-4"/><path d="M261.94,239.08c-21.34,0-27.36-10.27-27.36-19.78v-54.72h54.58v54.72c0,9.51-6.03,19.78-27.22,19.78Z" class="cls-2"/><rect height="120.4" width="13.64" y="164.55" x="220.94" class="cls-2"/><rect height="120.4" width="1.21" y="164.55" x="227.15" class="cls-2"/><rect height="120.4" width="13.64" y="164.55" x="289.17" class="cls-2"/><rect height="120.4" width="1.21" y="164.55" x="295.38" class="cls-2"/><rect height=".9" width="81.87" y="163.66" x="220.94" class="cls-2"/><line y2="165.83" x2="283.71" y1="231.01" x1="283.71" class="cls-2"/><line y2="165.83" x2="272.79" y1="236.81" x1="272.79" class="cls-2"/><line y2="234.93" x2="278.25" y1="165.83" x1="278.25" class="cls-2"/><polyline points="261.94 237.94 261.88 237.94 261.88 165.83" class="cls-2"/><line y2="237.7" x2="267.33" y1="165.83" x1="267.33" class="cls-2"/><line y2="165.83" x2="250.96" y1="236.8" x1="250.96" class="cls-2"/><line y2="237.69" x2="256.42" y1="165.83" x1="256.42" class="cls-2"/><line y2="165.83" x2="240.05" y1="230.98" x1="240.05" class="cls-2"/><line y2="234.9" x2="245.5" y1="165.83" x1="245.5" class="cls-2"/></g></g></g></svg>