<svg viewBox="0 0 531.27 288" xmlns:xlink="http://www.w3.org/1999/xlink" xmlns="http://www.w3.org/2000/svg" id="Camada_2"><defs><style>.cls-1,.cls-2{fill:none;}.cls-3{fill:#12100c;}.cls-2{stroke:#12100c;stroke-linecap:round;stroke-linejoin:round;stroke-width:.3px;}</style><symbol viewBox="0 0 531.27 288" id="fundo_transparente"><rect height="288" width="531.27" x="0" class="cls-1"/></symbol></defs><g id="RePlastic"><g id="deck_apoiado_ao_solo_1000_mm"><use xlink:href="#fundo_transparente" height="288" width="531.27"/><g id="LINE"><line y2="211.04" x2="14.28" y1="281.72" x1="14.28" class="cls-2"/><rect height=".3" width="1.95" y="281.57" x="13.3" class="cls-3"/><rect height=".3" width="1.95" y="210.89" x="13.3" class="cls-3"/></g><g id="MTEXT"><path d="M4.23,259.73h5.29v.72h-4.54l.64,1.3h-.73l-.67-1.36v-.67Z"/><path d="M4.38,256.02c.13-.25.32-.47.55-.65.23-.18.52-.32.85-.42.33-.1.69-.15,1.08-.15s.76.05,1.1.15.62.24.86.42c.24.18.43.4.56.65.13.25.2.52.2.83s-.07.57-.2.82-.32.47-.56.65c-.24.18-.53.32-.86.42-.33.1-.7.15-1.1.15s-.75-.05-1.08-.15c-.33-.1-.61-.24-.85-.42-.24-.18-.42-.4-.55-.65-.13-.25-.2-.53-.2-.83s.07-.58.2-.83ZM5.01,257.37c.1.16.23.29.41.41.18.11.38.2.63.27.24.07.51.1.81.1s.57-.03.82-.09c.25-.06.46-.15.64-.27.18-.12.32-.25.42-.41.1-.16.15-.33.15-.52s-.05-.37-.15-.53c-.1-.16-.24-.3-.42-.41-.18-.11-.39-.2-.64-.27-.25-.06-.52-.09-.82-.09s-.56.03-.81.09c-.25.06-.46.15-.63.26-.17.11-.31.25-.41.41-.1.16-.15.34-.15.53s.05.37.15.52Z"/><path d="M4.38,251.38c.13-.25.32-.47.55-.65.23-.18.52-.32.85-.42.33-.1.69-.15,1.08-.15s.76.05,1.1.15.62.24.86.42c.24.18.43.4.56.65.13.25.2.52.2.83s-.07.57-.2.82-.32.47-.56.65c-.24.18-.53.32-.86.42-.33.1-.7.15-1.1.15s-.75-.05-1.08-.15c-.33-.1-.61-.24-.85-.42-.24-.18-.42-.4-.55-.65-.13-.25-.2-.53-.2-.83s.07-.58.2-.83ZM5.01,252.74c.1.16.23.29.41.41.18.11.38.2.63.27.24.07.51.1.81.1s.57-.03.82-.09c.25-.06.46-.15.64-.27.18-.12.32-.25.42-.41.1-.16.15-.33.15-.52s-.05-.37-.15-.53c-.1-.16-.24-.3-.42-.41-.18-.11-.39-.2-.64-.27-.25-.06-.52-.09-.82-.09s-.56.03-.81.09c-.25.06-.46.15-.63.26-.17.11-.31.25-.41.41-.1.16-.15.34-.15.53s.05.37.15.52Z"/><path d="M4.38,246.75c.13-.25.32-.47.55-.65.23-.18.52-.32.85-.42.33-.1.69-.15,1.08-.15s.76.05,1.1.15.62.24.86.42c.24.18.43.4.56.65.13.25.2.52.2.83s-.07.57-.2.82-.32.47-.56.65c-.24.18-.53.32-.86.42-.33.1-.7.15-1.1.15s-.75-.05-1.08-.15c-.33-.1-.61-.24-.85-.42-.24-.18-.42-.4-.55-.65-.13-.25-.2-.53-.2-.83s.07-.58.2-.83ZM5.01,248.1c.1.16.23.29.41.41.18.11.38.2.63.27.24.07.51.1.81.1s.57-.03.82-.09c.25-.06.46-.15.64-.27.18-.12.32-.25.42-.41.1-.16.15-.33.15-.52s-.05-.37-.15-.53c-.1-.16-.24-.3-.42-.41-.18-.11-.39-.2-.64-.27-.25-.06-.52-.09-.82-.09s-.56.03-.81.09c-.25.06-.46.15-.63.26-.17.11-.31.25-.41.41-.1.16-.15.34-.15.53s.05.37.15.52Z"/><path d="M5.88,241.92h.67c-.24-.11-.42-.26-.54-.45-.12-.18-.18-.4-.18-.63,0-.26.07-.48.2-.67.14-.19.33-.32.59-.41-.26-.11-.45-.27-.59-.46-.14-.2-.2-.43-.2-.7,0-.38.12-.67.37-.88.25-.21.61-.31,1.07-.31h2.25v.7h-2.16c-.29,0-.52.07-.69.2-.17.13-.25.31-.25.54,0,.12.02.22.07.32.05.1.11.18.2.26.09.07.19.13.32.16.12.04.26.06.4.06h2.11v.7h-2.16c-.14,0-.27.02-.38.06-.12.04-.22.09-.3.15-.08.06-.14.14-.19.23-.04.09-.07.2-.07.31s.02.22.07.32c.05.1.12.18.21.25.09.07.2.12.32.17.12.04.26.06.41.06h2.09v.7h-3.64v-.68Z"/><path d="M5.88,235.74h.67c-.24-.11-.42-.26-.54-.45-.12-.18-.18-.4-.18-.63,0-.26.07-.48.2-.67.14-.19.33-.32.59-.41-.26-.11-.45-.27-.59-.46-.14-.2-.2-.43-.2-.7,0-.38.12-.67.37-.88.25-.21.61-.31,1.07-.31h2.25v.7h-2.16c-.29,0-.52.07-.69.2-.17.13-.25.31-.25.54,0,.12.02.22.07.32.05.1.11.18.2.26.09.07.19.13.32.16.12.04.26.06.4.06h2.11v.7h-2.16c-.14,0-.27.02-.38.06-.12.04-.22.09-.3.15-.08.06-.14.14-.19.23-.04.09-.07.2-.07.31s.02.22.07.32c.05.1.12.18.21.25.09.07.2.12.32.17.12.04.26.06.41.06h2.09v.7h-3.64v-.68Z"/></g><polygon points="231.47 210.89 231.47 210.91 221.83 210.91 221.83 215.15 220.8 215.15 220.8 210.91 206.9 210.91 206.9 215.15 205.95 215.15 205.95 210.91 192.03 210.91 192.03 215.15 191.03 215.15 191.03 210.91 177.13 210.91 177.13 215.15 176.17 215.15 176.17 210.91 162.28 210.91 162.28 215.15 161.35 215.15 161.35 210.91 147.45 210.91 147.45 215.15 146.37 215.15 146.37 210.91 132.48 210.91 132.48 215.15 131.57 215.15 131.57 210.91 117.68 210.91 117.68 215.15 116.7 215.15 116.7 210.91 102.78 210.91 102.78 215.15 101.77 215.15 101.77 210.91 87.85 210.91 87.85 215.15 87.03 215.15 87.03 210.91 73.13 210.91 73.13 215.15 72.1 215.15 72.1 210.91 58.2 210.91 58.2 215.15 57.17 215.15 57.17 210.91 43.28 210.91 43.28 215.15 42.22 215.15 42.22 210.91 32.71 210.91 32.71 210.89 231.47 210.89" class="cls-2"/><polygon points="231.47 281.82 231.47 281.87 32.71 281.87 32.71 281.82 42.22 281.82 42.22 277.6 43.28 277.6 43.28 281.82 57.17 281.82 57.17 277.6 58.2 277.6 58.2 281.82 72.1 281.82 72.1 277.6 73.13 277.6 73.13 281.82 87.03 281.82 87.03 277.6 87.85 277.6 87.85 281.82 101.77 281.82 101.77 277.6 102.78 277.6 102.78 281.82 116.7 281.82 116.7 277.6 117.68 277.6 117.68 281.82 131.57 281.82 131.57 277.6 132.48 277.6 132.48 281.82 146.37 281.82 146.37 277.6 147.45 277.6 147.45 281.82 161.35 281.82 161.35 277.6 162.28 277.6 162.28 281.82 176.17 281.82 176.17 277.6 177.13 277.6 177.13 281.82 191.03 281.82 191.03 277.6 192.03 277.6 192.03 281.82 205.95 281.82 205.95 277.6 206.9 277.6 206.9 281.82 220.8 281.82 220.8 277.6 221.83 277.6 221.83 281.82 231.47 281.82" class="cls-2"/><rect height=".03" width="4.26" y="210.89" x="28.45" class="cls-2"/><rect height=".05" width="4.26" y="281.82" x="28.45" class="cls-2"/><rect height=".03" width="4.26" y="210.89" x="231.47" class="cls-2"/><rect height=".05" width="4.26" y="281.82" x="231.47" class="cls-2"/><rect height="70.91" width="13.77" y="210.91" x="28.45" class="cls-2"/><rect height="70.91" width="13.9" y="210.91" x="43.28" class="cls-2"/><rect height="70.91" width="13.9" y="210.91" x="58.2" class="cls-2"/><rect height="70.91" width="13.9" y="210.91" x="73.13" class="cls-2"/><rect height="70.91" width="13.92" y="210.91" x="87.85" class="cls-2"/><rect height="70.91" width="13.92" y="210.91" x="102.78" class="cls-2"/><rect height="70.91" width="13.9" y="210.91" x="117.68" class="cls-2"/><rect height="70.91" width="13.9" y="210.91" x="132.48" class="cls-2"/><rect height="70.91" width="13.9" y="210.91" x="147.45" class="cls-2"/><rect height="70.91" width="13.9" y="210.91" x="162.28" class="cls-2"/><rect height="70.91" width="13.9" y="210.91" x="177.13" class="cls-2"/><rect height="70.91" width="13.92" y="210.91" x="192.03" class="cls-2"/><rect height="70.91" width="13.9" y="210.91" x="206.9" class="cls-2"/><rect height="70.91" width="13.9" y="210.91" x="221.83" class="cls-2"/><rect height="8.55" width="207.27" y="159.82" x="28.45" class="cls-2"/><line y2="168.21" x2="32.58" y1="159.82" x1="32.58" class="cls-2"/><line y2="168.21" x2="231.4" y1="159.82" x1="231.4" class="cls-2"/><path d="M41.85,157.01h-.65v.02c0,.19-.13.34-.3.34-.15,0-.27-.14-.27-.34v-.02h-.45v.02c0,.19-.13.34-.27.34-.18,0-.3-.14-.3-.34v-.02h-.42v.02c0,.19-.13.34-.28.34s-.3-.14-.3-.34v-.02h-.43v.02c0,.19-.12.34-.3.34-.15,0-.28-.14-.28-.34v-.02h-.4v.02c0,.19-.13.34-.28.34-.17,0-.3-.14-.3-.34v-.02h-.47v.02c0,.19-.13.34-.28.34-.17,0-.3-.14-.3-.34v-.02h-.38v.02c0,.19-.15.34-.3.34s-.28-.14-.28-.34v-.02h-.47v.02c0,.19-.13.34-.27.34s-.28-.14-.28-.34v-.02h-.45v.02c0,.19-.13.34-.28.34-.18,0-.3-.14-.3-.34v-.02h-.48v.02c0,.19-.13.34-.27.34-.18,0-.3-.14-.3-.34v-.02h-.42v.02c0,.19-.13.34-.28.34-.17,0-.3-.14-.3-.34v-.02h-.43v.02c0,.19-.12.34-.3.34-.15,0-.28-.14-.28-.34v-.02h-.55c-.3,0-.52.24-.52.51v2.29h13.9v-2.29c0-.27-.23-.51-.5-.51Z" class="cls-2"/><path d="M56.63,157.01h-.65v.02c0,.19-.13.34-.3.34-.15,0-.27-.14-.27-.34v-.02h-.45v.02c0,.19-.13.34-.27.34-.18,0-.3-.14-.3-.34v-.02h-.42v.02c0,.19-.13.34-.28.34s-.3-.14-.3-.34v-.02h-.43v.02c0,.19-.12.34-.3.34-.15,0-.28-.14-.28-.34v-.02h-.4v.02c0,.19-.13.34-.28.34-.17,0-.3-.14-.3-.34v-.02h-.47v.02c0,.19-.13.34-.28.34-.17,0-.3-.14-.3-.34v-.02h-.38v.02c0,.19-.15.34-.3.34s-.28-.14-.28-.34v-.02h-.47v.02c0,.19-.13.34-.27.34s-.28-.14-.28-.34v-.02h-.45v.02c0,.19-.13.34-.28.34-.18,0-.3-.14-.3-.34v-.02h-.48v.02c0,.19-.13.34-.27.34-.18,0-.3-.14-.3-.34v-.02h-.42v.02c0,.19-.13.34-.28.34-.17,0-.3-.14-.3-.34v-.02h-.43v.02c0,.19-.12.34-.3.34-.15,0-.28-.14-.28-.34v-.02h-.55c-.3,0-.52.24-.52.51v2.29h13.9v-2.29c0-.27-.23-.51-.5-.51Z" class="cls-2"/><path d="M71.61,157.01h-.65v.02c0,.19-.13.34-.3.34-.15,0-.27-.14-.27-.34v-.02h-.45v.02c0,.19-.13.34-.27.34-.18,0-.3-.14-.3-.34v-.02h-.42v.02c0,.19-.13.34-.28.34s-.3-.14-.3-.34v-.02h-.43v.02c0,.19-.12.34-.3.34-.15,0-.28-.14-.28-.34v-.02h-.4v.02c0,.19-.13.34-.28.34-.17,0-.3-.14-.3-.34v-.02h-.47v.02c0,.19-.13.34-.28.34-.17,0-.3-.14-.3-.34v-.02h-.38v.02c0,.19-.15.34-.3.34s-.28-.14-.28-.34v-.02h-.47v.02c0,.19-.13.34-.27.34s-.28-.14-.28-.34v-.02h-.45v.02c0,.19-.13.34-.28.34-.18,0-.3-.14-.3-.34v-.02h-.48v.02c0,.19-.13.34-.27.34-.18,0-.3-.14-.3-.34v-.02h-.42v.02c0,.19-.13.34-.28.34-.17,0-.3-.14-.3-.34v-.02h-.43v.02c0,.19-.12.34-.3.34-.15,0-.28-.14-.28-.34v-.02h-.55c-.3,0-.52.24-.52.51v2.29h13.9v-2.29c0-.27-.23-.51-.5-.51Z" class="cls-2"/><path d="M86.45,157.01h-.65v.02c0,.19-.13.34-.3.34-.15,0-.27-.14-.27-.34v-.02h-.45v.02c0,.19-.13.34-.27.34-.18,0-.3-.14-.3-.34v-.02h-.42v.02c0,.19-.13.34-.28.34s-.3-.14-.3-.34v-.02h-.43v.02c0,.19-.12.34-.3.34-.15,0-.28-.14-.28-.34v-.02h-.4v.02c0,.19-.13.34-.28.34-.17,0-.3-.14-.3-.34v-.02h-.47v.02c0,.19-.13.34-.28.34-.17,0-.3-.14-.3-.34v-.02h-.38v.02c0,.19-.15.34-.3.34s-.28-.14-.28-.34v-.02h-.47v.02c0,.19-.13.34-.27.34s-.28-.14-.28-.34v-.02h-.45v.02c0,.19-.13.34-.28.34-.18,0-.3-.14-.3-.34v-.02h-.48v.02c0,.19-.13.34-.27.34-.18,0-.3-.14-.3-.34v-.02h-.42v.02c0,.19-.13.34-.28.34-.17,0-.3-.14-.3-.34v-.02h-.43v.02c0,.19-.12.34-.3.34-.15,0-.28-.14-.28-.34v-.02h-.55c-.3,0-.52.24-.52.51v2.29h13.9v-2.29c0-.27-.23-.51-.5-.51Z" class="cls-2"/><path d="M101.32,157.01h-.65v.02c0,.19-.13.34-.3.34-.15,0-.27-.14-.27-.34v-.02h-.45v.02c0,.19-.13.34-.27.34-.18,0-.3-.14-.3-.34v-.02h-.42v.02c0,.19-.13.34-.28.34s-.3-.14-.3-.34v-.02h-.43v.02c0,.19-.12.34-.3.34-.15,0-.28-.14-.28-.34v-.02h-.4v.02c0,.19-.13.34-.28.34-.17,0-.3-.14-.3-.34v-.02h-.47v.02c0,.19-.13.34-.28.34-.17,0-.3-.14-.3-.34v-.02h-.38v.02c0,.19-.15.34-.3.34s-.28-.14-.28-.34v-.02h-.47v.02c0,.19-.13.34-.27.34s-.28-.14-.28-.34v-.02h-.45v.02c0,.19-.13.34-.28.34-.18,0-.3-.14-.3-.34v-.02h-.48v.02c0,.19-.13.34-.27.34-.18,0-.3-.14-.3-.34v-.02h-.42v.02c0,.19-.13.34-.28.34-.17,0-.3-.14-.3-.34v-.02h-.43v.02c0,.19-.12.34-.3.34-.15,0-.28-.14-.28-.34v-.02h-.55c-.3,0-.52.24-.52.51v2.29h13.9v-2.29c0-.27-.23-.51-.5-.51Z" class="cls-2"/><path d="M116.09,157.01h-.65v.02c0,.19-.13.34-.3.34-.15,0-.27-.14-.27-.34v-.02h-.45v.02c0,.19-.13.34-.27.34-.18,0-.3-.14-.3-.34v-.02h-.42v.02c0,.19-.13.34-.28.34s-.3-.14-.3-.34v-.02h-.43v.02c0,.19-.12.34-.3.34-.15,0-.28-.14-.28-.34v-.02h-.4v.02c0,.19-.13.34-.28.34-.17,0-.3-.14-.3-.34v-.02h-.47v.02c0,.19-.13.34-.28.34-.17,0-.3-.14-.3-.34v-.02h-.38v.02c0,.19-.15.34-.3.34s-.28-.14-.28-.34v-.02h-.47v.02c0,.19-.13.34-.27.34s-.28-.14-.28-.34v-.02h-.45v.02c0,.19-.13.34-.28.34-.18,0-.3-.14-.3-.34v-.02h-.48v.02c0,.19-.13.34-.27.34-.18,0-.3-.14-.3-.34v-.02h-.42v.02c0,.19-.13.34-.28.34-.17,0-.3-.14-.3-.34v-.02h-.43v.02c0,.19-.12.34-.3.34-.15,0-.28-.14-.28-.34v-.02h-.55c-.3,0-.52.24-.52.51v2.29h13.9v-2.29c0-.27-.23-.51-.5-.51Z" class="cls-2"/><path d="M130.94,157.01h-.65v.02c0,.19-.13.34-.3.34-.15,0-.27-.14-.27-.34v-.02h-.45v.02c0,.19-.13.34-.27.34-.18,0-.3-.14-.3-.34v-.02h-.42v.02c0,.19-.13.34-.28.34s-.3-.14-.3-.34v-.02h-.43v.02c0,.19-.12.34-.3.34-.15,0-.28-.14-.28-.34v-.02h-.4v.02c0,.19-.13.34-.28.34-.17,0-.3-.14-.3-.34v-.02h-.47v.02c0,.19-.13.34-.28.34-.17,0-.3-.14-.3-.34v-.02h-.38v.02c0,.19-.15.34-.3.34s-.28-.14-.28-.34v-.02h-.47v.02c0,.19-.13.34-.27.34s-.28-.14-.28-.34v-.02h-.45v.02c0,.19-.13.34-.28.34-.18,0-.3-.14-.3-.34v-.02h-.48v.02c0,.19-.13.34-.27.34-.18,0-.3-.14-.3-.34v-.02h-.42v.02c0,.19-.13.34-.28.34-.17,0-.3-.14-.3-.34v-.02h-.43v.02c0,.19-.12.34-.3.34-.15,0-.28-.14-.28-.34v-.02h-.55c-.3,0-.52.24-.52.51v2.29h13.9v-2.29c0-.27-.23-.51-.5-.51Z" class="cls-2"/><path d="M145.9,157.01h-.65v.02c0,.19-.13.34-.3.34-.15,0-.27-.14-.27-.34v-.02h-.45v.02c0,.19-.13.34-.27.34-.18,0-.3-.14-.3-.34v-.02h-.42v.02c0,.19-.13.34-.28.34s-.3-.14-.3-.34v-.02h-.43v.02c0,.19-.12.34-.3.34-.15,0-.28-.14-.28-.34v-.02h-.4v.02c0,.19-.13.34-.28.34-.17,0-.3-.14-.3-.34v-.02h-.47v.02c0,.19-.13.34-.28.34-.17,0-.3-.14-.3-.34v-.02h-.38v.02c0,.19-.15.34-.3.34s-.28-.14-.28-.34v-.02h-.47v.02c0,.19-.13.34-.27.34s-.28-.14-.28-.34v-.02h-.45v.02c0,.19-.13.34-.28.34-.18,0-.3-.14-.3-.34v-.02h-.48v.02c0,.19-.13.34-.27.34-.18,0-.3-.14-.3-.34v-.02h-.42v.02c0,.19-.13.34-.28.34-.17,0-.3-.14-.3-.34v-.02h-.43v.02c0,.19-.12.34-.3.34-.15,0-.28-.14-.28-.34v-.02h-.55c-.3,0-.52.24-.52.51v2.29h13.9v-2.29c0-.27-.23-.51-.5-.51Z" class="cls-2"/><path d="M160.91,157.01h-.65v.02c0,.19-.13.34-.3.34-.15,0-.27-.14-.27-.34v-.02h-.45v.02c0,.19-.13.34-.27.34-.18,0-.3-.14-.3-.34v-.02h-.42v.02c0,.19-.13.34-.28.34s-.3-.14-.3-.34v-.02h-.43v.02c0,.19-.12.34-.3.34-.15,0-.28-.14-.28-.34v-.02h-.4v.02c0,.19-.13.34-.28.34-.17,0-.3-.14-.3-.34v-.02h-.47v.02c0,.19-.13.34-.28.34-.17,0-.3-.14-.3-.34v-.02h-.38v.02c0,.19-.15.34-.3.34s-.28-.14-.28-.34v-.02h-.47v.02c0,.19-.13.34-.27.34s-.28-.14-.28-.34v-.02h-.45v.02c0,.19-.13.34-.28.34-.18,0-.3-.14-.3-.34v-.02h-.48v.02c0,.19-.13.34-.27.34-.18,0-.3-.14-.3-.34v-.02h-.42v.02c0,.19-.13.34-.28.34-.17,0-.3-.14-.3-.34v-.02h-.43v.02c0,.19-.12.34-.3.34-.15,0-.28-.14-.28-.34v-.02h-.55c-.3,0-.52.24-.52.51v2.29h13.9v-2.29c0-.27-.23-.51-.5-.51Z" class="cls-2"/><path d="M175.58,157.01h-.65v.02c0,.19-.13.34-.3.34-.15,0-.27-.14-.27-.34v-.02h-.45v.02c0,.19-.13.34-.27.34-.18,0-.3-.14-.3-.34v-.02h-.42v.02c0,.19-.13.34-.28.34s-.3-.14-.3-.34v-.02h-.43v.02c0,.19-.12.34-.3.34-.15,0-.28-.14-.28-.34v-.02h-.4v.02c0,.19-.13.34-.28.34-.17,0-.3-.14-.3-.34v-.02h-.47v.02c0,.19-.13.34-.28.34-.17,0-.3-.14-.3-.34v-.02h-.38v.02c0,.19-.15.34-.3.34s-.28-.14-.28-.34v-.02h-.47v.02c0,.19-.13.34-.27.34s-.28-.14-.28-.34v-.02h-.45v.02c0,.19-.13.34-.28.34-.18,0-.3-.14-.3-.34v-.02h-.48v.02c0,.19-.13.34-.27.34-.18,0-.3-.14-.3-.34v-.02h-.42v.02c0,.19-.13.34-.28.34-.17,0-.3-.14-.3-.34v-.02h-.43v.02c0,.19-.12.34-.3.34-.15,0-.28-.14-.28-.34v-.02h-.55c-.3,0-.52.24-.52.51v2.29h13.9v-2.29c0-.27-.23-.51-.5-.51Z" class="cls-2"/><path d="M190.47,157.01h-.65v.02c0,.19-.13.34-.3.34-.15,0-.27-.14-.27-.34v-.02h-.45v.02c0,.19-.13.34-.27.34-.18,0-.3-.14-.3-.34v-.02h-.42v.02c0,.19-.13.34-.28.34s-.3-.14-.3-.34v-.02h-.43v.02c0,.19-.12.34-.3.34-.15,0-.28-.14-.28-.34v-.02h-.4v.02c0,.19-.13.34-.28.34-.17,0-.3-.14-.3-.34v-.02h-.47v.02c0,.19-.13.34-.28.34-.17,0-.3-.14-.3-.34v-.02h-.38v.02c0,.19-.15.34-.3.34s-.28-.14-.28-.34v-.02h-.47v.02c0,.19-.13.34-.27.34s-.28-.14-.28-.34v-.02h-.45v.02c0,.19-.13.34-.28.34-.18,0-.3-.14-.3-.34v-.02h-.48v.02c0,.19-.13.34-.27.34-.18,0-.3-.14-.3-.34v-.02h-.42v.02c0,.19-.13.34-.28.34-.17,0-.3-.14-.3-.34v-.02h-.43v.02c0,.19-.12.34-.3.34-.15,0-.28-.14-.28-.34v-.02h-.55c-.3,0-.52.24-.52.51v2.29h13.9v-2.29c0-.27-.23-.51-.5-.51Z" class="cls-2"/><path d="M205.44,157.01h-.65v.02c0,.19-.13.34-.3.34-.15,0-.27-.14-.27-.34v-.02h-.45v.02c0,.19-.13.34-.27.34-.18,0-.3-.14-.3-.34v-.02h-.42v.02c0,.19-.13.34-.28.34s-.3-.14-.3-.34v-.02h-.43v.02c0,.19-.12.34-.3.34-.15,0-.28-.14-.28-.34v-.02h-.4v.02c0,.19-.13.34-.28.34-.17,0-.3-.14-.3-.34v-.02h-.47v.02c0,.19-.13.34-.28.34-.17,0-.3-.14-.3-.34v-.02h-.38v.02c0,.19-.15.34-.3.34s-.28-.14-.28-.34v-.02h-.47v.02c0,.19-.13.34-.27.34s-.28-.14-.28-.34v-.02h-.45v.02c0,.19-.13.34-.28.34-.18,0-.3-.14-.3-.34v-.02h-.48v.02c0,.19-.13.34-.27.34-.18,0-.3-.14-.3-.34v-.02h-.42v.02c0,.19-.13.34-.28.34-.17,0-.3-.14-.3-.34v-.02h-.43v.02c0,.19-.12.34-.3.34-.15,0-.28-.14-.28-.34v-.02h-.55c-.3,0-.52.24-.52.51v2.29h13.9v-2.29c0-.27-.23-.51-.5-.51Z" class="cls-2"/><path d="M220.26,157.01h-.65v.02c0,.19-.13.34-.3.34-.15,0-.27-.14-.27-.34v-.02h-.45v.02c0,.19-.13.34-.27.34-.18,0-.3-.14-.3-.34v-.02h-.42v.02c0,.19-.13.34-.28.34s-.3-.14-.3-.34v-.02h-.43v.02c0,.19-.12.34-.3.34-.15,0-.28-.14-.28-.34v-.02h-.4v.02c0,.19-.13.34-.28.34-.17,0-.3-.14-.3-.34v-.02h-.47v.02c0,.19-.13.34-.28.34-.17,0-.3-.14-.3-.34v-.02h-.38v.02c0,.19-.15.34-.3.34s-.28-.14-.28-.34v-.02h-.47v.02c0,.19-.13.34-.27.34s-.28-.14-.28-.34v-.02h-.45v.02c0,.19-.13.34-.28.34-.18,0-.3-.14-.3-.34v-.02h-.48v.02c0,.19-.13.34-.27.34-.18,0-.3-.14-.3-.34v-.02h-.42v.02c0,.19-.13.34-.28.34-.17,0-.3-.14-.3-.34v-.02h-.43v.02c0,.19-.12.34-.3.34-.15,0-.28-.14-.28-.34v-.02h-.55c-.3,0-.52.24-.52.51v2.29h13.9v-2.29c0-.27-.23-.51-.5-.51Z" class="cls-2"/><path d="M235.23,157.01h-.65v.02c0,.19-.13.34-.3.34-.15,0-.27-.14-.27-.34v-.02h-.45v.02c0,.19-.13.34-.27.34-.18,0-.3-.14-.3-.34v-.02h-.42v.02c0,.19-.13.34-.28.34s-.3-.14-.3-.34v-.02h-.43v.02c0,.19-.12.34-.3.34-.15,0-.28-.14-.28-.34v-.02h-.4v.02c0,.19-.13.34-.28.34-.17,0-.3-.14-.3-.34v-.02h-.47v.02c0,.19-.13.34-.28.34-.17,0-.3-.14-.3-.34v-.02h-.38v.02c0,.19-.15.34-.3.34s-.28-.14-.28-.34v-.02h-.47v.02c0,.19-.13.34-.27.34s-.28-.14-.28-.34v-.02h-.45v.02c0,.19-.13.34-.28.34-.18,0-.3-.14-.3-.34v-.02h-.48v.02c0,.19-.13.34-.27.34-.18,0-.3-.14-.3-.34v-.02h-.42v.02c0,.19-.13.34-.28.34-.17,0-.3-.14-.3-.34v-.02h-.43v.02c0,.19-.12.34-.3.34-.15,0-.28-.14-.28-.34v-.02h-.55c-.3,0-.52.24-.52.51v2.29h13.9v-2.29c0-.27-.23-.51-.5-.51Z" class="cls-2"/><path d="M348.64,274.77c.27,0,.5.24.5.51v2.29s-70.9,0-70.9,0v-2.29c0-.27.23-.51.52-.51h.55s69.32,0,69.32,0Z" class="cls-2"/><rect transform="translate(593.42 -33.97) rotate(90)" height="70.9" width="4.29" y="244.27" x="311.55" class="cls-2"/></g></g></svg>