<svg viewBox="0 0 531.27 288" xmlns:xlink="http://www.w3.org/1999/xlink" xmlns="http://www.w3.org/2000/svg" id="Camada_2"><defs><style>.cls-1,.cls-2{fill:none;}.cls-3{fill:#12100c;}.cls-2{stroke:#12100c;stroke-linecap:round;stroke-linejoin:round;stroke-width:.3px;}</style><symbol viewBox="0 0 531.27 288" id="fundo_transparente"><rect height="288" width="531.27" x="0" class="cls-1"/></symbol></defs><g id="RePlastic"><g id="Grelha_EcoGrid"><use xlink:href="#fundo_transparente" height="288" width="531.27"/><g id="MTEXT"><path d="M153.21,5v.65h-1.92l-.25,1.54c.1-.09.22-.16.36-.21.14-.05.29-.07.46-.07.25,0,.47.04.68.13.21.08.38.2.53.35.15.15.27.33.35.54.08.21.12.44.12.69s-.04.48-.13.7c-.09.21-.21.4-.36.55s-.34.27-.56.36c-.21.08-.45.13-.71.13-.2,0-.39-.03-.58-.08-.18-.05-.35-.13-.5-.23-.15-.1-.28-.22-.39-.36-.11-.14-.19-.3-.24-.48l.63-.31c.07.24.19.43.39.56.19.14.42.21.67.21.15,0,.29-.03.41-.08.13-.05.23-.12.33-.21.09-.09.16-.2.21-.33.05-.13.08-.27.08-.43s-.03-.3-.08-.44-.13-.25-.22-.34-.21-.17-.34-.22c-.13-.05-.28-.08-.44-.08-.18,0-.35.04-.49.1-.14.07-.26.17-.36.31l-.62-.15.47-2.79h2.52Z"/><path d="M157.19,5v.65h-1.92l-.25,1.54c.1-.09.22-.16.36-.21.14-.05.29-.07.46-.07.25,0,.47.04.68.13.21.08.38.2.53.35.15.15.27.33.35.54.08.21.12.44.12.69s-.04.48-.13.7c-.09.21-.21.4-.36.55s-.34.27-.56.36c-.21.08-.45.13-.71.13-.2,0-.39-.03-.58-.08-.18-.05-.35-.13-.5-.23-.15-.1-.28-.22-.39-.36-.11-.14-.19-.3-.24-.48l.63-.31c.07.24.19.43.39.56.19.14.42.21.67.21.15,0,.29-.03.41-.08.13-.05.23-.12.33-.21.09-.09.16-.2.21-.33.05-.13.08-.27.08-.43s-.03-.3-.08-.44-.13-.25-.22-.34-.21-.17-.34-.22c-.13-.05-.28-.08-.44-.08-.18,0-.35.04-.49.1-.14.07-.26.17-.36.31l-.62-.15.47-2.79h2.52Z"/><path d="M159.2,10.16c-.24-.12-.44-.29-.61-.51-.17-.22-.3-.5-.39-.82s-.14-.69-.14-1.09.05-.8.15-1.15c.1-.35.24-.64.43-.89.18-.25.41-.43.67-.56s.55-.2.88-.2c.37,0,.7.09.97.27.27.18.47.43.59.76l-.64.29c-.07-.21-.18-.37-.34-.48-.16-.11-.35-.17-.56-.17-.2,0-.38.05-.55.14-.17.09-.31.22-.44.4-.13.17-.22.37-.29.61-.07.24-.1.49-.1.77v.17c0,.06,0,.11,0,.15.08-.25.23-.45.45-.59s.48-.21.79-.21c.24,0,.46.04.65.12.2.08.36.19.5.34.14.15.25.32.33.52.08.2.12.42.12.66s-.04.47-.13.68c-.08.21-.2.38-.35.53-.15.14-.32.26-.53.34-.21.08-.43.12-.68.12-.3,0-.57-.06-.81-.18ZM160.36,9.59c.12-.05.22-.12.3-.21.08-.09.15-.19.2-.31.05-.12.07-.26.07-.41s-.02-.29-.07-.41c-.05-.12-.12-.23-.2-.32s-.19-.16-.31-.21-.25-.07-.4-.07-.27.02-.39.07-.22.12-.31.2c-.09.09-.15.19-.2.31-.05.12-.07.25-.07.4s.03.28.08.41c.05.13.12.24.21.34s.2.17.32.22c.12.05.26.08.4.08s.26-.03.38-.08Z"/><path d="M165.36,6.64v.67c.11-.24.26-.42.45-.54s.4-.18.63-.18c.26,0,.48.07.67.2.19.14.32.33.41.59.11-.26.27-.45.46-.59.2-.13.43-.2.7-.2.38,0,.67.12.88.37s.31.61.31,1.07v2.25h-.7v-2.16c0-.29-.07-.52-.2-.69-.13-.17-.31-.25-.54-.25-.12,0-.22.02-.32.07-.1.05-.18.11-.26.2-.07.09-.13.2-.16.32-.04.12-.06.26-.06.4v2.11h-.7v-2.16c0-.14-.02-.27-.06-.38-.04-.12-.09-.22-.15-.3-.06-.08-.14-.14-.23-.19-.09-.04-.2-.07-.31-.07s-.22.02-.32.07c-.1.05-.18.12-.25.21s-.12.2-.17.32c-.04.12-.06.26-.06.41v2.09h-.7v-3.64h.68Z"/><path d="M171.54,6.64v.67c.11-.24.26-.42.45-.54s.4-.18.63-.18c.26,0,.48.07.67.2.19.14.32.33.41.59.11-.26.27-.45.46-.59.2-.13.43-.2.7-.2.38,0,.67.12.88.37s.31.61.31,1.07v2.25h-.7v-2.16c0-.29-.07-.52-.2-.69-.13-.17-.31-.25-.54-.25-.12,0-.22.02-.32.07-.1.05-.18.11-.26.2-.07.09-.13.2-.16.32-.04.12-.06.26-.06.4v2.11h-.7v-2.16c0-.14-.02-.27-.06-.38-.04-.12-.09-.22-.15-.3-.06-.08-.14-.14-.23-.19-.09-.04-.2-.07-.31-.07s-.22.02-.32.07c-.1.05-.18.12-.25.21s-.12.2-.17.32c-.04.12-.06.26-.06.41v2.09h-.7v-3.64h.68Z"/></g><line y2="15.04" x2="298.87" y1="15.04" x1="27.47" class="cls-2"/><rect height="1.95" width=".3" y="14.07" x="27.32" class="cls-3"/><rect height="1.95" width=".3" y="14.07" x="298.72" class="cls-3"/><g id="MTEXT-2"><path d="M3.19,197.74h.55l.98.65c.06.04.1.07.15.1.04.03.08.06.13.09s.09.06.13.09.09.06.15.09c.02-.19.08-.37.18-.52s.21-.29.35-.41c.14-.12.3-.21.48-.27s.38-.09.59-.09c.24,0,.47.04.67.13.2.08.38.2.52.36.14.15.26.34.34.54s.12.44.12.69c0,.21-.03.4-.08.58-.05.18-.13.35-.23.49-.1.15-.22.28-.37.39-.14.11-.31.2-.49.26l-.31-.63c.24-.08.44-.22.58-.41.14-.19.21-.42.21-.67,0-.15-.02-.28-.07-.4-.05-.12-.11-.23-.2-.31-.09-.09-.19-.15-.31-.2-.12-.05-.26-.07-.41-.07s-.29.03-.42.08c-.13.06-.23.13-.32.22-.09.09-.16.21-.21.34-.05.13-.08.28-.08.44v.35l-.44.08-1.07-.72s-.09-.06-.12-.09c-.03-.03-.07-.05-.12-.08s-.08-.06-.12-.08c-.03-.03-.07-.06-.12-.09v2.18h-.65v-3.09Z"/><path d="M3.31,194.38c.12-.24.29-.44.51-.61.22-.17.5-.3.82-.39.32-.09.69-.14,1.09-.14s.8.05,1.15.15c.35.1.64.24.89.43s.43.41.56.67c.13.26.2.55.2.88,0,.37-.09.7-.27.97-.18.27-.43.47-.76.59l-.29-.64c.21-.07.37-.18.48-.34.11-.16.17-.35.17-.56,0-.2-.05-.38-.14-.55-.09-.17-.23-.31-.4-.44-.17-.13-.37-.22-.61-.29-.24-.07-.49-.1-.77-.1h-.17c-.06,0-.1,0-.15,0,.25.08.45.23.59.45.14.22.21.48.21.79,0,.24-.04.46-.12.65-.08.2-.19.36-.34.5-.14.14-.32.25-.52.33-.2.08-.42.12-.66.12s-.47-.04-.68-.13c-.21-.08-.38-.2-.52-.35-.14-.15-.26-.32-.34-.53-.08-.21-.12-.43-.12-.68,0-.3.06-.57.18-.81ZM3.88,195.55c.05.12.12.22.21.3.09.08.19.15.31.2.12.05.26.07.41.07s.29-.02.41-.07c.12-.05.23-.12.32-.2.09-.09.16-.19.21-.31.05-.12.07-.25.07-.4s-.02-.27-.07-.39c-.05-.12-.12-.22-.2-.31-.09-.09-.19-.15-.31-.2-.12-.05-.25-.07-.4-.07s-.28.03-.41.08c-.13.05-.24.13-.34.21-.1.09-.17.2-.22.32s-.08.26-.08.4.03.26.08.38Z"/><path d="M3.19,189.57h.65v1.92l1.54.25c-.09-.1-.16-.22-.21-.36-.05-.14-.07-.29-.07-.46,0-.25.04-.47.13-.68.08-.21.2-.38.35-.53.15-.15.33-.27.54-.35.21-.08.44-.12.69-.12s.48.04.7.13c.21.09.4.21.55.36.15.16.27.34.36.56.08.21.13.45.13.71,0,.2-.03.39-.08.58s-.13.35-.23.5c-.1.15-.22.28-.36.39-.14.11-.3.19-.48.24l-.31-.63c.24-.07.43-.19.56-.39.14-.19.21-.42.21-.67,0-.15-.03-.29-.08-.41-.05-.13-.12-.23-.21-.33-.09-.09-.2-.16-.33-.21-.13-.05-.27-.08-.43-.08s-.3.03-.44.08c-.13.05-.25.13-.34.22s-.17.21-.22.34c-.05.13-.08.28-.08.44,0,.18.04.35.1.49.07.14.17.26.31.36l-.15.62-2.79-.47v-2.52Z"/><path d="M4.83,185.64h.67c-.24-.11-.42-.26-.54-.45-.12-.18-.18-.4-.18-.63,0-.26.07-.48.2-.67.14-.19.33-.32.59-.41-.26-.11-.45-.27-.59-.46-.14-.2-.2-.43-.2-.7,0-.38.12-.67.37-.88.25-.21.61-.31,1.07-.31h2.25v.7h-2.16c-.29,0-.52.07-.69.2-.17.13-.25.31-.25.54,0,.12.02.22.07.32.05.1.11.18.2.26.09.07.19.13.32.16.12.04.26.06.4.06h2.11v.7h-2.16c-.14,0-.27.02-.38.06-.12.04-.22.09-.3.15-.08.06-.14.14-.19.23-.04.09-.07.2-.07.31s.02.22.07.32c.05.1.12.18.21.25.09.07.2.12.32.17.12.04.26.06.41.06h2.09v.7h-3.64v-.68Z"/><path d="M4.83,179.45h.67c-.24-.11-.42-.26-.54-.45-.12-.18-.18-.4-.18-.63,0-.26.07-.48.2-.67.14-.19.33-.32.59-.41-.26-.11-.45-.27-.59-.46-.14-.2-.2-.43-.2-.7,0-.38.12-.67.37-.88.25-.21.61-.31,1.07-.31h2.25v.7h-2.16c-.29,0-.52.07-.69.2-.17.13-.25.31-.25.54,0,.12.02.22.07.32.05.1.11.18.2.26.09.07.19.13.32.16.12.04.26.06.4.06h2.11v.7h-2.16c-.14,0-.27.02-.38.06-.12.04-.22.09-.3.15-.08.06-.14.14-.19.23-.04.09-.07.2-.07.31s.02.22.07.32c.05.1.12.18.21.25.09.07.2.12.32.17.12.04.26.06.41.06h2.09v.7h-3.64v-.68Z"/></g><line y2="92.53" x2="13.23" y1="283.12" x1="13.23" class="cls-2"/><rect height=".3" width="1.95" y="282.97" x="12.26" class="cls-3"/><rect height=".3" width="1.95" y="92.38" x="12.26" class="cls-3"/><g id="MTEXT-3"><path d="M3.1,47.45h5.29v.73h-4.36s.08.04.1.06c.03.02.06.04.09.07l2.02,1.35s.06.04.08.05.05.03.08.06v-3.2h.64v3.98h-.59l-3.35-2.22v-.87Z"/><path d="M3.25,43.27c.13-.25.32-.47.55-.65.23-.18.52-.32.85-.42.33-.1.69-.15,1.08-.15s.76.05,1.1.15.62.24.86.42c.24.18.43.4.56.65.13.25.2.52.2.83s-.07.57-.2.82-.32.47-.56.65c-.24.18-.53.32-.86.42-.33.1-.7.15-1.1.15s-.75-.05-1.08-.15c-.33-.1-.61-.24-.85-.42-.24-.18-.42-.4-.55-.65-.13-.25-.2-.53-.2-.83s.07-.58.2-.83ZM3.88,44.62c.1.16.23.29.41.41.18.11.38.2.63.27.24.07.51.1.81.1s.57-.03.82-.09c.25-.06.46-.15.64-.27.18-.12.32-.25.42-.41.1-.16.15-.33.15-.52s-.05-.37-.15-.53c-.1-.16-.24-.3-.42-.41-.18-.11-.39-.2-.64-.27-.25-.06-.52-.09-.82-.09s-.56.03-.81.09c-.25.06-.46.15-.63.26-.17.11-.31.25-.41.41-.1.16-.15.34-.15.53s.05.37.15.52Z"/><path d="M4.75,38.44h.67c-.24-.11-.42-.26-.54-.45-.12-.18-.18-.4-.18-.63,0-.26.07-.48.2-.67.14-.19.33-.32.59-.41-.26-.11-.45-.27-.59-.46-.14-.2-.2-.43-.2-.7,0-.38.12-.67.37-.88.25-.21.61-.31,1.07-.31h2.25v.7h-2.16c-.29,0-.52.07-.69.2-.17.13-.25.31-.25.54,0,.12.02.22.07.32.05.1.11.18.2.26.09.07.19.13.32.16.12.04.26.06.4.06h2.11v.7h-2.16c-.14,0-.27.02-.38.06-.12.04-.22.09-.3.15-.08.06-.14.14-.19.23-.04.09-.07.2-.07.31s.02.22.07.32c.05.1.12.18.21.25.09.07.2.12.32.17.12.04.26.06.41.06h2.09v.7h-3.64v-.68Z"/><path d="M4.75,32.26h.67c-.24-.11-.42-.26-.54-.45-.12-.18-.18-.4-.18-.63,0-.26.07-.48.2-.67.14-.19.33-.32.59-.41-.26-.11-.45-.27-.59-.46-.14-.2-.2-.43-.2-.7,0-.38.12-.67.37-.88.25-.21.61-.31,1.07-.31h2.25v.7h-2.16c-.29,0-.52.07-.69.2-.17.13-.25.31-.25.54,0,.12.02.22.07.32.05.1.11.18.2.26.09.07.19.13.32.16.12.04.26.06.4.06h2.11v.7h-2.16c-.14,0-.27.02-.38.06-.12.04-.22.09-.3.15-.08.06-.14.14-.19.23-.04.09-.07.2-.07.31s.02.22.07.32c.05.1.12.18.21.25.09.07.2.12.32.17.12.04.26.06.41.06h2.09v.7h-3.64v-.68Z"/></g><line y2="29.42" x2="13.15" y1="48.65" x1="13.15" class="cls-2"/><rect height=".3" width="1.95" y="48.5" x="12.17" class="cls-3"/><rect height=".3" width="1.95" y="29.27" x="12.17" class="cls-3"/><polygon points="72.07 112.94 84.62 112.94 90.9 123.71 84.62 134.48 72.07 134.48 65.79 123.71 72.07 112.94" class="cls-2"/><polygon points="71.92 141.92 84.47 141.92 90.75 152.69 84.47 163.46 71.92 163.46 65.64 152.69 71.92 141.92" class="cls-2"/><polygon points="72.07 170.86 84.62 170.86 90.9 181.63 84.62 192.4 72.07 192.4 65.79 181.63 72.07 170.86" class="cls-2"/><polygon points="72.07 200.03 84.62 200.03 90.9 210.8 84.62 221.57 72.07 221.57 65.79 210.8 72.07 200.03" class="cls-2"/><polygon points="72.07 228.81 84.62 228.81 90.9 239.58 84.62 250.35 72.07 250.35 65.79 239.58 72.07 228.81" class="cls-2"/><polygon points="72.07 257.79 84.62 257.79 90.9 268.56 84.62 279.33 72.07 279.33 65.79 268.56 72.07 257.79" class="cls-2"/><polygon points="70.6 226.29 86.1 226.29 93.85 239.58 86.1 252.88 70.6 252.88 62.85 239.58 70.6 226.29" class="cls-2"/><polygon points="70.6 197.51 86.1 197.51 93.85 210.8 86.1 224.09 70.6 224.09 62.85 210.8 70.6 197.51" class="cls-2"/><polygon points="70.6 168.34 86.1 168.34 93.85 181.63 86.1 194.93 70.6 194.93 62.85 181.63 70.6 168.34" class="cls-2"/><polygon points="70.44 139.4 85.94 139.4 93.69 152.69 85.94 165.98 70.44 165.98 62.69 152.69 70.44 139.4" class="cls-2"/><polygon points="70.6 110.42 86.1 110.42 93.85 123.71 86.1 137.01 70.6 137.01 62.85 123.71 70.6 110.42" class="cls-2"/><polygon points="70.6 255.26 86.1 255.26 93.85 268.56 86.1 281.85 70.6 281.85 62.85 268.56 70.6 255.26" class="cls-2"/><polygon points="173.19 112.94 185.74 112.94 192.02 123.71 185.74 134.48 173.19 134.48 166.91 123.71 173.19 112.94" class="cls-2"/><polygon points="173.03 141.92 185.59 141.92 191.87 152.69 185.59 163.46 173.03 163.46 166.75 152.69 173.03 141.92" class="cls-2"/><polygon points="173.19 170.86 185.74 170.86 192.02 181.63 185.74 192.4 173.19 192.4 166.91 181.63 173.19 170.86" class="cls-2"/><polygon points="173.19 200.03 185.74 200.03 192.02 210.8 185.74 221.57 173.19 221.57 166.91 210.8 173.19 200.03" class="cls-2"/><polygon points="173.19 228.81 185.74 228.81 192.02 239.58 185.74 250.35 173.19 250.35 166.91 239.58 173.19 228.81" class="cls-2"/><polygon points="173.19 257.79 185.74 257.79 192.02 268.56 185.74 279.33 173.19 279.33 166.91 268.56 173.19 257.79" class="cls-2"/><polygon points="171.71 226.29 187.21 226.29 194.96 239.58 187.21 252.88 171.71 252.88 163.96 239.58 171.71 226.29" class="cls-2"/><polygon points="171.71 197.51 187.21 197.51 194.96 210.8 187.21 224.09 171.71 224.09 163.96 210.8 171.71 197.51" class="cls-2"/><polygon points="171.71 168.34 187.21 168.34 194.96 181.63 187.21 194.93 171.71 194.93 163.96 181.63 171.71 168.34" class="cls-2"/><polygon points="171.56 139.4 187.06 139.4 194.81 152.69 187.06 165.98 171.56 165.98 163.81 152.69 171.56 139.4" class="cls-2"/><polygon points="171.71 110.42 187.21 110.42 194.96 123.71 187.21 137.01 171.71 137.01 163.96 123.71 171.71 110.42" class="cls-2"/><polygon points="171.71 255.26 187.21 255.26 194.96 268.56 187.21 281.85 171.71 281.85 163.96 268.56 171.71 255.26" class="cls-2"/><polygon points="223.74 112.94 236.3 112.94 242.58 123.71 236.3 134.48 223.74 134.48 217.47 123.71 223.74 112.94" class="cls-2"/><polygon points="223.59 141.92 236.15 141.92 242.43 152.69 236.15 163.46 223.59 163.46 217.31 152.69 223.59 141.92" class="cls-2"/><polygon points="223.74 170.86 236.3 170.86 242.58 181.63 236.3 192.4 223.74 192.4 217.47 181.63 223.74 170.86" class="cls-2"/><polygon points="223.74 200.03 236.3 200.03 242.58 210.8 236.3 221.57 223.74 221.57 217.47 210.8 223.74 200.03" class="cls-2"/><polygon points="223.74 228.81 236.3 228.81 242.58 239.58 236.3 250.35 223.74 250.35 217.47 239.58 223.74 228.81" class="cls-2"/><polygon points="223.74 257.79 236.3 257.79 242.58 268.56 236.3 279.33 223.74 279.33 217.47 268.56 223.74 257.79" class="cls-2"/><polygon points="222.27 226.29 237.77 226.29 245.52 239.58 237.77 252.88 222.27 252.88 214.52 239.58 222.27 226.29" class="cls-2"/><polygon points="222.27 197.51 237.77 197.51 245.52 210.8 237.77 224.09 222.27 224.09 214.52 210.8 222.27 197.51" class="cls-2"/><polygon points="222.27 168.34 237.77 168.34 245.52 181.63 237.77 194.93 222.27 194.93 214.52 181.63 222.27 168.34" class="cls-2"/><polygon points="222.12 139.4 237.62 139.4 245.37 152.69 237.62 165.98 222.12 165.98 214.37 152.69 222.12 139.4" class="cls-2"/><polygon points="222.27 110.42 237.77 110.42 245.52 123.71 237.77 137.01 222.27 137.01 214.52 123.71 222.27 110.42" class="cls-2"/><polygon points="222.27 255.26 237.77 255.26 245.52 268.56 237.77 281.85 222.27 281.85 214.52 268.56 222.27 255.26" class="cls-2"/><polygon points="274.3 112.94 286.86 112.94 293.14 123.71 286.86 134.48 274.3 134.48 268.03 123.71 274.3 112.94" class="cls-2"/><polygon points="274.15 141.92 286.71 141.92 292.99 152.69 286.71 163.46 274.15 163.46 267.87 152.69 274.15 141.92" class="cls-2"/><polygon points="274.3 170.86 286.86 170.86 293.14 181.63 286.86 192.4 274.3 192.4 268.03 181.63 274.3 170.86" class="cls-2"/><polygon points="274.3 200.03 286.86 200.03 293.14 210.8 286.86 221.57 274.3 221.57 268.03 210.8 274.3 200.03" class="cls-2"/><polygon points="274.3 228.81 286.86 228.81 293.14 239.58 286.86 250.35 274.3 250.35 268.03 239.58 274.3 228.81" class="cls-2"/><polygon points="274.3 257.79 286.86 257.79 293.14 268.56 286.86 279.33 274.3 279.33 268.03 268.56 274.3 257.79" class="cls-2"/><polygon points="272.83 226.29 288.33 226.29 296.08 239.58 288.33 252.88 272.83 252.88 265.08 239.58 272.83 226.29" class="cls-2"/><polygon points="272.83 197.51 288.33 197.51 296.08 210.8 288.33 224.09 272.83 224.09 265.08 210.8 272.83 197.51" class="cls-2"/><polygon points="272.83 168.34 288.33 168.34 296.08 181.63 288.33 194.93 272.83 194.93 265.08 181.63 272.83 168.34" class="cls-2"/><polygon points="272.68 139.4 288.18 139.4 295.93 152.69 288.18 165.98 272.68 165.98 264.93 152.69 272.68 139.4" class="cls-2"/><polygon points="272.83 110.42 288.33 110.42 296.08 123.71 288.33 137.01 272.83 137.01 265.08 123.71 272.83 110.42" class="cls-2"/><polygon points="272.83 255.26 288.33 255.26 296.08 268.56 288.33 281.85 272.83 281.85 265.08 268.56 272.83 255.26" class="cls-2"/><polygon points="247.5 95.51 239.75 108.81 247.5 122.1 263 122.1 270.75 108.81 263 95.51 261.53 98.03 267.8 108.81 261.53 119.58 248.97 119.58 242.69 108.81 248.97 98.03 247.5 95.51" class="cls-2"/><polygon points="248.82 127.01 261.37 127.01 267.65 137.78 261.37 148.55 248.82 148.55 242.54 137.78 248.82 127.01" class="cls-2"/><polygon points="248.97 155.96 261.53 155.96 267.8 166.73 261.53 177.5 248.97 177.5 242.69 166.73 248.97 155.96" class="cls-2"/><polygon points="248.97 185.12 261.53 185.12 267.8 195.89 261.53 206.66 248.97 206.66 242.69 195.89 248.97 185.12" class="cls-2"/><polygon points="248.97 213.91 261.53 213.91 267.8 224.68 261.53 235.45 248.97 235.45 242.69 224.68 248.97 213.91" class="cls-2"/><polygon points="248.97 242.88 261.53 242.88 267.8 253.65 261.53 264.42 248.97 264.42 242.69 253.65 248.97 242.88" class="cls-2"/><polygon points="247.5 211.38 263 211.38 270.75 224.68 263 237.97 247.5 237.97 239.75 224.68 247.5 211.38" class="cls-2"/><polygon points="247.5 182.6 263 182.6 270.75 195.89 263 209.19 247.5 209.19 239.75 195.89 247.5 182.6" class="cls-2"/><polygon points="247.5 153.43 263 153.43 270.75 166.73 263 180.02 247.5 180.02 239.75 166.73 247.5 153.43" class="cls-2"/><polygon points="247.35 124.49 262.85 124.49 270.59 137.78 262.85 151.08 247.35 151.08 239.6 137.78 247.35 124.49" class="cls-2"/><polygon points="247.5 240.36 263 240.36 270.75 253.65 263 266.95 247.5 266.95 239.75 253.65 247.5 240.36" class="cls-2"/><polygon points="196.94 95.61 189.19 108.9 196.94 122.2 212.44 122.2 220.19 108.9 212.44 95.61 210.97 98.13 217.24 108.9 210.97 119.67 198.41 119.67 192.13 108.9 198.41 98.13 196.94 95.61" class="cls-2"/><polygon points="198.26 127.11 210.81 127.11 217.09 137.88 210.81 148.65 198.26 148.65 191.98 137.88 198.26 127.11" class="cls-2"/><polygon points="198.41 156.05 210.97 156.05 217.24 166.82 210.97 177.59 198.41 177.59 192.13 166.82 198.41 156.05" class="cls-2"/><polygon points="198.41 185.22 210.97 185.22 217.24 195.99 210.97 206.76 198.41 206.76 192.13 195.99 198.41 185.22" class="cls-2"/><polygon points="198.41 214 210.97 214 217.24 224.77 210.97 235.54 198.41 235.54 192.13 224.77 198.41 214" class="cls-2"/><polygon points="198.41 242.98 210.97 242.98 217.24 253.75 210.97 264.52 198.41 264.52 192.13 253.75 198.41 242.98" class="cls-2"/><polygon points="196.94 211.48 212.44 211.48 220.19 224.77 212.44 238.07 196.94 238.07 189.19 224.77 196.94 211.48" class="cls-2"/><polygon points="196.94 182.69 212.44 182.69 220.19 195.99 212.44 209.28 196.94 209.28 189.19 195.99 196.94 182.69" class="cls-2"/><polygon points="196.94 153.53 212.44 153.53 220.19 166.82 212.44 180.12 196.94 180.12 189.19 166.82 196.94 153.53" class="cls-2"/><polygon points="196.79 124.58 212.29 124.58 220.04 137.88 212.29 151.17 196.79 151.17 189.04 137.88 196.79 124.58" class="cls-2"/><polygon points="196.94 240.45 212.44 240.45 220.19 253.75 212.44 267.04 196.94 267.04 189.19 253.75 196.94 240.45" class="cls-2"/><polygon points="146.49 95.51 138.74 108.81 146.49 122.1 161.99 122.1 169.74 108.81 161.99 95.51 160.42 98.03 166.7 108.81 160.42 119.58 147.86 119.58 141.58 108.81 147.86 98.03 146.49 95.51" class="cls-2"/><polygon points="147.71 127.01 160.27 127.01 166.55 137.78 160.27 148.55 147.71 148.55 141.43 137.78 147.71 127.01" class="cls-2"/><polygon points="147.86 155.96 160.42 155.96 166.7 166.73 160.42 177.5 147.86 177.5 141.58 166.73 147.86 155.96" class="cls-2"/><polygon points="147.86 185.12 160.42 185.12 166.7 195.89 160.42 206.66 147.86 206.66 141.58 195.89 147.86 185.12" class="cls-2"/><polygon points="147.86 213.91 160.42 213.91 166.7 224.68 160.42 235.45 147.86 235.45 141.58 224.68 147.86 213.91" class="cls-2"/><polygon points="147.86 242.88 160.42 242.88 166.7 253.65 160.42 264.42 147.86 264.42 141.58 253.65 147.86 242.88" class="cls-2"/><polygon points="146.39 211.38 161.89 211.38 169.64 224.68 161.89 237.97 146.39 237.97 138.64 224.68 146.39 211.38" class="cls-2"/><polygon points="146.39 182.6 161.89 182.6 169.64 195.89 161.89 209.19 146.39 209.19 138.64 195.89 146.39 182.6" class="cls-2"/><polygon points="146.39 153.43 161.89 153.43 169.64 166.73 161.89 180.02 146.39 180.02 138.64 166.73 146.39 153.43" class="cls-2"/><polygon points="146.24 124.49 161.74 124.49 169.49 137.78 161.74 151.08 146.24 151.08 138.49 137.78 146.24 124.49" class="cls-2"/><polygon points="146.39 240.36 161.89 240.36 169.64 253.65 161.89 266.95 146.39 266.95 138.64 253.65 146.39 240.36" class="cls-2"/><polygon points="122.63 112.94 135.18 112.94 141.46 123.71 135.18 134.48 122.63 134.48 116.35 123.71 122.63 112.94" class="cls-2"/><polygon points="122.47 141.92 135.03 141.92 141.31 152.69 135.03 163.46 122.47 163.46 116.2 152.69 122.47 141.92" class="cls-2"/><polygon points="122.63 170.86 135.18 170.86 141.46 181.63 135.18 192.4 122.63 192.4 116.35 181.63 122.63 170.86" class="cls-2"/><polygon points="122.63 200.03 135.18 200.03 141.46 210.8 135.18 221.57 122.63 221.57 116.35 210.8 122.63 200.03" class="cls-2"/><polygon points="122.63 228.81 135.18 228.81 141.46 239.58 135.18 250.35 122.63 250.35 116.35 239.58 122.63 228.81" class="cls-2"/><polygon points="122.63 257.79 135.18 257.79 141.46 268.56 135.18 279.33 122.63 279.33 116.35 268.56 122.63 257.79" class="cls-2"/><polygon points="121.15 226.29 136.65 226.29 144.4 239.58 136.65 252.88 121.15 252.88 113.41 239.58 121.15 226.29" class="cls-2"/><polygon points="121.15 197.51 136.65 197.51 144.4 210.8 136.65 224.09 121.15 224.09 113.41 210.8 121.15 197.51" class="cls-2"/><polygon points="121.15 168.34 136.65 168.34 144.4 181.63 136.65 194.93 121.15 194.93 113.41 181.63 121.15 168.34" class="cls-2"/><polygon points="121 139.4 136.5 139.4 144.25 152.69 136.5 165.98 121 165.98 113.25 152.69 121 139.4" class="cls-2"/><polygon points="121.15 110.42 136.65 110.42 144.4 123.71 136.65 137.01 121.15 137.01 113.41 123.71 121.15 110.42" class="cls-2"/><polygon points="121.15 255.26 136.65 255.26 144.4 268.56 136.65 281.85 121.15 281.85 113.41 268.56 121.15 255.26" class="cls-2"/><polygon points="97.43 127.01 109.98 127.01 116.26 137.78 109.98 148.55 97.43 148.55 91.15 137.78 97.43 127.01" class="cls-2"/><polygon points="97.58 155.96 110.14 155.96 116.41 166.73 110.14 177.5 97.58 177.5 91.3 166.73 97.58 155.96" class="cls-2"/><polygon points="97.58 185.12 110.14 185.12 116.41 195.89 110.14 206.66 97.58 206.66 91.3 195.89 97.58 185.12" class="cls-2"/><polygon points="97.58 213.91 110.14 213.91 116.41 224.68 110.14 235.45 97.58 235.45 91.3 224.68 97.58 213.91" class="cls-2"/><polygon points="97.58 242.88 110.14 242.88 116.41 253.65 110.14 264.42 97.58 264.42 91.3 253.65 97.58 242.88" class="cls-2"/><polygon points="96.11 211.38 111.61 211.38 119.36 224.68 111.61 237.97 96.11 237.97 88.36 224.68 96.11 211.38" class="cls-2"/><polygon points="96.11 182.6 111.61 182.6 119.36 195.89 111.61 209.19 96.11 209.19 88.36 195.89 96.11 182.6" class="cls-2"/><polygon points="96.11 153.43 111.61 153.43 119.36 166.73 111.61 180.02 96.11 180.02 88.36 166.73 96.11 153.43" class="cls-2"/><polygon points="95.96 124.49 111.46 124.49 119.21 137.78 111.46 151.08 95.96 151.08 88.21 137.78 95.96 124.49" class="cls-2"/><polygon points="96.11 95.51 88.36 108.81 96.11 122.1 111.61 122.1 119.36 108.81 111.61 95.51 110.14 98.03 116.41 108.81 110.14 119.58 97.58 119.58 91.3 108.81 97.58 98.03 96.11 95.51" class="cls-2"/><polygon points="96.11 240.36 111.61 240.36 119.36 253.65 111.61 266.95 96.11 266.95 88.36 253.65 96.11 240.36" class="cls-2"/><polygon points="46.96 127.01 59.52 127.01 65.8 137.78 59.52 148.55 46.96 148.55 40.68 137.78 46.96 127.01" class="cls-2"/><polygon points="47.12 155.96 59.67 155.96 65.95 166.73 59.67 177.5 47.12 177.5 40.84 166.73 47.12 155.96" class="cls-2"/><polygon points="47.12 185.12 59.67 185.12 65.95 195.89 59.67 206.66 47.12 206.66 40.84 195.89 47.12 185.12" class="cls-2"/><polygon points="47.12 213.91 59.67 213.91 65.95 224.68 59.67 235.45 47.12 235.45 40.84 224.68 47.12 213.91" class="cls-2"/><polygon points="47.12 242.88 59.67 242.88 65.95 253.65 59.67 264.42 47.12 264.42 40.84 253.65 47.12 242.88" class="cls-2"/><polygon points="45.64 211.38 61.14 211.38 68.89 224.68 61.14 237.97 45.64 237.97 37.89 224.68 45.64 211.38" class="cls-2"/><polygon points="45.64 182.6 61.14 182.6 68.89 195.89 61.14 209.19 45.64 209.19 37.89 195.89 45.64 182.6" class="cls-2"/><polygon points="45.64 153.43 61.14 153.43 68.89 166.73 61.14 180.02 45.64 180.02 37.89 166.73 45.64 153.43" class="cls-2"/><polygon points="45.49 124.49 60.99 124.49 68.74 137.78 60.99 151.08 45.49 151.08 37.74 137.78 45.49 124.49" class="cls-2"/><polygon points="45.64 95.51 37.89 108.81 45.64 122.1 61.14 122.1 68.89 108.81 61.14 95.51 59.67 98.03 65.95 108.81 59.67 119.58 47.12 119.58 40.84 108.81 47.12 98.03 45.64 95.51" class="cls-2"/><polygon points="45.64 240.36 61.14 240.36 68.89 253.65 61.14 266.95 45.64 266.95 37.89 253.65 45.64 240.36" class="cls-2"/><polygon points="34.79 137.87 43.23 152.36 34.79 166.85 43.23 181.33 34.79 195.82 43.23 210.31 34.79 224.79 43.23 239.28 34.79 253.77 43.92 269.45 60.81 269.45 69.43 284.28 87.69 284.28 96.3 269.45 111.3 269.45 119.91 284.28 138.18 284.28 146.79 269.45 161.78 269.45 170.4 284.28 188.66 284.28 197.28 269.45 212.27 269.45 220.89 284.28 239.15 284.28 247.76 269.45 262.93 269.45 271.54 284.28 289.81 284.28 298.94 268.6 290.49 254.11 298.94 239.62 290.49 225.14 298.94 210.65 290.49 196.16 298.94 181.67 290.49 167.19 298.94 152.7 290.49 138.21 298.94 123.72 289.81 108.04 272.92 108.04 264.3 93.39 246.21 93.39 237.59 108.04 222.26 108.04 213.65 93.39 195.38 93.39 186.76 108.04 171.78 108.04 163.16 93.39 144.89 93.39 136.28 108.04 121.29 108.04 112.67 93.39 94.41 93.39 85.79 108.04 70.8 108.04 62.19 93.39 43.92 93.39 34.79 108.9 43.23 123.38 34.79 137.87" class="cls-2"/><line y2="95.51" x2="247.5" y1="95.51" x1="263" class="cls-2"/><line y2="95.61" x2="196.94" y1="95.61" x1="212.44" class="cls-2"/><line y2="95.51" x2="146.49" y1="95.51" x1="161.99" class="cls-2"/><line y2="95.51" x2="96.11" y1="95.51" x1="111.61" class="cls-2"/><line y2="95.51" x2="45.64" y1="95.51" x1="61.14" class="cls-2"/><path transform="translate(510.49 553.73) rotate(180)" d="M251.25,273.29h8c1.16,0,2.11.94,2.11,2.11v5.05h-12.22v-5.05c0-1.16.94-2.11,2.11-2.11Z" class="cls-2"/><rect transform="translate(510.67 542.82) rotate(180)" height="3.75" width="4.82" y="269.54" x="252.92" class="cls-2"/><path transform="translate(409.37 553.73) rotate(180)" d="M200.69,273.29h8c1.16,0,2.11.94,2.11,2.11v5.05h-12.22v-5.05c0-1.16.94-2.11,2.11-2.11Z" class="cls-2"/><rect transform="translate(409.55 542.82) rotate(180)" height="3.75" width="4.82" y="269.54" x="202.36" class="cls-2"/><path transform="translate(308.25 553.73) rotate(180)" d="M150.13,273.29h8c1.16,0,2.11.94,2.11,2.11v5.05h-12.22v-5.05c0-1.16.94-2.11,2.11-2.11Z" class="cls-2"/><rect transform="translate(308.43 542.82) rotate(180)" height="3.75" width="4.82" y="269.54" x="151.8" class="cls-2"/><path transform="translate(207.14 553.73) rotate(180)" d="M99.57,273.29h8c1.16,0,2.11.94,2.11,2.11v5.05h-12.22v-5.05c0-1.16.94-2.11,2.11-2.11Z" class="cls-2"/><rect transform="translate(207.31 542.82) rotate(180)" height="3.75" width="4.82" y="269.54" x="101.24" class="cls-2"/><path transform="translate(106.02 553.73) rotate(180)" d="M49.01,273.29h8c1.16,0,2.11.94,2.11,2.11v5.05h-12.22v-5.05c0-1.16.94-2.11,2.11-2.11Z" class="cls-2"/><rect transform="translate(106.19 542.82) rotate(180)" height="3.75" width="4.82" y="269.54" x="50.68" class="cls-2"/><path d="M31.84,237.06l-4.08,6.79c-.6,1-.27,2.28.74,2.88l4.39,2.59,6.25-10.4-4.39-2.59c-1-.59-2.3-.27-2.9.73Z" class="cls-2"/><polygon points="37.19 242.14 34.73 246.24 37.98 248.16 40.45 244.06 37.19 242.14" class="cls-2"/><path d="M31.84,207.59l-4.08,6.79c-.6,1-.27,2.28.74,2.88l4.39,2.59,6.25-10.4-4.39-2.59c-1-.59-2.3-.27-2.9.73Z" class="cls-2"/><polygon points="37.19 212.67 34.73 216.77 37.98 218.69 40.45 214.59 37.19 212.67" class="cls-2"/><path d="M31.82,179.16l-4.08,6.79c-.6,1-.27,2.28.74,2.88l4.39,2.59,6.25-10.4-4.39-2.59c-1-.59-2.3-.27-2.9.73Z" class="cls-2"/><polygon points="37.17 184.24 34.71 188.34 37.96 190.26 40.43 186.16 37.17 184.24" class="cls-2"/><path d="M31.81,150.14l-4.08,6.79c-.6,1-.27,2.28.74,2.88l4.39,2.59,6.25-10.4-4.39-2.59c-1-.59-2.3-.27-2.9.73Z" class="cls-2"/><polygon points="37.17 155.22 34.7 159.33 37.96 161.24 40.42 157.14 37.17 155.22" class="cls-2"/><path d="M31.89,120.89l-4.08,6.79c-.6,1-.27,2.28.74,2.88l4.39,2.59,6.25-10.4-4.39-2.59c-1-.59-2.3-.27-2.9.73Z" class="cls-2"/><polygon points="37.25 125.97 34.79 130.07 38.04 131.99 40.5 127.89 37.25 125.97" class="cls-2"/><path d="M31.79,92.4l-4.08,6.79c-.6,1-.27,2.28.74,2.88l4.39,2.59,6.25-10.4-4.39-2.59c-1-.59-2.3-.27-2.9.73Z" class="cls-2"/><polygon points="37.14 97.48 34.68 101.58 37.93 103.5 40.4 99.4 37.14 97.48" class="cls-2"/><rect transform="translate(333.92 78.07) rotate(180)" height="19.64" width="264.11" y="29.21" x="34.9" class="cls-2"/><rect transform="translate(105.13 78.07) rotate(180)" height="19.64" width="35.32" y="29.21" x="34.9" class="cls-2"/><rect transform="translate(206.43 78.07) rotate(180)" height="19.64" width="35.32" y="29.21" x="85.56" class="cls-2"/><rect transform="translate(307.73 78.07) rotate(180)" height="19.64" width="35.32" y="29.21" x="136.21" class="cls-2"/><rect transform="translate(409.04 78.07) rotate(180)" height="19.64" width="35.32" y="29.21" x="186.86" class="cls-2"/><rect transform="translate(510.34 78.07) rotate(180)" height="19.64" width="35.32" y="29.21" x="237.51" class="cls-2"/><path transform="translate(105.13 87.89) rotate(180)" d="M46.45,39.03h12.23v8.67c0,.63-.51,1.15-1.15,1.15h-9.94c-.63,0-1.15-.51-1.15-1.15v-8.67h0Z" class="cls-2"/><line y2="46.27" x2="46.45" y1="46.27" x1="58.68" class="cls-2"/><path transform="translate(206.43 87.89) rotate(-180)" d="M97.1,39.03h12.23v8.67c0,.63-.51,1.15-1.15,1.15h-9.94c-.63,0-1.15-.51-1.15-1.15v-8.67h0Z" class="cls-2"/><line y2="46.27" x2="97.1" y1="46.27" x1="109.33" class="cls-2"/><path transform="translate(307.73 87.89) rotate(-180)" d="M147.75,39.03h12.23v8.67c0,.63-.51,1.15-1.15,1.15h-9.94c-.63,0-1.15-.51-1.15-1.15v-8.67h0Z" class="cls-2"/><line y2="46.27" x2="147.75" y1="46.27" x1="159.98" class="cls-2"/><path transform="translate(409.04 87.89) rotate(180)" d="M198.4,39.03h12.23v8.67c0,.63-.51,1.15-1.15,1.15h-9.94c-.63,0-1.15-.51-1.15-1.15v-8.67h0Z" class="cls-2"/><line y2="46.27" x2="198.4" y1="46.27" x1="210.64" class="cls-2"/><path transform="translate(510.34 87.89) rotate(180)" d="M249.06,39.03h12.23v8.67c0,.63-.51,1.15-1.15,1.15h-9.94c-.63,0-1.15-.51-1.15-1.15v-8.67h0Z" class="cls-2"/><line y2="46.27" x2="249.06" y1="46.27" x1="261.29" class="cls-2"/><path transform="translate(62.23 83.06) rotate(180)" d="M27.32,34.21h7.58v12.65c0,1.1-.89,1.99-1.99,1.99h-5.59v-14.64h0Z" class="cls-2"/><rect transform="translate(702.55 377.34) rotate(180)" height="192.96" width="19.64" y="92.19" x="341.46" class="cls-2"/><line y2="123.03" x2="356.1" y1="123.03" x1="361.1" class="cls-2"/><line y2="151.8" x2="356.1" y1="151.8" x1="361.1" class="cls-2"/><line y2="156.97" x2="356.1" y1="156.97" x1="361.1" class="cls-2"/><line y2="161.28" x2="356.1" y1="161.28" x1="361.1" class="cls-2"/><line y2="181.61" x2="356.1" y1="181.61" x1="361.1" class="cls-2"/><line y2="186.78" x2="356.1" y1="186.78" x1="361.1" class="cls-2"/><line y2="191.08" x2="356.1" y1="191.08" x1="361.1" class="cls-2"/><line y2="211.03" x2="356.1" y1="211.03" x1="361.1" class="cls-2"/><line y2="216.2" x2="356.1" y1="216.2" x1="361.1" class="cls-2"/><line y2="220.51" x2="356.1" y1="220.51" x1="361.1" class="cls-2"/><line y2="240.17" x2="356.1" y1="240.17" x1="361.1" class="cls-2"/><line y2="245.34" x2="356.1" y1="245.34" x1="361.1" class="cls-2"/><line y2="249.64" x2="356.1" y1="249.64" x1="361.1" class="cls-2"/><line y2="270.85" x2="360.61" y1="270.85" x1="341.46" class="cls-2"/><path transform="translate(697.56 557.04) rotate(180)" d="M344.04,274.81h12.06v7.41h-14.64v-4.82c0-1.43,1.16-2.58,2.58-2.58Z" class="cls-2"/><line y2="274.64" x2="348.87" y1="270.85" x1="348.87" class="cls-2"/><path transform="translate(697.56 252.43) rotate(180)" d="M344.15,119.41h11.95v13.61h-11.95c-1.48,0-2.69-1.21-2.69-2.69v-8.23c0-1.48,1.21-2.69,2.69-2.69Z" class="cls-2"/><path transform="translate(697.56 311.36) rotate(180)" d="M344.15,148.87h11.95v13.61h-11.95c-1.48,0-2.69-1.21-2.69-2.69v-8.23c0-1.48,1.21-2.69,2.69-2.69Z" class="cls-2"/><path transform="translate(697.56 370.97) rotate(180)" d="M344.15,178.68h11.95v13.61h-11.95c-1.48,0-2.69-1.21-2.69-2.69v-8.23c0-1.48,1.21-2.69,2.69-2.69Z" class="cls-2"/><path transform="translate(697.56 429.54) rotate(180)" d="M344.15,207.97h11.95v13.61h-11.95c-1.48,0-2.69-1.21-2.69-2.69v-8.23c0-1.48,1.21-2.69,2.69-2.69Z" class="cls-2"/><path transform="translate(697.56 488.12) rotate(180)" d="M344.15,237.26h11.95v13.61h-11.95c-1.48,0-2.69-1.21-2.69-2.69v-8.23c0-1.48,1.21-2.69,2.69-2.69Z" class="cls-2"/></g></g></svg>