<svg viewBox="0 0 531.27 288" xmlns:xlink="http://www.w3.org/1999/xlink" xmlns="http://www.w3.org/2000/svg" id="Camada_2"><defs><style>.cls-1,.cls-2{fill:none;}.cls-3{fill:#12100c;}.cls-2{stroke:#12100c;stroke-linecap:round;stroke-linejoin:round;stroke-width:.3px;}</style><symbol viewBox="0 0 531.27 288" id="fundo_transparente"><rect height="288" width="531.27" x="0" class="cls-1"/></symbol></defs><g id="RePlastic"><g id="deck_enrolável_L"><use xlink:href="#fundo_transparente" height="288" width="531.27"/><rect height="11.41" width="1.9" y="233.37" x="46.77" class="cls-2"/><rect height=".91" width="1.9" y="45.55" x="48.68" class="cls-2"/><rect height=".91" width="1.9" y="62.62" x="48.68" class="cls-2"/><rect height=".91" width="1.9" y="79.69" x="48.68" class="cls-2"/><rect height=".91" width="1.9" y="96.77" x="48.68" class="cls-2"/><rect height=".91" width="1.9" y="113.84" x="48.68" class="cls-2"/><rect height=".91" width="1.9" y="130.91" x="48.68" class="cls-2"/><rect height=".91" width="1.9" y="147.98" x="48.68" class="cls-2"/><rect height=".91" width="1.9" y="165.05" x="48.68" class="cls-2"/><rect height=".91" width="1.9" y="182.13" x="48.68" class="cls-2"/><rect height=".91" width="1.9" y="199.2" x="48.68" class="cls-2"/><rect height=".91" width="1.9" y="216.27" x="48.68" class="cls-2"/><rect height=".91" width="1.9" y="45.55" x="176.39" class="cls-2"/><rect height=".91" width="1.9" y="62.62" x="176.39" class="cls-2"/><rect height=".91" width="1.9" y="79.69" x="176.39" class="cls-2"/><rect height=".91" width="1.9" y="96.77" x="176.39" class="cls-2"/><rect height=".91" width="1.9" y="113.84" x="176.39" class="cls-2"/><rect height=".91" width="1.9" y="130.91" x="176.39" class="cls-2"/><rect height=".91" width="1.9" y="147.98" x="176.39" class="cls-2"/><rect height=".91" width="1.9" y="165.05" x="176.39" class="cls-2"/><rect height=".91" width="1.9" y="182.13" x="176.39" class="cls-2"/><rect height=".91" width="1.9" y="199.2" x="176.39" class="cls-2"/><rect height=".91" width="1.9" y="216.27" x="176.39" class="cls-2"/><rect height="11.41" width="1.9" y="233.37" x="178.29" class="cls-2"/><rect height="3.23" width="150.89" y="273.14" x="38" class="cls-2"/><rect height="3.4" width="1.91" y="276.38" x="46.76" class="cls-2"/><rect height="3.4" width="1.91" y="276.38" x="178.29" class="cls-2"/><rect height="16.17" width="3.23" y="29.39" x="243.89" class="cls-2"/><rect height="16.17" width="3.23" y="46.47" x="243.89" class="cls-2"/><rect height="16.17" width="3.23" y="63.54" x="243.89" class="cls-2"/><rect height="16.17" width="3.23" y="80.61" x="243.89" class="cls-2"/><rect height="16.17" width="3.23" y="97.68" x="243.89" class="cls-2"/><rect height="16.17" width="3.23" y="114.75" x="243.89" class="cls-2"/><rect height="16.17" width="3.23" y="131.83" x="243.89" class="cls-2"/><rect height="16.17" width="3.23" y="148.9" x="243.89" class="cls-2"/><rect height="16.17" width="3.23" y="165.97" x="243.89" class="cls-2"/><rect height="16.17" width="3.23" y="183.04" x="243.89" class="cls-2"/><rect height="16.17" width="3.23" y="200.11" x="243.89" class="cls-2"/><rect height="16.17" width="3.23" y="217.19" x="243.89" class="cls-2"/><rect height="16.16" width="150.91" y="29.39" x="37.95" class="cls-2"/><rect height="16.16" width="150.91" y="46.46" x="37.95" class="cls-2"/><rect height="16.16" width="150.91" y="63.54" x="37.95" class="cls-2"/><rect height="16.16" width="150.91" y="80.61" x="37.95" class="cls-2"/><rect height="16.16" width="150.91" y="97.68" x="37.95" class="cls-2"/><rect height="16.16" width="150.91" y="114.75" x="37.95" class="cls-2"/><rect height="16.16" width="150.91" y="131.82" x="37.95" class="cls-2"/><rect height="16.16" width="150.91" y="148.89" x="37.95" class="cls-2"/><rect height="16.16" width="150.91" y="165.97" x="37.95" class="cls-2"/><rect height="16.16" width="150.91" y="183.04" x="37.95" class="cls-2"/><rect height="16.16" width="150.91" y="200.11" x="37.95" class="cls-2"/><rect height="16.16" width="150.91" y="217.18" x="37.95" class="cls-2"/><g id="SPLINE"><path d="M247.19,224.67c.08,0,.2.12.24.16.03.04.05.08.06.13.01.05.02.1.02.15,0,.05,0,.11-.01.16-.02.13-.05.25-.09.37-.04.14-.09.28-.12.41-.04.14-.07.29-.09.44s-.02.3,0,.45.03.29.06.44c.03.14.06.27.08.41.04.19.07.38.1.57.02.16.04.32.05.47.01.14.02.28.02.42,0,.13,0,.26.01.39s.01.26.02.39c0,.15.02.31.02.46,0,.12,0,.25,0,.37,0,.1-.02.2-.02.3s0,.21,0,.31c0,.11,0,.22.02.33s.02.23.03.34.02.22.03.34c.01.1.02.21.03.31.01.14.02.29.03.43,0,.12.02.25.04.37.02.12.05.23.1.34.05.12.13.23.21.33.1.12.22.23.33.35.11.1.21.2.32.31s.21.21.3.33.17.23.23.36c.06.12.1.25.13.38s.05.25.06.38c.01.12.02.23.03.35,0,.09.02.19.03.28.01.09.02.18.04.27.01.1.03.19.04.29.02.11.03.23.05.34.02.14.04.28.05.42.02.18.04.36.06.54.02.21.04.41.06.62.02.23.04.46.05.7.02.25.03.5.05.75s.03.51.04.77.02.51.03.77c0,.25.01.5.01.75,0,.23,0,.46,0,.69,0,.21-.01.41-.03.62-.01.17-.03.34-.05.51-.02.13-.04.27-.08.4-.03.1-.06.2-.09.3-.03.08-.06.16-.1.23-.03.06-.07.12-.1.18-.03.05-.06.1-.1.16-.03.05-.06.09-.09.14,0,.01-.02.02-.03.03,0,0-.02.01-.03.02-.01,0-.02,0-.03,0,0,0-.01,0-.02,0,0,0-.02,0-.02,0,0,0-.02-.01-.02-.02-.02-.02-.04-.04-.05-.06-.02-.03-.04-.06-.06-.09-.04-.07-.07-.14-.1-.22-.04-.11-.08-.21-.11-.32-.04-.14-.09-.27-.13-.41-.05-.16-.09-.31-.13-.47-.05-.17-.09-.34-.13-.51-.06-.23-.11-.45-.17-.68-.05-.21-.1-.43-.14-.64-.04-.18-.08-.37-.11-.55-.03-.17-.06-.33-.09-.5-.02-.15-.04-.29-.06-.44-.02-.13-.04-.27-.05-.4s-.03-.26-.05-.39c-.02-.14-.04-.28-.07-.42-.02-.12-.04-.24-.06-.37-.02-.14-.05-.28-.07-.41-.03-.16-.05-.32-.07-.48-.03-.18-.05-.37-.08-.55-.03-.21-.05-.43-.07-.64s-.05-.44-.06-.67c-.02-.24-.03-.48-.04-.72,0-.21-.01-.42-.01-.63,0-.19,0-.39,0-.58s0-.38.01-.57c0-.21.01-.42.02-.63,0-.19.01-.37.02-.56,0-.15,0-.3.01-.45,0-.11,0-.22,0-.33,0-.09,0-.19,0-.28s.02-.19.02-.28c0-.1,0-.2-.02-.31-.02-.11-.05-.22-.07-.34-.01-.1,0-.2,0-.3,0-.13,0-.25,0-.38,0-.17,0-.34-.01-.5,0-.18-.01-.36-.02-.54,0-.16-.02-.33-.02-.49,0-.25,0-4.18,0-4.32" class="cls-2"/></g><line y2="225.02" x2="247.13" y1="31.05" x1="247.13" class="cls-2"/><line y2="276.22" x2="11.39" y1="273.29" x1="11.39" class="cls-2"/><rect height=".3" width="1.95" y="273.14" x="10.42" class="cls-3"/><rect height=".3" width="1.95" y="276.07" x="10.42" class="cls-3"/><path d="M3.01,282.88h.55l.98.65c.06.04.1.07.15.1.04.03.08.06.13.09s.09.06.13.09.09.06.15.09c.02-.19.08-.37.18-.52s.21-.29.35-.41c.14-.12.3-.21.48-.27s.38-.09.59-.09c.24,0,.47.04.67.13.2.08.38.2.52.36.14.15.26.34.34.54s.12.44.12.69c0,.21-.03.4-.08.58-.05.18-.13.35-.23.49-.1.15-.22.28-.37.39-.14.11-.31.2-.49.26l-.31-.63c.24-.08.44-.22.58-.41.14-.19.21-.42.21-.67,0-.15-.02-.28-.07-.4-.05-.12-.11-.23-.2-.31-.09-.09-.19-.15-.31-.2-.12-.05-.26-.07-.41-.07s-.29.03-.42.08c-.13.06-.23.13-.32.22-.09.09-.16.21-.21.34-.05.13-.08.28-.08.44v.35l-.44.08-1.07-.72s-.09-.06-.12-.09c-.03-.03-.07-.05-.12-.08s-.08-.06-.12-.08c-.03-.03-.07-.06-.12-.09v2.18h-.65v-3.09Z"/><path d="M3.16,279.18c.13-.25.32-.47.55-.65.23-.18.52-.32.85-.42.33-.1.69-.15,1.08-.15s.76.05,1.1.15.62.24.86.42c.24.18.43.4.56.65.13.25.2.52.2.83s-.07.57-.2.82-.32.47-.56.65c-.24.18-.53.32-.86.42-.33.1-.7.15-1.1.15s-.75-.05-1.08-.15c-.33-.1-.61-.24-.85-.42-.24-.18-.42-.4-.55-.65-.13-.25-.2-.53-.2-.83s.07-.58.2-.83ZM3.79,280.54c.1.16.23.29.41.41.18.11.38.2.63.27.24.07.51.1.81.1s.57-.03.82-.09c.25-.06.46-.15.64-.27.18-.12.32-.25.42-.41.1-.16.15-.33.15-.52s-.05-.37-.15-.53c-.1-.16-.24-.3-.42-.41-.18-.11-.39-.2-.64-.27-.25-.06-.52-.09-.82-.09s-.56.03-.81.09c-.25.06-.46.15-.63.26-.17.11-.31.25-.41.41-.1.16-.15.34-.15.53s.05.37.15.52Z"/><path d="M4.66,274.36h.67c-.24-.11-.42-.26-.54-.45-.12-.18-.18-.4-.18-.63,0-.26.07-.48.2-.67.14-.19.33-.32.59-.41-.26-.11-.45-.27-.59-.46-.14-.2-.2-.43-.2-.7,0-.38.12-.67.37-.88.25-.21.61-.31,1.07-.31h2.25v.7h-2.16c-.29,0-.52.07-.69.2-.17.13-.25.31-.25.54,0,.12.02.22.07.32.05.1.11.18.2.26.09.07.19.13.32.16.12.04.26.06.4.06h2.11v.7h-2.16c-.14,0-.27.02-.38.06-.12.04-.22.09-.3.15-.08.06-.14.14-.19.23-.04.09-.07.2-.07.31s.02.22.07.32c.05.1.12.18.21.25.09.07.2.12.32.17.12.04.26.06.41.06h2.09v.7h-3.64v-.68Z"/><path d="M4.66,268.17h.67c-.24-.11-.42-.26-.54-.45-.12-.18-.18-.4-.18-.63,0-.26.07-.48.2-.67.14-.19.33-.32.59-.41-.26-.11-.45-.27-.59-.46-.14-.2-.2-.43-.2-.7,0-.38.12-.67.37-.88.25-.21.61-.31,1.07-.31h2.25v.7h-2.16c-.29,0-.52.07-.69.2-.17.13-.25.31-.25.54,0,.12.02.22.07.32.05.1.11.18.2.26.09.07.19.13.32.16.12.04.26.06.4.06h2.11v.7h-2.16c-.14,0-.27.02-.38.06-.12.04-.22.09-.3.15-.08.06-.14.14-.19.23-.04.09-.07.2-.07.31s.02.22.07.32c.05.1.12.18.21.25.09.07.2.12.32.17.12.04.26.06.41.06h2.09v.7h-3.64v-.68Z"/><line y2="244.63" x2="11.39" y1="29.54" x1="11.39" class="cls-2"/><rect height=".3" width="1.95" y="29.39" x="10.42" class="cls-3"/><rect height=".3" width="1.95" y="244.48" x="10.42" class="cls-3"/><path d="M3.08,150.68c.08-.21.19-.39.33-.54.14-.15.31-.27.51-.35.2-.08.42-.13.67-.13.14,0,.28.02.42.05.14.03.28.08.41.15.14.07.27.16.42.27.14.11.29.24.45.39l1.35,1.31v-2.29h.67v3.32h-.59l-1.85-1.79c-.12-.12-.23-.22-.33-.3-.1-.08-.21-.15-.3-.2-.1-.05-.19-.09-.29-.11-.09-.02-.19-.03-.29-.03-.15,0-.28.02-.4.07-.12.04-.23.11-.32.2-.09.09-.16.19-.21.3-.05.11-.07.24-.07.39,0,.25.08.47.23.65.15.18.36.31.63.39l-.23.67c-.42-.12-.74-.32-.97-.62s-.34-.66-.34-1.1c0-.25.04-.48.12-.69Z"/><path d="M3.16,146.13c.13-.25.32-.47.55-.65.23-.18.52-.32.85-.42.33-.1.69-.15,1.08-.15s.76.05,1.1.15.62.24.86.42c.24.18.43.4.56.65.13.25.2.52.2.83s-.07.57-.2.82-.32.47-.56.65c-.24.18-.53.32-.86.42-.33.1-.7.15-1.1.15s-.75-.05-1.08-.15c-.33-.1-.61-.24-.85-.42-.24-.18-.42-.4-.55-.65-.13-.25-.2-.53-.2-.83s.07-.58.2-.83ZM3.79,147.48c.1.16.23.29.41.41.18.11.38.2.63.27.24.07.51.1.81.1s.57-.03.82-.09c.25-.06.46-.15.64-.27.18-.12.32-.25.42-.41.1-.16.15-.33.15-.52s-.05-.37-.15-.53c-.1-.16-.24-.3-.42-.41-.18-.11-.39-.2-.64-.27-.25-.06-.52-.09-.82-.09s-.56.03-.81.09c-.25.06-.46.15-.63.26-.17.11-.31.25-.41.41-.1.16-.15.34-.15.53s.05.37.15.52Z"/><path d="M3.16,141.5c.13-.25.32-.47.55-.65.23-.18.52-.32.85-.42.33-.1.69-.15,1.08-.15s.76.05,1.1.15.62.24.86.42c.24.18.43.4.56.65.13.25.2.52.2.83s-.07.57-.2.82-.32.47-.56.65c-.24.18-.53.32-.86.42-.33.1-.7.15-1.1.15s-.75-.05-1.08-.15c-.33-.1-.61-.24-.85-.42-.24-.18-.42-.4-.55-.65-.13-.25-.2-.53-.2-.83s.07-.58.2-.83ZM3.79,142.85c.1.16.23.29.41.41.18.11.38.2.63.27.24.07.51.1.81.1s.57-.03.82-.09c.25-.06.46-.15.64-.27.18-.12.32-.25.42-.41.1-.16.15-.33.15-.52s-.05-.37-.15-.53c-.1-.16-.24-.3-.42-.41-.18-.11-.39-.2-.64-.27-.25-.06-.52-.09-.82-.09s-.56.03-.81.09c-.25.06-.46.15-.63.26-.17.11-.31.25-.41.41-.1.16-.15.34-.15.53s.05.37.15.52Z"/><path d="M3.16,136.86c.13-.25.32-.47.55-.65.23-.18.52-.32.85-.42.33-.1.69-.15,1.08-.15s.76.05,1.1.15.62.24.86.42c.24.18.43.4.56.65.13.25.2.52.2.83s-.07.57-.2.82-.32.47-.56.65c-.24.18-.53.32-.86.42-.33.1-.7.15-1.1.15s-.75-.05-1.08-.15c-.33-.1-.61-.24-.85-.42-.24-.18-.42-.4-.55-.65-.13-.25-.2-.53-.2-.83s.07-.58.2-.83ZM3.79,138.21c.1.16.23.29.41.41.18.11.38.2.63.27.24.07.51.1.81.1s.57-.03.82-.09c.25-.06.46-.15.64-.27.18-.12.32-.25.42-.41.1-.16.15-.33.15-.52s-.05-.37-.15-.53c-.1-.16-.24-.3-.42-.41-.18-.11-.39-.2-.64-.27-.25-.06-.52-.09-.82-.09s-.56.03-.81.09c-.25.06-.46.15-.63.26-.17.11-.31.25-.41.41-.1.16-.15.34-.15.53s.05.37.15.52Z"/><path d="M4.66,132.03h.67c-.24-.11-.42-.26-.54-.45-.12-.18-.18-.4-.18-.63,0-.26.07-.48.2-.67.14-.19.33-.32.59-.41-.26-.11-.45-.27-.59-.46-.14-.2-.2-.43-.2-.7,0-.38.12-.67.37-.88.25-.21.61-.31,1.07-.31h2.25v.7h-2.16c-.29,0-.52.07-.69.2-.17.13-.25.31-.25.54,0,.12.02.22.07.32.05.1.11.18.2.26.09.07.19.13.32.16.12.04.26.06.4.06h2.11v.7h-2.16c-.14,0-.27.02-.38.06-.12.04-.22.09-.3.15-.08.06-.14.14-.19.23-.04.09-.07.2-.07.31s.02.22.07.32c.05.1.12.18.21.25.09.07.2.12.32.17.12.04.26.06.41.06h2.09v.7h-3.64v-.68Z"/><path d="M4.66,125.85h.67c-.24-.11-.42-.26-.54-.45-.12-.18-.18-.4-.18-.63,0-.26.07-.48.2-.67.14-.19.33-.32.59-.41-.26-.11-.45-.27-.59-.46-.14-.2-.2-.43-.2-.7,0-.38.12-.67.37-.88.25-.21.61-.31,1.07-.31h2.25v.7h-2.16c-.29,0-.52.07-.69.2-.17.13-.25.31-.25.54,0,.12.02.22.07.32.05.1.11.18.2.26.09.07.19.13.32.16.12.04.26.06.4.06h2.11v.7h-2.16c-.14,0-.27.02-.38.06-.12.04-.22.09-.3.15-.08.06-.14.14-.19.23-.04.09-.07.2-.07.31s.02.22.07.32c.05.1.12.18.21.25.09.07.2.12.32.17.12.04.26.06.41.06h2.09v.7h-3.64v-.68Z"/><line y2="12.99" x2="38.15" y1="12.99" x1="188.74" class="cls-2"/><rect height="1.95" width=".3" y="12.01" x="188.59" class="cls-3"/><rect height="1.95" width=".3" y="12.01" x="38" class="cls-3"/><path d="M100.23,4.61v5.29h-.72v-4.54l-1.3.64v-.73l1.36-.67h.67Z"/><path d="M104.13,4.61v5.29h-.73v-4.36s-.04.08-.06.1c-.02.03-.04.06-.07.09l-1.35,2.02s-.04.06-.05.08-.03.05-.06.08h3.2v.64h-3.98v-.59l2.22-3.35h.87Z"/><path d="M108.31,4.75c.25.13.47.32.65.55.18.23.32.52.42.85.1.33.15.69.15,1.08s-.05.76-.15,1.1-.24.62-.42.86c-.18.24-.4.43-.65.56-.25.13-.52.2-.83.2s-.57-.07-.82-.2-.47-.32-.65-.56c-.18-.24-.32-.53-.42-.86-.1-.33-.15-.7-.15-1.1s.05-.75.15-1.08c.1-.33.24-.61.42-.85.18-.24.4-.42.65-.55.25-.13.53-.2.83-.2s.58.07.83.2ZM106.96,5.38c-.16.1-.29.23-.41.41-.11.18-.2.38-.27.63-.07.24-.1.51-.1.81s.03.57.09.82c.06.25.15.46.27.64.12.18.25.32.41.42.16.1.33.15.52.15s.37-.05.53-.15c.16-.1.3-.24.41-.42.11-.18.2-.39.27-.64.06-.25.09-.52.09-.82s-.03-.56-.09-.81c-.06-.25-.15-.46-.26-.63-.11-.17-.25-.31-.41-.41-.16-.1-.34-.15-.53-.15s-.37.05-.52.15Z"/><path d="M112.94,4.75c.25.13.47.32.65.55.18.23.32.52.42.85.1.33.15.69.15,1.08s-.05.76-.15,1.1-.24.62-.42.86c-.18.24-.4.43-.65.56-.25.13-.52.2-.83.2s-.57-.07-.82-.2-.47-.32-.65-.56c-.18-.24-.32-.53-.42-.86-.1-.33-.15-.7-.15-1.1s.05-.75.15-1.08c.1-.33.24-.61.42-.85.18-.24.4-.42.65-.55.25-.13.53-.2.83-.2s.58.07.83.2ZM111.59,5.38c-.16.1-.29.23-.41.41-.11.18-.2.38-.27.63-.07.24-.1.51-.1.81s.03.57.09.82c.06.25.15.46.27.64.12.18.25.32.41.42.16.1.33.15.52.15s.37-.05.53-.15c.16-.1.3-.24.41-.42.11-.18.2-.39.27-.64.06-.25.09-.52.09-.82s-.03-.56-.09-.81c-.06-.25-.15-.46-.26-.63-.11-.17-.25-.31-.41-.41-.16-.1-.34-.15-.53-.15s-.37.05-.52.15Z"/><path d="M117.77,6.25v.67c.11-.24.26-.42.45-.54.18-.12.4-.18.63-.18.26,0,.48.07.67.2.19.14.32.33.41.59.11-.26.27-.45.46-.59.2-.14.43-.2.7-.2.38,0,.67.12.88.37.21.25.31.61.31,1.07v2.25h-.7v-2.16c0-.29-.07-.52-.2-.69-.13-.17-.31-.25-.54-.25-.12,0-.22.02-.32.07-.1.05-.18.11-.26.2-.07.09-.13.19-.16.32-.04.12-.06.26-.06.4v2.11h-.7v-2.16c0-.14-.02-.27-.06-.38-.04-.12-.09-.22-.15-.3-.06-.08-.14-.14-.23-.19-.09-.04-.2-.07-.31-.07s-.22.02-.32.07c-.1.05-.18.12-.25.21-.07.09-.12.2-.17.32-.04.12-.06.26-.06.41v2.09h-.7v-3.64h.68Z"/><path d="M123.96,6.25v.67c.11-.24.26-.42.45-.54.18-.12.4-.18.63-.18.26,0,.48.07.67.2.19.14.32.33.41.59.11-.26.27-.45.46-.59.2-.14.43-.2.7-.2.38,0,.67.12.88.37.21.25.31.61.31,1.07v2.25h-.7v-2.16c0-.29-.07-.52-.2-.69-.13-.17-.31-.25-.54-.25-.12,0-.22.02-.32.07-.1.05-.18.11-.26.2-.07.09-.13.19-.16.32-.04.12-.06.26-.06.4v2.11h-.7v-2.16c0-.14-.02-.27-.06-.38-.04-.12-.09-.22-.15-.3-.06-.08-.14-.14-.23-.19-.09-.04-.2-.07-.31-.07s-.22.02-.32.07c-.1.05-.18.12-.25.21-.07.09-.12.2-.17.32-.04.12-.06.26-.06.41v2.09h-.7v-3.64h.68Z"/></g></g></svg>