<svg viewBox="0 0 531.26 288" xmlns="http://www.w3.org/2000/svg" id="Golf"><defs><style>.cls-1{fill:none;stroke:#000;stroke-linecap:round;stroke-linejoin:round;stroke-width:.3px;}</style></defs><g id="Club_House"><g id="vitrine_informativa"><rect height="193.73" width="12.5" y="91.41" x="318" class="cls-1"/><rect height="12.5" width="243.73" y="44.98" x="31.32" class="cls-1"/><line y2="57.48" x2="36.8" y1="44.98" x1="36.8" class="cls-1"/><line y2="57.48" x2="269.71" y1="44.98" x1="269.71" class="cls-1"/><path d="M38.86,99.49v177.5h229.43V99.49H38.86ZM254.94,260.43s0,.09-.02.14c-.05.41-.32.72-.67.78-.04.02-.07.03-.12.03H52.62s-.08,0-.12-.03c-.35-.06-.62-.38-.67-.78-.02-.04-.02-.09-.02-.14v-128.33s0-.09.02-.14c.05-.41.32-.72.67-.78.04-.02.07-.03.12-.03h201.51s.08,0,.12.03c.35.06.62.38.67.78.02.04.02.09.02.14v128.33Z" class="cls-1"/><path d="M52.51,261.35s.07.03.12.03h201.51s.08,0,.12-.03c.35-.06.62-.38.67-.78.02-.04.02-.09.02-.14v-128.33s0-.09-.02-.14c-.05-.41-.32-.72-.67-.78-.04-.02-.07-.03-.12-.03H52.62s-.08,0-.12.03c-.35.06-.62.38-.67.78-.02.04-.02.09-.02.14v128.33s0,.09.02.14c.05.41.32.72.67.78Z" class="cls-1"/><rect height="6.25" width="233.03" y="278.89" x="36.68" class="cls-1"/><rect height="6.25" width="233.16" y="91.41" x="36.64" class="cls-1"/><rect height="193.73" width="5.34" y="91.41" x="269.71" class="cls-1"/><rect height="193.73" width="5.34" y="91.41" x="31.32" class="cls-1"/><rect height="14.08" width="1.43" y="182.13" x="268.28" class="cls-1"/><rect height="2.8" width="2.2" y="273.54" x="36.66" class="cls-1"/><polygon points="37.83 100.51 38.86 100.51 38.86 103.4 36.66 103.4 36.66 100.51 37.83 100.51" class="cls-1"/><rect height="3.99" width="2.06" y="268.75" x="36.8" class="cls-1"/><rect height="4.09" width="2.06" y="104.2" x="36.8" class="cls-1"/><rect height="2.9" width="2.2" y="109.09" x="36.66" class="cls-1"/><polygon points="37.83 264.86 38.86 264.86 38.86 267.75 36.66 267.75 36.66 264.86 37.83 264.86" class="cls-1"/><circle r="1.35" cy="189.38" cx="264.7" class="cls-1"/><g id="LINE"><line y2="91.44" x2="18.12" y1="284.87" x1="18.12" class="cls-1"/><rect height=".3" width="1.95" y="284.72" x="17.14"/><rect height=".3" width="1.95" y="91.29" x="17.14"/></g><g id="MTEXT"><path d="M9.03,199.02c.12-.24.29-.44.51-.61.22-.17.5-.3.82-.39.32-.09.69-.14,1.09-.14s.8.05,1.15.15c.35.1.64.24.89.43s.43.41.56.67c.13.26.2.55.2.88,0,.37-.09.7-.27.97-.18.27-.43.47-.76.59l-.29-.64c.21-.07.37-.18.48-.34.11-.16.17-.35.17-.56,0-.2-.05-.38-.14-.55-.09-.17-.23-.31-.4-.44-.17-.13-.37-.22-.61-.29-.24-.07-.49-.1-.77-.1h-.17c-.06,0-.1,0-.15,0,.25.08.45.23.59.45.14.22.21.48.21.79,0,.24-.04.46-.12.65-.08.2-.19.36-.34.5-.14.14-.32.25-.52.33-.2.08-.42.12-.66.12s-.47-.04-.68-.13c-.21-.08-.38-.2-.52-.35-.14-.15-.26-.32-.34-.53-.08-.21-.12-.43-.12-.68,0-.3.06-.57.18-.81ZM9.6,200.19c.05.12.12.22.21.3.09.08.19.15.31.2.12.05.26.07.41.07s.29-.02.41-.07c.12-.05.23-.12.32-.2.09-.09.16-.19.21-.31.05-.12.07-.25.07-.4s-.02-.27-.07-.39c-.05-.12-.12-.22-.2-.31-.09-.09-.19-.15-.31-.2-.12-.05-.25-.07-.4-.07s-.28.03-.41.08c-.13.05-.24.13-.34.21-.1.09-.17.2-.22.32s-.08.26-.08.4.03.26.08.38Z"/><path d="M8.91,194.16h.55l.98.65c.06.04.1.07.15.1.04.03.08.06.13.09s.09.06.13.09.09.06.15.09c.02-.19.08-.37.18-.52s.21-.29.35-.41c.14-.12.3-.21.48-.27s.38-.09.59-.09c.24,0,.47.04.67.13.2.08.38.2.52.36.14.15.26.34.34.54s.12.44.12.69c0,.21-.03.4-.08.58-.05.18-.13.35-.23.49-.1.15-.22.28-.37.39-.14.11-.31.2-.49.26l-.31-.63c.24-.08.44-.22.58-.41.14-.19.21-.42.21-.67,0-.15-.02-.28-.07-.4-.05-.12-.11-.23-.2-.31-.09-.09-.19-.15-.31-.2-.12-.05-.26-.07-.41-.07s-.29.03-.42.08c-.13.06-.23.13-.32.22-.09.09-.16.21-.21.34-.05.13-.08.28-.08.44v.35l-.44.08-1.07-.72s-.09-.06-.12-.09c-.03-.03-.07-.05-.12-.08s-.08-.06-.12-.08c-.03-.03-.07-.06-.12-.09v2.18h-.65v-3.09Z"/><path d="M9.05,190.47c.13-.25.32-.47.55-.65.23-.18.52-.32.85-.42.33-.1.69-.15,1.08-.15s.76.05,1.1.15.62.24.86.42c.24.18.43.4.56.65.13.25.2.52.2.83s-.07.57-.2.82-.32.47-.56.65c-.24.18-.53.32-.86.42-.33.1-.7.15-1.1.15s-.75-.05-1.08-.15c-.33-.1-.61-.24-.85-.42-.24-.18-.42-.4-.55-.65-.13-.25-.2-.53-.2-.83s.07-.58.2-.83ZM9.68,191.82c.1.16.23.29.41.41.18.11.38.2.63.27.24.07.51.1.81.1s.57-.03.82-.09c.25-.06.46-.15.64-.27.18-.12.32-.25.42-.41.1-.16.15-.33.15-.52s-.05-.37-.15-.53c-.1-.16-.24-.3-.42-.41-.18-.11-.39-.2-.64-.27-.25-.06-.52-.09-.82-.09s-.56.03-.81.09c-.25.06-.46.15-.63.26-.17.11-.31.25-.41.41-.1.16-.15.34-.15.53s.05.37.15.52Z"/><path d="M10.55,185.64h.67c-.24-.11-.42-.26-.54-.45-.12-.18-.18-.4-.18-.63,0-.26.07-.48.2-.67.14-.19.33-.32.59-.41-.26-.11-.45-.27-.59-.46-.14-.2-.2-.43-.2-.7,0-.38.12-.67.37-.88.25-.21.61-.31,1.07-.31h2.25v.7h-2.16c-.29,0-.52.07-.69.2-.17.13-.25.31-.25.54,0,.12.02.22.07.32.05.1.11.18.2.26.09.07.19.13.32.16.12.04.26.06.4.06h2.11v.7h-2.16c-.14,0-.27.02-.38.06-.12.04-.22.09-.3.15-.08.06-.14.14-.19.23-.04.09-.07.2-.07.31s.02.22.07.32c.05.1.12.18.21.25.09.07.2.12.32.17.12.04.26.06.41.06h2.09v.7h-3.64v-.68Z"/><path d="M10.55,179.46h.67c-.24-.11-.42-.26-.54-.45-.12-.18-.18-.4-.18-.63,0-.26.07-.48.2-.67.14-.19.33-.32.59-.41-.26-.11-.45-.27-.59-.46-.14-.2-.2-.43-.2-.7,0-.38.12-.67.37-.88.25-.21.61-.31,1.07-.31h2.25v.7h-2.16c-.29,0-.52.07-.69.2-.17.13-.25.31-.25.54,0,.12.02.22.07.32.05.1.11.18.2.26.09.07.19.13.32.16.12.04.26.06.4.06h2.11v.7h-2.16c-.14,0-.27.02-.38.06-.12.04-.22.09-.3.15-.08.06-.14.14-.19.23-.04.09-.07.2-.07.31s.02.22.07.32c.05.1.12.18.21.25.09.07.2.12.32.17.12.04.26.06.41.06h2.09v.7h-3.64v-.68Z"/></g><g id="LINE-2"><line y2="45.13" x2="18.12" y1="57.33" x1="18.12" class="cls-1"/><rect height=".3" width="1.95" y="57.18" x="17.14"/><rect height=".3" width="1.95" y="44.98" x="17.14"/></g><g id="MTEXT-2"><path d="M14.07,61.51c-.12.24-.29.44-.51.61-.22.17-.5.3-.82.39s-.69.14-1.09.14-.8-.05-1.15-.15c-.35-.1-.64-.24-.89-.43-.25-.18-.43-.41-.56-.67-.13-.26-.2-.55-.2-.88,0-.37.09-.7.27-.97.18-.27.43-.47.76-.59l.29.64c-.21.07-.37.18-.48.34-.11.16-.17.35-.17.56,0,.2.05.38.14.55s.23.31.4.44c.17.13.37.22.61.29s.49.1.77.1h.17c.06,0,.1,0,.15,0-.25-.08-.45-.23-.59-.45-.14-.22-.21-.48-.21-.79,0-.24.04-.46.12-.65.08-.2.19-.36.34-.5.15-.14.32-.25.52-.33.2-.08.42-.12.66-.12s.47.04.68.13c.21.08.38.2.53.35.14.15.26.32.34.53s.12.43.12.68c0,.3-.06.57-.18.81ZM13.5,60.34c-.05-.12-.12-.22-.21-.3-.09-.08-.19-.15-.31-.2-.12-.05-.26-.07-.41-.07s-.29.02-.41.07c-.12.05-.23.12-.32.2s-.16.19-.21.31-.07.25-.07.4.02.27.07.39.12.22.2.31c.09.09.19.15.31.2.12.05.25.07.4.07s.28-.03.41-.08.24-.12.34-.21.17-.2.22-.32c.05-.12.08-.26.08-.4s-.03-.26-.08-.38Z"/><path d="M9.05,55.54c.13-.25.32-.47.55-.65.23-.18.52-.32.85-.42.33-.1.69-.15,1.08-.15s.76.05,1.1.15.62.24.86.42c.24.18.43.4.56.65.13.25.2.52.2.83s-.07.57-.2.82-.32.47-.56.65c-.24.18-.53.32-.86.42-.33.1-.7.15-1.1.15s-.75-.05-1.08-.15c-.33-.1-.61-.24-.85-.42-.24-.18-.42-.4-.55-.65-.13-.25-.2-.53-.2-.83s.07-.58.2-.83ZM9.68,56.89c.1.16.23.29.41.41.18.11.38.2.63.27.24.07.51.1.81.1s.57-.03.82-.09c.25-.06.46-.15.64-.27.18-.12.32-.25.42-.41.1-.16.15-.33.15-.52s-.05-.37-.15-.53c-.1-.16-.24-.3-.42-.41-.18-.11-.39-.2-.64-.27-.25-.06-.52-.09-.82-.09s-.56.03-.81.09c-.25.06-.46.15-.63.26-.17.11-.31.25-.41.41-.1.16-.15.34-.15.53s.05.37.15.52Z"/><path d="M10.55,50.71h.67c-.24-.11-.42-.26-.54-.45-.12-.18-.18-.4-.18-.63,0-.26.07-.48.2-.67.14-.19.33-.32.59-.41-.26-.11-.45-.27-.59-.46-.14-.2-.2-.43-.2-.7,0-.38.12-.67.37-.88.25-.21.61-.31,1.07-.31h2.25v.7h-2.16c-.29,0-.52.07-.69.2-.17.13-.25.31-.25.54,0,.12.02.22.07.32.05.1.11.18.2.26.09.07.19.13.32.16.12.04.26.06.4.06h2.11v.7h-2.16c-.14,0-.27.02-.38.06-.12.04-.22.09-.3.15-.08.06-.14.14-.19.23-.04.09-.07.2-.07.31s.02.22.07.32c.05.1.12.18.21.25.09.07.2.12.32.17.12.04.26.06.41.06h2.09v.7h-3.64v-.68Z"/><path d="M10.55,44.52h.67c-.24-.11-.42-.26-.54-.45-.12-.18-.18-.4-.18-.63,0-.26.07-.48.2-.67.14-.19.33-.32.59-.41-.26-.11-.45-.27-.59-.46-.14-.2-.2-.43-.2-.7,0-.38.12-.67.37-.88.25-.21.61-.31,1.07-.31h2.25v.7h-2.16c-.29,0-.52.07-.69.2-.17.13-.25.31-.25.54,0,.12.02.22.07.32.05.1.11.18.2.26.09.07.19.13.32.16.12.04.26.06.4.06h2.11v.7h-2.16c-.14,0-.27.02-.38.06-.12.04-.22.09-.3.15-.08.06-.14.14-.19.23-.04.09-.07.2-.07.31s.02.22.07.32c.05.1.12.18.21.25.09.07.2.12.32.17.12.04.26.06.41.06h2.09v.7h-3.64v-.68Z"/></g><g id="LINE-3"><line y2="30.99" x2="274.9" y1="30.99" x1="31.47" class="cls-1"/><rect height="1.95" width=".3" y="30.01" x="31.32"/><rect height="1.95" width=".3" y="30.01" x="274.75"/></g><g id="MTEXT-3"><path d="M141.21,21.78v5.29h-.72v-4.54l-1.3.64v-.73l1.36-.67h.67Z"/><path d="M144.04,21.78v5.29h-.72v-4.54l-1.3.64v-.73l1.36-.67h.67Z"/><path d="M145.61,27.06l1.78-4.62h-2.69v-.67h3.5v.59l-1.77,4.7h-.83Z"/><path d="M151.44,21.92c.25.13.47.32.65.55.18.23.32.52.42.85.1.33.15.69.15,1.08s-.05.76-.15,1.1-.24.62-.42.86c-.18.24-.4.43-.65.56-.25.13-.52.2-.83.2s-.57-.07-.82-.2-.47-.32-.65-.56c-.18-.24-.32-.53-.42-.86-.1-.33-.15-.7-.15-1.1s.05-.75.15-1.08c.1-.33.24-.61.42-.85.18-.24.4-.42.65-.55.25-.13.53-.2.83-.2s.58.07.83.2ZM150.09,22.56c-.16.1-.29.23-.41.41-.11.18-.2.38-.27.63-.07.24-.1.51-.1.81s.03.57.09.82c.06.25.15.46.27.64.12.18.25.32.41.42.16.1.33.15.52.15s.37-.05.53-.15c.16-.1.3-.24.41-.42.11-.18.2-.39.27-.64.06-.25.09-.52.09-.82s-.03-.56-.09-.81c-.06-.25-.15-.46-.26-.63-.11-.17-.25-.31-.41-.41-.16-.1-.34-.15-.53-.15s-.37.05-.52.15Z"/><path d="M156.27,23.42v.67c.11-.24.26-.42.45-.54.18-.12.4-.18.63-.18.26,0,.48.07.67.2.19.14.32.33.41.59.11-.26.27-.45.46-.59.2-.14.43-.2.7-.2.38,0,.67.12.88.37.21.25.31.61.31,1.07v2.25h-.7v-2.16c0-.29-.07-.52-.2-.69-.13-.17-.31-.25-.54-.25-.12,0-.22.02-.32.07-.1.05-.18.11-.26.2-.07.09-.13.19-.16.32-.04.12-.06.26-.06.4v2.11h-.7v-2.16c0-.14-.02-.27-.06-.38-.04-.12-.09-.22-.15-.3-.06-.08-.14-.14-.23-.19-.09-.04-.2-.07-.31-.07s-.22.02-.32.07c-.1.05-.18.12-.25.21-.07.09-.12.2-.17.32-.04.12-.06.26-.06.41v2.09h-.7v-3.64h.68Z"/><path d="M162.46,23.42v.67c.11-.24.26-.42.45-.54.18-.12.4-.18.63-.18.26,0,.48.07.67.2.19.14.32.33.41.59.11-.26.27-.45.46-.59.2-.14.43-.2.7-.2.38,0,.67.12.88.37.21.25.31.61.31,1.07v2.25h-.7v-2.16c0-.29-.07-.52-.2-.69-.13-.17-.31-.25-.54-.25-.12,0-.22.02-.32.07-.1.05-.18.11-.26.2-.07.09-.13.19-.16.32-.04.12-.06.26-.06.4v2.11h-.7v-2.16c0-.14-.02-.27-.06-.38-.04-.12-.09-.22-.15-.3-.06-.08-.14-.14-.23-.19-.09-.04-.2-.07-.31-.07s-.22.02-.32.07c-.1.05-.18.12-.25.21-.07.09-.12.2-.17.32-.04.12-.06.26-.06.41v2.09h-.7v-3.64h.68Z"/></g></g></g></svg>