<svg viewBox="0 0 531.26 288" version="1.1" xmlns="http://www.w3.org/2000/svg" id="Camada_1"><defs><style>.st0 {
        fill: #12100a;
      }

      .st1 {
        stroke: #000;
        stroke-miterlimit: 10;
        stroke-width: .28px;
      }

      .st1, .st2 {
        fill: none;
      }

      .st2 {
        stroke: #12100a;
        stroke-linecap: round;
        stroke-linejoin: round;
        stroke-width: .3px;
      }</style></defs><g id="bases"><rect height="358.35" width="589.11" y="-33.95" x="-25.44" class="st1"/></g><g id="Urban"><g id="Frame"><g id="poste_direcional"><g><path d="M7.51,151.29c.08-.21.19-.39.33-.54s.31-.27.51-.35.42-.13.67-.13c.14,0,.28.02.42.05s.28.08.41.15c.14.07.27.16.42.27.14.11.29.24.45.39l1.35,1.31v-2.29h.67v3.32h-.59l-1.85-1.79c-.12-.12-.23-.22-.33-.3s-.21-.15-.3-.2c-.1-.05-.19-.09-.29-.11-.09-.02-.19-.03-.29-.03-.15,0-.28.02-.4.07-.12.04-.23.11-.32.2s-.16.19-.21.3-.07.24-.07.39c0,.25.08.47.23.65s.36.31.63.39l-.23.67c-.42-.12-.74-.32-.97-.62s-.34-.66-.34-1.1c0-.25.04-.48.12-.69h-.02Z"/><path d="M7.45,146.45h.55l.98.65c.06.04.1.07.15.1.04.03.08.06.13.09s.09.06.13.09.09.06.15.09c.02-.19.08-.37.18-.52s.21-.29.35-.41c.14-.12.3-.21.48-.27s.38-.09.59-.09c.24,0,.47.04.67.13.2.08.38.2.52.36.14.15.26.34.34.54s.12.44.12.69c0,.21-.03.4-.08.58-.05.18-.13.35-.23.49-.1.15-.22.28-.37.39-.14.11-.31.2-.49.26l-.31-.63c.24-.08.44-.22.58-.41s.21-.42.21-.67c0-.15-.02-.28-.07-.4-.05-.12-.11-.23-.2-.31-.09-.09-.19-.15-.31-.2-.12-.05-.26-.07-.41-.07s-.29.03-.42.08c-.13.06-.23.13-.32.22s-.16.21-.21.34c-.05.13-.08.28-.08.44v.35l-.44.08-1.07-.72s-.09-.06-.12-.09-.07-.05-.12-.08-.08-.06-.12-.08c-.03-.03-.07-.06-.12-.09v2.18h-.65v-3.11Z"/><path d="M7.59,142.76c.13-.25.32-.47.55-.65.23-.18.52-.32.85-.42.33-.1.69-.15,1.08-.15s.76.05,1.1.15.62.24.86.42.43.4.56.65.2.52.2.83-.07.57-.2.82-.32.47-.56.65c-.24.18-.53.32-.86.42-.33.1-.7.15-1.1.15s-.75-.05-1.08-.15c-.33-.1-.61-.24-.85-.42-.24-.18-.42-.4-.55-.65s-.2-.53-.2-.83.07-.58.2-.83h0ZM8.22,144.11c.1.16.23.29.41.41.18.11.38.2.63.27.24.07.51.1.81.1s.57-.03.82-.09.46-.15.64-.27c.18-.12.32-.25.42-.41s.15-.33.15-.52-.05-.37-.15-.53c-.1-.16-.24-.3-.42-.41s-.39-.2-.64-.27c-.25-.06-.52-.09-.82-.09s-.56.03-.81.09-.46.15-.63.26-.31.25-.41.41c-.1.16-.15.34-.15.53s.05.37.15.52Z"/><path d="M7.59,138.13c.13-.25.32-.47.55-.65.23-.18.52-.32.85-.42.33-.1.69-.15,1.08-.15s.76.05,1.1.15.62.24.86.42.43.4.56.65.2.52.2.83-.07.57-.2.82-.32.47-.56.65c-.24.18-.53.32-.86.42-.33.1-.7.15-1.1.15s-.75-.05-1.08-.15c-.33-.1-.61-.24-.85-.42-.24-.18-.42-.4-.55-.65s-.2-.53-.2-.83.07-.58.2-.83h0ZM8.22,139.48c.1.16.23.29.41.41.18.11.38.2.63.27.24.07.51.1.81.1s.57-.03.82-.09.46-.15.64-.27c.18-.12.32-.25.42-.41s.15-.33.15-.52-.05-.37-.15-.53c-.1-.16-.24-.3-.42-.41s-.39-.2-.64-.27c-.25-.06-.52-.09-.82-.09s-.56.03-.81.09-.46.15-.63.26-.31.25-.41.41c-.1.16-.15.34-.15.53s.05.37.15.52Z"/><path d="M9.09,133.3h.67c-.24-.11-.42-.26-.54-.45-.12-.18-.18-.4-.18-.63,0-.26.07-.48.2-.67.14-.19.33-.32.59-.41-.26-.11-.45-.27-.59-.46-.14-.2-.2-.43-.2-.7,0-.38.12-.67.37-.88s.61-.31,1.07-.31h2.25v.7h-2.16c-.29,0-.52.07-.69.2-.17.13-.25.31-.25.54,0,.12.02.22.07.32.05.1.11.18.2.26.09.07.19.13.32.16.12.04.26.06.4.06h2.11v.7h-2.16c-.14,0-.27.02-.38.06-.12.04-.22.09-.3.15s-.14.14-.19.23c-.04.09-.07.2-.07.31s.02.22.07.32c.05.1.12.18.21.25s.2.12.32.17c.12.04.26.06.41.06h2.09v.7h-3.64v-.68h0Z"/><path d="M9.09,127.11h.67c-.24-.11-.42-.26-.54-.45-.12-.18-.18-.4-.18-.63,0-.26.07-.48.2-.67.14-.19.33-.32.59-.41-.26-.11-.45-.27-.59-.46-.14-.2-.2-.43-.2-.7,0-.38.12-.67.37-.88s.61-.31,1.07-.31h2.25v.7h-2.16c-.29,0-.52.07-.69.2-.17.13-.25.31-.25.54,0,.12.02.22.07.32.05.1.11.18.2.26.09.07.19.13.32.16.12.04.26.06.4.06h2.11v.7h-2.16c-.14,0-.27.02-.38.06-.12.04-.22.09-.3.15-.08.06-.14.14-.19.23-.04.09-.07.2-.07.31s.02.22.07.32c.05.1.12.18.21.25s.2.12.32.17c.12.04.26.06.41.06h2.09v.7h-3.64s0-.68,0-.68Z"/></g><g><path d="M289.16,280.42c.12-.24.29-.44.51-.61.22-.17.5-.3.82-.39.32-.09.69-.14,1.09-.14s.8.05,1.15.15.64.24.89.43.43.41.56.67.2.55.2.88c0,.37-.09.7-.27.97s-.43.47-.76.59l-.29-.64c.21-.07.37-.18.48-.34.11-.16.17-.35.17-.56s-.05-.38-.14-.55c-.09-.17-.23-.31-.4-.44-.17-.13-.37-.22-.61-.29s-.49-.1-.77-.1h-.32c.25.08.45.23.59.45.14.22.21.48.21.79,0,.24-.04.46-.12.65-.08.2-.19.36-.34.5-.14.14-.32.25-.52.33-.2.08-.42.12-.66.12s-.47-.04-.68-.13c-.21-.08-.38-.2-.52-.35-.14-.15-.26-.32-.34-.53s-.12-.43-.12-.68c0-.3.06-.57.18-.81v.03ZM289.73,281.58c.05.12.12.22.21.3s.19.15.31.2c.12.05.26.07.41.07s.29-.02.41-.07c.12-.05.23-.12.32-.2.09-.09.16-.19.21-.31s.07-.25.07-.4-.02-.27-.07-.39c-.05-.12-.12-.22-.2-.31-.09-.09-.19-.15-.31-.2-.12-.05-.25-.07-.4-.07s-.28.03-.41.08-.24.13-.34.21c-.1.09-.17.2-.22.32s-.08.26-.08.4.03.26.08.38h.01Z"/><path d="M289.19,275.85c.13-.25.32-.47.55-.65.23-.18.52-.32.85-.42.33-.1.69-.15,1.08-.15s.76.05,1.1.15.62.24.86.42c.24.18.43.4.56.65s.2.52.2.83-.07.57-.2.82-.32.47-.56.65-.53.32-.86.42-.7.15-1.1.15-.75-.05-1.08-.15-.61-.24-.85-.42c-.24-.18-.42-.4-.55-.65-.13-.25-.2-.53-.2-.83s.07-.58.2-.83h0ZM289.82,277.2c.1.16.23.29.41.41.18.11.38.2.63.27.24.07.51.1.81.1s.57-.03.82-.09.46-.15.64-.27c.18-.12.32-.25.42-.41s.15-.33.15-.52-.05-.37-.15-.53-.24-.3-.42-.41c-.18-.11-.39-.2-.64-.27-.25-.06-.52-.09-.82-.09s-.56.03-.81.09-.46.15-.63.26c-.17.11-.31.25-.41.41s-.15.34-.15.53.05.37.15.52h0Z"/><path d="M290.69,271.02h.67c-.24-.11-.42-.26-.54-.45-.12-.18-.18-.4-.18-.63,0-.26.07-.48.2-.67.14-.19.33-.32.59-.41-.26-.11-.45-.27-.59-.46-.14-.2-.2-.43-.2-.7,0-.38.12-.67.37-.88s.61-.31,1.07-.31h2.25v.7h-2.16c-.29,0-.52.07-.69.2s-.25.31-.25.54c0,.12.02.22.07.32.05.1.11.18.2.26.09.07.19.13.32.16.12.04.26.06.4.06h2.11v.7h-2.16c-.14,0-.27.02-.38.06-.12.04-.22.09-.3.15s-.14.14-.19.23c-.04.09-.07.2-.07.31s.02.22.07.32c.05.1.12.18.21.25s.2.12.32.17c.12.04.26.06.41.06h2.09v.7h-3.64v-.68h0Z"/><path d="M290.69,264.84h.67c-.24-.11-.42-.26-.54-.45-.12-.18-.18-.4-.18-.63,0-.26.07-.48.2-.67.14-.19.33-.32.59-.41-.26-.11-.45-.27-.59-.46-.14-.2-.2-.43-.2-.7,0-.38.12-.67.37-.88s.61-.31,1.07-.31h2.25v.7h-2.16c-.29,0-.52.07-.69.2s-.25.31-.25.54c0,.12.02.22.07.32.05.1.11.18.2.26.09.07.19.13.32.16.12.04.26.06.4.06h2.11v.7h-2.16c-.14,0-.27.02-.38.06-.12.04-.22.09-.3.15s-.14.14-.19.23c-.04.09-.07.2-.07.31s.02.22.07.32c.05.1.12.18.21.25s.2.12.32.17c.12.04.26.06.41.06h2.09v.7h-3.64v-.68h0Z"/></g><rect height="8.94" width="8.94" y="267.13" x="304.7" class="st2"/><g><path d="M103.34,26.07v19.86h-63.22c-.74,0-1.3-.46-1.3-1.02v-17.83c0-.56.56-1.02,1.3-1.02h63.22Z" class="st2"/><rect height="228.64" width="8.94" y="47.44" x="103.34" class="st2"/><rect height="20.85" width="6.95" y="2.76" x="104.34" class="st2"/><rect height="19.86" width=".99" y="3.26" x="104.34" class="st2"/><rect height="22.8" width="8.94" y="24.6" x="103.34" class="st2"/><rect height="22.83" width="8.94" y="1.77" x="103.35" class="st2"/></g><g><rect height="228.35" width="8.94" y="47.73" x="173.12" class="st2"/><g><path d="M182.05,3.55v19.86h63.22c.74,0,1.3-.46,1.3-1.02V4.57c0-.56-.56-1.02-1.3-1.02,0,0-63.22,0-63.22,0Z" class="st2"/><rect height="22.8" width="8.94" y="2.08" x="173.11" class="st2"/></g><rect height="20.85" width="6.95" y="25.87" x="174.11" class="st2"/><rect height="74.26" width="6.95" y="48.66" x="174.11" class="st2"/><rect height="75.06" width="6.95" y="123.92" x="174.11" class="st2"/><rect height="75.06" width="6.95" y="199.97" x="174.11" class="st2"/><rect height="19.86" width=".99" y="26.37" x="180.06" class="st2"/><rect height="22.83" width="8.94" y="24.88" x="173.11" class="st2"/></g><g id="LINE-4"><g><line y2="47.4" x2="16.66" y1="274.74" x1="16.66" class="st2"/><rect height=".3" width="1.95" y="274.59" x="15.68" class="st0"/><rect height=".3" width="1.95" y="47.25" x="15.68" class="st0"/></g></g><g id="LINE-5"><g><line y2="267.06" x2="298.25" y1="276.02" x1="298.25" class="st2"/><rect height=".3" width="1.95" y="275.87" x="297.28" class="st0"/><rect height=".3" width="1.95" y="266.91" x="297.28" class="st0"/></g></g><g><path d="M299.92,252.41c.24.12.44.29.61.51.17.22.3.5.39.82.09.32.14.69.14,1.09,0,.42-.05.8-.15,1.15s-.24.64-.43.89-.41.43-.67.56-.55.2-.88.2c-.37,0-.7-.09-.97-.27s-.47-.43-.59-.76l.64-.29c.07.21.18.37.34.48.16.11.35.17.56.17s.38-.05.55-.14c.17-.09.31-.23.44-.4.13-.17.22-.37.29-.61s.1-.49.1-.77v-.32c-.08.25-.23.45-.45.59s-.48.21-.79.21c-.24,0-.46-.04-.65-.12s-.36-.19-.5-.34c-.14-.14-.25-.32-.33-.52s-.12-.42-.12-.66.04-.47.13-.68c.08-.21.2-.38.35-.53.15-.14.32-.26.53-.34s.43-.12.68-.12c.3,0,.57.06.81.18l-.03.02ZM298.75,252.98c-.12.05-.22.12-.3.21-.08.09-.15.19-.2.32-.05.12-.07.26-.07.41s.02.29.07.41c.05.12.12.23.2.32.09.09.19.16.31.21s.25.07.4.07.27-.02.39-.07c.12-.05.22-.12.31-.2.09-.09.15-.19.2-.31.05-.12.07-.25.07-.4s-.03-.28-.08-.41-.13-.24-.21-.34c-.09-.1-.2-.17-.32-.22s-.26-.08-.4-.08-.26.03-.38.08h0Z"/><path d="M304.49,252.43c.25.13.47.32.65.55s.32.52.42.85.15.69.15,1.08-.05.76-.15,1.1c-.1.33-.24.62-.42.86s-.4.43-.65.56-.52.2-.83.2-.57-.07-.82-.2-.47-.32-.65-.56-.32-.53-.42-.86c-.1-.33-.15-.7-.15-1.1s.05-.75.15-1.08.24-.61.42-.85c.18-.24.4-.42.65-.55s.53-.2.83-.2.58.07.83.2h0ZM303.14,253.06c-.16.1-.29.23-.41.41-.11.18-.2.38-.27.63-.07.24-.1.51-.1.8s.03.57.09.82.15.46.27.64.25.32.41.42.33.15.52.15.37-.05.53-.15.3-.24.41-.42c.11-.18.2-.39.27-.64.06-.25.09-.52.09-.82s-.03-.56-.09-.81-.15-.46-.26-.63c-.11-.17-.25-.31-.41-.41s-.34-.15-.53-.15-.37.05-.52.15h0Z"/><path d="M309.32,253.93v.67c.11-.24.26-.42.45-.54s.4-.18.63-.18c.26,0,.48.07.67.2.19.14.32.33.41.59.11-.26.27-.45.46-.59.2-.13.43-.2.7-.2.38,0,.67.12.88.37s.31.61.31,1.07v2.25h-.7v-2.16c0-.29-.07-.52-.2-.69s-.31-.25-.54-.25c-.12,0-.22.02-.32.07s-.18.11-.26.2c-.07.09-.13.2-.16.32-.04.12-.06.26-.06.4v2.11h-.7v-2.16c0-.14-.02-.27-.06-.38-.04-.12-.09-.22-.15-.3s-.14-.14-.23-.19c-.09-.04-.2-.07-.31-.07s-.22.02-.32.07-.18.12-.25.21-.12.2-.17.32c-.04.12-.06.26-.06.41v2.09h-.7v-3.64h.68Z"/><path d="M315.5,253.93v.67c.11-.24.26-.42.45-.54s.4-.18.63-.18c.26,0,.48.07.67.2.19.14.32.33.41.59.11-.26.27-.45.46-.59.2-.13.43-.2.7-.2.38,0,.67.12.88.37s.31.61.31,1.07v2.25h-.7v-2.16c0-.29-.07-.52-.2-.69s-.31-.25-.54-.25c-.12,0-.22.02-.32.07s-.18.11-.26.2c-.07.09-.13.2-.16.32-.04.12-.06.26-.06.4v2.11h-.7v-2.16c0-.14-.02-.27-.06-.38-.04-.12-.09-.22-.15-.3s-.14-.14-.23-.19c-.09-.04-.2-.07-.31-.07s-.22.02-.32.07-.18.12-.25.21-.12.2-.17.32c-.04.12-.06.26-.06.41v2.09h-.7v-3.64h.68Z"/></g><g id="LINE-6"><g><line y2="261.5" x2="313.28" y1="261.5" x1="304.31" class="st2"/><rect height="1.95" width=".3" y="260.52" x="304.16" class="st0"/><rect height="1.95" width=".3" y="260.52" x="313.13" class="st0"/></g></g></g></g></g></svg>