<svg viewBox="0 0 531.27 288" xmlns:xlink="http://www.w3.org/1999/xlink" xmlns="http://www.w3.org/2000/svg" id="Camada_2"><defs><style>.cls-1,.cls-2{fill:none;}.cls-3{fill:#12100c;}.cls-2{stroke:#12100c;stroke-linecap:round;stroke-linejoin:round;stroke-width:.3px;}</style><symbol viewBox="0 0 531.27 288" id="fundo_transparente"><rect height="288" width="531.27" x="0" class="cls-1"/></symbol></defs><g id="RePlastic"><g id="mesa_Arch_Kids"><use xlink:href="#fundo_transparente" height="288" width="531.27"/><g id="MTEXT"><path d="M2.69,87.85h5.29v.73H3.62s.08.04.1.06c.03.02.06.04.09.07l2.02,1.35s.06.04.08.05.05.03.08.06v-3.2h.64v3.98h-.59l-3.35-2.22v-.87Z"/><path d="M7.98,86l-4.62-1.78v2.69h-.67v-3.5h.59l4.7,1.77v.83Z"/><path d="M2.84,80.17c.13-.25.32-.47.55-.65.23-.18.52-.32.85-.42.33-.1.69-.15,1.08-.15s.76.05,1.1.15.62.24.86.42c.24.18.43.4.56.65.13.25.2.52.2.83s-.07.57-.2.82-.32.47-.56.65c-.24.18-.53.32-.86.42-.33.1-.7.15-1.1.15s-.75-.05-1.08-.15c-.33-.1-.61-.24-.85-.42-.24-.18-.42-.4-.55-.65-.13-.25-.2-.53-.2-.83s.07-.58.2-.83ZM3.47,81.52c.1.16.23.29.41.41.18.11.38.2.63.27.24.07.51.1.81.1s.57-.03.82-.09c.25-.06.46-.15.64-.27.18-.12.32-.25.42-.41.1-.16.15-.33.15-.52s-.05-.37-.15-.53c-.1-.16-.24-.3-.42-.41-.18-.11-.39-.2-.64-.27-.25-.06-.52-.09-.82-.09s-.56.03-.81.09c-.25.06-.46.15-.63.26-.17.11-.31.25-.41.41-.1.16-.15.34-.15.53s.05.37.15.52Z"/><path d="M4.34,75.34h.67c-.24-.11-.42-.26-.54-.45-.12-.18-.18-.4-.18-.63,0-.26.07-.48.2-.67.14-.19.33-.32.59-.41-.26-.11-.45-.27-.59-.46-.14-.2-.2-.43-.2-.7,0-.38.12-.67.37-.88.25-.21.61-.31,1.07-.31h2.25v.7h-2.16c-.29,0-.52.07-.69.2-.17.13-.25.31-.25.54,0,.12.02.22.07.32.05.1.11.18.2.26.09.07.19.13.32.16.12.04.26.06.4.06h2.11v.7h-2.16c-.14,0-.27.02-.38.06-.12.04-.22.09-.3.15-.08.06-.14.14-.19.23-.04.09-.07.2-.07.31s.02.22.07.32c.05.1.12.18.21.25.09.07.2.12.32.17.12.04.26.06.41.06h2.09v.7h-3.64v-.68Z"/><path d="M4.34,69.16h.67c-.24-.11-.42-.26-.54-.45-.12-.18-.18-.4-.18-.63,0-.26.07-.48.2-.67.14-.19.33-.32.59-.41-.26-.11-.45-.27-.59-.46-.14-.2-.2-.43-.2-.7,0-.38.12-.67.37-.88.25-.21.61-.31,1.07-.31h2.25v.7h-2.16c-.29,0-.52.07-.69.2-.17.13-.25.31-.25.54,0,.12.02.22.07.32.05.1.11.18.2.26.09.07.19.13.32.16.12.04.26.06.4.06h2.11v.7h-2.16c-.14,0-.27.02-.38.06-.12.04-.22.09-.3.15-.08.06-.14.14-.19.23-.04.09-.07.2-.07.31s.02.22.07.32c.05.1.12.18.21.25.09.07.2.12.32.17.12.04.26.06.41.06h2.09v.7h-3.64v-.68Z"/></g><line y2="124.89" x2="12.74" y1="30.48" x1="12.74" class="cls-2"/><rect height=".3" width="1.95" y="30.33" x="11.76" class="cls-3"/><rect height=".3" width="1.95" y="124.74" x="11.76" class="cls-3"/><g id="MTEXT-2"><path d="M2.68,235.3h.65v1.92l1.54.25c-.09-.1-.16-.22-.21-.36-.05-.14-.07-.29-.07-.46,0-.25.04-.47.13-.68.08-.21.2-.38.35-.53.15-.15.33-.27.54-.35.21-.08.44-.12.69-.12s.48.04.7.13c.21.09.4.21.55.36.15.16.27.34.36.56.08.21.13.45.13.71,0,.2-.03.39-.08.58s-.13.35-.23.5c-.1.15-.22.28-.36.39-.14.11-.3.19-.48.24l-.31-.63c.24-.07.43-.19.56-.39.14-.19.21-.42.21-.67,0-.15-.03-.29-.08-.41-.05-.13-.12-.23-.21-.33-.09-.09-.2-.16-.33-.21-.13-.05-.27-.08-.43-.08s-.3.03-.44.08c-.13.05-.25.13-.34.22s-.17.21-.22.34c-.05.13-.08.28-.08.44,0,.18.04.35.1.49.07.14.17.26.31.36l-.15.62-2.79-.47v-2.52Z"/><path d="M7.96,233.91l-4.62-1.78v2.69h-.67v-3.5h.59l4.7,1.77v.83Z"/><path d="M2.82,228.08c.13-.25.32-.47.55-.65.23-.18.52-.32.85-.42.33-.1.69-.15,1.08-.15s.76.05,1.1.15.62.24.86.42c.24.18.43.4.56.65.13.25.2.52.2.83s-.07.57-.2.82-.32.47-.56.65c-.24.18-.53.32-.86.42-.33.1-.7.15-1.1.15s-.75-.05-1.08-.15c-.33-.1-.61-.24-.85-.42-.24-.18-.42-.4-.55-.65-.13-.25-.2-.53-.2-.83s.07-.58.2-.83ZM3.45,229.43c.1.16.23.29.41.41.18.11.38.2.63.27.24.07.51.1.81.1s.57-.03.82-.09c.25-.06.46-.15.64-.27.18-.12.32-.25.42-.41.1-.16.15-.33.15-.52s-.05-.37-.15-.53c-.1-.16-.24-.3-.42-.41-.18-.11-.39-.2-.64-.27-.25-.06-.52-.09-.82-.09s-.56.03-.81.09c-.25.06-.46.15-.63.26-.17.11-.31.25-.41.41-.1.16-.15.34-.15.53s.05.37.15.52Z"/><path d="M4.32,223.25h.67c-.24-.11-.42-.26-.54-.45-.12-.18-.18-.4-.18-.63,0-.26.07-.48.2-.67.14-.19.33-.32.59-.41-.26-.11-.45-.27-.59-.46-.14-.2-.2-.43-.2-.7,0-.38.12-.67.37-.88.25-.21.61-.31,1.07-.31h2.25v.7h-2.16c-.29,0-.52.07-.69.2-.17.13-.25.31-.25.54,0,.12.02.22.07.32.05.1.11.18.2.26.09.07.19.13.32.16.12.04.26.06.4.06h2.11v.7h-2.16c-.14,0-.27.02-.38.06-.12.04-.22.09-.3.15-.08.06-.14.14-.19.23-.04.09-.07.2-.07.31s.02.22.07.32c.05.1.12.18.21.25.09.07.2.12.32.17.12.04.26.06.41.06h2.09v.7h-3.64v-.68Z"/><path d="M4.32,217.07h.67c-.24-.11-.42-.26-.54-.45-.12-.18-.18-.4-.18-.63,0-.26.07-.48.2-.67.14-.19.33-.32.59-.41-.26-.11-.45-.27-.59-.46-.14-.2-.2-.43-.2-.7,0-.38.12-.67.37-.88.25-.21.61-.31,1.07-.31h2.25v.7h-2.16c-.29,0-.52.07-.69.2-.17.13-.25.31-.25.54,0,.12.02.22.07.32.05.1.11.18.2.26.09.07.19.13.32.16.12.04.26.06.4.06h2.11v.7h-2.16c-.14,0-.27.02-.38.06-.12.04-.22.09-.3.15-.08.06-.14.14-.19.23-.04.09-.07.2-.07.31s.02.22.07.32c.05.1.12.18.21.25.09.07.2.12.32.17.12.04.26.06.41.06h2.09v.7h-3.64v-.68Z"/></g><line y2="282.67" x2="12.72" y1="168.11" x1="12.72" class="cls-2"/><rect height=".3" width="1.95" y="167.96" x="11.75" class="cls-3"/><rect height=".3" width="1.95" y="282.52" x="11.75" class="cls-3"/><path d="M165.02,5.72v5.29h-.72v-4.54l-1.3.64v-.73l1.36-.67h.67Z"/><path d="M168.97,5.72v.65h-1.92l-.25,1.54c.1-.09.22-.16.36-.21.14-.05.29-.07.46-.07.25,0,.47.04.68.13.21.08.38.2.53.35.15.15.27.33.35.54.08.21.12.44.12.69s-.04.48-.13.7c-.09.21-.21.4-.36.55-.16.15-.34.27-.56.36-.21.08-.45.13-.71.13-.2,0-.39-.03-.58-.08s-.35-.13-.5-.23c-.15-.1-.28-.22-.39-.36-.11-.14-.19-.3-.24-.48l.63-.31c.07.24.19.43.39.56.19.14.42.21.67.21.15,0,.29-.03.41-.08.13-.05.23-.12.33-.21.09-.09.16-.2.21-.33.05-.13.08-.27.08-.43s-.03-.3-.08-.44c-.05-.13-.13-.25-.22-.34s-.21-.17-.34-.22c-.13-.05-.28-.08-.44-.08-.18,0-.35.04-.49.1-.14.07-.26.17-.36.31l-.62-.15.47-2.79h2.52Z"/><path d="M172.71,5.87c.25.13.47.32.65.55.18.23.32.52.42.85.1.33.15.69.15,1.08s-.05.76-.15,1.1-.24.62-.42.86c-.18.24-.4.43-.65.56-.25.13-.52.2-.83.2s-.57-.07-.82-.2-.47-.32-.65-.56c-.18-.24-.32-.53-.42-.86-.1-.33-.15-.7-.15-1.1s.05-.75.15-1.08c.1-.33.24-.61.42-.85.18-.24.4-.42.65-.55.25-.13.53-.2.83-.2s.58.07.83.2ZM171.36,6.5c-.16.1-.29.23-.41.41-.11.18-.2.38-.27.63-.07.24-.1.51-.1.81s.03.57.09.82c.06.25.15.46.27.64.12.18.25.32.41.42.16.1.33.15.52.15s.37-.05.53-.15c.16-.1.3-.24.41-.42.11-.18.2-.39.27-.64.06-.25.09-.52.09-.82s-.03-.56-.09-.81c-.06-.25-.15-.46-.26-.63-.11-.17-.25-.31-.41-.41-.16-.1-.34-.15-.53-.15s-.37.05-.52.15Z"/><path d="M177.34,5.87c.25.13.47.32.65.55.18.23.32.52.42.85.1.33.15.69.15,1.08s-.05.76-.15,1.1-.24.62-.42.86c-.18.24-.4.43-.65.56-.25.13-.52.2-.83.2s-.57-.07-.82-.2-.47-.32-.65-.56c-.18-.24-.32-.53-.42-.86-.1-.33-.15-.7-.15-1.1s.05-.75.15-1.08c.1-.33.24-.61.42-.85.18-.24.4-.42.65-.55.25-.13.53-.2.83-.2s.58.07.83.2ZM175.99,6.5c-.16.1-.29.23-.41.41-.11.18-.2.38-.27.63-.07.24-.1.51-.1.81s.03.57.09.82c.06.25.15.46.27.64.12.18.25.32.41.42.16.1.33.15.52.15s.37-.05.53-.15c.16-.1.3-.24.41-.42.11-.18.2-.39.27-.64.06-.25.09-.52.09-.82s-.03-.56-.09-.81c-.06-.25-.15-.46-.26-.63-.11-.17-.25-.31-.41-.41-.16-.1-.34-.15-.53-.15s-.37.05-.52.15Z"/><path d="M182.17,7.37v.67c.11-.24.26-.42.45-.54.18-.12.4-.18.63-.18.26,0,.48.07.67.2.19.14.32.33.41.59.11-.26.27-.45.46-.59.2-.14.43-.2.7-.2.38,0,.67.12.88.37.21.25.31.61.31,1.07v2.25h-.7v-2.16c0-.29-.07-.52-.2-.69-.13-.17-.31-.25-.54-.25-.12,0-.22.02-.32.07-.1.05-.18.11-.26.2-.07.09-.13.19-.16.32-.04.12-.06.26-.06.4v2.11h-.7v-2.16c0-.14-.02-.27-.06-.38-.04-.12-.09-.22-.15-.3-.06-.08-.14-.14-.23-.19-.09-.04-.2-.07-.31-.07s-.22.02-.32.07c-.1.05-.18.12-.25.21-.07.09-.12.2-.17.32-.04.12-.06.26-.06.41v2.09h-.7v-3.64h.68Z"/><path d="M188.36,7.37v.67c.11-.24.26-.42.45-.54.18-.12.4-.18.63-.18.26,0,.48.07.67.2.19.14.32.33.41.59.11-.26.27-.45.46-.59.2-.14.43-.2.7-.2.38,0,.67.12.88.37.21.25.31.61.31,1.07v2.25h-.7v-2.16c0-.29-.07-.52-.2-.69-.13-.17-.31-.25-.54-.25-.12,0-.22.02-.32.07-.1.05-.18.11-.26.2-.07.09-.13.19-.16.32-.04.12-.06.26-.06.4v2.11h-.7v-2.16c0-.14-.02-.27-.06-.38-.04-.12-.09-.22-.15-.3-.06-.08-.14-.14-.23-.19-.09-.04-.2-.07-.31-.07s-.22.02-.32.07c-.1.05-.18.12-.25.21-.07.09-.12.2-.17.32-.04.12-.06.26-.06.41v2.09h-.7v-3.64h.68Z"/><line y2="15.77" x2="27.06" y1="15.77" x1="329.02" class="cls-2"/><rect height="1.95" width=".3" y="14.79" x="328.87" class="cls-3"/><rect height="1.95" width=".3" y="14.79" x="26.91" class="cls-3"/><rect height="18.14" width="302.26" y="68.62" x="26.91" class="cls-2"/><rect height="18.14" width="18.14" y="68.62" x="26.91" class="cls-2"/><rect height="18.14" width="18.14" y="68.62" x="311.04" class="cls-2"/><rect height="18.14" width="302.26" y="87.95" x="26.91" class="cls-2"/><rect height="18.14" width="18.14" y="87.95" x="26.91" class="cls-2"/><rect height="18.14" width="18.14" y="87.95" x="311.04" class="cls-2"/><rect height="1.19" width="6.05" y="86.75" x="46.86" class="cls-2"/><rect height="1.19" width="10.08" y="86.75" x="173" class="cls-2"/><rect transform="translate(612.4 174.7) rotate(-180)" height="1.19" width="6.05" y="86.75" x="303.18" class="cls-2"/><rect height="18.14" width="302.26" y="49.28" x="26.91" class="cls-2"/><rect height="18.14" width="18.14" y="49.28" x="26.91" class="cls-2"/><rect height="18.14" width="18.14" y="49.28" x="311.04" class="cls-2"/><rect height="1.19" width="6.05" y="67.42" x="46.86" class="cls-2"/><rect height="1.19" width="10.08" y="67.42" x="173" class="cls-2"/><rect transform="translate(612.4 136.03) rotate(-180)" height="1.19" width="6.05" y="67.42" x="303.18" class="cls-2"/><rect height="18.14" width="302.26" y="29.94" x="26.91" class="cls-2"/><rect height="18.14" width="18.14" y="29.94" x="26.91" class="cls-2"/><rect height="18.14" width="18.14" y="29.94" x="311.04" class="cls-2"/><rect height="1.19" width="6.05" y="48.08" x="46.86" class="cls-2"/><rect height="1.19" width="10.08" y="48.08" x="173" class="cls-2"/><rect transform="translate(612.4 97.35) rotate(-180)" height="1.19" width="6.05" y="48.08" x="303.18" class="cls-2"/><rect height="18.14" width="302.26" y="107.29" x="26.91" class="cls-2"/><rect height="18.14" width="18.14" y="107.29" x="26.91" class="cls-2"/><rect height="18.14" width="18.14" y="107.29" x="311.04" class="cls-2"/><rect height="1.19" width="6.05" y="106.09" x="46.86" class="cls-2"/><rect height="1.19" width="10.08" y="106.09" x="173" class="cls-2"/><rect transform="translate(612.4 213.37) rotate(-180)" height="1.19" width="6.05" y="106.09" x="303.18" class="cls-2"/><line y2="182.23" x2="389.84" y1="182.23" x1="391.19" class="cls-2"/><line y2="182.23" x2="428.72" y1="182.23" x1="430.07" class="cls-2"/><line y2="182.23" x2="449.48" y1="182.23" x1="448.2" class="cls-2"/><line y2="182.23" x2="409.31" y1="182.23" x1="410.59" class="cls-2"/><rect height="4.83" width="1.35" y="183.58" x="389.83" class="cls-2"/><rect height="4.83" width="1.28" y="183.58" x="409.31" class="cls-2"/><rect height="4.83" width="1.35" y="183.58" x="428.72" class="cls-2"/><rect height="4.83" width="1.28" y="183.58" x="448.2" class="cls-2"/><path d="M371.71,167.94v107.63h18.13v-107.63h-18.13ZM380.81,173.49c.78,0,1.49.64,1.49,1.49s-.71,1.49-1.49,1.49c-.85,0-1.57-.64-1.57-1.49s.71-1.49,1.57-1.49Z" class="cls-2"/><path d="M382.3,174.98c0,.85-.71,1.49-1.49,1.49-.85,0-1.57-.64-1.57-1.49s.71-1.49,1.57-1.49c.78,0,1.49.64,1.49,1.49Z" class="cls-2"/><rect height="107.63" width="18.13" y="167.94" x="391.19" class="cls-2"/><path d="M410.59,167.94v107.63h18.13v-107.63h-18.13ZM419.62,173.49c.78,0,1.49.64,1.49,1.49s-.71,1.49-1.49,1.49c-.85,0-1.57-.64-1.57-1.49s.71-1.49,1.57-1.49Z" class="cls-2"/><path d="M421.11,174.98c0,.85-.71,1.49-1.49,1.49-.85,0-1.57-.64-1.57-1.49s.71-1.49,1.57-1.49c.78,0,1.49.64,1.49,1.49Z" class="cls-2"/><rect height="7.05" width="95.94" y="275.62" x="371.71" class="cls-2"/><path d="M380.81,173.49c-.85,0-1.57.64-1.57,1.49s.71,1.49,1.57,1.49c.78,0,1.49-.64,1.49-1.49s-.71-1.49-1.49-1.49Z" class="cls-2"/><path d="M381.42,175.1s0-.02-.01-.03c0-.01-.01-.02-.02-.03,0,0,0,0,0,0-.02-.02-.05-.04-.07-.07-.02-.02-.03-.05-.04-.07-.01-.03-.02-.06-.02-.08,0-.03,0-.05,0-.08,0-.03.01-.05.02-.08,0-.01,0-.03,0-.04,0-.01,0-.03,0-.04,0-.01,0-.03-.02-.04,0,0,0,0-.01-.01,0,0-.01,0-.02-.01-.01,0-.02-.01-.03-.02-.01,0-.02,0-.04,0-.01,0-.02,0-.04,0,0,0,0,0-.01,0-.03,0-.06.02-.09.02-.03,0-.06,0-.09,0-.03,0-.06-.01-.08-.03-.02-.01-.05-.02-.07-.04-.02-.02-.04-.04-.06-.06,0-.01-.02-.02-.03-.03-.01,0-.03-.01-.04-.02-.01,0-.03,0-.04,0,0,0-.01,0-.02,0,0,0-.01,0-.02,0-.01,0-.02.01-.03.02,0,0-.02.02-.02.03,0,0-.01.02-.01.03,0,0,0,0,0,.01,0,.03-.01.06-.03.09-.01.02-.03.05-.05.07-.02.02-.04.04-.06.06-.02.02-.04.03-.07.04-.03,0-.05.01-.08.02-.01,0-.03,0-.04.01-.01,0-.02.01-.03.03,0,0-.02.02-.02.03,0,0,0,.01,0,.02,0,0,0,.01,0,.02,0,.01,0,.02,0,.04,0,.01,0,.02.01.03,0,.01.01.02.02.03,0,0,0,0,0,0,.02.02.05.04.07.07.02.02.03.05.04.08,0,.03.02.06.02.08,0,.03,0,.05,0,.08,0,.03-.01.05-.02.08,0,.01,0,.03,0,.04,0,.01,0,.03,0,.04s.01.03.02.04c0,0,0,0,.01.01,0,0,.01,0,.02.01,0,0,.02.01.03.02.01,0,.02,0,.03,0,.01,0,.03,0,.04,0,0,0,0,0,.01,0,.03,0,.06-.02.09-.02.03,0,.06,0,.08,0,.03,0,.06.01.08.03.02.01.05.02.07.04.02.02.04.04.06.06,0,.01.02.02.03.03.01,0,.02.01.04.02.01,0,.03,0,.04,0,0,0,.01,0,.02,0,0,0,.01,0,.02,0,.01,0,.02-.01.03-.02s.02-.02.02-.03c0-.01.01-.02.01-.03,0,0,0,0,0-.01,0-.03.01-.06.03-.09.01-.03.03-.05.04-.07.02-.02.04-.04.06-.06.02-.02.04-.03.07-.04.03-.01.05-.01.08-.02.01,0,.03,0,.04-.01.01,0,.02-.02.03-.03,0-.01.02-.02.02-.03,0,0,0-.01,0-.02,0,0,0-.01,0-.02,0-.01,0-.02,0-.04Z" class="cls-2"/><path d="M419.62,173.49c-.85,0-1.57.64-1.57,1.49s.71,1.49,1.57,1.49c.78,0,1.49-.64,1.49-1.49s-.71-1.49-1.49-1.49Z" class="cls-2"/><path d="M420.23,175.1s0-.02-.01-.03c0-.01-.01-.02-.02-.03,0,0,0,0,0,0-.02-.02-.05-.04-.07-.07-.02-.02-.03-.05-.04-.07-.01-.03-.02-.06-.02-.08,0-.03,0-.05,0-.08,0-.03.01-.05.02-.08,0-.01,0-.03,0-.04,0-.01,0-.03,0-.04,0-.01,0-.03-.02-.04,0,0,0,0-.01-.01,0,0-.01,0-.02-.01-.01,0-.02-.01-.03-.02-.01,0-.02,0-.04,0-.01,0-.02,0-.04,0,0,0,0,0-.01,0-.03,0-.06.02-.09.02-.03,0-.06,0-.09,0-.03,0-.06-.01-.08-.03-.02-.01-.05-.02-.07-.04-.02-.02-.04-.04-.06-.06,0-.01-.02-.02-.03-.03-.01,0-.03-.01-.04-.02-.01,0-.03,0-.04,0,0,0-.01,0-.02,0,0,0-.01,0-.02,0-.01,0-.02.01-.03.02,0,0-.02.02-.02.03,0,0-.01.02-.01.03,0,0,0,0,0,.01,0,.03-.01.06-.03.09-.01.02-.03.05-.05.07-.02.02-.04.04-.06.06-.02.02-.04.03-.07.04-.03,0-.05.01-.08.02-.01,0-.03,0-.04.01-.01,0-.02.01-.03.03,0,0-.02.02-.02.03,0,0,0,.01,0,.02,0,0,0,.01,0,.02,0,.01,0,.02,0,.04,0,.01,0,.02.01.03,0,.01.01.02.02.03,0,0,0,0,0,0,.02.02.05.04.07.07.02.02.03.05.04.08,0,.03.02.06.02.08,0,.03,0,.05,0,.08,0,.03-.01.05-.02.08,0,.01,0,.03,0,.04,0,.01,0,.03,0,.04s.01.03.02.04c0,0,0,0,.01.01,0,0,.01,0,.02.01,0,0,.02.01.03.02.01,0,.02,0,.03,0,.01,0,.03,0,.04,0,0,0,0,0,.01,0,.03,0,.06-.02.09-.02.03,0,.06,0,.08,0,.03,0,.06.01.08.03.02.01.05.02.07.04.02.02.04.04.06.06,0,.01.02.02.03.03.01,0,.02.01.04.02.01,0,.03,0,.04,0,0,0,.01,0,.02,0,0,0,.01,0,.02,0,.01,0,.02-.01.03-.02s.02-.02.02-.03c0-.01.01-.02.01-.03,0,0,0,0,0-.01,0-.03.01-.06.03-.09.01-.03.03-.05.04-.07.02-.02.04-.04.06-.06.02-.02.04-.03.07-.04.03-.01.05-.01.08-.02.01,0,.03,0,.04-.01.01,0,.02-.02.03-.03,0-.01.02-.02.02-.03,0,0,0-.01,0-.02,0,0,0-.01,0-.02,0-.01,0-.02,0-.04Z" class="cls-2"/><rect height="107.63" width="18.13" y="167.94" x="430.07" class="cls-2"/><path d="M449.48,167.94v107.63h18.2v-107.63h-18.2ZM458.58,176.48c-.85,0-1.49-.64-1.49-1.49s.64-1.49,1.49-1.49,1.49.64,1.49,1.49-.64,1.49-1.49,1.49Z" class="cls-2"/><path d="M460.07,174.98c0,.85-.64,1.49-1.49,1.49s-1.49-.64-1.49-1.49.64-1.49,1.49-1.49,1.49.64,1.49,1.49Z" class="cls-2"/><path d="M458.58,173.49c-.85,0-1.49.64-1.49,1.49s.64,1.49,1.49,1.49,1.49-.64,1.49-1.49-.64-1.49-1.49-1.49Z" class="cls-2"/><path d="M459.22,175.11s0-.02-.01-.03c0-.01-.01-.02-.02-.03,0,0,0,0,0,0-.02-.02-.05-.04-.07-.07-.02-.02-.03-.05-.04-.07-.01-.03-.02-.06-.02-.08,0-.03,0-.05,0-.08,0-.03.01-.05.02-.08,0-.01,0-.03,0-.04,0-.01,0-.03,0-.04,0-.01,0-.03-.02-.04,0,0,0,0-.01-.01,0,0-.01,0-.02-.01-.01,0-.02-.01-.03-.02-.01,0-.02,0-.04,0-.01,0-.02,0-.04,0,0,0,0,0-.01,0-.03,0-.06.02-.09.02-.03,0-.06,0-.09,0-.03,0-.06-.01-.08-.03-.02-.01-.05-.02-.07-.04-.02-.02-.04-.04-.06-.06,0-.01-.02-.02-.03-.03-.01,0-.03-.01-.04-.02-.01,0-.03,0-.04,0,0,0-.01,0-.02,0,0,0-.01,0-.02,0-.01,0-.02.01-.03.02,0,0-.02.02-.02.03,0,0-.01.02-.01.03,0,0,0,0,0,.01,0,.03-.01.06-.03.09-.01.02-.03.05-.05.07-.02.02-.04.04-.06.06-.02.02-.04.03-.07.04-.03,0-.05.01-.08.02-.01,0-.03,0-.04.01-.01,0-.02.01-.03.03,0,0-.02.02-.02.03,0,0,0,.01,0,.02,0,0,0,.01,0,.02,0,.01,0,.02,0,.04,0,.01,0,.02.01.03,0,.01.01.02.02.03,0,0,0,0,0,0,.02.02.05.04.07.07.02.02.03.05.04.08,0,.03.02.06.02.08,0,.03,0,.05,0,.08,0,.03-.01.05-.02.08,0,.01,0,.03,0,.04,0,.01,0,.03,0,.04s.01.03.02.04c0,0,0,0,.01.01,0,0,.01,0,.02.01,0,0,.02.01.03.02.01,0,.02,0,.03,0,.01,0,.03,0,.04,0,0,0,0,0,.01,0,.03,0,.06-.02.09-.02.03,0,.06,0,.08,0,.03,0,.06.01.08.03.02.01.05.02.07.04.02.02.04.04.06.06,0,.01.02.02.03.03.01,0,.02.01.04.02.01,0,.03,0,.04,0,0,0,.01,0,.02,0,0,0,.01,0,.02,0,.01,0,.02-.01.03-.02s.02-.02.02-.03c0-.01.01-.02.01-.03,0,0,0,0,0-.01,0-.03.01-.06.03-.09.01-.03.03-.05.04-.07.02-.02.04-.04.06-.06.02-.02.04-.03.07-.04.03-.01.05-.01.08-.02.01,0,.03,0,.04-.01.01,0,.02-.02.03-.03,0-.01.02-.02.02-.03,0,0,0-.01,0-.02,0,0,0-.01,0-.02,0-.01,0-.02,0-.04Z" class="cls-2"/><rect transform="translate(318.16 240.13) rotate(90)" height="24.18" width="7.05" y="267.05" x="35.49" class="cls-2"/><rect transform="translate(596.24 -37.95) rotate(90)" height="24.18" width="7.05" y="267.05" x="313.57" class="cls-2"/><rect height="13.79" width="265.94" y="167.94" x="45.09" class="cls-2"/><rect height="107.63" width="18.2" y="167.94" x="26.9" class="cls-2"/><rect height="107.7" width="18.13" y="167.94" x="311.03" class="cls-2"/></g></g></svg>