<svg viewBox="0 0 531.26 288" xmlns="http://www.w3.org/2000/svg"><defs><style>.cls-1 {
        stroke-width: .28px;
      }

      .cls-1, .cls-2, .cls-3 {
        stroke: #000;
      }

      .cls-1, .cls-2, .cls-3, .cls-4, .cls-5 {
        fill: none;
      }

      .cls-1, .cls-4, .cls-5 {
        stroke-linecap: round;
        stroke-linejoin: round;
      }

      .cls-6 {
        fill: #12100a;
      }

      .cls-2 {
        stroke-width: .28px;
      }

      .cls-2, .cls-3 {
        stroke-miterlimit: 10;
      }

      .cls-3, .cls-4, .cls-5 {
        stroke-width: .3px;
      }

      .cls-4 {
        stroke: #877069;
      }

      .cls-5 {
        stroke: #12100a;
      }</style></defs><g id="bases"><rect height="358.35" width="589.11" y="-33.95" x="-25.44" class="cls-2"/></g><g id="Urban"><g id="Frame"><g id="estacionamento_para_bicicletas"><g id="LINE"><g><line y2="283.59" x2="16.81" y1="7.94" x1="16.81" class="cls-1"/><rect height=".28" width="1.79" y="7.8" x="15.92"/><rect height=".28" width="1.79" y="283.45" x="15.92"/></g></g><g id="MTEXT"><g><path d="M7.72,156.05c.12-.24.29-.44.51-.61.22-.17.5-.3.82-.39.32-.09.69-.14,1.09-.14s.8.05,1.15.15c.35.1.64.24.89.43s.43.41.56.67c.13.26.2.55.2.88,0,.37-.09.7-.27.97-.18.27-.43.47-.76.59l-.29-.64c.21-.07.37-.18.48-.34.11-.16.17-.35.17-.56,0-.2-.05-.38-.14-.55-.09-.17-.23-.31-.4-.44-.17-.13-.37-.22-.61-.29-.24-.07-.49-.1-.77-.1h-.17c-.06,0-.1,0-.15,0,.25.08.45.23.59.45.14.22.21.48.21.79,0,.24-.04.46-.12.65-.08.2-.19.36-.34.5-.14.14-.32.25-.52.33-.2.08-.42.12-.66.12s-.47-.04-.68-.13c-.21-.08-.38-.2-.52-.35-.14-.15-.26-.32-.34-.53-.08-.21-.12-.43-.12-.68,0-.3.06-.57.18-.81ZM8.29,157.22c.05.12.12.22.21.3.09.08.19.15.31.2.12.05.26.07.41.07s.29-.02.41-.07c.12-.05.23-.12.32-.2.09-.09.16-.19.21-.31.05-.12.07-.25.07-.4s-.02-.27-.07-.39c-.05-.12-.12-.22-.2-.31-.09-.09-.19-.15-.31-.2-.12-.05-.25-.07-.4-.07s-.28.03-.41.08c-.13.05-.24.13-.34.21-.1.09-.17.2-.22.32s-.08.26-.08.4.03.26.08.38Z"/><path d="M7.6,152.36h5.29v.72h-4.54l.64,1.3h-.73l-.67-1.36v-.67Z"/><path d="M7.74,148.65c.13-.25.32-.47.55-.65.23-.18.52-.32.85-.42.33-.1.69-.15,1.08-.15s.76.05,1.1.15.62.24.86.42c.24.18.43.4.56.65.13.25.2.52.2.83s-.07.57-.2.82-.32.47-.56.65c-.24.18-.53.32-.86.42-.33.1-.7.15-1.1.15s-.75-.05-1.08-.15c-.33-.1-.61-.24-.85-.42-.24-.18-.42-.4-.55-.65-.13-.25-.2-.53-.2-.83s.07-.58.2-.83ZM8.38,150.01c.1.16.23.29.41.41.18.11.38.2.63.27.24.07.51.1.81.1s.57-.03.82-.09c.25-.06.46-.15.64-.27.18-.12.32-.25.42-.41.1-.16.15-.33.15-.52s-.05-.37-.15-.53c-.1-.16-.24-.3-.42-.41-.18-.11-.39-.2-.64-.27-.25-.06-.52-.09-.82-.09s-.56.03-.81.09c-.25.06-.46.15-.63.26-.17.11-.31.25-.41.41-.1.16-.15.34-.15.53s.05.37.15.52Z"/><path d="M9.25,143.83h.67c-.24-.11-.42-.26-.54-.45-.12-.18-.18-.4-.18-.63,0-.26.07-.48.2-.67.14-.19.33-.32.59-.41-.26-.11-.45-.27-.59-.46-.14-.2-.2-.43-.2-.7,0-.38.12-.67.37-.88.25-.21.61-.31,1.07-.31h2.25v.7h-2.16c-.29,0-.52.07-.69.2-.17.13-.25.31-.25.54,0,.12.02.22.07.32.05.1.11.18.2.26.09.07.19.13.32.16.12.04.26.06.4.06h2.11v.7h-2.16c-.14,0-.27.02-.38.06-.12.04-.22.09-.3.15-.08.06-.14.14-.19.23-.04.09-.07.2-.07.31s.02.22.07.32c.05.1.12.18.21.25.09.07.2.12.32.17.12.04.26.06.41.06h2.09v.7h-3.64v-.68Z"/><path d="M9.25,137.64h.67c-.24-.11-.42-.26-.54-.45-.12-.18-.18-.4-.18-.63,0-.26.07-.48.2-.67.14-.19.33-.32.59-.41-.26-.11-.45-.27-.59-.46-.14-.2-.2-.43-.2-.7,0-.38.12-.67.37-.88.25-.21.61-.31,1.07-.31h2.25v.7h-2.16c-.29,0-.52.07-.69.2-.17.13-.25.31-.25.54,0,.12.02.22.07.32.05.1.11.18.2.26.09.07.19.13.32.16.12.04.26.06.4.06h2.11v.7h-2.16c-.14,0-.27.02-.38.06-.12.04-.22.09-.3.15-.08.06-.14.14-.19.23-.04.09-.07.2-.07.31s.02.22.07.32c.05.1.12.18.21.25.09.07.2.12.32.17.12.04.26.06.41.06h2.09v.7h-3.64v-.68Z"/></g></g><g id="LINE-2"><g><line y2="282.69" x2="212.4" y1="255.7" x1="212.4" class="cls-5"/><rect height=".3" width="1.95" y="255.55" x="211.43" class="cls-6"/><rect height=".3" width="1.95" y="282.54" x="211.43" class="cls-6"/></g></g><g id="MTEXT-2"><g><path d="M203.31,278.07c.12-.24.29-.44.51-.61.22-.17.5-.3.82-.39.32-.09.69-.14,1.09-.14s.8.05,1.15.15c.35.1.64.24.89.43s.43.41.56.67c.13.26.2.55.2.88,0,.37-.09.7-.27.97-.18.27-.43.47-.76.59l-.29-.64c.21-.07.37-.18.48-.34.11-.16.17-.35.17-.56,0-.2-.05-.38-.14-.55-.09-.17-.23-.31-.4-.44-.17-.13-.37-.22-.61-.29-.24-.07-.49-.1-.77-.1h-.17c-.06,0-.1,0-.15,0,.25.08.45.23.59.45.14.22.21.48.21.79,0,.24-.04.46-.12.65-.08.2-.19.36-.34.5-.14.14-.32.25-.52.33-.2.08-.42.12-.66.12s-.47-.04-.68-.13c-.21-.08-.38-.2-.52-.35-.14-.15-.26-.32-.34-.53-.08-.21-.12-.43-.12-.68,0-.3.06-.57.18-.81ZM203.88,279.24c.05.12.12.22.21.3.09.08.19.15.31.2.12.05.26.07.41.07s.29-.02.41-.07c.12-.05.23-.12.32-.2.09-.09.16-.19.21-.31.05-.12.07-.25.07-.4s-.02-.27-.07-.39c-.05-.12-.12-.22-.2-.31-.09-.09-.19-.15-.31-.2-.12-.05-.25-.07-.4-.07s-.28.03-.41.08c-.13.05-.24.13-.34.21-.1.09-.17.2-.22.32s-.08.26-.08.4.03.26.08.38Z"/><path d="M203.33,273.5c.13-.25.32-.47.55-.65.23-.18.52-.32.85-.42.33-.1.69-.15,1.08-.15s.76.05,1.1.15.62.24.86.42c.24.18.43.4.56.65.13.25.2.52.2.83s-.07.57-.2.82-.32.47-.56.65c-.24.18-.53.32-.86.42-.33.1-.7.15-1.1.15s-.75-.05-1.08-.15c-.33-.1-.61-.24-.85-.42-.24-.18-.42-.4-.55-.65-.13-.25-.2-.53-.2-.83s.07-.58.2-.83ZM203.97,274.85c.1.16.23.29.41.41.18.11.38.2.63.27.24.07.51.1.81.1s.57-.03.82-.09c.25-.06.46-.15.64-.27.18-.12.32-.25.42-.41.1-.16.15-.33.15-.52s-.05-.37-.15-.53c-.1-.16-.24-.3-.42-.41-.18-.11-.39-.2-.64-.27-.25-.06-.52-.09-.82-.09s-.56.03-.81.09c-.25.06-.46.15-.63.26-.17.11-.31.25-.41.41-.1.16-.15.34-.15.53s.05.37.15.52Z"/><path d="M204.83,268.67h.67c-.24-.11-.42-.26-.54-.45-.12-.18-.18-.4-.18-.63,0-.26.07-.48.2-.67.14-.19.33-.32.59-.41-.26-.11-.45-.27-.59-.46-.14-.2-.2-.43-.2-.7,0-.38.12-.67.37-.88.25-.21.61-.31,1.07-.31h2.25v.7h-2.16c-.29,0-.52.07-.69.2-.17.13-.25.31-.25.54,0,.12.02.22.07.32.05.1.11.18.2.26.09.07.19.13.32.16.12.04.26.06.4.06h2.11v.7h-2.16c-.14,0-.27.02-.38.06-.12.04-.22.09-.3.15-.08.06-.14.14-.19.23-.04.09-.07.2-.07.31s.02.22.07.32c.05.1.12.18.21.25.09.07.2.12.32.17.12.04.26.06.41.06h2.09v.7h-3.64v-.68Z"/><path d="M204.83,262.49h.67c-.24-.11-.42-.26-.54-.45-.12-.18-.18-.4-.18-.63,0-.26.07-.48.2-.67.14-.19.33-.32.59-.41-.26-.11-.45-.27-.59-.46-.14-.2-.2-.43-.2-.7,0-.38.12-.67.37-.88.25-.21.61-.31,1.07-.31h2.25v.7h-2.16c-.29,0-.52.07-.69.2-.17.13-.25.31-.25.54,0,.12.02.22.07.32.05.1.11.18.2.26.09.07.19.13.32.16.12.04.26.06.4.06h2.11v.7h-2.16c-.14,0-.27.02-.38.06-.12.04-.22.09-.3.15-.08.06-.14.14-.19.23-.04.09-.07.2-.07.31s.02.22.07.32c.05.1.12.18.21.25.09.07.2.12.32.17.12.04.26.06.41.06h2.09v.7h-3.64v-.68Z"/></g></g><g id="LINE-3"><g><line y2="240.73" x2="256.9" y1="240.73" x1="226.88" class="cls-5"/><rect height="1.95" width=".3" y="239.76" x="226.73" class="cls-6"/><rect height="1.95" width=".3" y="239.76" x="256.75" class="cls-6"/></g></g><g id="MTEXT-3"><g><path d="M230.86,231.52v5.29h-.72v-4.54l-1.3.64v-.73l1.36-.67h.67Z"/><path d="M234.56,231.66c.25.13.47.32.65.55.18.23.32.52.42.85.1.33.15.69.15,1.08s-.05.76-.15,1.1-.24.62-.42.86c-.18.24-.4.43-.65.56-.25.13-.52.2-.83.2s-.57-.07-.82-.2-.47-.32-.65-.56c-.18-.24-.32-.53-.42-.86-.1-.33-.15-.7-.15-1.1s.05-.75.15-1.08c.1-.33.24-.61.42-.85.18-.24.4-.42.65-.55.25-.13.53-.2.83-.2s.58.07.83.2ZM233.21,232.3c-.16.1-.29.23-.41.41-.11.18-.2.38-.27.63-.07.24-.1.51-.1.81s.03.57.09.82c.06.25.15.46.27.64.12.18.25.32.41.42.16.1.33.15.52.15s.37-.05.53-.15c.16-.1.3-.24.41-.42.11-.18.2-.39.27-.64.06-.25.09-.52.09-.82s-.03-.56-.09-.81c-.06-.25-.15-.46-.26-.63-.11-.17-.25-.31-.41-.41-.16-.1-.34-.15-.53-.15s-.37.05-.52.15Z"/><path d="M239.2,231.66c.25.13.47.32.65.55.18.23.32.52.42.85.1.33.15.69.15,1.08s-.05.76-.15,1.1-.24.62-.42.86c-.18.24-.4.43-.65.56-.25.13-.52.2-.83.2s-.57-.07-.82-.2-.47-.32-.65-.56c-.18-.24-.32-.53-.42-.86-.1-.33-.15-.7-.15-1.1s.05-.75.15-1.08c.1-.33.24-.61.42-.85.18-.24.4-.42.65-.55.25-.13.53-.2.83-.2s.58.07.83.2ZM237.85,232.3c-.16.1-.29.23-.41.41-.11.18-.2.38-.27.63-.07.24-.1.51-.1.81s.03.57.09.82c.06.25.15.46.27.64.12.18.25.32.41.42.16.1.33.15.52.15s.37-.05.53-.15c.16-.1.3-.24.41-.42.11-.18.2-.39.27-.64.06-.25.09-.52.09-.82s-.03-.56-.09-.81c-.06-.25-.15-.46-.26-.63-.11-.17-.25-.31-.41-.41-.16-.1-.34-.15-.53-.15s-.37.05-.52.15Z"/><path d="M244.03,233.17v.67c.11-.24.26-.42.45-.54.18-.12.4-.18.63-.18.26,0,.48.07.67.2.19.14.32.33.41.59.11-.26.27-.45.46-.59.2-.14.43-.2.7-.2.38,0,.67.12.88.37.21.25.31.61.31,1.07v2.25h-.7v-2.16c0-.29-.07-.52-.2-.69-.13-.17-.31-.25-.54-.25-.12,0-.22.02-.32.07-.1.05-.18.11-.26.2-.07.09-.13.19-.16.32-.04.12-.06.26-.06.4v2.11h-.7v-2.16c0-.14-.02-.27-.06-.38-.04-.12-.09-.22-.15-.3-.06-.08-.14-.14-.23-.19-.09-.04-.2-.07-.31-.07s-.22.02-.32.07c-.1.05-.18.12-.25.21-.07.09-.12.2-.17.32-.04.12-.06.26-.06.41v2.09h-.7v-3.64h.68Z"/><path d="M250.21,233.17v.67c.11-.24.26-.42.45-.54.18-.12.4-.18.63-.18.26,0,.48.07.67.2.19.14.32.33.41.59.11-.26.27-.45.46-.59.2-.14.43-.2.7-.2.38,0,.67.12.88.37.21.25.31.61.31,1.07v2.25h-.7v-2.16c0-.29-.07-.52-.2-.69-.13-.17-.31-.25-.54-.25-.12,0-.22.02-.32.07-.1.05-.18.11-.26.2-.07.09-.13.19-.16.32-.04.12-.06.26-.06.4v2.11h-.7v-2.16c0-.14-.02-.27-.06-.38-.04-.12-.09-.22-.15-.3-.06-.08-.14-.14-.23-.19-.09-.04-.2-.07-.31-.07s-.22.02-.32.07c-.1.05-.18.12-.25.21-.07.09-.12.2-.17.32-.04.12-.06.26-.06.41v2.09h-.7v-3.64h.68Z"/></g></g><g><g id="LINE-4"><line y2="267.91" x2="255.52" y1="267.92" x1="255.52" class="cls-4"/></g><g id="LINE-5"><line y2="267.92" x2="231.57" y1="267.91" x1="231.57" class="cls-4"/></g><g id="LINE-6"><line y2="267.92" x2="252.18" y1="267.91" x1="252.18" class="cls-4"/></g><g id="LINE-7"><line y2="267.92" x2="228.23" y1="267.91" x1="228.23" class="cls-4"/></g><g id="LINE-8"><line y2="267.92" x2="231.57" y1="270.97" x1="231.57" class="cls-5"/></g><g id="LINE-9"><line y2="267.92" x2="228.21" y1="270.97" x1="228.21" class="cls-5"/></g><g id="LINE-10"><line y2="267.92" x2="255.54" y1="270.97" x1="255.54" class="cls-5"/></g><g id="LINE-11"><line y2="267.92" x2="252.18" y1="270.97" x1="252.18" class="cls-5"/></g><g><g id="ARC"><path d="M237.77,260.34c-.84-1.92-3.07-2.79-4.99-1.96-.88.38-1.58,1.08-1.96,1.96" class="cls-5"/></g><g id="ARC-2"><path d="M245.98,278.54c.84,1.92,3.07,2.79,4.99,1.96.88-.38,1.58-1.08,1.96-1.96" class="cls-5"/></g><g id="ARC-3"><path d="M235.43,260.34c-.67-.51-1.6-.51-2.27,0" class="cls-5"/></g><g id="ARC-4"><path d="M248.32,278.54c.67.51,1.6.51,2.27,0" class="cls-5"/></g></g><rect height="4.55" width="27.29" y="255.8" x="228.23" class="cls-5"/><rect height="4.55" width="27.29" y="278.54" x="228.23" class="cls-5"/><rect ry=".64" rx=".64" height="7.58" width="30.32" y="260.34" x="226.71" class="cls-5"/><rect ry=".64" rx=".64" height="7.58" width="30.32" y="270.99" x="226.71" class="cls-5"/></g><g><path d="M61.68,30.09c-.08-.28-.21-.55-.37-.79-.16-.24-.35-.46-.57-.64-.26-.22-.55-.4-.87-.52-.33-.11-.67-.15-1.02-.19-.15,0-.29.01-.43.03-.11.02-.22.04-.33.07l-.87-2.34h.47s.09-.01.13-.03c.04-.02.07-.05.1-.08.02-.03.04-.06.05-.09.01-.03.02-.07.02-.1,0-.05-.01-.09-.03-.13-.02-.04-.05-.07-.08-.1-.03-.02-.06-.04-.09-.05-.03-.01-.07-.02-.1-.02h-.9s-.05,0-.08.01c-.03,0-.05.02-.07.03-.04.02-.06.06-.09.09-.01.02-.03.05-.04.07,0,.03-.02.05-.02.08,0,.04,0,.08.02.13l.4,1.08h-4.42l-.33-.88h.54s.09-.01.13-.03c.04-.02.07-.05.1-.08.02-.03.04-.06.05-.09.01-.03.02-.07.02-.1,0-.05-.01-.09-.03-.13-.02-.04-.05-.07-.08-.1-.03-.02-.06-.04-.09-.05-.03-.01-.07-.02-.1-.02h-1.67s-.09.01-.13.03c-.04.02-.07.05-.1.08-.02.03-.04.06-.05.09-.01.03-.02.07-.02.11,0,.04.01.09.03.13.02.04.05.07.08.1.03.02.06.04.09.05.03.01.07.02.1.02h.48l.43,1.14-.86,1.41c-.23-.1-.46-.2-.7-.25-.2-.04-.4-.05-.6-.06-.3.03-.59.05-.87.14-.27.08-.54.21-.77.38-.24.16-.45.36-.63.58-.22.27-.39.57-.5.89-.11.34-.15.69-.18,1.05.03.3.05.61.13.9.08.28.21.55.37.79.16.24.35.46.57.64.26.22.55.4.87.51.33.11.67.15,1.02.19.28-.02.56-.05.82-.12.26-.07.51-.19.73-.34.23-.15.43-.32.61-.52.22-.24.4-.51.52-.8.13-.3.19-.63.25-.95h1.08s.03,0,.04,0c0,0,.02,0,.11-.03,0,0,.03-.02.09-.07l3.2-3.71.3.8c-.26.16-.51.33-.73.54-.22.21-.4.46-.54.74-.12.22-.21.45-.26.69-.06.25-.08.5-.09.76.03.3.05.61.13.9.08.28.21.55.37.79.16.24.35.46.57.64.26.22.55.4.87.51.33.11.67.15,1.02.19.3-.03.59-.05.87-.14.27-.08.54-.21.77-.38.24-.16.45-.36.63-.58.22-.26.39-.57.5-.89.11-.34.15-.69.18-1.05-.03-.3-.05-.61-.13-.9ZM51.89,32.04c-.1.23-.25.44-.42.62-.14.15-.31.29-.48.4-.18.11-.37.21-.58.26-.21.06-.43.07-.64.09-.28-.03-.55-.06-.81-.15-.25-.09-.49-.23-.69-.41-.17-.15-.32-.32-.45-.52-.13-.2-.23-.41-.29-.63-.06-.23-.08-.48-.1-.72.03-.29.06-.57.14-.84.08-.26.23-.5.4-.71.14-.18.31-.33.5-.47.19-.13.4-.24.61-.3.22-.07.46-.09.7-.11.15,0,.31.02.45.05.18.04.36.11.53.18l-1.25,2.05s-.04.09-.04.13c0,.03,0,.06,0,.09,0,.03.02.06.03.08.03.04.06.08.1.1.02.02.05.03.08.04.03,0,.06.01.09.01h2.33c-.05.25-.11.51-.21.74ZM50.31,30.69l.96-1.57c.18.19.36.38.5.6.09.14.16.3.21.46.05.17.08.34.12.51h-1.79ZM52.71,30.69c-.07-.36-.14-.72-.29-1.05-.09-.2-.22-.4-.36-.57-.14-.17-.31-.32-.47-.47l.62-1.01,1.16,3.1h-.65ZM53.91,30.41l-1.2-3.2h3.96l-2.76,3.2ZM61.06,31.83c-.09.26-.23.5-.4.71-.14.18-.31.33-.5.47-.19.13-.4.24-.61.3-.22.07-.46.09-.7.11-.28-.03-.55-.06-.81-.15-.25-.09-.49-.23-.69-.41-.17-.15-.32-.32-.45-.52-.13-.2-.23-.41-.29-.63-.06-.23-.08-.48-.1-.72.01-.2.03-.4.07-.59.04-.19.11-.37.2-.54.11-.21.24-.41.41-.58.17-.17.36-.3.56-.43l.84,2.25s.02.05.04.07c.02.02.03.04.06.06.03.02.06.04.09.05.03.01.07.01.1.02.02,0,.03,0,.05,0,.02,0,.04,0,.06-.02.03-.02.06-.03.09-.05.03-.02.05-.05.07-.08.02-.04.04-.08.04-.12,0-.04,0-.09-.02-.13l-.84-2.26c.08-.02.16-.03.24-.05.1-.01.21-.02.31-.02.28.03.55.06.81.15.25.09.49.24.69.41.17.15.32.32.45.52.13.2.23.41.29.63.06.23.09.48.11.72-.03.28-.06.57-.14.84Z" class="cls-3"/><rect ry="2.53" rx="2.53" height="12.15" width="21.23" y="9.84" x="43.7" class="cls-3"/><path d="M44.08,6.82h20.52c1.89,0,3.43,1.54,3.43,3.43v26.89h-27.37V10.25c0-1.89,1.54-3.43,3.43-3.43Z" class="cls-3"/><g id="LINE-12"><line y2="276.85" x2="67.96" y1="225.14" x1="67.96" class="cls-3"/></g><g id="LINE-13"><line y2="225.14" x2="40.67" y1="276.85" x1="40.67" class="cls-3"/></g><g><rect height="188" width="30.32" y="37.15" x="39.15" class="cls-3"/><rect height="54.58" width="27.29" y="225.14" x="40.67" class="cls-3"/><rect height="3.03" width="27.29" y="279.72" x="40.67" class="cls-3"/></g><g><g><circle r=".83" cy="46.85" cx="54.31" class="cls-3"/><circle r="2.58" cy="46.85" cx="54.31" class="cls-3"/></g><g><circle r=".83" cy="131.14" cx="54.31" class="cls-3"/><circle r="2.58" cy="131.14" cx="54.31" class="cls-3"/></g><g><circle r=".83" cy="215.44" cx="54.31" class="cls-3"/><circle r="2.58" cy="215.44" cx="54.31" class="cls-3"/></g></g></g><g><polyline points="141.02 37.16 148.6 37.16 148.6 225.09 141.02 225.09" class="cls-3"/><polyline points="137.99 225.09 130.41 225.09 130.41 37.16 137.99 37.16" class="cls-3"/></g><rect height="273.22" width="3.03" y="6.75" x="137.99" class="cls-3"/><polyline points="140.88 279.98 153.03 279.98 153.03 282.69 125.74 282.69 125.74 279.98 137.85 279.98" class="cls-3"/></g></g></g></svg>