<svg viewBox="0 0 531.27 288" xmlns:xlink="http://www.w3.org/1999/xlink" xmlns="http://www.w3.org/2000/svg" id="Camada_2"><defs><style>.cls-1,.cls-2,.cls-3,.cls-4{fill:none;}.cls-5{fill:#12100c;}.cls-2{stroke:#000;}.cls-2,.cls-3,.cls-4{stroke-linecap:round;stroke-linejoin:round;stroke-width:.3px;}.cls-3{stroke:#12100c;}.cls-4{stroke:#877069;}</style><symbol viewBox="0 0 531.27 288" id="fundo_transparente"><rect height="288" width="531.27" x="0" class="cls-1"/></symbol></defs><g id="RePlastic"><g id="compostor_Terra_Mind_2"><use xlink:href="#fundo_transparente" height="288" width="531.27"/><g id="LINE"><line y2="205.73" x2="30.82" y1="205.73" x1="100.69" class="cls-2"/></g><g id="LINE-2"><path d="M26.57,209.56s.15-1.68.18-2.11v-.15c.06-.53.46-.97.99-1.05l2.98-.5.35-.13s.1-.07.15-.11.1-.1.14-.16c.02-.03.04-.07.06-.1s.04-.08.06-.13.03-.1.05-.24l.05-.59.36-4.14c.05-.61.56-1.07,1.17-1.07h65.19c.61,0,1.12.46,1.17,1.07l.36,4.14s.05.57.05.59c0,.06.02.11.05.24.02.05.03.09.05.13s.04.07.06.11c.04.06.09.12.14.16s.1.08.15.12l.35.13,2.98.5c.53.09.93.52.97,1.06,0,.05.2,2.27.2,2.27" class="cls-2"/></g><g id="LINE-3"><line y2="205.73" x2="109.78" y1="205.73" x1="179.65" class="cls-2"/></g><g id="LINE-4"><path d="M105.53,209.56s.15-1.68.18-2.11v-.15c.06-.53.46-.97.99-1.05l2.98-.5.35-.13s.1-.07.15-.11.1-.1.14-.16c.02-.03.04-.07.06-.1s.04-.08.06-.13.03-.1.05-.24l.05-.59.36-4.14c.05-.61.56-1.07,1.17-1.07h65.19c.61,0,1.12.46,1.17,1.07l.36,4.14s.05.57.05.59c0,.06.02.11.05.24.02.05.03.09.05.13s.04.07.06.11c.04.06.09.12.14.16s.1.08.15.12l.35.13,2.98.5c.53.09.93.52.97,1.06,0,.05.2,2.27.2,2.27" class="cls-2"/></g><g id="LINE-5"><line y2="287.43" x2="37.37" y1="287.43" x1="98.4" class="cls-2"/></g><g id="LINE-6"><polyline points="22.6 209.63 37.36 209.63 37.39 209.63" class="cls-2"/><polyline points="110.69 209.63 106.09 209.63 98.42 209.63" class="cls-2"/><polyline points="95.27 209.63 69.39 209.63 68.84 209.63 67.24 209.63 66.69 209.63 40.53 209.63" class="cls-2"/></g><g id="LINE-7"><line y2="232.93" x2="37.37" y1="232.93" x1="97.89" class="cls-4"/></g><g id="LINE-8"><line y2="232.97" x2="37.37" y1="232.97" x1="97.89" class="cls-2"/></g><g id="LINE-9"><line y2="240.72" x2="37.37" y1="240.72" x1="97.89" class="cls-4"/></g><g id="LINE-10"><line y2="256.29" x2="37.37" y1="256.29" x1="97.89" class="cls-2"/></g><g id="LINE-11"><line y2="248.54" x2="37.37" y1="248.54" x1="97.89" class="cls-2"/></g><g id="LINE-12"><line y2="271.9" x2="37.37" y1="271.9" x1="97.89" class="cls-2"/></g><g id="LINE-13"><line y2="279.65" x2="37.37" y1="279.65" x1="97.89" class="cls-2"/></g><g id="LINE-14"><line y2="256.33" x2="37.37" y1="256.33" x1="97.89" class="cls-2"/></g><g id="LINE-15"><line y2="264.08" x2="37.37" y1="264.08" x1="97.89" class="cls-2"/></g><g id="LINE-16"><line y2="264.12" x2="37.37" y1="264.12" x1="97.89" class="cls-2"/></g><g id="LINE-17"><line y2="271.86" x2="37.37" y1="271.86" x1="97.89" class="cls-2"/></g><g id="LINE-18"><line y2="240.76" x2="37.37" y1="240.76" x1="97.89" class="cls-2"/></g><g id="LINE-19"><line y2="248.5" x2="37.37" y1="248.5" x1="97.89" class="cls-2"/></g><g id="LINE-20"><line y2="217.35" x2="37.36" y1="217.35" x1="37.39" class="cls-2"/><line y2="217.35" x2="41.35" y1="217.35" x1="93.93" class="cls-2"/></g><g id="LINE-21"><line y2="225.19" x2="37.37" y1="225.19" x1="97.89" class="cls-4"/></g><g id="LINE-22"><line y2="225.15" x2="37.37" y1="225.15" x1="97.89" class="cls-2"/></g><line y2="287.43" x2="110.08" y1="287.43" x1="110.71" class="cls-4"/><rect height="77.82" width="14.78" y="209.62" x="22.59" class="cls-2"/><rect height="77.8" width="14.76" y="209.63" x="97.93" class="cls-2"/><path d="M94.78,209.63c-.47,0-.86.36-.86.86v7.67c0,.47.39.86.86.86h3.14v-9.38h-3.14ZM95.09,214.9h1.71c.22,0,.39.17.39.39s-.17.39-.39.39h-1.71c-.22,0-.39-.17-.39-.39s.17-.39.39-.39Z" class="cls-2"/><path d="M97.18,215.28c0,.22-.17.39-.39.39h-1.71c-.22,0-.39-.17-.39-.39s.17-.39.39-.39h1.71c.22,0,.39.17.39.39Z" class="cls-2"/><path d="M97.18,215.28c0,.22-.17.39-.39.39h-1.71c-.22,0-.39-.17-.39-.39s.17-.39.39-.39h1.71c.22,0,.39.17.39.39Z" class="cls-2"/><path d="M40.53,209.63h-3.15v9.38h3.15c.5,0,.86-.39.86-.86v-7.67c0-.5-.36-.86-.86-.86ZM38.55,214.9h1.68c.22,0,.41.17.41.39s-.19.39-.41.39h-1.68c-.22,0-.39-.17-.39-.39s.17-.39.39-.39Z" class="cls-2"/><path d="M40.64,215.28c0,.22-.19.39-.41.39h-1.68c-.22,0-.39-.17-.39-.39s.17-.39.39-.39h1.68c.22,0,.41.17.41.39Z" class="cls-2"/><path d="M40.64,215.28c0,.22-.19.39-.41.39h-1.68c-.22,0-.39-.17-.39-.39s.17-.39.39-.39h1.68c.22,0,.41.17.41.39Z" class="cls-2"/><g id="LINE-23"><path d="M67.24,210.31v-.7s1.61,0,1.61,0q0,.26,0,.7" class="cls-2"/></g><g id="LINE-24"><line y2="210.34" x2="66.69" y1="209.65" x1="66.69" class="cls-2"/></g><g id="LINE-25"><line y2="209.65" x2="69.4" y1="210.34" x1="69.4" class="cls-2"/></g><rect height="2.73" width="2.72" y="210.31" x="66.69" class="cls-2"/><g id="LINE-26"><line y2="287.43" x2="112.69" y1="287.43" x1="176.82" class="cls-2"/></g><g id="LINE-27"><path d="M115.83,209.63h-3.14v9.38h3.14c.5,0,.86-.39.86-.86v-7.67c0-.5-.36-.86-.86-.86ZM113.85,214.9h1.68c.22,0,.41.17.41.39s-.19.39-.41.39h-1.68c-.22,0-.39-.17-.39-.39s.17-.39.39-.39Z" class="cls-2"/><polyline points="106.09 209.63 110.69 209.63 113.18 209.63" class="cls-2"/><path d="M173.56,209.63c-.47,0-.86.36-.86.86v7.67c0,.47.39.86.86.86h3.14v-9.38h-3.14ZM173.87,214.9h1.71c.22,0,.39.17.39.39s-.17.39-.39.39h-1.71c-.22,0-.39-.17-.39-.39s.17-.39.39-.39Z" class="cls-2"/><polyline points="189.08 209.63 175.03 209.63 174.21 209.63" class="cls-2"/><polyline points="171.06 209.63 147.78 209.63 147.2 209.63 145.6 209.63 145.04 209.63 116.32 209.63" class="cls-2"/></g><g id="LINE-28"><line y2="232.93" x2="112.73" y1="232.93" x1="176.66" class="cls-4"/></g><g id="LINE-29"><line y2="225.19" x2="112.73" y1="225.19" x1="176.66" class="cls-4"/></g><g id="LINE-30"><line y2="232.97" x2="112.73" y1="232.97" x1="176.66" class="cls-2"/></g><g id="LINE-31"><line y2="240.72" x2="112.73" y1="240.72" x1="176.66" class="cls-4"/></g><g id="LINE-32"><line y2="256.29" x2="112.73" y1="256.29" x1="176.66" class="cls-2"/></g><g id="LINE-33"><line y2="248.54" x2="112.73" y1="248.54" x1="176.66" class="cls-2"/></g><g id="LINE-34"><line y2="271.9" x2="112.73" y1="271.9" x1="176.66" class="cls-2"/></g><g id="LINE-35"><line y2="279.65" x2="112.73" y1="279.65" x1="176.66" class="cls-2"/></g><g id="LINE-36"><line y2="225.15" x2="112.73" y1="225.15" x1="176.66" class="cls-2"/></g><g id="LINE-37"><line y2="217.35" x2="116.75" y1="217.35" x1="172.71" class="cls-2"/></g><g id="LINE-38"><line y2="256.33" x2="112.73" y1="256.33" x1="176.66" class="cls-2"/></g><g id="LINE-39"><line y2="264.08" x2="112.73" y1="264.08" x1="176.66" class="cls-2"/></g><g id="LINE-40"><line y2="264.12" x2="112.73" y1="264.12" x1="176.66" class="cls-2"/></g><g id="LINE-41"><line y2="271.86" x2="112.73" y1="271.86" x1="176.66" class="cls-2"/></g><g id="LINE-42"><line y2="240.76" x2="112.73" y1="240.76" x1="176.66" class="cls-2"/></g><g id="LINE-43"><line y2="248.5" x2="112.73" y1="248.5" x1="176.66" class="cls-2"/></g><g id="LINE-44"><line y2="287.43" x2="188.45" y1="287.43" x1="189.07" class="cls-4"/></g><g id="LINE-45"><path d="M145.6,210.31v-.7s1.61,0,1.61,0c0,.17,0,.7,0,.7" class="cls-2"/></g><g id="LINE-46"><line y2="210.35" x2="145.05" y1="209.65" x1="145.05" class="cls-2"/></g><g id="LINE-47"><line y2="209.66" x2="147.77" y1="210.35" x1="147.77" class="cls-2"/></g><rect height="2.73" width="2.72" y="210.31" x="145.05" class="cls-2"/><g id="LINE-48"><polyline points="101.36 209.63 116.12 209.63 116.15 209.63" class="cls-2"/><polyline points="189.46 209.63 184.85 209.63 177.18 209.63" class="cls-2"/><polyline points="174.04 209.63 148.16 209.63 147.6 209.63 146 209.63 145.45 209.63 119.3 209.63" class="cls-2"/></g><line y2="287.43" x2="188.85" y1="287.43" x1="189.47" class="cls-4"/><rect height="77.8" width="14.76" y="209.63" x="176.69" class="cls-2"/><g id="LINE-49"><line y2="287.43" x2="188.44" y1="287.43" x1="189.06" class="cls-4"/></g><g id="LINE-50"><line y2="287.43" x2="188.41" y1="287.43" x1="189.04" class="cls-4"/></g><line y2="287.43" x2="188.82" y1="287.43" x1="189.44" class="cls-4"/><g id="LINE-51"><line y2="287.43" x2="202.71" y1="287.43" x1="203.33" class="cls-4"/></g><g id="LINE-52"><line y2="209.15" x2="227.42" y1="209.15" x1="227.41" class="cls-2"/></g><g id="LINE-53"><line y2="209.15" x2="227.41" y1="209.21" x1="227.41" class="cls-2"/></g><g id="LINE-54"><line y2="225.16" x2="296.43" y1="225.16" x1="235.43" class="cls-2"/></g><g id="LINE-55"><line y2="279.68" x2="296.43" y1="279.68" x1="235.43" class="cls-2"/></g><g id="LINE-56"><line y2="240.74" x2="296.43" y1="240.74" x1="235.43" class="cls-2"/></g><g id="LINE-57"><line y2="256.31" x2="296.43" y1="256.31" x1="235.43" class="cls-2"/></g><g id="LINE-58"><line y2="248.52" x2="296.43" y1="248.52" x1="235.43" class="cls-2"/></g><g id="LINE-59"><line y2="217.37" x2="296.43" y1="217.37" x1="235.43" class="cls-2"/></g><g id="LINE-60"><line y2="271.89" x2="296.43" y1="271.89" x1="235.43" class="cls-2"/></g><g id="LINE-61"><line y2="232.95" x2="296.43" y1="232.95" x1="235.43" class="cls-2"/></g><g id="LINE-62"><line y2="264.1" x2="296.43" y1="264.1" x1="235.43" class="cls-2"/></g><g id="LINE-63"><path d="M308.16,209.57v77.86h-84.46v-77.86" class="cls-2"/></g><g id="LINE-64"><path d="M227.38,209.57h80.44s-.16-1.87-.17-1.91c-.01-.07-.02-.15-.04-.22-.03-.11-.08-.22-.14-.31-.04-.06-.09-.12-.14-.17s-.1-.1-.16-.14c-.07-.05-.15-.09-.23-.13-.04-.02-.09-.03-.13-.05s-.09-.02-.14-.03c0,0-2.18-.36-2.18-.36l-3.11-.51c-.12-.02-.24-.06-.35-.13-.06-.04-.11-.07-.16-.12s-.1-.1-.14-.16c-.02-.03-.04-.07-.06-.11s-.04-.08-.08-.2c-.01-.05-.02-.11-.03-.17l-.07-.76c-.04-.48-.43-.86-.91-.89.04,0-.09,0-.09,0-2.55-.17-61.4-4.15-61.4-4.15-.89-.06-1.74.39-2.19,1.17l-2.39,4.15-.15.26c-.03.05-.07.11-.1.16s-.07.1-.11.14c-.08.09-.16.18-.24.25s-.16.14-.24.19c-.09.06-.18.11-.27.16l-.3.13c-.14.05-.28.09-.43.11l-3.12.47c-.54.08-.95.52-.99,1.06l-.2,2.25" class="cls-2"/></g><g id="LINE-65"><polyline points="227.58 207.32 227.58 207.34 227.58 207.36 227.58 207.36" class="cls-2"/></g><g id="ELLIPSE"><path d="M231.55,205.81c.47-.05.95-.06,1.41-.06h67.45c.35,0,.99.03,1.34.06" class="cls-2"/></g><g id="LINE-66"><line y2="287.43" x2="233.44" y1="209.58" x1="233.37" class="cls-2"/></g><g id="LINE-67"><path d="M233.44,287.43h1.21c.43,0,.78-.35.78-.78l.02-76.29c0-.43-.35-.78-.78-.78h-10.95" class="cls-2"/></g><g id="ARC"><path d="M227.23,207.18c-.41.36-.43,1.05-.13,1.52" class="cls-2"/></g><g id="CIRCLE"><circle r=".43" cy="209.13" cx="226.92" class="cls-2"/></g><g id="LINE-68"><path d="M227.46,207.2l-.23-.02-.02.23-.1,1.13s0,.08-.01.16l.23.02" class="cls-2"/></g><g id="LINE-69"><line y2="209.57" x2="308.16" y1="209.57" x1="298.13" class="cls-2"/></g><g id="LINE-70"><line y2="287.43" x2="298.43" y1="209.57" x1="298.51" class="cls-2"/></g><g id="LINE-71"><path d="M298.43,287.43h-1.21c-.43,0-.78-.35-.78-.78v-76.3c0-.43.35-.78.78-.78h1.21s9.74,0,9.74,0" class="cls-2"/></g><g id="LINE-72"><line y2="209.57" x2="308.16" y1="209.56" x1="308.16" class="cls-2"/></g><g id="LINE-73"><line y2="209.57" x2="233.74" y1="209.57" x1="223.7" class="cls-2"/></g><g id="LINE-74"><line y2="209.57" x2="223.7" y1="209.57" x1="223.72" class="cls-2"/></g><path d="M34.97,177.32v3.47c0,.3-.28.55-.55.55h-11.87c-.33,0-.58-.25-.58-.55v-7.74c0-.28.25-.52.58-.52h4.16v3.8c0,.52.41.96.96.96h1.4l5.89.03" class="cls-2"/><path d="M34.89,97.82v3.44h-7.22c-.55,0-.96.41-.96.94v3.88h-4.24c-.33,0-.58-.25-.58-.52v-7.74c0-.3.25-.55.58-.55h11.87c.28,0,.55.25.55.55Z" class="cls-2"/><path d="M181.01,177.29h1.4c.52,0,.96-.44.96-.96v-3.8h4.16c.33,0,.58.25.58.52v7.74c0,.3-.25.55-.58.55h-11.87c-.28,0-.55-.25-.55-.55v-3.47c1.68,0,5.89-.03,5.89-.03Z" class="cls-2"/><path d="M188.2,97.85v7.74c0,.28-.25.52-.58.52h-4.24v-3.88c0-.52-.44-.94-.96-.94h-7.22v-3.44c0-.3.28-.55.55-.55h11.87c.33,0,.58.25.58.55Z" class="cls-2"/><path d="M111.76,177.32v3.36c0,.36-.33.66-.72.66h-11.84c-.39,0-.72-.3-.72-.66v-3.36h5.32c.28,0,.55-.11.69-.3.19-.17.3-.41.3-.66v-3.97h.5v3.94c0,.25.11.5.3.69.14.19.41.3.69.3h5.48Z" class="cls-2"/><path d="M111.76,97.96v3.33h-5.48c-.55,0-.99.41-.99.94v4.02h-.5v-4.02c0-.25-.11-.5-.3-.66-.17-.17-.41-.28-.69-.28h-5.32v-3.33c0-.36.33-.66.72-.66h11.84c.39,0,.72.3.72.66Z" class="cls-2"/><rect height=".33" width="7.8" y="100.8" x="166.59" class="cls-2"/><g id="ARC-2"><path d="M171.69,100.8c.17-.16.4-.25.64-.25s.47.09.64.25" class="cls-2"/></g><g id="ARC-3"><path d="M168.09,100.8c.17-.16.4-.25.64-.25s.47.09.64.25" class="cls-2"/></g><rect height=".63" width="5.23" y="100.17" x="167.91" class="cls-2"/><rect height=".33" width="7.8" y="100.8" x="114.3" class="cls-2"/><rect height=".63" width="5.23" y="100.17" x="115.58" class="cls-2"/><g id="ARC-4"><path d="M119.36,100.8c.17-.16.4-.25.64-.25s.47.09.64.25" class="cls-2"/></g><g id="ARC-5"><path d="M115.76,100.8c.17-.16.4-.25.64-.25s.47.09.64.25" class="cls-2"/></g><rect height=".33" width="7.8" y="100.8" x="87.98" class="cls-2"/><path d="M93.09,100.8c.17-.16.4-.25.64-.25s.47.09.64.25" class="cls-2"/><path d="M89.48,100.8c.17-.16.4-.25.64-.25s.47.09.64.25" class="cls-2"/><rect height=".63" width="5.23" y="100.17" x="89.31" class="cls-2"/><rect height=".33" width="7.8" y="100.8" x="35.7" class="cls-2"/><rect height=".63" width="5.23" y="100.17" x="36.98" class="cls-2"/><path d="M40.76,100.8c.17-.16.4-.25.64-.25s.47.09.64.25" class="cls-2"/><path d="M37.15,100.8c.17-.16.4-.25.64-.25s.47.09.64.25" class="cls-2"/><path d="M104.49,101.57c-.17-.17-.41-.28-.69-.28H27.67c-.55,0-.96.41-.96.94v74.1c0,.52.41.96.96.96h32.45c.66,0,1.18.5,1.18,1.13,0,.55.41.96.96.96h9.01c.52,0,.96-.41.96-.96,0-.63.52-1.13,1.18-1.13h30.38c.28,0,.52-.11.69-.28.17-.19.28-.44.28-.69v-74.1c0-.25-.11-.5-.28-.66ZM99.31,171.34c0,.69-.55,1.24-1.24,1.24H33.43c-.69,0-1.24-.55-1.24-1.24v-62c0-.69.55-1.24,1.24-1.24h64.65c.69,0,1.24.55,1.24,1.24v62Z" class="cls-2"/><path d="M182.42,101.29h-76.13c-.55,0-.99.41-.99.94v74.1c0,.25.11.5.3.69.17.17.41.28.69.28h32.45c.66,0,1.16.5,1.16,1.13,0,.55.44.96.99.96h8.98c.55,0,.99-.41.99-.96,0-.63.52-1.13,1.16-1.13h30.41c.52,0,.96-.44.96-.96v-74.1c0-.52-.44-.94-.96-.94ZM177.9,171.34c0,.69-.52,1.24-1.21,1.24h-64.68c-.66,0-1.24-.55-1.24-1.24v-62c0-.69.58-1.24,1.24-1.24h64.68c.69,0,1.21.55,1.21,1.24v62Z" class="cls-2"/><line y2="85.15" x2="21.97" y1="85.15" x1="188.05" class="cls-3"/><rect height="1.95" width=".3" y="84.17" x="187.9" class="cls-5"/><rect height="1.95" width=".3" y="84.17" x="21.82" class="cls-5"/><path d="M92.64,76.83c.21.08.39.19.54.33.15.14.27.31.35.51s.13.42.13.67c0,.14-.02.28-.05.42-.03.14-.08.28-.15.41-.07.13-.16.27-.27.42s-.24.29-.39.45l-1.31,1.35h2.29v.67h-3.32v-.59l1.79-1.86c.12-.12.22-.23.3-.33.08-.11.15-.21.2-.3.05-.1.09-.19.11-.29s.03-.19.03-.29c0-.14-.02-.28-.07-.4s-.11-.23-.2-.32-.19-.16-.3-.21c-.11-.05-.24-.07-.39-.07-.25,0-.47.08-.65.23-.18.15-.31.36-.39.63l-.67-.23c.12-.42.32-.74.62-.97s.66-.34,1.1-.34c.25,0,.48.04.69.12Z"/><path d="M96.32,76.77v5.29h-.72v-4.54l-1.3.64v-.73l1.36-.67h.67Z"/><path d="M100.31,76.77v.55l-.65.98c-.04.06-.07.1-.1.15-.03.04-.06.08-.09.13-.03.04-.06.09-.09.13s-.06.09-.09.15c.19.02.37.08.52.17.16.09.29.21.41.35.12.14.21.3.27.48s.09.38.09.59c0,.24-.04.47-.13.67-.08.2-.2.38-.36.52s-.34.26-.54.34c-.21.08-.44.12-.69.12-.21,0-.4-.03-.58-.08-.18-.05-.35-.13-.49-.23-.15-.1-.28-.22-.39-.37-.11-.14-.2-.31-.26-.49l.63-.31c.08.24.22.43.41.58.19.14.42.21.67.21.15,0,.28-.02.4-.07.12-.05.23-.11.31-.2.09-.09.15-.19.2-.31.05-.12.07-.26.07-.41s-.03-.29-.08-.42c-.06-.13-.13-.23-.22-.32-.09-.09-.21-.16-.34-.21s-.28-.08-.44-.08h-.35l-.08-.44.72-1.07s.06-.09.09-.12c.03-.03.05-.07.08-.12.03-.04.06-.08.08-.12.03-.03.06-.07.09-.12h-2.18v-.65h3.09Z"/><path d="M104.01,76.91c.25.13.47.32.65.55.18.23.32.52.42.85s.15.69.15,1.08-.05.76-.15,1.1c-.1.33-.24.62-.42.86-.18.24-.4.43-.65.56-.25.13-.52.2-.83.2s-.57-.07-.82-.2-.47-.32-.65-.56c-.18-.24-.32-.53-.42-.86-.1-.33-.15-.7-.15-1.1s.05-.75.15-1.08c.1-.33.24-.62.42-.85.18-.24.4-.42.65-.55.25-.13.53-.2.83-.2s.58.07.83.2ZM102.65,77.55c-.16.1-.29.23-.41.41-.11.17-.2.38-.27.63-.07.24-.1.51-.1.81s.03.57.09.82c.06.25.15.46.27.64.12.18.25.32.41.42.16.1.33.15.52.15s.37-.05.53-.15c.16-.1.3-.24.41-.42.11-.18.2-.39.27-.64s.09-.52.09-.82-.03-.56-.09-.81-.15-.46-.26-.63c-.11-.17-.25-.31-.41-.41-.16-.1-.34-.15-.53-.15s-.37.05-.52.15Z"/><path d="M108.83,78.41v.67c.11-.24.26-.42.45-.54.18-.12.4-.18.63-.18.26,0,.48.07.67.2s.32.33.41.59c.11-.26.27-.45.46-.59s.43-.2.7-.2c.38,0,.67.12.88.38.21.25.31.61.31,1.07v2.25h-.7v-2.16c0-.29-.07-.52-.2-.69-.13-.17-.31-.25-.54-.25-.12,0-.22.02-.32.07s-.18.11-.26.2-.13.19-.16.32c-.04.12-.06.26-.06.4v2.11h-.7v-2.16c0-.14-.02-.27-.06-.38-.04-.12-.09-.22-.15-.3s-.14-.14-.23-.19c-.09-.04-.2-.07-.31-.07s-.22.02-.32.07-.18.12-.25.21c-.07.09-.12.2-.17.32-.04.12-.06.26-.06.41v2.09h-.7v-3.64h.68Z"/><path d="M115.02,78.41v.67c.11-.24.26-.42.45-.54.18-.12.4-.18.63-.18.26,0,.48.07.67.2s.32.33.41.59c.11-.26.27-.45.46-.59s.43-.2.7-.2c.38,0,.67.12.88.38.21.25.31.61.31,1.07v2.25h-.7v-2.16c0-.29-.07-.52-.2-.69-.13-.17-.31-.25-.54-.25-.12,0-.22.02-.32.07s-.18.11-.26.2-.13.19-.16.32c-.04.12-.06.26-.06.4v2.11h-.7v-2.16c0-.14-.02-.27-.06-.38-.04-.12-.09-.22-.15-.3s-.14-.14-.23-.19c-.09-.04-.2-.07-.31-.07s-.22.02-.32.07-.18.12-.25.21c-.07.09-.12.2-.17.32-.04.12-.06.26-.06.41v2.09h-.7v-3.64h.68Z"/><line y2="287.28" x2="11.39" y1="199.21" x1="11.39" class="cls-3"/><rect height=".3" width="1.95" y="199.06" x="10.42" class="cls-5"/><rect height=".3" width="1.95" y="287.13" x="10.42" class="cls-5"/><path d="M3.01,255.37h5.29v.72H3.76l.64,1.3h-.73l-.67-1.36v-.67Z"/><path d="M3.01,252.53h5.29v.72H3.76l.64,1.3h-.73l-.67-1.36v-.67Z"/><path d="M3.01,248.54h.55l.98.65c.06.04.1.07.15.1.04.03.08.06.13.09s.09.06.13.09.09.06.15.09c.02-.19.08-.37.18-.52s.21-.29.35-.41c.14-.12.3-.21.48-.27s.38-.09.59-.09c.24,0,.47.04.67.13.2.08.38.2.52.36.14.15.26.34.34.54s.12.44.12.69c0,.21-.03.4-.08.58-.05.18-.13.35-.23.49-.1.15-.22.28-.37.39-.14.11-.31.2-.49.26l-.31-.63c.24-.08.44-.22.58-.41.14-.19.21-.42.21-.67,0-.15-.02-.28-.07-.4-.05-.12-.11-.23-.2-.31-.09-.09-.19-.15-.31-.2-.12-.05-.26-.07-.41-.07s-.29.03-.42.08c-.13.06-.23.13-.32.22-.09.09-.16.21-.21.34-.05.13-.08.28-.08.44v.35l-.44.08-1.07-.72s-.09-.06-.12-.09c-.03-.03-.07-.05-.12-.08s-.08-.06-.12-.08c-.03-.03-.07-.06-.12-.09v2.18h-.65v-3.09Z"/><path d="M3.16,244.84c.13-.25.32-.47.55-.65.23-.18.52-.32.85-.42.33-.1.69-.15,1.08-.15s.76.05,1.1.15.62.24.86.42c.24.18.43.4.56.65.13.25.2.52.2.83s-.07.57-.2.82-.32.47-.56.65c-.24.18-.53.32-.86.42-.33.1-.7.15-1.1.15s-.75-.05-1.08-.15c-.33-.1-.61-.24-.85-.42-.24-.18-.42-.4-.55-.65-.13-.25-.2-.53-.2-.83s.07-.58.2-.83ZM3.79,246.2c.1.16.23.29.41.41.18.11.38.2.63.27.24.07.51.1.81.1s.57-.03.82-.09c.25-.06.46-.15.64-.27.18-.12.32-.25.42-.41.1-.16.15-.33.15-.52s-.05-.37-.15-.53c-.1-.16-.24-.3-.42-.41-.18-.11-.39-.2-.64-.27-.25-.06-.52-.09-.82-.09s-.56.03-.81.09c-.25.06-.46.15-.63.26-.17.11-.31.25-.41.41-.1.16-.15.34-.15.53s.05.37.15.52Z"/><path d="M4.66,240.02h.67c-.24-.11-.42-.26-.54-.45-.12-.18-.18-.4-.18-.63,0-.26.07-.48.2-.67.14-.19.33-.32.59-.41-.26-.11-.45-.27-.59-.46-.14-.2-.2-.43-.2-.7,0-.38.12-.67.37-.88.25-.21.61-.31,1.07-.31h2.25v.7h-2.16c-.29,0-.52.07-.69.2-.17.13-.25.31-.25.54,0,.12.02.22.07.32.05.1.11.18.2.26.09.07.19.13.32.16.12.04.26.06.4.06h2.11v.7h-2.16c-.14,0-.27.02-.38.06-.12.04-.22.09-.3.15-.08.06-.14.14-.19.23-.04.09-.07.2-.07.31s.02.22.07.32c.05.1.12.18.21.25.09.07.2.12.32.17.12.04.26.06.41.06h2.09v.7h-3.64v-.68Z"/><path d="M4.66,233.83h.67c-.24-.11-.42-.26-.54-.45-.12-.18-.18-.4-.18-.63,0-.26.07-.48.2-.67.14-.19.33-.32.59-.41-.26-.11-.45-.27-.59-.46-.14-.2-.2-.43-.2-.7,0-.38.12-.67.37-.88.25-.21.61-.31,1.07-.31h2.25v.7h-2.16c-.29,0-.52.07-.69.2-.17.13-.25.31-.25.54,0,.12.02.22.07.32.05.1.11.18.2.26.09.07.19.13.32.16.12.04.26.06.4.06h2.11v.7h-2.16c-.14,0-.27.02-.38.06-.12.04-.22.09-.3.15-.08.06-.14.14-.19.23-.04.09-.07.2-.07.31s.02.22.07.32c.05.1.12.18.21.25.09.07.2.12.32.17.12.04.26.06.41.06h2.09v.7h-3.64v-.68Z"/><line y2="181.19" x2="11.39" y1="97.45" x1="11.39" class="cls-3"/><rect height=".3" width="1.95" y="97.3" x="10.42" class="cls-5"/><rect height=".3" width="1.95" y="181.04" x="10.42" class="cls-5"/><path d="M3.01,152.39h5.29v.72H3.76l.64,1.3h-.73l-.67-1.36v-.67Z"/><path d="M3.16,148.68c.13-.25.32-.47.55-.65.23-.18.52-.32.85-.42.33-.1.69-.15,1.08-.15s.76.05,1.1.15.62.24.86.42c.24.18.43.4.56.65.13.25.2.52.2.83s-.07.57-.2.82-.32.47-.56.65c-.24.18-.53.32-.86.42-.33.1-.7.15-1.1.15s-.75-.05-1.08-.15c-.33-.1-.61-.24-.85-.42-.24-.18-.42-.4-.55-.65-.13-.25-.2-.53-.2-.83s.07-.58.2-.83ZM3.79,150.04c.1.16.23.29.41.41.18.11.38.2.63.27.24.07.51.1.81.1s.57-.03.82-.09c.25-.06.46-.15.64-.27.18-.12.32-.25.42-.41.1-.16.15-.33.15-.52s-.05-.37-.15-.53c-.1-.16-.24-.3-.42-.41-.18-.11-.39-.2-.64-.27-.25-.06-.52-.09-.82-.09s-.56.03-.81.09c-.25.06-.46.15-.63.26-.17.11-.31.25-.41.41-.1.16-.15.34-.15.53s.05.37.15.52Z"/><path d="M8.25,145.87c-.07.22-.17.4-.31.56-.13.15-.29.28-.47.36s-.38.13-.6.13c-.16,0-.31-.02-.45-.07-.15-.05-.28-.11-.4-.2-.12-.09-.22-.19-.3-.31s-.14-.25-.18-.4c-.05.14-.12.25-.2.36-.08.1-.17.19-.27.27s-.21.13-.33.17c-.12.04-.25.06-.38.06-.21,0-.39-.04-.56-.12-.17-.08-.32-.2-.44-.34-.13-.14-.22-.32-.29-.52-.07-.2-.1-.42-.1-.66s.03-.46.1-.66c.07-.2.17-.37.29-.52.12-.15.27-.26.44-.35.17-.08.36-.13.57-.13.13,0,.26.02.38.06.12.04.24.1.34.17.1.07.19.16.27.27.08.1.14.22.19.35.04-.15.1-.28.18-.4s.19-.22.31-.3c.12-.08.25-.15.4-.2.14-.05.29-.07.45-.07.21,0,.41.04.6.13.18.09.34.21.47.36.13.15.24.34.31.56.07.22.11.46.11.72s-.04.5-.11.72ZM3.69,145.51c.04.11.09.2.16.28.07.08.15.14.26.18s.21.07.33.07c.11,0,.22-.02.32-.07.1-.04.19-.11.26-.19.07-.08.13-.17.17-.28s.06-.23.06-.35-.02-.25-.06-.35c-.04-.1-.1-.2-.17-.28s-.16-.14-.26-.19c-.1-.04-.21-.07-.32-.07-.12,0-.23.02-.33.07-.1.04-.19.11-.26.19-.07.08-.12.17-.16.28-.04.11-.06.23-.06.36s.02.24.06.35ZM7.62,144.74c-.04-.13-.11-.23-.19-.32-.08-.09-.18-.16-.29-.21-.11-.05-.24-.08-.37-.08s-.26.03-.37.08c-.11.05-.21.12-.29.21-.08.09-.15.2-.2.33-.05.13-.07.26-.07.41s.02.28.07.41c.04.13.11.23.19.33s.18.16.3.21c.11.05.24.07.37.07.14,0,.27-.02.38-.07.11-.05.21-.12.29-.21.08-.09.14-.2.19-.33.04-.13.07-.26.07-.41s-.02-.29-.07-.41Z"/><path d="M3.16,139.96c.13-.25.32-.47.55-.65.23-.18.52-.32.85-.42.33-.1.69-.15,1.08-.15s.76.05,1.1.15.62.24.86.42c.24.18.43.4.56.65.13.25.2.52.2.83s-.07.57-.2.82-.32.47-.56.65c-.24.18-.53.32-.86.42-.33.1-.7.15-1.1.15s-.75-.05-1.08-.15c-.33-.1-.61-.24-.85-.42-.24-.18-.42-.4-.55-.65-.13-.25-.2-.53-.2-.83s.07-.58.2-.83ZM3.79,141.32c.1.16.23.29.41.41.18.11.38.2.63.27.24.07.51.1.81.1s.57-.03.82-.09c.25-.06.46-.15.64-.27.18-.12.32-.25.42-.41.1-.16.15-.33.15-.52s-.05-.37-.15-.53c-.1-.16-.24-.3-.42-.41-.18-.11-.39-.2-.64-.27-.25-.06-.52-.09-.82-.09s-.56.03-.81.09c-.25.06-.46.15-.63.26-.17.11-.31.25-.41.41-.1.16-.15.34-.15.53s.05.37.15.52Z"/><path d="M4.66,135.13h.67c-.24-.11-.42-.26-.54-.45-.12-.18-.18-.4-.18-.63,0-.26.07-.48.2-.67.14-.19.33-.32.59-.41-.26-.11-.45-.27-.59-.46-.14-.2-.2-.43-.2-.7,0-.38.12-.67.37-.88.25-.21.61-.31,1.07-.31h2.25v.7h-2.16c-.29,0-.52.07-.69.2-.17.13-.25.31-.25.54,0,.12.02.22.07.32.05.1.11.18.2.26.09.07.19.13.32.16.12.04.26.06.4.06h2.11v.7h-2.16c-.14,0-.27.02-.38.06-.12.04-.22.09-.3.15-.08.06-.14.14-.19.23-.04.09-.07.2-.07.31s.02.22.07.32c.05.1.12.18.21.25.09.07.2.12.32.17.12.04.26.06.41.06h2.09v.7h-3.64v-.68Z"/><path d="M4.66,128.95h.67c-.24-.11-.42-.26-.54-.45-.12-.18-.18-.4-.18-.63,0-.26.07-.48.2-.67.14-.19.33-.32.59-.41-.26-.11-.45-.27-.59-.46-.14-.2-.2-.43-.2-.7,0-.38.12-.67.37-.88.25-.21.61-.31,1.07-.31h2.25v.7h-2.16c-.29,0-.52.07-.69.2-.17.13-.25.31-.25.54,0,.12.02.22.07.32.05.1.11.18.2.26.09.07.19.13.32.16.12.04.26.06.4.06h2.11v.7h-2.16c-.14,0-.27.02-.38.06-.12.04-.22.09-.3.15-.08.06-.14.14-.19.23-.04.09-.07.2-.07.31s.02.22.07.32c.05.1.12.18.21.25.09.07.2.12.32.17.12.04.26.06.41.06h2.09v.7h-3.64v-.68Z"/></g></g></svg>