<svg viewBox="0 0 531.27 288" xmlns:xlink="http://www.w3.org/1999/xlink" xmlns="http://www.w3.org/2000/svg"><defs><style>.cls-1,.cls-2,.cls-3,.cls-4{fill:none;}.cls-5{fill:#12100c;}.cls-2{opacity:.5;}.cls-2,.cls-3,.cls-4{stroke:#12100c;stroke-linecap:round;stroke-linejoin:round;stroke-width:.3px;}.cls-2,.cls-4{mix-blend-mode:multiply;}.cls-6{isolation:isolate;}</style><symbol viewBox="0 0 531.27 288" id="fundo_transparente"><rect height="288" width="531.27" x="0" class="cls-1"/></symbol></defs><g class="cls-6"><g id="Camada_2"><g id="RePlastic"><g id="papeleira_Halux_619"><use xlink:href="#fundo_transparente" height="288" width="531.27"/><rect height="2.81" width="3.15" y="129.09" x="52.97" class="cls-3"/><rect height="2.81" width=".07" y="129.09" x="70.42" class="cls-3"/><rect height="2.81" width="3.08" y="129.09" x="144.18" class="cls-3"/><path d="M70.64,110.72c-.07.53-.15,1.14-.15,1.75v107.72h-.07v-107.72c0-.61,0-1.21-.07-1.75h.29Z" class="cls-3"/><path d="M144.18,112.47v108.7c0,.15-.15.23-.22.23h-3.23c-.15,0-.22-.08-.22-.23v-108.7c0-.61,0-1.21.07-1.75.07-4.4.88-5.77,1.76-5.77,1.03,0,1.83,1.75,1.83,7.52Z" class="cls-3"/><path d="M86.55,112.47v108.7c0,.15-.07.23-.22.23h-14.52c-.15,0-.22-.08-.22-.23v-108.7c0-.61.07-1.21.15-1.75.66-4.18,3.59-5.62,7.33-5.77h.07c3.67.15,6.67,1.59,7.26,5.77.07.53.15,1.14.15,1.75Z" class="cls-3"/><path d="M68.59,112.47v108.7c0,.15-.07.23-.22.23h-7.41c-.07,0-.22-.08-.22-.23v-108.7c0-.61,0-1.21.07-1.75.15-1.67.44-2.96.88-3.8.51-1.06,1.32-1.67,2.13-1.9l.73-.08h.15c1.91,0,3.52,1.37,3.81,5.77.07.53.07,1.14.07,1.75Z" class="cls-3"/><path d="M70.42,112.47v108.7c0,.15-.15.23-.22.23h-1.83c.15,0,.22-.08.22-.23v-108.7c0-.61,0-1.21-.07-1.75-.29-4.4-1.91-5.77-3.81-5.77h1.76c.15,0,.29,0,.44.08.15-.08.29,0,.44.08h.15c.95.3,1.76,1.06,2.27,2.43.22.38.29.76.37,1.29.07.38.15.76.15,1.21.07.23.07.46.07.68.07.53.07,1.14.07,1.75Z" class="cls-3"/><path d="M69.76,107.53c-.51-1.37-1.32-2.13-2.27-2.43,1.03.15,1.83.76,2.27,2.43Z" class="cls-3"/><path d="M60.74,221.17c0,.15.15.23.22.23h-1.39c.15,0,.22-.08.22-.23v-108.7c0-.61,0-1.21-.07-1.75-.07-4.4-.88-5.77-1.76-5.77h2.35c.15,0,.29,0,.37.08.44.23.73.76,1.03,1.9-.44.83-.73,2.13-.88,3.8-.07.53-.07,1.14-.07,1.75v108.7Z" class="cls-3"/><path d="M63.82,105.03c-.81.23-1.61.83-2.13,1.9-.29-1.14-.59-1.67-1.03-1.9.37,0,.51.15,1.1,1.37.95-1.14,1.39-1.37,2.05-1.37Z" class="cls-3"/><path d="M59.79,112.47v108.7c0,.15-.07.23-.22.23h-3.23c-.15,0-.22-.08-.22-.23v-108.7c0-5.77.81-7.52,1.83-7.52.88,0,1.69,1.37,1.76,5.77.07.53.07,1.14.07,1.75Z" class="cls-3"/><path d="M71.59,221.17c0,.15.07.23.22.23h-1.1c-.15,0-.22-.08-.22-.23v-108.7c0-.61.07-1.21.15-1.75,0-.23.07-.53.15-.76.07-.38.22-.76.37-1.14.95-2.35,3.08-3.42,5.65-3.8l1.76-.08h.51c-3.74.15-6.67,1.59-7.33,5.77-.07.53-.15,1.14-.15,1.75v108.7Z" class="cls-3"/><path d="M70.64,110.72c-.07.53-.15,1.14-.15,1.75v107.72h-.07v-107.72c0-.61,0-1.21-.07-1.75h.29Z" class="cls-3"/><path d="M76.8,105.03c-2.57.38-4.69,1.44-5.65,3.8.88-2.73,3.01-3.57,5.65-3.8Z" class="cls-3"/><path d="M110.31,112.47v108.7c0,.15-.15.23-.22.23h-19.87c-.15,0-.22-.08-.22-.23v-108.7c0-.61.07-1.21.22-1.75-.07-.08,0-.15,0-.23.07-.38.22-.76.29-1.06.15-.3.29-.68.51-.91.07-.23.22-.46.37-.68.07-.08.15-.08.22-.15l.22-.23c.22-.3.59-.53.88-.76.44-.3,1.03-.61,1.61-.84.59-.23,1.17-.38,1.83-.53.51-.15,1.03-.23,1.61-.23l2.35-.15c.37,0,.81,0,1.17.08.44-.08.81,0,1.17.08.59,0,1.1.08,1.61.23.81.15,1.47.38,2.13.61.44.23.88.46,1.25.68.51.3.88.68,1.25,1.06.07.08.15.08.22.15.15.23.29.46.37.68.22.23.37.61.51.91.15.3.22.68.29,1.06,0,.08.07.15,0,.23.15.53.22,1.14.22,1.75Z" class="cls-3"/><path d="M87.65,112.47v108.7c0,.15-.07.23-.22.23h-1.1c.15,0,.22-.08.22-.23v-108.7c0-.61-.07-1.21-.15-1.75-.59-4.18-3.59-5.62-7.26-5.77h.51c.66,0,1.25,0,1.83.15,2.64.3,4.77,1.52,5.72,4.18.15.38.22.76.29,1.21v.23c.07.53.15,1.14.15,1.75Z" class="cls-3"/><path d="M87.21,109.28c-.95-2.66-3.08-3.87-5.72-4.18,2.71.23,4.91,1.14,5.72,4.18Z" class="cls-3"/><path d="M90.22,110.72c-.15.53-.22,1.14-.22,1.75v107.72h-2.35v-107.72c0-.61-.07-1.21-.15-1.75h2.71Z" class="cls-3"/><path d="M87.58,110.72h-.07v-.23c.07.08.07.15.07.23Z" class="cls-3"/><path d="M129.75,110.72c.07.53.15,1.14.15,1.75v107.72h.07v-107.72c0-.61,0-1.21.07-1.75h-.29Z" class="cls-3"/><path d="M113.84,112.47v108.7c0,.15.07.23.22.23h14.52c.15,0,.22-.08.22-.23v-108.7c0-.61-.07-1.21-.15-1.75-.66-4.18-3.59-5.62-7.33-5.77h-.07c-3.67.15-6.67,1.59-7.26,5.77-.07.53-.15,1.14-.15,1.75Z" class="cls-3"/><path d="M136.63,105.03c.15.08.29.15.44.23-.15-.08-.37-.15-.51-.23h.07Z" class="cls-3"/><path d="M138.54,106.77c-.44-.68-.88-1.21-1.39-1.52.59.3,1.1.76,1.39,1.52Z" class="cls-3"/><path d="M129.97,112.47v108.7c0,.15.15.23.22.23h1.83c-.15,0-.22-.08-.22-.23v-108.7c0-.61,0-1.21.07-1.75.29-4.4,1.91-5.77,3.81-5.77h-1.76c-.15,0-.29,0-.44.08-.15-.08-.29,0-.44.08h-.15c-.95.3-1.76,1.06-2.27,2.43-.22.38-.29.76-.37,1.29-.07.38-.15.76-.15,1.21-.07.23-.07.46-.07.68-.07.53-.07,1.14-.07,1.75Z" class="cls-3"/><path d="M130.63,107.53c.51-1.37,1.32-2.13,2.27-2.43-1.03.15-1.83.76-2.27,2.43Z" class="cls-3"/><path d="M139.71,105.03c-.44.23-.73.76-1.03,1.9,0-.08-.15-.15-.15-.15-.29-.76-.81-1.21-1.39-1.52h-.07c-.15-.08-.29-.15-.44-.23.66.08,1.25.38,1.83,1.21.07,0,.07.08.15.15.07-.08.07-.15.15-.23.22-.53.44-.91.73-1.06.07-.08.15-.08.22-.08Z" class="cls-3"/><path d="M128.79,221.17c0,.15-.07.23-.22.23h1.1c.15,0,.22-.08.22-.23v-108.7c0-.61-.07-1.21-.15-1.75,0-.23-.07-.53-.15-.76-.07-.38-.22-.76-.37-1.14-.95-2.35-3.08-3.42-5.65-3.8l-1.76-.08h-.51c3.74.15,6.67,1.59,7.33,5.77.07.53.15,1.14.15,1.75v108.7Z" class="cls-3"/><path d="M129.75,110.72c.07.53.15,1.14.15,1.75v107.72h.07v-107.72c0-.61,0-1.21.07-1.75h-.29Z" class="cls-3"/><path d="M123.59,105.03c2.57.38,4.69,1.44,5.65,3.8-.88-2.73-3.01-3.57-5.65-3.8Z" class="cls-3"/><path d="M112.74,112.47v108.7c0,.15.07.23.22.23h1.1c-.15,0-.22-.08-.22-.23v-108.7c0-.61.07-1.21.15-1.75.59-4.18,3.59-5.62,7.26-5.77h-.51c-.66,0-1.25,0-1.83.15-2.64.3-4.77,1.52-5.72,4.18-.15.38-.22.76-.29,1.21v.23c-.07.53-.15,1.14-.15,1.75Z" class="cls-3"/><path d="M113.18,109.28c.95-2.66,3.08-3.87,5.72-4.18-2.71.23-4.91,1.14-5.72,4.18Z" class="cls-3"/><path d="M110.17,110.72c.15.53.22,1.14.22,1.75v107.72h2.35v-107.72c0-.61.07-1.21.15-1.75h-2.71Z" class="cls-3"/><path d="M112.81,110.72h.07v-.23c-.07.08-.07.15-.07.23Z" class="cls-3"/><path d="M96.16,105.33c-3.01.61-5.28,2.13-5.94,5.16.66-3.42,2.93-4.78,5.94-5.16Z" class="cls-3"/><path d="M110.09,110.49c-.66-3.04-2.93-4.55-6.01-5.16,3.08.38,5.35,1.75,6.01,5.16Z" class="cls-3"/><path d="M139.64,112.47v108.7c0,.15-.15.23-.22.23h-7.48c-.07,0-.15-.08-.15-.23v-108.7c0-.61,0-1.21.07-1.75.15-2.73.88-4.33,1.83-5.09.51-.53,1.17-.68,1.91-.68h.15c.29,0,.51,0,.73.08h.07c.15.08.37.15.51.23h.07c.51.3.95.83,1.39,1.52,0,0,.15.08.15.15.44.83.73,2.13.88,3.8.07.53.07,1.14.07,1.75Z" class="cls-3"/><path d="M131.79,221.17c0,.15.07.23.15.23-.15,0-.22-.08-.22-.23v-108.7c0-.61,0-1.21.07-1.75.22-2.81.88-4.4,1.91-5.09-.95.76-1.69,2.35-1.83,5.09-.07.53-.07,1.14-.07,1.75v108.7Z" class="cls-3"/><path d="M140.52,112.47v108.7c0,.15.07.23.22.23h-1.32c.07,0,.22-.08.22-.23v-108.7c0-.61,0-1.21-.07-1.75-.15-1.67-.44-2.96-.88-3.8,0-.08-.15-.15-.15-.15.07-.23.15-.38.22-.61.22-.53.44-.91.73-1.06v-.08h.07c.07,0,.07-.08.15,0,.07-.08.15-.08.22-.08h2.42c-.88,0-1.69,1.37-1.76,5.77-.07.53-.07,1.14-.07,1.75Z" class="cls-3"/><path d="M139.49,105.03v.08c-.29.15-.51.53-.73,1.06-.07.23-.15.38-.22.61-.44-.68-.88-1.21-1.39-1.52h-.07c-.15-.08-.37-.15-.51-.23h.07c.66.08,1.25.38,1.83,1.21.51-.91.73-1.21,1.03-1.21Z" class="cls-3"/><path d="M139.93,104.95c-.15,0-.22,0-.37.08,0,0,.07-.08.15-.08h.22Z" class="cls-3"/><rect height="215.36" width="17.23" y="69.8" x="147.26" class="cls-3"/><rect height="215.36" width="17.16" y="69.8" x="35.81" class="cls-3"/><rect height="1.97" width="128.68" y="67.83" x="35.81" class="cls-3"/><path d="M478.24,250.2h5.09c5.93,0,10.73-4.82,10.73-10.76s-4.81-10.76-10.73-10.76h-5.5c-3.26-.16-6.05-2.14-7.36-4.95-6.45-17.71-23.38-30.02-42.85-30.02s-36.56,12.39-42.95,30.31c-1.31,2.56-3.86,4.38-6.86,4.66h-5.89c-5.93,0-10.73,4.82-10.73,10.76s4.81,10.76,10.73,10.76h5.51c3.72.18,6.81,2.73,7.82,6.17,6.8,17.13,23.44,28.8,42.38,28.8s35.7-11.94,42.4-28.83c1.05-3.56,4.34-6.15,8.23-6.15.2,0,.4,0-.01.02" class="cls-3"/><path d="M371.91,238.79c-.36,0-.64.29-.64.65s.29.65.64.65.64-.29.64-.65-.29-.65-.64-.65" class="cls-3"/><path d="M483.32,238.79c-.36,0-.64.29-.64.65s.29.65.64.65.64-.29.64-.65-.29-.65-.64-.65" class="cls-3"/><path d="M222.96,112.62v108.63c0,.08-.08.23-.23.23h-1.82c.15,0,.23-.15.23-.23v-108.63c0-.68,0-1.29-.08-1.82h1.82c.08.53.08,1.14.08,1.82Z" class="cls-3"/><path d="M213.32,110.8c-.08.53-.08,1.14-.08,1.82v108.83h-.91v-108.83c0-.68,0-1.29-.08-1.82h1.06Z" class="cls-3"/><path d="M223.19,110.8c-.08.53-.15,1.14-.15,1.82v107.64h-.08v-107.64c0-.68,0-1.29-.08-1.82h.3Z" class="cls-3"/><path d="M242.85,110.8c-.15.53-.23,1.14-.23,1.82v107.64h-2.35v-107.64c0-.68-.08-1.29-.15-1.82h2.73Z" class="cls-3"/><path d="M266.38,112.62v108.79c0,.08,14.69.06,14.76.06h-15.75c-.08,0-.23-.15-.23-.23v-108.63c0-.68.08-1.29.15-1.82l.46-1.82c.99-2.35,2.96-3.42,5.39-3.8h.23l1.44-.08c-3.19.38-5.69,1.9-6.3,5.69-.08.53-.15,1.14-.15,1.82Z" class="cls-3"/><path d="M265.32,110.8c-.08.53-.15,1.14-.15,1.82v107.64h-2.2v-107.64c0-.68-.08-1.29-.23-1.82h2.58Z" class="cls-3"/><path d="M292.34,112.62v108.63c0,.08-.15.23-.23.23h-7.44c-.15,0-.23-.15-.23-.23v-108.63c0-.68,0-1.29.08-1.82.3-4.4,1.9-5.77,3.87-5.77h.15c.3,0,.53.08.76.08.23.08.46.08.61.23.53.3,1.06.91,1.44,1.67.46.91.76,2.13.91,3.8.08.53.08,1.14.08,1.82Z" class="cls-3"/><path d="M222.88,110.8h-1.82c-.3-4.4-2.73-5.69-4.71-5.69l2.66-.08c.15,0,.38,0,.53.08.15-.08.3,0,.46.08.15,0,.38.08.53.23.3.08.53.23.68.46.61.61,1.14,1.59,1.44,3.11.08.38.15.83.15,1.37.08.15.08.3.08.46Z" class="cls-3"/><path d="M213.24,221.25c0,.08.15.23.23.23h-1.37c.08,0,.23-.15.23-.23v-108.63c0-.68,0-1.29-.08-1.82-.15-4.4-.91-5.77-1.82-5.77h2.43c.15,0,.3,0,.38.08s.15.15.3.23c.23.3.53.91.68,1.75-.46.91-.76,2.13-.91,3.72-.08.53-.08,1.14-.08,1.82v108.63Z" class="cls-3"/><path d="M224.17,221.25c0,.08.08.23.23.23h-1.14c-.08,0-.23-.15-.23-.23v-108.63c0-.68.08-1.29.15-1.82l.46-1.82c.99-2.35,2.96-3.42,5.39-3.8h.23l1.37-.08c-3.26.38-5.77,1.9-6.3,5.69-.08.53-.15,1.14-.15,1.82v108.63Z" class="cls-3"/><path d="M273.89,105.03c-.38,0-.68.08-1.06.08l.46-.08h.61Z" class="cls-3"/><path d="M296.97,112.62v108.63c0,.08-.08.23-.23.23h-3.19c-.15,0-.23-.15-.23-.23v-108.63c0-.68,0-1.29.08-1.82.08-4.4.83-5.77,1.75-5.77.99,0,1.82,1.75,1.82,7.59Z" class="cls-3"/><path d="M295.15,105.03c-.91,0-1.67,1.37-1.75,5.77h-1.14c-.15-1.67-.46-2.88-.91-3.8.23-1.14.61-1.67.99-1.9.15-.08.23-.08.38-.08h2.43Z" class="cls-3"/><path d="M262.96,112.62v108.63c0,.08-.08.23-.23.23h-19.89c-.15,0-.23-.15-.23-.23v-108.63c0-.68.08-1.29.23-1.82v-.15c.23-.99.61-1.82,1.21-2.5,1.29-1.82,3.57-2.73,6.38-2.96l2.35-.15c.83,0,1.59,0,2.35.15,2.58.23,4.78.99,6.15,2.58.68.76,1.21,1.67,1.44,2.88v.15c.15.53.23,1.14.23,1.82Z" class="cls-4"/><path d="M239.2,112.62v108.63c0,.08-.08.23-.23.23h-14.57c-.15,0-.23-.15-.23-.23v-108.63c0-.68.08-1.29.15-1.82.53-3.8,3.04-5.31,6.3-5.69.3,0,.68-.08,1.06-.08,3.64.15,6.68,1.59,7.36,5.77.08.53.15,1.14.15,1.82Z" class="cls-4"/><path d="M212.33,112.62v108.63c0,.08-.15.23-.23.23h-3.26c-.08,0-.23-.15-.23-.23v-108.63c0-5.84.83-7.59,1.82-7.59.91,0,1.67,1.37,1.82,5.77.08.53.08,1.14.08,1.82Z" class="cls-4"/><path d="M216.35,105.1c-.84.23-1.59.83-2.13,1.97-.46.91-.76,2.13-.91,3.72-.08.53-.08,1.14-.08,1.82v108.63c0,.08.15.23.23.23h-1.37c.08,0,.23-.15.23-.23v-108.63c0-.68,0-1.29-.08-1.82-.15-4.4-.91-5.77-1.82-5.77h2.43c.15,0,.3,0,.38.08s.15.15.3.23c.15.15.38.53.76,1.14.91-1.14,1.37-1.37,2.05-1.37Z" class="cls-4"/><path d="M223.19,110.8c-.08.53-.15,1.14-.15,1.82v107.64h-.08v-107.64c0-.68,0-1.29-.08-1.82h.3Z" class="cls-2"/><path d="M240.27,112.62v108.86h-1.06v-108.86c0-.68-.08-1.29-.15-1.82-.68-4.18-3.72-5.62-7.36-5.77h.53c.61,0,1.21,0,1.75.08,2.58.3,4.71,1.44,5.69,3.87.15.46.3,1.06.46,1.67v.15c.08.53.15,1.14.15,1.82Z" class="cls-4"/><path d="M240.27,220.26v.99c0,.08-.08.23-.23.23h-1.06c.15,0,.23-.15.23-.23" class="cls-2"/><path d="M242.85,110.8c-.15.53-.23,1.14-.23,1.82v107.64h-2.35v-107.64c0-.68-.08-1.29-.15-1.82v-.15q.08.08.08.15h2.66Z" class="cls-2"/><path d="M273.89,105.03c-.38,0-.68.08-1.06.08l.46-.08h.61Z" class="cls-2"/><path d="M265.32,110.8c-.08.53-.15,1.14-.15,1.82v107.64h-2.2v-107.64c0-.68-.08-1.29-.23-1.82h2.58Z" class="cls-2"/><path d="M292.34,112.62c0-.68,0-1.29-.08-1.82h1.14c-.08.53-.08,1.14-.08,1.82v108.63c0,.08.08.23.23.23h-1.44c.08,0,.23-.15.23-.23v-108.63Z" class="cls-3"/><path d="M284.45,221.25c0,.08.08.23.23.23h-1.75c-.15,0-.23-.15-.23-.23v-108.63c0-.68,0-1.29.08-1.82.08-.68.15-1.29.23-1.82.3-1.52.83-2.51,1.44-3.11.23-.15.46-.38.68-.46.15-.15.38-.23.53-.23l.99-.15h1.75c-1.97,0-3.57,1.37-3.87,5.77-.08.53-.08,1.14-.08,1.82v108.63Z" class="cls-4"/><path d="M261.29,69.96v37.8c-1.37-1.59-3.57-2.35-6.15-2.58-.76-.15-1.52-.15-2.35-.15l-2.35.15c-2.81.23-5.09,1.14-6.38,2.96v-38.18h17.23Z" class="cls-3"/><rect height="63.69" width="17.23" y="221.48" x="244.06" class="cls-3"/><path d="M261.29,69.96v37.8c-1.37-1.59-3.57-2.35-6.15-2.58-.76-.15-1.52-.15-2.35-.15l-2.35.15c-2.81.23-5.09,1.14-6.38,2.96v-38.18h17.23Z" class="cls-2"/><rect height="63.69" width="17.23" y="221.48" x="244.06" class="cls-2"/><rect height="1.98" width="91.45" y="67.82" x="206.94" class="cls-3"/><line y2="221.48" x2="220.91" y1="221.48" x1="213.47" class="cls-3"/><path d="M282.55,112.62v108.63c0,.08-.08.23-.23.23h-1.21c.15,0,.23-.15.23-.23v-108.63c0-.68-.08-1.29-.15-1.82-.61-4.18-3.64-5.62-7.29-5.77h.61c.3,0,.61,0,.91.08h.3c.15,0,.38,0,.61.08h.23c2.43.38,4.4,1.44,5.39,3.8.23.53.38,1.14.46,1.82.08.53.15,1.14.15,1.82Z" class="cls-4"/><line y2="285.02" x2="11.39" y1="67.17" x1="11.39" class="cls-3"/><rect height=".3" width="1.95" y="67.02" x="10.42" class="cls-5"/><rect height=".3" width="1.95" y="284.86" x="10.42" class="cls-5"/><path d="M3.01,188.54h5.29v.72H3.76l.64,1.3h-.73l-.67-1.36v-.67Z"/><path d="M3.16,184.83c.13-.25.32-.47.55-.65.23-.18.52-.32.85-.42.33-.1.69-.15,1.08-.15s.76.05,1.1.15.62.24.86.42c.24.18.43.4.56.65.13.25.2.52.2.83s-.07.57-.2.82-.32.47-.56.65c-.24.18-.53.32-.86.42-.33.1-.7.15-1.1.15s-.75-.05-1.08-.15c-.33-.1-.61-.24-.85-.42-.24-.18-.42-.4-.55-.65-.13-.25-.2-.53-.2-.83s.07-.58.2-.83ZM3.79,186.19c.1.16.23.29.41.41.18.11.38.2.63.27.24.07.51.1.81.1s.57-.03.82-.09c.25-.06.46-.15.64-.27.18-.12.32-.25.42-.41.1-.16.15-.33.15-.52s-.05-.37-.15-.53c-.1-.16-.24-.3-.42-.41-.18-.11-.39-.2-.64-.27-.25-.06-.52-.09-.82-.09s-.56.03-.81.09c-.25.06-.46.15-.63.26-.17.11-.31.25-.41.41-.1.16-.15.34-.15.53s.05.37.15.52Z"/><path d="M3.01,181.07h5.29v.72H3.76l.64,1.3h-.73l-.67-1.36v-.67Z"/><path d="M3.16,177.36c.13-.25.32-.47.55-.65.23-.18.52-.32.85-.42.33-.1.69-.15,1.08-.15s.76.05,1.1.15.62.24.86.42c.24.18.43.4.56.65.13.25.2.52.2.83s-.07.57-.2.82-.32.47-.56.65c-.24.18-.53.32-.86.42-.33.1-.7.15-1.1.15s-.75-.05-1.08-.15c-.33-.1-.61-.24-.85-.42-.24-.18-.42-.4-.55-.65-.13-.25-.2-.53-.2-.83s.07-.58.2-.83ZM3.79,178.72c.1.16.23.29.41.41.18.11.38.2.63.27.24.07.51.1.81.1s.57-.03.82-.09c.25-.06.46-.15.64-.27.18-.12.32-.25.42-.41.1-.16.15-.33.15-.52s-.05-.37-.15-.53c-.1-.16-.24-.3-.42-.41-.18-.11-.39-.2-.64-.27-.25-.06-.52-.09-.82-.09s-.56.03-.81.09c-.25.06-.46.15-.63.26-.17.11-.31.25-.41.41-.1.16-.15.34-.15.53s.05.37.15.52Z"/><path d="M4.66,172.54h.67c-.24-.11-.42-.26-.54-.45-.12-.18-.18-.4-.18-.63,0-.26.07-.48.2-.67.14-.19.33-.32.59-.41-.26-.11-.45-.27-.59-.46-.14-.2-.2-.43-.2-.7,0-.38.12-.67.37-.88.25-.21.61-.31,1.07-.31h2.25v.7h-2.16c-.29,0-.52.07-.69.2-.17.13-.25.31-.25.54,0,.12.02.22.07.32.05.1.11.18.2.26.09.07.19.13.32.16.12.04.26.06.4.06h2.11v.7h-2.16c-.14,0-.27.02-.38.06-.12.04-.22.09-.3.15-.08.06-.14.14-.19.23-.04.09-.07.2-.07.31s.02.22.07.32c.05.1.12.18.21.25.09.07.2.12.32.17.12.04.26.06.41.06h2.09v.7h-3.64v-.68Z"/><path d="M4.66,166.35h.67c-.24-.11-.42-.26-.54-.45-.12-.18-.18-.4-.18-.63,0-.26.07-.48.2-.67.14-.19.33-.32.59-.41-.26-.11-.45-.27-.59-.46-.14-.2-.2-.43-.2-.7,0-.38.12-.67.37-.88.25-.21.61-.31,1.07-.31h2.25v.7h-2.16c-.29,0-.52.07-.69.2-.17.13-.25.31-.25.54,0,.12.02.22.07.32.05.1.11.18.2.26.09.07.19.13.32.16.12.04.26.06.4.06h2.11v.7h-2.16c-.14,0-.27.02-.38.06-.12.04-.22.09-.3.15-.08.06-.14.14-.19.23-.04.09-.07.2-.07.31s.02.22.07.32c.05.1.12.18.21.25.09.07.2.12.32.17.12.04.26.06.41.06h2.09v.7h-3.64v-.68Z"/><line y2="171.07" x2="361.33" y1="171.07" x1="493.9" class="cls-3"/><rect height="1.95" width=".3" y="170.1" x="493.75" class="cls-5"/><rect height="1.95" width=".3" y="170.1" x="361.18" class="cls-5"/><path d="M413.52,167.85c-.24-.12-.44-.29-.61-.51-.17-.22-.3-.5-.39-.82s-.14-.69-.14-1.09.05-.8.15-1.15c.1-.35.24-.64.43-.89.18-.25.41-.43.67-.56.26-.13.55-.2.88-.2.37,0,.7.09.97.27s.47.43.59.76l-.64.29c-.07-.21-.18-.37-.34-.48-.16-.11-.35-.17-.56-.17-.2,0-.38.05-.55.14-.17.09-.31.23-.44.4-.13.17-.22.37-.29.61-.07.24-.1.49-.1.77v.17c0,.06,0,.1,0,.15.08-.25.23-.45.45-.59.22-.14.48-.21.79-.21.24,0,.46.04.65.12s.36.19.5.34.25.32.33.52c.08.2.12.42.12.66s-.04.47-.13.68c-.08.21-.2.38-.35.53-.15.14-.32.26-.53.34-.21.08-.43.12-.68.12-.3,0-.57-.06-.81-.18ZM414.69,167.28c.12-.05.22-.12.3-.21.08-.09.15-.19.2-.32.05-.12.07-.26.07-.41s-.02-.29-.07-.41c-.05-.12-.12-.23-.2-.32s-.19-.16-.31-.21-.25-.07-.4-.07-.27.03-.39.07-.22.12-.31.2c-.09.09-.15.19-.2.31s-.07.25-.07.4.03.28.08.41c.05.13.12.24.21.34s.2.17.32.22c.12.05.26.08.4.08s.26-.03.38-.08Z"/><path d="M418.62,162.69v5.29h-.72v-4.54l-1.3.64v-.73l1.36-.67h.67Z"/><path d="M421.99,162.81c.24.12.44.29.61.51.17.22.3.5.39.82.09.33.14.69.14,1.09s-.05.8-.15,1.15c-.1.35-.24.64-.43.89s-.41.43-.67.56c-.26.13-.55.2-.88.2-.37,0-.7-.09-.97-.27-.27-.18-.47-.43-.59-.76l.64-.29c.07.21.18.37.34.48.16.11.35.17.56.17.2,0,.38-.05.55-.14.17-.09.31-.22.44-.4.13-.17.22-.37.29-.61s.1-.49.1-.77v-.17c0-.06,0-.11,0-.15-.08.25-.23.45-.45.59s-.48.21-.79.21c-.24,0-.46-.04-.65-.12-.2-.08-.36-.19-.5-.34-.14-.14-.25-.32-.33-.52-.08-.2-.12-.42-.12-.66s.04-.47.13-.68c.08-.21.2-.38.35-.52.15-.14.32-.26.53-.34s.43-.12.68-.12c.3,0,.57.06.81.18ZM420.82,163.38c-.12.05-.22.12-.3.21-.08.09-.15.19-.2.31-.05.12-.07.26-.07.41s.02.29.07.41c.05.12.12.23.2.32s.19.16.31.21.25.07.4.07.27-.02.39-.07c.12-.05.22-.12.31-.2s.15-.19.2-.31c.05-.12.07-.25.07-.4s-.03-.28-.08-.41c-.05-.13-.13-.24-.21-.34-.09-.1-.2-.17-.32-.22-.12-.05-.26-.08-.4-.08s-.26.03-.38.08Z"/><path d="M426.75,164.34v.67c.11-.24.26-.42.45-.54.18-.12.4-.18.63-.18.26,0,.48.07.67.2s.32.33.41.59c.11-.26.27-.45.46-.59s.43-.2.7-.2c.38,0,.67.12.88.38.21.25.31.61.31,1.07v2.25h-.7v-2.16c0-.29-.07-.52-.2-.69-.13-.17-.31-.25-.54-.25-.12,0-.22.02-.32.07s-.18.11-.26.2-.13.19-.16.32c-.04.12-.06.26-.06.4v2.11h-.7v-2.16c0-.14-.02-.27-.06-.38-.04-.12-.09-.22-.15-.3s-.14-.14-.23-.19c-.09-.04-.2-.07-.31-.07s-.22.02-.32.07-.18.12-.25.21c-.07.09-.12.2-.17.32-.04.12-.06.26-.06.41v2.09h-.7v-3.64h.68Z"/><path d="M432.94,164.34v.67c.11-.24.26-.42.45-.54.18-.12.4-.18.63-.18.26,0,.48.07.67.2s.32.33.41.59c.11-.26.27-.45.46-.59s.43-.2.7-.2c.38,0,.67.12.88.38.21.25.31.61.31,1.07v2.25h-.7v-2.16c0-.29-.07-.52-.2-.69-.13-.17-.31-.25-.54-.25-.12,0-.22.02-.32.07s-.18.11-.26.2-.13.19-.16.32c-.04.12-.06.26-.06.4v2.11h-.7v-2.16c0-.14-.02-.27-.06-.38-.04-.12-.09-.22-.15-.3s-.14-.14-.23-.19c-.09-.04-.2-.07-.31-.07s-.22.02-.32.07-.18.12-.25.21c-.07.09-.12.2-.17.32-.04.12-.06.26-.06.41v2.09h-.7v-3.64h.68Z"/><line y2="285.02" x2="341.71" y1="193.86" x1="341.71" class="cls-3"/><rect height=".3" width="1.95" y="193.71" x="340.73" class="cls-5"/><rect height=".3" width="1.95" y="284.86" x="340.73" class="cls-5"/><path d="M333.33,249.47h5.29v.73h-4.36s.08.04.1.06c.03.02.06.04.09.07l2.02,1.35s.06.04.08.05.05.03.08.06v-3.2h.64v3.98h-.59l-3.35-2.22v-.87Z"/><path d="M333.39,245.95c.08-.21.19-.39.33-.54.14-.15.31-.27.51-.35.2-.08.42-.13.67-.13.14,0,.28.02.42.05.14.03.28.08.41.15.14.07.27.16.42.27.14.11.29.24.45.39l1.35,1.31v-2.29h.67v3.32h-.59l-1.85-1.79c-.12-.12-.23-.22-.33-.3-.1-.08-.21-.15-.3-.2-.1-.05-.19-.09-.29-.11-.09-.02-.19-.03-.29-.03-.15,0-.28.02-.4.07-.12.04-.23.11-.32.2-.09.09-.16.19-.21.3-.05.11-.07.24-.07.39,0,.25.08.47.23.65.15.18.36.31.63.39l-.23.67c-.42-.12-.74-.32-.97-.62s-.34-.66-.34-1.1c0-.25.04-.48.12-.69Z"/><path d="M333.33,241.16h.65v1.92l1.54.25c-.09-.1-.16-.22-.21-.36-.05-.14-.07-.29-.07-.46,0-.25.04-.47.13-.68.08-.21.2-.38.35-.53.15-.15.33-.27.54-.35.21-.08.44-.12.69-.12s.48.04.7.13c.21.09.4.21.55.36.15.16.27.34.36.56.08.21.13.45.13.71,0,.2-.03.39-.08.58s-.13.35-.23.5c-.1.15-.22.28-.36.39-.14.11-.3.19-.48.24l-.31-.63c.24-.07.43-.19.56-.39.14-.19.21-.42.21-.67,0-.15-.03-.29-.08-.41-.05-.13-.12-.23-.21-.33-.09-.09-.2-.16-.33-.21-.13-.05-.27-.08-.43-.08s-.3.03-.44.08c-.13.05-.25.13-.34.22s-.17.21-.22.34c-.05.13-.08.28-.08.44,0,.18.04.35.1.49.07.14.17.26.31.36l-.15.62-2.79-.47v-2.52Z"/><path d="M334.97,237.23h.67c-.24-.11-.42-.26-.54-.45-.12-.18-.18-.4-.18-.63,0-.26.07-.48.2-.67.14-.19.33-.32.59-.41-.26-.11-.45-.27-.59-.46-.14-.2-.2-.43-.2-.7,0-.38.12-.67.37-.88.25-.21.61-.31,1.07-.31h2.25v.7h-2.16c-.29,0-.52.07-.69.2-.17.13-.25.31-.25.54,0,.12.02.22.07.32.05.1.11.18.2.26.09.07.19.13.32.16.12.04.26.06.4.06h2.11v.7h-2.16c-.14,0-.27.02-.38.06-.12.04-.22.09-.3.15-.08.06-.14.14-.19.23-.04.09-.07.2-.07.31s.02.22.07.32c.05.1.12.18.21.25.09.07.2.12.32.17.12.04.26.06.41.06h2.09v.7h-3.64v-.68Z"/><path d="M334.97,231.05h.67c-.24-.11-.42-.26-.54-.45-.12-.18-.18-.4-.18-.63,0-.26.07-.48.2-.67.14-.19.33-.32.59-.41-.26-.11-.45-.27-.59-.46-.14-.2-.2-.43-.2-.7,0-.38.12-.67.37-.88.25-.21.61-.31,1.07-.31h2.25v.7h-2.16c-.29,0-.52.07-.69.2-.17.13-.25.31-.25.54,0,.12.02.22.07.32.05.1.11.18.2.26.09.07.19.13.32.16.12.04.26.06.4.06h2.11v.7h-2.16c-.14,0-.27.02-.38.06-.12.04-.22.09-.3.15-.08.06-.14.14-.19.23-.04.09-.07.2-.07.31s.02.22.07.32c.05.1.12.18.21.25.09.07.2.12.32.17.12.04.26.06.41.06h2.09v.7h-3.64v-.68Z"/></g></g></g></g></svg>