<svg viewBox="0 0 531.27 288" xmlns:xlink="http://www.w3.org/1999/xlink" xmlns="http://www.w3.org/2000/svg" id="Camada_2"><defs><style>.cls-1,.cls-2{fill:none;}.cls-3{fill:#12100c;}.cls-2{stroke:#12100c;stroke-linecap:round;stroke-linejoin:round;stroke-width:.3px;}</style><symbol viewBox="0 0 531.27 288" id="fundo_transparente"><rect height="288" width="531.27" x="0" class="cls-1"/></symbol></defs><g id="RePlastic"><g id="banco_Bambinelli_Kids"><use xlink:href="#fundo_transparente" height="288" width="531.27"/><path d="M361.01,272.63c-2.61-.01-6.32-.08-10.49.34-10.33,1.05-11.32,1.28-20.06,3.67-.27.07-.55.13-.82.17-1.96.27-10.18,1.32-14.33.38-1.05-.24-1.89-.86-1.88-1.91l.04-3.08c0-.85.52-1.8,1.2-1.94,0,0,3.88-.28,5.02-.42.66-.08,2.66-.87,3.86-3.19.12-.23,1.44-2.91.72-4.97-.55-1.56-3.63-6.37-5.04-10.37-.22-.59-.42-1.17-.6-1.87-1.41-4.74-2.9-31.04,13.33-53.75,2-2.8,4.05-5.76,6.66-8,2.32-1.99,3.43-3.01,6.09-4.51,2.25-1.27,4.61-2.37,7.02-3.29,1.66-.63,3.9-1.11,6.03-1.41,2.17-.3,4.37-.3,6.54,0,2.11.29,4.33.77,5.99,1.4,2.42.92,4.77,2.02,7.02,3.29,2.66,1.5,3.77,2.52,6.09,4.51,2.61,2.24,4.66,5.2,6.66,8,16.23,22.71,14.74,49.02,13.33,53.75-.18.7-.38,1.28-.6,1.87-1.42,4.01-4.5,8.81-5.04,10.37-.72,2.06.6,4.73.72,4.97,1.2,2.32,3.2,3.11,3.86,3.19,1.15.14,5.02.42,5.02.42.68.14,1.19,1.09,1.2,1.94l.04,3.08c0,1.05-.83,1.67-1.88,1.91-4.15.94-12.37-.11-14.33-.38-.28-.04-.55-.1-.82-.17-8.74-2.39-9.73-2.62-20.06-3.67-4.16-.42-7.88-.36-10.49-.34" class="cls-2"/><path d="M361.1,277.58c-2.85-.01-6.26-.02-10.64.42-11.43,1.14-12.8,1.9-22.72,4.64,0,0-1.79.2-19.77.21v-15.32l8.24.06c.91,0,1.82-.24,2.56-.78.29-.22.57-.49.81-.83.16-.24.81-1.15.35-2.96-.45-1.76-3.21-4.55-4.76-8.94-.24-.65-.46-1.28-.66-2.05-2.67-10.4-1.03-22.69,1.54-32.89,4.07-16.14,12.69-31.5,27.21-40.16,4.89-2.92,10.37-4.99,16.08-5.34,8.98-.55,17.69,3.6,24.71,8.95,7.13,5.43,12.32,12.76,16.24,20.79,3.49,7.15,5.87,14.84,7.18,22.7.99,5.94,1.41,12.01,1.12,18.04-.13,2.61-.28,5.38-1.02,7.9-.2.77-.42,1.4-.66,2.05-1.54,4.4-4.31,7.18-4.76,8.94-.46,1.81.18,2.72.35,2.96.32.46.7.78,1.1,1.02.67.41,1.46.59,2.25.59l8.26-.06v15.32c-17.98,0-19.77-.21-19.77-.21-9.93-2.73-11.3-3.5-22.72-4.64-4.39-.44-7.65-.43-10.5-.42" class="cls-2"/><ellipse ry="7.62" rx="10.79" cy="234.28" cx="361.06" class="cls-2"/><path d="M361.22,265.52h0c-6.73.58-16.37-6.87-18.25-12.91h0c0-1.46.86-2.33,2.3-2.15,4.01.49,10.97,2.71,15.96,2.65,6.44-.08,11.52-2.04,15.38-2.56,1.44-.2,2.54.61,2.54,2.07h0c-1.52,6.42-10.87,13.04-17.92,12.91Z" class="cls-2"/><ellipse ry="2.97" rx="2.82" cy="213.06" cx="345.55" class="cls-2"/><path d="M340.77,219.72c-.1-.02-.19-.07-.25-.15-2.51-3.09-2.43-5.98-2.4-6.67.21-4.95,3.11-8.76,7.4-8.76,4.25,0,7.26,4.7,7.46,8.76.02.49,0,5.36-4.06,8.25-.16.11-.37.15-.56.12-.91-.44-2.16-.94-3.69-1.25-1.54-.32-2.89-.35-3.91-.3Z" class="cls-2"/><ellipse ry="2.97" rx="2.82" cy="213.06" cx="376.57" class="cls-2"/><path d="M381.28,219.72c.1-.02.19-.07.25-.15,2.51-3.09,2.43-5.98,2.4-6.67-.21-4.95-3.11-8.76-7.4-8.76-4.25,0-7.26,4.7-7.46,8.76-.02.49,0,5.36,4.06,8.25.16.11.37.15.56.12.91-.44,2.16-.94,3.69-1.25,1.54-.32,2.89-.35,3.91-.3Z" class="cls-2"/><path d="M12.34,91.4c-.11.23-.28.43-.5.59-.22.16-.48.29-.79.38s-.66.13-1.05.13-.77-.05-1.11-.15c-.33-.1-.62-.23-.85-.41-.24-.18-.42-.39-.54-.65s-.19-.53-.19-.85c0-.36.09-.67.26-.94s.42-.45.74-.57l.28.62c-.2.06-.36.17-.47.32-.11.15-.16.33-.16.54,0,.19.04.37.13.53.09.16.22.3.38.42.16.12.36.21.59.28.23.06.47.09.74.09h.17c.05,0,.1,0,.14,0-.24-.08-.43-.22-.57-.43-.14-.21-.21-.47-.21-.76,0-.23.04-.44.11-.63s.18-.35.32-.49c.14-.14.31-.24.5-.32s.4-.12.63-.12.46.04.65.12c.2.08.37.19.51.33s.25.31.33.51c.08.2.12.42.12.65,0,.29-.06.55-.17.78ZM11.79,90.27c-.05-.11-.12-.21-.2-.29-.08-.08-.18-.14-.3-.19s-.25-.07-.4-.07-.28.02-.4.07-.22.11-.31.2c-.09.08-.16.18-.2.3s-.07.25-.07.39.02.26.07.38c.05.12.11.21.2.3.08.08.18.15.3.2.11.05.24.07.38.07s.27-.03.4-.08c.12-.05.23-.12.32-.21.09-.09.16-.19.21-.31.05-.12.07-.25.07-.38s-.02-.25-.07-.37Z"/><path d="M12.41,87.4c-.07.21-.17.39-.3.54s-.28.27-.46.35c-.18.09-.37.13-.57.13-.15,0-.3-.02-.44-.07-.14-.04-.27-.11-.38-.2-.11-.09-.21-.19-.29-.3-.08-.12-.14-.24-.18-.38-.05.13-.11.25-.19.35s-.16.18-.26.26c-.1.07-.21.13-.32.16-.11.04-.24.05-.37.05-.2,0-.38-.04-.54-.12-.16-.08-.3-.19-.43-.33s-.21-.31-.28-.5-.1-.41-.1-.63.03-.44.1-.63c.07-.19.16-.36.28-.5s.26-.25.42-.33c.16-.08.35-.12.55-.12.13,0,.25.02.37.06.12.04.23.09.33.17.1.07.19.16.26.26.07.1.13.21.18.33.04-.14.09-.27.18-.38.08-.11.18-.21.3-.29.12-.08.25-.15.38-.19s.28-.07.43-.07c.21,0,.4.04.57.13.18.09.33.2.46.35s.23.33.3.54.1.44.1.69-.04.48-.1.69ZM8.01,87.05c.04.11.09.2.16.27.07.07.15.13.25.18.1.04.2.06.32.06.11,0,.21-.02.31-.06.1-.04.18-.1.25-.18.07-.08.12-.17.16-.27.04-.11.06-.22.06-.34s-.02-.24-.06-.34c-.04-.1-.09-.19-.16-.27-.07-.08-.15-.14-.25-.18-.1-.04-.2-.06-.31-.06-.12,0-.22.02-.32.06-.1.04-.18.1-.25.18-.07.08-.12.17-.16.27-.04.1-.06.22-.06.35s.02.24.06.34ZM11.8,86.31c-.04-.12-.1-.23-.18-.31-.08-.09-.17-.15-.28-.2-.11-.05-.23-.07-.36-.07s-.25.02-.36.07-.2.12-.28.21-.14.19-.19.31c-.04.12-.07.25-.07.4s.02.27.06.39.1.23.19.31.18.16.29.2.23.07.35.07c.13,0,.26-.02.37-.07.11-.05.2-.12.28-.2.08-.09.14-.19.18-.31s.06-.25.06-.4-.02-.28-.06-.4Z"/><path d="M7.5,81.7c.13-.24.31-.45.53-.62.23-.17.5-.31.82-.41.32-.1.67-.15,1.05-.15s.73.05,1.06.15c.32.1.6.23.83.41.23.18.41.38.54.62.13.24.19.5.19.8s-.06.55-.19.79c-.13.25-.31.46-.54.63-.23.17-.51.31-.83.41-.32.1-.67.15-1.06.15s-.73-.05-1.05-.15c-.32-.1-.59-.23-.82-.41-.23-.17-.4-.38-.53-.62s-.19-.51-.19-.8.06-.56.19-.8ZM8.11,83c.09.15.23.28.4.39.17.11.37.2.6.26.23.06.49.09.78.09s.55-.03.79-.09c.24-.06.45-.15.62-.26s.31-.25.4-.4c.1-.15.15-.32.15-.5s-.05-.35-.15-.51c-.1-.15-.23-.29-.4-.4-.17-.11-.38-.2-.62-.26-.24-.06-.5-.09-.79-.09s-.54.03-.78.09-.44.15-.61.25c-.17.11-.3.24-.4.4-.09.16-.14.33-.14.51s.05.35.14.5Z"/><path d="M8.95,77.04h.64c-.23-.11-.4-.25-.52-.43-.12-.18-.18-.38-.18-.61,0-.25.07-.46.2-.64.13-.18.32-.31.57-.39-.25-.11-.44-.26-.57-.45-.13-.19-.2-.42-.2-.68,0-.37.12-.65.36-.85s.58-.3,1.03-.3h2.17v.68h-2.09c-.28,0-.5.06-.66.19-.16.13-.24.3-.24.52,0,.11.02.22.07.31.04.09.11.18.2.25s.19.12.31.16c.12.04.25.05.39.05h2.03v.68h-2.09c-.13,0-.26.02-.37.05-.11.04-.21.08-.29.15s-.14.14-.18.22c-.04.09-.06.19-.06.3s.02.21.07.3c.04.09.11.18.2.24.09.07.19.12.31.16.12.04.25.06.4.06h2.02v.68h-3.51v-.66Z"/><path d="M8.95,71.07h.64c-.23-.11-.4-.25-.52-.43-.12-.18-.18-.38-.18-.61,0-.25.07-.46.2-.64.13-.18.32-.31.57-.39-.25-.11-.44-.26-.57-.45-.13-.19-.2-.42-.2-.68,0-.37.12-.65.36-.85s.58-.3,1.03-.3h2.17v.68h-2.09c-.28,0-.5.06-.66.19-.16.13-.24.3-.24.52,0,.11.02.22.07.31.04.09.11.18.2.25s.19.12.31.16c.12.04.25.05.39.05h2.03v.68h-2.09c-.13,0-.26.02-.37.05-.11.04-.21.08-.29.15s-.14.14-.18.22c-.04.09-.06.19-.06.3s.02.21.07.3c.04.09.11.18.2.24.09.07.19.12.31.16.12.04.25.06.4.06h2.02v.68h-3.51v-.66Z"/><line y2="132.43" x2="17.15" y1="26.6" x1="17.15" class="cls-2"/><rect height=".3" width="1.95" y="26.45" x="16.18" class="cls-3"/><rect height=".3" width="1.95" y="132.28" x="16.18" class="cls-3"/><path d="M135.82.98v5.1h-.7V1.7l-1.26.62v-.7l1.31-.64h.64Z"/><path d="M139.63.98v.63h-1.85l-.24,1.49c.1-.09.22-.16.35-.21.13-.05.28-.07.44-.07.24,0,.46.04.66.12.2.08.37.19.51.34.14.14.26.32.33.52.08.2.12.43.12.67s-.04.47-.13.67c-.08.21-.2.38-.35.53-.15.15-.33.26-.54.34s-.44.12-.69.12c-.19,0-.38-.02-.55-.07-.18-.05-.34-.12-.48-.22-.14-.1-.27-.21-.38-.35s-.18-.29-.23-.47l.61-.3c.06.23.19.41.37.54.18.13.4.2.65.2.14,0,.28-.02.4-.07.12-.05.23-.12.31-.21.09-.09.16-.19.21-.32.05-.12.07-.26.07-.42s-.03-.29-.08-.42-.12-.24-.22-.33c-.09-.09-.2-.16-.33-.22s-.27-.08-.43-.08c-.18,0-.33.03-.47.1-.14.07-.25.17-.35.3l-.6-.14.45-2.69h2.43Z"/><path d="M143.24,1.12c.24.13.45.31.62.53.17.23.31.5.41.82.1.32.15.67.15,1.05s-.05.73-.15,1.06c-.1.32-.23.6-.41.83-.18.23-.38.41-.62.54-.24.13-.5.19-.8.19s-.55-.06-.79-.19c-.25-.13-.46-.31-.63-.54-.17-.23-.31-.51-.41-.83-.1-.32-.15-.67-.15-1.06s.05-.73.15-1.05c.1-.32.23-.59.41-.82.17-.23.38-.4.62-.53s.51-.19.8-.19.56.06.8.19ZM141.93,1.73c-.15.09-.28.23-.39.4-.11.17-.2.37-.26.6-.06.23-.09.49-.09.78s.03.55.09.79c.06.24.15.45.26.62s.25.31.4.4c.15.1.32.15.5.15s.35-.05.51-.15c.15-.1.29-.23.4-.4.11-.17.2-.38.26-.62.06-.24.09-.5.09-.79s-.03-.54-.09-.78-.15-.44-.25-.61c-.11-.17-.24-.3-.4-.4-.16-.09-.33-.14-.51-.14s-.35.05-.5.14Z"/><path d="M147.71,1.12c.24.13.45.31.62.53.17.23.31.5.41.82.1.32.15.67.15,1.05s-.05.73-.15,1.06c-.1.32-.23.6-.41.83-.18.23-.38.41-.62.54-.24.13-.5.19-.8.19s-.55-.06-.79-.19c-.25-.13-.46-.31-.63-.54-.17-.23-.31-.51-.41-.83-.1-.32-.15-.67-.15-1.06s.05-.73.15-1.05c.1-.32.23-.59.41-.82.17-.23.38-.4.62-.53s.51-.19.8-.19.56.06.8.19ZM146.4,1.73c-.15.09-.28.23-.39.4-.11.17-.2.37-.26.6-.06.23-.09.49-.09.78s.03.55.09.79c.06.24.15.45.26.62s.25.31.4.4c.15.1.32.15.5.15s.35-.05.51-.15c.15-.1.29-.23.4-.4.11-.17.2-.38.26-.62.06-.24.09-.5.09-.79s-.03-.54-.09-.78-.15-.44-.25-.61c-.11-.17-.24-.3-.4-.4-.16-.09-.33-.14-.51-.14s-.35.05-.5.14Z"/><path d="M152.37,2.57v.64c.11-.23.25-.4.43-.52.18-.12.38-.18.61-.18.25,0,.46.07.64.2.18.13.31.32.39.57.11-.25.26-.44.45-.57.19-.13.42-.2.68-.2.37,0,.65.12.85.36s.3.58.3,1.03v2.17h-.68v-2.09c0-.28-.06-.5-.19-.66-.13-.16-.3-.24-.52-.24-.11,0-.22.02-.31.07-.09.04-.18.11-.25.2s-.12.19-.16.31c-.04.12-.05.25-.05.39v2.03h-.68v-2.09c0-.13-.02-.26-.05-.37-.04-.11-.08-.21-.15-.29s-.14-.14-.22-.18c-.09-.04-.19-.06-.3-.06s-.21.02-.3.07c-.09.04-.18.11-.24.2-.07.09-.12.19-.16.31-.04.12-.06.25-.06.4v2.02h-.68v-3.51h.66Z"/><path d="M158.33,2.57v.64c.11-.23.25-.4.43-.52.18-.12.38-.18.61-.18.25,0,.46.07.64.2.18.13.31.32.39.57.11-.25.26-.44.45-.57.19-.13.42-.2.68-.2.37,0,.65.12.85.36s.3.58.3,1.03v2.17h-.68v-2.09c0-.28-.06-.5-.19-.66-.13-.16-.3-.24-.52-.24-.11,0-.22.02-.31.07-.09.04-.18.11-.25.2s-.12.19-.16.31c-.04.12-.05.25-.05.39v2.03h-.68v-2.09c0-.13-.02-.26-.05-.37-.04-.11-.08-.21-.15-.29s-.14-.14-.22-.18c-.09-.04-.19-.06-.3-.06s-.21.02-.3.07c-.09.04-.18.11-.24.2-.07.09-.12.19-.16.31-.04.12-.06.25-.06.4v2.02h-.68v-3.51h.66Z"/><line y2="10.77" x2="31.48" y1="10.77" x1="265.29" class="cls-2"/><rect height="1.95" width=".3" y="9.79" x="265.14" class="cls-3"/><rect height="1.95" width=".3" y="9.79" x="31.33" class="cls-3"/><path d="M12.46,240.49l-4.46-1.72v2.59h-.64v-3.38h.57l4.53,1.7v.8Z"/><path d="M7.5,234.87c.13-.24.31-.45.53-.62.23-.17.5-.31.82-.41.32-.1.67-.15,1.05-.15s.73.05,1.06.15c.32.1.6.23.83.41.23.18.41.38.54.62.13.24.19.5.19.8s-.06.55-.19.79c-.13.25-.31.46-.54.63-.23.17-.51.31-.83.41-.32.1-.67.15-1.06.15s-.73-.05-1.05-.15c-.32-.1-.59-.23-.82-.41-.23-.17-.4-.38-.53-.62s-.19-.51-.19-.8.06-.56.19-.8ZM8.11,236.17c.09.15.23.28.4.39.17.11.37.2.6.26.23.06.49.09.78.09s.55-.03.79-.09c.24-.06.45-.15.62-.26s.31-.25.4-.4c.1-.15.15-.32.15-.5s-.05-.35-.15-.51c-.1-.15-.23-.29-.4-.4-.17-.11-.38-.2-.62-.26-.24-.06-.5-.09-.79-.09s-.54.03-.78.09-.44.15-.61.25c-.17.11-.3.24-.4.4-.09.16-.14.33-.14.51s.05.35.14.5Z"/><path d="M7.5,230.4c.13-.24.31-.45.53-.62.23-.17.5-.31.82-.41.32-.1.67-.15,1.05-.15s.73.05,1.06.15c.32.1.6.23.83.41.23.18.41.38.54.62.13.24.19.5.19.8s-.06.55-.19.79c-.13.25-.31.46-.54.63-.23.17-.51.31-.83.41-.32.1-.67.15-1.06.15s-.73-.05-1.05-.15c-.32-.1-.59-.23-.82-.41-.23-.17-.4-.38-.53-.62s-.19-.51-.19-.8.06-.56.19-.8ZM8.11,231.7c.09.15.23.28.4.39.17.11.37.2.6.26.23.06.49.09.78.09s.55-.03.79-.09c.24-.06.45-.15.62-.26s.31-.25.4-.4c.1-.15.15-.32.15-.5s-.05-.35-.15-.51c-.1-.15-.23-.29-.4-.4-.17-.11-.38-.2-.62-.26-.24-.06-.5-.09-.79-.09s-.54.03-.78.09-.44.15-.61.25c-.17.11-.3.24-.4.4-.09.16-.14.33-.14.51s.05.35.14.5Z"/><path d="M8.95,225.74h.64c-.23-.11-.4-.25-.52-.43-.12-.18-.18-.38-.18-.61,0-.25.07-.46.2-.64.13-.18.32-.31.57-.39-.25-.11-.44-.26-.57-.45-.13-.19-.2-.42-.2-.68,0-.37.12-.65.36-.85s.58-.3,1.03-.3h2.17v.68h-2.09c-.28,0-.5.06-.66.19-.16.13-.24.3-.24.52,0,.11.02.22.07.31.04.09.11.18.2.25s.19.12.31.16c.12.04.25.05.39.05h2.03v.68h-2.09c-.13,0-.26.02-.37.05-.11.04-.21.08-.29.15s-.14.14-.18.22c-.04.09-.06.19-.06.3s.02.21.07.3c.04.09.11.18.2.24.09.07.19.12.31.16.12.04.25.06.4.06h2.02v.68h-3.51v-.66Z"/><path d="M8.95,219.78h.64c-.23-.11-.4-.25-.52-.43-.12-.18-.18-.38-.18-.61,0-.25.07-.46.2-.64.13-.18.32-.31.57-.39-.25-.11-.44-.26-.57-.45-.13-.19-.2-.42-.2-.68,0-.37.12-.65.36-.85s.58-.3,1.03-.3h2.17v.68h-2.09c-.28,0-.5.06-.66.19-.16.13-.24.3-.24.52,0,.11.02.22.07.31.04.09.11.18.2.25s.19.12.31.16c.12.04.25.05.39.05h2.03v.68h-2.09c-.13,0-.26.02-.37.05-.11.04-.21.08-.29.15s-.14.14-.18.22c-.04.09-.06.19-.06.3s.02.21.07.3c.04.09.11.18.2.24.09.07.19.12.31.16.12.04.25.06.4.06h2.02v.68h-3.51v-.66Z"/><line y2="282.7" x2="17.15" y1="173.74" x1="17.15" class="cls-2"/><rect height=".3" width="1.95" y="173.59" x="16.18" class="cls-3"/><rect height=".3" width="1.95" y="282.55" x="16.18" class="cls-3"/><rect height="109.25" width="9.37" y="173.59" x="256.07" class="cls-2"/><rect height="109.25" width="9.37" y="173.59" x="31.33" class="cls-2"/><rect height="6.24" width="215.42" y="239.1" x="40.65" class="cls-2"/><rect height="26.53" width="215.42" y="208.44" x="40.65" class="cls-2"/><rect height="6.24" width="215.42" y="59.56" x="40.65" class="cls-2"/><rect height="26.53" width="215.42" y="69.93" x="40.65" class="cls-2"/><rect height="106.13" width="9.37" y="24.94" x="256.07" class="cls-2"/><rect height="106.13" width="9.37" y="24.94" x="31.33" class="cls-2"/></g></g></svg>