<svg viewBox="0 0 531.27 288" xmlns:xlink="http://www.w3.org/1999/xlink" xmlns="http://www.w3.org/2000/svg" id="Camada_2"><defs><style>.cls-1,.cls-2{fill:none;}.cls-3{fill:#12100c;}.cls-2{stroke:#12100c;stroke-linecap:round;stroke-linejoin:round;stroke-width:.3px;}</style><symbol viewBox="0 0 531.27 288" id="fundo_transparente"><rect height="288" width="531.27" x="0" class="cls-1"/></symbol></defs><g id="RePlastic"><g id="deck_enrolável_S"><use xlink:href="#fundo_transparente" height="288" width="531.27"/><g id="ARC"><path d="M209.74,39.59c-.63-3.27-.63-6.63,0-9.89,0,0,0,0,0-.01.06-.3.35-.48.64-.42l1.77.4c-.71,3.27-.71,6.67,0,9.94l-1.77.4s-.08.01-.12.01c-.25,0-.47-.19-.52-.44Z" class="cls-2"/></g><g id="ARC-2"><path d="M209.74,51.68c-.63-3.27-.63-6.63,0-9.89,0,0,0,0,0-.01.06-.3.35-.48.64-.42l1.77.4c-.71,3.27-.71,6.67,0,9.94l-1.77.4s-.08.01-.12.01c-.25,0-.47-.19-.52-.44Z" class="cls-2"/></g><g id="ARC-3"><path d="M209.74,63.76c-.63-3.27-.63-6.63,0-9.89,0,0,0,0,0-.01.06-.3.35-.48.64-.42l1.77.4c-.71,3.27-.71,6.67,0,9.94l-1.77.4s-.08.01-.12.01c-.25,0-.47-.19-.52-.44Z" class="cls-2"/></g><g id="ARC-4"><path d="M209.74,75.85c-.63-3.27-.63-6.63,0-9.89,0,0,0,0,0-.01.06-.3.35-.48.64-.42l1.77.4c-.71,3.27-.71,6.67,0,9.94l-1.77.4s-.08.01-.12.01c-.25,0-.47-.19-.52-.44Z" class="cls-2"/></g><g id="ARC-5"><path d="M209.74,87.93c-.63-3.27-.63-6.63,0-9.89,0,0,0,0,0-.01.06-.3.35-.48.64-.42l1.77.4c-.71,3.27-.71,6.67,0,9.94l-1.77.4s-.08.01-.12.01c-.25,0-.47-.19-.52-.44Z" class="cls-2"/></g><g id="ARC-6"><path d="M209.74,100.02c-.63-3.27-.63-6.63,0-9.89,0,0,0,0,0-.01.06-.3.35-.48.64-.42l1.77.4c-.71,3.27-.71,6.67,0,9.94l-1.77.4s-.08.01-.12.01c-.25,0-.47-.19-.52-.44Z" class="cls-2"/></g><g id="ARC-7"><path d="M209.74,112.1c-.63-3.27-.63-6.63,0-9.89,0,0,0,0,0-.01.06-.3.35-.48.64-.42l1.77.4c-.71,3.27-.71,6.67,0,9.94l-1.77.4s-.08.01-.12.01c-.25,0-.47-.19-.52-.44Z" class="cls-2"/></g><g id="ARC-8"><path d="M209.74,124.19c-.63-3.27-.63-6.63,0-9.89,0,0,0,0,0-.01.06-.3.35-.48.64-.42l1.77.4c-.71,3.27-.71,6.67,0,9.94l-1.77.4s-.08.01-.12.01c-.25,0-.47-.19-.52-.44Z" class="cls-2"/></g><g id="ARC-9"><path d="M209.74,136.27c-.63-3.27-.63-6.63,0-9.89,0,0,0,0,0-.01.06-.3.35-.48.64-.42l1.77.4c-.71,3.27-.71,6.67,0,9.94l-1.77.4s-.08.01-.12.01c-.25,0-.47-.19-.52-.44Z" class="cls-2"/></g><g id="ARC-10"><path d="M209.74,148.36c-.63-3.27-.63-6.63,0-9.89,0,0,0,0,0-.01.06-.3.35-.48.64-.42l1.77.4c-.71,3.27-.71,6.67,0,9.94l-1.77.4s-.08.01-.12.01c-.25,0-.47-.19-.52-.44Z" class="cls-2"/></g><g id="ARC-11"><path d="M209.74,160.44c-.63-3.27-.63-6.63,0-9.89,0,0,0,0,0-.01.06-.3.35-.48.64-.42l1.77.4c-.71,3.27-.71,6.67,0,9.94l-1.77.4s-.08.01-.12.01c-.25,0-.47-.19-.52-.44Z" class="cls-2"/></g><g id="ARC-12"><path d="M209.74,172.51c-.63-3.27-.63-6.63,0-9.89,0,0,0,0,0-.01.06-.3.35-.48.64-.42l1.77.4c-.71,3.27-.71,6.67,0,9.94l-1.77.4s-.08.01-.12.01c-.25,0-.47-.19-.52-.44Z" class="cls-2"/></g><g id="ARC-13"><path d="M209.74,184.61c-.63-3.27-.63-6.63,0-9.89,0,0,0,0,0-.01.06-.3.35-.48.64-.42l1.77.4c-.71,3.27-.71,6.67,0,9.94l-1.77.4s-.08.01-.12.01c-.25,0-.47-.19-.52-.44Z" class="cls-2"/></g><g id="ARC-14"><path d="M209.74,196.68c-.63-3.27-.63-6.63,0-9.89,0,0,0,0,0-.01.06-.3.35-.48.64-.42l1.77.4c-.71,3.27-.71,6.67,0,9.94l-1.77.4s-.08.01-.12.01c-.25,0-.47-.19-.52-.44Z" class="cls-2"/></g><g id="ARC-15"><path d="M209.74,208.76c-.63-3.27-.63-6.63,0-9.89,0,0,0,0,0-.01.06-.3.35-.48.64-.42l1.77.4c-.71,3.27-.71,6.67,0,9.94l-1.77.4s-.08.01-.12.01c-.25,0-.47-.19-.52-.44Z" class="cls-2"/></g><g id="ARC-16"><path d="M209.74,220.85c-.63-3.27-.63-6.63,0-9.89,0,0,0,0,0-.01.06-.3.35-.48.64-.42l1.77.4c-.71,3.27-.71,6.67,0,9.94l-1.77.4s-.08.01-.12.01c-.25,0-.47-.19-.52-.44Z" class="cls-2"/></g><g id="ARC-17"><path d="M209.74,232.95c-.63-3.27-.63-6.63,0-9.89,0,0,0,0,0-.01.06-.3.35-.48.64-.42l1.77.4c-.71,3.27-.71,6.67,0,9.94l-1.77.4s-.08.01-.12.01c-.25,0-.47-.19-.52-.44Z" class="cls-2"/></g><rect height="10.79" width="129.23" y="29.24" x="37.78" class="cls-2"/><rect height="10.81" width="129.25" y="41.32" x="37.77" class="cls-2"/><rect height="10.77" width="129.25" y="53.42" x="37.77" class="cls-2"/><rect height="10.81" width="129.25" y="65.48" x="37.77" class="cls-2"/><rect height="10.77" width="129.25" y="77.59" x="37.77" class="cls-2"/><rect height="10.81" width="129.25" y="89.65" x="37.77" class="cls-2"/><rect height="10.77" width="129.25" y="101.76" x="37.77" class="cls-2"/><rect height="10.81" width="129.25" y="113.82" x="37.77" class="cls-2"/><rect height="10.77" width="129.25" y="125.93" x="37.77" class="cls-2"/><rect height="10.81" width="129.25" y="137.99" x="37.77" class="cls-2"/><rect height="10.77" width="129.25" y="150.1" x="37.77" class="cls-2"/><rect height="10.77" width="129.25" y="162.16" x="37.77" class="cls-2"/><rect height="10.77" width="129.25" y="174.27" x="37.77" class="cls-2"/><rect height="10.77" width="129.25" y="186.33" x="37.77" class="cls-2"/><rect height="10.81" width="129.25" y="198.4" x="37.77" class="cls-2"/><rect height="10.77" width="129.25" y="210.5" x="37.77" class="cls-2"/><rect height="10.81" width="129.25" y="222.57" x="37.77" class="cls-2"/><rect height="11.42" width="1.95" y="233.38" x="46.78" class="cls-2"/><rect height="1.29" width="1.95" y="40.02" x="48.77" class="cls-2"/><rect height="1.29" width="1.95" y="52.12" x="48.77" class="cls-2"/><rect height="1.29" width="1.95" y="64.19" x="48.77" class="cls-2"/><rect height="1.29" width="1.95" y="76.29" x="48.77" class="cls-2"/><rect height="1.29" width="1.95" y="88.36" x="48.77" class="cls-2"/><rect height="1.29" width="1.95" y="100.46" x="48.77" class="cls-2"/><rect height="1.29" width="1.95" y="112.53" x="48.77" class="cls-2"/><rect height="1.29" width="1.95" y="124.63" x="48.77" class="cls-2"/><rect height="1.29" width="1.95" y="136.7" x="48.77" class="cls-2"/><rect height="1.29" width="1.95" y="148.8" x="48.77" class="cls-2"/><rect height="1.29" width="1.95" y="160.87" x="48.77" class="cls-2"/><rect height="1.33" width="1.95" y="172.93" x="48.77" class="cls-2"/><rect height="1.29" width="1.95" y="185.04" x="48.77" class="cls-2"/><rect height="1.29" width="1.95" y="197.1" x="48.77" class="cls-2"/><rect height="1.29" width="1.95" y="209.21" x="48.77" class="cls-2"/><rect height="1.29" width="1.95" y="221.27" x="48.77" class="cls-2"/><rect height="1.29" width="1.95" y="40.02" x="154.22" class="cls-2"/><rect height="1.29" width="1.95" y="52.12" x="154.22" class="cls-2"/><rect height="1.29" width="1.95" y="64.19" x="154.22" class="cls-2"/><rect height="1.29" width="1.95" y="76.29" x="154.22" class="cls-2"/><rect height="1.29" width="1.95" y="88.36" x="154.22" class="cls-2"/><rect height="1.29" width="1.95" y="100.46" x="154.22" class="cls-2"/><rect height="1.29" width="1.95" y="112.53" x="154.22" class="cls-2"/><rect height="1.29" width="1.95" y="124.63" x="154.22" class="cls-2"/><rect height="1.29" width="1.95" y="136.7" x="154.22" class="cls-2"/><rect height="1.29" width="1.95" y="148.8" x="154.22" class="cls-2"/><rect height="1.29" width="1.95" y="160.87" x="154.22" class="cls-2"/><rect height="1.33" width="1.95" y="172.93" x="154.22" class="cls-2"/><rect height="1.29" width="1.95" y="185.04" x="154.22" class="cls-2"/><rect height="1.29" width="1.95" y="197.1" x="154.22" class="cls-2"/><rect height="1.29" width="1.95" y="209.21" x="154.22" class="cls-2"/><rect height="1.29" width="1.95" y="221.27" x="154.22" class="cls-2"/><rect height="11.42" width="1.95" y="233.38" x="156.13" class="cls-2"/><rect height="2.91" width="129.25" y="273.47" x="38" class="cls-2"/><rect height="3.4" width="1.91" y="276.39" x="46.76" class="cls-2"/><rect height="3.4" width="1.91" y="276.39" x="156.4" class="cls-2"/><g id="SPLINE"><path d="M212.23,224.63c.08,0,.2.12.24.16.03.04.05.08.06.13.01.05.02.1.02.15,0,.05,0,.11-.01.16-.02.13-.05.25-.09.37-.04.14-.09.28-.12.41s-.07.29-.09.44-.02.3,0,.45.03.29.06.44c.03.14.06.27.08.41.04.19.07.38.1.57.02.16.04.32.05.47.01.14.02.28.02.42,0,.13,0,.26.01.39s.01.26.02.39c0,.15.02.31.02.46,0,.12,0,.25,0,.37,0,.1-.02.2-.02.3s0,.21,0,.31c0,.11,0,.22.02.33s.02.23.03.34.02.22.03.34c.01.1.02.21.03.31.01.14.02.29.03.43,0,.12.02.25.04.37.02.12.05.23.1.34.05.12.13.23.21.33.1.12.22.23.33.35.11.1.21.2.32.31s.21.21.3.33.17.23.23.36.1.25.13.38.05.25.06.38c.01.12.02.23.03.35,0,.09.02.19.03.28.01.09.02.18.04.27.01.1.03.19.04.29.02.11.03.23.05.34.02.14.04.28.05.42.02.18.04.36.06.54.02.21.04.41.06.62.02.23.04.46.05.7.02.25.03.5.05.75s.03.51.04.77.02.51.03.77.01.5.01.75c0,.23,0,.46,0,.69,0,.21-.01.41-.03.62-.01.17-.03.34-.05.51-.02.13-.04.27-.08.4-.03.1-.06.2-.09.3-.03.08-.06.16-.1.23-.03.06-.07.12-.1.18-.03.05-.06.1-.1.16-.03.05-.06.09-.09.14,0,.01-.02.02-.03.03,0,0-.02.01-.03.02-.01,0-.02,0-.03,0,0,0-.01,0-.02,0,0,0-.02,0-.02,0,0,0-.02-.01-.02-.02-.02-.02-.04-.04-.05-.06-.02-.03-.04-.06-.06-.09-.04-.07-.07-.14-.1-.22-.04-.11-.08-.21-.11-.32-.04-.14-.09-.27-.13-.41-.05-.16-.09-.31-.13-.47-.05-.17-.09-.34-.13-.51-.06-.23-.11-.45-.17-.68-.05-.21-.1-.43-.14-.64-.04-.18-.08-.37-.11-.55-.03-.17-.06-.33-.09-.5-.02-.15-.04-.29-.06-.44-.02-.13-.04-.27-.05-.4s-.03-.26-.05-.39c-.02-.14-.04-.28-.07-.42-.02-.12-.04-.24-.06-.37-.02-.14-.05-.28-.07-.41-.03-.16-.05-.32-.07-.48-.03-.18-.05-.37-.08-.55-.03-.21-.05-.43-.07-.64s-.05-.44-.06-.67c-.02-.24-.03-.48-.04-.72,0-.21-.01-.42-.01-.63,0-.19,0-.39,0-.58s0-.38.01-.57c0-.21.01-.42.02-.63,0-.19.01-.37.02-.56,0-.15,0-.3.01-.45,0-.11,0-.22,0-.33,0-.09,0-.19,0-.28s.02-.19.02-.28c0-.1,0-.2-.02-.31-.02-.11-.05-.22-.07-.34-.01-.1,0-.2,0-.3,0-.13,0-.25,0-.38,0-.17,0-.34-.01-.5,0-.18-.01-.36-.02-.54,0-.16-.02-.33-.02-.49,0-.25,0-4.18,0-4.32" class="cls-2"/></g><line y2="224.98" x2="212.16" y1="29.69" x1="212.16" class="cls-2"/><line y2="276.22" x2="11.39" y1="273.29" x1="11.39" class="cls-2"/><rect height=".3" width="1.95" y="273.14" x="10.42" class="cls-3"/><rect height=".3" width="1.95" y="276.07" x="10.42" class="cls-3"/><path d="M3.08,283.24c.08-.21.19-.39.33-.54.14-.15.31-.27.51-.35.2-.08.42-.13.67-.13.14,0,.28.02.42.05.14.03.28.08.41.15.14.07.27.16.42.27.14.11.29.24.45.39l1.35,1.31v-2.29h.67v3.32h-.59l-1.85-1.79c-.12-.12-.23-.22-.33-.3-.1-.08-.21-.15-.3-.2-.1-.05-.19-.09-.29-.11-.09-.02-.19-.03-.29-.03-.15,0-.28.02-.4.07-.12.04-.23.11-.32.2-.09.09-.16.19-.21.3-.05.11-.07.24-.07.39,0,.25.08.47.23.65.15.18.36.31.63.39l-.23.67c-.42-.12-.74-.32-.97-.62s-.34-.66-.34-1.1c0-.25.04-.48.12-.69Z"/><path d="M8.3,280.83l-4.62-1.78v2.69h-.67v-3.5h.59l4.7,1.77v.83Z"/><path d="M4.66,274.81h.67c-.24-.11-.42-.26-.54-.45-.12-.18-.18-.4-.18-.63,0-.26.07-.48.2-.67.14-.19.33-.32.59-.41-.26-.11-.45-.27-.59-.46-.14-.2-.2-.43-.2-.7,0-.38.12-.67.37-.88.25-.21.61-.31,1.07-.31h2.25v.7h-2.16c-.29,0-.52.07-.69.2-.17.13-.25.31-.25.54,0,.12.02.22.07.32.05.1.11.18.2.26.09.07.19.13.32.16.12.04.26.06.4.06h2.11v.7h-2.16c-.14,0-.27.02-.38.06-.12.04-.22.09-.3.15-.08.06-.14.14-.19.23-.04.09-.07.2-.07.31s.02.22.07.32c.05.1.12.18.21.25.09.07.2.12.32.17.12.04.26.06.41.06h2.09v.7h-3.64v-.68Z"/><path d="M4.66,268.62h.67c-.24-.11-.42-.26-.54-.45-.12-.18-.18-.4-.18-.63,0-.26.07-.48.2-.67.14-.19.33-.32.59-.41-.26-.11-.45-.27-.59-.46-.14-.2-.2-.43-.2-.7,0-.38.12-.67.37-.88.25-.21.61-.31,1.07-.31h2.25v.7h-2.16c-.29,0-.52.07-.69.2-.17.13-.25.31-.25.54,0,.12.02.22.07.32.05.1.11.18.2.26.09.07.19.13.32.16.12.04.26.06.4.06h2.11v.7h-2.16c-.14,0-.27.02-.38.06-.12.04-.22.09-.3.15-.08.06-.14.14-.19.23-.04.09-.07.2-.07.31s.02.22.07.32c.05.1.12.18.21.25.09.07.2.12.32.17.12.04.26.06.41.06h2.09v.7h-3.64v-.68Z"/><line y2="244.63" x2="11.39" y1="29.54" x1="11.39" class="cls-2"/><rect height=".3" width="1.95" y="29.39" x="10.42" class="cls-3"/><rect height=".3" width="1.95" y="244.48" x="10.42" class="cls-3"/><path d="M3.08,150.68c.08-.21.19-.39.33-.54.14-.15.31-.27.51-.35.2-.08.42-.13.67-.13.14,0,.28.02.42.05.14.03.28.08.41.15.14.07.27.16.42.27.14.11.29.24.45.39l1.35,1.31v-2.29h.67v3.32h-.59l-1.85-1.79c-.12-.12-.23-.22-.33-.3-.1-.08-.21-.15-.3-.2-.1-.05-.19-.09-.29-.11-.09-.02-.19-.03-.29-.03-.15,0-.28.02-.4.07-.12.04-.23.11-.32.2-.09.09-.16.19-.21.3-.05.11-.07.24-.07.39,0,.25.08.47.23.65.15.18.36.31.63.39l-.23.67c-.42-.12-.74-.32-.97-.62s-.34-.66-.34-1.1c0-.25.04-.48.12-.69Z"/><path d="M3.16,146.13c.13-.25.32-.47.55-.65.23-.18.52-.32.85-.42.33-.1.69-.15,1.08-.15s.76.05,1.1.15.62.24.86.42c.24.18.43.4.56.65.13.25.2.52.2.83s-.07.57-.2.82-.32.47-.56.65c-.24.18-.53.32-.86.42-.33.1-.7.15-1.1.15s-.75-.05-1.08-.15c-.33-.1-.61-.24-.85-.42-.24-.18-.42-.4-.55-.65-.13-.25-.2-.53-.2-.83s.07-.58.2-.83ZM3.79,147.48c.1.16.23.29.41.41.18.11.38.2.63.27.24.07.51.1.81.1s.57-.03.82-.09c.25-.06.46-.15.64-.27.18-.12.32-.25.42-.41.1-.16.15-.33.15-.52s-.05-.37-.15-.53c-.1-.16-.24-.3-.42-.41-.18-.11-.39-.2-.64-.27-.25-.06-.52-.09-.82-.09s-.56.03-.81.09c-.25.06-.46.15-.63.26-.17.11-.31.25-.41.41-.1.16-.15.34-.15.53s.05.37.15.52Z"/><path d="M3.16,141.5c.13-.25.32-.47.55-.65.23-.18.52-.32.85-.42.33-.1.69-.15,1.08-.15s.76.05,1.1.15.62.24.86.42c.24.18.43.4.56.65.13.25.2.52.2.83s-.07.57-.2.82-.32.47-.56.65c-.24.18-.53.32-.86.42-.33.1-.7.15-1.1.15s-.75-.05-1.08-.15c-.33-.1-.61-.24-.85-.42-.24-.18-.42-.4-.55-.65-.13-.25-.2-.53-.2-.83s.07-.58.2-.83ZM3.79,142.85c.1.16.23.29.41.41.18.11.38.2.63.27.24.07.51.1.81.1s.57-.03.82-.09c.25-.06.46-.15.64-.27.18-.12.32-.25.42-.41.1-.16.15-.33.15-.52s-.05-.37-.15-.53c-.1-.16-.24-.3-.42-.41-.18-.11-.39-.2-.64-.27-.25-.06-.52-.09-.82-.09s-.56.03-.81.09c-.25.06-.46.15-.63.26-.17.11-.31.25-.41.41-.1.16-.15.34-.15.53s.05.37.15.52Z"/><path d="M3.16,136.86c.13-.25.32-.47.55-.65.23-.18.52-.32.85-.42.33-.1.69-.15,1.08-.15s.76.05,1.1.15.62.24.86.42c.24.18.43.4.56.65.13.25.2.52.2.83s-.07.57-.2.82-.32.47-.56.65c-.24.18-.53.32-.86.42-.33.1-.7.15-1.1.15s-.75-.05-1.08-.15c-.33-.1-.61-.24-.85-.42-.24-.18-.42-.4-.55-.65-.13-.25-.2-.53-.2-.83s.07-.58.2-.83ZM3.79,138.21c.1.16.23.29.41.41.18.11.38.2.63.27.24.07.51.1.81.1s.57-.03.82-.09c.25-.06.46-.15.64-.27.18-.12.32-.25.42-.41.1-.16.15-.33.15-.52s-.05-.37-.15-.53c-.1-.16-.24-.3-.42-.41-.18-.11-.39-.2-.64-.27-.25-.06-.52-.09-.82-.09s-.56.03-.81.09c-.25.06-.46.15-.63.26-.17.11-.31.25-.41.41-.1.16-.15.34-.15.53s.05.37.15.52Z"/><path d="M4.66,132.03h.67c-.24-.11-.42-.26-.54-.45-.12-.18-.18-.4-.18-.63,0-.26.07-.48.2-.67.14-.19.33-.32.59-.41-.26-.11-.45-.27-.59-.46-.14-.2-.2-.43-.2-.7,0-.38.12-.67.37-.88.25-.21.61-.31,1.07-.31h2.25v.7h-2.16c-.29,0-.52.07-.69.2-.17.13-.25.31-.25.54,0,.12.02.22.07.32.05.1.11.18.2.26.09.07.19.13.32.16.12.04.26.06.4.06h2.11v.7h-2.16c-.14,0-.27.02-.38.06-.12.04-.22.09-.3.15-.08.06-.14.14-.19.23-.04.09-.07.2-.07.31s.02.22.07.32c.05.1.12.18.21.25.09.07.2.12.32.17.12.04.26.06.41.06h2.09v.7h-3.64v-.68Z"/><path d="M4.66,125.85h.67c-.24-.11-.42-.26-.54-.45-.12-.18-.18-.4-.18-.63,0-.26.07-.48.2-.67.14-.19.33-.32.59-.41-.26-.11-.45-.27-.59-.46-.14-.2-.2-.43-.2-.7,0-.38.12-.67.37-.88.25-.21.61-.31,1.07-.31h2.25v.7h-2.16c-.29,0-.52.07-.69.2-.17.13-.25.31-.25.54,0,.12.02.22.07.32.05.1.11.18.2.26.09.07.19.13.32.16.12.04.26.06.4.06h2.11v.7h-2.16c-.14,0-.27.02-.38.06-.12.04-.22.09-.3.15-.08.06-.14.14-.19.23-.04.09-.07.2-.07.31s.02.22.07.32c.05.1.12.18.21.25.09.07.2.12.32.17.12.04.26.06.41.06h2.09v.7h-3.64v-.68Z"/><line y2="12.99" x2="38.15" y1="12.99" x1="166.86" class="cls-2"/><rect height="1.95" width=".3" y="12.01" x="166.71" class="cls-3"/><rect height="1.95" width=".3" y="12.01" x="38" class="cls-3"/><path d="M89.35,4.61v5.29h-.72v-4.54l-1.3.64v-.73l1.36-.67h.67Z"/><path d="M92.54,4.67c.21.08.39.19.54.33.15.14.27.31.35.51.08.2.13.42.13.67,0,.14-.02.28-.05.42-.03.14-.08.28-.15.41-.07.14-.16.27-.27.42-.11.14-.24.29-.39.45l-1.31,1.35h2.29v.67h-3.32v-.59l1.79-1.85c.12-.12.22-.23.3-.33.08-.1.15-.21.2-.3.05-.1.09-.19.11-.29.02-.09.03-.19.03-.29,0-.15-.02-.28-.07-.4-.04-.12-.11-.23-.2-.32-.09-.09-.19-.16-.3-.21-.11-.05-.24-.07-.39-.07-.25,0-.47.08-.65.23-.18.15-.31.36-.39.63l-.67-.23c.12-.42.32-.74.62-.97s.66-.34,1.1-.34c.25,0,.48.04.69.12Z"/><path d="M97.08,4.75c.25.13.47.32.65.55.18.23.32.52.42.85.1.33.15.69.15,1.08s-.05.76-.15,1.1-.24.62-.42.86c-.18.24-.4.43-.65.56-.25.13-.52.2-.83.2s-.57-.07-.82-.2-.47-.32-.65-.56c-.18-.24-.32-.53-.42-.86-.1-.33-.15-.7-.15-1.1s.05-.75.15-1.08c.1-.33.24-.61.42-.85.18-.24.4-.42.65-.55.25-.13.53-.2.83-.2s.58.07.83.2ZM95.73,5.38c-.16.1-.29.23-.41.41-.11.18-.2.38-.27.63-.07.24-.1.51-.1.81s.03.57.09.82c.06.25.15.46.27.64.12.18.25.32.41.42.16.1.33.15.52.15s.37-.05.53-.15c.16-.1.3-.24.41-.42.11-.18.2-.39.27-.64.06-.25.09-.52.09-.82s-.03-.56-.09-.81c-.06-.25-.15-.46-.26-.63-.11-.17-.25-.31-.41-.41-.16-.1-.34-.15-.53-.15s-.37.05-.52.15Z"/><path d="M101.72,4.75c.25.13.47.32.65.55.18.23.32.52.42.85.1.33.15.69.15,1.08s-.05.76-.15,1.1-.24.62-.42.86c-.18.24-.4.43-.65.56-.25.13-.52.2-.83.2s-.57-.07-.82-.2-.47-.32-.65-.56c-.18-.24-.32-.53-.42-.86-.1-.33-.15-.7-.15-1.1s.05-.75.15-1.08c.1-.33.24-.61.42-.85.18-.24.4-.42.65-.55.25-.13.53-.2.83-.2s.58.07.83.2ZM100.36,5.38c-.16.1-.29.23-.41.41-.11.18-.2.38-.27.63-.07.24-.1.51-.1.81s.03.57.09.82c.06.25.15.46.27.64.12.18.25.32.41.42.16.1.33.15.52.15s.37-.05.53-.15c.16-.1.3-.24.41-.42.11-.18.2-.39.27-.64.06-.25.09-.52.09-.82s-.03-.56-.09-.81c-.06-.25-.15-.46-.26-.63-.11-.17-.25-.31-.41-.41-.16-.1-.34-.15-.53-.15s-.37.05-.52.15Z"/><path d="M106.55,6.25v.67c.11-.24.26-.42.45-.54.18-.12.4-.18.63-.18.26,0,.48.07.67.2.19.14.32.33.41.59.11-.26.27-.45.46-.59.2-.14.43-.2.7-.2.38,0,.67.12.88.37.21.25.31.61.31,1.07v2.25h-.7v-2.16c0-.29-.07-.52-.2-.69-.13-.17-.31-.25-.54-.25-.12,0-.22.02-.32.07-.1.05-.18.11-.26.2-.07.09-.13.19-.16.32-.04.12-.06.26-.06.4v2.11h-.7v-2.16c0-.14-.02-.27-.06-.38-.04-.12-.09-.22-.15-.3-.06-.08-.14-.14-.23-.19-.09-.04-.2-.07-.31-.07s-.22.02-.32.07c-.1.05-.18.12-.25.21-.07.09-.12.2-.17.32-.04.12-.06.26-.06.41v2.09h-.7v-3.64h.68Z"/><path d="M112.73,6.25v.67c.11-.24.26-.42.45-.54.18-.12.4-.18.63-.18.26,0,.48.07.67.2.19.14.32.33.41.59.11-.26.27-.45.46-.59.2-.14.43-.2.7-.2.38,0,.67.12.88.37.21.25.31.61.31,1.07v2.25h-.7v-2.16c0-.29-.07-.52-.2-.69-.13-.17-.31-.25-.54-.25-.12,0-.22.02-.32.07-.1.05-.18.11-.26.2-.07.09-.13.19-.16.32-.04.12-.06.26-.06.4v2.11h-.7v-2.16c0-.14-.02-.27-.06-.38-.04-.12-.09-.22-.15-.3-.06-.08-.14-.14-.23-.19-.09-.04-.2-.07-.31-.07s-.22.02-.32.07c-.1.05-.18.12-.25.21-.07.09-.12.2-.17.32-.04.12-.06.26-.06.41v2.09h-.7v-3.64h.68Z"/></g></g></svg>