<svg viewBox="0 0 531.26 288" xmlns="http://www.w3.org/2000/svg" id="Urban"><defs><style>.cls-1{fill:#12100a;}.cls-2{fill:none;stroke:#12100a;stroke-linecap:round;stroke-linejoin:round;stroke-width:.3px;}</style></defs><g id="Frame"><g id="banco_sem_costas_1900"><line y2="21.48" x2="39.27" y1="21.48" x1="395.47" class="cls-2"/><rect height="1.95" width=".3" y="20.51" x="395.32" class="cls-1"/><rect height="1.95" width=".3" y="20.51" x="39.12" class="cls-1"/><path d="M7.4,93.1h.65v1.92l1.54.25c-.09-.1-.16-.22-.21-.36-.05-.14-.07-.29-.07-.46,0-.25.04-.47.13-.68.08-.21.2-.38.35-.53.15-.15.33-.27.54-.35.21-.08.44-.12.69-.12s.48.04.7.13c.21.09.4.21.55.37.15.16.27.34.36.56.08.21.13.45.13.71,0,.2-.03.39-.08.58-.05.18-.13.35-.23.5-.1.15-.22.28-.36.39-.14.11-.3.19-.48.24l-.31-.63c.24-.07.43-.19.56-.39.14-.19.21-.42.21-.67,0-.15-.03-.29-.08-.41-.05-.13-.12-.24-.21-.33-.09-.09-.2-.16-.33-.21s-.27-.08-.43-.08-.3.03-.44.08c-.13.05-.25.13-.34.22s-.17.21-.22.34-.08.28-.08.45c0,.18.04.34.1.49.07.14.17.26.31.36l-.15.62-2.79-.47v-2.52Z"/><path d="M7.4,90.44h5.29v.72h-4.54l.64,1.3h-.73l-.67-1.36v-.67Z"/><path d="M7.54,86.74c.13-.25.32-.47.55-.65s.52-.32.85-.42c.33-.1.69-.15,1.08-.15s.76.05,1.1.15.62.24.86.42c.24.18.43.4.56.64.13.25.2.52.2.83s-.07.57-.2.82-.32.47-.56.65c-.24.18-.53.32-.86.42s-.7.15-1.1.15-.75-.05-1.08-.15c-.33-.1-.61-.24-.85-.42-.24-.18-.42-.39-.55-.65-.13-.25-.2-.53-.2-.83s.07-.58.2-.83ZM8.17,88.09c.1.16.23.29.41.41.18.11.38.2.63.27.24.07.51.1.81.1s.57-.03.82-.09c.25-.06.46-.15.64-.27.18-.12.32-.25.42-.41.1-.16.15-.33.15-.52s-.05-.37-.15-.53c-.1-.16-.24-.3-.42-.41-.18-.11-.39-.2-.64-.27-.25-.06-.52-.09-.82-.09s-.56.03-.81.09c-.25.06-.46.15-.63.26-.17.11-.31.25-.41.41-.1.16-.15.34-.15.53s.05.37.15.52Z"/><path d="M9.04,81.91h.67c-.24-.11-.42-.26-.54-.45-.12-.18-.18-.4-.18-.63,0-.26.07-.48.2-.67.14-.19.33-.32.59-.41-.26-.11-.45-.27-.59-.46-.14-.2-.2-.43-.2-.7,0-.38.12-.67.37-.88.25-.21.61-.31,1.07-.31h2.25v.7h-2.16c-.29,0-.52.07-.69.2-.17.13-.25.31-.25.54,0,.12.02.22.07.32.05.1.11.18.2.26.09.07.19.13.32.17.12.04.26.06.4.06h2.11v.7h-2.16c-.14,0-.27.02-.38.06s-.22.09-.3.15c-.08.06-.14.14-.19.23-.04.09-.07.2-.07.31s.02.22.07.32c.05.1.12.18.21.25.09.07.2.12.32.17.12.04.26.06.41.06h2.09v.7h-3.64v-.68Z"/><path d="M9.04,75.73h.67c-.24-.11-.42-.26-.54-.45-.12-.18-.18-.4-.18-.63,0-.26.07-.48.2-.67.14-.19.33-.32.59-.41-.26-.11-.45-.27-.59-.46-.14-.2-.2-.43-.2-.7,0-.38.12-.67.37-.88.25-.21.61-.31,1.07-.31h2.25v.7h-2.16c-.29,0-.52.07-.69.2-.17.13-.25.31-.25.54,0,.12.02.22.07.32.05.1.11.18.2.26.09.07.19.13.32.17.12.04.26.06.4.06h2.11v.7h-2.16c-.14,0-.27.02-.38.06s-.22.09-.3.15c-.08.06-.14.14-.19.23-.04.09-.07.2-.07.31s.02.22.07.32c.05.1.12.18.21.25.09.07.2.12.32.17.12.04.26.06.41.06h2.09v.7h-3.64v-.68Z"/><line y2="130.4" x2="16.61" y1="34.7" x1="16.61" class="cls-2"/><rect height=".3" width="1.95" y="34.55" x="15.63" class="cls-1"/><rect height=".3" width="1.95" y="130.25" x="15.63" class="cls-1"/><path d="M7.4,249.52h5.29v.73h-4.36s.08.04.1.06c.03.02.06.04.09.07l2.02,1.35s.06.04.08.05.05.03.08.06v-3.2h.64v3.98h-.59l-3.35-2.22v-.87Z"/><path d="M12.56,247.08c-.12.24-.29.44-.51.61-.22.17-.5.3-.82.39s-.69.14-1.09.14-.8-.05-1.15-.15c-.35-.1-.64-.24-.89-.43-.25-.18-.43-.41-.56-.67-.13-.26-.2-.55-.2-.88,0-.37.09-.7.27-.97.18-.27.43-.47.76-.59l.29.64c-.21.07-.37.18-.48.34-.11.16-.17.35-.17.56,0,.2.05.38.14.55s.23.31.4.44c.17.13.37.22.61.29s.49.1.77.1h.17c.06,0,.1,0,.15,0-.25-.08-.45-.23-.59-.45-.14-.22-.21-.48-.21-.79,0-.24.04-.46.12-.65.08-.2.19-.36.34-.5.15-.14.32-.25.52-.33.2-.08.42-.12.66-.12s.47.04.68.13c.21.08.38.2.53.35.14.15.26.32.34.53s.12.43.12.68c0,.3-.06.57-.18.81ZM11.99,245.91c-.05-.12-.12-.22-.21-.3-.09-.08-.19-.15-.31-.2-.12-.05-.26-.07-.41-.07s-.29.02-.41.07c-.12.05-.23.12-.32.2s-.16.19-.21.31-.07.25-.07.4.02.27.07.39.12.22.2.31c.09.09.19.15.31.2.12.05.25.07.4.07s.28-.03.41-.08.24-.12.34-.21.17-.2.22-.32c.05-.12.08-.26.08-.4s-.03-.26-.08-.38Z"/><path d="M7.54,241.11c.13-.25.32-.47.55-.65.23-.18.52-.32.85-.42.33-.1.69-.15,1.08-.15s.76.05,1.1.15.62.24.86.42c.24.18.43.4.56.65.13.25.2.52.2.83s-.07.57-.2.82-.32.47-.56.65c-.24.18-.53.32-.86.42-.33.1-.7.15-1.1.15s-.75-.05-1.08-.15c-.33-.1-.61-.24-.85-.42-.24-.18-.42-.4-.55-.65-.13-.25-.2-.53-.2-.83s.07-.58.2-.83ZM8.17,242.46c.1.16.23.29.41.41.18.11.38.2.63.27.24.07.51.1.81.1s.57-.03.82-.09c.25-.06.46-.15.64-.27.18-.12.32-.25.42-.41.1-.16.15-.33.15-.52s-.05-.37-.15-.53c-.1-.16-.24-.3-.42-.41-.18-.11-.39-.2-.64-.27-.25-.06-.52-.09-.82-.09s-.56.03-.81.09c-.25.06-.46.15-.63.26-.17.11-.31.25-.41.41-.1.16-.15.34-.15.53s.05.37.15.52Z"/><path d="M9.04,236.28h.67c-.24-.11-.42-.26-.54-.45-.12-.18-.18-.4-.18-.63,0-.26.07-.48.2-.67.14-.19.33-.32.59-.41-.26-.11-.45-.27-.59-.46-.14-.2-.2-.43-.2-.7,0-.38.12-.67.37-.88.25-.21.61-.31,1.07-.31h2.25v.7h-2.16c-.29,0-.52.07-.69.2-.17.13-.25.31-.25.54,0,.12.02.22.07.32.05.1.11.18.2.26.09.07.19.13.32.16.12.04.26.06.4.06h2.11v.7h-2.16c-.14,0-.27.02-.38.06-.12.04-.22.09-.3.15-.08.06-.14.14-.19.23-.04.09-.07.2-.07.31s.02.22.07.32c.05.1.12.18.21.25.09.07.2.12.32.17.12.04.26.06.41.06h2.09v.7h-3.64v-.68Z"/><path d="M9.04,230.09h.67c-.24-.11-.42-.26-.54-.45-.12-.18-.18-.4-.18-.63,0-.26.07-.48.2-.67.14-.19.33-.32.59-.41-.26-.11-.45-.27-.59-.46-.14-.2-.2-.43-.2-.7,0-.38.12-.67.37-.88.25-.21.61-.31,1.07-.31h2.25v.7h-2.16c-.29,0-.52.07-.69.2-.17.13-.25.31-.25.54,0,.12.02.22.07.32.05.1.11.18.2.26.09.07.19.13.32.16.12.04.26.06.4.06h2.11v.7h-2.16c-.14,0-.27.02-.38.06-.12.04-.22.09-.3.15-.08.06-.14.14-.19.23-.04.09-.07.2-.07.31s.02.22.07.32c.05.1.12.18.21.25.09.07.2.12.32.17.12.04.26.06.41.06h2.09v.7h-3.64v-.68Z"/><line y2="282.13" x2="16.61" y1="195.85" x1="16.61" class="cls-2"/><rect height=".3" width="1.95" y="195.7" x="15.63" class="cls-1"/><rect height=".3" width="1.95" y="281.98" x="15.63" class="cls-1"/><rect height="1.84" width="356.5" y="196.46" x="39.09" class="cls-2"/><polygon points="378.7 198.3 55.97 198.3 39.09 198.3 39.09 214.88 39.09 283.04 55.97 283.04 55.97 214.88 378.7 214.88 378.7 283.04 395.59 283.04 395.59 214.88 395.59 198.3 378.7 198.3" class="cls-2"/><polygon points="515.26 196.46 513.19 196.46 513.19 281.16 421.37 281.16 421.37 196.46 419.31 196.46 419.28 196.46 419.28 283 419.31 283 419.31 283.04 515.26 283.04 515.26 283 515.28 283 515.28 196.46 515.26 196.46" class="cls-2"/><path d="M431.84,196.46h5.24c.62,0,1.13.5,1.13,1.13v13.93h-7.49v-13.93c0-.62.5-1.13,1.13-1.13Z" class="cls-2"/><path d="M422.47,196.46h5.24c.62,0,1.13.5,1.13,1.13v13.93h-7.49v-13.93c0-.62.5-1.13,1.13-1.13Z" class="cls-2"/><path d="M450.56,196.46h5.24c.62,0,1.13.5,1.13,1.13v13.93h-7.49v-13.93c0-.62.5-1.13,1.13-1.13Z" class="cls-2"/><path d="M441.2,196.46h5.24c.62,0,1.13.5,1.13,1.13v13.93h-7.49v-13.93c0-.62.5-1.13,1.13-1.13Z" class="cls-2"/><path d="M469.29,196.46h5.24c.62,0,1.13.5,1.13,1.13v13.93h-7.49v-13.93c0-.62.5-1.13,1.13-1.13Z" class="cls-2"/><path d="M478.66,196.46h5.24c.62,0,1.13.5,1.13,1.13v13.93h-7.49v-13.93c0-.62.5-1.13,1.13-1.13Z" class="cls-2"/><path d="M488.02,196.46h5.24c.62,0,1.13.5,1.13,1.13v13.93h-7.49v-13.93c0-.62.5-1.13,1.13-1.13Z" class="cls-2"/><path d="M497.38,196.46h5.24c.62,0,1.13.5,1.13,1.13v13.93h-7.49v-13.93c0-.62.5-1.13,1.13-1.13Z" class="cls-2"/><path d="M506.71,196.46h5.24c.62,0,1.13.5,1.13,1.13v13.93h-7.49v-13.93c0-.62.5-1.13,1.13-1.13Z" class="cls-2"/><path d="M459.93,196.46h5.24c.62,0,1.13.5,1.13,1.13v13.93h-7.49v-13.93c0-.62.5-1.13,1.13-1.13Z" class="cls-2"/><path d="M505.61,211.49v-5.31c0-.2-.13-.33-.26-.33h-1.33c-.2,0-.26.13-.26.33v5.31h-7.49v-5.31c0-.2-.13-.33-.26-.33h-1.35c-.2,0-.26.13-.26.33v5.31h-7.49v-5.31c0-.2-.13-.33-.26-.33h-1.37c-.13,0-.26.13-.26.33v5.31h-7.47v-5.31c0-.2-.07-.33-.26-.33h-1.36c-.13,0-.26.13-.26.33v5.31h-7.46v-5.31c0-.05-.07-.04-.09-.09-.03-.12-.05-.25-.2-.25h-1.35c-.13,0-.26.13-.26.33v5.31h-7.46v-5.31c0-.2-.13-.33-.33-.33h-1.29c-.13,0-.26.13-.26.33v5.31h-7.5v-5.31s-.06-.03-.07-.07c-.04-.13-.1-.26-.21-.26h-1.31c-.11,0-.17.13-.21.27-.01.03-.07.03-.07.07v5.31h-7.51v-5.31c0-.2-.13-.33-.26-.33h-1.34c-.2,0-.26.13-.26.33v5.31h-7.5v-5.31c0-.2-.13-.33-.26-.33h-1.33c-.2,0-.26.13-.26.33v5.31h-7.47v3.77h91.72v-3.77h-7.47Z" class="cls-2"/><rect height="1.79" width="356.48" y="109.27" x="39.15" class="cls-2"/><rect height="11.49" width="356.48" y="118.63" x="39.15" class="cls-2"/><rect height="1.86" width="356.48" y="99.91" x="39.15" class="cls-2"/><rect height="1.86" width="356.48" y="90.55" x="39.15" class="cls-2"/><rect height="1.86" width="356.48" y="81.19" x="39.15" class="cls-2"/><rect height="1.86" width="356.48" y="71.83" x="39.15" class="cls-2"/><rect height="1.79" width="356.48" y="62.53" x="39.15" class="cls-2"/><rect height="1.79" width="356.48" y="53.17" x="39.15" class="cls-2"/><rect height="11.48" width="356.48" y="34.12" x="39.15" class="cls-2"/><rect height="7.53" width="356.47" y="36.27" x="39.13" class="cls-2"/><rect height="7.57" width="356.48" y="45.6" x="39.15" class="cls-2"/><rect height="7.57" width="356.48" y="54.96" x="39.15" class="cls-2"/><rect height="7.5" width="356.48" y="64.32" x="39.15" class="cls-2"/><rect height="7.5" width="356.48" y="73.68" x="39.15" class="cls-2"/><rect height="7.5" width="356.48" y="83.04" x="39.15" class="cls-2"/><rect height="7.5" width="356.48" y="92.41" x="39.15" class="cls-2"/><rect height="7.5" width="356.48" y="101.77" x="39.15" class="cls-2"/><rect height="7.57" width="356.48" y="111.06" x="39.15" class="cls-2"/><rect height="7.53" width="356.47" y="120.45" x="39.13" class="cls-2"/><line y2="43.88" x2="54.72" y1="45.6" x1="54.72" class="cls-2"/><line y2="62.53" x2="54.72" y1="64.32" x1="54.72" class="cls-2"/><line y2="81.19" x2="54.72" y1="83.05" x1="54.72" class="cls-2"/><line y2="99.91" x2="54.72" y1="101.77" x1="54.72" class="cls-2"/><line y2="118.63" x2="54.72" y1="120.35" x1="54.72" class="cls-2"/><line y2="109.27" x2="54.72" y1="111.06" x1="54.72" class="cls-2"/><line y2="90.55" x2="54.72" y1="92.41" x1="54.72" class="cls-2"/><line y2="71.83" x2="54.72" y1="73.68" x1="54.72" class="cls-2"/><line y2="53.17" x2="54.72" y1="54.96" x1="54.72" class="cls-2"/><line y2="43.88" x2="57.23" y1="45.6" x1="57.23" class="cls-2"/><line y2="62.53" x2="57.23" y1="64.32" x1="57.23" class="cls-2"/><line y2="81.19" x2="57.23" y1="83.05" x1="57.23" class="cls-2"/><line y2="99.91" x2="57.23" y1="101.77" x1="57.23" class="cls-2"/><line y2="118.63" x2="57.23" y1="120.35" x1="57.23" class="cls-2"/><line y2="109.27" x2="57.23" y1="111.06" x1="57.23" class="cls-2"/><line y2="90.55" x2="57.23" y1="92.41" x1="57.23" class="cls-2"/><line y2="71.83" x2="57.23" y1="73.68" x1="57.23" class="cls-2"/><line y2="53.17" x2="57.23" y1="54.96" x1="57.23" class="cls-2"/><line y2="43.88" x2="63.19" y1="45.6" x1="63.19" class="cls-2"/><line y2="62.53" x2="63.19" y1="64.32" x1="63.19" class="cls-2"/><line y2="81.19" x2="63.19" y1="83.05" x1="63.19" class="cls-2"/><line y2="99.91" x2="63.19" y1="101.77" x1="63.19" class="cls-2"/><line y2="118.63" x2="63.19" y1="120.29" x1="63.19" class="cls-2"/><line y2="109.27" x2="63.19" y1="111.06" x1="63.19" class="cls-2"/><line y2="90.55" x2="63.19" y1="92.41" x1="63.19" class="cls-2"/><line y2="71.83" x2="63.19" y1="73.68" x1="63.19" class="cls-2"/><line y2="53.17" x2="63.19" y1="54.96" x1="63.19" class="cls-2"/><line y2="43.81" x2="133.94" y1="45.6" x1="133.94" class="cls-2"/><line y2="62.53" x2="133.94" y1="64.32" x1="133.94" class="cls-2"/><line y2="81.19" x2="133.94" y1="83.05" x1="133.94" class="cls-2"/><line y2="99.91" x2="133.94" y1="101.77" x1="133.94" class="cls-2"/><line y2="118.63" x2="133.94" y1="120.16" x1="133.94" class="cls-2"/><line y2="109.27" x2="133.94" y1="111.06" x1="133.94" class="cls-2"/><line y2="90.55" x2="133.94" y1="92.41" x1="133.94" class="cls-2"/><line y2="71.83" x2="133.94" y1="73.68" x1="133.94" class="cls-2"/><line y2="53.17" x2="133.94" y1="54.96" x1="133.94" class="cls-2"/><line y2="43.81" x2="136.46" y1="45.6" x1="136.46" class="cls-2"/><line y2="62.53" x2="136.46" y1="64.32" x1="136.46" class="cls-2"/><line y2="81.19" x2="136.46" y1="83.05" x1="136.46" class="cls-2"/><line y2="99.91" x2="136.46" y1="101.77" x1="136.46" class="cls-2"/><line y2="118.63" x2="136.46" y1="120.16" x1="136.46" class="cls-2"/><line y2="109.27" x2="136.46" y1="111.06" x1="136.46" class="cls-2"/><line y2="90.55" x2="136.46" y1="92.41" x1="136.46" class="cls-2"/><line y2="71.83" x2="136.46" y1="73.68" x1="136.46" class="cls-2"/><line y2="53.17" x2="136.46" y1="54.96" x1="136.46" class="cls-2"/><line y2="43.94" x2="142.42" y1="45.6" x1="142.42" class="cls-2"/><line y2="62.53" x2="142.42" y1="64.32" x1="142.42" class="cls-2"/><line y2="81.19" x2="142.42" y1="83.05" x1="142.42" class="cls-2"/><line y2="99.91" x2="142.42" y1="101.77" x1="142.42" class="cls-2"/><line y2="118.63" x2="142.42" y1="120.35" x1="142.42" class="cls-2"/><line y2="109.27" x2="142.42" y1="111.06" x1="142.42" class="cls-2"/><line y2="90.55" x2="142.42" y1="92.41" x1="142.42" class="cls-2"/><line y2="71.83" x2="142.42" y1="73.68" x1="142.42" class="cls-2"/><line y2="53.17" x2="142.42" y1="54.96" x1="142.42" class="cls-2"/><line y2="43.81" x2="221.64" y1="45.6" x1="221.64" class="cls-2"/><line y2="62.53" x2="221.64" y1="64.32" x1="221.64" class="cls-2"/><line y2="81.19" x2="221.64" y1="83.05" x1="221.64" class="cls-2"/><line y2="99.91" x2="221.64" y1="101.77" x1="221.64" class="cls-2"/><line y2="118.63" x2="221.64" y1="120.22" x1="221.64" class="cls-2"/><line y2="109.27" x2="221.64" y1="111.06" x1="221.64" class="cls-2"/><line y2="90.55" x2="221.64" y1="92.41" x1="221.64" class="cls-2"/><line y2="71.83" x2="221.64" y1="73.68" x1="221.64" class="cls-2"/><line y2="53.17" x2="221.64" y1="54.96" x1="221.64" class="cls-2"/><line y2="43.81" x2="219.13" y1="45.6" x1="219.13" class="cls-2"/><line y2="62.53" x2="219.13" y1="64.32" x1="219.13" class="cls-2"/><line y2="81.19" x2="219.13" y1="83.05" x1="219.13" class="cls-2"/><line y2="99.91" x2="219.13" y1="101.77" x1="219.13" class="cls-2"/><line y2="118.63" x2="219.13" y1="120.22" x1="219.13" class="cls-2"/><line y2="109.27" x2="219.13" y1="111.06" x1="219.13" class="cls-2"/><line y2="90.55" x2="219.13" y1="92.41" x1="219.13" class="cls-2"/><line y2="71.83" x2="219.13" y1="73.68" x1="219.13" class="cls-2"/><line y2="53.17" x2="219.13" y1="54.96" x1="219.13" class="cls-2"/><line y2="44.01" x2="213.17" y1="45.6" x1="213.17" class="cls-2"/><line y2="62.53" x2="213.17" y1="64.32" x1="213.17" class="cls-2"/><line y2="81.19" x2="213.17" y1="83.05" x1="213.17" class="cls-2"/><line y2="99.91" x2="213.17" y1="101.77" x1="213.17" class="cls-2"/><line y2="118.63" x2="213.17" y1="120.35" x1="213.17" class="cls-2"/><line y2="109.27" x2="213.17" y1="111.06" x1="213.17" class="cls-2"/><line y2="90.55" x2="213.17" y1="92.41" x1="213.17" class="cls-2"/><line y2="71.83" x2="213.17" y1="73.68" x1="213.17" class="cls-2"/><line y2="53.17" x2="213.17" y1="54.96" x1="213.17" class="cls-2"/><line y2="43.88" x2="300.87" y1="45.6" x1="300.87" class="cls-2"/><line y2="62.53" x2="300.87" y1="64.32" x1="300.87" class="cls-2"/><line y2="81.19" x2="300.87" y1="83.05" x1="300.87" class="cls-2"/><line y2="99.91" x2="300.87" y1="101.77" x1="300.87" class="cls-2"/><line y2="118.63" x2="300.87" y1="120.29" x1="300.87" class="cls-2"/><line y2="109.27" x2="300.87" y1="111.06" x1="300.87" class="cls-2"/><line y2="90.55" x2="300.87" y1="92.41" x1="300.87" class="cls-2"/><line y2="71.83" x2="300.87" y1="73.68" x1="300.87" class="cls-2"/><line y2="53.17" x2="300.87" y1="54.96" x1="300.87" class="cls-2"/><line y2="43.88" x2="298.35" y1="45.6" x1="298.35" class="cls-2"/><line y2="62.53" x2="298.35" y1="64.32" x1="298.35" class="cls-2"/><line y2="81.19" x2="298.35" y1="83.05" x1="298.35" class="cls-2"/><line y2="99.91" x2="298.35" y1="101.77" x1="298.35" class="cls-2"/><line y2="118.63" x2="298.35" y1="120.29" x1="298.35" class="cls-2"/><line y2="109.27" x2="298.35" y1="111.06" x1="298.35" class="cls-2"/><line y2="90.55" x2="298.35" y1="92.41" x1="298.35" class="cls-2"/><line y2="71.83" x2="298.35" y1="73.68" x1="298.35" class="cls-2"/><line y2="53.17" x2="298.35" y1="54.96" x1="298.35" class="cls-2"/><line y2="44.01" x2="292.33" y1="45.6" x1="292.33" class="cls-2"/><line y2="62.53" x2="292.33" y1="64.32" x1="292.33" class="cls-2"/><line y2="81.19" x2="292.33" y1="83.05" x1="292.33" class="cls-2"/><line y2="99.91" x2="292.33" y1="101.77" x1="292.33" class="cls-2"/><line y2="118.63" x2="292.33" y1="120.42" x1="292.33" class="cls-2"/><line y2="109.27" x2="292.33" y1="111.06" x1="292.33" class="cls-2"/><line y2="90.55" x2="292.33" y1="92.41" x1="292.33" class="cls-2"/><line y2="71.83" x2="292.33" y1="73.68" x1="292.33" class="cls-2"/><line y2="53.17" x2="292.33" y1="54.96" x1="292.33" class="cls-2"/><line y2="43.88" x2="380.03" y1="45.6" x1="380.03" class="cls-2"/><line y2="62.53" x2="380.03" y1="64.32" x1="380.03" class="cls-2"/><line y2="81.19" x2="380.03" y1="83.05" x1="380.03" class="cls-2"/><line y2="99.91" x2="380.03" y1="101.77" x1="380.03" class="cls-2"/><line y2="118.63" x2="380.03" y1="120.29" x1="380.03" class="cls-2"/><line y2="109.27" x2="380.03" y1="111.06" x1="380.03" class="cls-2"/><line y2="90.55" x2="380.03" y1="92.41" x1="380.03" class="cls-2"/><line y2="71.83" x2="380.03" y1="73.68" x1="380.03" class="cls-2"/><line y2="53.17" x2="380.03" y1="54.96" x1="380.03" class="cls-2"/><line y2="43.88" x2="377.51" y1="45.6" x1="377.51" class="cls-2"/><line y2="62.53" x2="377.51" y1="64.32" x1="377.51" class="cls-2"/><line y2="81.19" x2="377.51" y1="83.05" x1="377.51" class="cls-2"/><line y2="99.91" x2="377.51" y1="101.77" x1="377.51" class="cls-2"/><line y2="118.63" x2="377.51" y1="120.29" x1="377.51" class="cls-2"/><line y2="109.27" x2="377.51" y1="111.06" x1="377.51" class="cls-2"/><line y2="90.55" x2="377.51" y1="92.41" x1="377.51" class="cls-2"/><line y2="71.83" x2="377.51" y1="73.68" x1="377.51" class="cls-2"/><line y2="53.17" x2="377.51" y1="54.96" x1="377.51" class="cls-2"/><line y2="44.01" x2="371.56" y1="45.6" x1="371.56" class="cls-2"/><line y2="62.53" x2="371.56" y1="64.32" x1="371.56" class="cls-2"/><line y2="81.19" x2="371.56" y1="83.05" x1="371.56" class="cls-2"/><line y2="99.91" x2="371.56" y1="101.77" x1="371.56" class="cls-2"/><line y2="118.63" x2="371.56" y1="120.42" x1="371.56" class="cls-2"/><line y2="109.27" x2="371.56" y1="111.06" x1="371.56" class="cls-2"/><line y2="90.55" x2="371.56" y1="92.41" x1="371.56" class="cls-2"/><line y2="71.83" x2="371.56" y1="73.68" x1="371.56" class="cls-2"/><line y2="53.17" x2="371.56" y1="54.96" x1="371.56" class="cls-2"/><path d="M205.5,12.76v4.8h-.66v-3.53c0-.07,0-.13-.02-.17-.01-.05-.03-.08-.05-.11-.02-.03-.06-.05-.1-.07-.04-.01-.09-.02-.14-.02-.06,0-.11,0-.17.03-.06.02-.12.04-.19.08l-.53.26v-.66l1.23-.6h.6Z"/><path d="M208.54,12.87c.22.11.4.26.56.47.15.2.27.45.36.75.08.29.12.62.12.98,0,.39-.05.74-.14,1.05-.09.31-.22.58-.39.81-.17.22-.37.39-.61.51-.24.12-.5.18-.8.18-.34,0-.63-.08-.88-.24-.25-.16-.43-.39-.54-.69l.58-.27c.06.2.16.34.31.44.15.1.32.15.53.15.17,0,.32-.04.46-.11.14-.07.26-.18.37-.31.11-.13.19-.29.24-.48.06-.18.08-.38.08-.59,0-.06,0-.11-.03-.14-.02-.04-.05-.05-.09-.05-.01,0-.02,0-.03,0-.01,0-.02,0-.03.01-.01,0-.02.01-.03.02-.01,0-.03.02-.04.03-.11.1-.23.18-.36.23-.13.05-.27.08-.42.08-.22,0-.42-.04-.6-.11-.18-.07-.34-.17-.47-.31s-.23-.29-.31-.47c-.07-.18-.11-.38-.11-.6s.04-.43.11-.62c.08-.19.18-.35.32-.48.13-.13.29-.24.48-.31.19-.07.39-.11.61-.11.27,0,.52.05.73.16ZM207.48,13.39c-.11.05-.2.11-.28.19s-.14.18-.18.29-.06.23-.06.37.02.25.07.37c.04.11.11.21.18.3.08.08.17.15.28.19s.23.07.36.07.24-.02.35-.07.2-.11.28-.18.14-.17.18-.28.07-.23.07-.36-.02-.26-.07-.37c-.05-.12-.11-.22-.19-.31-.08-.09-.18-.15-.29-.2-.11-.05-.23-.07-.36-.07s-.24.02-.35.07Z"/><path d="M212.66,12.89c.23.12.42.29.59.5.16.21.29.47.38.77.09.3.14.63.14.99s-.05.69-.14,1c-.09.3-.22.56-.39.78s-.36.39-.59.51c-.23.12-.48.18-.75.18s-.52-.06-.75-.18-.43-.29-.59-.51c-.16-.22-.29-.48-.38-.78-.09-.3-.14-.64-.14-1s.05-.69.14-.99.22-.56.38-.77c.16-.21.36-.38.59-.5.23-.12.48-.18.75-.18s.53.06.75.18ZM211.43,13.46c-.14.09-.27.21-.37.37-.1.16-.19.35-.25.57-.06.22-.09.46-.09.73s.03.52.09.75c.06.23.14.42.24.59.11.16.23.29.38.38s.3.14.47.14.33-.05.48-.14.27-.22.37-.38c.1-.16.18-.36.24-.59.06-.23.09-.47.09-.74s-.03-.51-.09-.73c-.06-.22-.14-.41-.24-.57-.1-.16-.23-.28-.37-.37-.15-.09-.31-.13-.48-.13s-.33.04-.47.13Z"/><path d="M216.84,12.89c.23.12.42.29.59.5.16.21.29.47.38.77.09.3.14.63.14.99s-.05.69-.14,1c-.09.3-.22.56-.39.78s-.36.39-.59.51c-.23.12-.48.18-.75.18s-.52-.06-.75-.18-.43-.29-.59-.51c-.16-.22-.29-.48-.38-.78-.09-.3-.14-.64-.14-1s.05-.69.14-.99.22-.56.38-.77c.16-.21.36-.38.59-.5.23-.12.48-.18.75-.18s.53.06.75.18ZM215.61,13.46c-.14.09-.27.21-.37.37-.1.16-.19.35-.25.57-.06.22-.09.46-.09.73s.03.52.09.75c.06.23.14.42.24.59.11.16.23.29.38.38s.3.14.47.14.33-.05.48-.14.27-.22.37-.38c.1-.16.18-.36.24-.59.06-.23.09-.47.09-.74s-.03-.51-.09-.73c-.06-.22-.14-.41-.24-.57-.1-.16-.23-.28-.37-.37-.15-.09-.31-.13-.48-.13s-.33.04-.47.13Z"/><path d="M221.16,14.25v.13c0,.06,0,.1.03.12.02.02.05.03.09.03.02,0,.03,0,.05,0,.02,0,.03,0,.05-.02.02,0,.03-.02.05-.03.02-.02.04-.03.06-.05.1-.08.2-.14.31-.18.11-.04.23-.06.37-.06.15,0,.29.03.42.08.13.05.24.13.33.25.04.05.08.09.12.11.04.02.08.03.12.03.02,0,.03,0,.05,0s.04-.01.05-.02c.01,0,.03-.02.05-.04.02-.02.04-.04.06-.06.11-.11.23-.19.36-.25.14-.06.28-.09.45-.09.34,0,.6.11.79.34s.28.55.28.97v2.05h-.64v-1.97c0-.26-.06-.47-.18-.62-.12-.15-.28-.23-.49-.23-.11,0-.2.02-.29.06s-.17.1-.23.18c-.07.08-.12.18-.15.29-.03.11-.05.23-.05.37v1.92h-.64v-1.97c0-.13-.02-.24-.05-.35-.03-.11-.08-.2-.14-.27-.06-.07-.13-.13-.21-.17-.08-.04-.18-.06-.28-.06s-.2.02-.29.06c-.09.04-.17.1-.23.19-.06.08-.11.18-.15.29-.04.11-.05.24-.05.37v1.9h-.64v-3.31h.6Z"/><path d="M226.74,14.25v.13c0,.06,0,.1.03.12.02.02.05.03.09.03.02,0,.03,0,.05,0,.02,0,.03,0,.05-.02.02,0,.03-.02.05-.03.02-.02.04-.03.06-.05.1-.08.2-.14.31-.18.11-.04.23-.06.37-.06.15,0,.29.03.42.08.13.05.24.13.33.25.04.05.08.09.12.11.04.02.08.03.12.03.02,0,.03,0,.05,0s.04-.01.05-.02c.01,0,.03-.02.05-.04.02-.02.04-.04.06-.06.11-.11.23-.19.36-.25.14-.06.28-.09.45-.09.34,0,.6.11.79.34s.28.55.28.97v2.05h-.64v-1.97c0-.26-.06-.47-.18-.62-.12-.15-.28-.23-.49-.23-.11,0-.2.02-.29.06s-.17.1-.23.18c-.07.08-.12.18-.15.29-.03.11-.05.23-.05.37v1.92h-.64v-1.97c0-.13-.02-.24-.05-.35-.03-.11-.08-.2-.14-.27-.06-.07-.13-.13-.21-.17-.08-.04-.18-.06-.28-.06s-.2.02-.29.06c-.09.04-.17.1-.23.19-.06.08-.11.18-.15.29-.04.11-.05.24-.05.37v1.9h-.64v-3.31h.6Z"/></g></g></svg>