<svg viewBox="0 0 531.26 288" xmlns="http://www.w3.org/2000/svg"><defs><style>.cls-1 {
        stroke-width: .29px;
      }

      .cls-1, .cls-2, .cls-3, .cls-4 {
        stroke: #000;
      }

      .cls-1, .cls-2, .cls-3, .cls-4, .cls-5, .cls-6, .cls-7, .cls-8, .cls-9, .cls-10, .cls-11, .cls-12, .cls-13 {
        fill: none;
      }

      .cls-1, .cls-2, .cls-3, .cls-5, .cls-6, .cls-7, .cls-8, .cls-9, .cls-10, .cls-11, .cls-12, .cls-13 {
        stroke-linecap: round;
        stroke-linejoin: round;
      }

      .cls-2, .cls-11 {
        stroke-width: .3px;
      }

      .cls-3, .cls-13 {
        stroke-width: .3px;
      }

      .cls-14 {
        fill: #12100a;
      }

      .cls-4 {
        stroke-miterlimit: 10;
        stroke-width: .28px;
      }

      .cls-5, .cls-6, .cls-7 {
        stroke: #877069;
      }

      .cls-5, .cls-8 {
        stroke-width: .3px;
      }

      .cls-6, .cls-9 {
        stroke-width: .3px;
      }

      .cls-7, .cls-10 {
        stroke-width: .3px;
      }

      .cls-8, .cls-9, .cls-10, .cls-11, .cls-12, .cls-13 {
        stroke: #12100a;
      }

      .cls-12 {
        stroke-width: .3px;
      }</style></defs><g id="bases"><rect height="358.35" width="589.11" y="-33.95" x="-25.44" class="cls-4"/></g><g id="Urban"><g id="Frame"><g id="mesa_smart"><g><polygon points="331.72 79.74 331.72 95.46 329.83 95.46 329.83 98.31 329.78 98.31 329.78 76.95 329.83 76.95 329.83 79.74 331.72 79.74" class="cls-12"/><path d="M315.64,76.95v1.07c0,.27-.22.49-.49.49h-10.03c-.27,0-.49-.22-.49-.49v-1.07h11.01Z" class="cls-12"/><path d="M315.64,97.18v1.13h-11.01v-1.13c0-.27.22-.49.49-.49h10.03c.27,0,.49.22.49.49Z" class="cls-12"/><path d="M315.64,76.95v1.07c0,.27-.22.49-.49.49h-10.03c-.27,0-.49-.22-.49-.49v-1.07h11.01Z" class="cls-12"/><path d="M315.64,97.18v1.13h-11.01v-1.13c0-.27.22-.49.49-.49h10.03c.27,0,.49.22.49.49Z" class="cls-12"/></g><g><path d="M12.66,242.47l-4.62-1.78v2.69h-.67v-3.5h.59l4.7,1.77v.83Z"/><path d="M7.38,236.74h5.29v.73h-4.36s.08.04.1.06c.03.02.06.04.09.07l2.02,1.35s.06.04.08.05.05.03.08.06v-3.2h.64v3.98h-.59l-3.35-2.22v-.87Z"/><path d="M7.52,232.56c.13-.25.32-.47.55-.65.23-.18.52-.32.85-.42.33-.1.69-.15,1.08-.15s.76.05,1.1.15.62.24.86.42c.24.18.43.4.56.65.13.25.2.52.2.83s-.07.57-.2.82-.32.47-.56.65c-.24.18-.53.32-.86.42-.33.1-.7.15-1.1.15s-.75-.05-1.08-.15c-.33-.1-.61-.24-.85-.42-.24-.18-.42-.4-.55-.65-.13-.25-.2-.53-.2-.83s.07-.58.2-.83ZM8.15,233.92c.1.16.23.29.41.41.18.11.38.2.63.27.24.07.51.1.81.1s.57-.03.82-.09c.25-.06.46-.15.64-.27.18-.12.32-.25.42-.41.1-.16.15-.33.15-.52s-.05-.37-.15-.53c-.1-.16-.24-.3-.42-.41-.18-.11-.39-.2-.64-.27-.25-.06-.52-.09-.82-.09s-.56.03-.81.09c-.25.06-.46.15-.63.26-.17.11-.31.25-.41.41-.1.16-.15.34-.15.53s.05.37.15.52Z"/><path d="M9.02,227.73h.67c-.24-.11-.42-.26-.54-.45-.12-.18-.18-.4-.18-.63,0-.26.07-.48.2-.67.14-.19.33-.32.59-.41-.26-.11-.45-.27-.59-.46-.14-.2-.2-.43-.2-.7,0-.38.12-.67.37-.88.25-.21.61-.31,1.07-.31h2.25v.7h-2.16c-.29,0-.52.07-.69.2-.17.13-.25.31-.25.54,0,.12.02.22.07.32.05.1.11.18.2.26.09.07.19.13.32.16.12.04.26.06.4.06h2.11v.7h-2.16c-.14,0-.27.02-.38.06-.12.04-.22.09-.3.15-.08.06-.14.14-.19.23-.04.09-.07.2-.07.31s.02.22.07.32c.05.1.12.18.21.25.09.07.2.12.32.17.12.04.26.06.41.06h2.09v.7h-3.64v-.68Z"/><path d="M9.02,221.55h.67c-.24-.11-.42-.26-.54-.45-.12-.18-.18-.4-.18-.63,0-.26.07-.48.2-.67.14-.19.33-.32.59-.41-.26-.11-.45-.27-.59-.46-.14-.2-.2-.43-.2-.7,0-.38.12-.67.37-.88.25-.21.61-.31,1.07-.31h2.25v.7h-2.16c-.29,0-.52.07-.69.2-.17.13-.25.31-.25.54,0,.12.02.22.07.32.05.1.11.18.2.26.09.07.19.13.32.16.12.04.26.06.4.06h2.11v.7h-2.16c-.14,0-.27.02-.38.06-.12.04-.22.09-.3.15-.08.06-.14.14-.19.23-.04.09-.07.2-.07.31s.02.22.07.32c.05.1.12.18.21.25.09.07.2.12.32.17.12.04.26.06.41.06h2.09v.7h-3.64v-.68Z"/></g><g><path d="M12.66,103.55l-4.62-1.78v2.69h-.67v-3.5h.59l4.7,1.77v.83Z"/><path d="M12.54,99.46c-.12.24-.29.44-.51.61-.22.17-.5.3-.82.39s-.69.14-1.09.14-.8-.05-1.15-.15c-.35-.1-.64-.24-.89-.43-.25-.18-.43-.41-.56-.67-.13-.26-.2-.55-.2-.88,0-.37.09-.7.27-.97.18-.27.43-.47.76-.59l.29.64c-.21.07-.37.18-.48.34-.11.16-.17.35-.17.56,0,.2.05.38.14.55s.23.31.4.44c.17.13.37.22.61.29s.49.1.77.1h.17c.06,0,.1,0,.15,0-.25-.08-.45-.23-.59-.45-.14-.22-.21-.48-.21-.79,0-.24.04-.46.12-.65.08-.2.19-.36.34-.5.15-.14.32-.25.52-.33.2-.08.42-.12.66-.12s.47.04.68.13c.21.08.38.2.53.35.14.15.26.32.34.53s.12.43.12.68c0,.3-.06.57-.18.81ZM11.97,98.29c-.05-.12-.12-.22-.21-.3-.09-.08-.19-.15-.31-.2-.12-.05-.26-.07-.41-.07s-.29.02-.41.07c-.12.05-.23.12-.32.2s-.16.19-.21.31-.07.25-.07.4.02.27.07.39.12.22.2.31c.09.09.19.15.31.2.12.05.25.07.4.07s.28-.03.41-.08.24-.12.34-.21.17-.2.22-.32c.05-.12.08-.26.08-.4s-.03-.26-.08-.38Z"/><path d="M7.52,93.49c.13-.25.32-.47.55-.65.23-.18.52-.32.85-.42.33-.1.69-.15,1.08-.15s.76.05,1.1.15.62.24.86.42c.24.18.43.4.56.65.13.25.2.52.2.83s-.07.57-.2.82-.32.47-.56.65c-.24.18-.53.32-.86.42-.33.1-.7.15-1.1.15s-.75-.05-1.08-.15c-.33-.1-.61-.24-.85-.42-.24-.18-.42-.4-.55-.65-.13-.25-.2-.53-.2-.83s.07-.58.2-.83ZM8.15,94.84c.1.16.23.29.41.41.18.11.38.2.63.27.24.07.51.1.81.1s.57-.03.82-.09c.25-.06.46-.15.64-.27.18-.12.32-.25.42-.41.1-.16.15-.33.15-.52s-.05-.37-.15-.53c-.1-.16-.24-.3-.42-.41-.18-.11-.39-.2-.64-.27-.25-.06-.52-.09-.82-.09s-.56.03-.81.09c-.25.06-.46.15-.63.26-.17.11-.31.25-.41.41-.1.16-.15.34-.15.53s.05.37.15.52Z"/><path d="M9.02,88.66h.67c-.24-.11-.42-.26-.54-.45-.12-.18-.18-.4-.18-.63,0-.26.07-.48.2-.67.14-.19.33-.32.59-.41-.26-.11-.45-.27-.59-.46-.14-.2-.2-.43-.2-.7,0-.38.12-.67.37-.88.25-.21.61-.31,1.07-.31h2.25v.7h-2.16c-.29,0-.52.07-.69.2-.17.13-.25.31-.25.54,0,.12.02.22.07.32.05.1.11.18.2.26.09.07.19.13.32.16.12.04.26.06.4.06h2.11v.7h-2.16c-.14,0-.27.02-.38.06-.12.04-.22.09-.3.15-.08.06-.14.14-.19.23-.04.09-.07.2-.07.31s.02.22.07.32c.05.1.12.18.21.25.09.07.2.12.32.17.12.04.26.06.41.06h2.09v.7h-3.64v-.68Z"/><path d="M9.02,82.48h.67c-.24-.11-.42-.26-.54-.45-.12-.18-.18-.4-.18-.63,0-.26.07-.48.2-.67.14-.19.33-.32.59-.41-.26-.11-.45-.27-.59-.46-.14-.2-.2-.43-.2-.7,0-.38.12-.67.37-.88.25-.21.61-.31,1.07-.31h2.25v.7h-2.16c-.29,0-.52.07-.69.2-.17.13-.25.31-.25.54,0,.12.02.22.07.32.05.1.11.18.2.26.09.07.19.13.32.16.12.04.26.06.4.06h2.11v.7h-2.16c-.14,0-.27.02-.38.06-.12.04-.22.09-.3.15-.08.06-.14.14-.19.23-.04.09-.07.2-.07.31s.02.22.07.32c.05.1.12.18.21.25.09.07.2.12.32.17.12.04.26.06.41.06h2.09v.7h-3.64v-.68Z"/></g><g><line y2="145.6" x2="16.56" y1="29.58" x1="16.56" class="cls-13"/><rect height=".3" width="1.95" y="29.43" x="15.59" class="cls-14"/><rect height=".3" width="1.95" y="145.45" x="15.59" class="cls-14"/></g><g><line y2="283.23" x2="16.56" y1="170.28" x1="16.56" class="cls-13"/><rect height=".3" width="1.95" y="170.13" x="15.59" class="cls-14"/><rect height=".3" width="1.95" y="283.08" x="15.59" class="cls-14"/></g><g><line y2="170.59" x2="329.83" y1="171.66" x1="329.83" class="cls-6"/><polyline points="39.03 171.66 39.03 283.38 52.81 283.38 52.81 185.43 316.05 185.43 316.05 283.38 329.83 283.38 329.83 171.66" class="cls-9"/><line y2="170.59" x2="39.03" y1="171.66" x1="39.03" class="cls-6"/><rect height="1.53" width="290.79" y="170.13" x="39.03" class="cls-9"/></g><g><polyline points="380.52 171.65 380.52 283.38 496.83 283.38 496.83 171.65" class="cls-8"/><line y2="171.65" x2="380.52" y1="171.65" x1="382.05" class="cls-5"/><line y2="171.65" x2="495.3" y1="171.65" x1="496.83" class="cls-5"/><line y2="182.36" x2="495.3" y1="170.58" x1="495.3" class="cls-5"/><g><g><path d="M382.49,170.13h5.33c.21,0,.38.17.38.38v11.86h-6.09v-11.86c0-.21.17-.38.38-.38Z" class="cls-8"/><path d="M390.09,170.13h5.33c.21,0,.38.17.38.38v11.86h-6.09v-11.86c0-.21.17-.38.38-.38Z" class="cls-8"/><path d="M397.75,170.13h5.33c.21,0,.38.17.38.38v11.86h-6.09v-11.86c0-.21.17-.38.38-.38Z" class="cls-8"/><path d="M405.4,170.13h5.33c.21,0,.38.17.38.38v11.86h-6.09v-11.86c0-.21.17-.38.38-.38Z" class="cls-8"/><path d="M413.05,170.13h5.33c.21,0,.38.17.38.38v11.86h-6.09v-11.86c0-.21.17-.38.38-.38Z" class="cls-8"/><path d="M420.7,170.13h5.33c.21,0,.38.17.38.38v11.86h-6.09v-11.86c0-.21.17-.38.38-.38Z" class="cls-8"/><path d="M451.32,170.13h5.33c.21,0,.38.17.38.38v11.86h-6.09v-11.86c0-.21.17-.38.38-.38Z" class="cls-8"/><path d="M458.97,170.13h5.33c.21,0,.38.17.38.38v11.86h-6.09v-11.86c0-.21.17-.38.38-.38Z" class="cls-8"/><path d="M466.62,170.13h5.33c.21,0,.38.17.38.38v11.86h-6.09v-11.86c0-.21.17-.38.38-.38Z" class="cls-8"/><path d="M474.27,170.13h5.33c.21,0,.38.17.38.38v11.86h-6.09v-11.86c0-.21.17-.38.38-.38Z" class="cls-8"/><path d="M481.92,170.13h5.33c.21,0,.38.17.38.38v11.86h-6.09v-11.86c0-.21.17-.38.38-.38Z" class="cls-8"/><path d="M489.58,170.13h5.33c.21,0,.38.17.38.38v11.86h-6.09v-11.86c0-.21.17-.38.38-.38Z" class="cls-8"/></g><g><path d="M388.2,178.16c0-.22.16-.39.39-.39h.71c.23,0,.42.18.42.39" class="cls-8"/><path d="M395.82,178.16c0-.22.19-.39.42-.39h.71c.23,0,.42.18.42.39" class="cls-8"/><path d="M403.47,178.16c0-.22.19-.39.42-.39h.71c.23,0,.42.18.42.39" class="cls-8"/><path d="M411.12,178.16c0-.22.19-.39.42-.39h.71c.23,0,.42.18.42.39" class="cls-8"/><path d="M418.77,178.16c0-.22.19-.39.42-.39h.71c.23,0,.42.18.42.39" class="cls-8"/><path d="M426.42,178.16c0-.22.19-.39.42-.39h.71c.23,0,.42.18.42.39" class="cls-8"/><path d="M449.39,178.16c0-.22.19-.39.42-.39h.71c.23,0,.42.18.42.39" class="cls-8"/><path d="M457.03,178.16c0-.22.19-.39.42-.39h.71c.23,0,.42.18.42.39" class="cls-8"/><path d="M464.7,178.18c0-.22.19-.39.42-.39h.71c.23,0,.42.18.42.39" class="cls-8"/><path d="M472.34,178.16c0-.22.19-.39.42-.39h.71c.23,0,.42.18.42.39" class="cls-8"/><path d="M479.99,178.18c0-.22.19-.39.42-.39h.71c.23,0,.42.18.42.39" class="cls-8"/><path d="M487.64,178.19c0-.22.19-.39.42-.39h.71c.23,0,.42.18.42.39" class="cls-8"/></g></g><g><line y2="281.85" x2="382.05" y1="171.19" x1="382.11" class="cls-8"/><line y2="281.88" x2="495.3" y1="171.65" x1="495.3" class="cls-8"/><polyline points="382.05 171.65 380.52 171.65 380.52 283.38 496.83 283.38 496.83 171.65 495.3 171.65" class="cls-8"/><line y2="188.48" x2="382.16" y1="188.48" x1="495.3" class="cls-8"/><line y2="281.88" x2="382.05" y1="281.88" x1="495.3" class="cls-8"/></g></g><g><path d="M171.29,5.26v5.29h-.72v-4.54l-1.3.64v-.73l1.36-.67h.67Z"/><path d="M174.66,5.38c.24.12.44.29.61.51.17.22.3.5.39.82.09.32.14.69.14,1.09s-.05.8-.15,1.15c-.1.35-.24.64-.43.89s-.41.43-.67.56c-.26.13-.55.2-.88.2-.37,0-.7-.09-.97-.27-.27-.18-.47-.43-.59-.76l.64-.29c.07.21.18.37.34.48.16.11.35.17.56.17.2,0,.38-.05.55-.14.17-.09.31-.23.44-.4.13-.17.22-.37.29-.61.07-.24.1-.49.1-.77v-.17c0-.06,0-.1,0-.15-.08.25-.23.45-.45.59-.22.14-.48.21-.79.21-.24,0-.46-.04-.65-.12-.2-.08-.36-.19-.5-.34-.14-.14-.25-.32-.33-.52-.08-.2-.12-.42-.12-.66s.04-.47.13-.68c.08-.21.2-.38.35-.52.15-.14.32-.26.53-.34.21-.08.43-.12.68-.12.3,0,.57.06.81.18ZM173.49,5.95c-.12.05-.22.12-.3.21-.08.09-.15.19-.2.31-.05.12-.07.26-.07.41s.02.29.07.41c.05.12.12.23.2.32.09.09.19.16.31.21.12.05.25.07.4.07s.27-.02.39-.07c.12-.05.22-.12.31-.2.09-.09.15-.19.2-.31.05-.12.07-.25.07-.4s-.03-.28-.08-.41c-.05-.13-.13-.24-.21-.34-.09-.1-.2-.17-.32-.22s-.26-.08-.4-.08-.26.03-.38.08Z"/><path d="M179.23,5.4c.25.13.47.32.65.55.18.23.32.52.42.85.1.33.15.69.15,1.08s-.05.76-.15,1.1-.24.62-.42.86c-.18.24-.4.43-.65.56-.25.13-.52.2-.83.2s-.57-.07-.82-.2-.47-.32-.65-.56c-.18-.24-.32-.53-.42-.86-.1-.33-.15-.7-.15-1.1s.05-.75.15-1.08c.1-.33.24-.61.42-.85.18-.24.4-.42.65-.55.25-.13.53-.2.83-.2s.58.07.83.2ZM177.87,6.03c-.16.1-.29.23-.41.41-.11.18-.2.38-.27.63-.07.24-.1.51-.1.81s.03.57.09.82c.06.25.15.46.27.64.12.18.25.32.41.42.16.1.33.15.52.15s.37-.05.53-.15c.16-.1.3-.24.41-.42.11-.18.2-.39.27-.64.06-.25.09-.52.09-.82s-.03-.56-.09-.81c-.06-.25-.15-.46-.26-.63-.11-.17-.25-.31-.41-.41-.16-.1-.34-.15-.53-.15s-.37.05-.52.15Z"/><path d="M183.86,5.4c.25.13.47.32.65.55.18.23.32.52.42.85.1.33.15.69.15,1.08s-.05.76-.15,1.1-.24.62-.42.86c-.18.24-.4.43-.65.56-.25.13-.52.2-.83.2s-.57-.07-.82-.2-.47-.32-.65-.56c-.18-.24-.32-.53-.42-.86-.1-.33-.15-.7-.15-1.1s.05-.75.15-1.08c.1-.33.24-.61.42-.85.18-.24.4-.42.65-.55.25-.13.53-.2.83-.2s.58.07.83.2ZM182.51,6.03c-.16.1-.29.23-.41.41-.11.18-.2.38-.27.63-.07.24-.1.51-.1.81s.03.57.09.82c.06.25.15.46.27.64.12.18.25.32.41.42.16.1.33.15.52.15s.37-.05.53-.15c.16-.1.3-.24.41-.42.11-.18.2-.39.27-.64.06-.25.09-.52.09-.82s-.03-.56-.09-.81c-.06-.25-.15-.46-.26-.63-.11-.17-.25-.31-.41-.41-.16-.1-.34-.15-.53-.15s-.37.05-.52.15Z"/><path d="M188.69,6.9v.67c.11-.24.26-.42.45-.54.18-.12.4-.18.63-.18.26,0,.48.07.67.2.19.14.32.33.41.59.11-.26.27-.45.46-.59.2-.14.43-.2.7-.2.38,0,.67.12.88.37.21.25.31.61.31,1.07v2.25h-.7v-2.16c0-.29-.07-.52-.2-.69-.13-.17-.31-.25-.54-.25-.12,0-.22.02-.32.07-.1.05-.18.11-.26.2-.07.09-.13.19-.16.32-.04.12-.06.26-.06.4v2.11h-.7v-2.16c0-.14-.02-.27-.06-.38-.04-.12-.09-.22-.15-.3-.06-.08-.14-.14-.23-.19-.09-.04-.2-.07-.31-.07s-.22.02-.32.07c-.1.05-.18.12-.25.21-.07.09-.12.2-.17.32-.04.12-.06.26-.06.41v2.09h-.7v-3.64h.68Z"/><path d="M194.87,6.9v.67c.11-.24.26-.42.45-.54.18-.12.4-.18.63-.18.26,0,.48.07.67.2.19.14.32.33.41.59.11-.26.27-.45.46-.59.2-.14.43-.2.7-.2.38,0,.67.12.88.37.21.25.31.61.31,1.07v2.25h-.7v-2.16c0-.29-.07-.52-.2-.69-.13-.17-.31-.25-.54-.25-.12,0-.22.02-.32.07-.1.05-.18.11-.26.2-.07.09-.13.19-.16.32-.04.12-.06.26-.06.4v2.11h-.7v-2.16c0-.14-.02-.27-.06-.38-.04-.12-.09-.22-.15-.3-.06-.08-.14-.14-.23-.19-.09-.04-.2-.07-.31-.07s-.22.02-.32.07c-.1.05-.18.12-.25.21-.07.09-.12.2-.17.32-.04.12-.06.26-.06.41v2.09h-.7v-3.64h.68Z"/></g><g><line y2="14.48" x2="39.19" y1="14.48" x1="329.68" class="cls-3"/><rect height="1.95" width=".3" y="13.5" x="329.53"/><rect height="1.95" width=".3" y="13.5" x="39.04"/></g><g><rect height="1.54" width="1.23" y="44.75" x="52.23" class="cls-3"/><rect height="1.5" width="1.23" y="37.11" x="52.23" class="cls-13"/><rect height="1.55" width="1.23" y="52.41" x="52.23" class="cls-3"/><rect height="1.54" width="1.23" y="60.08" x="52.23" class="cls-3"/><rect height="1.54" width="1.23" y="67.74" x="52.23" class="cls-3"/><rect height="1.54" width="1.23" y="75.4" x="52.23" class="cls-3"/><rect height="1.54" width="1.23" y="83.07" x="52.23" class="cls-3"/><rect height="1.54" width="1.23" y="90.73" x="52.23" class="cls-3"/><rect height="1.54" width="1.23" y="98.39" x="52.23" class="cls-3"/><rect height="1.54" width="1.23" y="106.05" x="52.23" class="cls-3"/><rect height="1.54" width="1.23" y="113.72" x="52.23" class="cls-3"/><rect height="1.54" width="1.23" y="121.38" x="52.23" class="cls-3"/><rect height="1.54" width="1.23" y="129.04" x="52.23" class="cls-3"/><line y2="136.7" x2="53.46" y1="136.7" x1="52.23" class="cls-1"/><rect height="1.54" width="1.22" y="44.75" x="116.09" class="cls-3"/><rect height="1.54" width="1.22" y="37.08" x="116.09" class="cls-3"/><rect height="1.55" width="1.22" y="52.41" x="116.09" class="cls-3"/><rect height="1.54" width="1.22" y="60.08" x="116.09" class="cls-3"/><rect height="1.54" width="1.22" y="67.74" x="116.09" class="cls-3"/><rect height="1.54" width="1.22" y="75.4" x="116.09" class="cls-3"/><rect height="1.54" width="1.22" y="83.07" x="116.09" class="cls-3"/><rect height="1.54" width="1.22" y="90.73" x="116.09" class="cls-3"/><rect height="1.54" width="1.22" y="98.39" x="116.09" class="cls-3"/><rect height="1.54" width="1.22" y="106.05" x="116.09" class="cls-3"/><rect height="1.54" width="1.22" y="113.72" x="116.09" class="cls-3"/><rect height="1.54" width="1.22" y="121.38" x="116.09" class="cls-3"/><rect height="1.54" width="1.22" y="129.04" x="116.09" class="cls-3"/><line y2="136.7" x2="117.31" y1="136.7" x1="116.09" class="cls-1"/><rect height="1.54" width="1.22" y="44.75" x="315.08" class="cls-3"/><rect height="1.49" width="1.22" y="37.11" x="315.08" class="cls-3"/><rect height="1.55" width="1.22" y="52.41" x="315.08" class="cls-3"/><rect height="1.54" width="1.22" y="60.08" x="315.08" class="cls-3"/><rect height="1.54" width="1.22" y="67.74" x="315.08" class="cls-3"/><rect height="1.54" width="1.22" y="75.4" x="315.08" class="cls-3"/><rect height="1.54" width="1.22" y="98.39" x="315.08" class="cls-3"/><rect height="1.54" width="1.22" y="106.05" x="315.08" class="cls-3"/><rect height="1.54" width="1.22" y="113.72" x="315.08" class="cls-3"/><rect height="1.54" width="1.22" y="121.38" x="315.08" class="cls-3"/><rect height="1.54" width="1.22" y="129.04" x="315.08" class="cls-3"/><polyline points="316.3 138.24 316.3 136.7 315.08 136.7" class="cls-13"/><line y2="138.22" x2="315.09" y1="136.7" x1="315.09" class="cls-13"/><rect height="1.54" width="1.23" y="37.09" x="250.98" class="cls-13"/><rect height="1.54" width="1.23" y="44.75" x="250.98" class="cls-3"/><rect height="1.55" width="1.23" y="52.41" x="250.98" class="cls-3"/><rect height="1.54" width="1.23" y="60.08" x="250.98" class="cls-3"/><rect height="1.54" width="1.23" y="67.74" x="250.98" class="cls-3"/><rect height="1.54" width="1.23" y="75.4" x="250.98" class="cls-3"/><rect height="1.54" width="1.23" y="98.39" x="250.98" class="cls-3"/><rect height="1.54" width="1.23" y="106.05" x="250.98" class="cls-3"/><rect height="1.54" width="1.23" y="113.72" x="250.98" class="cls-3"/><rect height="1.54" width="1.23" y="121.38" x="250.98" class="cls-3"/><rect height="1.54" width="1.23" y="129.04" x="250.98" class="cls-3"/><line y2="136.7" x2="252.21" y1="136.7" x1="250.98" class="cls-3"/><rect height="1.54" width="1.22" y="44.75" x="187.29" class="cls-3"/><rect height="1.49" width="1.22" y="37.11" x="187.29" class="cls-3"/><rect height="1.55" width="1.22" y="52.41" x="187.29" class="cls-3"/><rect height="1.54" width="1.22" y="60.08" x="187.29" class="cls-3"/><rect height="1.54" width="1.22" y="67.74" x="187.29" class="cls-3"/><rect height="1.54" width="1.22" y="75.4" x="187.29" class="cls-3"/><rect height="1.54" width="1.22" y="83.07" x="187.29" class="cls-3"/><rect height="1.54" width="1.22" y="90.73" x="187.29" class="cls-3"/><rect height="1.54" width="1.22" y="98.39" x="187.29" class="cls-3"/><rect height="1.54" width="1.22" y="106.05" x="187.29" class="cls-3"/><rect height="1.54" width="1.22" y="113.72" x="187.29" class="cls-3"/><rect height="1.54" width="1.22" y="121.38" x="187.29" class="cls-3"/><rect height="1.54" width="1.22" y="129.04" x="187.29" class="cls-3"/><rect height="1.57" width="1.22" y="136.7" x="187.29" class="cls-1"/><g><line y2="138.24" x2="188.51" y1="138.24" x1="250.98" class="cls-13"/><polyline points="316.34 138.23 314.84 138.24 252.21 138.24" class="cls-13"/><polyline points="52.23 138.24 39.03 138.24 39.03 136.7 329.83 136.7 329.83 138.24 316.3 138.24" class="cls-13"/><line y2="138.24" x2="53.46" y1="138.24" x1="116.09" class="cls-13"/><line y2="138.24" x2="117.31" y1="138.24" x1="187.29" class="cls-13"/><rect height="1.38" width="290.8" y="144.37" x="39.03" class="cls-13"/><rect height="1.54" width="290.8" y="129.04" x="39.03" class="cls-13"/><rect height="1.54" width="290.8" y="121.38" x="39.03" class="cls-13"/><rect height="1.54" width="290.8" y="113.72" x="39.03" class="cls-13"/><rect height="1.54" width="290.8" y="106.05" x="39.03" class="cls-13"/><rect height="1.54" width="290.8" y="98.39" x="39.03" class="cls-13"/><rect height="1.54" width="152.27" y="90.72" x="39.03" class="cls-13"/><rect height="1.54" width=".05" y="90.72" x="329.78" class="cls-13"/><rect height="1.54" width="152.27" y="83.06" x="39.03" class="cls-13"/><rect height="1.54" width=".05" y="83.06" x="329.78" class="cls-13"/><rect height="1.54" width="290.8" y="75.4" x="39.03" class="cls-13"/><rect height="1.54" width="290.8" y="67.74" x="39.03" class="cls-13"/><rect height="1.54" width="290.8" y="60.08" x="39.03" class="cls-13"/><rect height="1.55" width="290.8" y="52.41" x="39.03" class="cls-13"/><rect height="1.54" width="290.8" y="44.75" x="39.03" class="cls-13"/><line y2="38.63" x2="39.03" y1="38.63" x1="329.83" class="cls-13"/><rect height="6.12" width="290.8" y="30.97" x="39.03" class="cls-13"/><rect height="1.53" width="290.8" y="29.44" x="39.03" class="cls-13"/></g><line y2="37.09" x2="59.62" y1="38.63" x1="59.62" class="cls-3"/><line y2="52.41" x2="59.62" y1="53.96" x1="59.62" class="cls-3"/><line y2="67.74" x2="59.62" y1="69.28" x1="59.62" class="cls-3"/><line y2="83.07" x2="59.62" y1="84.61" x1="59.62" class="cls-3"/><line y2="98.39" x2="59.62" y1="99.93" x1="59.62" class="cls-3"/><line y2="113.72" x2="59.62" y1="115.26" x1="59.62" class="cls-3"/><line y2="129.04" x2="59.62" y1="130.58" x1="59.62" class="cls-3"/><line y2="144.37" x2="59.62" y1="145.62" x1="59.62" class="cls-3"/><line y2="136.7" x2="59.62" y1="138.24" x1="59.62" class="cls-3"/><line y2="121.38" x2="59.62" y1="122.92" x1="59.62" class="cls-3"/><line y2="106.05" x2="59.62" y1="107.59" x1="59.62" class="cls-3"/><line y2="90.73" x2="59.62" y1="92.27" x1="59.62" class="cls-3"/><line y2="75.4" x2="59.62" y1="76.94" x1="59.62" class="cls-3"/><line y2="60.08" x2="59.62" y1="61.62" x1="59.62" class="cls-3"/><line y2="44.75" x2="59.62" y1="46.29" x1="59.62" class="cls-3"/><polyline points="59.62 30.97 59.62 29.44 59.62 29.4" class="cls-3"/><line y2="37.09" x2="123.05" y1="38.63" x1="123.05" class="cls-3"/><line y2="52.41" x2="123.05" y1="53.96" x1="123.05" class="cls-3"/><line y2="67.74" x2="123.05" y1="69.28" x1="123.05" class="cls-3"/><line y2="83.07" x2="123.05" y1="84.61" x1="123.05" class="cls-3"/><line y2="98.39" x2="123.05" y1="99.93" x1="123.05" class="cls-3"/><line y2="113.72" x2="123.05" y1="115.26" x1="123.05" class="cls-3"/><line y2="129.04" x2="123.05" y1="130.58" x1="123.05" class="cls-3"/><line y2="144.37" x2="123.05" y1="145.62" x1="123.05" class="cls-3"/><line y2="136.7" x2="123.05" y1="138.24" x1="123.05" class="cls-3"/><line y2="121.38" x2="123.05" y1="122.92" x1="123.05" class="cls-3"/><line y2="106.05" x2="123.05" y1="107.59" x1="123.05" class="cls-3"/><line y2="90.73" x2="123.05" y1="92.27" x1="123.05" class="cls-3"/><line y2="75.4" x2="123.05" y1="76.94" x1="123.05" class="cls-3"/><line y2="60.08" x2="123.05" y1="61.62" x1="123.05" class="cls-3"/><line y2="44.75" x2="123.05" y1="46.29" x1="123.05" class="cls-3"/><polyline points="123.05 30.97 123.05 29.44 123.05 29.4" class="cls-3"/><line y2="37.09" x2="182.23" y1="38.63" x1="182.23" class="cls-3"/><line y2="52.41" x2="182.23" y1="53.96" x1="182.23" class="cls-3"/><line y2="67.74" x2="182.23" y1="69.28" x1="182.23" class="cls-3"/><line y2="83.07" x2="182.23" y1="84.61" x1="182.23" class="cls-3"/><line y2="98.39" x2="182.23" y1="99.93" x1="182.23" class="cls-3"/><line y2="113.72" x2="182.23" y1="115.26" x1="182.23" class="cls-3"/><line y2="129.04" x2="182.23" y1="130.58" x1="182.23" class="cls-3"/><line y2="144.37" x2="182.23" y1="145.62" x1="182.23" class="cls-3"/><line y2="136.7" x2="182.23" y1="138.24" x1="182.23" class="cls-3"/><line y2="121.38" x2="182.23" y1="122.92" x1="182.23" class="cls-3"/><line y2="106.05" x2="182.23" y1="107.59" x1="182.23" class="cls-3"/><line y2="90.73" x2="182.23" y1="92.27" x1="182.23" class="cls-3"/><line y2="75.4" x2="182.23" y1="76.94" x1="182.23" class="cls-3"/><line y2="60.08" x2="182.23" y1="61.62" x1="182.23" class="cls-3"/><line y2="44.75" x2="182.23" y1="46.29" x1="182.23" class="cls-3"/><polyline points="182.23 30.97 182.23 29.44 182.23 29.4" class="cls-3"/><line y2="37.09" x2="245.66" y1="38.63" x1="245.66" class="cls-3"/><line y2="52.41" x2="245.66" y1="53.96" x1="245.66" class="cls-3"/><line y2="67.74" x2="245.66" y1="69.28" x1="245.66" class="cls-3"/><line y2="98.39" x2="245.66" y1="99.93" x1="245.66" class="cls-3"/><line y2="113.72" x2="245.66" y1="115.26" x1="245.66" class="cls-3"/><line y2="129.04" x2="245.66" y1="130.58" x1="245.66" class="cls-3"/><line y2="144.37" x2="245.66" y1="145.62" x1="245.66" class="cls-3"/><line y2="136.7" x2="245.66" y1="138.24" x1="245.66" class="cls-3"/><line y2="121.38" x2="245.66" y1="122.92" x1="245.66" class="cls-3"/><line y2="106.05" x2="245.66" y1="107.59" x1="245.66" class="cls-3"/><line y2="75.4" x2="245.66" y1="76.94" x1="245.66" class="cls-3"/><line y2="60.08" x2="245.66" y1="61.62" x1="245.66" class="cls-3"/><line y2="44.75" x2="245.66" y1="46.29" x1="245.66" class="cls-3"/><polyline points="245.66 30.97 245.66 29.44 245.66 29.4" class="cls-3"/><line y2="37.09" x2="309.09" y1="38.63" x1="309.09" class="cls-3"/><line y2="52.41" x2="309.09" y1="53.96" x1="309.09" class="cls-3"/><line y2="67.74" x2="309.09" y1="69.28" x1="309.09" class="cls-3"/><line y2="98.39" x2="309.09" y1="99.93" x1="309.09" class="cls-3"/><line y2="113.72" x2="309.09" y1="115.26" x1="309.09" class="cls-3"/><line y2="129.04" x2="309.09" y1="130.58" x1="309.09" class="cls-3"/><line y2="144.37" x2="309.09" y1="145.62" x1="309.09" class="cls-3"/><line y2="136.7" x2="309.09" y1="138.24" x1="309.09" class="cls-3"/><line y2="121.38" x2="309.09" y1="122.92" x1="309.09" class="cls-3"/><line y2="106.05" x2="309.09" y1="107.59" x1="309.09" class="cls-3"/><line y2="75.4" x2="309.09" y1="76.94" x1="309.09" class="cls-3"/><line y2="60.08" x2="309.09" y1="61.62" x1="309.09" class="cls-3"/><line y2="44.75" x2="309.09" y1="46.29" x1="309.09" class="cls-3"/><polyline points="309.09 30.97 309.09 29.44 309.09 29.4" class="cls-3"/><rect height="6.12" width="290.8" y="38.63" x="39.03" class="cls-13"/><rect height="6.12" width="290.8" y="46.29" x="39.03" class="cls-13"/><rect height="6.12" width="290.8" y="53.96" x="39.03" class="cls-13"/><rect height="6.12" width="290.8" y="61.62" x="39.03" class="cls-13"/><rect height="6.12" width="290.8" y="69.28" x="39.03" class="cls-13"/><path d="M329.78,76.95v21.36h-14.14v-1.13c0-.27-.22-.49-.49-.49h-10.03c-.27,0-.49.22-.49.49v1.13h-113.33v-21.36h113.33v1.07c0,.27.22.49.49.49h10.03c.27,0,.49-.22.49-.49v-1.07h14.14Z" class="cls-13"/><path d="M329.83,76.93v6.13h-.05v-6.11h-14.14v1.07c0,.27-.22.49-.49.49h-10.03c-.27,0-.49-.22-.49-.49v-1.07h-113.33v6.11H39.03v-6.13h290.8Z" class="cls-13"/><rect height="6.12" width="152.27" y="84.6" x="39.03" class="cls-13"/><rect height="6.12" width=".05" y="84.6" x="329.78" class="cls-13"/><rect height="6.12" width="290.8" y="99.93" x="39.03" class="cls-13"/><rect height="6.13" width="290.8" y="107.59" x="39.03" class="cls-13"/><rect height="6.12" width="290.8" y="115.26" x="39.03" class="cls-13"/><rect height="6.12" width="290.8" y="122.92" x="39.03" class="cls-13"/><rect height="6.12" width="290.8" y="130.58" x="39.03" class="cls-13"/><line y2="138.24" x2="53.46" y1="138.24" x1="52.23" class="cls-13"/><line y2="138.24" x2="117.31" y1="138.24" x1="116.09" class="cls-13"/><line y2="38.68" x2="329.83" y1="36.98" x1="329.83" class="cls-13"/><line y2="38.68" x2="39.03" y1="36.98" x1="39.03" class="cls-13"/></g><polyline points="252.21 136.7 252.21 138.24 250.98 138.24 250.98 136.7" class="cls-3"/><line y2="144.42" x2="329.83" y1="138.24" x1="329.83" class="cls-13"/><line y2="144.39" x2="39.03" y1="138.24" x1="39.03" class="cls-13"/><line y2="136.7" x2="52.23" y1="138.24" x1="52.23" class="cls-1"/><line y2="138.24" x2="53.46" y1="136.7" x1="53.46" class="cls-1"/><line y2="136.69" x2="116.09" y1="138.23" x1="116.09" class="cls-1"/><line y2="138.23" x2="117.32" y1="136.69" x1="117.32" class="cls-1"/><line y2="170.49" x2="38.74" y1="171.56" x1="38.74" class="cls-7"/><path d="M329.89,177.29h1.66v-1.84h-1.66,1.14c.42,0,.76-.34.76-.77v-3.06h-1.9" class="cls-10"/><g><g><polyline points="430.55 176.23 430.55 176.21 430.55 176.17 430.55 176.1 430.55 176 430.55 175.88 430.55 175.75 430.55 175.6 430.55 175.45 430.55 173.2 430.57 173.03 430.62 172.87 430.69 172.72 430.8 172.59 430.93 172.48 431.08 172.41 431.24 172.36 431.4 172.34 445.97 172.34 446.13 172.36 446.29 172.41 446.44 172.48 446.57 172.59 446.68 172.72 446.75 172.87 446.8 173.03 446.82 173.2 446.82 175.45 446.82 175.6 446.82 175.75 446.82 175.88 446.82 176 446.82 176.1 446.82 176.17 446.82 176.21 446.82 176.23" class="cls-11"/><path d="M428.17,170.18h21.01c.11,0,.19.09.19.19v11.98h-21.4v-11.98c0-.11.09-.19.19-.19Z" class="cls-11"/></g><g><g><g id="ARC"><path d="M433.43,174.68c-.58.43-.92,1.11-.92,1.84" class="cls-2"/></g><g id="ARC-2"><path d="M436.96,176.52c0-.73-.34-1.42-.92-1.84" class="cls-2"/></g><g id="CIRCLE"><ellipse ry="2.28" rx="2.22" cy="176.52" cx="434.74" class="cls-2"/></g><polyline points="433.43 174.68 433.43 173.73 436.04 173.73 436.04 174.68" class="cls-2"/></g><g><g id="ARC-3"><path d="M441.4,174.68c-.58.43-.92,1.11-.92,1.84" class="cls-2"/></g><g id="ARC-4"><path d="M444.92,176.52c0-.73-.34-1.42-.92-1.84" class="cls-2"/></g><g id="CIRCLE-2"><ellipse ry="2.28" rx="2.22" cy="176.52" cx="442.7" class="cls-2"/></g><polyline points="441.39 174.68 441.39 173.73 444 173.73 444 174.68" class="cls-2"/></g></g></g><line y2="98.36" x2="39.03" y1="92.26" x1="39.03" class="cls-13"/></g></g></g></svg>