<svg viewBox="0 0 531.27 288" xmlns:xlink="http://www.w3.org/1999/xlink" xmlns="http://www.w3.org/2000/svg" id="Camada_2"><defs><style>.cls-1,.cls-2{fill:none;}.cls-3{fill:#12100c;}.cls-2{stroke:#12100c;stroke-linecap:round;stroke-linejoin:round;stroke-width:.3px;}</style><symbol viewBox="0 0 531.27 288" id="fundo_transparente"><rect height="288" width="531.27" x="0" class="cls-1"/></symbol></defs><g id="Golf"><g id="Campo_de_Golf"><g id="estaca_para_corda"><use xlink:href="#fundo_transparente" height="288" width="531.27"/><rect height="15.93" width="15.93" y="268.72" x="132.16" class="cls-2"/><line y2="260.22" x2="132.31" y1="260.22" x1="147.94" class="cls-2"/><rect height="1.95" width=".3" y="259.24" x="147.79" class="cls-3"/><rect height="1.95" width=".3" y="259.24" x="132.16" class="cls-3"/><g id="MTEXT"><path d="M131.71,250.18v5.29h-.73v-4.36s-.04.08-.06.1c-.02.03-.04.06-.07.09l-1.35,2.02s-.04.06-.05.08-.03.05-.06.08h3.2v.64h-3.98v-.59l2.22-3.35h.87Z"/><path d="M135.89,250.32c.25.13.47.32.65.55.18.23.32.52.42.85.1.33.15.69.15,1.08s-.05.76-.15,1.1-.24.62-.42.86c-.18.24-.4.43-.65.56-.25.13-.52.2-.83.2s-.57-.07-.82-.2-.47-.32-.65-.56c-.18-.24-.32-.53-.42-.86-.1-.33-.15-.7-.15-1.1s.05-.75.15-1.08c.1-.33.24-.61.42-.85.18-.24.4-.42.65-.55.25-.13.53-.2.83-.2s.58.07.83.2ZM134.54,250.95c-.16.1-.29.23-.41.41-.11.18-.2.38-.27.63-.07.24-.1.51-.1.81s.03.57.09.82c.06.25.15.46.27.64.12.18.25.32.41.42.16.1.33.15.52.15s.37-.05.53-.15c.16-.1.3-.24.41-.42.11-.18.2-.39.27-.64.06-.25.09-.52.09-.82s-.03-.56-.09-.81c-.06-.25-.15-.46-.26-.63-.11-.17-.25-.31-.41-.41-.16-.1-.34-.15-.53-.15s-.37.05-.52.15Z"/><path d="M140.72,251.82v.67c.11-.24.26-.42.45-.54.18-.12.4-.18.63-.18.26,0,.48.07.67.2.19.14.32.33.41.59.11-.26.27-.45.46-.59.2-.14.43-.2.7-.2.38,0,.67.12.88.37.21.25.31.61.31,1.07v2.25h-.7v-2.16c0-.29-.07-.52-.2-.69-.13-.17-.31-.25-.54-.25-.12,0-.22.02-.32.07-.1.05-.18.11-.26.2-.07.09-.13.19-.16.32-.04.12-.06.26-.06.4v2.11h-.7v-2.16c0-.14-.02-.27-.06-.38-.04-.12-.09-.22-.15-.3-.06-.08-.14-.14-.23-.19-.09-.04-.2-.07-.31-.07s-.22.02-.32.07c-.1.05-.18.12-.25.21-.07.09-.12.2-.17.32-.04.12-.06.26-.06.41v2.09h-.7v-3.64h.68Z"/><path d="M146.9,251.82v.67c.11-.24.26-.42.45-.54.18-.12.4-.18.63-.18.26,0,.48.07.67.2.19.14.32.33.41.59.11-.26.27-.45.46-.59.2-.14.43-.2.7-.2.38,0,.67.12.88.37.21.25.31.61.31,1.07v2.25h-.7v-2.16c0-.29-.07-.52-.2-.69-.13-.17-.31-.25-.54-.25-.12,0-.22.02-.32.07-.1.05-.18.11-.26.2-.07.09-.13.19-.16.32-.04.12-.06.26-.06.4v2.11h-.7v-2.16c0-.14-.02-.27-.06-.38-.04-.12-.09-.22-.15-.3-.06-.08-.14-.14-.23-.19-.09-.04-.2-.07-.31-.07s-.22.02-.32.07c-.1.05-.18.12-.25.21-.07.09-.12.2-.17.32-.04.12-.06.26-.06.41v2.09h-.7v-3.64h.68Z"/></g><line y2="284.51" x2="123.65" y1="268.87" x1="123.65" class="cls-2"/><rect height=".3" width="1.95" y="268.72" x="122.68" class="cls-3"/><rect height=".3" width="1.95" y="284.36" x="122.68" class="cls-3"/><g id="MTEXT-2"><path d="M113.61,281.33h5.29v.73h-4.36s.08.04.1.06c.03.02.06.04.09.07l2.02,1.35s.06.04.08.05c.02,0,.05.03.08.06v-3.2h.64v3.98h-.59l-3.35-2.22v-.87Z"/><path d="M113.75,277.15c.13-.25.32-.47.55-.65.23-.18.52-.32.85-.42s.69-.15,1.08-.15.76.05,1.1.15c.33.1.62.24.86.42.24.18.43.4.56.65.13.25.2.52.2.83s-.07.57-.2.82-.32.47-.56.65c-.24.18-.53.32-.86.42-.33.1-.7.15-1.1.15s-.75-.05-1.08-.15c-.33-.1-.62-.24-.85-.42-.24-.18-.42-.4-.55-.65-.13-.25-.2-.53-.2-.83s.07-.58.2-.83ZM114.39,278.5c.1.16.23.29.41.41.17.11.38.2.63.27.24.07.51.1.81.1s.57-.03.82-.09c.25-.06.46-.15.64-.27.18-.12.32-.25.42-.41.1-.16.15-.33.15-.52s-.05-.37-.15-.53c-.1-.16-.24-.3-.42-.41-.18-.11-.39-.2-.64-.27s-.52-.09-.82-.09-.56.03-.81.09-.46.15-.63.26c-.17.11-.31.25-.41.41-.1.16-.15.34-.15.53s.05.37.15.52Z"/><path d="M115.26,272.32h.67c-.24-.11-.42-.26-.54-.45-.12-.18-.18-.4-.18-.63,0-.26.07-.48.2-.67s.33-.32.59-.41c-.26-.11-.45-.27-.59-.46s-.2-.43-.2-.7c0-.38.12-.67.38-.88.25-.21.61-.31,1.07-.31h2.25v.7h-2.16c-.29,0-.52.07-.69.2-.17.13-.25.31-.25.54,0,.12.02.22.07.32s.11.18.2.26.19.13.32.16c.12.04.26.06.4.06h2.11v.7h-2.16c-.14,0-.27.02-.38.06-.12.04-.22.09-.3.15s-.14.14-.19.23c-.04.09-.07.2-.07.31s.02.22.07.32.12.18.21.25c.09.07.2.12.32.17.12.04.26.06.41.06h2.09v.7h-3.64v-.68Z"/><path d="M115.26,266.14h.67c-.24-.11-.42-.26-.54-.45-.12-.18-.18-.4-.18-.63,0-.26.07-.48.2-.67s.33-.32.59-.41c-.26-.11-.45-.27-.59-.46s-.2-.43-.2-.7c0-.38.12-.67.38-.88.25-.21.61-.31,1.07-.31h2.25v.7h-2.16c-.29,0-.52.07-.69.2-.17.13-.25.31-.25.54,0,.12.02.22.07.32s.11.18.2.26.19.13.32.16c.12.04.26.06.4.06h2.11v.7h-2.16c-.14,0-.27.02-.38.06-.12.04-.22.09-.3.15s-.14.14-.19.23c-.04.09-.07.2-.07.31s.02.22.07.32.12.18.21.25c.09.07.2.12.32.17.12.04.26.06.41.06h2.09v.7h-3.64v-.68Z"/></g><line y2="200.71" x2="14.25" y1="21.76" x1="14.25" class="cls-2"/><rect height=".3" width="1.95" y="21.61" x="13.27" class="cls-3"/><rect height=".3" width="1.95" y="200.56" x="13.27" class="cls-3"/><g id="MTEXT-3"><path d="M4.2,121.64h5.29v.73h-4.36s.08.04.1.06c.03.02.06.04.09.07l2.02,1.35s.06.04.08.05c.02,0,.05.03.08.06v-3.2h.64v3.98h-.59l-3.35-2.22v-.87Z"/><path d="M4.2,117.22h.65v1.92l1.54.25c-.09-.1-.16-.22-.21-.36-.05-.14-.07-.29-.07-.46,0-.25.04-.47.13-.68.08-.21.2-.38.35-.53.15-.15.33-.27.54-.35.21-.08.44-.12.69-.12s.48.04.7.13c.21.09.4.21.55.36.15.16.27.34.36.56.08.21.13.45.13.71,0,.2-.03.39-.08.58-.05.18-.13.35-.23.5-.1.15-.22.28-.36.39s-.3.19-.48.24l-.31-.63c.24-.07.43-.19.56-.39.14-.19.21-.42.21-.67,0-.15-.03-.29-.08-.41-.05-.13-.12-.23-.21-.33s-.2-.16-.33-.21c-.13-.05-.27-.08-.43-.08s-.3.03-.44.08c-.13.05-.25.13-.34.22s-.17.21-.22.34c-.05.13-.08.28-.08.44,0,.18.04.35.11.49.07.14.17.26.31.36l-.15.62-2.79-.47v-2.52Z"/><path d="M4.35,113.48c.13-.25.32-.47.55-.65.23-.18.52-.32.85-.42s.69-.15,1.08-.15.76.05,1.1.15c.33.1.62.24.86.42.24.18.43.4.56.65.13.25.2.52.2.83s-.07.57-.2.82-.32.47-.56.65c-.24.18-.53.32-.86.42-.33.1-.7.15-1.1.15s-.75-.05-1.08-.15c-.33-.1-.62-.24-.85-.42-.24-.18-.42-.4-.55-.65-.13-.25-.2-.53-.2-.83s.07-.58.2-.83ZM4.98,114.83c.1.16.23.29.41.41.17.11.38.2.63.27.24.07.51.1.81.1s.57-.03.82-.09c.25-.06.46-.15.64-.27.18-.12.32-.25.42-.41.1-.16.15-.33.15-.52s-.05-.37-.15-.53c-.1-.16-.24-.3-.42-.41-.18-.11-.39-.2-.64-.27s-.52-.09-.82-.09-.56.03-.81.09-.46.15-.63.26c-.17.11-.31.25-.41.41-.1.16-.15.34-.15.53s.05.37.15.52Z"/><path d="M5.85,108.65h.67c-.24-.11-.42-.26-.54-.45-.12-.18-.18-.4-.18-.63,0-.26.07-.48.2-.67s.33-.32.59-.41c-.26-.11-.45-.27-.59-.46s-.2-.43-.2-.7c0-.38.12-.67.38-.88.25-.21.61-.31,1.07-.31h2.25v.7h-2.16c-.29,0-.52.07-.69.2-.17.13-.25.31-.25.54,0,.12.02.22.07.32s.11.18.2.26.19.13.32.16c.12.04.26.06.4.06h2.11v.7h-2.16c-.14,0-.27.02-.38.06-.12.04-.22.09-.3.15s-.14.14-.19.23c-.04.09-.07.2-.07.31s.02.22.07.32.12.18.21.25c.09.07.2.12.32.17.12.04.26.06.41.06h2.09v.7h-3.64v-.68Z"/><path d="M5.85,102.47h.67c-.24-.11-.42-.26-.54-.45-.12-.18-.18-.4-.18-.63,0-.26.07-.48.2-.67s.33-.32.59-.41c-.26-.11-.45-.27-.59-.46s-.2-.43-.2-.7c0-.38.12-.67.38-.88.25-.21.61-.31,1.07-.31h2.25v.7h-2.16c-.29,0-.52.07-.69.2-.17.13-.25.31-.25.54,0,.12.02.22.07.32s.11.18.2.26.19.13.32.16c.12.04.26.06.4.06h2.11v.7h-2.16c-.14,0-.27.02-.38.06-.12.04-.22.09-.3.15s-.14.14-.19.23c-.04.09-.07.2-.07.31s.02.22.07.32.12.18.21.25c.09.07.2.12.32.17.12.04.26.06.41.06h2.09v.7h-3.64v-.68Z"/></g><path d="M31.03,41.12l7.66-7.68v-11.83h-15.93v179.25h15.93V38.52l-5.13,5.14c-.02,1.34-1.1,2.42-2.44,2.45-1.37.03-2.51-1.07-2.53-2.45-.03-1.38,1.07-2.52,2.44-2.54Z" class="cls-2"/><path d="M31.91,200.86v81.89c-.24.38-1.19,1.86-1.19,1.86,0,0-.87-1.34-1.19-1.86v-81.89h2.39" class="cls-2"/><rect height="179.25" width="15.93" y="21.61" x="67.75" class="cls-2"/><line y2="33.44" x2="83.68" y1="33.44" x1="67.75" class="cls-2"/><line y2="38.52" x2="83.68" y1="38.52" x1="67.75" class="cls-2"/><path d="M76.91,200.86v81.89c-.24.38-1.19,1.86-1.19,1.86,0,0-.87-1.34-1.19-1.86v-81.89h2.39" class="cls-2"/></g></g></g></svg>