<svg viewBox="0 0 531.26 288" xmlns="http://www.w3.org/2000/svg"><defs><style>.cls-1, .cls-2, .cls-3 {
        fill: none;
      }

      .cls-4 {
        fill: #12100a;
      }

      .cls-2 {
        stroke: #000;
        stroke-miterlimit: 10;
        stroke-width: .28px;
      }

      .cls-3 {
        stroke: #12100a;
        stroke-linecap: round;
        stroke-linejoin: round;
        stroke-width: .3px;
      }</style></defs><g id="bases"><rect height="358.35" width="589.11" y="-33.95" x="-25.44" class="cls-2"/></g><g id="Urban"><g id="Plaza"><g id="papeleira"><g><g id="MTEXT"><g><path d="M12.76,168.37c-.07.22-.17.4-.31.56-.13.15-.29.28-.47.36s-.38.13-.6.13c-.16,0-.31-.02-.45-.07-.15-.05-.28-.11-.4-.2-.12-.09-.22-.19-.3-.31s-.14-.25-.18-.4c-.05.14-.12.25-.2.36-.08.1-.17.19-.27.27s-.21.13-.33.17c-.12.04-.25.06-.38.06-.21,0-.39-.04-.56-.12-.17-.08-.32-.2-.44-.34-.13-.14-.22-.32-.29-.52-.07-.2-.1-.42-.1-.66s.03-.46.1-.66c.07-.2.17-.37.29-.52.12-.15.27-.26.44-.35.17-.08.36-.13.57-.13.13,0,.26.02.38.06.12.04.24.1.34.17.1.07.19.16.27.27.08.1.14.22.19.35.04-.15.1-.28.18-.4s.19-.22.31-.3c.12-.08.25-.15.4-.2.14-.05.29-.07.45-.07.21,0,.41.04.6.13.18.09.34.21.47.36.13.15.24.34.31.56.07.22.11.46.11.72s-.04.5-.11.72ZM8.2,168c.04.11.09.2.16.28.07.08.15.14.26.18s.21.07.33.07c.11,0,.22-.02.32-.07.1-.04.19-.11.26-.19.07-.08.13-.17.17-.28s.06-.23.06-.35-.02-.25-.06-.35c-.04-.1-.1-.2-.17-.28s-.16-.14-.26-.19c-.1-.04-.21-.07-.32-.07-.12,0-.23.02-.33.07-.1.04-.19.11-.26.19-.07.08-.12.17-.16.28-.04.11-.06.23-.06.36s.02.24.06.35ZM12.13,167.23c-.04-.13-.11-.23-.19-.32-.08-.09-.18-.16-.29-.21-.11-.05-.24-.08-.37-.08s-.26.03-.37.08c-.11.05-.21.12-.29.21-.08.09-.15.2-.2.33-.05.13-.07.26-.07.41s.02.28.07.41c.04.13.11.23.19.33s.18.16.3.21c.11.05.24.07.37.07.14,0,.27-.02.38-.07.11-.05.21-.12.29-.21.08-.09.14-.2.19-.33.04-.13.07-.26.07-.41s-.02-.29-.07-.41Z"/><path d="M12.69,164.19c-.12.24-.29.44-.51.61-.22.17-.5.3-.82.39s-.69.14-1.09.14-.8-.05-1.15-.15c-.35-.1-.64-.24-.89-.43-.25-.18-.43-.41-.56-.67-.13-.26-.2-.55-.2-.88,0-.37.09-.7.27-.97.18-.27.43-.47.76-.59l.29.64c-.21.07-.37.18-.48.34-.11.16-.17.35-.17.56,0,.2.05.38.14.55.09.17.23.31.4.44.17.13.37.22.61.29s.49.1.77.1h.17c.06,0,.1,0,.15,0-.25-.08-.45-.23-.59-.45-.14-.22-.21-.48-.21-.79,0-.24.04-.46.12-.65.08-.2.19-.36.34-.5.15-.14.32-.25.52-.33.2-.08.42-.12.66-.12s.47.04.68.13c.21.08.38.2.53.35.14.15.26.32.34.53s.12.43.12.68c0,.3-.06.57-.18.81ZM12.12,163.02c-.05-.12-.12-.22-.21-.3-.09-.08-.19-.15-.31-.2-.12-.05-.26-.07-.41-.07s-.29.02-.41.07c-.12.05-.23.12-.32.2s-.16.19-.21.31-.07.25-.07.4.02.27.07.39.12.22.2.31c.09.09.19.15.31.2.12.05.25.07.4.07s.28-.03.41-.08.24-.12.34-.21.17-.2.22-.32c.05-.12.08-.26.08-.4s-.03-.26-.08-.38Z"/><path d="M7.53,157.93h.55l.98.65c.06.04.1.07.15.1.04.03.08.06.13.09s.09.06.13.09.09.06.15.09c.02-.19.08-.37.18-.52s.21-.29.35-.41c.14-.12.3-.21.48-.27s.38-.09.59-.09c.24,0,.47.04.67.13.2.08.38.2.52.36.14.15.26.34.34.54s.12.44.12.69c0,.21-.03.4-.08.58-.05.18-.13.35-.23.49-.1.15-.22.28-.37.39-.14.11-.31.2-.49.26l-.31-.63c.24-.08.44-.22.58-.41.14-.19.21-.42.21-.67,0-.15-.02-.28-.07-.4-.05-.12-.11-.23-.2-.31-.09-.09-.19-.15-.31-.2-.12-.05-.26-.07-.41-.07s-.29.03-.42.08c-.13.06-.23.13-.32.22-.09.09-.16.21-.21.34-.05.13-.08.28-.08.44v.35l-.44.08-1.07-.72s-.09-.06-.12-.09c-.03-.03-.07-.05-.12-.08s-.08-.06-.12-.08c-.03-.03-.07-.06-.12-.09v2.18h-.65v-3.09Z"/><path d="M9.17,154.05h.67c-.24-.11-.42-.26-.54-.45-.12-.18-.18-.4-.18-.63,0-.26.07-.48.2-.67.14-.19.33-.32.59-.41-.26-.11-.45-.27-.59-.46-.14-.2-.2-.43-.2-.7,0-.38.12-.67.37-.88.25-.21.61-.31,1.07-.31h2.25v.7h-2.16c-.29,0-.52.07-.69.2-.17.13-.25.31-.25.54,0,.12.02.22.07.32.05.1.11.18.2.26.09.07.19.13.32.16.12.04.26.06.4.06h2.11v.7h-2.16c-.14,0-.27.02-.38.06-.12.04-.22.09-.3.15-.08.06-.14.14-.19.23-.04.09-.07.2-.07.31s.02.22.07.32c.05.1.12.18.21.25.09.07.2.12.32.17.12.04.26.06.41.06h2.09v.7h-3.64v-.68Z"/><path d="M9.17,147.86h.67c-.24-.11-.42-.26-.54-.45-.12-.18-.18-.4-.18-.63,0-.26.07-.48.2-.67.14-.19.33-.32.59-.41-.26-.11-.45-.27-.59-.46-.14-.2-.2-.43-.2-.7,0-.38.12-.67.37-.88.25-.21.61-.31,1.07-.31h2.25v.7h-2.16c-.29,0-.52.07-.69.2-.17.13-.25.31-.25.54,0,.12.02.22.07.32.05.1.11.18.2.26.09.07.19.13.32.16.12.04.26.06.4.06h2.11v.7h-2.16c-.14,0-.27.02-.38.06-.12.04-.22.09-.3.15-.08.06-.14.14-.19.23-.04.09-.07.2-.07.31s.02.22.07.32c.05.1.12.18.21.25.09.07.2.12.32.17.12.04.26.06.41.06h2.09v.7h-3.64v-.68Z"/></g></g><g><path d="M444.11,130.25v5.29h-.73v-4.36s-.04.08-.06.1c-.02.03-.04.06-.07.09l-1.35,2.02s-.04.06-.05.08-.03.05-.06.08h3.2v.64h-3.98v-.59l2.22-3.35h.87Z"/><path d="M447.63,130.32c.21.08.39.19.54.33.15.14.27.31.35.51.08.2.13.42.13.67,0,.14-.02.28-.05.42-.03.14-.08.28-.15.41-.07.14-.16.27-.27.42-.11.14-.24.29-.39.45l-1.31,1.35h2.29v.67h-3.32v-.59l1.79-1.85c.12-.12.22-.23.3-.33.08-.1.15-.21.2-.3.05-.1.09-.19.11-.29.02-.09.03-.19.03-.29,0-.15-.02-.28-.07-.4-.04-.12-.11-.23-.2-.32-.09-.09-.19-.16-.3-.21-.11-.05-.24-.07-.39-.07-.25,0-.47.08-.65.23-.18.15-.31.36-.39.63l-.67-.23c.12-.42.32-.74.62-.97s.66-.34,1.1-.34c.25,0,.48.04.69.12Z"/><path d="M452.17,130.4c.25.13.47.32.65.55.18.23.32.52.42.85.1.33.15.69.15,1.08s-.05.76-.15,1.1-.24.62-.42.86c-.18.24-.4.43-.65.56-.25.13-.52.2-.83.2s-.57-.07-.82-.2-.47-.32-.65-.56c-.18-.24-.32-.53-.42-.86-.1-.33-.15-.7-.15-1.1s.05-.75.15-1.08c.1-.33.24-.61.42-.85.18-.24.4-.42.65-.55.25-.13.53-.2.83-.2s.58.07.83.2ZM450.82,131.03c-.16.1-.29.23-.41.41-.11.18-.2.38-.27.63-.07.24-.1.51-.1.81s.03.57.09.82c.06.25.15.46.27.64.12.18.25.32.41.42.16.1.33.15.52.15s.37-.05.53-.15c.16-.1.3-.24.41-.42.11-.18.2-.39.27-.64.06-.25.09-.52.09-.82s-.03-.56-.09-.81c-.06-.25-.15-.46-.26-.63-.11-.17-.25-.31-.41-.41-.16-.1-.34-.15-.53-.15s-.37.05-.52.15Z"/><path d="M457,131.9v.67c.11-.24.26-.42.45-.54.18-.12.4-.18.63-.18.26,0,.48.07.67.2.19.14.32.33.41.59.11-.26.27-.45.46-.59.2-.14.43-.2.7-.2.38,0,.67.12.88.37.21.25.31.61.31,1.07v2.25h-.7v-2.16c0-.29-.07-.52-.2-.69-.13-.17-.31-.25-.54-.25-.12,0-.22.02-.32.07-.1.05-.18.11-.26.2-.07.09-.13.19-.16.32-.04.12-.06.26-.06.4v2.11h-.7v-2.16c0-.14-.02-.27-.06-.38-.04-.12-.09-.22-.15-.3-.06-.08-.14-.14-.23-.19-.09-.04-.2-.07-.31-.07s-.22.02-.32.07c-.1.05-.18.12-.25.21-.07.09-.12.2-.17.32-.04.12-.06.26-.06.41v2.09h-.7v-3.64h.68Z"/><path d="M463.18,131.9v.67c.11-.24.26-.42.45-.54.18-.12.4-.18.63-.18.26,0,.48.07.67.2.19.14.32.33.41.59.11-.26.27-.45.46-.59.2-.14.43-.2.7-.2.38,0,.67.12.88.37.21.25.31.61.31,1.07v2.25h-.7v-2.16c0-.29-.07-.52-.2-.69-.13-.17-.31-.25-.54-.25-.12,0-.22.02-.32.07-.1.05-.18.11-.26.2-.07.09-.13.19-.16.32-.04.12-.06.26-.06.4v2.11h-.7v-2.16c0-.14-.02-.27-.06-.38-.04-.12-.09-.22-.15-.3-.06-.08-.14-.14-.23-.19-.09-.04-.2-.07-.31-.07s-.22.02-.32.07c-.1.05-.18.12-.25.21-.07.09-.12.2-.17.32-.04.12-.06.26-.06.41v2.09h-.7v-3.64h.68Z"/></g><g><line y2="139.46" x2="393.12" y1="139.46" x1="515.81" class="cls-3"/><rect height="1.95" width=".3" y="138.49" x="515.66" class="cls-4"/><rect height="1.95" width=".3" y="138.49" x="392.97" class="cls-4"/></g><g><path d="M354.53,230.5h5.29v.73h-4.36s.08.04.1.06c.03.02.06.04.09.07l2.02,1.35s.06.04.08.05.05.03.08.06v-3.2h.64v3.98h-.59l-3.35-2.22v-.87Z"/><path d="M354.59,226.98c.08-.21.19-.39.33-.54.14-.15.31-.27.51-.35.2-.08.42-.13.67-.13.14,0,.28.02.42.05.14.03.28.08.41.15.14.07.27.16.42.27.14.11.29.24.45.39l1.35,1.31v-2.29h.67v3.32h-.59l-1.85-1.79c-.12-.12-.23-.22-.33-.3-.1-.08-.21-.15-.3-.2-.1-.05-.19-.09-.29-.11-.09-.02-.19-.03-.29-.03-.15,0-.28.02-.4.07-.12.04-.23.11-.32.2-.09.09-.16.19-.21.3-.05.11-.07.24-.07.39,0,.25.08.47.23.65.15.18.36.31.63.39l-.23.67c-.42-.12-.74-.32-.97-.62s-.34-.66-.34-1.1c0-.25.04-.48.12-.69Z"/><path d="M354.67,222.43c.13-.25.32-.47.55-.65.23-.18.52-.32.85-.42.33-.1.69-.15,1.08-.15s.76.05,1.1.15.62.24.86.42c.24.18.43.4.56.65.13.25.2.52.2.83s-.07.57-.2.82-.32.47-.56.65c-.24.18-.53.32-.86.42-.33.1-.7.15-1.1.15s-.75-.05-1.08-.15c-.33-.1-.61-.24-.85-.42-.24-.18-.42-.4-.55-.65-.13-.25-.2-.53-.2-.83s.07-.58.2-.83ZM355.31,223.78c.1.16.23.29.41.41.18.11.38.2.63.27.24.07.51.1.81.1s.57-.03.82-.09c.25-.06.46-.15.64-.27.18-.12.32-.25.42-.41.1-.16.15-.33.15-.52s-.05-.37-.15-.53c-.1-.16-.24-.3-.42-.41-.18-.11-.39-.2-.64-.27-.25-.06-.52-.09-.82-.09s-.56.03-.81.09c-.25.06-.46.15-.63.26-.17.11-.31.25-.41.41-.1.16-.15.34-.15.53s.05.37.15.52Z"/><path d="M356.17,217.6h.67c-.24-.11-.42-.26-.54-.45-.12-.18-.18-.4-.18-.63,0-.26.07-.48.2-.67.14-.19.33-.32.59-.41-.26-.11-.45-.27-.59-.46-.14-.2-.2-.43-.2-.7,0-.38.12-.67.37-.88.25-.21.61-.31,1.07-.31h2.25v.7h-2.16c-.29,0-.52.07-.69.2-.17.13-.25.31-.25.54,0,.12.02.22.07.32.05.1.11.18.2.26.09.07.19.13.32.16.12.04.26.06.4.06h2.11v.7h-2.16c-.14,0-.27.02-.38.06-.12.04-.22.09-.3.15-.08.06-.14.14-.19.23-.04.09-.07.2-.07.31s.02.22.07.32c.05.1.12.18.21.25.09.07.2.12.32.17.12.04.26.06.41.06h2.09v.7h-3.64v-.68Z"/><path d="M356.17,211.42h.67c-.24-.11-.42-.26-.54-.45-.12-.18-.18-.4-.18-.63,0-.26.07-.48.2-.67.14-.19.33-.32.59-.41-.26-.11-.45-.27-.59-.46-.14-.2-.2-.43-.2-.7,0-.38.12-.67.37-.88.25-.21.61-.31,1.07-.31h2.25v.7h-2.16c-.29,0-.52.07-.69.2-.17.13-.25.31-.25.54,0,.12.02.22.07.32.05.1.11.18.2.26.09.07.19.13.32.16.12.04.26.06.4.06h2.11v.7h-2.16c-.14,0-.27.02-.38.06-.12.04-.22.09-.3.15-.08.06-.14.14-.19.23-.04.09-.07.2-.07.31s.02.22.07.32c.05.1.12.18.21.25.09.07.2.12.32.17.12.04.26.06.41.06h2.09v.7h-3.64v-.68Z"/></g><g><line y2="281.48" x2="363.74" y1="158.79" x1="363.74" class="cls-3"/><rect height=".3" width="1.95" y="158.64" x="362.76" class="cls-4"/><rect height=".3" width="1.95" y="281.33" x="362.76" class="cls-4"/></g><g><line y2="30.08" x2="16.74" y1="282.49" x1="16.74" class="cls-3"/><rect height=".3" width="1.95" y="282.34" x="15.76" class="cls-4"/><rect height=".3" width="1.95" y="29.93" x="15.76" class="cls-4"/></g><g><polyline points="402.89 232.53 403.46 234.87 404.13 237.18 404.9 239.46 405.77 241.7 406.74 243.9 407.8 246.06 408.96 248.16 410.21 250.21 411.55 252.21 412.97 254.14 414.48 256 416.07 257.8 417.74 259.52 419.48 261.17 421.29 262.73 423.17 264.22 425.11 265.62 427.12 266.93 429.18 268.14 431.29 269.27 433.44 270.3 435.64 271.23 437.88 272.06 440.16 272.79 442.46 273.42 444.79 273.94 447.14 274.36 449.51 274.68 451.88 274.88 454.27 274.98 456.65 274.98 459.04 274.86 461.41 274.64 463.78 274.32 466.13 273.88 468.45 273.35 470.75 272.7 473.02 271.96 475.26 271.11 477.45 270.17 479.6 269.13 481.71 267.99 483.76 266.76 485.75 265.44 487.69 264.03 489.56 262.54 491.36 260.96 493.09 259.3 494.75 257.57 496.33 255.77 497.83 253.89 499.25 251.95 500.57 249.95 501.81 247.9 502.96 245.78 504.01 243.62 504.97 241.42 505.82 239.17 506.58 236.89 507.24 234.57 507.79 232.23 508.24 229.87 508.59 227.48 508.83 225.09 508.96 222.68 508.99 220.28 508.91 217.87 508.73 215.47 508.44 213.08 508.05 210.71 507.55 208.35 506.95 206.02 506.25 203.72 505.44 201.45 504.54 199.22 503.54 197.04 502.44 194.9 501.25 192.81 499.97 190.78 498.61 188.81 497.15 186.9 495.62 185.05 494 183.28 492.31 181.59 490.54 179.96 488.71 178.42 486.81 176.97 484.85 175.6 482.82 174.32 480.75 173.13 478.62 172.04 476.45 171.04 474.24 170.14 471.99 169.35 469.7 168.65 467.39 168.05 465.05 167.56 462.7 167.18 460.33 166.9 457.95 166.73 455.56 166.67 453.17 166.71 450.79 166.86 448.42 167.11 446.06 167.47 443.72 167.94 441.4 168.51 439.11 169.19 436.85 169.97 434.63 170.84 432.45 171.82 430.31 172.89 428.22 174.06 426.19 175.32 424.22 176.67 422.3 178.11 420.45 179.63 418.67 181.24 416.96 182.92 415.33 184.67 413.78 186.5 412.31 188.4 410.92 190.36 409.62 192.38 408.42 194.45 407.3 196.58 406.28 198.76 405.36 200.98 404.53 203.24 403.81 205.53" class="cls-3"/><polyline points="482.53 220.83 482.47 219.1 482.31 217.39 482.05 215.68 481.67 214 481.2 212.34 480.62 210.72 479.94 209.14 479.16 207.6 478.29 206.11 477.33 204.69 476.28 203.32 475.15 202.03 473.94 200.81 472.66 199.67 471.31 198.61 469.89 197.64 468.42 196.76 466.9 195.98 465.33 195.29 463.72 194.71 462.08 194.23 460.41 193.85 458.72 193.58 457.02 193.42 455.31 193.37 453.6 193.42 451.9 193.58 450.21 193.85 448.54 194.23 446.9 194.71 445.29 195.29 443.72 195.98 442.19 196.76 440.72 197.64 439.31 198.61 437.96 199.67 436.67 200.81 435.46 202.03 434.33 203.32 433.28 204.69 432.32 206.11 431.45 207.6 430.68 209.14 430 210.72 429.42 212.34 428.94 214 428.57 215.68 428.3 217.39 428.14 219.1 428.09 220.83 428.14 222.55 428.3 224.27 428.57 225.98 428.94 227.66 429.42 229.32 430 230.94 430.68 232.52 431.45 234.06 432.32 235.54 433.28 236.97 434.33 238.34 435.46 239.63 436.67 240.85 437.96 241.99 439.31 243.05 440.72 244.02 442.19 244.9 443.72 245.68 445.29 246.36 446.9 246.95 448.54 247.43 450.21 247.81 451.9 248.08 453.6 248.24 455.31 248.29 457.02 248.24 458.72 248.08 460.41 247.81 462.08 247.43 463.72 246.95 465.33 246.36 466.9 245.68 468.42 244.9 469.89 244.02 471.31 243.05 472.66 241.99 473.94 240.85 475.15 239.63 476.28 238.34 477.33 236.97 478.29 235.54 479.16 234.06 479.94 232.52 480.62 230.94 481.2 229.32 481.67 227.66 482.05 225.98 482.31 224.27 482.47 222.55 482.53 220.83" class="cls-3"/><polyline points="403.81 205.53 403.12 207.92 402.56 210.34 402.11 212.79 401.79 215.25 401.58 217.73 401.5 220.21 401.53 222.7 401.69 225.18 401.97 227.65 402.37 230.1 402.89 232.53" class="cls-3"/><g><polyline points="440.08 275.89 437.98 280.29 437.92 280.39 437.84 280.48 437.75 280.55 437.64 280.6 437.52 280.63 437.4 280.63 437.29 280.61 437.18 280.57 436.3 280.15 435.36 279.69 434.37 279.21 433.32 278.7 432.24 278.18 431.13 277.64 430 277.09 428.86 276.54 427.73 275.98 426.6 275.43 425.49 274.89 424.4 274.37 423.36 273.86 422.37 273.38 421.43 272.92 420.55 272.5 420.45 272.44 420.36 272.35 420.29 272.26 420.24 272.15 420.22 272.03 420.21 271.91 420.23 271.8 420.27 271.68 422.37 267.28 422.43 267.18 422.51 267.09 422.61 267.02 422.71 266.97 422.83 266.94 422.95 266.94 423.07 266.96 423.18 267 424.05 267.42 424.99 267.88 425.99 268.36 427.03 268.87 428.11 269.4 429.22 269.93 430.35 270.48 431.49 271.04 432.63 271.59 433.76 272.14 434.87 272.68 435.95 273.2 436.99 273.71 437.99 274.19 438.92 274.65 439.8 275.08 439.9 275.14 439.99 275.22 440.06 275.32 440.11 275.42 440.14 275.54 440.14 275.66 440.12 275.78 440.08 275.89" class="cls-3"/><polyline points="465.11 277.12 465.11 282.01 465.1 282.13 465.07 282.24 465.01 282.35 464.94 282.44 464.84 282.51 464.74 282.57 464.63 282.61 464.51 282.62 463.54 282.62 462.49 282.62 461.39 282.62 460.23 282.62 459.03 282.62 457.8 282.62 456.55 282.63 455.28 282.63 454.02 282.63 452.77 282.63 451.53 282.63 450.33 282.63 449.18 282.63 448.07 282.63 447.03 282.64 446.06 282.64 445.94 282.63 445.83 282.59 445.72 282.53 445.63 282.46 445.55 282.37 445.5 282.26 445.46 282.15 445.45 282.03 445.45 277.14 445.46 277.02 445.49 276.91 445.55 276.8 445.62 276.71 445.72 276.64 445.82 276.58 445.93 276.54 446.05 276.53 447.02 276.53 448.07 276.53 449.17 276.53 450.33 276.53 451.53 276.53 452.76 276.53 454.01 276.53 455.28 276.52 456.54 276.52 457.8 276.52 459.03 276.52 460.23 276.52 461.38 276.52 462.49 276.52 463.53 276.52 464.5 276.51 464.62 276.53 464.73 276.56 464.84 276.62 464.93 276.69 465.01 276.79 465.06 276.89 465.1 277 465.11 277.12" class="cls-3"/><polyline points="470.53 275.9 470.49 275.79 470.47 275.67 470.48 275.55 470.5 275.44 470.55 275.33 470.62 275.23 470.71 275.15 470.81 275.09 471.69 274.66 472.63 274.21 473.62 273.72 474.66 273.22 475.75 272.69 476.86 272.15 477.98 271.6 479.12 271.05 480.26 270.5 481.39 269.95 482.5 269.41 483.58 268.88 484.63 268.38 485.62 267.89 486.56 267.44 487.43 267.01 487.55 266.97 487.66 266.95 487.78 266.96 487.9 266.98 488 267.04 488.1 267.11 488.18 267.19 488.24 267.3 490.34 271.7 490.38 271.81 490.4 271.93 490.4 272.05 490.37 272.16 490.32 272.27 490.25 272.37 490.16 272.45 490.06 272.51 489.18 272.94 488.25 273.39 487.25 273.88 486.21 274.38 485.13 274.91 484.02 275.45 482.89 276 481.75 276.55 480.61 277.1 479.48 277.65 478.37 278.19 477.29 278.71 476.25 279.22 475.25 279.7 474.31 280.16 473.44 280.59 473.33 280.63 473.21 280.65 473.09 280.64 472.97 280.61 472.87 280.56 472.77 280.49 472.69 280.4 472.63 280.3 470.53 275.9" class="cls-3"/><polyline points="492.54 263.85 492.46 263.77 492.39 263.67 492.34 263.56 492.32 263.44 492.32 263.32 492.34 263.2 492.38 263.09 492.45 262.99 493.05 262.23 493.7 261.4 494.39 260.53 495.11 259.62 495.86 258.67 496.63 257.7 497.41 256.71 498.2 255.72 498.99 254.72 499.77 253.73 500.54 252.76 501.29 251.81 502.01 250.9 502.7 250.03 503.35 249.21 503.96 248.44 504.04 248.36 504.14 248.29 504.25 248.24 504.36 248.22 504.48 248.22 504.6 248.24 504.71 248.28 504.81 248.35 508.59 251.39 508.67 251.48 508.74 251.57 508.79 251.68 508.81 251.8 508.81 251.92 508.79 252.04 508.75 252.15 508.68 252.25 508.08 253.02 507.43 253.84 506.74 254.71 506.02 255.62 505.27 256.57 504.5 257.54 503.72 258.53 502.93 259.52 502.14 260.52 501.36 261.51 500.59 262.48 499.84 263.43 499.12 264.34 498.43 265.21 497.78 266.03 497.17 266.8 497.09 266.88 496.99 266.95 496.88 267 496.77 267.02 496.65 267.03 496.53 267 496.42 266.96 496.32 266.9 492.54 263.85" class="cls-3"/><polyline points="418.06 263.8 414.27 266.84 414.17 266.91 414.06 266.95 413.95 266.97 413.83 266.97 413.71 266.95 413.6 266.9 413.51 266.83 413.42 266.75 412.82 265.98 412.17 265.16 411.48 264.29 410.76 263.37 410.01 262.43 409.24 261.46 408.46 260.47 407.67 259.47 406.88 258.47 406.1 257.49 405.33 256.51 404.58 255.57 403.86 254.66 403.17 253.78 402.52 252.96 401.91 252.2 401.85 252.1 401.81 251.98 401.78 251.87 401.79 251.75 401.81 251.63 401.86 251.52 401.92 251.42 402.01 251.34 405.79 248.29 405.89 248.23 406 248.18 406.12 248.16 406.24 248.16 406.35 248.19 406.46 248.24 406.56 248.3 406.64 248.39 407.25 249.16 407.9 249.98 408.59 250.85 409.31 251.76 410.06 252.71 410.83 253.68 411.61 254.67 412.4 255.66 413.19 256.66 413.97 257.65 414.74 258.62 415.48 259.57 416.21 260.48 416.9 261.35 417.55 262.17 418.15 262.94 418.22 263.04 418.26 263.15 418.28 263.27 418.28 263.39 418.25 263.5 418.21 263.61 418.14 263.71 418.06 263.8" class="cls-3"/><polyline points="440.11 166.39 440.15 166.51 440.17 166.62 440.17 166.74 440.14 166.86 440.09 166.97 440.02 167.07 439.93 167.15 439.83 167.21 438.96 167.63 438.02 168.09 437.02 168.57 435.98 169.08 434.9 169.6 433.79 170.14 432.66 170.69 431.52 171.25 430.38 171.8 429.25 172.35 428.14 172.89 427.06 173.41 426.02 173.92 425.02 174.4 424.08 174.86 423.21 175.28 423.1 175.33 422.98 175.34 422.86 175.34 422.75 175.31 422.64 175.26 422.54 175.19 422.46 175.1 422.4 175 420.3 170.6 420.26 170.49 420.24 170.37 420.25 170.25 420.28 170.13 420.33 170.03 420.39 169.93 420.48 169.85 420.58 169.79 421.46 169.36 422.4 168.91 423.39 168.42 424.44 167.91 425.52 167.39 426.63 166.85 427.76 166.3 428.89 165.75 430.03 165.19 431.16 164.65 432.27 164.11 433.35 163.58 434.4 163.07 435.39 162.59 436.33 162.14 437.21 161.71 437.32 161.67 437.43 161.65 437.55 161.66 437.67 161.68 437.78 161.73 437.87 161.8 437.95 161.89 438.01 162 440.11 166.39" class="cls-3"/><polyline points="465.14 165.16 465.13 165.28 465.09 165.39 465.04 165.5 464.96 165.59 464.87 165.67 464.76 165.72 464.65 165.76 464.53 165.77 463.56 165.77 462.52 165.77 461.41 165.77 460.26 165.77 459.06 165.76 457.83 165.76 456.57 165.76 455.31 165.76 454.04 165.76 452.79 165.76 451.56 165.76 450.36 165.76 449.2 165.75 448.1 165.75 447.05 165.75 446.08 165.75 445.96 165.74 445.85 165.7 445.75 165.65 445.65 165.57 445.58 165.48 445.52 165.37 445.49 165.26 445.48 165.14 445.48 160.26 445.5 160.14 445.53 160.02 445.59 159.92 445.66 159.83 445.75 159.75 445.86 159.69 445.97 159.66 446.09 159.65 447.06 159.65 448.1 159.65 449.21 159.65 450.36 159.65 451.56 159.65 452.8 159.65 454.05 159.66 455.31 159.66 456.58 159.66 457.83 159.66 459.06 159.66 460.26 159.66 461.42 159.66 462.52 159.66 463.57 159.67 464.54 159.67 464.66 159.68 464.77 159.71 464.87 159.77 464.97 159.85 465.04 159.94 465.1 160.04 465.13 160.16 465.14 160.28 465.14 165.16" class="cls-3"/><g><polyline points="471.02 276.91 470.29 277.11 469.56 277.3 468.83 277.49 468.1 277.66 467.36 277.83 466.62 277.98 465.88 278.13 465.14 278.26" class="cls-3"/><polyline points="445.45 278.25 444.74 278.13 444 277.98 443.26 277.83 442.52 277.66 441.79 277.49 441.05 277.3 440.32 277.11 439.6 276.91" class="cls-3"/><polyline points="493.35 264.59 492.88 265.01 492.31 265.5 491.72 265.99 491.14 266.47 490.54 266.94 489.95 267.4 489.34 267.85 488.73 268.3" class="cls-3"/><polyline points="421.88 268.3 421.27 267.85 420.67 267.4 420.07 266.94 419.48 266.47 418.89 265.99 418.31 265.5 417.74 265.01 417.17 264.51" class="cls-3"/><polyline points="508.32 243.52 508.03 244.22 507.72 244.91 507.41 245.6 507.08 246.29 506.75 246.98 506.41 247.66 506.06 248.33 505.7 249" class="cls-3"/><polyline points="404.91 249 404.55 248.33 404.2 247.66 403.86 246.98 403.53 246.29 403.21 245.6 402.9 244.91 402.59 244.22 402.32 243.57" class="cls-3"/><polyline points="397.92 224.18 397.88 223.42 397.86 222.66 397.84 221.9 397.84 221.14 397.84 220.38 397.86 219.61 397.88 218.85 397.92 218.09" class="cls-3"/><polyline points="512.7 218.09 512.73 218.85 512.76 219.61 512.77 220.38 512.77 221.14 512.77 221.9 512.76 222.66 512.73 223.42 512.7 224.18" class="cls-3"/><polyline points="402.29 198.76 402.59 198.06 402.9 197.36 403.21 196.67 403.53 195.98 403.86 195.3 404.2 194.62 404.55 193.94 404.91 193.27" class="cls-3"/><polyline points="505.7 193.27 506.06 193.94 506.41 194.62 506.75 195.3 507.08 195.98 507.41 196.67 507.72 197.36 508.03 198.06 508.32 198.76" class="cls-3"/><polyline points="488.84 174.02 489.34 174.42 489.95 174.87 490.54 175.34 491.14 175.81 491.72 176.29 492.31 176.77 492.88 177.27 493.45 177.77" class="cls-3"/><polyline points="417.21 177.73 417.74 177.27 418.31 176.77 418.89 176.29 419.48 175.81 420.07 175.34 420.67 174.87 421.27 174.42 421.88 173.97" class="cls-3"/><polyline points="439.65 165.37 440.32 165.16 441.05 164.97 441.79 164.79 442.52 164.61 443.26 164.45 444 164.29 444.74 164.15 445.48 164.01" class="cls-3"/><polyline points="465.14 164.01 465.88 164.15 466.62 164.29 467.36 164.45 468.1 164.61 468.83 164.79 469.56 164.97 470.29 165.16 471.02 165.37" class="cls-3"/><polyline points="470.56 166.38 472.66 161.98 472.72 161.88 472.8 161.79 472.9 161.72 473.01 161.67 473.12 161.64 473.24 161.64 473.36 161.66 473.47 161.7 474.34 162.12 475.28 162.58 476.28 163.06 477.32 163.57 478.4 164.09 479.51 164.63 480.64 165.18 481.78 165.74 482.92 166.29 484.05 166.84 485.16 167.38 486.24 167.9 487.28 168.41 488.28 168.89 489.22 169.35 490.09 169.77 490.19 169.84 490.28 169.92 490.35 170.01 490.4 170.12 490.43 170.24 490.43 170.36 490.41 170.48 490.37 170.59 488.27 174.99 488.21 175.09 488.13 175.18 488.04 175.25 487.93 175.3 487.81 175.33 487.69 175.33 487.58 175.31 487.47 175.27 486.59 174.85 485.65 174.39 484.66 173.91 483.61 173.4 482.53 172.88 481.42 172.34 480.29 171.79 479.15 171.23 478.01 170.68 476.89 170.13 475.78 169.59 474.7 169.07 473.65 168.56 472.66 168.08 471.72 167.62 470.84 167.2 470.74 167.13 470.65 167.05 470.58 166.96 470.53 166.85 470.51 166.73 470.5 166.61 470.52 166.49 470.56 166.38" class="cls-3"/></g><polyline points="492.57 178.43 496.35 175.39 496.45 175.32 496.56 175.28 496.68 175.26 496.8 175.26 496.92 175.28 497.02 175.33 497.12 175.4 497.2 175.48 497.81 176.25 498.46 177.07 499.15 177.94 499.87 178.86 500.62 179.8 501.39 180.77 502.17 181.76 502.96 182.76 503.75 183.76 504.53 184.74 505.3 185.72 506.05 186.66 506.77 187.57 507.46 188.45 508.11 189.27 508.71 190.03 508.78 190.13 508.82 190.25 508.84 190.36 508.84 190.48 508.82 190.6 508.77 190.71 508.7 190.81 508.62 190.89 504.84 193.94 504.74 194 504.63 194.05 504.51 194.07 504.39 194.07 504.28 194.04 504.17 193.99 504.07 193.93 503.99 193.84 503.38 193.07 502.73 192.25 502.04 191.38 501.32 190.47 500.57 189.52 499.8 188.55 499.02 187.56 498.23 186.57 497.44 185.57 496.66 184.58 495.89 183.61 495.14 182.66 494.42 181.75 493.73 180.88 493.08 180.06 492.48 179.29 492.41 179.19 492.37 179.08 492.35 178.96 492.35 178.84 492.37 178.73 492.42 178.62 492.49 178.52 492.57 178.43" class="cls-3"/><polyline points="418.09 178.49 418.17 178.57 418.24 178.67 418.29 178.78 418.31 178.9 418.31 179.02 418.29 179.13 418.25 179.25 418.18 179.35 417.58 180.11 416.93 180.93 416.24 181.81 415.51 182.72 414.77 183.66 414 184.63 413.22 185.62 412.43 186.62 411.64 187.62 410.86 188.61 410.09 189.58 409.34 190.52 408.62 191.43 407.93 192.31 407.28 193.13 406.67 193.89 406.59 193.98 406.49 194.05 406.38 194.1 406.27 194.12 406.15 194.12 406.03 194.1 405.92 194.06 405.82 193.99 402.04 190.94 401.96 190.86 401.89 190.76 401.84 190.65 401.82 190.54 401.82 190.42 401.84 190.3 401.88 190.19 401.95 190.09 402.55 189.32 403.2 188.5 403.89 187.63 404.61 186.72 405.36 185.77 406.13 184.8 406.91 183.81 407.7 182.81 408.49 181.82 409.27 180.83 410.04 179.86 410.79 178.91 411.51 178 412.2 177.13 412.85 176.3 413.45 175.54 413.54 175.45 413.63 175.39 413.74 175.34 413.86 175.31 413.98 175.31 414.09 175.33 414.2 175.38 414.3 175.44 418.09 178.49" class="cls-3"/><polyline points="403.39 199.01 403.5 199.04 403.6 199.1 403.69 199.18 403.77 199.27 403.82 199.38 403.85 199.5 403.86 199.62 403.84 199.74 403.63 200.69 403.4 201.72 403.16 202.81 402.9 203.94 402.64 205.12 402.37 206.34 402.09 207.57 401.82 208.82 401.54 210.06 401.26 211.29 400.99 212.51 400.73 213.69 400.47 214.83 400.23 215.91 400 216.94 399.79 217.89 399.75 218.01 399.69 218.11 399.62 218.2 399.52 218.28 399.42 218.33 399.3 218.36 399.18 218.37 399.07 218.36 394.34 217.28 394.23 217.24 394.13 217.19 394.04 217.11 393.97 217.01 393.91 216.91 393.88 216.79 393.87 216.67 393.89 216.55 394.1 215.6 394.33 214.57 394.57 213.48 394.83 212.35 395.09 211.16 395.36 209.95 395.64 208.72 395.91 207.47 396.19 206.23 396.47 205 396.74 203.78 397 202.6 397.26 201.46 397.5 200.38 397.73 199.35 397.94 198.39 397.98 198.28 398.04 198.18 398.12 198.09 398.21 198.01 398.32 197.96 398.43 197.93 398.55 197.92 398.67 197.93 403.39 199.01" class="cls-3"/><polyline points="516.29 217.26 511.57 218.34 511.45 218.35 511.33 218.34 511.22 218.31 511.11 218.26 511.02 218.18 510.94 218.09 510.88 217.99 510.85 217.88 510.63 216.92 510.4 215.89 510.16 214.81 509.91 213.67 509.64 212.49 509.37 211.28 509.1 210.04 508.82 208.8 508.54 207.55 508.26 206.32 507.99 205.11 507.73 203.93 507.47 202.79 507.23 201.7 507 200.67 506.79 199.72 506.77 199.6 506.78 199.48 506.82 199.37 506.87 199.26 506.94 199.16 507.03 199.09 507.13 199.03 507.25 198.99 511.97 197.91 512.09 197.9 512.2 197.91 512.32 197.94 512.42 197.99 512.52 198.07 512.59 198.16 512.65 198.26 512.69 198.38 512.9 199.33 513.13 200.36 513.38 201.45 513.63 202.58 513.89 203.77 514.17 204.98 514.44 206.21 514.72 207.46 515 208.7 515.27 209.93 515.54 211.15 515.81 212.33 516.06 213.47 516.3 214.55 516.53 215.58 516.75 216.54 516.76 216.65 516.75 216.77 516.72 216.89 516.67 217 516.59 217.09 516.5 217.17 516.4 217.23 516.29 217.26" class="cls-3"/><polyline points="403.31 243.35 398.59 244.42 398.47 244.43 398.35 244.43 398.24 244.39 398.13 244.34 398.04 244.27 397.96 244.18 397.9 244.07 397.87 243.96 397.65 243 397.42 241.98 397.18 240.89 396.93 239.75 396.66 238.57 396.39 237.36 396.12 236.12 395.84 234.88 395.56 233.63 395.28 232.4 395.01 231.19 394.75 230.01 394.5 228.87 394.25 227.78 394.02 226.76 393.81 225.8 393.8 225.68 393.81 225.56 393.84 225.45 393.89 225.34 393.96 225.24 394.05 225.17 394.16 225.11 394.27 225.07 398.99 224 399.11 223.98 399.22 223.99 399.34 224.02 399.45 224.07 399.54 224.15 399.62 224.24 399.68 224.34 399.71 224.46 399.93 225.41 400.15 226.44 400.4 227.53 400.65 228.67 400.92 229.85 401.19 231.06 401.46 232.29 401.74 233.54 402.02 234.78 402.29 236.01 402.56 237.23 402.83 238.41 403.08 239.55 403.33 240.63 403.55 241.66 403.77 242.62 403.78 242.74 403.77 242.85 403.74 242.97 403.69 243.08 403.62 243.17 403.53 243.25 403.42 243.31 403.31 243.35" class="cls-3"/><polyline points="516.31 225.01 516.43 225.05 516.53 225.11 516.62 225.19 516.69 225.28 516.74 225.39 516.78 225.51 516.78 225.62 516.77 225.74 516.56 226.7 516.33 227.73 516.08 228.81 515.83 229.95 515.57 231.13 515.29 232.35 515.02 233.58 514.74 234.82 514.46 236.07 514.19 237.3 513.92 238.51 513.65 239.69 513.4 240.83 513.16 241.92 512.93 242.95 512.71 243.9 512.68 244.02 512.62 244.12 512.54 244.21 512.45 244.29 512.34 244.34 512.23 244.37 512.11 244.38 511.99 244.36 507.27 243.29 507.16 243.25 507.05 243.19 506.96 243.12 506.89 243.02 506.84 242.91 506.81 242.8 506.8 242.68 506.81 242.56 507.03 241.6 507.26 240.58 507.5 239.49 507.75 238.35 508.02 237.17 508.29 235.96 508.56 234.73 508.84 233.48 509.12 232.24 509.39 231 509.67 229.79 509.93 228.61 510.18 227.47 510.43 226.38 510.65 225.36 510.87 224.4 510.91 224.29 510.96 224.18 511.04 224.09 511.14 224.02 511.24 223.97 511.36 223.93 511.47 223.93 511.59 223.94 516.31 225.01" class="cls-3"/></g><polyline points="450 203.63 449 203.97 448.02 204.37 447.07 204.82 446.14 205.33 445.25 205.9 444.39 206.52 443.56 207.18 442.78 207.89 442.04 208.65 441.34 209.45 440.69 210.29 440.09 211.17 439.54 212.08 439.04 213.02 438.6 213.98 438.22 214.98 437.89 215.99 437.63 217.02 437.42 218.06 437.27 219.12 437.18 220.18 437.16 221.24 437.2 222.31 437.3 223.37 437.45 224.42 437.67 225.46 437.95 226.49 438.29 227.5 438.69 228.49 439.14 229.45 439.64 230.38 440.2 231.29 440.81 232.16 441.47 232.99 442.18 233.78 442.93 234.53 443.72 235.23 444.56 235.89 445.42 236.49 446.33 237.05 447.26 237.55 448.22 237.99 449.2 238.38 450.2 238.71 451.23 238.98 452.26 239.19 453.31 239.33 454.36 239.42 455.41 239.45 456.47 239.41 457.52 239.31 458.56 239.15 459.6 238.93 460.61 238.65 461.61 238.31 462.59 237.91 463.55 237.45 464.47 236.94 465.37 236.38 466.23 235.76 467.05 235.09 467.84 234.38 468.58 233.62 469.28 232.82 469.93 231.99 470.53 231.11 471.08 230.2 471.57 229.26 472.01 228.29 472.4 227.3 472.72 226.29 472.99 225.26 473.2 224.21 473.34 223.16 473.43 222.1 473.45 221.03 473.42 219.97 473.32 218.91 473.16 217.85 472.94 216.81 472.66 215.78 472.32 214.78 471.93 213.79 471.48 212.82 470.97 211.89 470.41 210.99 469.8 210.12 469.14 209.29 468.44 208.49 467.68 207.75 466.89 207.04 466.06 206.39 465.19 205.78 464.29 205.23 463.36 204.73 462.4 204.28 461.42 203.9 460.41 203.57 459.39 203.3 458.36 203.09 457.31 202.94 456.26 202.85 455.2 202.83 454.15 202.87 453.1 202.96 452.05 203.13 451.02 203.35 450 203.63" class="cls-3"/><g><line y2="230.97" x2="495" y1="230.86" x1="494.97" class="cls-3"/><path d="M493.4,228.49c-.09-.04-.27-.12-.36-.16" class="cls-3"/><line y2="230.87" x2="495.07" y1="230.97" x1="495" class="cls-3"/><path d="M494.39,228c.2.1.56.35.73.49" class="cls-3"/><path d="M495.58,229.51c-.03-.3-.22-.81-.46-1.02" class="cls-3"/><path d="M494.97,230.86c-.02-.07-.05-.21-.07-.28" class="cls-3"/><path d="M495.07,230.87c.17-.24.42-.77.48-1.06" class="cls-3"/><path d="M491.98,227.63c-.04-.06-.1-.21-.12-.28" class="cls-3"/><path d="M492.46,227.29c.49.13,1.47.51,1.93.72" class="cls-3"/><path d="M492.46,227.29c-.12-.03-.36-.11-.47-.15" class="cls-3"/><path d="M491.99,227.14s-.09,0-.12.03" class="cls-3"/><path d="M491.87,227.17s-.03.09-.02.13" class="cls-3"/><line y2="227.3" x2="491.84" y1="227.35" x1="491.86" class="cls-3"/><path d="M491.98,227.63c.12.15.41.42.6.49" class="cls-3"/><path d="M492.58,228.12c.11.05.35.16.46.21" class="cls-3"/><path d="M493.4,228.49c.6.24,1.12.89,1.35,1.48" class="cls-3"/><path d="M494.75,229.96c.04.15.13.46.15.61" class="cls-3"/><path d="M495.58,229.51c0,.07-.02.23-.03.3" class="cls-3"/><line y2="226.37" x2="491.48" y1="225.6" x1="490.87" class="cls-3"/><line y2="225.6" x2="490.87" y1="225.13" x1="491.34" class="cls-3"/><line y2="226" x2="492.03" y1="225.13" x1="491.34" class="cls-3"/><line y2="226" x2="492.03" y1="226.37" x1="491.48" class="cls-3"/><path d="M497.6,227.28c.7-.27,1.34-.91,1.53-1.65" class="cls-3"/><line y2="226.69" x2="491.86" y1="226.71" x1="491.91" class="cls-3"/><path d="M491.97,226.73s-.04-.01-.06-.02" class="cls-3"/><line y2="226.86" x2="492.41" y1="226.73" x1="491.97" class="cls-3"/><path d="M493.49,227.21c-.26-.08-.82-.26-1.08-.34" class="cls-3"/><path d="M493.66,227.27s-.13-.05-.18-.07" class="cls-3"/><path d="M493.97,227.37c-.08-.02-.24-.07-.31-.1" class="cls-3"/><path d="M493.97,227.37c.55.09,1.73.21,2.28.17" class="cls-3"/><path d="M497.6,227.28c-.31.13-1.01.24-1.35.27" class="cls-3"/><path d="M499.13,225.63c.06-.24.14-.73.13-.97" class="cls-3"/><path d="M499.2,223.96c.03.17.06.52.07.7" class="cls-3"/><path d="M498.48,222.23c.28.38.62,1.27.73,1.73" class="cls-3"/><path d="M498.48,222.23s-.04-.05-.05-.06" class="cls-3"/><line y2="222.06" x2="498.34" y1="222.17" x1="498.42" class="cls-3"/><line y2="222.06" x2="498.34" y1="222.15" x1="498.31" class="cls-3"/><path d="M498.3,222.26s0-.08.01-.11" class="cls-3"/><path d="M498.3,222.26c.04.34.07,1.07.01,1.41" class="cls-3"/><path d="M498.31,223.67c-.09.39-.38,1.12-.67,1.41" class="cls-3"/><path d="M497.64,225.07c-.29.27-.94.66-1.32.77" class="cls-3"/><path d="M496.33,225.84c-.49.12-1.5.31-2,.32" class="cls-3"/><path d="M493.82,226.2c.12,0,.39-.03.51-.04" class="cls-3"/><path d="M493.82,226.2c-.26.02-.79.06-1.04.08" class="cls-3"/><path d="M492.77,226.28c-.16.02-.48.09-.63.14" class="cls-3"/><line y2="226.42" x2="492.15" y1="226.43" x1="492.12" class="cls-3"/><path d="M492.12,226.43s-.15.07-.19.1" class="cls-3"/><path d="M491.94,226.52s-.06.04-.07.05" class="cls-3"/><line y2="226.57" x2="491.86" y1="226.59" x1="491.82" class="cls-3"/><line y2="226.69" x2="491.86" y1="226.59" x1="491.82" class="cls-3"/><line y2="225.53" x2="494.56" y1="225.77" x1="494.52" class="cls-3"/><line y2="225.64" x2="495.58" y1="225.59" x1="495.58" class="cls-3"/><line y2="225.77" x2="494.52" y1="225.64" x1="495.58" class="cls-3"/><path d="M495.4,223.67c-.05-.22-.21-.63-.34-.82" class="cls-3"/><path d="M495.58,225.59c0-.48-.08-1.45-.18-1.92" class="cls-3"/><path d="M494.63,225.19c.07-.35.11-1.07.09-1.43" class="cls-3"/><path d="M494.56,225.53c.02-.08.05-.26.07-.34" class="cls-3"/><path d="M494.66,222.57c.13.03.31.19.4.29" class="cls-3"/><path d="M494.66,222.57c-.09-.02-.27-.02-.35.01" class="cls-3"/><line y2="222.61" x2="494.23" y1="222.58" x1="494.31" class="cls-3"/><line y2="222.7" x2="494.31" y1="222.61" x1="494.23" class="cls-3"/><path d="M494.36,222.76s-.04-.04-.05-.06" class="cls-3"/><path d="M494.36,222.76c.16.23.34.73.36,1.01" class="cls-3"/><path d="M489.21,215.24c.23.36.45.71.68,1.07.38.35.76.74,1.28.85.09.02.29.06.39.07.05,0,.15.02.2.03l.15.03-.18.24c-.19.31-.44.96-.37,1.34.07.59.58,1.21,1,1.59.07.07.17.05.23-.02.02-.02.06-.05.07-.07.31-.3.99-.82,1.39-.97.73-.35,1.84-.39,2.64-.29.78.11,1.7.65,2.28,1.17.1.14.26.13.37,0,.18-.18.51-.59.6-.83.09-.24.2-.75.16-1-.05-.24-.2-.71-.35-.91-.07-.12-.18-.37-.17-.5,0-.05.01-.14.02-.19.03-.09.11-.27.16-.35.16-.28.38-.87.34-1.19-.01-.55-.42-1.16-.79-1.54-.11-.13-.26-.12-.37,0-1,.97-2.57,1.45-3.94,1.19-.81-.1-1.75-.73-2.35-1.27-.07-.07-.16-.17-.26-.11-1.08.77-1.4,2.27-.43,3.28-1.25-.03-1.86-1-2.54-1.78l-.22.17Z" class="cls-3"/><path d="M491.94,217.94c-.1.2-.23.6-.19.82.08.35.38.94.63,1.2l.07.07.07-.07c.85-.77,2.1-1.35,3.26-1.33,1.15,0,2.47.43,3.31,1.23l.08.07.13-.17s.1-.14.13-.18c.13-.21.3-.67.29-.92,0-.09-.02-.28-.04-.37-.05-.17-.2-.51-.31-.64-.19-.26-.21-.67-.13-.97.04-.1.14-.29.2-.38l.04-.07c.09-.18.23-.57.23-.77.01-.42-.23-.92-.5-1.24l-.06-.07-.13.1s-.06.05-.08.06c-.95.76-2.32,1.22-3.53,1.1-.96-.03-2.09-.64-2.81-1.25-.04-.03-.11-.08-.16-.08-.06,0-.12.05-.15.09-.15.21-.43.66-.5.91-.12.33,0,.78.16,1.08.02.04.07.11.1.14.03.05.1.14.13.19.19.33.2.79-.02,1.12-.02.03-.07.11-.1.14-.03.05-.1.15-.13.19Z" class="cls-3"/><path d="M495.52,227.94s-.16,0-.21,0" class="cls-3"/><line y2="227.92" x2="495.04" y1="227.93" x1="495.32" class="cls-3"/><line y2="228.07" x2="495.22" y1="227.92" x1="495.04" class="cls-3"/><path d="M495.32,228.16s-.08-.07-.1-.09" class="cls-3"/><path d="M495.32,228.16c.27.21.55.77.62,1.1" class="cls-3"/><path d="M495.76,230.44c.11-.28.24-.87.19-1.18" class="cls-3"/><path d="M494.46,230.33c.06.29.13.88.13,1.18v.54c.14-.16.34-.4.34-.4.24-.27.68-.87.82-1.2" class="cls-3"/><path d="M494.46,230.33c-.19-.58-.64-1.26-1.23-1.49" class="cls-3"/><path d="M492.97,228.72c.06.03.2.09.26.12" class="cls-3"/><path d="M492.41,228.47c.13.06.42.19.55.25" class="cls-3"/><path d="M492.41,228.47c-.2-.09-.54-.36-.69-.53" class="cls-3"/><path d="M491.73,227.94c-.17-.2-.29-.72-.33-.97" class="cls-3"/><path d="M491.35,226.82s.05.11.06.15" class="cls-3"/><path d="M490.7,226c.16.2.49.62.64.82" class="cls-3"/><line y2="225.73" x2="490.49" y1="226" x1="490.7" class="cls-3"/><path d="M490.51,225.4c-.11.09-.12.23-.02.33" class="cls-3"/><line y2="225.3" x2="490.6" y1="225.4" x1="490.51" class="cls-3"/><path d="M490.6,225.3c.14-.14.43-.44.57-.58" class="cls-3"/><path d="M491.18,224.73s.12-.1.18-.09" class="cls-3"/><path d="M491.53,224.74s-.11-.11-.17-.11" class="cls-3"/><line y2="224.74" x2="491.53" y1="224.94" x1="491.68" class="cls-3"/><path d="M492.4,225.85c-.18-.22-.54-.69-.72-.91" class="cls-3"/><path d="M492.4,225.85s.1.08.16.07" class="cls-3"/><path d="M493.48,225.83c-.23.02-.7.06-.92.09" class="cls-3"/><path d="M493.88,225.81c-.1,0-.3.02-.4.03" class="cls-3"/><path d="M494.07,225.79s-.15,0-.19.01" class="cls-3"/><line y2="225.79" x2="494.07" y1="225.79" x1="494.12" class="cls-3"/><line y2="225.79" x2="494.12" y1="225.75" x1="494.12" class="cls-3"/><path d="M494.17,225.52c-.01.06-.04.17-.05.23" class="cls-3"/><path d="M494.17,225.52c.03-.12.08-.38.1-.51" class="cls-3"/><path d="M494.27,225.01c.06-.28.07-.88.06-1.17" class="cls-3"/><path d="M494.21,223.27c.04.14.11.43.12.57" class="cls-3"/><path d="M493.74,222.78c.21.07.39.29.47.49" class="cls-3"/><path d="M493.61,222.62c0,.07.07.13.13.16" class="cls-3"/><path d="M493.61,222.62c0-.06.02-.13.07-.16" class="cls-3"/><path d="M494.81,222.21c-.36-.13-.83.06-1.13.25" class="cls-3"/><path d="M494.81,222.21c.24.06.55.41.68.61" class="cls-3"/><path d="M495.49,222.82c.14.23.29.81.35,1.07" class="cls-3"/><path d="M495.84,223.89c.07.36.11,1.15.12,1.52" class="cls-3"/><line y2="225.52" x2="496.02" y1="225.51" x1="495.96" class="cls-3"/><path d="M496.02,225.52s.03,0,.04,0" class="cls-3"/><path d="M497.22,224.94c-.26.2-.84.5-1.16.58" class="cls-3"/><path d="M497.93,223.61c-.09.38-.39,1.08-.71,1.33" class="cls-3"/><path d="M497.93,223.61c.07-.47-.01-1.41-.11-1.88" class="cls-3"/><line y2="221.68" x2="497.8" y1="221.74" x1="497.81" class="cls-3"/><path d="M497.8,221.68c0-.07,0-.17.04-.22" class="cls-3"/><path d="M497.85,221.47c.05-.05.15-.06.22-.05" class="cls-3"/><path d="M498.06,221.42c.13.02.34.17.44.26" class="cls-3"/><path d="M498.5,221.68c.22.2.55.75.69,1.01" class="cls-3"/><path d="M499.65,224.77c-.01-.55-.21-1.6-.46-2.08" class="cls-3"/><path d="M499.14,226.56c.23-.42.51-1.3.51-1.79" class="cls-3"/><path d="M499.14,226.56c-.35.47-.96.97-1.52,1.13" class="cls-3"/><path d="M495.52,227.94c.52,0,1.61-.07,2.09-.25" class="cls-3"/></g></g><path d="M47.97,32.36l-.08-.23c-.09-.24-.18-.48-.29-.71-.07-.13-.13-.27-.2-.4-.11-.22-.25-.41-.41-.59-.09-.11-.19-.19-.3-.28-.09-.07-.18-.1-.29-.15-.25,0-5.08,0-5.08,0" class="cls-3"/><polyline points="134.94 33.86 135.94 33.86 136.96 33.86" class="cls-3"/><polyline points="109.83 33.86 111.21 33.86 114.46 33.86 117.28 33.86" class="cls-3"/><polyline points="82.69 33.86 82.71 33.86 85.96 33.86 89.25 33.86 90.22 33.86" class="cls-3"/><polyline points="62.96 33.87 64.28 33.87 65.07 33.87" class="cls-3"/><line y2="29.96" x2="53.09" y1="29.96" x1="52.93" class="cls-3"/><polyline points="85.48 186.16 85.48 280.87 114.62 280.87 114.62 186.16" class="cls-3"/><path d="M53.09,29.96h3.76c3.38.04,5.93,3.16,6.1,4.01v150.8s-3.76,0-3.76,0" class="cls-3"/><line y2="184.78" x2="161.23" y1="184.78" x1="38.86" class="cls-3"/><rect height="1.17" width="75.26" y="184.78" x="62.23" class="cls-3"/><path d="M41.23,30c.55,0,1.03.49,1.33.8,1.02,1.06,1.07,2.39,1.06,2.8v151.18h-4.78c0-50.29,0-100.58,0-150.87.39-2.35,1.41-3.91,2.39-3.92Z" class="cls-3"/><path d="M59.19,184.78h-12.34V33.7c.42-.65,2.76-3.74,6.17-3.74h0c3.41,0,5.99,3.16,6.16,4.02v150.8Z" class="cls-3"/><g><path d="M82.69,184.67v.1s-17.57,0-17.57,0V33.98c0-.11.03-.21.11-.29.83-.85,4.08-3.72,8.67-3.72h0c4.69-.04,7.77,2.87,8.67,3.77.08.08.12.19.12.3v150.64" class="cls-3"/><path d="M74.11,29.96c.67,0,1.34,0,2.02,0,.72,0,1.42.02,2.14.16.61.11,1.22.28,1.81.49,1,.36,1.95.86,2.82,1.46.6.41,1.16.87,1.69,1.37.04.03.07.07.11.1.14.14.22.32.22.51l.04,150.71" class="cls-1"/></g><path d="M109.86,184.67v.1s-19.59,0-19.59,0V33.97c-.01-.11.03-.21.11-.28.92-.84,4.54-3.73,9.68-3.73h0c5.18-.04,8.56,2.75,9.6,3.68.11.09.17.23.17.37l.03,150.67" class="cls-3"/><g><path d="M117.35,184.68v.1s17.62-.02,17.62-.02V34.05c.01-.14-.04-.27-.14-.36-.89-.89-4.12-3.69-8.66-3.69h0c-4.9-.05-8.1,3.02-8.85,3.78-.02.02-.02.04-.02.06l.06,150.85" class="cls-3"/><path d="M125.95,29.99c-.67,0-1.35,0-2.02,0-.73,0-1.43.02-2.14.16-.62.11-1.22.28-1.81.49-1,.36-1.95.86-2.83,1.46-.6.41-1.17.87-1.69,1.37-.04.03-.07.07-.11.1-.14.14-.22.32-.22.51l-.04,150.69" class="cls-1"/></g><g><line y2="29.97" x2="146.98" y1="29.97" x1="147.14" class="cls-3"/><path d="M146.98,29.97s-3.65,0-3.83,0c-3.44.04-6.04,3.16-6.22,4.01v150.8" class="cls-3"/><path d="M140.75,184.78h12.58s-.01-150.64-.01-150.64c0-.12-.03-.24-.09-.34-.61-1.01-2.9-3.83-6.19-3.83h0c-3.48,0-5.93,3.28-6.12,3.89l-.17,150.92Z" class="cls-3"/></g><g><path d="M151.83,32.1l.06-.12c.1-.24.16-.37.27-.6.07-.13.15-.25.22-.38.11-.22.3-.38.46-.57.09-.11.23-.18.34-.26.09-.07.31-.13.41-.17.43-.1,5.04-.05,5.04-.05" class="cls-3"/><path d="M158.77,29.95c-.45-.08-.98.37-1.23.83-.75,1.39-1.05,2.53-1.11,3.07l-.11,150.92h4.92c0-50.2,0-100.65,0-150.85,0-.04,0-.08-.01-.11-.46-2-1.35-3.66-2.45-3.86Z" class="cls-3"/></g><path d="M214.74,32.36l-.08-.23c-.09-.24-.18-.48-.29-.71-.07-.13-.13-.27-.2-.4-.11-.22-.25-.41-.41-.59-.09-.11-.19-.19-.3-.28-.09-.07-.18-.1-.29-.15-.25,0-5.08,0-5.08,0" class="cls-3"/><polyline points="301.71 33.85 302.71 33.85 303.73 33.85" class="cls-3"/><polyline points="276.6 33.85 277.98 33.85 281.23 33.85 284.05 33.85" class="cls-3"/><polyline points="249.46 33.85 249.48 33.85 252.73 33.85 256.02 33.85 256.99 33.85" class="cls-3"/><polyline points="229.74 33.86 231.05 33.86 231.84 33.86" class="cls-3"/><line y2="29.96" x2="219.86" y1="29.96" x1="219.7" class="cls-3"/><polyline points="252.25 186.15 252.25 280.86 281.39 280.86 281.39 186.15" class="cls-3"/><path d="M219.86,29.96h3.76c3.38.04,5.93,3.16,6.1,4.01v150.8s-3.76,0-3.76,0" class="cls-3"/><line y2="184.77" x2="328" y1="184.77" x1="205.64" class="cls-3"/><rect height="1.17" width="75.26" y="184.74" x="229" class="cls-3"/><path d="M208,29.99c.55,0,1.03.49,1.33.8,1.02,1.06,1.07,2.39,1.06,2.8v151.17h-4.78c0-50.29,0-100.57,0-150.86.39-2.35,1.41-3.91,2.39-3.92Z" class="cls-3"/><path d="M225.97,184.77h-12.34V33.69c.42-.65,2.76-3.74,6.17-3.74h0c3.41,0,5.99,3.16,6.16,4.02v150.8Z" class="cls-3"/><g><path d="M249.46,184.66v.1s-17.57,0-17.57,0V33.98c0-.11.03-.21.11-.29.83-.85,4.08-3.72,8.67-3.72h0c4.69-.04,7.77,2.87,8.66,3.77.08.08.12.19.12.3v150.63" class="cls-3"/><path d="M240.88,29.96c.67,0,1.34,0,2.02,0,.72,0,1.42.02,2.14.16.61.11,1.22.28,1.81.49,1,.36,1.95.86,2.82,1.46.6.41,1.16.87,1.69,1.37.04.03.07.07.11.1.14.14.22.32.22.51l.04,150.7" class="cls-1"/></g><path d="M276.63,184.66v.1s-19.58,0-19.58,0V33.97c-.01-.11.03-.21.11-.28.92-.84,4.54-3.73,9.68-3.73h0c5.18-.04,8.56,2.75,9.6,3.68.11.09.17.23.17.37l.03,150.67" class="cls-3"/><g><path d="M284.12,184.67v.1s17.61-.02,17.61-.02V34.04c.01-.14-.04-.27-.14-.36-.89-.89-4.11-3.69-8.66-3.69h0c-4.9-.05-8.1,3.02-8.85,3.78-.02.02-.02.04-.02.06l.06,150.84" class="cls-3"/><path d="M292.72,29.99h-2.02c-.73,0-1.43.03-2.14.16-.62.11-1.22.28-1.81.49-1,.36-1.95.86-2.83,1.46-.6.41-1.17.87-1.69,1.37-.04.03-.07.07-.11.1-.14.14-.22.32-.22.51l-.04,150.68" class="cls-1"/></g><g><line y2="29.96" x2="313.75" y1="29.97" x1="313.91" class="cls-3"/><path d="M313.75,29.96s-3.65,0-3.83,0c-3.44.04-6.04,3.16-6.22,4.01v150.8" class="cls-3"/><path d="M307.52,184.77h12.58s-.01-150.64-.01-150.64c0-.12-.03-.24-.09-.34-.61-1.01-2.9-3.83-6.19-3.83h0c-3.47,0-5.93,3.28-6.12,3.89l-.17,150.91Z" class="cls-3"/></g><g><path d="M318.6,32.1l.06-.12c.1-.24.16-.37.27-.6.07-.13.15-.25.22-.38.11-.22.3-.38.46-.57.09-.11.23-.18.34-.26.09-.07.31-.13.41-.17.43-.1,5.04-.05,5.04-.05" class="cls-3"/><path d="M325.54,29.95c-.45-.08-.98.37-1.23.83-.75,1.39-1.05,2.53-1.11,3.07l-.11,150.91h4.92c0-50.2,0-100.65,0-150.85,0-.04,0-.08-.01-.11-.46-2-1.35-3.66-2.45-3.85Z" class="cls-3"/></g><rect height="1.75" width="72.86" y="280.89" x="63.62" class="cls-3"/><g><g><polyline points="73.34 277.3 73.44 276.78 73.54 276.27 73.74 275.86 74.04 275.55 74.45 275.24 74.85 274.93 75.26 274.83 75.76 274.73" class="cls-3"/><polyline points="75.76 274.73 76.27 274.83 76.67 274.93 77.07 275.24 77.48 275.55 77.78 275.86 77.98 276.27 78.18 276.78 78.18 277.3" class="cls-3"/><line y2="277.3" x2="78.18" y1="277.3" x1="78.29" class="cls-3"/><line y2="279.97" x2="78.18" y1="279.97" x1="78.29" class="cls-3"/><line y2="279.97" x2="72.93" y1="280.69" x1="72.93" class="cls-3"/><line y2="279.97" x2="78.69" y1="280.69" x1="78.69" class="cls-3"/><polyline points="77.38 277.3 77.07 277.3 76.87 277.3 76.57 277.3 76.27 277.3 75.96 277.3 75.56 277.3 75.26 277.3 74.95 277.3" class="cls-3"/><polyline points="77.38 277.3 77.07 277.3 76.77 277.4 76.27 277.61" class="cls-3"/><polyline points="76.27 277.61 75.66 277.4 75.26 277.3 74.95 277.3" class="cls-3"/><polyline points="76.27 279.66 75.66 279.87 75.26 279.97 74.95 279.97" class="cls-3"/><polyline points="77.38 279.97 77.28 279.97 76.77 279.87 76.27 279.66" class="cls-3"/><line y2="277.61" x2="76.27" y1="279.66" x1="76.27" class="cls-3"/><polyline points="74.95 279.97 74.85 279.97 74.75 279.97 74.25 279.87 73.64 279.66" class="cls-3"/><line y2="277.61" x2="73.64" y1="279.66" x1="73.64" class="cls-3"/><polyline points="74.95 277.3 74.85 277.3 74.65 277.3 74.25 277.4 73.64 277.61" class="cls-3"/><polyline points="78.39 277.61 77.88 277.4 77.58 277.3 77.38 277.3" class="cls-3"/><line y2="277.61" x2="78.39" y1="279.66" x1="78.39" class="cls-3"/><polyline points="77.38 279.97 77.88 279.87 78.39 279.66" class="cls-3"/><polyline points="73.44 277.3 73.54 277.4 73.64 277.61" class="cls-3"/><polyline points="73.44 277.3 73.54 277.3 73.74 277.3 73.94 277.3 74.14 277.3 74.45 277.3 74.65 277.3 74.85 277.3 74.95 277.3" class="cls-3"/><polyline points="73.44 279.97 73.54 279.87 73.64 279.66" class="cls-3"/><polyline points="78.29 277.3 78.39 277.4 78.39 277.61" class="cls-3"/><polyline points="78.18 277.3 78.08 277.3 77.98 277.3 77.78 277.3 77.58 277.3 77.38 277.3" class="cls-3"/><polyline points="78.29 279.97 78.39 279.97 78.39 279.87 78.39 279.66" class="cls-3"/><polyline points="73.34 279.97 73.24 279.97 73.13 279.76 73.13 279.66" class="cls-3"/><line y2="277.61" x2="73.13" y1="279.66" x1="73.13" class="cls-3"/><polyline points="73.44 277.3 73.34 277.3 73.24 277.3 73.13 277.5 73.13 277.61" class="cls-3"/><line y2="277.3" x2="73.34" y1="277.3" x1="73.44" class="cls-3"/><polyline points="72.93 279.97 73.03 279.97 73.13 279.97 73.24 279.97 73.34 279.97 73.44 279.97 73.84 279.97 74.25 279.97 74.75 279.97 74.85 279.97 74.95 279.97 75.26 279.97 75.76 279.97 76.37 279.97" class="cls-3"/><polyline points="76.37 279.97 76.87 279.97 77.28 279.97 77.38 279.97 77.78 279.97 78.08 279.97 78.18 279.97 78.29 279.97 78.39 279.97 78.59 279.97 78.69 279.97" class="cls-3"/></g><g><polyline points="121.76 277.3 121.86 276.78 121.96 276.27 122.17 275.86 122.47 275.55 122.87 275.24 123.28 274.93 123.68 274.83 124.19 274.73" class="cls-3"/><polyline points="124.19 274.73 124.69 274.83 125.09 274.93 125.5 275.24 125.9 275.55 126.21 275.86 126.41 276.27 126.61 276.78 126.61 277.3" class="cls-3"/><line y2="277.3" x2="126.61" y1="277.3" x1="126.71" class="cls-3"/><line y2="279.97" x2="126.61" y1="279.97" x1="126.71" class="cls-3"/><line y2="279.97" x2="121.36" y1="280.69" x1="121.36" class="cls-3"/><line y2="279.97" x2="127.11" y1="280.69" x1="127.11" class="cls-3"/><polyline points="125.8 277.3 125.5 277.3 125.3 277.3 124.99 277.3 124.69 277.3 124.39 277.3 123.98 277.3 123.68 277.3 123.38 277.3" class="cls-3"/><polyline points="125.8 277.3 125.5 277.3 125.2 277.4 124.69 277.61" class="cls-3"/><polyline points="124.69 277.61 124.08 277.4 123.68 277.3 123.38 277.3" class="cls-3"/><polyline points="124.69 279.66 124.08 279.87 123.68 279.97 123.38 279.97" class="cls-3"/><polyline points="125.8 279.97 125.7 279.97 125.2 279.87 124.69 279.66" class="cls-3"/><line y2="277.61" x2="124.69" y1="279.66" x1="124.69" class="cls-3"/><polyline points="123.38 279.97 123.28 279.97 123.18 279.97 122.67 279.87 122.06 279.66" class="cls-3"/><line y2="277.61" x2="122.06" y1="279.66" x1="122.06" class="cls-3"/><polyline points="123.38 277.3 123.28 277.3 123.07 277.3 122.67 277.4 122.06 277.61" class="cls-3"/><polyline points="126.81 277.61 126.31 277.4 126 277.3 125.8 277.3" class="cls-3"/><line y2="277.61" x2="126.81" y1="279.66" x1="126.81" class="cls-3"/><polyline points="125.8 279.97 126.31 279.87 126.81 279.66" class="cls-3"/><polyline points="121.86 277.3 121.96 277.4 122.06 277.61" class="cls-3"/><polyline points="121.86 277.3 121.96 277.3 122.17 277.3 122.37 277.3 122.57 277.3 122.87 277.3 123.07 277.3 123.28 277.3 123.38 277.3" class="cls-3"/><polyline points="121.86 279.97 121.96 279.87 122.06 279.66" class="cls-3"/><polyline points="126.71 277.3 126.81 277.4 126.81 277.61" class="cls-3"/><polyline points="126.61 277.3 126.51 277.3 126.41 277.3 126.21 277.3 126 277.3 125.8 277.3" class="cls-3"/><polyline points="126.71 279.97 126.81 279.97 126.81 279.87 126.81 279.66" class="cls-3"/><polyline points="121.76 279.97 121.66 279.97 121.56 279.76 121.56 279.66" class="cls-3"/><line y2="277.61" x2="121.56" y1="279.66" x1="121.56" class="cls-3"/><polyline points="121.86 277.3 121.76 277.3 121.66 277.3 121.56 277.5 121.56 277.61" class="cls-3"/><line y2="277.3" x2="121.76" y1="277.3" x1="121.86" class="cls-3"/><polyline points="121.36 279.97 121.46 279.97 121.56 279.97 121.66 279.97 121.76 279.97 121.86 279.97 122.27 279.97 122.67 279.97 123.18 279.97 123.28 279.97 123.38 279.97 123.68 279.97 124.19 279.97 124.79 279.97" class="cls-3"/><polyline points="124.79 279.97 125.3 279.97 125.7 279.97 125.8 279.97 126.21 279.97 126.51 279.97 126.61 279.97 126.71 279.97 126.81 279.97 127.01 279.97 127.11 279.97" class="cls-3"/></g></g><g><rect height="1.75" width="72.85" y="280.89" x="230.39" class="cls-3"/><g><g><polyline points="240.11 277.29 240.21 276.78 240.31 276.26 240.51 275.85 240.81 275.54 241.22 275.24 241.62 274.93 242.03 274.82 242.53 274.72" class="cls-3"/><polyline points="242.53 274.72 243.04 274.82 243.44 274.93 243.84 275.24 244.25 275.54 244.55 275.85 244.75 276.26 244.95 276.78 244.95 277.29" class="cls-3"/><line y2="277.29" x2="244.95" y1="277.29" x1="245.06" class="cls-3"/><line y2="279.96" x2="244.95" y1="279.96" x1="245.06" class="cls-3"/><line y2="279.96" x2="239.7" y1="280.68" x1="239.7" class="cls-3"/><line y2="279.96" x2="245.46" y1="280.68" x1="245.46" class="cls-3"/><polyline points="244.15 277.29 243.84 277.29 243.64 277.29 243.34 277.29 243.04 277.29 242.73 277.29 242.33 277.29 242.03 277.29 241.72 277.29" class="cls-3"/><polyline points="244.15 277.29 243.84 277.29 243.54 277.39 243.04 277.6" class="cls-3"/><polyline points="243.04 277.6 242.43 277.39 242.03 277.29 241.72 277.29" class="cls-3"/><polyline points="243.04 279.66 242.43 279.86 242.03 279.96 241.72 279.96" class="cls-3"/><polyline points="244.15 279.96 244.05 279.96 243.54 279.86 243.04 279.66" class="cls-3"/><line y2="277.6" x2="243.04" y1="279.66" x1="243.04" class="cls-3"/><polyline points="241.72 279.96 241.62 279.96 241.52 279.96 241.02 279.86 240.41 279.66" class="cls-3"/><line y2="277.6" x2="240.41" y1="279.66" x1="240.41" class="cls-3"/><polyline points="241.72 277.29 241.62 277.29 241.42 277.29 241.02 277.39 240.41 277.6" class="cls-3"/><polyline points="245.16 277.6 244.65 277.39 244.35 277.29 244.15 277.29" class="cls-3"/><line y2="277.6" x2="245.16" y1="279.66" x1="245.16" class="cls-3"/><polyline points="244.15 279.96 244.65 279.86 245.16 279.66" class="cls-3"/><polyline points="240.21 277.29 240.31 277.39 240.41 277.6" class="cls-3"/><polyline points="240.21 277.29 240.31 277.29 240.51 277.29 240.71 277.29 240.92 277.29 241.22 277.29 241.42 277.29 241.62 277.29 241.72 277.29" class="cls-3"/><polyline points="240.21 279.96 240.31 279.86 240.41 279.66" class="cls-3"/><polyline points="245.06 277.29 245.16 277.39 245.16 277.6" class="cls-3"/><polyline points="244.95 277.29 244.85 277.29 244.75 277.29 244.55 277.29 244.35 277.29 244.15 277.29" class="cls-3"/><polyline points="245.06 279.96 245.16 279.96 245.16 279.86 245.16 279.66" class="cls-3"/><polyline points="240.11 279.96 240.01 279.96 239.91 279.76 239.91 279.66" class="cls-3"/><line y2="277.6" x2="239.91" y1="279.66" x1="239.91" class="cls-3"/><polyline points="240.21 277.29 240.11 277.29 240.01 277.29 239.91 277.5 239.91 277.6" class="cls-3"/><line y2="277.29" x2="240.11" y1="277.29" x1="240.21" class="cls-3"/><polyline points="239.7 279.96 239.8 279.96 239.91 279.96 240.01 279.96 240.11 279.96 240.21 279.96 240.61 279.96 241.02 279.96 241.52 279.96 241.62 279.96 241.72 279.96 242.03 279.96 242.53 279.96 243.14 279.96" class="cls-3"/><polyline points="243.14 279.96 243.64 279.96 244.05 279.96 244.15 279.96 244.55 279.96 244.85 279.96 244.95 279.96 245.06 279.96 245.16 279.96 245.36 279.96 245.46 279.96" class="cls-3"/></g><g><polyline points="288.53 277.29 288.63 276.78 288.73 276.26 288.93 275.85 289.24 275.54 289.64 275.24 290.04 274.93 290.45 274.82 290.95 274.72" class="cls-3"/><polyline points="290.95 274.72 291.46 274.82 291.86 274.93 292.27 275.24 292.67 275.54 292.97 275.85 293.18 276.26 293.38 276.78 293.38 277.29" class="cls-3"/><line y2="277.29" x2="293.38" y1="277.29" x1="293.48" class="cls-3"/><line y2="279.96" x2="293.38" y1="279.96" x1="293.48" class="cls-3"/><line y2="279.96" x2="288.13" y1="280.68" x1="288.13" class="cls-3"/><line y2="279.96" x2="293.88" y1="280.68" x1="293.88" class="cls-3"/><polyline points="292.57 277.29 292.27 277.29 292.06 277.29 291.76 277.29 291.46 277.29 291.16 277.29 290.75 277.29 290.45 277.29 290.15 277.29" class="cls-3"/><polyline points="292.57 277.29 292.27 277.29 291.96 277.39 291.46 277.6" class="cls-3"/><polyline points="291.46 277.6 290.85 277.39 290.45 277.29 290.15 277.29" class="cls-3"/><polyline points="291.46 279.66 290.85 279.86 290.45 279.96 290.15 279.96" class="cls-3"/><polyline points="292.57 279.96 292.47 279.96 291.96 279.86 291.46 279.66" class="cls-3"/><line y2="277.6" x2="291.46" y1="279.66" x1="291.46" class="cls-3"/><polyline points="290.15 279.96 290.04 279.96 289.94 279.96 289.44 279.86 288.83 279.66" class="cls-3"/><line y2="277.6" x2="288.83" y1="279.66" x1="288.83" class="cls-3"/><polyline points="290.15 277.29 290.04 277.29 289.84 277.29 289.44 277.39 288.83 277.6" class="cls-3"/><polyline points="293.58 277.6 293.07 277.39 292.77 277.29 292.57 277.29" class="cls-3"/><line y2="277.6" x2="293.58" y1="279.66" x1="293.58" class="cls-3"/><polyline points="292.57 279.96 293.07 279.86 293.58 279.66" class="cls-3"/><polyline points="288.63 277.29 288.73 277.39 288.83 277.6" class="cls-3"/><polyline points="288.63 277.29 288.73 277.29 288.93 277.29 289.14 277.29 289.34 277.29 289.64 277.29 289.84 277.29 290.04 277.29 290.15 277.29" class="cls-3"/><polyline points="288.63 279.96 288.73 279.86 288.83 279.66" class="cls-3"/><polyline points="293.48 277.29 293.58 277.39 293.58 277.6" class="cls-3"/><polyline points="293.38 277.29 293.28 277.29 293.18 277.29 292.97 277.29 292.77 277.29 292.57 277.29" class="cls-3"/><polyline points="293.48 279.96 293.58 279.96 293.58 279.86 293.58 279.66" class="cls-3"/><polyline points="288.53 279.96 288.43 279.96 288.33 279.76 288.33 279.66" class="cls-3"/><line y2="277.6" x2="288.33" y1="279.66" x1="288.33" class="cls-3"/><polyline points="288.63 277.29 288.53 277.29 288.43 277.29 288.33 277.5 288.33 277.6" class="cls-3"/><line y2="277.29" x2="288.53" y1="277.29" x1="288.63" class="cls-3"/><polyline points="288.13 279.96 288.23 279.96 288.33 279.96 288.43 279.96 288.53 279.96 288.63 279.96 289.03 279.96 289.44 279.96 289.94 279.96 290.04 279.96 290.15 279.96 290.45 279.96 290.95 279.96 291.56 279.96" class="cls-3"/><polyline points="291.56 279.96 292.06 279.96 292.47 279.96 292.57 279.96 292.97 279.96 293.28 279.96 293.38 279.96 293.48 279.96 293.58 279.96 293.78 279.96 293.88 279.96" class="cls-3"/></g></g></g></g></g></g></g></svg>