<svg viewBox="0 0 531.26 288" xmlns:xlink="http://www.w3.org/1999/xlink" xmlns="http://www.w3.org/2000/svg" id="RePlastic"><defs><style>.cls-1,.cls-2,.cls-3{fill:none;}.cls-2{stroke-width:.31px;}.cls-2,.cls-3{stroke:#000;stroke-miterlimit:10;}.cls-3{stroke-width:.3px;}</style><symbol viewBox="0 0 531.27 288" id="fundo_transparente"><rect height="288" width="531.27" x="0" class="cls-1"/></symbol></defs><g id="banco_Bellevillle_1500"><use xlink:href="#fundo_transparente" transform="translate(0)" height="288" width="531.27"/><path d="M371.14,221.6l-.22,3.06,3.04.22.33-3.06-3.15-.22M396.42,224l-.22,3.06-3.15-.33.33-3.06,3.04.33M413.46,193.94l1.09-2.95,2.82.98-.98,2.95-2.93-.98M422.14,169.06l.98-2.84,2.93.98-.98,2.95-2.93-1.09M414.54,191l-1.09,2.95,2.93.98.98-2.95-2.82-.98M352.05,219.74l-.33,3.06-3.04-.33.33-3.06,3.04.33M422.68,160.66l-2.06,5.89-.43,1.2-1.84,5.24M422.14,169.06l.98-2.84,2.93.98-.98,2.95-2.93-1.09M418.34,172.99h0v-.11l.11-.11v-.22l.11-.11v-.11M417.47,198.85l-.22.55M421.81,186.52l-.98,2.62M422.03,185.76l-.11.33M417.36,199.18l-.11.22M417.36,199.18l-.22.65M424.63,178.23l-.11.33.22-.55-2.6,7.53M424.63,178.12l-.33.98M420.84,189.14h0v.11M416.39,201.8l-.11.44-.11.44-.65,1.86M343.91,224.72l-.43.11-.43.11-.43.33-.22.33-.11.55v.44l.11.44.33.44.87.87,4.34,3.16,1.19.87,1.09.98.98,1.09.76,1.2.65,1.31.43,1.42.22,1.42.11,1.53-.11,1.42-.33,1.42-.43,1.42-10.42,23.36-1.3,3.16-1.09,3.16-1.09,3.27-.87,3.27-.87,3.27h16.06l.76-4.04.87-3.93.98-3.93,1.3-3.93,1.3-3.82,1.63-3.71,1.63-3.71,1.95-3.6,1.95-2.62,2.17-2.4,2.28-2.29,2.5-2.18,2.5-1.96,2.06-1.09,2.17-.87,2.17-.65,2.28-.44,2.28-.33h2.39l2.28.11,2.28.22,2.28.55,2.17.65,2.17.87,2.06,1.09,1.95,1.2,1.84,1.42,1.74,1.53,1.63,1.64,1.41,1.86,1.3,1.96,1.09,1.96.98,2.07.76,2.29,1.3,3.6,1.09,3.6.87,3.71.65,3.71.54,3.82.22,3.82.11,3.82h18.45l-.98-4.04-1.09-4.04-1.3-3.93-.43-1.31-1.52-5.57-1.63-5.57-1.84-5.57-1.84-5.46-.33-.87-.22-.87-.76-3.49-.54-3.6-.54-3.49-.33-3.6-.11-3.6v-3.6l.11-2.95.33-2.95.54-2.84.65-2.84,1.95-7.09,2.17-6.88,2.28-6.98,2.39-6.88,2.6-6.77,2.6-6.77.22-1.31.11-1.42-.11-1.31-.33-1.31-.43-1.31-.65-1.2-.87-1.09-.87-.98-1.09-.87-1.19-.76-1.19-.55-.65-.11h-.54l-.54.22-.54.33-.43.44M415.52,204.53l-5.64,20.19-.43,1.09-.54,1.09-.76.87-.87.87-.98.65-1.09.55-1.09.33h-.54M422.03,185.65l-5.64,16.15M429.3,164.8l-7.16,20.74M429.84,163.38l-1.09,3.16M430.28,162.29l-.22.55M403.58,229.78l.33-2.95.33-3.27v-.33l-.11-.22-.11-.11-.11-.22-.11-.11-.22-.11-.11-.11h-.22l-.11-.11-8.03-.76-7.92-.76h-.43l-.11.11-.22.11-.11.11-.22.11-.11.11-.11.22v.22l-.11.11-.22,3.27-.33,3.27M422.14,185.54l-3.04-1.09-3.04-1.09-.22-.11h-.43l-.11.11h-.22l-.22.11-.11.11-.11.22-.11.11-.11.22-2.6,7.53-2.71,7.64v.76l.11.11.11.22.11.11.11.22h.22l.11.11,3.04,1.09,3.15,1.09M416.06,202.89l.54-1.64M416.06,202.89v-.11.22M416.6,201.26l.43-1.2,2.06-6M422.14,185.54l-.22.44M421.92,186.09l.11-.33-.11.22.11-.33M419.1,194.05l2.6-7.42.11-.33.11-.22M416.06,203v-.11M422.03,185.65l.11-.11M359.21,225.85l.33-3.27c.04-.4.08-.81.12-1.21.1-.93.52-2.36-.28-3.11-.35-.33-.87-.38-1.34-.41-1.6-.1-3.19-.22-4.78-.37-.84-.08-1.68-.16-2.52-.24-1.47-.14-2.93-.28-4.4-.42-.76-.07-1.52-.18-2.28-.25-.62-.06-1.46-.26-2.01.1-.15.1-.3.22-.4.38-.07.1-.11.22-.15.33-.02.04-.03.09-.05.13-.11.3-.08.56-.1.87l-.09,1.21c-.08.97-.15,1.94-.23,2.91-.05.67-.1,1.34-.16,2.01M340.93,223.71l-.07.8,2.24.22,60.47,5.45M381.45,227.93l.22-3.16.33-3.27v-.44l-.11-.11v-.22l-.11-.11-.22-.22-.11-.11h-.22l-.11-.11h-.22l-7.92-.76-8.03-.76h-.33l-.22.11h-.22l-.11.11-.11.11-.11.22-.11.11-.11.22v.22l-.33,3.16-.33,3.27M430.82,160.66l-3.04-1.09-3.04-1.09h-.76l-.22.11-.22.11-.11.11-.11.11-.11.22-.11.11-.43,1.42M418.34,172.99l-.54,1.42v.76l.11.22.11.22.11.11.11.11.22.11.11.11,3.04,1.09,3.04,1.09M427.67,169.5l-.11.44-2.6,7.53,2.93-8.29M430.6,161.31l.22-.65M424.74,178.12l.11-.44M430.82,160.66h0M427.89,169.17l2.5-7.31.11-.33.11-.22M424.63,178.23l.11-.11M424.85,177.68h0" class="cls-3"/><path d="M269.83,105.8v16.03c0,.78-.67,1.45-1.5,1.45H33.96c-.83,0-1.5-.67-1.5-1.45v-16.03c0-.84.67-1.51,1.5-1.51h234.37c.83,0,1.5.67,1.5,1.51Z" class="cls-3"/><path d="M269.83,83.52v15.97c0,.84-.67,1.51-1.5,1.51H33.96c-.83,0-1.5-.67-1.5-1.51v-15.97c0-.84.67-1.51,1.5-1.51h234.37c.83,0,1.5.67,1.5,1.51Z" class="cls-3"/><path d="M269.83,61.35v16.03c0,.84-.67,1.51-1.5,1.51H33.96c-.83,0-1.5-.67-1.5-1.51v-16.03c0-.78.67-1.45,1.5-1.45h234.37c.83,0,1.5.67,1.5,1.45Z" class="cls-3"/><path d="M269.83,45.04v8.32c0,.89-.72,1.62-1.61,1.62H34.07c-.89,0-1.61-.73-1.61-1.62v-8.32c0,.73.56,1.23,1.22,1.23h234.93c.67,0,1.22-.5,1.22-1.23Z" class="cls-3"/><path d="M269.83,35.05v10c0,.73-.55,1.23-1.22,1.23H33.68c-.67,0-1.22-.5-1.22-1.23v-10c0-.89.72-1.62,1.61-1.62h234.15c.89,0,1.61.73,1.61,1.62Z" class="cls-3"/><rect height="6.53" width="15.85" y="26.89" x="56.08" class="cls-3"/><rect height="3.29" width="15.85" y="100.99" x="56.08" class="cls-3"/><rect height="6.48" width="15.85" y="123.28" x="56.08" class="cls-3"/><rect height="3.13" width="15.85" y="78.88" x="56.08" class="cls-3"/><rect height="4.91" width="15.85" y="54.98" x="56.08" class="cls-3"/><rect height="6.53" width="15.85" y="26.89" x="230.35" class="cls-3"/><rect height="3.29" width="15.85" y="100.99" x="230.35" class="cls-3"/><rect height="6.48" width="15.85" y="123.28" x="230.35" class="cls-3"/><rect height="3.13" width="15.85" y="78.88" x="230.35" class="cls-3"/><rect height="4.91" width="15.85" y="54.98" x="230.35" class="cls-3"/><rect height="3.13" width="7.81" y="78.88" x="60.16" class="cls-3"/><rect height="3.29" width="7.81" y="100.99" x="60.16" class="cls-3"/><rect height="3.13" width="7.81" y="78.88" x="234.32" class="cls-3"/><rect height="3.29" width="7.81" y="100.99" x="234.32" class="cls-3"/><path d="M269.83,160.08v16.75c0,.82-.67,1.52-1.5,1.52H33.96c-.83,0-1.5-.7-1.5-1.52v-16.75c0-.88.67-1.58,1.5-1.58h234.37c.83,0,1.5.7,1.5,1.58Z" class="cls-3"/><path d="M269.83,184.85v16.75c0,.84-.67,1.51-1.5,1.51H33.96c-.83,0-1.5-.67-1.5-1.51v-16.75c0-.89.67-1.56,1.5-1.56h234.37c.83,0,1.5.67,1.5,1.56Z" class="cls-3"/><path d="M269.26,223.78c.54,0,.57-.54.57-.54v-5.74c0-.29-.67-.53-1.5-.53H33.96c-.83,0-1.5.25-1.5.53v5.74c0,.16.22.33.61.41.22.08.55.12.89.12h235.3Z" class="cls-3"/><rect height="4.91" width="15.85" y="178.37" x="56.08" class="cls-3"/><rect height="13.85" width="15.85" y="203.11" x="56.08" class="cls-3"/><rect height="61.24" width="15.85" y="223.83" x="56.06" class="cls-3"/><rect height="4.91" width="15.85" y="178.37" x="230.35" class="cls-3"/><rect height="13.85" width="15.85" y="203.11" x="230.35" class="cls-3"/><rect height="61.24" width="15.85" y="223.83" x="230.35" class="cls-3"/><rect height="2.07" width="23.61" y="225.84" x="32.45" class="cls-3"/><rect height="2.07" width="158.44" y="225.84" x="71.92" class="cls-3"/><rect height="2.07" width="23.61" y="225.84" x="246.21" class="cls-3"/><polygon points="269.82 223.77 269.82 225.84 246.21 225.84 246.21 223.83 230.35 223.83 230.35 225.84 71.92 225.84 71.92 223.83 56.06 223.83 56.06 225.84 32.45 225.84 32.45 223.77 269.82 223.77" class="cls-3"/><rect height="2.07" width="23.61" y="227.91" x="32.45" class="cls-3"/><rect height="2.07" width="158.44" y="227.91" x="71.92" class="cls-3"/><rect height="2.07" width="23.61" y="227.91" x="246.21" class="cls-3"/><line y2="285.01" x2="10.72" y1="158.68" x1="10.72" class="cls-2"/><rect height=".31" width="2.01" y="158.52" x="9.72"/><rect height=".31" width="2.01" y="284.86" x="9.72"/><path d="M7.62,234.45c-.07.22-.17.4-.31.56-.13.15-.29.28-.47.36s-.38.13-.6.13c-.16,0-.31-.02-.45-.07-.15-.05-.28-.11-.4-.2-.12-.09-.22-.19-.3-.31s-.14-.25-.18-.4c-.05.14-.12.25-.2.36-.08.1-.17.19-.27.27s-.21.13-.33.17c-.12.04-.25.06-.38.06-.21,0-.39-.04-.56-.12-.17-.08-.32-.2-.44-.34-.13-.14-.22-.32-.29-.52-.07-.2-.1-.42-.1-.66s.03-.46.1-.66c.07-.2.17-.37.29-.52.12-.15.27-.26.44-.35.17-.08.36-.13.57-.13.13,0,.26.02.38.06.12.04.24.1.34.17.1.07.19.16.27.27.08.1.14.22.19.35.04-.15.1-.28.18-.4s.19-.22.31-.3c.12-.08.25-.15.4-.2.14-.05.29-.07.45-.07.21,0,.41.04.6.13.18.09.34.21.47.36.13.15.24.34.31.56.07.22.11.46.11.72s-.04.5-.11.72ZM3.06,234.09c.04.11.09.2.16.28.07.08.15.14.26.18s.21.07.33.07c.11,0,.22-.02.32-.07.1-.04.19-.11.26-.19.07-.08.13-.17.17-.28s.06-.23.06-.35-.02-.25-.06-.35c-.04-.1-.1-.2-.17-.28s-.16-.14-.26-.19c-.1-.04-.21-.07-.32-.07-.12,0-.23.02-.33.07-.1.04-.19.11-.26.19-.07.08-.12.17-.16.28-.04.11-.06.23-.06.36s.02.24.06.35ZM6.99,233.32c-.04-.13-.11-.23-.19-.32-.08-.09-.18-.16-.29-.21-.11-.05-.24-.08-.37-.08s-.26.03-.37.08c-.11.05-.21.12-.29.21-.08.09-.15.2-.2.33-.05.13-.07.26-.07.41s.02.28.07.41c.04.13.11.23.19.33s.18.16.3.21c.11.05.24.07.37.07.14,0,.27-.02.38-.07.11-.05.21-.12.29-.21.08-.09.14-.2.19-.33.04-.13.07-.26.07-.41s-.02-.29-.07-.41Z"/><path d="M2.53,228.54c.13-.25.32-.47.55-.65.23-.18.52-.32.85-.42.33-.1.69-.15,1.08-.15s.76.05,1.1.15.62.24.86.42c.24.18.43.4.56.65.13.25.2.52.2.83s-.07.57-.2.82-.32.47-.56.65c-.24.18-.53.32-.86.42-.33.1-.7.15-1.1.15s-.75-.05-1.08-.15c-.33-.1-.61-.24-.85-.42-.24-.18-.42-.4-.55-.65-.13-.25-.2-.53-.2-.83s.07-.58.2-.83ZM3.17,229.89c.1.16.23.29.41.41.18.11.38.2.63.27.24.07.51.1.81.1s.57-.03.82-.09c.25-.06.46-.15.64-.27.18-.12.32-.25.42-.41.1-.16.15-.33.15-.52s-.05-.37-.15-.53c-.1-.16-.24-.3-.42-.41-.18-.11-.39-.2-.64-.27-.25-.06-.52-.09-.82-.09s-.56.03-.81.09c-.25.06-.46.15-.63.26-.17.11-.31.25-.41.41-.1.16-.15.34-.15.53s.05.37.15.52Z"/><path d="M2.53,223.91c.13-.25.32-.47.55-.65.23-.18.52-.32.85-.42.33-.1.69-.15,1.08-.15s.76.05,1.1.15.62.24.86.42c.24.18.43.4.56.65.13.25.2.52.2.83s-.07.57-.2.82-.32.47-.56.65c-.24.18-.53.32-.86.42-.33.1-.7.15-1.1.15s-.75-.05-1.08-.15c-.33-.1-.61-.24-.85-.42-.24-.18-.42-.4-.55-.65-.13-.25-.2-.53-.2-.83s.07-.58.2-.83ZM3.17,225.26c.1.16.23.29.41.41.18.11.38.2.63.27.24.07.51.1.81.1s.57-.03.82-.09c.25-.06.46-.15.64-.27.18-.12.32-.25.42-.41.1-.16.15-.33.15-.52s-.05-.37-.15-.53c-.1-.16-.24-.3-.42-.41-.18-.11-.39-.2-.64-.27-.25-.06-.52-.09-.82-.09s-.56.03-.81.09c-.25.06-.46.15-.63.26-.17.11-.31.25-.41.41-.1.16-.15.34-.15.53s.05.37.15.52Z"/><path d="M4.03,219.08h.67c-.24-.11-.42-.26-.54-.45-.12-.18-.18-.4-.18-.63,0-.26.07-.48.2-.67.14-.19.33-.32.59-.41-.26-.11-.45-.27-.59-.46-.14-.2-.2-.43-.2-.7,0-.38.12-.67.37-.88.25-.21.61-.31,1.07-.31h2.25v.7h-2.16c-.29,0-.52.07-.69.2-.17.13-.25.31-.25.54,0,.12.02.22.07.32.05.1.11.18.2.26.09.07.19.13.32.16.12.04.26.06.4.06h2.11v.7h-2.16c-.14,0-.27.02-.38.06-.12.04-.22.09-.3.15-.08.06-.14.14-.19.23-.04.09-.07.2-.07.31s.02.22.07.32c.05.1.12.18.21.25.09.07.2.12.32.17.12.04.26.06.41.06h2.09v.7h-3.64v-.68Z"/><path d="M4.03,212.89h.67c-.24-.11-.42-.26-.54-.45-.12-.18-.18-.4-.18-.63,0-.26.07-.48.2-.67.14-.19.33-.32.59-.41-.26-.11-.45-.27-.59-.46-.14-.2-.2-.43-.2-.7,0-.38.12-.67.37-.88.25-.21.61-.31,1.07-.31h2.25v.7h-2.16c-.29,0-.52.07-.69.2-.17.13-.25.31-.25.54,0,.12.02.22.07.32.05.1.11.18.2.26.09.07.19.13.32.16.12.04.26.06.4.06h2.11v.7h-2.16c-.14,0-.27.02-.38.06-.12.04-.22.09-.3.15-.08.06-.14.14-.19.23-.04.09-.07.2-.07.31s.02.22.07.32c.05.1.12.18.21.25.09.07.2.12.32.17.12.04.26.06.41.06h2.09v.7h-3.64v-.68Z"/><line y2="127.08" x2="10.72" y1="24.49" x1="10.72" class="cls-2"/><rect height=".31" width="2.01" y="24.33" x="9.72"/><rect height=".31" width="2.01" y="126.92" x="9.72"/><path d="M7.55,87.91c-.12.24-.29.44-.51.61-.22.17-.5.3-.82.39s-.69.14-1.09.14-.8-.05-1.15-.15c-.35-.1-.64-.24-.89-.43-.25-.18-.43-.41-.56-.67-.13-.26-.2-.55-.2-.88,0-.37.09-.7.27-.97.18-.27.43-.47.76-.59l.29.64c-.21.07-.37.18-.48.34-.11.16-.17.35-.17.56,0,.2.05.38.14.55s.23.31.4.44c.17.13.37.22.61.29s.49.1.77.1h.17c.06,0,.1,0,.15,0-.25-.08-.45-.23-.59-.45-.14-.22-.21-.48-.21-.79,0-.24.04-.46.12-.65.08-.2.19-.36.34-.5.15-.14.32-.25.52-.33.2-.08.42-.12.66-.12s.47.04.68.13c.21.08.38.2.53.35.14.15.26.32.34.53s.12.43.12.68c0,.3-.06.57-.18.81ZM6.98,86.74c-.05-.12-.12-.22-.21-.3-.09-.08-.19-.15-.31-.2-.12-.05-.26-.07-.41-.07s-.29.02-.41.07c-.12.05-.23.12-.32.2s-.16.19-.21.31-.07.25-.07.4.02.27.07.39.12.22.2.31c.09.09.19.15.31.2.12.05.25.07.4.07s.28-.03.41-.08.24-.12.34-.21.17-.2.22-.32c.05-.12.08-.26.08-.4s-.03-.26-.08-.38Z"/><path d="M7.67,84.07l-4.62-1.78v2.69h-.67v-3.5h.59l4.7,1.77v.83Z"/><path d="M2.53,78.24c.13-.25.32-.47.55-.65.23-.18.52-.32.85-.42.33-.1.69-.15,1.08-.15s.76.05,1.1.15.62.24.86.42c.24.18.43.4.56.65.13.25.2.52.2.83s-.07.57-.2.82-.32.47-.56.65c-.24.18-.53.32-.86.42-.33.1-.7.15-1.1.15s-.75-.05-1.08-.15c-.33-.1-.61-.24-.85-.42-.24-.18-.42-.4-.55-.65-.13-.25-.2-.53-.2-.83s.07-.58.2-.83ZM3.17,79.59c.1.16.23.29.41.41.18.11.38.2.63.27.24.07.51.1.81.1s.57-.03.82-.09c.25-.06.46-.15.64-.27.18-.12.32-.25.42-.41.1-.16.15-.33.15-.52s-.05-.37-.15-.53c-.1-.16-.24-.3-.42-.41-.18-.11-.39-.2-.64-.27-.25-.06-.52-.09-.82-.09s-.56.03-.81.09c-.25.06-.46.15-.63.26-.17.11-.31.25-.41.41-.1.16-.15.34-.15.53s.05.37.15.52Z"/><path d="M4.03,73.41h.67c-.24-.11-.42-.26-.54-.45-.12-.18-.18-.4-.18-.63,0-.26.07-.48.2-.67.14-.19.33-.32.59-.41-.26-.11-.45-.27-.59-.46-.14-.2-.2-.43-.2-.7,0-.38.12-.67.37-.88.25-.21.61-.31,1.07-.31h2.25v.7h-2.16c-.29,0-.52.07-.69.2-.17.13-.25.31-.25.54,0,.12.02.22.07.32.05.1.11.18.2.26.09.07.19.13.32.16.12.04.26.06.4.06h2.11v.7h-2.16c-.14,0-.27.02-.38.06-.12.04-.22.09-.3.15-.08.06-.14.14-.19.23-.04.09-.07.2-.07.31s.02.22.07.32c.05.1.12.18.21.25.09.07.2.12.32.17.12.04.26.06.41.06h2.09v.7h-3.64v-.68Z"/><path d="M4.03,67.23h.67c-.24-.11-.42-.26-.54-.45-.12-.18-.18-.4-.18-.63,0-.26.07-.48.2-.67.14-.19.33-.32.59-.41-.26-.11-.45-.27-.59-.46-.14-.2-.2-.43-.2-.7,0-.38.12-.67.37-.88.25-.21.61-.31,1.07-.31h2.25v.7h-2.16c-.29,0-.52.07-.69.2-.17.13-.25.31-.25.54,0,.12.02.22.07.32.05.1.11.18.2.26.09.07.19.13.32.16.12.04.26.06.4.06h2.11v.7h-2.16c-.14,0-.27.02-.38.06-.12.04-.22.09-.3.15-.08.06-.14.14-.19.23-.04.09-.07.2-.07.31s.02.22.07.32c.05.1.12.18.21.25.09.07.2.12.32.17.12.04.26.06.41.06h2.09v.7h-3.64v-.68Z"/><path d="M138.17,3.35v5.29h-.72v-4.54l-1.3.64v-.73l1.36-.67h.67Z"/><path d="M142.12,3.35v.65h-1.92l-.25,1.54c.1-.09.22-.16.36-.21.14-.05.29-.07.46-.07.25,0,.47.04.68.13.21.08.38.2.53.35.15.15.27.33.35.54.08.21.12.44.12.69s-.04.48-.13.7c-.09.21-.21.4-.36.55-.16.15-.34.27-.56.36-.21.08-.45.13-.71.13-.2,0-.39-.03-.58-.08s-.35-.13-.5-.23c-.15-.1-.28-.22-.39-.36-.11-.14-.19-.3-.24-.48l.63-.31c.07.24.19.43.39.56.19.14.42.21.67.21.15,0,.29-.03.41-.08.13-.05.23-.12.33-.21.09-.09.16-.2.21-.33.05-.13.08-.27.08-.43s-.03-.3-.08-.44c-.05-.13-.13-.25-.22-.34s-.21-.17-.34-.22c-.13-.05-.28-.08-.44-.08-.18,0-.35.04-.49.1-.14.07-.26.17-.36.31l-.62-.15.47-2.79h2.52Z"/><path d="M145.86,3.49c.25.13.47.32.65.55.18.23.32.52.42.85.1.33.15.69.15,1.08s-.05.76-.15,1.1-.24.62-.42.86c-.18.24-.4.43-.65.56-.25.13-.52.2-.83.2s-.57-.07-.82-.2-.47-.32-.65-.56c-.18-.24-.32-.53-.42-.86-.1-.33-.15-.7-.15-1.1s.05-.75.15-1.08c.1-.33.24-.61.42-.85.18-.24.4-.42.65-.55.25-.13.53-.2.83-.2s.58.07.83.2ZM144.51,4.12c-.16.1-.29.23-.41.41-.11.18-.2.38-.27.63-.07.24-.1.51-.1.81s.03.57.09.82c.06.25.15.46.27.64.12.18.25.32.41.42.16.1.33.15.52.15s.37-.05.53-.15c.16-.1.3-.24.41-.42.11-.18.2-.39.27-.64.06-.25.09-.52.09-.82s-.03-.56-.09-.81c-.06-.25-.15-.46-.26-.63-.11-.17-.25-.31-.41-.41-.16-.1-.34-.15-.53-.15s-.37.05-.52.15Z"/><path d="M150.5,3.49c.25.13.47.32.65.55.18.23.32.52.42.85.1.33.15.69.15,1.08s-.05.76-.15,1.1-.24.62-.42.86c-.18.24-.4.43-.65.56-.25.13-.52.2-.83.2s-.57-.07-.82-.2-.47-.32-.65-.56c-.18-.24-.32-.53-.42-.86-.1-.33-.15-.7-.15-1.1s.05-.75.15-1.08c.1-.33.24-.61.42-.85.18-.24.4-.42.65-.55.25-.13.53-.2.83-.2s.58.07.83.2ZM149.14,4.12c-.16.1-.29.23-.41.41-.11.18-.2.38-.27.63-.07.24-.1.51-.1.81s.03.57.09.82c.06.25.15.46.27.64.12.18.25.32.41.42.16.1.33.15.52.15s.37-.05.53-.15c.16-.1.3-.24.41-.42.11-.18.2-.39.27-.64.06-.25.09-.52.09-.82s-.03-.56-.09-.81c-.06-.25-.15-.46-.26-.63-.11-.17-.25-.31-.41-.41-.16-.1-.34-.15-.53-.15s-.37.05-.52.15Z"/><path d="M155.32,4.99v.67c.11-.24.26-.42.45-.54.18-.12.4-.18.63-.18.26,0,.48.07.67.2.19.14.32.33.41.59.11-.26.27-.45.46-.59.2-.14.43-.2.7-.2.38,0,.67.12.88.37.21.25.31.61.31,1.07v2.25h-.7v-2.16c0-.29-.07-.52-.2-.69-.13-.17-.31-.25-.54-.25-.12,0-.22.02-.32.07-.1.05-.18.11-.26.2-.07.09-.13.19-.16.32-.04.12-.06.26-.06.4v2.11h-.7v-2.16c0-.14-.02-.27-.06-.38-.04-.12-.09-.22-.15-.3-.06-.08-.14-.14-.23-.19-.09-.04-.2-.07-.31-.07s-.22.02-.32.07c-.1.05-.18.12-.25.21-.07.09-.12.2-.17.32-.04.12-.06.26-.06.41v2.09h-.7v-3.64h.68Z"/><path d="M161.51,4.99v.67c.11-.24.26-.42.45-.54.18-.12.4-.18.63-.18.26,0,.48.07.67.2.19.14.32.33.41.59.11-.26.27-.45.46-.59.2-.14.43-.2.7-.2.38,0,.67.12.88.37.21.25.31.61.31,1.07v2.25h-.7v-2.16c0-.29-.07-.52-.2-.69-.13-.17-.31-.25-.54-.25-.12,0-.22.02-.32.07-.1.05-.18.11-.26.2-.07.09-.13.19-.16.32-.04.12-.06.26-.06.4v2.11h-.7v-2.16c0-.14-.02-.27-.06-.38-.04-.12-.09-.22-.15-.3-.06-.08-.14-.14-.23-.19-.09-.04-.2-.07-.31-.07s-.22.02-.32.07c-.1.05-.18.12-.25.21-.07.09-.12.2-.17.32-.04.12-.06.26-.06.41v2.09h-.7v-3.64h.68Z"/><line y2="12.6" x2="32.71" y1="12.6" x1="269.68" class="cls-2"/><rect height="2.01" width=".31" y="11.6" x="269.52"/><rect height="2.01" width=".31" y="11.6" x="32.56"/></g></svg>