<svg viewBox="0 0 531.27 288" xmlns:xlink="http://www.w3.org/1999/xlink" xmlns="http://www.w3.org/2000/svg" id="Camada_2"><defs><style>.cls-1,.cls-2{fill:none;}.cls-3{fill:#12100c;}.cls-2{stroke:#12100c;stroke-linecap:round;stroke-linejoin:round;stroke-width:.3px;}</style><symbol viewBox="0 0 531.27 288" id="fundo_transparente"><rect height="288" width="531.27" x="0" class="cls-1"/></symbol></defs><g id="RePlastic"><g id="deck_apoiado_ao_solo_3000_mm"><use xlink:href="#fundo_transparente" height="288" width="531.27"/><g id="LINE"><line y2="69.07" x2="14.28" y1="281.72" x1="14.28" class="cls-2"/><rect height=".3" width="1.95" y="281.57" x="13.3" class="cls-3"/><rect height=".3" width="1.95" y="68.92" x="13.3" class="cls-3"/></g><g id="MTEXT"><path d="M4.23,188.15h.55l.98.65c.06.04.11.07.15.1.04.03.08.06.13.09.04.03.09.06.13.09s.09.06.15.09c.02-.19.08-.37.18-.52.09-.16.21-.29.35-.41.14-.12.3-.21.48-.27s.38-.09.59-.09c.24,0,.47.04.67.13.2.08.38.2.52.36.14.15.26.34.34.54.08.21.12.44.12.69,0,.21-.03.4-.08.58-.05.18-.13.35-.23.49-.1.15-.22.28-.37.39-.14.11-.31.2-.49.26l-.31-.63c.24-.08.44-.22.58-.41.14-.19.21-.42.21-.67,0-.15-.02-.28-.07-.4-.05-.12-.11-.23-.2-.31-.09-.09-.19-.15-.32-.2-.12-.05-.26-.07-.41-.07s-.29.03-.42.08c-.13.06-.23.13-.32.22-.09.09-.16.21-.21.34-.05.13-.08.28-.08.44v.35l-.44.08-1.07-.72s-.09-.06-.12-.09c-.03-.03-.07-.05-.12-.08-.04-.03-.08-.06-.12-.08-.03-.03-.07-.06-.12-.09v2.18h-.65v-3.09Z"/><path d="M4.38,184.46c.13-.25.32-.47.55-.65.23-.18.52-.32.85-.42.33-.1.69-.15,1.08-.15s.76.05,1.1.15c.33.1.62.24.86.42s.43.4.56.65c.13.25.2.52.2.83s-.07.57-.2.82-.32.47-.56.65c-.24.18-.53.32-.86.42-.33.1-.7.15-1.1.15s-.75-.05-1.08-.15c-.33-.1-.61-.24-.85-.42-.24-.18-.42-.4-.55-.65-.13-.25-.2-.53-.2-.83s.07-.58.2-.83ZM5.01,185.81c.1.16.23.29.41.41.18.11.38.2.63.27.24.07.51.1.8.1s.57-.03.82-.09c.25-.06.46-.15.64-.27.18-.12.32-.25.42-.41.1-.16.15-.33.15-.52s-.05-.37-.15-.53c-.1-.16-.24-.3-.42-.41-.18-.11-.39-.2-.64-.27-.25-.06-.52-.09-.82-.09s-.56.03-.81.09c-.25.06-.46.15-.63.26-.17.11-.31.25-.41.41-.1.16-.15.34-.15.53s.05.37.15.52Z"/><path d="M4.38,179.83c.13-.25.32-.47.55-.65.23-.18.52-.32.85-.42.33-.1.69-.15,1.08-.15s.76.05,1.1.15c.33.1.62.24.86.42s.43.4.56.65c.13.25.2.52.2.83s-.07.57-.2.82-.32.47-.56.65c-.24.18-.53.32-.86.42-.33.1-.7.15-1.1.15s-.75-.05-1.08-.15c-.33-.1-.61-.24-.85-.42-.24-.18-.42-.4-.55-.65-.13-.25-.2-.53-.2-.83s.07-.58.2-.83ZM5.01,181.18c.1.16.23.29.41.41.18.11.38.2.63.27.24.07.51.1.8.1s.57-.03.82-.09c.25-.06.46-.15.64-.27.18-.12.32-.25.42-.41.1-.16.15-.33.15-.52s-.05-.37-.15-.53c-.1-.16-.24-.3-.42-.41-.18-.11-.39-.2-.64-.27-.25-.06-.52-.09-.82-.09s-.56.03-.81.09c-.25.06-.46.15-.63.26-.17.11-.31.25-.41.41-.1.16-.15.34-.15.53s.05.37.15.52Z"/><path d="M4.38,175.19c.13-.25.32-.47.55-.65.23-.18.52-.32.85-.42.33-.1.69-.15,1.08-.15s.76.05,1.1.15c.33.1.62.24.86.42s.43.4.56.65c.13.25.2.52.2.83s-.07.57-.2.82-.32.47-.56.65c-.24.18-.53.32-.86.42-.33.1-.7.15-1.1.15s-.75-.05-1.08-.15c-.33-.1-.61-.24-.85-.42-.24-.18-.42-.4-.55-.65-.13-.25-.2-.53-.2-.83s.07-.58.2-.83ZM5.01,176.54c.1.16.23.29.41.41.18.11.38.2.63.27.24.07.51.1.8.1s.57-.03.82-.09c.25-.06.46-.15.64-.27.18-.12.32-.25.42-.41.1-.16.15-.33.15-.52s-.05-.37-.15-.53c-.1-.16-.24-.3-.42-.41-.18-.11-.39-.2-.64-.27-.25-.06-.52-.09-.82-.09s-.56.03-.81.09c-.25.06-.46.15-.63.26-.17.11-.31.25-.41.41-.1.16-.15.34-.15.53s.05.37.15.52Z"/><path d="M5.88,170.36h.67c-.24-.11-.42-.26-.54-.45s-.18-.4-.18-.63c0-.26.07-.48.2-.67.14-.19.33-.32.59-.41-.26-.11-.45-.27-.59-.46-.13-.2-.2-.43-.2-.7,0-.38.12-.67.37-.88s.61-.31,1.07-.31h2.25v.7h-2.16c-.29,0-.52.07-.69.2-.17.13-.25.31-.25.54,0,.12.02.22.07.32.05.1.11.18.2.26.09.07.2.13.32.16.12.04.26.06.4.06h2.11v.7h-2.16c-.14,0-.27.02-.38.06-.12.04-.22.09-.3.15-.08.06-.14.14-.19.23-.04.09-.07.2-.07.31s.02.22.07.32c.05.1.12.18.21.25s.2.12.32.17c.12.04.26.06.41.06h2.09v.7h-3.64v-.68Z"/><path d="M5.88,164.18h.67c-.24-.11-.42-.26-.54-.45s-.18-.4-.18-.63c0-.26.07-.48.2-.67.14-.19.33-.32.59-.41-.26-.11-.45-.27-.59-.46-.13-.2-.2-.43-.2-.7,0-.38.12-.67.37-.88s.61-.31,1.07-.31h2.25v.7h-2.16c-.29,0-.52.07-.69.2-.17.13-.25.31-.25.54,0,.12.02.22.07.32.05.1.11.18.2.26.09.07.2.13.32.16.12.04.26.06.4.06h2.11v.7h-2.16c-.14,0-.27.02-.38.06-.12.04-.22.09-.3.15-.08.06-.14.14-.19.23-.04.09-.07.2-.07.31s.02.22.07.32c.05.1.12.18.21.25s.2.12.32.17c.12.04.26.06.41.06h2.09v.7h-3.64v-.68Z"/></g><rect height="8.55" width="207.27" y="18.1" x="28.45" class="cls-2"/><line y2="26.49" x2="32.58" y1="18.1" x1="32.58" class="cls-2"/><line y2="26.49" x2="231.4" y1="18.1" x1="231.4" class="cls-2"/><path d="M41.85,15.29h-.65v.02c0,.19-.13.34-.3.34-.15,0-.27-.14-.27-.34v-.02h-.45v.02c0,.19-.13.34-.27.34-.18,0-.3-.14-.3-.34v-.02h-.42v.02c0,.19-.13.34-.28.34s-.3-.14-.3-.34v-.02h-.43v.02c0,.19-.12.34-.3.34-.15,0-.28-.14-.28-.34v-.02h-.4v.02c0,.19-.13.34-.28.34-.17,0-.3-.14-.3-.34v-.02h-.47v.02c0,.19-.13.34-.28.34-.17,0-.3-.14-.3-.34v-.02h-.38v.02c0,.19-.15.34-.3.34s-.28-.14-.28-.34v-.02h-.47v.02c0,.19-.13.34-.27.34s-.28-.14-.28-.34v-.02h-.45v.02c0,.19-.13.34-.28.34-.18,0-.3-.14-.3-.34v-.02h-.48v.02c0,.19-.13.34-.27.34-.18,0-.3-.14-.3-.34v-.02h-.42v.02c0,.19-.13.34-.28.34-.17,0-.3-.14-.3-.34v-.02h-.43v.02c0,.19-.12.34-.3.34-.15,0-.28-.14-.28-.34v-.02h-.55c-.3,0-.52.24-.52.51v2.29h13.9v-2.29c0-.27-.23-.51-.5-.51Z" class="cls-2"/><path d="M56.63,15.29h-.65v.02c0,.19-.13.34-.3.34-.15,0-.27-.14-.27-.34v-.02h-.45v.02c0,.19-.13.34-.27.34-.18,0-.3-.14-.3-.34v-.02h-.42v.02c0,.19-.13.34-.28.34s-.3-.14-.3-.34v-.02h-.43v.02c0,.19-.12.34-.3.34-.15,0-.28-.14-.28-.34v-.02h-.4v.02c0,.19-.13.34-.28.34-.17,0-.3-.14-.3-.34v-.02h-.47v.02c0,.19-.13.34-.28.34-.17,0-.3-.14-.3-.34v-.02h-.38v.02c0,.19-.15.34-.3.34s-.28-.14-.28-.34v-.02h-.47v.02c0,.19-.13.34-.27.34s-.28-.14-.28-.34v-.02h-.45v.02c0,.19-.13.34-.28.34-.18,0-.3-.14-.3-.34v-.02h-.48v.02c0,.19-.13.34-.27.34-.18,0-.3-.14-.3-.34v-.02h-.42v.02c0,.19-.13.34-.28.34-.17,0-.3-.14-.3-.34v-.02h-.43v.02c0,.19-.12.34-.3.34-.15,0-.28-.14-.28-.34v-.02h-.55c-.3,0-.52.24-.52.51v2.29h13.9v-2.29c0-.27-.23-.51-.5-.51Z" class="cls-2"/><path d="M71.61,15.29h-.65v.02c0,.19-.13.34-.3.34-.15,0-.27-.14-.27-.34v-.02h-.45v.02c0,.19-.13.34-.27.34-.18,0-.3-.14-.3-.34v-.02h-.42v.02c0,.19-.13.34-.28.34s-.3-.14-.3-.34v-.02h-.43v.02c0,.19-.12.34-.3.34-.15,0-.28-.14-.28-.34v-.02h-.4v.02c0,.19-.13.34-.28.34-.17,0-.3-.14-.3-.34v-.02h-.47v.02c0,.19-.13.34-.28.34-.17,0-.3-.14-.3-.34v-.02h-.38v.02c0,.19-.15.34-.3.34s-.28-.14-.28-.34v-.02h-.47v.02c0,.19-.13.34-.27.34s-.28-.14-.28-.34v-.02h-.45v.02c0,.19-.13.34-.28.34-.18,0-.3-.14-.3-.34v-.02h-.48v.02c0,.19-.13.34-.27.34-.18,0-.3-.14-.3-.34v-.02h-.42v.02c0,.19-.13.34-.28.34-.17,0-.3-.14-.3-.34v-.02h-.43v.02c0,.19-.12.34-.3.34-.15,0-.28-.14-.28-.34v-.02h-.55c-.3,0-.52.24-.52.51v2.29h13.9v-2.29c0-.27-.23-.51-.5-.51Z" class="cls-2"/><path d="M86.46,15.29h-.65v.02c0,.19-.13.34-.3.34-.15,0-.27-.14-.27-.34v-.02h-.45v.02c0,.19-.13.34-.27.34-.18,0-.3-.14-.3-.34v-.02h-.42v.02c0,.19-.13.34-.28.34s-.3-.14-.3-.34v-.02h-.43v.02c0,.19-.12.34-.3.34-.15,0-.28-.14-.28-.34v-.02h-.4v.02c0,.19-.13.34-.28.34-.17,0-.3-.14-.3-.34v-.02h-.47v.02c0,.19-.13.34-.28.34-.17,0-.3-.14-.3-.34v-.02h-.38v.02c0,.19-.15.34-.3.34s-.28-.14-.28-.34v-.02h-.47v.02c0,.19-.13.34-.27.34s-.28-.14-.28-.34v-.02h-.45v.02c0,.19-.13.34-.28.34-.18,0-.3-.14-.3-.34v-.02h-.48v.02c0,.19-.13.34-.27.34-.18,0-.3-.14-.3-.34v-.02h-.42v.02c0,.19-.13.34-.28.34-.17,0-.3-.14-.3-.34v-.02h-.43v.02c0,.19-.12.34-.3.34-.15,0-.28-.14-.28-.34v-.02h-.55c-.3,0-.52.24-.52.51v2.29h13.9v-2.29c0-.27-.23-.51-.5-.51Z" class="cls-2"/><path d="M101.32,15.29h-.65v.02c0,.19-.13.34-.3.34-.15,0-.27-.14-.27-.34v-.02h-.45v.02c0,.19-.13.34-.27.34-.18,0-.3-.14-.3-.34v-.02h-.42v.02c0,.19-.13.34-.28.34s-.3-.14-.3-.34v-.02h-.43v.02c0,.19-.12.34-.3.34-.15,0-.28-.14-.28-.34v-.02h-.4v.02c0,.19-.13.34-.28.34-.17,0-.3-.14-.3-.34v-.02h-.47v.02c0,.19-.13.34-.28.34-.17,0-.3-.14-.3-.34v-.02h-.38v.02c0,.19-.15.34-.3.34s-.28-.14-.28-.34v-.02h-.47v.02c0,.19-.13.34-.27.34s-.28-.14-.28-.34v-.02h-.45v.02c0,.19-.13.34-.28.34-.18,0-.3-.14-.3-.34v-.02h-.48v.02c0,.19-.13.34-.27.34-.18,0-.3-.14-.3-.34v-.02h-.42v.02c0,.19-.13.34-.28.34-.17,0-.3-.14-.3-.34v-.02h-.43v.02c0,.19-.12.34-.3.34-.15,0-.28-.14-.28-.34v-.02h-.55c-.3,0-.52.24-.52.51v2.29h13.9v-2.29c0-.27-.23-.51-.5-.51Z" class="cls-2"/><path d="M116.09,15.29h-.65v.02c0,.19-.13.34-.3.34-.15,0-.27-.14-.27-.34v-.02h-.45v.02c0,.19-.13.34-.27.34-.18,0-.3-.14-.3-.34v-.02h-.42v.02c0,.19-.13.34-.28.34s-.3-.14-.3-.34v-.02h-.43v.02c0,.19-.12.34-.3.34-.15,0-.28-.14-.28-.34v-.02h-.4v.02c0,.19-.13.34-.28.34-.17,0-.3-.14-.3-.34v-.02h-.47v.02c0,.19-.13.34-.28.34-.17,0-.3-.14-.3-.34v-.02h-.38v.02c0,.19-.15.34-.3.34s-.28-.14-.28-.34v-.02h-.47v.02c0,.19-.13.34-.27.34s-.28-.14-.28-.34v-.02h-.45v.02c0,.19-.13.34-.28.34-.18,0-.3-.14-.3-.34v-.02h-.48v.02c0,.19-.13.34-.27.34-.18,0-.3-.14-.3-.34v-.02h-.42v.02c0,.19-.13.34-.28.34-.17,0-.3-.14-.3-.34v-.02h-.43v.02c0,.19-.12.34-.3.34-.15,0-.28-.14-.28-.34v-.02h-.55c-.3,0-.52.24-.52.51v2.29h13.9v-2.29c0-.27-.23-.51-.5-.51Z" class="cls-2"/><path d="M130.94,15.29h-.65v.02c0,.19-.13.34-.3.34-.15,0-.27-.14-.27-.34v-.02h-.45v.02c0,.19-.13.34-.27.34-.18,0-.3-.14-.3-.34v-.02h-.42v.02c0,.19-.13.34-.28.34s-.3-.14-.3-.34v-.02h-.43v.02c0,.19-.12.34-.3.34-.15,0-.28-.14-.28-.34v-.02h-.4v.02c0,.19-.13.34-.28.34-.17,0-.3-.14-.3-.34v-.02h-.47v.02c0,.19-.13.34-.28.34-.17,0-.3-.14-.3-.34v-.02h-.38v.02c0,.19-.15.34-.3.34s-.28-.14-.28-.34v-.02h-.47v.02c0,.19-.13.34-.27.34s-.28-.14-.28-.34v-.02h-.45v.02c0,.19-.13.34-.28.34-.18,0-.3-.14-.3-.34v-.02h-.48v.02c0,.19-.13.34-.27.34-.18,0-.3-.14-.3-.34v-.02h-.42v.02c0,.19-.13.34-.28.34-.17,0-.3-.14-.3-.34v-.02h-.43v.02c0,.19-.12.34-.3.34-.15,0-.28-.14-.28-.34v-.02h-.55c-.3,0-.52.24-.52.51v2.29h13.9v-2.29c0-.27-.23-.51-.5-.51Z" class="cls-2"/><path d="M145.9,15.29h-.65v.02c0,.19-.13.34-.3.34-.15,0-.27-.14-.27-.34v-.02h-.45v.02c0,.19-.13.34-.27.34-.18,0-.3-.14-.3-.34v-.02h-.42v.02c0,.19-.13.34-.28.34s-.3-.14-.3-.34v-.02h-.43v.02c0,.19-.12.34-.3.34-.15,0-.28-.14-.28-.34v-.02h-.4v.02c0,.19-.13.34-.28.34-.17,0-.3-.14-.3-.34v-.02h-.47v.02c0,.19-.13.34-.28.34-.17,0-.3-.14-.3-.34v-.02h-.38v.02c0,.19-.15.34-.3.34s-.28-.14-.28-.34v-.02h-.47v.02c0,.19-.13.34-.27.34s-.28-.14-.28-.34v-.02h-.45v.02c0,.19-.13.34-.28.34-.18,0-.3-.14-.3-.34v-.02h-.48v.02c0,.19-.13.34-.27.34-.18,0-.3-.14-.3-.34v-.02h-.42v.02c0,.19-.13.34-.28.34-.17,0-.3-.14-.3-.34v-.02h-.43v.02c0,.19-.12.34-.3.34-.15,0-.28-.14-.28-.34v-.02h-.55c-.3,0-.52.24-.52.51v2.29h13.9v-2.29c0-.27-.23-.51-.5-.51Z" class="cls-2"/><path d="M160.91,15.29h-.65v.02c0,.19-.13.34-.3.34-.15,0-.27-.14-.27-.34v-.02h-.45v.02c0,.19-.13.34-.27.34-.18,0-.3-.14-.3-.34v-.02h-.42v.02c0,.19-.13.34-.28.34s-.3-.14-.3-.34v-.02h-.43v.02c0,.19-.12.34-.3.34-.15,0-.28-.14-.28-.34v-.02h-.4v.02c0,.19-.13.34-.28.34-.17,0-.3-.14-.3-.34v-.02h-.47v.02c0,.19-.13.34-.28.34-.17,0-.3-.14-.3-.34v-.02h-.38v.02c0,.19-.15.34-.3.34s-.28-.14-.28-.34v-.02h-.47v.02c0,.19-.13.34-.27.34s-.28-.14-.28-.34v-.02h-.45v.02c0,.19-.13.34-.28.34-.18,0-.3-.14-.3-.34v-.02h-.48v.02c0,.19-.13.34-.27.34-.18,0-.3-.14-.3-.34v-.02h-.42v.02c0,.19-.13.34-.28.34-.17,0-.3-.14-.3-.34v-.02h-.43v.02c0,.19-.12.34-.3.34-.15,0-.28-.14-.28-.34v-.02h-.55c-.3,0-.52.24-.52.51v2.29h13.9v-2.29c0-.27-.23-.51-.5-.51Z" class="cls-2"/><path d="M175.58,15.29h-.65v.02c0,.19-.13.34-.3.34-.15,0-.27-.14-.27-.34v-.02h-.45v.02c0,.19-.13.34-.27.34-.18,0-.3-.14-.3-.34v-.02h-.42v.02c0,.19-.13.34-.28.34s-.3-.14-.3-.34v-.02h-.43v.02c0,.19-.12.34-.3.34-.15,0-.28-.14-.28-.34v-.02h-.4v.02c0,.19-.13.34-.28.34-.17,0-.3-.14-.3-.34v-.02h-.47v.02c0,.19-.13.34-.28.34-.17,0-.3-.14-.3-.34v-.02h-.38v.02c0,.19-.15.34-.3.34s-.28-.14-.28-.34v-.02h-.47v.02c0,.19-.13.34-.27.34s-.28-.14-.28-.34v-.02h-.45v.02c0,.19-.13.34-.28.34-.18,0-.3-.14-.3-.34v-.02h-.48v.02c0,.19-.13.34-.27.34-.18,0-.3-.14-.3-.34v-.02h-.42v.02c0,.19-.13.34-.28.34-.17,0-.3-.14-.3-.34v-.02h-.43v.02c0,.19-.12.34-.3.34-.15,0-.28-.14-.28-.34v-.02h-.55c-.3,0-.52.24-.52.51v2.29h13.9v-2.29c0-.27-.23-.51-.5-.51Z" class="cls-2"/><path d="M190.47,15.29h-.65v.02c0,.19-.13.34-.3.34-.15,0-.27-.14-.27-.34v-.02h-.45v.02c0,.19-.13.34-.27.34-.18,0-.3-.14-.3-.34v-.02h-.42v.02c0,.19-.13.34-.28.34s-.3-.14-.3-.34v-.02h-.43v.02c0,.19-.12.34-.3.34-.15,0-.28-.14-.28-.34v-.02h-.4v.02c0,.19-.13.34-.28.34-.17,0-.3-.14-.3-.34v-.02h-.47v.02c0,.19-.13.34-.28.34-.17,0-.3-.14-.3-.34v-.02h-.38v.02c0,.19-.15.34-.3.34s-.28-.14-.28-.34v-.02h-.47v.02c0,.19-.13.34-.27.34s-.28-.14-.28-.34v-.02h-.45v.02c0,.19-.13.34-.28.34-.18,0-.3-.14-.3-.34v-.02h-.48v.02c0,.19-.13.34-.27.34-.18,0-.3-.14-.3-.34v-.02h-.42v.02c0,.19-.13.34-.28.34-.17,0-.3-.14-.3-.34v-.02h-.43v.02c0,.19-.12.34-.3.34-.15,0-.28-.14-.28-.34v-.02h-.55c-.3,0-.52.24-.52.51v2.29h13.9v-2.29c0-.27-.23-.51-.5-.51Z" class="cls-2"/><path d="M205.44,15.29h-.65v.02c0,.19-.13.34-.3.34-.15,0-.27-.14-.27-.34v-.02h-.45v.02c0,.19-.13.34-.27.34-.18,0-.3-.14-.3-.34v-.02h-.42v.02c0,.19-.13.34-.28.34s-.3-.14-.3-.34v-.02h-.43v.02c0,.19-.12.34-.3.34-.15,0-.28-.14-.28-.34v-.02h-.4v.02c0,.19-.13.34-.28.34-.17,0-.3-.14-.3-.34v-.02h-.47v.02c0,.19-.13.34-.28.34-.17,0-.3-.14-.3-.34v-.02h-.38v.02c0,.19-.15.34-.3.34s-.28-.14-.28-.34v-.02h-.47v.02c0,.19-.13.34-.27.34s-.28-.14-.28-.34v-.02h-.45v.02c0,.19-.13.34-.28.34-.18,0-.3-.14-.3-.34v-.02h-.48v.02c0,.19-.13.34-.27.34-.18,0-.3-.14-.3-.34v-.02h-.42v.02c0,.19-.13.34-.28.34-.17,0-.3-.14-.3-.34v-.02h-.43v.02c0,.19-.12.34-.3.34-.15,0-.28-.14-.28-.34v-.02h-.55c-.3,0-.52.24-.52.51v2.29h13.9v-2.29c0-.27-.23-.51-.5-.51Z" class="cls-2"/><path d="M220.26,15.29h-.65v.02c0,.19-.13.34-.3.34-.15,0-.27-.14-.27-.34v-.02h-.45v.02c0,.19-.13.34-.27.34-.18,0-.3-.14-.3-.34v-.02h-.42v.02c0,.19-.13.34-.28.34s-.3-.14-.3-.34v-.02h-.43v.02c0,.19-.12.34-.3.34-.15,0-.28-.14-.28-.34v-.02h-.4v.02c0,.19-.13.34-.28.34-.17,0-.3-.14-.3-.34v-.02h-.47v.02c0,.19-.13.34-.28.34-.17,0-.3-.14-.3-.34v-.02h-.38v.02c0,.19-.15.34-.3.34s-.28-.14-.28-.34v-.02h-.47v.02c0,.19-.13.34-.27.34s-.28-.14-.28-.34v-.02h-.45v.02c0,.19-.13.34-.28.34-.18,0-.3-.14-.3-.34v-.02h-.48v.02c0,.19-.13.34-.27.34-.18,0-.3-.14-.3-.34v-.02h-.42v.02c0,.19-.13.34-.28.34-.17,0-.3-.14-.3-.34v-.02h-.43v.02c0,.19-.12.34-.3.34-.15,0-.28-.14-.28-.34v-.02h-.55c-.3,0-.52.24-.52.51v2.29h13.9v-2.29c0-.27-.23-.51-.5-.51Z" class="cls-2"/><path d="M235.23,15.29h-.65v.02c0,.19-.13.34-.3.34-.15,0-.27-.14-.27-.34v-.02h-.45v.02c0,.19-.13.34-.27.34-.18,0-.3-.14-.3-.34v-.02h-.42v.02c0,.19-.13.34-.28.34s-.3-.14-.3-.34v-.02h-.43v.02c0,.19-.12.34-.3.34-.15,0-.28-.14-.28-.34v-.02h-.4v.02c0,.19-.13.34-.28.34-.17,0-.3-.14-.3-.34v-.02h-.47v.02c0,.19-.13.34-.28.34-.17,0-.3-.14-.3-.34v-.02h-.38v.02c0,.19-.15.34-.3.34s-.28-.14-.28-.34v-.02h-.47v.02c0,.19-.13.34-.27.34s-.28-.14-.28-.34v-.02h-.45v.02c0,.19-.13.34-.28.34-.18,0-.3-.14-.3-.34v-.02h-.48v.02c0,.19-.13.34-.27.34-.18,0-.3-.14-.3-.34v-.02h-.42v.02c0,.19-.13.34-.28.34-.17,0-.3-.14-.3-.34v-.02h-.43v.02c0,.19-.12.34-.3.34-.15,0-.28-.14-.28-.34v-.02h-.55c-.3,0-.52.24-.52.51v2.29h13.9v-2.29c0-.27-.23-.51-.5-.51Z" class="cls-2"/><path d="M490.54,274.72c.27,0,.5.24.5.51v2.29s-212.95,0-212.95,0v-2.29c0-.27.23-.51.52-.51h.55s211.38,0,211.38,0Z" class="cls-2"/><rect transform="translate(664.1 -104.74) rotate(90)" height="199.74" width="4.3" y="179.81" x="382.27" class="cls-2"/><rect height="212.65" width="14.15" y="69.17" x="28.45" class="cls-2"/><rect height="212.65" width="14.15" y="69.17" x="43.32" class="cls-2"/><rect height="212.65" width="14.15" y="69.17" x="73.02" class="cls-2"/><rect height="212.65" width="14.12" y="69.17" x="102.74" class="cls-2"/><rect height="212.65" width="14.15" y="69.17" x="132.42" class="cls-2"/><rect height="212.65" width="14.15" y="69.17" x="162.14" class="cls-2"/><rect height="212.65" width="14.15" y="69.17" x="191.87" class="cls-2"/><rect height="212.65" width="14" y="69.17" x="221.56" class="cls-2"/><rect height="4.31" width=".73" y="75.66" x="42.59" class="cls-2"/><rect height="4.31" width=".7" y="75.66" x="57.47" class="cls-2"/><rect height="4.31" width=".7" y="75.66" x="72.32" class="cls-2"/><rect height="4.31" width=".73" y="75.66" x="87.17" class="cls-2"/><rect height="4.31" width=".7" y="75.66" x="102.04" class="cls-2"/><rect height="4.31" width=".7" y="75.66" x="116.87" class="cls-2"/><rect height="4.31" width=".7" y="75.66" x="131.72" class="cls-2"/><rect height="4.31" width=".73" y="75.66" x="146.57" class="cls-2"/><rect height="4.31" width=".7" y="75.66" x="161.44" class="cls-2"/><rect height="4.31" width=".7" y="75.66" x="176.29" class="cls-2"/><rect height="4.31" width=".73" y="75.66" x="191.14" class="cls-2"/><rect height="4.31" width=".7" y="75.66" x="206.01" class="cls-2"/><rect height="4.31" width=".7" y="75.66" x="220.86" class="cls-2"/><rect height="4.31" width=".73" y="270.46" x="42.59" class="cls-2"/><rect height="212.65" width="14.15" y="69.17" x="58.17" class="cls-2"/><rect height="4.31" width=".7" y="270.46" x="57.47" class="cls-2"/><rect height="4.31" width=".7" y="270.46" x="72.32" class="cls-2"/><rect height="212.65" width="14.15" y="69.17" x="87.89" class="cls-2"/><rect height="4.31" width=".73" y="270.46" x="87.17" class="cls-2"/><rect height="4.31" width=".7" y="270.46" x="102.04" class="cls-2"/><rect height="212.65" width="14.15" y="69.17" x="117.57" class="cls-2"/><rect height="4.31" width=".7" y="270.46" x="116.87" class="cls-2"/><rect height="4.31" width=".7" y="270.46" x="131.72" class="cls-2"/><rect height="212.65" width="14.15" y="69.17" x="147.29" class="cls-2"/><rect height="4.31" width=".73" y="270.46" x="146.57" class="cls-2"/><rect height="4.31" width=".7" y="270.46" x="161.44" class="cls-2"/><rect height="212.65" width="14.15" y="69.17" x="176.99" class="cls-2"/><rect height="4.31" width=".7" y="270.46" x="176.29" class="cls-2"/><rect height="4.31" width=".73" y="270.46" x="191.14" class="cls-2"/><rect height="212.65" width="14.15" y="69.17" x="206.72" class="cls-2"/><rect height="4.31" width=".7" y="270.46" x="206.01" class="cls-2"/><rect height="4.31" width=".7" y="270.46" x="220.86" class="cls-2"/><rect height="4.31" width=".73" y="238" x="42.59" class="cls-2"/><rect height="4.31" width=".7" y="238" x="57.47" class="cls-2"/><rect height="4.31" width=".7" y="238" x="72.32" class="cls-2"/><rect height="4.31" width=".73" y="238" x="87.17" class="cls-2"/><rect height="4.31" width=".7" y="238" x="102.04" class="cls-2"/><rect height="4.31" width=".7" y="238" x="116.87" class="cls-2"/><rect height="4.31" width=".7" y="238" x="131.72" class="cls-2"/><rect height="4.31" width=".73" y="238" x="146.57" class="cls-2"/><rect height="4.31" width=".7" y="238" x="161.44" class="cls-2"/><rect height="4.31" width=".7" y="238" x="176.29" class="cls-2"/><rect height="4.31" width=".73" y="238" x="191.14" class="cls-2"/><rect height="4.31" width=".7" y="238" x="206.01" class="cls-2"/><rect height="4.31" width=".7" y="238" x="220.86" class="cls-2"/><rect height="4.31" width=".73" y="205.53" x="42.59" class="cls-2"/><rect height="4.31" width=".7" y="205.53" x="57.47" class="cls-2"/><rect height="4.31" width=".7" y="205.53" x="72.32" class="cls-2"/><rect height="4.31" width=".73" y="205.53" x="87.17" class="cls-2"/><rect height="4.31" width=".7" y="205.53" x="102.04" class="cls-2"/><rect height="4.31" width=".7" y="205.53" x="116.87" class="cls-2"/><rect height="4.31" width=".7" y="205.53" x="131.72" class="cls-2"/><rect height="4.31" width=".73" y="205.53" x="146.57" class="cls-2"/><rect height="4.31" width=".7" y="205.53" x="161.44" class="cls-2"/><rect height="4.31" width=".7" y="205.53" x="176.29" class="cls-2"/><rect height="4.31" width=".73" y="205.53" x="191.14" class="cls-2"/><rect height="4.31" width=".7" y="205.53" x="206.01" class="cls-2"/><rect height="4.31" width=".7" y="205.53" x="220.86" class="cls-2"/><rect height="4.31" width=".73" y="173.06" x="42.59" class="cls-2"/><rect height="4.31" width=".7" y="173.06" x="57.47" class="cls-2"/><rect height="4.31" width=".7" y="173.06" x="72.32" class="cls-2"/><rect height="4.31" width=".73" y="173.06" x="87.17" class="cls-2"/><rect height="4.31" width=".7" y="173.06" x="102.04" class="cls-2"/><rect height="4.31" width=".7" y="173.06" x="116.87" class="cls-2"/><rect height="4.31" width=".7" y="173.06" x="131.72" class="cls-2"/><rect height="4.31" width=".73" y="173.06" x="146.57" class="cls-2"/><rect height="4.31" width=".7" y="173.06" x="161.44" class="cls-2"/><rect height="4.31" width=".7" y="173.06" x="176.29" class="cls-2"/><rect height="4.31" width=".73" y="173.06" x="191.14" class="cls-2"/><rect height="4.31" width=".7" y="173.06" x="206.01" class="cls-2"/><rect height="4.31" width=".7" y="173.06" x="220.86" class="cls-2"/><rect height="4.31" width=".73" y="140.6" x="42.59" class="cls-2"/><rect height="4.31" width=".7" y="140.6" x="57.47" class="cls-2"/><rect height="4.31" width=".7" y="140.6" x="72.32" class="cls-2"/><rect height="4.31" width=".73" y="140.6" x="87.17" class="cls-2"/><rect height="4.31" width=".7" y="140.6" x="102.04" class="cls-2"/><rect height="4.31" width=".7" y="140.6" x="116.87" class="cls-2"/><rect height="4.31" width=".7" y="140.6" x="131.72" class="cls-2"/><rect height="4.31" width=".73" y="140.6" x="146.57" class="cls-2"/><rect height="4.31" width=".7" y="140.6" x="161.44" class="cls-2"/><rect height="4.31" width=".7" y="140.6" x="176.29" class="cls-2"/><rect height="4.31" width=".73" y="140.6" x="191.14" class="cls-2"/><rect height="4.31" width=".7" y="140.6" x="206.01" class="cls-2"/><rect height="4.31" width=".7" y="140.6" x="220.86" class="cls-2"/><rect height="4.31" width=".73" y="108.13" x="42.59" class="cls-2"/><rect height="4.31" width=".7" y="108.13" x="57.47" class="cls-2"/><rect height="4.31" width=".7" y="108.13" x="72.32" class="cls-2"/><rect height="4.31" width=".73" y="108.13" x="87.17" class="cls-2"/><rect height="4.31" width=".7" y="108.13" x="102.04" class="cls-2"/><rect height="4.31" width=".7" y="108.13" x="116.87" class="cls-2"/><rect height="4.31" width=".7" y="108.13" x="131.72" class="cls-2"/><rect height="4.31" width=".73" y="108.13" x="146.57" class="cls-2"/><rect height="4.31" width=".7" y="108.13" x="161.44" class="cls-2"/><rect height="4.31" width=".7" y="108.13" x="176.29" class="cls-2"/><rect height="4.31" width=".73" y="108.13" x="191.14" class="cls-2"/><rect height="4.31" width=".7" y="108.13" x="206.01" class="cls-2"/><rect height="4.31" width=".7" y="108.13" x="220.86" class="cls-2"/></g></g></svg>