<svg viewBox="0 0 531.27 288" xmlns:xlink="http://www.w3.org/1999/xlink" xmlns="http://www.w3.org/2000/svg" id="Camada_2"><defs><style>.cls-1,.cls-2{fill:none;}.cls-2{stroke:#12100b;stroke-linecap:round;stroke-linejoin:round;}.cls-2,.cls-3{stroke-width:.3px;}.cls-4{fill:#12100b;}.cls-5{fill:#fff;}.cls-3{fill:#f1efea;stroke:#000;stroke-miterlimit:10;}</style><symbol viewBox="0 0 531.27 288" id="fundo_transparente"><rect height="288" width="531.27" x="0" class="cls-1"/></symbol></defs><g id="Golf"><g id="Campo_de_Golf"><g id="caixa_de_areia_tees"><use xlink:href="#fundo_transparente" height="288" width="531.27"/><line y2="185.69" x2="18.02" y1="284.78" x1="18.02" class="cls-2"/><rect height=".3" width="1.95" y="284.63" x="17.05" class="cls-4"/><rect height=".3" width="1.95" y="185.54" x="17.05" class="cls-4"/><path d="M8.81,245.97h5.29v.73h-4.36s.08.04.1.06c.03.02.06.04.09.07l2.02,1.35s.06.04.08.05.05.03.08.06v-3.2h.64v3.98h-.59l-3.35-2.22v-.87Z"/><path d="M8.95,241.79c.13-.25.32-.47.55-.65.23-.18.52-.32.85-.42.33-.1.69-.15,1.08-.15s.76.05,1.1.15.62.24.86.42c.24.18.43.4.56.65.13.25.2.52.2.83s-.07.57-.2.82-.32.47-.56.65c-.24.18-.53.32-.86.42-.33.1-.7.15-1.1.15s-.75-.05-1.08-.15c-.33-.1-.61-.24-.85-.42-.24-.18-.42-.4-.55-.65-.13-.25-.2-.53-.2-.83s.07-.58.2-.83ZM9.59,243.14c.1.16.23.29.41.41.18.11.38.2.63.27.24.07.51.1.81.1s.57-.03.82-.09c.25-.06.46-.15.64-.27.18-.12.32-.25.42-.41.1-.16.15-.33.15-.52s-.05-.37-.15-.53c-.1-.16-.24-.3-.42-.41-.18-.11-.39-.2-.64-.27-.25-.06-.52-.09-.82-.09s-.56.03-.81.09c-.25.06-.46.15-.63.26-.17.11-.31.25-.41.41-.1.16-.15.34-.15.53s.05.37.15.52Z"/><path d="M8.95,237.15c.13-.25.32-.47.55-.65.23-.18.52-.32.85-.42.33-.1.69-.15,1.08-.15s.76.05,1.1.15.62.24.86.42c.24.18.43.4.56.65.13.25.2.52.2.83s-.07.57-.2.82-.32.47-.56.65c-.24.18-.53.32-.86.42-.33.1-.7.15-1.1.15s-.75-.05-1.08-.15c-.33-.1-.61-.24-.85-.42-.24-.18-.42-.4-.55-.65-.13-.25-.2-.53-.2-.83s.07-.58.2-.83ZM9.59,238.51c.1.16.23.29.41.41.18.11.38.2.63.27.24.07.51.1.81.1s.57-.03.82-.09c.25-.06.46-.15.64-.27.18-.12.32-.25.42-.41.1-.16.15-.33.15-.52s-.05-.37-.15-.53c-.1-.16-.24-.3-.42-.41-.18-.11-.39-.2-.64-.27-.25-.06-.52-.09-.82-.09s-.56.03-.81.09c-.25.06-.46.15-.63.26-.17.11-.31.25-.41.41-.1.16-.15.34-.15.53s.05.37.15.52Z"/><path d="M10.45,232.33h.67c-.24-.11-.42-.26-.54-.45-.12-.18-.18-.4-.18-.63,0-.26.07-.48.2-.67.14-.19.33-.32.59-.41-.26-.11-.45-.27-.59-.46-.14-.2-.2-.43-.2-.7,0-.38.12-.67.37-.88.25-.21.61-.31,1.07-.31h2.25v.7h-2.16c-.29,0-.52.07-.69.2-.17.13-.25.31-.25.54,0,.12.02.22.07.32.05.1.11.18.2.26.09.07.19.13.32.16.12.04.26.06.4.06h2.11v.7h-2.16c-.14,0-.27.02-.38.06-.12.04-.22.09-.3.15-.08.06-.14.14-.19.23-.04.09-.07.2-.07.31s.02.22.07.32c.05.1.12.18.21.25.09.07.2.12.32.17.12.04.26.06.41.06h2.09v.7h-3.64v-.68Z"/><path d="M10.45,226.14h.67c-.24-.11-.42-.26-.54-.45-.12-.18-.18-.4-.18-.63,0-.26.07-.48.2-.67.14-.19.33-.32.59-.41-.26-.11-.45-.27-.59-.46-.14-.2-.2-.43-.2-.7,0-.38.12-.67.37-.88.25-.21.61-.31,1.07-.31h2.25v.7h-2.16c-.29,0-.52.07-.69.2-.17.13-.25.31-.25.54,0,.12.02.22.07.32.05.1.11.18.2.26.09.07.19.13.32.16.12.04.26.06.4.06h2.11v.7h-2.16c-.14,0-.27.02-.38.06-.12.04-.22.09-.3.15-.08.06-.14.14-.19.23-.04.09-.07.2-.07.31s.02.22.07.32c.05.1.12.18.21.25.09.07.2.12.32.17.12.04.26.06.41.06h2.09v.7h-3.64v-.68Z"/><line y2="182.04" x2="321.01" y1="86.52" x1="293.54" class="cls-5"/><line y2="181.89" x2="320.97" y1="86.67" x1="293.58" class="cls-2"/><rect transform="translate(-12.52 84.37) rotate(-16.02)" height=".3" width="1.95" y="86.52" x="292.6" class="cls-4"/><rect transform="translate(-37.8 95.9) rotate(-16.06)" height=".3" width="1.95" y="181.74" x="319.99" class="cls-4"/><path d="M307.86,122.71c.05-.26.16-.51.32-.73.17-.23.4-.43.68-.6.29-.18.62-.32,1.01-.43.4-.12.79-.17,1.15-.17.36,0,.68.06.97.17.29.11.53.27.73.49s.34.48.43.79c.1.36.11.7.01,1.01s-.28.57-.57.78l-.46-.53c.18-.12.31-.27.37-.46.06-.18.07-.38,0-.59-.06-.19-.15-.36-.29-.49-.14-.13-.3-.24-.5-.31-.2-.07-.42-.11-.66-.11-.24,0-.5.04-.76.12-.06.02-.11.03-.17.05-.05.02-.1.03-.14.05.26,0,.49.1.69.27.2.17.34.41.42.7.07.23.09.45.07.66-.02.21-.08.4-.18.58-.1.18-.24.33-.41.46-.17.13-.37.23-.6.3-.24.07-.47.09-.69.07-.22-.02-.42-.09-.6-.19s-.34-.24-.47-.42c-.14-.18-.24-.38-.3-.62-.08-.29-.1-.56-.05-.82ZM308.73,123.67c.08.1.18.18.28.23.11.06.22.09.36.1s.27,0,.41-.04c.14-.04.27-.1.37-.18.11-.08.19-.18.25-.28.06-.11.1-.23.12-.36.01-.13,0-.27-.04-.4-.04-.13-.1-.25-.18-.35-.08-.1-.17-.18-.28-.24-.11-.06-.22-.1-.35-.11-.13-.02-.26,0-.4.04-.14.04-.26.1-.37.19-.11.09-.2.19-.26.3-.07.11-.11.23-.12.37-.02.13,0,.27.04.4.04.13.1.25.18.35Z"/><path d="M314.33,127.06c-.06.28-.18.53-.35.77-.17.24-.41.45-.7.64-.29.19-.62.34-1,.45-.38.11-.75.16-1.09.16s-.66-.06-.94-.17c-.28-.11-.52-.26-.72-.47-.2-.2-.34-.45-.42-.74-.08-.28-.09-.56-.04-.85.06-.28.18-.54.36-.78.18-.24.42-.45.71-.64.29-.19.63-.34,1.01-.45.38-.11.74-.16,1.08-.15.35,0,.66.06.93.17.28.11.51.26.71.47.19.2.33.45.42.74.08.29.1.58.04.85ZM313.35,125.93c-.14-.12-.31-.22-.51-.28-.2-.06-.43-.09-.68-.09-.25,0-.52.05-.8.13-.29.08-.54.19-.76.32-.22.13-.4.27-.54.44-.14.16-.24.33-.29.51-.05.18-.05.36,0,.54.05.18.15.34.29.46.14.12.31.22.52.28.2.06.44.09.69.08.26,0,.53-.05.81-.13.28-.08.53-.19.75-.32.22-.13.4-.27.53-.43.14-.16.23-.33.28-.51.05-.18.05-.36,0-.55-.05-.18-.15-.34-.29-.46Z"/><path d="M315.61,131.51c-.06.28-.18.53-.35.77-.17.24-.41.45-.7.64-.29.19-.62.34-1,.45-.38.11-.75.16-1.09.16s-.66-.06-.94-.17-.52-.26-.72-.47c-.2-.2-.34-.45-.42-.74-.08-.28-.09-.57-.04-.85.06-.28.18-.54.36-.78s.42-.45.71-.64.63-.34,1.01-.45c.38-.11.74-.16,1.08-.15.35,0,.66.06.93.17.28.11.51.26.71.47s.33.45.42.74c.08.29.1.58.04.85ZM314.63,130.39c-.14-.12-.31-.22-.51-.28-.2-.06-.43-.09-.68-.09-.25,0-.52.05-.8.13-.29.08-.54.19-.76.32-.22.13-.4.27-.54.44-.14.16-.24.33-.29.51-.05.18-.05.36,0,.54.05.18.15.34.29.46.14.12.31.22.52.28.2.06.43.09.69.08.26,0,.53-.05.81-.13.28-.08.53-.19.75-.31.22-.13.4-.27.53-.43.14-.16.23-.33.28-.51.05-.18.05-.36,0-.55-.05-.18-.15-.34-.29-.46Z"/><path d="M315.51,136.57l-.64.18c.26.04.47.13.64.28.17.14.28.33.35.56.07.25.07.48-.01.7-.08.22-.23.4-.45.55.28.04.51.13.69.28.18.15.31.36.39.62.1.36.07.68-.12.95-.18.27-.5.46-.94.59l-2.17.62-.19-.67,2.08-.6c.28-.08.48-.21.6-.38.12-.18.16-.37.09-.59-.03-.11-.08-.21-.16-.29-.07-.08-.16-.14-.27-.19-.1-.04-.22-.07-.35-.07-.13,0-.26.02-.4.06l-2.02.58-.19-.67,2.08-.6c.13-.04.25-.09.35-.16s.18-.14.24-.23c.06-.08.1-.18.12-.27.02-.1.01-.21-.02-.32-.03-.11-.08-.2-.15-.28-.07-.08-.16-.14-.27-.19-.11-.04-.22-.07-.35-.07-.13,0-.27.01-.41.06l-2.01.58-.19-.67,3.5-1.01.19.65Z"/><path d="M317.21,142.51l-.64.18c.26.04.47.13.64.28.17.14.28.33.35.56.07.25.07.48-.01.7-.08.22-.23.4-.45.55.28.04.51.13.69.28.18.15.31.36.39.62.1.36.07.68-.12.95-.18.27-.5.46-.94.59l-2.17.62-.19-.67,2.08-.6c.28-.08.48-.21.6-.38.12-.17.16-.37.09-.59-.03-.11-.08-.21-.16-.29-.07-.08-.16-.15-.27-.19-.11-.04-.22-.07-.35-.07-.13,0-.26.02-.4.06l-2.02.58-.19-.67,2.08-.6c.13-.04.25-.09.35-.16.1-.07.18-.14.24-.23.06-.08.1-.17.12-.27.02-.1.01-.21-.02-.32-.03-.11-.08-.2-.15-.29-.07-.08-.16-.14-.27-.19-.11-.04-.22-.07-.35-.07-.13,0-.27.01-.41.06l-2.01.58-.19-.67,3.5-1.01.19.65Z"/><polygon points="287.9 166.47 289.1 166.8 281.28 195.63 280.08 195.3 287.9 166.47" class="cls-2"/><path d="M295.83,139.79h0c.88.24,1.4,1.15,1.16,2.03l-6.67,24.66c-.09.33-.43.53-.76.44l-2-.54c-.33-.09-.53-.43-.44-.76l6.67-24.66c.24-.88,1.15-1.41,2.04-1.17Z" class="cls-2"/><polygon points="309.99 185.52 282.64 89.85 284.25 89.4 311.6 185.07 309.99 185.52" class="cls-2"/><path d="M306.4,185.48l-12.57-44.01c-.42-1.46.4-3,1.85-3.45l.67-.21,13.33,46.64-3.28,1.04Z" class="cls-3"/><circle r=".64" cy="141.34" cx="295.43" class="cls-2"/><rect height="80.87" width="73.01" y="185.52" x="223.77" class="cls-3"/><rect height="99.43" width="13.26" y="185.52" x="296.73" class="cls-2"/><rect height="99.43" width="13.26" y="185.52" x="210.56" class="cls-2"/><rect height="83.29" width="79.41" y="187.94" x="61.69" class="cls-2"/><rect height="97.05" width="22.36" y="187.9" x="39.27" class="cls-2"/><rect height="97.05" width="22.36" y="187.9" x="141.14" class="cls-2"/><line y2="164.8" x2="510.86" y1="164.8" x1="386.92" class="cls-2"/><rect height="1.95" width=".3" y="163.83" x="386.77" class="cls-4"/><rect height="1.95" width=".3" y="163.83" x="510.71" class="cls-4"/><path d="M438.4,155.59v.65h-1.92l-.25,1.54c.1-.09.22-.16.36-.21.14-.05.29-.07.46-.07.25,0,.47.04.68.13.21.08.38.2.53.35.15.15.27.33.35.54.08.21.12.44.12.69s-.04.48-.13.7c-.09.21-.21.4-.36.55-.16.15-.34.27-.56.36-.21.08-.45.13-.71.13-.2,0-.39-.03-.58-.08s-.35-.13-.5-.23c-.15-.1-.28-.22-.39-.36-.11-.14-.19-.3-.24-.48l.63-.31c.07.24.19.43.39.56.19.14.42.21.67.21.15,0,.29-.03.41-.08.13-.05.23-.12.33-.21.09-.09.16-.2.21-.33.05-.13.08-.27.08-.43s-.03-.3-.08-.44c-.05-.13-.13-.25-.22-.34s-.21-.17-.34-.22c-.13-.05-.28-.08-.44-.08-.18,0-.35.04-.49.1-.14.07-.26.17-.36.31l-.62-.15.47-2.79h2.52Z"/><path d="M442.14,155.73c.25.13.47.32.65.55.18.23.32.52.42.85.1.33.15.69.15,1.08s-.05.76-.15,1.1-.24.62-.42.86c-.18.24-.4.43-.65.56-.25.13-.52.2-.83.2s-.57-.07-.82-.2-.47-.32-.65-.56c-.18-.24-.32-.53-.42-.86-.1-.33-.15-.7-.15-1.1s.05-.75.15-1.08c.1-.33.24-.61.42-.85.18-.24.4-.42.65-.55.25-.13.53-.2.83-.2s.58.07.83.2ZM440.79,156.37c-.16.1-.29.23-.41.41-.11.18-.2.38-.27.63-.07.24-.1.51-.1.81s.03.57.09.82c.06.25.15.46.27.64.12.18.25.32.41.42.16.1.33.15.52.15s.37-.05.53-.15c.16-.1.3-.24.41-.42.11-.18.2-.39.27-.64.06-.25.09-.52.09-.82s-.03-.56-.09-.81c-.06-.25-.15-.46-.26-.63-.11-.17-.25-.31-.41-.41-.16-.1-.34-.15-.53-.15s-.37.05-.52.15Z"/><path d="M446.78,155.73c.25.13.47.32.65.55.18.23.32.52.42.85.1.33.15.69.15,1.08s-.05.76-.15,1.1-.24.62-.42.86c-.18.24-.4.43-.65.56-.25.13-.52.2-.83.2s-.57-.07-.82-.2-.47-.32-.65-.56c-.18-.24-.32-.53-.42-.86-.1-.33-.15-.7-.15-1.1s.05-.75.15-1.08c.1-.33.24-.61.42-.85.18-.24.4-.42.65-.55.25-.13.53-.2.83-.2s.58.07.83.2ZM445.42,156.37c-.16.1-.29.23-.41.41-.11.18-.2.38-.27.63-.07.24-.1.51-.1.81s.03.57.09.82c.06.25.15.46.27.64.12.18.25.32.41.42.16.1.33.15.52.15s.37-.05.53-.15c.16-.1.3-.24.41-.42.11-.18.2-.39.27-.64.06-.25.09-.52.09-.82s-.03-.56-.09-.81c-.06-.25-.15-.46-.26-.63-.11-.17-.25-.31-.41-.41-.16-.1-.34-.15-.53-.15s-.37.05-.52.15Z"/><path d="M451.6,157.24v.67c.11-.24.26-.42.45-.54.18-.12.4-.18.63-.18.26,0,.48.07.67.2.19.14.32.33.41.59.11-.26.27-.45.46-.59.2-.14.43-.2.7-.2.38,0,.67.12.88.37.21.25.31.61.31,1.07v2.25h-.7v-2.16c0-.29-.07-.52-.2-.69-.13-.17-.31-.25-.54-.25-.12,0-.22.02-.32.07-.1.05-.18.11-.26.2-.07.09-.13.19-.16.32-.04.12-.06.26-.06.4v2.11h-.7v-2.16c0-.14-.02-.27-.06-.38-.04-.12-.09-.22-.15-.3-.06-.08-.14-.14-.23-.19-.09-.04-.2-.07-.31-.07s-.22.02-.32.07c-.1.05-.18.12-.25.21-.07.09-.12.2-.17.32-.04.12-.06.26-.06.41v2.09h-.7v-3.64h.68Z"/><path d="M457.79,157.24v.67c.11-.24.26-.42.45-.54.18-.12.4-.18.63-.18.26,0,.48.07.67.2.19.14.32.33.41.59.11-.26.27-.45.46-.59.2-.14.43-.2.7-.2.38,0,.67.12.88.37.21.25.31.61.31,1.07v2.25h-.7v-2.16c0-.29-.07-.52-.2-.69-.13-.17-.31-.25-.54-.25-.12,0-.22.02-.32.07-.1.05-.18.11-.26.2-.07.09-.13.19-.16.32-.04.12-.06.26-.06.4v2.11h-.7v-2.16c0-.14-.02-.27-.06-.38-.04-.12-.09-.22-.15-.3-.06-.08-.14-.14-.23-.19-.09-.04-.2-.07-.31-.07s-.22.02-.32.07c-.1.05-.18.12-.25.21-.07.09-.12.2-.17.32-.04.12-.06.26-.06.41v2.09h-.7v-3.64h.68Z"/><line y2="185.71" x2="364.44" y1="284.8" x1="364.44" class="cls-2"/><rect height=".3" width="1.95" y="284.65" x="363.46" class="cls-4"/><rect height=".3" width="1.95" y="185.56" x="363.46" class="cls-4"/><path d="M355.22,245.99h5.29v.73h-4.36s.08.04.1.06c.03.02.06.04.09.07l2.02,1.35s.06.04.08.05.05.03.08.06v-3.2h.64v3.98h-.59l-3.35-2.22v-.87Z"/><path d="M355.37,241.81c.13-.25.32-.47.55-.65.23-.18.52-.32.85-.42.33-.1.69-.15,1.08-.15s.76.05,1.1.15.62.24.86.42c.24.18.43.4.56.65.13.25.2.52.2.83s-.07.57-.2.82-.32.47-.56.65c-.24.18-.53.32-.86.42-.33.1-.7.15-1.1.15s-.75-.05-1.08-.15c-.33-.1-.61-.24-.85-.42-.24-.18-.42-.4-.55-.65-.13-.25-.2-.53-.2-.83s.07-.58.2-.83ZM356,243.16c.1.16.23.29.41.41.18.11.38.2.63.27.24.07.51.1.81.1s.57-.03.82-.09c.25-.06.46-.15.64-.27.18-.12.32-.25.42-.41.1-.16.15-.33.15-.52s-.05-.37-.15-.53c-.1-.16-.24-.3-.42-.41-.18-.11-.39-.2-.64-.27-.25-.06-.52-.09-.82-.09s-.56.03-.81.09c-.25.06-.46.15-.63.26-.17.11-.31.25-.41.41-.1.16-.15.34-.15.53s.05.37.15.52Z"/><path d="M355.37,237.17c.13-.25.32-.47.55-.65.23-.18.52-.32.85-.42.33-.1.69-.15,1.08-.15s.76.05,1.1.15.62.24.86.42c.24.18.43.4.56.65.13.25.2.52.2.83s-.07.57-.2.82-.32.47-.56.65c-.24.18-.53.32-.86.42-.33.1-.7.15-1.1.15s-.75-.05-1.08-.15c-.33-.1-.61-.24-.85-.42-.24-.18-.42-.4-.55-.65-.13-.25-.2-.53-.2-.83s.07-.58.2-.83ZM356,238.53c.1.16.23.29.41.41.18.11.38.2.63.27.24.07.51.1.81.1s.57-.03.82-.09c.25-.06.46-.15.64-.27.18-.12.32-.25.42-.41.1-.16.15-.33.15-.52s-.05-.37-.15-.53c-.1-.16-.24-.3-.42-.41-.18-.11-.39-.2-.64-.27-.25-.06-.52-.09-.82-.09s-.56.03-.81.09c-.25.06-.46.15-.63.26-.17.11-.31.25-.41.41-.1.16-.15.34-.15.53s.05.37.15.52Z"/><path d="M356.87,232.35h.67c-.24-.11-.42-.26-.54-.45-.12-.18-.18-.4-.18-.63,0-.26.07-.48.2-.67.14-.19.33-.32.59-.41-.26-.11-.45-.27-.59-.46-.14-.2-.2-.43-.2-.7,0-.38.12-.67.37-.88.25-.21.61-.31,1.07-.31h2.25v.7h-2.16c-.29,0-.52.07-.69.2-.17.13-.25.31-.25.54,0,.12.02.22.07.32.05.1.11.18.2.26.09.07.19.13.32.16.12.04.26.06.4.06h2.11v.7h-2.16c-.14,0-.27.02-.38.06-.12.04-.22.09-.3.15-.08.06-.14.14-.19.23-.04.09-.07.2-.07.31s.02.22.07.32c.05.1.12.18.21.25.09.07.2.12.32.17.12.04.26.06.41.06h2.09v.7h-3.64v-.68Z"/><path d="M356.87,226.16h.67c-.24-.11-.42-.26-.54-.45-.12-.18-.18-.4-.18-.63,0-.26.07-.48.2-.67.14-.19.33-.32.59-.41-.26-.11-.45-.27-.59-.46-.14-.2-.2-.43-.2-.7,0-.38.12-.67.37-.88.25-.21.61-.31,1.07-.31h2.25v.7h-2.16c-.29,0-.52.07-.69.2-.17.13-.25.31-.25.54,0,.12.02.22.07.32.05.1.11.18.2.26.09.07.19.13.32.16.12.04.26.06.4.06h2.11v.7h-2.16c-.14,0-.27.02-.38.06-.12.04-.22.09-.3.15-.08.06-.14.14-.19.23-.04.09-.07.2-.07.31s.02.22.07.32c.05.1.12.18.21.25.09.07.2.12.32.17.12.04.26.06.41.06h2.09v.7h-3.64v-.68Z"/><path d="M508.52,185.56h-119.26c-1.37,0-2.49,1.11-2.49,2.48v94.42c0,1.37,1.11,2.48,2.49,2.48h119.26c1.37,0,2.49-1.11,2.49-2.48v-94.42c0-1.37-1.11-2.48-2.49-2.48Z" class="cls-2"/><ellipse ry="6.2" rx="6.21" cy="264.24" cx="488.81" class="cls-2"/><rect height="2.47" width="124.23" y="185.47" x="39.27" class="cls-2"/><path d="M211.98,176.66c3.86-38.29,29.56-70.14,64.46-82.89" class="cls-2"/><rect transform="translate(8.2 362.73) rotate(-82.21)" height="1.17" width=".18" y="176.08" x="211.89" class="cls-4"/><rect transform="translate(-14.98 110.65) rotate(-22.05)" height="1.17" width=".18" y="93.19" x="276.35" class="cls-4"/></g></g></g></svg>