<svg viewBox="0 0 531.26 288" xmlns="http://www.w3.org/2000/svg"><defs><style>.cls-1, .cls-2 {
        stroke: #000;
      }

      .cls-1, .cls-2, .cls-3 {
        fill: none;
      }

      .cls-1, .cls-3 {
        stroke-linecap: round;
        stroke-linejoin: round;
        stroke-width: .3px;
      }

      .cls-2 {
        stroke-miterlimit: 10;
        stroke-width: .28px;
      }

      .cls-3 {
        stroke: #12100a;
      }</style></defs><g id="bases"><rect height="358.35" width="589.11" y="-33.95" x="-25.44" class="cls-2"/></g><g id="Urban"><g id="Reuse"><g id="banco_Lean_Back"><g><g id="LINE"><line y2="283.45" x2="456.88" y1="281.82" x1="456.88" class="cls-3"/></g><g id="LINE-2"><line y2="281.82" x2="483.08" y1="283.45" x1="483.08" class="cls-3"/></g><g id="ARC"><path d="M479.26,164.07c-.18.16-.28.38-.28.61" class="cls-3"/></g><g id="LINE-3"><line y2="281.82" x2="478.98" y1="164.68" x1="478.98" class="cls-3"/></g><g id="LINE-4"><line y2="283.45" x2="460.97" y1="283.45" x1="478.98" class="cls-3"/></g><g id="LINE-5"><line y2="175.13" x2="460.97" y1="281.82" x1="460.97" class="cls-3"/></g><g id="ARC-2"><path d="M460.97,175.13c0-.27-.22-.49-.49-.49-.04,0-.08,0-.12.01" class="cls-3"/></g><g id="ARC-3"><path d="M448.13,170.38c-1.64,1.21-1.99,3.51-.79,5.15.88,1.2,2.41,1.75,3.85,1.39" class="cls-3"/></g><g id="LINE-6"><line y2="147.29" x2="479.52" y1="170.38" x1="448.13" class="cls-3"/></g><g id="ARC-4"><path d="M480.68,147.48c-.26-.37-.77-.46-1.14-.2,0,0-.01,0-.02.01" class="cls-3"/></g><g id="ARC-5"><path d="M485.67,158.41c.94-.83,1.1-2.23.39-3.25" class="cls-3"/></g><g id="LINE-7"><line y2="158.41" x2="485.67" y1="164.07" x1="479.26" class="cls-3"/></g><g id="LINE-8"><line y2="174.65" x2="460.36" y1="176.92" x1="451.2" class="cls-3"/></g><g id="LINE-9"><line y2="155.16" x2="486.05" y1="147.48" x1="480.68" class="cls-3"/></g><g id="LINE-10"><line y2="146.17" x2="478.73" y1="169.04" x1="447.19" class="cls-3"/></g><g id="ARC-6"><path d="M486.13,155.28c.25-.53.2-1.15-.14-1.64" class="cls-3"/></g><g id="ARC-7"><path d="M481.03,146.56c-.52-.74-1.54-.92-2.28-.4,0,0-.01.01-.02.02" class="cls-3"/></g><g id="LINE-11"><line y2="177.76" x2="453.3" y1="175.62" x1="456.46" class="cls-3"/></g><g id="LINE-12"><line y2="153.65" x2="485.99" y1="146.56" x1="481.03" class="cls-3"/></g><g id="ARC-8"><path d="M447.19,169.04c-2.38,1.73-2.91,5.05-1.18,7.43,1.68,2.32,4.91,2.89,7.29,1.28" class="cls-3"/></g><g id="LINE-13"><line y2="281.82" x2="458.52" y1="281.82" x1="456.88" class="cls-3"/></g><g id="LINE-14"><line y2="283.45" x2="458.52" y1="283.45" x1="456.88" class="cls-3"/></g><g id="LINE-15"><line y2="283.45" x2="482.18" y1="283.45" x1="478.98" class="cls-3"/></g><g id="LINE-16"><line y2="281.82" x2="482.18" y1="281.82" x1="478.98" class="cls-3"/></g><g id="LINE-17"><line y2="283.45" x2="459.42" y1="283.45" x1="460.97" class="cls-3"/></g><g id="LINE-18"><line y2="281.82" x2="459.42" y1="281.82" x1="460.97" class="cls-3"/></g><g id="LINE-19"><line y2="283.45" x2="483.08" y1="283.45" x1="482.18" class="cls-3"/></g><g id="LINE-20"><line y2="281.82" x2="483.08" y1="281.82" x1="482.18" class="cls-3"/></g><g id="LINE-21"><line y2="283.45" x2="459.42" y1="283.45" x1="458.52" class="cls-3"/></g><g id="LINE-22"><line y2="281.82" x2="459.42" y1="281.82" x1="458.52" class="cls-3"/></g></g><g id="LINE-23"><g><line y2="31.26" x2="366.15" y1="31.26" x1="38.53" class="cls-1"/><rect height="1.95" width=".3" y="30.29" x="38.38"/><rect height="1.95" width=".3" y="30.29" x="366"/></g></g><g id="MTEXT"><g><path d="M189.67,22.05v5.29h-.72v-4.54l-1.3.64v-.73l1.36-.67h.67Z"/><path d="M193.04,22.18c.24.12.44.29.61.51.17.22.3.5.39.82.09.32.14.69.14,1.09s-.05.8-.15,1.15c-.1.35-.24.64-.43.89s-.41.43-.67.56c-.26.13-.55.2-.88.2-.37,0-.7-.09-.97-.27-.27-.18-.47-.43-.59-.76l.64-.29c.07.21.18.37.34.48.16.11.35.17.56.17.2,0,.38-.05.55-.14.17-.09.31-.23.44-.4.13-.17.22-.37.29-.61.07-.24.1-.49.1-.77v-.17c0-.06,0-.1,0-.15-.08.25-.23.45-.45.59-.22.14-.48.21-.79.21-.24,0-.46-.04-.65-.12-.2-.08-.36-.19-.5-.34-.14-.14-.25-.32-.33-.52-.08-.2-.12-.42-.12-.66s.04-.47.13-.68c.08-.21.2-.38.35-.52.15-.14.32-.26.53-.34.21-.08.43-.12.68-.12.3,0,.57.06.81.18ZM191.88,22.75c-.12.05-.22.12-.3.21-.08.09-.15.19-.2.31-.05.12-.07.26-.07.41s.02.29.07.41c.05.12.12.23.2.32.09.09.19.16.31.21.12.05.25.07.4.07s.27-.02.39-.07c.12-.05.22-.12.31-.2.09-.09.15-.19.2-.31.05-.12.07-.25.07-.4s-.03-.28-.08-.41c-.05-.13-.13-.24-.21-.34-.09-.1-.2-.17-.32-.22s-.26-.08-.4-.08-.26.03-.38.08Z"/><path d="M195.79,27.29c-.22-.07-.4-.17-.56-.31-.15-.13-.28-.29-.36-.47s-.13-.38-.13-.6c0-.16.02-.31.07-.45.05-.15.11-.28.2-.4.09-.12.19-.22.31-.3s.25-.14.4-.18c-.14-.05-.25-.12-.36-.2-.1-.08-.19-.17-.27-.27s-.13-.21-.17-.33c-.04-.12-.06-.25-.06-.38,0-.21.04-.39.12-.56.08-.17.2-.32.34-.44.14-.13.32-.22.52-.29.2-.07.42-.1.66-.1s.46.03.66.1c.2.07.37.17.52.29.15.12.26.27.35.44.08.17.13.36.13.57,0,.13-.02.26-.06.38-.04.12-.1.24-.17.34-.07.1-.16.19-.27.27-.1.08-.22.14-.35.19.15.04.28.1.4.18s.22.19.3.31c.08.12.15.25.2.4.05.14.07.29.07.45,0,.21-.04.41-.13.6-.09.18-.21.34-.36.47-.15.13-.34.24-.56.31-.22.07-.46.11-.72.11s-.5-.04-.72-.11ZM196.92,26.66c.13-.04.23-.11.32-.19.09-.08.16-.18.21-.29.05-.11.08-.24.08-.37s-.03-.26-.08-.37c-.05-.11-.12-.21-.21-.29-.09-.08-.2-.15-.33-.2-.13-.05-.26-.07-.41-.07s-.28.02-.41.07c-.13.04-.23.11-.33.19s-.16.18-.21.3c-.05.11-.07.24-.07.37,0,.14.02.27.07.38.05.11.12.21.21.29.09.08.2.14.33.19.13.04.26.07.41.07s.29-.02.41-.07ZM196.15,22.73c-.11.04-.2.09-.28.16-.08.07-.14.15-.18.26s-.07.21-.07.33c0,.11.02.22.07.32.04.1.11.19.19.26.08.07.17.13.28.17s.23.06.35.06.25-.02.35-.06c.1-.04.2-.1.28-.17s.14-.16.19-.26c.04-.1.07-.21.07-.32,0-.12-.02-.23-.07-.33-.04-.1-.11-.19-.19-.26-.08-.07-.17-.12-.28-.16-.11-.04-.23-.06-.36-.06s-.24.02-.35.06Z"/><path d="M199.96,27.22c-.24-.12-.44-.29-.61-.51-.17-.22-.3-.5-.39-.82s-.14-.69-.14-1.09.05-.8.15-1.15c.1-.35.24-.64.43-.89.18-.25.41-.43.67-.56.26-.13.55-.2.88-.2.37,0,.7.09.97.27.27.18.47.43.59.76l-.64.29c-.07-.21-.18-.37-.34-.48-.16-.11-.35-.17-.56-.17-.2,0-.38.05-.55.14s-.31.23-.44.4c-.13.17-.22.37-.29.61s-.1.49-.1.77v.17c0,.06,0,.1,0,.15.08-.25.23-.45.45-.59.22-.14.48-.21.79-.21.24,0,.46.04.65.12.2.08.36.19.5.34.14.15.25.32.33.52.08.2.12.42.12.66s-.04.47-.13.68c-.08.21-.2.38-.35.53-.15.14-.32.26-.53.34s-.43.12-.68.12c-.3,0-.57-.06-.81-.18ZM201.13,26.65c.12-.05.22-.12.3-.21.08-.09.15-.19.2-.31.05-.12.07-.26.07-.41s-.02-.29-.07-.41c-.05-.12-.12-.23-.2-.32s-.19-.16-.31-.21-.25-.07-.4-.07-.27.02-.39.07-.22.12-.31.2c-.09.09-.15.19-.2.31-.05.12-.07.25-.07.4s.03.28.08.41.12.24.21.34.2.17.32.22c.12.05.26.08.4.08s.26-.03.38-.08Z"/><path d="M206.13,23.7v.67c.11-.24.26-.42.45-.54.18-.12.4-.18.63-.18.26,0,.48.07.67.2.19.14.32.33.41.59.11-.26.27-.45.46-.59.2-.14.43-.2.7-.2.38,0,.67.12.88.37.21.25.31.61.31,1.07v2.25h-.7v-2.16c0-.29-.07-.52-.2-.69-.13-.17-.31-.25-.54-.25-.12,0-.22.02-.32.07-.1.05-.18.11-.26.2-.07.09-.13.19-.16.32-.04.12-.06.26-.06.4v2.11h-.7v-2.16c0-.14-.02-.27-.06-.38-.04-.12-.09-.22-.15-.3-.06-.08-.14-.14-.23-.19-.09-.04-.2-.07-.31-.07s-.22.02-.32.07c-.1.05-.18.12-.25.21-.07.09-.12.2-.17.32-.04.12-.06.26-.06.41v2.09h-.7v-3.64h.68Z"/><path d="M212.31,23.7v.67c.11-.24.26-.42.45-.54.18-.12.4-.18.63-.18.26,0,.48.07.67.2.19.14.32.33.41.59.11-.26.27-.45.46-.59.2-.14.43-.2.7-.2.38,0,.67.12.88.37.21.25.31.61.31,1.07v2.25h-.7v-2.16c0-.29-.07-.52-.2-.69-.13-.17-.31-.25-.54-.25-.12,0-.22.02-.32.07-.1.05-.18.11-.26.2-.07.09-.13.19-.16.32-.04.12-.06.26-.06.4v2.11h-.7v-2.16c0-.14-.02-.27-.06-.38-.04-.12-.09-.22-.15-.3-.06-.08-.14-.14-.23-.19-.09-.04-.2-.07-.31-.07s-.22.02-.32.07c-.1.05-.18.12-.25.21-.07.09-.12.2-.17.32-.04.12-.06.26-.06.41v2.09h-.7v-3.64h.68Z"/></g></g><g><g id="LINE-24"><line y2="163.41" x2="363.51" y1="163.41" x1="364.33" class="cls-3"/></g><g id="LINE-25"><line y2="163.41" x2="40.36" y1="163.41" x1="41.18" class="cls-3"/></g><g id="LINE-26"><line y2="177.03" x2="40.36" y1="177.03" x1="38.71" class="cls-3"/></g><g id="LINE-27"><line y2="147.14" x2="38.71" y1="147.14" x1="40.36" class="cls-3"/></g><g id="LINE-28"><line y2="177.03" x2="365.97" y1="177.03" x1="364.33" class="cls-3"/></g><g id="LINE-29"><line y2="147.14" x2="364.33" y1="147.14" x1="365.97" class="cls-3"/></g><g id="LINE-30"><line y2="178.67" x2="361.86" y1="178.67" x1="42.83" class="cls-3"/></g><g id="ARC-9"><path d="M41.18,177.03c0,.9.74,1.64,1.64,1.64" class="cls-3"/></g><g id="ARC-10"><path d="M361.86,178.67c.91,0,1.64-.73,1.64-1.64" class="cls-3"/></g><g id="LINE-31"><line y2="145.86" x2="42.83" y1="145.86" x1="361.86" class="cls-3"/></g><g id="ARC-11"><path d="M42.83,145.86c-.91,0-1.64.73-1.64,1.64" class="cls-3"/></g><g id="ARC-12"><path d="M363.51,147.5c0-.9-.74-1.64-1.64-1.64" class="cls-3"/></g><g id="LINE-32"><line y2="175.05" x2="41.18" y1="175.05" x1="40.36" class="cls-3"/></g><g id="LINE-33"><line y2="175.05" x2="364.33" y1="175.05" x1="363.51" class="cls-3"/></g><g id="LINE-34"><line y2="170.38" x2="40.36" y1="177.03" x1="40.36" class="cls-3"/></g><g id="LINE-35"><line y2="170.38" x2="38.71" y1="177.03" x1="38.71" class="cls-3"/></g><g id="LINE-36"><line y2="147.29" x2="40.36" y1="170.38" x1="40.36" class="cls-3"/></g><g id="LINE-37"><line y2="147.29" x2="38.71" y1="170.38" x1="38.71" class="cls-3"/></g><g id="LINE-38"><line y2="283.45" x2="44.56" y1="283.45" x1="38.71" class="cls-3"/></g><g id="LINE-39"><line y2="177.03" x2="40.36" y1="281.82" x1="40.36" class="cls-3"/></g><g id="LINE-40"><line y2="177.03" x2="38.71" y1="283.45" x1="38.71" class="cls-3"/></g><g id="LINE-41"><line y2="147.14" x2="40.36" y1="147.29" x1="40.36" class="cls-3"/></g><g id="LINE-42"><line y2="147.14" x2="38.71" y1="147.29" x1="38.71" class="cls-3"/></g><g id="LINE-43"><line y2="170.38" x2="365.97" y1="177.03" x1="365.97" class="cls-3"/></g><g id="LINE-44"><line y2="170.38" x2="364.33" y1="177.03" x1="364.33" class="cls-3"/></g><g id="LINE-45"><line y2="147.29" x2="365.97" y1="170.38" x1="365.97" class="cls-3"/></g><g id="LINE-46"><line y2="147.29" x2="364.33" y1="170.38" x1="364.33" class="cls-3"/></g><g id="LINE-47"><line y2="283.45" x2="365.97" y1="283.45" x1="364.33" class="cls-3"/></g><g id="LINE-48"><line y2="177.03" x2="365.97" y1="283.45" x1="365.97" class="cls-3"/></g><g id="LINE-49"><line y2="176.94" x2="364.33" y1="281.82" x1="364.2" class="cls-3"/></g><g id="LINE-50"><line y2="147.14" x2="365.97" y1="147.29" x1="365.97" class="cls-3"/></g><g id="LINE-51"><line y2="147.14" x2="364.33" y1="147.29" x1="364.33" class="cls-3"/></g><g id="LINE-52"><line y2="178.67" x2="359.4" y1="178.67" x1="364.33" class="cls-3"/></g><g id="LINE-53"><line y2="281.82" x2="359.4" y1="178.67" x1="359.4" class="cls-3"/></g><g id="LINE-54"><line y2="178.67" x2="40.36" y1="178.67" x1="45.29" class="cls-3"/></g><g id="LINE-55"><line y2="178.67" x2="45.29" y1="281.82" x1="45.29" class="cls-3"/></g><g id="LINE-56"><line y2="169.04" x2="42.83" y1="169.04" x1="361.86" class="cls-3"/></g><g id="LINE-57"><line y2="170.36" x2="41.18" y1="177.03" x1="41.18" class="cls-3"/></g><g id="LWPOLYLINE"><polyline points="42.83 169.04 42.5 169.06 42.2 169.14 41.91 169.26 41.66 169.43 41.46 169.63 41.31 169.86 41.21 170.11 41.18 170.36" class="cls-3"/></g><g id="LINE-58"><line y2="177.03" x2="363.51" y1="170.36" x1="363.51" class="cls-3"/></g><g id="LWPOLYLINE-2"><polyline points="363.51 170.36 363.48 170.11 363.38 169.86 363.23 169.63 363.03 169.43 362.78 169.26 362.49 169.14 362.18 169.06 361.86 169.04" class="cls-3"/></g><g id="LINE-59"><line y2="147.5" x2="41.18" y1="170.36" x1="41.18" class="cls-3"/></g><g id="LINE-60"><line y2="170.36" x2="363.51" y1="147.5" x1="363.51" class="cls-3"/></g><g id="LINE-61"><line y2="283.45" x2="51.05" y1="281.82" x1="51.05" class="cls-3"/></g><g id="LINE-62"><line y2="283.45" x2="51.05" y1="283.45" x1="44.37" class="cls-3"/></g><g id="LINE-63"><line y2="281.82" x2="51.05" y1="281.82" x1="44.37" class="cls-3"/></g><g id="LINE-64"><line y2="281.82" x2="44.65" y1="281.82" x1="40.36" class="cls-3"/></g><g id="LINE-65"><line y2="283.45" x2="353.64" y1="281.82" x1="353.64" class="cls-3"/></g><g id="LINE-66"><line y2="281.82" x2="360.32" y1="281.82" x1="353.64" class="cls-3"/></g><g id="LINE-67"><line y2="283.45" x2="360.32" y1="283.45" x1="353.64" class="cls-3"/></g><g id="LINE-68"><line y2="281.82" x2="360.32" y1="281.82" x1="364.2" class="cls-3"/></g><g id="LINE-69"><line y2="283.45" x2="360.32" y1="283.45" x1="364.33" class="cls-3"/></g><g id="LINE-70"><line y2="172.26" x2="41.18" y1="172.26" x1="40.36" class="cls-3"/></g><g id="LINE-71"><line y2="172.26" x2="364.33" y1="172.26" x1="363.51" class="cls-3"/></g><g id="LINE-72"><line y2="171.51" x2="41.18" y1="171.51" x1="40.36" class="cls-3"/></g><g id="LINE-73"><line y2="171.51" x2="364.33" y1="171.51" x1="363.51" class="cls-3"/></g><g id="LINE-74"><line y2="163.56" x2="41.18" y1="163.56" x1="40.36" class="cls-3"/></g><g id="LINE-75"><line y2="163.56" x2="364.33" y1="163.56" x1="363.51" class="cls-3"/></g></g><g id="LINE-76"><g><line y2="283.3" x2="16.72" y1="146.01" x1="16.72" class="cls-1"/><rect height=".3" width="1.95" y="145.86" x="15.74"/><rect height=".3" width="1.95" y="283.15" x="15.74"/></g></g><g id="MTEXT-2"><g><path d="M12.74,226.61c-.07.22-.17.4-.31.56-.13.15-.29.28-.47.36s-.38.13-.6.13c-.16,0-.31-.02-.45-.07-.15-.05-.28-.11-.4-.2-.12-.09-.22-.19-.3-.31s-.14-.25-.18-.4c-.05.14-.12.25-.2.36-.08.1-.17.19-.27.27s-.21.13-.33.17c-.12.04-.25.06-.38.06-.21,0-.39-.04-.56-.12-.17-.08-.32-.2-.44-.34-.13-.14-.22-.32-.29-.52-.07-.2-.1-.42-.1-.66s.03-.46.1-.66c.07-.2.17-.37.29-.52.12-.15.27-.26.44-.35.17-.08.36-.13.57-.13.13,0,.26.02.38.06.12.04.24.1.34.17.1.07.19.16.27.27.08.1.14.22.19.35.04-.15.1-.28.18-.4s.19-.22.31-.3c.12-.08.25-.15.4-.2.14-.05.29-.07.45-.07.21,0,.41.04.6.13.18.09.34.21.47.36.13.15.24.34.31.56.07.22.11.46.11.72s-.04.5-.11.72ZM8.18,226.25c.04.11.09.2.16.28.07.08.15.14.26.18s.21.07.33.07c.11,0,.22-.02.32-.07.1-.04.19-.11.26-.19.07-.08.13-.17.17-.28s.06-.23.06-.35-.02-.25-.06-.35c-.04-.1-.1-.2-.17-.28s-.16-.14-.26-.19c-.1-.04-.21-.07-.32-.07-.12,0-.23.02-.33.07-.1.04-.19.11-.26.19-.07.08-.12.17-.16.28-.04.11-.06.23-.06.36s.02.24.06.35ZM12.11,225.48c-.04-.13-.11-.23-.19-.32-.08-.09-.18-.16-.29-.21-.11-.05-.24-.08-.37-.08s-.26.03-.37.08c-.11.05-.21.12-.29.21-.08.09-.15.2-.2.33-.05.13-.07.26-.07.41s.02.28.07.41c.04.13.11.23.19.33s.18.16.3.21c.11.05.24.07.37.07.14,0,.27-.02.38-.07.11-.05.21-.12.29-.21.08-.09.14-.2.19-.33.04-.13.07-.26.07-.41s-.02-.29-.07-.41Z"/><path d="M7.51,220.41h.55l.98.65c.06.04.1.07.15.1.04.03.08.06.13.09s.09.06.13.09.09.06.15.09c.02-.19.08-.37.18-.52s.21-.29.35-.41c.14-.12.3-.21.48-.27s.38-.09.59-.09c.24,0,.47.04.67.13.2.08.38.2.52.36.14.15.26.34.34.54s.12.44.12.69c0,.21-.03.4-.08.58-.05.18-.13.35-.23.49-.1.15-.22.28-.37.39-.14.11-.31.2-.49.26l-.31-.63c.24-.08.44-.22.58-.41.14-.19.21-.42.21-.67,0-.15-.02-.28-.07-.4-.05-.12-.11-.23-.2-.31-.09-.09-.19-.15-.31-.2-.12-.05-.26-.07-.41-.07s-.29.03-.42.08c-.13.06-.23.13-.32.22-.09.09-.16.21-.21.34-.05.13-.08.28-.08.44v.35l-.44.08-1.07-.72s-.09-.06-.12-.09c-.03-.03-.07-.05-.12-.08s-.08-.06-.12-.08c-.03-.03-.07-.06-.12-.09v2.18h-.65v-3.09Z"/><path d="M7.51,216.48h.65v1.92l1.54.25c-.09-.1-.16-.22-.21-.36-.05-.14-.07-.29-.07-.46,0-.25.04-.47.13-.68.08-.21.2-.38.35-.53.15-.15.33-.27.54-.35.21-.08.44-.12.69-.12s.48.04.7.13c.21.09.4.21.55.36.15.16.27.34.36.56.08.21.13.45.13.71,0,.2-.03.39-.08.58s-.13.35-.23.5c-.1.15-.22.28-.36.39-.14.11-.3.19-.48.24l-.31-.63c.24-.07.43-.19.56-.39.14-.19.21-.42.21-.67,0-.15-.03-.29-.08-.41-.05-.13-.12-.23-.21-.33-.09-.09-.2-.16-.33-.21-.13-.05-.27-.08-.43-.08s-.3.03-.44.08c-.13.05-.25.13-.34.22s-.17.21-.22.34c-.05.13-.08.28-.08.44,0,.18.04.35.1.49.07.14.17.26.31.36l-.15.62-2.79-.47v-2.52Z"/><path d="M9.15,212.54h.67c-.24-.11-.42-.26-.54-.45-.12-.18-.18-.4-.18-.63,0-.26.07-.48.2-.67.14-.19.33-.32.59-.41-.26-.11-.45-.27-.59-.46-.14-.2-.2-.43-.2-.7,0-.38.12-.67.37-.88.25-.21.61-.31,1.07-.31h2.25v.7h-2.16c-.29,0-.52.07-.69.2-.17.13-.25.31-.25.54,0,.12.02.22.07.32.05.1.11.18.2.26.09.07.19.13.32.16.12.04.26.06.4.06h2.11v.7h-2.16c-.14,0-.27.02-.38.06-.12.04-.22.09-.3.15-.08.06-.14.14-.19.23-.04.09-.07.2-.07.31s.02.22.07.32c.05.1.12.18.21.25.09.07.2.12.32.17.12.04.26.06.41.06h2.09v.7h-3.64v-.68Z"/><path d="M9.15,206.36h.67c-.24-.11-.42-.26-.54-.45-.12-.18-.18-.4-.18-.63,0-.26.07-.48.2-.67.14-.19.33-.32.59-.41-.26-.11-.45-.27-.59-.46-.14-.2-.2-.43-.2-.7,0-.38.12-.67.37-.88.25-.21.61-.31,1.07-.31h2.25v.7h-2.16c-.29,0-.52.07-.69.2-.17.13-.25.31-.25.54,0,.12.02.22.07.32.05.1.11.18.2.26.09.07.19.13.32.16.12.04.26.06.4.06h2.11v.7h-2.16c-.14,0-.27.02-.38.06-.12.04-.22.09-.3.15-.08.06-.14.14-.19.23-.04.09-.07.2-.07.31s.02.22.07.32c.05.1.12.18.21.25.09.07.2.12.32.17.12.04.26.06.41.06h2.09v.7h-3.64v-.68Z"/></g></g><g><g id="LINE-77"><line y2="62.15" x2="38.71" y1="62.15" x1="40.36" class="cls-3"/></g><g id="LINE-78"><line y2="101.87" x2="40.36" y1="101.87" x1="38.71" class="cls-3"/></g><g id="LINE-79"><line y2="62.15" x2="364.33" y1="62.15" x1="365.97" class="cls-3"/></g><g id="LINE-80"><line y2="101.87" x2="365.97" y1="101.87" x1="364.33" class="cls-3"/></g><g id="ARC-13"><path d="M363.51,63.99c0-.9-.74-1.63-1.64-1.63" class="cls-3"/></g><g id="LINE-81"><line y2="62.35" x2="42.83" y1="62.35" x1="361.86" class="cls-3"/></g><g id="ARC-14"><path d="M42.83,62.35c-.91,0-1.64.73-1.64,1.63" class="cls-3"/></g><g id="ARC-15"><path d="M361.86,103.51c.91,0,1.64-.73,1.64-1.63" class="cls-3"/></g><g id="ARC-16"><path d="M41.18,101.87c0,.9.74,1.63,1.64,1.63" class="cls-3"/></g><g id="LINE-82"><line y2="103.51" x2="361.86" y1="103.51" x1="42.83" class="cls-3"/></g><g id="LINE-83"><line y2="72.9" x2="41.18" y1="72.9" x1="40.36" class="cls-3"/></g><g id="LINE-84"><line y2="72.9" x2="364.33" y1="72.9" x1="363.51" class="cls-3"/></g><g id="LINE-85"><line y2="86.42" x2="41.18" y1="86.42" x1="40.36" class="cls-3"/></g><g id="LINE-86"><line y2="86.42" x2="364.33" y1="86.42" x1="363.51" class="cls-3"/></g><g id="LINE-87"><line y2="67.95" x2="40.36" y1="69.1" x1="40.36" class="cls-3"/></g><g id="LINE-88"><line y2="67.95" x2="38.71" y1="69.1" x1="38.71" class="cls-3"/></g><g id="LINE-89"><line y2="69.1" x2="40.36" y1="100.38" x1="40.36" class="cls-3"/></g><g id="LINE-90"><line y2="69.1" x2="38.71" y1="100.38" x1="38.71" class="cls-3"/></g><g id="LINE-91"><line y2="62.59" x2="40.36" y1="67.95" x1="40.36" class="cls-3"/></g><g id="LINE-92"><line y2="62.59" x2="38.71" y1="67.95" x1="38.71" class="cls-3"/></g><g id="LINE-93"><line y2="62.59" x2="40.36" y1="62.15" x1="40.36" class="cls-3"/></g><g id="LINE-94"><line y2="62.15" x2="38.71" y1="62.59" x1="38.71" class="cls-3"/></g><g id="LINE-95"><line y2="100.38" x2="40.36" y1="101.87" x1="40.36" class="cls-3"/></g><g id="LINE-96"><line y2="100.38" x2="38.71" y1="101.87" x1="38.71" class="cls-3"/></g><g id="LINE-97"><line y2="67.95" x2="365.97" y1="69.1" x1="365.97" class="cls-3"/></g><g id="LINE-98"><line y2="67.95" x2="364.33" y1="69.1" x1="364.33" class="cls-3"/></g><g id="LINE-99"><line y2="69.1" x2="365.97" y1="100.38" x1="365.97" class="cls-3"/></g><g id="LINE-100"><line y2="69.1" x2="364.33" y1="100.38" x1="364.33" class="cls-3"/></g><g id="LINE-101"><line y2="62.59" x2="365.97" y1="67.95" x1="365.97" class="cls-3"/></g><g id="LINE-102"><line y2="62.59" x2="364.33" y1="67.95" x1="364.33" class="cls-3"/></g><g id="LINE-103"><line y2="62.59" x2="365.97" y1="62.15" x1="365.97" class="cls-3"/></g><g id="LINE-104"><line y2="62.15" x2="364.33" y1="62.59" x1="364.33" class="cls-3"/></g><g id="LINE-105"><line y2="100.38" x2="365.97" y1="101.87" x1="365.97" class="cls-3"/></g><g id="LINE-106"><line y2="100.38" x2="364.33" y1="101.87" x1="364.33" class="cls-3"/></g><g id="LWPOLYLINE-3"><polyline points="361.86 67.6 362.18 67.62 362.49 67.7 362.78 67.82 363.03 67.99 363.23 68.19 363.38 68.42 363.48 68.67 363.51 68.93" class="cls-3"/></g><g id="LINE-107"><line y2="67.6" x2="361.86" y1="67.6" x1="42.83" class="cls-3"/></g><g id="LWPOLYLINE-4"><polyline points="41.18 68.93 41.21 68.67 41.31 68.42 41.46 68.19 41.66 67.99 41.91 67.82 42.2 67.7 42.5 67.62 42.83 67.6" class="cls-3"/></g><g id="LINE-108"><line y2="100.36" x2="363.51" y1="68.93" x1="363.51" class="cls-3"/></g><g id="LINE-109"><line y2="68.93" x2="41.18" y1="100.36" x1="41.18" class="cls-3"/></g><g id="LINE-110"><line y2="68.93" x2="363.51" y1="63.99" x1="363.51" class="cls-3"/></g><g id="LINE-111"><line y2="63.99" x2="41.18" y1="68.93" x1="41.18" class="cls-3"/></g><g id="LINE-112"><line y2="101.87" x2="363.51" y1="100.36" x1="363.51" class="cls-3"/></g><g id="LINE-113"><line y2="100.36" x2="41.18" y1="101.87" x1="41.18" class="cls-3"/></g><g id="LINE-114"><line y2="88.24" x2="41.18" y1="87.58" x1="40.36" class="cls-3"/></g><g id="LINE-115"><line y2="70.61" x2="41.18" y1="71.27" x1="40.36" class="cls-3"/></g><g id="LINE-116"><line y2="68.98" x2="363.51" y1="69.63" x1="364.33" class="cls-3"/></g><g id="LINE-117"><line y2="86.6" x2="363.51" y1="86.42" x1="363.74" class="cls-3"/></g><g id="LINE-118"><line y2="74.3" x2="41.18" y1="74.3" x1="40.36" class="cls-3"/></g><g id="LINE-119"><line y2="74.3" x2="364.33" y1="74.3" x1="363.51" class="cls-3"/></g><g id="LINE-120"><line y2="72.9" x2="41.18" y1="72.9" x1="40.36" class="cls-3"/></g><g id="LINE-121"><line y2="72.9" x2="364.33" y1="72.9" x1="363.51" class="cls-3"/></g><g id="LINE-122"><line y2="86.03" x2="41.18" y1="86.03" x1="40.36" class="cls-3"/></g><g id="LINE-123"><line y2="86.03" x2="364.33" y1="86.03" x1="363.51" class="cls-3"/></g></g><g id="LINE-124"><g><line y2="103.36" x2="16.72" y1="62.3" x1="16.72" class="cls-1"/><rect height=".3" width="1.95" y="62.15" x="15.74"/><rect height=".3" width="1.95" y="103.21" x="15.74"/></g></g><g id="MTEXT-3"><g><path d="M7.57,92.77c.08-.21.19-.39.33-.54.14-.15.31-.27.51-.35.2-.08.42-.13.67-.13.14,0,.28.02.42.05.14.03.28.08.41.15.14.07.27.16.42.27.14.11.29.24.45.39l1.35,1.31v-2.29h.67v3.32h-.59l-1.85-1.79c-.12-.12-.23-.22-.33-.3-.1-.08-.21-.15-.3-.2-.1-.05-.19-.09-.29-.11-.09-.02-.19-.03-.29-.03-.15,0-.28.02-.4.07-.12.04-.23.11-.32.2-.09.09-.16.19-.21.3-.05.11-.07.24-.07.39,0,.25.08.47.23.65.15.18.36.31.63.39l-.23.67c-.42-.12-.74-.32-.97-.62-.23-.3-.34-.66-.34-1.1,0-.25.04-.48.12-.69Z"/><path d="M7.51,87.98h.65v1.92l1.54.25c-.09-.1-.16-.22-.21-.36-.05-.14-.07-.29-.07-.46,0-.25.04-.47.13-.68.08-.21.2-.38.35-.53.15-.15.33-.27.54-.35.21-.08.44-.12.69-.12s.48.04.7.13c.21.09.4.21.55.36.15.16.27.34.36.56.08.21.13.45.13.71,0,.2-.03.39-.08.58s-.13.35-.23.5c-.1.15-.22.28-.36.39-.14.11-.3.19-.48.24l-.31-.63c.24-.07.43-.19.56-.39.14-.19.21-.42.21-.67,0-.15-.03-.29-.08-.41-.05-.13-.12-.23-.21-.33-.09-.09-.2-.16-.33-.21-.13-.05-.27-.08-.43-.08s-.3.03-.44.08c-.13.05-.25.13-.34.22s-.17.21-.22.34c-.05.13-.08.28-.08.44,0,.18.04.35.1.49.07.14.17.26.31.36l-.15.62-2.79-.47v-2.52Z"/><path d="M7.51,85.32h5.29v.72h-4.54l.64,1.3h-.73l-.67-1.36v-.67Z"/><path d="M9.15,81.42h.67c-.24-.11-.42-.26-.54-.45-.12-.18-.18-.4-.18-.63,0-.26.07-.48.2-.67.14-.19.33-.32.59-.41-.26-.11-.45-.27-.59-.46-.14-.2-.2-.43-.2-.7,0-.38.12-.67.37-.88.25-.21.61-.31,1.07-.31h2.25v.7h-2.16c-.29,0-.52.07-.69.2-.17.13-.25.31-.25.54,0,.12.02.22.07.32.05.1.11.18.2.26.09.07.19.13.32.16.12.04.26.06.4.06h2.11v.7h-2.16c-.14,0-.27.02-.38.06-.12.04-.22.09-.3.15-.08.06-.14.14-.19.23-.04.09-.07.2-.07.31s.02.22.07.32c.05.1.12.18.21.25.09.07.2.12.32.17.12.04.26.06.41.06h2.09v.7h-3.64v-.68Z"/><path d="M9.15,75.24h.67c-.24-.11-.42-.26-.54-.45-.12-.18-.18-.4-.18-.63,0-.26.07-.48.2-.67.14-.19.33-.32.59-.41-.26-.11-.45-.27-.59-.46-.14-.2-.2-.43-.2-.7,0-.38.12-.67.37-.88.25-.21.61-.31,1.07-.31h2.25v.7h-2.16c-.29,0-.52.07-.69.2-.17.13-.25.31-.25.54,0,.12.02.22.07.32.05.1.11.18.2.26.09.07.19.13.32.16.12.04.26.06.4.06h2.11v.7h-2.16c-.14,0-.27.02-.38.06-.12.04-.22.09-.3.15-.08.06-.14.14-.19.23-.04.09-.07.2-.07.31s.02.22.07.32c.05.1.12.18.21.25.09.07.2.12.32.17.12.04.26.06.41.06h2.09v.7h-3.64v-.68Z"/></g></g></g></g></g></svg>