<svg viewBox="0 0 531.27 288" xmlns:xlink="http://www.w3.org/1999/xlink" xmlns="http://www.w3.org/2000/svg" id="Camada_2"><defs><style>.cls-1,.cls-2{fill:none;}.cls-3{fill:#12100c;}.cls-2{stroke:#12100c;stroke-linecap:round;stroke-linejoin:round;stroke-width:.3px;}</style><symbol viewBox="0 0 531.27 288" id="fundo_transparente"><rect height="288" width="531.27" x="0" class="cls-1"/></symbol></defs><g id="RePlastic"><g id="vedação_Crayons_1000"><use xlink:href="#fundo_transparente" height="288" width="531.27"/><path d="M44.83,110.37l-.08-.25v-.25l-.17-.25-.17-.25-.17-.17-.25-.17-.25-.17h-.25l-.25-.08h-11.03l-.33.08h-.25l-.25.17-.25.17-.17.17-.17.25-.08.25-.08.25v.25M147.44,155.42v80.59h-7.85v-80.59h-39.52v80.59h-7.85v-80.59h-15.79v80.59h-7.94v-80.59M185.38,110.37l-.08-.25-.08-.25-.08-.25-.17-.25-.17-.17-.25-.17-.25-.17h-.25l-.25-.08h-11.11l-.25.08h-.25l-.25.17-.25.17-.17.17-.17.25-.08.25-.08.25v.25M52.68,236.01v-80.59h-7.85v80.59h-14.21v-96.39,15.8h154.75v-15.8H30.62v-29.26h14.21v29.26h7.85v-18.98l.08-.67.08-.67.08-.67.25-.59.25-.67.25-.59.33-.59.42-.5.42-.5.5-.5.5-.42.58-.33.58-.33.58-.33.67-.17.67-.17.67-.17h2.01l.67.17.58.17.67.17.58.33.58.33.58.33.5.42.5.5.42.5.42.5.33.59.33.59.25.67.17.59.17.67.08.67v19.64h7.94v-19.64l.08-.67.17-.67.17-.59.25-.67.33-.59.33-.59.42-.5.42-.5.5-.5.5-.42.58-.33.58-.33.58-.33.58-.17.67-.17.67-.17h2.01l.67.17.67.17.58.17.67.33.58.33.5.33.58.42.42.5.5.5.33.5.42.59.25.59.25.67.25.59.08.67.08.67.08.67v18.98h7.85v-19.64l.08-.67.17-.67.25-.59.17-.67.33-.59.33-.59.42-.5.42-.5.5-.5.5-.42.58-.33.58-.33.58-.33.67-.17.67-.17.67-.17h2.01l.67.17.58.17.67.17.58.33.58.33.58.33.5.42.5.5.42.5.42.5.33.59.33.59.25.67.17.59.17.67.08.67v19.64h7.94v-19.64l.08-.67.17-.67.17-.59.25-.67.33-.59.33-.59.42-.5.42-.5.5-.5.5-.42.58-.33.58-.33.58-.33.58-.17.67-.17.67-.17h2.01l.67.17.67.17.58.17.67.33.58.33.5.33.5.42.5.5.5.5.33.5.42.59.25.59.25.67.25.59.08.67.08.67.08.67v18.98h7.85v-19.64l.08-.67.17-.67.17-.59.25-.67.33-.59.33-.59.42-.5.42-.5.5-.5.5-.42.58-.33.58-.33.58-.33.67-.17.67-.17.67-.17h2.01l.58.17.67.17.67.17.58.33.58.33.58.33.5.42.5.5.42.5.42.5.33.59.33.59.25.67.17.59.17.67.08.67v19.64h7.94v-29.26h14.21v125.64h-14.21v-80.59h-7.94v80.59h-39.44v-80.59h-7.94v80.59M30.62,251.26v-15.25h154.75v46.56h-14.21v-30.76h-7.94v18.89h-15.79v-18.89h-7.85v18.89h-15.79v-18.89h-7.94v18.89h-15.79v-18.89h-7.85v18.89h-15.79v-18.89h-7.94v18.89h-15.79v-18.89h-7.85v30.76h-14.21v-30.76M185.38,278.23v-26.42H30.62v-.55" class="cls-2"/><path d="M115.59,41.85h-15.26M115.59,46.46h-15.26M100.33,46.46v-4.61M115.59,46.46v-4.61M92.74,41.85h-15.26M77.48,46.46v-4.61M92.74,46.46h-15.26M92.74,46.46v-4.61M69.81,41.85h-15.26M54.56,46.46v-4.61M69.81,46.46h-15.26M69.81,46.46v-4.61M161.36,41.85h-15.26M146.1,46.46v-4.61M161.36,46.46h-15.26M161.36,46.46v-4.61M138.52,41.85h-15.26M123.26,46.46v-4.61M138.52,46.46h-15.26M138.52,46.46v-4.61M33.24,50.98h149.51M182.76,46.46v4.53M161.36,46.46h7.67M138.52,46.46h7.59M115.59,46.46h7.67M92.74,46.46h7.59M69.81,46.46h7.67M46.97,46.46h7.59M33.24,46.46v4.53M182.76,46.46h-13.72M182.76,32.63v13.82M169.03,46.46v-13.82M169.03,32.63h13.72M46.97,46.46h-13.72M46.97,32.63v13.82M33.24,46.46v-13.82M33.24,32.63h13.72M31.71,66.26h0v-.32M33.24,65.93v.32M33.24,66.26h-1.53M31.71,13.16v-.32M33.24,12.83h0v.32M31.71,12.83h1.53M31.71,65.93v-19.48M33.24,65.93v-14.95M31.71,65.93h1.53M31.71,46.46v-13.82M31.71,46.46h1.53M33.24,32.63V13.16M33.24,13.16h-1.53M31.71,32.63V13.16M31.71,32.63h1.53M182.76,66.26h0v-.32M184.21,65.93v.32M184.21,66.26h-1.45M182.76,13.16v-.32M184.21,12.83h0v.32M182.76,12.83h1.45M182.76,65.93v-14.95M184.21,65.93v-19.48M182.76,65.93h1.45M184.21,46.46v-13.82M182.76,46.46h1.45M184.21,32.63V13.16M184.21,13.16h-1.45M182.76,32.63V13.16M182.76,32.63h1.45M31.55,38.05h0v-4.69M184.37,33.36v4.69M184.37,41.04h0v4.69M31.55,45.73v-4.69M31.55,41.04h0M31.55,33.36l-.24.32-.24.4-.16.4-.16.4-.08.4v.89l.08.4.16.4.16.4.24.32.24.32M31.71,33.36h-.16M31.55,38.05h.16M184.37,38.05l.24-.32.24-.32.24-.4.08-.4.08-.4.08-.48-.08-.4-.08-.4-.08-.4-.24-.4-.24-.4-.24-.32M184.21,38.05h.16M184.37,33.36h-.16M184.21,45.73h.16M184.37,41.04h-.16M184.37,45.73l.24-.32.24-.4.24-.4.08-.4.08-.4.08-.4-.08-.48-.08-.4-.08-.4-.24-.4-.24-.32-.24-.32M31.71,41.04h-.16M31.55,45.73h.16M31.55,41.04l-.24.32-.24.32-.16.4-.16.4-.08.4v.89l.08.4.16.4.16.4.24.4.24.32" class="cls-2"/><path d="M232.66,139.62v15.8M232.66,155.42h-4.76M232.66,139.62h-4.76M227.9,139.62v15.8M232.66,251.81v-15.8M227.9,236.01h4.76M227.9,251.81v-15.8M227.9,251.81h4.76M246.86,110.37v172.21M232.66,110.37v172.21M232.66,110.37v-.25l.08-.25.17-.25.17-.25.17-.17.25-.17.25-.17h.25l.25-.08M246.86,110.37h-14.2M245.27,108.78l.33.08h.25l.25.17.17.17.25.17.17.25.08.25.08.25v.25M234.24,108.78h11.03M232.66,282.57h14.2" class="cls-2"/><g id="LINE"><line y2="108.93" x2="16.45" y1="282.42" x1="16.45" class="cls-2"/><rect height=".3" width="1.95" y="282.27" x="15.47" class="cls-3"/><rect height=".3" width="1.95" y="108.78" x="15.47" class="cls-3"/></g><g id="MTEXT"><path d="M6.41,209.02h5.29v.72h-4.54l.64,1.3h-.73l-.67-1.36v-.67Z"/><path d="M6.55,205.32c.13-.25.32-.47.55-.65.23-.18.52-.32.85-.42.33-.1.69-.15,1.08-.15s.76.05,1.1.15.62.24.86.42c.24.18.43.4.56.65.13.25.2.52.2.83s-.07.57-.2.82-.32.47-.56.65c-.24.18-.53.32-.86.42-.33.1-.7.15-1.1.15s-.75-.05-1.08-.15c-.33-.1-.61-.24-.85-.42-.24-.18-.42-.4-.55-.65-.13-.25-.2-.53-.2-.83s.07-.58.2-.83ZM7.18,206.67c.1.16.23.29.41.41.18.11.38.2.63.27.24.07.51.1.81.1s.57-.03.82-.09c.25-.06.46-.15.64-.27.18-.12.32-.25.42-.41.1-.16.15-.33.15-.52s-.05-.37-.15-.53c-.1-.16-.24-.3-.42-.41-.18-.11-.39-.2-.64-.27-.25-.06-.52-.09-.82-.09s-.56.03-.81.09c-.25.06-.46.15-.63.26-.17.11-.31.25-.41.41-.1.16-.15.34-.15.53s.05.37.15.52Z"/><path d="M6.55,200.68c.13-.25.32-.47.55-.65.23-.18.52-.32.85-.42.33-.1.69-.15,1.08-.15s.76.05,1.1.15.62.24.86.42c.24.18.43.4.56.65.13.25.2.52.2.83s-.07.57-.2.82-.32.47-.56.65c-.24.18-.53.32-.86.42-.33.1-.7.15-1.1.15s-.75-.05-1.08-.15c-.33-.1-.61-.24-.85-.42-.24-.18-.42-.4-.55-.65-.13-.25-.2-.53-.2-.83s.07-.58.2-.83ZM7.18,202.04c.1.16.23.29.41.41.18.11.38.2.63.27.24.07.51.1.81.1s.57-.03.82-.09c.25-.06.46-.15.64-.27.18-.12.32-.25.42-.41.1-.16.15-.33.15-.52s-.05-.37-.15-.53c-.1-.16-.24-.3-.42-.41-.18-.11-.39-.2-.64-.27-.25-.06-.52-.09-.82-.09s-.56.03-.81.09c-.25.06-.46.15-.63.26-.17.11-.31.25-.41.41-.1.16-.15.34-.15.53s.05.37.15.52Z"/><path d="M6.55,196.05c.13-.25.32-.47.55-.65.23-.18.52-.32.85-.42.33-.1.69-.15,1.08-.15s.76.05,1.1.15.62.24.86.42c.24.18.43.4.56.65.13.25.2.52.2.83s-.07.57-.2.82-.32.47-.56.65c-.24.18-.53.32-.86.42-.33.1-.7.15-1.1.15s-.75-.05-1.08-.15c-.33-.1-.61-.24-.85-.42-.24-.18-.42-.4-.55-.65-.13-.25-.2-.53-.2-.83s.07-.58.2-.83ZM7.18,197.4c.1.16.23.29.41.41.18.11.38.2.63.27.24.07.51.1.81.1s.57-.03.82-.09c.25-.06.46-.15.64-.27.18-.12.32-.25.42-.41.1-.16.15-.33.15-.52s-.05-.37-.15-.53c-.1-.16-.24-.3-.42-.41-.18-.11-.39-.2-.64-.27-.25-.06-.52-.09-.82-.09s-.56.03-.81.09c-.25.06-.46.15-.63.26-.17.11-.31.25-.41.41-.1.16-.15.34-.15.53s.05.37.15.52Z"/><path d="M8.05,191.22h.67c-.24-.11-.42-.26-.54-.45-.12-.18-.18-.4-.18-.63,0-.26.07-.48.2-.67.14-.19.33-.32.59-.41-.26-.11-.45-.27-.59-.46-.14-.2-.2-.43-.2-.7,0-.38.12-.67.37-.88.25-.21.61-.31,1.07-.31h2.25v.7h-2.16c-.29,0-.52.07-.69.2-.17.13-.25.31-.25.54,0,.12.02.22.07.32.05.1.11.18.2.26.09.07.19.13.32.16.12.04.26.06.4.06h2.11v.7h-2.16c-.14,0-.27.02-.38.06-.12.04-.22.09-.3.15-.08.06-.14.14-.19.23-.04.09-.07.2-.07.31s.02.22.07.32c.05.1.12.18.21.25.09.07.2.12.32.17.12.04.26.06.41.06h2.09v.7h-3.64v-.68Z"/><path d="M8.05,185.03h.67c-.24-.11-.42-.26-.54-.45-.12-.18-.18-.4-.18-.63,0-.26.07-.48.2-.67.14-.19.33-.32.59-.41-.26-.11-.45-.27-.59-.46-.14-.2-.2-.43-.2-.7,0-.38.12-.67.37-.88.25-.21.61-.31,1.07-.31h2.25v.7h-2.16c-.29,0-.52.07-.69.2-.17.13-.25.31-.25.54,0,.12.02.22.07.32.05.1.11.18.2.26.09.07.19.13.32.16.12.04.26.06.4.06h2.11v.7h-2.16c-.14,0-.27.02-.38.06-.12.04-.22.09-.3.15-.08.06-.14.14-.19.23-.04.09-.07.2-.07.31s.02.22.07.32c.05.1.12.18.21.25.09.07.2.12.32.17.12.04.26.06.41.06h2.09v.7h-3.64v-.68Z"/></g></g></g></svg>