<svg viewBox="0 0 531.27 288" xmlns:xlink="http://www.w3.org/1999/xlink" xmlns="http://www.w3.org/2000/svg" id="Camada_2"><defs><style>.cls-1,.cls-2,.cls-3{fill:none;}.cls-4{fill:#12100c;}.cls-2{stroke-width:.3px;}.cls-2,.cls-3{stroke:#12100c;stroke-linecap:round;stroke-linejoin:round;}.cls-3{stroke-width:.3px;}</style><symbol viewBox="0 0 531.27 288" id="fundo_transparente"><rect height="288" width="531.27" x="0" class="cls-1"/></symbol></defs><g id="Nature"><g id="Rotas_cicláveis"><g id="placas_informativas_M"><use xlink:href="#fundo_transparente" height="288" width="531.27"/><g id="MTEXT"><path d="M61.28,9.62v5.29h-.72v-4.54l-1.3.64v-.73l1.36-.67h.67Z"/><path d="M65.23,9.62v.65h-1.92l-.25,1.54c.1-.09.22-.16.36-.21.14-.05.29-.07.46-.07.25,0,.47.04.68.13.21.08.38.2.53.35.15.15.27.33.35.54.08.21.12.44.12.69s-.04.48-.13.7c-.09.21-.21.4-.36.55-.16.15-.34.27-.56.36-.21.08-.45.13-.71.13-.2,0-.39-.03-.58-.08s-.35-.13-.5-.23c-.15-.1-.28-.22-.39-.36-.11-.14-.19-.3-.24-.48l.63-.31c.07.24.19.43.39.56.19.14.42.21.67.21.15,0,.29-.03.41-.08.13-.05.23-.12.33-.21.09-.09.16-.2.21-.33.05-.13.08-.27.08-.43s-.03-.3-.08-.44c-.05-.13-.13-.25-.22-.34s-.21-.17-.34-.22c-.13-.05-.28-.08-.44-.08-.18,0-.35.04-.49.1-.14.07-.26.17-.36.31l-.62-.15.47-2.79h2.52Z"/><path d="M68.97,9.77c.25.13.47.32.65.55.18.23.32.52.42.85.1.33.15.69.15,1.08s-.05.76-.15,1.1-.24.62-.42.86c-.18.24-.4.43-.65.56-.25.13-.52.2-.83.2s-.57-.07-.82-.2-.47-.32-.65-.56c-.18-.24-.32-.53-.42-.86-.1-.33-.15-.7-.15-1.1s.05-.75.15-1.08c.1-.33.24-.61.42-.85.18-.24.4-.42.65-.55.25-.13.53-.2.83-.2s.58.07.83.2ZM67.62,10.4c-.16.1-.29.23-.41.41-.11.18-.2.38-.27.63-.07.24-.1.51-.1.81s.03.57.09.82c.06.25.15.46.27.64.12.18.25.32.41.42.16.1.33.15.52.15s.37-.05.53-.15c.16-.1.3-.24.41-.42.11-.18.2-.39.27-.64.06-.25.09-.52.09-.82s-.03-.56-.09-.81c-.06-.25-.15-.46-.26-.63-.11-.17-.25-.31-.41-.41-.16-.1-.34-.15-.53-.15s-.37.05-.52.15Z"/><path d="M73.8,11.27v.67c.11-.24.26-.42.45-.54.18-.12.4-.18.63-.18.26,0,.48.07.67.2.19.14.32.33.41.59.11-.26.27-.45.46-.59.2-.14.43-.2.7-.2.38,0,.67.12.88.37.21.25.31.61.31,1.07v2.25h-.7v-2.16c0-.29-.07-.52-.2-.69-.13-.17-.31-.25-.54-.25-.12,0-.22.02-.32.07-.1.05-.18.11-.26.2-.07.09-.13.19-.16.32-.04.12-.06.26-.06.4v2.11h-.7v-2.16c0-.14-.02-.27-.06-.38-.04-.12-.09-.22-.15-.3-.06-.08-.14-.14-.23-.19-.09-.04-.2-.07-.31-.07s-.22.02-.32.07c-.1.05-.18.12-.25.21-.07.09-.12.2-.17.32-.04.12-.06.26-.06.41v2.09h-.7v-3.64h.68Z"/><path d="M79.98,11.27v.67c.11-.24.26-.42.45-.54.18-.12.4-.18.63-.18.26,0,.48.07.67.2.19.14.32.33.41.59.11-.26.27-.45.46-.59.2-.14.43-.2.7-.2.38,0,.67.12.88.37.21.25.31.61.31,1.07v2.25h-.7v-2.16c0-.29-.07-.52-.2-.69-.13-.17-.31-.25-.54-.25-.12,0-.22.02-.32.07-.1.05-.18.11-.26.2-.07.09-.13.19-.16.32-.04.12-.06.26-.06.4v2.11h-.7v-2.16c0-.14-.02-.27-.06-.38-.04-.12-.09-.22-.15-.3-.06-.08-.14-.14-.23-.19-.09-.04-.2-.07-.31-.07s-.22.02-.32.07c-.1.05-.18.12-.25.21-.07.09-.12.2-.17.32-.04.12-.06.26-.06.41v2.09h-.7v-3.64h.68Z"/></g><g id="MTEXT-2"><path d="M5.51,190.73h.55l.98.65c.06.04.1.07.15.1.04.03.08.06.13.09s.09.06.13.09.09.06.15.09c.02-.19.08-.37.18-.52s.21-.29.35-.41c.14-.12.3-.21.48-.27s.38-.09.59-.09c.24,0,.47.04.67.13.2.08.38.2.52.36.14.15.26.34.34.54s.12.44.12.69c0,.21-.03.4-.08.58-.05.18-.13.35-.23.49-.1.15-.22.28-.37.39-.14.11-.31.2-.49.26l-.31-.63c.24-.08.44-.22.58-.41.14-.19.21-.42.21-.67,0-.15-.02-.28-.07-.4-.05-.12-.11-.23-.2-.31-.09-.09-.19-.15-.31-.2-.12-.05-.26-.07-.41-.07s-.29.03-.42.08c-.13.06-.23.13-.32.22-.09.09-.16.21-.21.34-.05.13-.08.28-.08.44v.35l-.44.08-1.07-.72s-.09-.06-.12-.09c-.03-.03-.07-.05-.12-.08s-.08-.06-.12-.08c-.03-.03-.07-.06-.12-.09v2.18h-.65v-3.09Z"/><path d="M5.51,186.8h.65v1.92l1.54.25c-.09-.1-.16-.22-.21-.36-.05-.14-.07-.29-.07-.46,0-.25.04-.47.13-.68.08-.21.2-.38.35-.53.15-.15.33-.27.54-.35.21-.08.44-.12.69-.12s.48.04.7.13c.21.09.4.21.55.36.15.16.27.34.36.56.08.21.13.45.13.71,0,.2-.03.39-.08.58s-.13.35-.23.5c-.1.15-.22.28-.36.39-.14.11-.3.19-.48.24l-.31-.63c.24-.07.43-.19.56-.39.14-.19.21-.42.21-.67,0-.15-.03-.29-.08-.41-.05-.13-.12-.23-.21-.33-.09-.09-.2-.16-.33-.21-.13-.05-.27-.08-.43-.08s-.3.03-.44.08c-.13.05-.25.13-.34.22s-.17.21-.22.34c-.05.13-.08.28-.08.44,0,.18.04.35.1.49.07.14.17.26.31.36l-.15.62-2.79-.47v-2.52Z"/><path d="M5.65,183.06c.13-.25.32-.47.55-.65.23-.18.52-.32.85-.42.33-.1.69-.15,1.08-.15s.76.05,1.1.15.62.24.86.42c.24.18.43.4.56.65.13.25.2.52.2.83s-.07.57-.2.82-.32.47-.56.65c-.24.18-.53.32-.86.42-.33.1-.7.15-1.1.15s-.75-.05-1.08-.15c-.33-.1-.61-.24-.85-.42-.24-.18-.42-.4-.55-.65-.13-.25-.2-.53-.2-.83s.07-.58.2-.83ZM6.28,184.41c.1.16.23.29.41.41.18.11.38.2.63.27.24.07.51.1.81.1s.57-.03.82-.09c.25-.06.46-.15.64-.27.18-.12.32-.25.42-.41.1-.16.15-.33.15-.52s-.05-.37-.15-.53c-.1-.16-.24-.3-.42-.41-.18-.11-.39-.2-.64-.27-.25-.06-.52-.09-.82-.09s-.56.03-.81.09c-.25.06-.46.15-.63.26-.17.11-.31.25-.41.41-.1.16-.15.34-.15.53s.05.37.15.52Z"/><path d="M7.15,178.23h.67c-.24-.11-.42-.26-.54-.45-.12-.18-.18-.4-.18-.63,0-.26.07-.48.2-.67.14-.19.33-.32.59-.41-.26-.11-.45-.27-.59-.46-.14-.2-.2-.43-.2-.7,0-.38.12-.67.37-.88.25-.21.61-.31,1.07-.31h2.25v.7h-2.16c-.29,0-.52.07-.69.2-.17.13-.25.31-.25.54,0,.12.02.22.07.32.05.1.11.18.2.26.09.07.19.13.32.16.12.04.26.06.4.06h2.11v.7h-2.16c-.14,0-.27.02-.38.06-.12.04-.22.09-.3.15-.08.06-.14.14-.19.23-.04.09-.07.2-.07.31s.02.22.07.32c.05.1.12.18.21.25.09.07.2.12.32.17.12.04.26.06.41.06h2.09v.7h-3.64v-.68Z"/><path d="M7.15,172.04h.67c-.24-.11-.42-.26-.54-.45-.12-.18-.18-.4-.18-.63,0-.26.07-.48.2-.67.14-.19.33-.32.59-.41-.26-.11-.45-.27-.59-.46-.14-.2-.2-.43-.2-.7,0-.38.12-.67.37-.88.25-.21.61-.31,1.07-.31h2.25v.7h-2.16c-.29,0-.52.07-.69.2-.17.13-.25.31-.25.54,0,.12.02.22.07.32.05.1.11.18.2.26.09.07.19.13.32.16.12.04.26.06.4.06h2.11v.7h-2.16c-.14,0-.27.02-.38.06-.12.04-.22.09-.3.15-.08.06-.14.14-.19.23-.04.09-.07.2-.07.31s.02.22.07.32c.05.1.12.18.21.25.09.07.2.12.32.17.12.04.26.06.41.06h2.09v.7h-3.64v-.68Z"/></g><g id="MTEXT-3"><path d="M5.51,45.37h5.29v.72h-4.54l.64,1.3h-.73l-.67-1.36v-.67Z"/><path d="M5.65,41.66c.13-.25.32-.47.55-.65.23-.18.52-.32.85-.42.33-.1.69-.15,1.08-.15s.76.05,1.1.15.62.24.86.42c.24.18.43.4.56.65.13.25.2.52.2.83s-.07.57-.2.82-.32.47-.56.65c-.24.18-.53.32-.86.42-.33.1-.7.15-1.1.15s-.75-.05-1.08-.15c-.33-.1-.61-.24-.85-.42-.24-.18-.42-.4-.55-.65-.13-.25-.2-.53-.2-.83s.07-.58.2-.83ZM6.28,43.02c.1.16.23.29.41.41.18.11.38.2.63.27.24.07.51.1.81.1s.57-.03.82-.09c.25-.06.46-.15.64-.27.18-.12.32-.25.42-.41.1-.16.15-.33.15-.52s-.05-.37-.15-.53c-.1-.16-.24-.3-.42-.41-.18-.11-.39-.2-.64-.27-.25-.06-.52-.09-.82-.09s-.56.03-.81.09c-.25.06-.46.15-.63.26-.17.11-.31.25-.41.41-.1.16-.15.34-.15.53s.05.37.15.52Z"/><path d="M7.15,36.84h.67c-.24-.11-.42-.26-.54-.45-.12-.18-.18-.4-.18-.63,0-.26.07-.48.2-.67.14-.19.33-.32.59-.41-.26-.11-.45-.27-.59-.46-.14-.2-.2-.43-.2-.7,0-.38.12-.67.37-.88.25-.21.61-.31,1.07-.31h2.25v.7h-2.16c-.29,0-.52.07-.69.2-.17.13-.25.31-.25.54,0,.12.02.22.07.32.05.1.11.18.2.26.09.07.19.13.32.16.12.04.26.06.4.06h2.11v.7h-2.16c-.14,0-.27.02-.38.06-.12.04-.22.09-.3.15-.08.06-.14.14-.19.23-.04.09-.07.2-.07.31s.02.22.07.32c.05.1.12.18.21.25.09.07.2.12.32.17.12.04.26.06.41.06h2.09v.7h-3.64v-.68Z"/><path d="M7.15,30.65h.67c-.24-.11-.42-.26-.54-.45-.12-.18-.18-.4-.18-.63,0-.26.07-.48.2-.67.14-.19.33-.32.59-.41-.26-.11-.45-.27-.59-.46-.14-.2-.2-.43-.2-.7,0-.38.12-.67.37-.88.25-.21.61-.31,1.07-.31h2.25v.7h-2.16c-.29,0-.52.07-.69.2-.17.13-.25.31-.25.54,0,.12.02.22.07.32.05.1.11.18.2.26.09.07.19.13.32.16.12.04.26.06.4.06h2.11v.7h-2.16c-.14,0-.27.02-.38.06-.12.04-.22.09-.3.15-.08.06-.14.14-.19.23-.04.09-.07.2-.07.31s.02.22.07.32c.05.1.12.18.21.25.09.07.2.12.32.17.12.04.26.06.41.06h2.09v.7h-3.64v-.68Z"/></g><line y2="19.67" x2="114.1" y1="19.67" x1="29.87" class="cls-2"/><rect height="1.95" width=".3" y="18.69" x="29.72" class="cls-4"/><rect height="1.95" width=".3" y="18.69" x="113.95" class="cls-4"/><line y2="39.32" x2="15.55" y1="33.99" x1="15.55" class="cls-2"/><rect height=".3" width="1.95" y="33.84" x="14.57" class="cls-4"/><rect height=".3" width="1.95" y="39.17" x="14.57" class="cls-4"/><line y2="279.09" x2="15.55" y1="82.15" x1="15.55" class="cls-2"/><rect height=".3" width="1.95" y="81.99" x="14.57" class="cls-4"/><rect height=".3" width="1.95" y="278.93" x="14.57" class="cls-4"/><rect height="5.64" width="84.53" y="33.84" x="29.72" class="cls-3"/><rect height="197.24" width="5.64" y="81.99" x="156.77" class="cls-3"/><path d="M108.62,279.24H35.36c-3.11,0-5.63-2.52-5.63-5.64V87.63c0-3.11,2.52-5.64,5.63-5.64h73.26c3.11,0,5.63,2.52,5.63,5.64v185.97c0,3.11-2.52,5.64-5.63,5.64" class="cls-3"/><path d="M107.79,85.72H36.18c-1.56,0-2.82,1.26-2.82,2.82v184.16c0,1.56,1.26,2.82,2.82,2.82h71.61c1.56,0,2.82-1.26,2.82-2.82V88.54c0-1.56-1.26-2.82-2.82-2.82M107.79,88.54h0v184.16H36.18V88.54h71.61Z" class="cls-3"/><path d="M55.11,129.19c1.53,0,2.98.39,4.24,1.08l-5.08,7.21c-.22.31-.25.72-.07,1.06.18.34.53.55.91.55h8.82c-.51,4.41-4.27,7.85-8.82,7.85-4.9,0-8.88-3.98-8.88-8.87s3.98-8.88,8.88-8.88M64.97,125.84l3.34,11.2h-2.33c-.27-2.9-1.68-5.48-3.78-7.27l2.77-3.93ZM82.66,123.35l-12.49,12.76-3.47-11.62,15.95-1.13ZM63.92,137.04h-6.84l3.94-5.59c1.58,1.41,2.65,3.38,2.9,5.59M88.87,129.19c4.9,0,8.88,3.98,8.88,8.88s-3.98,8.87-8.88,8.87-8.87-3.98-8.87-8.87c0-3.51,2.05-6.55,5.02-7.99l2.85,8.32c.15.43.54.69.97.69.11,0,.22-.02.33-.06.54-.18.82-.77.64-1.3l-2.86-8.33c.62-.14,1.26-.21,1.92-.21M55.11,148.99c5.68,0,10.36-4.35,10.88-9.9h3.72s.08,0,.11,0h.03c.05-.01.09-.02.13-.03h0s0,0,0,0c.02,0,.04,0,.05-.02s.03-.01.05-.02c0,0,.02,0,.03-.01.09-.04.17-.09.24-.15h0s.05-.05.07-.07h0s13.01-13.29,13.01-13.29l.9,2.63c-3.77,1.73-6.4,5.53-6.4,9.94,0,6.02,4.9,10.92,10.92,10.92s10.92-4.9,10.92-10.92-4.9-10.92-10.92-10.92c-.89,0-1.76.11-2.59.31l-1.39-4.05c0-.05-.02-.1-.04-.16l-.45-1.31c-.02-.06-.05-.11-.07-.16l-1.87-5.44c-.14-.41-.53-.69-.97-.69h-3.14c-.57,0-1.03.46-1.03,1.02s.46,1.02,1.03,1.02h2.41l1.25,3.64-15.9,1.13-.87-2.94h1.65c.56,0,1.02-.46,1.02-1.02s-.46-1.02-1.02-1.02h-6.05c-.57,0-1.02.46-1.02,1.02s.46,1.02,1.02,1.02h2.26l1.13,3.81-3.7,5.25c-1.6-.92-3.45-1.44-5.42-1.44-6.02,0-10.92,4.9-10.92,10.92s4.9,10.92,10.92,10.92" class="cls-4"/><path d="M59.88,181.98c-.57-.57-1.49-.57-2.06,0l-14.8,14.8c-.66.66-.86,1.65-.5,2.51.51,1.24,1.96,1.79,3.16,1.2l6.91-3.4v22.8c0,6.22,5.04,11.27,11.27,11.27h1.25v-34.07l6.91,3.4c1.2.59,2.65.04,3.16-1.2.35-.86.15-1.85-.51-2.51l-14.8-14.8Z" class="cls-4"/><path d="M90.36,219.09h-1.25v33.91h12.53v-22.64c0-6.23-5.05-11.27-11.27-11.27" class="cls-4"/><rect height="12.06" width="2.72" y="219.09" x="66.85" class="cls-4"/><rect height="12.06" width="2.72" y="219.09" x="71.3" class="cls-4"/><rect height="12.06" width="2.72" y="219.09" x="75.75" class="cls-4"/><rect height="12.06" width="2.72" y="219.09" x="80.2" class="cls-4"/><rect height="12.06" width="2.72" y="219.09" x="84.65" class="cls-4"/><rect height="20.21" width="1.13" y="197.28" x="90.33" class="cls-4"/><rect height="20.21" width="1.13" y="232.61" x="62.7" class="cls-4"/></g></g></g></svg>