<svg viewBox="0 0 531.27 288" xmlns:xlink="http://www.w3.org/1999/xlink" xmlns="http://www.w3.org/2000/svg" id="Camada_2"><defs><style>.cls-1,.cls-2{fill:none;}.cls-3{fill:#12100c;}.cls-2{stroke:#12100c;stroke-linecap:round;stroke-linejoin:round;stroke-width:.3px;}</style><symbol viewBox="0 0 531.27 288" id="fundo_transparente"><rect height="288" width="531.27" x="0" class="cls-1"/></symbol></defs><g id="RePlastic"><g id="suporte_de_pranchas_de_surf_Green_Bay"><use xlink:href="#fundo_transparente" height="288" width="531.27"/><g id="MTEXT"><path d="M4.6,158.47h5.29v.72h-4.54l.64,1.3h-.73l-.67-1.36v-.67Z"/><path d="M4.6,154.53h.65v1.92l1.54.25c-.09-.1-.16-.22-.21-.36-.05-.14-.07-.29-.07-.46,0-.25.04-.47.13-.68.08-.21.2-.38.35-.53.15-.15.33-.27.54-.35.21-.08.44-.12.69-.12s.48.04.7.13c.21.09.4.21.55.36.15.16.27.34.36.56.08.21.13.45.13.71,0,.2-.03.39-.08.58s-.13.35-.23.5c-.1.15-.22.28-.36.39-.14.11-.3.19-.48.24l-.31-.63c.24-.07.43-.19.56-.39.14-.19.21-.42.21-.67,0-.15-.03-.29-.08-.41-.05-.13-.12-.23-.21-.33-.09-.09-.2-.16-.33-.21-.13-.05-.27-.08-.43-.08s-.3.03-.44.08c-.13.05-.25.13-.34.22s-.17.21-.22.34c-.05.13-.08.28-.08.44,0,.18.04.35.1.49.07.14.17.26.31.36l-.15.62-2.79-.47v-2.52Z"/><path d="M4.74,150.79c.13-.25.32-.47.55-.65.23-.18.52-.32.85-.42.33-.1.69-.15,1.08-.15s.76.05,1.1.15.62.24.86.42c.24.18.43.4.56.65.13.25.2.52.2.83s-.07.57-.2.82-.32.47-.56.65c-.24.18-.53.32-.86.42-.33.1-.7.15-1.1.15s-.75-.05-1.08-.15c-.33-.1-.61-.24-.85-.42-.24-.18-.42-.4-.55-.65-.13-.25-.2-.53-.2-.83s.07-.58.2-.83ZM5.37,152.14c.1.16.23.29.41.41.18.11.38.2.63.27.24.07.51.1.81.1s.57-.03.82-.09c.25-.06.46-.15.64-.27.18-.12.32-.25.42-.41.1-.16.15-.33.15-.52s-.05-.37-.15-.53c-.1-.16-.24-.3-.42-.41-.18-.11-.39-.2-.64-.27-.25-.06-.52-.09-.82-.09s-.56.03-.81.09c-.25.06-.46.15-.63.26-.17.11-.31.25-.41.41-.1.16-.15.34-.15.53s.05.37.15.52Z"/><path d="M4.74,146.15c.13-.25.32-.47.55-.65.23-.18.52-.32.85-.42.33-.1.69-.15,1.08-.15s.76.05,1.1.15.62.24.86.42c.24.18.43.4.56.65.13.25.2.52.2.83s-.07.57-.2.82-.32.47-.56.65c-.24.18-.53.32-.86.42-.33.1-.7.15-1.1.15s-.75-.05-1.08-.15c-.33-.1-.61-.24-.85-.42-.24-.18-.42-.4-.55-.65-.13-.25-.2-.53-.2-.83s.07-.58.2-.83ZM5.37,147.5c.1.16.23.29.41.41.18.11.38.2.63.27.24.07.51.1.81.1s.57-.03.82-.09c.25-.06.46-.15.64-.27.18-.12.32-.25.42-.41.1-.16.15-.33.15-.52s-.05-.37-.15-.53c-.1-.16-.24-.3-.42-.41-.18-.11-.39-.2-.64-.27-.25-.06-.52-.09-.82-.09s-.56.03-.81.09c-.25.06-.46.15-.63.26-.17.11-.31.25-.41.41-.1.16-.15.34-.15.53s.05.37.15.52Z"/><path d="M6.24,141.32h.67c-.24-.11-.42-.26-.54-.45-.12-.18-.18-.4-.18-.63,0-.26.07-.48.2-.67.14-.19.33-.32.59-.41-.26-.11-.45-.27-.59-.46-.14-.2-.2-.43-.2-.7,0-.38.12-.67.37-.88.25-.21.61-.31,1.07-.31h2.25v.7h-2.16c-.29,0-.52.07-.69.2-.17.13-.25.31-.25.54,0,.12.02.22.07.32.05.1.11.18.2.26.09.07.19.13.32.16.12.04.26.06.4.06h2.11v.7h-2.16c-.14,0-.27.02-.38.06-.12.04-.22.09-.3.15-.08.06-.14.14-.19.23-.04.09-.07.2-.07.31s.02.22.07.32c.05.1.12.18.21.25.09.07.2.12.32.17.12.04.26.06.41.06h2.09v.7h-3.64v-.68Z"/><path d="M6.24,135.14h.67c-.24-.11-.42-.26-.54-.45-.12-.18-.18-.4-.18-.63,0-.26.07-.48.2-.67.14-.19.33-.32.59-.41-.26-.11-.45-.27-.59-.46-.14-.2-.2-.43-.2-.7,0-.38.12-.67.37-.88.25-.21.61-.31,1.07-.31h2.25v.7h-2.16c-.29,0-.52.07-.69.2-.17.13-.25.31-.25.54,0,.12.02.22.07.32.05.1.11.18.2.26.09.07.19.13.32.16.12.04.26.06.4.06h2.11v.7h-2.16c-.14,0-.27.02-.38.06-.12.04-.22.09-.3.15-.08.06-.14.14-.19.23-.04.09-.07.2-.07.31s.02.22.07.32c.05.1.12.18.21.25.09.07.2.12.32.17.12.04.26.06.41.06h2.09v.7h-3.64v-.68Z"/></g><line y2="6.57" x2="14.64" y1="284.66" x1="14.64" class="cls-2"/><rect height=".3" width="1.95" y="284.51" x="13.67" class="cls-3"/><rect height=".3" width="1.95" y="6.42" x="13.67" class="cls-3"/><g id="MTEXT-2"><path d="M367.11,186.34v.65h-1.92l-.25,1.54c.1-.09.22-.16.36-.21.14-.05.29-.07.46-.07.25,0,.47.04.68.13.21.08.38.2.53.35.15.15.27.33.35.54.08.21.12.44.12.69s-.04.48-.13.7c-.09.21-.21.4-.36.55-.16.15-.34.27-.56.36-.21.08-.45.13-.71.13-.2,0-.39-.03-.58-.08s-.35-.13-.5-.23c-.15-.1-.28-.22-.39-.36-.11-.14-.19-.3-.24-.48l.63-.31c.07.24.19.43.39.56.19.14.42.21.67.21.15,0,.29-.03.41-.08.13-.05.23-.12.33-.21.09-.09.16-.2.21-.33.05-.13.08-.27.08-.43s-.03-.3-.08-.44c-.05-.13-.13-.25-.22-.34s-.21-.17-.34-.22c-.13-.05-.28-.08-.44-.08-.18,0-.35.04-.49.1-.14.07-.26.17-.36.31l-.62-.15.47-2.79h2.52Z"/><path d="M370.52,186.47c.24.12.44.29.61.51.17.22.3.5.39.82.09.32.14.69.14,1.09s-.05.8-.15,1.15c-.1.35-.24.64-.43.89s-.41.43-.67.56c-.26.13-.55.2-.88.2-.37,0-.7-.09-.97-.27-.27-.18-.47-.43-.59-.76l.64-.29c.07.21.18.37.34.48.16.11.35.17.56.17.2,0,.38-.05.55-.14.17-.09.31-.23.44-.4.13-.17.22-.37.29-.61.07-.24.1-.49.1-.77v-.17c0-.06,0-.1,0-.15-.08.25-.23.45-.45.59-.22.14-.48.21-.79.21-.24,0-.46-.04-.65-.12-.2-.08-.36-.19-.5-.34-.14-.14-.25-.32-.33-.52-.08-.2-.12-.42-.12-.66s.04-.47.13-.68c.08-.21.2-.38.35-.52.15-.14.32-.26.53-.34.21-.08.43-.12.68-.12.3,0,.57.06.81.18ZM369.35,187.04c-.12.05-.22.12-.3.21-.08.09-.15.19-.2.31-.05.12-.07.26-.07.41s.02.29.07.41c.05.12.12.23.2.32.09.09.19.16.31.21.12.05.25.07.4.07s.27-.02.39-.07c.12-.05.22-.12.31-.2.09-.09.15-.19.2-.31.05-.12.07-.25.07-.4s-.03-.28-.08-.41c-.05-.13-.13-.24-.21-.34-.09-.1-.2-.17-.32-.22s-.26-.08-.4-.08-.26.03-.38.08Z"/><path d="M375.09,186.49c.25.13.47.32.65.55.18.23.32.52.42.85.1.33.15.69.15,1.08s-.05.76-.15,1.1-.24.62-.42.86c-.18.24-.4.43-.65.56-.25.13-.52.2-.83.2s-.57-.07-.82-.2-.47-.32-.65-.56c-.18-.24-.32-.53-.42-.86-.1-.33-.15-.7-.15-1.1s.05-.75.15-1.08c.1-.33.24-.61.42-.85.18-.24.4-.42.65-.55.25-.13.53-.2.83-.2s.58.07.83.2ZM373.73,187.12c-.16.1-.29.23-.41.41-.11.18-.2.38-.27.63-.07.24-.1.51-.1.81s.03.57.09.82c.06.25.15.46.27.64.12.18.25.32.41.42.16.1.33.15.52.15s.37-.05.53-.15c.16-.1.3-.24.41-.42.11-.18.2-.39.27-.64.06-.25.09-.52.09-.82s-.03-.56-.09-.81c-.06-.25-.15-.46-.26-.63-.11-.17-.25-.31-.41-.41-.16-.1-.34-.15-.53-.15s-.37.05-.52.15Z"/><path d="M379.91,187.99v.67c.11-.24.26-.42.45-.54.18-.12.4-.18.63-.18.26,0,.48.07.67.2.19.14.32.33.41.59.11-.26.27-.45.46-.59.2-.14.43-.2.7-.2.38,0,.67.12.88.37.21.25.31.61.31,1.07v2.25h-.7v-2.16c0-.29-.07-.52-.2-.69-.13-.17-.31-.25-.54-.25-.12,0-.22.02-.32.07-.1.05-.18.11-.26.2-.07.09-.13.19-.16.32-.04.12-.06.26-.06.4v2.11h-.7v-2.16c0-.14-.02-.27-.06-.38-.04-.12-.09-.22-.15-.3-.06-.08-.14-.14-.23-.19-.09-.04-.2-.07-.31-.07s-.22.02-.32.07c-.1.05-.18.12-.25.21-.07.09-.12.2-.17.32-.04.12-.06.26-.06.41v2.09h-.7v-3.64h.68Z"/><path d="M386.1,187.99v.67c.11-.24.26-.42.45-.54.18-.12.4-.18.63-.18.26,0,.48.07.67.2.19.14.32.33.41.59.11-.26.27-.45.46-.59.2-.14.43-.2.7-.2.38,0,.67.12.88.37.21.25.31.61.31,1.07v2.25h-.7v-2.16c0-.29-.07-.52-.2-.69-.13-.17-.31-.25-.54-.25-.12,0-.22.02-.32.07-.1.05-.18.11-.26.2-.07.09-.13.19-.16.32-.04.12-.06.26-.06.4v2.11h-.7v-2.16c0-.14-.02-.27-.06-.38-.04-.12-.09-.22-.15-.3-.06-.08-.14-.14-.23-.19-.09-.04-.2-.07-.31-.07s-.22.02-.32.07c-.1.05-.18.12-.25.21-.07.09-.12.2-.17.32-.04.12-.06.26-.06.41v2.09h-.7v-3.64h.68Z"/></g><line y2="196.39" x2="432" y1="196.39" x1="322.8" class="cls-2"/><rect height="1.95" width=".3" y="195.41" x="322.65" class="cls-3"/><rect height="1.95" width=".3" y="195.41" x="431.85" class="cls-3"/><g id="MTEXT-3"><path d="M298.45,258.42h5.29v.73h-4.36s.08.04.1.06c.03.02.06.04.09.07l2.02,1.35s.06.04.08.05.05.03.08.06v-3.2h.64v3.98h-.59l-3.35-2.22v-.87Z"/><path d="M298.59,254.24c.13-.25.32-.47.55-.65.23-.18.52-.32.85-.42.33-.1.69-.15,1.08-.15s.76.05,1.1.15.62.24.86.42c.24.18.43.4.56.65.13.25.2.52.2.83s-.07.57-.2.82-.32.47-.56.65c-.24.18-.53.32-.86.42-.33.1-.7.15-1.1.15s-.75-.05-1.08-.15c-.33-.1-.61-.24-.85-.42-.24-.18-.42-.4-.55-.65-.13-.25-.2-.53-.2-.83s.07-.58.2-.83ZM299.22,255.59c.1.16.23.29.41.41.18.11.38.2.63.27.24.07.51.1.81.1s.57-.03.82-.09c.25-.06.46-.15.64-.27.18-.12.32-.25.42-.41.1-.16.15-.33.15-.52s-.05-.37-.15-.53c-.1-.16-.24-.3-.42-.41-.18-.11-.39-.2-.64-.27-.25-.06-.52-.09-.82-.09s-.56.03-.81.09c-.25.06-.46.15-.63.26-.17.11-.31.25-.41.41-.1.16-.15.34-.15.53s.05.37.15.52Z"/><path d="M298.59,249.6c.13-.25.32-.47.55-.65.23-.18.52-.32.85-.42.33-.1.69-.15,1.08-.15s.76.05,1.1.15.62.24.86.42c.24.18.43.4.56.65.13.25.2.52.2.83s-.07.57-.2.82-.32.47-.56.65c-.24.18-.53.32-.86.42-.33.1-.7.15-1.1.15s-.75-.05-1.08-.15c-.33-.1-.61-.24-.85-.42-.24-.18-.42-.4-.55-.65-.13-.25-.2-.53-.2-.83s.07-.58.2-.83ZM299.22,250.96c.1.16.23.29.41.41.18.11.38.2.63.27.24.07.51.1.81.1s.57-.03.82-.09c.25-.06.46-.15.64-.27.18-.12.32-.25.42-.41.1-.16.15-.33.15-.52s-.05-.37-.15-.53c-.1-.16-.24-.3-.42-.41-.18-.11-.39-.2-.64-.27-.25-.06-.52-.09-.82-.09s-.56.03-.81.09c-.25.06-.46.15-.63.26-.17.11-.31.25-.41.41-.1.16-.15.34-.15.53s.05.37.15.52Z"/><path d="M300.09,244.78h.67c-.24-.11-.42-.26-.54-.45-.12-.18-.18-.4-.18-.63,0-.26.07-.48.2-.67.14-.19.33-.32.59-.41-.26-.11-.45-.27-.59-.46-.14-.2-.2-.43-.2-.7,0-.38.12-.67.37-.88.25-.21.61-.31,1.07-.31h2.25v.7h-2.16c-.29,0-.52.07-.69.2-.17.13-.25.31-.25.54,0,.12.02.22.07.32.05.1.11.18.2.26.09.07.19.13.32.16.12.04.26.06.4.06h2.11v.7h-2.16c-.14,0-.27.02-.38.06-.12.04-.22.09-.3.15-.08.06-.14.14-.19.23-.04.09-.07.2-.07.31s.02.22.07.32c.05.1.12.18.21.25.09.07.2.12.32.17.12.04.26.06.41.06h2.09v.7h-3.64v-.68Z"/><path d="M300.09,238.59h.67c-.24-.11-.42-.26-.54-.45-.12-.18-.18-.4-.18-.63,0-.26.07-.48.2-.67.14-.19.33-.32.59-.41-.26-.11-.45-.27-.59-.46-.14-.2-.2-.43-.2-.7,0-.38.12-.67.37-.88.25-.21.61-.31,1.07-.31h2.25v.7h-2.16c-.29,0-.52.07-.69.2-.17.13-.25.31-.25.54,0,.12.02.22.07.32.05.1.11.18.2.26.09.07.19.13.32.16.12.04.26.06.4.06h2.11v.7h-2.16c-.14,0-.27.02-.38.06-.12.04-.22.09-.3.15-.08.06-.14.14-.19.23-.04.09-.07.2-.07.31s.02.22.07.32c.05.1.12.18.21.25.09.07.2.12.32.17.12.04.26.06.41.06h2.09v.7h-3.64v-.68Z"/></g><line y2="210.72" x2="308.49" y1="284.65" x1="308.49" class="cls-2"/><rect height=".3" width="1.95" y="284.5" x="307.52" class="cls-3"/><rect height=".3" width="1.95" y="210.57" x="307.52" class="cls-3"/><path d="M370.85,266.08q0-.07.07-.07t.07.07v2.1h14.73v16.63h-16.7v-16.63h1.83v-2.1Z" class="cls-2"/><path d="M370.99,265.95q-.07,0-.07.07t-.07-.07h-1.83v-17.15h14.8v-2.1q0-.07.07-.07.07,0,.07.07v2.1h1.77v17.15h-14.73Z" class="cls-2"/><path d="M370.85,227.52s0-.07.07-.07.07.07.07.07v1.96s0,.07-.07.07-.07-.07-.07-.07v-1.96Z" class="cls-2"/><path d="M370.99,227.39q-.07,0-.07.07t-.07-.07h-1.83v-16.83h16.7v16.83h-14.73Z" class="cls-2"/><path d="M370.85,229.62q.07,0,.07-.07t.07.07h14.73v16.96h-1.77q-.07,0-.07.07,0-.07-.07-.07h-14.8v-16.96h1.83Z" class="cls-2"/><path d="M370.85,229.48s0,.07.07.07q0,.07-.07.07h-48.12c-.07,0-.07-.07-.07-.13v-1.96c0-.07,0-.13.07-.13h48.12q.07,0,.07.07c-.07,0-.07.07-.07.07v1.96Z" class="cls-2"/><path d="M370.99,227.52v1.96s0,.07-.07.07-.07-.07-.07-.07v-1.96s0-.07.07-.07.07.07.07.07Z" class="cls-2"/><path d="M432.14,227.52v1.96c0,.07,0,.13-.07.13h-61.09q-.07,0-.07-.07c.07,0,.07-.07.07-.07v-1.96s0-.07-.07-.07q0-.07.07-.07h61.09c.07,0,.07.07.07.13Z" class="cls-2"/><path d="M370.99,227.52v1.96s0,.07-.07.07-.07-.07-.07-.07v-1.96s0-.07.07-.07.07.07.07.07Z" class="cls-2"/><path d="M370.85,268.11s0,.07.07.07h-48.19q-.07,0-.07-.07v-2.03c0-.07,0-.13.07-.13h48.12q.07,0,.07.07t-.07.07v2.03Z" class="cls-2"/><path d="M370.99,266.08v2.1h-.13v-2.1q0-.07.07-.07t.07.07Z" class="cls-2"/><path d="M432.14,266.08v2.03q0,.07-.07.07h-61.09v-2.1q0-.07-.07-.07t.07-.07h61.09c.07,0,.07.07.07.13Z" class="cls-2"/><path d="M370.99,266.08v2.1h-.13v-2.1q0-.07.07-.07t.07.07Z" class="cls-2"/><path d="M432.14,246.7v2.03s0,.07-.07.07h-48.12v-2.1q0-.07-.07-.07t.07-.07h48.12c.07,0,.07.07.07.13Z" class="cls-2"/><path d="M383.95,246.7v2.1s0-.07-.07,0c-.07-.07-.07,0-.07,0v-2.1q0-.07.07-.07t.07.07Z" class="cls-2"/><path d="M383.82,248.73l.07.07h-61.15c-.07,0-.07-.07-.07-.07v-2.03c0-.07,0-.13.07-.13h61.09q.07,0,.07.07t-.07.07v2.03Z" class="cls-2"/><path d="M383.95,246.7v2.1s0-.07-.07,0c-.07-.07-.07,0-.07,0v-2.1q0-.07.07-.07t.07.07Z" class="cls-2"/><rect height="278.39" width="16.76" y="6.42" x="180.83" class="cls-2"/><rect height="278.39" width="16.76" y="6.42" x="199.99" class="cls-2"/><rect height="278.39" width="16.76" y="6.42" x="219.15" class="cls-2"/><rect height="278.39" width="16.76" y="6.42" x="238.31" class="cls-2"/><polygon points="216.78 43.49 219.14 43.49 219.15 46.88 216.78 46.87 216.78 43.49" class="cls-2"/><polygon points="197.61 43.49 199.99 43.49 200 45.33 197.6 45.32 197.61 43.49" class="cls-2"/><polygon points="235.99 43.49 238.27 43.49 238.27 45.33 235.99 45.32 235.99 43.49" class="cls-2"/><polygon points="216.77 90.4 219.15 90.4 219.16 92.24 216.77 92.24 216.77 90.4" class="cls-2"/><polygon points="197.62 90.4 199.98 90.41 199.98 93.79 197.62 93.79 197.62 90.4" class="cls-2"/><polygon points="235.95 90.4 238.31 90.41 238.32 93.79 235.95 93.79 235.95 90.4" class="cls-2"/><polygon points="235.99 74.98 238.27 74.98 238.27 76.82 235.99 76.82 235.99 74.98" class="cls-2"/><line y2="77.55" x2="238.31" y1="77.55" x1="235.92" class="cls-2"/><polygon points="197.61 74.98 199.99 74.98 200 76.82 197.6 76.82 197.61 74.98" class="cls-2"/><line y2="77.55" x2="199.82" y1="77.55" x1="197.62" class="cls-2"/><line y2="62.08" x2="28.81" y1="91.83" x1="28.81" class="cls-2"/><polyline points="28.81 62.08 28.94 61.56 29.14 61.03 29.53 60.64 30.06 60.38 30.71 60.24" class="cls-2"/><line y2="60.24" x2="75.22" y1="60.24" x1="30.71" class="cls-2"/><line y2="93.67" x2="30.71" y1="93.67" x1="75.22" class="cls-2"/><line y2="76.96" x2="91.91" y1="76.96" x1="136.48" class="cls-2"/><polyline points="138.31 75.12 138.25 75.65 137.99 76.1 137.66 76.5 137.07 76.83 136.48 76.96" class="cls-2"/><line y2="75.12" x2="138.31" y1="45.37" x1="138.31" class="cls-2"/><polyline points="136.48 43.53 137 43.6 137.46 43.8 137.86 44.19 138.18 44.71 138.31 45.37" class="cls-2"/><line y2="43.53" x2="136.48" y1="43.53" x1="91.91" class="cls-2"/><polyline points="30.71 93.67 30.12 93.6 29.66 93.34 29.27 93.01 28.94 92.42 28.81 91.83" class="cls-2"/><line y2="62.08" x2="28.81" y1="45.37" x1="28.81" class="cls-2"/><line y2="43.53" x2="30.71" y1="43.53" x1="75.22" class="cls-2"/><polyline points="30.71 43.53 30.12 43.6 29.66 43.8 29.27 44.19 28.94 44.71 28.81 45.37" class="cls-2"/><line y2="93.67" x2="136.48" y1="93.67" x1="91.91" class="cls-2"/><polyline points="136.48 93.67 137 93.6 137.46 93.34 137.86 93.01 138.18 92.42 138.31 91.83" class="cls-2"/><line y2="75.12" x2="138.31" y1="91.83" x1="138.31" class="cls-2"/><path d="M136.47,43.54h-44.65v33.46h44.65c1.05,0,1.83-.85,1.83-1.9v-29.73c0-.98-.78-1.83-1.83-1.83ZM30.66,60.24c-1.05,0-1.83.85-1.83,1.9v29.73c0,1.05.79,1.83,1.83,1.83h44.72v-33.46H30.66Z" class="cls-2"/><path d="M75.38,6.42v278.39h16.43V6.42h-16.43Z" class="cls-2"/><path d="M35.27,90.62h-1.33c-.31,0-.58-.2-.67-.5-.32-1.08-1.08-4.04-1.21-8.25h0c-.07-2.24.45-6.9,1.74-8.24.25-.26.52-.39.81-.39s.56.13.81.39c1.29,1.34,1.81,6,1.74,8.24-.14,4.2-.89,7.17-1.21,8.25-.09.29-.36.5-.67.5ZM32.34,81.87c.13,4.17.89,7.11,1.2,8.18.05.18.22.3.4.3h1.33c.18,0,.35-.12.4-.3.32-1.07,1.07-4,1.2-8.18.07-2.13-.44-6.77-1.66-8.04-.39-.4-.82-.4-1.21,0-1.22,1.26-1.73,5.9-1.66,8.04h0Z" class="cls-2"/><path d="M34.6,89.43c-.08,0-.14-.06-.14-.14v-14.72c0-.08.06-.14.14-.14s.14.06.14.14v14.72c0,.08-.06.14-.14.14Z" class="cls-2"/><path d="M40.99,90.62h-.56c-.13,0-.25-.09-.28-.21-.04.12-.15.21-.28.21h-.56c-.16,0-.29-.13-.3-.29l-.12-4.68s-.09.04-.15.04h-.4c-.16,0-.3-.13-.3-.3v-2.88c0-.79.64-1.44,1.44-1.44.06,0,.12.02.18.06.15.1.32.16.5.16s.35-.06.5-.16c.05-.04.11-.06.18-.06.79,0,1.44.64,1.44,1.44v2.88c0,.16-.13.3-.3.3h-.4c-.05,0-.1-.01-.15-.04l-.12,4.68c0,.16-.13.29-.3.29ZM40.14,85.86h0c.08,0,.14.06.14.14l.13,4.33s0,.02.02.02h.56s.02,0,.02-.02l.13-4.77v-2.76c0-.08.06-.14.14-.14.08,0,.14.06.14.13l.12,2.61s0,.02.02.02h.4s.02,0,.02-.02v-2.88c0-.64-.52-1.16-1.16-1.16,0,0,0,0-.01,0-.19.14-.42.21-.66.21s-.46-.07-.66-.21c0,0-.01,0-.01,0-.64,0-1.16.52-1.16,1.16v2.88s0,.02.02.02h.4s.02,0,.02-.02l.12-2.61c0-.07.06-.13.14-.13,0,0,0,0,0,0,.08,0,.14.06.14.14v2.76l.13,4.77s0,.02.02.02h.56s.02,0,.02-.02l.13-4.33c0-.08.06-.14.14-.14Z" class="cls-2"/><path d="M138.22,60.1c-1.39.06-2.78.07-4.17.07-.51,0-.94-.42-1.02-.9-.06-.34,0-.72.16-1.02.25-.43.32-.94.16-1.41-.05-.15-.14-.29-.21-.45-.2-.48-.17-1.06.09-1.52.17-.29.23-.61.2-.94,0-.35-.19-.61-.32-.93-.12-.33-.12-.69-.05-1.04.04-.17.12-.33.2-.48.16-.29.2-.62.16-.94-.02-.35-.23-.61-.34-.93-.05-.17-.07-.35-.07-.52,0-.04.03-.07.07-.07.44,0,.87,0,1.31,0,.84.01,3.07.05,3.93.06-.88.01-3.08.05-3.93.06-.44.01-.87,0-1.31,0l.07-.07c0,.16.02.33.07.48.05.15.13.3.2.45.15.32.18.68.13,1.03-.03.26-.17.49-.28.72-.16.37-.16.81-.04,1.19.05.15.14.29.21.46.07.16.11.34.12.51.03.34-.05.71-.22,1.01-.24.42-.27.96-.08,1.41.06.15.16.29.21.46.14.41.13.88-.05,1.28-.11.22-.23.44-.26.69v.12s-.02.12-.02.12c-.02.59.44,1.09,1.04,1.04,1.35,0,2.69,0,4.04.07h0Z" class="cls-2"/><path d="M134.95,56.91v-.22s1.4,0,1.4,0v.22s-1.4,0-1.4,0Z" class="cls-2"/><path d="M135.87,55.53c.27,0,.5.23.5.51s-.22.51-.5.51c-.27,0-.5-.23-.5-.51,0-.28.22-.51.5-.51ZM135.87,56.33c.16,0,.29-.13.29-.29s-.13-.29-.29-.29c-.16,0-.29.13-.29.29,0,.16.13.29.29.29Z" class="cls-2"/><path d="M135.87,54.47s.04,0,.05,0v.75c.15-.02.25-.13.25-.3,0-.12-.05-.21-.13-.25l.07-.19c.17.07.26.23.26.44,0,.31-.21.53-.5.53-.29,0-.5-.21-.5-.49,0-.28.21-.49.49-.49ZM135.75,54.72c-.11.03-.17.12-.17.24s.07.21.17.25v-.49Z" class="cls-2"/><path d="M135.39,54.11h.04s.04,0,.04-.03c0-.02,0-.04-.03-.06-.05-.05-.07-.11-.07-.19,0-.09.03-.16.09-.22.03-.02.04-.04.04-.07,0-.02,0-.04-.03-.06-.06-.06-.09-.14-.09-.23,0-.2.14-.31.38-.31h.6s0,.22,0,.22h-.57c-.14,0-.23.07-.23.17,0,.11.1.19.24.19h.55s0,.22,0,.22h-.57c-.14,0-.23.07-.23.17s.1.19.24.19h.55s0,.22,0,.22h-.96s0-.21,0-.21Z" class="cls-2"/><path d="M135.76,51.95h.59s0,.21,0,.21h-.06s-.05,0-.05.04c0,.02,0,.04.04.06.06.06.09.13.09.23,0,.18-.11.3-.27.3s-.28-.13-.31-.36l-.04-.26c-.11.01-.18.09-.18.23,0,.11.05.18.13.21l-.06.2c-.17-.05-.27-.21-.27-.41,0-.26.16-.44.38-.44ZM135.96,52.38c.02.13.06.19.13.19s.11-.06.11-.15c0-.15-.11-.24-.28-.25l.04.21Z" class="cls-2"/><path d="M134.95,57.02v.96h1.39v-.23h-.87c-.06,0-.09-.07-.05-.12l.37-.37-.15-.15-.37.37s-.12.01-.12-.05v-.41h-.21Z" class="cls-2"/><path d="M136.07,51.19c.16,0,.29.13.29.3s-.13.3-.29.3-.29-.13-.29-.3.13-.3.29-.3ZM136.07,51.73c.13,0,.23-.1.23-.24,0-.13-.1-.24-.23-.24s-.23.1-.23.24.1.24.23.24ZM136.1,51.43s0,.01.02.01c0,0,.01,0,.02,0l.09-.07v.07s-.12.09-.12.09h.12s0,.07,0,.07h-.31s0-.12,0-.12c0-.06.04-.11.09-.11.04,0,.07.02.08.06Z" class="cls-2"/></g></g></svg>