<svg viewBox="0 0 531.27 288" xmlns:xlink="http://www.w3.org/1999/xlink" xmlns="http://www.w3.org/2000/svg" id="Camada_2"><defs><style>.cls-1,.cls-2,.cls-3,.cls-4{fill:none;}.cls-5{fill:#12100c;}.cls-2{stroke:#000;}.cls-2,.cls-3,.cls-4{stroke-linecap:round;stroke-linejoin:round;stroke-width:.3px;}.cls-3{stroke:#12100c;}.cls-4{stroke:#877069;}</style><symbol viewBox="0 0 531.27 288" id="fundo_transparente"><rect height="288" width="531.27" x="0" class="cls-1"/></symbol></defs><g id="RePlastic"><g id="compostor_Terra_Mind_1"><use xlink:href="#fundo_transparente" height="288" width="531.27"/><g id="LINE"><line y2="205.79" x2="30.84" y1="205.79" x1="100.66" class="cls-2"/></g><g id="LINE-2"><path d="M26.59,209.61s.15-1.68.18-2.11v-.15c.06-.53.46-.96.99-1.05l2.97-.5.35-.13s.1-.07.15-.11.1-.1.14-.16c.02-.03.04-.07.06-.1s.04-.08.06-.13.03-.1.05-.24l.05-.59.36-4.13c.05-.61.56-1.07,1.17-1.07h65.15c.61,0,1.12.46,1.17,1.07l.36,4.13s.05.57.05.59c0,.06.02.11.05.24.02.05.03.09.05.13s.04.07.06.11c.04.06.09.12.14.16s.1.08.15.12l.35.13,2.97.5c.53.09.93.52.97,1.05,0,.05.2,2.26.2,2.26" class="cls-2"/></g><g id="LINE-3"><line y2="287.43" x2="37.38" y1="287.43" x1="98.38" class="cls-2"/></g><g id="LINE-4"><polyline points="22.63 209.68 37.38 209.68 37.4 209.68" class="cls-2"/><polyline points="110.66 209.68 106.06 209.68 98.39 209.68" class="cls-2"/><polyline points="95.25 209.68 69.39 209.68 68.84 209.68 67.24 209.68 66.69 209.68 40.55 209.68" class="cls-2"/></g><g id="LINE-5"><line y2="232.97" x2="37.38" y1="232.97" x1="97.86" class="cls-4"/></g><g id="LINE-6"><line y2="233.01" x2="37.38" y1="233.01" x1="97.86" class="cls-2"/></g><g id="LINE-7"><line y2="240.75" x2="37.38" y1="240.75" x1="97.86" class="cls-4"/></g><g id="LINE-8"><line y2="256.31" x2="37.38" y1="256.31" x1="97.86" class="cls-2"/></g><g id="LINE-9"><line y2="248.57" x2="37.38" y1="248.57" x1="97.86" class="cls-2"/></g><g id="LINE-10"><line y2="271.91" x2="37.38" y1="271.91" x1="97.86" class="cls-2"/></g><g id="LINE-11"><line y2="279.65" x2="37.38" y1="279.65" x1="97.86" class="cls-2"/></g><g id="LINE-12"><line y2="256.35" x2="37.38" y1="256.35" x1="97.86" class="cls-2"/></g><g id="LINE-13"><line y2="264.09" x2="37.38" y1="264.09" x1="97.86" class="cls-2"/></g><g id="LINE-14"><line y2="264.13" x2="37.38" y1="264.13" x1="97.86" class="cls-2"/></g><g id="LINE-15"><line y2="271.87" x2="37.38" y1="271.87" x1="97.86" class="cls-2"/></g><g id="LINE-16"><line y2="240.79" x2="37.38" y1="240.79" x1="97.86" class="cls-2"/></g><g id="LINE-17"><line y2="248.53" x2="37.38" y1="248.53" x1="97.86" class="cls-2"/></g><g id="LINE-18"><line y2="217.4" x2="37.38" y1="217.4" x1="37.4" class="cls-2"/><line y2="217.4" x2="41.37" y1="217.4" x1="93.91" class="cls-2"/></g><g id="LINE-19"><line y2="225.23" x2="37.38" y1="225.23" x1="97.86" class="cls-4"/></g><g id="LINE-20"><line y2="225.19" x2="37.38" y1="225.19" x1="97.86" class="cls-2"/></g><line y2="287.43" x2="110.05" y1="287.43" x1="110.68" class="cls-4"/><rect height="77.77" width="14.77" y="209.67" x="22.62" class="cls-2"/><rect height="77.75" width="14.75" y="209.68" x="97.91" class="cls-2"/><path d="M94.76,209.68c-.47,0-.85.36-.85.85v7.67c0,.47.39.85.85.85h3.14v-9.37h-3.14ZM95.07,214.94h1.71c.22,0,.39.17.39.39s-.17.39-.39.39h-1.71c-.22,0-.39-.17-.39-.39s.17-.39.39-.39Z" class="cls-2"/><path d="M97.16,215.33c0,.22-.17.39-.39.39h-1.71c-.22,0-.39-.17-.39-.39s.17-.39.39-.39h1.71c.22,0,.39.17.39.39Z" class="cls-2"/><path d="M97.16,215.33c0,.22-.17.39-.39.39h-1.71c-.22,0-.39-.17-.39-.39s.17-.39.39-.39h1.71c.22,0,.39.17.39.39Z" class="cls-2"/><path d="M40.55,209.68h-3.14v9.37h3.14c.5,0,.85-.39.85-.85v-7.67c0-.5-.36-.85-.85-.85ZM38.56,214.94h1.68c.22,0,.41.17.41.39s-.19.39-.41.39h-1.68c-.22,0-.39-.17-.39-.39s.17-.39.39-.39Z" class="cls-2"/><path d="M40.66,215.33c0,.22-.19.39-.41.39h-1.68c-.22,0-.39-.17-.39-.39s.17-.39.39-.39h1.68c.22,0,.41.17.41.39Z" class="cls-2"/><path d="M40.66,215.33c0,.22-.19.39-.41.39h-1.68c-.22,0-.39-.17-.39-.39s.17-.39.39-.39h1.68c.22,0,.41.17.41.39Z" class="cls-2"/><g id="LINE-21"><path d="M67.24,210.36v-.7s1.6,0,1.6,0q0,.26,0,.7" class="cls-2"/></g><g id="LINE-22"><line y2="210.39" x2="66.69" y1="209.7" x1="66.69" class="cls-2"/></g><g id="LINE-23"><line y2="209.7" x2="69.4" y1="210.39" x1="69.4" class="cls-2"/></g><rect height="2.73" width="2.71" y="210.36" x="66.69" class="cls-2"/><g id="LINE-24"><line y2="287.43" x2="202.62" y1="287.43" x1="203.24" class="cls-4"/></g><g id="LINE-25"><line y2="209.2" x2="148.36" y1="209.2" x1="148.36" class="cls-2"/></g><g id="LINE-26"><line y2="209.2" x2="148.36" y1="209.26" x1="148.36" class="cls-2"/></g><g id="LINE-27"><line y2="225.2" x2="217.33" y1="225.2" x1="156.37" class="cls-2"/></g><g id="LINE-28"><line y2="279.69" x2="217.33" y1="279.69" x1="156.37" class="cls-2"/></g><g id="LINE-29"><line y2="240.76" x2="217.33" y1="240.76" x1="156.37" class="cls-2"/></g><g id="LINE-30"><line y2="256.33" x2="217.33" y1="256.33" x1="156.37" class="cls-2"/></g><g id="LINE-31"><line y2="248.55" x2="217.33" y1="248.55" x1="156.37" class="cls-2"/></g><g id="LINE-32"><line y2="217.41" x2="217.33" y1="217.41" x1="156.37" class="cls-2"/></g><g id="LINE-33"><line y2="271.9" x2="217.33" y1="271.9" x1="156.37" class="cls-2"/></g><g id="LINE-34"><line y2="232.98" x2="217.33" y1="232.98" x1="156.37" class="cls-2"/></g><g id="LINE-35"><line y2="264.12" x2="217.33" y1="264.12" x1="156.37" class="cls-2"/></g><g id="LINE-36"><path d="M229.05,209.62v77.81h-84.41v-77.81" class="cls-2"/></g><g id="LINE-37"><path d="M148.32,209.62h80.39l-.17-1.91c-.01-.07-.02-.15-.04-.22-.03-.11-.08-.22-.14-.31-.04-.06-.09-.12-.14-.17s-.1-.1-.16-.14c-.07-.05-.15-.09-.23-.13-.04-.02-.09-.03-.13-.05s-.09-.02-.14-.03c0,0-2.18-.36-2.18-.36l-3.11-.51c-.12-.02-.24-.06-.35-.13-.06-.04-.11-.07-.16-.12s-.1-.1-.14-.16c-.02-.03-.04-.07-.06-.11s-.04-.08-.08-.2c-.01-.05-.02-.11-.03-.17l-.07-.76c-.04-.48-.43-.86-.91-.89.04,0-.09,0-.09,0-2.54-.17-61.37-4.14-61.37-4.14-.89-.06-1.74.39-2.19,1.17l-2.39,4.15-.15.26c-.03.05-.07.11-.1.16s-.07.1-.11.14c-.08.09-.16.18-.24.25s-.16.14-.24.19c-.09.06-.18.11-.27.16l-.3.13c-.14.05-.28.09-.43.11l-3.11.47c-.53.08-.94.52-.99,1.06,0,.04-.2,2.25-.2,2.25" class="cls-2"/></g><g id="LINE-38"><polyline points="148.52 207.37 148.52 207.39 148.52 207.41 148.52 207.41" class="cls-2"/></g><g id="ELLIPSE"><path d="M152.49,205.86c.47-.05.94-.06,1.41-.06h67.41c.35,0,.98.03,1.34.06" class="cls-2"/></g><g id="LINE-39"><line y2="287.43" x2="154.37" y1="209.63" x1="154.31" class="cls-2"/></g><g id="LINE-40"><path d="M154.37,287.43h1.21c.43,0,.78-.35.78-.78l.02-76.24c0-.43-.35-.78-.78-.78h-10.94" class="cls-2"/></g><g id="ARC"><path d="M148.17,207.23c-.41.36-.43,1.05-.13,1.52" class="cls-2"/></g><g id="CIRCLE"><circle r=".43" cy="209.18" cx="147.86" class="cls-2"/></g><g id="LINE-41"><path d="M148.4,207.25l-.23-.02-.02.23-.1,1.13s0,.08-.01.16l.23.02" class="cls-2"/></g><g id="LINE-42"><line y2="209.62" x2="229.05" y1="209.62" x1="219.02" class="cls-2"/></g><g id="LINE-43"><line y2="287.43" x2="219.32" y1="209.62" x1="219.41" class="cls-2"/></g><g id="LINE-44"><path d="M219.32,287.43h-1.21c-.43,0-.78-.35-.78-.78v-76.25c0-.43.35-.78.78-.78h1.21s9.73,0,9.73,0" class="cls-2"/></g><g id="LINE-45"><line y2="209.62" x2="229.05" y1="209.61" x1="229.05" class="cls-2"/></g><g id="LINE-46"><line y2="209.62" x2="154.68" y1="209.62" x1="144.64" class="cls-2"/></g><g id="LINE-47"><line y2="209.62" x2="144.64" y1="209.62" x1="144.66" class="cls-2"/></g><line y2="287.28" x2="11.39" y1="199.26" x1="11.39" class="cls-3"/><rect height=".3" width="1.95" y="199.11" x="10.42" class="cls-5"/><rect height=".3" width="1.95" y="287.13" x="10.42" class="cls-5"/><path d="M3.01,255.39h5.29v.72H3.76l.64,1.3h-.73l-.67-1.36v-.67Z"/><path d="M3.01,252.56h5.29v.72H3.76l.64,1.3h-.73l-.67-1.36v-.67Z"/><path d="M3.01,248.56h.55l.98.65c.06.04.1.07.15.1.04.03.08.06.13.09s.09.06.13.09.09.06.15.09c.02-.19.08-.37.18-.52s.21-.29.35-.41c.14-.12.3-.21.48-.27s.38-.09.59-.09c.24,0,.47.04.67.13.2.08.38.2.52.36.14.15.26.34.34.54s.12.44.12.69c0,.21-.03.4-.08.58-.05.18-.13.35-.23.49-.1.15-.22.28-.37.39-.14.11-.31.2-.49.26l-.31-.63c.24-.08.44-.22.58-.41.14-.19.21-.42.21-.67,0-.15-.02-.28-.07-.4-.05-.12-.11-.23-.2-.31-.09-.09-.19-.15-.31-.2-.12-.05-.26-.07-.41-.07s-.29.03-.42.08c-.13.06-.23.13-.32.22-.09.09-.16.21-.21.34-.05.13-.08.28-.08.44v.35l-.44.08-1.07-.72s-.09-.06-.12-.09c-.03-.03-.07-.05-.12-.08s-.08-.06-.12-.08c-.03-.03-.07-.06-.12-.09v2.18h-.65v-3.09Z"/><path d="M3.16,244.87c.13-.25.32-.47.55-.65.23-.18.52-.32.85-.42.33-.1.69-.15,1.08-.15s.76.05,1.1.15.62.24.86.42c.24.18.43.4.56.65.13.25.2.52.2.83s-.07.57-.2.82-.32.47-.56.65c-.24.18-.53.32-.86.42-.33.1-.7.15-1.1.15s-.75-.05-1.08-.15c-.33-.1-.61-.24-.85-.42-.24-.18-.42-.4-.55-.65-.13-.25-.2-.53-.2-.83s.07-.58.2-.83ZM3.79,246.23c.1.16.23.29.41.41.18.11.38.2.63.27.24.07.51.1.81.1s.57-.03.82-.09c.25-.06.46-.15.64-.27.18-.12.32-.25.42-.41.1-.16.15-.33.15-.52s-.05-.37-.15-.53c-.1-.16-.24-.3-.42-.41-.18-.11-.39-.2-.64-.27-.25-.06-.52-.09-.82-.09s-.56.03-.81.09c-.25.06-.46.15-.63.26-.17.11-.31.25-.41.41-.1.16-.15.34-.15.53s.05.37.15.52Z"/><path d="M4.66,240.04h.67c-.24-.11-.42-.26-.54-.45-.12-.18-.18-.4-.18-.63,0-.26.07-.48.2-.67.14-.19.33-.32.59-.41-.26-.11-.45-.27-.59-.46-.14-.2-.2-.43-.2-.7,0-.38.12-.67.37-.88.25-.21.61-.31,1.07-.31h2.25v.7h-2.16c-.29,0-.52.07-.69.2-.17.13-.25.31-.25.54,0,.12.02.22.07.32.05.1.11.18.2.26.09.07.19.13.32.16.12.04.26.06.4.06h2.11v.7h-2.16c-.14,0-.27.02-.38.06-.12.04-.22.09-.3.15-.08.06-.14.14-.19.23-.04.09-.07.2-.07.31s.02.22.07.32c.05.1.12.18.21.25.09.07.2.12.32.17.12.04.26.06.41.06h2.09v.7h-3.64v-.68Z"/><path d="M4.66,233.86h.67c-.24-.11-.42-.26-.54-.45-.12-.18-.18-.4-.18-.63,0-.26.07-.48.2-.67.14-.19.33-.32.59-.41-.26-.11-.45-.27-.59-.46-.14-.2-.2-.43-.2-.7,0-.38.12-.67.37-.88.25-.21.61-.31,1.07-.31h2.25v.7h-2.16c-.29,0-.52.07-.69.2-.17.13-.25.31-.25.54,0,.12.02.22.07.32.05.1.11.18.2.26.09.07.19.13.32.16.12.04.26.06.4.06h2.11v.7h-2.16c-.14,0-.27.02-.38.06-.12.04-.22.09-.3.15-.08.06-.14.14-.19.23-.04.09-.07.2-.07.31s.02.22.07.32c.05.1.12.18.21.25.09.07.2.12.32.17.12.04.26.06.41.06h2.09v.7h-3.64v-.68Z"/><line y2="181.19" x2="11.39" y1="97.33" x1="11.39" class="cls-3"/><rect height=".3" width="1.95" y="97.18" x="10.42" class="cls-5"/><rect height=".3" width="1.95" y="181.04" x="10.42" class="cls-5"/><path d="M3.01,152.33h5.29v.72H3.76l.64,1.3h-.73l-.67-1.36v-.67Z"/><path d="M3.16,148.62c.13-.25.32-.47.55-.65.23-.18.52-.32.85-.42.33-.1.69-.15,1.08-.15s.76.05,1.1.15.62.24.86.42c.24.18.43.4.56.65.13.25.2.52.2.83s-.07.57-.2.82-.32.47-.56.65c-.24.18-.53.32-.86.42-.33.1-.7.15-1.1.15s-.75-.05-1.08-.15c-.33-.1-.61-.24-.85-.42-.24-.18-.42-.4-.55-.65-.13-.25-.2-.53-.2-.83s.07-.58.2-.83ZM3.79,149.98c.1.16.23.29.41.41.18.11.38.2.63.27.24.07.51.1.81.1s.57-.03.82-.09c.25-.06.46-.15.64-.27.18-.12.32-.25.42-.41.1-.16.15-.33.15-.52s-.05-.37-.15-.53c-.1-.16-.24-.3-.42-.41-.18-.11-.39-.2-.64-.27-.25-.06-.52-.09-.82-.09s-.56.03-.81.09c-.25.06-.46.15-.63.26-.17.11-.31.25-.41.41-.1.16-.15.34-.15.53s.05.37.15.52Z"/><path d="M8.25,145.81c-.07.22-.17.4-.31.56-.13.15-.29.28-.47.36s-.38.13-.6.13c-.16,0-.31-.02-.45-.07-.15-.05-.28-.11-.4-.2-.12-.09-.22-.19-.3-.31s-.14-.25-.18-.4c-.05.14-.12.25-.2.36-.08.1-.17.19-.27.27s-.21.13-.33.17c-.12.04-.25.06-.38.06-.21,0-.39-.04-.56-.12-.17-.08-.32-.2-.44-.34-.13-.14-.22-.32-.29-.52-.07-.2-.1-.42-.1-.66s.03-.46.1-.66c.07-.2.17-.37.29-.52.12-.15.27-.26.44-.35.17-.08.36-.13.57-.13.13,0,.26.02.38.06.12.04.24.1.34.17.1.07.19.16.27.27.08.1.14.22.19.35.04-.15.1-.28.18-.4s.19-.22.31-.3c.12-.08.25-.15.4-.2.14-.05.29-.07.45-.07.21,0,.41.04.6.13.18.09.34.21.47.36.13.15.24.34.31.56.07.22.11.46.11.72s-.04.5-.11.72ZM3.69,145.45c.04.11.09.2.16.28.07.08.15.14.26.18s.21.07.33.07c.11,0,.22-.02.32-.07.1-.04.19-.11.26-.19.07-.08.13-.17.17-.28s.06-.23.06-.35-.02-.25-.06-.35c-.04-.1-.1-.2-.17-.28s-.16-.14-.26-.19c-.1-.04-.21-.07-.32-.07-.12,0-.23.02-.33.07-.1.04-.19.11-.26.19-.07.08-.12.17-.16.28-.04.11-.06.23-.06.36s.02.24.06.35ZM7.62,144.68c-.04-.13-.11-.23-.19-.32-.08-.09-.18-.16-.29-.21-.11-.05-.24-.08-.37-.08s-.26.03-.37.08c-.11.05-.21.12-.29.21-.08.09-.15.2-.2.33-.05.13-.07.26-.07.41s.02.28.07.41c.04.13.11.23.19.33s.18.16.3.21c.11.05.24.07.37.07.14,0,.27-.02.38-.07.11-.05.21-.12.29-.21.08-.09.14-.2.19-.33.04-.13.07-.26.07-.41s-.02-.29-.07-.41Z"/><path d="M3.16,139.9c.13-.25.32-.47.55-.65.23-.18.52-.32.85-.42.33-.1.69-.15,1.08-.15s.76.05,1.1.15.62.24.86.42c.24.18.43.4.56.65.13.25.2.52.2.83s-.07.57-.2.82-.32.47-.56.65c-.24.18-.53.32-.86.42-.33.1-.7.15-1.1.15s-.75-.05-1.08-.15c-.33-.1-.61-.24-.85-.42-.24-.18-.42-.4-.55-.65-.13-.25-.2-.53-.2-.83s.07-.58.2-.83ZM3.79,141.25c.1.16.23.29.41.41.18.11.38.2.63.27.24.07.51.1.81.1s.57-.03.82-.09c.25-.06.46-.15.64-.27.18-.12.32-.25.42-.41.1-.16.15-.33.15-.52s-.05-.37-.15-.53c-.1-.16-.24-.3-.42-.41-.18-.11-.39-.2-.64-.27-.25-.06-.52-.09-.82-.09s-.56.03-.81.09c-.25.06-.46.15-.63.26-.17.11-.31.25-.41.41-.1.16-.15.34-.15.53s.05.37.15.52Z"/><path d="M4.66,135.07h.67c-.24-.11-.42-.26-.54-.45-.12-.18-.18-.4-.18-.63,0-.26.07-.48.2-.67.14-.19.33-.32.59-.41-.26-.11-.45-.27-.59-.46-.14-.2-.2-.43-.2-.7,0-.38.12-.67.37-.88.25-.21.61-.31,1.07-.31h2.25v.7h-2.16c-.29,0-.52.07-.69.2-.17.13-.25.31-.25.54,0,.12.02.22.07.32.05.1.11.18.2.26.09.07.19.13.32.16.12.04.26.06.4.06h2.11v.7h-2.16c-.14,0-.27.02-.38.06-.12.04-.22.09-.3.15-.08.06-.14.14-.19.23-.04.09-.07.2-.07.31s.02.22.07.32c.05.1.12.18.21.25.09.07.2.12.32.17.12.04.26.06.41.06h2.09v.7h-3.64v-.68Z"/><path d="M4.66,128.89h.67c-.24-.11-.42-.26-.54-.45-.12-.18-.18-.4-.18-.63,0-.26.07-.48.2-.67.14-.19.33-.32.59-.41-.26-.11-.45-.27-.59-.46-.14-.2-.2-.43-.2-.7,0-.38.12-.67.37-.88.25-.21.61-.31,1.07-.31h2.25v.7h-2.16c-.29,0-.52.07-.69.2-.17.13-.25.31-.25.54,0,.12.02.22.07.32.05.1.11.18.2.26.09.07.19.13.32.16.12.04.26.06.4.06h2.11v.7h-2.16c-.14,0-.27.02-.38.06-.12.04-.22.09-.3.15-.08.06-.14.14-.19.23-.04.09-.07.2-.07.31s.02.22.07.32c.05.1.12.18.21.25.09.07.2.12.32.17.12.04.26.06.41.06h2.09v.7h-3.64v-.68Z"/><path d="M35.02,177.31v3.48c0,.3-.28.55-.55.55h-11.89c-.33,0-.58-.25-.58-.55v-7.75c0-.28.25-.52.58-.52h4.17v3.81c0,.52.41.97.97.97h1.41l5.9.03" class="cls-2"/><path d="M34.94,97.7v3.45h-7.23c-.55,0-.97.41-.97.94v3.89h-4.25c-.33,0-.58-.25-.58-.52v-7.75c0-.3.25-.55.58-.55h11.89c.28,0,.55.25.55.55Z" class="cls-2"/><path d="M102.55,177.28h1.41c.52,0,.97-.44.97-.97v-3.81h4.17c.33,0,.58.25.58.52v7.75c0,.3-.25.55-.58.55h-11.89c-.28,0-.55-.25-.55-.55v-3.48c1.68,0,5.9-.03,5.9-.03Z" class="cls-2"/><path d="M109.75,97.73v7.75c0,.28-.25.52-.58.52h-4.25v-3.89c0-.52-.44-.94-.97-.94h-7.23v-3.45c0-.3.28-.55.55-.55h11.89c.33,0,.58.25.58.55Z" class="cls-2"/><rect height=".33" width="7.81" y="100.68" x="88.11" class="cls-2"/><path d="M93.23,100.69c.17-.16.4-.25.64-.25s.47.09.64.25" class="cls-2"/><path d="M89.62,100.69c.17-.16.4-.25.64-.25s.47.09.64.25" class="cls-2"/><rect height=".64" width="5.24" y="100.05" x="89.45" class="cls-2"/><rect height=".33" width="7.81" y="100.68" x="35.76" class="cls-2"/><rect height=".64" width="5.24" y="100.05" x="37.04" class="cls-2"/><path d="M40.82,100.69c.17-.16.4-.25.64-.25s.47.09.64.25" class="cls-2"/><path d="M37.21,100.69c.17-.16.4-.25.64-.25s.47.09.64.25" class="cls-2"/><path d="M104.65,101.45c-.17-.17-.41-.28-.69-.28H27.71c-.55,0-.97.41-.97.94v74.2c0,.52.41.97.97.97h32.5c.66,0,1.19.5,1.19,1.13,0,.55.41.97.97.97h9.02c.52,0,.97-.41.97-.97,0-.63.52-1.13,1.19-1.13h30.43c.28,0,.52-.11.69-.28.17-.19.28-.44.28-.69v-74.2c0-.25-.11-.5-.28-.66ZM99.46,171.32c0,.69-.55,1.24-1.24,1.24H33.48c-.69,0-1.24-.55-1.24-1.24v-62.09c0-.69.55-1.24,1.24-1.24h64.74c.69,0,1.24.55,1.24,1.24v62.09Z" class="cls-2"/><line y2="85.15" x2="21.97" y1="85.15" x1="109.6" class="cls-3"/><rect height="1.95" width=".3" y="84.17" x="109.45" class="cls-5"/><rect height="1.95" width=".3" y="84.17" x="21.82" class="cls-5"/><path d="M53.97,76.77v5.29h-.72v-4.54l-1.3.64v-.73l1.36-.67h.67Z"/><path d="M56.8,76.77v5.29h-.72v-4.54l-1.3.64v-.73l1.36-.67h.67Z"/><path d="M59.98,76.83c.21.08.39.19.54.33.15.14.27.31.35.51s.13.42.13.67c0,.14-.02.28-.05.42-.03.14-.08.28-.15.41-.07.13-.16.27-.27.42s-.24.29-.39.45l-1.31,1.35h2.29v.67h-3.32v-.59l1.79-1.86c.12-.12.22-.23.3-.33.08-.11.15-.21.2-.3.05-.1.09-.19.11-.29s.03-.19.03-.29c0-.14-.02-.28-.07-.4s-.11-.23-.2-.32-.19-.16-.3-.21c-.11-.05-.24-.07-.39-.07-.25,0-.47.08-.65.23-.18.15-.31.36-.39.63l-.67-.23c.12-.42.32-.74.62-.97s.66-.34,1.1-.34c.25,0,.48.04.69.12Z"/><path d="M64.77,76.77v.65h-1.92l-.25,1.54c.1-.09.22-.16.36-.21.14-.05.29-.07.46-.07.25,0,.47.04.68.13.21.08.38.2.53.35.15.15.27.33.35.54.08.21.12.44.12.69s-.04.48-.13.7c-.09.21-.21.4-.36.55-.16.15-.34.27-.56.36-.21.08-.45.13-.71.13-.2,0-.39-.03-.58-.08-.18-.05-.35-.13-.5-.23-.15-.1-.28-.22-.39-.36s-.19-.3-.24-.48l.63-.31c.07.24.19.43.39.56.19.14.42.21.67.21.15,0,.29-.03.41-.08.13-.05.23-.12.33-.21s.16-.2.21-.33c.05-.13.08-.27.08-.43s-.03-.3-.08-.44c-.05-.13-.13-.25-.22-.34s-.21-.17-.34-.22c-.13-.05-.28-.08-.44-.08-.18,0-.35.04-.49.11-.14.07-.26.17-.36.31l-.62-.15.47-2.79h2.52Z"/><path d="M68.71,78.41v.67c.11-.24.26-.42.45-.54.18-.12.4-.18.63-.18.26,0,.48.07.67.2s.32.33.41.59c.11-.26.27-.45.46-.59s.43-.2.7-.2c.38,0,.67.12.88.38.21.25.31.61.31,1.07v2.25h-.7v-2.16c0-.29-.07-.52-.2-.69-.13-.17-.31-.25-.54-.25-.12,0-.22.02-.32.07s-.18.11-.26.2-.13.19-.16.32c-.04.12-.06.26-.06.4v2.11h-.7v-2.16c0-.14-.02-.27-.06-.38-.04-.12-.09-.22-.15-.3s-.14-.14-.23-.19c-.09-.04-.2-.07-.31-.07s-.22.02-.32.07-.18.12-.25.21c-.07.09-.12.2-.17.32-.04.12-.06.26-.06.41v2.09h-.7v-3.64h.68Z"/><path d="M74.89,78.41v.67c.11-.24.26-.42.45-.54.18-.12.4-.18.63-.18.26,0,.48.07.67.2s.32.33.41.59c.11-.26.27-.45.46-.59s.43-.2.7-.2c.38,0,.67.12.88.38.21.25.31.61.31,1.07v2.25h-.7v-2.16c0-.29-.07-.52-.2-.69-.13-.17-.31-.25-.54-.25-.12,0-.22.02-.32.07s-.18.11-.26.2-.13.19-.16.32c-.04.12-.06.26-.06.4v2.11h-.7v-2.16c0-.14-.02-.27-.06-.38-.04-.12-.09-.22-.15-.3s-.14-.14-.23-.19c-.09-.04-.2-.07-.31-.07s-.22.02-.32.07-.18.12-.25.21c-.07.09-.12.2-.17.32-.04.12-.06.26-.06.41v2.09h-.7v-3.64h.68Z"/></g></g></svg>