<svg viewBox="0 0 531.27 288" xmlns:xlink="http://www.w3.org/1999/xlink" xmlns="http://www.w3.org/2000/svg" id="Camada_2"><defs><style>.cls-1,.cls-2{fill:none;}.cls-3{fill:#12100c;}.cls-2{stroke:#12100c;stroke-linecap:round;stroke-linejoin:round;stroke-width:.3px;}</style><symbol viewBox="0 0 531.27 288" id="fundo_transparente"><rect height="288" width="531.27" x="0" class="cls-1"/></symbol></defs><g id="Golf"><g id="Campo_de_Golf"><g id="placa_direcional_Heritage"><use xlink:href="#fundo_transparente" height="288" width="531.27"/><line y2="85.55" x2="459.12" y1="85.55" x1="29.13" class="cls-2"/><rect height="1.95" width=".3" y="84.58" x="28.98" class="cls-3"/><rect height="1.95" width=".3" y="84.58" x="458.97" class="cls-3"/><path d="M233.72,75.51v5.29h-.73v-4.36s-.04.08-.06.1c-.02.03-.04.06-.07.09l-1.35,2.02s-.04.06-.05.08-.03.05-.06.08h3.2v.64h-3.98v-.59l2.22-3.35h.87Z"/><path d="M238.19,75.51v.55l-.65.98c-.04.06-.07.1-.1.15-.03.04-.06.08-.09.13s-.06.09-.09.13-.06.09-.09.15c.19.02.37.08.52.18s.29.21.41.35c.12.14.21.3.27.48s.09.38.09.59c0,.24-.04.47-.13.67-.08.2-.2.38-.36.52-.15.14-.34.26-.54.34s-.44.12-.69.12c-.21,0-.4-.03-.58-.08-.18-.05-.35-.13-.49-.23-.15-.1-.28-.22-.39-.37-.11-.14-.2-.31-.26-.49l.63-.31c.08.24.22.44.41.58.19.14.42.21.67.21.15,0,.28-.02.4-.07.12-.05.23-.11.31-.2.09-.09.15-.19.2-.31.05-.12.07-.26.07-.41s-.03-.29-.08-.42c-.06-.13-.13-.23-.22-.32-.09-.09-.21-.16-.34-.21-.13-.05-.28-.08-.44-.08h-.35l-.08-.44.72-1.07s.06-.09.09-.12c.03-.03.05-.07.08-.12s.06-.08.08-.12c.03-.03.06-.07.09-.12h-2.18v-.65h3.09Z"/><path d="M241.88,75.65c.25.13.47.32.65.55.18.23.32.52.42.85.1.33.15.69.15,1.08s-.05.76-.15,1.1-.24.62-.42.86c-.18.24-.4.43-.65.56-.25.13-.52.2-.83.2s-.57-.07-.82-.2-.47-.32-.65-.56c-.18-.24-.32-.53-.42-.86-.1-.33-.15-.7-.15-1.1s.05-.75.15-1.08c.1-.33.24-.61.42-.85.18-.24.4-.42.65-.55.25-.13.53-.2.83-.2s.58.07.83.2ZM240.53,76.29c-.16.1-.29.23-.41.41-.11.18-.2.38-.27.63-.07.24-.1.51-.1.81s.03.57.09.82c.06.25.15.46.27.64.12.18.25.32.41.42.16.1.33.15.52.15s.37-.05.53-.15c.16-.1.3-.24.41-.42.11-.18.2-.39.27-.64.06-.25.09-.52.09-.82s-.03-.56-.09-.81c-.06-.25-.15-.46-.26-.63-.11-.17-.25-.31-.41-.41-.16-.1-.34-.15-.53-.15s-.37.05-.52.15Z"/><path d="M246.71,77.15v.67c.11-.24.26-.42.45-.54.18-.12.4-.18.63-.18.26,0,.48.07.67.2.19.14.32.33.41.59.11-.26.27-.45.46-.59.2-.14.43-.2.7-.2.38,0,.67.12.88.37.21.25.31.61.31,1.07v2.25h-.7v-2.16c0-.29-.07-.52-.2-.69-.13-.17-.31-.25-.54-.25-.12,0-.22.02-.32.07-.1.05-.18.11-.26.2-.07.09-.13.19-.16.32-.04.12-.06.26-.06.4v2.11h-.7v-2.16c0-.14-.02-.27-.06-.38-.04-.12-.09-.22-.15-.3-.06-.08-.14-.14-.23-.19-.09-.04-.2-.07-.31-.07s-.22.02-.32.07c-.1.05-.18.12-.25.21-.07.09-.12.2-.17.32-.04.12-.06.26-.06.41v2.09h-.7v-3.64h.68Z"/><path d="M252.89,77.15v.67c.11-.24.26-.42.45-.54.18-.12.4-.18.63-.18.26,0,.48.07.67.2.19.14.32.33.41.59.11-.26.27-.45.46-.59.2-.14.43-.2.7-.2.38,0,.67.12.88.37.21.25.31.61.31,1.07v2.25h-.7v-2.16c0-.29-.07-.52-.2-.69-.13-.17-.31-.25-.54-.25-.12,0-.22.02-.32.07-.1.05-.18.11-.26.2-.07.09-.13.19-.16.32-.04.12-.06.26-.06.4v2.11h-.7v-2.16c0-.14-.02-.27-.06-.38-.04-.12-.09-.22-.15-.3-.06-.08-.14-.14-.23-.19-.09-.04-.2-.07-.31-.07s-.22.02-.32.07c-.1.05-.18.12-.25.21-.07.09-.12.2-.17.32-.04.12-.06.26-.06.41v2.09h-.7v-3.64h.68Z"/><line y2="152.4" x2="14.8" y1="282.19" x1="14.8" class="cls-2"/><rect height=".3" width="1.95" y="282.04" x="13.83" class="cls-3"/><rect height=".3" width="1.95" y="152.25" x="13.83" class="cls-3"/><path d="M4.76,228h5.29v.72h-4.54l.64,1.3h-.73l-.67-1.36v-.67Z"/><path d="M4.76,224h.55l.98.65c.06.04.1.07.15.1.04.03.08.06.13.09s.09.06.13.09.09.06.15.09c.02-.19.08-.37.18-.52s.21-.29.35-.41c.14-.12.3-.21.48-.27s.38-.09.59-.09c.24,0,.47.04.67.13.2.08.38.2.52.36.14.15.26.34.34.54s.12.44.12.69c0,.21-.03.4-.08.58-.05.18-.13.35-.23.49-.1.15-.22.28-.37.39-.14.11-.31.2-.49.26l-.31-.63c.24-.08.44-.22.58-.41.14-.19.21-.42.21-.67,0-.15-.02-.28-.07-.4-.05-.12-.11-.23-.2-.31-.09-.09-.19-.15-.31-.2-.12-.05-.26-.07-.41-.07s-.29.03-.42.08c-.13.06-.23.13-.32.22-.09.09-.16.21-.21.34-.05.13-.08.28-.08.44v.35l-.44.08-1.07-.72s-.09-.06-.12-.09c-.03-.03-.07-.05-.12-.08s-.08-.06-.12-.08c-.03-.03-.07-.06-.12-.09v2.18h-.65v-3.09Z"/><path d="M4.9,220.31c.13-.25.32-.47.55-.65.23-.18.52-.32.85-.42.33-.1.69-.15,1.08-.15s.76.05,1.1.15.62.24.86.42c.24.18.43.4.56.65.13.25.2.52.2.83s-.07.57-.2.82-.32.47-.56.65c-.24.18-.53.32-.86.42-.33.1-.7.15-1.1.15s-.75-.05-1.08-.15c-.33-.1-.61-.24-.85-.42-.24-.18-.42-.4-.55-.65-.13-.25-.2-.53-.2-.83s.07-.58.2-.83ZM5.54,221.67c.1.16.23.29.41.41.18.11.38.2.63.27.24.07.51.1.81.1s.57-.03.82-.09c.25-.06.46-.15.64-.27.18-.12.32-.25.42-.41.1-.16.15-.33.15-.52s-.05-.37-.15-.53c-.1-.16-.24-.3-.42-.41-.18-.11-.39-.2-.64-.27-.25-.06-.52-.09-.82-.09s-.56.03-.81.09c-.25.06-.46.15-.63.26-.17.11-.31.25-.41.41-.1.16-.15.34-.15.53s.05.37.15.52Z"/><path d="M6.41,215.48h.67c-.24-.11-.42-.26-.54-.45-.12-.18-.18-.4-.18-.63,0-.26.07-.48.2-.67.14-.19.33-.32.59-.41-.26-.11-.45-.27-.59-.46-.14-.2-.2-.43-.2-.7,0-.38.12-.67.37-.88.25-.21.61-.31,1.07-.31h2.25v.7h-2.16c-.29,0-.52.07-.69.2-.17.13-.25.31-.25.54,0,.12.02.22.07.32.05.1.11.18.2.26.09.07.19.13.32.16.12.04.26.06.4.06h2.11v.7h-2.16c-.14,0-.27.02-.38.06-.12.04-.22.09-.3.15-.08.06-.14.14-.19.23-.04.09-.07.2-.07.31s.02.22.07.32c.05.1.12.18.21.25.09.07.2.12.32.17.12.04.26.06.41.06h2.09v.7h-3.64v-.68Z"/><path d="M6.41,209.3h.67c-.24-.11-.42-.26-.54-.45-.12-.18-.18-.4-.18-.63,0-.26.07-.48.2-.67.14-.19.33-.32.59-.41-.26-.11-.45-.27-.59-.46-.14-.2-.2-.43-.2-.7,0-.38.12-.67.37-.88.25-.21.61-.31,1.07-.31h2.25v.7h-2.16c-.29,0-.52.07-.69.2-.17.13-.25.31-.25.54,0,.12.02.22.07.32.05.1.11.18.2.26.09.07.19.13.32.16.12.04.26.06.4.06h2.11v.7h-2.16c-.14,0-.27.02-.38.06-.12.04-.22.09-.3.15-.08.06-.14.14-.19.23-.04.09-.07.2-.07.31s.02.22.07.32c.05.1.12.18.21.25.09.07.2.12.32.17.12.04.26.06.41.06h2.09v.7h-3.64v-.68Z"/><line y2="99.88" x2="14.8" y1="109.58" x1="14.8" class="cls-2"/><rect height=".3" width="1.95" y="109.43" x="13.83" class="cls-3"/><rect height=".3" width="1.95" y="99.73" x="13.83" class="cls-3"/><path d="M4.76,113.44h5.29v.72h-4.54l.64,1.3h-.73l-.67-1.36v-.67Z"/><path d="M4.9,109.74c.13-.25.32-.47.55-.65.23-.18.52-.32.85-.42.33-.1.69-.15,1.08-.15s.76.05,1.1.15c.33.1.62.24.86.42s.43.4.56.65c.13.25.2.52.2.83s-.07.57-.2.82-.32.47-.56.65c-.24.18-.53.32-.86.42-.33.1-.7.15-1.1.15s-.75-.05-1.08-.15c-.33-.1-.61-.24-.85-.42-.24-.18-.42-.4-.55-.65-.13-.25-.2-.53-.2-.83s.07-.58.2-.83ZM5.54,111.09c.1.16.23.29.41.41.18.11.38.2.63.27.24.07.51.1.8.1s.57-.03.82-.09c.25-.06.46-.15.64-.27.18-.12.32-.25.42-.41.1-.16.15-.33.15-.52s-.05-.37-.15-.53c-.1-.16-.24-.3-.42-.41-.18-.11-.39-.2-.64-.27-.25-.06-.52-.09-.82-.09s-.56.03-.81.09c-.25.06-.46.15-.63.26-.17.11-.31.25-.41.41-.1.16-.15.34-.15.53s.05.37.15.52Z"/><path d="M6.4,104.91h.67c-.24-.11-.42-.26-.54-.45s-.18-.4-.18-.63c0-.26.07-.48.2-.67.14-.19.33-.32.59-.41-.26-.11-.45-.27-.59-.46-.13-.2-.2-.43-.2-.7,0-.38.12-.67.37-.88s.61-.31,1.07-.31h2.25v.7h-2.16c-.29,0-.52.07-.69.2-.17.13-.25.31-.25.54,0,.12.02.22.07.32.05.1.11.18.2.26.09.07.2.13.32.16.12.04.26.06.4.06h2.11v.7h-2.16c-.14,0-.27.02-.38.06-.12.04-.22.09-.3.15-.08.06-.14.14-.19.23-.04.09-.07.2-.07.31s.02.22.07.32c.05.1.12.18.21.25s.2.12.32.17c.12.04.26.06.41.06h2.09v.7h-3.64v-.68Z"/><path d="M6.4,98.72h.67c-.24-.11-.42-.26-.54-.45s-.18-.4-.18-.63c0-.26.07-.48.2-.67.14-.19.33-.32.59-.41-.26-.11-.45-.27-.59-.46-.13-.2-.2-.43-.2-.7,0-.38.12-.67.37-.88s.61-.31,1.07-.31h2.25v.7h-2.16c-.29,0-.52.07-.69.2-.17.13-.25.31-.25.54,0,.12.02.22.07.32.05.1.11.18.2.26.09.07.2.13.32.16.12.04.26.06.4.06h2.11v.7h-2.16c-.14,0-.27.02-.38.06-.12.04-.22.09-.3.15-.08.06-.14.14-.19.23-.04.09-.07.2-.07.31s.02.22.07.32c.05.1.12.18.21.25s.2.12.32.17c.12.04.26.06.41.06h2.09v.7h-3.64v-.68Z"/><path d="M28.98,162.26c0-5.53,4.48-10.01,10.01-10.01h359.49c33.58,0,60.8,29.12,60.8,65.04h0c0,35.92-27.22,65.04-60.8,65.04H38.98c-5.53,0-10.01-4.48-10.01-10.01v-110.08Z" class="cls-2"/><polygon points="430.25 217.37 392.12 257.61 389.64 254.79 424.94 217.02 389.64 179.95 392.47 176.77 430.25 217.37" class="cls-2"/><path d="M501.79,152.25h10.01v4.89c0,.63,0,1.35,0,2.06v51.14c0,.59,0,1.18,0,1.83v9.71c0,.86,0,1.61,0,2.37v51.14c0,.84,0,1.68,0,2.4v4.55h-10.01v-4.55s0-1.2,0-2.4v-51.14c0-.76,0-1.51,0-2.37v-9.71c0-.65,0-1.24,0-1.83v-51.14c0-.71,0-1.43,0-2.06v-4.89Z" class="cls-2"/><rect height="10.01" width="430.3" y="99.73" x="28.98" class="cls-2"/></g></g></g></svg>