<svg viewBox="0 0 531.26 288" xmlns="http://www.w3.org/2000/svg"><defs><style>.cls-1 {
        stroke: #76544b;
      }

      .cls-1, .cls-2, .cls-3 {
        fill: none;
      }

      .cls-1, .cls-3 {
        stroke-linecap: round;
        stroke-linejoin: round;
        stroke-width: .3px;
      }

      .cls-4 {
        fill: #12100a;
      }

      .cls-2 {
        stroke: #000;
        stroke-miterlimit: 10;
        stroke-width: .28px;
      }

      .cls-3 {
        stroke: #12100a;
      }</style></defs><g id="bases"><rect height="358.35" width="589.11" y="-33.95" x="-25.44" class="cls-2"/></g><g id="Urban"><g id="Plaza"><g id="banco_sem_costas"><g><g><g id="LINE"><line y2="108.94" x2="200.16" y1="110.6" x1="200.16" class="cls-3"/></g><g id="LINE-2"><line y2="98.12" x2="200.16" y1="99.79" x1="200.16" class="cls-3"/></g><g id="LINE-3"><line y2="87.31" x2="200.16" y1="88.97" x1="200.16" class="cls-3"/></g><g id="LINE-4"><line y2="76.49" x2="200.16" y1="78.16" x1="200.16" class="cls-3"/></g><g id="LINE-5"><line y2="65.68" x2="200.16" y1="67.34" x1="200.16" class="cls-3"/></g><g id="LINE-6"><line y2="108.94" x2="210.86" y1="110.6" x1="210.86" class="cls-3"/></g><g id="LINE-7"><line y2="98.12" x2="210.86" y1="99.79" x1="210.86" class="cls-3"/></g><g id="LINE-8"><line y2="87.31" x2="210.86" y1="88.97" x1="210.86" class="cls-3"/></g><g id="LINE-9"><line y2="76.49" x2="210.86" y1="78.16" x1="210.86" class="cls-3"/></g><g id="LINE-10"><line y2="65.68" x2="210.86" y1="67.34" x1="210.86" class="cls-3"/></g></g><g id="LINE-11"><line y2="100.45" x2="371.91" y1="99.62" x1="371.91" class="cls-1"/></g><g id="LINE-12"><line y2="118.75" x2="39.1" y1="119.58" x1="39.1" class="cls-1"/></g><g id="LINE-13"><line y2="119.75" x2="39.1" y1="119.58" x1="39.1" class="cls-1"/></g><g id="LINE-14"><line y2="97.12" x2="371.91" y1="89.64" x1="371.91" class="cls-1"/></g><g id="LINE-15"><line y2="97.12" x2="371.91" y1="97.96" x1="371.91" class="cls-1"/></g><g id="LINE-16"><line y2="89.64" x2="371.91" y1="88.81" x1="371.91" class="cls-1"/></g><g id="LINE-17"><line y2="64.68" x2="371.91" y1="57.2" x1="371.91" class="cls-1"/></g><g id="LINE-18"><line y2="64.68" x2="371.91" y1="65.51" x1="371.91" class="cls-1"/></g><g id="LINE-19"><line y2="57.2" x2="371.91" y1="56.36" x1="371.91" class="cls-1"/></g><g id="LINE-20"><line y2="75.49" x2="371.91" y1="68.01" x1="371.91" class="cls-1"/></g><g id="LINE-21"><line y2="75.49" x2="371.91" y1="76.33" x1="371.91" class="cls-1"/></g><g id="LINE-22"><line y2="68.01" x2="371.91" y1="67.18" x1="371.91" class="cls-1"/></g><g id="LINE-23"><line y2="86.31" x2="371.91" y1="78.83" x1="371.91" class="cls-1"/></g><g id="LINE-24"><line y2="86.31" x2="371.91" y1="87.14" x1="371.91" class="cls-1"/></g><g id="LINE-25"><line y2="78.83" x2="371.91" y1="77.99" x1="371.91" class="cls-1"/></g><g id="LINE-26"><line y2="97.96" x2="371.91" y1="99.62" x1="371.91" class="cls-1"/></g><g id="LINE-27"><line y2="87.14" x2="371.91" y1="88.81" x1="371.91" class="cls-1"/></g><g id="LINE-28"><line y2="76.33" x2="371.91" y1="77.99" x1="371.91" class="cls-1"/></g><g id="LINE-29"><line y2="65.51" x2="371.91" y1="67.18" x1="371.91" class="cls-1"/></g><g><polyline points="49.1 108.94 49.1 110.6 39.1 110.6 39.1 53.2 49.1 53.2 49.1 56.53" class="cls-3"/><line y2="99.79" x2="49.1" y1="98.12" x1="49.1" class="cls-3"/><line y2="88.97" x2="49.1" y1="87.31" x1="49.1" class="cls-3"/><line y2="78.16" x2="49.1" y1="76.49" x1="49.1" class="cls-3"/><line y2="67.34" x2="49.1" y1="65.68" x1="49.1" class="cls-3"/></g><g><polyline points="361.21 108.94 361.21 110.6 371.91 110.6 371.91 53.2 361.21 53.2 361.21 56.53" class="cls-3"/><polyline points="210.86 56.53 210.86 53.2 200.16 53.2 200.16 56.53" class="cls-3"/><line y2="99.79" x2="361.21" y1="98.12" x1="361.21" class="cls-3"/><line y2="88.97" x2="361.21" y1="87.31" x1="361.21" class="cls-3"/><line y2="78.16" x2="361.21" y1="76.49" x1="361.21" class="cls-3"/><line y2="67.34" x2="361.21" y1="65.68" x1="361.21" class="cls-3"/></g><g><rect height="9.15" width="332.81" y="56.53" x="39.1" class="cls-3"/><rect height="9.15" width="332.81" y="67.34" x="39.1" class="cls-3"/><rect height="9.15" width="332.81" y="78.16" x="39.1" class="cls-3"/><rect height="9.15" width="332.81" y="88.97" x="39.1" class="cls-3"/><rect height="9.15" width="332.81" y="99.79" x="39.1" class="cls-3"/><rect height="9.15" width="332.81" y="110.6" x="39.1" class="cls-3"/></g><g><rect height="2.98" width="332.81" y="119.75" x="39.1" class="cls-3"/><rect height="2.62" width="332.81" y="122.73" x="39.1" class="cls-3"/><rect height="2.62" width="332.81" y="125.34" x="39.1" class="cls-3"/><rect height="2.62" width="332.81" y="127.96" x="39.1" class="cls-3"/></g></g><g><path d="M495.7,213.44h-61.43v1.66h4.49l-15.91,64.09c-.44,1.78.64,3.59,2.42,4.03.26.07.53.1.8.1h69.63c1.83,0,3.32-1.49,3.32-3.33v-63.23c0-1.84-1.49-3.33-3.32-3.33ZM497.36,280c0,.92-.74,1.66-1.66,1.66h-69.63c-.14,0-.27-.02-.4-.05-.89-.22-1.43-1.13-1.21-2.02l16.01-64.49h55.23c.92,0,1.66.74,1.66,1.66v63.23Z" class="cls-3"/><g><g><g id="ARC"><path d="M441.75,207.28c0-.49-.35-.91-.83-1-2.47-.44-5-.44-7.46,0-.48.09-.83.51-.83,1v6.16h9.13v-6.16" class="cls-3"/></g><g id="ARC-2"><path d="M452.54,207.29c0-.49-.35-.91-.83-1-2.47-.44-5-.44-7.46,0-.48.09-.83.51-.83,1v6.16h9.13v-6.16" class="cls-3"/></g><g id="ARC-3"><path d="M463.33,207.28c0-.49-.35-.91-.83-1-2.47-.44-5-.44-7.46,0-.48.09-.83.51-.83,1v6.16h9.13v-6.16" class="cls-3"/></g><g id="ARC-4"><path d="M474.12,207.28c0-.49-.35-.91-.83-1-2.47-.44-5-.44-7.46,0-.48.09-.83.51-.83,1v6.16h9.13v-6.16" class="cls-3"/></g><g id="ARC-5"><path d="M484.91,207.28c0-.49-.35-.91-.83-1-2.47-.44-5-.44-7.46,0-.48.09-.83.51-.83,1v6.16h9.13v-6.16" class="cls-3"/></g><g id="ARC-6"><path d="M495.7,207.28c0-.49-.35-.91-.83-1-2.47-.44-5-.44-7.46,0-.48.09-.83.51-.83,1v6.16h9.13v-6.16" class="cls-3"/></g></g><g><g id="ARC-7"><path d="M424.59,246.72c-.48-.12-.97.12-1.17.57-1.02,2.3-1.62,4.76-1.78,7.27-.03.49.29.93.77,1.05l5.97,1.46,2.17-8.89-5.97-1.46" class="cls-3"/></g><g id="ARC-8"><path d="M427.19,236.18c-.48-.12-.97.12-1.17.57-1.02,2.3-1.62,4.76-1.78,7.27-.03.49.29.93.77,1.05l5.97,1.46,2.17-8.89-5.97-1.46" class="cls-3"/></g><g id="ARC-9"><path d="M429.81,225.69c-.48-.12-.97.12-1.17.57-1.02,2.3-1.62,4.76-1.78,7.27-.03.49.29.93.77,1.05l5.97,1.46,2.17-8.89-5.97-1.46" class="cls-3"/></g><g id="ARC-10"><path d="M432.42,215.19c-.48-.12-.97.12-1.17.57-1.02,2.3-1.62,4.76-1.78,7.27-.03.49.29.93.77,1.05l5.97,1.46,2.17-8.89-5.97-1.46" class="cls-3"/></g></g></g></g><g><g><g><rect height="7.49" width="332.81" y="205.95" x="39.1" class="cls-3"/><rect height="7.49" width="332.81" y="215.13" x="39.1" class="cls-3"/><rect height="7.49" width="332.81" y="225.55" x="39.1" class="cls-3"/><rect height="7.49" width="332.81" y="236.04" x="39.1" class="cls-3"/><rect height="8.8" width="332.81" y="246.54" x="39.1" class="cls-3"/></g><rect height="51.07" width="332.81" y="205.95" x="39.1" class="cls-3"/></g><polyline points="49.1 257.02 49.1 283.33 39.1 283.33 39.1 257.02" class="cls-3"/><polyline points="371.91 255.34 371.91 283.33 361.88 283.33 361.88 257.02" class="cls-3"/><polyline points="210.49 257.02 210.49 283.33 200.51 283.33 200.51 257.02" class="cls-3"/></g><g id="LINE-30"><g><line y2="283.18" x2="16.68" y1="206.1" x1="16.68" class="cls-3"/><rect height=".3" width="1.95" y="205.95" x="15.71" class="cls-4"/><rect height=".3" width="1.95" y="283.03" x="15.71" class="cls-4"/></g></g><g id="MTEXT"><g><path d="M7.47,254.85h5.29v.73h-4.36s.08.04.1.06c.03.02.06.04.09.07l2.02,1.35s.06.04.08.05.05.03.08.06v-3.2h.64v3.98h-.59l-3.35-2.22v-.87Z"/><path d="M12.63,252.4c-.12.24-.29.44-.51.61-.22.17-.5.3-.82.39s-.69.14-1.09.14-.8-.05-1.15-.15c-.35-.1-.64-.24-.89-.43-.25-.18-.43-.41-.56-.67-.13-.26-.2-.55-.2-.88,0-.37.09-.7.27-.97.18-.27.43-.47.76-.59l.29.64c-.21.07-.37.18-.48.34-.11.16-.17.35-.17.56,0,.2.05.38.14.55s.23.31.4.44c.17.13.37.22.61.29s.49.1.77.1h.17c.06,0,.1,0,.15,0-.25-.08-.45-.23-.59-.45-.14-.22-.21-.48-.21-.79,0-.24.04-.46.12-.65.08-.2.19-.36.34-.5.15-.14.32-.25.52-.33.2-.08.42-.12.66-.12s.47.04.68.13c.21.08.38.2.53.35.14.15.26.32.34.53s.12.43.12.68c0,.3-.06.57-.18.81ZM12.06,251.24c-.05-.12-.12-.22-.21-.3-.09-.08-.19-.15-.31-.2-.12-.05-.26-.07-.41-.07s-.29.02-.41.07c-.12.05-.23.12-.32.2s-.16.19-.21.31-.07.25-.07.4.02.27.07.39.12.22.2.31c.09.09.19.15.31.2.12.05.25.07.4.07s.28-.03.41-.08.24-.12.34-.21.17-.2.22-.32c.05-.12.08-.26.08-.4s-.03-.26-.08-.38Z"/><path d="M7.47,246.19h.65v1.92l1.54.25c-.09-.1-.16-.22-.21-.36-.05-.14-.07-.29-.07-.46,0-.25.04-.47.13-.68.08-.21.2-.38.35-.53.15-.15.33-.27.54-.35.21-.08.44-.12.69-.12s.48.04.7.13c.21.09.4.21.55.36.15.16.27.34.36.56.08.21.13.45.13.71,0,.2-.03.39-.08.58s-.13.35-.23.5c-.1.15-.22.28-.36.39-.14.11-.3.19-.48.24l-.31-.63c.24-.07.43-.19.56-.39.14-.19.21-.42.21-.67,0-.15-.03-.29-.08-.41-.05-.13-.12-.23-.21-.33-.09-.09-.2-.16-.33-.21-.13-.05-.27-.08-.43-.08s-.3.03-.44.08c-.13.05-.25.13-.34.22s-.17.21-.22.34c-.05.13-.08.28-.08.44,0,.18.04.35.1.49.07.14.17.26.31.36l-.15.62-2.79-.47v-2.52Z"/><path d="M9.12,242.26h.67c-.24-.11-.42-.26-.54-.45-.12-.18-.18-.4-.18-.63,0-.26.07-.48.2-.67.14-.19.33-.32.59-.41-.26-.11-.45-.27-.59-.46-.14-.2-.2-.43-.2-.7,0-.38.12-.67.37-.88.25-.21.61-.31,1.07-.31h2.25v.7h-2.16c-.29,0-.52.07-.69.2-.17.13-.25.31-.25.54,0,.12.02.22.07.32.05.1.11.18.2.26.09.07.19.13.32.16.12.04.26.06.4.06h2.11v.7h-2.16c-.14,0-.27.02-.38.06-.12.04-.22.09-.3.15-.08.06-.14.14-.19.23-.04.09-.07.2-.07.31s.02.22.07.32c.05.1.12.18.21.25.09.07.2.12.32.17.12.04.26.06.41.06h2.09v.7h-3.64v-.68Z"/><path d="M9.12,236.07h.67c-.24-.11-.42-.26-.54-.45-.12-.18-.18-.4-.18-.63,0-.26.07-.48.2-.67.14-.19.33-.32.59-.41-.26-.11-.45-.27-.59-.46-.14-.2-.2-.43-.2-.7,0-.38.12-.67.37-.88.25-.21.61-.31,1.07-.31h2.25v.7h-2.16c-.29,0-.52.07-.69.2-.17.13-.25.31-.25.54,0,.12.02.22.07.32.05.1.11.18.2.26.09.07.19.13.32.16.12.04.26.06.4.06h2.11v.7h-2.16c-.14,0-.27.02-.38.06-.12.04-.22.09-.3.15-.08.06-.14.14-.19.23-.04.09-.07.2-.07.31s.02.22.07.32c.05.1.12.18.21.25.09.07.2.12.32.17.12.04.26.06.41.06h2.09v.7h-3.64v-.68Z"/></g></g><g id="LINE-31"><g><line y2="30.99" x2="39.25" y1="30.99" x1="371.76" class="cls-3"/><rect height="1.95" width=".3" y="30.01" x="371.62" class="cls-4"/><rect height="1.95" width=".3" y="30.01" x="39.1" class="cls-4"/></g></g><g id="MTEXT-2"><g><path d="M191.92,21.84c.21.08.39.19.54.33.15.14.27.31.35.51.08.2.13.42.13.67,0,.14-.02.28-.05.42-.03.14-.08.28-.15.41-.07.14-.16.27-.27.42-.11.14-.24.29-.39.45l-1.31,1.35h2.29v.67h-3.32v-.59l1.79-1.85c.12-.12.22-.23.3-.33.08-.1.15-.21.2-.3.05-.1.09-.19.11-.29.02-.09.03-.19.03-.29,0-.15-.02-.28-.07-.4-.04-.12-.11-.23-.2-.32-.09-.09-.19-.16-.3-.21-.11-.05-.24-.07-.39-.07-.25,0-.47.08-.65.23-.18.15-.31.36-.39.63l-.67-.23c.12-.42.32-.74.62-.97s.66-.34,1.1-.34c.25,0,.48.04.69.12Z"/><path d="M196.46,21.92c.25.13.47.32.65.55.18.23.32.52.42.85.1.33.15.69.15,1.08s-.05.76-.15,1.1-.24.62-.42.86c-.18.24-.4.43-.65.56-.25.13-.52.2-.83.2s-.57-.07-.82-.2-.47-.32-.65-.56c-.18-.24-.32-.53-.42-.86-.1-.33-.15-.7-.15-1.1s.05-.75.15-1.08c.1-.33.24-.61.42-.85.18-.24.4-.42.65-.55.25-.13.53-.2.83-.2s.58.07.83.2ZM195.11,22.56c-.16.1-.29.23-.41.41-.11.18-.2.38-.27.63-.07.24-.1.51-.1.81s.03.57.09.82c.06.25.15.46.27.64.12.18.25.32.41.42.16.1.33.15.52.15s.37-.05.53-.15c.16-.1.3-.24.41-.42.11-.18.2-.39.27-.64.06-.25.09-.52.09-.82s-.03-.56-.09-.81c-.06-.25-.15-.46-.26-.63-.11-.17-.25-.31-.41-.41-.16-.1-.34-.15-.53-.15s-.37.05-.52.15Z"/><path d="M201.1,21.92c.25.13.47.32.65.55.18.23.32.52.42.85.1.33.15.69.15,1.08s-.05.76-.15,1.1-.24.62-.42.86c-.18.24-.4.43-.65.56-.25.13-.52.2-.83.2s-.57-.07-.82-.2-.47-.32-.65-.56c-.18-.24-.32-.53-.42-.86-.1-.33-.15-.7-.15-1.1s.05-.75.15-1.08c.1-.33.24-.61.42-.85.18-.24.4-.42.65-.55.25-.13.53-.2.83-.2s.58.07.83.2ZM199.75,22.56c-.16.1-.29.23-.41.41-.11.18-.2.38-.27.63-.07.24-.1.51-.1.81s.03.57.09.82c.06.25.15.46.27.64.12.18.25.32.41.42.16.1.33.15.52.15s.37-.05.53-.15c.16-.1.3-.24.41-.42.11-.18.2-.39.27-.64.06-.25.09-.52.09-.82s-.03-.56-.09-.81c-.06-.25-.15-.46-.26-.63-.11-.17-.25-.31-.41-.41-.16-.1-.34-.15-.53-.15s-.37.05-.52.15Z"/><path d="M205.73,21.92c.25.13.47.32.65.55.18.23.32.52.42.85.1.33.15.69.15,1.08s-.05.76-.15,1.1-.24.62-.42.86c-.18.24-.4.43-.65.56-.25.13-.52.2-.83.2s-.57-.07-.82-.2-.47-.32-.65-.56c-.18-.24-.32-.53-.42-.86-.1-.33-.15-.7-.15-1.1s.05-.75.15-1.08c.1-.33.24-.61.42-.85.18-.24.4-.42.65-.55.25-.13.53-.2.83-.2s.58.07.83.2ZM204.38,22.56c-.16.1-.29.23-.41.41-.11.18-.2.38-.27.63-.07.24-.1.51-.1.81s.03.57.09.82c.06.25.15.46.27.64.12.18.25.32.41.42.16.1.33.15.52.15s.37-.05.53-.15c.16-.1.3-.24.41-.42.11-.18.2-.39.27-.64.06-.25.09-.52.09-.82s-.03-.56-.09-.81c-.06-.25-.15-.46-.26-.63-.11-.17-.25-.31-.41-.41-.16-.1-.34-.15-.53-.15s-.37.05-.52.15Z"/><path d="M210.56,23.42v.67c.11-.24.26-.42.45-.54.18-.12.4-.18.63-.18.26,0,.48.07.67.2.19.14.32.33.41.59.11-.26.27-.45.46-.59.2-.14.43-.2.7-.2.38,0,.67.12.88.37.21.25.31.61.31,1.07v2.25h-.7v-2.16c0-.29-.07-.52-.2-.69-.13-.17-.31-.25-.54-.25-.12,0-.22.02-.32.07-.1.05-.18.11-.26.2-.07.09-.13.19-.16.32-.04.12-.06.26-.06.4v2.11h-.7v-2.16c0-.14-.02-.27-.06-.38-.04-.12-.09-.22-.15-.3-.06-.08-.14-.14-.23-.19-.09-.04-.2-.07-.31-.07s-.22.02-.32.07c-.1.05-.18.12-.25.21-.07.09-.12.2-.17.32-.04.12-.06.26-.06.41v2.09h-.7v-3.64h.68Z"/><path d="M216.75,23.42v.67c.11-.24.26-.42.45-.54.18-.12.4-.18.63-.18.26,0,.48.07.67.2.19.14.32.33.41.59.11-.26.27-.45.46-.59.2-.14.43-.2.7-.2.38,0,.67.12.88.37.21.25.31.61.31,1.07v2.25h-.7v-2.16c0-.29-.07-.52-.2-.69-.13-.17-.31-.25-.54-.25-.12,0-.22.02-.32.07-.1.05-.18.11-.26.2-.07.09-.13.19-.16.32-.04.12-.06.26-.06.4v2.11h-.7v-2.16c0-.14-.02-.27-.06-.38-.04-.12-.09-.22-.15-.3-.06-.08-.14-.14-.23-.19-.09-.04-.2-.07-.31-.07s-.22.02-.32.07c-.1.05-.18.12-.25.21-.07.09-.12.2-.17.32-.04.12-.06.26-.06.41v2.09h-.7v-3.64h.68Z"/></g></g><g id="LINE-32"><g><line y2="130.43" x2="16.68" y1="53.35" x1="16.68" class="cls-3"/><rect height=".3" width="1.95" y="53.2" x="15.71" class="cls-4"/><rect height=".3" width="1.95" y="130.28" x="15.71" class="cls-4"/></g></g><g id="MTEXT-3"><g><path d="M7.47,102.1h5.29v.73h-4.36s.08.04.1.06c.03.02.06.04.09.07l2.02,1.35s.06.04.08.05.05.03.08.06v-3.2h.64v3.98h-.59l-3.35-2.22v-.87Z"/><path d="M12.63,99.65c-.12.24-.29.44-.51.61-.22.17-.5.3-.82.39-.32.09-.69.14-1.09.14s-.8-.05-1.15-.15c-.35-.1-.64-.24-.89-.43-.25-.18-.43-.41-.56-.67-.13-.26-.2-.55-.2-.88,0-.37.09-.7.27-.97.18-.27.43-.47.76-.59l.29.64c-.21.07-.37.18-.48.34-.11.16-.17.35-.17.56,0,.2.05.38.14.55s.23.31.4.44c.17.13.37.22.61.29s.49.1.77.1h.17c.06,0,.1,0,.15,0-.25-.08-.45-.23-.59-.45-.14-.22-.21-.48-.21-.79,0-.24.04-.46.12-.65.08-.2.19-.36.34-.5.15-.14.32-.25.52-.33.2-.08.42-.12.66-.12s.47.04.68.13c.21.08.38.2.53.35.14.15.26.32.34.53s.12.43.12.68c0,.3-.06.57-.18.81ZM12.06,98.48c-.05-.12-.12-.22-.21-.3-.09-.08-.19-.15-.31-.2-.12-.05-.26-.07-.41-.07s-.29.02-.41.07c-.12.05-.23.12-.32.2s-.16.19-.21.31-.07.25-.07.4.02.27.07.39.12.22.2.31c.09.09.19.15.31.2.12.05.25.07.4.07s.28-.03.41-.08.24-.12.34-.21.17-.2.22-.32c.05-.12.08-.26.08-.4s-.03-.26-.08-.38Z"/><path d="M7.47,93.44h.65v1.92l1.54.25c-.09-.1-.16-.22-.21-.36-.05-.14-.07-.29-.07-.46,0-.25.04-.47.13-.68.08-.21.2-.38.35-.53.15-.15.33-.27.54-.35.21-.08.44-.12.69-.12s.48.04.7.13c.21.09.4.21.55.36.15.16.27.34.36.56.08.21.13.45.13.71,0,.2-.03.39-.08.58s-.13.35-.23.5c-.1.15-.22.28-.36.39-.14.11-.3.19-.48.24l-.31-.63c.24-.07.43-.19.56-.39.14-.19.21-.42.21-.67,0-.15-.03-.29-.08-.41-.05-.13-.12-.23-.21-.33-.09-.09-.2-.16-.33-.21-.13-.05-.27-.08-.43-.08s-.3.03-.44.08c-.13.05-.25.13-.34.22s-.17.21-.22.34c-.05.13-.08.28-.08.44,0,.18.04.35.1.49.07.14.17.26.31.36l-.15.62-2.79-.47v-2.52Z"/><path d="M9.12,89.51h.67c-.24-.11-.42-.26-.54-.45-.12-.18-.18-.4-.18-.63,0-.26.07-.48.2-.67.14-.19.33-.32.59-.41-.26-.11-.45-.27-.59-.46-.14-.2-.2-.43-.2-.7,0-.38.12-.67.37-.88.25-.21.61-.31,1.07-.31h2.25v.7h-2.16c-.29,0-.52.07-.69.2-.17.13-.25.31-.25.54,0,.12.02.22.07.32.05.1.11.18.2.26.09.07.19.13.32.16.12.04.26.06.4.06h2.11v.7h-2.16c-.14,0-.27.02-.38.06-.12.04-.22.09-.3.15-.08.06-.14.14-.19.23-.04.09-.07.2-.07.31s.02.22.07.32c.05.1.12.18.21.25.09.07.2.12.32.17.12.04.26.06.41.06h2.09v.7h-3.64v-.68Z"/><path d="M9.12,83.32h.67c-.24-.11-.42-.26-.54-.45-.12-.18-.18-.4-.18-.63,0-.26.07-.48.2-.67.14-.19.33-.32.59-.41-.26-.11-.45-.27-.59-.46-.14-.2-.2-.43-.2-.7,0-.38.12-.67.37-.88.25-.21.61-.31,1.07-.31h2.25v.7h-2.16c-.29,0-.52.07-.69.2-.17.13-.25.31-.25.54,0,.12.02.22.07.32.05.1.11.18.2.26.09.07.19.13.32.16.12.04.26.06.4.06h2.11v.7h-2.16c-.14,0-.27.02-.38.06-.12.04-.22.09-.3.15-.08.06-.14.14-.19.23-.04.09-.07.2-.07.31s.02.22.07.32c.05.1.12.18.21.25.09.07.2.12.32.17.12.04.26.06.41.06h2.09v.7h-3.64v-.68Z"/></g></g></g></g></g></svg>