<svg viewBox="0 0 531.27 288.17" xmlns:xlink="http://www.w3.org/1999/xlink" xmlns="http://www.w3.org/2000/svg" id="Camada_2"><defs><style>.cls-1,.cls-2,.cls-3,.cls-4,.cls-5,.cls-6,.cls-7{fill:none;}.cls-8{fill:#12100c;}.cls-2{stroke-width:.33px;}.cls-2,.cls-3,.cls-4{stroke:#12100c;}.cls-2,.cls-3,.cls-4,.cls-5,.cls-6,.cls-7{stroke-linecap:round;stroke-linejoin:round;}.cls-3{stroke-width:.35px;}.cls-4{stroke-width:.35px;}.cls-5{stroke-width:.36px;}.cls-5,.cls-6,.cls-7{stroke:#000;}.cls-6{stroke-width:.37px;}.cls-7{stroke-width:.36px;}</style><symbol viewBox="0 0 531.27 288" id="fundo_transparente"><rect height="288" width="531.27" x="0" class="cls-1"/></symbol></defs><g id="RePlastic"><g id="mesa_Arch_bar"><use xlink:href="#fundo_transparente" transform="translate(0 .17)" height="288" width="531.27"/><rect height="12.47" width="208.52" y="16.34" x="20.84" class="cls-5"/><rect height="12.47" width="12.51" y="16.34" x="20.84" class="cls-5"/><rect height="12.47" width="12.51" y="16.34" x="216.85" class="cls-5"/><rect height="12.47" width="208.52" y="30.07" x="20.84" class="cls-5"/><rect height="12.47" width="12.51" y="30.07" x="20.84" class="cls-5"/><rect height="12.47" width="12.51" y="30.07" x="216.85" class="cls-5"/><rect height="12.47" width="208.52" y="43.73" x="20.84" class="cls-5"/><rect height="12.47" width="12.51" y="43.73" x="20.84" class="cls-5"/><rect height="12.47" width="12.51" y="43.73" x="216.85" class="cls-5"/><rect height="12.47" width="208.52" y="57.39" x="20.84" class="cls-5"/><rect height="12.47" width="12.51" y="57.39" x="20.84" class="cls-5"/><rect height="12.47" width="12.51" y="57.39" x="216.85" class="cls-5"/><rect height="12.47" width="208.52" y="71.04" x="20.84" class="cls-5"/><rect height="12.47" width="12.51" y="71.04" x="20.84" class="cls-5"/><rect height="12.47" width="12.51" y="71.04" x="216.85" class="cls-5"/><rect height="12.47" width="208.52" y="84.7" x="20.84" class="cls-5"/><rect height="12.47" width="12.51" y="84.7" x="20.84" class="cls-5"/><rect height="12.47" width="12.51" y="84.7" x="216.85" class="cls-5"/><rect height="12.47" width="208.52" y="98.4" x="20.84" class="cls-5"/><rect height="12.47" width="12.51" y="98.4" x="20.84" class="cls-5"/><rect height="12.47" width="12.51" y="98.4" x="216.85" class="cls-5"/><rect height="1.19" width="4.17" y="28.81" x="34.6" class="cls-5"/><rect height="1.19" width="4.17" y="42.54" x="34.6" class="cls-5"/><rect height="1.19" width="4.17" y="56.19" x="34.6" class="cls-5"/><rect height="1.19" width="4.17" y="69.85" x="34.6" class="cls-5"/><rect height="1.19" width="4.17" y="83.51" x="34.6" class="cls-5"/><rect height="1.19" width="4.17" y="97.21" x="34.6" class="cls-5"/><rect height="1.19" width="6.95" y="28.81" x="121.62" class="cls-5"/><rect height="1.19" width="6.95" y="42.54" x="121.62" class="cls-5"/><rect height="1.19" width="6.95" y="56.19" x="121.62" class="cls-5"/><rect height="1.19" width="6.95" y="69.85" x="121.62" class="cls-5"/><rect height="1.19" width="6.95" y="83.51" x="121.62" class="cls-5"/><rect height="1.19" width="6.95" y="97.21" x="121.62" class="cls-5"/><rect transform="translate(427.02 58.82) rotate(-180)" height="1.19" width="4.17" y="28.81" x="211.42" class="cls-5"/><rect transform="translate(427.02 86.26) rotate(-180)" height="1.19" width="4.17" y="42.54" x="211.42" class="cls-5"/><rect transform="translate(427.02 113.58) rotate(-180)" height="1.19" width="4.17" y="56.19" x="211.42" class="cls-5"/><rect transform="translate(427.02 140.9) rotate(-180)" height="1.19" width="4.17" y="69.85" x="211.42" class="cls-5"/><rect transform="translate(427.02 168.21) rotate(-180)" height="1.19" width="4.17" y="83.51" x="211.42" class="cls-5"/><rect transform="translate(427.02 195.62) rotate(-180)" height="1.19" width="4.17" y="97.21" x="211.42" class="cls-5"/><g id="LINE"><line y2="146.15" x2="283.31" y1="146.15" x1="284.54" class="cls-6"/><line y2="146.15" x2="310.96" y1="146.15" x1="312.2" class="cls-6"/><line y2="146.15" x2="338.57" y1="146.15" x1="339.81" class="cls-6"/><line y2="146.15" x2="324.79" y1="146.15" x1="325.98" class="cls-6"/><line y2="146.15" x2="297.13" y1="146.15" x1="298.37" class="cls-6"/><line y2="146.15" x2="269.53" y1="146.15" x1="270.72" class="cls-6"/></g><rect height="149.63" width="12.59" y="132.77" x="256.89" class="cls-6"/><rect height="149.68" width="12.59" y="132.72" x="270.72" class="cls-6"/><rect height="149.68" width="12.59" y="132.72" x="284.54" class="cls-6"/><path d="M298.37,132.72v149.68h12.59v-149.68h-12.59ZM304.67,140.65c-.69,0-1.24-.55-1.24-1.19,0-.69.55-1.24,1.24-1.24s1.24.55,1.24,1.24c0,.64-.54,1.19-1.24,1.19Z" class="cls-6"/><path d="M303.43,139.46c0-.69.55-1.24,1.24-1.24s1.24.55,1.24,1.24c0,.64-.54,1.19-1.24,1.19s-1.24-.55-1.24-1.19Z" class="cls-6"/><rect height="149.68" width="12.59" y="132.72" x="312.2" class="cls-6"/><rect height="149.73" width="12.59" y="132.67" x="325.98" class="cls-6"/><rect height="149.68" width="12.59" y="132.72" x="339.81" class="cls-6"/><rect height="4.66" width="1.24" y="147.24" x="338.57" class="cls-6"/><rect height="4.66" width="1.19" y="147.24" x="324.79" class="cls-6"/><rect height="4.66" width="1.19" y="147.24" x="310.96" class="cls-6"/><rect height="4.66" width="1.19" y="147.24" x="297.13" class="cls-6"/><rect height="4.66" width="1.19" y="147.24" x="283.31" class="cls-6"/><rect transform="translate(120.51 419.65) rotate(-90)" height="1.19" width="4.62" y="148.97" x="267.77" class="cls-6"/><rect height="12.09" width="1.24" y="240.77" x="338.57" class="cls-6"/><rect height="12.09" width="1.19" y="240.77" x="324.79" class="cls-6"/><rect height="12.09" width="1.19" y="240.77" x="310.96" class="cls-6"/><rect height="12.09" width="1.19" y="240.77" x="297.13" class="cls-6"/><rect height="12.09" width="1.19" y="240.77" x="283.31" class="cls-6"/><rect transform="translate(23.27 516.9) rotate(-90)" height="1.19" width="12.08" y="246.22" x="264.04" class="cls-6"/><rect height="4.81" width="95.51" y="282.4" x="256.89" class="cls-6"/><path d="M263.2,138.23c-.68,0-1.24.54-1.24,1.22s.55,1.22,1.24,1.22,1.24-.54,1.24-1.22-.55-1.22-1.24-1.22Z" class="cls-6"/><path d="M263.73,139.55s0-.02-.01-.03c0,0-.01-.02-.02-.02,0,0,0,0,0,0-.02-.02-.04-.03-.05-.06-.01-.02-.02-.04-.03-.06,0-.02-.01-.05-.02-.07,0-.02,0-.04,0-.06,0-.02.01-.04.02-.06,0-.01,0-.02,0-.03,0-.01,0-.02,0-.03,0,0,0-.02-.01-.03,0,0,0,0,0-.01,0,0,0,0-.01-.01,0,0-.02-.01-.03-.01-.01,0-.02,0-.03,0-.01,0-.02,0-.03,0,0,0,0,0,0,0-.02,0-.05.01-.08.02-.02,0-.05,0-.07,0-.02,0-.05-.01-.07-.02-.02,0-.04-.02-.05-.03-.02-.01-.03-.03-.05-.05,0,0-.01-.02-.02-.02,0,0-.02-.01-.03-.01-.01,0-.02,0-.03,0,0,0,0,0-.01,0,0,0-.01,0-.02,0,0,0-.02,0-.02.02,0,0-.01.01-.02.02,0,0,0,.02-.01.03,0,0,0,0,0,0,0,.03-.01.05-.02.07,0,.02-.02.04-.04.06-.02.02-.03.03-.05.05-.02.01-.04.02-.06.03-.02,0-.04.01-.07.02-.01,0-.02,0-.03,0-.01,0-.02.01-.03.02,0,0-.01.02-.02.03,0,0,0,0,0,.01,0,0,0,.01,0,.02,0,0,0,.02,0,.03,0,0,0,.02,0,.03,0,0,.01.02.02.02,0,0,0,0,0,0,.02.02.04.03.05.06.01.02.02.04.03.06,0,.02.01.04.02.07,0,.02,0,.04,0,.06,0,.02-.01.04-.02.06,0,.01,0,.02,0,.03,0,.01,0,.02,0,.03s0,.02.02.03c0,0,0,0,0,.01,0,0,0,0,.01.01,0,0,.02.01.03.01,0,0,.02,0,.03,0,.01,0,.02,0,.03,0,0,0,0,0,0,0,.03,0,.05-.02.08-.02.02,0,.05,0,.07,0,.02,0,.05.01.07.02.02,0,.04.02.05.03.02.01.03.03.05.05,0,0,.02.02.02.02,0,0,.02.01.03.01.01,0,.02,0,.03,0,0,0,0,0,.01,0,0,0,.01,0,.02,0,0,0,.02,0,.03-.02s.01-.01.02-.02c0,0,0-.02.01-.03,0,0,0,0,0,0,0-.02.01-.05.02-.07,0-.02.02-.04.04-.06.02-.02.03-.03.05-.05.02-.01.04-.02.06-.03.02,0,.04-.01.07-.02.01,0,.02,0,.03,0,.01,0,.02-.01.03-.02,0,0,.01-.02.02-.03,0,0,0,0,0-.01,0,0,0-.01,0-.02,0,0,0-.02,0-.03Z" class="cls-6"/><path d="M304.67,138.22c-.69,0-1.24.55-1.24,1.24,0,.64.55,1.19,1.24,1.19s1.24-.55,1.24-1.19c0-.69-.54-1.24-1.24-1.24Z" class="cls-6"/><path d="M305.19,139.55s0-.02-.01-.03c0,0-.01-.02-.02-.02,0,0,0,0,0,0-.02-.02-.04-.03-.05-.06-.01-.02-.02-.04-.03-.06,0-.02-.01-.05-.02-.07,0-.02,0-.04,0-.06,0-.02.01-.04.02-.06,0-.01,0-.02,0-.03,0-.01,0-.02,0-.03,0,0,0-.02-.01-.03,0,0,0,0,0-.01,0,0,0,0-.01-.01,0,0-.02-.01-.03-.01-.01,0-.02,0-.03,0-.01,0-.02,0-.03,0,0,0,0,0,0,0-.02,0-.05.01-.08.02-.02,0-.05,0-.07,0-.02,0-.05-.01-.07-.02-.02,0-.04-.02-.05-.03-.02-.01-.03-.03-.05-.05,0,0-.01-.02-.02-.02,0,0-.02-.01-.03-.01-.01,0-.02,0-.03,0,0,0,0,0-.01,0,0,0-.01,0-.02,0,0,0-.02,0-.02.02,0,0-.01.01-.02.02,0,0,0,.02-.01.03,0,0,0,0,0,0,0,.03-.01.05-.02.07,0,.02-.02.04-.04.06-.02.02-.03.03-.05.05-.02.01-.04.02-.06.03-.02,0-.04.01-.07.02-.01,0-.02,0-.03,0-.01,0-.02.01-.03.02,0,0-.01.02-.02.03,0,0,0,0,0,.01,0,0,0,.01,0,.02,0,0,0,.02,0,.03,0,0,0,.02,0,.03,0,0,.01.02.02.02,0,0,0,0,0,0,.02.02.04.03.05.06.01.02.02.04.03.06,0,.02.01.04.02.07,0,.02,0,.04,0,.06,0,.02-.01.04-.02.06,0,.01,0,.02,0,.03,0,.01,0,.02,0,.03s0,.02.02.03c0,0,0,0,0,.01,0,0,0,0,.01.01,0,0,.02.01.03.01,0,0,.02,0,.03,0,.01,0,.02,0,.03,0,0,0,0,0,0,0,.03,0,.05-.02.08-.02.02,0,.05,0,.07,0,.02,0,.05.01.07.02.02,0,.04.02.05.03.02.01.03.03.05.05,0,0,.02.02.02.02,0,0,.02.01.03.01.01,0,.02,0,.03,0,0,0,0,0,.01,0,0,0,.01,0,.02,0,0,0,.02,0,.03-.02s.01-.01.02-.02c0,0,0-.02.01-.03,0,0,0,0,0,0,0-.02.01-.05.02-.07,0-.02.02-.04.04-.06.02-.02.03-.03.05-.05.02-.01.04-.02.06-.03.02,0,.04-.01.07-.02.01,0,.02,0,.03,0,.01,0,.02-.01.03-.02,0,0,.01-.02.02-.03,0,0,0,0,0-.01,0,0,0-.01,0-.02,0,0,0-.02,0-.03Z" class="cls-6"/><path d="M346.09,138.23c-.68,0-1.24.54-1.24,1.22s.55,1.22,1.24,1.22,1.24-.54,1.24-1.22-.55-1.22-1.24-1.22Z" class="cls-6"/><path d="M346.62,139.55s0-.02-.01-.03c0,0-.01-.02-.02-.02,0,0,0,0,0,0-.02-.02-.04-.03-.05-.06-.01-.02-.02-.04-.03-.06,0-.02-.01-.05-.02-.07,0-.02,0-.04,0-.06,0-.02.01-.04.02-.06,0-.01,0-.02,0-.03,0-.01,0-.02,0-.03,0,0,0-.02-.01-.03,0,0,0,0,0-.01,0,0,0,0-.01-.01,0,0-.02-.01-.03-.01-.01,0-.02,0-.03,0-.01,0-.02,0-.03,0,0,0,0,0,0,0-.02,0-.05.01-.08.02-.02,0-.05,0-.07,0-.02,0-.05-.01-.07-.02-.02,0-.04-.02-.05-.03-.02-.01-.03-.03-.05-.05,0,0-.01-.02-.02-.02,0,0-.02-.01-.03-.01-.01,0-.02,0-.03,0,0,0,0,0-.01,0,0,0-.01,0-.02,0,0,0-.02,0-.02.02,0,0-.01.01-.02.02,0,0,0,.02-.01.03,0,0,0,0,0,0,0,.03-.01.05-.02.07,0,.02-.02.04-.04.06-.02.02-.03.03-.05.05-.02.01-.04.02-.06.03-.02,0-.04.01-.07.02-.01,0-.02,0-.03,0-.01,0-.02.01-.03.02,0,0-.01.02-.02.03,0,0,0,0,0,.01,0,0,0,.01,0,.02,0,0,0,.02,0,.03,0,0,0,.02,0,.03,0,0,.01.02.02.02,0,0,0,0,0,0,.02.02.04.03.05.06.01.02.02.04.03.06,0,.02.01.04.02.07,0,.02,0,.04,0,.06,0,.02-.01.04-.02.06,0,.01,0,.02,0,.03,0,.01,0,.02,0,.03s0,.02.02.03c0,0,0,0,0,.01,0,0,0,0,.01.01,0,0,.02.01.03.01,0,0,.02,0,.03,0,.01,0,.02,0,.03,0,0,0,0,0,0,0,.03,0,.05-.02.08-.02.02,0,.05,0,.07,0,.02,0,.05.01.07.02.02,0,.04.02.05.03.02.01.03.03.05.05,0,0,.02.02.02.02,0,0,.02.01.03.01.01,0,.02,0,.03,0,0,0,0,0,.01,0,0,0,.01,0,.02,0,0,0,.02,0,.03-.02s.01-.01.02-.02c0,0,0-.02.01-.03,0,0,0,0,0,0,0-.02.01-.05.02-.07,0-.02.02-.04.04-.06.02-.02.03-.03.05-.05.02-.01.04-.02.06-.03.02,0,.04-.01.07-.02.01,0,.02,0,.03,0,.01,0,.02-.01.03-.02,0,0,.01-.02.02-.03,0,0,0,0,0-.01,0,0,0-.01,0-.02,0,0,0-.02,0-.03Z" class="cls-6"/><path d="M349.4,248.16c-.68,0-1.24.54-1.24,1.22s.55,1.22,1.24,1.22,1.24-.54,1.24-1.22-.55-1.22-1.24-1.22Z" class="cls-6"/><path d="M349.92,249.48s0-.02-.01-.03c0,0-.01-.02-.02-.02,0,0,0,0,0,0-.02-.02-.04-.03-.05-.06-.01-.02-.02-.04-.03-.06,0-.02-.01-.05-.02-.07,0-.02,0-.04,0-.06,0-.02.01-.04.02-.06,0-.01,0-.02,0-.03,0-.01,0-.02,0-.03,0,0,0-.02-.01-.03,0,0,0,0,0-.01,0,0,0,0-.01-.01,0,0-.02-.01-.03-.01-.01,0-.02,0-.03,0-.01,0-.02,0-.03,0,0,0,0,0,0,0-.02,0-.05.01-.08.02-.02,0-.05,0-.07,0-.02,0-.05-.01-.07-.02-.02,0-.04-.02-.05-.03-.02-.01-.03-.03-.05-.05,0,0-.01-.02-.02-.02,0,0-.02-.01-.03-.01-.01,0-.02,0-.03,0,0,0,0,0-.01,0,0,0-.01,0-.02,0,0,0-.02,0-.02.02,0,0-.01.01-.02.02,0,0,0,.02-.01.03,0,0,0,0,0,0,0,.03-.01.05-.02.07,0,.02-.02.04-.04.06-.02.02-.03.03-.05.05-.02.01-.04.02-.06.03-.02,0-.04.01-.07.02-.01,0-.02,0-.03,0-.01,0-.02.01-.03.02,0,0-.01.02-.02.03,0,0,0,0,0,.01,0,0,0,.01,0,.02,0,0,0,.02,0,.03,0,0,0,.02,0,.03,0,0,.01.02.02.02,0,0,0,0,0,0,.02.02.04.03.05.06.01.02.02.04.03.06,0,.02.01.04.02.07,0,.02,0,.04,0,.06,0,.02-.01.04-.02.06,0,.01,0,.02,0,.03,0,.01,0,.02,0,.03s0,.02.02.03c0,0,0,0,0,.01,0,0,0,0,.01.01,0,0,.02.01.03.01,0,0,.02,0,.03,0,.01,0,.02,0,.03,0,0,0,0,0,0,0,.03,0,.05-.02.08-.02.02,0,.05,0,.07,0,.02,0,.05.01.07.02.02,0,.04.02.05.03.02.01.03.03.05.05,0,0,.02.02.02.02,0,0,.02.01.03.01.01,0,.02,0,.03,0,0,0,0,0,.01,0,0,0,.01,0,.02,0,0,0,.02,0,.03-.02s.01-.01.02-.02c0,0,0-.02.01-.03,0,0,0,0,0,0,0-.02.01-.05.02-.07,0-.02.02-.04.04-.06.02-.02.03-.03.05-.05.02-.01.04-.02.06-.03.02,0,.04-.01.07-.02.01,0,.02,0,.03,0,.01,0,.02-.01.03-.02,0,0,.01-.02.02-.03,0,0,0,0,0-.01,0,0,0-.01,0-.02,0,0,0-.02,0-.03Z" class="cls-6"/><path d="M342.77,241.78c-.68,0-1.24.54-1.24,1.22s.55,1.22,1.24,1.22,1.24-.54,1.24-1.22-.55-1.22-1.24-1.22Z" class="cls-6"/><path d="M343.29,243.1s0-.02-.01-.03c0,0-.01-.02-.02-.02,0,0,0,0,0,0-.02-.02-.04-.03-.05-.06-.01-.02-.02-.04-.03-.06,0-.02-.01-.05-.02-.07,0-.02,0-.04,0-.06,0-.02.01-.04.02-.06,0-.01,0-.02,0-.03,0-.01,0-.02,0-.03,0,0,0-.02-.01-.03,0,0,0,0,0-.01,0,0,0,0-.01-.01,0,0-.02-.01-.03-.01-.01,0-.02,0-.03,0-.01,0-.02,0-.03,0,0,0,0,0,0,0-.02,0-.05.01-.08.02-.02,0-.05,0-.07,0-.02,0-.05-.01-.07-.02-.02,0-.04-.02-.05-.03-.02-.01-.03-.03-.05-.05,0,0-.01-.02-.02-.02,0,0-.02-.01-.03-.01-.01,0-.02,0-.03,0,0,0,0,0-.01,0,0,0-.01,0-.02,0,0,0-.02,0-.02.02,0,0-.01.01-.02.02,0,0,0,.02-.01.03,0,0,0,0,0,0,0,.03-.01.05-.02.07,0,.02-.02.04-.04.06-.02.02-.03.03-.05.05-.02.01-.04.02-.06.03-.02,0-.04.01-.07.02-.01,0-.02,0-.03,0-.01,0-.02.01-.03.02,0,0-.01.02-.02.03,0,0,0,0,0,.01,0,0,0,.01,0,.02,0,0,0,.02,0,.03,0,0,0,.02,0,.03,0,0,.01.02.02.02,0,0,0,0,0,0,.02.02.04.03.05.06.01.02.02.04.03.06,0,.02.01.04.02.07,0,.02,0,.04,0,.06,0,.02-.01.04-.02.06,0,.01,0,.02,0,.03,0,.01,0,.02,0,.03s0,.02.02.03c0,0,0,0,0,.01,0,0,0,0,.01.01,0,0,.02.01.03.01,0,0,.02,0,.03,0,.01,0,.02,0,.03,0,0,0,0,0,0,0,.03,0,.05-.02.08-.02.02,0,.05,0,.07,0,.02,0,.05.01.07.02.02,0,.04.02.05.03.02.01.03.03.05.05,0,0,.02.02.02.02,0,0,.02.01.03.01.01,0,.02,0,.03,0,0,0,0,0,.01,0,0,0,.01,0,.02,0,0,0,.02,0,.03-.02s.01-.01.02-.02c0,0,0-.02.01-.03,0,0,0,0,0,0,0-.02.01-.05.02-.07,0-.02.02-.04.04-.06.02-.02.03-.03.05-.05.02-.01.04-.02.06-.03.02,0,.04-.01.07-.02.01,0,.02,0,.03,0,.01,0,.02-.01.03-.02,0,0,.01-.02.02-.03,0,0,0,0,0-.01,0,0,0-.01,0-.02,0,0,0-.02,0-.03Z" class="cls-6"/><path d="M266.33,244.21c-.68,0-1.24-.54-1.24-1.22s.55-1.22,1.24-1.22,1.24.54,1.24,1.22-.55,1.22-1.24,1.22Z" class="cls-6"/><path d="M266.85,242.9s0,.02-.01.03c0,0-.01.02-.02.02,0,0,0,0,0,0-.02.02-.04.03-.05.06-.01.02-.02.04-.03.06,0,.02-.01.05-.02.07,0,.02,0,.04,0,.06,0,.02.01.04.02.06,0,.01,0,.02,0,.03,0,.01,0,.02,0,.03,0,0,0,.02-.01.03,0,0,0,0,0,.01,0,0,0,0-.01.01,0,0-.02.01-.03.01-.01,0-.02,0-.03,0-.01,0-.02,0-.03,0,0,0,0,0,0,0-.02,0-.05-.01-.08-.02-.02,0-.05,0-.07,0-.02,0-.05.01-.07.02-.02,0-.04.02-.05.03-.02.01-.03.03-.05.05,0,0-.01.02-.02.02,0,0-.02.01-.03.01-.01,0-.02,0-.03,0,0,0,0,0-.01,0,0,0-.01,0-.02,0,0,0-.02,0-.02-.02,0,0-.01-.01-.02-.02,0,0,0-.02-.01-.03,0,0,0,0,0,0,0-.03-.01-.05-.02-.07,0-.02-.02-.04-.04-.06-.02-.02-.03-.03-.05-.05-.02-.01-.04-.02-.06-.03-.02,0-.04-.01-.07-.02-.01,0-.02,0-.03,0-.01,0-.02-.01-.03-.02,0,0-.01-.02-.02-.03,0,0,0,0,0-.01,0,0,0-.01,0-.02,0,0,0-.02,0-.03,0,0,0-.02,0-.03,0,0,.01-.02.02-.02,0,0,0,0,0,0,.02-.02.04-.03.05-.06.01-.02.02-.04.03-.06,0-.02.01-.04.02-.07,0-.02,0-.04,0-.06,0-.02-.01-.04-.02-.06,0-.01,0-.02,0-.03,0-.01,0-.02,0-.03s0-.02.02-.03c0,0,0,0,0-.01,0,0,0,0,.01-.01,0,0,.02-.01.03-.01,0,0,.02,0,.03,0,.01,0,.02,0,.03,0,0,0,0,0,0,0,.03,0,.05.02.08.02.02,0,.05,0,.07,0,.02,0,.05-.01.07-.02.02,0,.04-.02.05-.03.02-.01.03-.03.05-.05,0,0,.02-.02.02-.02,0,0,.02-.01.03-.01.01,0,.02,0,.03,0,0,0,0,0,.01,0,0,0,.01,0,.02,0,0,0,.02,0,.03.02s.01.01.02.02c0,0,0,.02.01.03,0,0,0,0,0,0,0,.02.01.05.02.07,0,.02.02.04.04.06.02.02.03.03.05.05.02.01.04.02.06.03.02,0,.04.01.07.02.01,0,.02,0,.03,0,.01,0,.02.01.03.02,0,0,.01.02.02.03,0,0,0,0,0,.01,0,0,0,.01,0,.02,0,0,0,.02,0,.03Z" class="cls-6"/><path d="M259.7,250.59c-.68,0-1.24-.54-1.24-1.22s.55-1.22,1.24-1.22,1.24.54,1.24,1.22-.55,1.22-1.24,1.22Z" class="cls-6"/><path d="M260.23,249.28s0,.02-.01.03c0,0-.01.02-.02.02,0,0,0,0,0,0-.02.02-.04.03-.05.06-.01.02-.02.04-.03.06,0,.02-.01.05-.02.07,0,.02,0,.04,0,.06,0,.02.01.04.02.06,0,.01,0,.02,0,.03,0,.01,0,.02,0,.03,0,0,0,.02-.01.03,0,0,0,0,0,.01,0,0,0,0-.01.01,0,0-.02.01-.03.01-.01,0-.02,0-.03,0-.01,0-.02,0-.03,0,0,0,0,0,0,0-.02,0-.05-.01-.08-.02-.02,0-.05,0-.07,0-.02,0-.05.01-.07.02-.02,0-.04.02-.05.03-.02.01-.03.03-.05.05,0,0-.01.02-.02.02,0,0-.02.01-.03.01-.01,0-.02,0-.03,0,0,0,0,0-.01,0,0,0-.01,0-.02,0,0,0-.02,0-.02-.02,0,0-.01-.01-.02-.02,0,0,0-.02-.01-.03,0,0,0,0,0,0,0-.03-.01-.05-.02-.07,0-.02-.02-.04-.04-.06-.02-.02-.03-.03-.05-.05-.02-.01-.04-.02-.06-.03-.02,0-.04-.01-.07-.02-.01,0-.02,0-.03,0-.01,0-.02-.01-.03-.02,0,0-.01-.02-.02-.03,0,0,0,0,0-.01,0,0,0-.01,0-.02,0,0,0-.02,0-.03,0,0,0-.02,0-.03,0,0,.01-.02.02-.02,0,0,0,0,0,0,.02-.02.04-.03.05-.06.01-.02.02-.04.03-.06,0-.02.01-.04.02-.07,0-.02,0-.04,0-.06,0-.02-.01-.04-.02-.06,0-.01,0-.02,0-.03,0-.01,0-.02,0-.03s0-.02.02-.03c0,0,0,0,0-.01,0,0,0,0,.01-.01,0,0,.02-.01.03-.01,0,0,.02,0,.03,0,.01,0,.02,0,.03,0,0,0,0,0,0,0,.03,0,.05.02.08.02.02,0,.05,0,.07,0,.02,0,.05-.01.07-.02.02,0,.04-.02.05-.03.02-.01.03-.03.05-.05,0,0,.02-.02.02-.02,0,0,.02-.01.03-.01.01,0,.02,0,.03,0,0,0,0,0,.01,0,0,0,.01,0,.02,0,0,0,.02,0,.03.02s.01.01.02.02c0,0,0,.02.01.03,0,0,0,0,0,0,0,.02.01.05.02.07,0,.02.02.04.04.06.02.02.03.03.05.05.02.01.04.02.06.03.02,0,.04.01.07.02.01,0,.02,0,.03,0,.01,0,.02.01.03.02,0,0,.01.02.02.03,0,0,0,0,0,.01,0,0,0,.01,0,.02,0,0,0,.02,0,.03Z" class="cls-6"/><line y2="28.81" x2="21.01" y1="28.81" x1="229.38" class="cls-2"/><rect height="2.16" width=".33" y="27.73" x="229.21" class="cls-8"/><rect height="2.16" width=".33" y="27.73" x="20.84" class="cls-8"/><g id="MTEXT"><path d="M6.59,75.87c-.12.24-.29.44-.51.61-.22.17-.5.3-.82.39s-.69.14-1.09.14-.8-.05-1.15-.15c-.35-.1-.64-.24-.89-.43-.25-.18-.43-.41-.56-.67-.13-.26-.2-.55-.2-.88,0-.37.09-.7.27-.97.18-.27.43-.47.76-.59l.29.64c-.21.07-.37.18-.48.34-.11.16-.17.35-.17.56,0,.2.05.38.14.55s.23.31.4.44c.17.13.37.22.61.29s.49.1.77.1h.17c.06,0,.1,0,.15,0-.25-.08-.45-.23-.59-.45-.14-.22-.21-.48-.21-.79,0-.24.04-.46.12-.65.08-.2.19-.36.34-.5.15-.14.32-.25.52-.33.2-.08.42-.12.66-.12s.47.04.68.13c.21.08.38.2.53.35.14.15.26.32.34.53s.12.43.12.68c0,.3-.06.57-.18.81ZM6.02,74.7c-.05-.12-.12-.22-.21-.3-.09-.08-.19-.15-.31-.2-.12-.05-.26-.07-.41-.07s-.29.02-.41.07c-.12.05-.23.12-.32.2s-.16.19-.21.31-.07.25-.07.4.02.27.07.39.12.22.2.31c.09.09.19.15.31.2.12.05.25.07.4.07s.28-.03.41-.08.24-.12.34-.21.17-.2.22-.32c.05-.12.08-.26.08-.4s-.03-.26-.08-.38Z"/><path d="M6.66,71.72c-.07.22-.17.4-.31.56-.13.15-.29.28-.47.36s-.38.13-.6.13c-.16,0-.31-.02-.45-.07-.15-.05-.28-.11-.4-.2-.12-.09-.22-.19-.3-.31s-.14-.25-.18-.4c-.05.14-.12.25-.2.36-.08.1-.17.19-.27.27s-.21.13-.33.17c-.12.04-.25.06-.38.06-.21,0-.39-.04-.56-.12-.17-.08-.32-.2-.44-.34-.13-.14-.22-.32-.29-.52-.07-.2-.1-.42-.1-.66s.03-.46.1-.66c.07-.2.17-.37.29-.52.12-.15.27-.26.44-.35.17-.08.36-.13.57-.13.13,0,.26.02.38.06.12.04.24.1.34.17.1.07.19.16.27.27.08.1.14.22.19.35.04-.15.1-.28.18-.4s.19-.22.31-.3c.12-.08.25-.15.4-.2.14-.05.29-.07.45-.07.21,0,.41.04.6.13.18.09.34.21.47.36.13.15.24.34.31.56.07.22.11.46.11.72s-.04.5-.11.72ZM2.1,71.36c.04.11.09.2.16.28.07.08.15.14.26.18s.21.07.33.07c.11,0,.22-.02.32-.07.1-.04.19-.11.26-.19.07-.08.13-.17.17-.28s.06-.23.06-.35-.02-.25-.06-.35c-.04-.1-.1-.2-.17-.28s-.16-.14-.26-.19c-.1-.04-.21-.07-.32-.07-.12,0-.23.02-.33.07-.1.04-.19.11-.26.19-.07.08-.12.17-.16.28-.04.11-.06.23-.06.36s.02.24.06.35ZM6.03,70.59c-.04-.13-.11-.23-.19-.32-.08-.09-.18-.16-.29-.21-.11-.05-.24-.08-.37-.08s-.26.03-.37.08c-.11.05-.21.12-.29.21-.08.09-.15.2-.2.33-.05.13-.07.26-.07.41s.02.28.07.41c.04.13.11.23.19.33s.18.16.3.21c.11.05.24.07.37.07.14,0,.27-.02.38-.07.11-.05.21-.12.29-.21.08-.09.14-.2.19-.33.04-.13.07-.26.07-.41s-.02-.29-.07-.41Z"/><path d="M1.57,65.81c.13-.25.32-.47.55-.65.23-.18.52-.32.85-.42.33-.1.69-.15,1.08-.15s.76.05,1.1.15.62.24.86.42c.24.18.43.4.56.65.13.25.2.52.2.83s-.07.57-.2.82-.32.47-.56.65c-.24.18-.53.32-.86.42-.33.1-.7.15-1.1.15s-.75-.05-1.08-.15c-.33-.1-.61-.24-.85-.42-.24-.18-.42-.4-.55-.65-.13-.25-.2-.53-.2-.83s.07-.58.2-.83ZM2.2,67.16c.1.16.23.29.41.41.18.11.38.2.63.27.24.07.51.1.81.1s.57-.03.82-.09c.25-.06.46-.15.64-.27.18-.12.32-.25.42-.41.1-.16.15-.33.15-.52s-.05-.37-.15-.53c-.1-.16-.24-.3-.42-.41-.18-.11-.39-.2-.64-.27-.25-.06-.52-.09-.82-.09s-.56.03-.81.09c-.25.06-.46.15-.63.26-.17.11-.31.25-.41.41-.1.16-.15.34-.15.53s.05.37.15.52Z"/><path d="M3.07,60.98h.67c-.24-.11-.42-.26-.54-.45-.12-.18-.18-.4-.18-.63,0-.26.07-.48.2-.67.14-.19.33-.32.59-.41-.26-.11-.45-.27-.59-.46-.14-.2-.2-.43-.2-.7,0-.38.12-.67.37-.88.25-.21.61-.31,1.07-.31h2.25v.7h-2.16c-.29,0-.52.07-.69.2-.17.13-.25.31-.25.54,0,.12.02.22.07.32.05.1.11.18.2.26.09.07.19.13.32.16.12.04.26.06.4.06h2.11v.7h-2.16c-.14,0-.27.02-.38.06-.12.04-.22.09-.3.15-.08.06-.14.14-.19.23-.04.09-.07.2-.07.31s.02.22.07.32c.05.1.12.18.21.25.09.07.2.12.32.17.12.04.26.06.41.06h2.09v.7h-3.64v-.68Z"/><path d="M3.07,54.8h.67c-.24-.11-.42-.26-.54-.45-.12-.18-.18-.4-.18-.63,0-.26.07-.48.2-.67.14-.19.33-.32.59-.41-.26-.11-.45-.27-.59-.46-.14-.2-.2-.43-.2-.7,0-.38.12-.67.37-.88.25-.21.61-.31,1.07-.31h2.25v.7h-2.16c-.29,0-.52.07-.69.2-.17.13-.25.31-.25.54,0,.12.02.22.07.32.05.1.11.18.2.26.09.07.19.13.32.16.12.04.26.06.4.06h2.11v.7h-2.16c-.14,0-.27.02-.38.06-.12.04-.22.09-.3.15-.08.06-.14.14-.19.23-.04.09-.07.2-.07.31s.02.22.07.32c.05.1.12.18.21.25.09.07.2.12.32.17.12.04.26.06.41.06h2.09v.7h-3.64v-.68Z"/></g><line y2="110.7" x2="10.76" y1="16.4" x1="10.76" class="cls-3"/><rect height=".35" width="2.29" y="16.22" x="9.62" class="cls-8"/><rect height=".35" width="2.29" y="110.52" x="9.62" class="cls-8"/><g id="MTEXT-2"><path d="M2.65,222.15h5.29v.72H3.39l.64,1.3h-.73l-.67-1.36v-.67Z"/><path d="M2.65,219.31h5.29v.72H3.39l.64,1.3h-.73l-.67-1.36v-.67Z"/><path d="M2.79,215.61c.13-.25.32-.47.55-.65.23-.18.52-.32.85-.42.33-.1.69-.15,1.08-.15s.76.05,1.1.15.62.24.86.42c.24.18.43.4.56.65.13.25.2.52.2.83s-.07.57-.2.82-.32.47-.56.65c-.24.18-.53.32-.86.42-.33.1-.7.15-1.1.15s-.75-.05-1.08-.15c-.33-.1-.61-.24-.85-.42-.24-.18-.42-.4-.55-.65-.13-.25-.2-.53-.2-.83s.07-.58.2-.83ZM3.42,216.96c.1.16.23.29.41.41.18.11.38.2.63.27.24.07.51.1.81.1s.57-.03.82-.09c.25-.06.46-.15.64-.27.18-.12.32-.25.42-.41.1-.16.15-.33.15-.52s-.05-.37-.15-.53c-.1-.16-.24-.3-.42-.41-.18-.11-.39-.2-.64-.27-.25-.06-.52-.09-.82-.09s-.56.03-.81.09c-.25.06-.46.15-.63.26-.17.11-.31.25-.41.41-.1.16-.15.34-.15.53s.05.37.15.52Z"/><path d="M2.79,210.97c.13-.25.32-.47.55-.65.23-.18.52-.32.85-.42.33-.1.69-.15,1.08-.15s.76.05,1.1.15.62.24.86.42c.24.18.43.4.56.65.13.25.2.52.2.83s-.07.57-.2.82-.32.47-.56.65c-.24.18-.53.32-.86.42-.33.1-.7.15-1.1.15s-.75-.05-1.08-.15c-.33-.1-.61-.24-.85-.42-.24-.18-.42-.4-.55-.65-.13-.25-.2-.53-.2-.83s.07-.58.2-.83ZM3.42,212.33c.1.16.23.29.41.41.18.11.38.2.63.27.24.07.51.1.81.1s.57-.03.82-.09c.25-.06.46-.15.64-.27.18-.12.32-.25.42-.41.1-.16.15-.33.15-.52s-.05-.37-.15-.53c-.1-.16-.24-.3-.42-.41-.18-.11-.39-.2-.64-.27-.25-.06-.52-.09-.82-.09s-.56.03-.81.09c-.25.06-.46.15-.63.26-.17.11-.31.25-.41.41-.1.16-.15.34-.15.53s.05.37.15.52Z"/><path d="M4.29,206.14h.67c-.24-.11-.42-.26-.54-.45-.12-.18-.18-.4-.18-.63,0-.26.07-.48.2-.67.14-.19.33-.32.59-.41-.26-.11-.45-.27-.59-.46-.14-.2-.2-.43-.2-.7,0-.38.12-.67.37-.88.25-.21.61-.31,1.07-.31h2.25v.7h-2.16c-.29,0-.52.07-.69.2-.17.13-.25.31-.25.54,0,.12.02.22.07.32.05.1.11.18.2.26.09.07.19.13.32.16.12.04.26.06.4.06h2.11v.7h-2.16c-.14,0-.27.02-.38.06-.12.04-.22.09-.3.15-.08.06-.14.14-.19.23-.04.09-.07.2-.07.31s.02.22.07.32c.05.1.12.18.21.25.09.07.2.12.32.17.12.04.26.06.41.06h2.09v.7h-3.64v-.68Z"/><path d="M4.29,199.96h.67c-.24-.11-.42-.26-.54-.45-.12-.18-.18-.4-.18-.63,0-.26.07-.48.2-.67.14-.19.33-.32.59-.41-.26-.11-.45-.27-.59-.46-.14-.2-.2-.43-.2-.7,0-.38.12-.67.37-.88.25-.21.61-.31,1.07-.31h2.25v.7h-2.16c-.29,0-.52.07-.69.2-.17.13-.25.31-.25.54,0,.12.02.22.07.32.05.1.11.18.2.26.09.07.19.13.32.16.12.04.26.06.4.06h2.11v.7h-2.16c-.14,0-.27.02-.38.06-.12.04-.22.09-.3.15-.08.06-.14.14-.19.23-.04.09-.07.2-.07.31s.02.22.07.32c.05.1.12.18.21.25.09.07.2.12.32.17.12.04.26.06.41.06h2.09v.7h-3.64v-.68Z"/></g><line y2="287.03" x2="10.76" y1="132.37" x1="10.76" class="cls-4"/><rect height=".35" width="2.29" y="132.19" x="9.62" class="cls-8"/><rect height=".35" width="2.29" y="286.85" x="9.62" class="cls-8"/><polygon points="229.24 132.19 229.24 132.24 216.73 132.24 216.73 144.5 33.63 144.5 33.63 132.19 229.24 132.19" class="cls-7"/><rect height="12.31" width="183.1" y="239.14" x="33.63" class="cls-7"/><rect height="149.43" width="12.51" y="132.19" x="21.12" class="cls-7"/><rect transform="translate(393.44 143.08) rotate(90)" height="12.61" width="33.64" y="261.95" x="108.36" class="cls-7"/><rect height="5.59" width="13.99" y="281.62" x="21.12" class="cls-7"/><rect height="5.59" width="13.99" y="281.62" x="215.24" class="cls-7"/><rect height="149.38" width="12.51" y="132.24" x="216.73" class="cls-7"/><path d="M128.48,247.18c-.68,0-1.24.54-1.24,1.21s.55,1.21,1.24,1.21,1.24-.54,1.24-1.21-.55-1.21-1.24-1.21Z" class="cls-7"/><path d="M129,248.49s0-.02-.01-.03c0,0-.01-.02-.02-.02,0,0,0,0,0,0-.02-.02-.04-.03-.05-.06-.01-.02-.02-.04-.03-.06,0-.02-.01-.05-.02-.07,0-.02,0-.04,0-.06,0-.02.01-.04.02-.06,0-.01,0-.02,0-.03,0-.01,0-.02,0-.03,0,0,0-.02-.01-.03,0,0,0,0,0-.01,0,0,0,0-.01-.01,0,0-.02-.01-.03-.01-.01,0-.02,0-.03,0-.01,0-.02,0-.03,0,0,0,0,0,0,0-.02,0-.05.01-.08.02-.02,0-.05,0-.07,0-.02,0-.05-.01-.07-.02-.02,0-.04-.02-.05-.03-.02-.01-.03-.03-.05-.05,0,0-.01-.02-.02-.02,0,0-.02-.01-.03-.01-.01,0-.02,0-.03,0,0,0,0,0-.01,0,0,0-.01,0-.02,0,0,0-.02,0-.02.02,0,0-.01.01-.02.02,0,0,0,.02-.01.03,0,0,0,0,0,0,0,.03-.01.05-.02.07,0,.02-.02.04-.04.06-.02.02-.03.03-.05.05-.02.01-.04.02-.06.03-.02,0-.04.01-.07.02-.01,0-.02,0-.03,0-.01,0-.02.01-.03.02,0,0-.01.02-.02.03,0,0,0,0,0,.01,0,0,0,.01,0,.02,0,0,0,.02,0,.03,0,0,0,.02,0,.03,0,0,.01.02.02.02,0,0,0,0,0,0,.02.02.04.03.05.05.01.02.02.04.03.06,0,.02.01.04.02.07,0,.02,0,.04,0,.06,0,.02-.01.04-.02.06,0,.01,0,.02,0,.03,0,.01,0,.02,0,.03s0,.02.02.03c0,0,0,0,0,.01,0,0,0,0,.01.01,0,0,.02.01.03.01,0,0,.02,0,.03,0,.01,0,.02,0,.03,0,0,0,0,0,0,0,.02,0,.05-.02.08-.02.02,0,.05,0,.07,0,.02,0,.05.01.07.02.02,0,.04.02.05.03.02.01.03.03.05.05,0,0,.02.02.02.02,0,0,.02.01.03.01.01,0,.02,0,.03,0,0,0,0,0,.01,0,0,0,.01,0,.02,0,0,0,.02,0,.02-.02s.01-.01.02-.02c0,0,0-.02.01-.03,0,0,0,0,0,0,0-.02.01-.05.02-.07,0-.02.02-.04.04-.06.02-.02.03-.03.05-.05.02-.01.04-.02.06-.03.02,0,.04-.01.07-.02.01,0,.02,0,.03,0,.01,0,.02-.01.03-.02,0,0,.01-.02.02-.03,0,0,0,0,0-.01,0,0,0-.01,0-.02,0,0,0-.02,0-.03Z" class="cls-7"/><path d="M121.87,240.81c-.68,0-1.24.54-1.24,1.21s.55,1.21,1.24,1.21,1.24-.54,1.24-1.21-.55-1.21-1.24-1.21Z" class="cls-7"/><path d="M122.39,242.13s0-.02-.01-.03c0,0-.01-.02-.02-.02,0,0,0,0,0,0-.02-.02-.04-.03-.05-.06-.01-.02-.02-.04-.03-.06,0-.02-.01-.05-.02-.07,0-.02,0-.04,0-.06,0-.02.01-.04.02-.06,0-.01,0-.02,0-.03,0-.01,0-.02,0-.03,0,0,0-.02-.01-.03,0,0,0,0,0-.01,0,0,0,0-.01-.01,0,0-.02-.01-.03-.01-.01,0-.02,0-.03,0-.01,0-.02,0-.03,0,0,0,0,0,0,0-.02,0-.05.01-.08.02-.02,0-.05,0-.07,0-.02,0-.05-.01-.07-.02-.02,0-.04-.02-.05-.03-.02-.01-.03-.03-.05-.05,0,0-.01-.02-.02-.02,0,0-.02-.01-.03-.01-.01,0-.02,0-.03,0,0,0,0,0-.01,0,0,0-.01,0-.02,0,0,0-.02,0-.02.02,0,0-.01.01-.02.02,0,0,0,.02-.01.03,0,0,0,0,0,0,0,.03-.01.05-.02.07,0,.02-.02.04-.04.06-.02.02-.03.03-.05.05-.02.01-.04.02-.06.03-.02,0-.04.01-.07.02-.01,0-.02,0-.03,0-.01,0-.02.01-.03.02,0,0-.01.02-.02.03,0,0,0,0,0,.01,0,0,0,.01,0,.02,0,0,0,.02,0,.03,0,0,0,.02,0,.03,0,0,.01.02.02.02,0,0,0,0,0,0,.02.02.04.03.05.05.01.02.02.04.03.06,0,.02.01.04.02.07,0,.02,0,.04,0,.06,0,.02-.01.04-.02.06,0,.01,0,.02,0,.03,0,.01,0,.02,0,.03s0,.02.02.03c0,0,0,0,0,.01,0,0,0,0,.01.01,0,0,.02.01.03.01,0,0,.02,0,.03,0,.01,0,.02,0,.03,0,0,0,0,0,0,0,.02,0,.05-.02.08-.02.02,0,.05,0,.07,0,.02,0,.05.01.07.02.02,0,.04.02.05.03.02.01.03.03.05.05,0,0,.02.02.02.02,0,0,.02.01.03.01.01,0,.02,0,.03,0,0,0,0,0,.01,0,0,0,.01,0,.02,0,0,0,.02,0,.02-.02s.01-.01.02-.02c0,0,0-.02.01-.03,0,0,0,0,0,0,0-.02.01-.05.02-.07,0-.02.02-.04.04-.06.02-.02.03-.03.05-.05.02-.01.04-.02.06-.03.02,0,.04-.01.07-.02.01,0,.02,0,.03,0,.01,0,.02-.01.03-.02,0,0,.01-.02.02-.03,0,0,0,0,0-.01,0,0,0-.01,0-.02,0,0,0-.02,0-.03Z" class="cls-7"/><line y2="8.86" x2="21.01" y1="8.86" x1="229.38" class="cls-2"/><rect height="2.16" width=".33" y="7.78" x="229.21" class="cls-8"/><rect height="2.16" width=".33" y="7.78" x="20.84" class="cls-8"/><path d="M112.04.86v5.29h-.72V1.61l-1.3.64v-.73l1.36-.67h.67Z"/><path d="M115.99.86v.65h-1.92l-.25,1.54c.1-.09.22-.16.36-.21.14-.05.29-.07.46-.07.25,0,.47.04.68.13.21.08.38.2.53.35.15.15.27.33.35.54.08.21.12.44.12.69s-.04.48-.13.7c-.09.21-.21.4-.36.55-.16.15-.34.27-.56.36-.21.08-.45.13-.71.13-.2,0-.39-.03-.58-.08s-.35-.13-.5-.23c-.15-.1-.28-.22-.39-.36-.11-.14-.19-.3-.24-.48l.63-.31c.07.24.19.43.39.56.19.14.42.21.67.21.15,0,.29-.03.41-.08.13-.05.23-.12.33-.21.09-.09.16-.2.21-.33.05-.13.08-.27.08-.43s-.03-.3-.08-.44c-.05-.13-.13-.25-.22-.34s-.21-.17-.34-.22c-.13-.05-.28-.08-.44-.08-.18,0-.35.04-.49.1-.14.07-.26.17-.36.31l-.62-.15.47-2.79h2.52Z"/><path d="M119.73,1c.25.13.47.32.65.55.18.23.32.52.42.85.1.33.15.69.15,1.08s-.05.76-.15,1.1-.24.62-.42.86c-.18.24-.4.43-.65.56-.25.13-.52.2-.83.2s-.57-.07-.82-.2-.47-.32-.65-.56c-.18-.24-.32-.53-.42-.86-.1-.33-.15-.7-.15-1.1s.05-.75.15-1.08c.1-.33.24-.61.42-.85.18-.24.4-.42.65-.55.25-.13.53-.2.83-.2s.58.07.83.2ZM118.38,1.63c-.16.1-.29.23-.41.41-.11.18-.2.38-.27.63-.07.24-.1.51-.1.81s.03.57.09.82c.06.25.15.46.27.64.12.18.25.32.41.42.16.1.33.15.52.15s.37-.05.53-.15c.16-.1.3-.24.41-.42.11-.18.2-.39.27-.64.06-.25.09-.52.09-.82s-.03-.56-.09-.81c-.06-.25-.15-.46-.26-.63-.11-.17-.25-.31-.41-.41-.16-.1-.34-.15-.53-.15s-.37.05-.52.15Z"/><path d="M124.37,1c.25.13.47.32.65.55.18.23.32.52.42.85.1.33.15.69.15,1.08s-.05.76-.15,1.1-.24.62-.42.86c-.18.24-.4.43-.65.56-.25.13-.52.2-.83.2s-.57-.07-.82-.2-.47-.32-.65-.56c-.18-.24-.32-.53-.42-.86-.1-.33-.15-.7-.15-1.1s.05-.75.15-1.08c.1-.33.24-.61.42-.85.18-.24.4-.42.65-.55.25-.13.53-.2.83-.2s.58.07.83.2ZM123.01,1.63c-.16.1-.29.23-.41.41-.11.18-.2.38-.27.63-.07.24-.1.51-.1.81s.03.57.09.82c.06.25.15.46.27.64.12.18.25.32.41.42.16.1.33.15.52.15s.37-.05.53-.15c.16-.1.3-.24.41-.42.11-.18.2-.39.27-.64.06-.25.09-.52.09-.82s-.03-.56-.09-.81c-.06-.25-.15-.46-.26-.63-.11-.17-.25-.31-.41-.41-.16-.1-.34-.15-.53-.15s-.37.05-.52.15Z"/><path d="M129.2,2.5v.67c.11-.24.26-.42.45-.54.18-.12.4-.18.63-.18.26,0,.48.07.67.2.19.14.32.33.41.59.11-.26.27-.45.46-.59.2-.14.43-.2.7-.2.38,0,.67.12.88.37.21.25.31.61.31,1.07v2.25h-.7v-2.16c0-.29-.07-.52-.2-.69-.13-.17-.31-.25-.54-.25-.12,0-.22.02-.32.07-.1.05-.18.11-.26.2-.07.09-.13.19-.16.32-.04.12-.06.26-.06.4v2.11h-.7v-2.16c0-.14-.02-.27-.06-.38-.04-.12-.09-.22-.15-.3-.06-.08-.14-.14-.23-.19-.09-.04-.2-.07-.31-.07s-.22.02-.32.07c-.1.05-.18.12-.25.21-.07.09-.12.2-.17.32-.04.12-.06.26-.06.41v2.09h-.7v-3.64h.68Z"/><path d="M135.38,2.5v.67c.11-.24.26-.42.45-.54.18-.12.4-.18.63-.18.26,0,.48.07.67.2.19.14.32.33.41.59.11-.26.27-.45.46-.59.2-.14.43-.2.7-.2.38,0,.67.12.88.37.21.25.31.61.31,1.07v2.25h-.7v-2.16c0-.29-.07-.52-.2-.69-.13-.17-.31-.25-.54-.25-.12,0-.22.02-.32.07-.1.05-.18.11-.26.2-.07.09-.13.19-.16.32-.04.12-.06.26-.06.4v2.11h-.7v-2.16c0-.14-.02-.27-.06-.38-.04-.12-.09-.22-.15-.3-.06-.08-.14-.14-.23-.19-.09-.04-.2-.07-.31-.07s-.22.02-.32.07c-.1.05-.18.12-.25.21-.07.09-.12.2-.17.32-.04.12-.06.26-.06.41v2.09h-.7v-3.64h.68Z"/></g></g></svg>