<svg viewBox="0 0 531.27 288" xmlns:xlink="http://www.w3.org/1999/xlink" xmlns="http://www.w3.org/2000/svg" id="Camada_2"><defs><style>.cls-1,.cls-2,.cls-3{fill:none;}.cls-4{fill:#12100c;}.cls-2{stroke-width:.3px;}.cls-2,.cls-3{stroke:#12100c;stroke-linecap:round;stroke-linejoin:round;}.cls-3{stroke-width:.3px;}</style><symbol viewBox="0 0 531.27 288" id="fundo_transparente"><rect height="288" width="531.27" x="0" class="cls-1"/></symbol></defs><g id="Nature"><g id="Rotas_cicláveis"><g id="placas_direcionais_M"><use xlink:href="#fundo_transparente" height="288" width="531.27"/><g id="MTEXT"><path d="M146.79,123.66v5.29h-.73v-4.36s-.04.08-.06.1c-.02.03-.04.06-.07.09l-1.35,2.02s-.04.06-.05.08c0,.02-.03.05-.06.08h3.21v.64h-3.98v-.59l2.22-3.35h.87Z"/><path d="M151.22,123.66v.65h-1.92l-.25,1.54c.1-.09.22-.16.36-.21.14-.05.29-.07.46-.07.25,0,.47.04.68.13.21.08.38.2.53.35s.27.33.35.54c.08.21.12.44.12.69s-.04.48-.13.7c-.09.21-.21.4-.36.55-.16.15-.34.27-.56.36s-.45.13-.72.13c-.2,0-.39-.03-.57-.08-.18-.05-.35-.13-.5-.23-.15-.1-.28-.22-.39-.36-.11-.14-.19-.3-.24-.48l.63-.31c.07.24.19.43.39.56.19.14.42.21.67.21.15,0,.29-.03.41-.08.13-.05.23-.12.33-.21.09-.09.16-.2.21-.33.05-.13.08-.27.08-.43s-.03-.3-.08-.44c-.05-.13-.13-.25-.22-.34-.1-.1-.21-.17-.34-.22s-.28-.08-.45-.08c-.18,0-.34.04-.49.1-.14.07-.26.17-.36.31l-.62-.15.47-2.79h2.52Z"/><path d="M154.96,123.81c.25.13.47.32.65.55.18.23.32.52.42.85.1.33.15.69.15,1.08s-.05.76-.15,1.1c-.1.33-.24.62-.42.86-.18.24-.4.43-.64.56-.25.13-.52.2-.83.2s-.57-.07-.82-.2c-.25-.13-.47-.32-.65-.56-.18-.24-.32-.53-.42-.86s-.15-.7-.15-1.1.05-.75.15-1.08c.1-.33.24-.61.42-.85.18-.24.4-.42.65-.55.25-.13.53-.2.83-.2s.58.07.83.2ZM153.6,124.44c-.16.1-.29.23-.41.41-.11.18-.2.38-.27.63-.07.24-.1.51-.1.81s.03.57.09.82c.06.25.15.46.27.64.12.18.25.32.41.42.16.1.33.15.52.15s.37-.05.53-.15c.16-.1.3-.24.41-.42.11-.18.2-.39.27-.64.06-.25.09-.52.09-.82s-.03-.56-.09-.81c-.06-.25-.15-.46-.26-.63-.11-.17-.25-.31-.41-.41-.16-.1-.34-.15-.53-.15s-.37.05-.52.15Z"/><path d="M159.78,125.31v.67c.11-.24.26-.42.44-.54.19-.12.4-.18.63-.18.26,0,.48.07.67.2.19.14.32.33.41.59.11-.26.27-.45.46-.59.2-.14.43-.2.7-.2.38,0,.67.12.88.37.21.25.31.61.31,1.07v2.25h-.7v-2.16c0-.29-.07-.52-.2-.69-.13-.17-.31-.25-.54-.25-.12,0-.22.02-.32.07-.1.05-.18.11-.26.2-.07.09-.13.19-.17.32-.04.12-.06.26-.06.4v2.11h-.7v-2.16c0-.14-.02-.27-.06-.38s-.09-.22-.15-.3c-.06-.08-.14-.14-.23-.19-.09-.04-.2-.07-.31-.07s-.22.02-.32.07c-.1.05-.18.12-.25.21-.07.09-.12.2-.17.32-.04.12-.06.26-.06.41v2.09h-.7v-3.64h.68Z"/><path d="M165.97,125.31v.67c.11-.24.26-.42.44-.54.19-.12.4-.18.63-.18.26,0,.48.07.67.2.19.14.32.33.41.59.11-.26.27-.45.46-.59.2-.14.43-.2.7-.2.38,0,.67.12.88.37.21.25.31.61.31,1.07v2.25h-.7v-2.16c0-.29-.07-.52-.2-.69-.13-.17-.31-.25-.54-.25-.12,0-.22.02-.32.07-.1.05-.18.11-.26.2-.07.09-.13.19-.17.32-.04.12-.06.26-.06.4v2.11h-.7v-2.16c0-.14-.02-.27-.06-.38s-.09-.22-.15-.3c-.06-.08-.14-.14-.23-.19-.09-.04-.2-.07-.31-.07s-.22.02-.32.07c-.1.05-.18.12-.25.21-.07.09-.12.2-.17.32-.04.12-.06.26-.06.41v2.09h-.7v-3.64h.68Z"/></g><g id="MTEXT-2"><path d="M5.68,249.35h5.28v.72h-4.54l.64,1.3h-.73l-.66-1.36v-.67Z"/><path d="M5.68,245.4h.65v1.92l1.54.25c-.09-.1-.16-.22-.21-.36-.05-.14-.07-.29-.07-.46,0-.25.04-.47.13-.68.08-.21.2-.38.35-.53.15-.15.33-.27.54-.35.21-.08.44-.12.69-.12s.48.04.7.13c.21.09.4.21.55.36s.27.34.36.56c.08.21.13.45.13.71,0,.2-.03.39-.08.58-.05.18-.13.35-.23.5-.1.15-.22.28-.36.39-.14.11-.3.19-.48.24l-.31-.63c.24-.07.43-.19.56-.39.14-.19.21-.42.21-.67,0-.15-.03-.29-.08-.41-.05-.13-.12-.23-.21-.33-.09-.09-.2-.16-.33-.21-.13-.05-.27-.08-.43-.08s-.3.03-.44.08-.25.13-.34.22-.17.21-.22.34c-.05.13-.08.28-.08.44,0,.18.04.35.1.49.07.14.17.26.31.36l-.15.62-2.79-.47v-2.52Z"/><path d="M5.83,241.66c.13-.25.32-.47.55-.65.23-.18.52-.32.85-.42.33-.1.69-.15,1.09-.15s.76.05,1.1.15c.33.1.62.24.86.42s.43.4.56.65c.13.25.2.52.2.83s-.07.57-.2.82c-.13.25-.32.47-.56.65-.24.18-.53.32-.86.42-.33.1-.7.15-1.1.15s-.75-.05-1.09-.15c-.33-.1-.61-.24-.85-.42-.24-.18-.42-.4-.55-.65-.13-.25-.2-.53-.2-.83s.07-.58.2-.83ZM6.46,243.01c.1.16.23.29.41.41.17.11.38.2.63.27.24.07.51.1.8.1s.57-.03.82-.09c.25-.06.46-.15.64-.27.18-.12.32-.25.42-.41.1-.16.15-.33.15-.52s-.05-.37-.15-.53c-.1-.16-.24-.3-.42-.41-.18-.11-.39-.2-.64-.27s-.52-.09-.82-.09-.56.03-.81.09c-.24.06-.46.15-.63.26-.18.11-.31.25-.41.41-.1.16-.15.34-.15.53s.05.37.15.52Z"/><path d="M7.33,236.83h.67c-.24-.11-.42-.26-.54-.45s-.18-.4-.18-.63c0-.26.07-.48.2-.67s.33-.32.59-.41c-.26-.11-.45-.27-.59-.46s-.2-.43-.2-.7c0-.38.12-.67.37-.88.25-.21.61-.31,1.07-.31h2.25v.7h-2.16c-.29,0-.52.07-.69.2-.17.13-.25.31-.25.54,0,.12.02.22.07.32s.11.18.2.26.19.13.32.16c.12.04.26.06.4.06h2.11v.7h-2.16c-.14,0-.27.02-.38.06-.12.04-.22.09-.3.15s-.14.14-.19.23c-.04.09-.07.2-.07.31s.02.22.07.32.12.18.21.25.2.12.32.17c.12.04.26.06.41.06h2.09v.7h-3.64v-.68Z"/><path d="M7.33,230.65h.67c-.24-.11-.42-.26-.54-.45s-.18-.4-.18-.63c0-.26.07-.48.2-.67s.33-.32.59-.41c-.26-.11-.45-.27-.59-.46s-.2-.43-.2-.7c0-.38.12-.67.37-.88.25-.21.61-.31,1.07-.31h2.25v.7h-2.16c-.29,0-.52.07-.69.2-.17.13-.25.31-.25.54,0,.12.02.22.07.32s.11.18.2.26.19.13.32.16c.12.04.26.06.4.06h2.11v.7h-2.16c-.14,0-.27.02-.38.06-.12.04-.22.09-.3.15s-.14.14-.19.23c-.04.09-.07.2-.07.31s.02.22.07.32.12.18.21.25.2.12.32.17c.12.04.26.06.41.06h2.09v.7h-3.64v-.68Z"/></g><g id="MTEXT-3"><path d="M5.68,159.42h5.28v.72h-4.54l.64,1.3h-.73l-.66-1.36v-.67Z"/><path d="M5.83,155.72c.13-.25.32-.47.55-.65.23-.18.52-.32.85-.42.33-.1.69-.15,1.09-.15s.76.05,1.1.15c.33.1.62.24.86.42s.43.4.56.65c.13.25.2.52.2.83s-.07.57-.2.82c-.13.25-.32.47-.56.65-.24.18-.53.32-.86.42-.33.1-.7.15-1.1.15s-.75-.05-1.09-.15c-.33-.1-.61-.24-.85-.42-.24-.18-.42-.4-.55-.65-.13-.25-.2-.53-.2-.83s.07-.58.2-.83ZM6.46,157.07c.1.16.23.29.41.41.17.11.38.2.63.27.24.07.51.1.8.1s.57-.03.82-.09c.25-.06.46-.15.64-.27.18-.12.32-.25.42-.41.1-.16.15-.33.15-.52s-.05-.37-.15-.53c-.1-.16-.24-.3-.42-.41-.18-.11-.39-.2-.64-.27s-.52-.09-.82-.09-.56.03-.81.09c-.24.06-.46.15-.63.26-.18.11-.31.25-.41.41-.1.16-.15.34-.15.53s.05.37.15.52Z"/><path d="M7.33,150.89h.67c-.24-.11-.42-.26-.54-.45s-.18-.4-.18-.63c0-.26.07-.48.2-.67s.33-.32.59-.41c-.26-.11-.45-.27-.59-.46s-.2-.43-.2-.7c0-.38.12-.67.37-.88.25-.21.61-.31,1.07-.31h2.25v.7h-2.16c-.29,0-.52.07-.69.2-.17.13-.25.31-.25.54,0,.12.02.22.07.32s.11.18.2.26.19.13.32.16c.12.04.26.06.4.06h2.11v.7h-2.16c-.14,0-.27.02-.38.06-.12.04-.22.09-.3.15s-.14.14-.19.23c-.04.09-.07.2-.07.31s.02.22.07.32.12.18.21.25.2.12.32.17c.12.04.26.06.41.06h2.09v.7h-3.64v-.68Z"/><path d="M7.33,144.71h.67c-.24-.11-.42-.26-.54-.45s-.18-.4-.18-.63c0-.26.07-.48.2-.67s.33-.32.59-.41c-.26-.11-.45-.27-.59-.46s-.2-.43-.2-.7c0-.38.12-.67.37-.88.25-.21.61-.31,1.07-.31h2.25v.7h-2.16c-.29,0-.52.07-.69.2-.17.13-.25.31-.25.54,0,.12.02.22.07.32s.11.18.2.26.19.13.32.16c.12.04.26.06.4.06h2.11v.7h-2.16c-.14,0-.27.02-.38.06-.12.04-.22.09-.3.15s-.14.14-.19.23c-.04.09-.07.2-.07.31s.02.22.07.32.12.18.21.25.2.12.32.17c.12.04.26.06.41.06h2.09v.7h-3.64v-.68Z"/></g><line y2="133.71" x2="285.49" y1="133.71" x1="28.91" class="cls-2"/><rect height="1.95" width=".3" y="132.73" x="28.76" class="cls-4"/><rect height="1.95" width=".3" y="132.73" x="285.34" class="cls-4"/><line y2="153.39" x2="15.73" y1="148.03" x1="15.73" class="cls-2"/><rect height=".3" width="1.95" y="147.88" x="14.75" class="cls-4"/><rect height=".3" width="1.95" y="153.24" x="14.75" class="cls-4"/><line y2="280.78" x2="15.73" y1="196.52" x1="15.73" class="cls-2"/><rect height=".3" width="1.95" y="196.37" x="14.75" class="cls-4"/><rect height=".3" width="1.95" y="280.63" x="14.75" class="cls-4"/><rect height="5.66" width="254.6" y="147.88" x="29.9" class="cls-3"/><rect height="84.85" width="5.66" y="196.07" x="327.02" class="cls-3"/><path d="M243.16,196.06H35.29c-2.98,0-5.39,2.53-5.39,5.66v73.55c0,3.13,2.41,5.66,5.39,5.66h207.87c1.43,0,2.8-.59,3.81-1.66l36.58-38.38c1.26-1.33,1.26-3.47,0-4.8l-36.58-38.37c-1.01-1.06-2.38-1.66-3.81-1.66" class="cls-3"/><path d="M241.53,199.71H36.19c-1.49,0-2.7,1.26-2.7,2.83v71.92c0,1.56,1.21,2.83,2.7,2.83h205.34c1.31,0,2.56-.54,3.49-1.51l33.43-35.08c1.16-1.21,1.16-3.18,0-4.39l-33.43-35.08c-.92-.97-2.18-1.51-3.49-1.51M241.53,202.53c.6,0,1.16.24,1.58.69l24.31,33.21c.9,1.22.9,2.92,0,4.13l-24.31,33.21c-.42.44-.98.69-1.58.69H36.64c-.3,0-.54-.25-.54-.57v-70.79c0-.31.24-.57.54-.57h204.88Z" class="cls-3"/><path d="M190.11,235.31c1.56,0,3.03.4,4.31,1.1l-5.16,7.33c-.22.32-.25.73-.07,1.08.18.35.54.56.93.56h8.97c-.52,4.49-4.34,7.99-8.97,7.99-4.98,0-9.03-4.05-9.03-9.03s4.05-9.03,9.03-9.03M200.15,231.9l3.4,11.4h-2.37c-.28-2.95-1.71-5.57-3.84-7.4l2.82-4ZM218.14,229.37l-12.7,12.98-3.53-11.82,16.23-1.15ZM199.08,243.3h-6.96l4.01-5.69c1.6,1.44,2.69,3.44,2.95,5.69M224.46,235.31c4.98,0,9.03,4.05,9.03,9.03s-4.05,9.03-9.03,9.03-9.03-4.05-9.03-9.03c0-3.57,2.08-6.67,5.1-8.13l2.91,8.47c.15.43.55.7.99.7.11,0,.22-.02.34-.06.54-.19.84-.78.65-1.32l-2.91-8.48c.63-.14,1.29-.21,1.96-.21M190.11,255.45c5.78,0,10.54-4.43,11.06-10.07h3.78s.08,0,.12,0c0,0,.03,0,.04,0,.04,0,.08-.01.12-.03h.02s.04-.02.05-.02c.02,0,.03,0,.05-.02,0,0,.02,0,.03-.01.09-.04.16-.09.24-.15h0s.05-.05.07-.07l13.24-13.52.92,2.68c-3.83,1.75-6.51,5.62-6.51,10.11,0,6.13,4.99,11.12,11.12,11.12s11.12-4.99,11.12-11.12-4.99-11.11-11.12-11.11c-.91,0-1.79.11-2.64.32l-1.42-4.12c0-.05-.02-.11-.04-.15l-.45-1.33c-.02-.06-.04-.11-.07-.16l-1.9-5.53c-.14-.42-.54-.7-.98-.7h-3.2c-.58,0-1.04.47-1.04,1.04s.47,1.04,1.04,1.04h2.45l1.27,3.71-16.18,1.15-.89-2.99h1.68c.58,0,1.04-.47,1.04-1.04s-.47-1.04-1.04-1.04h-6.15c-.58,0-1.04.46-1.04,1.04s.46,1.04,1.04,1.04h2.3l1.15,3.87-3.76,5.34c-1.63-.94-3.51-1.47-5.52-1.47-6.13,0-11.12,4.99-11.12,11.11s4.99,11.12,11.12,11.12" class="cls-4"/><path d="M56.21,222.49c-.37-1.09-1.4-1.74-2.69-1.74s-2.34.65-2.71,1.74c-.11.34-.17.67-.17,1.15,0,.11.06.17.17.17h5.4c.11,0,.17-.06.17-.17,0-.48-.06-.81-.17-1.15M47.9,228.47c-.29-.87-.49-1.91-.49-3.31s.17-2.47.46-3.34c.77-2.36,2.88-3.74,5.63-3.74s4.89,1.43,5.66,3.74c.31.95.46,1.88.46,4.07,0,.17-.11.28-.31.28h-8.49c-.11,0-.17.06-.17.17,0,.39.09.73.2,1.04.46,1.32,1.54,2.05,3.08,2.05s2.54-.56,3.23-1.29c.14-.14.28-.17.43-.06l1.69,1.46c.15.11.15.25.03.39-1.17,1.35-3.11,2.3-5.66,2.3-2.91,0-4.97-1.41-5.74-3.76" class="cls-4"/><path d="M62.19,228.5c-.29-.84-.43-1.91-.43-3.34s.14-2.5.43-3.34c.8-2.42,2.91-3.74,5.68-3.74,2.06,0,3.68.81,4.77,2.1.09.11.11.28-.03.4l-1.8,1.54c-.14.11-.29.08-.4-.06-.68-.76-1.4-1.18-2.54-1.18-1.23,0-2.17.59-2.57,1.77-.23.68-.28,1.46-.28,2.5s.06,1.85.28,2.52c.4,1.15,1.34,1.74,2.57,1.74,1.14,0,1.86-.42,2.54-1.18.11-.14.26-.14.4-.02l1.8,1.54c.14.11.11.25.03.39-1.08,1.26-2.71,2.08-4.77,2.08-2.77,0-4.89-1.32-5.68-3.74" class="cls-4"/><path d="M83.1,227.66c.23-.7.29-1.35.29-2.5s-.06-1.77-.29-2.5c-.4-1.12-1.28-1.77-2.57-1.77s-2.2.65-2.6,1.77c-.23.73-.28,1.35-.28,2.5s.06,1.8.28,2.5c.4,1.12,1.31,1.77,2.6,1.77s2.17-.65,2.57-1.77M74.84,228.5c-.31-.95-.46-1.85-.46-3.34s.15-2.39.46-3.34c.77-2.36,2.88-3.74,5.68-3.74s4.88,1.38,5.65,3.74c.32.95.46,1.85.46,3.34s-.14,2.39-.46,3.34c-.77,2.36-2.88,3.74-5.65,3.74s-4.91-1.38-5.68-3.74" class="cls-4"/><path d="M98.02,227.68c.2-.62.29-1.29.29-2.53s-.08-1.91-.29-2.52c-.37-1.13-1.26-1.74-2.54-1.74s-2.2.62-2.57,1.74c-.2.61-.29,1.29-.29,2.52s.09,1.91.29,2.53c.37,1.12,1.25,1.74,2.57,1.74s2.17-.62,2.54-1.74M89.71,236.98c-.17,0-.29-.11-.29-.28v-18.02c0-.17.11-.28.29-.28h2.63c.17,0,.28.11.28.28v1.01h.03c.66-.93,1.8-1.6,3.66-1.6,2.34,0,4.06,1.1,4.77,3.26.34,1.04.49,2,.49,3.82s-.14,2.78-.49,3.82c-.71,2.16-2.43,3.26-4.77,3.26-1.86,0-3-.68-3.66-1.6h-.03v6.06c0,.17-.11.28-.28.28h-2.63Z" class="cls-4"/><path d="M104.71,231.92c-.17,0-.29-.11-.29-.28v-12.97c0-.17.11-.28.29-.28h2.63c.17,0,.28.11.28.28v12.97c0,.17-.11.28-.28.28h-2.63ZM104.71,215.83c-.17,0-.29-.11-.29-.28v-2.44c0-.17.11-.28.29-.28h2.63c.17,0,.28.11.28.28v2.44c0,.17-.11.28-.28.28h-2.63Z" class="cls-4"/><path d="M110.09,230.1c-.11-.11-.11-.28,0-.39l1.63-1.68c.11-.11.29-.11.4,0,1,.9,2.6,1.54,4.02,1.54,1.69,0,2.54-.68,2.54-1.6,0-.81-.49-1.32-2.29-1.49l-1.48-.14c-2.8-.28-4.23-1.69-4.23-3.98,0-2.61,1.91-4.27,5.34-4.27,2.14,0,3.94.7,5.17,1.66.14.11.14.28.06.39l-1.4,1.66c-.11.14-.26.14-.4.06-.86-.59-2.23-1.12-3.6-1.12s-2.09.59-2.09,1.41.49,1.26,2.26,1.43l1.49.14c2.88.28,4.26,1.74,4.26,3.96,0,2.7-2,4.58-5.77,4.58-2.83,0-4.77-1.1-5.91-2.13" class="cls-4"/><path d="M128.65,232.09c-2.77,0-3.83-1.32-3.83-3.96v-7.13c0-.11-.06-.17-.17-.17h-.91c-.17,0-.28-.11-.28-.28v-1.88c0-.17.11-.28.28-.28h.91c.11,0,.17-.06.17-.17v-3.71c0-.17.12-.28.29-.28h2.63c.17,0,.29.11.29.28v3.71c0,.11.06.17.17.17h1.82c.17,0,.29.11.29.28v1.88c0,.17-.11.28-.29.28h-1.82c-.12,0-.17.05-.17.17v7.02c0,.95.4,1.26,1.29,1.26h.71c.17,0,.29.11.29.29v2.25c0,.17-.11.28-.29.28h-1.37Z" class="cls-4"/><path d="M140.94,227.37v-1.04c0-.11-.06-.17-.17-.17h-2.28c-2.06,0-2.97.56-2.97,1.82,0,1.12.83,1.69,2.37,1.69,1.97,0,3.05-.76,3.05-2.3M141.29,231.92c-.17,0-.29-.11-.29-.28v-.98h-.03c-.66.93-1.94,1.58-3.88,1.58-2.52,0-4.63-1.29-4.63-4.13s2.11-4.3,5.51-4.3h2.8c.11,0,.17-.06.17-.17v-.65c0-1.54-.74-2.25-3.05-2.25-1.54,0-2.48.42-3.14.92-.14.11-.32.09-.4-.05l-1.06-1.85c-.08-.14-.06-.29.06-.37,1.12-.79,2.63-1.32,4.89-1.32,4.2,0,5.74,1.4,5.74,4.72v8.84c0,.17-.11.28-.29.28h-2.4Z" class="cls-4"/><path d="M56.07,259c.2-.62.29-1.29.29-2.52s-.09-1.91-.29-2.53c-.37-1.12-1.25-1.74-2.57-1.74s-2.17.62-2.54,1.74c-.2.62-.28,1.29-.28,2.53s.09,1.91.28,2.52c.37,1.12,1.26,1.74,2.54,1.74s2.2-.62,2.57-1.74M56.64,263.24c-.17,0-.29-.11-.29-.28v-1.01h-.03c-.65.93-1.8,1.6-3.65,1.6-2.35,0-4.06-1.1-4.77-3.26-.34-1.04-.49-1.99-.49-3.82s.14-2.78.49-3.82c.71-2.16,2.43-3.26,4.77-3.26,1.86,0,3,.67,3.65,1.6h.03v-6.57c0-.17.11-.28.29-.28h2.63c.17,0,.28.11.28.28v18.54c0,.17-.11.28-.28.28h-2.63Z" class="cls-4"/><path d="M71.05,258.97c.23-.7.29-1.34.29-2.5s-.06-1.77-.29-2.5c-.4-1.12-1.29-1.77-2.57-1.77s-2.2.64-2.6,1.77c-.23.73-.28,1.35-.28,2.5s.06,1.79.28,2.5c.4,1.12,1.31,1.77,2.6,1.77s2.17-.64,2.57-1.77M62.8,259.82c-.31-.96-.46-1.86-.46-3.34s.14-2.39.46-3.34c.77-2.36,2.88-3.73,5.68-3.73s4.88,1.38,5.65,3.73c.32.95.46,1.85.46,3.34s-.14,2.39-.46,3.34c-.77,2.36-2.88,3.73-5.65,3.73s-4.91-1.38-5.68-3.73" class="cls-4"/><path d="M88.36,260.27h2.88c2.14,0,3.46-.7,4.03-2.41.2-.54.34-1.41.34-4.15s-.14-3.62-.34-4.16c-.57-1.71-1.88-2.41-4.03-2.41h-2.88c-.11,0-.17.05-.17.17v12.8c0,.11.06.17.17.17M84.82,244.43c0-.17.11-.28.28-.28h6.94c3.34,0,5.57,1.46,6.48,4.24.32.95.49,2,.49,5.31s-.17,4.35-.49,5.3c-.91,2.78-3.14,4.24-6.48,4.24h-6.94c-.17,0-.28-.11-.28-.28v-18.53Z" class="cls-4"/><path d="M109.71,258.69v-1.04c0-.11-.06-.17-.17-.17h-2.29c-2.05,0-2.97.56-2.97,1.82,0,1.12.83,1.69,2.37,1.69,1.97,0,3.05-.76,3.05-2.3M107,246.93c-.57-.31-1.03-.5-1.6-.5-.83,0-1.37.42-1.91.87-.14.11-.26.05-.26-.06v-1.71c0-.22.06-.34.23-.54.54-.56,1.26-.95,2.06-.95.74,0,1.26.22,1.91.56.57.31,1.03.51,1.63.51.8,0,1.34-.42,1.89-.87.14-.11.26-.06.26.06v1.71c0,.23-.06.34-.23.53-.54.56-1.26.96-2.06.96-.74,0-1.26-.23-1.91-.56M110.06,263.24c-.17,0-.29-.11-.29-.28v-.99h-.03c-.65.93-1.94,1.57-3.88,1.57-2.52,0-4.63-1.29-4.63-4.13s2.11-4.3,5.51-4.3h2.8c.11,0,.17-.05.17-.17v-.64c0-1.55-.74-2.25-3.05-2.25-1.54,0-2.48.42-3.14.93-.15.11-.32.09-.4-.06l-1.06-1.85c-.08-.14-.06-.28.06-.37,1.11-.78,2.63-1.32,4.88-1.32,4.2,0,5.74,1.4,5.74,4.72v8.84c0,.17-.11.28-.29.28h-2.4Z" class="cls-4"/><path d="M124.15,258.97c.23-.7.29-1.34.29-2.5s-.06-1.77-.29-2.5c-.4-1.12-1.29-1.77-2.57-1.77s-2.2.64-2.6,1.77c-.23.73-.28,1.35-.28,2.5s.06,1.79.28,2.5c.4,1.12,1.31,1.77,2.6,1.77s2.17-.64,2.57-1.77M115.89,259.82c-.31-.96-.46-1.86-.46-3.34s.14-2.39.46-3.34c.77-2.36,2.88-3.73,5.68-3.73s4.88,1.38,5.65,3.73c.31.95.46,1.85.46,3.34s-.15,2.39-.46,3.34c-.77,2.36-2.88,3.73-5.65,3.73s-4.91-1.38-5.68-3.73" class="cls-4"/></g></g></g></svg>