<svg viewBox="0 0 531.27 288" xmlns:xlink="http://www.w3.org/1999/xlink" xmlns="http://www.w3.org/2000/svg" id="Camada_2"><defs><style>.cls-1,.cls-2,.cls-3{fill:none;}.cls-4{fill:#12100c;}.cls-2{stroke-width:.3px;}.cls-2,.cls-3{stroke:#12100c;stroke-linecap:round;stroke-linejoin:round;}.cls-3{stroke-width:.3px;}</style><symbol viewBox="0 0 531.27 288" id="fundo_transparente"><rect height="288" width="531.27" x="0" class="cls-1"/></symbol></defs><g id="Nature"><g id="Rotas_cicláveis"><g id="placas_informativas_S"><use xlink:href="#fundo_transparente" height="288" width="531.27"/><g id="MTEXT"><path d="M61.28,65.98v5.29h-.72v-4.54l-1.3.64v-.73l1.36-.67h.67Z"/><path d="M65.23,65.98v.65h-1.92l-.25,1.54c.1-.09.22-.16.36-.21.14-.05.29-.07.46-.07.25,0,.47.04.68.13.21.08.38.2.53.35.15.15.27.33.35.54.08.21.12.44.12.69s-.04.48-.13.7c-.09.21-.21.4-.36.55-.16.15-.34.27-.56.36-.21.08-.45.13-.71.13-.2,0-.39-.03-.58-.08s-.35-.13-.5-.23c-.15-.1-.28-.22-.39-.36-.11-.14-.19-.3-.24-.48l.63-.31c.07.24.19.43.39.56.19.14.42.21.67.21.15,0,.29-.03.41-.08.13-.05.23-.12.33-.21.09-.09.16-.2.21-.33.05-.13.08-.27.08-.43s-.03-.3-.08-.44c-.05-.13-.13-.25-.22-.34s-.21-.17-.34-.22c-.13-.05-.28-.08-.44-.08-.18,0-.35.04-.49.1-.14.07-.26.17-.36.31l-.62-.15.47-2.79h2.52Z"/><path d="M68.97,66.13c.25.13.47.32.65.55.18.23.32.52.42.85.1.33.15.69.15,1.08s-.05.76-.15,1.1-.24.62-.42.86c-.18.24-.4.43-.65.56-.25.13-.52.2-.83.2s-.57-.07-.82-.2-.47-.32-.65-.56c-.18-.24-.32-.53-.42-.86-.1-.33-.15-.7-.15-1.1s.05-.75.15-1.08c.1-.33.24-.61.42-.85.18-.24.4-.42.65-.55.25-.13.53-.2.83-.2s.58.07.83.2ZM67.62,66.76c-.16.1-.29.23-.41.41-.11.18-.2.38-.27.63-.07.24-.1.51-.1.81s.03.57.09.82c.06.25.15.46.27.64.12.18.25.32.41.42.16.1.33.15.52.15s.37-.05.53-.15c.16-.1.3-.24.41-.42.11-.18.2-.39.27-.64.06-.25.09-.52.09-.82s-.03-.56-.09-.81c-.06-.25-.15-.46-.26-.63-.11-.17-.25-.31-.41-.41-.16-.1-.34-.15-.53-.15s-.37.05-.52.15Z"/><path d="M73.8,67.63v.67c.11-.24.26-.42.45-.54.18-.12.4-.18.63-.18.26,0,.48.07.67.2.19.14.32.33.41.59.11-.26.27-.45.46-.59.2-.14.43-.2.7-.2.38,0,.67.12.88.37.21.25.31.61.31,1.07v2.25h-.7v-2.16c0-.29-.07-.52-.2-.69-.13-.17-.31-.25-.54-.25-.12,0-.22.02-.32.07-.1.05-.18.11-.26.2-.07.09-.13.19-.16.32-.04.12-.06.26-.06.4v2.11h-.7v-2.16c0-.14-.02-.27-.06-.38-.04-.12-.09-.22-.15-.3-.06-.08-.14-.14-.23-.19-.09-.04-.2-.07-.31-.07s-.22.02-.32.07c-.1.05-.18.12-.25.21-.07.09-.12.2-.17.32-.04.12-.06.26-.06.41v2.09h-.7v-3.64h.68Z"/><path d="M79.98,67.63v.67c.11-.24.26-.42.45-.54.18-.12.4-.18.63-.18.26,0,.48.07.67.2.19.14.32.33.41.59.11-.26.27-.45.46-.59.2-.14.43-.2.7-.2.38,0,.67.12.88.37.21.25.31.61.31,1.07v2.25h-.7v-2.16c0-.29-.07-.52-.2-.69-.13-.17-.31-.25-.54-.25-.12,0-.22.02-.32.07-.1.05-.18.11-.26.2-.07.09-.13.19-.16.32-.04.12-.06.26-.06.4v2.11h-.7v-2.16c0-.14-.02-.27-.06-.38-.04-.12-.09-.22-.15-.3-.06-.08-.14-.14-.23-.19-.09-.04-.2-.07-.31-.07s-.22.02-.32.07c-.1.05-.18.12-.25.21-.07.09-.12.2-.17.32-.04.12-.06.26-.06.41v2.09h-.7v-3.64h.68Z"/></g><g id="MTEXT-2"><path d="M5.57,219.74c.08-.21.19-.39.33-.54.14-.15.31-.27.51-.35.2-.08.42-.13.67-.13.14,0,.28.02.42.05s.28.08.41.15.27.16.42.27c.14.11.29.24.45.39l1.35,1.31v-2.29h.67v3.32h-.59l-1.85-1.79c-.12-.12-.23-.22-.33-.3-.1-.08-.21-.15-.3-.2-.1-.05-.19-.09-.29-.11-.09-.02-.19-.03-.29-.03-.15,0-.28.02-.4.07-.12.04-.23.11-.32.2-.09.09-.16.19-.21.3-.05.11-.07.24-.07.39,0,.25.08.47.23.65.15.18.36.31.63.39l-.23.67c-.42-.12-.75-.32-.97-.62s-.34-.66-.34-1.1c0-.25.04-.48.12-.69Z"/><path d="M5.51,214.96h.65v1.92l1.54.25c-.09-.1-.16-.22-.21-.36-.05-.14-.07-.29-.07-.46,0-.25.04-.47.13-.68.08-.21.2-.38.35-.53.15-.15.33-.27.54-.35.21-.08.44-.12.69-.12s.48.04.7.13c.21.09.4.21.55.36s.27.34.36.56c.08.21.13.45.13.71,0,.2-.03.39-.08.58-.05.18-.13.35-.23.5-.1.15-.22.28-.36.39-.14.11-.3.19-.48.24l-.31-.63c.24-.07.43-.19.56-.39.14-.19.21-.42.21-.67,0-.15-.03-.29-.08-.41-.05-.13-.12-.23-.21-.33-.09-.09-.2-.16-.33-.21-.13-.05-.27-.08-.43-.08s-.3.03-.44.08-.25.13-.34.22-.17.21-.22.34c-.05.13-.08.28-.08.44,0,.18.04.35.1.49.07.14.17.26.31.36l-.15.62-2.79-.47v-2.52Z"/><path d="M5.65,211.21c.13-.25.32-.47.55-.65.23-.18.52-.32.85-.42.33-.1.69-.15,1.08-.15s.76.05,1.1.15c.33.1.62.24.86.42s.43.4.56.65c.13.25.2.52.2.83s-.07.57-.2.82-.32.47-.56.65c-.24.18-.53.32-.86.42-.33.1-.7.15-1.1.15s-.75-.05-1.08-.15c-.33-.1-.61-.24-.85-.42-.24-.18-.42-.4-.55-.65-.13-.25-.2-.53-.2-.83s.07-.58.2-.83ZM6.28,212.57c.1.16.23.29.41.41.18.11.38.2.63.27.24.07.51.1.8.1s.57-.03.82-.09c.25-.06.46-.15.64-.27.18-.12.32-.25.42-.41.1-.16.15-.33.15-.52s-.05-.37-.15-.53c-.1-.16-.24-.3-.42-.41-.18-.11-.39-.2-.64-.27-.25-.06-.52-.09-.82-.09s-.56.03-.81.09c-.25.06-.46.15-.63.26-.17.11-.31.25-.41.41-.1.16-.15.34-.15.53s.05.37.15.52Z"/><path d="M7.15,206.39h.67c-.24-.11-.42-.26-.54-.45s-.18-.4-.18-.63c0-.26.07-.48.2-.67.14-.19.33-.32.59-.41-.26-.11-.45-.27-.59-.46-.13-.2-.2-.43-.2-.7,0-.38.12-.67.37-.88s.61-.31,1.07-.31h2.25v.7h-2.16c-.29,0-.52.07-.69.2-.17.13-.25.31-.25.54,0,.12.02.22.07.32.05.1.11.18.2.26.09.07.2.13.32.16.12.04.26.06.4.06h2.11v.7h-2.16c-.14,0-.27.02-.38.06-.12.04-.22.09-.3.15-.08.06-.14.14-.19.23-.04.09-.07.2-.07.31s.02.22.07.32c.05.1.12.18.21.25s.2.12.32.17c.12.04.26.06.41.06h2.09v.7h-3.64v-.68Z"/><path d="M7.15,200.2h.67c-.24-.11-.42-.26-.54-.45s-.18-.4-.18-.63c0-.26.07-.48.2-.67.14-.19.33-.32.59-.41-.26-.11-.45-.27-.59-.46-.13-.2-.2-.43-.2-.7,0-.38.12-.67.37-.88s.61-.31,1.07-.31h2.25v.7h-2.16c-.29,0-.52.07-.69.2-.17.13-.25.31-.25.54,0,.12.02.22.07.32.05.1.11.18.2.26.09.07.2.13.32.16.12.04.26.06.4.06h2.11v.7h-2.16c-.14,0-.27.02-.38.06-.12.04-.22.09-.3.15-.08.06-.14.14-.19.23-.04.09-.07.2-.07.31s.02.22.07.32c.05.1.12.18.21.25s.2.12.32.17c.12.04.26.06.41.06h2.09v.7h-3.64v-.68Z"/></g><g id="MTEXT-3"><path d="M5.51,101.73h5.29v.72h-4.54l.64,1.3h-.73l-.67-1.36v-.67Z"/><path d="M5.65,98.02c.13-.25.32-.47.55-.65.23-.18.52-.32.85-.42.33-.1.69-.15,1.08-.15s.76.05,1.1.15c.33.1.62.24.86.42s.43.4.56.65c.13.25.2.52.2.83s-.07.57-.2.82-.32.47-.56.65c-.24.18-.53.32-.86.42-.33.1-.7.15-1.1.15s-.75-.05-1.08-.15c-.33-.1-.61-.24-.85-.42-.24-.18-.42-.4-.55-.65-.13-.25-.2-.53-.2-.83s.07-.58.2-.83ZM6.28,99.38c.1.16.23.29.41.41.18.11.38.2.63.27.24.07.51.1.8.1s.57-.03.82-.09c.25-.06.46-.15.64-.27.18-.12.32-.25.42-.41.1-.16.15-.33.15-.52s-.05-.37-.15-.53c-.1-.16-.24-.3-.42-.41-.18-.11-.39-.2-.64-.27-.25-.06-.52-.09-.82-.09s-.56.03-.81.09c-.25.06-.46.15-.63.26-.17.11-.31.25-.41.41-.1.16-.15.34-.15.53s.05.37.15.52Z"/><path d="M7.15,93.2h.67c-.24-.11-.42-.26-.54-.45s-.18-.4-.18-.63c0-.26.07-.48.2-.67.14-.19.33-.32.59-.41-.26-.11-.45-.27-.59-.46-.13-.2-.2-.43-.2-.7,0-.38.12-.67.37-.88s.61-.31,1.07-.31h2.25v.7h-2.16c-.29,0-.52.07-.69.2-.17.13-.25.31-.25.54,0,.12.02.22.07.32.05.1.11.18.2.26.09.07.2.13.32.16.12.04.26.06.4.06h2.11v.7h-2.16c-.14,0-.27.02-.38.06-.12.04-.22.09-.3.15-.08.06-.14.14-.19.23-.04.09-.07.2-.07.31s.02.22.07.32c.05.1.12.18.21.25s.2.12.32.17c.12.04.26.06.41.06h2.09v.7h-3.64v-.68Z"/><path d="M7.15,87.01h.67c-.24-.11-.42-.26-.54-.45s-.18-.4-.18-.63c0-.26.07-.48.2-.67.14-.19.33-.32.59-.41-.26-.11-.45-.27-.59-.46-.13-.2-.2-.43-.2-.7,0-.38.12-.67.37-.88s.61-.31,1.07-.31h2.25v.7h-2.16c-.29,0-.52.07-.69.2-.17.13-.25.31-.25.54,0,.12.02.22.07.32.05.1.11.18.2.26.09.07.2.13.32.16.12.04.26.06.4.06h2.11v.7h-2.16c-.14,0-.27.02-.38.06-.12.04-.22.09-.3.15-.08.06-.14.14-.19.23-.04.09-.07.2-.07.31s.02.22.07.32c.05.1.12.18.21.25s.2.12.32.17c.12.04.26.06.41.06h2.09v.7h-3.64v-.68Z"/></g><rect height="140.88" width="5.64" y="138.35" x="156.77" class="cls-3"/><rect height="5.64" width="84.53" y="90.2" x="29.72" class="cls-3"/><line y2="76.03" x2="114.1" y1="76.03" x1="29.87" class="cls-2"/><rect height="1.95" width=".3" y="75.05" x="29.72" class="cls-4"/><rect height="1.95" width=".3" y="75.05" x="113.95" class="cls-4"/><line y2="95.68" x2="15.55" y1="90.35" x1="15.55" class="cls-2"/><rect height=".3" width="1.95" y="90.2" x="14.57" class="cls-4"/><rect height=".3" width="1.95" y="95.53" x="14.57" class="cls-4"/><line y2="279.09" x2="15.55" y1="138.51" x1="15.55" class="cls-2"/><rect height=".3" width="1.95" y="138.35" x="14.57" class="cls-4"/><rect height=".3" width="1.95" y="278.93" x="14.57" class="cls-4"/><polygon points="51.29 202.26 71.99 166.44 92.68 202.26 51.29 202.26" class="cls-3"/><path d="M51.29,202.26l20.69-35.83,20.69,35.83h-41.39ZM96.86,201.05l-21.74-37.63c-1-1.73-3.22-2.33-4.95-1.32-.55.32-1.01.77-1.33,1.32l-21.74,37.63c-1,1.73-.41,3.95,1.33,4.95.55.32,1.17.49,1.81.49h43.47c2,0,3.62-1.62,3.62-3.62,0-.64-.17-1.26-.49-1.81" class="cls-3"/><path d="M69.44,176.16l1.28,15c.06.7.68,1.22,1.38,1.16.62-.05,1.11-.54,1.16-1.16l1.28-15c0-1.41-1.14-2.55-2.55-2.55s-2.55,1.14-2.55,2.55" class="cls-3"/><path d="M69.44,197.5c0-1.41,1.14-2.55,2.55-2.55s2.55,1.14,2.55,2.55-1.14,2.55-2.55,2.55-2.55-1.14-2.55-2.55" class="cls-3"/><path d="M107.85,279.24H36.12c-3.54,0-6.4-2.87-6.4-6.4v-128.09c0-3.54,2.86-6.4,6.4-6.4h71.73c3.53,0,6.4,2.86,6.4,6.4v128.09c0,3.53-2.87,6.4-6.4,6.4" class="cls-3"/><path d="M106.92,142.58H37.06c-1.77,0-3.2,1.43-3.2,3.2v126.03c0,1.77,1.43,3.2,3.2,3.2h69.86c1.77,0,3.2-1.43,3.2-3.2v-126.03c0-1.77-1.43-3.2-3.2-3.2M106.92,145.78h0v126.03H37.06v-126.03h69.86Z" class="cls-3"/><path d="M54.88,237.5c1.55,0,3.02.4,4.29,1.09l-5.15,7.31c-.22.32-.25.73-.07,1.07.18.34.54.56.92.56h8.93c-.52,4.47-4.33,7.96-8.93,7.96-4.96,0-9-4.04-9-8.99s4.04-9,9-9M64.88,234.1l3.39,11.35h-2.36c-.28-2.94-1.7-5.55-3.83-7.37l2.8-3.98ZM82.81,231.58l-12.65,12.93-3.51-11.78,16.17-1.15ZM63.82,245.45h-6.93l3.99-5.67c1.6,1.43,2.68,3.42,2.94,5.67M89.09,237.5c4.96,0,9,4.04,9,9s-4.04,8.99-9,8.99-8.99-4.04-8.99-8.99c0-3.56,2.07-6.64,5.08-8.1l2.89,8.43c.15.43.55.7.98.7.11,0,.23-.02.33-.06.55-.19.83-.78.65-1.32l-2.9-8.44c.63-.14,1.28-.22,1.95-.22M54.88,257.56c5.76,0,10.5-4.41,11.02-10.03h3.77s.08,0,.12,0c0,0,.03,0,.04,0,.04,0,.08-.01.12-.02h.01s0,0,0,0c.02,0,.04,0,.05-.02.02,0,.03-.01.05-.02,0,0,.02,0,.03,0,.09-.04.17-.09.24-.15h0s.05-.05.07-.07h0s13.19-13.47,13.19-13.47l.91,2.67c-3.82,1.75-6.48,5.6-6.48,10.07,0,6.1,4.97,11.07,11.07,11.07s11.07-4.97,11.07-11.07-4.96-11.07-11.07-11.07c-.91,0-1.79.11-2.63.32l-1.41-4.11c0-.05-.02-.11-.04-.16l-.45-1.33c-.02-.06-.05-.11-.07-.16l-1.89-5.51c-.14-.42-.54-.7-.98-.7h-3.18c-.57,0-1.04.46-1.04,1.04s.47,1.04,1.04,1.04h2.44l1.27,3.69-16.11,1.14-.89-2.98h1.67c.57,0,1.04-.46,1.04-1.04s-.47-1.04-1.04-1.04h-6.13c-.57,0-1.04.47-1.04,1.04s.46,1.04,1.04,1.04h2.29l1.15,3.86-3.75,5.32c-1.62-.93-3.5-1.47-5.5-1.47-6.1,0-11.07,4.97-11.07,11.07s4.97,11.07,11.07,11.07" class="cls-4"/></g></g></g></svg>