<svg viewBox="0 0 531.27 288" xmlns:xlink="http://www.w3.org/1999/xlink" xmlns="http://www.w3.org/2000/svg" id="Camada_2"><defs><style>.cls-1,.cls-2,.cls-3,.cls-4{fill:none;}.cls-5{fill:#12100c;}.cls-2{stroke:#000;}.cls-2,.cls-3,.cls-4{stroke-linecap:round;stroke-linejoin:round;stroke-width:.3px;}.cls-3{stroke:#12100c;}.cls-4{stroke:#877069;}</style><symbol viewBox="0 0 531.27 288" id="fundo_transparente"><rect height="288" width="531.27" x="0" class="cls-1"/></symbol></defs><g id="RePlastic"><g id="compostor_Terra_Mind_3"><use xlink:href="#fundo_transparente" height="288" width="531.27"/><g id="LINE"><line y2="205.7" x2="31.02" y1="205.7" x1="100.72" class="cls-2"/></g><g id="LINE-2"><path d="M26.78,209.52s.15-1.68.18-2.11v-.15c.06-.53.46-.96.98-1.05l2.97-.5.35-.13s.1-.07.15-.11.1-.1.14-.16c.02-.03.04-.07.06-.1s.04-.08.06-.13.03-.1.05-.24l.05-.59.36-4.13c.05-.6.56-1.07,1.17-1.07h65.04c.61,0,1.11.46,1.17,1.07l.36,4.13s.05.57.05.59c0,.06.02.11.05.24.02.05.03.09.05.13s.04.07.06.11c.04.06.09.12.14.16s.1.08.15.12l.35.13,2.97.5c.53.09.92.52.97,1.05,0,.05.2,2.26.2,2.26" class="cls-2"/></g><g id="LINE-3"><line y2="205.7" x2="109.8" y1="205.7" x1="179.5" class="cls-2"/></g><g id="LINE-4"><path d="M105.56,209.52s.15-1.68.18-2.11v-.15c.06-.53.46-.96.98-1.05l2.97-.5.35-.13s.1-.07.15-.11.1-.1.14-.16c.02-.03.04-.07.06-.1s.04-.08.06-.13.03-.1.05-.24l.05-.59.36-4.13c.05-.6.56-1.07,1.17-1.07h65.04c.61,0,1.11.46,1.17,1.07l.36,4.13s.05.57.05.59c0,.06.02.11.05.24.02.05.03.09.05.13s.04.07.06.11c.04.06.09.12.14.16s.1.08.15.12l.35.13,2.97.5c.53.09.92.52.97,1.05,0,.05.2,2.26.2,2.26" class="cls-2"/></g><g id="LINE-5"><line y2="287.21" x2="37.55" y1="287.21" x1="98.45" class="cls-2"/></g><g id="LINE-6"><polyline points="22.82 209.59 37.54 209.59 37.57 209.59" class="cls-2"/><polyline points="110.71 209.59 106.11 209.59 98.46 209.59" class="cls-2"/><polyline points="95.32 209.59 69.5 209.59 68.95 209.59 67.36 209.59 66.8 209.59 40.71 209.59" class="cls-2"/></g><g id="LINE-7"><line y2="232.84" x2="37.55" y1="232.84" x1="97.93" class="cls-4"/></g><g id="LINE-8"><line y2="232.88" x2="37.55" y1="232.88" x1="97.93" class="cls-2"/></g><g id="LINE-9"><line y2="240.61" x2="37.55" y1="240.61" x1="97.93" class="cls-4"/></g><g id="LINE-10"><line y2="256.14" x2="37.55" y1="256.14" x1="97.93" class="cls-2"/></g><g id="LINE-11"><line y2="248.41" x2="37.55" y1="248.41" x1="97.93" class="cls-2"/></g><g id="LINE-12"><line y2="271.72" x2="37.55" y1="271.72" x1="97.93" class="cls-2"/></g><g id="LINE-13"><line y2="279.44" x2="37.55" y1="279.44" x1="97.93" class="cls-2"/></g><g id="LINE-14"><line y2="256.18" x2="37.55" y1="256.18" x1="97.93" class="cls-2"/></g><g id="LINE-15"><line y2="263.91" x2="37.55" y1="263.91" x1="97.93" class="cls-2"/></g><g id="LINE-16"><line y2="263.95" x2="37.55" y1="263.95" x1="97.93" class="cls-2"/></g><g id="LINE-17"><line y2="271.68" x2="37.55" y1="271.68" x1="97.93" class="cls-2"/></g><g id="LINE-18"><line y2="240.65" x2="37.55" y1="240.65" x1="97.93" class="cls-2"/></g><g id="LINE-19"><line y2="248.37" x2="37.55" y1="248.37" x1="97.93" class="cls-2"/></g><g id="LINE-20"><line y2="217.3" x2="37.54" y1="217.3" x1="37.57" class="cls-2"/><line y2="217.3" x2="41.53" y1="217.3" x1="93.98" class="cls-2"/></g><g id="LINE-21"><line y2="225.11" x2="37.55" y1="225.11" x1="97.93" class="cls-4"/></g><g id="LINE-22"><line y2="225.07" x2="37.55" y1="225.07" x1="97.93" class="cls-2"/></g><line y2="287.21" x2="110.1" y1="287.21" x1="110.72" class="cls-4"/><rect height="77.64" width="14.74" y="209.58" x="22.81" class="cls-2"/><rect height="77.62" width="14.73" y="209.59" x="97.97" class="cls-2"/><path d="M94.83,209.59c-.47,0-.85.36-.85.85v7.65c0,.47.39.85.85.85h3.14v-9.36h-3.14ZM95.14,214.85h1.71c.22,0,.39.17.39.39s-.16.39-.39.39h-1.71c-.22,0-.39-.17-.39-.39s.16-.39.39-.39Z" class="cls-2"/><path d="M97.23,215.23c0,.22-.16.39-.39.39h-1.71c-.22,0-.39-.17-.39-.39s.16-.39.39-.39h1.71c.22,0,.39.17.39.39Z" class="cls-2"/><path d="M97.23,215.23c0,.22-.16.39-.39.39h-1.71c-.22,0-.39-.17-.39-.39s.16-.39.39-.39h1.71c.22,0,.39.17.39.39Z" class="cls-2"/><path d="M40.71,209.59h-3.14v9.36h3.14c.5,0,.85-.39.85-.85v-7.65c0-.5-.36-.85-.85-.85ZM38.73,214.85h1.68c.22,0,.41.17.41.39s-.19.39-.41.39h-1.68c-.22,0-.39-.17-.39-.39s.16-.39.39-.39Z" class="cls-2"/><path d="M40.82,215.23c0,.22-.19.39-.41.39h-1.68c-.22,0-.39-.17-.39-.39s.16-.39.39-.39h1.68c.22,0,.41.17.41.39Z" class="cls-2"/><path d="M40.82,215.23c0,.22-.19.39-.41.39h-1.68c-.22,0-.39-.17-.39-.39s.16-.39.39-.39h1.68c.22,0,.41.17.41.39Z" class="cls-2"/><g id="LINE-23"><path d="M67.36,210.27v-.7s1.6,0,1.6,0q0,.26,0,.7" class="cls-2"/></g><g id="LINE-24"><line y2="210.3" x2="66.8" y1="209.61" x1="66.8" class="cls-2"/></g><g id="LINE-25"><line y2="209.61" x2="69.51" y1="210.3" x1="69.51" class="cls-2"/></g><rect height="2.73" width="2.71" y="210.27" x="66.8" class="cls-2"/><g id="LINE-26"><line y2="287.21" x2="112.7" y1="287.21" x1="176.68" class="cls-2"/></g><g id="LINE-27"><path d="M115.84,209.59h-3.14v9.36h3.14c.5,0,.85-.39.85-.85v-7.65c0-.5-.36-.85-.85-.85ZM113.85,214.85h1.68c.22,0,.41.17.41.39s-.19.39-.41.39h-1.68c-.22,0-.39-.17-.39-.39s.16-.39.39-.39Z" class="cls-2"/><polyline points="106.11 209.59 110.71 209.59 113.19 209.59" class="cls-2"/><path d="M173.43,209.59c-.47,0-.85.36-.85.85v7.65c0,.47.39.85.85.85h3.14v-9.36h-3.14ZM173.73,214.85h1.71c.22,0,.39.17.39.39s-.16.39-.39.39h-1.71c-.22,0-.39-.17-.39-.39s.17-.39.39-.39Z" class="cls-2"/><polyline points="188.91 209.59 174.9 209.59 174.07 209.59" class="cls-2"/><polyline points="170.93 209.59 147.7 209.59 147.12 209.59 145.53 209.59 144.98 209.59 116.32 209.59" class="cls-2"/></g><g id="LINE-28"><line y2="232.84" x2="112.74" y1="232.84" x1="176.52" class="cls-4"/></g><g id="LINE-29"><line y2="225.11" x2="112.74" y1="225.11" x1="176.52" class="cls-4"/></g><g id="LINE-30"><line y2="232.88" x2="112.74" y1="232.88" x1="176.52" class="cls-2"/></g><g id="LINE-31"><line y2="240.61" x2="112.74" y1="240.61" x1="176.52" class="cls-4"/></g><g id="LINE-32"><line y2="256.14" x2="112.74" y1="256.14" x1="176.52" class="cls-2"/></g><g id="LINE-33"><line y2="248.41" x2="112.74" y1="248.41" x1="176.52" class="cls-2"/></g><g id="LINE-34"><line y2="271.72" x2="112.74" y1="271.72" x1="176.52" class="cls-2"/></g><g id="LINE-35"><line y2="279.44" x2="112.74" y1="279.44" x1="176.52" class="cls-2"/></g><g id="LINE-36"><line y2="225.07" x2="112.74" y1="225.07" x1="176.52" class="cls-2"/></g><g id="LINE-37"><line y2="217.3" x2="116.75" y1="217.3" x1="172.58" class="cls-2"/></g><g id="LINE-38"><line y2="256.18" x2="112.74" y1="256.18" x1="176.52" class="cls-2"/></g><g id="LINE-39"><line y2="263.91" x2="112.74" y1="263.91" x1="176.52" class="cls-2"/></g><g id="LINE-40"><line y2="263.95" x2="112.74" y1="263.95" x1="176.52" class="cls-2"/></g><g id="LINE-41"><line y2="271.68" x2="112.74" y1="271.68" x1="176.52" class="cls-2"/></g><g id="LINE-42"><line y2="240.65" x2="112.74" y1="240.65" x1="176.52" class="cls-2"/></g><g id="LINE-43"><line y2="248.37" x2="112.74" y1="248.37" x1="176.52" class="cls-2"/></g><g id="LINE-44"><line y2="287.21" x2="188.28" y1="287.21" x1="188.9" class="cls-4"/></g><g id="LINE-45"><path d="M145.54,210.27v-.7s1.6,0,1.6,0c0,.17,0,.7,0,.7" class="cls-2"/></g><g id="LINE-46"><line y2="210.31" x2="144.98" y1="209.61" x1="144.98" class="cls-2"/></g><g id="LINE-47"><line y2="209.62" x2="147.69" y1="210.31" x1="147.69" class="cls-2"/></g><rect height="2.73" width="2.71" y="210.27" x="144.98" class="cls-2"/><g id="LINE-48"><polyline points="101.4 209.59 116.13 209.59 116.15 209.59" class="cls-2"/><polyline points="189.29 209.59 184.69 209.59 177.04 209.59" class="cls-2"/><polyline points="173.9 209.59 148.08 209.59 147.53 209.59 145.94 209.59 145.39 209.59 119.29 209.59" class="cls-2"/></g><line y2="287.21" x2="188.68" y1="287.21" x1="189.3" class="cls-4"/><rect height="77.62" width="14.73" y="209.59" x="176.55" class="cls-2"/><g id="LINE-49"><line y2="287.21" x2="188.27" y1="287.21" x1="188.89" class="cls-4"/></g><g id="LINE-50"><line y2="287.21" x2="188.25" y1="287.21" x1="188.87" class="cls-4"/></g><g id="LINE-51"><line y2="205.7" x2="188.35" y1="205.7" x1="258.05" class="cls-2"/></g><g id="LINE-52"><path d="M184.11,209.52s.15-1.68.18-2.11v-.15c.06-.53.46-.96.98-1.05l2.97-.5.35-.13s.1-.07.15-.11.1-.1.14-.16c.02-.03.04-.07.06-.1s.04-.08.06-.13.03-.1.05-.24l.05-.59.36-4.13c.05-.6.56-1.07,1.17-1.07h65.04c.61,0,1.11.46,1.17,1.07l.36,4.13s.05.57.05.59c0,.06.02.11.05.24.02.05.03.09.05.13s.04.07.06.11c.04.06.09.12.14.16s.1.08.15.12l.35.13,2.97.5c.53.09.92.52.97,1.05,0,.05.2,2.26.2,2.26" class="cls-2"/></g><line y2="287.21" x2="188.65" y1="287.21" x1="189.27" class="cls-4"/><g id="LINE-53"><line y2="287.21" x2="191.25" y1="287.21" x1="252.71" class="cls-2"/></g><g id="LINE-54"><path d="M194.38,209.59h-3.14v9.36h3.14c.5,0,.85-.39.85-.85v-7.65c0-.5-.36-.85-.85-.85ZM192.4,214.85h1.68c.22,0,.41.17.41.39s-.19.39-.41.39h-1.68c-.22,0-.39-.17-.39-.39s.16-.39.39-.39Z" class="cls-2"/><polyline points="184.66 209.59 189.26 209.59 191.73 209.59" class="cls-2"/><path d="M249.48,209.59c-.47,0-.85.36-.85.85v7.65c0,.47.39.85.85.85h3.14v-9.36h-3.14ZM249.79,214.85h1.71c.22,0,.39.17.39.39s-.16.39-.39.39h-1.71c-.22,0-.39-.17-.39-.39s.17-.39.39-.39Z" class="cls-2"/><polyline points="267.46 209.59 253.45 209.59 252.62 209.59" class="cls-2"/><polyline points="249.48 209.59 226.25 209.59 225.67 209.59 224.08 209.59 223.53 209.59 194.87 209.59" class="cls-2"/></g><g id="LINE-55"><line y2="232.84" x2="191.29" y1="232.84" x1="252.71" class="cls-4"/></g><g id="LINE-56"><line y2="225.11" x2="191.29" y1="225.11" x1="252.71" class="cls-4"/></g><g id="LINE-57"><line y2="232.88" x2="191.29" y1="232.88" x1="252.71" class="cls-2"/></g><g id="LINE-58"><line y2="240.61" x2="191.29" y1="240.61" x1="252.71" class="cls-4"/></g><g id="LINE-59"><line y2="256.14" x2="191.29" y1="256.14" x1="252.71" class="cls-2"/></g><g id="LINE-60"><line y2="248.41" x2="191.29" y1="248.41" x1="252.71" class="cls-2"/></g><g id="LINE-61"><line y2="271.72" x2="191.29" y1="271.72" x1="252.71" class="cls-2"/></g><g id="LINE-62"><line y2="279.44" x2="191.29" y1="279.44" x1="252.71" class="cls-2"/></g><g id="LINE-63"><line y2="225.07" x2="191.29" y1="225.07" x1="252.71" class="cls-2"/></g><g id="LINE-64"><line y2="217.3" x2="195.3" y1="217.3" x1="248.6" class="cls-2"/></g><g id="LINE-65"><line y2="256.18" x2="191.29" y1="256.18" x1="252.71" class="cls-2"/></g><g id="LINE-66"><line y2="263.91" x2="191.29" y1="263.91" x1="252.71" class="cls-2"/></g><g id="LINE-67"><line y2="263.95" x2="191.29" y1="263.95" x1="252.71" class="cls-2"/></g><g id="LINE-68"><line y2="271.68" x2="191.29" y1="271.68" x1="252.71" class="cls-2"/></g><g id="LINE-69"><line y2="240.65" x2="191.29" y1="240.65" x1="252.71" class="cls-2"/></g><g id="LINE-70"><line y2="248.37" x2="191.29" y1="248.37" x1="252.71" class="cls-2"/></g><g id="LINE-71"><line y2="287.21" x2="283.56" y1="287.21" x1="284.18" class="cls-4"/></g><rect transform="translate(520.08 496.81) rotate(-180)" height="77.61" width="14.81" y="209.6" x="252.64" class="cls-2"/><g id="LINE-72"><path d="M224.09,210.27v-.7s1.6,0,1.6,0v.7" class="cls-2"/></g><g id="LINE-73"><line y2="210.31" x2="223.53" y1="209.61" x1="223.53" class="cls-2"/></g><g id="LINE-74"><line y2="209.62" x2="226.24" y1="210.31" x1="226.24" class="cls-2"/></g><rect height="2.73" width="2.71" y="210.27" x="223.53" class="cls-2"/><g id="LINE-75"><line y2="209.11" x2="308.21" y1="209.11" x1="308.21" class="cls-2"/></g><g id="LINE-76"><line y2="209.11" x2="308.21" y1="209.17" x1="308.21" class="cls-2"/></g><g id="LINE-77"><line y2="225.08" x2="377.07" y1="225.08" x1="316.21" class="cls-2"/></g><g id="LINE-78"><line y2="279.48" x2="377.07" y1="279.48" x1="316.21" class="cls-2"/></g><g id="LINE-79"><line y2="240.62" x2="377.07" y1="240.62" x1="316.21" class="cls-2"/></g><g id="LINE-80"><line y2="256.16" x2="377.07" y1="256.16" x1="316.21" class="cls-2"/></g><g id="LINE-81"><line y2="248.39" x2="377.07" y1="248.39" x1="316.21" class="cls-2"/></g><g id="LINE-82"><line y2="217.31" x2="377.07" y1="217.31" x1="316.21" class="cls-2"/></g><g id="LINE-83"><line y2="271.71" x2="377.07" y1="271.71" x1="316.21" class="cls-2"/></g><g id="LINE-84"><line y2="232.85" x2="377.07" y1="232.85" x1="316.21" class="cls-2"/></g><g id="LINE-85"><line y2="263.94" x2="377.07" y1="263.94" x1="316.21" class="cls-2"/></g><g id="LINE-86"><path d="M388.77,209.53v77.68h-84.27v-77.67" class="cls-2"/></g><g id="LINE-87"><path d="M308.18,209.53h80.25s-.16-1.87-.17-1.91c-.01-.07-.02-.15-.04-.22-.03-.11-.08-.22-.14-.31-.04-.06-.09-.12-.14-.17s-.1-.1-.16-.14c-.07-.05-.15-.09-.23-.13-.04-.02-.09-.03-.13-.05s-.09-.02-.14-.03c0,0-2.18-.36-2.18-.36l-3.1-.51c-.12-.02-.24-.06-.35-.13-.06-.04-.11-.07-.16-.12s-.1-.1-.14-.16c-.02-.03-.04-.07-.06-.11s-.04-.08-.08-.2c-.01-.05-.02-.11-.03-.17l-.07-.76c-.04-.48-.43-.86-.91-.89.04,0-.09,0-.09,0-2.54-.17-61.26-4.14-61.26-4.14-.89-.06-1.74.39-2.18,1.17l-2.39,4.14-.15.26c-.03.05-.07.11-.1.16s-.07.1-.1.14c-.08.09-.16.18-.24.25s-.16.14-.24.19c-.09.06-.18.11-.27.16l-.3.13c-.14.05-.28.08-.43.11l-3.11.47c-.53.08-.94.52-.99,1.06,0,.04-.2,2.25-.2,2.25" class="cls-2"/></g><g id="LINE-88"><polyline points="308.37 207.29 308.37 207.3 308.37 207.33 308.37 207.33" class="cls-2"/></g><g id="ELLIPSE"><path d="M312.34,205.78c.47-.05.94-.06,1.41-.06h67.29c.35,0,.98.03,1.34.06" class="cls-2"/></g><g id="LINE-89"><line y2="287.21" x2="314.22" y1="209.54" x1="314.15" class="cls-2"/></g><g id="LINE-90"><path d="M314.22,287.21h1.21c.43,0,.78-.35.78-.78l.02-76.11c0-.43-.35-.78-.78-.78h-10.92" class="cls-2"/></g><g id="ARC"><path d="M308.02,207.15c-.41.36-.43,1.05-.13,1.52" class="cls-2"/></g><g id="CIRCLE"><circle r=".43" cy="209.09" cx="307.72" class="cls-2"/></g><g id="LINE-91"><path d="M308.26,207.17l-.23-.02-.02.23-.1,1.13s0,.08-.01.16l.23.02" class="cls-2"/></g><g id="LINE-92"><line y2="209.53" x2="388.77" y1="209.53" x1="378.76" class="cls-2"/></g><g id="LINE-93"><line y2="287.21" x2="379.06" y1="209.53" x1="379.14" class="cls-2"/></g><g id="LINE-94"><path d="M379.06,287.21h-1.21c-.43,0-.78-.35-.78-.78v-76.12c0-.43.35-.78.78-.78h1.21s9.71,0,9.71,0" class="cls-2"/></g><g id="LINE-95"><line y2="209.53" x2="388.77" y1="209.52" x1="388.77" class="cls-2"/></g><g id="LINE-96"><line y2="209.53" x2="314.52" y1="209.53" x1="304.5" class="cls-2"/></g><g id="LINE-97"><line y2="209.53" x2="304.5" y1="209.53" x1="304.52" class="cls-2"/></g><path d="M34.99,177.29v3.47c0,.3-.28.55-.55.55h-11.86c-.33,0-.58-.25-.58-.55v-7.73c0-.28.25-.52.58-.52h4.16v3.8c0,.52.41.96.96.96h1.4l5.89.03" class="cls-2"/><path d="M34.91,97.85v3.44h-7.21c-.55,0-.96.41-.96.94v3.88h-4.24c-.33,0-.58-.25-.58-.52v-7.73c0-.3.25-.55.58-.55h11.86c.28,0,.55.25.55.55Z" class="cls-2"/><path d="M253.64,177.29v3.47c0,.3.28.55.55.55h11.86c.33,0,.58-.25.58-.55v-7.73c0-.28-.25-.52-.58-.52h-4.16v3.8c0,.52-.41.96-.96.96h-1.4l-5.89.03" class="cls-2"/><path d="M253.73,97.85v3.44h7.21c.55,0,.96.41.96.94v3.88h4.24c.33,0,.58-.25.58-.52v-7.73c0-.3-.25-.55-.58-.55h-11.86c-.28,0-.55.25-.55.55Z" class="cls-2"/><path d="M111.73,177.29v3.36c0,.36-.33.66-.72.66h-11.84c-.39,0-.72-.3-.72-.66v-3.36h5.31c.28,0,.55-.11.69-.3.19-.17.3-.41.3-.66v-3.96h.5v3.94c0,.25.11.5.3.69.14.19.41.3.69.3h5.48Z" class="cls-2"/><path d="M111.73,97.99v3.33h-5.48c-.55,0-.99.41-.99.94v4.02h-.5v-4.02c0-.25-.11-.5-.3-.66-.17-.17-.41-.28-.69-.28h-5.31v-3.33c0-.36.33-.66.72-.66h11.84c.39,0,.72.3.72.66Z" class="cls-2"/><rect height=".33" width="7.79" y="100.82" x="166.51" class="cls-2"/><g id="ARC-2"><path d="M171.62,100.83c.17-.16.4-.25.64-.25s.47.09.64.25" class="cls-2"/></g><g id="ARC-3"><path d="M168.02,100.83c.17-.16.4-.25.64-.25s.47.09.64.25" class="cls-2"/></g><rect height=".63" width="5.23" y="100.2" x="167.84" class="cls-2"/><rect height=".33" width="7.79" y="100.82" x="114.27" class="cls-2"/><rect height=".63" width="5.23" y="100.2" x="115.55" class="cls-2"/><g id="ARC-4"><path d="M119.33,100.83c.17-.16.4-.25.64-.25s.47.09.64.25" class="cls-2"/></g><g id="ARC-5"><path d="M115.72,100.83c.17-.16.4-.25.64-.25s.47.09.64.25" class="cls-2"/></g><rect height=".33" width="7.79" y="100.82" x="87.96" class="cls-2"/><path d="M93.07,100.83c.17-.16.4-.25.64-.25s.47.09.64.25" class="cls-2"/><path d="M89.47,100.83c.17-.16.4-.25.64-.25s.47.09.64.25" class="cls-2"/><rect height=".63" width="5.23" y="100.2" x="89.3" class="cls-2"/><rect height=".33" width="7.79" y="100.82" x="35.72" class="cls-2"/><rect height=".63" width="5.23" y="100.2" x="37" class="cls-2"/><path d="M40.78,100.83c.17-.16.4-.25.64-.25s.47.09.64.25" class="cls-2"/><path d="M37.17,100.83c.17-.16.4-.25.64-.25s.47.09.64.25" class="cls-2"/><path d="M104.47,101.59c-.17-.17-.41-.28-.69-.28H27.7c-.55,0-.96.41-.96.94v74.04c0,.52.41.96.96.96h32.43c.66,0,1.18.5,1.18,1.13,0,.55.41.96.96.96h9c.52,0,.96-.41.96-.96,0-.63.52-1.13,1.18-1.13h30.36c.28,0,.52-.11.69-.28.17-.19.28-.44.28-.69v-74.04c0-.25-.11-.5-.28-.66ZM99.29,171.31c0,.69-.55,1.24-1.24,1.24H33.45c-.69,0-1.24-.55-1.24-1.24v-61.96c0-.69.55-1.24,1.24-1.24h64.6c.69,0,1.24.55,1.24,1.24v61.96Z" class="cls-2"/><path d="M182.34,101.32h-76.08c-.55,0-.99.41-.99.94v74.04c0,.25.11.5.3.69.16.17.41.28.69.28h32.43c.66,0,1.16.5,1.16,1.13,0,.55.44.96.99.96h8.97c.55,0,.99-.41.99-.96,0-.63.52-1.13,1.16-1.13h30.39c.52,0,.96-.44.96-.96v-74.04c0-.52-.44-.94-.96-.94ZM177.82,171.31c0,.69-.52,1.24-1.21,1.24h-64.63c-.66,0-1.24-.55-1.24-1.24v-61.96c0-.69.58-1.24,1.24-1.24h64.63c.69,0,1.21.55,1.21,1.24v61.96Z" class="cls-2"/><path d="M190.29,177.29v3.36c0,.36-.33.66-.72.66h-11.84c-.39,0-.72-.3-.72-.66v-3.36h5.31c.28,0,.55-.11.69-.3.19-.17.3-.41.3-.66v-3.96h.5v3.94c0,.25.11.5.3.69.14.19.41.3.69.3h5.48Z" class="cls-2"/><path d="M190.29,97.99v3.33h-5.48c-.55,0-.99.41-.99.94v4.02h-.5v-4.02c0-.25-.11-.5-.3-.66-.17-.17-.41-.28-.69-.28h-5.31v-3.33c0-.36.33-.66.72-.66h11.84c.39,0,.72.3.72.66Z" class="cls-2"/><rect height=".33" width="7.79" y="100.82" x="245.07" class="cls-2"/><g id="ARC-6"><path d="M250.18,100.83c.17-.16.4-.25.64-.25s.47.09.64.25" class="cls-2"/></g><g id="ARC-7"><path d="M246.58,100.83c.17-.16.4-.25.64-.25s.47.09.64.25" class="cls-2"/></g><rect height=".63" width="5.23" y="100.2" x="246.4" class="cls-2"/><rect height=".33" width="7.79" y="100.82" x="192.83" class="cls-2"/><rect height=".63" width="5.23" y="100.2" x="194.11" class="cls-2"/><g id="ARC-8"><path d="M197.89,100.83c.17-.16.4-.25.64-.25s.47.09.64.25" class="cls-2"/></g><g id="ARC-9"><path d="M194.28,100.83c.17-.16.4-.25.64-.25s.47.09.64.25" class="cls-2"/></g><path d="M260.9,101.32h-76.08c-.55,0-.99.41-.99.94v74.04c0,.25.11.5.3.69.16.17.41.28.69.28h32.43c.66,0,1.16.5,1.16,1.13,0,.55.44.96.99.96h8.97c.55,0,.99-.41.99-.96,0-.63.52-1.13,1.16-1.13h30.39c.52,0,.96-.44.96-.96v-74.04c0-.52-.44-.94-.96-.94Z" class="cls-2"/><path d="M256.38,171.31c0,.69-.52,1.24-1.21,1.24h-64.63c-.66,0-1.24-.55-1.24-1.24v-61.96c0-.69.58-1.24,1.24-1.24h64.63c.69,0,1.21.55,1.21,1.24v61.96Z" class="cls-2"/><line y2="287.28" x2="11.39" y1="199.21" x1="11.39" class="cls-3"/><rect height=".3" width="1.95" y="199.06" x="10.42" class="cls-5"/><rect height=".3" width="1.95" y="287.13" x="10.42" class="cls-5"/><path d="M3.01,255.37h5.29v.72H3.76l.64,1.3h-.73l-.67-1.36v-.67Z"/><path d="M3.01,252.53h5.29v.72H3.76l.64,1.3h-.73l-.67-1.36v-.67Z"/><path d="M3.01,248.54h.55l.98.65c.06.04.1.07.15.1.04.03.08.06.13.09s.09.06.13.09.09.06.15.09c.02-.19.08-.37.18-.52s.21-.29.35-.41c.14-.12.3-.21.48-.27s.38-.09.59-.09c.24,0,.47.04.67.13.2.08.38.2.52.36.14.15.26.34.34.54s.12.44.12.69c0,.21-.03.4-.08.58-.05.18-.13.35-.23.49-.1.15-.22.28-.37.39-.14.11-.31.2-.49.26l-.31-.63c.24-.08.44-.22.58-.41.14-.19.21-.42.21-.67,0-.15-.02-.28-.07-.4-.05-.12-.11-.23-.2-.31-.09-.09-.19-.15-.31-.2-.12-.05-.26-.07-.41-.07s-.29.03-.42.08c-.13.06-.23.13-.32.22-.09.09-.16.21-.21.34-.05.13-.08.28-.08.44v.35l-.44.08-1.07-.72s-.09-.06-.12-.09c-.03-.03-.07-.05-.12-.08s-.08-.06-.12-.08c-.03-.03-.07-.06-.12-.09v2.18h-.65v-3.09Z"/><path d="M3.16,244.84c.13-.25.32-.47.55-.65.23-.18.52-.32.85-.42.33-.1.69-.15,1.08-.15s.76.05,1.1.15.62.24.86.42c.24.18.43.4.56.65.13.25.2.52.2.83s-.07.57-.2.82-.32.47-.56.65c-.24.18-.53.32-.86.42-.33.1-.7.15-1.1.15s-.75-.05-1.08-.15c-.33-.1-.61-.24-.85-.42-.24-.18-.42-.4-.55-.65-.13-.25-.2-.53-.2-.83s.07-.58.2-.83ZM3.79,246.2c.1.16.23.29.41.41.18.11.38.2.63.27.24.07.51.1.81.1s.57-.03.82-.09c.25-.06.46-.15.64-.27.18-.12.32-.25.42-.41.1-.16.15-.33.15-.52s-.05-.37-.15-.53c-.1-.16-.24-.3-.42-.41-.18-.11-.39-.2-.64-.27-.25-.06-.52-.09-.82-.09s-.56.03-.81.09c-.25.06-.46.15-.63.26-.17.11-.31.25-.41.41-.1.16-.15.34-.15.53s.05.37.15.52Z"/><path d="M4.66,240.02h.67c-.24-.11-.42-.26-.54-.45-.12-.18-.18-.4-.18-.63,0-.26.07-.48.2-.67.14-.19.33-.32.59-.41-.26-.11-.45-.27-.59-.46-.14-.2-.2-.43-.2-.7,0-.38.12-.67.37-.88.25-.21.61-.31,1.07-.31h2.25v.7h-2.16c-.29,0-.52.07-.69.2-.17.13-.25.31-.25.54,0,.12.02.22.07.32.05.1.11.18.2.26.09.07.19.13.32.16.12.04.26.06.4.06h2.11v.7h-2.16c-.14,0-.27.02-.38.06-.12.04-.22.09-.3.15-.08.06-.14.14-.19.23-.04.09-.07.2-.07.31s.02.22.07.32c.05.1.12.18.21.25.09.07.2.12.32.17.12.04.26.06.41.06h2.09v.7h-3.64v-.68Z"/><path d="M4.66,233.83h.67c-.24-.11-.42-.26-.54-.45-.12-.18-.18-.4-.18-.63,0-.26.07-.48.2-.67.14-.19.33-.32.59-.41-.26-.11-.45-.27-.59-.46-.14-.2-.2-.43-.2-.7,0-.38.12-.67.37-.88.25-.21.61-.31,1.07-.31h2.25v.7h-2.16c-.29,0-.52.07-.69.2-.17.13-.25.31-.25.54,0,.12.02.22.07.32.05.1.11.18.2.26.09.07.19.13.32.16.12.04.26.06.4.06h2.11v.7h-2.16c-.14,0-.27.02-.38.06-.12.04-.22.09-.3.15-.08.06-.14.14-.19.23-.04.09-.07.2-.07.31s.02.22.07.32c.05.1.12.18.21.25.09.07.2.12.32.17.12.04.26.06.41.06h2.09v.7h-3.64v-.68Z"/><line y2="181.19" x2="11.39" y1="97.45" x1="11.39" class="cls-3"/><rect height=".3" width="1.95" y="97.3" x="10.42" class="cls-5"/><rect height=".3" width="1.95" y="181.04" x="10.42" class="cls-5"/><path d="M3.01,152.39h5.29v.72H3.76l.64,1.3h-.73l-.67-1.36v-.67Z"/><path d="M3.16,148.68c.13-.25.32-.47.55-.65.23-.18.52-.32.85-.42.33-.1.69-.15,1.08-.15s.76.05,1.1.15.62.24.86.42c.24.18.43.4.56.65.13.25.2.52.2.83s-.07.57-.2.82-.32.47-.56.65c-.24.18-.53.32-.86.42-.33.1-.7.15-1.1.15s-.75-.05-1.08-.15c-.33-.1-.61-.24-.85-.42-.24-.18-.42-.4-.55-.65-.13-.25-.2-.53-.2-.83s.07-.58.2-.83ZM3.79,150.04c.1.16.23.29.41.41.18.11.38.2.63.27.24.07.51.1.81.1s.57-.03.82-.09c.25-.06.46-.15.64-.27.18-.12.32-.25.42-.41.1-.16.15-.33.15-.52s-.05-.37-.15-.53c-.1-.16-.24-.3-.42-.41-.18-.11-.39-.2-.64-.27-.25-.06-.52-.09-.82-.09s-.56.03-.81.09c-.25.06-.46.15-.63.26-.17.11-.31.25-.41.41-.1.16-.15.34-.15.53s.05.37.15.52Z"/><path d="M8.25,145.87c-.07.22-.17.4-.31.56-.13.15-.29.28-.47.36s-.38.13-.6.13c-.16,0-.31-.02-.45-.07-.15-.05-.28-.11-.4-.2-.12-.09-.22-.19-.3-.31s-.14-.25-.18-.4c-.05.14-.12.25-.2.36-.08.1-.17.19-.27.27s-.21.13-.33.17c-.12.04-.25.06-.38.06-.21,0-.39-.04-.56-.12-.17-.08-.32-.2-.44-.34-.13-.14-.22-.32-.29-.52-.07-.2-.1-.42-.1-.66s.03-.46.1-.66c.07-.2.17-.37.29-.52.12-.15.27-.26.44-.35.17-.08.36-.13.57-.13.13,0,.26.02.38.06.12.04.24.1.34.17.1.07.19.16.27.27.08.1.14.22.19.35.04-.15.1-.28.18-.4s.19-.22.31-.3c.12-.08.25-.15.4-.2.14-.05.29-.07.45-.07.21,0,.41.04.6.13.18.09.34.21.47.36.13.15.24.34.31.56.07.22.11.46.11.72s-.04.5-.11.72ZM3.69,145.51c.04.11.09.2.16.28.07.08.15.14.26.18s.21.07.33.07c.11,0,.22-.02.32-.07.1-.04.19-.11.26-.19.07-.08.13-.17.17-.28s.06-.23.06-.35-.02-.25-.06-.35c-.04-.1-.1-.2-.17-.28s-.16-.14-.26-.19c-.1-.04-.21-.07-.32-.07-.12,0-.23.02-.33.07-.1.04-.19.11-.26.19-.07.08-.12.17-.16.28-.04.11-.06.23-.06.36s.02.24.06.35ZM7.62,144.74c-.04-.13-.11-.23-.19-.32-.08-.09-.18-.16-.29-.21-.11-.05-.24-.08-.37-.08s-.26.03-.37.08c-.11.05-.21.12-.29.21-.08.09-.15.2-.2.33-.05.13-.07.26-.07.41s.02.28.07.41c.04.13.11.23.19.33s.18.16.3.21c.11.05.24.07.37.07.14,0,.27-.02.38-.07.11-.05.21-.12.29-.21.08-.09.14-.2.19-.33.04-.13.07-.26.07-.41s-.02-.29-.07-.41Z"/><path d="M3.16,139.96c.13-.25.32-.47.55-.65.23-.18.52-.32.85-.42.33-.1.69-.15,1.08-.15s.76.05,1.1.15.62.24.86.42c.24.18.43.4.56.65.13.25.2.52.2.83s-.07.57-.2.82-.32.47-.56.65c-.24.18-.53.32-.86.42-.33.1-.7.15-1.1.15s-.75-.05-1.08-.15c-.33-.1-.61-.24-.85-.42-.24-.18-.42-.4-.55-.65-.13-.25-.2-.53-.2-.83s.07-.58.2-.83ZM3.79,141.32c.1.16.23.29.41.41.18.11.38.2.63.27.24.07.51.1.81.1s.57-.03.82-.09c.25-.06.46-.15.64-.27.18-.12.32-.25.42-.41.1-.16.15-.33.15-.52s-.05-.37-.15-.53c-.1-.16-.24-.3-.42-.41-.18-.11-.39-.2-.64-.27-.25-.06-.52-.09-.82-.09s-.56.03-.81.09c-.25.06-.46.15-.63.26-.17.11-.31.25-.41.41-.1.16-.15.34-.15.53s.05.37.15.52Z"/><path d="M4.66,135.13h.67c-.24-.11-.42-.26-.54-.45-.12-.18-.18-.4-.18-.63,0-.26.07-.48.2-.67.14-.19.33-.32.59-.41-.26-.11-.45-.27-.59-.46-.14-.2-.2-.43-.2-.7,0-.38.12-.67.37-.88.25-.21.61-.31,1.07-.31h2.25v.7h-2.16c-.29,0-.52.07-.69.2-.17.13-.25.31-.25.54,0,.12.02.22.07.32.05.1.11.18.2.26.09.07.19.13.32.16.12.04.26.06.4.06h2.11v.7h-2.16c-.14,0-.27.02-.38.06-.12.04-.22.09-.3.15-.08.06-.14.14-.19.23-.04.09-.07.2-.07.31s.02.22.07.32c.05.1.12.18.21.25.09.07.2.12.32.17.12.04.26.06.41.06h2.09v.7h-3.64v-.68Z"/><path d="M4.66,128.95h.67c-.24-.11-.42-.26-.54-.45-.12-.18-.18-.4-.18-.63,0-.26.07-.48.2-.67.14-.19.33-.32.59-.41-.26-.11-.45-.27-.59-.46-.14-.2-.2-.43-.2-.7,0-.38.12-.67.37-.88.25-.21.61-.31,1.07-.31h2.25v.7h-2.16c-.29,0-.52.07-.69.2-.17.13-.25.31-.25.54,0,.12.02.22.07.32.05.1.11.18.2.26.09.07.19.13.32.16.12.04.26.06.4.06h2.11v.7h-2.16c-.14,0-.27.02-.38.06-.12.04-.22.09-.3.15-.08.06-.14.14-.19.23-.04.09-.07.2-.07.31s.02.22.07.32c.05.1.12.18.21.25.09.07.2.12.32.17.12.04.26.06.41.06h2.09v.7h-3.64v-.68Z"/><line y2="85.15" x2="21.97" y1="85.15" x1="266.57" class="cls-3"/><rect height="1.95" width=".3" y="84.17" x="266.42" class="cls-5"/><rect height="1.95" width=".3" y="84.17" x="21.82" class="cls-5"/><path d="M132.94,76.77v.55l-.65.98c-.04.06-.07.1-.1.15-.03.04-.06.08-.09.13-.03.04-.06.09-.09.13s-.06.09-.09.15c.19.02.37.08.52.17.16.09.29.21.41.35.12.14.21.3.27.48s.09.38.09.59c0,.24-.04.47-.13.67-.08.2-.2.38-.36.52s-.34.26-.54.34c-.21.08-.44.12-.69.12-.21,0-.4-.03-.58-.08-.18-.05-.35-.13-.49-.23-.15-.1-.28-.22-.39-.37-.11-.14-.2-.31-.26-.49l.63-.31c.08.24.22.43.41.58.19.14.42.21.67.21.15,0,.28-.02.4-.07.12-.05.23-.11.31-.2.09-.09.15-.19.2-.31.05-.12.07-.26.07-.41s-.03-.29-.08-.42c-.06-.13-.13-.23-.22-.32-.09-.09-.21-.16-.34-.21s-.28-.08-.44-.08h-.35l-.08-.44.72-1.07s.06-.09.09-.12c.03-.03.05-.07.08-.12.03-.04.06-.08.08-.12.03-.03.06-.07.09-.12h-2.18v-.65h3.09Z"/><path d="M135.75,76.77v5.29h-.72v-4.54l-1.3.64v-.73l1.36-.67h.67Z"/><path d="M139.75,76.77v.55l-.65.98c-.04.06-.07.1-.1.15-.03.04-.06.08-.09.13-.03.04-.06.09-.09.13s-.06.09-.09.15c.19.02.37.08.52.17.16.09.29.21.41.35.12.14.21.3.27.48s.09.38.09.59c0,.24-.04.47-.13.67-.08.2-.2.38-.36.52s-.34.26-.54.34c-.21.08-.44.12-.69.12-.21,0-.4-.03-.58-.08-.18-.05-.35-.13-.49-.23-.15-.1-.28-.22-.39-.37-.11-.14-.2-.31-.26-.49l.63-.31c.08.24.22.43.41.58.19.14.42.21.67.21.15,0,.28-.02.4-.07.12-.05.23-.11.31-.2.09-.09.15-.19.2-.31.05-.12.07-.26.07-.41s-.03-.29-.08-.42c-.06-.13-.13-.23-.22-.32-.09-.09-.21-.16-.34-.21s-.28-.08-.44-.08h-.35l-.08-.44.72-1.07s.06-.09.09-.12c.03-.03.05-.07.08-.12.03-.04.06-.08.08-.12.03-.03.06-.07.09-.12h-2.18v-.65h3.09Z"/><path d="M141.71,81.93c-.24-.12-.44-.29-.61-.51-.17-.22-.3-.5-.39-.82s-.14-.69-.14-1.09.05-.8.15-1.15c.1-.35.24-.64.43-.89.18-.25.41-.43.67-.56.26-.13.55-.2.88-.2.37,0,.7.09.97.27s.47.43.59.76l-.64.29c-.07-.21-.18-.37-.34-.48-.16-.11-.35-.17-.56-.17-.2,0-.38.05-.55.14-.17.09-.31.23-.44.4-.13.17-.22.37-.29.61-.07.24-.1.49-.1.77v.17c0,.06,0,.1,0,.15.08-.25.23-.45.45-.59.22-.14.48-.21.79-.21.24,0,.46.04.65.12s.36.19.5.34.25.32.33.52c.08.2.12.42.12.66s-.04.47-.13.68c-.08.21-.2.38-.35.53-.15.14-.32.26-.53.34-.21.08-.43.12-.68.12-.3,0-.57-.06-.81-.18ZM142.87,81.36c.12-.05.22-.12.3-.21.08-.09.15-.19.2-.32.05-.12.07-.26.07-.41s-.02-.29-.07-.41c-.05-.12-.12-.23-.2-.32s-.19-.16-.31-.21-.25-.07-.4-.07-.27.03-.39.07-.22.12-.31.2c-.09.09-.15.19-.2.31s-.07.25-.07.4.03.28.08.41c.05.13.12.24.21.34s.2.17.32.22c.12.05.26.08.4.08s.26-.03.38-.08Z"/><path d="M147.87,78.41v.67c.11-.24.26-.42.45-.54.18-.12.4-.18.63-.18.26,0,.48.07.67.2s.32.33.41.59c.11-.26.27-.45.46-.59s.43-.2.7-.2c.38,0,.67.12.88.38.21.25.31.61.31,1.07v2.25h-.7v-2.16c0-.29-.07-.52-.2-.69-.13-.17-.31-.25-.54-.25-.12,0-.22.02-.32.07s-.18.11-.26.2-.13.19-.16.32c-.04.12-.06.26-.06.4v2.11h-.7v-2.16c0-.14-.02-.27-.06-.38-.04-.12-.09-.22-.15-.3s-.14-.14-.23-.19c-.09-.04-.2-.07-.31-.07s-.22.02-.32.07-.18.12-.25.21c-.07.09-.12.2-.17.32-.04.12-.06.26-.06.41v2.09h-.7v-3.64h.68Z"/><path d="M154.05,78.41v.67c.11-.24.26-.42.45-.54.18-.12.4-.18.63-.18.26,0,.48.07.67.2s.32.33.41.59c.11-.26.27-.45.46-.59s.43-.2.7-.2c.38,0,.67.12.88.38.21.25.31.61.31,1.07v2.25h-.7v-2.16c0-.29-.07-.52-.2-.69-.13-.17-.31-.25-.54-.25-.12,0-.22.02-.32.07s-.18.11-.26.2-.13.19-.16.32c-.04.12-.06.26-.06.4v2.11h-.7v-2.16c0-.14-.02-.27-.06-.38-.04-.12-.09-.22-.15-.3s-.14-.14-.23-.19c-.09-.04-.2-.07-.31-.07s-.22.02-.32.07-.18.12-.25.21c-.07.09-.12.2-.17.32-.04.12-.06.26-.06.41v2.09h-.7v-3.64h.68Z"/></g></g></svg>