<svg viewBox="0 0 531.27 288" xmlns:xlink="http://www.w3.org/1999/xlink" xmlns="http://www.w3.org/2000/svg" id="Camada_2"><defs><style>.cls-1,.cls-2,.cls-3{fill:none;}.cls-4{fill:#12100c;}.cls-2{stroke:#000;stroke-width:.13px;}.cls-2,.cls-3{stroke-linecap:round;stroke-linejoin:round;}.cls-3{stroke:#12100c;stroke-width:.3px;}</style><symbol viewBox="0 0 531.27 288" id="fundo_transparente"><rect height="288" width="531.27" x="0" class="cls-1"/></symbol></defs><g id="RePlastic"><g id="mesa_de_piquenique_Terra_Nostra_Kids"><use xlink:href="#fundo_transparente" height="288" width="531.27"/><rect ry="1.28" rx="1.28" height="78.34" width="194.01" y="58.55" x="29.34" class="cls-3"/><rect ry="1.17" rx="1.17" height="24.81" width="193.88" y="142.78" x="29.27" class="cls-3"/><rect ry="1.17" rx="1.17" height="24.81" width="193.88" y="27.85" x="29.41" class="cls-3"/><rect height="5.85" width="5.82" y="136.88" x="61.58" class="cls-3"/><rect transform="translate(376.48 279.6) rotate(-180)" height="5.85" width="5.82" y="136.88" x="185.33" class="cls-3"/><rect height="5.75" width="5.82" y="52.76" x="61.58" class="cls-3"/><rect transform="translate(376.48 111.27) rotate(-180)" height="5.75" width="5.82" y="52.76" x="185.33" class="cls-3"/><g id="LINE"><line y2="210.26" x2="15.17" y1="283.71" x1="15.17" class="cls-3"/><rect height=".3" width="1.95" y="283.56" x="14.2" class="cls-4"/><rect height=".3" width="1.95" y="210.11" x="14.2" class="cls-4"/></g><g id="MTEXT"><path d="M5.13,256.9h.65v1.92l1.54.25c-.09-.1-.16-.22-.21-.36-.05-.14-.07-.29-.07-.46,0-.25.04-.47.13-.68.08-.21.2-.38.35-.53.15-.15.33-.27.54-.35.21-.08.44-.12.69-.12s.48.04.7.13c.21.09.4.21.55.36.15.16.27.34.36.56.08.21.13.45.13.71,0,.2-.03.39-.08.58s-.13.35-.23.5c-.1.15-.22.28-.36.39-.14.11-.3.19-.48.24l-.31-.63c.24-.07.43-.19.56-.39.14-.19.21-.42.21-.67,0-.15-.03-.29-.08-.41-.05-.13-.12-.23-.21-.33-.09-.09-.2-.16-.33-.21-.13-.05-.27-.08-.43-.08s-.3.03-.44.08c-.13.05-.25.13-.34.22s-.17.21-.22.34c-.05.13-.08.28-.08.44,0,.18.04.35.1.49.07.14.17.26.31.36l-.15.62-2.79-.47v-2.52Z"/><path d="M10.41,255.51l-4.62-1.78v2.69h-.67v-3.5h.59l4.7,1.77v.83Z"/><path d="M5.27,249.68c.13-.25.32-.47.55-.65.23-.18.52-.32.85-.42.33-.1.69-.15,1.08-.15s.76.05,1.1.15.62.24.86.42c.24.18.43.4.56.65.13.25.2.52.2.83s-.07.57-.2.82-.32.47-.56.65c-.24.18-.53.32-.86.42-.33.1-.7.15-1.1.15s-.75-.05-1.08-.15c-.33-.1-.61-.24-.85-.42-.24-.18-.42-.4-.55-.65-.13-.25-.2-.53-.2-.83s.07-.58.2-.83ZM5.9,251.03c.1.16.23.29.41.41.18.11.38.2.63.27.24.07.51.1.81.1s.57-.03.82-.09c.25-.06.46-.15.64-.27.18-.12.32-.25.42-.41.1-.16.15-.33.15-.52s-.05-.37-.15-.53c-.1-.16-.24-.3-.42-.41-.18-.11-.39-.2-.64-.27-.25-.06-.52-.09-.82-.09s-.56.03-.81.09c-.25.06-.46.15-.63.26-.17.11-.31.25-.41.41-.1.16-.15.34-.15.53s.05.37.15.52Z"/><path d="M6.77,244.85h.67c-.24-.11-.42-.26-.54-.45-.12-.18-.18-.4-.18-.63,0-.26.07-.48.2-.67.14-.19.33-.32.59-.41-.26-.11-.45-.27-.59-.46-.14-.2-.2-.43-.2-.7,0-.38.12-.67.37-.88.25-.21.61-.31,1.07-.31h2.25v.7h-2.16c-.29,0-.52.07-.69.2-.17.13-.25.31-.25.54,0,.12.02.22.07.32.05.1.11.18.2.26.09.07.19.13.32.16.12.04.26.06.4.06h2.11v.7h-2.16c-.14,0-.27.02-.38.06-.12.04-.22.09-.3.15-.08.06-.14.14-.19.23-.04.09-.07.2-.07.31s.02.22.07.32c.05.1.12.18.21.25.09.07.2.12.32.17.12.04.26.06.41.06h2.09v.7h-3.64v-.68Z"/><path d="M6.77,238.66h.67c-.24-.11-.42-.26-.54-.45-.12-.18-.18-.4-.18-.63,0-.26.07-.48.2-.67.14-.19.33-.32.59-.41-.26-.11-.45-.27-.59-.46-.14-.2-.2-.43-.2-.7,0-.38.12-.67.37-.88.25-.21.61-.31,1.07-.31h2.25v.7h-2.16c-.29,0-.52.07-.69.2-.17.13-.25.31-.25.54,0,.12.02.22.07.32.05.1.11.18.2.26.09.07.19.13.32.16.12.04.26.06.4.06h2.11v.7h-2.16c-.14,0-.27.02-.38.06-.12.04-.22.09-.3.15-.08.06-.14.14-.19.23-.04.09-.07.2-.07.31s.02.22.07.32c.05.1.12.18.21.25.09.07.2.12.32.17.12.04.26.06.41.06h2.09v.7h-3.64v-.68Z"/></g><g id="LINE-2"><line y2="28" x2="15.1" y1="167.44" x1="15.1" class="cls-3"/><rect height=".3" width="1.95" y="167.29" x="14.13" class="cls-4"/><rect height=".3" width="1.95" y="27.85" x="14.13" class="cls-4"/></g><g id="MTEXT-2"><path d="M5.06,110.79h5.29v.72h-4.54l.64,1.3h-.73l-.67-1.36v-.67Z"/><path d="M5.2,107.09c.13-.25.32-.47.55-.65.23-.18.52-.32.85-.42.33-.1.69-.15,1.08-.15s.76.05,1.1.15.62.24.86.42c.24.18.43.4.56.65.13.25.2.52.2.83s-.07.57-.2.82-.32.47-.56.65c-.24.18-.53.32-.86.42-.33.1-.7.15-1.1.15s-.75-.05-1.08-.15c-.33-.1-.61-.24-.85-.42-.24-.18-.42-.4-.55-.65-.13-.25-.2-.53-.2-.83s.07-.58.2-.83ZM5.83,108.44c.1.16.23.29.41.41.18.11.38.2.63.27.24.07.51.1.81.1s.57-.03.82-.09c.25-.06.46-.15.64-.27.18-.12.32-.25.42-.41.1-.16.15-.33.15-.52s-.05-.37-.15-.53c-.1-.16-.24-.3-.42-.41-.18-.11-.39-.2-.64-.27-.25-.06-.52-.09-.82-.09s-.56.03-.81.09c-.25.06-.46.15-.63.26-.17.11-.31.25-.41.41-.1.16-.15.34-.15.53s.05.37.15.52Z"/><path d="M10.29,104.28c-.07.22-.17.4-.31.56-.13.15-.29.28-.47.36s-.38.13-.6.13c-.16,0-.31-.02-.45-.07-.15-.05-.28-.11-.4-.2-.12-.09-.22-.19-.3-.31s-.14-.25-.18-.4c-.05.14-.12.25-.2.36-.08.1-.17.19-.27.27s-.21.13-.33.17c-.12.04-.25.06-.38.06-.21,0-.39-.04-.56-.12-.17-.08-.32-.2-.44-.34-.13-.14-.22-.32-.29-.52-.07-.2-.1-.42-.1-.66s.03-.46.1-.66c.07-.2.17-.37.29-.52.12-.15.27-.26.44-.35.17-.08.36-.13.57-.13.13,0,.26.02.38.06.12.04.24.1.34.17.1.07.19.16.27.27.08.1.14.22.19.35.04-.15.1-.28.18-.4s.19-.22.31-.3c.12-.08.25-.15.4-.2.14-.05.29-.07.45-.07.21,0,.41.04.6.13.18.09.34.21.47.36.13.15.24.34.31.56.07.22.11.46.11.72s-.04.5-.11.72ZM5.73,103.91c.04.11.09.2.16.28.07.08.15.14.26.18s.21.07.33.07c.11,0,.22-.02.32-.07.1-.04.19-.11.26-.19.07-.08.13-.17.17-.28s.06-.23.06-.35-.02-.25-.06-.35c-.04-.1-.1-.2-.17-.28s-.16-.14-.26-.19c-.1-.04-.21-.07-.32-.07-.12,0-.23.02-.33.07-.1.04-.19.11-.26.19-.07.08-.12.17-.16.28-.04.11-.06.23-.06.36s.02.24.06.35ZM9.66,103.14c-.04-.13-.11-.23-.19-.32-.08-.09-.18-.16-.29-.21-.11-.05-.24-.08-.37-.08s-.26.03-.37.08c-.11.05-.21.12-.29.21-.08.09-.15.2-.2.33-.05.13-.07.26-.07.41s.02.28.07.41c.04.13.11.23.19.33s.18.16.3.21c.11.05.24.07.37.07.14,0,.27-.02.38-.07.11-.05.21-.12.29-.21.08-.09.14-.2.19-.33.04-.13.07-.26.07-.41s-.02-.29-.07-.41Z"/><path d="M5.2,98.37c.13-.25.32-.47.55-.65.23-.18.52-.32.85-.42.33-.1.69-.15,1.08-.15s.76.05,1.1.15.62.24.86.42c.24.18.43.4.56.65.13.25.2.52.2.83s-.07.57-.2.82-.32.47-.56.65c-.24.18-.53.32-.86.42-.33.1-.7.15-1.1.15s-.75-.05-1.08-.15c-.33-.1-.61-.24-.85-.42-.24-.18-.42-.4-.55-.65-.13-.25-.2-.53-.2-.83s.07-.58.2-.83ZM5.83,99.72c.1.16.23.29.41.41.18.11.38.2.63.27.24.07.51.1.81.1s.57-.03.82-.09c.25-.06.46-.15.64-.27.18-.12.32-.25.42-.41.1-.16.15-.33.15-.52s-.05-.37-.15-.53c-.1-.16-.24-.3-.42-.41-.18-.11-.39-.2-.64-.27-.25-.06-.52-.09-.82-.09s-.56.03-.81.09c-.25.06-.46.15-.63.26-.17.11-.31.25-.41.41-.1.16-.15.34-.15.53s.05.37.15.52Z"/><path d="M6.7,93.54h.67c-.24-.11-.42-.26-.54-.45-.12-.18-.18-.4-.18-.63,0-.26.07-.48.2-.67.14-.19.33-.32.59-.41-.26-.11-.45-.27-.59-.46-.14-.2-.2-.43-.2-.7,0-.38.12-.67.37-.88.25-.21.61-.31,1.07-.31h2.25v.7h-2.16c-.29,0-.52.07-.69.2-.17.13-.25.31-.25.54,0,.12.02.22.07.32.05.1.11.18.2.26.09.07.19.13.32.16.12.04.26.06.4.06h2.11v.7h-2.16c-.14,0-.27.02-.38.06-.12.04-.22.09-.3.15-.08.06-.14.14-.19.23-.04.09-.07.2-.07.31s.02.22.07.32c.05.1.12.18.21.25.09.07.2.12.32.17.12.04.26.06.41.06h2.09v.7h-3.64v-.68Z"/><path d="M6.7,87.35h.67c-.24-.11-.42-.26-.54-.45-.12-.18-.18-.4-.18-.63,0-.26.07-.48.2-.67.14-.19.33-.32.59-.41-.26-.11-.45-.27-.59-.46-.14-.2-.2-.43-.2-.7,0-.38.12-.67.37-.88.25-.21.61-.31,1.07-.31h2.25v.7h-2.16c-.29,0-.52.07-.69.2-.17.13-.25.31-.25.54,0,.12.02.22.07.32.05.1.11.18.2.26.09.07.19.13.32.16.12.04.26.06.4.06h2.11v.7h-2.16c-.14,0-.27.02-.38.06-.12.04-.22.09-.3.15-.08.06-.14.14-.19.23-.04.09-.07.2-.07.31s.02.22.07.32c.05.1.12.18.21.25.09.07.2.12.32.17.12.04.26.06.41.06h2.09v.7h-3.64v-.68Z"/></g><g id="LINE-3"><line y2="13.68" x2="223.21" y1="13.68" x1="29.42" class="cls-3"/><rect height="1.95" width=".3" y="12.7" x="29.27" class="cls-4"/><rect height="1.95" width=".3" y="12.7" x="223.06" class="cls-4"/></g><g id="MTEXT-3"><path d="M114.36,3.63v5.29h-.72v-4.54l-1.3.64v-.73l1.36-.67h.67Z"/><path d="M118.31,3.63v.65h-1.92l-.25,1.54c.1-.09.22-.16.36-.21.14-.05.29-.07.46-.07.25,0,.47.04.68.13.21.08.38.2.53.35.15.15.27.33.35.54.08.21.12.44.12.69s-.04.48-.13.7c-.09.21-.21.4-.36.55-.16.15-.34.27-.56.36-.21.08-.45.13-.71.13-.2,0-.39-.03-.58-.08s-.35-.13-.5-.23c-.15-.1-.28-.22-.39-.36-.11-.14-.19-.3-.24-.48l.63-.31c.07.24.19.43.39.56.19.14.42.21.67.21.15,0,.29-.03.41-.08.13-.05.23-.12.33-.21.09-.09.16-.2.21-.33.05-.13.08-.27.08-.43s-.03-.3-.08-.44c-.05-.13-.13-.25-.22-.34s-.21-.17-.34-.22c-.13-.05-.28-.08-.44-.08-.18,0-.35.04-.49.1-.14.07-.26.17-.36.31l-.62-.15.47-2.79h2.52Z"/><path d="M122.05,3.78c.25.13.47.32.65.55.18.23.32.52.42.85.1.33.15.69.15,1.08s-.05.76-.15,1.1-.24.62-.42.86c-.18.24-.4.43-.65.56-.25.13-.52.2-.83.2s-.57-.07-.82-.2-.47-.32-.65-.56c-.18-.24-.32-.53-.42-.86-.1-.33-.15-.7-.15-1.1s.05-.75.15-1.08c.1-.33.24-.61.42-.85.18-.24.4-.42.65-.55.25-.13.53-.2.83-.2s.58.07.83.2ZM120.69,4.41c-.16.1-.29.23-.41.41-.11.18-.2.38-.27.63-.07.24-.1.51-.1.81s.03.57.09.82c.06.25.15.46.27.64.12.18.25.32.41.42.16.1.33.15.52.15s.37-.05.53-.15c.16-.1.3-.24.41-.42.11-.18.2-.39.27-.64.06-.25.09-.52.09-.82s-.03-.56-.09-.81c-.06-.25-.15-.46-.26-.63-.11-.17-.25-.31-.41-.41-.16-.1-.34-.15-.53-.15s-.37.05-.52.15Z"/><path d="M126.68,3.78c.25.13.47.32.65.55.18.23.32.52.42.85.1.33.15.69.15,1.08s-.05.76-.15,1.1-.24.62-.42.86c-.18.24-.4.43-.65.56-.25.13-.52.2-.83.2s-.57-.07-.82-.2-.47-.32-.65-.56c-.18-.24-.32-.53-.42-.86-.1-.33-.15-.7-.15-1.1s.05-.75.15-1.08c.1-.33.24-.61.42-.85.18-.24.4-.42.65-.55.25-.13.53-.2.83-.2s.58.07.83.2ZM125.33,4.41c-.16.1-.29.23-.41.41-.11.18-.2.38-.27.63-.07.24-.1.51-.1.81s.03.57.09.82c.06.25.15.46.27.64.12.18.25.32.41.42.16.1.33.15.52.15s.37-.05.53-.15c.16-.1.3-.24.41-.42.11-.18.2-.39.27-.64.06-.25.09-.52.09-.82s-.03-.56-.09-.81c-.06-.25-.15-.46-.26-.63-.11-.17-.25-.31-.41-.41-.16-.1-.34-.15-.53-.15s-.37.05-.52.15Z"/><path d="M129.38,5.28v.67c.11-.24.26-.42.45-.54.18-.12.4-.18.63-.18.26,0,.48.07.67.2.19.14.32.33.41.59.11-.26.27-.45.46-.59.2-.14.43-.2.7-.2.38,0,.67.12.88.37.21.25.31.61.31,1.07v2.25h-.7v-2.16c0-.29-.07-.52-.2-.69-.13-.17-.31-.25-.54-.25-.12,0-.22.02-.32.07-.1.05-.18.11-.26.2-.07.09-.13.19-.16.32-.04.12-.06.26-.06.4v2.11h-.7v-2.16c0-.14-.02-.27-.06-.38-.04-.12-.09-.22-.15-.3-.06-.08-.14-.14-.23-.19-.09-.04-.2-.07-.31-.07s-.22.02-.32.07c-.1.05-.18.12-.25.21-.07.09-.12.2-.17.32-.04.12-.06.26-.06.41v2.09h-.7v-3.64h.68Z"/><path d="M135.56,5.28v.67c.11-.24.26-.42.45-.54.18-.12.4-.18.63-.18.26,0,.48.07.67.2.19.14.32.33.41.59.11-.26.27-.45.46-.59.2-.14.43-.2.7-.2.38,0,.67.12.88.37.21.25.31.61.31,1.07v2.25h-.7v-2.16c0-.29-.07-.52-.2-.69-.13-.17-.31-.25-.54-.25-.12,0-.22.02-.32.07-.1.05-.18.11-.26.2-.07.09-.13.19-.16.32-.04.12-.06.26-.06.4v2.11h-.7v-2.16c0-.14-.02-.27-.06-.38-.04-.12-.09-.22-.15-.3-.06-.08-.14-.14-.23-.19-.09-.04-.2-.07-.31-.07s-.22.02-.32.07c-.1.05-.18.12-.25.21-.07.09-.12.2-.17.32-.04.12-.06.26-.06.41v2.09h-.7v-3.64h.68Z"/></g><path d="M223.4,217.27H29.37l-.02-.02v-6.08c0-.59.48-1.06,1.06-1.06h191.93c.6,0,1.09.49,1.09,1.09v6.05l-.02.02Z" class="cls-3"/><path d="M223.4,245.13H29.37l-.02-.02v-3.19c0-.59.48-1.06,1.06-1.06h191.93c.6,0,1.09.49,1.09,1.09v3.16l-.02.02Z" class="cls-3"/><path d="M135.12,224.81h-17.47l-.97-.94h0v-6.6h19.41v6.6h0l-.97.94h0Z" class="cls-3"/><rect height="1.89" width="7.76" y="217.27" x="122.5" class="cls-3"/><g id="LINE-4"><line y2="219.16" x2="127.56" y1="224.81" x1="127.36" class="cls-3"/></g><g id="LINE-5"><line y2="219.16" x2="125.21" y1="224.81" x1="125.42" class="cls-3"/></g><g id="LINE-6"><line y2="224.83" x2="124.73" y1="240.82" x1="96.48" class="cls-3"/></g><g id="LINE-7"><line y2="240.82" x2="76.46" y1="219.16" x1="116.68" class="cls-3"/></g><g id="LINE-8"><line y2="240.82" x2="156.29" y1="224.83" x1="127.91" class="cls-3"/></g><g id="LINE-9"><line y2="219.16" x2="136.09" y1="240.82" x1="176.31" class="cls-3"/></g><g id="LINE-10"><line y2="245.53" x2="87.84" y1="252.8" x1="74.34" class="cls-3"/></g><g id="LINE-11"><line y2="252.68" x2="178.44" y1="245.53" x1="165.15" class="cls-3"/></g><g id="LINE-12"><polyline points="67.06 248.86 71.91 248.03 71.91 245.2 73.37 245.2 74.34 246.14 74.34 254.16 73.37 255.1 67.06 255.1" class="cls-3"/></g><rect height="38.65" width="5.82" y="245.21" x="61.23" class="cls-3"/><g id="LINE-13"><polyline points="67.07 283.85 70.96 283.85 70.96 281.02 67.07 280.36" class="cls-3"/></g><rect height="3.77" width="5.82" y="251.33" x="61.23" class="cls-3"/><g id="LINE-14"><polyline points="185.71 255.1 179.41 255.1 178.44 254.16 178.44 246.14 179.41 245.2 180.86 245.2 180.86 248.03 185.71 248.86" class="cls-3"/></g><rect height="38.65" width="5.82" y="245.21" x="185.71" class="cls-3"/><g id="LINE-15"><polyline points="185.71 280.37 181.83 281.03 181.83 283.86 185.71 283.86" class="cls-3"/></g><rect height="3.77" width="5.82" y="251.33" x="185.71" class="cls-3"/><path d="M185.69,217.27h-4.85v2.8h4.88s0,20.74,0,20.74h5.8v-23.54h-5.8" class="cls-3"/><rect height=".77" width="5.82" y="222.61" x="185.7" class="cls-3"/><rect height="2.79" width="2.43" y="217.29" x="180.83" class="cls-3"/><path d="M67.07,217.27h4.85v2.8h-4.88s0,20.74,0,20.74h-5.8v-23.54h5.8" class="cls-3"/><rect transform="translate(128.29 446) rotate(-180)" height=".77" width="5.82" y="222.61" x="61.23" class="cls-3"/><rect transform="translate(141.42 437.36) rotate(-180)" height="2.79" width="2.43" y="217.29" x="69.5" class="cls-3"/><path d="M299.88,208.93h71.63c.59,0,1.06.48,1.06,1.06v6.31h-73.75v-6.31c0-.59.48-1.06,1.06-1.06Z" class="cls-3"/><path d="M266.92,240.62h22.65c.53,0,.97.43.97.97v3.89h-24.58v-3.89c0-.53.43-.97.97-.97Z" class="cls-3"/><path d="M381.51,240.62h22.65c.53,0,.97.43.97.97v3.89h-24.58v-3.89c0-.53.43-.97.97-.97Z" class="cls-3"/><g id="LINE-16"><path d="M352.71,224.13l8.42,17.72c.18.37.27.79.27,1.21,0,1.34-.89,2.43-2,2.43h-47.42c-.35,0-.7-.11-1-.33-.96-.67-1.28-2.15-.73-3.32l8.42-17.72c.43-.9,1.22-1.46,2.08-1.46h29.89c.86,0,1.65.56,2.08,1.46" class="cls-3"/></g><g id="ARC"><path d="M365.26,216.39v6l-.65.29s-.04.02-.08.03c-.09,0-.17,0-.26-.02-.73.11-1.32.84-1.39,1.77-.03.39.05.79.21,1.13l8.88,18.69c.36.75,1.02,1.21,1.73,1.21,0,0,27.84,0,31.1.03v6.28l-3.2,3.88c-.09.03-20.76,0-20.76,0-1.1,0-2,1.09-2,2.43,0,.43.09.84.27,1.21l12.34,25.97h-9.69l-13.49-28.39c-.36-.75-1.02-1.21-1.73-1.21h-61.72c-.71,0-1.37.46-1.73,1.21l-13.49,28.39h-9.69l12.34-25.97c.55-1.16.22-2.65-.73-3.32-.3-.21-.65-.33-1-.33h-20.76l-3.2-3.88v-6.31h31.1c.71,0,1.37-.46,1.73-1.21l8.88-18.69c.44-.93.18-2.12-.58-2.65-.29-.21-.64-.29-.97-.2l-.7-.32v-6.02h59.22Z" class="cls-3"/></g><line y2="224.24" x2="352.66" y1="224.24" x1="318.72" class="cls-3"/><rect height="1.46" width="1.6" y="222.68" x="332.81" class="cls-3"/><rect height=".49" width="1.6" y="222.68" x="332.81" class="cls-3"/><rect height="1.46" width="1.6" y="222.68" x="336.89" class="cls-3"/><rect height=".49" width="1.6" y="222.68" x="336.89" class="cls-3"/><rect height="22.81" width="2.4" y="222.68" x="334.5" class="cls-3"/><g id="CIRCLE"><circle r=".34" cy="251.49" cx="70.08" class="cls-2"/></g><g id="CIRCLE-2"><circle r=".18" cy="251.49" cx="70.08" class="cls-2"/></g><g id="CIRCLE-3"><circle r=".34" cy="248.15" cx="72.07" class="cls-2"/></g><g id="CIRCLE-4"><circle r=".18" cy="248.15" cx="72.07" class="cls-2"/></g><g id="CIRCLE-5"><circle r=".34" cy="251.49" cx="182.74" class="cls-2"/></g><g id="CIRCLE-6"><circle r=".18" cy="251.49" cx="182.74" class="cls-2"/></g><g id="CIRCLE-7"><circle r=".34" cy="248.15" cx="180.75" class="cls-2"/></g><g id="CIRCLE-8"><circle r=".18" cy="248.15" cx="180.75" class="cls-2"/></g><g id="CIRCLE-9"><circle r=".34" cy="220.6" cx="120.05" class="cls-2"/></g><g id="CIRCLE-10"><circle r=".18" cy="220.6" cx="120.05" class="cls-2"/></g><g id="CIRCLE-11"><circle r=".34" cy="223.21" cx="123.49" class="cls-2"/></g><g id="CIRCLE-12"><circle r=".18" cy="223.21" cx="123.49" class="cls-2"/></g><g id="CIRCLE-13"><circle r=".34" cy="220.6" cx="132.71" class="cls-2"/></g><g id="CIRCLE-14"><circle r=".18" cy="220.6" cx="132.71" class="cls-2"/></g><g id="CIRCLE-15"><circle r=".34" cy="223.21" cx="129.27" class="cls-2"/></g><g id="CIRCLE-16"><circle r=".18" cy="223.21" cx="129.27" class="cls-2"/></g></g></g></svg>