<svg viewBox="0 0 531.27 288" xmlns:xlink="http://www.w3.org/1999/xlink" xmlns="http://www.w3.org/2000/svg" id="Camada_2"><defs><style>.cls-1,.cls-2,.cls-3{fill:none;}.cls-4{fill:#3c3c3b;}.cls-2,.cls-5,.cls-6,.cls-3{stroke-width:.3px;}.cls-2,.cls-6{stroke:#12100b;stroke-linecap:round;stroke-linejoin:round;}.cls-7{fill:#1d1d1b;}.cls-8{fill:#12100b;}.cls-5{fill:#f1efea;}.cls-5,.cls-3{stroke:#000;stroke-miterlimit:10;}.cls-6{fill:#fff;}</style><symbol viewBox="0 0 531.27 288" id="fundo_transparente"><rect height="288" width="531.27" x="0" class="cls-1"/></symbol></defs><g id="Golf"><g id="Campo_de_Golf"><g id="clock-on-spot_Palmer_1_relógio"><use xlink:href="#fundo_transparente" height="288" width="531.27"/><g id="LINE"><line y2="276.49" x2="18.07" y1="15.37" x1="18.07" class="cls-2"/><rect height=".3" width="1.95" y="15.22" x="17.09" class="cls-8"/><rect height=".3" width="1.95" y="276.34" x="17.09" class="cls-8"/></g><g id="MTEXT"><path d="M8.86,158.8h5.29v.72h-4.54l.64,1.3h-.73l-.67-1.36v-.67Z"/><path d="M8.98,155.43c.12-.24.29-.44.51-.61.22-.17.5-.3.82-.39.32-.09.69-.14,1.09-.14s.8.05,1.15.15c.35.1.64.24.89.43s.43.41.56.67c.13.26.2.55.2.88,0,.37-.09.7-.27.97-.18.27-.43.47-.76.59l-.29-.64c.21-.07.37-.18.48-.34.11-.16.17-.35.17-.56,0-.2-.05-.38-.14-.55-.09-.17-.23-.31-.4-.44-.17-.13-.37-.22-.61-.29-.24-.07-.49-.1-.77-.1h-.17c-.06,0-.1,0-.15,0,.25.08.45.23.59.45.14.22.21.48.21.79,0,.24-.04.46-.12.65-.08.2-.19.36-.34.5-.14.14-.32.25-.52.33-.2.08-.42.12-.66.12s-.47-.04-.68-.13c-.21-.08-.38-.2-.52-.35-.14-.15-.26-.32-.34-.53-.08-.21-.12-.43-.12-.68,0-.3.06-.57.18-.81ZM9.55,156.6c.05.12.12.22.21.3.09.08.19.15.31.2.12.05.26.07.41.07s.29-.02.41-.07c.12-.05.23-.12.32-.2.09-.09.16-.19.21-.31.05-.12.07-.25.07-.4s-.02-.27-.07-.39c-.05-.12-.12-.22-.2-.31-.09-.09-.19-.15-.31-.2-.12-.05-.25-.07-.4-.07s-.28.03-.41.08c-.13.05-.24.13-.34.21-.1.09-.17.2-.22.32s-.08.26-.08.4.03.26.08.38Z"/><path d="M14.09,152.68c-.07.22-.17.4-.31.56-.13.15-.29.28-.47.36s-.38.13-.6.13c-.16,0-.31-.02-.45-.07-.15-.05-.28-.11-.4-.2-.12-.09-.22-.19-.3-.31s-.14-.25-.18-.4c-.05.14-.12.25-.2.36-.08.1-.17.19-.27.27s-.21.13-.33.17c-.12.04-.25.06-.38.06-.21,0-.39-.04-.56-.12-.17-.08-.32-.2-.44-.34-.13-.14-.22-.32-.29-.52-.07-.2-.1-.42-.1-.66s.03-.46.1-.66c.07-.2.17-.37.29-.52.12-.15.27-.26.44-.35.17-.08.36-.13.57-.13.13,0,.26.02.38.06.12.04.24.1.34.17.1.07.19.16.27.27.08.1.14.22.19.35.04-.15.1-.28.18-.4s.19-.22.31-.3c.12-.08.25-.15.4-.2.14-.05.29-.07.45-.07.21,0,.41.04.6.13.18.09.34.21.47.36.13.15.24.34.31.56.07.22.11.46.11.72s-.04.5-.11.72ZM9.53,152.32c.04.11.09.2.16.28.07.08.15.14.26.18s.21.07.33.07c.11,0,.22-.02.32-.07.1-.04.19-.11.26-.19.07-.08.13-.17.17-.28s.06-.23.06-.35-.02-.25-.06-.35c-.04-.1-.1-.2-.17-.28s-.16-.14-.26-.19c-.1-.04-.21-.07-.32-.07-.12,0-.23.02-.33.07-.1.04-.19.11-.26.19-.07.08-.12.17-.16.28-.04.11-.06.23-.06.36s.02.24.06.35ZM13.46,151.55c-.04-.13-.11-.23-.19-.32-.08-.09-.18-.16-.29-.21-.11-.05-.24-.08-.37-.08s-.26.03-.37.08c-.11.05-.21.12-.29.21-.08.09-.15.2-.2.33-.05.13-.07.26-.07.41s.02.28.07.41c.04.13.11.23.19.33s.18.16.3.21c.11.05.24.07.37.07.14,0,.27-.02.38-.07.11-.05.21-.12.29-.21.08-.09.14-.2.19-.33.04-.13.07-.26.07-.41s-.02-.29-.07-.41Z"/><path d="M9,146.77c.13-.25.32-.47.55-.65.23-.18.52-.32.85-.42.33-.1.69-.15,1.08-.15s.76.05,1.1.15.62.24.86.42c.24.18.43.4.56.65.13.25.2.52.2.83s-.07.57-.2.82-.32.47-.56.65c-.24.18-.53.32-.86.42-.33.1-.7.15-1.1.15s-.75-.05-1.08-.15c-.33-.1-.61-.24-.85-.42-.24-.18-.42-.4-.55-.65-.13-.25-.2-.53-.2-.83s.07-.58.2-.83ZM9.63,148.13c.1.16.23.29.41.41.18.11.38.2.63.27.24.07.51.1.81.1s.57-.03.82-.09c.25-.06.46-.15.64-.27.18-.12.32-.25.42-.41.1-.16.15-.33.15-.52s-.05-.37-.15-.53c-.1-.16-.24-.3-.42-.41-.18-.11-.39-.2-.64-.27-.25-.06-.52-.09-.82-.09s-.56.03-.81.09c-.25.06-.46.15-.63.26-.17.11-.31.25-.41.41-.1.16-.15.34-.15.53s.05.37.15.52Z"/><path d="M10.5,141.94h.67c-.24-.11-.42-.26-.54-.45-.12-.18-.18-.4-.18-.63,0-.26.07-.48.2-.67.14-.19.33-.32.59-.41-.26-.11-.45-.27-.59-.46-.14-.2-.2-.43-.2-.7,0-.38.12-.67.37-.88.25-.21.61-.31,1.07-.31h2.25v.7h-2.16c-.29,0-.52.07-.69.2-.17.13-.25.31-.25.54,0,.12.02.22.07.32.05.1.11.18.2.26.09.07.19.13.32.16.12.04.26.06.4.06h2.11v.7h-2.16c-.14,0-.27.02-.38.06-.12.04-.22.09-.3.15-.08.06-.14.14-.19.23-.04.09-.07.2-.07.31s.02.22.07.32c.05.1.12.18.21.25.09.07.2.12.32.17.12.04.26.06.41.06h2.09v.7h-3.64v-.68Z"/><path d="M10.5,135.76h.67c-.24-.11-.42-.26-.54-.45-.12-.18-.18-.4-.18-.63,0-.26.07-.48.2-.67.14-.19.33-.32.59-.41-.26-.11-.45-.27-.59-.46-.14-.2-.2-.43-.2-.7,0-.38.12-.67.37-.88.25-.21.61-.31,1.07-.31h2.25v.7h-2.16c-.29,0-.52.07-.69.2-.17.13-.25.31-.25.54,0,.12.02.22.07.32.05.1.11.18.2.26.09.07.19.13.32.16.12.04.26.06.4.06h2.11v.7h-2.16c-.14,0-.27.02-.38.06-.12.04-.22.09-.3.15-.08.06-.14.14-.19.23-.04.09-.07.2-.07.31s.02.22.07.32c.05.1.12.18.21.25.09.07.2.12.32.17.12.04.26.06.41.06h2.09v.7h-3.64v-.68Z"/></g><line y2="277.7" x2="188.33" y1="256.87" x1="188.33" class="cls-2"/><rect height=".3" width="1.95" y="256.72" x="187.36" class="cls-8"/><rect height=".3" width="1.95" y="277.55" x="187.36" class="cls-8"/><g id="MTEXT-2"><path d="M179.12,278.12h5.29v.72h-4.54l.64,1.3h-.73l-.67-1.36v-.67Z"/><path d="M184.28,276.14c-.12.24-.29.44-.51.61-.22.17-.5.3-.82.39s-.69.14-1.09.14-.8-.05-1.15-.15c-.35-.1-.64-.24-.89-.43-.25-.18-.43-.41-.56-.67-.13-.26-.2-.55-.2-.88,0-.37.09-.7.27-.97.18-.27.43-.47.76-.59l.29.64c-.21.07-.37.18-.48.34-.11.16-.17.35-.17.56,0,.2.05.38.14.55s.23.31.4.44c.17.13.37.22.61.29s.49.1.77.1h.17c.06,0,.1,0,.15,0-.25-.08-.45-.23-.59-.45-.14-.22-.21-.48-.21-.79,0-.24.04-.46.12-.65.08-.2.19-.36.34-.5.15-.14.32-.25.52-.33.2-.08.42-.12.66-.12s.47.04.68.13c.21.08.38.2.53.35.14.15.26.32.34.53s.12.43.12.68c0,.3-.06.57-.18.81ZM183.71,274.98c-.05-.12-.12-.22-.21-.3-.09-.08-.19-.15-.31-.2-.12-.05-.26-.07-.41-.07s-.29.02-.41.07c-.12.05-.23.12-.32.2s-.16.19-.21.31-.07.25-.07.4.02.27.07.39.12.22.2.31c.09.09.19.15.31.2.12.05.25.07.4.07s.28-.03.41-.08.24-.12.34-.21.17-.2.22-.32c.05-.12.08-.26.08-.4s-.03-.26-.08-.38Z"/><path d="M179.26,270.17c.13-.25.32-.47.55-.65.23-.18.52-.32.85-.42.33-.1.69-.15,1.08-.15s.76.05,1.1.15.62.24.86.42c.24.18.43.4.56.65.13.25.2.52.2.83s-.07.57-.2.82-.32.47-.56.65c-.24.18-.53.32-.86.42-.33.1-.7.15-1.1.15s-.75-.05-1.08-.15c-.33-.1-.61-.24-.85-.42-.24-.18-.42-.4-.55-.65-.13-.25-.2-.53-.2-.83s.07-.58.2-.83ZM179.9,271.53c.1.16.23.29.41.41.18.11.38.2.63.27.24.07.51.1.81.1s.57-.03.82-.09c.25-.06.46-.15.64-.27.18-.12.32-.25.42-.41.1-.16.15-.33.15-.52s-.05-.37-.15-.53c-.1-.16-.24-.3-.42-.41-.18-.11-.39-.2-.64-.27-.25-.06-.52-.09-.82-.09s-.56.03-.81.09c-.25.06-.46.15-.63.26-.17.11-.31.25-.41.41-.1.16-.15.34-.15.53s.05.37.15.52Z"/><path d="M180.77,265.35h.67c-.24-.11-.42-.26-.54-.45-.12-.18-.18-.4-.18-.63,0-.26.07-.48.2-.67.14-.19.33-.32.59-.41-.26-.11-.45-.27-.59-.46-.14-.2-.2-.43-.2-.7,0-.38.12-.67.37-.88.25-.21.61-.31,1.07-.31h2.25v.7h-2.16c-.29,0-.52.07-.69.2-.17.13-.25.31-.25.54,0,.12.02.22.07.32.05.1.11.18.2.26.09.07.19.13.32.16.12.04.26.06.4.06h2.11v.7h-2.16c-.14,0-.27.02-.38.06-.12.04-.22.09-.3.15-.08.06-.14.14-.19.23-.04.09-.07.2-.07.31s.02.22.07.32c.05.1.12.18.21.25.09.07.2.12.32.17.12.04.26.06.41.06h2.09v.7h-3.64v-.68Z"/><path d="M180.77,259.16h.67c-.24-.11-.42-.26-.54-.45-.12-.18-.18-.4-.18-.63,0-.26.07-.48.2-.67.14-.19.33-.32.59-.41-.26-.11-.45-.27-.59-.46-.14-.2-.2-.43-.2-.7,0-.38.12-.67.37-.88.25-.21.61-.31,1.07-.31h2.25v.7h-2.16c-.29,0-.52.07-.69.2-.17.13-.25.31-.25.54,0,.12.02.22.07.32.05.1.11.18.2.26.09.07.19.13.32.16.12.04.26.06.4.06h2.11v.7h-2.16c-.14,0-.27.02-.38.06-.12.04-.22.09-.3.15-.08.06-.14.14-.19.23-.04.09-.07.2-.07.31s.02.22.07.32c.05.1.12.18.21.25.09.07.2.12.32.17.12.04.26.06.41.06h2.09v.7h-3.64v-.68Z"/></g><rect height="21.44" width="1.6" y="14.52" x="144.1" class="cls-5"/><rect height="83.91" width=".8" y="24.82" x="138.11" class="cls-5"/><rect height="253.4" width="11.99" y="24.82" x="138.91" class="cls-5"/><rect height="253.4" width="1.33" y="24.82" x="144.23" class="cls-5"/><rect height="58.75" width=".8" y="31.59" x="138.91" class="cls-5"/><circle r="2.33" cy="108.66" cx="144.9" class="cls-5"/><path d="M143.81,108.27h.12s0,.78,0,.78h-.12s0-.78,0-.78Z" class="cls-7"/><path d="M144.58,108.78c0,.15-.13.28-.28.28s-.28-.12-.28-.28.13-.28.28-.28.28.12.28.28ZM144.14,108.78c0,.09.07.16.16.16s.16-.07.16-.16-.07-.16-.16-.16-.16.07-.16.16Z" class="cls-7"/><path d="M145.18,108.78s0,.02,0,.03h-.42c.01.08.08.14.17.14.07,0,.12-.03.14-.07l.11.04c-.04.09-.13.15-.25.15-.17,0-.29-.11-.29-.28s.12-.28.28-.28.27.12.27.28ZM145.04,108.71c-.02-.06-.07-.1-.13-.1s-.12.04-.14.1h.27Z" class="cls-7"/><path d="M145.38,108.51v.02s0,.02.02.02c.01,0,.02,0,.03-.02.03-.03.06-.04.11-.04.05,0,.09.02.12.05.01.02.02.02.04.02.01,0,.02,0,.04-.02.03-.04.08-.05.13-.05.11,0,.17.08.17.21v.33s-.12,0-.12,0v-.32c0-.08-.04-.13-.1-.13-.06,0-.1.05-.1.13v.31s-.12,0-.12,0v-.32c0-.08-.04-.13-.1-.13s-.1.05-.1.14v.31s-.12,0-.12,0v-.54s.12,0,.12,0Z" class="cls-7"/><path d="M146.58,108.72v.33s-.12,0-.12,0v-.04s0-.03-.02-.03c-.01,0-.02,0-.04.02-.03.03-.08.05-.13.05-.1,0-.17-.06-.17-.15s.07-.15.2-.18l.14-.02c0-.06-.05-.1-.13-.1-.06,0-.1.03-.12.08l-.11-.03c.03-.09.11-.15.23-.15.14,0,.25.09.25.21ZM146.34,108.83c-.07.01-.11.04-.11.07s.03.06.08.06c.08,0,.14-.06.14-.16l-.12.02Z" class="cls-7"/><path d="M143.75,108.27h-.53v.78h.13v-.49s.04-.05.07-.03l.21.21.08-.08-.2-.2s0-.07.03-.07h.23v-.12Z" class="cls-7"/><path d="M147,108.9c0,.09-.07.16-.17.16s-.17-.07-.17-.16.07-.16.17-.16.17.07.17.16ZM146.7,108.9c0,.07.06.13.13.13s.13-.06.13-.13-.06-.13-.13-.13-.13.06-.13.13ZM146.87,108.91s0,0,0,.01c0,0,0,0,0,.01l.04.05h-.04s-.05-.07-.05-.07v.07s-.04,0-.04,0v-.17s.06,0,.06,0c.04,0,.06.02.06.05,0,.02-.01.04-.03.05Z" class="cls-7"/><path d="M145.89,109.28s0,0,0,.02c0,0,0,0,0,0,0,0,0,0,0,0,0,0,0,0,0,0,0,0,0,0,0,0,0,0,0,0-.01,0,0,0,0,0,0,0,0,0,0,0,0,0,0,0,0,0,0,0,0,0,0-.01,0-.02s.01,0,.02,0,.01,0,.02,0Z" class="cls-7"/><path d="M146.06,109.2s0,0,0-.01c0,0,0,0-.01-.01,0,0,0,0-.01,0,0,0-.01,0-.02,0,0,0-.02,0-.02,0,0,0-.01,0-.02.01,0,0,0,.01-.01.02,0,0,0,.02,0,.02,0,0,0,.02,0,.02,0,0,0,.01.01.02,0,0,.01,0,.02.01,0,0,.01,0,.02,0,.01,0,.02,0,.03,0,0,0,.02-.01.02-.02h.03s-.02.04-.03.05-.03.01-.05.01c-.01,0-.03,0-.04,0-.01,0-.02-.01-.03-.02,0,0-.01-.02-.02-.03,0-.01,0-.02,0-.04s0-.02,0-.04.01-.02.02-.03c0,0,.02-.01.03-.02.01,0,.02,0,.04,0,0,0,.02,0,.03,0,0,0,.02,0,.02.01,0,0,.01.01.02.02,0,0,0,.01.01.02h-.03Z" class="cls-7"/><path d="M146.24,109.14s.02.01.03.02.01.02.02.03,0,.02,0,.04,0,.02,0,.03-.01.02-.02.03c0,0-.02.01-.03.02-.01,0-.02,0-.04,0s-.02,0-.04,0c-.01,0-.02-.01-.03-.02,0,0-.01-.02-.02-.03,0-.01,0-.02,0-.04s0-.02,0-.04c0-.01.01-.02.02-.03,0,0,.02-.01.03-.02.01,0,.02,0,.04,0s.02,0,.04,0ZM146.18,109.17s-.01,0-.02.01c0,0,0,.01-.01.02,0,0,0,.01,0,.02s0,.02,0,.02c0,0,0,.01.01.02,0,0,.01,0,.02.01,0,0,.01,0,.02,0s.02,0,.02,0c0,0,.01,0,.02-.01s0-.01.01-.02,0-.01,0-.02,0-.02,0-.02c0,0,0-.01-.01-.02s-.01,0-.02-.01c0,0-.01,0-.02,0s-.02,0-.02,0Z" class="cls-7"/><path d="M146.36,109.14h0s0,.01,0,.01,0,0,0,0c0,0,0,0,0,0,0,0,0,0,0,0s0,0,0,0,0,0,0,0c0,0,.01,0,.02,0,0,0,.01,0,.02,0,0,0,.02,0,.02,0,0,0,.01,0,.02.01,0,0,0,0,0,0,0,0,0,0,0,0,0,0,0,0,0,0,0,0,0,0,0,0,0,0,0,0,0,0s0,0,0,0c0,0,.01-.01.02-.01,0,0,.01,0,.02,0,.02,0,.03,0,.04.02,0,.01.01.03.01.05v.11h-.03v-.1s0-.02,0-.03c0,0-.01-.01-.03-.01,0,0-.01,0-.02,0,0,0,0,0-.01,0,0,0,0,0,0,.02,0,0,0,.01,0,.02v.1h-.03v-.1s0-.01,0-.02c0,0,0-.01,0-.01,0,0,0,0-.01,0s0,0-.01,0-.01,0-.02,0c0,0,0,0-.01,0s0,0,0,.02c0,0,0,.01,0,.02v.1h-.03v-.17h.03Z" class="cls-7"/><path d="M129.6,33.92v54.04c0,.14.11.26.25.27l8.23.5v-55.54l-8.23.46c-.14,0-.25.12-.25.27Z" class="cls-5"/><rect height="253.09" width="11.99" y="25.12" x="63.72" class="cls-5"/><path d="M75.7,20.75v4.38h-8.92c-.25,0-.48.14-.6.37l-1.48,2.96c-.66,1.32-1,2.77-1,4.25,0,.37-.3.66-.67.66s-.67-.3-.67-.66c0-1.48-.34-2.93-1-4.25l-1.48-2.96c-.11-.23-.34-.37-.59-.37h-8.92v-4.38c.07-3.19,5.71-6.23,12.66-6.23s12.59,3.04,12.65,6.23h0Z" class="cls-5"/><ellipse ry="3.5" rx="5.77" cy="19.93" cx="63.04" class="cls-5"/><path d="M63.04,22.96c-2.87,0-5.3-1.39-5.3-3.04s2.43-3.04,5.3-3.04,5.3,1.39,5.3,3.04-2.43,3.04-5.3,3.04Z" class="cls-5"/><path d="M53.01,24.56c-.06,0-.1-.04-.1-.1v-6.58c0-.06.04-.1.1-.1s.1.04.1.1v6.58c0,.06-.04.1-.1.1Z" class="cls-8"/><path d="M55.88,24.56c-.06,0-.1-.04-.1-.1v-8.05c0-.06.04-.1.1-.1s.1.04.1.1v8.05c0,.06-.04.1-.1.1Z" class="cls-8"/><path d="M58.74,16.89c-.06,0-.1-.04-.1-.1v-1.21c0-.06.04-.1.1-.1s.1.04.1.1v1.21c0,.06-.04.1-.1.1Z" class="cls-8"/><path d="M61.61,15.94c-.06,0-.1-.04-.1-.1v-.63c0-.06.04-.1.1-.1s.1.04.1.1v.63c0,.06-.04.1-.1.1Z" class="cls-8"/><path d="M64.48,15.98c-.06,0-.1-.04-.1-.1v-.66c0-.06.04-.1.1-.1s.1.04.1.1v.66c0,.06-.04.1-.1.1Z" class="cls-8"/><path d="M67.34,16.92c-.06,0-.1-.04-.1-.1v-1.25c0-.06.04-.1.1-.1s.1.04.1.1v1.25c0,.06-.04.1-.1.1Z" class="cls-8"/><path d="M58.74,24.56c-.06,0-.1-.04-.1-.1v-1.41c0-.06.04-.1.1-.1s.1.04.1.1v1.41c0,.06-.04.1-.1.1Z" class="cls-8"/><path d="M61.61,24.57c-.06,0-.1-.04-.1-.1v-.47c0-.06.04-.1.1-.1s.1.04.1.1v.47c0,.06-.04.1-.1.1Z" class="cls-8"/><path d="M64.48,24.56c-.06,0-.1-.04-.1-.1v-.47c0-.06.04-.1.1-.1s.1.04.1.1v.47c0,.06-.04.1-.1.1Z" class="cls-8"/><path d="M67.34,24.56c-.06,0-.1-.04-.1-.1v-1.4c0-.06.04-.1.1-.1s.1.04.1.1v1.4c0,.06-.04.1-.1.1Z" class="cls-8"/><path d="M70.21,24.56c-.06,0-.1-.04-.1-.1v-8.05c0-.06.04-.1.1-.1s.1.04.1.1v8.05c0,.06-.04.1-.1.1Z" class="cls-8"/><path d="M73.08,24.56c-.06,0-.1-.04-.1-.1v-6.58c0-.06.04-.1.1-.1s.1.04.1.1v6.58c0,.06-.04.1-.1.1Z" class="cls-8"/><path d="M64.25,33.13h-2.41c-.36,0-.66-.29-.67-.65l-.13-7.34h4l-.13,7.34c0,.36-.3.65-.67.65Z" class="cls-4"/><rect height="253.09" width="1.33" y="25.12" x="69.05" class="cls-5"/><rect height="253.09" width="11.99" y="25.12" x="50.4" class="cls-5"/><rect height="253.09" width="1.33" y="25.12" x="55.73" class="cls-5"/><path d="M75.69,25.12h-25.31s0,77.64,0,77.64h0c.07,3.19,5.71,6.23,12.66,6.23s12.59-3.04,12.66-6.23h0l-.02-77.64Z" class="cls-5"/><path d="M75.25,92.99c-.02-.05-.08-.08-.13-.06-.64.26-1.29.49-1.94.71V29.03c.65.22,1.3.45,1.94.71.05.02.11,0,.13-.06.02-.05,0-.11-.06-.13-.67-.27-1.34-.51-2.02-.73v-3.14c0-.06-.04-.1-.1-.1s-.1.04-.1.1v3.07c-.88-.28-1.77-.52-2.67-.73v-2.34c0-.06-.04-.1-.1-.1s-.1.04-.1.1v2.3c-.88-.2-1.77-.35-2.67-.47v-1.82c0-.06-.04-.1-.1-.1s-.1.04-.1.1v1.8c-.88-.11-1.77-.19-2.67-.23v-1.56c0-.06-.04-.1-.1-.1s-.1.04-.1.1v1.56c-.45-.02-.89-.03-1.34-.03h0c-.44,0-.88,0-1.32.03v-1.55c0-.06-.04-.1-.1-.1s-.1.04-.1.1v1.56c-.89.04-1.78.12-2.67.23v-1.8c0-.06-.04-.1-.1-.1s-.1.04-.1.1v1.82c-.9.12-1.79.28-2.67.47v-2.3c0-.06-.04-.1-.1-.1s-.1.04-.1.1v2.34c-.9.2-1.79.45-2.67.73v-3.07c0-.06-.04-.1-.1-.1s-.1.04-.1.1v3.13c-.68.22-1.36.47-2.04.74-.05.02-.08.08-.06.13.02.04.05.06.09.06.01,0,.03,0,.04,0,.65-.26,1.3-.5,1.96-.72v64.63c-.66-.22-1.31-.45-1.96-.71-.05-.02-.11,0-.13.06-.02.05,0,.11.06.13.67.27,1.35.52,2.04.74v11.75c0,.06.04.1.1.1s.1-.04.1-.1v-11.68c.88.28,1.77.52,2.67.73v12.33c0,.06.04.1.1.1s.1-.04.1-.1v-12.28c.88.19,1.77.35,2.67.47v12.57c0,.06.04.1.1.1s.1-.04.1-.1v-12.54c.88.11,1.77.19,2.67.23v12.61c0,.06.04.1.1.1s.1-.04.1-.1v-12.61c.44.02.88.03,1.32.03h0c.45,0,.9,0,1.34-.03v12.61c0,.06.04.1.1.1s.1-.04.1-.1v-12.62c.89-.04,1.78-.12,2.67-.23v12.49c0,.06.04.1.1.1s.1-.04.1-.1v-12.52c.9-.12,1.79-.28,2.67-.48v12.23c0,.06.04.1.1.1s.1-.04.1-.1v-12.28c.9-.21,1.79-.45,2.67-.73v11.64c0,.06.04.1.1.1s.1-.04.1-.1v-11.7c.68-.22,1.35-.47,2.02-.73.05-.02.08-.08.06-.13ZM53.11,93.72V28.96c.88-.28,1.77-.53,2.67-.73v66.23c-.9-.21-1.79-.45-2.67-.73ZM55.98,94.5V28.18c.88-.2,1.77-.36,2.67-.48v67.27c-.9-.12-1.79-.28-2.67-.48ZM58.85,95V27.68c.88-.11,1.77-.19,2.67-.23v67.79c-.89-.04-1.78-.12-2.67-.23ZM63.04,95.27h0c-.44,0-.88,0-1.32-.03V27.43c.44-.02.88-.03,1.32-.03h0c.45,0,.89,0,1.34.03v67.81c-.45.02-.89.03-1.34.03ZM64.58,95.23V27.44c.89.04,1.78.12,2.67.23v67.32c-.88.11-1.77.19-2.67.24ZM67.45,94.97V27.7c.9.12,1.79.28,2.67.48v66.31c-.88.2-1.77.36-2.67.48ZM70.31,94.45V28.23c.9.21,1.79.45,2.67.73v64.75c-.88.28-1.77.53-2.67.74Z"/><circle r="31.97" cy="61.27" cx="63.03" class="cls-5"/><circle r="27.25" cy="61.27" cx="63.03" class="cls-6"/><circle r="26.64" cy="61.27" cx="63.03" class="cls-5"/><rect height="1.9" width="1.2" y="35.99" x="62.43"/><rect height="1.9" width="1.2" y="35.99" x="62.43"/><polygon points="60.08 36.13 60.73 36.08 60.82 37.3 60.22 37.35 60.08 36.13"/><polygon points="60.08 36.13 60.22 37.35 60.82 37.3 60.73 36.08 60.08 36.13"/><polygon points="57.45 36.63 58.09 36.49 58.32 37.67 57.72 37.8 57.45 36.63"/><polygon points="57.45 36.63 57.72 37.8 58.32 37.67 58.09 36.49 57.45 36.63"/><polygon points="54.91 37.3 55.51 37.12 55.88 38.3 55.28 38.48 54.91 37.3"/><polygon points="54.91 37.3 55.28 38.48 55.88 38.3 55.51 37.12 54.91 37.3"/><polygon points="52.46 38.3 53.02 38.03 53.52 39.16 52.97 39.43 52.46 38.3"/><polygon points="52.46 38.3 52.97 39.43 53.52 39.16 53.02 38.03 52.46 38.3"/><polygon points="49.88 39.71 50.94 39.12 51.86 40.7 50.8 41.29 49.88 39.71"/><polygon points="49.88 39.71 50.8 41.29 51.86 40.7 50.94 39.12 49.88 39.71"/><polygon points="47.89 40.97 48.4 40.61 49.14 41.61 48.58 42.02 47.89 40.97"/><polygon points="47.89 40.97 48.58 42.02 49.14 41.61 48.4 40.61 47.89 40.97"/><polygon points="45.86 42.65 46.37 42.24 47.15 43.19 46.69 43.6 45.86 42.65"/><polygon points="45.86 42.65 46.69 43.6 47.15 43.19 46.37 42.24 45.86 42.65"/><polygon points="44.01 44.6 44.43 44.1 45.35 44.92 44.94 45.37 44.01 44.6"/><polygon points="44.01 44.6 44.94 45.37 45.35 44.92 44.43 44.1 44.01 44.6"/><polygon points="42.35 46.64 42.72 46.14 43.78 46.86 43.37 47.41 42.35 46.64"/><polygon points="42.35 46.64 43.37 47.41 43.78 46.86 42.72 46.14 42.35 46.64"/><polygon points="40.83 49.17 41.47 48.09 43.04 49.04 42.44 50.13 40.83 49.17"/><polygon points="40.83 49.17 42.44 50.13 43.04 49.04 41.47 48.09 40.83 49.17"/><polygon points="39.77 51.26 40.04 50.67 41.2 51.21 40.87 51.76 39.77 51.26"/><polygon points="39.77 51.26 40.87 51.76 41.2 51.21 40.04 50.67 39.77 51.26"/><polygon points="38.89 53.75 39.07 53.12 40.23 53.48 40.04 54.11 38.89 53.75"/><polygon points="38.89 53.75 40.04 54.11 40.23 53.48 39.07 53.12 38.89 53.75"/><polygon points="38.2 56.33 38.33 55.7 39.53 55.92 39.4 56.56 38.2 56.33"/><polygon points="38.2 56.33 39.4 56.56 39.53 55.92 38.33 55.7 38.2 56.33"/><polygon points="37.83 58.96 37.87 58.28 39.12 58.42 39.07 59.05 37.83 58.96"/><polygon points="37.83 58.96 39.07 59.05 39.12 58.42 37.87 58.28 37.83 58.96"/><rect height="1.22" width="1.89" y="60.64" x="37.73"/><rect height="1.22" width="1.89" y="60.64" x="37.73"/><polygon points="37.83 63.58 39.07 63.44 39.12 64.08 37.87 64.21 37.83 63.58"/><polygon points="37.87 64.21 39.12 64.08 39.07 63.44 37.83 63.58 37.87 64.21"/><polygon points="38.2 66.21 39.4 65.94 39.53 66.52 38.33 66.84 38.2 66.21"/><polygon points="38.33 66.84 39.53 66.52 39.4 65.94 38.2 66.21 38.33 66.84"/><polygon points="38.89 68.74 40.04 68.38 40.23 68.97 39.07 69.38 38.89 68.74"/><polygon points="39.07 69.38 40.23 68.97 40.04 68.38 38.89 68.74 39.07 69.38"/><polygon points="39.77 71.24 40.87 70.74 41.2 71.33 40.04 71.83 39.77 71.24"/><polygon points="40.04 71.83 41.2 71.33 40.87 70.74 39.77 71.24 40.04 71.83"/><polygon points="40.83 73.37 42.44 72.41 43.04 73.5 41.47 74.41 40.83 73.37"/><polygon points="41.47 74.41 43.04 73.5 42.44 72.41 40.83 73.37 41.47 74.41"/><polygon points="42.35 75.81 43.37 75.13 43.78 75.63 42.72 76.36 42.35 75.81"/><polygon points="42.72 76.36 43.78 75.63 43.37 75.13 42.35 75.81 42.72 76.36"/><polygon points="44.01 77.94 44.94 77.08 45.35 77.58 44.43 78.39 44.01 77.94"/><polygon points="44.43 78.39 45.35 77.58 44.94 77.08 44.01 77.94 44.43 78.39"/><polygon points="45.86 79.84 46.69 78.89 47.15 79.35 46.37 80.25 45.86 79.84"/><polygon points="46.37 80.25 47.15 79.35 46.69 78.89 45.86 79.84 46.37 80.25"/><polygon points="47.89 81.52 48.58 80.52 49.14 80.89 48.4 81.88 47.89 81.52"/><polygon points="48.4 81.88 49.14 80.89 48.58 80.52 47.89 81.52 48.4 81.88"/><polygon points="49.88 82.83 50.8 81.2 51.86 81.79 50.94 83.42 49.88 82.83"/><polygon points="50.94 83.42 51.86 81.79 50.8 81.2 49.88 82.83 50.94 83.42"/><polygon points="52.46 84.24 52.92 83.06 53.52 83.33 53.02 84.46 52.46 84.24"/><polygon points="53.02 84.46 53.52 83.33 52.92 83.06 52.46 84.24 53.02 84.46"/><polygon points="54.91 85.19 55.28 84.01 55.88 84.24 55.51 85.42 54.91 85.19"/><polygon points="55.51 85.42 55.88 84.24 55.28 84.01 54.91 85.19 55.51 85.42"/><polygon points="57.45 85.91 57.72 84.69 58.32 84.83 58.09 86 57.45 85.91"/><polygon points="58.09 86 58.32 84.83 57.72 84.69 57.45 85.91 58.09 86"/><polygon points="60.08 86.32 60.22 85.14 60.82 85.23 60.73 86.46 60.08 86.32"/><polygon points="60.73 86.46 60.82 85.23 60.22 85.14 60.08 86.32 60.73 86.46"/><rect height="1.9" width="1.2" y="84.6" x="62.43"/><rect height="1.9" width="1.2" y="84.6" x="62.43"/><polygon points="65.25 37.3 65.39 36.08 65.99 36.13 65.85 37.35 65.25 37.3"/><polygon points="65.39 36.08 65.25 37.3 65.85 37.35 65.99 36.13 65.39 36.08"/><rect transform="translate(16.87 95.46) rotate(-77.24)" height=".62" width="1.25" y="36.86" x="67.55"/><rect transform="translate(16.87 95.46) rotate(-77.24)" height=".62" width="1.25" y="36.86" x="67.55"/><polygon points="70.19 38.3 70.56 37.12 71.16 37.3 70.79 38.48 70.19 38.3"/><polygon points="70.56 37.12 70.19 38.3 70.79 38.48 71.16 37.3 70.56 37.12"/><polygon points="72.54 39.16 73.05 38.03 73.65 38.3 73.14 39.43 72.54 39.16"/><polygon points="73.05 38.03 72.54 39.16 73.14 39.43 73.65 38.3 73.05 38.03"/><polygon points="74.21 40.7 75.18 39.12 76.24 39.71 75.31 41.34 74.21 40.7"/><polygon points="75.18 39.12 74.21 40.7 75.31 41.34 76.24 39.71 75.18 39.12"/><polygon points="76.93 41.65 77.67 40.66 78.18 41.02 77.48 42.02 76.93 41.65"/><polygon points="77.67 40.66 76.93 41.65 77.48 42.02 78.18 41.02 77.67 40.66"/><polygon points="78.91 43.19 79.75 42.29 80.25 42.7 79.38 43.6 78.91 43.19"/><polygon points="79.75 42.29 78.91 43.19 79.38 43.6 80.25 42.7 79.75 42.29"/><polygon points="80.72 44.92 81.64 44.1 82.05 44.6 81.18 45.37 80.72 44.92"/><polygon points="81.64 44.1 80.72 44.92 81.18 45.37 82.05 44.6 81.64 44.1"/><polygon points="82.33 46.91 83.35 46.14 83.72 46.64 82.75 47.41 82.33 46.91"/><polygon points="83.35 46.14 82.33 46.91 82.75 47.41 83.72 46.64 83.35 46.14"/><polygon points="83.02 49.04 84.64 48.13 85.24 49.17 83.62 50.13 83.02 49.04"/><polygon points="84.64 48.13 83.02 49.04 83.62 50.13 85.24 49.17 84.64 48.13"/><polygon points="84.87 51.21 86.07 50.67 86.3 51.26 85.15 51.76 84.87 51.21"/><polygon points="86.07 50.67 84.87 51.21 85.15 51.76 86.3 51.26 86.07 50.67"/><polygon points="85.84 53.52 86.99 53.12 87.22 53.75 86.07 54.11 85.84 53.52"/><polygon points="86.99 53.12 85.84 53.52 86.07 54.11 87.22 53.75 86.99 53.12"/><polygon points="86.53 55.92 87.73 55.7 87.87 56.33 86.67 56.56 86.53 55.92"/><polygon points="87.73 55.7 86.53 55.92 86.67 56.56 87.87 56.33 87.73 55.7"/><polygon points="86.95 58.42 88.19 58.28 88.29 58.96 87.04 59.05 86.95 58.42"/><polygon points="88.19 58.28 86.95 58.42 87.04 59.05 88.29 58.96 88.19 58.28"/><rect height="1.27" width="1.89" y="60.64" x="86.44"/><rect height="1.27" width="1.89" y="60.64" x="86.44"/><polygon points="86.95 64.12 87.04 63.44 88.29 63.58 88.19 64.21 86.95 64.12"/><polygon points="88.29 63.58 87.04 63.44 86.95 64.12 88.19 64.21 88.29 63.58"/><polygon points="86.53 66.62 86.67 65.94 87.87 66.21 87.73 66.84 86.53 66.62"/><polygon points="87.87 66.21 86.67 65.94 86.53 66.62 87.73 66.84 87.87 66.21"/><polygon points="85.84 68.97 86.07 68.38 87.22 68.74 86.99 69.38 85.84 68.97"/><polygon points="87.22 68.74 86.07 68.38 85.84 68.97 86.99 69.38 87.22 68.74"/><polygon points="84.87 71.33 85.15 70.78 86.3 71.24 86.07 71.87 84.87 71.33"/><polygon points="86.3 71.24 85.15 70.78 84.87 71.33 86.07 71.87 86.3 71.24"/><polygon points="83.02 73.5 83.62 72.41 85.24 73.37 84.64 74.45 83.02 73.5"/><polygon points="85.24 73.37 83.62 72.41 83.02 73.5 84.64 74.45 85.24 73.37"/><polygon points="82.33 75.63 82.75 75.13 83.72 75.86 83.35 76.36 82.33 75.63"/><polygon points="83.72 75.86 82.75 75.13 82.33 75.63 83.35 76.36 83.72 75.86"/><polygon points="80.72 77.58 81.18 77.13 82.05 77.94 81.64 78.44 80.72 77.58"/><polygon points="82.05 77.94 81.18 77.13 80.72 77.58 81.64 78.44 82.05 77.94"/><polygon points="78.91 79.35 79.38 78.94 80.25 79.84 79.75 80.25 78.91 79.35"/><polygon points="80.25 79.84 79.38 78.94 78.91 79.35 79.75 80.25 80.25 79.84"/><polygon points="76.93 80.89 77.48 80.52 78.18 81.52 77.67 81.88 76.93 80.89"/><polygon points="78.18 81.52 77.48 80.52 76.93 80.89 77.67 81.88 78.18 81.52"/><polygon points="74.21 81.79 75.31 81.2 76.24 82.83 75.18 83.42 74.21 81.79"/><polygon points="76.24 82.83 75.31 81.2 74.21 81.79 75.18 83.42 76.24 82.83"/><polygon points="72.54 83.33 73.14 83.11 73.65 84.24 73.05 84.46 72.54 83.33"/><polygon points="73.65 84.24 73.14 83.11 72.54 83.33 73.05 84.46 73.65 84.24"/><polygon points="70.19 84.24 70.79 84.06 71.16 85.23 70.56 85.42 70.19 84.24"/><polygon points="71.16 85.23 70.79 84.06 70.19 84.24 70.56 85.42 71.16 85.23"/><rect transform="translate(-17.18 17.17) rotate(-12.76)" height="1.25" width=".62" y="84.74" x="67.87"/><rect transform="translate(-17.17 17.17) rotate(-12.76)" height="1.25" width=".62" y="84.74" x="67.87"/><polygon points="65.25 85.23 65.85 85.14 65.99 86.37 65.39 86.46 65.25 85.23"/><polygon points="65.99 86.37 65.85 85.14 65.25 85.23 65.39 86.46 65.99 86.37"/><path d="M60.98,39.89l-1.03.58v-.76l1.19-.63h.75v5.16h-.91v-4.35Z"/><path d="M62.84,43.48c.46-.34,2.41-2.05,2.41-3.08,0-.42-.25-.72-.7-.72s-.7.32-.7.67h-1c.05-.54.38-1.27,1.72-1.27.87,0,1.67.42,1.67,1.42,0,1.41-1.69,2.49-2.31,2.99v.02h2.33v.73h-3.42v-.76Z"/><path d="M52.78,42.42l-1.03.58v-.76l1.19-.63h.75v5.16h-.91v-4.35Z"/><path d="M55.13,42.42l-1.03.58v-.76l1.19-.63h.75v5.16h-.91v-4.35Z"/><path d="M45.06,49.36l-1.03.58v-.76l1.19-.63h.75v5.16h-.91v-4.35Z"/><path d="M46.51,51.17c0-1.34.5-2.62,1.93-2.62s1.93,1.28,1.93,2.62-.5,2.62-1.93,2.62-1.93-1.28-1.93-2.62ZM48.44,53.15c.7,0,.94-.86.94-1.98s-.23-1.98-.94-1.98-.94.86-.94,1.98.23,1.98.94,1.98Z"/><path d="M42.11,62.69c0,.22.17.59.64.59.66,0,.75-.87.75-1.89-.22.22-.51.46-1.06.46-1,0-1.44-.65-1.44-1.59,0-.99.64-1.57,1.72-1.57,1.54,0,1.77,1.18,1.77,2.62,0,1.61-.33,2.62-1.83,2.62-1.16,0-1.53-.69-1.56-1.23h1ZM42.75,61.24c.53,0,.71-.41.71-.97,0-.53-.22-1-.7-1-.58,0-.75.47-.75,1.01,0,.5.18.96.74.96Z"/><path d="M44.19,72.44c0-.98.52-1.18.88-1.31-.37-.16-.81-.39-.81-1.21,0-.96.79-1.3,1.69-1.3.96,0,1.69.34,1.69,1.34,0,.8-.46,1.02-.8,1.18.39.15.87.33.87,1.31,0,1.09-.77,1.42-1.77,1.42-1.08,0-1.77-.38-1.77-1.42ZM45.95,73.26c.54,0,.79-.37.79-.97,0-.48-.23-.89-.79-.89s-.79.41-.79.89c0,.6.3.97.79.97ZM45.95,70.81c.46,0,.72-.3.72-.81s-.24-.78-.72-.78c-.38,0-.72.29-.72.78,0,.52.3.82.72.82Z"/><path d="M54.59,75.87h-2.32v-.69h3.33v.68l-1.82,4.39h-1.01l1.82-4.38Z"/><path d="M63.76,79.18c0-.22-.17-.59-.64-.59-.74,0-.82.87-.82,1.89.22-.22.54-.46,1.13-.46.99,0,1.44.65,1.44,1.59,0,.99-.64,1.57-1.73,1.57-1.6,0-1.84-1.19-1.84-2.63,0-1.6.34-2.61,1.9-2.61,1.15,0,1.53.69,1.56,1.23h-1ZM63.11,82.59c.57,0,.75-.47.75-1.01s-.18-.96-.75-.96-.78.41-.78.97c0,.52.25,1,.78,1Z"/><path d="M72.15,77.37c.18-.13.47-.24.88-.24,1.01,0,1.61.57,1.61,1.64,0,1.14-.84,1.57-1.82,1.57-1.44,0-1.75-.7-1.81-1.24h1.06c.03.25.17.6.74.6s.83-.35.83-.98c0-.54-.2-.99-.82-.99-.37,0-.6.22-.66.37h-.93l.14-2.91h2.86v.69h-2.01l-.07,1.49Z"/><path d="M79.88,72.5h-2.29v-.63l2.14-3.17h1.03v3.11h.9v.69h-.9v1.27h-.88v-1.27ZM78.43,71.81h1.45v-2.17h-.02l-1.43,2.17Z"/><path d="M81.7,59.88c0-.58.53-1.21,1.65-1.21.95,0,1.64.44,1.64,1.33,0,.75-.45,1.06-.82,1.14v.02c.49.13.92.36.92,1.31s-.66,1.45-1.73,1.45c-1.37,0-1.74-.66-1.78-1.23h1.06c0,.25.14.59.68.59s.78-.28.78-.9c0-.8-.54-.9-1.08-.9v-.64c.45,0,.98-.03.98-.83,0-.43-.16-.7-.63-.7-.55,0-.64.31-.66.57h-1Z"/><path d="M78.42,52.94c.46-.34,2.41-2.05,2.41-3.08,0-.42-.25-.72-.7-.72s-.7.32-.7.67h-1c.05-.54.38-1.27,1.72-1.27.87,0,1.67.42,1.67,1.42,0,1.41-1.69,2.49-2.31,2.99v.02h2.33v.73h-3.42v-.76Z"/><path d="M73.11,42.42l-1.03.58v-.76l1.19-.63h.75v5.16h-.91v-4.35Z"/><polygon points="81.04 46.68 81.01 46.7 81.04 46.73 59.62 65.93 57.86 64.04 79.38 44.87 81.22 45.01 81.04 46.68" class="cls-5"/><polygon points="68.43 63.31 67 65.53 50.11 54.11 49.69 52.39 51.63 51.94 68.43 63.31" class="cls-5"/><circle r=".2" cy="61.27" cx="63.03"/><line y2="269.44" x2="237.75" y1="269.44" x1="222.7" class="cls-3"/><line y2="269.44" x2="237.75" y1="269.44" x1="252.79" class="cls-3"/><rect transform="translate(507.16 31.06) rotate(90)" height="63.93" width=".65" y="237.15" x="237.72" class="cls-3"/><path d="M237.38,256.85v4.46h-11.98v-4.32c0-.24.19-.42.38-.42h4.79c.09,0,.14.09.14.14v1.17h1.36v-1.17s.05-.14.09-.14h4.93c.14,0,.28.14.28.28Z" class="cls-3"/><path d="M225.4,262.77h11.98v5.22c0,.19-.14.28-.28.28h-4.93s-.09-.05-.09-.14v-1.13h-1.36v1.13c0,.09-.05.14-.14.14h-4.89c-.19,0-.28-.09-.28-.28v-5.22Z" class="cls-3"/><path d="M250.68,256.85v4.46h-11.98v-4.32c0-.24.19-.42.42-.42h4.79s.14.09.14.14v1.17h1.32v-1.17s.05-.14.14-.14h4.93c.14,0,.23.14.23.28Z" class="cls-3"/><path d="M238.7,262.77h11.98v5.22c0,.19-.09.28-.23.28h-4.93c-.09,0-.14-.05-.14-.14v-1.13h-1.32v1.13c0,.09-.09.14-.14.14h-4.93c-.14,0-.28-.09-.28-.28v-5.22Z" class="cls-3"/><rect height="1.46" width="25.28" y="261.31" x="225.4" class="cls-3"/><line y2="268.79" x2="225.39" y1="268.28" x1="225.39" class="cls-3"/><line y2="268.79" x2="250.7" y1="268.28" x1="250.7" class="cls-3"/><line y2="268.28" x2="250.7" y1="268.28" x1="225.39" class="cls-3"/><path d="M211,277.93h54.04c.14,0,.26-.11.27-.25l.5-8.23h-55.54l.46,8.23c0,.14.12.25.27.25Z" class="cls-3"/><line y2="237.53" x2="206.5" y1="237.53" x1="269.57" class="cls-2"/><rect height="1.95" width=".3" y="236.56" x="269.42" class="cls-8"/><rect height="1.95" width=".3" y="236.56" x="206.35" class="cls-8"/><g id="MTEXT-3"><path d="M227.57,228.32v5.29h-.73v-4.36s-.04.08-.06.1c-.02.03-.04.06-.07.09l-1.35,2.02s-.04.06-.05.08-.03.05-.06.08h3.2v.64h-3.98v-.59l2.22-3.35h.87Z"/><path d="M229.93,233.56c-.22-.07-.4-.17-.56-.31-.15-.13-.28-.29-.36-.47s-.13-.38-.13-.6c0-.16.02-.31.07-.45.05-.15.11-.28.2-.4.09-.12.19-.22.31-.3s.25-.14.4-.18c-.14-.05-.25-.12-.36-.2-.1-.08-.19-.17-.27-.27s-.13-.21-.17-.33c-.04-.12-.06-.25-.06-.38,0-.21.04-.39.12-.56.08-.17.2-.32.34-.44.14-.13.32-.22.52-.29.2-.07.42-.1.66-.1s.46.03.66.1c.2.07.37.17.52.29.15.12.26.27.35.44.08.17.13.36.13.57,0,.13-.02.26-.06.38-.04.12-.1.24-.17.34-.07.1-.16.19-.27.27-.1.08-.22.14-.35.19.15.04.28.1.4.18s.22.19.3.31c.08.12.15.25.2.4.05.14.07.29.07.45,0,.21-.04.41-.13.6-.09.18-.21.34-.36.47-.15.13-.34.24-.56.31-.22.07-.46.11-.72.11s-.5-.04-.72-.11ZM231.07,232.93c.13-.04.23-.11.32-.19.09-.08.16-.18.21-.29.05-.11.08-.24.08-.37s-.03-.26-.08-.37c-.05-.11-.12-.21-.21-.29-.09-.08-.2-.15-.33-.2-.13-.05-.26-.07-.41-.07s-.28.02-.41.07c-.13.04-.23.11-.33.19s-.16.18-.21.3c-.05.11-.07.24-.07.37,0,.14.02.27.07.38.05.11.12.21.21.29.09.08.2.14.33.19.13.04.26.07.41.07s.29-.02.41-.07ZM230.3,229c-.11.04-.2.09-.28.16-.08.07-.14.15-.18.26s-.07.21-.07.33c0,.11.02.22.07.32.04.1.11.19.19.26.08.07.17.13.28.17s.23.06.35.06.25-.02.35-.06c.1-.04.2-.1.28-.17s.14-.16.19-.26c.04-.1.07-.21.07-.32,0-.12-.02-.23-.07-.33-.04-.1-.11-.19-.19-.26-.08-.07-.17-.12-.28-.16-.11-.04-.23-.06-.36-.06s-.24.02-.35.06Z"/><path d="M235.85,228.47c.25.13.47.32.65.55.18.23.32.52.42.85.1.33.15.69.15,1.08s-.05.76-.15,1.1-.24.62-.42.86c-.18.24-.4.43-.65.56-.25.13-.52.2-.83.2s-.57-.07-.82-.2-.47-.32-.65-.56c-.18-.24-.32-.53-.42-.86-.1-.33-.15-.7-.15-1.1s.05-.75.15-1.08c.1-.33.24-.61.42-.85.18-.24.4-.42.65-.55.25-.13.53-.2.83-.2s.58.07.83.2ZM234.49,229.1c-.16.1-.29.23-.41.41-.11.18-.2.38-.27.63-.07.24-.1.51-.1.81s.03.57.09.82c.06.25.15.46.27.64.12.18.25.32.41.42.16.1.33.15.52.15s.37-.05.53-.15c.16-.1.3-.24.41-.42.11-.18.2-.39.27-.64.06-.25.09-.52.09-.82s-.03-.56-.09-.81c-.06-.25-.15-.46-.26-.63-.11-.17-.25-.31-.41-.41-.16-.1-.34-.15-.53-.15s-.37.05-.52.15Z"/><path d="M240.67,229.97v.67c.11-.24.26-.42.45-.54.18-.12.4-.18.63-.18.26,0,.48.07.67.2.19.14.32.33.41.59.11-.26.27-.45.46-.59.2-.14.43-.2.7-.2.38,0,.67.12.88.37.21.25.31.61.31,1.07v2.25h-.7v-2.16c0-.29-.07-.52-.2-.69-.13-.17-.31-.25-.54-.25-.12,0-.22.02-.32.07-.1.05-.18.11-.26.2-.07.09-.13.19-.16.32-.04.12-.06.26-.06.4v2.11h-.7v-2.16c0-.14-.02-.27-.06-.38-.04-.12-.09-.22-.15-.3-.06-.08-.14-.14-.23-.19-.09-.04-.2-.07-.31-.07s-.22.02-.32.07c-.1.05-.18.12-.25.21-.07.09-.12.2-.17.32-.04.12-.06.26-.06.41v2.09h-.7v-3.64h.68Z"/><path d="M246.86,229.97v.67c.11-.24.26-.42.45-.54.18-.12.4-.18.63-.18.26,0,.48.07.67.2.19.14.32.33.41.59.11-.26.27-.45.46-.59.2-.14.43-.2.7-.2.38,0,.67.12.88.37.21.25.31.61.31,1.07v2.25h-.7v-2.16c0-.29-.07-.52-.2-.69-.13-.17-.31-.25-.54-.25-.12,0-.22.02-.32.07-.1.05-.18.11-.26.2-.07.09-.13.19-.16.32-.04.12-.06.26-.06.4v2.11h-.7v-2.16c0-.14-.02-.27-.06-.38-.04-.12-.09-.22-.15-.3-.06-.08-.14-.14-.23-.19-.09-.04-.2-.07-.31-.07s-.22.02-.32.07c-.1.05-.18.12-.25.21-.07.09-.12.2-.17.32-.04.12-.06.26-.06.41v2.09h-.7v-3.64h.68Z"/></g></g></g></g></svg>