<svg viewBox="0 0 531.27 288.65" xmlns:xlink="http://www.w3.org/1999/xlink" xmlns="http://www.w3.org/2000/svg" id="Camada_2"><defs><style>.cls-1,.cls-2{fill:none;}.cls-2{stroke:#000;stroke-miterlimit:10;stroke-width:.3px;}</style><symbol viewBox="0 0 531.27 288" id="fundo_transparente"><rect height="288" width="531.27" x="0" class="cls-1"/></symbol></defs><g id="RePlastic"><g id="espreguiçadeira_Match_Up_1500"><use xlink:href="#fundo_transparente" transform="translate(0 .65)" height="288" width="531.27"/><g id="SPLINE"><path d="M384.35,194.88c-.36.66-.73,1.32-1.1,1.98-.37.64-.74,1.28-1.11,1.92s-.74,1.26-1.1,1.89c-.36.62-.71,1.25-1.06,1.87s-.7,1.27-1.05,1.91-.71,1.3-1.07,1.95c-.43.77-.87,1.54-1.33,2.3-.45.76-.91,1.51-1.39,2.26-.47.74-.95,1.48-1.43,2.21s-.97,1.45-1.47,2.17c-.7,1.02-1.42,2.04-2.15,3.04-.72,1-1.45,2-2.18,3s-1.46,1.98-2.18,2.97-1.45,1.98-2.16,2.97-1.42,1.99-2.12,2.99c-.55.8-1.1,1.6-1.64,2.4-.54.81-1.07,1.62-1.58,2.44-.52.82-1.02,1.64-1.52,2.48-.49.84-.97,1.68-1.44,2.53-.19.34-.37.68-.56,1.03-.19.35-.38.7-.57,1.05s-.39.71-.58,1.07c-.2.36-.4.72-.61,1.07s-.43.72-.65,1.07-.46.71-.7,1.06c-.25.35-.5.7-.77,1.04s-.55.68-.84,1.01c-.25.28-.51.56-.78.82s-.56.53-.85.78c-.29.25-.59.49-.9.72s-.63.45-.95.65-.65.4-.99.59-.67.36-1.02.53c-.41.2-.82.38-1.24.55-.42.17-.84.33-1.27.47s-.86.27-1.3.39-.88.23-1.32.32c-.58.12-1.15.23-1.74.32s-1.17.16-1.75.21-1.17.08-1.76.1-1.16.02-1.75,0-1.15-.05-1.73-.1-1.13-.11-1.7-.19-1.1-.17-1.65-.28-1.05-.22-1.58-.35c-.51-.13-1.03-.27-1.53-.42s-1-.3-1.5-.47-.98-.33-1.46-.51-.96-.35-1.43-.53c-.61-.23-1.22-.47-1.83-.7s-1.19-.46-1.79-.68-1.17-.43-1.76-.64-1.24-.41-1.87-.6-1.25-.35-1.89-.51-1.27-.3-1.91-.42-1.29-.24-1.94-.34-1.31-.18-1.96-.26c-.74-.08-1.47-.14-2.21-.19s-1.49-.08-2.23-.09-1.5-.01-2.25,0-1.51.05-2.27.09c-.76.05-1.52.11-2.28.18s-1.52.17-2.28.27-1.53.22-2.29.35c-.76.13-1.53.28-2.29.43-.87.18-1.74.38-2.6.59-.87.21-1.73.44-2.59.69-.86.24-1.72.5-2.57.78s-1.7.56-2.54.86-1.68.62-2.51.95-1.63.66-2.43,1-1.6.7-2.39,1.07c-.79.37-1.57.75-2.35,1.14s-1.54.79-2.29,1.2c-.89.48-1.78.98-2.66,1.5s-1.73,1.03-2.58,1.57c-.84.54-1.68,1.08-2.51,1.65s-1.64,1.14-2.45,1.72c-.81.59-1.61,1.19-2.4,1.8-.8.62-1.58,1.25-2.37,1.88v18.22h21.82c23.69-20.97,59.47-20.97,83.16,0h30.35v-9.93c-17.89-19.12-17.89-48.7,0-67.82v-10.51c0-.87-.17-1.73-.5-2.53" class="cls-2"/></g><g id="SPLINE-2"><path d="M255.11,270.12c.49-.38.99-.76,1.48-1.13.5-.37,1-.74,1.51-1.1.3-.22.6-.43.9-.64.81-.57,1.64-1.12,2.47-1.67s1.68-1.07,2.53-1.58,1.71-1.01,2.59-1.49c.86-.47,1.73-.93,2.61-1.38.88-.44,1.76-.87,2.66-1.28s1.79-.81,2.7-1.18c.84-.35,1.68-.68,2.53-1s1.7-.63,2.56-.92c.86-.29,1.72-.56,2.59-.82.87-.26,1.74-.5,2.62-.73.68-.18,1.37-.34,2.06-.49s1.38-.3,2.08-.43,1.39-.25,2.09-.36,1.4-.2,2.1-.28,1.4-.15,2.11-.21c.58-.05,1.17-.08,1.75-.11s1.17-.04,1.76-.05c.59,0,1.17,0,1.76.01s1.17.04,1.75.08c.57.04,1.14.08,1.7.14.57.06,1.13.13,1.7.21s1.13.18,1.69.28,1.12.22,1.67.36c.46.11.92.23,1.38.36s.91.27,1.37.41.9.3,1.35.46c.67.24,1.34.49,2,.75s1.33.51,1.99.77c1.48.57,2.46,1.98,2.46,3.55,0,.05,0,.1,0,.15-.08,2.1-1.87,3.74-3.99,3.65-16.89-.67-33.42,4.92-46.38,15.68h-14.14v-10.01" class="cls-2"/></g><g id="ARC"><path d="M383.51,191.02c.63-.45,1.33-.35,2.29.9,1.18,1.54,1.78,3.58,1.78,5.5v10.58c0,.64-.24,1.26-.69,1.73-8.18,8.73-12.73,20.2-12.73,32.12s4.55,23.39,12.73,32.12c.44.47.69,1.09.69,1.73v12.02c0,.37-.31.68-.68.68l-33.64-.18c-22.83-20.74-57.84-20.74-80.67,0l-25.11.18c-.38,0-.68-.3-.68-.68v-21.18s.53-2.24.53-2.24c.12-.52,1.65-1.43,2.04-1.75,2.03-1.67,4.15-3.24,6.33-4.72,5.34-3.64,11.15-7.03,17.19-9.4,10.13-3.98,19.02-4.28,23.89-4.39,7.24-.17,14.4.7,21.36,2.66,4.56,1.28,9.06,3.22,13.79,3.83,5.7.73,9.98-1.21,13.52-5.46,4-4.79,7.51-10.01,11.13-15.1,14.15-19.9,23.24-34.05,24.85-36.22.78-1.04,1.39-2.22,2.09-2.72Z" class="cls-2"/></g><g id="ARC-2"><path d="M358.94,245.13c-.3.54-.6,1.09-.91,1.62-.31.54-.63,1.07-.96,1.59-.24.39-.5.77-.76,1.15s-.53.75-.81,1.12-.57.73-.86,1.08-.6.7-.92,1.03-.64.66-.97.98-.68.62-1.03.91c-.37.31-.76.61-1.15.89s-.8.56-1.21.81-.84.51-1.27.74c-.43.23-.87.46-1.31.67s-.89.41-1.34.59-.91.36-1.37.52c-.42.14-.84.28-1.26.41-.57.17-1.14.32-1.72.45-.58.14-1.16.25-1.74.36s-1.17.19-1.76.26c-.34.04-.68.08-1.02.11s-.68.06-1.03.08c-2.12.13-3.72,1.94-3.59,4.04.1,1.54,1.13,2.87,2.61,3.37,8.04,2.68,15.51,6.82,22.01,12.22h16.58c2.12,0,3.84-1.7,3.84-3.81,0-.8-.25-1.57-.72-2.22-5.84-8.09-9.38-17.6-10.24-27.52-.18-2.07-2.01-3.6-4.09-3.42-1.27.11-2.4.84-3.01,1.96" class="cls-2"/></g><path d="M253.21,259.54l-5.44,4.11-2.23-2.93c-.19-.25-.14-.61.11-.8l4.52-3.42c.25-.19.61-.14.8.11l2.23,2.93Z" class="cls-2"/><polygon points="250.51 260.19 249.15 261.22 248.12 259.86 249.48 258.83 250.51 260.19" class="cls-2"/><path d="M250.25,260.39l-.84.63c-.14.11-.35.08-.46-.06l-.64-.84c-.11-.14-.08-.35.06-.45l.84-.63c.14-.11.35-.08.46.06l.64.84c.11.14.08.35-.06.45Z" class="cls-2"/><path d="M260.22,254.76l-5.68,3.78-2.05-3.06c-.18-.26-.1-.62.16-.79l4.72-3.14c.26-.18.62-.1.8.16l2.05,3.06Z" class="cls-2"/><polygon points="257.37 255.23 256.09 256.08 255.24 254.8 256.52 253.95 257.37 255.23" class="cls-2"/><path d="M257.13,255.39l-.79.53c-.13.09-.32.05-.41-.08l-.53-.79c-.09-.13-.05-.32.08-.41l.79-.53c.13-.09.32-.05.41.08l.53.79c.09.13.05.32-.08.41Z" class="cls-2"/><path d="M267.61,250.69l-6,3.25-1.76-3.24c-.15-.28-.05-.62.23-.77l4.99-2.7c.28-.15.63-.05.78.23l1.76,3.23Z" class="cls-2"/><polygon points="264.75 250.9 263.37 251.65 262.62 250.27 264 249.52 264.75 250.9" class="cls-2"/><path d="M264.49,251.04l-.85.46c-.15.08-.33.03-.41-.12l-.46-.85c-.08-.15-.03-.33.12-.41l.85-.46c.15-.08.33-.03.41.12l.46.85c.08.15.03.33-.12.41Z" class="cls-2"/><path d="M275.45,247.41l-6.34,2.52-1.37-3.42c-.12-.29.03-.63.32-.74l5.27-2.09c.29-.12.63.03.75.32l1.37,3.42Z" class="cls-2"/><polygon points="272.63 247.3 271.11 247.91 270.5 246.39 272.03 245.78 272.63 247.3" class="cls-2"/><path d="M272.34,247.42l-.94.37c-.16.06-.34-.01-.41-.17l-.38-.94c-.06-.16.01-.34.18-.41l.94-.37c.16-.06.34.01.41.17l.38.94c.06.16-.01.34-.18.41Z" class="cls-2"/><path d="M283.59,245.19l-6.61,1.69-.92-3.57c-.08-.31.11-.62.41-.69l5.5-1.4c.31-.08.62.11.7.41l.92,3.57Z" class="cls-2"/><polygon points="280.85 244.74 279.2 245.17 278.78 243.52 280.43 243.1 280.85 244.74" class="cls-2"/><path d="M280.54,244.83l-1.02.26c-.17.04-.35-.06-.4-.23l-.26-1.02c-.04-.17.06-.35.23-.39l1.02-.26c.17-.04.35.06.4.23l.26,1.02c.04.17-.06.35-.23.39Z" class="cls-2"/><path d="M291.94,244.23l-6.79.69-.38-3.66c-.03-.31.2-.59.51-.63l5.65-.58c.32-.03.6.2.63.51l.38,3.66Z" class="cls-2"/><rect transform="translate(-23.12 30.5) rotate(-5.82)" height="1.7" width="1.71" y="241.78" x="287.51" class="cls-2"/><path transform="translate(-23.12 30.5) rotate(-5.82)" d="M287.84,241.78h1.06c.18,0,.33.15.33.33v1.05c0,.18-.15.33-.33.33h-1.06c-.18,0-.32-.15-.32-.32v-1.05c0-.18.15-.32.32-.32Z" class="cls-2"/><path transform="translate(-4.11 5.14) rotate(-.98)" d="M294.1,239.73h5.68c.31,0,.57.26.57.57v3.68h-6.82v-3.68c0-.31.26-.57.57-.57Z" class="cls-2"/><rect transform="translate(-4.11 5.14) rotate(-.98)" height="1.7" width="1.71" y="241.18" x="296.11" class="cls-2"/><rect transform="translate(-4.11 5.14) rotate(-.98)" ry=".32" rx=".32" height="1.7" width="1.71" y="241.18" x="296.11" class="cls-2"/><path d="M308.78,244.65l-6.8-.63.34-3.67c.03-.31.31-.55.62-.52l5.65.52c.32.03.55.31.52.62l-.34,3.67Z" class="cls-2"/><rect transform="translate(36 524.28) rotate(-84.7)" height="1.71" width="1.7" y="241.54" x="304.73" class="cls-2"/><rect transform="translate(36 524.28) rotate(-84.7)" ry=".32" rx=".32" height="1.71" width="1.7" y="241.54" x="304.73" class="cls-2"/><path d="M316.98,246.36l-6.67-1.46.79-3.6c.07-.31.37-.5.68-.44l5.54,1.21c.31.07.51.37.44.68l-.79,3.6Z" class="cls-2"/><polygon points="314.73 244.73 313.07 244.37 313.43 242.7 315.1 243.07 314.73 244.73" class="cls-2"/><path d="M314.41,244.66l-1.03-.23c-.18-.04-.29-.21-.25-.39l.23-1.03c.04-.17.21-.29.39-.25l1.03.23c.18.04.29.21.25.39l-.23,1.03c-.04.17-.21.29-.39.25Z" class="cls-2"/><path d="M324.78,248.75l-6.5-2.06,1.12-3.51c.1-.3.42-.47.72-.37l5.41,1.71c.3.1.47.42.37.72l-1.12,3.51Z" class="cls-2"/><polygon points="322.69 246.93 321.06 246.41 321.58 244.79 323.21 245.3 322.69 246.93" class="cls-2"/><path d="M322.38,246.83l-1.01-.32c-.17-.05-.27-.24-.21-.41l.32-1c.05-.17.24-.27.41-.21l1.01.32c.17.05.27.24.21.41l-.32,1c-.05.17-.24.27-.41.21Z" class="cls-2"/><path d="M333.13,250.64c-1-.08-2.14-.23-3.36-.48-1.25-.26-2.36-.51-3.32-.84.22-1.21.44-2.49.66-3.7.06-.31.36-.52.67-.46l5.58,1.02c.31.06.52.35.46.67l-.7,3.8Z" class="cls-2"/><polygon points="330.86 248.91 329.18 248.61 329.49 246.93 331.17 247.24 330.86 248.91" class="cls-2"/><path d="M330.54,248.85l-1.04-.19c-.18-.03-.29-.2-.26-.38l.19-1.04c.03-.18.2-.29.38-.26l1.04.19c.18.03.29.2.26.38l-.19,1.04c-.03.18-.2.29-.38.26Z" class="cls-2"/><path d="M354.2,233.31l-3.94,5.56-3.02-2.12c-.26-.18-.32-.54-.14-.8l3.28-4.62c.18-.26.54-.32.8-.14l3.02,2.12Z" class="cls-2"/><polygon points="351.83 234.74 350.84 236.13 349.45 235.15 350.43 233.76 351.83 234.74" class="cls-2"/><path d="M351.64,235l-.61.86c-.1.15-.31.18-.45.08l-.86-.61c-.15-.1-.18-.31-.08-.45l.61-.86c.1-.15.31-.18.45-.08l.86.61c.15.1.18.31.08.45Z" class="cls-2"/><path d="M359.09,226.43l-3.94,5.56-3.02-2.12c-.26-.18-.32-.54-.14-.8l3.28-4.62c.18-.26.54-.32.8-.14l3.02,2.12Z" class="cls-2"/><polygon points="356.71 227.86 355.73 229.25 354.33 228.27 355.32 226.88 356.71 227.86" class="cls-2"/><path d="M356.53,228.13l-.61.86c-.1.15-.31.18-.45.08l-.86-.61c-.15-.1-.18-.31-.08-.45l.61-.86c.1-.15.31-.18.45-.08l.86.61c.15.1.18.31.08.45Z" class="cls-2"/><path d="M368.77,212.45l-4,5.83-2.98-1.96c-.27-.18-.34-.54-.17-.81l3.26-4.92c.18-.27.54-.34.81-.16l3.07,2.02Z" class="cls-2"/><polygon points="366.37 214.06 365.42 215.48 364 214.54 364.94 213.13 366.37 214.06" class="cls-2"/><path d="M366.19,214.33l-.58.88c-.1.15-.3.19-.45.09l-.88-.58c-.15-.1-.19-.3-.09-.45l.58-.88c.1-.15.3-.19.45-.09l.88.58c.15.1.19.3.09.45Z" class="cls-2"/><path d="M363.92,219.49c-1.35,1.93-2.71,3.86-4.06,5.78l-3.01-2.12c-.26-.19-.33-.55-.14-.81l3.41-4.81c.19-.26.55-.33.81-.14.99.7,1.99,1.4,2.98,2.1Z" class="cls-2"/><polygon points="361.5 221.04 360.51 222.43 359.12 221.45 360.1 220.06 361.5 221.04" class="cls-2"/><path d="M361.31,221.31l-.61.86c-.1.15-.31.18-.45.08l-.86-.61c-.15-.1-.18-.31-.08-.45l.61-.86c.1-.15.31-.18.45-.08l.86.61c.15.1.18.31.08.45Z" class="cls-2"/><path d="M373.47,205.52c-1.32,1.95-2.63,3.9-3.95,5.86l-3.05-2.06c-.27-.18-.34-.54-.16-.81l3.32-4.87c.18-.27.54-.34.81-.15,1.01.68,2.01,1.36,3.02,2.04Z" class="cls-2"/><polygon points="371.07 207.12 370.12 208.52 368.7 207.57 369.66 206.16 371.07 207.12" class="cls-2"/><path d="M370.89,207.39l-.59.87c-.1.15-.3.19-.45.09l-.87-.59c-.15-.1-.19-.3-.09-.45l.59-.87c.1-.15.3-.19.45-.09l.87.59c.15.1.19.3.09.45Z" class="cls-2"/><path d="M378.23,198.35c-1.32,1.95-2.63,3.9-3.95,5.86l-3.05-2.06c-.27-.18-.34-.54-.16-.81l3.32-4.87c.18-.27.54-.34.81-.15,1.01.68,2.01,1.36,3.02,2.04Z" class="cls-2"/><polygon points="375.84 199.95 374.88 201.35 373.47 200.4 374.43 198.99 375.84 199.95" class="cls-2"/><path d="M375.66,200.22l-.59.87c-.1.15-.3.19-.45.09l-.87-.59c-.15-.1-.19-.3-.09-.45l.59-.87c.1-.15.3-.19.45-.09l.87.59c.15.1.19.3.09.45Z" class="cls-2"/><path d="M382.92,191.5c-1.34,1.94-2.67,3.88-4.01,5.82l-3.02-2.09c-.27-.18-.33-.55-.15-.81l3.37-4.84c.18-.26.55-.33.81-.15,1,.69,2,1.38,3,2.07Z" class="cls-2"/><polygon points="380.51 193.07 379.54 194.47 378.14 193.5 379.11 192.1 380.51 193.07" class="cls-2"/><path d="M380.33,193.34l-.6.86c-.1.15-.31.18-.45.08l-.87-.6c-.15-.1-.18-.3-.08-.45l.6-.86c.1-.15.31-.18.45-.08l.87.6c.15.1.18.3.08.45Z" class="cls-2"/><path d="M349.29,240.17l-4.4,5.53-2.87-2.24c-.25-.2-.3-.56-.1-.82l3.65-4.64c.2-.25.57-.3.82-.1l2.9,2.26Z" class="cls-2"/><polygon points="346.77 241.58 345.71 242.92 344.37 241.87 345.42 240.53 346.77 241.58" class="cls-2"/><path d="M346.57,241.84l-.65.83c-.11.14-.32.17-.46.06l-.83-.65c-.14-.11-.17-.31-.06-.46l.65-.83c.11-.14.32-.17.46-.06l.83.65c.14.11.17.31.06.46Z" class="cls-2"/><path d="M342.83,247.61c-.65.56-1.61,1.26-2.89,1.84-1.41.64-2.69.89-3.59,1-.49-1.12-.99-2.24-1.48-3.36-.13-.29,0-.64.3-.77l5.41-2.38c.3-.13.64,0,.77.3l1.48,3.36Z" class="cls-2"/><polygon points="339.94 247.67 338.38 248.36 337.69 246.8 339.25 246.12 339.94 247.67" class="cls-2"/><path d="M339.64,247.8l-.97.42c-.16.07-.36,0-.43-.17l-.43-.96c-.07-.16,0-.36.17-.43l.97-.42c.16-.07.36,0,.43.17l.43.96c.07.16,0,.36-.17.43Z" class="cls-2"/><rect height="3.39" width="8.52" y="24.83" x="44" class="cls-2"/><rect height="3.39" width="8.52" y="24.83" x="137.66" class="cls-2"/><rect height=".42" width="8.52" y="72.45" x="44" class="cls-2"/><rect height=".42" width="8.52" y="72.45" x="137.66" class="cls-2"/><rect height=".42" width="8.52" y="88.33" x="43.99" class="cls-2"/><rect height=".42" width="8.52" y="88.33" x="137.65" class="cls-2"/><rect height=".76" width="8.52" y="79.94" x="43.99" class="cls-2"/><rect height=".76" width="8.52" y="79.94" x="137.65" class="cls-2"/><rect height=".59" width="8.52" y="96.34" x="43.99" class="cls-2"/><rect height=".59" width="8.52" y="96.34" x="137.65" class="cls-2"/><rect height="1.19" width="8.52" y="104.39" x="43.99" class="cls-2"/><rect height="1.19" width="8.52" y="104.39" x="137.65" class="cls-2"/><rect height="1.36" width="8.52" y="112.58" x="43.99" class="cls-2"/><rect height="1.36" width="8.52" y="112.58" x="137.65" class="cls-2"/><rect height="1.02" width="8.52" y="120.94" x="43.99" class="cls-2"/><rect height="1.02" width="8.52" y="120.94" x="137.65" class="cls-2"/><rect height=".59" width="8.52" y="129.56" x="43.99" class="cls-2"/><rect height=".59" width="8.52" y="129.56" x="137.65" class="cls-2"/><rect height=".48" width="8.52" y="137.75" x="43.99" class="cls-2"/><rect height=".48" width="8.52" y="137.75" x="137.65" class="cls-2"/><rect ry=".67" rx=".67" height="6.63" width="127.81" y="65.82" x="31.19" class="cls-2"/><rect ry=".7" rx=".7" height="7.06" width="127.81" y="72.88" x="31.19" class="cls-2"/><rect ry=".72" rx=".72" height="7.63" width="127.81" y="80.7" x="31.19" class="cls-2"/><rect ry=".72" rx=".72" height="7.58" width="127.81" y="88.75" x="31.25" class="cls-2"/><rect ry=".71" rx=".71" height="7.44" width="127.81" y="96.94" x="31.25" class="cls-2"/><rect ry=".69" rx=".69" height="7" width="127.81" y="105.58" x="31.19" class="cls-2"/><rect ry=".69" rx=".69" height="7" width="127.81" y="113.94" x="31.25" class="cls-2"/><rect ry=".72" rx=".72" height="7.6" width="127.81" y="121.96" x="31.25" class="cls-2"/><rect ry=".72" rx=".72" height="7.6" width="127.81" y="130.15" x="31.25" class="cls-2"/><rect ry=".63" rx=".63" height="5.7" width="127.81" y="60.8" x="31.19" class="cls-2"/><rect ry=".63" rx=".63" height="5.7" width="127.81" y="56.57" x="31.19" class="cls-2"/><rect ry=".63" rx=".63" height="5.7" width="127.81" y="52" x="31.19" class="cls-2"/><rect ry=".63" rx=".63" height="5.7" width="127.81" y="47.2" x="31.19" class="cls-2"/><rect ry=".65" rx=".65" height="6.15" width="127.81" y="41.73" x="31.19" class="cls-2"/><rect ry=".61" rx=".61" height="5.5" width="127.81" y="37.44" x="31.19" class="cls-2"/><rect ry=".61" rx=".61" height="5.5" width="127.81" y="33.57" x="31.19" class="cls-2"/><rect ry=".68" rx=".68" height="6.78" width="127.81" y="28.22" x="31.19" class="cls-2"/><rect ry=".75" rx=".75" height="8.26" width="127.87" y="159.25" x="31.18" class="cls-2"/><rect ry=".75" rx=".75" height="8.26" width="127.87" y="152.48" x="31.18" class="cls-2"/><rect ry=".75" rx=".75" height="8.26" width="127.87" y="145.12" x="31.18" class="cls-2"/><rect ry=".72" rx=".72" height="7.6" width="127.81" y="138.24" x="31.18" class="cls-2"/><rect height="21.31" width="8.52" y="267.07" x="44.04" class="cls-2"/><rect height="21.31" width="8.52" y="267.07" x="137.74" class="cls-2"/><rect ry=".72" rx=".72" height="7.57" width="127.87" y="188.17" x="31.22" class="cls-2"/><rect ry=".72" rx=".72" height="7.66" width="127.87" y="195.54" x="31.22" class="cls-2"/><rect ry=".69" rx=".69" height="6.99" width="127.87" y="202.89" x="31.22" class="cls-2"/><rect ry=".69" rx=".69" height="6.99" width="127.87" y="209.89" x="31.22" class="cls-2"/><rect ry=".69" rx=".69" height="6.94" width="127.87" y="216.77" x="31.22" class="cls-2"/><rect ry=".7" rx=".7" height="7.22" width="127.87" y="223.7" x="31.21" class="cls-2"/><rect ry=".73" rx=".73" height="7.78" width="127.87" y="230.92" x="31.22" class="cls-2"/><rect ry=".52" rx=".52" height="3.99" width="127.87" y="238.18" x="31.22" class="cls-2"/><rect ry=".37" rx=".37" height="1.97" width="127.87" y="241.18" x="31.22" class="cls-2"/><rect ry=".46" rx=".46" height="3.09" width="127.87" y="242.12" x="31.22" class="cls-2"/><rect ry=".54" rx=".54" height="4.2" width="127.86" y="244.09" x="31.22" class="cls-2"/><rect ry=".57" rx=".57" height="4.84" width="127.87" y="246.92" x="31.22" class="cls-2"/><rect ry=".62" rx=".62" height="5.6" width="127.87" y="250.51" x="31.22" class="cls-2"/><rect ry=".66" rx=".66" height="6.4" width="127.87" y="254.87" x="31.22" class="cls-2"/><rect ry=".7" rx=".7" height="7.27" width="127.87" y="259.8" x="31.21" class="cls-2"/><line y2="9.83" x2="158.94" y1="9.83" x1="30.6" class="cls-2"/><rect height="1.95" width=".3" y="8.85" x="30.45"/><rect height="1.95" width=".3" y="8.85" x="158.79"/><path d="M81.75.86v5.29h-.72V1.61l-1.3.64v-.73l1.36-.67h.67Z"/><path d="M85.69.86v.65h-1.92l-.25,1.54c.1-.09.22-.16.36-.21.14-.05.29-.07.46-.07.25,0,.47.04.68.13.21.08.38.2.53.35.15.15.27.33.35.54.08.21.12.44.12.69s-.04.48-.13.7c-.09.21-.21.4-.36.55-.16.15-.34.27-.56.36-.21.08-.45.13-.71.13-.2,0-.39-.03-.58-.08s-.35-.13-.5-.23c-.15-.1-.28-.22-.39-.36-.11-.14-.19-.3-.24-.48l.63-.31c.07.24.19.43.39.56.19.14.42.21.67.21.15,0,.29-.03.41-.08.13-.05.23-.12.33-.21.09-.09.16-.2.21-.33.05-.13.08-.27.08-.43s-.03-.3-.08-.44c-.05-.13-.13-.25-.22-.34s-.21-.17-.34-.22c-.13-.05-.28-.08-.44-.08-.18,0-.35.04-.49.1-.14.07-.26.17-.36.31l-.62-.15.47-2.79h2.52Z"/><path d="M89.43,1c.25.13.47.32.65.55.18.23.32.52.42.85.1.33.15.69.15,1.08s-.05.76-.15,1.1-.24.62-.42.86c-.18.24-.4.43-.65.56-.25.13-.52.2-.83.2s-.57-.07-.82-.2-.47-.32-.65-.56c-.18-.24-.32-.53-.42-.86-.1-.33-.15-.7-.15-1.1s.05-.75.15-1.08c.1-.33.24-.61.42-.85.18-.24.4-.42.65-.55.25-.13.53-.2.83-.2s.58.07.83.2ZM88.08,1.63c-.16.1-.29.23-.41.41-.11.18-.2.38-.27.63-.07.24-.1.51-.1.81s.03.57.09.82c.06.25.15.46.27.64.12.18.25.32.41.42.16.1.33.15.52.15s.37-.05.53-.15c.16-.1.3-.24.41-.42.11-.18.2-.39.27-.64.06-.25.09-.52.09-.82s-.03-.56-.09-.81c-.06-.25-.15-.46-.26-.63-.11-.17-.25-.31-.41-.41-.16-.1-.34-.15-.53-.15s-.37.05-.52.15Z"/><path d="M94.07,1c.25.13.47.32.65.55.18.23.32.52.42.85.1.33.15.69.15,1.08s-.05.76-.15,1.1-.24.62-.42.86c-.18.24-.4.43-.65.56-.25.13-.52.2-.83.2s-.57-.07-.82-.2-.47-.32-.65-.56c-.18-.24-.32-.53-.42-.86-.1-.33-.15-.7-.15-1.1s.05-.75.15-1.08c.1-.33.24-.61.42-.85.18-.24.4-.42.65-.55.25-.13.53-.2.83-.2s.58.07.83.2ZM92.72,1.63c-.16.1-.29.23-.41.41-.11.18-.2.38-.27.63-.07.24-.1.51-.1.81s.03.57.09.82c.06.25.15.46.27.64.12.18.25.32.41.42.16.1.33.15.52.15s.37-.05.53-.15c.16-.1.3-.24.41-.42.11-.18.2-.39.27-.64.06-.25.09-.52.09-.82s-.03-.56-.09-.81c-.06-.25-.15-.46-.26-.63-.11-.17-.25-.31-.41-.41-.16-.1-.34-.15-.53-.15s-.37.05-.52.15Z"/><path d="M98.9,2.5v.67c.11-.24.26-.42.45-.54.18-.12.4-.18.63-.18.26,0,.48.07.67.2.19.14.32.33.41.59.11-.26.27-.45.46-.59.2-.14.43-.2.7-.2.38,0,.67.12.88.37.21.25.31.61.31,1.07v2.25h-.7v-2.16c0-.29-.07-.52-.2-.69-.13-.17-.31-.25-.54-.25-.12,0-.22.02-.32.07-.1.05-.18.11-.26.2-.07.09-.13.19-.16.32-.04.12-.06.26-.06.4v2.11h-.7v-2.16c0-.14-.02-.27-.06-.38-.04-.12-.09-.22-.15-.3-.06-.08-.14-.14-.23-.19-.09-.04-.2-.07-.31-.07s-.22.02-.32.07c-.1.05-.18.12-.25.21-.07.09-.12.2-.17.32-.04.12-.06.26-.06.41v2.09h-.7v-3.64h.68Z"/><path d="M105.08,2.5v.67c.11-.24.26-.42.45-.54.18-.12.4-.18.63-.18.26,0,.48.07.67.2.19.14.32.33.41.59.11-.26.27-.45.46-.59.2-.14.43-.2.7-.2.38,0,.67.12.88.37.21.25.31.61.31,1.07v2.25h-.7v-2.16c0-.29-.07-.52-.2-.69-.13-.17-.31-.25-.54-.25-.12,0-.22.02-.32.07-.1.05-.18.11-.26.2-.07.09-.13.19-.16.32-.04.12-.06.26-.06.4v2.11h-.7v-2.16c0-.14-.02-.27-.06-.38-.04-.12-.09-.22-.15-.3-.06-.08-.14-.14-.23-.19-.09-.04-.2-.07-.31-.07s-.22.02-.32.07c-.1.05-.18.12-.25.21-.07.09-.12.2-.17.32-.04.12-.06.26-.06.41v2.09h-.7v-3.64h.68Z"/><line y2="24.98" x2="11.31" y1="167.12" x1="11.31" class="cls-2"/><rect height=".3" width="1.95" y="166.97" x="10.34"/><rect height=".3" width="1.95" y="24.83" x="10.34"/><path d="M3.01,108.92h5.29v.72H3.76l.64,1.3h-.73l-.67-1.36v-.67Z"/><path d="M8.18,106.95c-.12.24-.29.44-.51.61-.22.17-.5.3-.82.39s-.69.14-1.09.14-.8-.05-1.15-.15c-.35-.1-.64-.24-.89-.43-.25-.18-.43-.41-.56-.67-.13-.26-.2-.55-.2-.88,0-.37.09-.7.27-.97.18-.27.43-.47.76-.59l.29.64c-.21.07-.37.18-.48.34-.11.16-.17.35-.17.56,0,.2.05.38.14.55s.23.31.4.44c.17.13.37.22.61.29s.49.1.77.1h.17c.06,0,.1,0,.15,0-.25-.08-.45-.23-.59-.45-.14-.22-.21-.48-.21-.79,0-.24.04-.46.12-.65.08-.2.19-.36.34-.5.15-.14.32-.25.52-.33.2-.08.42-.12.66-.12s.47.04.68.13c.21.08.38.2.53.35.14.15.26.32.34.53s.12.43.12.68c0,.3-.06.57-.18.81ZM7.61,105.79c-.05-.12-.12-.22-.21-.3-.09-.08-.19-.15-.31-.2-.12-.05-.26-.07-.41-.07s-.29.02-.41.07c-.12.05-.23.12-.32.2s-.16.19-.21.31-.07.25-.07.4.02.27.07.39.12.22.2.31c.09.09.19.15.31.2.12.05.25.07.4.07s.28-.03.41-.08.24-.12.34-.21.17-.2.22-.32c.05-.12.08-.26.08-.4s-.03-.26-.08-.38Z"/><path d="M8.25,102.81c-.07.22-.17.4-.31.56-.13.15-.29.28-.47.36s-.38.13-.6.13c-.16,0-.31-.02-.45-.07-.15-.05-.28-.11-.4-.2-.12-.09-.22-.19-.3-.31s-.14-.25-.18-.4c-.05.14-.12.25-.2.36-.08.1-.17.19-.27.27s-.21.13-.33.17c-.12.04-.25.06-.38.06-.21,0-.39-.04-.56-.12-.17-.08-.32-.2-.44-.34-.13-.14-.22-.32-.29-.52-.07-.2-.1-.42-.1-.66s.03-.46.1-.66c.07-.2.17-.37.29-.52.12-.15.27-.26.44-.35.17-.08.36-.13.57-.13.13,0,.26.02.38.06.12.04.24.1.34.17.1.07.19.16.27.27.08.1.14.22.19.35.04-.15.1-.28.18-.4s.19-.22.31-.3c.12-.08.25-.15.4-.2.14-.05.29-.07.45-.07.21,0,.41.04.6.13.18.09.34.21.47.36.13.15.24.34.31.56.07.22.11.46.11.72s-.04.5-.11.72ZM3.69,102.44c.04.11.09.2.16.28.07.08.15.14.26.18s.21.07.33.07c.11,0,.22-.02.32-.07.1-.04.19-.11.26-.19.07-.08.13-.17.17-.28s.06-.23.06-.35-.02-.25-.06-.35c-.04-.1-.1-.2-.17-.28s-.16-.14-.26-.19c-.1-.04-.21-.07-.32-.07-.12,0-.23.02-.33.07-.1.04-.19.11-.26.19-.07.08-.12.17-.16.28-.04.11-.06.23-.06.36s.02.24.06.35ZM7.62,101.67c-.04-.13-.11-.23-.19-.32-.08-.09-.18-.16-.29-.21-.11-.05-.24-.08-.37-.08s-.26.03-.37.08c-.11.05-.21.12-.29.21-.08.09-.15.2-.2.33-.05.13-.07.26-.07.41s.02.28.07.41c.04.13.11.23.19.33s.18.16.3.21c.11.05.24.07.37.07.14,0,.27-.02.38-.07.11-.05.21-.12.29-.21.08-.09.14-.2.19-.33.04-.13.07-.26.07-.41s-.02-.29-.07-.41Z"/><path d="M3.16,96.9c.13-.25.32-.47.55-.65.23-.18.52-.32.85-.42.33-.1.69-.15,1.08-.15s.76.05,1.1.15.62.24.86.42c.24.18.43.4.56.65.13.25.2.52.2.83s-.07.57-.2.82-.32.47-.56.65c-.24.18-.53.32-.86.42-.33.1-.7.15-1.1.15s-.75-.05-1.08-.15c-.33-.1-.61-.24-.85-.42-.24-.18-.42-.4-.55-.65-.13-.25-.2-.53-.2-.83s.07-.58.2-.83ZM3.79,98.25c.1.16.23.29.41.41.18.11.38.2.63.27.24.07.51.1.81.1s.57-.03.82-.09c.25-.06.46-.15.64-.27.18-.12.32-.25.42-.41.1-.16.15-.33.15-.52s-.05-.37-.15-.53c-.1-.16-.24-.3-.42-.41-.18-.11-.39-.2-.64-.27-.25-.06-.52-.09-.82-.09s-.56.03-.81.09c-.25.06-.46.15-.63.26-.17.11-.31.25-.41.41-.1.16-.15.34-.15.53s.05.37.15.52Z"/><path d="M4.66,92.07h.67c-.24-.11-.42-.26-.54-.45-.12-.18-.18-.4-.18-.63,0-.26.07-.48.2-.67.14-.19.33-.32.59-.41-.26-.11-.45-.27-.59-.46-.14-.2-.2-.43-.2-.7,0-.38.12-.67.37-.88.25-.21.61-.31,1.07-.31h2.25v.7h-2.16c-.29,0-.52.07-.69.2-.17.13-.25.31-.25.54,0,.12.02.22.07.32.05.1.11.18.2.26.09.07.19.13.32.16.12.04.26.06.4.06h2.11v.7h-2.16c-.14,0-.27.02-.38.06-.12.04-.22.09-.3.15-.08.06-.14.14-.19.23-.04.09-.07.2-.07.31s.02.22.07.32c.05.1.12.18.21.25.09.07.2.12.32.17.12.04.26.06.41.06h2.09v.7h-3.64v-.68Z"/><path d="M4.66,85.88h.67c-.24-.11-.42-.26-.54-.45-.12-.18-.18-.4-.18-.63,0-.26.07-.48.2-.67.14-.19.33-.32.59-.41-.26-.11-.45-.27-.59-.46-.14-.2-.2-.43-.2-.7,0-.38.12-.67.37-.88.25-.21.61-.31,1.07-.31h2.25v.7h-2.16c-.29,0-.52.07-.69.2-.17.13-.25.31-.25.54,0,.12.02.22.07.32.05.1.11.18.2.26.09.07.19.13.32.16.12.04.26.06.4.06h2.11v.7h-2.16c-.14,0-.27.02-.38.06-.12.04-.22.09-.3.15-.08.06-.14.14-.19.23-.04.09-.07.2-.07.31s.02.22.07.32c.05.1.12.18.21.25.09.07.2.12.32.17.12.04.26.06.41.06h2.09v.7h-3.64v-.68Z"/><line y2="188.47" x2="11.31" y1="288.22" x1="11.31" class="cls-2"/><rect height=".3" width="1.95" y="288.07" x="10.34"/><rect height=".3" width="1.95" y="188.32" x="10.34"/><path d="M3.01,250.51h5.29v.72H3.76l.64,1.3h-.73l-.67-1.36v-.67Z"/><path d="M3.01,247.68h5.29v.72H3.76l.64,1.3h-.73l-.67-1.36v-.67Z"/><path d="M8.25,245.8c-.07.22-.17.4-.31.56-.13.15-.29.28-.47.36s-.38.13-.6.13c-.16,0-.31-.02-.45-.07-.15-.05-.28-.11-.4-.2-.12-.09-.22-.19-.3-.31s-.14-.25-.18-.4c-.05.14-.12.25-.2.36-.08.1-.17.19-.27.27s-.21.13-.33.17c-.12.04-.25.06-.38.06-.21,0-.39-.04-.56-.12-.17-.08-.32-.2-.44-.34-.13-.14-.22-.32-.29-.52-.07-.2-.1-.42-.1-.66s.03-.46.1-.66c.07-.2.17-.37.29-.52.12-.15.27-.26.44-.35.17-.08.36-.13.57-.13.13,0,.26.02.38.06.12.04.24.1.34.17.1.07.19.16.27.27.08.1.14.22.19.35.04-.15.1-.28.18-.4s.19-.22.31-.3c.12-.08.25-.15.4-.2.14-.05.29-.07.45-.07.21,0,.41.04.6.13.18.09.34.21.47.36.13.15.24.34.31.56.07.22.11.46.11.72s-.04.5-.11.72ZM3.69,245.43c.04.11.09.2.16.28.07.08.15.14.26.18s.21.07.33.07c.11,0,.22-.02.32-.07.1-.04.19-.11.26-.19.07-.08.13-.17.17-.28s.06-.23.06-.35-.02-.25-.06-.35c-.04-.1-.1-.2-.17-.28s-.16-.14-.26-.19c-.1-.04-.21-.07-.32-.07-.12,0-.23.02-.33.07-.1.04-.19.11-.26.19-.07.08-.12.17-.16.28-.04.11-.06.23-.06.36s.02.24.06.35ZM7.62,244.67c-.04-.13-.11-.23-.19-.32-.08-.09-.18-.16-.29-.21-.11-.05-.24-.08-.37-.08s-.26.03-.37.08c-.11.05-.21.12-.29.21-.08.09-.15.2-.2.33-.05.13-.07.26-.07.41s.02.28.07.41c.04.13.11.23.19.33s.18.16.3.21c.11.05.24.07.37.07.14,0,.27-.02.38-.07.11-.05.21-.12.29-.21.08-.09.14-.2.19-.33.04-.13.07-.26.07-.41s-.02-.29-.07-.41Z"/><path d="M3.16,239.89c.13-.25.32-.47.55-.65.23-.18.52-.32.85-.42.33-.1.69-.15,1.08-.15s.76.05,1.1.15.62.24.86.42c.24.18.43.4.56.65.13.25.2.52.2.83s-.07.57-.2.82-.32.47-.56.65c-.24.18-.53.32-.86.42-.33.1-.7.15-1.1.15s-.75-.05-1.08-.15c-.33-.1-.61-.24-.85-.42-.24-.18-.42-.4-.55-.65-.13-.25-.2-.53-.2-.83s.07-.58.2-.83ZM3.79,241.24c.1.16.23.29.41.41.18.11.38.2.63.27.24.07.51.1.81.1s.57-.03.82-.09c.25-.06.46-.15.64-.27.18-.12.32-.25.42-.41.1-.16.15-.33.15-.52s-.05-.37-.15-.53c-.1-.16-.24-.3-.42-.41-.18-.11-.39-.2-.64-.27-.25-.06-.52-.09-.82-.09s-.56.03-.81.09c-.25.06-.46.15-.63.26-.17.11-.31.25-.41.41-.1.16-.15.34-.15.53s.05.37.15.52Z"/><path d="M4.66,235.06h.67c-.24-.11-.42-.26-.54-.45-.12-.18-.18-.4-.18-.63,0-.26.07-.48.2-.67.14-.19.33-.32.59-.41-.26-.11-.45-.27-.59-.46-.14-.2-.2-.43-.2-.7,0-.38.12-.67.37-.88.25-.21.61-.31,1.07-.31h2.25v.7h-2.16c-.29,0-.52.07-.69.2-.17.13-.25.31-.25.54,0,.12.02.22.07.32.05.1.11.18.2.26.09.07.19.13.32.16.12.04.26.06.4.06h2.11v.7h-2.16c-.14,0-.27.02-.38.06-.12.04-.22.09-.3.15-.08.06-.14.14-.19.23-.04.09-.07.2-.07.31s.02.22.07.32c.05.1.12.18.21.25.09.07.2.12.32.17.12.04.26.06.41.06h2.09v.7h-3.64v-.68Z"/><path d="M4.66,228.88h.67c-.24-.11-.42-.26-.54-.45-.12-.18-.18-.4-.18-.63,0-.26.07-.48.2-.67.14-.19.33-.32.59-.41-.26-.11-.45-.27-.59-.46-.14-.2-.2-.43-.2-.7,0-.38.12-.67.37-.88.25-.21.61-.31,1.07-.31h2.25v.7h-2.16c-.29,0-.52.07-.69.2-.17.13-.25.31-.25.54,0,.12.02.22.07.32.05.1.11.18.2.26.09.07.19.13.32.16.12.04.26.06.4.06h2.11v.7h-2.16c-.14,0-.27.02-.38.06-.12.04-.22.09-.3.15-.08.06-.14.14-.19.23-.04.09-.07.2-.07.31s.02.22.07.32c.05.1.12.18.21.25.09.07.2.12.32.17.12.04.26.06.41.06h2.09v.7h-3.64v-.68Z"/></g></g></svg>