<svg viewBox="0 0 531.26 288" xmlns="http://www.w3.org/2000/svg" id="RePlastic"><defs><style>.cls-1{stroke:#12100b;stroke-width:.84px;}.cls-1,.cls-2{fill:none;stroke-linecap:round;stroke-linejoin:round;}.cls-3{fill:#12100c;}.cls-2{stroke:#12100c;stroke-width:.3px;}</style></defs><g id="lava-pés_Aquaflow"><path d="M7.41,171.99c-.07.22-.17.4-.31.56-.13.15-.29.28-.47.36s-.38.13-.6.13c-.16,0-.31-.02-.45-.07-.15-.05-.28-.11-.4-.2-.12-.09-.22-.19-.3-.31s-.14-.25-.18-.4c-.05.14-.12.25-.2.36-.08.1-.17.19-.27.27s-.21.13-.33.17c-.12.04-.25.06-.38.06-.21,0-.39-.04-.56-.12-.17-.08-.32-.2-.44-.34-.13-.14-.22-.32-.29-.52-.07-.2-.1-.42-.1-.66s.03-.46.1-.66c.07-.2.17-.37.29-.52.12-.15.27-.26.44-.35.17-.08.36-.13.57-.13.13,0,.26.02.38.06.12.04.24.1.34.17.1.07.19.16.27.27.08.1.14.22.19.35.04-.15.1-.28.18-.4s.19-.22.31-.3c.12-.08.25-.15.4-.2.14-.05.29-.07.45-.07.21,0,.41.04.6.13.18.09.34.21.47.36.13.15.24.34.31.56.07.22.11.46.11.72s-.04.5-.11.72ZM2.85,171.63c.04.11.09.2.16.28.07.08.15.14.26.18s.21.07.33.07c.11,0,.22-.02.32-.07.1-.04.19-.11.26-.19.07-.08.13-.17.17-.28s.06-.23.06-.35-.02-.25-.06-.35c-.04-.1-.1-.2-.17-.28s-.16-.14-.26-.19c-.1-.04-.21-.07-.32-.07-.12,0-.23.02-.33.07-.1.04-.19.11-.26.19-.07.08-.12.17-.16.28-.04.11-.06.23-.06.36s.02.24.06.35ZM6.78,170.86c-.04-.13-.11-.23-.19-.32-.08-.09-.18-.16-.29-.21-.11-.05-.24-.08-.37-.08s-.26.03-.37.08c-.11.05-.21.12-.29.21-.08.09-.15.2-.2.33-.05.13-.07.26-.07.41s.02.28.07.41c.04.13.11.23.19.33s.18.16.3.21c.11.05.24.07.37.07.14,0,.27-.02.38-.07.11-.05.21-.12.29-.21.08-.09.14-.2.19-.33.04-.13.07-.26.07-.41s-.02-.29-.07-.41Z"/><path d="M2.32,166.08c.13-.25.32-.47.55-.65.23-.18.52-.32.85-.42.33-.1.69-.15,1.08-.15s.76.05,1.1.15.62.24.86.42c.24.18.43.4.56.65.13.25.2.52.2.83s-.07.57-.2.82-.32.47-.56.65c-.24.18-.53.32-.86.42-.33.1-.7.15-1.1.15s-.75-.05-1.08-.15c-.33-.1-.61-.24-.85-.42-.24-.18-.42-.4-.55-.65-.13-.25-.2-.53-.2-.83s.07-.58.2-.83ZM2.96,167.43c.1.16.23.29.41.41.18.11.38.2.63.27.24.07.51.1.81.1s.57-.03.82-.09c.25-.06.46-.15.64-.27.18-.12.32-.25.42-.41.1-.16.15-.33.15-.52s-.05-.37-.15-.53c-.1-.16-.24-.3-.42-.41-.18-.11-.39-.2-.64-.27-.25-.06-.52-.09-.82-.09s-.56.03-.81.09c-.25.06-.46.15-.63.26-.17.11-.31.25-.41.41-.1.16-.15.34-.15.53s.05.37.15.52Z"/><path d="M7.34,163.18c-.12.24-.29.44-.51.61-.22.17-.5.3-.82.39s-.69.14-1.09.14-.8-.05-1.15-.15c-.35-.1-.64-.24-.89-.43-.25-.18-.43-.41-.56-.67-.13-.26-.2-.55-.2-.88,0-.37.09-.7.27-.97.18-.27.43-.47.76-.59l.29.64c-.21.07-.37.18-.48.34-.11.16-.17.35-.17.56,0,.2.05.38.14.55s.23.31.4.44c.17.13.37.22.61.29s.49.1.77.1h.17c.06,0,.1,0,.15,0-.25-.08-.45-.23-.59-.45-.14-.22-.21-.48-.21-.79,0-.24.04-.46.12-.65.08-.2.19-.36.34-.5.15-.14.32-.25.52-.33.2-.08.42-.12.66-.12s.47.04.68.13c.21.08.38.2.53.35.14.15.26.32.34.53s.12.43.12.68c0,.3-.06.57-.18.81ZM6.77,162.01c-.05-.12-.12-.22-.21-.3-.09-.08-.19-.15-.31-.2-.12-.05-.26-.07-.41-.07s-.29.02-.41.07c-.12.05-.23.12-.32.2s-.16.19-.21.31-.07.25-.07.4.02.27.07.39.12.22.2.31c.09.09.19.15.31.2.12.05.25.07.4.07s.28-.03.41-.08.24-.12.34-.21.17-.2.22-.32c.05-.12.08-.26.08-.4s-.03-.26-.08-.38Z"/><path d="M3.82,157.02h.67c-.24-.11-.42-.26-.54-.45-.12-.18-.18-.4-.18-.63,0-.26.07-.48.2-.67.14-.19.33-.32.59-.41-.26-.11-.45-.27-.59-.46-.14-.2-.2-.43-.2-.7,0-.38.12-.67.37-.88.25-.21.61-.31,1.07-.31h2.25v.7h-2.16c-.29,0-.52.07-.69.2-.17.13-.25.31-.25.54,0,.12.02.22.07.32.05.1.11.18.2.26.09.07.19.13.32.16.12.04.26.06.4.06h2.11v.7h-2.16c-.14,0-.27.02-.38.06-.12.04-.22.09-.3.15-.08.06-.14.14-.19.23-.04.09-.07.2-.07.31s.02.22.07.32c.05.1.12.18.21.25.09.07.2.12.32.17.12.04.26.06.41.06h2.09v.7h-3.64v-.68Z"/><path d="M3.82,150.83h.67c-.24-.11-.42-.26-.54-.45-.12-.18-.18-.4-.18-.63,0-.26.07-.48.2-.67.14-.19.33-.32.59-.41-.26-.11-.45-.27-.59-.46-.14-.2-.2-.43-.2-.7,0-.38.12-.67.37-.88.25-.21.61-.31,1.07-.31h2.25v.7h-2.16c-.29,0-.52.07-.69.2-.17.13-.25.31-.25.54,0,.12.02.22.07.32.05.1.11.18.2.26.09.07.19.13.32.16.12.04.26.06.4.06h2.11v.7h-2.16c-.14,0-.27.02-.38.06-.12.04-.22.09-.3.15-.08.06-.14.14-.19.23-.04.09-.07.2-.07.31s.02.22.07.32c.05.1.12.18.21.25.09.07.2.12.32.17.12.04.26.06.41.06h2.09v.7h-3.64v-.68Z"/><line y2="287.85" x2="9.39" y1="29.19" x1="9.39" class="cls-2"/><rect height=".3" width="1.95" y="29.04" x="8.41" class="cls-3"/><rect height=".3" width="1.95" y="287.7" x="8.41" class="cls-3"/><g id="LINE"><polygon points="265.86 28.95 265.86 30.43 208.91 30.43 208.91 28.95 209.36 28.5 265.31 28.5 265.86 28.95" class="cls-2"/></g><g id="LINE-2"><line y2="287.96" x2="238.12" y1="287.96" x1="236.55" class="cls-1"/></g><g id="LINE-3"><rect height="257.48" width="28.3" y="30.43" x="238.11" class="cls-2"/></g><g id="LINE-4"><rect height="257.48" width="28.31" y="30.43" x="208.25" class="cls-2"/></g><path d="M208.25,63.93v10.22h-3.44c-.44,0-.78-.45-.78-.91v-8.4c0-.45.34-.91.78-.91h3.44Z" class="cls-2"/><path d="M270.75,64.84v8.4c0,.45-.44.91-.89.91h-3.44v-10.22h3.44c.44,0,.89.45.89.91Z" class="cls-2"/><polygon points="208.25 132.31 208.25 147.87 205.14 151.05 195.48 145.82 208.25 132.31" class="cls-2"/><polygon points="279.18 145.82 269.53 151.05 266.42 147.87 266.42 132.31 279.18 145.82" class="cls-2"/><g id="LINE-5"><polygon points="35.03 30.43 35.03 28.98 35.52 28.5 36.66 28.5 150.26 28.5 151.41 28.5 151.9 28.98 151.9 30.43 35.03 30.43" class="cls-2"/></g><g id="LINE-6"><rect height="257.5" width="29.45" y="30.46" x="34.41" class="cls-2"/></g><g id="LINE-7"><rect height="257.5" width="29.45" y="30.46" x="123.11" class="cls-2"/></g><path d="M99.2,148.38v.11c0,1.7-2.54,3.29-5.77,3.29s-5.66-1.59-5.66-3.29v-.34c.34-1.59,2.77-2.84,5.66-2.84,3.11,0,5.66,1.36,5.77,3.07Z" class="cls-2"/><g id="LINE-8"><line y2="35.48" x2="123.11" y1="54.89" x1="123.11" class="cls-2"/></g><g id="LINE-9"><line y2="30.43" x2="123.11" y1="35.47" x1="123.11" class="cls-2"/></g><g id="LINE-10"><polyline points="123.11 54.91 123.11 287.96 63.86 287.96 63.86 30.43" class="cls-2"/></g><g id="CIRCLE"><ellipse ry="5.57" rx="5.66" cy="69.72" cx="93.48" class="cls-2"/></g><g id="SPLINE"><path d="M123.11,54.89c-2.36-.09-4.72-.13-7.09-.11-1.08.1-1.9-.8-1.87-1.83v-.22s.03-.2.03-.2h0s0-.01,0-.01h0s0,0,0,0c.05-.44.28-.82.47-1.21.32-.71.34-1.53.09-2.26-.1-.3-.27-.55-.38-.81-.33-.79-.27-1.74.15-2.48.31-.52.44-1.17.39-1.77-.02-.31-.08-.62-.21-.9-.12-.29-.28-.54-.38-.8-.23-.66-.22-1.44.06-2.09.2-.4.44-.81.49-1.27.08-.61.04-1.25-.24-1.81-.13-.28-.28-.53-.37-.8-.07-.23-.11-.48-.11-.73.74,0,1.49,0,2.23,0,1.42-.02,4.98-.08,6.72-.1-1.73-.04-5.32-.1-6.72-.11-.78-.02-1.57,0-2.35,0-.07,0-.12.05-.12.12,0,.3.03.62.13.91.19.57.57,1.03.61,1.64.06.57,0,1.15-.29,1.66-.14.27-.29.55-.36.84-.14.6-.13,1.24.09,1.82.24.56.57,1.03.57,1.64.04.58-.07,1.14-.36,1.66-.45.8-.52,1.83-.16,2.68.12.29.28.53.38.8.28.82.17,1.73-.28,2.48-.29.54-.39,1.2-.28,1.8.15.86.93,1.6,1.84,1.59,2.44.02,4.88-.01,7.31-.11" class="cls-3"/></g><g id="LINE-11"><line y2="35.47" x2="123.11" y1="35.48" x1="123.11" class="cls-2"/></g><path d="M99.2,139.52v8.86c-.12-1.7-2.66-3.07-5.77-3.07-2.89,0-5.32,1.25-5.66,2.84v-8.63c0-3.07,2.54-6.82,5.77-6.82s5.66,3.75,5.66,6.82Z" class="cls-2"/><path d="M90.31,145.83c.38,1.23,1.66,1.89,3.17,1.89s2.74-.66,3.15-1.85c0,0-.61-.59-3.11-.59-2.29,0-3.21.55-3.21.55Z" class="cls-2"/><path d="M108.9,121.01l.35-51.51c0-8.63-7.11-15.62-15.88-15.62h0c-8.77,0-15.88,6.99-15.88,15.62l.42,51.51.39-51.63c.07-3.83,1.65-7.49,4.41-10.2h0c5.91-5.8,15.49-5.75,21.33.11l.09.09c2.69,2.7,4.23,6.31,4.3,10.09l.47,51.54Z" class="cls-2"/><g id="SPLINE-2"><path d="M91.43,105.6c.02-.05.04-.11.04-.17s0-.12-.01-.17-.03-.11-.06-.16-.07-.1-.11-.14" class="cls-2"/></g><g id="SPLINE-3"><path d="M90.88,105.97c.06,0,.12,0,.17-.03s.11-.04.16-.08.09-.07.13-.12.07-.1.09-.15" class="cls-2"/></g><g id="LINE-12"><line y2="105.97" x2="90.88" y1="105.97" x1="89.46" class="cls-2"/></g><g id="SPLINE-4"><path d="M88.9,105.6c.02.05.05.1.09.15s.08.09.13.12.1.06.16.08.12.03.18.03" class="cls-2"/></g><g id="SPLINE-5"><path d="M89.05,104.96s-.08.09-.11.14-.05.11-.06.16-.02.12-.01.17.02.12.04.17" class="cls-2"/></g><g id="SPLINE-6"><path d="M91.28,104.96c-.08-.07-.16-.13-.24-.18s-.18-.1-.27-.14-.19-.06-.29-.08-.2-.03-.31-.03-.2,0-.3.03-.2.05-.3.08-.19.08-.27.14-.17.12-.24.19" class="cls-2"/></g><g id="LINE-13"><line y2="107.27" x2="88.95" y1="107.54" x1="88.88" class="cls-2"/></g><g id="SPLINE-7"><path d="M88.67,107.7s.09-.02.13-.04.07-.07.08-.12" class="cls-2"/></g><g id="SPLINE-8"><path d="M88.61,107.69s0,0,.01,0,0,0,.01,0c0,0,.02,0,.03,0" class="cls-2"/></g><g id="SPLINE-9"><path d="M88.46,107.43s0,.06,0,.08.01.05.03.08c.03.05.08.08.13.1" class="cls-2"/></g><g id="LINE-14"><line y2="107.43" x2="88.46" y1="107.16" x1="88.53" class="cls-2"/></g><g id="SPLINE-10"><path d="M88.79,107.01s-.06,0-.08,0-.06.01-.08.03c-.05.03-.09.08-.1.13" class="cls-2"/></g><g id="SPLINE-11"><path d="M88.95,107.27s0-.06,0-.08-.01-.05-.03-.08c-.03-.05-.08-.08-.13-.1" class="cls-2"/></g><g id="LINE-15"><line y2="107.24" x2="89.91" y1="107.51" x1="89.88" class="cls-2"/></g><g id="SPLINE-12"><path d="M89.67,107.71c.05,0,.11-.02.15-.06s.06-.08.07-.14" class="cls-2"/></g><g id="ARC"><path d="M89.65,107.71s.01,0,.02,0" class="cls-2"/></g><g id="SPLINE-13"><path d="M89.45,107.47s0,.06,0,.08.02.05.04.07c.04.04.09.07.15.08" class="cls-2"/></g><g id="LINE-16"><line y2="107.47" x2="89.45" y1="107.2" x1="89.48" class="cls-2"/></g><g id="SPLINE-14"><path d="M89.72,107s-.06,0-.08,0-.05.02-.07.04c-.04.04-.07.09-.08.14" class="cls-2"/></g><g id="SPLINE-15"><path d="M89.91,107.24s0-.06,0-.08-.02-.05-.04-.07c-.04-.04-.09-.07-.15-.08" class="cls-2"/></g><g id="ARC-2"><path d="M90.67,107.71s.01,0,.02,0" class="cls-2"/></g><g id="SPLINE-16"><path d="M90.45,107.51c0,.05.03.1.07.14s.09.06.15.06" class="cls-2"/></g><g id="LINE-17"><line y2="107.51" x2="90.45" y1="107.24" x1="90.42" class="cls-2"/></g><g id="SPLINE-17"><path d="M90.62,107s-.06.01-.08.02-.05.03-.07.05c-.04.04-.05.1-.05.16" class="cls-2"/></g><g id="SPLINE-18"><path d="M90.85,107.2s-.01-.05-.02-.08-.03-.05-.05-.06c-.04-.04-.1-.05-.16-.05" class="cls-2"/></g><g id="LINE-18"><line y2="107.2" x2="90.85" y1="107.47" x1="90.88" class="cls-2"/></g><g id="SPLINE-19"><path d="M90.69,107.71s.06-.01.08-.02.05-.03.07-.05c.04-.04.05-.1.05-.16" class="cls-2"/></g><g id="LINE-19"><line y2="107.16" x2="91.81" y1="107.58" x1="91.92" class="cls-2"/></g><g id="SPLINE-20"><path d="M91.76,107.84s.05-.02.08-.04.04-.04.06-.06c.03-.05.04-.11.02-.16" class="cls-2"/></g><g id="SPLINE-21"><path d="M91.71,107.85s0,0,.01,0,0,0,.01,0c0,0,.02,0,.03,0" class="cls-2"/></g><g id="SPLINE-22"><path d="M91.5,107.69s.04.09.08.11.08.04.13.04" class="cls-2"/></g><g id="LINE-20"><line y2="107.69" x2="91.5" y1="107.27" x1="91.39" class="cls-2"/></g><g id="SPLINE-23"><path d="M91.54,107.01s-.05.02-.08.04-.04.04-.06.06c-.03.05-.04.11-.02.16" class="cls-2"/></g><g id="SPLINE-24"><path d="M91.81,107.16s-.02-.05-.04-.08-.04-.04-.06-.06c-.05-.03-.11-.04-.16-.02" class="cls-2"/></g><g id="ARC-3"><path d="M90.77,108.71s.01,0,.02,0" class="cls-2"/></g><g id="SPLINE-25"><path d="M90.55,108.52c0,.05.03.1.07.14s.09.06.15.06" class="cls-2"/></g><g id="LINE-21"><line y2="108.52" x2="90.55" y1="108.27" x1="90.53" class="cls-2"/></g><g id="SPLINE-26"><path d="M90.72,108.03s-.06.01-.08.02-.05.03-.07.05c-.04.04-.05.1-.05.16" class="cls-2"/></g><g id="SPLINE-27"><path d="M90.96,108.23s-.01-.05-.02-.08-.03-.05-.05-.06c-.04-.04-.1-.05-.16-.05" class="cls-2"/></g><g id="LINE-22"><line y2="108.23" x2="90.96" y1="108.48" x1="90.98" class="cls-2"/></g><g id="SPLINE-28"><path d="M90.79,108.71s.06-.01.08-.02.05-.03.07-.05c.04-.04.05-.1.05-.16" class="cls-2"/></g><g id="ARC-4"><path d="M90.87,109.74s.01,0,.02,0" class="cls-2"/></g><g id="SPLINE-29"><path d="M90.66,109.55c0,.05.03.1.07.14s.09.06.15.06" class="cls-2"/></g><g id="LINE-23"><line y2="109.55" x2="90.66" y1="109.27" x1="90.63" class="cls-2"/></g><g id="SPLINE-30"><path d="M90.82,109.04s-.06.01-.08.02-.05.03-.07.05c-.04.04-.05.1-.05.16" class="cls-2"/></g><g id="SPLINE-31"><path d="M91.06,109.23s-.01-.06-.02-.08-.03-.05-.05-.06c-.04-.04-.1-.05-.16-.05" class="cls-2"/></g><g id="LINE-24"><line y2="109.23" x2="91.06" y1="109.51" x1="91.09" class="cls-2"/></g><g id="SPLINE-32"><path d="M90.89,109.74s.06-.01.08-.02.05-.03.07-.05c.04-.04.05-.1.05-.16" class="cls-2"/></g><g id="LINE-25"><line y2="110.06" x2="89.63" y1="110.42" x1="89.59" class="cls-2"/></g><g id="SPLINE-33"><path d="M89.38,110.61c.05,0,.11-.02.15-.06s.06-.08.07-.14" class="cls-2"/></g><g id="ARC-5"><path d="M89.36,110.61s.01,0,.02,0" class="cls-2"/></g><g id="SPLINE-34"><path d="M89.16,110.38s0,.06,0,.08.02.05.04.07c.04.04.09.07.15.08" class="cls-2"/></g><g id="LINE-26"><line y2="110.38" x2="89.16" y1="110.02" x1="89.2" class="cls-2"/></g><g id="SPLINE-35"><path d="M89.43,109.82s-.06,0-.08,0-.05.02-.07.04c-.04.04-.07.09-.08.14" class="cls-2"/></g><g id="SPLINE-36"><path d="M89.63,110.06s0-.06,0-.08-.02-.05-.04-.07c-.04-.04-.09-.07-.15-.08" class="cls-2"/></g><g id="LINE-27"><line y2="108.6" x2="89.77" y1="108.97" x1="89.74" class="cls-2"/></g><g id="SPLINE-37"><path d="M89.52,109.16c.05,0,.11-.02.15-.06s.06-.08.07-.14" class="cls-2"/></g><g id="ARC-6"><path d="M89.5,109.16s.01,0,.02,0" class="cls-2"/></g><g id="SPLINE-38"><path d="M89.31,108.93s0,.06,0,.08.02.05.04.07c.04.04.09.07.15.08" class="cls-2"/></g><g id="LINE-28"><line y2="108.93" x2="89.31" y1="108.56" x1="89.34" class="cls-2"/></g><g id="SPLINE-39"><path d="M89.58,108.37s-.06,0-.08,0-.05.02-.07.04c-.04.04-.07.09-.08.14" class="cls-2"/></g><g id="SPLINE-40"><path d="M89.77,108.6s0-.06,0-.08-.02-.05-.04-.07c-.04-.04-.09-.07-.15-.08" class="cls-2"/></g><g id="LINE-29"><line y2="109.11" x2="88.47" y1="109.63" x1="88.33" class="cls-2"/></g><g id="SPLINE-41"><path d="M88.12,109.79s.09-.02.13-.04.07-.07.08-.12" class="cls-2"/></g><g id="SPLINE-42"><path d="M88.06,109.78s0,0,.01,0,0,0,.01,0c0,0,.02,0,.03,0" class="cls-2"/></g><g id="SPLINE-43"><path d="M87.91,109.52s0,.06,0,.08.01.05.03.08c.03.05.08.08.13.1" class="cls-2"/></g><g id="LINE-30"><line y2="109.52" x2="87.91" y1="109" x1="88.05" class="cls-2"/></g><g id="SPLINE-44"><path d="M88.31,108.85s-.06,0-.08,0-.06.01-.08.03c-.05.03-.09.08-.1.13" class="cls-2"/></g><g id="SPLINE-45"><path d="M88.47,109.11s0-.06,0-.08-.01-.05-.03-.08c-.03-.05-.08-.08-.13-.1" class="cls-2"/></g><g id="LINE-31"><line y2="111.2" x2="87.91" y1="111.72" x1="87.78" class="cls-2"/></g><g id="SPLINE-46"><path d="M87.57,111.88s.09-.02.13-.04.07-.07.08-.12" class="cls-2"/></g><g id="SPLINE-47"><path d="M87.51,111.87s0,0,.01,0,0,0,.01,0c0,0,.02,0,.03,0" class="cls-2"/></g><g id="SPLINE-48"><path d="M87.36,111.61s0,.06,0,.08.01.05.03.08c.03.05.08.08.13.1" class="cls-2"/></g><g id="LINE-32"><line y2="111.61" x2="87.36" y1="111.09" x1="87.5" class="cls-2"/></g><g id="SPLINE-49"><path d="M87.76,110.94s-.06,0-.08,0-.06.01-.08.03c-.05.03-.09.08-.1.13" class="cls-2"/></g><g id="SPLINE-50"><path d="M87.91,111.2s0-.06,0-.08-.01-.05-.03-.08c-.03-.05-.08-.08-.13-.1" class="cls-2"/></g><g id="LINE-33"><line y2="111.51" x2="89.48" y1="111.87" x1="89.45" class="cls-2"/></g><g id="SPLINE-51"><path d="M89.23,112.07c.05,0,.11-.02.15-.06s.06-.08.07-.14" class="cls-2"/></g><g id="ARC-7"><path d="M89.21,112.06s.01,0,.02,0" class="cls-2"/></g><g id="SPLINE-52"><path d="M89.01,111.83s0,.06,0,.08.02.05.04.07c.04.04.09.07.15.08" class="cls-2"/></g><g id="LINE-34"><line y2="111.83" x2="89.01" y1="111.47" x1="89.05" class="cls-2"/></g><g id="SPLINE-53"><path d="M89.29,111.28s-.06,0-.08,0-.05.02-.07.04c-.04.04-.07.09-.08.14" class="cls-2"/></g><g id="SPLINE-54"><path d="M89.48,111.51s0-.06,0-.08-.02-.05-.04-.07c-.04-.04-.09-.07-.15-.08" class="cls-2"/></g><g id="LINE-35"><line y2="112.96" x2="89.34" y1="113.24" x1="89.31" class="cls-2"/></g><g id="SPLINE-55"><path d="M89.09,113.43c.05,0,.11-.02.15-.06s.06-.08.07-.14" class="cls-2"/></g><g id="ARC-8"><path d="M89.07,113.43s.01,0,.02,0" class="cls-2"/></g><g id="SPLINE-56"><path d="M88.88,113.2s0,.06,0,.08.02.05.04.07c.04.04.09.07.15.08" class="cls-2"/></g><g id="LINE-36"><line y2="113.2" x2="88.88" y1="112.92" x1="88.91" class="cls-2"/></g><g id="SPLINE-57"><path d="M89.14,112.73s-.06,0-.08,0-.05.02-.07.04c-.04.04-.07.09-.08.14" class="cls-2"/></g><g id="SPLINE-58"><path d="M89.34,112.96s0-.06,0-.08-.02-.05-.04-.07c-.04-.04-.09-.07-.15-.08" class="cls-2"/></g><g id="LINE-37"><line y2="113.29" x2="87.36" y1="113.81" x1="87.23" class="cls-2"/></g><g id="SPLINE-59"><path d="M87.02,113.97s.09-.02.13-.04.07-.07.08-.12" class="cls-2"/></g><g id="SPLINE-60"><path d="M86.96,113.96s0,0,.01,0,0,0,.01,0c0,0,.02,0,.03,0" class="cls-2"/></g><g id="SPLINE-61"><path d="M86.81,113.7s0,.06,0,.08.01.05.03.08c.03.05.08.08.13.1" class="cls-2"/></g><g id="LINE-38"><line y2="113.7" x2="86.81" y1="113.18" x1="86.95" class="cls-2"/></g><g id="SPLINE-62"><path d="M87.21,113.03s-.06,0-.08,0-.06.01-.08.03c-.05.03-.09.08-.1.13" class="cls-2"/></g><g id="SPLINE-63"><path d="M87.36,113.29s0-.06,0-.08-.01-.05-.03-.08c-.03-.05-.08-.08-.13-.1" class="cls-2"/></g><g id="LINE-39"><line y2="115.38" x2="86.81" y1="115.65" x1="86.74" class="cls-2"/></g><g id="SPLINE-64"><path d="M86.53,115.81s.09-.02.13-.04.07-.07.08-.12" class="cls-2"/></g><g id="SPLINE-65"><path d="M86.48,115.8s0,0,.01,0,0,0,.01,0c0,0,.02,0,.03,0" class="cls-2"/></g><g id="SPLINE-66"><path d="M86.32,115.54s0,.06,0,.08.01.05.03.08c.03.05.08.08.13.1" class="cls-2"/></g><g id="LINE-40"><line y2="115.54" x2="86.32" y1="115.27" x1="86.39" class="cls-2"/></g><g id="SPLINE-67"><path d="M86.66,115.12s-.06,0-.08,0-.06.01-.08.03c-.05.03-.09.08-.1.13" class="cls-2"/></g><g id="SPLINE-68"><path d="M86.81,115.38s0-.06,0-.08-.01-.05-.03-.08c-.03-.05-.08-.08-.13-.1" class="cls-2"/></g><g id="SPLINE-69"><path d="M88.88,113.2c-.01.12.08.22.19.23" class="cls-2"/></g><g id="SPLINE-70"><path d="M89.07,113.43s.01,0,.02,0" class="cls-2"/></g><g id="LINE-41"><line y2="112.96" x2="89.34" y1="113.24" x1="89.31" class="cls-2"/></g><g id="SPLINE-71"><path d="M89.34,112.96c.01-.12-.08-.22-.19-.23" class="cls-2"/></g><g id="SPLINE-72"><path d="M89.14,112.73c-.12-.01-.23.07-.24.19" class="cls-2"/></g><g id="LINE-42"><line y2="113.2" x2="88.88" y1="112.92" x1="88.91" class="cls-2"/></g><g id="SPLINE-73"><path d="M89.31,108.93c-.01.12.08.22.19.23" class="cls-2"/></g><g id="SPLINE-74"><path d="M89.5,109.16s.01,0,.02,0" class="cls-2"/></g><g id="SPLINE-75"><path d="M89.52,109.16c.11,0,.2-.08.22-.19" class="cls-2"/></g><g id="SPLINE-76"><path d="M89.77,108.6c.01-.12-.08-.22-.19-.23" class="cls-2"/></g><g id="SPLINE-77"><path d="M89.58,108.37c-.12-.01-.23.07-.24.19" class="cls-2"/></g><g id="LINE-43"><line y2="108.93" x2="89.31" y1="108.56" x1="89.34" class="cls-2"/></g><g id="SPLINE-78"><path d="M89.45,107.47c-.01.12.08.22.19.23" class="cls-2"/></g><g id="SPLINE-79"><path d="M89.65,107.71s.01,0,.02,0" class="cls-2"/></g><g id="SPLINE-80"><path d="M89.67,107.71c.11,0,.2-.08.22-.19" class="cls-2"/></g><g id="LINE-44"><line y2="107.24" x2="89.91" y1="107.51" x1="89.88" class="cls-2"/></g><g id="SPLINE-81"><path d="M89.72,107c-.12-.01-.23.07-.24.19" class="cls-2"/></g><g id="LINE-45"><line y2="107.47" x2="89.45" y1="107.2" x1="89.48" class="cls-2"/></g><g id="SPLINE-82"><path d="M90.85,107.2c-.01-.12-.12-.2-.24-.19" class="cls-2"/></g><g id="SPLINE-83"><path d="M90.62,107c-.12.01-.21.12-.19.23" class="cls-2"/></g><g id="LINE-46"><line y2="107.51" x2="90.45" y1="107.24" x1="90.42" class="cls-2"/></g><g id="SPLINE-84"><path d="M90.45,107.51c.01.11.11.19.22.19" class="cls-2"/></g><g id="SPLINE-85"><path d="M90.67,107.71s.01,0,.02,0" class="cls-2"/></g><g id="LINE-47"><line y2="107.2" x2="90.85" y1="107.47" x1="90.88" class="cls-2"/></g><g id="SPLINE-86"><path d="M91.5,107.69c.03.1.11.16.21.16" class="cls-2"/></g><g id="SPLINE-87"><path d="M91.71,107.85s.04,0,.05,0" class="cls-2"/></g><g id="SPLINE-88"><path d="M91.76,107.84c.12-.03.19-.15.16-.26" class="cls-2"/></g><g id="LINE-48"><line y2="107.16" x2="91.81" y1="107.58" x1="91.92" class="cls-2"/></g><g id="SPLINE-89"><path d="M91.81,107.16c-.03-.11-.15-.18-.26-.15" class="cls-2"/></g><g id="SPLINE-90"><path d="M91.54,107.01c-.12.03-.19.15-.16.26" class="cls-2"/></g><g id="LINE-49"><line y2="107.69" x2="91.5" y1="107.27" x1="91.39" class="cls-2"/></g><g id="SPLINE-91"><path d="M89.01,111.83c-.01.12.08.22.19.23" class="cls-2"/></g><g id="SPLINE-92"><path d="M89.21,112.06s.01,0,.02,0" class="cls-2"/></g><g id="SPLINE-93"><path d="M89.23,112.07c.11,0,.2-.08.22-.19" class="cls-2"/></g><g id="LINE-50"><line y2="111.51" x2="89.48" y1="111.87" x1="89.45" class="cls-2"/></g><g id="SPLINE-94"><path d="M89.48,111.51c.01-.12-.08-.22-.19-.23" class="cls-2"/></g><g id="SPLINE-95"><path d="M89.29,111.28c-.12-.01-.23.07-.24.19" class="cls-2"/></g><g id="LINE-51"><line y2="111.83" x2="89.01" y1="111.47" x1="89.05" class="cls-2"/></g><g id="SPLINE-96"><path d="M89.16,110.38c-.01.12.08.22.19.23" class="cls-2"/></g><g id="SPLINE-97"><path d="M89.36,110.61s.01,0,.02,0" class="cls-2"/></g><g id="SPLINE-98"><path d="M89.38,110.61c.11,0,.2-.08.22-.19" class="cls-2"/></g><g id="LINE-52"><line y2="110.06" x2="89.63" y1="110.42" x1="89.59" class="cls-2"/></g><g id="SPLINE-99"><path d="M89.63,110.06c.01-.12-.08-.22-.19-.23" class="cls-2"/></g><g id="SPLINE-100"><path d="M89.43,109.82c-.12-.01-.23.07-.24.19" class="cls-2"/></g><g id="LINE-53"><line y2="110.38" x2="89.16" y1="110.02" x1="89.2" class="cls-2"/></g><g id="SPLINE-101"><path d="M87.91,109.52c-.03.11.04.23.16.26" class="cls-2"/></g><g id="SPLINE-102"><path d="M88.06,109.78s.04,0,.05,0" class="cls-2"/></g><g id="LINE-54"><line y2="109.11" x2="88.47" y1="109.63" x1="88.33" class="cls-2"/></g><g id="SPLINE-103"><path d="M88.47,109.11c.03-.11-.04-.23-.16-.26" class="cls-2"/></g><g id="SPLINE-104"><path d="M88.31,108.85c-.12-.03-.23.04-.26.15" class="cls-2"/></g><g id="LINE-55"><line y2="109.52" x2="87.91" y1="109" x1="88.05" class="cls-2"/></g><g id="SPLINE-105"><path d="M88.46,107.43c-.03.11.04.23.16.26" class="cls-2"/></g><g id="SPLINE-106"><path d="M88.61,107.69s.04,0,.05,0" class="cls-2"/></g><g id="SPLINE-107"><path d="M88.67,107.7c.1,0,.18-.06.21-.16" class="cls-2"/></g><g id="LINE-56"><line y2="107.27" x2="88.95" y1="107.54" x1="88.88" class="cls-2"/></g><g id="SPLINE-108"><path d="M88.95,107.27c.03-.11-.04-.23-.16-.26" class="cls-2"/></g><g id="SPLINE-109"><path d="M88.79,107.01c-.12-.03-.23.04-.26.15" class="cls-2"/></g><g id="LINE-57"><line y2="107.43" x2="88.46" y1="107.16" x1="88.53" class="cls-2"/></g><g id="LINE-58"><line y2="105.97" x2="90.88" y1="105.97" x1="89.46" class="cls-2"/></g><g id="SPLINE-110"><path d="M90.88,105.97c.25,0,.46-.15.55-.37" class="cls-2"/></g><g id="SPLINE-111"><path d="M91.43,105.6c.09-.23.03-.48-.15-.64" class="cls-2"/></g><g id="SPLINE-112"><path d="M91.28,104.96c-.63-.58-1.61-.58-2.23,0" class="cls-2"/></g><g id="SPLINE-113"><path d="M89.05,104.96c-.18.17-.24.42-.15.64" class="cls-2"/></g><g id="SPLINE-114"><path d="M88.9,105.6c.09.23.31.37.55.37" class="cls-2"/></g><g id="SPLINE-115"><path d="M86.32,115.54c-.03.11.04.23.16.26" class="cls-2"/></g><g id="SPLINE-116"><path d="M86.48,115.8s.04,0,.05,0" class="cls-2"/></g><g id="SPLINE-117"><path d="M86.53,115.81c.1,0,.18-.06.21-.16" class="cls-2"/></g><g id="LINE-59"><line y2="115.38" x2="86.81" y1="115.65" x1="86.74" class="cls-2"/></g><g id="SPLINE-118"><path d="M86.81,115.38c.03-.11-.04-.23-.16-.26" class="cls-2"/></g><g id="SPLINE-119"><path d="M86.66,115.12c-.12-.03-.23.04-.26.15" class="cls-2"/></g><g id="SPLINE-120"><path d="M86.81,113.7c-.03.11.04.23.16.26" class="cls-2"/></g><g id="SPLINE-121"><path d="M86.96,113.96s.04,0,.05,0" class="cls-2"/></g><g id="SPLINE-122"><path d="M87.02,113.97c.1,0,.18-.06.21-.16" class="cls-2"/></g><g id="LINE-60"><line y2="113.29" x2="87.36" y1="113.81" x1="87.23" class="cls-2"/></g><g id="SPLINE-123"><path d="M87.36,113.29c.03-.11-.04-.23-.16-.26" class="cls-2"/></g><g id="SPLINE-124"><path d="M87.21,113.03c-.12-.03-.23.04-.26.15" class="cls-2"/></g><g id="LINE-61"><line y2="113.7" x2="86.81" y1="113.18" x1="86.95" class="cls-2"/></g><g id="SPLINE-125"><path d="M87.36,111.61c-.03.11.04.23.16.26" class="cls-2"/></g><g id="SPLINE-126"><path d="M87.51,111.87s.04,0,.05,0" class="cls-2"/></g><g id="SPLINE-127"><path d="M87.57,111.88c.1,0,.18-.06.21-.16" class="cls-2"/></g><g id="LINE-62"><line y2="111.2" x2="87.91" y1="111.72" x1="87.78" class="cls-2"/></g><g id="SPLINE-128"><path d="M87.91,111.2c.03-.11-.04-.23-.16-.26" class="cls-2"/></g><g id="SPLINE-129"><path d="M87.76,110.94c-.12-.03-.23.04-.26.15" class="cls-2"/></g><g id="LINE-63"><line y2="111.61" x2="87.36" y1="111.09" x1="87.5" class="cls-2"/></g><g id="SPLINE-130"><path d="M90.96,108.23c-.01-.12-.12-.2-.24-.19" class="cls-2"/></g><g id="SPLINE-131"><path d="M90.72,108.03c-.12.01-.21.12-.19.23" class="cls-2"/></g><g id="LINE-64"><line y2="108.52" x2="90.55" y1="108.27" x1="90.53" class="cls-2"/></g><g id="SPLINE-132"><path d="M90.55,108.52c.01.11.11.19.22.19" class="cls-2"/></g><g id="SPLINE-133"><path d="M90.77,108.71s.01,0,.02,0" class="cls-2"/></g><g id="SPLINE-134"><path d="M90.79,108.71c.12-.01.21-.12.19-.23" class="cls-2"/></g><g id="LINE-65"><line y2="108.23" x2="90.96" y1="108.48" x1="90.98" class="cls-2"/></g><g id="SPLINE-135"><path d="M91.06,109.23c-.01-.12-.12-.2-.24-.19" class="cls-2"/></g><g id="SPLINE-136"><path d="M90.82,109.04c-.12.01-.21.12-.19.23" class="cls-2"/></g><g id="LINE-66"><line y2="109.55" x2="90.66" y1="109.27" x1="90.63" class="cls-2"/></g><g id="SPLINE-137"><path d="M90.87,109.74s.01,0,.02,0" class="cls-2"/></g><g id="LINE-67"><line y2="109.23" x2="91.06" y1="109.51" x1="91.09" class="cls-2"/></g><g id="SPLINE-138"><path d="M90.66,109.55c.01.11.11.19.22.19" class="cls-2"/></g><g id="SPLINE-139"><path d="M88.12,109.79c.1,0,.18-.06.21-.16" class="cls-2"/></g><g id="SPLINE-140"><path d="M89.09,113.43c.11,0,.2-.08.22-.19" class="cls-2"/></g><g id="LINE-68"><line y2="108.6" x2="89.77" y1="108.97" x1="89.74" class="cls-2"/></g><g id="SPLINE-141"><path d="M89.91,107.24c.01-.12-.08-.22-.19-.23" class="cls-2"/></g><g id="SPLINE-142"><path d="M90.69,107.71c.12-.01.21-.12.19-.23" class="cls-2"/></g><g id="SPLINE-143"><path d="M90.89,109.74c.12-.01.21-.12.19-.23" class="cls-2"/></g><g id="LINE-69"><line y2="115.54" x2="86.32" y1="115.27" x1="86.39" class="cls-2"/></g><path d="M96.97,93.77c.03-.11.07-.23.13-.33.25-.53.84-.96,1.42-.84.64.13.99.81,1.24,1.4.34.82.69,1.65,1.03,2.47.3.72.83,1.58.67,2.38-.19.97-1.43,1.01-1.74,1.86-.12.34-.06.74-.06,1.1,0,.44,0,.87,0,1.31,0,.87,0,1.75,0,2.62,0,1.75,0,3.49.01,5.24,0,1.24,0,2.48,0,3.72,0,.6-.02,1.26-.43,1.71-.58.63-1.78.42-2.16-.34-.19-.39-.19-.84-.19-1.27.03-2.34.05-4.68.08-7.02-1.2.76-1.82,2.13-2.37,3.42-.39.91-.78,1.82-1.17,2.73-.17.4-.35.81-.7,1.09-.41.33-1.02.38-1.49.13-.44-.24-.64-.67-.69-1.14-.06-.52.32-1.1.52-1.58.49-1.19.98-2.38,1.47-3.57.17-.42.35-.85.6-1.23.26-.38.6-.71.93-1.04.61-.59,1.22-1.19,1.83-1.78.21-.21.77-.63,1-.99.01-.35.02-.7.05-1.05,0,.07-.41.26-.49.3-.54.28-1.09.01-1.29-.54-.25-.71.17-1.26.74-1.65.3-.2.68-.34.86-.67.17-.31.09-.73.09-1.08,0-.45,0-.91,0-1.36,0-.87,0-1.74,0-2.62,0-.47,0-.95.13-1.39Z" class="cls-2"/><g id="CIRCLE-2"><path d="M99.55,89.43c0,1.36-1.16,2.38-2.54,2.38s-2.42-1.02-2.42-2.38,1.04-2.5,2.42-2.5,2.54,1.14,2.54,2.5Z" class="cls-2"/></g><path d="M117.98,49.34v-.45s2.85,0,2.85,0v.45s-2.85,0-2.85,0Z" class="cls-3"/><path d="M119.85,46.57c.56,0,1.02.46,1.02,1.02s-.46,1.02-1.02,1.02c-.56,0-1.02-.46-1.02-1.02,0-.56.46-1.02,1.02-1.02ZM119.85,48.17c.33,0,.6-.26.6-.58s-.26-.58-.6-.58-.6.26-.6.58.26.58.6.58Z" class="cls-3"/><path d="M119.84,44.44s.08,0,.1,0v1.5c.3-.04.5-.27.5-.61,0-.24-.1-.42-.27-.5l.15-.38c.34.14.54.46.54.89,0,.62-.42,1.06-1.02,1.06s-1.02-.42-1.02-.99.43-.98,1.01-.98ZM119.6,44.94c-.22.06-.35.25-.35.48s.14.42.35.5v-.98Z" class="cls-3"/><path d="M118.86,43.72h.08c.06,0,.09-.02.09-.07,0-.04-.02-.07-.06-.12-.09-.1-.14-.23-.14-.38,0-.18.06-.32.18-.43.06-.05.08-.09.08-.14,0-.04-.02-.08-.07-.13-.13-.12-.19-.27-.19-.46,0-.4.29-.63.78-.63h1.22s0,.45,0,.45h-1.16c-.28,0-.46.13-.46.35,0,.23.2.38.49.38h1.13s0,.45,0,.45h-1.16c-.28,0-.46.13-.46.35s.2.38.49.38h1.12s0,.45,0,.45h-1.96s0-.42,0-.42Z" class="cls-3"/><path d="M119.62,39.39h1.21s0,.42,0,.42h-.13c-.06,0-.09.02-.09.07,0,.04.02.07.07.13.12.12.18.27.18.46,0,.36-.22.6-.54.6s-.56-.26-.64-.73l-.09-.52c-.23.03-.36.19-.36.45,0,.22.09.37.28.43l-.12.39c-.34-.1-.55-.41-.55-.82,0-.52.33-.89.79-.89ZM120.03,40.24c.05.26.13.38.27.38s.22-.12.22-.3c0-.3-.22-.49-.57-.5l.08.43Z" class="cls-3"/><path d="M117.98,49.57v1.92h2.85v-.46h-1.79c-.13,0-.19-.15-.1-.24l.75-.74-.3-.29-.75.73c-.09.09-.24.03-.24-.1v-.83h-.43Z" class="cls-3"/><path d="M120.27,37.86c.33,0,.59.26.59.6s-.26.6-.59.6-.59-.26-.59-.6.26-.6.59-.6ZM120.27,38.94c.27,0,.48-.21.48-.48s-.21-.47-.48-.47-.48.21-.48.47.21.48.48.48ZM120.31,38.34s.02.03.04.03c.01,0,.03,0,.04-.02l.19-.14v.15s-.25.17-.25.17h.25s0,.13,0,.13h-.63s0-.23,0-.23c0-.13.08-.22.19-.22.08,0,.14.05.17.12Z" class="cls-3"/><path d="M400.28,174.48v.55l-.65.98c-.04.06-.07.1-.1.15-.03.04-.06.08-.09.13s-.06.09-.09.13-.06.09-.09.15c.19.02.37.08.52.18s.29.21.41.35c.12.14.21.3.27.48s.09.38.09.59c0,.24-.04.47-.13.67-.08.2-.2.38-.36.52-.15.14-.34.26-.54.34s-.44.12-.69.12c-.21,0-.4-.03-.58-.08-.18-.05-.35-.13-.49-.23-.15-.1-.28-.22-.39-.37-.11-.14-.2-.31-.26-.49l.63-.31c.08.24.22.44.41.58.19.14.42.21.67.21.15,0,.28-.02.4-.07.12-.05.23-.11.31-.2.09-.09.15-.19.2-.31.05-.12.07-.26.07-.41s-.03-.29-.08-.42c-.06-.13-.13-.23-.22-.32-.09-.09-.21-.16-.34-.21-.13-.05-.28-.08-.44-.08h-.35l-.08-.44.72-1.07s.06-.09.09-.12c.03-.03.05-.07.08-.12s.06-.08.08-.12c.03-.03.06-.07.09-.12h-2.18v-.65h3.09Z"/><path d="M402.24,179.65c-.24-.12-.44-.29-.61-.51-.17-.22-.3-.5-.39-.82s-.14-.69-.14-1.09.05-.8.15-1.15c.1-.35.24-.64.43-.89.18-.25.41-.43.67-.56.26-.13.55-.2.88-.2.37,0,.7.09.97.27.27.18.47.43.59.76l-.64.29c-.07-.21-.18-.37-.34-.48-.16-.11-.35-.17-.56-.17-.2,0-.38.05-.55.14s-.31.23-.44.4c-.13.17-.22.37-.29.61s-.1.49-.1.77v.17c0,.06,0,.1,0,.15.08-.25.23-.45.45-.59.22-.14.48-.21.79-.21.24,0,.46.04.65.12.2.08.36.19.5.34.14.15.25.32.33.52.08.2.12.42.12.66s-.04.47-.13.68c-.08.21-.2.38-.35.53-.15.14-.32.26-.53.34s-.43.12-.68.12c-.3,0-.57-.06-.81-.18ZM403.41,179.08c.12-.05.22-.12.3-.21.08-.09.15-.19.2-.31.05-.12.07-.26.07-.41s-.02-.29-.07-.41c-.05-.12-.12-.23-.2-.32s-.19-.16-.31-.21-.25-.07-.4-.07-.27.02-.39.07-.22.12-.31.2c-.09.09-.15.19-.2.31-.05.12-.07.25-.07.4s.03.28.08.41.12.24.21.34.2.17.32.22c.12.05.26.08.4.08s.26-.03.38-.08Z"/><path d="M406.07,179.77l1.78-4.62h-2.69v-.67h3.5v.59l-1.77,4.7h-.83Z"/><path d="M412.1,176.13v.67c.11-.24.26-.42.45-.54.18-.12.4-.18.63-.18.26,0,.48.07.67.2.19.14.32.33.41.59.11-.26.27-.45.46-.59.2-.14.43-.2.7-.2.38,0,.67.12.88.37.21.25.31.61.31,1.07v2.25h-.7v-2.16c0-.29-.07-.52-.2-.69-.13-.17-.31-.25-.54-.25-.12,0-.22.02-.32.07-.1.05-.18.11-.26.2-.07.09-.13.19-.16.32-.04.12-.06.26-.06.4v2.11h-.7v-2.16c0-.14-.02-.27-.06-.38-.04-.12-.09-.22-.15-.3-.06-.08-.14-.14-.23-.19-.09-.04-.2-.07-.31-.07s-.22.02-.32.07c-.1.05-.18.12-.25.21-.07.09-.12.2-.17.32-.04.12-.06.26-.06.41v2.09h-.7v-3.64h.68Z"/><path d="M418.28,176.13v.67c.11-.24.26-.42.45-.54.18-.12.4-.18.63-.18.26,0,.48.07.67.2.19.14.32.33.41.59.11-.26.27-.45.46-.59.2-.14.43-.2.7-.2.38,0,.67.12.88.37.21.25.31.61.31,1.07v2.25h-.7v-2.16c0-.29-.07-.52-.2-.69-.13-.17-.31-.25-.54-.25-.12,0-.22.02-.32.07-.1.05-.18.11-.26.2-.07.09-.13.19-.16.32-.04.12-.06.26-.06.4v2.11h-.7v-2.16c0-.14-.02-.27-.06-.38-.04-.12-.09-.22-.15-.3-.06-.08-.14-.14-.23-.19-.09-.04-.2-.07-.31-.07s-.22.02-.32.07c-.1.05-.18.12-.25.21-.07.09-.12.2-.17.32-.04.12-.06.26-.06.41v2.09h-.7v-3.64h.68Z"/><line y2="181.69" x2="352.17" y1="181.69" x1="470.07" class="cls-2"/><rect height="1.95" width=".3" y="180.72" x="469.92" class="cls-3"/><rect height="1.95" width=".3" y="180.72" x="352.02" class="cls-3"/><path d="M319.9,258.52c.08-.21.19-.39.33-.54.14-.15.31-.27.51-.35.2-.08.42-.13.67-.13.14,0,.28.02.42.05.14.03.28.08.41.15.14.07.27.16.42.27.14.11.29.24.45.39l1.35,1.31v-2.29h.67v3.32h-.59l-1.85-1.79c-.12-.12-.23-.22-.33-.3-.1-.08-.21-.15-.3-.2-.1-.05-.19-.09-.29-.11-.09-.02-.19-.03-.29-.03-.15,0-.28.02-.4.07-.12.04-.23.11-.32.2-.09.09-.16.19-.21.3-.05.11-.07.24-.07.39,0,.25.08.47.23.65.15.18.36.31.63.39l-.23.67c-.42-.12-.74-.32-.97-.62s-.34-.66-.34-1.1c0-.25.04-.48.12-.69Z"/><path d="M325,255.7c-.12.24-.29.44-.51.61-.22.17-.5.3-.82.39s-.69.14-1.09.14-.8-.05-1.15-.15c-.35-.1-.64-.24-.89-.43-.25-.18-.43-.41-.56-.67-.13-.26-.2-.55-.2-.88,0-.37.09-.7.27-.97.18-.27.43-.47.76-.59l.29.64c-.21.07-.37.18-.48.34-.11.16-.17.35-.17.56,0,.2.05.38.14.55s.23.31.4.44c.17.13.37.22.61.29s.49.1.77.1h.17c.06,0,.1,0,.15,0-.25-.08-.45-.23-.59-.45-.14-.22-.21-.48-.21-.79,0-.24.04-.46.12-.65.08-.2.19-.36.34-.5.15-.14.32-.25.52-.33.2-.08.42-.12.66-.12s.47.04.68.13c.21.08.38.2.53.35.14.15.26.32.34.53s.12.43.12.68c0,.3-.06.57-.18.81ZM324.43,254.54c-.05-.12-.12-.22-.21-.3-.09-.08-.19-.15-.31-.2-.12-.05-.26-.07-.41-.07s-.29.02-.41.07c-.12.05-.23.12-.32.2s-.16.19-.21.31-.07.25-.07.4.02.27.07.39.12.22.2.31c.09.09.19.15.31.2.12.05.25.07.4.07s.28-.03.41-.08.24-.12.34-.21.17-.2.22-.32c.05-.12.08-.26.08-.4s-.03-.26-.08-.38Z"/><path d="M319.98,249.73c.13-.25.32-.47.55-.65.23-.18.52-.32.85-.42.33-.1.69-.15,1.08-.15s.76.05,1.1.15.62.24.86.42c.24.18.43.4.56.65.13.25.2.52.2.83s-.07.57-.2.82-.32.47-.56.65c-.24.18-.53.32-.86.42-.33.1-.7.15-1.1.15s-.75-.05-1.08-.15c-.33-.1-.61-.24-.85-.42-.24-.18-.42-.4-.55-.65-.13-.25-.2-.53-.2-.83s.07-.58.2-.83ZM320.61,251.09c.1.16.23.29.41.41.18.11.38.2.63.27.24.07.51.1.81.1s.57-.03.82-.09c.25-.06.46-.15.64-.27.18-.12.32-.25.42-.41.1-.16.15-.33.15-.52s-.05-.37-.15-.53c-.1-.16-.24-.3-.42-.41-.18-.11-.39-.2-.64-.27-.25-.06-.52-.09-.82-.09s-.56.03-.81.09c-.25.06-.46.15-.63.26-.17.11-.31.25-.41.41-.1.16-.15.34-.15.53s.05.37.15.52Z"/><path d="M321.48,244.91h.67c-.24-.11-.42-.26-.54-.45-.12-.18-.18-.4-.18-.63,0-.26.07-.48.2-.67.14-.19.33-.32.59-.41-.26-.11-.45-.27-.59-.46-.14-.2-.2-.43-.2-.7,0-.38.12-.67.37-.88.25-.21.61-.31,1.07-.31h2.25v.7h-2.16c-.29,0-.52.07-.69.2-.17.13-.25.31-.25.54,0,.12.02.22.07.32.05.1.11.18.2.26.09.07.19.13.32.16.12.04.26.06.4.06h2.11v.7h-2.16c-.14,0-.27.02-.38.06-.12.04-.22.09-.3.15-.08.06-.14.14-.19.23-.04.09-.07.2-.07.31s.02.22.07.32c.05.1.12.18.21.25.09.07.2.12.32.17.12.04.26.06.41.06h2.09v.7h-3.64v-.68Z"/><path d="M321.48,238.72h.67c-.24-.11-.42-.26-.54-.45-.12-.18-.18-.4-.18-.63,0-.26.07-.48.2-.67.14-.19.33-.32.59-.41-.26-.11-.45-.27-.59-.46-.14-.2-.2-.43-.2-.7,0-.38.12-.67.37-.88.25-.21.61-.31,1.07-.31h2.25v.7h-2.16c-.29,0-.52.07-.69.2-.17.13-.25.31-.25.54,0,.12.02.22.07.32.05.1.11.18.2.26.09.07.19.13.32.16.12.04.26.06.4.06h2.11v.7h-2.16c-.14,0-.27.02-.38.06-.12.04-.22.09-.3.15-.08.06-.14.14-.19.23-.04.09-.07.2-.07.31s.02.22.07.32c.05.1.12.18.21.25.09.07.2.12.32.17.12.04.26.06.41.06h2.09v.7h-3.64v-.68Z"/><line y2="287.81" x2="327.05" y1="204.94" x1="327.05" class="cls-2"/><rect height=".3" width="1.95" y="204.79" x="326.07" class="cls-3"/><rect height=".3" width="1.95" y="287.66" x="326.07" class="cls-3"/><rect ry="2.74" rx="2.74" height="60.38" width="118.14" y="215.92" x="352.05" class="cls-2"/><path d="M405.33,276.3h11.58v5.87c0,3.2-2.59,5.79-5.79,5.79h0c-3.2,0-5.79-2.59-5.79-5.79v-5.87h0Z" class="cls-2"/><path d="M405.33,276.3h11.58v3.15c0,.58-.47,1.06-1.06,1.06h-9.46c-.58,0-1.06-.47-1.06-1.06v-3.15h0Z" class="cls-2"/><path transform="translate(822.24 420.18) rotate(-180)" d="M405.33,204.26h11.58v5.87c0,3.2-2.59,5.79-5.79,5.79h0c-3.2,0-5.79-2.59-5.79-5.79v-5.87h0Z" class="cls-2"/><path transform="translate(822.24 427.63) rotate(180)" d="M405.33,211.71h11.58v3.15c0,.58-.47,1.06-1.06,1.06h-9.46c-.58,0-1.06-.47-1.06-1.06v-3.15h0Z" class="cls-2"/></g></svg>