<svg viewBox="0 0 531.27 288" xmlns:xlink="http://www.w3.org/1999/xlink" xmlns="http://www.w3.org/2000/svg" id="Camada_2"><defs><style>.cls-1,.cls-2{fill:none;}.cls-3{fill:#12100c;}.cls-2{stroke:#12100c;stroke-linecap:round;stroke-linejoin:round;stroke-width:.3px;}</style><symbol viewBox="0 0 531.27 288" id="fundo_transparente"><rect height="288" width="531.27" x="0" class="cls-1"/></symbol></defs><g id="RePlastic"><g id="banco_Arch_Kids"><use xlink:href="#fundo_transparente" height="288" width="531.27"/><g id="MTEXT"><path d="M4.3,128.09c.08-.21.19-.39.33-.54.14-.15.31-.27.51-.35.2-.08.42-.13.67-.13.14,0,.28.02.42.05.14.03.28.08.41.15.14.07.27.16.42.27.14.11.29.24.45.39l1.35,1.31v-2.29h.67v3.32h-.59l-1.85-1.79c-.12-.12-.23-.22-.33-.3-.1-.08-.21-.15-.3-.2-.1-.05-.19-.09-.29-.11-.09-.02-.19-.03-.29-.03-.15,0-.28.02-.4.07-.12.04-.23.11-.32.2-.09.09-.16.19-.21.3-.05.11-.07.24-.07.39,0,.25.08.47.23.65.15.18.36.31.63.39l-.23.67c-.42-.12-.74-.32-.97-.62s-.34-.66-.34-1.1c0-.25.04-.48.12-.69Z"/><path d="M9.47,125.37c-.07.22-.17.4-.31.56-.13.15-.29.28-.47.36s-.38.13-.6.13c-.16,0-.31-.02-.45-.07-.15-.05-.28-.11-.4-.2-.12-.09-.22-.19-.3-.31s-.14-.25-.18-.4c-.05.14-.12.25-.2.36-.08.1-.17.19-.27.27s-.21.13-.33.17c-.12.04-.25.06-.38.06-.21,0-.39-.04-.56-.12-.17-.08-.32-.2-.44-.34-.13-.14-.22-.32-.29-.52-.07-.2-.1-.42-.1-.66s.03-.46.1-.66c.07-.2.17-.37.29-.52.12-.15.27-.26.44-.35.17-.08.36-.13.57-.13.13,0,.26.02.38.06.12.04.24.1.34.17.1.07.19.16.27.27.08.1.14.22.19.35.04-.15.1-.28.18-.4s.19-.22.31-.3c.12-.08.25-.15.4-.2.14-.05.29-.07.45-.07.21,0,.41.04.6.13.18.09.34.21.47.36.13.15.24.34.31.56.07.22.11.46.11.72s-.04.5-.11.72ZM4.91,125c.04.11.09.2.16.28.07.08.15.14.26.18s.21.07.33.07c.11,0,.22-.02.32-.07.1-.04.19-.11.26-.19.07-.08.13-.17.17-.28s.06-.23.06-.35-.02-.25-.06-.35c-.04-.1-.1-.2-.17-.28s-.16-.14-.26-.19c-.1-.04-.21-.07-.32-.07-.12,0-.23.02-.33.07-.1.04-.19.11-.26.19-.07.08-.12.17-.16.28-.04.11-.06.23-.06.36s.02.24.06.35ZM8.84,124.24c-.04-.13-.11-.23-.19-.32-.08-.09-.18-.16-.29-.21-.11-.05-.24-.08-.37-.08s-.26.03-.37.08c-.11.05-.21.12-.29.21-.08.09-.15.2-.2.33-.05.13-.07.26-.07.41s.02.28.07.41c.04.13.11.23.19.33s.18.16.3.21c.11.05.24.07.37.07.14,0,.27-.02.38-.07.11-.05.21-.12.29-.21.08-.09.14-.2.19-.33.04-.13.07-.26.07-.41s-.02-.29-.07-.41Z"/><path d="M4.38,119.46c.13-.25.32-.47.55-.65.23-.18.52-.32.85-.42.33-.1.69-.15,1.08-.15s.76.05,1.1.15.62.24.86.42c.24.18.43.4.56.65.13.25.2.52.2.83s-.07.57-.2.82-.32.47-.56.65c-.24.18-.53.32-.86.42-.33.1-.7.15-1.1.15s-.75-.05-1.08-.15c-.33-.1-.61-.24-.85-.42-.24-.18-.42-.4-.55-.65-.13-.25-.2-.53-.2-.83s.07-.58.2-.83ZM5.01,120.81c.1.16.23.29.41.41.18.11.38.2.63.27.24.07.51.1.81.1s.57-.03.82-.09c.25-.06.46-.15.64-.27.18-.12.32-.25.42-.41.1-.16.15-.33.15-.52s-.05-.37-.15-.53c-.1-.16-.24-.3-.42-.41-.18-.11-.39-.2-.64-.27-.25-.06-.52-.09-.82-.09s-.56.03-.81.09c-.25.06-.46.15-.63.26-.17.11-.31.25-.41.41-.1.16-.15.34-.15.53s.05.37.15.52Z"/><path d="M5.88,114.63h.67c-.24-.11-.42-.26-.54-.45-.12-.18-.18-.4-.18-.63,0-.26.07-.48.2-.67.14-.19.33-.32.59-.41-.26-.11-.45-.27-.59-.46-.14-.2-.2-.43-.2-.7,0-.38.12-.67.37-.88.25-.21.61-.31,1.07-.31h2.25v.7h-2.16c-.29,0-.52.07-.69.2-.17.13-.25.31-.25.54,0,.12.02.22.07.32.05.1.11.18.2.26.09.07.19.13.32.16.12.04.26.06.4.06h2.11v.7h-2.16c-.14,0-.27.02-.38.06-.12.04-.22.09-.3.15-.08.06-.14.14-.19.23-.04.09-.07.2-.07.31s.02.22.07.32c.05.1.12.18.21.25.09.07.2.12.32.17.12.04.26.06.41.06h2.09v.7h-3.64v-.68Z"/><path d="M5.88,108.45h.67c-.24-.11-.42-.26-.54-.45-.12-.18-.18-.4-.18-.63,0-.26.07-.48.2-.67.14-.19.33-.32.59-.41-.26-.11-.45-.27-.59-.46-.14-.2-.2-.43-.2-.7,0-.38.12-.67.37-.88.25-.21.61-.31,1.07-.31h2.25v.7h-2.16c-.29,0-.52.07-.69.2-.17.13-.25.31-.25.54,0,.12.02.22.07.32.05.1.11.18.2.26.09.07.19.13.32.16.12.04.26.06.4.06h2.11v.7h-2.16c-.14,0-.27.02-.38.06-.12.04-.22.09-.3.15-.08.06-.14.14-.19.23-.04.09-.07.2-.07.31s.02.22.07.32c.05.1.12.18.21.25.09.07.2.12.32.17.12.04.26.06.41.06h2.09v.7h-3.64v-.68Z"/></g><line y2="281.23" x2="14.28" y1="195.49" x1="14.28" class="cls-2"/><rect height=".3" width="1.95" y="195.34" x="13.3" class="cls-3"/><rect height=".3" width="1.95" y="281.08" x="13.3" class="cls-3"/><g id="MTEXT-2"><path d="M4.23,248.67h.55l.98.65c.06.04.1.07.15.1.04.03.08.06.13.09s.09.06.13.09.09.06.15.09c.02-.19.08-.37.18-.52s.21-.29.35-.41c.14-.12.3-.21.48-.27s.38-.09.59-.09c.24,0,.47.04.67.13.2.08.38.2.52.36.14.15.26.34.34.54s.12.44.12.69c0,.21-.03.4-.08.58-.05.18-.13.35-.23.49-.1.15-.22.28-.37.39-.14.11-.31.2-.49.26l-.31-.63c.24-.08.44-.22.58-.41.14-.19.21-.42.21-.67,0-.15-.02-.28-.07-.4-.05-.12-.11-.23-.2-.31-.09-.09-.19-.15-.31-.2-.12-.05-.26-.07-.41-.07s-.29.03-.42.08c-.13.06-.23.13-.32.22-.09.09-.16.21-.21.34-.05.13-.08.28-.08.44v.35l-.44.08-1.07-.72s-.09-.06-.12-.09c-.03-.03-.07-.05-.12-.08s-.08-.06-.12-.08c-.03-.03-.07-.06-.12-.09v2.18h-.65v-3.09Z"/><path d="M4.23,244.78h5.29v.73h-4.36s.08.04.1.06c.03.02.06.04.09.07l2.02,1.35s.06.04.08.05.05.03.08.06v-3.2h.64v3.98h-.59l-3.35-2.22v-.87Z"/><path d="M4.38,240.6c.13-.25.32-.47.55-.65.23-.18.52-.32.85-.42.33-.1.69-.15,1.08-.15s.76.05,1.1.15.62.24.86.42c.24.18.43.4.56.65.13.25.2.52.2.83s-.07.57-.2.82-.32.47-.56.65c-.24.18-.53.32-.86.42-.33.1-.7.15-1.1.15s-.75-.05-1.08-.15c-.33-.1-.61-.24-.85-.42-.24-.18-.42-.4-.55-.65-.13-.25-.2-.53-.2-.83s.07-.58.2-.83ZM5.01,241.96c.1.16.23.29.41.41.18.11.38.2.63.27.24.07.51.1.81.1s.57-.03.82-.09c.25-.06.46-.15.64-.27.18-.12.32-.25.42-.41.1-.16.15-.33.15-.52s-.05-.37-.15-.53c-.1-.16-.24-.3-.42-.41-.18-.11-.39-.2-.64-.27-.25-.06-.52-.09-.82-.09s-.56.03-.81.09c-.25.06-.46.15-.63.26-.17.11-.31.25-.41.41-.1.16-.15.34-.15.53s.05.37.15.52Z"/><path d="M5.88,235.77h.67c-.24-.11-.42-.26-.54-.45-.12-.18-.18-.4-.18-.63,0-.26.07-.48.2-.67.14-.19.33-.32.59-.41-.26-.11-.45-.27-.59-.46-.14-.2-.2-.43-.2-.7,0-.38.12-.67.37-.88.25-.21.61-.31,1.07-.31h2.25v.7h-2.16c-.29,0-.52.07-.69.2-.17.13-.25.31-.25.54,0,.12.02.22.07.32.05.1.11.18.2.26.09.07.19.13.32.16.12.04.26.06.4.06h2.11v.7h-2.16c-.14,0-.27.02-.38.06-.12.04-.22.09-.3.15-.08.06-.14.14-.19.23-.04.09-.07.2-.07.31s.02.22.07.32c.05.1.12.18.21.25.09.07.2.12.32.17.12.04.26.06.41.06h2.09v.7h-3.64v-.68Z"/><path d="M5.88,229.59h.67c-.24-.11-.42-.26-.54-.45-.12-.18-.18-.4-.18-.63,0-.26.07-.48.2-.67.14-.19.33-.32.59-.41-.26-.11-.45-.27-.59-.46-.14-.2-.2-.43-.2-.7,0-.38.12-.67.37-.88.25-.21.61-.31,1.07-.31h2.25v.7h-2.16c-.29,0-.52.07-.69.2-.17.13-.25.31-.25.54,0,.12.02.22.07.32.05.1.11.18.2.26.09.07.19.13.32.16.12.04.26.06.4.06h2.11v.7h-2.16c-.14,0-.27.02-.38.06-.12.04-.22.09-.3.15-.08.06-.14.14-.19.23-.04.09-.07.2-.07.31s.02.22.07.32c.05.1.12.18.21.25.09.07.2.12.32.17.12.04.26.06.41.06h2.09v.7h-3.64v-.68Z"/></g><line y2="152.91" x2="14.28" y1="81.27" x1="14.28" class="cls-2"/><rect height=".3" width="1.95" y="81.12" x="13.3" class="cls-3"/><rect height=".3" width="1.95" y="152.76" x="13.3" class="cls-3"/><path d="M205.23,57.2v5.29h-.72v-4.54l-1.3.64v-.73l1.36-.67h.67Z"/><path d="M209.18,57.2v.65h-1.92l-.25,1.54c.1-.09.22-.16.36-.21.14-.05.29-.07.46-.07.25,0,.47.04.68.13.21.08.38.2.53.35.15.15.27.33.35.54.08.21.12.44.12.69s-.04.48-.13.7c-.09.21-.21.4-.36.55-.16.15-.34.27-.56.36-.21.08-.45.13-.71.13-.2,0-.39-.03-.58-.08s-.35-.13-.5-.23c-.15-.1-.28-.22-.39-.36-.11-.14-.19-.3-.24-.48l.63-.31c.07.24.19.43.39.56.19.14.42.21.67.21.15,0,.29-.03.41-.08.13-.05.23-.12.33-.21.09-.09.16-.2.21-.33.05-.13.08-.27.08-.43s-.03-.3-.08-.44c-.05-.13-.13-.25-.22-.34s-.21-.17-.34-.22c-.13-.05-.28-.08-.44-.08-.18,0-.35.04-.49.1-.14.07-.26.17-.36.31l-.62-.15.47-2.79h2.52Z"/><path d="M212.92,57.34c.25.13.47.32.65.55.18.23.32.52.42.85.1.33.15.69.15,1.08s-.05.76-.15,1.1-.24.62-.42.86c-.18.24-.4.43-.65.56-.25.13-.52.2-.83.2s-.57-.07-.82-.2-.47-.32-.65-.56c-.18-.24-.32-.53-.42-.86-.1-.33-.15-.7-.15-1.1s.05-.75.15-1.08c.1-.33.24-.61.42-.85.18-.24.4-.42.65-.55.25-.13.53-.2.83-.2s.58.07.83.2ZM211.56,57.98c-.16.1-.29.23-.41.41-.11.18-.2.38-.27.63-.07.24-.1.51-.1.81s.03.57.09.82c.06.25.15.46.27.64.12.18.25.32.41.42.16.1.33.15.52.15s.37-.05.53-.15c.16-.1.3-.24.41-.42.11-.18.2-.39.27-.64.06-.25.09-.52.09-.82s-.03-.56-.09-.81c-.06-.25-.15-.46-.26-.63-.11-.17-.25-.31-.41-.41-.16-.1-.34-.15-.53-.15s-.37.05-.52.15Z"/><path d="M217.55,57.34c.25.13.47.32.65.55.18.23.32.52.42.85.1.33.15.69.15,1.08s-.05.76-.15,1.1-.24.62-.42.86c-.18.24-.4.43-.65.56-.25.13-.52.2-.83.2s-.57-.07-.82-.2-.47-.32-.65-.56c-.18-.24-.32-.53-.42-.86-.1-.33-.15-.7-.15-1.1s.05-.75.15-1.08c.1-.33.24-.61.42-.85.18-.24.4-.42.65-.55.25-.13.53-.2.83-.2s.58.07.83.2ZM216.2,57.98c-.16.1-.29.23-.41.41-.11.18-.2.38-.27.63-.07.24-.1.51-.1.81s.03.57.09.82c.06.25.15.46.27.64.12.18.25.32.41.42.16.1.33.15.52.15s.37-.05.53-.15c.16-.1.3-.24.41-.42.11-.18.2-.39.27-.64.06-.25.09-.52.09-.82s-.03-.56-.09-.81c-.06-.25-.15-.46-.26-.63-.11-.17-.25-.31-.41-.41-.16-.1-.34-.15-.53-.15s-.37.05-.52.15Z"/><path d="M222.38,58.85v.67c.11-.24.26-.42.45-.54.18-.12.4-.18.63-.18.26,0,.48.07.67.2.19.14.32.33.41.59.11-.26.27-.45.46-.59.2-.14.43-.2.7-.2.38,0,.67.12.88.37.21.25.31.61.31,1.07v2.25h-.7v-2.16c0-.29-.07-.52-.2-.69-.13-.17-.31-.25-.54-.25-.12,0-.22.02-.32.07-.1.05-.18.11-.26.2-.07.09-.13.19-.16.32-.04.12-.06.26-.06.4v2.11h-.7v-2.16c0-.14-.02-.27-.06-.38-.04-.12-.09-.22-.15-.3-.06-.08-.14-.14-.23-.19-.09-.04-.2-.07-.31-.07s-.22.02-.32.07c-.1.05-.18.12-.25.21-.07.09-.12.2-.17.32-.04.12-.06.26-.06.41v2.09h-.7v-3.64h.68Z"/><path d="M228.57,58.85v.67c.11-.24.26-.42.45-.54.18-.12.4-.18.63-.18.26,0,.48.07.67.2.19.14.32.33.41.59.11-.26.27-.45.46-.59.2-.14.43-.2.7-.2.38,0,.67.12.88.37.21.25.31.61.31,1.07v2.25h-.7v-2.16c0-.29-.07-.52-.2-.69-.13-.17-.31-.25-.54-.25-.12,0-.22.02-.32.07-.1.05-.18.11-.26.2-.07.09-.13.19-.16.32-.04.12-.06.26-.06.4v2.11h-.7v-2.16c0-.14-.02-.27-.06-.38-.04-.12-.09-.22-.15-.3-.06-.08-.14-.14-.23-.19-.09-.04-.2-.07-.31-.07s-.22.02-.32.07c-.1.05-.18.12-.25.21-.07.09-.12.2-.17.32-.04.12-.06.26-.06.41v2.09h-.7v-3.64h.68Z"/><line y2="67.25" x2="28.6" y1="67.25" x1="407.9" class="cls-2"/><rect height="1.95" width=".3" y="66.27" x="407.75" class="cls-3"/><rect height="1.95" width=".3" y="66.27" x="28.45" class="cls-3"/><rect height="22.78" width="379.6" y="81.42" x="28.45" class="cls-2"/><rect height="22.78" width="22.78" y="81.42" x="28.45" class="cls-2"/><rect height="22.78" width="22.78" y="81.42" x="385.27" class="cls-2"/><rect height="22.78" width="379.6" y="105.7" x="28.45" class="cls-2"/><rect height="22.78" width="22.78" y="105.7" x="28.45" class="cls-2"/><rect height="22.78" width="22.78" y="105.7" x="385.27" class="cls-2"/><rect height="1.5" width="7.59" y="104.2" x="53.51" class="cls-2"/><rect height="1.5" width="12.65" y="104.2" x="211.92" class="cls-2"/><rect transform="translate(758.4 209.89) rotate(-180)" height="1.5" width="7.59" y="104.2" x="375.4" class="cls-2"/><rect height="22.78" width="379.6" y="129.99" x="28.45" class="cls-2"/><rect height="22.78" width="22.78" y="129.99" x="28.45" class="cls-2"/><rect height="22.78" width="22.78" y="129.99" x="385.27" class="cls-2"/><rect height="1.5" width="7.59" y="128.48" x="53.51" class="cls-2"/><rect height="1.5" width="12.65" y="128.48" x="211.92" class="cls-2"/><rect transform="translate(758.4 258.46) rotate(-180)" height="1.5" width="7.59" y="128.48" x="375.4" class="cls-2"/><rect height="17.32" width="333.98" y="195.28" x="51.22" class="cls-2"/><rect height="77.22" width="22.77" y="195.28" x="28.45" class="cls-2"/><rect height="8.93" width="30.35" y="272.51" x="28.45" class="cls-2"/><rect height="8.93" width="30.44" y="272.51" x="377.61" class="cls-2"/><rect height="77.22" width="22.86" y="195.28" x="385.2" class="cls-2"/><rect height="8.84" width="71.51" y="272.6" x="450.57" class="cls-2"/><line y2="212.69" x2="473.34" y1="212.69" x1="474.85" class="cls-2"/><line y2="212.69" x2="522.08" y1="212.69" x1="522.17" class="cls-2"/><line y2="212.69" x2="497.62" y1="212.69" x1="499.32" class="cls-2"/><rect height="6.07" width="1.52" y="214.39" x="473.34" class="cls-2"/><rect height="6.07" width="1.7" y="214.39" x="497.62" class="cls-2"/><rect height="6.07" width=".09" y="214.39" x="522.08" class="cls-2"/><path d="M450.57,194.75v77.85h22.77v-77.85h-22.77ZM462,201.71c.98,0,1.87.8,1.87,1.87s-.89,1.87-1.87,1.87c-1.07,0-1.96-.8-1.96-1.87s.89-1.87,1.96-1.87Z" class="cls-2"/><path d="M463.87,203.59c0,1.07-.89,1.87-1.87,1.87-1.07,0-1.96-.8-1.96-1.87s.89-1.87,1.96-1.87c.98,0,1.87.8,1.87,1.87Z" class="cls-2"/><rect height="77.85" width="22.77" y="194.75" x="474.85" class="cls-2"/><path d="M499.32,194.75v77.85h22.76v-77.85h-22.76ZM510.74,201.71c.98,0,1.87.8,1.87,1.87s-.89,1.87-1.87,1.87c-1.07,0-1.96-.8-1.96-1.87s.89-1.87,1.96-1.87Z" class="cls-2"/><path d="M512.62,203.59c0,1.07-.89,1.87-1.87,1.87-1.07,0-1.96-.8-1.96-1.87s.89-1.87,1.96-1.87c.98,0,1.87.8,1.87,1.87Z" class="cls-2"/><path d="M462,201.71c-1.07,0-1.96.8-1.96,1.87s.89,1.87,1.96,1.87c.98,0,1.87-.8,1.87-1.87s-.89-1.87-1.87-1.87Z" class="cls-2"/><path d="M462.78,203.74s0-.03-.02-.04c0-.01-.02-.03-.03-.04,0,0,0,0-.01,0-.03-.03-.06-.05-.08-.09-.02-.03-.04-.06-.05-.09-.01-.03-.02-.07-.02-.11,0-.03,0-.07,0-.1,0-.03.02-.07.03-.1,0-.02.01-.03.01-.05,0-.02,0-.03,0-.05,0-.02-.01-.03-.02-.04,0,0,0-.01-.01-.02,0,0-.01-.01-.02-.02-.01,0-.03-.02-.04-.02-.02,0-.03,0-.04,0-.02,0-.03,0-.05,0,0,0,0,0-.01,0-.04.01-.07.02-.12.03-.03,0-.07,0-.11,0-.03,0-.07-.02-.1-.03-.03-.01-.06-.03-.08-.05-.03-.02-.05-.05-.07-.07-.01-.01-.02-.03-.04-.04-.01-.01-.03-.02-.05-.02-.02,0-.03,0-.05,0,0,0-.01,0-.02,0,0,0-.02,0-.02,0-.01,0-.03.01-.04.02-.01.01-.02.02-.03.03,0,.01-.01.03-.02.04,0,0,0,0,0,.01,0,.04-.02.08-.03.12-.01.03-.03.06-.06.09-.02.03-.05.05-.08.07-.03.02-.06.03-.09.05-.03.01-.07.02-.1.02-.02,0-.03,0-.05.01-.02,0-.03.02-.04.03-.01.01-.02.03-.03.04,0,0,0,.01,0,.02,0,0,0,.02,0,.03,0,.01,0,.03,0,.04,0,.01,0,.03.02.04,0,.01.02.03.03.04,0,0,0,0,.01,0,.03.03.06.05.08.09.02.03.04.06.05.1.01.03.02.07.02.11,0,.03,0,.07,0,.1,0,.03-.02.07-.03.1,0,.02-.01.03-.01.05,0,.02,0,.04,0,.05s.01.03.02.05c0,0,0,.01.01.02,0,0,.01.01.02.02.01,0,.03.02.04.02.01,0,.03,0,.04,0,.02,0,.03,0,.05,0,0,0,0,0,.01,0,.04-.01.08-.02.12-.03.03,0,.07,0,.11,0,.04,0,.07.02.1.03.03.01.06.03.08.05.03.02.05.05.07.07.01.01.02.03.04.03.01.01.03.02.05.02.02,0,.03,0,.05,0,0,0,.01,0,.02,0,0,0,.02,0,.02,0,.01,0,.03-.01.04-.02s.02-.02.03-.03c0-.01.01-.03.02-.04,0,0,0,0,0-.01,0-.04.02-.08.03-.11.01-.03.03-.06.06-.09.02-.03.05-.05.08-.07.03-.02.06-.03.09-.04.03-.01.07-.02.1-.02.02,0,.03,0,.05-.01.02,0,.03-.02.04-.03.01-.01.02-.03.03-.04,0,0,0-.01,0-.02,0,0,0-.02,0-.03,0-.02,0-.03,0-.04Z" class="cls-2"/><path d="M510.74,201.71c-1.07,0-1.96.8-1.96,1.87s.89,1.87,1.96,1.87c.98,0,1.87-.8,1.87-1.87s-.89-1.87-1.87-1.87Z" class="cls-2"/><path d="M511.52,203.74s0-.03-.02-.04c0-.01-.02-.03-.03-.04,0,0,0,0-.01,0-.03-.03-.06-.05-.08-.09-.02-.03-.04-.06-.05-.09-.01-.03-.02-.07-.02-.11,0-.03,0-.07,0-.1,0-.03.02-.07.03-.1,0-.02.01-.03.01-.05,0-.02,0-.03,0-.05,0-.02-.01-.03-.02-.04,0,0,0-.01-.01-.02,0,0-.01-.01-.02-.02-.01,0-.03-.02-.04-.02-.02,0-.03,0-.04,0-.02,0-.03,0-.05,0,0,0,0,0-.01,0-.04.01-.07.02-.12.03-.03,0-.07,0-.11,0-.03,0-.07-.02-.1-.03-.03-.01-.06-.03-.08-.05-.03-.02-.05-.05-.07-.07-.01-.01-.02-.03-.04-.04-.01-.01-.03-.02-.05-.02-.02,0-.03,0-.05,0,0,0-.01,0-.02,0,0,0-.02,0-.02,0-.01,0-.03.01-.04.02-.01.01-.02.02-.03.03,0,.01-.01.03-.02.04,0,0,0,0,0,.01,0,.04-.02.08-.03.12-.01.03-.03.06-.06.09-.02.03-.05.05-.08.07-.03.02-.06.03-.09.05-.03.01-.07.02-.1.02-.02,0-.03,0-.05.01-.02,0-.03.02-.04.03-.01.01-.02.03-.03.04,0,0,0,.01,0,.02,0,0,0,.02,0,.03,0,.01,0,.03,0,.04,0,.01,0,.03.02.04,0,.01.02.03.03.04,0,0,0,0,.01,0,.03.03.06.05.08.09.02.03.04.06.05.1.01.03.02.07.02.11,0,.03,0,.07,0,.1,0,.03-.02.07-.03.1,0,.02-.01.03-.01.05,0,.02,0,.04,0,.05s.01.03.02.05c0,0,0,.01.01.02,0,0,.01.01.02.02.01,0,.03.02.04.02.01,0,.03,0,.04,0,.02,0,.03,0,.05,0,0,0,0,0,.01,0,.04-.01.08-.02.12-.03.03,0,.07,0,.11,0,.04,0,.07.02.1.03.03.01.06.03.08.05.03.02.05.05.07.07.01.01.02.03.04.03.01.01.03.02.05.02.02,0,.03,0,.05,0,0,0,.01,0,.02,0,0,0,.02,0,.02,0,.01,0,.03-.01.04-.02s.02-.02.03-.03c0-.01.01-.03.02-.04,0,0,0,0,0-.01,0-.04.02-.08.03-.11.01-.03.03-.06.06-.09.02-.03.05-.05.08-.07.03-.02.06-.03.09-.04.03-.01.07-.02.1-.02.02,0,.03,0,.05-.01.02,0,.03-.02.04-.03.01-.01.02-.03.03-.04,0,0,0-.01,0-.02,0,0,0-.02,0-.03,0-.02,0-.03,0-.04Z" class="cls-2"/></g></g></svg>