<svg viewBox="0 0 531.26 288" xmlns="http://www.w3.org/2000/svg"><defs><style>.cls-1, .cls-2 {
        stroke: #000;
      }

      .cls-1, .cls-2, .cls-3 {
        fill: none;
      }

      .cls-1, .cls-3 {
        stroke-linecap: round;
        stroke-linejoin: round;
        stroke-width: .3px;
      }

      .cls-4 {
        fill: #12100a;
      }

      .cls-2 {
        stroke-miterlimit: 10;
        stroke-width: .28px;
      }

      .cls-3 {
        stroke: #12100a;
      }</style></defs><g id="bases"><rect height="358.35" width="589.11" y="-33.95" x="-25.44" class="cls-2"/></g><g id="Urban"><g id="Reuse"><g id="mesa"><g id="LINE"><g><line y2="283.22" x2="16.73" y1="185.22" x1="16.73" class="cls-1"/><rect height=".3" width="1.95" y="185.07" x="15.76"/><rect height=".3" width="1.95" y="283.07" x="15.76"/></g></g><g id="LINE-2"><g><line y2="22.43" x2="302.79" y1="22.43" x1="39.3" class="cls-3"/><rect height="1.95" width=".3" y="21.45" x="39.15" class="cls-4"/><rect height="1.95" width=".3" y="21.45" x="302.64" class="cls-4"/></g></g><g id="MTEXT"><g><path d="M158.37,13.22v5.29h-.72v-4.54l-1.3.64v-.73l1.36-.67h.67Z"/><path d="M161.74,13.34c.24.12.44.29.61.51.17.22.3.5.39.82.09.32.14.69.14,1.09s-.05.8-.15,1.15c-.1.35-.24.64-.43.89s-.41.43-.67.56c-.26.13-.55.2-.88.2-.37,0-.7-.09-.97-.27-.27-.18-.47-.43-.59-.76l.64-.29c.07.21.18.37.34.48.16.11.35.17.56.17.2,0,.38-.05.55-.14.17-.09.31-.23.44-.4.13-.17.22-.37.29-.61.07-.24.1-.49.1-.77v-.17c0-.06,0-.1,0-.15-.08.25-.23.45-.45.59-.22.14-.48.21-.79.21-.24,0-.46-.04-.65-.12-.2-.08-.36-.19-.5-.34-.14-.14-.25-.32-.33-.52-.08-.2-.12-.42-.12-.66s.04-.47.13-.68c.08-.21.2-.38.35-.52.15-.14.32-.26.53-.34.21-.08.43-.12.68-.12.3,0,.57.06.81.18ZM160.58,13.91c-.12.05-.22.12-.3.21-.08.09-.15.19-.2.31-.05.12-.07.26-.07.41s.02.29.07.41c.05.12.12.23.2.32.09.09.19.16.31.21.12.05.25.07.4.07s.27-.02.39-.07c.12-.05.22-.12.31-.2.09-.09.15-.19.2-.31.05-.12.07-.25.07-.4s-.03-.28-.08-.41c-.05-.13-.13-.24-.21-.34-.09-.1-.2-.17-.32-.22s-.26-.08-.4-.08-.26.03-.38.08Z"/><path d="M164.49,18.45c-.22-.07-.4-.17-.56-.31-.15-.13-.28-.29-.36-.47s-.13-.38-.13-.6c0-.16.02-.31.07-.45.05-.15.11-.28.2-.4.09-.12.19-.22.31-.3s.25-.14.4-.18c-.14-.05-.25-.12-.36-.2-.1-.08-.19-.17-.27-.27s-.13-.21-.17-.33c-.04-.12-.06-.25-.06-.38,0-.21.04-.39.12-.56.08-.17.2-.32.34-.44.14-.13.32-.22.52-.29.2-.07.42-.1.66-.1s.46.03.66.1c.2.07.37.17.52.29.15.12.26.27.35.44.08.17.13.36.13.57,0,.13-.02.26-.06.38-.04.12-.1.24-.17.34-.07.1-.16.19-.27.27-.1.08-.22.14-.35.19.15.04.28.1.4.18s.22.19.3.31c.08.12.15.25.2.4.05.14.07.29.07.45,0,.21-.04.41-.13.6-.09.18-.21.34-.36.47-.15.13-.34.24-.56.31-.22.07-.46.11-.72.11s-.5-.04-.72-.11ZM165.62,17.82c.13-.04.23-.11.32-.19.09-.08.16-.18.21-.29.05-.11.08-.24.08-.37s-.03-.26-.08-.37c-.05-.11-.12-.21-.21-.29-.09-.08-.2-.15-.33-.2-.13-.05-.26-.07-.41-.07s-.28.02-.41.07c-.13.04-.23.11-.33.19s-.16.18-.21.3c-.05.11-.07.24-.07.37,0,.14.02.27.07.38.05.11.12.21.21.29.09.08.2.14.33.19.13.04.26.07.41.07s.29-.02.41-.07ZM164.85,13.89c-.11.04-.2.09-.28.16-.08.07-.14.15-.18.26s-.07.21-.07.33c0,.11.02.22.07.32.04.1.11.19.19.26.08.07.17.13.28.17s.23.06.35.06.25-.02.35-.06c.1-.04.2-.1.28-.17s.14-.16.19-.26c.04-.1.07-.21.07-.32,0-.12-.02-.23-.07-.33-.04-.1-.11-.19-.19-.26-.08-.07-.17-.12-.28-.16-.11-.04-.23-.06-.36-.06s-.24.02-.35.06Z"/><path d="M168.66,18.38c-.24-.12-.44-.29-.61-.51-.17-.22-.3-.5-.39-.82s-.14-.69-.14-1.09.05-.8.15-1.15c.1-.35.24-.64.43-.89.18-.25.41-.43.67-.56.26-.13.55-.2.88-.2.37,0,.7.09.97.27.27.18.47.43.59.76l-.64.29c-.07-.21-.18-.37-.34-.48-.16-.11-.35-.17-.56-.17-.2,0-.38.05-.55.14-.17.09-.31.23-.44.4-.13.17-.22.37-.29.61s-.1.49-.1.77v.17c0,.06,0,.1,0,.15.08-.25.23-.45.45-.59.22-.14.48-.21.79-.21.24,0,.46.04.65.12.2.08.36.19.5.34.14.15.25.32.33.52.08.2.12.42.12.66s-.04.47-.13.68c-.08.21-.2.38-.35.53-.15.14-.32.26-.53.34s-.43.12-.68.12c-.3,0-.57-.06-.81-.18ZM169.83,17.81c.12-.05.22-.12.3-.21.08-.09.15-.19.2-.31.05-.12.07-.26.07-.41s-.02-.29-.07-.41c-.05-.12-.12-.23-.2-.32s-.19-.16-.31-.21-.25-.07-.4-.07-.27.02-.39.07-.22.12-.31.2c-.09.09-.15.19-.2.31-.05.12-.07.25-.07.4s.03.28.08.41.12.24.21.34.2.17.32.22c.12.05.26.08.4.08s.26-.03.38-.08Z"/><path d="M174.83,14.86v.67c.11-.24.26-.42.45-.54.18-.12.4-.18.63-.18.26,0,.48.07.67.2.19.14.32.33.41.59.11-.26.27-.45.46-.59.2-.14.43-.2.7-.2.38,0,.67.12.88.37.21.25.31.61.31,1.07v2.25h-.7v-2.16c0-.29-.07-.52-.2-.69-.13-.17-.31-.25-.54-.25-.12,0-.22.02-.32.07-.1.05-.18.11-.26.2-.07.09-.13.19-.16.32-.04.12-.06.26-.06.4v2.11h-.7v-2.16c0-.14-.02-.27-.06-.38-.04-.12-.09-.22-.15-.3-.06-.08-.14-.14-.23-.19-.09-.04-.2-.07-.31-.07s-.22.02-.32.07c-.1.05-.18.12-.25.21-.07.09-.12.2-.17.32-.04.12-.06.26-.06.41v2.09h-.7v-3.64h.68Z"/><path d="M181.01,14.86v.67c.11-.24.26-.42.45-.54.18-.12.4-.18.63-.18.26,0,.48.07.67.2.19.14.32.33.41.59.11-.26.27-.45.46-.59.2-.14.43-.2.7-.2.38,0,.67.12.88.37.21.25.31.61.31,1.07v2.25h-.7v-2.16c0-.29-.07-.52-.2-.69-.13-.17-.31-.25-.54-.25-.12,0-.22.02-.32.07-.1.05-.18.11-.26.2-.07.09-.13.19-.16.32-.04.12-.06.26-.06.4v2.11h-.7v-2.16c0-.14-.02-.27-.06-.38-.04-.12-.09-.22-.15-.3-.06-.08-.14-.14-.23-.19-.09-.04-.2-.07-.31-.07s-.22.02-.32.07c-.1.05-.18.12-.25.21-.07.09-.12.2-.17.32-.04.12-.06.26-.06.41v2.09h-.7v-3.64h.68Z"/></g></g><g id="MTEXT-2"><g><path d="M12.81,246.67l-4.62-1.78v2.69h-.67v-3.5h.59l4.7,1.77v.83Z"/><path d="M7.52,240.94h5.29v.73h-4.36s.08.04.1.06c.03.02.06.04.09.07l2.02,1.35s.06.04.08.05.05.03.08.06v-3.2h.64v3.98h-.59l-3.35-2.22v-.87Z"/><path d="M7.67,236.75c.13-.25.32-.47.55-.65.23-.18.52-.32.85-.42.33-.1.69-.15,1.08-.15s.76.05,1.1.15.62.24.86.42c.24.18.43.4.56.65.13.25.2.52.2.83s-.07.57-.2.82-.32.47-.56.65c-.24.18-.53.32-.86.42-.33.1-.7.15-1.1.15s-.75-.05-1.08-.15c-.33-.1-.61-.24-.85-.42-.24-.18-.42-.4-.55-.65-.13-.25-.2-.53-.2-.83s.07-.58.2-.83ZM8.3,238.11c.1.16.23.29.41.41.18.11.38.2.63.27.24.07.51.1.81.1s.57-.03.82-.09c.25-.06.46-.15.64-.27.18-.12.32-.25.42-.41.1-.16.15-.33.15-.52s-.05-.37-.15-.53c-.1-.16-.24-.3-.42-.41-.18-.11-.39-.2-.64-.27-.25-.06-.52-.09-.82-.09s-.56.03-.81.09c-.25.06-.46.15-.63.26-.17.11-.31.25-.41.41-.1.16-.15.34-.15.53s.05.37.15.52Z"/><path d="M9.17,231.93h.67c-.24-.11-.42-.26-.54-.45-.12-.18-.18-.4-.18-.63,0-.26.07-.48.2-.67.14-.19.33-.32.59-.41-.26-.11-.45-.27-.59-.46-.14-.2-.2-.43-.2-.7,0-.38.12-.67.37-.88.25-.21.61-.31,1.07-.31h2.25v.7h-2.16c-.29,0-.52.07-.69.2-.17.13-.25.31-.25.54,0,.12.02.22.07.32.05.1.11.18.2.26.09.07.19.13.32.16.12.04.26.06.4.06h2.11v.7h-2.16c-.14,0-.27.02-.38.06-.12.04-.22.09-.3.15-.08.06-.14.14-.19.23-.04.09-.07.2-.07.31s.02.22.07.32c.05.1.12.18.21.25.09.07.2.12.32.17.12.04.26.06.41.06h2.09v.7h-3.64v-.68Z"/><path d="M9.17,225.74h.67c-.24-.11-.42-.26-.54-.45-.12-.18-.18-.4-.18-.63,0-.26.07-.48.2-.67.14-.19.33-.32.59-.41-.26-.11-.45-.27-.59-.46-.14-.2-.2-.43-.2-.7,0-.38.12-.67.37-.88.25-.21.61-.31,1.07-.31h2.25v.7h-2.16c-.29,0-.52.07-.69.2-.17.13-.25.31-.25.54,0,.12.02.22.07.32.05.1.11.18.2.26.09.07.19.13.32.16.12.04.26.06.4.06h2.11v.7h-2.16c-.14,0-.27.02-.38.06-.12.04-.22.09-.3.15-.08.06-.14.14-.19.23-.04.09-.07.2-.07.31s.02.22.07.32c.05.1.12.18.21.25.09.07.2.12.32.17.12.04.26.06.41.06h2.09v.7h-3.64v-.68Z"/></g></g><g id="LINE-3"><g><line y2="146.39" x2="16.73" y1="36.97" x1="16.73" class="cls-3"/><rect height=".3" width="1.95" y="36.82" x="15.76" class="cls-4"/><rect height=".3" width="1.95" y="146.24" x="15.76" class="cls-4"/></g></g><g id="MTEXT-3"><g><path d="M12.75,103.78c-.07.22-.17.4-.31.56-.13.15-.29.28-.47.36s-.38.13-.6.13c-.16,0-.31-.02-.45-.07-.15-.05-.28-.11-.4-.2-.12-.09-.22-.19-.3-.31s-.14-.25-.18-.4c-.05.14-.12.25-.2.36-.08.1-.17.19-.27.27s-.21.13-.33.17c-.12.04-.25.06-.38.06-.21,0-.39-.04-.56-.12-.17-.08-.32-.2-.44-.34-.13-.14-.22-.32-.29-.52-.07-.2-.1-.42-.1-.66s.03-.46.1-.66c.07-.2.17-.37.29-.52.12-.15.27-.26.44-.35.17-.08.36-.13.57-.13.13,0,.26.02.38.06.12.04.24.1.34.17.1.07.19.16.27.27.08.1.14.22.19.35.04-.15.1-.28.18-.4s.19-.22.31-.3c.12-.08.25-.15.4-.2.14-.05.29-.07.45-.07.21,0,.41.04.6.13.18.09.34.21.47.36.13.15.24.34.31.56.07.22.11.46.11.72s-.04.5-.11.72ZM8.2,103.42c.04.11.09.2.16.28.07.08.15.14.26.18s.21.07.33.07c.11,0,.22-.02.32-.07.1-.04.19-.11.26-.19.07-.08.13-.17.17-.28s.06-.23.06-.35-.02-.25-.06-.35c-.04-.1-.1-.2-.17-.28s-.16-.14-.26-.19c-.1-.04-.21-.07-.32-.07-.12,0-.23.02-.33.07-.1.04-.19.11-.26.19-.07.08-.12.17-.16.28-.04.11-.06.23-.06.36s.02.24.06.35ZM12.12,102.65c-.04-.13-.11-.23-.19-.32-.08-.09-.18-.16-.29-.21-.11-.05-.24-.08-.37-.08s-.26.03-.37.08c-.11.05-.21.12-.29.21-.08.09-.15.2-.2.33-.05.13-.07.26-.07.41s.02.28.07.41c.04.13.11.23.19.33s.18.16.3.21c.11.05.24.07.37.07.14,0,.27-.02.38-.07.11-.05.21-.12.29-.21.08-.09.14-.2.19-.33.04-.13.07-.26.07-.41s-.02-.29-.07-.41Z"/><path d="M7.58,98.39c.08-.21.19-.39.33-.54.14-.15.31-.27.51-.35.2-.08.42-.13.67-.13.14,0,.28.02.42.05.14.03.28.08.41.15.14.07.27.16.42.27.14.11.29.24.45.39l1.35,1.31v-2.29h.67v3.32h-.59l-1.85-1.79c-.12-.12-.23-.22-.33-.3-.1-.08-.21-.15-.3-.2-.1-.05-.19-.09-.29-.11-.09-.02-.19-.03-.29-.03-.15,0-.28.02-.4.07-.12.04-.23.11-.32.2-.09.09-.16.19-.21.3-.05.11-.07.24-.07.39,0,.25.08.47.23.65.15.18.36.31.63.39l-.23.67c-.42-.12-.74-.32-.97-.62-.23-.3-.34-.66-.34-1.1,0-.25.04-.48.12-.69Z"/><path d="M12.68,95.58c-.12.24-.29.44-.51.61-.22.17-.5.3-.82.39s-.69.14-1.09.14-.8-.05-1.15-.15c-.35-.1-.64-.24-.89-.43-.25-.18-.43-.41-.56-.67-.13-.26-.2-.55-.2-.88,0-.37.09-.7.27-.97.18-.27.43-.47.76-.59l.29.64c-.21.07-.37.18-.48.34-.11.16-.17.35-.17.56,0,.2.05.38.14.55s.23.31.4.44c.17.13.37.22.61.29s.49.1.77.1h.17c.06,0,.1,0,.15,0-.25-.08-.45-.23-.59-.45-.14-.22-.21-.48-.21-.79,0-.24.04-.46.12-.65.08-.2.19-.36.34-.5.15-.14.32-.25.52-.33.2-.08.42-.12.66-.12s.47.04.68.13c.21.08.38.2.53.35.14.15.26.32.34.53s.12.43.12.68c0,.3-.06.57-.18.81ZM12.11,94.41c-.05-.12-.12-.22-.21-.3-.09-.08-.19-.15-.31-.2-.12-.05-.26-.07-.41-.07s-.29.02-.41.07c-.12.05-.23.12-.32.2s-.16.19-.21.31-.07.25-.07.4.02.27.07.39.12.22.2.31c.09.09.19.15.31.2.12.05.25.07.4.07s.28-.03.41-.08.24-.12.34-.21.17-.2.22-.32c.05-.12.08-.26.08-.4s-.03-.26-.08-.38Z"/><path d="M9.17,89.42h.67c-.24-.11-.42-.26-.54-.45-.12-.18-.18-.4-.18-.63,0-.26.07-.48.2-.67.14-.19.33-.32.59-.41-.26-.11-.45-.27-.59-.46-.14-.2-.2-.43-.2-.7,0-.38.12-.67.37-.88.25-.21.61-.31,1.07-.31h2.25v.7h-2.16c-.29,0-.52.07-.69.2-.17.13-.25.31-.25.54,0,.12.02.22.07.32.05.1.11.18.2.26.09.07.19.13.32.16.12.04.26.06.4.06h2.11v.7h-2.16c-.14,0-.27.02-.38.06-.12.04-.22.09-.3.15-.08.06-.14.14-.19.23-.04.09-.07.2-.07.31s.02.22.07.32c.05.1.12.18.21.25.09.07.2.12.32.17.12.04.26.06.41.06h2.09v.7h-3.64v-.68Z"/><path d="M9.17,83.23h.67c-.24-.11-.42-.26-.54-.45-.12-.18-.18-.4-.18-.63,0-.26.07-.48.2-.67.14-.19.33-.32.59-.41-.26-.11-.45-.27-.59-.46-.14-.2-.2-.43-.2-.7,0-.38.12-.67.37-.88.25-.21.61-.31,1.07-.31h2.25v.7h-2.16c-.29,0-.52.07-.69.2-.17.13-.25.31-.25.54,0,.12.02.22.07.32.05.1.11.18.2.26.09.07.19.13.32.16.12.04.26.06.4.06h2.11v.7h-2.16c-.14,0-.27.02-.38.06-.12.04-.22.09-.3.15-.08.06-.14.14-.19.23-.04.09-.07.2-.07.31s.02.22.07.32c.05.1.12.18.21.25.09.07.2.12.32.17.12.04.26.06.41.06h2.09v.7h-3.64v-.68Z"/></g></g><path d="M177.54,195.1h100.2M64.36,195.1h104.55M302.94,223.12v-16.54M301.63,223.12v-16.54M302.94,204v2.58M301.63,206.58v-2.58M302.94,206.58h-1.31M302.94,193.13v10.87M301.63,193.13v10.87M301.63,204h1.31M302.94,193.13v-7.17M301.63,185.96h1.31M301.63,193.13v-7.17M40.46,206.58v16.54M39.15,206.58v16.54M40.46,204v2.58M39.15,206.58v-2.58M40.46,206.58h-1.31M40.46,193.13v10.87M39.15,193.13v10.87M39.15,204h1.31M40.46,185.96h0v7.17M39.15,185.96h0v7.17M40.46,193.13h-1.31M40.46,185.96h-1.31M297.65,199.74v22.54M301.63,188.54h-.37M296.34,280.46l.09-.19M296.34,280.6v-.14M40.46,188.54h.42M45.8,280.6v-.14M44.44,199.74v22.54M45.8,280.46l-.09-.19M288.28,198.66l-2.06-2.06M290.85,199.74h10.78M290.85,199.74l-.33-.05-.37-.05-.33-.09-.37-.09-.33-.19-.28-.14-.28-.23-.28-.23M301.63,196.6h-15.42M285.7,196.08v-.37M286.21,196.6l-.19-.19-.19-.19-.14-.14M279.7,195.75h5.67M285.37,195.75v-.05M285.37,195.71h.33M285.7,195.71h0M285.7,195.71h15.93M293.29,194.91h8.34M292.03,194.91h1.27M279.7,194.86h8.48M277.73,194.91h.37l.19-.05h1.41M277.73,194.91v.8M279.7,195.75h-.89l-.28-.05h-.8M288.18,194.86h2.53l.42.05h.89M53.81,198.66l2.06-2.06M51.24,199.74h-10.78M51.24,199.74l.37-.05.33-.05.37-.09.33-.09.33-.19.28-.14.33-.23.23-.23M40.46,196.6h15.42M55.88,196.6l.19-.19.19-.19.14-.14M56.39,196.08v-.37M64.36,194.11v.8M62.39,195.75h-5.67M62.39,195.75h.89l.28-.05h.8M64.36,194.91v.8M64.36,194.91h-.37l-.19-.05h-1.41M62.39,194.86h-8.48M50.11,194.91h-1.27M48.85,194.91h-8.39M56.39,195.71h-15.93M56.39,195.71h0M56.72,195.71h-.33M56.72,195.75v-.05M53.91,194.86h-2.48l-.47.05h-.84M42.19,185.07l-.23.05-.28.05-.23.14-.19.19-.14.19-.14.23-.09.23v.28M40.88,192.8v-6.37M42.19,194.11l-.23-.05-.28-.05-.23-.14-.19-.14-.14-.23-.14-.23-.09-.23v-.23M299.9,185.07H42.19M299.9,194.11H42.19M301.26,186.43l-.05-.28-.09-.23-.09-.23-.19-.19-.19-.19-.23-.14-.23-.05-.28-.05M301.26,192.8l-.05.23-.09.23-.09.23-.19.23-.19.14-.23.14-.23.05-.28.05M301.26,186.43h0v6.37M293.01,283.37h1.31M294.32,281.77h-1.31M293.01,281.77v1.59M301.63,283.37h-7.31M301.63,281.77h-7.31M301.63,224.47v-1.36M302.94,223.12v1.36M301.63,281.77v-57.3M302.94,283.37v-58.89M301.63,283.37h1.31M44.44,222.27v53.5M45.8,281.77v-1.17M45.71,280.27l-.28-.52-.28-.52-.19-.56-.19-.56-.14-.56-.09-.61-.05-.56-.05-.61M296.43,280.27l.28-.52.23-.52.23-.56.14-.56.14-.56.09-.61.09-.56v-.61M297.65,222.27v53.5M296.43,280.27l-.05.05v.09l-.05.05v.14M296.34,281.77v-1.17M40.46,223.12v1.36M39.15,224.47v-1.36M40.46,281.77v-57.3M39.15,283.37v-58.89M39.15,283.37h1.31M49.08,283.37h-1.31M49.08,281.77v1.59M47.77,281.77h1.31M40.46,283.37h7.31M40.46,281.77h7.31M64.36,195.1h213.37" class="cls-1"/><path d="M40.85,87.53h-.42M40.85,95.87h-.42M301.66,145.69h0v-3.66M302.98,145.69h0v-3.66M301.66,142.04V41.32M302.98,142.04V41.32M301.66,142.04h1.31M302.98,41.32v-3.66M301.66,41.32v-3.66M301.66,41.32h1.31M39.11,142.04v3.66M40.43,142.04v3.66M39.11,41.32v100.72M40.43,41.32v100.72M39.11,37.66v3.66M40.43,37.66v3.66M301.66,91.05h-1.73M298.99,91.05v1.31M301.66,92.36h-1.73M40.43,92.36h1.73M40.43,91.05h1.73M301.29,134.87h.38M301.29,134.87h.38M40.85,89.03h-.42M40.85,48.49h-.42M40.85,48.49h-.42M301.29,48.49h.38M301.29,48.49h.38M40.85,94.37h-.42M40.85,134.87h-.42M40.85,134.87h-.42M42.16,91.05l-.23-.05-.28-.09-.23-.09-.19-.19-.14-.19-.14-.23-.09-.23v-.28M299.93,91.05H42.16M301.29,89.69l-.05.28-.09.23-.09.23-.19.19-.19.19-.23.09-.23.09-.28.05M301.29,41.32v48.37M40.85,89.69v-48.37M40.85,41.32v-3.19M301.29,38.13h0v3.19M40.85,145.23h0v-3.19M301.29,142.04v3.19M40.85,142.04v-48.37M299.93,92.36h.28l.23.09.23.14.19.14.19.19.09.23.09.28.05.23M301.29,93.67v48.37M42.16,92.36h257.77M40.85,93.67v-.23l.09-.28.14-.23.14-.19.19-.14.23-.14.28-.09h.23M301.66,145.69h1.31M302.98,37.66h-1.31M39.11,145.69h1.31M40.43,37.66h-1.31M42.16,36.82l-.23.05-.28.05-.23.14-.19.14-.14.23-.14.19-.09.28v.23M299.93,36.82H42.16M301.29,38.13l-.05-.23-.09-.28-.09-.19-.19-.23-.19-.14-.23-.14-.23-.05-.28-.05M40.85,145.23v.28l.09.23.14.23.14.19.19.19.23.09.28.09h.23M299.93,146.54h.28l.23-.09.23-.09.19-.19.19-.19.09-.23.09-.23.05-.28M42.16,146.54h257.77" class="cls-1"/><path d="M410.55,281.77h.75M410.55,283.37h.75M432.38,281.77h.75M432.38,283.37h.75M413.87,281.77h-2.58M413.87,283.37h-2.58M429.81,281.77h2.58M429.81,283.37h2.58M472.16,185.96h.42l.42.09.42.09.37.19.37.19.33.28.33.28.28.33.23.33.19.37.14.37.09.42.05.42v.42l-.05.42-.09.42-.14.37-.14.37-.23.37-.28.33-.28.28-.33.28-.37.19-.37.19-.42.14M371.52,185.96h100.65M370.58,193.13l-.42-.14-.37-.19-.37-.19-.33-.28-.28-.28-.28-.33-.19-.37-.19-.37-.14-.37-.09-.42-.05-.42v-.42l.05-.42.09-.42.14-.37.23-.37.23-.33.23-.33.33-.28.33-.28.37-.19.37-.19.42-.09.42-.09h.42M370.58,193.13l41.33,10.87M411.91,204l.37.14.33.19.33.23.28.23.23.33.19.33.14.37.05.37.05.37M413.87,281.77v-75.2M429.81,283.37h-15.93M429.81,206.58v75.2M429.81,206.58l.05-.37.09-.37.09-.37.19-.33.28-.33.23-.23.33-.23.37-.19.33-.14M473.1,193.13l-41.33,10.87M423.85,185.07l-.28.05-.23.05-.23.14-.19.19-.19.19-.14.23v.05M472.26,194.11l-3.14.05M423.85,185.07h48.31M472.16,185.07l.47.05.47.05.47.14.42.14.42.23.42.23.37.33.33.33.28.33.23.42.23.42.19.42.09.47.09.47.05.47-.05.47-.05.47-.14.42-.14.47-.23.42-.23.37-.28.37-.33.33-.37.33-.37.23-.42.23-.42.19-.47.09-.47.09-.47.05M371.42,194.11l-.47-.05-.47-.09-.47-.09-.42-.19-.42-.23-.37-.23-.37-.33-.33-.33-.28-.37-.23-.37-.23-.42-.14-.47-.14-.42-.05-.47-.05-.47.05-.47.09-.47.09-.47.19-.42.23-.42.23-.42.28-.33.37-.33.33-.33.42-.23.42-.23.42-.14.47-.14.47-.05.47-.05M374.56,194.16l-3.14-.05M371.52,185.07h48.36M419.87,185.07l.23.05.23.05.23.14.23.19.14.19.14.23v.05M410.55,281.77v1.59M433.13,283.37v-1.59" class="cls-1"/></g></g></g></svg>