<svg viewBox="0 0 531.26 288" xmlns="http://www.w3.org/2000/svg"><defs><style>.cls-1 {
        opacity: .8;
      }

      .cls-1, .cls-2, .cls-3 {
        stroke-width: .3px;
      }

      .cls-1, .cls-4, .cls-3 {
        fill: none;
      }

      .cls-1, .cls-3 {
        stroke: #12100a;
        stroke-linecap: round;
        stroke-linejoin: round;
      }

      .cls-2 {
        fill: #f1efea;
      }

      .cls-2, .cls-4 {
        stroke: #000;
        stroke-miterlimit: 10;
      }

      .cls-5 {
        fill: #12100a;
      }

      .cls-4 {
        stroke-width: .28px;
      }</style></defs><g id="bases"><rect height="358.35" width="589.11" y="-33.95" x="-25.44" class="cls-4"/></g><g id="Urban"><g id="Frame"><g id="bike_station"><g id="MTEXT"><g><path d="M7.32,157.8h5.29v.72h-4.54l.64,1.3h-.73l-.67-1.36v-.67Z"/><path d="M7.32,153.85h.65v1.92l1.54.25c-.09-.1-.16-.22-.21-.36-.05-.14-.07-.29-.07-.46,0-.25.04-.47.13-.68.08-.21.2-.38.35-.53.15-.15.33-.27.54-.35.21-.08.44-.12.69-.12s.48.04.7.13c.21.09.4.21.55.36.15.16.27.34.36.56.08.21.13.45.13.71,0,.2-.03.39-.08.58s-.13.35-.23.5c-.1.15-.22.28-.36.39-.14.11-.3.19-.48.24l-.31-.63c.24-.07.43-.19.56-.39.14-.19.21-.42.21-.67,0-.15-.03-.29-.08-.41-.05-.13-.12-.23-.21-.33-.09-.09-.2-.16-.33-.21-.13-.05-.27-.08-.43-.08s-.3.03-.44.08c-.13.05-.25.13-.34.22s-.17.21-.22.34c-.05.13-.08.28-.08.44,0,.18.04.35.1.49.07.14.17.26.31.36l-.15.62-2.79-.47v-2.52Z"/><path d="M7.46,150.11c.13-.25.32-.47.55-.65.23-.18.52-.32.85-.42.33-.1.69-.15,1.08-.15s.76.05,1.1.15.62.24.86.42c.24.18.43.4.56.65.13.25.2.52.2.83s-.07.57-.2.82-.32.47-.56.65c-.24.18-.53.32-.86.42-.33.1-.7.15-1.1.15s-.75-.05-1.08-.15c-.33-.1-.61-.24-.85-.42-.24-.18-.42-.4-.55-.65-.13-.25-.2-.53-.2-.83s.07-.58.2-.83ZM8.1,151.46c.1.16.23.29.41.41.18.11.38.2.63.27.24.07.51.1.81.1s.57-.03.82-.09c.25-.06.46-.15.64-.27.18-.12.32-.25.42-.41.1-.16.15-.33.15-.52s-.05-.37-.15-.53c-.1-.16-.24-.3-.42-.41-.18-.11-.39-.2-.64-.27-.25-.06-.52-.09-.82-.09s-.56.03-.81.09c-.25.06-.46.15-.63.26-.17.11-.31.25-.41.41-.1.16-.15.34-.15.53s.05.37.15.52Z"/><path d="M7.46,145.48c.13-.25.32-.47.55-.65.23-.18.52-.32.85-.42.33-.1.69-.15,1.08-.15s.76.05,1.1.15.62.24.86.42c.24.18.43.4.56.65.13.25.2.52.2.83s-.07.57-.2.82-.32.47-.56.65c-.24.18-.53.32-.86.42-.33.1-.7.15-1.1.15s-.75-.05-1.08-.15c-.33-.1-.61-.24-.85-.42-.24-.18-.42-.4-.55-.65-.13-.25-.2-.53-.2-.83s.07-.58.2-.83ZM8.1,146.83c.1.16.23.29.41.41.18.11.38.2.63.27.24.07.51.1.81.1s.57-.03.82-.09c.25-.06.46-.15.64-.27.18-.12.32-.25.42-.41.1-.16.15-.33.15-.52s-.05-.37-.15-.53c-.1-.16-.24-.3-.42-.41-.18-.11-.39-.2-.64-.27-.25-.06-.52-.09-.82-.09s-.56.03-.81.09c-.25.06-.46.15-.63.26-.17.11-.31.25-.41.41-.1.16-.15.34-.15.53s.05.37.15.52Z"/><path d="M8.96,140.65h.67c-.24-.11-.42-.26-.54-.45-.12-.18-.18-.4-.18-.63,0-.26.07-.48.2-.67.14-.19.33-.32.59-.41-.26-.11-.45-.27-.59-.46-.14-.2-.2-.43-.2-.7,0-.38.12-.67.37-.88.25-.21.61-.31,1.07-.31h2.25v.7h-2.16c-.29,0-.52.07-.69.2-.17.13-.25.31-.25.54,0,.12.02.22.07.32.05.1.11.18.2.26.09.07.19.13.32.16.12.04.26.06.4.06h2.11v.7h-2.16c-.14,0-.27.02-.38.06-.12.04-.22.09-.3.15-.08.06-.14.14-.19.23-.04.09-.07.2-.07.31s.02.22.07.32c.05.1.12.18.21.25.09.07.2.12.32.17.12.04.26.06.41.06h2.09v.7h-3.64v-.68Z"/><path d="M8.96,134.46h.67c-.24-.11-.42-.26-.54-.45-.12-.18-.18-.4-.18-.63,0-.26.07-.48.2-.67.14-.19.33-.32.59-.41-.26-.11-.45-.27-.59-.46-.14-.2-.2-.43-.2-.7,0-.38.12-.67.37-.88.25-.21.61-.31,1.07-.31h2.25v.7h-2.16c-.29,0-.52.07-.69.2-.17.13-.25.31-.25.54,0,.12.02.22.07.32.05.1.11.18.2.26.09.07.19.13.32.16.12.04.26.06.4.06h2.11v.7h-2.16c-.14,0-.27.02-.38.06-.12.04-.22.09-.3.15-.08.06-.14.14-.19.23-.04.09-.07.2-.07.31s.02.22.07.32c.05.1.12.18.21.25.09.07.2.12.32.17.12.04.26.06.41.06h2.09v.7h-3.64v-.68Z"/></g></g><g><line y2="283.21" x2="16.53" y1="6.35" x1="16.53" class="cls-3"/><rect height=".3" width="1.95" y="6.2" x="15.55" class="cls-5"/><rect height=".3" width="1.95" y="283.06" x="15.55" class="cls-5"/></g><g><g><g><path d="M234,283.14h29.71V5.98h-29.71v277.16ZM244.38,20c1.19-1.19,2.78-1.84,4.47-1.84s3.28.65,4.47,1.84c1.19,1.19,1.85,2.77,1.85,4.45s-.66,3.26-1.85,4.45c-1.19,1.19-2.78,1.84-4.47,1.84s-3.28-.65-4.47-1.84c-1.19-1.19-1.85-2.77-1.85-4.45s.66-3.26,1.85-4.45ZM240.49,223.83s0,0,0,0c0,0,0,0,0,0l.02-.03s0,0,0,0l.08-.04.15-.04.21-.04.27-.04.33-.04.39-.04.44-.03.49-.03.54-.03.58-.03.62-.02.65-.02.68-.02h.7s.72-.02.72-.02h.72v-.72c0-.31.25-.56.57-.56h.37c.31,0,.57.25.57.56v.71h.72s.72.02.72.02h.7s.68.03.68.03l.65.02.62.02.58.03.54.03.49.03.44.03.39.04.33.04.27.04.21.04.15.04.08.04s0,0,0,0l.02.03s0,0,0,0c0,0,0,0,0,0v.92s0,0,0,0h0s0,0,0,.01l-.05.04s0,0,0,0l-.11.04-.18.04-.24.04-.3.04-.36.04-.42.04-.47.03-.52.03-.56.03-.6.03-.64.02-.67.02-.69.02h-.71s-.73.02-.73.02h-.36v36.9c0,.31-.25.56-.57.56h-.37c-.31,0-.57-.25-.57-.56v-36.89h-.36s-.73,0-.73,0h-.71s-.69-.03-.69-.03l-.67-.02-.64-.02-.6-.03-.56-.03-.52-.03-.47-.03-.42-.04-.36-.04-.3-.04-.24-.04-.18-.04-.12-.04s0,0,0,0l-.05-.04s0,0,0,0h0s0,0,0,0v-.92Z" class="cls-3"/><rect height="5.71" width=".93" y="224.69" x="248.39" class="cls-3"/><path d="M257.11,224.69l-.14-.04-.21-.04-.27-.04-.33-.04-.39-.04-.44-.03-.49-.03-.54-.03-.58-.03-.62-.02-.65-.02-.68-.02h-.7s-.72-.02-.72-.02h-.73s-.74,0-.74,0h-.74s-.73,0-.73,0h-.72s-.7.02-.7.02l-.68.02-.65.02-.62.02-.58.03-.54.03-.49.03-.44.03-.39.04-.33.04-.27.04-.21.04-.15.04-.08.04v.04s.03.04.03.04l.11.04.18.04.24.04.3.04.36.04.42.04.47.03.52.03.56.03.6.03.64.02.67.02.69.02h.71s.73.02.73.02h.63s0-.53,0-.53c0,0,0,0,0,0h.93s0,0,0,0v.54h.63s.73-.01.73-.01h.71s.69-.03.69-.03l.67-.02.64-.02.6-.03.56-.03.52-.03.47-.03.42-.04.36-.04.3-.04.24-.04.18-.04.11-.04.04-.04v-.04s-.09-.04-.09-.04Z" class="cls-1"/><polygon points="240.51 224.72 240.59 224.67 240.74 224.63 240.95 224.59 241.22 224.55 241.55 224.51 241.94 224.47 242.38 224.44 242.88 224.4 243.42 224.38 244 224.35 244.62 224.32 245.27 224.3 245.96 224.29 246.66 224.27 247.38 224.26 248.11 224.26 248.85 224.26 249.59 224.26 250.33 224.26 251.05 224.27 251.75 224.29 252.43 224.3 253.09 224.32 253.71 224.35 254.29 224.38 254.83 224.4 255.32 224.44 255.77 224.47 256.16 224.51 256.49 224.55 256.76 224.59 256.97 224.63 257.12 224.67 257.2 224.72 257.2 224.72 257.21 224.73 257.21 223.84 257.19 223.81 257.11 223.77 256.96 223.72 256.76 223.68 256.48 223.64 256.15 223.6 255.77 223.57 255.32 223.53 254.83 223.5 254.29 223.47 253.71 223.44 253.09 223.42 252.43 223.4 251.75 223.38 251.05 223.37 250.33 223.36 249.59 223.35 248.85 223.35 248.11 223.35 247.38 223.36 246.66 223.37 245.96 223.38 245.27 223.4 244.62 223.42 244 223.44 243.42 223.47 242.88 223.5 242.38 223.53 241.94 223.57 241.55 223.6 241.22 223.64 240.95 223.68 240.74 223.72 240.6 223.77 240.52 223.81 240.5 223.84 240.5 224.73 240.5 224.72 240.51 224.72" class="cls-1"/><path d="M272.64,42.26h0s0,0,0,0h0s0,0,0,0v-.03s0,0,0,0c0,0,0,0,0,0-.08,0-.15,0-.23,0-.07,0-.15,0-.22,0-.2,0-.41,0-.61,0h-.07c-.12,0-.24,0-.36,0h-.03c-.05,0-.11,0-.16,0-.02,0-.04,0-.06.01-.01,0-.03,0-.04,0-.03,0-.06,0-.09.01-.06,0-.12.01-.17.04-.01,0-.03.01-.04.02,0,0-.01,0-.02.01-.01,0-.02.01-.04.02-.02.01-.05.02-.07.04-.01,0-.03.02-.04.03,0,0-.01.01-.02.02,0,0-.02.02-.03.02-.02.02-.04.03-.06.05-.01.01-.02.03-.03.04,0,0-.01.01-.02.02,0,0-.02.02-.02.03-.02.02-.03.04-.04.05-.01.02-.02.03-.03.05,0,0,0,.02-.01.02,0,.01-.01.02-.02.03-.01.02-.02.04-.03.06-.02.05-.03.1-.03.16h.03s0,0,0,0v2.12s0,0,0,0h-.08v.68s0,0,0,0c0,.01.01.02.02.03,0,0,0,0,0,0,0,0,0,0,0,0,.07.12.14.23.2.35.12.22.25.44.4.65,0,0,0,0,0,0,0,0,0,0,0,0,0,0,0,.01,0,.02.1.16.2.32.29.48.1.17.2.34.31.51,0,0,.02,0,.04-.02.03-.01.08-.03.14-.06.06-.03.14-.06.23-.1s.19-.08.3-.13c.11-.05.23-.1.35-.15s.25-.11.37-.17c.09-.04.19-.08.28-.12s.18-.08.27-.12.17-.08.25-.11l.24-.11c.06-.03.11-.05.16-.07l.04-.02s.07-.03.09-.04c0,0,.02,0,.02-.01.02,0,.04-.02.06-.03,0,0,.01,0,.01-.01,0,0,0,0,0,0,0,0,0,0,0,0h0c-.03-.1-.05-.17-.08-.24l-.02-.04c-.04-.12-.09-.25-.14-.39l-.02-.06c-.02-.06-.04-.12-.06-.19l-.07-.2c-.04-.11-.08-.22-.11-.32v-.02c-.04-.11-.09-.23-.13-.34-.03-.09-.06-.18-.09-.26h0s-.02-.06-.03-.09v-.02c-.05-.13-.11-.29-.16-.44-.03-.09-.06-.18-.09-.27h0c-.07-.22-.18-.53-.25-.73v-.03c-.04-.09-.07-.18-.1-.26-.01-.03-.02-.06-.03-.08-.02-.05-.03-.1-.05-.14,0,0,0,0,0-.01,0,0,0,0,0,0,0,0,0,0,0,0,0,0,0,0,0,0,0,0,0,0,0,0,0,0,0,0,0,0,0,0,0,0,0,0h0s0,0,0,0c0,0,0,0,0,0l-.02-.15s0,0,0,0Z" class="cls-3"/><path d="M273.98,34.8s0,0,0,0v1.39s0,6.37,0,6.37v.03s.02.03.02.03l.03.02h.04s.32,0,.32,0h2.14s.05,0,.05,0h0c.34-.03.68-.03,1.02,0h0s0,0,0,0h0s0,0,0,0h.02s0,0,0,0c0,0,0,0,0,0h0s0,0,.01,0c0,0,.02,0,.02-.01h.01s0,0,.01-.01c0,0,.02-.01.03-.02,0,0,0,0,0,0h0s.03-.04.04-.06c0,0,0-.01.01-.02,0,0,0,0,0,0,.01-.02.02-.07.03-.09h0s0,0,0,0c0-.01.02-.23.04-.42,0-.11.02-.22.03-.3h0s0-.04,0-.05c0,0,0-.02,0-.03,0-.06,0-.13.01-.19,0,0,0,0,0,0,0,0,0,0,0,0,0-.03,0-.06,0-.09.01-.15.03-.32.03-.47v-.04c0-.07,0-.13.01-.2.01-.18.02-.36.03-.55h0c0-.06,0-.1,0-.14,0-.08,0-.17,0-.25v-.13c0-.09,0-.18.01-.27v-.08s0-.08,0-.11v-.23s0,0,0,0h0s0-.01,0-.02c0,0,0,0,0,0,0-.23,0-.77,0-.91h0s0-.02,0-.02v-.2s-.01-.39-.01-.39v-.39s-.06-.78-.06-.78l-.07-.85-.07-.7-.03-.1h0s-.06-.08-.06-.08l-.08-.05h-.01s-.09-.02-.09-.02h-.45s-.53,0-.53,0h-.77s-1.32,0-1.32,0h-.44s-.03,0-.03,0l-.03.02-.02.03v.03s0,.37,0,.37c0,0,0,0,0,0Z" class="cls-3"/><path d="M269.42,42.93h.64c0-.05.01-.11.03-.16,0-.02.02-.04.03-.06,0-.01.01-.02.02-.03,0,0,0-.02.01-.02,0-.02.02-.04.03-.05.01-.02.03-.04.04-.06,0,0,.02-.02.02-.03,0,0,.01-.01.02-.02.01-.01.02-.03.04-.04.02-.02.04-.03.06-.05,0,0,.02-.02.03-.02,0,0,.01-.01.02-.02.01-.01.03-.02.04-.03.02-.02.05-.03.07-.04.01,0,.02-.01.03-.02,0,0,.01,0,.02-.01.01,0,.03-.01.04-.02.05-.02.12-.03.17-.04.03,0,.06,0,.08-.01.01,0,.03,0,.04,0,.02,0,.04,0,.06-.01.05,0,.11,0,.16,0h.03c.12,0,.24,0,.36,0h.07c.2,0,.41,0,.61,0,.07,0,.15,0,.22,0,.08,0,.16,0,.24,0h0s0,0,0,0c0,0,0,0,0,0,0,0,0,0,0,0h0s0,0,0,0c.02,0,.04,0,.06,0h.09c.11,0,.22,0,.32,0h.41c.09,0,.19,0,.28,0h.15v-7.37h-.15c-.1,0-.21,0-.31,0h-.7s-.2,0-.2,0c-.2,0-.4,0-.61,0h-.42c-.28,0-.56,0-.84,0-.37,0-.75,0-1.12,0h-.16c-.11,0-.22,0-.33,0-.03,0-.06,0-.1,0-.04,0-.07,0-.11,0h-.04c-.48,0-.96,0-1.43,0v8.12h1.98Z" class="cls-3"/><polygon points="270 45.07 269.03 45.07 269.03 45.07 269.03 45.07 267.44 45.07 267.44 46.9 269.97 46.9 270 45.07" class="cls-3"/><path d="M191.21,16.93c-.03.2-.07.41-.12.61-.05.18-.11.37-.17.54-.08.21-.17.41-.27.61-.11.21-.24.42-.37.61-.15.22-.32.42-.5.62-.17.18-.35.35-.54.51-.2.16-.41.31-.64.45-.23.14-.47.26-.72.37-.25.11-.52.2-.79.27-.28.07-.58.12-.87.15-.18.02-.36.03-.54.03-.12,0-.25,0-.37-.01-.3-.02-.61-.07-.9-.13-.3-.07-.61-.17-.89-.29-.28-.12-.55-.26-.8-.41-.26-.16-.51-.35-.74-.55-.2-.18-.39-.37-.56-.57-.17-.2-.33-.42-.47-.64-.11-.18-.22-.37-.31-.57-.09-.18-.16-.37-.23-.56-.06-.17-.11-.34-.15-.51-.04-.15-.07-.3-.09-.45-.01-.07-.03-.3-.04-.5s-.17-.34-.37-.34c-.81,0-2.83,0-3.99,0-.47,0-.85.38-.85.84v11.23c0,.47.38.84.85.84h54.5v-12.91h-38.65c-.2,0-.36.15-.37.34-.01.18-.03.37-.04.44Z" class="cls-3"/><path d="M252.93,20.39c-1.09-1.08-2.54-1.68-4.08-1.68s-2.99.6-4.08,1.68c-1.09,1.08-1.69,2.52-1.69,4.05s.6,2.97,1.69,4.05c1.09,1.08,2.54,1.68,4.08,1.68s2.99-.6,4.08-1.68c1.09-1.08,1.69-2.52,1.69-4.05s-.6-2.97-1.69-4.05ZM252.53,28.1c-.98.98-2.29,1.51-3.67,1.51s-2.69-.54-3.67-1.51c-.98-.98-1.52-2.27-1.52-3.65s.54-2.68,1.52-3.65c.98-.98,2.29-1.51,3.67-1.51s2.69.54,3.67,1.51c.98.98,1.52,2.27,1.52,3.65s-.54,2.68-1.52,3.65Z" class="cls-3"/><rect height=".76" width="2.28" y="46.9" x="267.44" class="cls-3"/><polygon points="268.07 53.73 269.03 53.73 269.63 53.73 269.63 47.66 267.44 47.66 267.44 53.73 267.86 53.73 268.07 53.73" class="cls-3"/><rect height="273.33" width="3.7" y="7.83" x="230.28" class="cls-3"/><polygon points="274.36 183.62 274.36 183.08 271.78 183.08 271.78 183.62 271.97 183.62 274.36 183.62" class="cls-3"/><path d="M271.99,122.86c0-.13,0-.26.01-.39,0-.32.02-.63.03-.94v-.06c0-.18.01-.36.02-.54v-.04c0-.17.01-.34.01-.51,0-.23.01-.47.02-.7,0-.29.01-.57.02-.86,0-.34.02-.67.02-1,0-.36.01-.69.02-1,0-.37.01-.73.02-1.09,0-.42.01-.8.01-1.15,0-.4,0-.8,0-1.2,0-.48,0-.85,0-1.17,0-.18,0-.36,0-.53" class="cls-3"/><path d="M272.76,110.62c0-.12,0-.23,0-.34,0-.1,0-.21,0-.31,0-.15,0-.3,0-.44,0-.19,0-.38,0-.57,0-.17,0-.34,0-.5,0-.19,0-.37,0-.55,0-.2,0-.4-.01-.59,0-.21-.01-.41-.02-.6,0-.2-.02-.4-.03-.58,0-.16-.02-.32-.03-.47,0-.13-.02-.25-.03-.37,0-.1-.02-.2-.03-.29,0-.08-.02-.15-.02-.21,0-.05-.01-.1-.02-.15,0-.05-.01-.1-.02-.15,0,0,0-.01,0-.02-.16.03-.33.04-.5.04-.07,0-.13,0-.2,0,0,.03,0,.07,0,.1,0,.28.01.58.02.9,0,.34.01.71.02,1.09,0,.41.01.84.02,1.29,0,.46,0,.95.01,1.45,0,.5,0,1.02.01,1.56,0,.23,0,.45,0,.69l.82-.63c0-.12,0-.24,0-.35Z" class="cls-3"/><path d="M272.33,103.66s.03.04.04.07c.02.04.04.08.06.14.02.06.04.13.06.2.02.07.03.14.05.22.01.06.02.13.04.21,0,.05.02.1.02.15,0,.05.01.1.02.15,0,.07.02.14.02.21,0,.09.02.19.03.29,0,.12.02.24.03.37,0,.15.02.3.03.47,0,.18.02.38.03.58,0,.19.01.39.02.6,0,.19,0,.39.01.59,0,.18,0,.36,0,.55,0,.16,0,.33,0,.5,0,.19,0,.38,0,.57,0,.14,0,.29,0,.44,0,.1,0,.21,0,.31,0,.11,0,.23,0,.34,0,.14,0,.29,0,.43,0,.23,0,.47-.01.71,0,.28-.01.58-.02.89,0,.33-.02.66-.03,1-.01.45-.03.91-.04,1.39-.02.48-.03.99-.05,1.5-.02.51-.04,1.05-.06,1.61-.02.55-.05,1.13-.07,1.72-.02.57-.05,1.17-.08,1.82-.03.59-.06,1.22-.09,1.86-.03.59-.06,1.19-.09,1.79-.03.56-.05,1.13-.08,1.7-.03.53-.05,1.07-.08,1.61l-.07,1.46c0,.47,0,.95,0,1.42,0,.97,0,1.86,0,2.72,0,1,0,1.92,0,2.83,0,1.06,0,2.01-.01,2.92,0,1.06-.01,2.03-.02,2.98,0,.83-.01,1.64-.02,2.41,0,.83-.02,1.64-.03,2.4-.01.81-.02,1.61-.04,2.38-.01.78-.03,1.57-.04,2.32-.02.73-.03,1.46-.05,2.19-.02.7-.04,1.39-.06,2.06-.02.65-.04,1.3-.06,1.93-.02.61-.04,1.21-.07,1.8-.02.57-.05,1.14-.07,1.68-.02.52-.05,1.05-.07,1.56-.01.21-.02.43-.03.64,0,0,0,0,0,0v.17c.02.31.03.62.04.91.01.33.4,3.73.4,9.03,0,.59,0,1.18,0,1.76h.26s0,0,0,0c0,0,0,0,0,0h1.38s0,0,0,0c0,0,0,0,0,0h.74c0-1.08-.01-2.2-.03-3.32-.01-1.02-.03-2.03-.06-3.22-.02-.99-.05-2.04-.08-3.21-.01-.6-.03-1.2-.04-1.8-.01-.44-.02-.87-.03-1.31-.03-1.23-.05-2.25-.07-3.18-.03-1.22-.05-2.33-.07-3.38-.02-1.27-.04-2.43-.05-3.54-.01-1.23-.02-2.46-.03-3.66,0-1.59,0-3.03.01-4.41.01-1.15.03-2.32.05-3.46.04-.61.09-2.56.16-5.25.1-3.96.24-9.37.45-14.61.08-1.9.17-3.7.25-5.45.17-3.52.33-6.55.3-8.98-.03-2.66-.27-4.28-.76-5.11-.59-1-1.13-1.11-1.48-1.03-.57.14-.98.88-1,1.33v.04" class="cls-3"/><rect height="273.33" width="3.72" y="7.83" x="263.72" class="cls-3"/><path d="M275.04,109.18l3.84-2.92h0c.42-.33.77-.75,1-1.23.24-.48.36-1.01.36-1.54v-7.01c0-.4-.33-.73-.73-.73h-1.86c-.41,0-.73.33-.73.73v4.47c0,1.29-.83,2.42-2.05,2.82l-.09.03c.17.9.26,2.1.28,3.67,0,.54,0,1.11,0,1.71Z" class="cls-3"/><path d="M269.34,103.57s0,0,0,0c0-.05,0-.1,0-.15,0-.2.01-.36.02-.53,0-.09.01-.17.02-.24,0-.08.02-.14.03-.21.01-.07.03-.14.05-.2,0-.03.02-.05.03-.08,0-.02.02-.05.03-.07.01-.02.02-.04.05-.08.01-.02.03-.04.05-.07.02-.03.05-.06.08-.09.04-.04.07-.07.11-.11.05-.04.11-.08.16-.11.07-.04.14-.07.22-.1.08-.03.17-.05.26-.05.09,0,.17,0,.26,0,.08,0,.17.03.25.06.07.03.15.06.21.1.06.03.11.07.16.11.07.06.13.12.19.19.02.02.03.05.05.07.01.02.02.03.03.05.02.03.03.06.04.08.01.03.02.05.03.07.02.06.04.1.04.13.01.04.02.08.03.12,0,.05.01.09.02.13,0,.08.01.17.02.3,0,.12.01.26.02.42,0,.16.01.35.02.57,0,.13,0,.28,0,.43,0,0,0,0,0,0,0,0,0,0,0,0,0,.06,0,.11,0,.17,0,0,0,0,0,0,0,0,0,0,0,0,0,.03,0,.07,0,.1,0,.28.01.58.02.9,0,.34.01.71.02,1.09,0,.41.01.84.02,1.29,0,.46,0,.95.01,1.45,0,.5,0,1.02.01,1.56,0,.23,0,.46,0,.7,0,0,0,0,0,0,0,.08,0,.15,0,.23,0,0,0,0,0,0,0,.24,0,.48,0,.72,0,.7,0,1.43.01,2.17,0,.73,0,1.49.01,2.26,0,.76,0,1.53.01,2.33,0,.77,0,1.56,0,2.36,0,.55,0,1.1,0,1.66,0,0,0,0,0,0,0,0,0,0,0,0,0,.24,0,.47,0,.71,0,.78,0,1.58,0,2.38,0,.81,0,1.64,0,2.47,0,.39,0,.78,0,1.18v.33c0,.36,0,.73,0,1.09,0,.97,0,1.86,0,2.72,0,1,0,1.92,0,2.83,0,1.06,0,2.01-.01,2.92,0,1.06-.01,2.03-.02,2.98,0,.83-.01,1.64-.02,2.41,0,.83-.02,1.64-.03,2.4-.01.81-.02,1.61-.04,2.38-.01.78-.03,1.57-.04,2.32-.02.73-.03,1.46-.05,2.19-.02.7-.04,1.39-.06,2.06-.02.65-.04,1.3-.06,1.93-.02.61-.04,1.21-.07,1.8-.02.57-.05,1.14-.07,1.68-.02.52-.05,1.05-.07,1.56,0,.15-.01.3-.02.45v.19c-.03.39-.05.78-.07,1.15-.03.56-.06,1.1-.09,1.62-.03.51-.07,1.01-.1,1.49-.04.5-.07.97-.11,1.42-.02.25-.04.49-.06.73,0,0,0,0,0,0h0c-.01.15-.03.3-.04.44-.03.38-.07.75-.11,1.1-.04.36-.07.7-.11,1.01-.04.32-.08.63-.12.91-.03.24-.07.46-.1.67-.03.21-.07.4-.1.58-.03.18-.07.34-.11.49-.04.16-.07.29-.11.42-.04.14-.09.28-.15.4-.05.11-.11.24-.22.39-.05.07-.13.17-.24.26-.08.07-.21.16-.38.23-.16.06-.34.1-.51.09-.09,0-.19-.01-.28-.04-.09-.02-.17-.05-.26-.09-.13-.06-.24-.14-.34-.23-.1-.09-.18-.19-.25-.3-.05-.09-.09-.17-.13-.26v-61.77" class="cls-3"/><path d="M268.99,114.13c0,.97,0,1.94,0,2.91,0,.98,0,1.98,0,2.99,0,.97,0,1.87.01,2.74,0,.85,0,1.7.01,2.55,0,.8.01,1.59.02,2.35,0,.78.01,1.48.02,2.15,0,.66.01,1.33.02,1.98,0,.59.02,1.19.02,1.8,0,.55.02,1.1.03,1.65,0,.51.02,1.02.02,1.53l.02,1.42c0,.61.02,1.33.03,2.05.01.69.02,1.31.03,1.89,0,.6.01,1.2.02,1.77,0,.53,0,1.08.01,1.65,0,.44,0,.88,0,1.31,0,.41,0,.82,0,1.23,0,.38,0,.76,0,1.14,0,.35,0,.71,0,1.06,0,.35,0,.7,0,1.04,0,.39,0,.77,0,1.16,0,.58,0,1.16,0,1.74,0,.65,0,1.3,0,1.93,0,.35,0,.71,0,1.06,0,0,0,0,0,0,0,.07,0,.14,0,.21-.02.69-.04,1.38-.07,2.04-.02.63-.05,1.26-.07,1.87-.02.57-.05,1.14-.07,1.7-.02.53-.05,1.05-.08,1.54-.02.47-.05.94-.08,1.39-.02.43-.05.85-.08,1.25-.02.3-.04.6-.06.9-.02.29-.04.58-.06.86-.02.31-.05.62-.07.9-.03.32-.05.64-.08.94-.03.33-.06.65-.09.95-.03.28-.05.54-.08.78-.03.26-.06.51-.09.75-.03.23-.06.45-.09.66-.03.2-.06.38-.08.55-.03.16-.05.31-.08.45-.02.13-.05.25-.07.36-.02.1-.05.19-.07.27-.01.05-.03.09-.04.13,0,.01,0,.03-.01.03,0,.02,0,.03,0,.03,0,0,0,0,0,0h0s0,0,0,0c0,0,0,0,0-.03,0,0,0-.02.01-.03,0-.03.02-.07.04-.13.02-.07.04-.17.07-.27.02-.11.05-.23.07-.36.03-.14.05-.29.08-.45.03-.17.06-.36.08-.55.03-.21.06-.43.09-.66.03-.24.06-.49.09-.76.03-.24.05-.51.08-.78.03-.3.06-.62.09-.95.03-.3.05-.62.08-.94.02-.29.05-.59.07-.9.02-.28.04-.56.06-.86.02-.3.04-.6.06-.9.03-.4.05-.82.08-1.25.03-.45.05-.92.08-1.39.03-.49.05-1.01.08-1.54.03-.56.05-1.13.07-1.7.03-.61.05-1.24.07-1.87.02-.67.05-1.36.07-2.04.02-.71.04-1.46.06-2.21.02-.78.04-1.58.06-2.38.01-.68.03-1.36.04-2.02.01-.7.02-1.42.03-2.13.01-.72.02-1.47.03-2.24,0-.75.02-1.54.02-2.34,0-.78.01-1.57.02-2.43,0-.8,0-1.62.01-2.51,0-.79,0-1.63,0-2.57,0-.85,0-1.73,0-2.61,0-.86,0-1.75,0-2.63,0-.89,0-1.77,0-2.64,0-.89,0-1.77,0-2.64,0-.89,0-1.76,0-2.62,0-.87,0-1.73,0-2.57,0-.85,0-1.68,0-2.5,0-.79,0-1.56-.01-2.32,0-.72,0-1.43-.01-2.11,0-.65,0-1.29-.01-1.91,0-.59,0-1.15-.01-1.7,0-.52,0-1.02-.01-1.5,0-.45,0-.89-.01-1.3,0-.39,0-.76-.01-1.12,0-.33,0-.65-.01-.94,0-.28,0-.53-.01-.77,0-.22,0-.43,0-.61,0-.17,0-.33,0-.47,0-.08,0-.16,0-.22,0-.07,0-.12,0-.18,0-.05,0-.09,0-.13h0s0-.06,0-.08" class="cls-3"/><rect height=".76" width="3.51" y="182.32" x="271.32" class="cls-3"/><path d="M273.52,176.24s0,0,0,0h-1.38s0,0,0,0c0,0,0,0,0,0h-.64v6.08h3.15v-6.08h-1.11s0,0,0,0Z" class="cls-3"/><polygon points="274.65 195.92 271.5 195.92 271.5 195.92 271.41 195.92 271.41 196.55 271.51 196.55 271.51 196.55 274.63 196.55 274.63 196.55 274.74 196.55 274.74 195.92 274.65 195.92 274.65 195.92" class="cls-3"/><polygon points="270.94 190.54 274.87 190.54 275.2 190.54 275.2 188.25 274.87 188.25 270.94 188.25 270.94 190.54" class="cls-3"/><polygon points="271.51 195.9 274.64 195.9 274.74 191.48 274.48 191.48 271.41 191.48 271.51 195.9" class="cls-3"/><rect height=".91" width="2.12" y="190.56" x="272.01" class="cls-3"/><polygon points="271.22 185.11 271.22 185.65 274.92 185.65 274.92 185.11 271.97 185.11 271.22 185.11" class="cls-3"/><polygon points="270.89 183.63 270.89 185.11 275.25 185.11 275.25 183.63 271.78 183.63 270.89 183.63" class="cls-3"/><rect height="2.57" width="3.33" y="185.67" x="271.41" class="cls-3"/><polygon points="274.28 202.2 271.64 202.2 271.38 202.92 274.51 202.92 274.77 202.92 274.5 202.2 274.28 202.2" class="cls-3"/><polygon points="274.61 197.19 274.62 196.56 271.52 196.56 271.53 197.19 274.61 197.19" class="cls-3"/><polygon points="271.64 202.18 274.28 202.18 274.5 202.18 274.6 197.86 271.55 197.86 271.64 202.18" class="cls-3"/><polygon points="274.62 197.21 271.53 197.21 271.53 197.21 271.41 197.21 271.41 197.84 271.54 197.84 271.54 197.84 274.6 197.84 274.6 197.84 274.74 197.84 274.74 197.21 274.62 197.21 274.62 197.21" class="cls-3"/><polygon points="271.37 202.93 271.37 203.66 274.51 203.66 274.77 203.66 274.77 202.93 274.51 202.93 271.37 202.93" class="cls-3"/><path d="M269.51,113.47c0-.48,0-.94,0-1.4,0-.59,0-1.15-.01-1.7,0-.52,0-1.02-.01-1.5,0-.45,0-.89-.01-1.3,0-.39,0-.76-.01-1.12,0-.33,0-.65-.01-.94,0-.28,0-.53-.01-.77,0-.22,0-.43,0-.61,0-.12,0-.23,0-.33l-.14-.05c-.85-.28-1.51-.91-1.83-1.74v12.86c.32-.12.63-.29.9-.5l1.18-.91Z" class="cls-3"/><path d="M269.31,113.88c0,.38,0,.77,0,1.16,0,.65,0,1.36.01,2.19,0,.84.01,1.62.02,2.38,0,.73.01,1.44.02,2.12,0,.76.02,1.51.03,2.25,0,.76.02,1.56.03,2.38.01.84.02,1.69.04,2.51.01.83.03,1.69.04,2.63.02,1.05.03,1.91.05,2.72,0,.23,0,.46.01.69,0-.3,0-.6,0-.91" class="cls-3"/><line y2="103.58" x2="269.34" y1="103.61" x1="269.41" class="cls-3"/></g><polyline points="267.44 101.24 267.44 53.73 269.18 53.73 269.18 103.54" class="cls-3"/><path d="M248.64,23.84l-3.04-2.42-.39.48,3.05,2.43c.04-.22.18-.41.38-.49Z" class="cls-3"/><path d="M248.95,16.6c-4.36,0-7.9,3.51-7.9,7.85v15.73c0,4.34,3.53,7.85,7.9,7.85s7.9-3.51,7.9-7.85v-15.73c0-4.34-3.53-7.85-7.9-7.85ZM248.86,30.72c-3.49,0-6.32-2.81-6.32-6.28s2.83-6.28,6.32-6.28,6.32,2.81,6.32,6.28-2.83,6.28-6.32,6.28Z" class="cls-3"/><g><path d="M250.54,41.38h-4.48c-.23,0-.42-.19-.42-.41h0c0-.23.19-.41.42-.41h4.48c.23,0,.42.19.42.41h0c0,.23-.19.41-.42.41Z" class="cls-5"/><path d="M253.01,33.99c-.12-.17-.36-.21-.53-.1-.23.15-.55.35-.73.47-.04.03-.07.06-.08.11-.02.05-.03.11-.05.16-.13.31-.32.57-.6.74-.14.08-.3.13-.47.13-.26,0-.5-.06-.73-.16,0,0-.02,0-.03-.01-.23-.1-.5.01-.58.25-.17.53-.45,1.4-.62,1.91-.03.09-.06.19-.09.28-.01.04-.03.05-.07.05-.08,0-.16,0-.24,0-.43,0-.79.15-1.09.46-.22.23-.36.5-.4.81,0,.06-.02.13-.02.19,0,.08,0,.19,0,.3,0,.26.22.48.48.48.58,0,1.57,0,2.25,0,.18,0,.36-.05.51-.15.24-.15.59-.37.61-.38,1.34-.88,2.68-1.75,4.01-2.62.21-.14.26-.42.12-.63-.02-.02-1.17-1.62-1.66-2.3ZM250.75,37.77c-.06.18-.09.38-.1.57,0,.14,0,.29.05.42,0,.03-1.11.78-1.13.78-.74,0-1.55,0-2.29,0-.02,0-.03,0-.05,0-.02,0-.04,0-.04-.03,0-.13,0-.26.03-.39.05-.22.16-.4.33-.54.17-.14.37-.22.59-.22.09,0,.22,0,.35,0,.22,0,.41-.14.48-.34,0,0,0,0,0,0,.02-.06.02-.07.07-.05.12.03.23.07.35.11.06.02.12.04.17.06.03.01.05,0,.05-.04.01-.13.04-.25.11-.36.04-.06.03-.09-.01-.1-.1-.03-.2-.06-.31-.1-.08-.03-.16-.05-.25-.08.06-.18.12-.36.17-.53.22.07.43.14.65.21.05-.16.1-.31.15-.47,0-.02,0-.03-.02-.04-.06-.02-.11-.04-.17-.05-.14-.04-.28-.09-.42-.13-.03,0-.04-.02-.03-.05.06-.17.11-.34.17-.51.04.02.09.03.13.05.4.15.82.19,1.26.02.16-.06.32-.16.45-.27.28-.24.47-.53.6-.86.01-.03.02-.06.05-.07.17-.11.33-.22.49-.32,0,0,.01,0,.01,0,.19.3.58.76.55.82-.08.17-.19.32-.32.45-.27.29-.58.53-.93.73-.3.18-.58.38-.81.65-.18.21-.32.45-.41.71ZM251.19,38.49s-.01-.08-.01-.11c0-.06,0-.11.01-.17.02-.25.11-.47.25-.67.18-.26.41-.45.68-.62.21-.13.42-.26.62-.41.25-.19.48-.4.68-.65.05-.07.1-.14.16-.21.21.29.42.58.62.87-1,.65-2,1.31-3,1.96Z" class="cls-5"/></g><path d="M249.28,43.41c-.07-.07-.19-.07-.26,0l-.58.57v-1.53c0-.1-.08-.18-.19-.18s-.19.08-.19.18v1.53l-.58-.57c-.07-.07-.19-.07-.26,0-.07.07-.07.19,0,.26l.9.89s.08.05.13.05.09-.02.13-.05l.9-.89c.07-.07.07-.19,0-.26Z" class="cls-5"/></g><path d="M248.24,24.45c0-.37.3-.66.67-.66s.67.3.67.66-.3.66-.67.66-.67-.3-.67-.66Z" class="cls-3"/></g><g><g id="MTEXT-2"><g><path d="M409.91,143.93c-.24-.12-.44-.29-.61-.51-.17-.22-.3-.5-.39-.82s-.14-.69-.14-1.09.05-.8.15-1.15c.1-.35.24-.64.43-.89.18-.25.41-.43.67-.56.26-.13.55-.2.88-.2.37,0,.7.09.97.27.27.18.47.43.59.76l-.64.29c-.07-.21-.18-.37-.34-.48-.16-.11-.35-.17-.56-.17-.2,0-.38.05-.55.14s-.31.23-.44.4c-.13.17-.22.37-.29.61s-.1.49-.1.77v.17c0,.06,0,.1,0,.15.08-.25.23-.45.45-.59.22-.14.48-.21.79-.21.24,0,.46.04.65.12.2.08.36.19.5.34.14.15.25.32.33.52.08.2.12.42.12.66s-.04.47-.13.68c-.08.21-.2.38-.35.53-.15.14-.32.26-.53.34s-.43.12-.68.12c-.3,0-.57-.06-.81-.18ZM411.08,143.36c.12-.05.22-.12.3-.21.08-.09.15-.19.2-.31.05-.12.07-.26.07-.41s-.02-.29-.07-.41c-.05-.12-.12-.23-.2-.32s-.19-.16-.31-.21-.25-.07-.4-.07-.27.02-.39.07-.22.12-.31.2c-.09.09-.15.19-.2.31-.05.12-.07.25-.07.4s.03.28.08.41.12.24.21.34.2.17.32.22c.12.05.26.08.4.08s.26-.03.38-.08Z"/><path d="M415.01,138.76v5.29h-.72v-4.54l-1.3.64v-.73l1.36-.67h.67Z"/><path d="M418.71,138.91c.25.13.47.32.65.55.18.23.32.52.42.85.1.33.15.69.15,1.08s-.05.76-.15,1.1-.24.62-.42.86c-.18.24-.4.43-.65.56-.25.13-.52.2-.83.2s-.57-.07-.82-.2-.47-.32-.65-.56c-.18-.24-.32-.53-.42-.86-.1-.33-.15-.7-.15-1.1s.05-.75.15-1.08c.1-.33.24-.61.42-.85.18-.24.4-.42.65-.55.25-.13.53-.2.83-.2s.58.07.83.2ZM417.36,139.54c-.16.1-.29.23-.41.41-.11.18-.2.38-.27.63-.07.24-.1.51-.1.81s.03.57.09.82c.06.25.15.46.27.64.12.18.25.32.41.42.16.1.33.15.52.15s.37-.05.53-.15c.16-.1.3-.24.41-.42.11-.18.2-.39.27-.64.06-.25.09-.52.09-.82s-.03-.56-.09-.81c-.06-.25-.15-.46-.26-.63-.11-.17-.25-.31-.41-.41-.16-.1-.34-.15-.53-.15s-.37.05-.52.15Z"/><path d="M423.54,140.41v.67c.11-.24.26-.42.45-.54.18-.12.4-.18.63-.18.26,0,.48.07.67.2.19.14.32.33.41.59.11-.26.27-.45.46-.59.2-.14.43-.2.7-.2.38,0,.67.12.88.37.21.25.31.61.31,1.07v2.25h-.7v-2.16c0-.29-.07-.52-.2-.69-.13-.17-.31-.25-.54-.25-.12,0-.22.02-.32.07-.1.05-.18.11-.26.2-.07.09-.13.19-.16.32-.04.12-.06.26-.06.4v2.11h-.7v-2.16c0-.14-.02-.27-.06-.38-.04-.12-.09-.22-.15-.3-.06-.08-.14-.14-.23-.19-.09-.04-.2-.07-.31-.07s-.22.02-.32.07c-.1.05-.18.12-.25.21-.07.09-.12.2-.17.32-.04.12-.06.26-.06.41v2.09h-.7v-3.64h.68Z"/><path d="M429.72,140.41v.67c.11-.24.26-.42.45-.54.18-.12.4-.18.63-.18.26,0,.48.07.67.2.19.14.32.33.41.59.11-.26.27-.45.46-.59.2-.14.43-.2.7-.2.38,0,.67.12.88.37.21.25.31.61.31,1.07v2.25h-.7v-2.16c0-.29-.07-.52-.2-.69-.13-.17-.31-.25-.54-.25-.12,0-.22.02-.32.07-.1.05-.18.11-.26.2-.07.09-.13.19-.16.32-.04.12-.06.26-.06.4v2.11h-.7v-2.16c0-.14-.02-.27-.06-.38-.04-.12-.09-.22-.15-.3-.06-.08-.14-.14-.23-.19-.09-.04-.2-.07-.31-.07s-.22.02-.32.07c-.1.05-.18.12-.25.21-.07.09-.12.2-.17.32-.04.12-.06.26-.06.41v2.09h-.7v-3.64h.68Z"/></g></g><g><line y2="147.97" x2="365.4" y1="147.97" x1="477.81" class="cls-3"/><rect height="1.95" width=".3" y="147" x="477.66" class="cls-5"/><rect height="1.95" width=".3" y="147" x="365.25" class="cls-5"/></g><g id="MTEXT-3"><g><path d="M329.63,240.07h.65v1.92l1.54.25c-.09-.1-.16-.22-.21-.36-.05-.14-.07-.29-.07-.46,0-.25.04-.47.13-.68.08-.21.2-.38.35-.53.15-.15.33-.27.54-.35.21-.08.44-.12.69-.12s.48.04.7.13c.21.09.4.21.55.36.15.16.27.34.36.56.08.21.13.45.13.71,0,.2-.03.39-.08.58s-.13.35-.23.5c-.1.15-.22.28-.36.39-.14.11-.3.19-.48.24l-.31-.63c.24-.07.43-.19.56-.39.14-.19.21-.42.21-.67,0-.15-.03-.29-.08-.41-.05-.13-.12-.23-.21-.33-.09-.09-.2-.16-.33-.21-.13-.05-.27-.08-.43-.08s-.3.03-.44.08c-.13.05-.25.13-.34.22s-.17.21-.22.34c-.05.13-.08.28-.08.44,0,.18.04.35.1.49.07.14.17.26.31.36l-.15.62-2.79-.47v-2.52Z"/><path d="M334.91,238.68l-4.62-1.78v2.69h-.67v-3.5h.59l4.7,1.77v.83Z"/><path d="M329.77,232.84c.13-.25.32-.47.55-.65.23-.18.52-.32.85-.42.33-.1.69-.15,1.08-.15s.76.05,1.1.15.62.24.86.42c.24.18.43.4.56.65.13.25.2.52.2.83s-.07.57-.2.82-.32.47-.56.65c-.24.18-.53.32-.86.42-.33.1-.7.15-1.1.15s-.75-.05-1.08-.15c-.33-.1-.61-.24-.85-.42-.24-.18-.42-.4-.55-.65-.13-.25-.2-.53-.2-.83s.07-.58.2-.83ZM330.41,234.2c.1.16.23.29.41.41.18.11.38.2.63.27.24.07.51.1.81.1s.57-.03.82-.09c.25-.06.46-.15.64-.27.18-.12.32-.25.42-.41.1-.16.15-.33.15-.52s-.05-.37-.15-.53c-.1-.16-.24-.3-.42-.41-.18-.11-.39-.2-.64-.27-.25-.06-.52-.09-.82-.09s-.56.03-.81.09c-.25.06-.46.15-.63.26-.17.11-.31.25-.41.41-.1.16-.15.34-.15.53s.05.37.15.52Z"/><path d="M331.27,228.02h.67c-.24-.11-.42-.26-.54-.45-.12-.18-.18-.4-.18-.63,0-.26.07-.48.2-.67.14-.19.33-.32.59-.41-.26-.11-.45-.27-.59-.46-.14-.2-.2-.43-.2-.7,0-.38.12-.67.37-.88.25-.21.61-.31,1.07-.31h2.25v.7h-2.16c-.29,0-.52.07-.69.2-.17.13-.25.31-.25.54,0,.12.02.22.07.32.05.1.11.18.2.26.09.07.19.13.32.16.12.04.26.06.4.06h2.11v.7h-2.16c-.14,0-.27.02-.38.06-.12.04-.22.09-.3.15-.08.06-.14.14-.19.23-.04.09-.07.2-.07.31s.02.22.07.32c.05.1.12.18.21.25.09.07.2.12.32.17.12.04.26.06.41.06h2.09v.7h-3.64v-.68Z"/><path d="M331.27,221.83h.67c-.24-.11-.42-.26-.54-.45-.12-.18-.18-.4-.18-.63,0-.26.07-.48.2-.67.14-.19.33-.32.59-.41-.26-.11-.45-.27-.59-.46-.14-.2-.2-.43-.2-.7,0-.38.12-.67.37-.88.25-.21.61-.31,1.07-.31h2.25v.7h-2.16c-.29,0-.52.07-.69.2-.17.13-.25.31-.25.54,0,.12.02.22.07.32.05.1.11.18.2.26.09.07.19.13.32.16.12.04.26.06.4.06h2.11v.7h-2.16c-.14,0-.27.02-.38.06-.12.04-.22.09-.3.15-.08.06-.14.14-.19.23-.04.09-.07.2-.07.31s.02.22.07.32c.05.1.12.18.21.25.09.07.2.12.32.17.12.04.26.06.41.06h2.09v.7h-3.64v-.68Z"/></g></g><g><line y2="282.67" x2="338.84" y1="177.65" x1="338.84" class="cls-3"/><rect height=".3" width="1.95" y="177.5" x="337.86" class="cls-5"/><rect height=".3" width="1.95" y="282.52" x="337.86" class="cls-5"/></g><g><path d="M430.22,187.04v-1.74M428.74,185.3v1.74M430.22,185.3v-1.87M428.74,183.43v1.87M430.22,188.86v-1.82M428.74,187.04v1.82M428.74,188.86v1.89M430.22,190.76v-1.89M430.22,183.43v-1.91M428.74,181.52v1.91M428.74,192.23v2.22M430.22,194.45v-2.22M430.22,181.52h-1.48M430.22,190.76h-1.48M428.74,190.76v1.48M430.22,181.52v-.92M428.74,180.59v.92M430.22,192.23v-1.48M430.22,178.75v-.92M430.22,177.82h-1.48M428.74,178.75v1.85M428.74,177.82v.92M430.22,180.59v-1.85M459.35,209.69h2.03M459.35,208.77h2.03M456.3,194.45h-89.54M366.76,224.01h89.54M366.76,194.45h-1.48M365.29,224.01v-29.56M366.76,224.01h-1.48M457.81,224.01v-29.56M457.78,224.01h-1.48M457.78,194.45h-1.48M439.47,191.31v3.14M446.68,191.31v3.14M446.68,191.31v-.11s-.04-.1-.04-.1l-.05-.1-.07-.08-.08-.07-.1-.05-.1-.03h-.11M446.13,190.76h-6.1M440.02,190.76h-.11s-.1.04-.1.04l-.1.05-.08.07-.07.08-.05.1-.03.1v.11M448.53,227.15v-3.14M448.53,227.15v.11s.04.1.04.1l.05.1.07.08.08.07.1.05.1.03h.11M449.09,227.7h6.1M455.19,227.7h.11s.1-.04.1-.04l.1-.05.08-.07.07-.08.05-.1.03-.1v-.11M455.75,227.15v-3.14M439.47,227.15v-3.14M446.68,227.15v-3.14M439.47,227.15v.11s.04.1.04.1l.05.1.07.08.08.07.1.05.1.03h.11M440.02,227.7h6.1M446.13,227.7h.11s.1-.04.1-.04l.1-.05.08-.07.07-.08.05-.1.03-.1v-.11M430.4,227.15v-3.14M437.62,227.15v-3.14M430.4,227.15v.11s.04.1.04.1l.05.1.07.08.08.07.1.05.1.03h.11M430.96,227.7h6.11M437.06,227.7h.11s.1-.04.1-.04l.1-.05.08-.07.07-.08.05-.1.03-.1v-.11M419.49,191.31v3.14M419.49,191.31v-.11s-.04-.1-.04-.1l-.05-.1-.07-.08-.08-.07-.1-.05-.1-.03h-.11M412.83,190.76h-.11s-.1.04-.1.04l-.1.05-.08.07-.07.08-.05.1-.03.1v.11M418.93,190.76h-6.1M412.27,191.31v3.14M419.49,227.15v-3.14M412.27,227.15v-3.14M412.27,227.15v.11s.04.1.04.1l.05.1.07.08.08.07.1.05.1.03h.11M412.83,227.7h6.1M418.93,227.7h.11s.1-.04.1-.04l.1-.05.08-.07.07-.08.05-.1.03-.1v-.11M428.55,191.31v3.14M428.55,191.31v-.11s-.04-.1-.04-.1l-.05-.1-.07-.08-.08-.07-.1-.05-.1-.03h-.11M428,190.76h-6.1M421.89,190.76h-.11s-.1.04-.1.04l-.1.05-.08.07-.07.08-.05.1-.03.1v.11M421.34,191.31v3.14M430.4,191.31v3.14M430.96,190.76h-.11s-.1.04-.1.04l-.1.05-.08.07-.07.08-.05.1-.03.1v.11M437.62,191.31v3.14M437.62,191.31v-.11s-.04-.1-.04-.1l-.05-.1-.07-.08-.08-.07-.1-.05-.1-.03h-.11M437.06,190.76h-6.11M455.75,191.31v-.11s-.04-.1-.04-.1l-.05-.1-.07-.08-.08-.07-.1-.05-.1-.03h-.11M449.09,190.76h-.11s-.1.04-.1.04l-.1.05-.08.07-.07.08-.05.1-.03.1v.11M455.19,190.76h-6.1M455.75,191.31v3.14M448.53,191.31v3.14M428.55,227.15v-3.14M421.34,227.15v-3.14M421.34,227.15v.11s.04.1.04.1l.05.1.07.08.08.07.1.05.1.03h.11M421.89,227.7h6.1M428,227.7h.11s.1-.04.1-.04l.1-.05.08-.07.07-.08.05-.1.03-.1v-.11M453.71,283.13h-12.21M447.61,266.5h2.13s.99.06.99.06l.9.12.61.17.52.27.42.38.32.49.21.55.14.62.09.72.05.77.03.87v.89s-.02.91-.02.91l-.05.87-.11.81-.18.72-.26.57-.36.46-.42.31-.51.22-.6.15-.67.09-.84.05-.89.02h-1.05s-1.06,0-1.06,0h-1.07s-1.02-.03-1.02-.03l-.94-.08-.83-.19-.52-.23-.43-.33-.34-.43-.25-.53-.16-.6-.11-.67-.07-.78-.03-.82v-.9s0-.9,0-.9l.04-.89.08-.84.15-.74.24-.64.31-.48.41-.37.48-.25.55-.17.67-.11.73-.06.92-.03h.96s.85,0,.85,0M426.52,283.13h-12.21M420.41,266.5h2.13s.99.06.99.06l.9.12.61.17.52.27.42.38.32.49.21.55.14.62.09.72.05.77.02.87v.89s-.02.91-.02.91l-.06.87-.11.81-.18.72-.26.57-.36.46-.42.31-.51.22-.6.15-.67.09-.84.05-.89.02h-1.05s-1.06,0-1.06,0h-1.07s-1.02-.03-1.02-.03l-.94-.08-.83-.19-.52-.23-.43-.33-.34-.43-.25-.53-.16-.6-.11-.67-.07-.78-.03-.82v-.9s0-.9,0-.9l.04-.89.08-.84.15-.74.23-.64.31-.48.41-.37.48-.25.55-.17.67-.11.73-.06.92-.03h.96s.85,0,.85,0M399.67,180.18h0M399.93,180.2h.04s0,0,0,0h0M399.5,180.21h0s0,0,0,0h.02s.01,0,.01,0h.05s.02,0,.02,0h.05s.02,0,.02,0h.03s.02,0,.02,0h.03s.02,0,.02,0h.03s.02,0,.02,0h.05s.02,0,.02,0h.03M401.17,180.2h0s0,0,0,0h.03s.01,0,.01,0h.05s.02,0,.02,0h.04s.02,0,.02,0h.05s.02,0,.02,0h.11s.1,0,.1,0h.1M401.14,180.19h.03M401.15,180.19h0M400.06,180.19h0M400.56,180.19h0s0,0,0,0h.08s.01,0,.01,0h.23s.01,0,.01,0h.14M401.03,180.19h.06M381.5,193l.04-.13.03-.04-.04.08-.03.09M375.44,192.89l-.18-.46.18.45.09.27-.02-.07M375.1,191.16v.17s.02.41.02.41v.06s.03.2.03.2M459.35,203.5v11.45h0M458.89,202.95v12.55h0M448.24,283.13h0M449.84,283.14h0M445.38,283.13h0M446.98,283.14h0M469.68,217.54h.05M469.73,200.92h-.05M453.71,283.13l.37-.37M441.13,282.76l.37.37M454.08,282.76v-55.06M441.13,227.7v55.06M426.52,283.13l.37-.37M413.94,282.76l.37.37M426.89,282.76v-55.06M413.94,227.7v55.06M404.31,194.45v-1.31M396.91,193.23v1.13s0,.09,0,.09M404.31,193.26h0v-.03h0v-8.97M396.91,184.25v.16s0,.4,0,.4v1.83s0,.43,0,.43v3.64s0,.81,0,.81v1.7h0v.03h0M399.5,180.21h-.07s-.07,0-.07,0h-.02s-.01,0-.01,0h-.09s-.17.01-.17.01h-.03s-.36.02-.36.02h-.04s-.02,0-.02,0l-.37.02-.72.05h-.06s-.03,0-.03,0h-.09s-.64.07-.64.07l-.06.02h-.04s0,.02,0,.02l-.08.06h0s-.05.09-.05.09h0s-.02.1-.02.1v.87s0,.13,0,.13v2.51s0,0,0,0l.02.03h0s.03.02.03.02h0s.02,0,.02,0h.02s.09,0,.09,0h8.08s.02-.02.02-.02h.01s.01-.03.01-.03h0s0-.03,0-.03v-.02s0-.25,0-.25v-.19s0-.3,0-.3v-2.76l-.02-.08h0s-.05-.09-.05-.09h0s-.08-.06-.08-.06h0s-.02,0-.02,0l-.08-.02-.72-.07h-.03s-.02,0-.02,0h-.05s-.73-.06-.73-.06l-.37-.02h-.02s-.03,0-.03,0l-.36-.02h-.18s-.01,0-.01,0h-.02s-.17,0-.17,0h-.01s-.06,0-.06,0M401.15,180.19h-.04s0,0,0,0h-.01M400.56,180.19h-.51s0,0,0,0h-.03s-.02,0-.02,0h-.01M375.54,185.58h-.22s-.1.03-.1.03l-.04.02-.06.06-.02.04-.03.1v.02s0,.1,0,.1v2.74s0,.02,0,.02v.07l.02.94v.16s0,.56,0,.56v.08s.01.38.01.38h0s.01.25.01.25M381.1,185.58h-5.57M381.79,180.58h0s-.09-.08-.09-.08l-.07-.02-.95-.32h-.07s-1.02-.22-1.02-.22l-1.11-.07-1.11.07-1.02.2h-.07s-.94.33-.94.33l-.07.02-.09.08h0M376.02,185.12h-.03s-.2.01-.2.01h-.08l-.09.02h0M376.82,183.01h3.72M375.62,185.16h-.02s-.05.07-.05.07h0s0,.09,0,.09v.26M375.18,180.58l-.02.09h0s0,.04,0,.04h0s.45,2.26.45,2.26v.05M381.35,194.45v-.85l.02-.16v-.05s.01-.03.01-.03l.02-.1.07-.19.04-.11M381.56,192.85l.03-.08.05-.13.04-.11.03-.08.05-.15.04-.15.02-.1v-.12s.03-.16.03-.16v-.02s.01-.28.01-.28v-.04s0-.07,0-.07h0s0-.07,0-.07v-.39s.01-.02.01-.02v-.34s.01-.03.01-.03h0s.01-.41.01-.41h0s.01-.82.01-.82h0s0-.02,0-.02v-.2s0-.15,0-.15v-.15s0-.03,0-.03v-2.17s0-.66,0-.66v-.05h0s-.01-.04-.01-.04l-.02-.09h0s-.09-.1-.09-.1h-.01s-.13-.04-.13-.04h-.01s-.22,0-.22,0M375.51,193.08l.03.1.04.14.02.07v1.06M381.38,185.58h-.33M381.43,185.58v-.26s0-.07,0-.07v-.02s-.02,0-.02,0l-.05-.06M381.35,185.16h0s-.09-.02-.09-.02h-5.17M381.2,183.01h-.17.14M380.47,183.01h.18M381.35,183.01v-.05s.46-2.26.46-2.26v-.04s0,0,0,0l-.02-.09M375.14,191.95v.06s.01.02.01.02l.05.19.05.21v.02M376.16,183.01v1.99s-.03.04-.03.04l-.05.05-.07.02M375.62,183.01h0M375.62,183.01h1.2M375.18,180.58h0M381.35,185.16h0M380.8,183.01h-.26M380.99,185.13l-.11-.04-.05-.05-.02-.04v-.05s0-1.94,0-1.94M381.35,183.01h0,0M380.8,183.01h.33M380.64,183.01h.7M381.79,180.58h0M459.35,203.5l-.46-.55M458.89,215.51l.46-.55M457.78,215.51h1.11M458.89,202.95h-1.11" class="cls-3"/><polyline points="477.99 209.23 477.96 208.5 477.86 207.77 477.7 207.05 477.48 206.35 477.19 205.67 476.85 205.02 476.45 204.4 475.99 203.82 475.49 203.29 474.94 202.8 474.35 202.36 473.73 201.97 473.07 201.64 472.39 201.37 471.68 201.16 470.96 201.02 470.23 200.93 469.5 200.92 468.76 200.97 468.04 201.08 467.32 201.26 466.63 201.5 465.96 201.8 465.31 202.16 464.71 202.57 464.14 203.04 463.61 203.55 463.13 204.11 462.71 204.71 462.33 205.34 462.02 206.01 461.77 206.7 461.57 207.41 461.44 208.13 461.38 208.86 461.38 209.6 461.44 210.33 461.57 211.05 461.77 211.76 462.02 212.45 462.33 213.12 462.71 213.75 463.13 214.35 463.61 214.91 464.14 215.42 464.71 215.89 465.31 216.3 465.96 216.66 466.63 216.96 467.32 217.2 468.04 217.38 468.76 217.49 469.5 217.54 470.23 217.53 470.96 217.44 471.68 217.3 472.39 217.09 473.07 216.82 473.73 216.49 474.35 216.1 474.94 215.66 475.49 215.17 475.99 214.64 476.45 214.06 476.85 213.44 477.19 212.79 477.48 212.11 477.7 211.41 477.86 210.69 477.96 209.97 477.99 209.23" class="cls-3"/><path d="M405.81,191.35c.39,0,.76,0,1.14,0,.36,0,.73,0,1.1,0,.42,0,.82,0,1.23,0,.4,0,.83,0,1.37-.02.44,0,.96-.01,1.52-.03h.11c0-.14.06-.27.16-.37.11-.11.25-.16.4-.16h6.11c.21,0,.39.11.49.28h0c.55-.03,1.11-.05,1.68-.08.12,0,.25-.01.37-.02h0c.1-.11.25-.18.41-.18h3.04s.07,0,.07,0c.55-.03,1.1-.06,1.64-.09l.33-.02c.53-.03,1.05-.06,1.75-.09v-1.7s-.17,0-.17,0c-.17,0-.34,0-.51,0-.55,0-1.1,0-1.65.01-.83,0-1.65,0-2.46.01-.81,0-1.62,0-2.41.01-.78,0-1.55,0-2.3.01-.74,0-1.46,0-2.17,0-.69,0-1.37,0-2.03,0-.64,0-1.27,0-1.89,0-.6,0-1.18,0-1.74,0-.11,0-.22,0-.34,0h-.03c-.2,0-.41,0-.61.01-.38,0-.77.01-1.27.02-.43,0-.84,0-1.23,0-.46,0-.92,0-1.41,0-.48,0-.93,0-1.34,0-.3,0-.58,0-.87,0v.62c0,.24,0,.48,0,.73v.41c0,.15,0,.3,0,.45v.18c.17,0,.34,0,.51,0,.3,0,.63,0,.99,0Z" class="cls-3"/><path d="M404.78,183.76h.04c.2-.02.44-.04.8-.05.21-.01.4-.02.59-.03.21,0,.44-.01.68-.02.22,0,.44,0,.67-.01.2,0,.41,0,.62,0,.18,0,.36,0,.54,0,.13,0,.25,0,.39,0,.1,0,.21,0,.31,0,.09,0,.19,0,.28,0,.13,0,.26,0,.39,0,.17,0,.34,0,.52,0,.21,0,.43,0,.65.01.3,0,.62.01.96.02.36,0,.74.02,1.15.03.39.01.82.02,1.3.04.43.01.87.03,1.31.04l1.24.04c.48.02.97.03,1.47.05.51.02.96.03,1.39.04.47.01.9.02,1.32.03.44.01.86.02,1.26.03.28,0,.57,0,.84.01.24,0,.48,0,.72,0,.19,0,.39,0,.58,0,.15,0,.3,0,.44,0,.12,0,.24,0,.37,0,.2,0,.4,0,.6,0,.26,0,.52,0,.77,0,.32,0,.64,0,.95-.01.38,0,.76-.02,1.13-.03.4-.01.81-.03,1.21-.04.61-.02,1.24-.05,1.86-.09.58-.03,1.2-.07,1.95-.12.67-.04,1.33-.09,2-.13l.24-.02c.59-.04,1.19-.08,1.79-.12.77-.05,1.4-.09,2-.12.65-.04,1.3-.07,1.95-.1.62-.03,1.26-.05,1.88-.08.6-.02,1.22-.04,1.82-.05.58-.01,1.17-.02,1.75-.03.56,0,1.12-.01,1.67-.01.53,0,1.07,0,1.6,0,.51,0,1.02.01,1.52.02.58.01,1.15.03,1.71.04.54.02,1.07.04,1.58.06.49.02.98.05,1.44.08.44.03.88.06,1.29.09.39.03.78.06,1.14.1.35.03.68.07.99.1.3.03.58.07.84.11.25.04.49.07.7.11.13.02.25.05.37.07.11.02.22.05.32.07.1.03.19.05.28.08.09.03.17.06.25.09.06.02.14.06.23.11.07.04.17.1.29.2.06.05.11.11.16.17.06.07.11.15.15.24.05.1.08.2.1.31.02.12.03.25.01.37-.02.13-.05.27-.11.39-.05.1-.12.21-.19.3-.05.05-.1.11-.16.15h0s0,0,0,0c0,0,0,0,0,0,0,0,0,0,0,0-.02.02-.04.03-.07.05-.06.04-.11.07-.17.1-.06.03-.11.05-.17.08-.08.03-.15.05-.25.08-.09.02-.18.04-.29.06-.1.02-.22.04-.34.06-.12.02-.25.03-.39.05-.23.02-.49.05-.76.07-.27.02-.55.04-.85.05-.29.01-.6.02-.92.03-.33,0-.69.01-1.06.02-.35,0-.73,0-1.12,0-.37,0-.76,0-1.18-.01-.39,0-.8-.01-1.25-.02-.4,0-.84-.02-1.33-.03-.43-.01-.89-.02-1.46-.04-.32,0-.64-.02-.98-.03l-.64-.02c-.54-.01-1.13-.03-1.73-.05-.63-.02-1.22-.03-1.79-.04-.6-.01-8.4-.38-8.71-.37h-.04s0,0,0,0c0,0,0,0,0,0h.04c.31-.01,8.11.36,8.71.37.57.01,1.16.02,1.79.04.6.01,1.19.03,1.73.05l.64.02c.33,0,.66.02.98.03.57.02,1.04.03,1.46.04.49.01.92.02,1.33.03.45,0,.86.02,1.25.02.43,0,.81,0,1.18.01.39,0,.77,0,1.12,0,.37,0,.73,0,1.06-.02.33,0,.63-.02.92-.03.3-.01.58-.03.85-.05.28-.02.54-.04.77-.07.14-.02.27-.03.4-.05.13-.02.24-.04.34-.06.11-.02.2-.04.29-.06.09-.02.17-.05.25-.08.06-.02.12-.05.17-.08.06-.03.12-.07.17-.11.03-.02.05-.04.08-.06.03,0,.07.02.11.04.04.01.07.03.1.05.02.01.04.02.07.04l.07.04s0,0,0,0c0,0,0,0,0,0,0,0,0,0,.01.01,0,0,0,0,.02.02l.04.03s0,0,.02.01c0,0,.01.01.02.02,0,0,.01.01.02.02,0,0,.01.01.02.02,0,0,.01.02.02.02.02.02.03.03.05.05.04.05.07.09.1.14.04.06.07.12.1.19.03.08.05.14.06.22,0,.05.01.11.01.16,0,.06,0,.11-.02.16-.01.06-.03.11-.06.16-.03.05-.06.11-.1.16-.04.05-.08.1-.13.15-.04.04-.09.08-.13.12-.03.03-.06.05-.1.08-.03.02-.06.04-.09.07-.02.01-.04.03-.06.04-.01.01-.03.02-.05.04,0,0-.02.01-.03.02h-.01s0,.02-.01.02c0,0,0,0-.01,0h-.01s-.49.21-.55.22c-.07,0-.15.01-.25.02-.09,0-.19.01-.3.02-.12,0-.25.02-.39.03-.15.01-.32.02-.5.03-.18.01-.37.02-.57.03-.32.02-.68.04-1.07.06-.37.02-.77.04-1.19.07-.41.02-.83.05-1.28.07-.46.03-.95.05-1.45.08-.48.03-.98.05-1.5.08-.49.03-1,.05-1.53.08-.5.03-1.01.05-1.54.08-.5.03-1.01.05-1.53.08l-7.59.4c-.78.04-1.58.08-2.38.13-.86.05-1.73.09-2.61.14-.87.05-1.75.09-2.64.14-.88.05-1.76.09-2.65.14-.61.03-1.22.07-2.01.1v-1.59s.18-.02.18-.02c.31,0,.63,0,.94,0l4.95-.03c.83,0,1.64-.01,2.44-.02.82,0,1.62-.01,2.4-.02.8,0,1.59-.01,2.35-.02l4.51-.03c.73,0,1.44-.01,2.13-.02.7,0,1.38,0,2.03-.01.66,0,1.3,0,1.91-.01.5,0,.98,0,1.44,0,.47,0,.91,0,1.34,0,.43,0,.85,0,1.24,0,.4,0,.78,0,1.13,0,.35,0,.69,0,1,0,.29,0,.56,0,.8,0h.63c.17,0,.33,0,.48,0,.13,0,.24,0,.34,0,.1,0,.17,0,.23,0,.05,0,.1,0,.14,0,.05,0,.06,0,.07-.02,0,0,0-.01,0-.01h-.02s0,0,0,0c0,0-.04,0-.05,0-.04,0-.08,0-.14,0-.06,0-.13,0-.23,0-.1,0-.21,0-.34,0-.14,0-.3,0-.48,0h-.63c-.25,0-.52,0-.8,0-.31,0-.64,0-1,0-.36,0-.73,0-1.13,0-.39,0-.81,0-1.24,0-.43,0-.88,0-1.34,0-.46,0-.94,0-1.44,0-.61,0-1.25,0-1.91.01-.65,0-1.33,0-2.03.01-.69,0-1.4.01-2.13.02l-4.51.03c-.77,0-1.55.01-2.35.02-.79,0-1.59.01-2.4.02-.8,0-1.61.01-2.44.02l-4.95.03c-.31,0-.63,0-.95,0h0c-.24,0-.47,0-.71,0-.38,0-.76,0-1.14,0h0s0,0,0,0c-.17,0-.35,0-.52,0-.55,0-1.1,0-1.65.01-.83,0-1.64,0-2.45.01-.81,0-1.62,0-2.41.01-.78,0-1.55,0-2.3.01-.74,0-1.46,0-2.17,0-.69,0-1.37,0-2.03,0-.64,0-1.27,0-1.89,0-.59,0-1.17,0-1.74,0-.11,0-.22,0-.32,0,0,0,0,0,0,0h-.01c-.43,0-.85,0-1.26,0-.5,0-.98,0-1.44,0-.46,0-.9,0-1.3,0-.4,0-.79,0-1.16,0-.43,0-.75,0-1.03-.01-.17,0-.34,0-.51,0h-.03s0-.51,0-.51c0-.43,0-.86,0-1.29,0-.14,0-.28,0-.43v-.16s.04,0,.04,0c.2,0,.41,0,.62,0,.35,0,.75,0,1.23.01.47,0,.95,0,1.42,0,.5,0,1.04,0,1.61,0,.56,0,1.14,0,1.71,0,.56,0,1.16,0,1.79,0,.6,0,1.22,0,1.86,0,.62,0,1.26,0,1.91,0,.64,0,1.29,0,1.95,0,.65,0,1.31,0,1.98,0,.66,0,1.32,0,2,0,.66,0,1.33,0,2.01-.01.66,0,1.33,0,2-.01.66,0,1.33,0,1.99-.01.04,0,.08,0,.12,0,0,0,0,0,0,0s0,0,0,0c.06,0,.11,0,.17,0,0,0,0,0,0,0s0,0,0,0c.49,0,.98,0,1.47,0,0,0,0,0,0,0s0,0,0,0c.06,0,.11,0,.17,0,0,0,0,0,0,0s0,0,0,0c0,0,0,0,0,0,.31,0,.62,0,.93,0h0s0,.02,0,.02c0,0,0,0,0,0h0c.34,0,.69-.01,1.03-.01.66,0,1.31,0,1.96-.01.65,0,1.3,0,1.94-.01.6,0,1.19,0,1.78-.01h2.02c.84-.02,1.66-.03,2.46-.03l8.08-.06c.58,0,1.15,0,1.7-.01.58,0,1.14,0,1.68-.01.57,0,1.11,0,1.63-.01.54,0,1.06,0,1.56,0,.52,0,1,0,1.46,0,.48,0,.92,0,1.33,0,.28,0,.55,0,.8,0,.26,0,.49,0,.72,0,.24,0,.44,0,.62,0h.09s0,0,0,0c0,0,0,0,0,0,0,0,0,0,0,0,0,0,0,0,0-.01,0,0,0,0-.01,0,0,0,0,0-.01,0-.01,0-.04,0-.07-.01h-.02s-.09-.02-.16-.04c-.08-.02-.16-.03-.23-.04-.11-.02-.24-.04-.37-.06-.16-.02-.32-.05-.5-.07-.2-.03-.42-.05-.65-.08-.25-.03-.53-.06-.81-.08-.31-.03-.64-.06-.98-.08-.34-.03-.7-.05-1.07-.08-.37-.02-.75-.05-1.14-.07-.45-.02-.91-.04-1.38-.06-.47-.02-.95-.03-1.43-.05-.47-.01-.96-.02-1.45-.03-.48,0-.96-.01-1.46-.02-.3,0-.61,0-.92,0-.18,0-.35,0-.53,0-.47,0-.95,0-1.42.01-.46,0-.93.01-1.39.02-.48.01-.97.02-1.45.04-.52.02-1.05.03-1.57.05-.57.02-1.14.05-1.7.08-.59.03-1.21.06-1.83.1-.57.03-1.17.07-1.96.13-.4.03-.79.05-1.19.08-.29.02-.58.04-.87.06-.63.04-1.37.09-2.11.14-.71.04-1.35.08-1.96.11-.58.03-1.17.05-1.76.07-.52.02-1.06.03-1.58.04-.47,0-.95.02-1.42.02-.28,0-.56,0-.85,0-.24,0-.48,0-.73,0-.2,0-.41,0-.61,0-.2,0-.41,0-.61,0-.22,0-.43,0-.65,0-.25,0-.51,0-.77-.01-.29,0-.58-.01-.9-.02-.33,0-.67-.02-1.03-.02-.37,0-.75-.02-1.17-.03-.43-.01-.85-.03-1.27-.04-.51-.02-1.02-.03-1.52-.05h-.37c-.59-.03-1.16-.05-1.73-.07-.58-.02-1.08-.03-1.55-.04-.37-.01-.7-.02-1.02-.03-.31,0-.59-.01-.86-.02-.26,0-.51-.01-.75-.01-.24,0-.47,0-.69-.01-.22,0-.43,0-.63,0-.29,0-.57,0-.83,0-.27,0-.55,0-.81,0-.27,0-.54,0-.8.02-.27,0-.52.02-.76.03-.24.01-.47.02-.71.04-.24.02-.44.03-.6.05-.11.01-.2.02-.3.03,0-.2,0-.39,0-.59v-.8c0-.13,0-.27,0-.4v-.17s.37,0,.37,0h.03s.03-.03.03-.03l.02-.03v-.04s.01-.4.01-.4Z" class="cls-2"/></g></g><g><g><rect height=".18" width="1.15" y="20.38" x="41.95" class="cls-5"/><path d="M42.7,19.43c.23,0,.41.19.41.42s-.18.42-.41.42-.41-.19-.41-.42.18-.42.41-.42M42.7,20.09c.13,0,.24-.11.24-.24s-.11-.24-.24-.24-.24.11-.24.24.11.24.24.24" class="cls-5"/><path d="M42.7,18.55s.03,0,.04,0v.62c.12-.02.2-.11.2-.25,0-.1-.04-.17-.11-.21l.06-.16c.14.06.22.19.22.37,0,.26-.17.44-.41.44s-.41-.17-.41-.41.17-.4.41-.4M42.61,18.76c-.09.02-.14.1-.14.2s.06.17.14.21v-.4Z" class="cls-5"/><path d="M42.31,18.26h.03s.04,0,.04-.03c0-.02,0-.03-.02-.05-.04-.04-.06-.09-.06-.16,0-.07.02-.13.07-.18.02-.02.03-.04.03-.06,0-.02,0-.03-.03-.05-.05-.05-.08-.11-.08-.19,0-.16.12-.26.31-.26h.49v.18h-.47c-.11,0-.19.05-.19.14,0,.09.08.15.2.15h.45v.18h-.47c-.11,0-.19.05-.19.14s.08.15.2.15h.45v.18h-.79v-.17Z" class="cls-5"/><path d="M42.61,16.48h.49v.17h-.05s-.04,0-.04.03c0,.02,0,.03.03.05.05.05.07.11.07.19,0,.15-.09.25-.22.25s-.23-.11-.26-.3l-.03-.21c-.09.01-.14.08-.14.19,0,.09.04.15.11.18l-.05.16c-.14-.04-.22-.17-.22-.34,0-.21.13-.37.32-.37M42.78,16.83c.02.11.05.16.11.16s.09-.05.09-.12c0-.12-.09-.2-.23-.21l.03.18Z" class="cls-5"/><path d="M41.95,20.66v.79h1.15v-.19h-.72c-.05,0-.08-.06-.04-.1l.3-.3-.12-.12-.3.3s-.1.01-.1-.04v-.34h-.17Z" class="cls-5"/></g><g><path d="M75.71,268.12l-.02.03c-.22.28-.46.56-.71.84-.06.08-.12.17-.16.27-.04.09-.07.21-.09.34-.02.13-.02.26,0,.37.01.1.03.21.06.31.13.48.24.97.3,1.45.09.67-.17,1.2-.64,1.29-.59.12-1.3-.46-1.59-1.3-.17-.48-.3-.97-.41-1.46-.02-.12-.03-.24-.03-.36,0-.13.02-.25.06-.36.03-.08.08-.16.11-.23,0,.01,0,.03,0,.04.01.06.02.11.04.16,0,0,.18.75.18.75" class="cls-3"/><path d="M76.71,273.39h-.04s.07,0,.1,0c.13,0,.25-.01.38-.02,0,0,0,0,0,0l.26-.07.25-.13.23-.19.2-.25.16-.29.12-.33.07-.34" class="cls-3"/><path d="M74.7,269c-.19.23-.29.52-.3.82,0,0,0,0,0,0,0,0,0,0,0,0h0c0,.11-.01.22,0,.33,0,.04.01.07.02.11v.02s.22.9.22.9c0,0,0,0,0,0,0,0,0,0,0,0,0,0,0,0,0,0,0,0,0,0,0,0,0,0,0,0,0,0,0,0,0,0,0,0,0,0,0,0,0,0h-1.59s0,0,0,0c0,0,0,0,0,0,0,0,0,0,0,0l-.23-.93" class="cls-3"/><path d="M77.29,273.36l2.71-.36h0s.01,0,.01,0h.05s0-.02,0-.02c.01,0,.02,0,.03,0,.53-.19.9-.69.93-1.26" class="cls-3"/><path d="M78.09,270.75c-.01.31-.04.7-.08,1.01" class="cls-3"/><path d="M78.42,271.78c.04-.3.06-.69.07-.99" class="cls-3"/><g><g><path d="M133.95,158.79c.42-.72.81-1.43,1.15-2.11.36-.72.7-1.47,1.01-2.22.31-.77.6-1.55.86-2.33.26-.8.49-1.63.69-2.44.2-.83.37-1.69.51-2.55.14-.87.25-1.76.32-2.64.07-.9.12-1.81.12-2.72,0-.92-.02-1.85-.08-2.77-.06-.93-.16-1.88-.29-2.81,0-.04-.01-.09-.02-.13,0,0,0,0,0,0,0,0,0-.02,0-.03-.13-.88-.29-1.77-.48-2.65-.2-.93-.44-1.87-.71-2.79-.27-.91-.57-1.84-.91-2.75-.33-.91-.7-1.82-1.09-2.69-.37-.83-.78-1.69-1.26-2.62-.53-1.02-.98-1.82-1.43-2.53-.16-.25-.32-.5-.48-.74v4.81h0c.13.25.27.51.4.76.42.82.81,1.71,1.28,2.91.31.8.58,1.53.81,2.23.24.74.47,1.49.67,2.26.2.76.38,1.52.53,2.27.15.76.28,1.53.38,2.28.1.75.18,1.52.23,2.28.05.75.08,1.52.08,2.27,0,.75-.02,1.5-.07,2.24-.05.74-.12,1.48-.21,2.2-.09.72-.21,1.45-.35,2.15-.14.71-.31,1.42-.5,2.12-.19.71-.42,1.41-.66,2.1-.24.67-.51,1.37-.82,2.06-.33.75-.65,1.41-.97,2.02-.26.47-.53.94-.8,1.4v4.28c.27-.35.54-.72.8-1.09.42-.59.84-1.26,1.3-2.03Z" class="cls-3"/><rect height="12.54" width="1.09" y="18.2" x="131.85" class="cls-1"/><path d="M135.53,148.19c.02-.09.04-.18.06-.26.14-.7.26-1.43.35-2.15.09-.72.16-1.46.21-2.2.05-.74.07-1.49.07-2.24,0-.75-.03-1.52-.08-2.27-.05-.76-.13-1.53-.23-2.28-.02-.16-.04-.32-.07-.48,0,.47,0,.95-.03,1.42-.03.59-.1,1.2-.2,1.87-.09.6-.22,1.21-.36,1.81-.13.57-.29,1.15-.48,1.78-.17.55-.36,1.13-.58,1.77-.19.54-.4,1.12-.64,1.78-.27.73-.64,1.68-1.05,2.64-.2.47-.42.95-.63,1.41h0v5.32h0s.04-.07.06-.11c.36-.6.68-1.22,1.04-1.96.36-.73.67-1.38.95-1.99.3-.66.6-1.34.87-2.01.25-.61.5-1.24.73-1.84,0,0,0,0,0,0Z" class="cls-3"/><polygon points="133.4 18.75 132.96 18.21 132.96 30.72 133.4 30.19 133.4 18.75" class="cls-1"/><path d="M132.35,119.99c.45.71.9,1.51,1.43,2.53.48.93.89,1.78,1.26,2.62.39.87.76,1.78,1.09,2.69.33.91.64,1.83.91,2.75.27.92.51,1.86.71,2.79.18.84.34,1.68.46,2.52,0-.42-.02-.85-.04-1.28-.03-.57-.09-1.19-.18-1.88-.08-.64-.18-1.27-.3-1.88-.14-.74-.31-1.49-.51-2.25-.19-.75-.42-1.5-.66-2.25-.25-.75-.52-1.52-.82-2.27-.3-.77-.64-1.53-.99-2.28-.35-.75-.74-1.51-1.15-2.27-.32-.59-.62-1.11-.92-1.6-.26-.42-.53-.84-.79-1.25v2.55h0c.16.25.33.51.5.77Z" class="cls-3"/><path d="M135.48,225.29h-.01s0,0,0,0h0l-3.62.21v4.61l10.33-.61c1.52-.09,2.68-1.4,2.59-2.92v-1.84s-9.29.55-9.29.55Z" class="cls-3"/><polygon points="135.42 224.37 135.48 225.27 135.48 225.27 152.02 224.29 151.97 223.38 135.42 224.37" class="cls-1"/></g><rect height="273.25" width="7.03" y="7.94" x="104.59" class="cls-3"/><rect height="45" width="45.06" y="7.94" x="41.26" class="cls-3"/><path d="M131.85,283.14H39.31V5.98h92.54v277.16ZM41.26,281.19h88.65V7.93H41.26v273.26Z" class="cls-3"/><g><path d="M72.41,21.12c-.48,0-.96.06-1.41.18l-1.6-4.3h.79c.36,0,.65-.29.65-.65s-.29-.65-.65-.65h-1.72c-.21,0-.41.1-.53.28-.12.17-.15.4-.07.6l.73,1.96h-8.24l-.57-1.54h.93c.36,0,.65-.29.65-.65s-.29-.65-.65-.65h-3.16c-.36,0-.65.29-.65.65s.29.65.65.65h.86l.78,2.1-1.58,2.6c-.74-.37-1.57-.57-2.45-.57-3.14,0-5.69,2.62-5.69,5.85s2.55,5.85,5.69,5.85c2.92,0,5.34-2.28,5.65-5.2h2s0,0,0,0c.02,0,.04,0,.07,0,0,0,.01,0,.02,0,.02,0,.03,0,.05,0,0,0,.01,0,.02,0,.01,0,.03,0,.04-.01,0,0,.02,0,.02,0,0,0,0,0,.01,0,0,0,.01,0,.02,0,0,0,.02,0,.03-.01.01,0,.02-.01.03-.02,0,0,.02,0,.02-.01.01,0,.03-.02.04-.03,0,0,.01,0,.02-.01.02-.01.03-.03.05-.04,0,0,0,0,0,0,.02-.02.03-.03.05-.05h0s6-6.97,6-6.97l.5,1.35c-1.83.97-3.08,2.94-3.08,5.2,0,3.23,2.55,5.85,5.69,5.85s5.69-2.62,5.69-5.85-2.55-5.85-5.69-5.85ZM59.75,20.64l2.12,5.68h-1.07c-.17-1.59-.96-2.98-2.11-3.93l1.07-1.75ZM59.49,26.33h-3.2l1.71-2.81c.79.7,1.34,1.69,1.49,2.81ZM55.14,31.53c-2.42,0-4.4-2.04-4.4-4.56s1.97-4.56,4.4-4.56c.63,0,1.23.14,1.78.39l-2.33,3.83c-.12.2-.13.45-.01.65.11.2.33.33.56.33h4.35c-.3,2.21-2.14,3.91-4.35,3.91ZM63.02,25.72l-2.2-5.89h7.27l-5.07,5.89ZM72.41,31.53c-2.42,0-4.4-2.04-4.4-4.56,0-1.7.91-3.19,2.24-3.97l1.57,4.2c.1.26.34.42.61.42.08,0,.15-.01.23-.04.33-.13.5-.5.38-.83l-1.57-4.22c.31-.07.62-.11.95-.11,2.42,0,4.4,2.04,4.4,4.56s-1.97,4.56-4.4,4.56Z" class="cls-3"/><g><path d="M67.03,47.32c-.64-.64-.6-.6-.61-.61l-1.69-1.25.65-.66c.53.19,1.12.06,1.52-.34.44-.44.55-1.11.29-1.67-.06-.13-.23-.16-.34-.06l-.54.54c-.08.08-.21.08-.29,0-.08-.08-.08-.21,0-.3l.54-.54c.1-.1.07-.27-.06-.34-.56-.27-1.23-.15-1.66.29-.4.4-.53,1-.34,1.53l-.75.76c-.15-.12.05.08-1.4-1.45l.15-.15c.1-.1.08-.26-.04-.33l-1.12-.67c-.29-.18-.67-.13-.91.11-.24.24-.29.62-.11.91l.67,1.12c.07.12.23.14.33.04l.14-.14c1.44,1.53,1.25,1.32,1.36,1.47,0,0,0,0,0,0l-.67.67c-.53-.19-1.12-.06-1.52.34-.44.44-.55,1.11-.29,1.67.06.13.23.16.34.06l.54-.54c.08-.08.21-.08.29,0,.08.08.08.21,0,.3l-.54.54c-.1.1-.07.27.06.34.2.1.41.14.63.14.38,0,.75-.15,1.03-.43.4-.4.53-1,.34-1.53l.57-.57,1.33,1.62s-.02-.02.57.57c.22.22.5.33.79.33.21,0,.41-.06.59-.19.53-.38.59-1.13.13-1.59ZM61.62,43.66c-.08-.09-.22-.09-.3,0l-.11.11-.53-.89c-.08-.13-.06-.29.05-.4.11-.11.27-.13.4-.05l.89.53-.11.11c-.08.08-.08.21,0,.29,1.66,1.77,1.4,1.5,1.54,1.61l-.32.32c-.11-.14.14.14-1.51-1.62ZM62.62,47.18c.19.4.11.88-.2,1.19-.2.2-.47.31-.74.31-.05,0-.1,0-.15-.01l.3-.3c.24-.25.24-.64,0-.89-.24-.24-.64-.24-.88,0l-.3.3c-.05-.32.06-.65.3-.89.31-.31.79-.39,1.19-.2.08.04.17.02.24-.04l2.53-2.54c.06-.06.08-.16.04-.24-.19-.4-.11-.88.2-1.19.24-.24.57-.34.89-.3l-.3.3c-.12.12-.18.28-.18.44s.07.32.18.44c.24.24.64.24.88,0l.3-.3c.05.32-.06.65-.3.89-.31.31-.79.39-1.19.2-.08-.04-.17-.02-.24.04l-2.53,2.54c-.06.06-.08.16-.04.24ZM63.92,46.27l.51-.52.52.39-.63.63c-.43-.52-.4-.49-.41-.5ZM66.65,48.57c-.24.18-.6.13-.83-.1l-.55-.55-.67-.82.7-.7.86.64.58.58c.26.27.25.72-.08.96Z" class="cls-5"/><path d="M65.6,47.04c-.08-.08-.21-.08-.29,0s-.08.21,0,.3l.83.84c.08.08.21.08.29,0s.08-.21,0-.3l-.83-.84Z" class="cls-5"/></g><path transform="translate(23.78 61.51) rotate(-90)" d="M39.07,17.47h7.15v2.14c0,.36-.29.65-.65.65h-5.86c-.36,0-.65-.29-.65-.65v-2.14h0Z" class="cls-3"/></g><ellipse ry="6.46" rx="6.45" cy="22.71" cx="94.48" class="cls-3"/><ellipse ry="3.03" rx="3.02" cy="22.56" cx="94.39" class="cls-3"/><ellipse ry="6.46" rx="6.45" cy="22.71" cx="121.91" class="cls-3"/><ellipse ry="3.03" rx="3.02" cy="22.71" cx="121.91" class="cls-3"/><path d="M57.17,209.26s-.18-.05-.24-.07c-.14-.05-.27-.14-.41-.26-.1-.09-.2-.2-.27-.31-.07-.1-.13-.21-.19-.33-.05-.1-.09-.22-.13-.33-.07-.22-.12-.46-.14-.72-.02-.24-.03-.5-.01-.78.01-.28.05-.56.08-.82.03-.28.07-.54.13-.8.03-.14.07-.26.12-.38.05-.13.11-.25.17-.35.06-.1.14-.21.22-.3.07-.08.15-.15.24-.23.17-.14.34-.26.51-.38l.05-.03c.15-.1.29-.2.42-.31.14-.12.26-.25.37-.4.11-.15.21-.33.3-.54.09-.2.16-.4.23-.64.04-.16.08-.3.1-.44.03-.14.04-.28.05-.41,0-.13,0-.26,0-.4v-.05c0-.32,0-.65,0-.96M59.27,199.03c0,.3,0,.66,0,.96v.05c0,.14,0,.28,0,.43,0,.15-.03.31-.06.48-.03.16-.07.32-.11.49-.07.26-.15.49-.25.71-.11.24-.22.45-.35.63-.13.18-.28.35-.45.49-.15.13-.31.24-.47.34l-.05.03c-.15.1-.32.21-.46.34-.07.06-.13.12-.19.18-.06.07-.12.14-.16.22-.05.08-.09.17-.13.27-.04.1-.07.2-.1.32-.06.23-.09.47-.12.74-.03.25-.06.52-.08.78-.01.25,0,.48.01.7.02.22.06.43.12.62.03.1.06.19.1.27.04.09.09.17.14.25.06.08.12.15.2.22.09.08.23.16.3.19M61.55,208.81c.09-.02.17-.03.24-.06.06-.02.12-.05.18-.1.11-.08.21-.18.3-.31.08-.13.16-.27.21-.44.06-.18.1-.38.11-.59.02-.21.01-.44-.02-.73-.02-.26-.06-.52-.09-.76-.03-.24-.07-.47-.12-.7-.05-.23-.11-.42-.19-.6-.04-.09-.08-.17-.13-.25-.05-.08-.11-.16-.17-.22-.09-.1-.2-.2-.34-.31-.12-.09-.24-.18-.36-.26-.04-.03-.08-.06-.12-.08-.18-.13-.37-.27-.54-.44-.16-.15-.27-.29-.36-.44-.05-.09-.09-.18-.12-.27-.03-.1-.06-.2-.08-.32-.04-.24-.05-.47-.06-.71,0-.09,0-.18,0-.27v-.02c0-.14,0-.29-.01-.43,0-.1,0-.2-.01-.3,0-.17-.01-.35-.02-.52,0-.2,0-.45,0-.63M60.37,199.04c0,.2,0,.41,0,.61,0,.17,0,.34.02.51,0,.1,0,.2.01.3,0,.15,0,.3.01.44v.02c0,.09,0,.18,0,.26,0,.22.01.43.05.63.02.09.04.17.06.24.02.07.05.13.08.18.06.11.15.21.27.33.15.15.32.27.49.39.04.03.08.05.12.08.12.08.25.18.38.28.17.13.3.25.41.38.08.09.15.19.22.29.06.1.12.2.17.31.09.2.17.43.22.69.06.25.09.49.13.74.03.25.07.52.09.78.03.33.03.58.02.82-.02.25-.06.49-.14.71-.07.22-.16.41-.27.57-.12.18-.26.33-.42.44-.1.07-.2.13-.3.16-.11.04-.21.06-.33.08-.01,0-.03,0-.04,0" class="cls-3"/><g><path d="M50.51,203.65c0,.08,0,.19,0,.27v.13c0,.18,0,.36,0,.54,0,.09,0,.18-.02.27-.01.08-.03.16-.06.23-.06.17-.14.32-.23.45-.08.12-.16.23-.23.34l-.07.1c-.08.12-.19.28-.29.45-.1.16-.18.32-.25.48-.08.17-.13.33-.17.49-.04.17-.05.33-.05.48,0,.15.04.29.09.42.03.07.06.13.1.18.05.06.11.13.18.18.09.07.17.11.24.12.01,0,.02,0,.03,0" class="cls-3"/><path d="M51.63,208.82s.02,0,.03,0c.05,0,.11-.01.17-.03.05-.01.09-.03.13-.05.03-.02.06-.04.09-.06.04-.03.08-.07.12-.12.03-.04.06-.09.08-.14.02-.05.03-.1.04-.16.01-.06.01-.12.01-.19,0-.09-.02-.17-.04-.26-.03-.1-.07-.21-.13-.33-.07-.14-.15-.27-.23-.41l-.03-.05c-.09-.14-.18-.29-.26-.45-.1-.19-.19-.39-.28-.62-.09-.25-.16-.48-.19-.69-.03-.16-.04-.33-.05-.54,0-.19,0-.38,0-.56,0-.08,0-.15,0-.22,0-.09,0-.22,0-.31" class="cls-3"/><path d="M51.61,203.65c0,.1,0,.21,0,.31,0,.07,0,.15,0,.22,0,.18,0,.36,0,.54,0,.18.02.33.04.46.03.18.08.37.17.59.07.2.16.38.25.55.08.14.16.28.25.42l.03.05c.09.15.18.29.26.45.07.15.13.29.16.43.03.13.05.25.05.38,0,.1,0,.2-.02.29-.02.09-.04.18-.08.27-.04.09-.08.18-.14.25-.06.08-.14.16-.22.22-.05.04-.11.08-.17.11-.07.03-.14.06-.22.08-.1.03-.19.04-.29.05-.01,0-.03,0-.04,0,0,0,0,0,0,0" class="cls-3"/><path d="M49.76,209.31s-.04,0-.06,0c-.17-.02-.33-.09-.5-.23-.11-.09-.2-.18-.28-.29-.06-.08-.11-.18-.16-.28-.08-.18-.12-.38-.13-.59-.01-.2,0-.41.06-.63.04-.19.11-.38.2-.58.08-.18.17-.36.28-.54.11-.18.22-.35.31-.48l.07-.1c.07-.11.15-.22.22-.32.07-.1.13-.22.17-.33.02-.05.03-.1.04-.15.01-.07.01-.14.02-.21,0-.17,0-.35,0-.52v-.13c0-.09,0-.18,0-.26" class="cls-3"/></g><path d="M71.08,208.81c.08,0,.17,0,.24-.02.06-.01.13-.04.21-.08.06-.03.11-.07.16-.11.08-.07.15-.16.21-.26.06-.1.11-.22.15-.35.04-.15.07-.31.08-.5.01-.19,0-.39-.01-.66-.02-.24-.04-.48-.07-.71v-.12c-.03-.18-.05-.35-.07-.52-.03-.22-.06-.42-.11-.6-.05-.23-.11-.43-.19-.61-.07-.16-.15-.31-.24-.46-.09-.15-.2-.3-.34-.46-.13-.15-.27-.3-.42-.44-.13-.12-.27-.24-.4-.35l-.07-.06c-.16-.14-.33-.28-.49-.45-.16-.17-.32-.35-.46-.54-.15-.2-.27-.41-.37-.61-.05-.11-.1-.22-.13-.32-.04-.11-.07-.23-.09-.34-.04-.23-.05-.47-.05-.67,0-.16,0-.37,0-.53M69.12,199.02c0,.17,0,.36,0,.53,0,.18,0,.39.04.58.02.09.04.18.07.26.03.08.07.17.11.26.09.18.2.36.33.54.13.17.26.34.41.48.14.15.3.29.45.42l.07.06c.14.12.28.24.42.37.16.15.32.32.46.48.15.17.27.34.38.52.11.17.2.36.28.54.09.21.16.44.22.7.04.19.08.4.11.64.02.18.04.36.06.53v.13c.04.24.07.48.08.73.02.29.03.52.01.73-.01.23-.04.43-.1.62-.05.17-.12.33-.2.47-.09.15-.19.28-.31.38-.07.07-.15.13-.24.18-.12.07-.24.12-.36.14-.12.03-.25.03-.35.03h0M65.54,209.33c-.11,0-.21,0-.32-.02-.1-.02-.2-.05-.31-.1-.09-.04-.17-.09-.25-.14-.09-.06-.17-.14-.25-.23-.08-.09-.15-.2-.2-.31-.06-.11-.1-.23-.14-.37-.03-.12-.06-.24-.09-.4-.05-.25-.08-.51-.09-.77-.01-.25-.01-.51,0-.78.02-.26.04-.54.09-.81.06-.35.12-.64.21-.9.05-.15.11-.3.18-.44.07-.13.14-.26.23-.39.14-.22.32-.43.52-.65.16-.16.33-.33.54-.51.12-.1.23-.2.35-.29.05-.04.1-.08.15-.12.14-.12.29-.24.43-.37.15-.14.27-.27.37-.4.11-.14.2-.3.27-.46.05-.11.09-.23.14-.38.04-.15.08-.28.1-.41.02-.13.04-.27.05-.41.01-.21,0-.45,0-.66M68.02,199.02c0,.2.01.47,0,.69,0,.16-.03.32-.06.48-.03.15-.06.3-.11.46-.05.17-.1.31-.16.45-.09.2-.2.39-.34.57-.11.15-.25.3-.42.46-.15.14-.31.27-.45.4-.05.04-.1.08-.14.12-.12.1-.23.19-.34.29-.2.17-.36.33-.51.48-.19.2-.34.38-.47.57-.07.11-.14.22-.19.33-.06.12-.11.24-.15.37-.08.23-.14.48-.19.81-.04.26-.07.52-.08.76-.01.25-.02.49,0,.72.01.24.04.47.08.7.02.13.05.24.08.34.03.11.07.2.11.28.04.08.09.15.14.21.05.06.1.1.15.14.05.03.1.06.15.09.06.03.12.05.18.06.07.01.14.01.23.01h0" class="cls-3"/><path d="M61.13,221.37h-.13v-12.19s0,0,0,0c0,0,0,0,0,0,0-.02,0-.05,0-.07,0-.03-.02-.05-.03-.08-.01-.02-.02-.03-.04-.04-.01,0-.02-.02-.04-.02-.01,0-.03,0-.04,0h0s0,0,0,0h0s0,0,0,0c0,0,0,0,0,0h-2.95s0,0,0,0c0,0,0,0,0,0,0,0-.02,0-.03,0-.01,0-.03,0-.04.02-.01,0-.03.02-.04.04-.02.02-.03.04-.03.06-.01.03-.01.07-.02.1,0,0,0,0,0,0s0,0,0,0v12.19h-.13" class="cls-3"/><path d="M57.74,206.13v1.93c0,.13.08.24.2.29,0,0,0,0,0,0h0s0,0,0,0c.03.01.06.02.1.02.01,0,.02,0,.03,0h0s0,0,0,0l2.65-.32s.09-.02.13-.05c0,0,0,0,0,0,0,0,0,0,0,0,.08-.06.13-.15.13-.25v-1.78" class="cls-3"/><path d="M57.76,207.42v-.87c.02-.08.1-.13.18-.13.1,0,.18.07.19.17v.65s0,.05,0,.13v.81c-.02.08-.09.14-.18.14-.11-.04-.19-.14-.19-.27v-.63Z" class="cls-3"/><polyline points="57.74 206.59 57.74 205.13 57.61 205.13" class="cls-3"/><path d="M59.08,206.29s0,0,0,0c0,0,0,0,0,0,0,0,0,0,0,0-.1,0-.18.08-.18.17v1.53c0,.1.09.19.19.19s.19-.09.19-.19v-1.53c0-.1-.09-.18-.19-.17Z" class="cls-3"/><path d="M59.65,206.22s0,0,0,0c0,0,0,0,0,0-.1,0-.18.07-.19.17v1.53c0,.1.09.19.19.19s.19-.09.19-.19v-1.53c0-.1-.09-.18-.19-.17Z" class="cls-3"/><path d="M60.6,207.79c0,.1.09.19.19.19.02,0,.04,0,.06-.01.07-.05.12-.14.12-.23v-1.51c-.03-.1-.13-.16-.23-.14-.08.02-.14.09-.14.17v1.53Z" class="cls-3"/><path d="M61.15,205.13v16.23c.23,0,.42-.2.42-.43v-15.37c0-.24-.19-.43-.42-.43Z" class="cls-3"/><polyline points="61.13 205.13 61 205.13 61 206.59" class="cls-3"/><path d="M57.17,205.57v15.37c0,.24.19.43.42.43v-16.23c-.23,0-.42.2-.42.43Z" class="cls-3"/><g><path d="M57.76,219.63v.88c0,.2.16.36.36.36s.36-.16.36-.36v-9.79h-.72v8.91Z" class="cls-3"/><path d="M60.1,211v9.79c0,.2.16.36.36.36s.36-.16.36-.36v-9.79h-.72Z" class="cls-3"/><path d="M58.78,219.75v.88c0,.2.16.36.36.36s.36-.16.36-.36v-9.79h-.72v8.91Z" class="cls-3"/></g><line y2="243.73" x2="68.34" y1="244.34" x1="68.03" class="cls-3"/><line y2="242.98" x2="68.48" y1="243.73" x1="68.34" class="cls-3"/><line y2="244.34" x2="68.03" y1="243.73" x1="67.72" class="cls-3"/><polygon points="67.58 242.06 67.58 242.98 68.03 242.98 68.48 242.98 68.48 242.06 68.03 242.06 67.58 242.06" class="cls-3"/><polygon points="67.58 242.06 68.03 242.06 68.48 242.06 68.48 225.82 67.58 225.82 67.58 242.06" class="cls-3"/><path d="M65.79,224.44l-.05.21h4.59l-.09-.36s0,0,0,0c0,0,0,0,0,0v-.52s0,0,0,0c-.03-.15-.06-.31-.09-.47" class="cls-3"/><path d="M65.7,224.93c0,.1.02.2.07.29.02.04.04.08.06.12,0,0,0,0,0,0,0,0,0,0,0,0v.16c.17.19.42.29.67.29h3.06c.25,0,.5-.11.67-.29v-.16s0,0,0,0c0,0,0,0,0,0h0s.04-.08.06-.12c.04-.09.06-.2.07-.29,0-.09-.01-.19-.03-.28h-4.6c-.02.09-.03.19-.03.28Z" class="cls-3"/><polyline points="66.11 224.51 66.27 224.51 66.27 222.67" class="cls-3"/><path d="M66.29,211.19v12.23c0,.25.2.45.45.45s.45-.2.45-.45v-12.23h-.9Z" class="cls-3"/><polygon points="68.6 199.02 68.87 199.02 68.87 199.02 69.27 199.02 69.27 197.19 68.6 197.19 68.6 199.02" class="cls-3"/><path d="M65.53,210.35s-.17.29-.18.29c-.13,1.35-.07,2.72.18,4.06" class="cls-3"/><path d="M60.23,206.15s0,0,0,0c0,0,0,0,0,0,0,0,0,0,0,0,0,0,0,0,0,0-.1,0-.18.08-.18.17v1.53c0,.1.09.19.19.19s.19-.09.19-.19v-1.53c0-.1-.09-.17-.18-.17Z" class="cls-3"/><line y2="243.73" x2="67.72" y1="242.98" x1="67.58" class="cls-3"/><path d="M58.52,206.36s0,0,0,0c0,0,0,0,0,0s0,0,0,0c0,0,0,0,0,0-.1,0-.18.08-.18.17v1.53c0,.1.09.19.19.19s.19-.09.19-.19v-1.53c0-.1-.09-.17-.18-.17Z" class="cls-3"/><path d="M65.55,204.75v19.21c0,.18.09.34.23.44,0,0,0,0,0,0,0,0,0,0,0,.01h0c.08.06.18.09.29.1v-20.3c-.3,0-.53.25-.53.54Z" class="cls-3"/><polygon points="68.02 197.19 67.67 197.19 67.67 197.19 67.36 197.19 67.36 199.02 68.02 199.02 68.02 197.19" class="cls-3"/><path d="M67.76,180.2v.8h0s0,16.2,0,16.2h1.1v-.37h-.54s0,0,0,0c0,0,0,0,0,0,0,0,0,0,0,0v-7.92c0-2.99,0-5.98,0-8.97,0-2.61,0-5.31,0-7.99,0-3.14-.02-5.67-.05-7.98-.02-1.48-.04-2.99-.06-4.45,0-.42-.01-.84-.02-1.25-.03-1.92-.05-3.8-.05-5.71,0-1.88.03-3.8.08-5.7.04-1.58.1-3.18.16-4.73.01-.32.02-.65.04-.97.07-1.82.14-3.77.18-5.7.03-1.56.04-2.94.03-4.21-.01-1.23-.05-2.53-.11-4.21-.02-.41-.03-.81-.05-1.22-.04-.98-.08-1.99-.11-2.99-.04-1.3-.05-2.67-.05-4.2,0-.97,0-1.97.02-2.92,0-.43,0-.86,0-1.29.01-1.7,0-3,0-4.21,0-.37-.01-.73-.02-1.1,0,0,0,0,0,0h0s0,0,0,0c0-.12,0-.23,0-.35-.03-1.29-.07-2.51-.1-3.51-.03-.86-.06-1.73-.09-2.58-.03-.78-.06-1.59-.09-2.38-.05-1.36-.1-3.16-.13-4.96-.03-1.78-.02-3.4.02-4.96.03-1.31.09-2.7.19-4.51.05-1.01.11-2.03.17-3.03.03-.5.06-.99.09-1.49.08-1.43.16-2.96.22-4.51.05-1.44.08-2.96.09-4.5,0-1.35,0-2.81-.04-4.49-.02-1.36-.06-2.71-.08-3.74-.01-.49-.03-.99-.04-1.48-.02-.75-.04-1.52-.06-2.28-.04-1.5-.06-2.74-.08-3.91-.01-.78-.02-1.43-.02-2.05,0-.47,0-.95,0-1.41h-.54c0,.11,0,.22,0,.33,0,.66,0,1.37.01,2.17,0,.66.02,1.34.03,2.04.01.69.03,1.43.05,2.26.02.77.04,1.55.06,2.21l.02.67c.01.51.03,1.02.04,1.53.03,1.15.06,2.52.09,3.93.02,1.44.03,2.72.03,3.93,0,1.4-.02,2.68-.06,3.93-.05,1.85-.15,3.7-.24,5.28-.03.53-.06,1.05-.09,1.58-.07,1.22-.14,2.47-.21,3.71-.01.22-.02.44-.03.66,0,.06,0,.12,0,.18,0,0,0,0,0,0h0s0,0,0,0c-.08,1.65-.12,3.08-.14,4.44-.02,1.58,0,3.26.04,5.28.04,1.79.11,3.59.17,5.28l.02.48c.06,1.57.12,3.2.16,4.8.04,1.76.07,3.54.06,5.28,0,.94,0,1.91-.02,2.83,0,.8-.01,1.63-.02,2.45,0,1.56,0,2.92.04,4.16.03,1.15.08,2.33.12,3.46,0,.23.02.46.03.69.05,1.32.11,2.74.13,4.15.02,1.28.02,2.63,0,4.15-.04,2.24-.12,4.45-.2,6.53l-.03.78c-.07,1.89-.15,3.83-.19,5.75-.05,2.04-.06,4.18-.05,6.54,0,.53,0,1.07.01,1.61,0,.27.01.55.02.82v.06s0,0,0,0c.01.81.02,1.63.03,2.42,0,.54.02,1.07.02,1.61.03,2.18.05,4.37.07,6.53.01,1.9.02,3.92.02,6.53,0,2.07,0,4.18,0,6.22Z" class="cls-3"/><line y2="199.02" x2="68.58" y1="199.02" x1="68.04" class="cls-3"/><path d="M49.77,248.86c-.12.05-.24.1-.35.16-.14.08-.27.19-.4.32-.12.12-.22.25-.3.39-.09.15-.14.3-.18.45-.04.16-.04.55-.04.55" class="cls-3"/><path d="M49.77,216.11c-.17.19-.26.42-.26.67s.09.49.26.67" class="cls-3"/><path d="M49.77,217.74c-.29-.23-.46-.58-.46-.95s.17-.72.46-.95" class="cls-3"/><polyline points="49.77 215.59 49.15 216.22 49.15 217.36 49.77 217.98" class="cls-3"/><path d="M51.64,253.61c.2-.11.35-.27.47-.44,0,0,.02-.03.02-.04.26-.43.3-.98.04-1.45-.02-.04-.05-.09-.08-.13,0,0,0,0,0,0l-.21-.24-.2-.15s-.03-.01-.04-.02" class="cls-3"/><path d="M49.77,251.16s-.08.04-.12.07c-.02.01-.04.03-.06.04,0,0,0,0-.01,0-.06.05-.11.11-.17.17-.04.06-.09.11-.13.17-.07.12-.13.25-.17.38-.1.37-.05.75.14,1.09.12.22.31.4.52.53" class="cls-3"/><path d="M49.77,249.64c-.15.07-.3.14-.44.23-.11.07-.21.16-.31.26-.01.02-.03.03-.04.05,0,0,0,0,0,0,0,0,0,0,0,0,0,0-.01.01-.02.02-.11.12-.2.26-.27.41-.07.14-.12.27-.14.4,0,0,0,.02,0,.02,0,.01,0,.02,0,.03,0,.03-.03.1-.03.12,0,0,0,.21,0,.2v.08c.02-.08.04-.15.06-.21.06-.17.12-.32.2-.44.08-.13.19-.26.32-.38.14-.13.28-.23.42-.3.09-.04.18-.08.27-.11" class="cls-3"/><path d="M49.77,249.26c-.06.02-.12.04-.17.06-.14.06-.28.15-.43.28-.06.05-.11.1-.16.15-.02.03-.07.08-.07.08-.04.05-.08.1-.12.14-.09.12-.16.26-.23.43-.06.15-.09.27-.1.38v.41" class="cls-3"/><path d="M48.5,251.47c0,.11,0,.33,0,.47,0,0,0,.23,0,.23" class="cls-3"/><path d="M49.77,250.54s-.06.02-.09.03c-.18.06-.34.18-.44.26-.14.12-.26.23-.36.35-.1.13-.18.27-.25.42-.06.14-.1.28-.12.42,0,0,0,0,0,0,0,0,0,.14-.01.14h0s0,.25.01.37c.02.16.07.31.14.46.07.15.16.29.26.41.1.12.22.23.37.34.11.09.27.19.45.25,0,0,.02,0,.03,0" class="cls-3"/><polyline points="51.62 245.01 51.62 217.64 51.62 217.64 51.62 215.94 51.62 215.94 51.62 210.4" class="cls-3"/><path d="M51.62,210.38v-1.59h0v-.57c0-.07-.05-.12-.12-.13h-.02s-1.55,0-1.55,0h-.02c-.07,0-.12.06-.12.13v2.16" class="cls-3"/><path d="M57.15,206.64s-.03.05-.05.07c-.06.1-.09.22-.11.32-.02.11-.04.21-.05.33-.01.13-.01.24,0,.34,0,.1.03.2.06.31.03.12.07.21.12.28.01.02.02.03.03.05" class="cls-3"/><path d="M51.64,253.95c.06-.02.13-.05.19-.08.14-.07.28-.17.43-.31.13-.13.25-.26.34-.4.09-.14.17-.3.22-.46.05-.16.09-.33.1-.5,0-.08,0-.28,0-.36" class="cls-3"/><path d="M50,257.32c.03-.08.07-.16.12-.23.05-.07.12-.13.19-.18.08-.05.16-.09.24-.1.05-.01.11-.01.16-.02,0,0,0,0,0,0,.08,0,.16.02.24.04.07.02.14.06.21.12.07.05.12.11.17.18.05.07.08.15.11.23.02.09.03.17.02.26,0,.09-.03.17-.07.25-.04.08-.08.14-.14.2-.06.06-.13.11-.2.14-.08.04-.16.06-.24.07-.03,0-.06,0-.09,0-.05,0-.11,0-.16-.02-.08-.02-.16-.05-.23-.09-.07-.04-.13-.09-.19-.16-.05-.06-.09-.13-.12-.21-.03-.08-.04-.16-.05-.24,0-.08.01-.17.04-.25Z" class="cls-3"/><path d="M50.42,256.86s0,0,0,0c.18.07.38.07.57,0" class="cls-3"/><line y2="199.02" x2="59.83" y1="199.02" x1="59.29" class="cls-3"/><path d="M59.02,188.3c0,.86,0,1.72,0,2.58,0,.63,0,1.27,0,1.9,0,.65,0,1.31,0,1.96,0,.68,0,1.36,0,2.04v.42h1.1v-.37h-.54s0,0,0,0c0,0,0,0,0,0,0,0,0,0,0,0v-.2s0-.4,0-.4c0-.33,0-.66,0-.99,0-.32,0-.65,0-.97,0-.87,0-1.74,0-2.61,0-.86,0-1.71,0-2.57v-.9c0-2.73,0-5.55,0-8.33,0-2.82,0-5.59-.02-8.23,0-.48,0-.97,0-1.45-.01-2.22-.02-4.51-.02-6.76,0-1.9.03-3.88.07-5.87.01-.66.03-1.33.04-1.98.03-1.27.05-2.59.07-3.89.02-1.87.02-3.85,0-5.88,0-.07,0-.15,0-.22,0,0,0,0,0,0,0-.01,0-.02,0-.03-.02-1.3-.04-2.61-.07-3.88-.01-.58-.02-1.16-.03-1.73-.03-1.85-.06-3.84-.05-5.87,0-1.46.04-3.05.1-4.98.02-.54.03-1.09.05-1.62.04-1.1.07-2.24.1-3.36.04-1.65.05-3.33.04-4.99-.01-1.74-.05-3.5-.09-4.98-.01-.6-.03-1.2-.05-1.79-.03-1.04-.06-2.13-.08-3.19-.04-1.87-.06-3.42-.07-4.89,0-1.53,0-3.08.02-4.59v-.3c.02-1.74.03-3.31.01-4.89-.01-1.59-.05-3.24-.11-4.9-.05-1.39-.12-2.81-.19-4.18v-.28c-.09-1.58-.16-3-.21-4.45-.05-1.53-.08-3.02-.09-4.44,0-1.34.01-2.79.05-4.43.03-1.3.07-2.7.13-4.43.02-.7.05-1.39.08-2.21l.02-.46c.02-.59.04-1.17.07-1.76.03-.85.06-1.56.08-2.22.03-.81.05-1.54.07-2.23.02-.81.04-1.61.05-2.37.01-.58.02-1.09.02-1.58,0-.53,0-1.06,0-1.58h-.53v.05c0,.07,0,.15,0,.22,0,.67,0,1.37-.02,2.15,0,.66-.02,1.33-.04,2.02-.02.71-.04,1.44-.06,2.24-.02.68-.04,1.4-.07,2.19-.03.77-.06,1.53-.08,2.19l-.02.63c-.07,1.71-.13,3.48-.18,5.22-.07,2.26-.1,4.12-.1,5.85,0,1.39.02,2.8.06,4.19.04,1.43.11,2.87.17,4.2.02.42.04.84.06,1.26.05.96.1,1.96.14,2.94.07,1.62.12,2.96.14,4.2.03,1.23.03,2.56.03,4.19,0,.98-.01,1.98-.02,2.94,0,.58,0,1.16-.01,1.74-.01,1.84,0,3.33,0,4.68.02,1.48.05,2.94.09,4.68.01.45.02.9.03,1.35.03,1.09.06,2.22.08,3.33.03,1.28.06,2.96.06,4.68,0,1.48-.02,3.01-.06,4.68-.02.93-.05,1.87-.08,2.78-.02.62-.04,1.27-.06,1.9-.02.71-.04,1.37-.05,2,0,.07,0,.14,0,.22v.12s0,0,0,0h0s0,0,0,0c-.02.82-.03,1.59-.03,2.34-.01,2.33.03,4.69.07,6.98.01.69.03,1.4.04,2.1.06,3.37.07,6.34.04,9.08-.02,1.51-.05,3.04-.08,4.53-.03,1.49-.06,3.04-.08,4.55-.03,2.72-.01,5.48,0,8.15v.92c.02,3.08.03,6.14.03,9.09,0,2.93,0,5.91,0,8.8Z" class="cls-3"/><polygon points="59.27 197.19 58.95 197.19 58.95 197.19 58.6 197.19 58.6 199.02 59.27 199.02 59.27 197.19" class="cls-3"/><polygon points="59.85 199.02 60.12 199.02 60.12 199.02 60.51 199.02 60.51 197.19 59.85 197.19 59.85 199.02" class="cls-3"/><polygon points="51.09 203.64 51.36 203.64 51.36 203.64 51.76 203.64 51.76 201.81 51.09 201.81 51.09 203.64" class="cls-3"/><path d="M51.64,216.32c.12.29.12.63,0,.93" class="cls-3"/><polyline points="51.64 217.62 51.89 217.36 51.89 216.22 51.64 215.96" class="cls-3"/><polygon points="50.24 203.64 50.51 203.64 50.51 201.81 49.85 201.81 49.85 203.64 50.24 203.64 50.24 203.64" class="cls-3"/><polyline points="49.79 210.4 49.79 215.57 49.79 215.57 49.79 216.09 49.79 216.09 49.79 217.48 49.79 217.48 49.79 218.01 49.79 218.01 49.79 245.01" class="cls-3"/><line y2="203.64" x2="51.07" y1="203.64" x1="50.53" class="cls-3"/><path d="M49.79,245.03v18.35s0,.04,0,.06c0,.02.01.04.03.06,0,.01.02.02.03.03,0,0,.02.01.03.02,0,0,.02,0,.02,0h1.59s.01,0,.02,0c.01,0,.02,0,.03-.01.01,0,.02-.02.03-.03.01-.01.02-.03.03-.05,0-.02.01-.05.01-.08v-18.35" class="cls-3"/><path d="M50.27,197.2c0,.51,0,1.03,0,1.54v.33c0,.41,0,.83,0,1.24,0,.46,0,.92,0,1.38v.11s.27,0,.27,0h.83v-.37h-.54s0,0,0,0c0,0,0,0,0,0,0,0,0,0,0,0,0,0,0,0,0,0,0,0,0,0,0,0v-.63c0-.45,0-.91,0-1.36,0-.43,0-.85,0-1.28,0-.4,0-.8,0-1.19,0-.4,0-.79,0-1.19,0,0,0,0,0,0,0-.59,0-1.11,0-1.62,0-1.24-.02-2.53-.05-3.85-.02-1.28-.06-2.55-.09-3.72-.01-.4-.02-.8-.03-1.2-.02-.78-.04-1.59-.06-2.38-.05-1.89-.07-3.35-.09-4.73-.02-1.77-.02-3.31,0-4.72.02-1.48.07-3.02.14-4.72.03-.62.06-1.26.09-1.87.04-.93.09-1.9.13-2.85.06-1.52.08-2.9.08-4.22,0-.88-.02-1.83-.05-2.91,0,0,0,0,0,0h0s0,0,0,0v-.04c0-.16,0-.32,0-.48,0-.26-.02-.52-.03-.79-.04-1.03-.09-2.08-.13-3.09-.02-.38-.03-.75-.05-1.13-.07-1.63-.12-2.97-.16-4.22-.05-1.45-.08-2.87-.1-4.22-.02-1.44-.03-2.86-.02-4.21.01-1.49.04-2.87.09-4.21.05-1.3.12-2.67.21-4.21.03-.53.07-1.08.1-1.6.01-.18.02-.36.04-.54,0-.01,0-.03,0-.04,0,0,0,0,0,0,.04-.59.08-1.2.11-1.79.09-1.52.14-2.79.16-3.99.02-1.08,0-2.24-.03-3.53,0,0,0,0,0,0v-.06s0-.02,0-.04c0-.12,0-.23-.01-.35-.04-1.45-.11-2.89-.17-3.99-.03-.53-.06-1.07-.08-1.6-.04-.78-.08-1.59-.12-2.38-.08-1.56-.12-2.82-.15-3.98-.03-1.43-.04-2.96-.02-4.69.02-1.65.06-3.3.1-4.69.01-.45.02-.9.04-1.36,0-.28.02-.56.02-.85v-.05s0,0,0,0c.02-.81.04-1.63.06-2.44.03-1.52.06-3.1.07-4.7.01-1.6.02-3.29.01-5.34,0-1.68-.01-3.39-.02-5.04v-.3c-.01-1.89-.02-3.6-.02-5.34,0-1.59,0-3.32,0-5.45,0-1.29,0-2.55.01-3.73v-.89c0-.99.01-1.97.02-2.96,0-1.54,0-2.83.01-4.05,0-.35,0-.7,0-1.05v-.63s-.53,0-.53,0v.1c0,.33,0,.66,0,.98,0,.51,0,1.02,0,1.53,0,.52,0,1.05,0,1.57,0,.51,0,1.03,0,1.54,0,.5,0,1,0,1.5v1.53c0,.64-.01,1.28-.02,1.91,0,1.25,0,2.29-.01,3.25,0,1.21,0,2.2,0,3.11,0,2.59.01,5.23.02,7.78v.56c.02,3.1.03,5.68.01,8.35-.01,2.06-.04,4.1-.09,6.07-.02,1.08-.05,2.19-.08,3.25-.03.92-.05,1.88-.07,2.82-.04,1.78-.08,3.9-.06,6.07.02,1.78.08,3.71.2,6.08.03.7.07,1.4.11,2.09.03.57.06,1.15.09,1.73.08,1.5.13,2.71.16,3.81.04,1.41.05,2.65.04,3.8-.02,1.14-.06,2.38-.14,3.8-.05.79-.1,1.6-.15,2.38-.03.47-.06.95-.09,1.43-.14,2.21-.23,4.2-.28,6.08-.05,1.88-.06,3.87-.04,6.08.02,1.95.07,4,.14,6.08.05,1.36.11,2.74.17,4.07.03.66.06,1.33.09,2,.07,1.77.13,3.25.14,4.76.02,1.52,0,3.11-.06,4.75-.04,1.04-.09,2.09-.13,3.11-.03.54-.05,1.1-.08,1.66-.08,1.74-.12,3.31-.15,4.78-.02,1.11-.02,2.29-.01,3.62,0,1.13.02,2.31.05,3.63.02,1.25.06,2.5.09,3.67,0,.33.02.66.03.99.02.89.05,1.81.07,2.71.04,1.51.06,2.68.07,3.77.02,1.23.03,2.51.03,3.92,0,.46,0,.94,0,1.52Z" class="cls-3"/><rect height="2.57" width="1" y="186.08" x="74.76" class="cls-3"/><path d="M74.46,261.16h-.08s-1.33,0-1.33,0h-.06c-.06.04-.11.1-.11.18,0,0,0,0,0,0v.02s.13,2.83.13,2.83v.02c0,.08,0,.15,0,.23,0,.15,0,.3-.02.46-.01.16-.03.31-.06.46,0,.04-.02.14-.02.14" class="cls-3"/><path d="M78.09,270.75s-.19-.23-.45-.8c-.05-.11-.1-.22-.15-.33-.12-.28-.25-.55-.38-.8-.13-.27-.28-.54-.42-.8v-.02" class="cls-3"/><polyline points="72.93 265.5 72.92 265.5 72.59 267.25 72.59 267.25 72.58 267.27" class="cls-3"/><path d="M72.59,267.27h0c-.01.08-.03.16-.04.24-.02.15-.04.3-.05.46,0,.16-.01.31,0,.46,0,.15.02.31.03.46.01.13.03.25.06.37,0,0,0,0,0,0,0,0,0,0,0,0,0,0,0,0,0,0,0,0,0,0,0,0,0,.02,0,.04.01.07.01.05.02.11.04.16h0s0,0,0,0" class="cls-3"/><line y2="268.13" x2="75.39" y1="268.07" x1="75.39" class="cls-3"/><path d="M75.71,268.13s0,0,0,0c0,0,0-.01,0-.02,0,0,0-.02,0-.02v-.02c-.06-.24-.16-.46-.31-.65v.84s0,0,0,0c0,0,0,0,0,0l-.69.75" class="cls-3"/><path d="M74.18,273.03s2.24.35,2.25.35c.02,0,.03,0,.05,0h.23s.26-.07.26-.07l.25-.13.23-.19.2-.25.16-.29.12-.33.09-.36" class="cls-3"/><path d="M76.68,267.99c-.12-.16-.24-.32-.39-.46-.12-.11-.26-.21-.45-.33-.13-.08-.27-.16-.41-.2-.01,0-.02,0-.03,0" class="cls-3"/><polygon points="77.81 185.53 77.81 186.06 78.25 186.06 78.25 185.53 78.12 185.53 77.81 185.53" class="cls-3"/><polygon points="77.81 184.03 77.81 185.53 78.74 185.53 78.74 184.03 78.48 184.03 77.81 184.03" class="cls-3"/><polygon points="74.08 184.03 74.08 185.53 75.76 185.53 75.76 184.03 75.29 184.03 74.08 184.03" class="cls-3"/><rect height=".75" width=".35" y="182.74" x="77.81" class="cls-3"/><rect height="2.57" width=".25" y="186.08" x="77.81" class="cls-3"/><polygon points="77.98 196.33 77.81 196.33 77.81 196.96 77.96 196.96 77.96 196.96 78.06 196.96 78.06 196.33 77.98 196.33 77.98 196.33" class="cls-3"/><polygon points="77.81 196.98 77.81 197.61 77.94 197.61 77.95 196.98 77.81 196.98" class="cls-3"/><rect height="2.29" width=".72" y="188.67" x="77.81" class="cls-3"/><polygon points="77.81 196.32 77.97 196.32 78.06 191.9 77.81 191.9 77.81 196.32" class="cls-3"/><path d="M84.56,112.77c-.62.62-1.14,1.17-1.61,1.69-.51.57-1.01,1.18-1.49,1.81-.47.62-.93,1.27-1.37,1.93-.46.7-.87,1.37-1.23,2.04-.38.69-.73,1.4-1.06,2.09v13.09c.01-.31.03-.63.05-.95.04-.68.09-1.39.15-2.13.07-.8.14-1.55.22-2.27.09-.78.18-1.55.29-2.28.11-.77.24-1.52.38-2.23.14-.7.29-1.39.45-2.05.17-.68.35-1.34.54-1.98.2-.65.42-1.29.65-1.89.24-.62.49-1.22.76-1.79.27-.58.57-1.14.88-1.68.32-.55.66-1.07,1.01-1.55.35-.48.74-.96,1.16-1.42.45-.5.89-.94,1.34-1.33.21-.18.42-.36.63-.53v-.17l-.04.03c-.63.49-1.19,1.04-1.71,1.56Z" class="cls-3"/><path d="M83.9,110.1c-.71.65-1.32,1.25-1.88,1.83-.58.61-1.15,1.26-1.75,1.99-.64.77-1.16,1.47-1.61,2.13-.3.44-.58.89-.85,1.33v4.91c.33-.68.68-1.38,1.05-2.06.36-.67.77-1.33,1.23-2.04.44-.66.9-1.31,1.37-1.93.48-.63.98-1.24,1.49-1.81.46-.52.99-1.08,1.61-1.69.52-.52,1.09-1.07,1.72-1.57l.05-.04v-3.03c-.14.1-.28.2-.42.3-.76.56-1.46,1.19-1.99,1.67Z" class="cls-3"/><path d="M77.81,157.92c.1.17.2.35.3.53.26.44.56.91.93,1.46.38.56.74,1.07,1.1,1.55.41.54.84,1.09,1.29,1.62.49.57.99,1.13,1.49,1.65.39.41.8.81,1.25,1.24.52.49.95.87,1.38,1.22.25.2.51.4.75.59v-3.11c-.35-.32-.72-.65-1.07-.98-.44-.42-.9-.9-1.4-1.46-.43-.49-.84-.97-1.22-1.45-.36-.45-.72-.93-1.06-1.41-.31-.44-.62-.89-.91-1.34-.27-.41-.53-.84-.78-1.27-.25-.43-.5-.87-.72-1.3-.21-.4-.43-.84-.68-1.34-.2-.41-.42-.89-.63-1.38-.01-.03-.03-.07-.04-.1v5.29Z" class="cls-3"/><rect height="6.08" width=".16" y="176.66" x="77.81" class="cls-3"/><path d="M77.81,164.62c.35.58.71,1.19,1.09,1.77.43.66.9,1.32,1.44,2.01.52.66,1.05,1.3,1.59,1.88.57.62,1.16,1.21,1.75,1.74.37.33.78.68,1.25,1.07.41.33.85.68,1.32.98.02.01.04.03.06.04v-2.98c-.47-.39-.96-.8-1.42-1.23-.49-.46-.99-.97-1.52-1.57-.49-.55-.96-1.13-1.4-1.71-.44-.58-.88-1.2-1.29-1.84-.39-.61-.79-1.27-1.17-1.95-.41-.73-.75-1.4-1.06-2.05-.23-.48-.44-.98-.65-1.46v5.3Z" class="cls-3"/><path d="M79.17,265.79s0-.04-.02-.05c-.02-.02-.04-.02-.06-.02h0s0,0,0,0h-3.74v.07s.01.02.01.02l.1.77c.07.02.14.03.21.06.12.05.26.12.42.24.18.13.33.27.45.41.15.18.27.38.38.58,0,0,0,0,0,0,0,0,0,0,0,0,0,0,0,0,0,0,0,0,0,0,0,0,.12.27.25.55.37.83.14.32.24.59.33.84.03.09.07.19.1.28.08.23.15.45.24.66.05.11.1.21.15.3.02.03.04.05.07.08.03.03.06.05.09.06.02,0,.05,0,.07,0,.03,0,.05-.02.08-.04.03-.03.06-.06.09-.1.04-.09.09-.17.13-.27.04-.1.07-.21.1-.31.13-.43.21-.81.27-1.16.05-.31.07-.62.09-.93,0,0,.05-.87.06-.87.02-.48.03-.98.03-1.46" class="cls-3"/><path d="M80.87,268.06c-.06-.47-.41-.86-.87-.97,0,0-.03,0-.03,0l-.81-.11" class="cls-3"/><path d="M75.31,265.42l-.56-4.12c-.01-.1-.1-.17-.2-.17,0,0,.1-.6.11-.62.01-.03.04-.06.08-.06h4.09s.07.02.08.08c.29,1.59.44,3.42.45,5.03,0,.02,0,.08,0,.08,0,.04-.04.07-.08.07h-3.93s-.04-.32-.04-.32" class="cls-3"/><rect height=".72" width=".29" y="203.35" x="77.81" class="cls-3"/><polygon points="77.85 257.94 78.06 257.94 78.06 256.11 77.77 256.11 77.85 257.94" class="cls-3"/><polygon points="77.81 202.6 77.83 202.6 77.93 198.27 77.81 198.27 77.81 202.6" class="cls-3"/><polygon points="77.81 202.61 77.81 203.33 78.1 203.33 77.83 202.61 77.81 202.61" class="cls-3"/><polygon points="77.95 197.63 77.81 197.63 77.81 198.25 78.06 198.25 78.06 197.63 77.95 197.63 77.95 197.63" class="cls-3"/><polyline points="78.02 257.94 78.2 257.94 78.13 256.11 78.12 256.11 78.08 256.11" class="cls-3"/><path d="M78.55,257.16c-.06-.56-.1-.97-.1-.97,0-.01,0-.02,0-.02,0-.04-.04-.06-.08-.06h-.11s.03.01.05.02c0,0,.02.01.02.02,0,0,0,.01.01.02,0,0,0,.02,0,.02l.4,3.05s-1.32.01-1.32.01c0,0,.09-1.81.13-2.64.01-.25.02-.41.02-.42,0,0,0-.02,0-.02,0,0,0,0,0-.01,0,0,.02-.02.03-.02,0,0,.02,0,.04-.01h-2.44s-.07.03-.08.06c0,0,0,0,0,.02,0,0-.07.65-.15,1.43-.12,1.16-.27,2.72-.27,2.72,0,.01,0,.02,0,.02,0,.02,0,.04.02.05.01.02.03.03.06.03,0,0,3.5,0,3.5,0h.52s.09-.04.08-.09c0,0-.2-2-.32-3.2Z" class="cls-3"/><path d="M69.85,207.53c0,.13.11.24.24.24.03,0,.05,0,.08-.01.09-.07.16-.17.16-.29v-1.89c-.03-.13-.16-.21-.29-.17-.1.03-.17.11-.18.22v1.91Z" class="cls-3"/><path d="M69.39,205.49s0,0-.01,0c0,0,0,0,0,0,0,0,0,0,0,0,0,0,0,0-.01,0-.12,0-.22.1-.23.22v1.91c0,.13.11.24.24.24s.24-.11.24-.24v-1.91c0-.12-.11-.22-.23-.22Z" class="cls-3"/><path d="M70.53,204.21v20.3c.3,0,.53-.25.53-.54v-19.21c0-.3-.24-.54-.53-.54Z" class="cls-3"/><path d="M67.25,205.74s0,0-.01,0c0,0,0,0,0,0,0,0,0,0,0,0-.12,0-.23.09-.24.22v1.91c0,.13.11.24.24.24s.24-.11.24-.24v-1.91c0-.12-.11-.22-.23-.22Z" class="cls-3"/><path d="M67.96,205.66s0,0-.01,0c0,0,0,0,0,0,0,0,0,0,0,0h0s0,0-.01,0c-.12,0-.22.1-.23.22v1.91c0,.13.11.24.24.24s.24-.11.24-.24v-1.91c0-.12-.11-.22-.23-.22Z" class="cls-3"/><path d="M68.67,205.57s0,0-.01,0h0s0,0,0,0c0,0,0,0,0,0-.13,0-.23.09-.24.22v1.91c0,.13.11.24.24.24s.24-.11.24-.24v-1.91c0-.12-.11-.22-.23-.22Z" class="cls-3"/><path d="M67.57,211.35v12.23c0,.25.2.45.45.45s.45-.2.45-.45v-12.23h-.9Z" class="cls-3"/><polyline points="70.34 222.67 70.34 224.51 70.51 224.51" class="cls-3"/><polyline points="66.27 206.08 66.27 204.21 66.11 204.21" class="cls-3"/><path d="M70.51,204.21h-.17v3.25c0,.13-.06.24-.16.31,0,0,0,0,0,0,0,0,0,0,0,0-.05.03-.1.06-.17.06l-3.32.4s-.03,0-.04,0c-.21,0-.38-.17-.38-.38v-1.93" class="cls-3"/><path d="M66.27,222.67v-13.41s0,0,0,0h0s0-.08.02-.12c0-.03.02-.06.04-.08.01-.02.03-.03.05-.05.02-.01.03-.02.05-.02.01,0,.02,0,.04,0h0s0,0,0,0h3.69s0,0,0,0c0,0,0,0,0,0h0s.03,0,.05,0c.01,0,.03.01.04.03.02.01.03.03.05.05.02.03.03.06.04.09,0,.03,0,.06.01.09,0,0,0,0,0,0,0,0,0,0,0,0v13.41" class="cls-3"/><path d="M66.75,207.01v1.01c-.03.1-.12.17-.22.18-.14-.05-.24-.18-.24-.34v-1.87c.03-.1.12-.16.22-.16,0,0,0,0,0,0h0s0,0,.01,0c.12,0,.22.1.23.22v.97Z" class="cls-3"/><path d="M69.22,211.54v11.45h0v.79c0,.25.2.45.45.45s.45-.2.45-.45v-12.24h-.9Z" class="cls-3"/><polygon points="75.76 202.61 75 202.61 74.73 203.33 75.76 203.33 75.76 202.61" class="cls-3"/><polygon points="75.76 196.33 74.85 196.33 74.85 196.33 74.76 196.33 74.76 196.96 74.87 196.96 74.87 196.96 75.76 196.96 75.76 196.33" class="cls-3"/><polygon points="75.76 196.32 75.76 191.9 74.76 191.9 74.86 196.32 75.76 196.32" class="cls-3"/><polygon points="75.76 202.6 75.76 198.27 74.9 198.27 75 202.6 75.76 202.6" class="cls-3"/><polygon points="75.76 197.63 74.88 197.63 74.88 197.63 74.76 197.63 74.76 198.25 74.89 198.25 74.89 198.25 75.76 198.25 75.76 197.63" class="cls-3"/><polygon points="75.76 197.61 75.76 196.98 74.88 196.98 74.89 197.61 75.76 197.61" class="cls-3"/><rect height=".91" width=".4" y="190.98" x="75.36" class="cls-3"/><rect height=".54" width="1.18" y="185.53" x="74.58" class="cls-3"/><rect height="2.29" width="1.46" y="188.67" x="74.3" class="cls-3"/><rect height=".72" width="1.03" y="203.35" x="74.73" class="cls-3"/><path d="M81.03,271.69c.15-1.21.1-2.42-.16-3.61" class="cls-3"/><polygon points="77.79 53.86 75.78 53.86 75.78 256.11 77.75 256.11 77.8 256.11 77.79 182.76 77.79 182.75 77.79 182.74 77.79 176.66 77.79 176.65 77.79 176.65 77.79 53.86" class="cls-3"/><path d="M74.41,269.82l-.09-.35c-.17-.71-.19-1.44-.05-2.16l.34-1.77c.08-.44.12-.89.09-1.34l-.13-2.84v-.02c0-.07-.04-.14-.11-.17l.1-.03" class="cls-3"/><path d="M75.76,66.98c-.02.82-.03,1.65-.05,2.47-.02.9-.04,1.81-.06,2.71-.03,1.34-.06,2.76-.09,4.22-.03,1.43-.07,2.9-.1,4.38-.04,1.5-.07,2.99-.11,4.49-.04,1.51-.07,3.03-.11,4.54-.04,1.51-.08,3.03-.11,4.54-.04,1.5-.08,3-.11,4.49-.03,1.3-.07,2.59-.1,3.89-.03,1.26-.07,2.53-.1,3.79-.03,1.23-.07,2.45-.1,3.68-.03,1.18-.06,2.36-.1,3.54-.03,1.13-.06,2.26-.1,3.38-.03,1.07-.06,2.14-.09,3.21-.03.96-.06,1.93-.09,2.89-.01.49-.03.97-.04,1.46.16-.48.32-.97.5-1.44.29-.74.63-1.48.96-2.19v-54.05Z" class="cls-3"/><polygon points="75.76 182.74 75.76 182.74 75.76 176.66 75.76 176.66 75.66 176.66 75.48 176.66 75.48 176.66 75.48 176.66 74.91 176.66 74.85 176.66 74.85 182.74 75.51 182.74 75.76 182.74" class="cls-3"/><path d="M75.76,121.07c-.33.7-.67,1.42-.95,2.15-.19.5-.36,1.01-.52,1.5-.01.39-.02.79-.04,1.18-.03.84-.05,1.67-.08,2.51-.02.77-.05,1.54-.07,2.31l-.02.5c-.02.53-.04,1.07-.05,1.6-.02.76-.04,1.37-.06,1.93-.02.66-.03,1.24-.04,1.78-.01.59-.02,1.14-.02,1.66,0,.87,0,1.66.02,2.42.02.78.05,1.54.1,2.27.05.72.11,1.45.18,2.18.07.71.16,1.41.26,2.09.12.82.26,1.67.42,2.53.17.89.34,1.67.52,2.38.11.44.23.87.35,1.3v-7.11c-.13-.6-.27-1.21-.39-1.82-.14-.75-.26-1.55-.37-2.46-.1-.86-.17-1.7-.22-2.52-.05-.84-.07-1.7-.07-2.56,0-.87.03-1.73.08-2.56.05-.81.14-1.67.25-2.53.12-.97.26-1.76.42-2.48.09-.4.19-.8.29-1.18v-7.07Z" class="cls-3"/><path d="M75.21,159.37c0,.9,0,1.8,0,2.7,0,.8,0,1.6,0,2.4,0,.82,0,1.65,0,2.47v4.99c0,.81,0,1.62,0,2.43,0,.76,0,1.52,0,2.29h.26s0,0,0,0c0,0,0,0,0,0h.28s0,0,0,0v-16.03c-.12-.27-.25-.55-.37-.82-.06-.14-.12-.28-.18-.43Z" class="cls-3"/><path d="M75.76,146.17v-15.45c-.01.13-.03.27-.04.4-.07.71-.12,1.44-.17,2.06-.05.7-.08,1.33-.11,1.93-.03.57-.05,1.15-.08,1.79-.02.53-.04,1.08-.05,1.64-.01.47-.02.97-.03,1.49,0,.2,0,.4,0,.59,0,.19,0,.37,0,.56,0,.16,0,.32,0,.47,0,.12,0,.24,0,.37v.61c0,.14,0,.28,0,.42,0,.13,0,.25,0,.38h0s-.01,0-.01,0c.05.34.11.67.17.99.11.58.24,1.17.37,1.74Z" class="cls-3"/><path d="M75.21,159.28h0s0,.03,0,.04c.07.16.13.32.2.47.11.26.24.53.35.78v-7.14c-.12-.45-.25-.91-.37-1.37-.18-.71-.35-1.49-.52-2.38-.16-.86-.31-1.72-.42-2.53-.1-.68-.18-1.38-.26-2.09-.07-.72-.14-1.46-.18-2.18-.05-.73-.08-1.49-.1-2.27-.02-.76-.03-1.55-.02-2.42,0-.52,0-1.06.02-1.66,0-.54.02-1.12.04-1.78.02-.56.03-1.17.06-1.93.02-.53.03-1.07.05-1.6l.02-.5c.03-.77.05-1.54.07-2.31.03-.84.05-1.67.08-2.51.03-.9.06-1.8.08-2.7.03-.96.06-1.93.09-2.89.03-1.07.06-2.14.09-3.21.03-1.13.06-2.26.1-3.38.03-1.18.07-2.36.1-3.54.03-1.23.07-2.45.1-3.68.03-1.26.07-2.53.1-3.79.03-1.3.07-2.59.1-3.89.04-1.5.08-3,.11-4.49.04-1.51.08-3.03.11-4.54.04-1.51.07-3.03.11-4.54.04-1.5.07-2.99.11-4.49.03-1.48.07-2.96.1-4.38.03-1.46.06-2.88.09-4.22.02-.9.04-1.81.06-2.71.02-.86.04-1.73.05-2.59l.02-.8v-11.89h-2.2v.02c0,.3,0,.6,0,.9,0,.4,0,.81-.01,1.15,0,.44-.01.89-.02,1.34,0,.5-.01,1.01-.02,1.51,0,.55-.02,1.11-.03,1.66-.01.59-.02,1.19-.03,1.78-.01.63-.02,1.26-.04,1.89-.02.91-.04,1.83-.05,2.74-.02.95-.04,1.91-.06,2.86-.02.98-.04,1.97-.06,2.95-.02,1-.04,2-.07,3-.03,1.43-.07,2.89-.1,4.32-.03,1.43-.07,2.86-.1,4.29-.03,1.4-.07,2.8-.1,4.2-.03,1.35-.07,2.7-.1,4.06-.03,1.29-.07,2.58-.1,3.88-.03,1.02-.05,2.05-.08,3.07-.03.97-.05,1.94-.08,2.91-.02.91-.05,1.83-.07,2.74-.02.86-.05,1.71-.07,2.57-.02.8-.04,1.6-.07,2.39-.02.74-.04,1.48-.06,2.22-.05,1.73-.1,3.43-.14,5.06-.05,1.77-.1,3.4-.15,4.97-.03,1.04-.06,2.08-.09,3.12-.03,1.14-.06,2.09-.09,2.99-.03.8-.05,1.61-.08,2.41v.4c-.04.81-.07,1.72-.1,2.63-.03.96-.05,1.75-.06,2.49-.01.87-.02,1.65-.02,2.39,0,.83.02,1.6.05,2.34.03.88.08,1.75.15,2.6.07.89.17,1.8.28,2.69.12.93.26,1.86.42,2.76.17.94.37,1.89.58,2.82.23.98.49,1.94.76,2.86.22.74.47,1.5.75,2.31.24.7.46,1.27.67,1.79,0,0,0,0,0,0s0,0,0,0Z" class="cls-3"/><rect height=".92" width="2.93" y="52.94" x="75.32" class="cls-3"/><polyline points="75.3 52.94 73.11 52.94 73.11 54.14 73.56 54.14 73.56 54.14 73.56 54.14 73.69 54.14 74.65 54.14 74.86 54.14 75.76 54.14 75.76 53.86" class="cls-3"/><polygon points="75.76 183.5 75.76 182.74 75.47 182.74 74.67 182.74 74.67 183.5 75.47 183.5 75.76 183.5" class="cls-3"/><polygon points="75.13 183.5 75.13 184.03 75.76 184.03 75.76 183.5 75.51 183.5 75.13 183.5" class="cls-3"/><path d="M69.62,207.62c0,.13-.11.24-.24.24s-.24-.11-.24-.24v-1.91c0-.12.11-.22.23-.22,0,0,0,0,.01,0,0,0,0,0,0,0,0,0,0,0,0,0,0,0,0,0,.01,0,.12,0,.22.1.23.22v1.91Z" class="cls-3"/><path d="M68.9,207.7c0,.13-.11.24-.24.24s-.24-.11-.24-.24v-1.91c0-.13.11-.22.24-.22,0,0,0,0,0,0,0,0,0,0,0,0h0s0,0,.01,0c.12,0,.22.1.23.22v1.91Z" class="cls-3"/><path d="M68.19,207.79c0,.13-.11.24-.24.24s-.24-.11-.24-.24v-1.91c0-.12.11-.22.23-.22,0,0,0,0,.01,0h0s0,0,0,0c0,0,0,0,0,0,0,0,0,0,.01,0,.12,0,.22.1.23.22v1.91Z" class="cls-3"/><path d="M59.27,208c0,.1-.09.19-.19.19s-.19-.09-.19-.19v-1.53c0-.1.09-.17.18-.17,0,0,0,0,0,0,0,0,0,0,0,0,0,0,0,0,0,0,.1,0,.18.07.19.17v1.53Z" class="cls-3"/><path d="M59.84,207.93c0,.1-.09.19-.19.19s-.19-.09-.19-.19v-1.53c0-.1.09-.18.19-.17,0,0,0,0,0,0,0,0,0,0,0,0,.1,0,.18.07.19.17v1.53Z" class="cls-3"/><path d="M60.41,207.86c0,.1-.09.19-.19.19s-.19-.09-.19-.19v-1.53c0-.1.09-.17.18-.17,0,0,0,0,0,0,0,0,0,0,0,0,0,0,0,0,0,0,0,0,0,0,0,0,.1,0,.18.08.18.17v1.53Z" class="cls-3"/><path d="M50.13,258.02c.05.06.12.12.19.16.07.04.15.07.23.09.05.01.11.02.16.02.03,0,.06,0,.09,0,.08,0,.16-.03.24-.07.08-.04.14-.08.2-.14.06-.06.11-.13.14-.2.04-.08.06-.16.07-.25,0-.09,0-.17-.02-.26-.02-.08-.06-.16-.11-.23-.05-.07-.1-.13-.17-.18-.07-.05-.14-.09-.21-.12-.08-.02-.16-.03-.24-.04,0,0,0,0,0,0-.05,0-.11,0-.16.02-.08.02-.16.05-.24.1-.07.05-.14.11-.19.18-.05.07-.09.15-.12.23-.03.08-.04.17-.04.25,0,.08.02.16.05.24.03.08.07.15.12.21Z" class="cls-3"/><g><path d="M88.03,22.71c0-3.18,2.3-5.82,5.32-6.36V7.94h-7.03v273.25h7.03V29.07c-3.02-.54-5.32-3.18-5.32-6.36Z" class="cls-3"/><path d="M95.45,7.94v8.39c3.1.47,5.48,3.15,5.48,6.38s-2.38,5.91-5.48,6.38v252.1h7.03V7.94h-7.03Z" class="cls-3"/></g><g><path d="M115.46,22.71c0-3.18,2.29-5.81,5.3-6.36V7.94h-7.03v273.25h7.03V29.07c-3.01-.54-5.3-3.18-5.3-6.36Z" class="cls-3"/><path d="M122.87,7.94v8.38c3.11.46,5.5,3.14,5.5,6.39s-2.39,5.92-5.5,6.39v252.09h7.03V7.94h-7.03Z" class="cls-3"/></g><path d="M51.64,248.86c.12.06.24.11.35.19.14.09.27.21.4.36.12.14.22.29.3.45.09.17.15.34.18.51,0,.05.02.1.02.14l.02.49" class="cls-3"/><path d="M51.64,249.75c.15.08.3.16.44.26.11.08.21.18.31.3.01.02.03.04.04.06,0,0,0,0,0,0,0,0,0,0,0,0,0,0,.01.01.02.02.11.14.2.3.27.46.07.16.12.31.14.45,0,0,0,.03,0,.03,0,.01,0,.03,0,.04,0,.03.03.13.03.16,0,0,0,.11,0,.12,0,0,0,0,0,0,0,.05,0,.09,0,.09v.09s-.02-.1-.06-.24c-.06-.2-.12-.36-.2-.5-.08-.15-.19-.3-.32-.44-.14-.15-.28-.26-.42-.34-.09-.05-.18-.09-.27-.13" class="cls-3"/><path d="M51.64,249.31c.06.02.12.04.17.07.14.07.28.17.43.32.06.06.11.11.16.17.02.03.07.09.07.09.04.05.08.11.12.16.09.14.16.3.23.49.06.17.09.31.1.44v.49" class="cls-3"/></g></g><rect height="1.04" width=".31" y="219.21" x="58.48" class="cls-3"/><rect height="1.04" width=".6" y="219.21" x="59.5" class="cls-3"/><rect height="1.04" width=".36" y="221.72" x="67.21" class="cls-3"/><rect height="1.04" width=".74" y="221.72" x="68.48" class="cls-3"/><ellipse ry=".45" rx=".37" cy="269.89" cx="75.68" class="cls-3"/><polyline points="75.39 267.41 75.39 266.75 75.41 266.69 75.43 266.64 75.47 266.58" class="cls-3"/><line y2="256.11" x2="78.25" y1="256.11" x1="77.65" class="cls-3"/></g></g></g></g></svg>