<svg viewBox="0 0 531.27 288" xmlns:xlink="http://www.w3.org/1999/xlink" xmlns="http://www.w3.org/2000/svg" id="Camada_2"><defs><style>.cls-1,.cls-2{fill:none;}.cls-3{fill:#12100c;}.cls-2{stroke:#12100c;stroke-linecap:round;stroke-linejoin:round;stroke-width:.3px;}</style><symbol viewBox="0 0 531.27 288" id="fundo_transparente"><rect height="288" width="531.27" x="0" class="cls-1"/></symbol></defs><g id="RePlastic"><g id="resguardo_Simple_horizontal_1400"><use xlink:href="#fundo_transparente" height="288" width="531.27"/><use xlink:href="#fundo_transparente" height="288" width="531.27"/><use xlink:href="#fundo_transparente" height="288" width="531.27"/><use xlink:href="#fundo_transparente" height="288" width="531.27"/><line y2="275.11" x2="288.4" y1="275.77" x1="288.4" class="cls-2"/><line y2="260.69" x2="288.4" y1="261.35" x1="288.4" class="cls-2"/><line y2="246.27" x2="288.4" y1="246.93" x1="288.4" class="cls-2"/><line y2="231.85" x2="288.4" y1="232.51" x1="288.4" class="cls-2"/><line y2="217.43" x2="288.4" y1="218.09" x1="288.4" class="cls-2"/><line y2="203.01" x2="288.4" y1="203.66" x1="288.4" class="cls-2"/><line y2="195.8" x2="288.4" y1="196.45" x1="288.4" class="cls-2"/><line y2="210.22" x2="288.4" y1="210.88" x1="288.4" class="cls-2"/><line y2="224.64" x2="288.4" y1="225.3" x1="288.4" class="cls-2"/><line y2="239.06" x2="288.4" y1="239.72" x1="288.4" class="cls-2"/><line y2="253.48" x2="288.4" y1="254.14" x1="288.4" class="cls-2"/><line y2="267.9" x2="288.4" y1="268.56" x1="288.4" class="cls-2"/><line y2="275.11" x2="208.49" y1="275.77" x1="208.49" class="cls-2"/><line y2="260.69" x2="208.49" y1="261.35" x1="208.49" class="cls-2"/><line y2="246.27" x2="208.49" y1="246.93" x1="208.49" class="cls-2"/><line y2="231.85" x2="208.49" y1="232.51" x1="208.49" class="cls-2"/><line y2="217.43" x2="208.49" y1="218.09" x1="208.49" class="cls-2"/><line y2="203.01" x2="208.49" y1="203.66" x1="208.49" class="cls-2"/><line y2="195.8" x2="208.49" y1="196.45" x1="208.49" class="cls-2"/><line y2="210.22" x2="208.49" y1="210.88" x1="208.49" class="cls-2"/><line y2="224.64" x2="208.49" y1="225.3" x1="208.49" class="cls-2"/><line y2="239.06" x2="208.49" y1="239.72" x1="208.49" class="cls-2"/><line y2="253.48" x2="208.49" y1="254.14" x1="208.49" class="cls-2"/><line y2="267.9" x2="208.49" y1="268.56" x1="208.49" class="cls-2"/><rect height="6.56" width="2.03" y="189.24" x="294.3" class="cls-2"/><rect height="6.56" width="91.71" y="189.24" x="202.59" class="cls-2"/><rect height="6.56" width="2.03" y="196.45" x="294.3" class="cls-2"/><rect height="6.56" width="91.71" y="196.45" x="202.59" class="cls-2"/><rect height="6.56" width="2.03" y="203.66" x="294.3" class="cls-2"/><rect height="6.56" width="91.71" y="203.66" x="202.59" class="cls-2"/><rect height="6.55" width="2.03" y="210.88" x="294.3" class="cls-2"/><rect height="6.55" width="91.71" y="210.88" x="202.59" class="cls-2"/><rect height="6.55" width="2.03" y="218.09" x="294.3" class="cls-2"/><rect height="6.55" width="91.71" y="218.09" x="202.59" class="cls-2"/><rect height="6.55" width="2.03" y="225.3" x="294.3" class="cls-2"/><rect height="6.55" width="91.71" y="225.3" x="202.59" class="cls-2"/><rect height="6.55" width="2.03" y="232.51" x="294.3" class="cls-2"/><rect height="6.55" width="91.71" y="232.51" x="202.59" class="cls-2"/><rect height="6.55" width="2.03" y="239.72" x="294.3" class="cls-2"/><rect height="6.55" width="91.71" y="239.72" x="202.59" class="cls-2"/><rect height="6.55" width="2.03" y="246.93" x="294.3" class="cls-2"/><rect height="6.55" width="91.71" y="246.93" x="202.59" class="cls-2"/><rect height="6.55" width="2.03" y="254.14" x="294.3" class="cls-2"/><rect height="6.55" width="91.71" y="254.14" x="202.59" class="cls-2"/><rect height="6.55" width="2.03" y="261.35" x="294.3" class="cls-2"/><rect height="6.55" width="91.71" y="261.35" x="202.59" class="cls-2"/><rect height="6.55" width="2.03" y="268.56" x="294.3" class="cls-2"/><rect height="6.55" width="91.71" y="268.56" x="202.59" class="cls-2"/><rect height="6.55" width="2.03" y="275.77" x="294.3" class="cls-2"/><rect height="6.55" width="91.71" y="275.77" x="202.59" class="cls-2"/><g id="LINE"><line y2="195.8" x2="294.3" y1="196.45" x1="294.3" class="cls-2"/><line y2="210.22" x2="294.3" y1="210.88" x1="294.3" class="cls-2"/><line y2="224.64" x2="294.3" y1="225.3" x1="294.3" class="cls-2"/><line y2="239.06" x2="294.3" y1="239.72" x1="294.3" class="cls-2"/><line y2="253.48" x2="294.3" y1="254.14" x1="294.3" class="cls-2"/><line y2="267.9" x2="294.3" y1="268.56" x1="294.3" class="cls-2"/><line y2="275.11" x2="294.3" y1="275.77" x1="294.3" class="cls-2"/><line y2="260.69" x2="294.3" y1="261.35" x1="294.3" class="cls-2"/><line y2="246.27" x2="294.3" y1="246.93" x1="294.3" class="cls-2"/><line y2="231.85" x2="294.3" y1="232.51" x1="294.3" class="cls-2"/><line y2="217.43" x2="294.3" y1="218.09" x1="294.3" class="cls-2"/><line y2="203.01" x2="294.3" y1="203.66" x1="294.3" class="cls-2"/></g><polygon points="160.07 189.24 160.07 195.88 158.11 195.88 158.11 190.55 152.22 190.55 152.22 195.88 97.47 195.88 97.47 190.55 91.58 190.55 91.58 195.88 36.83 195.88 36.83 190.55 30.94 190.55 30.94 195.88 28.98 195.88 28.98 189.24 160.07 189.24" class="cls-2"/><rect height="6.63" width="1.96" y="196.41" x="28.98" class="cls-2"/><rect height="6.63" width="54.75" y="196.41" x="36.83" class="cls-2"/><rect height="6.63" width="54.75" y="196.41" x="97.47" class="cls-2"/><rect height="6.63" width="1.96" y="196.41" x="158.11" class="cls-2"/><rect height="6.63" width="1.96" y="203.7" x="28.98" class="cls-2"/><rect height="6.63" width="54.75" y="203.7" x="36.83" class="cls-2"/><rect height="6.63" width="54.75" y="203.7" x="97.47" class="cls-2"/><rect height="6.63" width="1.96" y="203.7" x="158.11" class="cls-2"/><rect height="6.63" width="1.96" y="210.87" x="28.98" class="cls-2"/><rect height="6.63" width="54.75" y="210.87" x="36.83" class="cls-2"/><rect height="6.63" width="54.75" y="210.87" x="97.47" class="cls-2"/><rect height="6.63" width="1.96" y="210.87" x="158.11" class="cls-2"/><rect height="6.64" width="1.96" y="218.07" x="28.98" class="cls-2"/><rect height="6.64" width="54.75" y="218.07" x="36.83" class="cls-2"/><rect height="6.64" width="54.75" y="218.07" x="97.47" class="cls-2"/><rect height="6.64" width="1.96" y="218.07" x="158.11" class="cls-2"/><rect height="6.63" width="1.96" y="225.24" x="28.98" class="cls-2"/><rect height="6.63" width="54.75" y="225.24" x="36.83" class="cls-2"/><rect height="6.63" width="54.75" y="225.24" x="97.47" class="cls-2"/><rect height="6.63" width="1.96" y="225.24" x="158.11" class="cls-2"/><rect height="6.63" width="1.96" y="232.53" x="28.98" class="cls-2"/><rect height="6.63" width="54.75" y="232.53" x="36.83" class="cls-2"/><rect height="6.63" width="54.75" y="232.53" x="97.47" class="cls-2"/><rect height="6.63" width="1.96" y="232.53" x="158.11" class="cls-2"/><rect height="6.64" width="1.96" y="239.69" x="28.98" class="cls-2"/><rect height="6.64" width="54.75" y="239.69" x="36.83" class="cls-2"/><rect height="6.64" width="54.75" y="239.69" x="97.47" class="cls-2"/><rect height="6.64" width="1.96" y="239.69" x="158.11" class="cls-2"/><rect height="6.63" width="1.96" y="246.86" x="28.98" class="cls-2"/><rect height="6.63" width="54.75" y="246.86" x="36.83" class="cls-2"/><rect height="6.63" width="54.75" y="246.86" x="97.47" class="cls-2"/><rect height="6.63" width="1.96" y="246.86" x="158.11" class="cls-2"/><rect height="6.63" width="1.96" y="254.03" x="28.98" class="cls-2"/><rect height="6.63" width="54.75" y="254.03" x="36.83" class="cls-2"/><rect height="6.63" width="54.75" y="254.03" x="97.47" class="cls-2"/><rect height="6.63" width="1.96" y="254.03" x="158.11" class="cls-2"/><rect height="6.63" width="1.96" y="261.32" x="28.98" class="cls-2"/><rect height="6.63" width="54.75" y="261.32" x="36.83" class="cls-2"/><rect height="6.63" width="54.75" y="261.32" x="97.47" class="cls-2"/><rect height="6.63" width="1.96" y="261.32" x="158.11" class="cls-2"/><rect height="6.64" width="1.96" y="268.48" x="28.98" class="cls-2"/><rect height="6.64" width="54.75" y="268.48" x="36.83" class="cls-2"/><rect height="6.64" width="54.75" y="268.48" x="97.47" class="cls-2"/><rect height="6.64" width="1.96" y="268.48" x="158.11" class="cls-2"/><polygon points="160.07 275.69 160.07 282.32 28.98 282.32 28.98 275.69 30.94 275.69 30.94 282.28 36.83 282.28 36.83 275.69 91.58 275.69 91.58 282.28 97.47 282.28 97.47 275.69 152.22 275.69 152.22 282.28 158.11 282.28 158.11 275.69 160.07 275.69" class="cls-2"/><g id="LINE-2"><line y2="189.28" x2="30.94" y1="190.55" x1="30.94" class="cls-2"/></g><g id="LINE-3"><line y2="189.28" x2="158.11" y1="190.55" x1="158.11" class="cls-2"/></g><rect height="91.73" width="5.89" y="190.55" x="152.22" class="cls-2"/><rect height="91.73" width="5.89" y="190.55" x="30.94" class="cls-2"/><rect height="91.73" width="5.89" y="190.55" x="91.58" class="cls-2"/><rect height="1.96" width="131.1" y="52.99" x="28.98" class="cls-2"/><rect transform="translate(-70.86 130.79) rotate(-90)" height="1.97" width="91.74" y="99.84" x="-15.9" class="cls-2"/><rect transform="translate(58.27 259.92) rotate(-90)" height="1.97" width="91.74" y="99.84" x="113.23" class="cls-2"/><rect height="5.96" width="5.9" y="54.95" x="152.21" class="cls-2"/><rect height="5.96" width="5.9" y="54.95" x="30.95" class="cls-2"/><rect height="5.96" width="5.9" y="140.77" x="30.95" class="cls-2"/><rect height="5.96" width="5.9" y="54.99" x="91.58" class="cls-2"/><rect height="5.96" width="5.9" y="140.77" x="152.21" class="cls-2"/><g id="MTEXT"><path d="M4.77,249.01h5.29v.72h-4.54l.64,1.3h-.73l-.67-1.36v-.67Z"/><path d="M4.77,245.11h5.29v.73h-4.36s.08.04.1.06c.03.02.06.04.09.07l2.02,1.35s.06.04.08.05.05.03.08.06v-3.2h.64v3.98h-.59l-3.35-2.22v-.87Z"/><path d="M4.91,240.92c.13-.25.32-.47.55-.65.23-.18.52-.32.85-.42.33-.1.69-.15,1.08-.15s.76.05,1.1.15.62.24.86.42c.24.18.43.4.56.65.13.25.2.52.2.83s-.07.57-.2.82-.32.47-.56.65c-.24.18-.53.32-.86.42-.33.1-.7.15-1.1.15s-.75-.05-1.08-.15c-.33-.1-.61-.24-.85-.42-.24-.18-.42-.4-.55-.65-.13-.25-.2-.53-.2-.83s.07-.58.2-.83ZM5.54,242.28c.1.16.23.29.41.41.18.11.38.2.63.27.24.07.51.1.81.1s.57-.03.82-.09c.25-.06.46-.15.64-.27.18-.12.32-.25.42-.41.1-.16.15-.33.15-.52s-.05-.37-.15-.53c-.1-.16-.24-.3-.42-.41-.18-.11-.39-.2-.64-.27-.25-.06-.52-.09-.82-.09s-.56.03-.81.09c-.25.06-.46.15-.63.26-.17.11-.31.25-.41.41-.1.16-.15.34-.15.53s.05.37.15.52Z"/><path d="M4.91,236.29c.13-.25.32-.47.55-.65.23-.18.52-.32.85-.42.33-.1.69-.15,1.08-.15s.76.05,1.1.15.62.24.86.42c.24.18.43.4.56.65.13.25.2.52.2.83s-.07.57-.2.82-.32.47-.56.65c-.24.18-.53.32-.86.42-.33.1-.7.15-1.1.15s-.75-.05-1.08-.15c-.33-.1-.61-.24-.85-.42-.24-.18-.42-.4-.55-.65-.13-.25-.2-.53-.2-.83s.07-.58.2-.83ZM5.54,237.64c.1.16.23.29.41.41.18.11.38.2.63.27.24.07.51.1.81.1s.57-.03.82-.09c.25-.06.46-.15.64-.27.18-.12.32-.25.42-.41.1-.16.15-.33.15-.52s-.05-.37-.15-.53c-.1-.16-.24-.3-.42-.41-.18-.11-.39-.2-.64-.27-.25-.06-.52-.09-.82-.09s-.56.03-.81.09c-.25.06-.46.15-.63.26-.17.11-.31.25-.41.41-.1.16-.15.34-.15.53s.05.37.15.52Z"/><path d="M6.41,231.46h.67c-.24-.11-.42-.26-.54-.45-.12-.18-.18-.4-.18-.63,0-.26.07-.48.2-.67.14-.19.33-.32.59-.41-.26-.11-.45-.27-.59-.46-.14-.2-.2-.43-.2-.7,0-.38.12-.67.37-.88.25-.21.61-.31,1.07-.31h2.25v.7h-2.16c-.29,0-.52.07-.69.2-.17.13-.25.31-.25.54,0,.12.02.22.07.32.05.1.11.18.2.26.09.07.19.13.32.16.12.04.26.06.4.06h2.11v.7h-2.16c-.14,0-.27.02-.38.06-.12.04-.22.09-.3.15-.08.06-.14.14-.19.23-.04.09-.07.2-.07.31s.02.22.07.32c.05.1.12.18.21.25.09.07.2.12.32.17.12.04.26.06.41.06h2.09v.7h-3.64v-.68Z"/><path d="M6.41,225.28h.67c-.24-.11-.42-.26-.54-.45-.12-.18-.18-.4-.18-.63,0-.26.07-.48.2-.67.14-.19.33-.32.59-.41-.26-.11-.45-.27-.59-.46-.14-.2-.2-.43-.2-.7,0-.38.12-.67.37-.88.25-.21.61-.31,1.07-.31h2.25v.7h-2.16c-.29,0-.52.07-.69.2-.17.13-.25.31-.25.54,0,.12.02.22.07.32.05.1.11.18.2.26.09.07.19.13.32.16.12.04.26.06.4.06h2.11v.7h-2.16c-.14,0-.27.02-.38.06-.12.04-.22.09-.3.15-.08.06-.14.14-.19.23-.04.09-.07.2-.07.31s.02.22.07.32c.05.1.12.18.21.25.09.07.2.12.32.17.12.04.26.06.41.06h2.09v.7h-3.64v-.68Z"/></g><line y2="189.4" x2="14.81" y1="282.18" x1="14.81" class="cls-2"/><rect height=".3" width="1.95" y="282.03" x="13.84" class="cls-3"/><rect height=".3" width="1.95" y="189.25" x="13.84" class="cls-3"/></g></g></svg>