<svg viewBox="0 0 531.27 288" xmlns:xlink="http://www.w3.org/1999/xlink" xmlns="http://www.w3.org/2000/svg" id="Camada_2"><defs><style>.cls-1,.cls-2{fill:none;}.cls-3{fill:#12100c;}.cls-4{fill:#1d1d1b;}.cls-2{stroke:#12100c;stroke-linecap:round;stroke-linejoin:round;stroke-width:.3px;}</style><symbol viewBox="0 0 135.29 37.45" id="Floema_.com"><path d="M21.3,0h4.42s0,27.85,0,27.85h-4.42S21.3,0,21.3,0Z" class="cls-4"/><path d="M48.8,18.26c0,5.46-4.53,9.92-10.18,9.92-5.64,0-10.18-4.46-10.18-9.92,0-5.46,4.53-9.92,10.18-9.92,5.6,0,10.18,4.46,10.18,9.92ZM32.91,18.26c0,3.24,2.54,5.83,5.71,5.83,3.17,0,5.71-2.58,5.71-5.83s-2.54-5.83-5.71-5.83c-3.17,0-5.71,2.58-5.71,5.83Z" class="cls-4"/><path d="M69.95,18.23c0,.48-.04.81-.07.96h-14.93c.37,2.95,2.69,4.9,6.05,4.9,2.36,0,4.2-1,4.98-2.65l3.8,1.47c-1.36,3.36-4.61,5.27-8.85,5.27-6.19,0-10.54-4.09-10.54-9.92,0-5.71,4.17-9.92,9.84-9.92,5.64,0,9.73,4.17,9.73,9.88ZM65.01,15.9c-.59-2.1-2.43-3.47-4.76-3.47-2.32,0-4.17,1.36-4.98,3.47h9.73Z" class="cls-4"/><path d="M77.13,8.68v.74c0,.63.18.88.66.88.37,0,.7-.18,1.18-.59,1.03-.92,2.25-1.36,3.8-1.36,1.81,0,3.21.59,4.31,1.81.48.55.85.74,1.36.74.44,0,.77-.15,1.25-.66,1.22-1.25,2.73-1.88,4.61-1.88,3.95,0,6.23,2.8,6.23,7.6v11.91s-4.42,0-4.42,0v-11.28c0-2.77-1.33-4.5-3.43-4.5-2.25,0-3.72,1.92-3.72,4.76v11.02s-4.42,0-4.42,0v-11.28c0-2.77-1.33-4.5-3.47-4.5-2.21,0-3.72,1.95-3.72,4.83v10.95s-4.42,0-4.42,0V8.68s4.2,0,4.2,0Z" class="cls-4"/><path d="M120.15,16.02v11.84s-4.17,0-4.17,0l.04-1.25c0-.63-.22-.92-.77-.92-.41,0-.74.18-1.25.7-1.22,1.22-2.69,1.81-4.53,1.81-3.58,0-5.97-2.14-5.97-5.31,0-3.28,2.54-5.49,7.23-6.27l5.12-.85c-.26-2.21-1.88-3.5-4.5-3.5-2.21,0-3.69.92-4.28,2.69l-3.91-1.22c1.03-3.36,4.09-5.38,8.15-5.38,5.12,0,8.85,3.21,8.85,7.67ZM111.64,20.03c-2.54.44-3.76,1.29-3.76,2.65,0,1.33,1.14,2.14,2.99,2.14,2.95,0,4.87-2.14,5.01-5.57l-4.24.77Z" class="cls-4"/><path d="M19.08.01H0s0,27.84,0,27.84h4.57V10.41c0-1.23,1.49-1.85,2.36-.98l7.35,7.35,2.9-2.9-7.29-7.29c-.87-.87-.25-2.36.98-2.36h8.21V.01Z" class="cls-4"/><path d="M135.29,22.39c0,3.26-2.61,5.79-5.96,5.79-3.35,0-5.96-2.53-5.96-5.79,0-3.26,2.61-5.77,5.96-5.77,3.36,0,5.96,2.53,5.96,5.77ZM124.6,22.39c0,2.63,2.06,4.67,4.72,4.67,2.66,0,4.7-2.04,4.7-4.67s-2.04-4.65-4.7-4.65c-2.66,0-4.72,2.01-4.72,4.65ZM130.57,22.81c-.2.07-.3.2-.3.4,0,.12.07.27.15.4l1.39,1.89h-1.49s-1.71-2.41-1.71-2.41v2.41s-1.32,0-1.32,0v-6.19s2.31,0,2.31,0c1.27,0,2.19.8,2.19,1.89,0,.77-.47,1.37-1.22,1.62Z" class="cls-4"/><path d="M95.35,35.97c.17.16.25.36.25.6,0,.13-.02.25-.07.35-.05.11-.11.2-.19.28-.08.08-.16.14-.26.18-.1.04-.21.07-.34.07-.14,0-.26-.02-.37-.07-.11-.04-.2-.1-.28-.18-.07-.08-.13-.17-.18-.27-.05-.1-.07-.22-.07-.35,0-.25.08-.45.25-.61s.38-.24.62-.24.47.08.64.23Z" class="cls-4"/><path d="M101.56,33.29c-.06-.18-.15-.34-.26-.48-.11-.14-.25-.27-.41-.37-.16-.1-.34-.18-.53-.23-.19-.05-.39-.08-.6-.08-.29,0-.56.05-.8.16-.25.1-.46.25-.64.43-.18.18-.32.41-.42.67-.1.26-.15.54-.15.83,0,.31.05.6.15.85.1.26.24.48.43.67.19.19.41.33.66.44.25.1.53.16.84.16.42,0,.78-.1,1.1-.3.32-.2.55-.48.7-.84l1.05.31c-.19.61-.54,1.08-1.05,1.43s-1.12.52-1.81.52c-.47,0-.91-.08-1.31-.24-.4-.16-.75-.38-1.04-.67-.3-.29-.53-.63-.7-1.02-.17-.4-.25-.83-.25-1.29s.08-.89.25-1.28.39-.73.67-1.01c.28-.28.62-.51,1.02-.67.4-.16.82-.24,1.28-.24.35,0,.68.05.99.14.31.09.59.22.84.4.25.17.47.38.65.61.18.24.32.5.4.8l-1.06.32Z" class="cls-4"/><path d="M107.98,31.28c.4.17.75.4,1.04.68s.53.63.7,1.02.26.81.26,1.26-.09.85-.26,1.24-.41.73-.71,1.02c-.3.29-.65.52-1.04.7-.4.17-.82.26-1.26.26s-.89-.08-1.29-.25c-.4-.17-.74-.4-1.04-.68-.3-.29-.54-.63-.71-1.02-.17-.39-.26-.81-.26-1.26s.09-.87.26-1.26c.17-.39.41-.73.71-1.02.3-.29.65-.52,1.04-.68.4-.17.82-.25,1.28-.25s.87.08,1.28.25ZM105.89,32.3c-.25.1-.47.25-.66.44-.19.19-.33.42-.44.67-.1.26-.16.53-.16.83s.05.56.16.82c.1.26.25.49.44.68.19.19.41.34.66.44.25.1.52.16.81.16s.55-.05.8-.16c.25-.11.47-.26.67-.45s.34-.41.44-.67.16-.53.16-.82-.05-.56-.16-.82c-.1-.26-.25-.48-.44-.68s-.41-.34-.67-.44c-.25-.1-.52-.16-.8-.16s-.56.05-.81.16Z" class="cls-4"/><path d="M112.43,31.12v.25c0,.11.02.19.05.23s.09.06.16.06c.03,0,.06,0,.09-.01.03,0,.06-.02.09-.03s.06-.03.1-.06.07-.06.11-.09c.18-.15.38-.26.59-.34.21-.07.44-.11.7-.11.29,0,.55.05.78.14.24.1.45.25.63.47.08.1.15.16.22.2.07.04.15.05.23.05.03,0,.07,0,.1-.01.04,0,.07-.02.1-.04.03-.02.06-.04.1-.07s.08-.07.12-.11c.2-.21.43-.37.68-.47.26-.11.54-.16.84-.16.64,0,1.14.22,1.49.65.36.43.53,1.04.53,1.82v3.86h-1.2v-3.7c0-.5-.11-.89-.34-1.17-.23-.29-.53-.43-.92-.43-.2,0-.38.04-.55.12-.17.08-.31.2-.44.35-.12.15-.22.33-.28.55-.06.21-.1.44-.1.69v3.61h-1.2v-3.7c0-.24-.03-.46-.1-.66-.06-.2-.15-.37-.26-.51-.11-.14-.24-.25-.4-.32s-.33-.11-.53-.11-.37.04-.55.12c-.17.08-.32.2-.43.35s-.21.34-.28.55c-.07.21-.1.45-.1.7v3.58h-1.2v-6.23h1.14Z" class="cls-4"/></symbol><symbol viewBox="0 0 531.27 288" id="fundo_transparente"><rect height="288" width="531.27" x="0" class="cls-1"/></symbol></defs><g id="Golf"><g id="Campo_de_Golf"><g id="clock-on-spot_1_relógio"><use xlink:href="#fundo_transparente" height="288" width="531.27"/><g id="LINE"><line y2="283.29" x2="13.35" y1="4.21" x1="13.35" class="cls-2"/><rect height=".3" width="1.95" y="4.06" x="12.38" class="cls-3"/><rect height=".3" width="1.95" y="283.14" x="12.38" class="cls-3"/></g><g id="MTEXT"><path d="M3.31,159.66h5.29v.72h-4.54l.64,1.3h-.73l-.67-1.36v-.67Z"/><path d="M8.54,157.78c-.07.22-.17.4-.31.56-.13.15-.29.28-.47.36s-.38.13-.6.13c-.16,0-.31-.02-.45-.07-.15-.05-.28-.11-.4-.2-.12-.09-.22-.19-.3-.31s-.14-.25-.18-.4c-.05.14-.12.25-.2.36-.08.1-.17.19-.27.27s-.21.13-.33.17c-.12.04-.25.06-.38.06-.21,0-.39-.04-.56-.12-.17-.08-.32-.2-.44-.34-.13-.14-.22-.32-.29-.52-.07-.2-.1-.42-.1-.66s.03-.46.1-.66c.07-.2.17-.37.29-.52.12-.15.27-.26.44-.35.17-.08.36-.13.57-.13.13,0,.26.02.38.06.12.04.24.1.34.17.1.07.19.16.27.27.08.1.14.22.19.35.04-.15.1-.28.18-.4s.19-.22.31-.3c.12-.08.25-.15.4-.2.14-.05.29-.07.45-.07.21,0,.41.04.6.13.18.09.34.21.47.36.13.15.24.34.31.56.07.22.11.46.11.72s-.04.5-.11.72ZM3.98,157.41c.04.11.09.2.16.28.07.08.15.14.26.18s.21.07.33.07c.11,0,.22-.02.32-.07.1-.04.19-.11.26-.19.07-.08.13-.17.17-.28s.06-.23.06-.35-.02-.25-.06-.35c-.04-.1-.1-.2-.17-.28s-.16-.14-.26-.19c-.1-.04-.21-.07-.32-.07-.12,0-.23.02-.33.07-.1.04-.19.11-.26.19-.07.08-.12.17-.16.28-.04.11-.06.23-.06.36s.02.24.06.35ZM7.91,156.64c-.04-.13-.11-.23-.19-.32-.08-.09-.18-.16-.29-.21-.11-.05-.24-.08-.37-.08s-.26.03-.37.08c-.11.05-.21.12-.29.21-.08.09-.15.2-.2.33-.05.13-.07.26-.07.41s.02.28.07.41c.04.13.11.23.19.33s.18.16.3.21c.11.05.24.07.37.07.14,0,.27-.02.38-.07.11-.05.21-.12.29-.21.08-.09.14-.2.19-.33.04-.13.07-.26.07-.41s-.02-.29-.07-.41Z"/><path d="M3.45,151.87c.13-.25.32-.47.55-.65.23-.18.52-.32.85-.42.33-.1.69-.15,1.08-.15s.76.05,1.1.15.62.24.86.42c.24.18.43.4.56.65.13.25.2.52.2.83s-.07.57-.2.82-.32.47-.56.65c-.24.18-.53.32-.86.42-.33.1-.7.15-1.1.15s-.75-.05-1.08-.15c-.33-.1-.61-.24-.85-.42-.24-.18-.42-.4-.55-.65-.13-.25-.2-.53-.2-.83s.07-.58.2-.83ZM4.09,153.22c.1.16.23.29.41.41.18.11.38.2.63.27.24.07.51.1.81.1s.57-.03.82-.09c.25-.06.46-.15.64-.27.18-.12.32-.25.42-.41.1-.16.15-.33.15-.52s-.05-.37-.15-.53c-.1-.16-.24-.3-.42-.41-.18-.11-.39-.2-.64-.27-.25-.06-.52-.09-.82-.09s-.56.03-.81.09c-.25.06-.46.15-.63.26-.17.11-.31.25-.41.41-.1.16-.15.34-.15.53s.05.37.15.52Z"/><path d="M3.45,147.23c.13-.25.32-.47.55-.65.23-.18.52-.32.85-.42.33-.1.69-.15,1.08-.15s.76.05,1.1.15.62.24.86.42c.24.18.43.4.56.65.13.25.2.52.2.83s-.07.57-.2.82-.32.47-.56.65c-.24.18-.53.32-.86.42-.33.1-.7.15-1.1.15s-.75-.05-1.08-.15c-.33-.1-.61-.24-.85-.42-.24-.18-.42-.4-.55-.65-.13-.25-.2-.53-.2-.83s.07-.58.2-.83ZM4.09,148.58c.1.16.23.29.41.41.18.11.38.2.63.27.24.07.51.1.81.1s.57-.03.82-.09c.25-.06.46-.15.64-.27.18-.12.32-.25.42-.41.1-.16.15-.33.15-.52s-.05-.37-.15-.53c-.1-.16-.24-.3-.42-.41-.18-.11-.39-.2-.64-.27-.25-.06-.52-.09-.82-.09s-.56.03-.81.09c-.25.06-.46.15-.63.26-.17.11-.31.25-.41.41-.1.16-.15.34-.15.53s.05.37.15.52Z"/><path d="M4.95,142.4h.67c-.24-.11-.42-.26-.54-.45-.12-.18-.18-.4-.18-.63,0-.26.07-.48.2-.67.14-.19.33-.32.59-.41-.26-.11-.45-.27-.59-.46-.14-.2-.2-.43-.2-.7,0-.38.12-.67.37-.88.25-.21.61-.31,1.07-.31h2.25v.7h-2.16c-.29,0-.52.07-.69.2-.17.13-.25.31-.25.54,0,.12.02.22.07.32.05.1.11.18.2.26.09.07.19.13.32.16.12.04.26.06.4.06h2.11v.7h-2.16c-.14,0-.27.02-.38.06-.12.04-.22.09-.3.15-.08.06-.14.14-.19.23-.04.09-.07.2-.07.31s.02.22.07.32c.05.1.12.18.21.25.09.07.2.12.32.17.12.04.26.06.41.06h2.09v.7h-3.64v-.68Z"/><path d="M4.95,136.22h.67c-.24-.11-.42-.26-.54-.45-.12-.18-.18-.4-.18-.63,0-.26.07-.48.2-.67.14-.19.33-.32.59-.41-.26-.11-.45-.27-.59-.46-.14-.2-.2-.43-.2-.7,0-.38.12-.67.37-.88.25-.21.61-.31,1.07-.31h2.25v.7h-2.16c-.29,0-.52.07-.69.2-.17.13-.25.31-.25.54,0,.12.02.22.07.32.05.1.11.18.2.26.09.07.19.13.32.16.12.04.26.06.4.06h2.11v.7h-2.16c-.14,0-.27.02-.38.06-.12.04-.22.09-.3.15-.08.06-.14.14-.19.23-.04.09-.07.2-.07.31s.02.22.07.32c.05.1.12.18.21.25.09.07.2.12.32.17.12.04.26.06.41.06h2.09v.7h-3.64v-.68Z"/></g><rect height="279.38" width="13.97" y="4.43" x="27.53" class="cls-2"/><rect ry=".46" rx=".46" height="9.88" width="9.88" y="36.4" x="29.57" class="cls-2"/><path d="M81.81,3.69c-17.26-.49-31.99,10.64-36.97,26.13-.08.24-.3.41-.56.41h-2.79v21.98h2.72c.26,0,.48.17.56.41,4.8,15.29,19.07,26.38,35.94,26.38,20.99,0,37.98-17.18,37.66-38.25-.3-20.03-16.54-36.5-36.57-37.07Z" class="cls-2"/><circle r="35.37" cy="41.31" cx="80.68" class="cls-2"/><circle r="33.02" cy="41.31" cx="80.68" class="cls-2"/><circle r="29.96" cy="41.31" cx="80.68" class="cls-2"/><path d="M58.29,57.38l-1.94,1.41.18.24,1.93-1.4c-.06-.08-.11-.16-.17-.24Z" class="cls-3"/><path d="M58.31,21.37l1.78,1.6c.07-.07.13-.15.2-.23l-1.78-1.6-.2.22Z" class="cls-3"/><path d="M58.32,61.23l.2.22,1.78-1.6c-.07-.07-.13-.15-.2-.23l-1.78,1.6Z" class="cls-3"/><path d="M53.68,46.89l-2.33.5.06.29,2.34-.5c-.02-.1-.05-.19-.07-.29Z" class="cls-3"/><path d="M54.41,49.68l-2.27.74.09.28,2.27-.74c-.03-.1-.07-.19-.1-.28Z" class="cls-3"/><path d="M53.24,44.04l-2.37.25.03.3,2.38-.25c-.01-.1-.02-.2-.04-.3Z" class="cls-3"/><path d="M55.43,52.38l-2.18.97.12.27,2.18-.97c-.04-.09-.08-.18-.12-.27Z" class="cls-3"/><path d="M62.95,65.45l.24.18,1.41-1.94c-.08-.06-.16-.11-.24-.17l-1.41,1.93Z" class="cls-3"/><path d="M68.36,68.6l.27.12.97-2.18c-.09-.04-.18-.08-.27-.12l-.97,2.18Z" class="cls-3"/><path d="M72.3,15.04l-.74-2.27-.29.09.74,2.28c.1-.03.19-.07.29-.1Z" class="cls-3"/><path d="M64.6,18.92l-1.41-1.94-.24.18,1.41,1.94c.08-.06.16-.12.25-.17Z" class="cls-3"/><path d="M60.52,19.14l1.6,1.78c.07-.07.15-.13.23-.2l-1.61-1.78-.22.2Z" class="cls-3"/><path d="M71.28,69.74l.29.09.74-2.27c-.1-.03-.19-.06-.29-.1l-.74,2.27Z" class="cls-3"/><path d="M60.52,63.46l.22.2,1.6-1.78c-.07-.07-.15-.13-.23-.2l-1.6,1.78Z" class="cls-3"/><path d="M105.91,30.23l2.2-.98-.12-.27-2.2.98c.04.09.08.18.12.27Z" class="cls-3"/><path d="M103.04,21.37l-.2-.22-1.79,1.61c.07.07.13.15.2.23l1.8-1.62Z" class="cls-3"/><path d="M103.05,25.23l1.95-1.42-.18-.24-1.95,1.42c.06.08.11.16.17.24Z" class="cls-3"/><path d="M53.28,38.27l-2.38-.25-.03.3,2.38.25c0-.1.02-.2.03-.3Z" class="cls-3"/><path d="M107.66,35.72l2.35-.5-.06-.29-2.36.5c.02.1.05.19.07.29Z" class="cls-3"/><path d="M108.09,38.57l2.39-.25-.03-.3-2.4.25c0,.1.02.2.03.3Z" class="cls-3"/><path d="M106.93,32.93l2.29-.74-.09-.28-2.29.74c.03.09.07.19.1.28Z" class="cls-3"/><path d="M93,13.99l-.27-.12-.98,2.2c.09.04.18.08.27.12l.98-2.2Z" class="cls-3"/><path d="M54.51,32.64l-2.27-.74-.09.28,2.27.74c.03-.1.07-.19.1-.28Z" class="cls-3"/><path d="M53.75,35.43l-2.34-.5-.06.29,2.33.5c.02-.1.05-.19.07-.29Z" class="cls-3"/><path d="M69.6,16.07l-.97-2.19-.27.12.97,2.19c.09-.04.18-.08.27-.12Z" class="cls-3"/><path d="M55.56,29.96l-2.19-.97-.12.27,2.18.97c.04-.09.08-.18.12-.27Z" class="cls-3"/><path d="M58.47,24.98l-1.94-1.41-.18.24,1.94,1.41c.06-.08.11-.16.17-.24Z" class="cls-3"/><path d="M96.75,18.93c.08.06.16.11.24.17l1.42-1.95-.24-.18-1.42,1.95Z" class="cls-3"/><path d="M96.75,63.68l1.41,1.95.24-.18-1.41-1.94c-.08.06-.16.12-.24.17Z" class="cls-3"/><path d="M89.05,15.05c.1.03.19.06.28.1l.75-2.29-.29-.09-.74,2.29Z" class="cls-3"/><path d="M91.74,66.54l.98,2.19.27-.12-.98-2.19c-.09.04-.18.08-.27.12Z" class="cls-3"/><path d="M99,20.73c.07.07.15.13.22.2l1.61-1.79-.22-.2-1.61,1.79Z" class="cls-3"/><path d="M95.53,15.28h0l-.26-.15-2.4,4.16c.26.15.52.29.78.45l2.4-4.16-.26-.15-.26-.15Z" class="cls-3"/><path d="M99,61.88l1.61,1.79.22-.2-1.61-1.78c-.07.07-.15.13-.22.2Z" class="cls-3"/><path d="M107.59,47.18l2.35.5.06-.29-2.35-.5c-.02.1-.05.19-.07.29Z" class="cls-3"/><path d="M106.83,49.96l2.29.74.09-.28-2.29-.74c-.03.09-.06.19-.1.28Z" class="cls-3"/><path d="M108.06,44.33l2.4.25.03-.3-2.39-.25c0,.1-.02.2-.03.3Z" class="cls-3"/><path d="M101.05,59.86l1.79,1.61.2-.22-1.79-1.61c-.07.08-.13.15-.2.23Z" class="cls-3"/><path d="M105.79,52.65l2.2.98.12-.27-2.2-.98c-.04.09-.08.18-.12.27Z" class="cls-3"/><path d="M102.88,57.62l1.94,1.41.18-.24-1.95-1.42c-.06.08-.11.16-.17.24Z" class="cls-3"/><path d="M83.4,68.73l.25,2.38.3-.03-.25-2.39c-.1.01-.2.02-.3.03Z" class="cls-3"/><path d="M86.26,68.3l.5,2.34.29-.06-.5-2.35c-.1.02-.19.05-.29.07Z" class="cls-3"/><path d="M75.09,14.31l-.5-2.34-.29.06.5,2.34c.1-.02.19-.05.29-.07Z" class="cls-3"/><path d="M86.26,14.31c.1.02.19.05.29.07l.5-2.36-.29-.06-.5,2.35Z" class="cls-3"/><path d="M77.94,13.88l-.25-2.38-.3.03.25,2.38c.1-.01.2-.02.3-.03Z" class="cls-3"/><path d="M83.41,13.88c.1,0,.2.02.3.03l.25-2.4-.3-.03-.25,2.4Z" class="cls-3"/><path d="M77.4,71.08l.3.03.25-2.38c-.1,0-.2-.02-.3-.03l-.25,2.38Z" class="cls-3"/><path d="M74.3,70.57l.29.06.5-2.33c-.1-.02-.19-.05-.29-.07l-.5,2.34Z" class="cls-3"/><path d="M89.05,67.57l.74,2.28.28-.09-.74-2.28c-.1.03-.19.07-.29.1Z" class="cls-3"/><path d="M102.24,28.34c.15.26.3.52.45.78l4.16-2.41-.15-.26h0l-.07-.13-.22-.39-4.16,2.4Z" class="cls-3"/><path d="M68.48,19.29l-2.4-4.15-.26.15-.26.15-.26.15,2.4,4.15c.26-.15.51-.3.78-.45Z" class="cls-3"/><path d="M105.82,40.86c0,.15.01.3.01.45s0,.3-.01.45h4.81v-.9h-4.81Z" class="cls-3"/><path d="M67.7,62.87l-2.39,4.14.26.15.26.15.26.15,2.39-4.15c-.26-.15-.52-.29-.78-.45Z" class="cls-3"/><path d="M59.1,54.28c-.15-.26-.3-.52-.45-.78l-4.15,2.39.22.39.07.13h0l.15.26,4.14-2.39Z" class="cls-3"/><path d="M102.24,54.27l4.16,2.4.45-.78-4.16-2.4c-.15.26-.29.52-.45.78Z" class="cls-3"/><path d="M58.66,29.11c.15-.26.29-.52.45-.78l-4.15-2.39-.22.39-.07.13h0l-.15.26,4.15,2.4Z" class="cls-3"/><path d="M92.86,63.32l2.4,4.16.26-.15.26-.15.26-.15-2.4-4.16c-.26.15-.52.3-.78.45Z" class="cls-3"/><path d="M55.51,41.31c0-.15,0-.3.01-.45h-4.8v.9h4.8c0-.15-.01-.3-.01-.45Z" class="cls-3"/><path d="M80.22,66.46v4.8h.9v-4.8c-.15,0-.3.01-.45.01s-.3,0-.45-.01Z" class="cls-3"/><polygon points="81.13 11.37 81.13 15.86 80.64 15.15 80.2 15.75 80.2 11.37 81.13 11.37" class="cls-3"/><path d="M59.85,41.12c0,1.59-.64,2.38-1.91,2.38-.22,0-.4-.02-.53-.05v-.4c.15.05.33.07.52.07.46,0,.81-.14,1.04-.41.23-.27.36-.7.38-1.26h-.03c-.1.15-.24.27-.42.35-.17.08-.37.12-.59.12-.37,0-.67-.11-.88-.32-.22-.22-.33-.52-.33-.9,0-.42.12-.76.37-1,.24-.24.57-.37.96-.37.29,0,.54.07.75.21.21.14.38.35.49.62.11.27.17.59.17.96ZM58.44,39.72c-.27,0-.48.08-.63.25-.15.17-.22.41-.22.71,0,.27.07.48.21.63.14.15.35.23.63.23.17,0,.33-.03.48-.1.15-.07.26-.16.35-.28.09-.12.13-.24.13-.37,0-.19-.04-.37-.12-.54-.08-.16-.19-.29-.33-.39-.14-.09-.3-.14-.48-.14Z" class="cls-3"/><path d="M61.59,32.71h-.47v-2.89c0-.24,0-.47.02-.68-.04.04-.09.08-.14.12-.05.04-.28.22-.68.54l-.25-.32,1.11-.83h.4v4.06Z" class="cls-3"/><path d="M65.97,30.68c0,.7-.11,1.23-.34,1.57-.23.35-.58.52-1.05.52s-.8-.18-1.03-.53c-.24-.35-.35-.87-.35-1.56s.11-1.23.34-1.58c.23-.34.58-.51,1.04-.51s.8.18,1.04.54c.24.36.35.88.35,1.55ZM63.68,30.68c0,.59.07,1.02.22,1.29.14.27.37.4.69.4s.55-.14.69-.41c.14-.27.21-.7.21-1.28s-.07-1.01-.21-1.28c-.14-.27-.37-.41-.69-.41s-.54.13-.69.4c-.14.27-.22.7-.22,1.29Z" class="cls-3"/><path d="M61.46,50.07c.38,0,.69.08.91.26.22.17.34.41.34.71,0,.2-.06.38-.19.55-.13.17-.33.31-.61.45.34.16.58.32.73.5.14.17.22.38.22.6,0,.34-.12.61-.36.81-.24.2-.58.3-1,.3-.45,0-.79-.1-1.03-.29-.24-.19-.36-.46-.36-.81,0-.47.29-.83.88-1.09-.26-.14-.45-.3-.57-.47-.12-.17-.17-.35-.17-.56,0-.29.11-.53.34-.7.22-.18.52-.26.9-.26ZM60.55,53.16c0,.22.08.4.24.52.16.12.38.19.67.19s.51-.06.67-.2c.16-.13.24-.31.24-.53,0-.18-.07-.34-.22-.48-.15-.14-.41-.27-.78-.41-.28.12-.49.25-.62.39-.13.14-.19.32-.19.52ZM61.45,50.44c-.24,0-.43.05-.56.17-.14.11-.2.26-.2.44,0,.17.06.32.17.44.11.12.32.24.63.37.27-.11.47-.23.58-.36.11-.13.17-.28.17-.45,0-.19-.07-.34-.21-.45-.14-.11-.33-.17-.57-.17Z" class="cls-3"/><path d="M69.69,24.85h-.47v-2.89c0-.24,0-.47.02-.68-.04.04-.08.08-.14.12-.05.04-.28.22-.68.54l-.25-.32,1.11-.83h.4v4.06Z" class="cls-3"/><path d="M73.06,24.85h-.47v-2.89c0-.24,0-.47.02-.68-.04.04-.08.08-.13.12-.05.04-.28.22-.68.54l-.25-.32,1.11-.83h.4v4.06Z" class="cls-3"/><path d="M68.73,62.04l1.74-3.64h-2.29v-.42h2.79v.37l-1.72,3.69h-.53Z" class="cls-3"/><path d="M79.35,63.18c0-.8.16-1.4.48-1.79.32-.4.8-.59,1.42-.59.22,0,.39.02.51.05v.4c-.15-.05-.32-.07-.51-.07-.45,0-.79.14-1.03.41-.24.27-.37.7-.39,1.28h.04c.21-.32.54-.48,1-.48.38,0,.67.11.89.33.22.22.33.52.33.9,0,.42-.12.75-.36.99-.24.24-.56.36-.97.36-.44,0-.78-.16-1.03-.47-.25-.32-.38-.76-.38-1.32ZM80.76,64.58c.27,0,.48-.08.63-.25.15-.17.23-.4.23-.72,0-.27-.07-.48-.21-.63-.14-.15-.35-.23-.63-.23-.17,0-.33.03-.47.1-.14.07-.26.16-.34.28-.09.12-.13.25-.13.37,0,.19.04.37.11.53.08.17.19.3.33.39.14.1.3.15.48.15Z" class="cls-3"/><path d="M91.71,59.56c.44,0,.79.11,1.04.32.25.21.38.5.38.87,0,.42-.14.75-.42.99-.28.24-.66.36-1.14.36s-.83-.07-1.08-.22v-.44c.13.08.3.15.5.2.2.05.4.07.59.07.34,0,.6-.08.79-.23.19-.15.28-.37.28-.67,0-.57-.36-.85-1.08-.85-.18,0-.43.03-.73.08l-.25-.16.16-1.9h2.09v.43h-1.68l-.11,1.22c.22-.04.44-.06.66-.06Z" class="cls-3"/><path d="M101.48,53.25h-.62v.93h-.46v-.93h-2.04v-.4l1.99-2.75h.51v2.73h.62v.42ZM100.4,52.83v-1.35c0-.27,0-.56.03-.9h-.02c-.09.18-.18.32-.26.44l-1.31,1.81h1.57Z" class="cls-3"/><path d="M104.1,40.34c0,.26-.08.47-.23.64-.15.16-.36.27-.64.33v.02c.34.04.59.14.75.31.16.17.24.39.24.66,0,.39-.14.68-.41.89-.28.21-.67.31-1.18.31-.22,0-.43-.02-.61-.05-.18-.03-.37-.09-.54-.17v-.44c.18.09.38.15.58.2.2.05.4.07.58.07.72,0,1.09-.27,1.09-.83,0-.49-.4-.74-1.2-.74h-.41v-.4h.42c.33,0,.59-.07.78-.21.19-.14.29-.33.29-.58,0-.2-.07-.35-.21-.47-.14-.11-.33-.17-.57-.17-.18,0-.36.02-.52.07-.16.05-.35.14-.56.27l-.24-.31c.17-.13.37-.24.6-.31.22-.08.46-.11.71-.11.41,0,.73.09.95.27.22.18.34.43.34.74Z" class="cls-3"/><path d="M101.28,32.71h-2.76v-.4l1.11-1.07c.34-.33.56-.56.67-.71.11-.14.19-.28.24-.41.05-.13.08-.28.08-.43,0-.22-.07-.39-.2-.52-.14-.13-.33-.19-.57-.19-.17,0-.34.03-.5.08-.16.05-.33.16-.52.3l-.25-.31c.39-.31.81-.47,1.26-.47.39,0,.7.1.93.29.22.2.33.46.33.79,0,.26-.07.51-.22.76-.15.25-.43.57-.84.96l-.92.87v.02h2.16v.43Z" class="cls-3"/><path d="M92.16,24.85h-.47v-2.89c0-.24,0-.47.02-.68-.04.04-.09.08-.13.12-.05.04-.28.22-.68.54l-.25-.32,1.11-.83h.4v4.06Z" class="cls-3"/><path d="M82.94,21.55v.44h.82v-.44h-.82ZM83.21,18.16c-.17-.16-.38-.22-.66-.27l.33.55c.06.05.06.11.06.16.11.11.11.22.11.38,0,.11,0,.27-.05.38,0,.05-.06.05-.06.11v.71c.22-.16.33-.33.38-.49.17-.22.22-.49.22-.77,0-.33-.11-.6-.33-.77Z" class="cls-3"/><path d="M82.94,18.6v37.12h-4.65V18.49l.06-.05,1.86-2.68.44-.6.49.71,1.43,2.03.33.55c.06.05.06.11.06.16Z" class="cls-2"/><path d="M82.94,18.49v.11c0-.05,0-.11-.06-.16l.06.05Z" class="cls-2"/><polygon points="78.28 33.93 78.28 42.52 73.41 34.97 77.24 32.28 78.28 33.93" class="cls-2"/><polygon points="89.78 51.78 89.62 55.77 85.84 54.24 82.94 49.75 82.94 41.15 89.78 51.78" class="cls-2"/><circle r="2.88" cy="252.84" cx="175.03" class="cls-2"/><use xlink:href="#Floema_.com" transform="translate(172.69 252.35) scale(.03)" height="37.45" width="135.29"/><polyline points="182.02 6.31 182.02 283.81 168.05 283.81 168.05 77.06 173.32 77.06 173.32 6.32 168.05 6.32 168.05 4.45 174.41 4.45 174.41 79.69 176.05 79.69 176.05 4.45 182.02 4.45 182.02 6.32" class="cls-2"/><rect height="70.74" width="12.42" y="6.31" x="160.9" class="cls-2"/><rect height="76" width="1.64" y="3.69" x="174.41" class="cls-2"/><path d="M174.41,5.82v71.46c0,.22-.27.44-.54.44-.34,0-.54-.22-.54-.44V5.82c0-.27.21-.44.54-.44.27,0,.54.16.54.44Z" class="cls-2"/><g id="LINE-2"><line y2="242.81" x2="248.88" y1="242.81" x1="339.38" class="cls-2"/><rect height="1.95" width=".3" y="241.83" x="339.23" class="cls-3"/><rect height="1.95" width=".3" y="241.83" x="248.73" class="cls-3"/></g><g id="MTEXT-2"><path d="M284.24,232.76v.65h-1.92l-.25,1.54c.1-.09.22-.16.36-.21.14-.05.29-.07.46-.07.25,0,.47.04.68.13.21.08.38.2.53.35.15.15.27.33.35.54.08.21.12.44.12.69s-.04.48-.13.7c-.09.21-.21.4-.36.55-.16.15-.34.27-.56.36-.21.08-.45.13-.71.13-.2,0-.39-.03-.58-.08s-.35-.13-.5-.23c-.15-.1-.28-.22-.39-.36-.11-.14-.19-.3-.24-.48l.63-.31c.07.24.19.43.39.56.19.14.42.21.67.21.15,0,.29-.03.41-.08.13-.05.23-.12.33-.21.09-.09.16-.2.21-.33.05-.13.08-.27.08-.43s-.03-.3-.08-.44c-.05-.13-.13-.25-.22-.34s-.21-.17-.34-.22c-.13-.05-.28-.08-.44-.08-.18,0-.35.04-.49.1-.14.07-.26.17-.36.31l-.62-.15.47-2.79h2.52Z"/><path d="M286.16,237.99c-.22-.07-.4-.17-.56-.31-.15-.13-.28-.29-.36-.47s-.13-.38-.13-.6c0-.16.02-.31.07-.45.05-.15.11-.28.2-.4.09-.12.19-.22.31-.3s.25-.14.4-.18c-.14-.05-.25-.12-.36-.2-.1-.08-.19-.17-.27-.27s-.13-.21-.17-.33c-.04-.12-.06-.25-.06-.38,0-.21.04-.39.12-.56.08-.17.2-.32.34-.44.14-.13.32-.22.52-.29.2-.07.42-.1.66-.1s.46.03.66.1c.2.07.37.17.52.29.15.12.26.27.35.44.08.17.13.36.13.57,0,.13-.02.26-.06.38-.04.12-.1.24-.17.34-.07.1-.16.19-.27.27-.1.08-.22.14-.35.19.15.04.28.1.4.18s.22.19.3.31c.08.12.15.25.2.4.05.14.07.29.07.45,0,.21-.04.41-.13.6-.09.18-.21.34-.36.47-.15.13-.34.24-.56.31-.22.07-.46.11-.72.11s-.5-.04-.72-.11ZM287.29,237.36c.13-.04.23-.11.32-.19.09-.08.16-.18.21-.29.05-.11.08-.24.08-.37s-.03-.26-.08-.37c-.05-.11-.12-.21-.21-.29-.09-.08-.2-.15-.33-.2-.13-.05-.26-.07-.41-.07s-.28.02-.41.07c-.13.04-.23.11-.33.19s-.16.18-.21.3c-.05.11-.07.24-.07.37,0,.14.02.27.07.38.05.11.12.21.21.29.09.08.2.14.33.19.13.04.26.07.41.07s.29-.02.41-.07ZM286.52,233.44c-.11.04-.2.09-.28.16-.08.07-.14.15-.18.26s-.07.21-.07.33c0,.11.02.22.07.32.04.1.11.19.19.26.08.07.17.13.28.17s.23.06.35.06.25-.02.35-.06c.1-.04.2-.1.28-.17s.14-.16.19-.26c.04-.1.07-.21.07-.32,0-.12-.02-.23-.07-.33-.04-.1-.11-.19-.19-.26-.08-.07-.17-.12-.28-.16-.11-.04-.23-.06-.36-.06s-.24.02-.35.06Z"/><path d="M292.31,232.76v.65h-1.92l-.25,1.54c.1-.09.22-.16.36-.21.14-.05.29-.07.46-.07.25,0,.47.04.68.13.21.08.38.2.53.35.15.15.27.33.35.54.08.21.12.44.12.69s-.04.48-.13.7c-.09.21-.21.4-.36.55-.16.15-.34.27-.56.36-.21.08-.45.13-.71.13-.2,0-.39-.03-.58-.08s-.35-.13-.5-.23c-.15-.1-.28-.22-.39-.36-.11-.14-.19-.3-.24-.48l.63-.31c.07.24.19.43.39.56.19.14.42.21.67.21.15,0,.29-.03.41-.08.13-.05.23-.12.33-.21.09-.09.16-.2.21-.33.05-.13.08-.27.08-.43s-.03-.3-.08-.44c-.05-.13-.13-.25-.22-.34s-.21-.17-.34-.22c-.13-.05-.28-.08-.44-.08-.18,0-.35.04-.49.1-.14.07-.26.17-.36.31l-.62-.15.47-2.79h2.52Z"/><path d="M296.24,234.41v.67c.11-.24.26-.42.45-.54.18-.12.4-.18.63-.18.26,0,.48.07.67.2.19.14.32.33.41.59.11-.26.27-.45.46-.59.2-.14.43-.2.7-.2.38,0,.67.12.88.37.21.25.31.61.31,1.07v2.25h-.7v-2.16c0-.29-.07-.52-.2-.69-.13-.17-.31-.25-.54-.25-.12,0-.22.02-.32.07-.1.05-.18.11-.26.2-.07.09-.13.19-.16.32-.04.12-.06.26-.06.4v2.11h-.7v-2.16c0-.14-.02-.27-.06-.38-.04-.12-.09-.22-.15-.3-.06-.08-.14-.14-.23-.19-.09-.04-.2-.07-.31-.07s-.22.02-.32.07c-.1.05-.18.12-.25.21-.07.09-.12.2-.17.32-.04.12-.06.26-.06.41v2.09h-.7v-3.64h.68Z"/><path d="M302.43,234.41v.67c.11-.24.26-.42.45-.54.18-.12.4-.18.63-.18.26,0,.48.07.67.2.19.14.32.33.41.59.11-.26.27-.45.46-.59.2-.14.43-.2.7-.2.38,0,.67.12.88.37.21.25.31.61.31,1.07v2.25h-.7v-2.16c0-.29-.07-.52-.2-.69-.13-.17-.31-.25-.54-.25-.12,0-.22.02-.32.07-.1.05-.18.11-.26.2-.07.09-.13.19-.16.32-.04.12-.06.26-.06.4v2.11h-.7v-2.16c0-.14-.02-.27-.06-.38-.04-.12-.09-.22-.15-.3-.06-.08-.14-.14-.23-.19-.09-.04-.2-.07-.31-.07s-.22.02-.32.07c-.1.05-.18.12-.25.21-.07.09-.12.2-.17.32-.04.12-.06.26-.06.41v2.09h-.7v-3.64h.68Z"/></g><line y2="278.19" x2="235.44" y1="257.29" x1="235.44" class="cls-2"/><rect height=".3" width="1.95" y="257.14" x="234.46" class="cls-3"/><rect height=".3" width="1.95" y="278.04" x="234.46" class="cls-3"/><g id="MTEXT-3"><path d="M225.39,276.08h5.29v.72h-4.54l.64,1.3h-.73l-.67-1.36v-.67Z"/><path d="M225.39,272.09h.55l.98.65c.06.04.1.07.15.1.04.03.08.06.13.09s.09.06.13.09.09.06.15.09c.02-.19.08-.37.18-.52s.21-.29.35-.41c.14-.12.3-.21.48-.27s.38-.09.59-.09c.24,0,.47.04.67.13.2.08.38.2.52.36.14.15.26.34.34.54s.12.44.12.69c0,.21-.03.4-.08.58-.05.18-.13.35-.23.49-.1.15-.22.28-.37.39-.14.11-.31.2-.49.26l-.31-.63c.24-.08.44-.22.58-.41.14-.19.21-.42.21-.67,0-.15-.02-.28-.07-.4-.05-.12-.11-.23-.2-.31-.09-.09-.19-.15-.31-.2-.12-.05-.26-.07-.41-.07s-.29.03-.42.08c-.13.06-.23.13-.32.22-.09.09-.16.21-.21.34-.05.13-.08.28-.08.44v.35l-.44.08-1.07-.72s-.09-.06-.12-.09c-.03-.03-.07-.05-.12-.08s-.08-.06-.12-.08c-.03-.03-.07-.06-.12-.09v2.18h-.65v-3.09Z"/><path d="M230.68,270.71l-4.62-1.78v2.69h-.67v-3.5h.59l4.7,1.77v.83Z"/><path d="M227.04,264.68h.67c-.24-.11-.42-.26-.54-.45-.12-.18-.18-.4-.18-.63,0-.26.07-.48.2-.67.14-.19.33-.32.59-.41-.26-.11-.45-.27-.59-.46-.14-.2-.2-.43-.2-.7,0-.38.12-.67.37-.88.25-.21.61-.31,1.07-.31h2.25v.7h-2.16c-.29,0-.52.07-.69.2-.17.13-.25.31-.25.54,0,.12.02.22.07.32.05.1.11.18.2.26.09.07.19.13.32.16.12.04.26.06.4.06h2.11v.7h-2.16c-.14,0-.27.02-.38.06-.12.04-.22.09-.3.15-.08.06-.14.14-.19.23-.04.09-.07.2-.07.31s.02.22.07.32c.05.1.12.18.21.25.09.07.2.12.32.17.12.04.26.06.41.06h2.09v.7h-3.64v-.68Z"/><path d="M227.04,258.5h.67c-.24-.11-.42-.26-.54-.45-.12-.18-.18-.4-.18-.63,0-.26.07-.48.2-.67.14-.19.33-.32.59-.41-.26-.11-.45-.27-.59-.46-.14-.2-.2-.43-.2-.7,0-.38.12-.67.37-.88.25-.21.61-.31,1.07-.31h2.25v.7h-2.16c-.29,0-.52.07-.69.2-.17.13-.25.31-.25.54,0,.12.02.22.07.32.05.1.11.18.2.26.09.07.19.13.32.16.12.04.26.06.4.06h2.11v.7h-2.16c-.14,0-.27.02-.38.06-.12.04-.22.09-.3.15-.08.06-.14.14-.19.23-.04.09-.07.2-.07.31s.02.22.07.32c.05.1.12.18.21.25.09.07.2.12.32.17.12.04.26.06.41.06h2.09v.7h-3.64v-.68Z"/></g><rect height="13.97" width="13.97" y="264.37" x="249.61" class="cls-2"/><rect height="1.53" width="1.53" y="270.59" x="264.79" class="cls-2"/><rect height="1.53" width="1.2" y="270.59" x="263.58" class="cls-2"/><rect height="12.42" width="70.74" y="256.98" x="266.98" class="cls-2"/><rect height="1.64" width="72.33" y="270.48" x="266.32" class="cls-2"/><path d="M338.21,270.48h-71.46c-.22,0-.44-.27-.44-.54,0-.34.22-.54.44-.54h71.46c.27,0,.44.21.44.54,0,.27-.16.54-.44.54Z" class="cls-2"/></g></g></g></svg>