<svg viewBox="0 0 531.27 288.15" xmlns:xlink="http://www.w3.org/1999/xlink" xmlns="http://www.w3.org/2000/svg" id="Camada_2"><defs><style>.cls-1,.cls-2{fill:none;}.cls-3{fill:#12100c;}.cls-2{stroke:#12100c;stroke-linecap:round;stroke-linejoin:round;stroke-width:.3px;}</style><symbol viewBox="0 0 531.27 288" id="fundo_transparente"><rect height="288" width="531.27" x="0" class="cls-1"/></symbol></defs><g id="RePlastic"><g id="dispensador_de_cinzeiros_Green_bay"><use xlink:href="#fundo_transparente" transform="translate(0 .15)" height="288" width="531.27"/><path d="M3.03,205.32h5.29v.72H3.78l.64,1.3h-.73l-.67-1.36v-.67Z"/><path d="M3.03,201.37h.65v1.92l1.54.25c-.09-.1-.16-.22-.21-.36-.05-.14-.07-.29-.07-.46,0-.25.04-.47.13-.68.08-.21.2-.38.35-.53.15-.15.33-.27.54-.35.21-.08.44-.12.69-.12s.48.04.7.13c.21.09.4.21.55.36.15.16.27.34.36.56.08.21.13.45.13.71,0,.2-.03.39-.08.58s-.13.35-.23.5c-.1.15-.22.28-.36.39-.14.11-.3.19-.48.24l-.31-.63c.24-.07.43-.19.56-.39.14-.19.21-.42.21-.67,0-.15-.03-.29-.08-.41-.05-.13-.12-.23-.21-.33-.09-.09-.2-.16-.33-.21-.13-.05-.27-.08-.43-.08s-.3.03-.44.08c-.13.05-.25.13-.34.22s-.17.21-.22.34c-.05.13-.08.28-.08.44,0,.18.04.35.1.49.07.14.17.26.31.36l-.15.62-2.79-.47v-2.52Z"/><path d="M3.17,197.63c.13-.25.32-.47.55-.65.23-.18.52-.32.85-.42.33-.1.69-.15,1.08-.15s.76.05,1.1.15.62.24.86.42c.24.18.43.4.56.65.13.25.2.52.2.83s-.07.57-.2.82-.32.47-.56.65c-.24.18-.53.32-.86.42-.33.1-.7.15-1.1.15s-.75-.05-1.08-.15c-.33-.1-.61-.24-.85-.42-.24-.18-.42-.4-.55-.65-.13-.25-.2-.53-.2-.83s.07-.58.2-.83ZM3.8,198.99c.1.16.23.29.41.41.18.11.38.2.63.27.24.07.51.1.81.1s.57-.03.82-.09c.25-.06.46-.15.64-.27.18-.12.32-.25.42-.41.1-.16.15-.33.15-.52s-.05-.37-.15-.53c-.1-.16-.24-.3-.42-.41-.18-.11-.39-.2-.64-.27-.25-.06-.52-.09-.82-.09s-.56.03-.81.09c-.25.06-.46.15-.63.26-.17.11-.31.25-.41.41-.1.16-.15.34-.15.53s.05.37.15.52Z"/><path d="M3.17,193c.13-.25.32-.47.55-.65.23-.18.52-.32.85-.42.33-.1.69-.15,1.08-.15s.76.05,1.1.15.62.24.86.42c.24.18.43.4.56.65.13.25.2.52.2.83s-.07.57-.2.82-.32.47-.56.65c-.24.18-.53.32-.86.42-.33.1-.7.15-1.1.15s-.75-.05-1.08-.15c-.33-.1-.61-.24-.85-.42-.24-.18-.42-.4-.55-.65-.13-.25-.2-.53-.2-.83s.07-.58.2-.83ZM3.8,194.35c.1.16.23.29.41.41.18.11.38.2.63.27.24.07.51.1.81.1s.57-.03.82-.09c.25-.06.46-.15.64-.27.18-.12.32-.25.42-.41.1-.16.15-.33.15-.52s-.05-.37-.15-.53c-.1-.16-.24-.3-.42-.41-.18-.11-.39-.2-.64-.27-.25-.06-.52-.09-.82-.09s-.56.03-.81.09c-.25.06-.46.15-.63.26-.17.11-.31.25-.41.41-.1.16-.15.34-.15.53s.05.37.15.52Z"/><path d="M4.67,188.17h.67c-.24-.11-.42-.26-.54-.45-.12-.18-.18-.4-.18-.63,0-.26.07-.48.2-.67.14-.19.33-.32.59-.41-.26-.11-.45-.27-.59-.46-.14-.2-.2-.43-.2-.7,0-.38.12-.67.37-.88.25-.21.61-.31,1.07-.31h2.25v.7h-2.16c-.29,0-.52.07-.69.2-.17.13-.25.31-.25.54,0,.12.02.22.07.32.05.1.11.18.2.26.09.07.19.13.32.16.12.04.26.06.4.06h2.11v.7h-2.16c-.14,0-.27.02-.38.06-.12.04-.22.09-.3.15-.08.06-.14.14-.19.23-.04.09-.07.2-.07.31s.02.22.07.32c.05.1.12.18.21.25.09.07.2.12.32.17.12.04.26.06.41.06h2.09v.7h-3.64v-.68Z"/><path d="M4.67,181.98h.67c-.24-.11-.42-.26-.54-.45-.12-.18-.18-.4-.18-.63,0-.26.07-.48.2-.67.14-.19.33-.32.59-.41-.26-.11-.45-.27-.59-.46-.14-.2-.2-.43-.2-.7,0-.38.12-.67.37-.88.25-.21.61-.31,1.07-.31h2.25v.7h-2.16c-.29,0-.52.07-.69.2-.17.13-.25.31-.25.54,0,.12.02.22.07.32.05.1.11.18.2.26.09.07.19.13.32.16.12.04.26.06.4.06h2.11v.7h-2.16c-.14,0-.27.02-.38.06-.12.04-.22.09-.3.15-.08.06-.14.14-.19.23-.04.09-.07.2-.07.31s.02.22.07.32c.05.1.12.18.21.25.09.07.2.12.32.17.12.04.26.06.41.06h2.09v.7h-3.64v-.68Z"/><line y2="286.49" x2="13.07" y1="95.97" x1="13.07" class="cls-2"/><rect height=".3" width="1.95" y="95.82" x="12.1" class="cls-3"/><rect height=".3" width="1.95" y="286.34" x="12.1" class="cls-3"/><path d="M3.09,51.23c.08-.21.19-.39.33-.54.14-.15.31-.27.51-.35.2-.08.42-.13.67-.13.14,0,.28.02.42.05.14.03.28.08.41.15.14.07.27.16.42.27.14.11.29.24.45.39l1.35,1.31v-2.29h.67v3.32h-.59l-1.85-1.79c-.12-.12-.23-.22-.33-.3-.1-.08-.21-.15-.3-.2-.1-.05-.19-.09-.29-.11-.09-.02-.19-.03-.29-.03-.15,0-.28.02-.4.07-.12.04-.23.11-.32.2-.09.09-.16.19-.21.3-.05.11-.07.24-.07.39,0,.25.08.47.23.65.15.18.36.31.63.39l-.23.67c-.42-.12-.74-.32-.97-.62s-.34-.66-.34-1.1c0-.25.04-.48.12-.69Z"/><path d="M3.09,47.2c.08-.21.19-.39.33-.54.14-.15.31-.27.51-.35.2-.08.42-.13.67-.13.14,0,.28.02.42.05.14.03.28.08.41.15.14.07.27.16.42.27.14.11.29.24.45.39l1.35,1.31v-2.29h.67v3.32h-.59l-1.85-1.79c-.12-.12-.23-.22-.33-.3-.1-.08-.21-.15-.3-.2-.1-.05-.19-.09-.29-.11-.09-.02-.19-.03-.29-.03-.15,0-.28.02-.4.07-.12.04-.23.11-.32.2-.09.09-.16.19-.21.3-.05.11-.07.24-.07.39,0,.25.08.47.23.65.15.18.36.31.63.39l-.23.67c-.42-.12-.74-.32-.97-.62s-.34-.66-.34-1.1c0-.25.04-.48.12-.69Z"/><path d="M3.17,42.65c.13-.25.32-.47.55-.65.23-.18.52-.32.85-.42.33-.1.69-.15,1.08-.15s.76.05,1.1.15.62.24.86.42c.24.18.43.4.56.65.13.25.2.52.2.83s-.07.57-.2.82-.32.47-.56.65c-.24.18-.53.32-.86.42-.33.1-.7.15-1.1.15s-.75-.05-1.08-.15c-.33-.1-.61-.24-.85-.42-.24-.18-.42-.4-.55-.65-.13-.25-.2-.53-.2-.83s.07-.58.2-.83ZM3.8,44.01c.1.16.23.29.41.41.18.11.38.2.63.27.24.07.51.1.81.1s.57-.03.82-.09c.25-.06.46-.15.64-.27.18-.12.32-.25.42-.41.1-.16.15-.33.15-.52s-.05-.37-.15-.53c-.1-.16-.24-.3-.42-.41-.18-.11-.39-.2-.64-.27-.25-.06-.52-.09-.82-.09s-.56.03-.81.09c-.25.06-.46.15-.63.26-.17.11-.31.25-.41.41-.1.16-.15.34-.15.53s.05.37.15.52Z"/><path d="M4.67,37.83h.67c-.24-.11-.42-.26-.54-.45-.12-.18-.18-.4-.18-.63,0-.26.07-.48.2-.67.14-.19.33-.32.59-.41-.26-.11-.45-.27-.59-.46-.14-.2-.2-.43-.2-.7,0-.38.12-.67.37-.88.25-.21.61-.31,1.07-.31h2.25v.7h-2.16c-.29,0-.52.07-.69.2-.17.13-.25.31-.25.54,0,.12.02.22.07.32.05.1.11.18.2.26.09.07.19.13.32.16.12.04.26.06.4.06h2.11v.7h-2.16c-.14,0-.27.02-.38.06-.12.04-.22.09-.3.15-.08.06-.14.14-.19.23-.04.09-.07.2-.07.31s.02.22.07.32c.05.1.12.18.21.25.09.07.2.12.32.17.12.04.26.06.41.06h2.09v.7h-3.64v-.68Z"/><path d="M4.67,31.64h.67c-.24-.11-.42-.26-.54-.45-.12-.18-.18-.4-.18-.63,0-.26.07-.48.2-.67.14-.19.33-.32.59-.41-.26-.11-.45-.27-.59-.46-.14-.2-.2-.43-.2-.7,0-.38.12-.67.37-.88.25-.21.61-.31,1.07-.31h2.25v.7h-2.16c-.29,0-.52.07-.69.2-.17.13-.25.31-.25.54,0,.12.02.22.07.32.05.1.11.18.2.26.09.07.19.13.32.16.12.04.26.06.4.06h2.11v.7h-2.16c-.14,0-.27.02-.38.06-.12.04-.22.09-.3.15-.08.06-.14.14-.19.23-.04.09-.07.2-.07.31s.02.22.07.32c.05.1.12.18.21.25.09.07.2.12.32.17.12.04.26.06.41.06h2.09v.7h-3.64v-.68Z"/><line y2="53.03" x2="13.07" y1="25.35" x1="13.07" class="cls-2"/><rect height=".3" width="1.95" y="25.2" x="12.1" class="cls-3"/><rect height=".3" width="1.95" y="52.88" x="12.1" class="cls-3"/><path d="M36.8,29.02v-2.65c0-.72.54-1.3,1.26-1.3h125.88c.72,0,1.3.58,1.3,1.3v2.65" class="cls-2"/><path d="M36.8,49.35v2.65c0,.36.13.67.36.94.22.22.54.36.9.36h125.88c.72,0,1.3-.58,1.3-1.3v-2.65" class="cls-2"/><polyline points="115.42 31.5 115.41 31.36 115.39 31.23 115.37 31.09 115.34 30.96 115.3 30.83 115.26 30.7 115.21 30.57 115.15 30.45 115.09 30.33 115.02 30.22 114.95 30.1 114.88 30 114.79 29.89 114.71 29.79 114.61 29.7 114.52 29.6 114.42 29.52 114.31 29.44 114.21 29.36 114.09 29.29 113.98 29.22 113.86 29.16 113.74 29.11 113.61 29.06 113.48 29.01 113.35 28.98 113.22 28.94 113.08 28.92 112.94 28.9 112.8 28.89 112.66 28.89 112.52 28.89 112.38 28.9 112.24 28.92 112.11 28.94 111.97 28.98 111.84 29.01 111.71 29.06 111.59 29.11 111.46 29.16 111.35 29.22 111.23 29.29 111.12 29.36 111.01 29.44 110.91 29.52 110.81 29.6 110.71 29.7 110.62 29.79 110.53 29.89 110.45 30 110.37 30.1 110.3 30.22 110.23 30.33 110.17 30.45 110.12 30.57 110.07 30.7 110.02 30.83 109.99 30.96 109.96 31.09 109.93 31.23 109.91 31.36 109.9 31.5 109.9 31.65 109.9 31.79 109.91 31.93 109.93 32.07 109.96 32.2 109.99 32.34 110.02 32.47 110.07 32.59 110.12 32.72 110.17 32.84 110.23 32.96 110.3 33.08 110.37 33.19 110.45 33.3 110.53 33.4 110.62 33.5 110.71 33.6 110.81 33.69 110.91 33.77 111.01 33.86 111.12 33.93 111.23 34 111.35 34.07 111.46 34.13 111.59 34.19 111.71 34.24 111.84 34.28 111.97 34.32 112.11 34.35 112.24 34.37 112.38 34.39 112.52 34.4 112.66 34.4 112.8 34.4 112.94 34.39 113.08 34.37 113.22 34.35 113.35 34.32 113.48 34.28 113.61 34.24 113.74 34.19 113.86 34.13 113.98 34.07 114.09 34 114.21 33.93 114.31 33.86 114.42 33.77 114.52 33.69 114.61 33.6 114.71 33.5 114.79 33.4 114.88 33.3 114.95 33.19 115.02 33.08 115.09 32.96 115.15 32.84 115.21 32.72 115.26 32.59 115.3 32.47 115.34 32.34 115.37 32.2 115.39 32.07 115.41 31.93 115.42 31.79 115.42 31.65 115.42 31.5" class="cls-2"/><polyline points="52.1 31.79 52.11 31.93 52.12 32.07 52.15 32.2 52.18 32.34 52.22 32.47 52.26 32.59 52.31 32.72 52.36 32.84 52.43 32.96 52.49 33.08 52.56 33.19 52.64 33.3 52.72 33.4 52.81 33.5 52.9 33.6 53 33.69 53.1 33.77 53.2 33.86 53.31 33.93 53.42 34 53.54 34.07 53.66 34.13 53.78 34.19 53.9 34.24 54.03 34.28 54.16 34.32 54.3 34.35 54.43 34.37 54.57 34.39 54.71 34.4 54.85 34.4 55 34.4 55.14 34.39 55.27 34.37 55.41 34.35 55.54 34.32 55.68 34.28 55.8 34.24 55.93 34.19 56.05 34.13 56.17 34.07 56.29 34 56.4 33.93 56.51 33.86 56.61 33.77 56.71 33.69 56.81 33.6 56.9 33.5 56.99 33.4 57.07 33.3 57.14 33.19 57.22 33.08 57.28 32.96 57.34 32.84 57.4 32.72 57.45 32.59 57.49 32.47 57.53 32.34 57.56 32.2 57.58 32.07 57.6 31.93 57.61 31.79 57.62 31.65 57.61 31.5 57.6 31.36 57.58 31.23 57.56 31.09 57.53 30.96 57.49 30.83 57.45 30.7 57.4 30.57 57.34 30.45 57.28 30.33 57.22 30.22 57.14 30.1 57.07 30 56.99 29.89 56.9 29.79 56.81 29.7 56.71 29.6 56.61 29.52 56.51 29.44 56.4 29.36 56.29 29.29 56.17 29.22 56.05 29.16 55.93 29.11 55.8 29.06 55.68 29.01 55.54 28.98 55.41 28.94 55.27 28.92 55.14 28.9 55 28.89 54.85 28.89 54.71 28.89 54.57 28.9 54.43 28.92 54.3 28.94 54.16 28.98 54.03 29.01 53.9 29.06 53.78 29.11 53.66 29.16 53.54 29.22 53.42 29.29 53.31 29.36 53.2 29.44 53.1 29.52 53 29.6 52.9 29.7 52.81 29.79 52.72 29.89 52.64 30 52.56 30.1 52.49 30.22 52.43 30.33 52.36 30.45 52.31 30.57 52.26 30.7 52.22 30.83 52.18 30.96 52.15 31.09 52.12 31.23 52.11 31.36 52.1 31.5 52.09 31.65 52.1 31.79" class="cls-2"/><polyline points="133.04 47.02 133.06 47.16 133.08 47.3 133.11 47.43 133.15 47.56 133.19 47.69 133.24 47.82 133.3 47.94 133.36 48.06 133.42 48.17 133.5 48.28 133.57 48.39 133.65 48.5 133.74 48.6 133.83 48.69 133.93 48.78 134.03 48.87 134.13 48.95 134.24 49.03 134.35 49.1 134.47 49.17 134.59 49.23 134.71 49.28 134.84 49.33 134.96 49.38 135.1 49.41 135.23 49.44 135.36 49.47 135.5 49.48 135.64 49.5 135.79 49.5 135.93 49.5 136.07 49.48 136.21 49.47 136.34 49.44 136.48 49.41 136.61 49.38 136.73 49.33 136.86 49.28 136.98 49.23 137.1 49.17 137.22 49.1 137.33 49.03 137.44 48.95 137.54 48.87 137.64 48.78 137.74 48.69 137.83 48.6 137.92 48.5 138 48.39 138.08 48.28 138.15 48.17 138.21 48.06 138.27 47.94 138.33 47.82 138.38 47.69 138.42 47.56 138.46 47.43 138.49 47.3 138.52 47.16 138.53 47.02 138.54 46.88 138.55 46.74 138.54 46.6 138.53 46.46 138.52 46.32 138.49 46.19 138.46 46.05 138.42 45.92 138.38 45.79 138.33 45.67 138.27 45.55 138.21 45.43 138.15 45.31 138.08 45.2 138 45.09 137.92 44.99 137.83 44.89 137.74 44.79 137.64 44.7 137.54 44.61 137.44 44.53 137.33 44.46 137.22 44.38 137.1 44.32 136.98 44.26 136.86 44.2 136.73 44.15 136.61 44.11 136.48 44.07 136.34 44.04 136.21 44.02 136.07 44 135.93 43.99 135.79 43.98 135.64 43.99 135.5 44 135.36 44.02 135.23 44.04 135.1 44.07 134.96 44.11 134.84 44.15 134.71 44.2 134.59 44.26 134.47 44.32 134.35 44.38 134.24 44.46 134.13 44.53 134.03 44.61 133.93 44.7 133.83 44.79 133.74 44.89 133.65 44.99 133.57 45.09 133.5 45.2 133.42 45.31 133.36 45.43 133.3 45.55 133.24 45.67 133.19 45.79 133.15 45.92 133.11 46.05 133.08 46.19 133.06 46.32 133.04 46.46 133.03 46.6 133.02 46.74 133.03 46.88 133.04 47.02" class="cls-2"/><polyline points="79.05 29.11 78.93 29.06 78.8 29.01 78.67 28.98 78.53 28.94 78.4 28.92 78.26 28.9 78.12 28.89 77.98 28.89 77.84 28.89 77.69 28.9 77.56 28.92 77.42 28.94 77.29 28.98 77.16 29.01 77.03 29.06 76.9 29.11 76.78 29.16 76.66 29.22 76.55 29.29 76.43 29.36 76.32 29.44 76.22 29.52 76.12 29.6 76.02 29.7 75.93 29.79 75.85 29.89 75.76 30 75.69 30.1 75.62 30.22 75.55 30.33 75.49 30.45 75.43 30.57 75.38 30.7 75.34 30.83 75.3 30.96 75.27 31.09 75.25 31.23 75.23 31.36 75.22 31.5 75.22 31.65 75.22 31.79 75.23 31.93 75.25 32.07 75.27 32.2 75.3 32.34 75.34 32.47 75.38 32.59 75.43 32.72 75.49 32.84 75.55 32.96 75.62 33.08 75.69 33.19 75.76 33.3 75.85 33.4 75.93 33.5 76.02 33.6 76.12 33.69 76.22 33.77 76.32 33.86 76.43 33.93 76.55 34 76.66 34.07 76.78 34.13 76.9 34.19 77.03 34.24 77.16 34.28 77.29 34.32 77.42 34.35 77.56 34.37 77.69 34.39 77.84 34.4 77.98 34.4 78.12 34.4 78.26 34.39 78.4 34.37 78.53 34.35 78.67 34.32 78.8 34.28 78.93 34.24 79.05 34.19 79.17 34.13 79.29 34.07 79.41 34 79.52 33.93 79.63 33.86 79.73 33.77 79.83 33.69 79.93 33.6 80.02 33.5 80.11 33.4 80.19 33.3 80.27 33.19 80.34 33.08 80.41 32.96 80.47 32.84 80.52 32.72 80.57 32.59 80.61 32.47 80.65 32.34 80.68 32.2 80.71 32.07 80.72 31.93 80.74 31.79 80.74 31.65 80.74 31.5 80.72 31.36 80.71 31.23 80.68 31.09 80.65 30.96 80.61 30.83 80.57 30.7 80.52 30.57 80.47 30.45 80.41 30.33 80.34 30.22 80.27 30.1 80.19 30 80.11 29.89 80.02 29.79 79.93 29.7 79.83 29.6 79.73 29.52 79.63 29.44 79.52 29.36 79.41 29.29 79.29 29.22 79.17 29.16 79.05 29.11" class="cls-2"/><polyline points="68.55 48.5 68.63 48.39 68.71 48.28 68.78 48.17 68.84 48.06 68.9 47.94 68.96 47.82 69.01 47.69 69.05 47.56 69.09 47.43 69.12 47.3 69.15 47.16 69.16 47.02 69.17 46.88 69.18 46.74 69.17 46.6 69.16 46.46 69.15 46.32 69.12 46.19 69.09 46.05 69.05 45.92 69.01 45.79 68.96 45.67 68.9 45.55 68.84 45.43 68.78 45.31 68.71 45.2 68.63 45.09 68.55 44.99 68.46 44.89 68.37 44.79 68.27 44.7 68.17 44.61 68.07 44.53 67.96 44.46 67.85 44.38 67.73 44.32 67.61 44.26 67.49 44.2 67.37 44.15 67.24 44.11 67.11 44.07 66.97 44.04 66.84 44.02 66.7 44 66.56 43.99 66.42 43.98 66.27 43.99 66.13 44 65.99 44.02 65.86 44.04 65.73 44.07 65.59 44.11 65.47 44.15 65.34 44.2 65.22 44.26 65.1 44.32 64.98 44.38 64.87 44.46 64.76 44.53 64.66 44.61 64.56 44.7 64.46 44.79 64.37 44.89 64.28 44.99 64.2 45.09 64.13 45.2 64.05 45.31 63.99 45.43 63.93 45.55 63.87 45.67 63.82 45.79 63.78 45.92 63.74 46.05 63.71 46.19 63.69 46.32 63.67 46.46 63.66 46.6 63.65 46.74 63.66 46.88 63.67 47.02 63.69 47.16 63.71 47.3 63.74 47.43 63.78 47.56 63.82 47.69 63.87 47.82 63.93 47.94 63.99 48.06 64.05 48.17 64.13 48.28 64.2 48.39 64.28 48.5 64.37 48.6 64.46 48.69 64.56 48.78 64.66 48.87 64.76 48.95 64.87 49.03 64.98 49.1 65.1 49.17 65.22 49.23 65.34 49.28 65.47 49.33 65.59 49.38 65.73 49.41 65.86 49.44 65.99 49.47 66.13 49.48 66.27 49.5 66.42 49.5 66.56 49.5 66.7 49.48 66.84 49.47 66.97 49.44 67.11 49.41 67.24 49.38 67.37 49.33 67.49 49.28 67.61 49.23 67.73 49.17 67.85 49.1 67.96 49.03 68.07 48.95 68.17 48.87 68.27 48.78 68.37 48.69 68.46 48.6 68.55 48.5" class="cls-2"/><polyline points="41.98 34.07 42.09 34.13 42.22 34.19 42.34 34.24 42.47 34.28 42.6 34.32 42.74 34.35 42.87 34.37 43.01 34.39 43.15 34.4 43.29 34.4 43.43 34.4 43.57 34.39 43.71 34.37 43.85 34.35 43.98 34.32 44.11 34.28 44.24 34.24 44.37 34.19 44.49 34.13 44.61 34.07 44.72 34 44.84 33.93 44.94 33.86 45.05 33.77 45.15 33.69 45.25 33.6 45.34 33.5 45.42 33.4 45.51 33.3 45.58 33.19 45.65 33.08 45.72 32.96 45.78 32.84 45.84 32.72 45.89 32.59 45.93 32.47 45.97 32.34 46 32.2 46.02 32.07 46.04 31.93 46.05 31.79 46.05 31.65 46.05 31.5 46.04 31.36 46.02 31.23 46 31.09 45.97 30.96 45.93 30.83 45.89 30.7 45.84 30.57 45.78 30.45 45.72 30.33 45.65 30.22 45.58 30.1 45.51 30 45.42 29.89 45.34 29.79 45.25 29.7 45.15 29.6 45.05 29.52 44.94 29.44 44.84 29.36 44.72 29.29 44.61 29.22 44.49 29.16 44.37 29.11 44.24 29.06 44.11 29.01 43.98 28.98 43.85 28.94 43.71 28.92 43.57 28.9 43.43 28.89 43.29 28.89 43.15 28.89 43.01 28.9 42.87 28.92 42.74 28.94 42.6 28.98 42.47 29.01 42.34 29.06 42.22 29.11 42.09 29.16 41.98 29.22 41.86 29.29 41.75 29.36 41.64 29.44 41.54 29.52 41.44 29.6 41.34 29.7 41.25 29.79 41.16 29.89 41.08 30 41 30.1 40.93 30.22 40.86 30.33 40.8 30.45 40.75 30.57 40.7 30.7 40.65 30.83 40.62 30.96 40.59 31.09 40.56 31.23 40.54 31.36 40.53 31.5 40.53 31.65 40.53 31.79 40.54 31.93 40.56 32.07 40.59 32.2 40.62 32.34 40.65 32.47 40.7 32.59 40.75 32.72 40.8 32.84 40.86 32.96 40.93 33.08 41 33.19 41.08 33.3 41.16 33.4 41.25 33.5 41.34 33.6 41.44 33.69 41.54 33.77 41.64 33.86 41.75 33.93 41.86 34 41.98 34.07" class="cls-2"/><polyline points="149.89 32.72 149.94 32.59 149.98 32.47 150.02 32.34 150.05 32.2 150.08 32.07 150.09 31.93 150.11 31.79 150.11 31.65 150.11 31.5 150.09 31.36 150.08 31.23 150.05 31.09 150.02 30.96 149.98 30.83 149.94 30.7 149.89 30.57 149.84 30.45 149.78 30.33 149.71 30.22 149.64 30.1 149.56 30 149.48 29.89 149.39 29.79 149.3 29.7 149.2 29.6 149.1 29.52 149 29.44 148.89 29.36 148.78 29.29 148.66 29.22 148.54 29.16 148.42 29.11 148.3 29.06 148.17 29.01 148.04 28.98 147.9 28.94 147.77 28.92 147.63 28.9 147.49 28.89 147.35 28.89 147.2 28.89 147.06 28.9 146.93 28.92 146.79 28.94 146.66 28.98 146.53 29.01 146.4 29.06 146.27 29.11 146.15 29.16 146.03 29.22 145.92 29.29 145.8 29.36 145.69 29.44 145.59 29.52 145.49 29.6 145.39 29.7 145.3 29.79 145.22 29.89 145.13 30 145.06 30.1 144.99 30.22 144.92 30.33 144.86 30.45 144.8 30.57 144.75 30.7 144.71 30.83 144.67 30.96 144.64 31.09 144.62 31.23 144.6 31.36 144.59 31.5 144.59 31.65 144.59 31.79 144.6 31.93 144.62 32.07 144.64 32.2 144.67 32.34 144.71 32.47 144.75 32.59 144.8 32.72 144.86 32.84 144.92 32.96 144.99 33.08 145.06 33.19 145.13 33.3 145.22 33.4 145.3 33.5 145.39 33.6 145.49 33.69 145.59 33.77 145.69 33.86 145.8 33.93 145.92 34 146.03 34.07 146.15 34.13 146.27 34.19 146.4 34.24 146.53 34.28 146.66 34.32 146.79 34.35 146.93 34.37 147.06 34.39 147.2 34.4 147.35 34.4 147.49 34.4 147.63 34.39 147.77 34.37 147.9 34.35 148.04 34.32 148.17 34.28 148.3 34.24 148.42 34.19 148.54 34.13 148.66 34.07 148.78 34 148.89 33.93 149 33.86 149.1 33.77 149.2 33.69 149.3 33.6 149.39 33.5 149.48 33.4 149.56 33.3 149.64 33.19 149.71 33.08 149.78 32.96 149.84 32.84 149.89 32.72" class="cls-2"/><polyline points="89.4 28.89 89.26 28.9 89.12 28.92 88.98 28.94 88.85 28.98 88.72 29.01 88.59 29.06 88.46 29.11 88.34 29.16 88.22 29.22 88.11 29.29 87.99 29.36 87.89 29.44 87.78 29.52 87.68 29.6 87.59 29.7 87.49 29.79 87.41 29.89 87.33 30 87.25 30.1 87.18 30.22 87.11 30.33 87.05 30.45 86.99 30.57 86.94 30.7 86.9 30.83 86.86 30.96 86.83 31.09 86.81 31.23 86.79 31.36 86.78 31.5 86.78 31.65 86.78 31.79 86.79 31.93 86.81 32.07 86.83 32.2 86.86 32.34 86.9 32.47 86.94 32.59 86.99 32.72 87.05 32.84 87.11 32.96 87.18 33.08 87.25 33.19 87.33 33.3 87.41 33.4 87.49 33.5 87.59 33.6 87.68 33.69 87.78 33.77 87.89 33.86 87.99 33.93 88.11 34 88.22 34.07 88.34 34.13 88.46 34.19 88.59 34.24 88.72 34.28 88.85 34.32 88.98 34.35 89.12 34.37 89.26 34.39 89.4 34.4 89.54 34.4 89.68 34.4 89.82 34.39 89.96 34.37 90.1 34.35 90.23 34.32 90.36 34.28 90.49 34.24 90.61 34.19 90.74 34.13 90.86 34.07 90.97 34 91.08 33.93 91.19 33.86 91.3 33.77 91.4 33.69 91.49 33.6 91.58 33.5 91.67 33.4 91.75 33.3 91.83 33.19 91.9 33.08 91.97 32.96 92.03 32.84 92.08 32.72 92.13 32.59 92.18 32.47 92.21 32.34 92.24 32.2 92.27 32.07 92.29 31.93 92.3 31.79 92.3 31.65 92.3 31.5 92.29 31.36 92.27 31.23 92.24 31.09 92.21 30.96 92.18 30.83 92.13 30.7 92.08 30.57 92.03 30.45 91.97 30.33 91.9 30.22 91.83 30.1 91.75 30 91.67 29.89 91.58 29.79 91.49 29.7 91.4 29.6 91.3 29.52 91.19 29.44 91.08 29.36 90.97 29.29 90.86 29.22 90.74 29.16 90.61 29.11 90.49 29.06 90.36 29.01 90.23 28.98 90.1 28.94 89.96 28.92 89.82 28.9 89.68 28.89 89.54 28.89 89.4 28.89" class="cls-2"/><polyline points="99.45 33.86 99.56 33.93 99.67 34 99.78 34.07 99.9 34.13 100.03 34.19 100.15 34.24 100.28 34.28 100.41 34.32 100.54 34.35 100.68 34.37 100.82 34.39 100.96 34.4 101.1 34.4 101.24 34.4 101.38 34.39 101.52 34.37 101.66 34.35 101.79 34.32 101.92 34.28 102.05 34.24 102.18 34.19 102.3 34.13 102.42 34.07 102.53 34 102.64 33.93 102.75 33.86 102.86 33.77 102.96 33.69 103.05 33.6 103.14 33.5 103.23 33.4 103.31 33.3 103.39 33.19 103.46 33.08 103.53 32.96 103.59 32.84 103.65 32.72 103.69 32.59 103.74 32.47 103.78 32.34 103.81 32.2 103.83 32.07 103.85 31.93 103.86 31.79 103.86 31.65 103.86 31.5 103.85 31.36 103.83 31.23 103.81 31.09 103.78 30.96 103.74 30.83 103.69 30.7 103.65 30.57 103.59 30.45 103.53 30.33 103.46 30.22 103.39 30.1 103.31 30 103.23 29.89 103.14 29.79 103.05 29.7 102.96 29.6 102.86 29.52 102.75 29.44 102.64 29.36 102.53 29.29 102.42 29.22 102.3 29.16 102.18 29.11 102.05 29.06 101.92 29.01 101.79 28.98 101.66 28.94 101.52 28.92 101.38 28.9 101.24 28.89 101.1 28.89 100.96 28.89 100.82 28.9 100.68 28.92 100.54 28.94 100.41 28.98 100.28 29.01 100.15 29.06 100.03 29.11 99.9 29.16 99.78 29.22 99.67 29.29 99.56 29.36 99.45 29.44 99.34 29.52 99.24 29.6 99.15 29.7 99.06 29.79 98.97 29.89 98.89 30 98.81 30.1 98.74 30.22 98.67 30.33 98.61 30.45 98.56 30.57 98.51 30.7 98.46 30.83 98.43 30.96 98.39 31.09 98.37 31.23 98.35 31.36 98.34 31.5 98.34 31.65 98.34 31.79 98.35 31.93 98.37 32.07 98.39 32.2 98.43 32.34 98.46 32.47 98.51 32.59 98.56 32.72 98.61 32.84 98.67 32.96 98.74 33.08 98.81 33.19 98.89 33.3 98.97 33.4 99.06 33.5 99.15 33.6 99.24 33.69 99.34 33.77 99.45 33.86" class="cls-2"/><polyline points="122.47 48.87 122.57 48.95 122.68 49.03 122.79 49.1 122.91 49.17 123.03 49.23 123.15 49.28 123.27 49.33 123.4 49.38 123.53 49.41 123.67 49.44 123.8 49.47 123.94 49.48 124.08 49.5 124.22 49.5 124.37 49.5 124.51 49.48 124.64 49.47 124.78 49.44 124.91 49.41 125.05 49.38 125.17 49.33 125.3 49.28 125.42 49.23 125.54 49.17 125.66 49.1 125.77 49.03 125.88 48.95 125.98 48.87 126.08 48.78 126.18 48.69 126.27 48.6 126.36 48.5 126.44 48.39 126.51 48.28 126.59 48.17 126.65 48.06 126.71 47.94 126.77 47.82 126.82 47.69 126.86 47.56 126.9 47.43 126.93 47.3 126.95 47.16 126.97 47.02 126.98 46.88 126.99 46.74 126.98 46.6 126.97 46.46 126.95 46.32 126.93 46.19 126.9 46.05 126.86 45.92 126.82 45.79 126.77 45.67 126.71 45.55 126.65 45.43 126.59 45.31 126.51 45.2 126.44 45.09 126.36 44.99 126.27 44.89 126.18 44.79 126.08 44.7 125.98 44.61 125.88 44.53 125.77 44.46 125.66 44.38 125.54 44.32 125.42 44.26 125.3 44.2 125.17 44.15 125.05 44.11 124.91 44.07 124.78 44.04 124.64 44.02 124.51 44 124.37 43.99 124.22 43.98 124.08 43.99 123.94 44 123.8 44.02 123.67 44.04 123.53 44.07 123.4 44.11 123.27 44.15 123.15 44.2 123.03 44.26 122.91 44.32 122.79 44.38 122.68 44.46 122.57 44.53 122.47 44.61 122.37 44.7 122.27 44.79 122.18 44.89 122.09 44.99 122.01 45.09 121.93 45.2 121.86 45.31 121.8 45.43 121.73 45.55 121.68 45.67 121.63 45.79 121.59 45.92 121.55 46.05 121.52 46.19 121.49 46.32 121.48 46.46 121.47 46.6 121.46 46.74 121.47 46.88 121.48 47.02 121.49 47.16 121.52 47.3 121.55 47.43 121.59 47.56 121.63 47.69 121.68 47.82 121.73 47.94 121.8 48.06 121.86 48.17 121.93 48.28 122.01 48.39 122.09 48.5 122.18 48.6 122.27 48.69 122.37 48.78 122.47 48.87" class="cls-2"/><polyline points="57.56 47.3 57.58 47.16 57.6 47.02 57.61 46.88 57.62 46.74 57.61 46.6 57.6 46.46 57.58 46.32 57.56 46.19 57.53 46.05 57.49 45.92 57.45 45.79 57.4 45.67 57.34 45.55 57.28 45.43 57.22 45.31 57.14 45.2 57.07 45.09 56.99 44.99 56.9 44.89 56.81 44.79 56.71 44.7 56.61 44.61 56.51 44.53 56.4 44.46 56.29 44.38 56.17 44.32 56.05 44.26 55.93 44.2 55.8 44.15 55.68 44.11 55.54 44.07 55.41 44.04 55.27 44.02 55.14 44 55 43.99 54.85 43.98 54.71 43.99 54.57 44 54.43 44.02 54.3 44.04 54.16 44.07 54.03 44.11 53.9 44.15 53.78 44.2 53.66 44.26 53.54 44.32 53.42 44.38 53.31 44.46 53.2 44.53 53.1 44.61 53 44.7 52.9 44.79 52.81 44.89 52.72 44.99 52.64 45.09 52.56 45.2 52.49 45.31 52.43 45.43 52.36 45.55 52.31 45.67 52.26 45.79 52.22 45.92 52.18 46.05 52.15 46.19 52.12 46.32 52.11 46.46 52.1 46.6 52.09 46.74 52.1 46.88 52.11 47.02 52.12 47.16 52.15 47.3 52.18 47.43 52.22 47.56 52.26 47.69 52.31 47.82 52.36 47.94 52.43 48.06 52.49 48.17 52.56 48.28 52.64 48.39 52.72 48.5 52.81 48.6 52.9 48.69 53 48.78 53.1 48.87 53.2 48.95 53.31 49.03 53.42 49.1 53.54 49.17 53.66 49.23 53.78 49.28 53.9 49.33 54.03 49.38 54.16 49.41 54.3 49.44 54.43 49.47 54.57 49.48 54.71 49.5 54.85 49.5 55 49.5 55.14 49.48 55.27 49.47 55.41 49.44 55.54 49.41 55.68 49.38 55.8 49.33 55.93 49.28 56.05 49.23 56.17 49.17 56.29 49.1 56.4 49.03 56.51 48.95 56.61 48.87 56.71 48.78 56.81 48.69 56.9 48.6 56.99 48.5 57.07 48.39 57.14 48.28 57.22 48.17 57.28 48.06 57.34 47.94 57.4 47.82 57.45 47.69 57.49 47.56 57.53 47.43 57.56 47.3" class="cls-2"/><polyline points="87.25 45.2 87.18 45.31 87.11 45.43 87.05 45.55 86.99 45.67 86.94 45.79 86.9 45.92 86.86 46.05 86.83 46.19 86.81 46.32 86.79 46.46 86.78 46.6 86.78 46.74 86.78 46.88 86.79 47.02 86.81 47.16 86.83 47.3 86.86 47.43 86.9 47.56 86.94 47.69 86.99 47.82 87.05 47.94 87.11 48.06 87.18 48.17 87.25 48.28 87.33 48.39 87.41 48.5 87.49 48.6 87.59 48.69 87.68 48.78 87.78 48.87 87.89 48.95 87.99 49.03 88.11 49.1 88.22 49.17 88.34 49.23 88.46 49.28 88.59 49.33 88.72 49.38 88.85 49.41 88.98 49.44 89.12 49.47 89.26 49.48 89.4 49.5 89.54 49.5 89.68 49.5 89.82 49.48 89.96 49.47 90.1 49.44 90.23 49.41 90.36 49.38 90.49 49.33 90.61 49.28 90.74 49.23 90.86 49.17 90.97 49.1 91.08 49.03 91.19 48.95 91.3 48.87 91.4 48.78 91.49 48.69 91.58 48.6 91.67 48.5 91.75 48.39 91.83 48.28 91.9 48.17 91.97 48.06 92.03 47.94 92.08 47.82 92.13 47.69 92.18 47.56 92.21 47.43 92.24 47.3 92.27 47.16 92.29 47.02 92.3 46.88 92.3 46.74 92.3 46.6 92.29 46.46 92.27 46.32 92.24 46.19 92.21 46.05 92.18 45.92 92.13 45.79 92.08 45.67 92.03 45.55 91.97 45.43 91.9 45.31 91.83 45.2 91.75 45.09 91.67 44.99 91.58 44.89 91.49 44.79 91.4 44.7 91.3 44.61 91.19 44.53 91.08 44.46 90.97 44.38 90.86 44.32 90.74 44.26 90.61 44.2 90.49 44.15 90.36 44.11 90.23 44.07 90.1 44.04 89.96 44.02 89.82 44 89.68 43.99 89.54 43.98 89.4 43.99 89.26 44 89.12 44.02 88.98 44.04 88.85 44.07 88.72 44.11 88.59 44.15 88.46 44.2 88.34 44.26 88.22 44.32 88.11 44.38 87.99 44.46 87.89 44.53 87.78 44.61 87.68 44.7 87.59 44.79 87.49 44.89 87.41 44.99 87.33 45.09 87.25 45.2" class="cls-2"/><polyline points="111.97 44.07 111.84 44.11 111.71 44.15 111.59 44.2 111.46 44.26 111.35 44.32 111.23 44.38 111.12 44.46 111.01 44.53 110.91 44.61 110.81 44.7 110.71 44.79 110.62 44.89 110.53 44.99 110.45 45.09 110.37 45.2 110.3 45.31 110.23 45.43 110.17 45.55 110.12 45.67 110.07 45.79 110.02 45.92 109.99 46.05 109.96 46.19 109.93 46.32 109.91 46.46 109.9 46.6 109.9 46.74 109.9 46.88 109.91 47.02 109.93 47.16 109.96 47.3 109.99 47.43 110.02 47.56 110.07 47.69 110.12 47.82 110.17 47.94 110.23 48.06 110.3 48.17 110.37 48.28 110.45 48.39 110.53 48.5 110.62 48.6 110.71 48.69 110.81 48.78 110.91 48.87 111.01 48.95 111.12 49.03 111.23 49.1 111.35 49.17 111.46 49.23 111.59 49.28 111.71 49.33 111.84 49.38 111.97 49.41 112.11 49.44 112.24 49.47 112.38 49.48 112.52 49.5 112.66 49.5 112.8 49.5 112.94 49.48 113.08 49.47 113.22 49.44 113.35 49.41 113.48 49.38 113.61 49.33 113.74 49.28 113.86 49.23 113.98 49.17 114.09 49.1 114.21 49.03 114.31 48.95 114.42 48.87 114.52 48.78 114.61 48.69 114.71 48.6 114.79 48.5 114.88 48.39 114.95 48.28 115.02 48.17 115.09 48.06 115.15 47.94 115.21 47.82 115.26 47.69 115.3 47.56 115.34 47.43 115.37 47.3 115.39 47.16 115.41 47.02 115.42 46.88 115.42 46.74 115.42 46.6 115.41 46.46 115.39 46.32 115.37 46.19 115.34 46.05 115.3 45.92 115.26 45.79 115.21 45.67 115.15 45.55 115.09 45.43 115.02 45.31 114.95 45.2 114.88 45.09 114.79 44.99 114.71 44.89 114.61 44.79 114.52 44.7 114.42 44.61 114.31 44.53 114.21 44.46 114.09 44.38 113.98 44.32 113.86 44.26 113.74 44.2 113.61 44.15 113.48 44.11 113.35 44.07 113.22 44.04 113.08 44.02 112.94 44 112.8 43.99 112.66 43.98 112.52 43.99 112.38 44 112.24 44.02 112.11 44.04 111.97 44.07" class="cls-2"/><polyline points="76.12 48.78 76.22 48.87 76.32 48.95 76.43 49.03 76.55 49.1 76.66 49.17 76.78 49.23 76.9 49.28 77.03 49.33 77.16 49.38 77.29 49.41 77.42 49.44 77.56 49.47 77.69 49.48 77.84 49.5 77.98 49.5 78.12 49.5 78.26 49.48 78.4 49.47 78.53 49.44 78.67 49.41 78.8 49.38 78.93 49.33 79.05 49.28 79.17 49.23 79.29 49.17 79.41 49.1 79.52 49.03 79.63 48.95 79.73 48.87 79.83 48.78 79.93 48.69 80.02 48.6 80.11 48.5 80.19 48.39 80.27 48.28 80.34 48.17 80.41 48.06 80.47 47.94 80.52 47.82 80.57 47.69 80.61 47.56 80.65 47.43 80.68 47.3 80.71 47.16 80.72 47.02 80.74 46.88 80.74 46.74 80.74 46.6 80.72 46.46 80.71 46.32 80.68 46.19 80.65 46.05 80.61 45.92 80.57 45.79 80.52 45.67 80.47 45.55 80.41 45.43 80.34 45.31 80.27 45.2 80.19 45.09 80.11 44.99 80.02 44.89 79.93 44.79 79.83 44.7 79.73 44.61 79.63 44.53 79.52 44.46 79.41 44.38 79.29 44.32 79.17 44.26 79.05 44.2 78.93 44.15 78.8 44.11 78.67 44.07 78.53 44.04 78.4 44.02 78.26 44 78.12 43.99 77.98 43.98 77.84 43.99 77.69 44 77.56 44.02 77.42 44.04 77.29 44.07 77.16 44.11 77.03 44.15 76.9 44.2 76.78 44.26 76.66 44.32 76.55 44.38 76.43 44.46 76.32 44.53 76.22 44.61 76.12 44.7 76.02 44.79 75.93 44.89 75.85 44.99 75.76 45.09 75.69 45.2 75.62 45.31 75.55 45.43 75.49 45.55 75.43 45.67 75.38 45.79 75.34 45.92 75.3 46.05 75.27 46.19 75.25 46.32 75.23 46.46 75.22 46.6 75.22 46.74 75.22 46.88 75.23 47.02 75.25 47.16 75.27 47.3 75.3 47.43 75.34 47.56 75.38 47.69 75.43 47.82 75.49 47.94 75.55 48.06 75.62 48.17 75.69 48.28 75.76 48.39 75.85 48.5 75.93 48.6 76.02 48.69 76.12 48.78" class="cls-2"/><polyline points="122.18 29.79 122.09 29.89 122.01 30 121.93 30.1 121.86 30.22 121.8 30.33 121.73 30.45 121.68 30.57 121.63 30.7 121.59 30.83 121.55 30.96 121.52 31.09 121.49 31.23 121.48 31.36 121.47 31.5 121.46 31.65 121.47 31.79 121.48 31.93 121.49 32.07 121.52 32.2 121.55 32.34 121.59 32.47 121.63 32.59 121.68 32.72 121.73 32.84 121.8 32.96 121.86 33.08 121.93 33.19 122.01 33.3 122.09 33.4 122.18 33.5 122.27 33.6 122.37 33.69 122.47 33.77 122.57 33.86 122.68 33.93 122.79 34 122.91 34.07 123.03 34.13 123.15 34.19 123.27 34.24 123.4 34.28 123.53 34.32 123.67 34.35 123.8 34.37 123.94 34.39 124.08 34.4 124.22 34.4 124.37 34.4 124.51 34.39 124.64 34.37 124.78 34.35 124.91 34.32 125.05 34.28 125.17 34.24 125.3 34.19 125.42 34.13 125.54 34.07 125.66 34 125.77 33.93 125.88 33.86 125.98 33.77 126.08 33.69 126.18 33.6 126.27 33.5 126.36 33.4 126.44 33.3 126.51 33.19 126.59 33.08 126.65 32.96 126.71 32.84 126.77 32.72 126.82 32.59 126.86 32.47 126.9 32.34 126.93 32.2 126.95 32.07 126.97 31.93 126.98 31.79 126.99 31.65 126.98 31.5 126.97 31.36 126.95 31.23 126.93 31.09 126.9 30.96 126.86 30.83 126.82 30.7 126.77 30.57 126.71 30.45 126.65 30.33 126.59 30.22 126.51 30.1 126.44 30 126.36 29.89 126.27 29.79 126.18 29.7 126.08 29.6 125.98 29.52 125.88 29.44 125.77 29.36 125.66 29.29 125.54 29.22 125.42 29.16 125.3 29.11 125.17 29.06 125.05 29.01 124.91 28.98 124.78 28.94 124.64 28.92 124.51 28.9 124.37 28.89 124.22 28.89 124.08 28.89 123.94 28.9 123.8 28.92 123.67 28.94 123.53 28.98 123.4 29.01 123.27 29.06 123.15 29.11 123.03 29.16 122.91 29.22 122.79 29.29 122.68 29.36 122.57 29.44 122.47 29.52 122.37 29.6 122.27 29.7 122.18 29.79" class="cls-2"/><polyline points="103.78 47.43 103.81 47.3 103.83 47.16 103.85 47.02 103.86 46.88 103.86 46.74 103.86 46.6 103.85 46.46 103.83 46.32 103.81 46.19 103.78 46.05 103.74 45.92 103.69 45.79 103.65 45.67 103.59 45.55 103.53 45.43 103.46 45.31 103.39 45.2 103.31 45.09 103.23 44.99 103.14 44.89 103.05 44.79 102.96 44.7 102.86 44.61 102.75 44.53 102.64 44.46 102.53 44.38 102.42 44.32 102.3 44.26 102.18 44.2 102.05 44.15 101.92 44.11 101.79 44.07 101.66 44.04 101.52 44.02 101.38 44 101.24 43.99 101.1 43.98 100.96 43.99 100.82 44 100.68 44.02 100.54 44.04 100.41 44.07 100.28 44.11 100.15 44.15 100.03 44.2 99.9 44.26 99.78 44.32 99.67 44.38 99.56 44.46 99.45 44.53 99.34 44.61 99.24 44.7 99.15 44.79 99.06 44.89 98.97 44.99 98.89 45.09 98.81 45.2 98.74 45.31 98.67 45.43 98.61 45.55 98.56 45.67 98.51 45.79 98.46 45.92 98.43 46.05 98.39 46.19 98.37 46.32 98.35 46.46 98.34 46.6 98.34 46.74 98.34 46.88 98.35 47.02 98.37 47.16 98.39 47.3 98.43 47.43 98.46 47.56 98.51 47.69 98.56 47.82 98.61 47.94 98.67 48.06 98.74 48.17 98.81 48.28 98.89 48.39 98.97 48.5 99.06 48.6 99.15 48.69 99.24 48.78 99.34 48.87 99.45 48.95 99.56 49.03 99.67 49.1 99.78 49.17 99.9 49.23 100.03 49.28 100.15 49.33 100.28 49.38 100.41 49.41 100.54 49.44 100.68 49.47 100.82 49.48 100.96 49.5 101.1 49.5 101.24 49.5 101.38 49.48 101.52 49.47 101.66 49.44 101.79 49.41 101.92 49.38 102.05 49.33 102.18 49.28 102.3 49.23 102.42 49.17 102.53 49.1 102.64 49.03 102.75 48.95 102.86 48.87 102.96 48.78 103.05 48.69 103.14 48.6 103.23 48.5 103.31 48.39 103.39 48.28 103.46 48.17 103.53 48.06 103.59 47.94 103.65 47.82 103.69 47.69 103.74 47.56 103.78 47.43" class="cls-2"/><polyline points="67.85 29.29 67.73 29.22 67.61 29.16 67.49 29.11 67.37 29.06 67.24 29.01 67.11 28.98 66.97 28.94 66.84 28.92 66.7 28.9 66.56 28.89 66.42 28.89 66.27 28.89 66.13 28.9 65.99 28.92 65.86 28.94 65.73 28.98 65.59 29.01 65.47 29.06 65.34 29.11 65.22 29.16 65.1 29.22 64.98 29.29 64.87 29.36 64.76 29.44 64.66 29.52 64.56 29.6 64.46 29.7 64.37 29.79 64.28 29.89 64.2 30 64.13 30.1 64.05 30.22 63.99 30.33 63.93 30.45 63.87 30.57 63.82 30.7 63.78 30.83 63.74 30.96 63.71 31.09 63.69 31.23 63.67 31.36 63.66 31.5 63.65 31.65 63.66 31.79 63.67 31.93 63.69 32.07 63.71 32.2 63.74 32.34 63.78 32.47 63.82 32.59 63.87 32.72 63.93 32.84 63.99 32.96 64.05 33.08 64.13 33.19 64.2 33.3 64.28 33.4 64.37 33.5 64.46 33.6 64.56 33.69 64.66 33.77 64.76 33.86 64.87 33.93 64.98 34 65.1 34.07 65.22 34.13 65.34 34.19 65.47 34.24 65.59 34.28 65.73 34.32 65.86 34.35 65.99 34.37 66.13 34.39 66.27 34.4 66.42 34.4 66.56 34.4 66.7 34.39 66.84 34.37 66.97 34.35 67.11 34.32 67.24 34.28 67.37 34.24 67.49 34.19 67.61 34.13 67.73 34.07 67.85 34 67.96 33.93 68.07 33.86 68.17 33.77 68.27 33.69 68.37 33.6 68.46 33.5 68.55 33.4 68.63 33.3 68.71 33.19 68.78 33.08 68.84 32.96 68.9 32.84 68.96 32.72 69.01 32.59 69.05 32.47 69.09 32.34 69.12 32.2 69.15 32.07 69.16 31.93 69.17 31.79 69.18 31.65 69.17 31.5 69.16 31.36 69.15 31.23 69.12 31.09 69.09 30.96 69.05 30.83 69.01 30.7 68.96 30.57 68.9 30.45 68.84 30.33 68.78 30.22 68.71 30.1 68.63 30 68.55 29.89 68.46 29.79 68.37 29.7 68.27 29.6 68.17 29.52 68.07 29.44 67.96 29.36 67.85 29.29" class="cls-2"/><polyline points="149.84 47.94 149.89 47.82 149.94 47.69 149.98 47.56 150.02 47.43 150.05 47.3 150.08 47.16 150.09 47.02 150.11 46.88 150.11 46.74 150.11 46.6 150.09 46.46 150.08 46.32 150.05 46.19 150.02 46.05 149.98 45.92 149.94 45.79 149.89 45.67 149.84 45.55 149.78 45.43 149.71 45.31 149.64 45.2 149.56 45.09 149.48 44.99 149.39 44.89 149.3 44.79 149.2 44.7 149.1 44.61 149 44.53 148.89 44.46 148.78 44.38 148.66 44.32 148.54 44.26 148.42 44.2 148.3 44.15 148.17 44.11 148.04 44.07 147.9 44.04 147.77 44.02 147.63 44 147.49 43.99 147.35 43.98 147.2 43.99 147.06 44 146.93 44.02 146.79 44.04 146.66 44.07 146.53 44.11 146.4 44.15 146.27 44.2 146.15 44.26 146.03 44.32 145.92 44.38 145.8 44.46 145.69 44.53 145.59 44.61 145.49 44.7 145.39 44.79 145.3 44.89 145.22 44.99 145.13 45.09 145.06 45.2 144.99 45.31 144.92 45.43 144.86 45.55 144.8 45.67 144.75 45.79 144.71 45.92 144.67 46.05 144.64 46.19 144.62 46.32 144.6 46.46 144.59 46.6 144.59 46.74 144.59 46.88 144.6 47.02 144.62 47.16 144.64 47.3 144.67 47.43 144.71 47.56 144.75 47.69 144.8 47.82 144.86 47.94 144.92 48.06 144.99 48.17 145.06 48.28 145.13 48.39 145.22 48.5 145.3 48.6 145.39 48.69 145.49 48.78 145.59 48.87 145.69 48.95 145.8 49.03 145.92 49.1 146.03 49.17 146.15 49.23 146.27 49.28 146.4 49.33 146.53 49.38 146.66 49.41 146.79 49.44 146.93 49.47 147.06 49.48 147.2 49.5 147.35 49.5 147.49 49.5 147.63 49.48 147.77 49.47 147.9 49.44 148.04 49.41 148.17 49.38 148.3 49.33 148.42 49.28 148.54 49.23 148.66 49.17 148.78 49.1 148.89 49.03 149 48.95 149.1 48.87 149.2 48.78 149.3 48.69 149.39 48.6 149.48 48.5 149.56 48.39 149.64 48.28 149.71 48.17 149.78 48.06 149.84 47.94" class="cls-2"/><polyline points="159.05 34.4 159.19 34.39 159.33 34.37 159.47 34.35 159.6 34.32 159.73 34.28 159.86 34.24 159.98 34.19 160.11 34.13 160.22 34.07 160.34 34 160.45 33.93 160.56 33.86 160.67 33.77 160.77 33.69 160.86 33.6 160.95 33.5 161.04 33.4 161.12 33.3 161.2 33.19 161.27 33.08 161.34 32.96 161.4 32.84 161.45 32.72 161.5 32.59 161.55 32.47 161.58 32.34 161.61 32.2 161.64 32.07 161.66 31.93 161.67 31.79 161.67 31.65 161.67 31.5 161.66 31.36 161.64 31.23 161.61 31.09 161.58 30.96 161.55 30.83 161.5 30.7 161.45 30.57 161.4 30.45 161.34 30.33 161.27 30.22 161.2 30.1 161.12 30 161.04 29.89 160.95 29.79 160.86 29.7 160.77 29.6 160.67 29.52 160.56 29.44 160.45 29.36 160.34 29.29 160.22 29.22 160.11 29.16 159.98 29.11 159.86 29.06 159.73 29.01 159.6 28.98 159.47 28.94 159.33 28.92 159.19 28.9 159.05 28.89 158.91 28.89 158.77 28.89 158.63 28.9 158.49 28.92 158.35 28.94 158.22 28.98 158.09 29.01 157.96 29.06 157.83 29.11 157.71 29.16 157.59 29.22 157.48 29.29 157.36 29.36 157.26 29.44 157.15 29.52 157.05 29.6 156.96 29.7 156.86 29.79 156.78 29.89 156.7 30 156.62 30.1 156.55 30.22 156.48 30.33 156.42 30.45 156.36 30.57 156.31 30.7 156.27 30.83 156.23 30.96 156.2 31.09 156.18 31.23 156.16 31.36 156.15 31.5 156.15 31.65 156.15 31.79 156.16 31.93 156.18 32.07 156.2 32.2 156.23 32.34 156.27 32.47 156.31 32.59 156.36 32.72 156.42 32.84 156.48 32.96 156.55 33.08 156.62 33.19 156.7 33.3 156.78 33.4 156.86 33.5 156.96 33.6 157.05 33.69 157.15 33.77 157.26 33.86 157.36 33.93 157.48 34 157.59 34.07 157.71 34.13 157.83 34.19 157.96 34.24 158.09 34.28 158.22 34.32 158.35 34.35 158.49 34.37 158.63 34.39 158.77 34.4 158.91 34.4 159.05 34.4" class="cls-2"/><polyline points="45.72 48.06 45.78 47.94 45.84 47.82 45.89 47.69 45.93 47.56 45.97 47.43 46 47.3 46.02 47.16 46.04 47.02 46.05 46.88 46.05 46.74 46.05 46.6 46.04 46.46 46.02 46.32 46 46.19 45.97 46.05 45.93 45.92 45.89 45.79 45.84 45.67 45.78 45.55 45.72 45.43 45.65 45.31 45.58 45.2 45.51 45.09 45.42 44.99 45.34 44.89 45.25 44.79 45.15 44.7 45.05 44.61 44.94 44.53 44.84 44.46 44.72 44.38 44.61 44.32 44.49 44.26 44.37 44.2 44.24 44.15 44.11 44.11 43.98 44.07 43.85 44.04 43.71 44.02 43.57 44 43.43 43.99 43.29 43.98 43.15 43.99 43.01 44 42.87 44.02 42.74 44.04 42.6 44.07 42.47 44.11 42.34 44.15 42.22 44.2 42.09 44.26 41.98 44.32 41.86 44.38 41.75 44.46 41.64 44.53 41.54 44.61 41.44 44.7 41.34 44.79 41.25 44.89 41.16 44.99 41.08 45.09 41 45.2 40.93 45.31 40.86 45.43 40.8 45.55 40.75 45.67 40.7 45.79 40.65 45.92 40.62 46.05 40.59 46.19 40.56 46.32 40.54 46.46 40.53 46.6 40.53 46.74 40.53 46.88 40.54 47.02 40.56 47.16 40.59 47.3 40.62 47.43 40.65 47.56 40.7 47.69 40.75 47.82 40.8 47.94 40.86 48.06 40.93 48.17 41 48.28 41.08 48.39 41.16 48.5 41.25 48.6 41.34 48.69 41.44 48.78 41.54 48.87 41.64 48.95 41.75 49.03 41.86 49.1 41.98 49.17 42.09 49.23 42.22 49.28 42.34 49.33 42.47 49.38 42.6 49.41 42.74 49.44 42.87 49.47 43.01 49.48 43.15 49.5 43.29 49.5 43.43 49.5 43.57 49.48 43.71 49.47 43.85 49.44 43.98 49.41 44.11 49.38 44.24 49.33 44.37 49.28 44.49 49.23 44.61 49.17 44.72 49.1 44.84 49.03 44.94 48.95 45.05 48.87 45.15 48.78 45.25 48.69 45.34 48.6 45.42 48.5 45.51 48.39 45.58 48.28 45.65 48.17 45.72 48.06" class="cls-2"/><polyline points="156.48 48.06 156.55 48.17 156.62 48.28 156.7 48.39 156.78 48.5 156.86 48.6 156.96 48.69 157.05 48.78 157.15 48.87 157.26 48.95 157.36 49.03 157.48 49.1 157.59 49.17 157.71 49.23 157.83 49.28 157.96 49.33 158.09 49.38 158.22 49.41 158.35 49.44 158.49 49.47 158.63 49.48 158.77 49.5 158.91 49.5 159.05 49.5 159.19 49.48 159.33 49.47 159.47 49.44 159.6 49.41 159.73 49.38 159.86 49.33 159.98 49.28 160.11 49.23 160.22 49.17 160.34 49.1 160.45 49.03 160.56 48.95 160.67 48.87 160.77 48.78 160.86 48.69 160.95 48.6 161.04 48.5 161.12 48.39 161.2 48.28 161.27 48.17 161.34 48.06 161.4 47.94 161.45 47.82 161.5 47.69 161.55 47.56 161.58 47.43 161.61 47.3 161.64 47.16 161.66 47.02 161.67 46.88 161.67 46.74 161.67 46.6 161.66 46.46 161.64 46.32 161.61 46.19 161.58 46.05 161.55 45.92 161.5 45.79 161.45 45.67 161.4 45.55 161.34 45.43 161.27 45.31 161.2 45.2 161.12 45.09 161.04 44.99 160.95 44.89 160.86 44.79 160.77 44.7 160.67 44.61 160.56 44.53 160.45 44.46 160.34 44.38 160.22 44.32 160.11 44.26 159.98 44.2 159.86 44.15 159.73 44.11 159.6 44.07 159.47 44.04 159.33 44.02 159.19 44 159.05 43.99 158.91 43.98 158.77 43.99 158.63 44 158.49 44.02 158.35 44.04 158.22 44.07 158.09 44.11 157.96 44.15 157.83 44.2 157.71 44.26 157.59 44.32 157.48 44.38 157.36 44.46 157.26 44.53 157.15 44.61 157.05 44.7 156.96 44.79 156.86 44.89 156.78 44.99 156.7 45.09 156.62 45.2 156.55 45.31 156.48 45.43 156.42 45.55 156.36 45.67 156.31 45.79 156.27 45.92 156.23 46.05 156.2 46.19 156.18 46.32 156.16 46.46 156.15 46.6 156.15 46.74 156.15 46.88 156.16 47.02 156.18 47.16 156.2 47.3 156.23 47.43 156.27 47.56 156.31 47.69 156.36 47.82 156.42 47.94 156.48 48.06" class="cls-2"/><polyline points="138.53 31.36 138.52 31.23 138.49 31.09 138.46 30.96 138.42 30.83 138.38 30.7 138.33 30.57 138.27 30.45 138.21 30.33 138.15 30.22 138.08 30.1 138 30 137.92 29.89 137.83 29.79 137.74 29.7 137.64 29.6 137.54 29.52 137.44 29.44 137.33 29.36 137.22 29.29 137.1 29.22 136.98 29.16 136.86 29.11 136.73 29.06 136.61 29.01 136.48 28.98 136.34 28.94 136.21 28.92 136.07 28.9 135.93 28.89 135.79 28.89 135.64 28.89 135.5 28.9 135.36 28.92 135.23 28.94 135.1 28.98 134.96 29.01 134.84 29.06 134.71 29.11 134.59 29.16 134.47 29.22 134.35 29.29 134.24 29.36 134.13 29.44 134.03 29.52 133.93 29.6 133.83 29.7 133.74 29.79 133.65 29.89 133.57 30 133.5 30.1 133.42 30.22 133.36 30.33 133.3 30.45 133.24 30.57 133.19 30.7 133.15 30.83 133.11 30.96 133.08 31.09 133.06 31.23 133.04 31.36 133.03 31.5 133.02 31.65 133.03 31.79 133.04 31.93 133.06 32.07 133.08 32.2 133.11 32.34 133.15 32.47 133.19 32.59 133.24 32.72 133.3 32.84 133.36 32.96 133.42 33.08 133.5 33.19 133.57 33.3 133.65 33.4 133.74 33.5 133.83 33.6 133.93 33.69 134.03 33.77 134.13 33.86 134.24 33.93 134.35 34 134.47 34.07 134.59 34.13 134.71 34.19 134.84 34.24 134.96 34.28 135.1 34.32 135.23 34.35 135.36 34.37 135.5 34.39 135.64 34.4 135.79 34.4 135.93 34.4 136.07 34.39 136.21 34.37 136.34 34.35 136.48 34.32 136.61 34.28 136.73 34.24 136.86 34.19 136.98 34.13 137.1 34.07 137.22 34 137.33 33.93 137.44 33.86 137.54 33.77 137.64 33.69 137.74 33.6 137.83 33.5 137.92 33.4 138 33.3 138.08 33.19 138.15 33.08 138.21 32.96 138.27 32.84 138.33 32.72 138.38 32.59 138.42 32.47 138.46 32.34 138.49 32.2 138.52 32.07 138.53 31.93 138.54 31.79 138.55 31.65 138.54 31.5 138.53 31.36" class="cls-2"/><rect height="1.2" width="127.17" y="38.59" x="37.43" class="cls-2"/><path d="M37.43,29.07v20.28h-10.19v-20.28s.22-.04.49-.04h9.16c.27,0,.54,0,.54.04Z" class="cls-2"/><path d="M174.8,29.07v20.28h-10.19v-20.28s.22-.04.54-.04h9.16c.27,0,.49,0,.49.04Z" class="cls-2"/><path d="M87.7.86v5.29h-.72V1.61l-1.3.64v-.73l1.36-.67h.67Z"/><path d="M90.54.86v5.29h-.72V1.61l-1.3.64v-.73l1.36-.67h.67Z"/><path d="M92.51,6.02c-.24-.12-.44-.29-.61-.51-.17-.22-.3-.5-.39-.82s-.14-.69-.14-1.09.05-.8.15-1.15c.1-.35.24-.64.43-.89.18-.25.41-.43.67-.56.26-.13.55-.2.88-.2.37,0,.7.09.97.27.27.18.47.43.59.76l-.64.29c-.07-.21-.18-.37-.34-.48-.16-.11-.35-.17-.56-.17-.2,0-.38.05-.55.14s-.31.23-.44.4c-.13.17-.22.37-.29.61s-.1.49-.1.77v.17c0,.06,0,.1,0,.15.08-.25.23-.45.45-.59.22-.14.48-.21.79-.21.24,0,.46.04.65.12.2.08.36.19.5.34.14.15.25.32.33.52.08.2.12.42.12.66s-.04.47-.13.68c-.08.21-.2.38-.35.53-.15.14-.32.26-.53.34s-.43.12-.68.12c-.3,0-.57-.06-.81-.18ZM93.68,5.45c.12-.05.22-.12.3-.21.08-.09.15-.19.2-.31.05-.12.07-.26.07-.41s-.02-.29-.07-.41c-.05-.12-.12-.23-.2-.32s-.19-.16-.31-.21-.25-.07-.4-.07-.27.02-.39.07-.22.12-.31.2c-.09.09-.15.19-.2.31-.05.12-.07.25-.07.4s.03.28.08.41.12.24.21.34.2.17.32.22c.12.05.26.08.4.08s.26-.03.38-.08Z"/><path d="M98.48,1c.25.13.47.32.65.55.18.23.32.52.42.85.1.33.15.69.15,1.08s-.05.76-.15,1.1-.24.62-.42.86c-.18.24-.4.43-.65.56-.25.13-.52.2-.83.2s-.57-.07-.82-.2-.47-.32-.65-.56c-.18-.24-.32-.53-.42-.86-.1-.33-.15-.7-.15-1.1s.05-.75.15-1.08c.1-.33.24-.61.42-.85.18-.24.4-.42.65-.55.25-.13.53-.2.83-.2s.58.07.83.2ZM97.12,1.63c-.16.1-.29.23-.41.41-.11.18-.2.38-.27.63-.07.24-.1.51-.1.81s.03.57.09.82c.06.25.15.46.27.64.12.18.25.32.41.42.16.1.33.15.52.15s.37-.05.53-.15c.16-.1.3-.24.41-.42.11-.18.2-.39.27-.64.06-.25.09-.52.09-.82s-.03-.56-.09-.81c-.06-.25-.15-.46-.26-.63-.11-.17-.25-.31-.41-.41-.16-.1-.34-.15-.53-.15s-.37.05-.52.15Z"/><path d="M103.31,2.5v.67c.11-.24.26-.42.45-.54.18-.12.4-.18.63-.18.26,0,.48.07.67.2.19.14.32.33.41.59.11-.26.27-.45.46-.59.2-.14.43-.2.7-.2.38,0,.67.12.88.37.21.25.31.61.31,1.07v2.25h-.7v-2.16c0-.29-.07-.52-.2-.69-.13-.17-.31-.25-.54-.25-.12,0-.22.02-.32.07-.1.05-.18.11-.26.2-.07.09-.13.19-.16.32-.04.12-.06.26-.06.4v2.11h-.7v-2.16c0-.14-.02-.27-.06-.38-.04-.12-.09-.22-.15-.3-.06-.08-.14-.14-.23-.19-.09-.04-.2-.07-.31-.07s-.22.02-.32.07c-.1.05-.18.12-.25.21-.07.09-.12.2-.17.32-.04.12-.06.26-.06.41v2.09h-.7v-3.64h.68Z"/><path d="M109.49,2.5v.67c.11-.24.26-.42.45-.54.18-.12.4-.18.63-.18.26,0,.48.07.67.2.19.14.32.33.41.59.11-.26.27-.45.46-.59.2-.14.43-.2.7-.2.38,0,.67.12.88.37.21.25.31.61.31,1.07v2.25h-.7v-2.16c0-.29-.07-.52-.2-.69-.13-.17-.31-.25-.54-.25-.12,0-.22.02-.32.07-.1.05-.18.11-.26.2-.07.09-.13.19-.16.32-.04.12-.06.26-.06.4v2.11h-.7v-2.16c0-.14-.02-.27-.06-.38-.04-.12-.09-.22-.15-.3-.06-.08-.14-.14-.23-.19-.09-.04-.2-.07-.31-.07s-.22.02-.32.07c-.1.05-.18.12-.25.21-.07.09-.12.2-.17.32-.04.12-.06.26-.06.41v2.09h-.7v-3.64h.68Z"/><line y2="10.9" x2="27.38" y1="10.9" x1="174.65" class="cls-2"/><rect height="1.95" width=".3" y="9.93" x="174.5" class="cls-3"/><rect height="1.95" width=".3" y="9.93" x="27.23" class="cls-3"/><path d="M221.14,158.52v1.66h-3.37c-.27,0-.45-.18-.45-.36v-.99c0-.18.18-.31.45-.31h3.37Z" class="cls-2"/><path d="M245.33,158.83v.99c0,.18-.18.36-.41.36h-3.41v-1.66h3.41c.23,0,.41.13.41.31Z" class="cls-2"/><path d="M221.14,198.68v1.66h-3.37c-.27,0-.45-.18-.45-.36v-.99c0-.18.18-.31.45-.31h3.37Z" class="cls-2"/><path d="M245.33,199v.99c0,.18-.18.36-.41.36h-3.41v-1.66h3.41c.23,0,.41.13.41.31Z" class="cls-2"/><path d="M241.51,96.09v190.24h-20.37V96.09c0-.31.27-.58.81-.58h18.76c.58,0,.81.27.81.58Z" class="cls-2"/><rect height="23.88" width="127.18" y="102.82" x="37.43" class="cls-2"/><rect height="23.88" width="127.18" y="102.82" x="37.43" class="cls-2"/><path d="M53.88,110.13c-.09.1-.18.19-.28.27-.1.08-.21.14-.32.2-.12.06-.24.1-.38.13-.14.03-.28.04-.43.04-.25,0-.49-.05-.72-.14-.22-.09-.42-.21-.59-.37-.17-.16-.3-.34-.39-.56-.09-.21-.14-.44-.14-.67s.05-.46.14-.67c.09-.21.23-.4.39-.55.17-.16.36-.28.59-.37.22-.09.46-.14.71-.14.14,0,.28.01.41.04.13.03.25.06.37.12.11.05.22.11.32.19.1.07.19.16.28.26l-.55.44c-.06-.06-.12-.11-.18-.16-.06-.05-.13-.09-.2-.12-.07-.03-.14-.06-.22-.08-.08-.02-.15-.03-.24-.03-.15,0-.29.03-.42.08-.13.05-.25.13-.35.23-.1.1-.18.21-.23.34-.05.13-.08.27-.08.42s.03.29.08.42c.05.13.13.25.23.34.1.1.22.17.35.23.13.05.27.08.42.08.08,0,.16,0,.24-.03.08-.02.15-.05.22-.08.07-.04.14-.08.2-.13.07-.05.13-.1.19-.16l.57.42Z" class="cls-2"/><path d="M56.07,110.72h-1.63v-.57h.45v-2.23h-.45v-.57h1.63v.57h-.45v2.23h.45v.57Z" class="cls-2"/><path d="M59.39,107.34v3.38h-.69v-.74l-1.02-1.31s-.04-.05-.06-.08c-.02-.03-.04-.05-.05-.08-.02-.03-.03-.06-.05-.09,0,.04,0,.08,0,.11,0,.03,0,.06,0,.09,0,.03,0,.07,0,.09v2.01h-.68v-3.38h.67l1.04,1.4s.03.05.04.07c.02.02.03.04.04.06.01.02.02.04.03.06.01.02.02.03.02.04,0,0,0-.02,0-.04,0-.02,0-.04,0-.07s0-.05,0-.07c0-.03,0-.05,0-.08v-1.36h.69Z" class="cls-2"/><path d="M62.64,110.72h-2.51v-.51l1.43-2.02s.05-.06.06-.09c.02-.03.04-.05.05-.07s.03-.04.05-.06c-.04,0-.07,0-.1,0s-.06,0-.09,0c-.03,0-.07,0-.1,0h-1.23v-.64h2.43v.52l-1.45,2.05s-.03.05-.05.07c-.02.02-.03.04-.05.06-.01.02-.03.04-.05.06.03,0,.06,0,.08,0,.02,0,.05,0,.07,0,.03,0,.06,0,.09,0h1.35v.64Z" class="cls-2"/><path d="M65.57,110.72h-2.19v-3.38h2.19v.61h-1.46v.68h1.02v.61h-1.02v.87h1.46v.61Z" class="cls-2"/><path d="M67.87,110.72h-1.63v-.57h.45v-2.23h-.45v-.57h1.63v.57h-.45v2.23h.45v.57Z" class="cls-2"/><path d="M69.37,110.72h-.73v-3.38h1.31c.17,0,.33.03.48.08.14.05.27.13.37.22.1.1.18.21.23.35.05.14.08.29.08.46,0,.11-.01.21-.03.3-.02.09-.05.18-.1.26-.04.08-.1.15-.16.21-.06.06-.13.12-.21.16l.62,1.33h-.8l-.5-1.16h-.56v1.16ZM69.84,108.93c.09,0,.17-.01.24-.03.07-.02.13-.05.18-.09.05-.04.09-.09.11-.15.03-.06.04-.13.04-.21s-.01-.15-.04-.2c-.03-.06-.06-.11-.11-.15-.05-.04-.11-.07-.18-.09-.07-.02-.15-.03-.24-.03h-.47v.96h.47Z" class="cls-2"/><path d="M73.5,110.77c-.25,0-.49-.05-.72-.14s-.42-.21-.59-.37c-.17-.16-.3-.34-.4-.56-.1-.21-.14-.44-.14-.67s.05-.46.14-.67c.1-.21.23-.4.4-.55.17-.16.37-.28.59-.37.23-.09.46-.14.72-.14s.49.05.71.14c.22.09.42.21.59.37.17.16.3.34.4.55.1.21.14.43.14.67s-.05.46-.14.67c-.1.21-.23.4-.4.56-.17.16-.37.28-.59.37-.22.09-.46.14-.71.14ZM73.5,110.12c.15,0,.3-.03.43-.08.13-.05.25-.13.35-.23.1-.1.18-.21.23-.35.05-.13.08-.28.08-.44s-.03-.3-.08-.44c-.05-.13-.13-.25-.23-.34-.1-.1-.22-.17-.35-.22-.13-.05-.28-.08-.43-.08s-.3.03-.43.08c-.13.05-.25.13-.35.23-.1.1-.18.21-.23.35-.05.13-.08.28-.08.43s.03.3.08.44c.05.13.13.25.23.35.1.1.22.17.35.23.13.05.28.08.43.08Z" class="cls-2"/><path d="M76.92,110.76c-.13,0-.26-.01-.38-.04-.12-.03-.23-.07-.34-.12-.11-.05-.2-.12-.29-.2-.09-.08-.16-.18-.22-.29l.59-.4c.03.06.07.12.12.17.05.05.1.09.15.13.05.03.11.06.17.08.06.02.12.03.19.03.06,0,.11,0,.16-.03.05-.02.09-.04.13-.07.04-.03.06-.07.08-.11.02-.04.03-.09.03-.14,0-.11-.04-.2-.13-.27-.09-.07-.26-.18-.51-.35-.25-.16-.44-.32-.57-.47-.12-.15-.19-.32-.19-.53,0-.13.03-.24.08-.35s.12-.2.22-.28c.09-.08.2-.14.31-.18.12-.04.24-.06.37-.06.1,0,.19.01.28.03.09.02.17.05.24.09.07.04.14.09.2.14.06.05.12.12.16.19l-.49.41s-.05-.06-.08-.09c-.03-.03-.06-.05-.09-.07-.03-.02-.06-.04-.1-.05-.03-.01-.07-.02-.11-.02s-.07,0-.1.02c-.03.01-.06.03-.08.05-.02.02-.04.05-.06.08-.01.03-.02.06-.02.1,0,.09.02.15.07.19.04.03.21.15.5.34.29.19.5.36.63.52.13.15.19.34.19.55,0,.14-.03.27-.08.4-.05.12-.13.23-.24.32-.1.09-.22.16-.37.21-.14.05-.29.07-.46.07Z" class="cls-2"/><path d="M52.11,115.74h-1.28v-3.38h1.13c.29,0,.55.03.78.1.23.06.42.16.58.3.16.13.28.3.37.51.09.21.13.45.13.74,0,.27-.04.51-.12.73-.08.22-.2.4-.35.55-.15.15-.34.26-.55.34-.21.08-.44.12-.69.12ZM52.09,115.11c.16,0,.3-.02.43-.07.13-.05.23-.12.31-.22.08-.1.14-.21.19-.35.04-.14.06-.29.06-.46,0-.19-.02-.34-.07-.47-.05-.13-.12-.23-.21-.31-.09-.08-.21-.14-.34-.17-.14-.04-.3-.05-.49-.05h-.39v2.11h.51Z" class="cls-2"/><path d="M56.69,115.74h-2.19v-3.38h2.19v.61h-1.46v.68h1.02v.61h-1.02v.87h1.46v.61Z" class="cls-2"/><path d="M59.78,115.74h-.73v-3.38h1.31c.17,0,.33.03.48.08.14.05.27.13.37.22.1.1.18.21.23.35.05.14.08.29.08.46s-.03.32-.08.46c-.05.14-.13.25-.23.35-.1.1-.22.17-.37.22-.14.05-.3.08-.48.08h-.58v1.16ZM60.25,113.95c.09,0,.17-.01.24-.03.07-.02.13-.05.18-.09.05-.04.09-.09.11-.15.03-.06.04-.13.04-.21s-.01-.15-.04-.2c-.03-.06-.06-.11-.11-.15-.05-.04-.11-.07-.18-.09-.07-.02-.15-.03-.24-.03h-.47v.96h.47Z" class="cls-2"/><path d="M62.98,115.74h-.73v-3.38h1.31c.17,0,.33.03.48.08.14.05.27.13.37.22.1.1.18.21.23.35.05.14.08.29.08.46,0,.11-.01.21-.03.3-.02.09-.05.18-.1.26-.04.08-.1.15-.16.21-.06.06-.13.12-.21.16l.62,1.33h-.8l-.5-1.16h-.56v1.16ZM63.45,113.95c.09,0,.17-.01.24-.03.07-.02.13-.05.18-.09.05-.04.09-.09.11-.15.03-.06.04-.13.04-.21s-.01-.15-.04-.2c-.03-.06-.06-.11-.11-.15-.05-.04-.11-.07-.18-.09-.07-.02-.15-.03-.24-.03h-.47v.96h.47Z" class="cls-2"/><path d="M67.27,115.74l-.25-.8h-1.08l-.25.8h-.78l1.16-3.38h.82l1.16,3.38h-.78ZM66.23,114.04l-.11.36h.74l-.11-.36s-.03-.11-.07-.23c-.04-.12-.07-.23-.09-.3-.02-.08-.04-.15-.06-.22-.02-.07-.03-.13-.04-.18-.01.06-.02.13-.04.21-.02.07-.04.15-.06.23-.02.08-.05.16-.07.24-.02.08-.05.17-.08.27Z" class="cls-2"/><path d="M70.1,115.74h-1.63v-.57h.45v-2.23h-.45v-.57h1.63v.57h-.45v2.23h.45v.57Z" class="cls-2"/><path d="M72.87,115.74l-.25-.8h-1.08l-.25.8h-.78l1.16-3.38h.82l1.16,3.38h-.78ZM71.83,114.04l-.11.36h.74l-.11-.36s-.03-.11-.07-.23c-.04-.12-.07-.23-.09-.3-.02-.08-.04-.15-.06-.22-.02-.07-.03-.13-.04-.18-.01.06-.02.13-.04.21-.02.07-.04.15-.06.23-.02.08-.05.16-.07.24-.02.08-.05.17-.08.27Z" class="cls-2"/><path d="M52.27,120.66c0,.06,0,.12-.03.17-.02.06-.05.11-.09.17-.04.05-.09.1-.15.14-.06.04-.13.07-.22.09h0c.07.03.14.04.21.07.07.03.13.06.18.11.05.05.09.11.12.17.03.07.05.15.05.24,0,.12-.03.23-.08.32-.05.09-.13.16-.22.22-.09.06-.19.1-.3.13-.11.03-.23.04-.35.04h-.15c-.06,0-.11,0-.18,0-.06,0-.12,0-.18-.01-.06,0-.11-.01-.16-.03v-2.36c.09-.01.19-.03.31-.03.12,0,.25-.01.39-.01.09,0,.19,0,.29.02.1.01.19.04.27.09.08.04.15.1.2.18.05.08.08.17.08.29ZM51.23,121.16s.09,0,.15,0c.06,0,.11,0,.15-.01.06-.02.11-.04.16-.07.05-.03.1-.06.14-.09.04-.04.07-.08.09-.12.02-.05.03-.1.03-.15,0-.08-.02-.14-.05-.19-.03-.05-.07-.09-.12-.12-.05-.03-.11-.05-.18-.06-.07-.01-.13-.02-.2-.02-.08,0-.15,0-.22,0-.07,0-.12,0-.15.02v.81h.19ZM51.43,122.28c.08,0,.15,0,.23-.03.07-.02.14-.04.19-.08.06-.04.1-.08.13-.14.03-.05.05-.12.05-.19,0-.09-.02-.17-.06-.23-.04-.06-.09-.1-.16-.13-.06-.03-.14-.05-.22-.06-.08-.01-.16-.02-.24-.02h-.32v.86s.04,0,.07.01c.03,0,.07,0,.1,0,.04,0,.07,0,.11,0,.04,0,.07,0,.1,0Z" class="cls-2"/><path d="M52.9,120.11h1.39v.25h-1.09v.78h1v.25h-1v.85h1.11v.25h-1.41v-2.39Z" class="cls-2"/><path d="M56.11,121.84h-.94l-.25.66h-.3l.97-2.43h.14l.97,2.43h-.32l-.26-.66ZM55.27,121.59h.75l-.28-.73-.09-.36h0l-.09.37-.28.72Z" class="cls-2"/><path d="M58.61,122.4c-.07.05-.17.09-.28.11-.11.02-.23.03-.36.03-.15,0-.3-.02-.43-.07-.13-.05-.25-.12-.35-.22-.1-.1-.18-.23-.24-.38-.06-.16-.09-.34-.09-.56s.03-.41.1-.57c.06-.16.15-.28.26-.38s.22-.17.36-.22c.13-.05.27-.07.4-.07.15,0,.27,0,.36.02.09.01.17.03.24.06l-.07.25c-.12-.05-.28-.08-.5-.08-.1,0-.2.02-.3.05-.1.03-.18.09-.26.17-.08.08-.14.18-.18.3-.05.13-.07.28-.07.46,0,.16.02.31.07.43s.1.23.18.31c.08.08.17.14.27.18.1.04.22.06.34.06.11,0,.2-.01.29-.03.08-.02.15-.05.21-.08l.07.22Z" class="cls-2"/><path d="M60.62,121.4h-1.23v1.1h-.3v-2.39h.3v1.04h1.23v-1.04h.3v2.39h-.3v-1.1Z" class="cls-2"/><path d="M63.69,121.84h-.94l-.25.66h-.3l.97-2.43h.14l.97,2.43h-.32l-.26-.66ZM62.85,121.59h.75l-.28-.73-.09-.36h0l-.09.37-.28.72Z" class="cls-2"/><path d="M65.8,121.89c0-.1-.03-.17-.09-.23-.06-.06-.14-.11-.23-.16-.09-.05-.19-.09-.3-.13-.11-.04-.21-.09-.3-.15s-.17-.13-.23-.22c-.06-.09-.09-.19-.09-.33,0-.19.07-.34.21-.44.14-.11.34-.16.59-.16.15,0,.28.01.4.03.12.02.22.05.28.08l-.09.25c-.06-.03-.14-.05-.25-.07-.11-.02-.23-.04-.37-.04-.16,0-.28.03-.36.1-.08.07-.12.15-.12.24s.03.16.09.22c.06.06.14.11.23.16.09.05.19.09.3.14.11.05.21.1.3.16.09.06.17.13.23.22.06.08.09.19.09.31,0,.1-.02.19-.06.28-.04.08-.1.15-.17.21-.08.06-.17.1-.27.14s-.23.05-.36.05c-.18,0-.33-.01-.45-.04-.12-.03-.21-.06-.28-.09l.1-.25c.06.03.14.06.25.08.11.03.23.04.37.04.08,0,.16,0,.23-.02.07-.01.13-.04.18-.07.05-.03.09-.07.12-.12.03-.05.05-.11.05-.18Z" class="cls-2"/><path d="M68.15,121.4h-1.23v1.1h-.3v-2.39h.3v1.04h1.23v-1.04h.3v2.39h-.3v-1.1Z" class="cls-2"/><path d="M70.75,120.36h-.8v2.14h-.3v-2.14h-.8v-.25h1.89v.25Z" class="cls-2"/><path d="M71.17,120.13c.09-.02.2-.03.32-.04.12,0,.23-.01.33-.01.11,0,.22.01.32.03.1.02.19.06.27.11.08.05.14.12.18.21.05.08.07.19.07.31,0,.19-.05.34-.16.45-.11.12-.25.19-.42.23l.18.13.63.95h-.35l-.7-1.03-.36-.05v1.08h-.3v-2.37ZM71.82,120.33h-.1s-.07,0-.1,0c-.03,0-.06,0-.09,0-.03,0-.05,0-.07.01v.88h.28c.17,0,.31-.04.42-.12.11-.08.16-.2.16-.36,0-.12-.05-.22-.13-.3-.09-.08-.22-.12-.38-.12Z" class="cls-2"/><path d="M74.49,121.84h-.94l-.25.66h-.3l.97-2.43h.14l.97,2.43h-.32l-.26-.66ZM73.65,121.59h.75l-.28-.73-.09-.36h0l-.09.37-.28.72Z" class="cls-2"/><path d="M75.76,121.55l-.84-1.44h.35l.6,1.05.06.21h0l.07-.22.57-1.04h.32l-.84,1.44v.95h-.3v-.95Z" class="cls-2"/><rect height=".16" width="26.91" y="117.7" x="50.91" class="cls-2"/><rect height="1.53" width="127.18" y="198.55" x="37.43" class="cls-2"/><rect height="1.53" width="127.18" y="160.9" x="37.43" class="cls-2"/><path d="M174.31,95.82h-9.16c-.32,0-.54.27-.54.58v190.24h10.19V96.41c0-.31-.22-.58-.49-.58Z" class="cls-2"/><path d="M37.43,96.41v190.24h-10.19V96.41c0-.31.22-.58.49-.58h9.16c.27,0,.54.27.54.58Z" class="cls-2"/></g></g></svg>