<svg xml:space="preserve" style="enable-background:new 0 0 531.3 288;" viewBox="0 0 531.3 288" y="0px" x="0px" xmlns:xlink="http://www.w3.org/1999/xlink" xmlns="http://www.w3.org/2000/svg" id="Layer_1" version="1.1"><style type="text/css">.st0{fill:none;stroke:#000000;stroke-width:0.28;stroke-miterlimit:10;}
	.st1{fill:none;stroke:#12100A;stroke-width:0.3;stroke-miterlimit:10;}
	.st2{fill:#12100A;}
	.st3{fill:none;stroke:#12100A;stroke-width:0.3;stroke-miterlimit:10;stroke-dasharray:0.99,0.99;}
	.st4{fill:none;stroke:#12100A;stroke-width:0.3;stroke-miterlimit:10;stroke-dasharray:0.97,0.97;}</style><g id="bases"><rect height="358.4" width="589.1" class="st0" y="-33.9" x="-25.4"/></g><g id="Urban"><g id="Frame"><g id="mesa_interpretativa"><g id="LINE"><g><line y2="283.3" x2="16.7" y1="109.3" x1="16.7" class="st1"/><rect height="0.3" width="1.9" class="st2" y="109.2" x="15.7"/><rect height="0.3" width="1.9" class="st2" y="283.1" x="15.7"/></g></g><g id="MTEXT"><g><path d="M7.5,208.2h5.3v0.7H8.2l0.6,1.3H8.1l-0.7-1.4L7.5,208.2L7.5,208.2z"/><path d="M7.5,205.4h5.3v0.7H8.2l0.6,1.3H8.1L7.5,206L7.5,205.4L7.5,205.4z"/><path d="M7.6,202c0.1-0.2,0.3-0.4,0.5-0.6s0.5-0.3,0.8-0.4s0.7-0.1,1.1-0.1s0.8,0.1,1.1,0.1c0.4,0.1,0.6,0.2,0.9,0.4
						s0.4,0.4,0.6,0.7s0.2,0.6,0.2,0.9c0,0.4-0.1,0.7-0.3,1s-0.4,0.5-0.8,0.6l-0.3-0.6c0.2-0.1,0.4-0.2,0.5-0.3s0.2-0.4,0.2-0.6
						c0-0.2-0.1-0.4-0.1-0.6s-0.2-0.3-0.4-0.4s-0.4-0.2-0.6-0.3c-0.2-0.1-0.5-0.1-0.8-0.1H10c-0.1,0-0.1,0-0.1,0
						c0.2,0.1,0.4,0.2,0.6,0.4s0.2,0.5,0.2,0.8c0,0.2,0,0.5-0.1,0.6c-0.1,0.2-0.2,0.4-0.3,0.5c-0.1,0.1-0.3,0.2-0.5,0.3
						c-0.2,0.1-0.4,0.1-0.7,0.1s-0.5,0-0.7-0.1c-0.2-0.1-0.4-0.2-0.5-0.4c-0.1-0.1-0.3-0.3-0.3-0.5c-0.1-0.2-0.1-0.4-0.1-0.7
						C7.4,202.5,7.5,202.2,7.6,202L7.6,202z M8.2,203.2c0.1,0.1,0.1,0.2,0.2,0.3s0.2,0.1,0.3,0.2c0.1,0.1,0.3,0.1,0.4,0.1
						s0.3,0,0.4-0.1s0.2-0.1,0.3-0.2c0.1-0.1,0.2-0.2,0.2-0.3s0.1-0.2,0.1-0.4s0-0.3-0.1-0.4c-0.1-0.1-0.1-0.2-0.2-0.3
						c-0.1-0.1-0.2-0.1-0.3-0.2c-0.1-0.1-0.2-0.1-0.4-0.1s-0.3,0-0.4,0.1s-0.2,0.1-0.3,0.2c-0.1,0.1-0.2,0.2-0.2,0.3
						s-0.1,0.3-0.1,0.4S8.1,203.1,8.2,203.2L8.2,203.2z"/><path d="M7.5,197.2h0.7v1.9l1.5,0.2c-0.1-0.1-0.2-0.2-0.2-0.4s-0.1-0.3-0.1-0.5c0-0.2,0-0.5,0.1-0.7c0.1-0.2,0.2-0.4,0.4-0.5
						c0.1-0.1,0.3-0.3,0.5-0.4s0.4-0.1,0.7-0.1s0.5,0,0.7,0.1c0.2,0.1,0.4,0.2,0.6,0.4c0.1,0.2,0.3,0.3,0.4,0.6
						c0.1,0.2,0.1,0.4,0.1,0.7c0,0.2,0,0.4-0.1,0.6s-0.1,0.4-0.2,0.5c-0.1,0.1-0.2,0.3-0.4,0.4c-0.1,0.1-0.3,0.2-0.5,0.2l-0.3-0.6
						c0.2-0.1,0.4-0.2,0.6-0.4c0.1-0.2,0.2-0.4,0.2-0.7c0-0.1,0-0.3-0.1-0.4c-0.1-0.1-0.1-0.2-0.2-0.3c-0.1-0.1-0.2-0.2-0.3-0.2
						s-0.3-0.1-0.4-0.1s-0.3,0-0.4,0.1c-0.1,0.1-0.2,0.1-0.3,0.2s-0.2,0.2-0.2,0.3c-0.1,0.1-0.1,0.3-0.1,0.4c0,0.2,0,0.4,0.1,0.5
						c0.1,0.1,0.2,0.3,0.3,0.4l-0.1,0.6l-2.8-0.5L7.5,197.2L7.5,197.2z"/><path d="M9.1,193.3h0.7c-0.2-0.1-0.4-0.3-0.5-0.4c-0.1-0.2-0.2-0.4-0.2-0.6c0-0.3,0.1-0.5,0.2-0.7c0.1-0.2,0.3-0.3,0.6-0.4
						c-0.3-0.1-0.4-0.3-0.6-0.5c-0.1-0.2-0.2-0.4-0.2-0.7c0-0.4,0.1-0.7,0.4-0.9s0.6-0.3,1.1-0.3h2.2v0.7h-2.2
						c-0.3,0-0.5,0.1-0.7,0.2c-0.2,0.1-0.2,0.3-0.2,0.5c0,0.1,0,0.2,0.1,0.3c0.1,0.1,0.1,0.2,0.2,0.3c0.1,0.1,0.2,0.1,0.3,0.2
						c0.1,0,0.3,0.1,0.4,0.1h2.1v0.7h-2.2c-0.1,0-0.3,0-0.4,0.1c-0.1,0-0.2,0.1-0.3,0.1s-0.1,0.1-0.2,0.2c0,0.1-0.1,0.2-0.1,0.3
						s0,0.2,0.1,0.3c0.1,0.1,0.1,0.2,0.2,0.2s0.2,0.1,0.3,0.2c0.1,0,0.3,0.1,0.4,0.1h2.1v0.7H9.1L9.1,193.3L9.1,193.3z"/><path d="M9.1,187.1h0.7c-0.2-0.1-0.4-0.3-0.5-0.4c-0.1-0.2-0.2-0.4-0.2-0.6c0-0.3,0.1-0.5,0.2-0.7c0.1-0.2,0.3-0.3,0.6-0.4
						c-0.3-0.1-0.4-0.3-0.6-0.5c-0.1-0.2-0.2-0.4-0.2-0.7c0-0.4,0.1-0.7,0.4-0.9s0.6-0.3,1.1-0.3h2.2v0.7h-2.2
						c-0.3,0-0.5,0.1-0.7,0.2c-0.2,0.1-0.2,0.3-0.2,0.5c0,0.1,0,0.2,0.1,0.3c0.1,0.1,0.1,0.2,0.2,0.3c0.1,0.1,0.2,0.1,0.3,0.2
						c0.1,0,0.3,0.1,0.4,0.1h2.1v0.7h-2.2c-0.1,0-0.3,0-0.4,0.1c-0.1,0-0.2,0.1-0.3,0.1s-0.1,0.1-0.2,0.2c0,0.1-0.1,0.2-0.1,0.3
						s0,0.2,0.1,0.3c0.1,0.1,0.1,0.2,0.2,0.2s0.2,0.1,0.3,0.2c0.1,0,0.3,0.1,0.4,0.1h2.1v0.7H9.1L9.1,187.1L9.1,187.1z"/></g></g><g><path d="M198,110.2v171.7H40.5V181.3h-1.5v102.1h1.5l157.5-0.1h1.5V109.2H39.1v72.2h1.5v-71.1
					C40.5,110.2,198,110.2,198,110.2z" class="st1"/><rect height="70.1" width="154.6" class="st1" y="111.2" x="42"/><g><rect height="5.2" width="1.4" class="st1" y="116.4" x="40.6"/><rect height="0.5" width="1.4" class="st1" y="121.5" x="40.6"/></g><g><rect height="5.1" width="1.4" class="st1" y="172" x="40.6"/><rect height="0.5" width="1.4" class="st1" y="177.2" x="40.6"/></g><g><rect height="5.2" width="1.4" class="st1" y="116.4" x="196.6"/><rect height="0.5" width="1.4" class="st1" y="121.5" x="196.6"/></g><g><rect height="5.1" width="1.4" class="st1" y="172" x="196.6"/><rect height="0.5" width="1.4" class="st1" y="177.2" x="196.6"/></g></g><g><path d="M295.7,180.9c-23.9-23.9-47.9-47.8-71.8-71.8c-3.1,3.1-6.2,6.2-9.3,9.3c22.8,22.8,45.6,45.6,68.4,68.3v96.7
					h13.1V181.3C296,181.2,295.9,181,295.7,180.9L295.7,180.9z" class="st1"/><g><path d="M284.3,168.4c0.1-0.1,0.2-0.2,0.4-0.4" class="st1"/><path d="M285.4,167.4c2.8-2.4,6.5-4,10.4-4.2" class="st3"/><path d="M296.3,163.2c0.2,0,0.3,0,0.5,0v0.5" class="st1"/><line y2="179.8" x2="296.8" y1="164.7" x1="296.8" class="st4"/><line y2="180.8" x2="296.8" y1="180.3" x1="296.8" class="st1"/></g><g><path d="M284.3,157.4l1.5,2.8l0.8-0.4l0.3,0.5l-0.8,0.4l0.6,1.2l-0.6,0.3l-0.6-1.2l-2,1l-0.3-0.5l0.4-3.8L284.3,157.4z
						 M284.4,159.1c-0.1-0.1-0.2-0.2-0.3-0.1c-0.1,0-0.1,0.1-0.1,0.3l-0.1,1.3c0,0.1,0,0.2,0,0.3c0.1,0.1,0.2,0.2,0.4,0.1l0.8-0.4
						L284.4,159.1z"/><path d="M288,155.4l0.3,0.5l-1.6,0.8l0.3,0.9c0.1,0.2,0.2,0.3,0.3,0.2c0,0,0.1,0,0.1-0.1c0.1-0.1,0.1-0.1,0.3-0.2
						c0.8-0.4,1.7-0.2,2.2,0.7c0.5,0.9,0.2,1.8-0.7,2.2c-0.7,0.4-1.4,0.3-2-0.2l0.4-0.5c0.3,0.3,0.8,0.4,1.2,0.2
						c0.5-0.3,0.7-0.8,0.4-1.3c-0.3-0.5-0.9-0.7-1.4-0.4c-0.3,0.2-0.5,0.4-0.5,0.7l-0.6,0.2l-0.8-2.6L288,155.4z"/><path d="M291.8,154.7c0.4,0.7,0.1,1.6-0.6,2c-0.7,0.4-1.6,0.1-2-0.6c-0.4-0.7-0.1-1.6,0.6-2C290.6,153.7,291.5,154,291.8,154.7
						z M289.7,155.8c0.2,0.4,0.8,0.6,1.2,0.4c0.4-0.2,0.6-0.8,0.4-1.2c-0.2-0.4-0.8-0.6-1.2-0.4
						C289.7,154.8,289.5,155.4,289.7,155.8z"/></g></g><g id="MTEXT-3"><g><path d="M422,174.9v5.3h-0.7v-4.5l-1.3,0.6v-0.7l1.4-0.7L422,174.9L422,174.9z"/><path d="M424.9,174.9v5.3h-0.7v-4.5l-1.3,0.6v-0.7l1.4-0.7L424.9,174.9L424.9,174.9z"/><path d="M428.6,175c0.2,0.1,0.5,0.3,0.6,0.6s0.3,0.5,0.4,0.9s0.1,0.7,0.1,1.1s0,0.8-0.1,1.1s-0.2,0.6-0.4,0.9
						c-0.2,0.2-0.4,0.4-0.6,0.6s-0.5,0.2-0.8,0.2s-0.6-0.1-0.8-0.2s-0.5-0.3-0.6-0.6c-0.2-0.2-0.3-0.5-0.4-0.9s-0.1-0.7-0.1-1.1
						s0-0.8,0.1-1.1s0.2-0.6,0.4-0.9c0.2-0.2,0.4-0.4,0.6-0.6s0.5-0.2,0.8-0.2S428.3,174.9,428.6,175L428.6,175z M427.2,175.6
						c-0.2,0.1-0.3,0.2-0.4,0.4c-0.1,0.2-0.2,0.4-0.3,0.6c-0.1,0.2-0.1,0.5-0.1,0.8s0,0.6,0.1,0.8s0.1,0.5,0.3,0.6s0.2,0.3,0.4,0.4
						c0.2,0.1,0.3,0.1,0.5,0.1s0.4-0.1,0.5-0.1c0.2-0.1,0.3-0.2,0.4-0.4c0.1-0.2,0.2-0.4,0.3-0.6c0.1-0.2,0.1-0.5,0.1-0.8
						s0-0.6-0.1-0.8s-0.1-0.5-0.3-0.6c-0.1-0.2-0.2-0.3-0.4-0.4s-0.3-0.1-0.5-0.1S427.3,175.5,427.2,175.6L427.2,175.6z"/><path d="M433.2,175c0.2,0.1,0.5,0.3,0.6,0.6s0.3,0.5,0.4,0.9s0.1,0.7,0.1,1.1s0,0.8-0.1,1.1s-0.2,0.6-0.4,0.9
						c-0.2,0.2-0.4,0.4-0.6,0.6s-0.5,0.2-0.8,0.2s-0.6-0.1-0.8-0.2s-0.5-0.3-0.6-0.6c-0.2-0.2-0.3-0.5-0.4-0.9s-0.1-0.7-0.1-1.1
						s0-0.8,0.1-1.1s0.2-0.6,0.4-0.9c0.2-0.2,0.4-0.4,0.6-0.6s0.5-0.2,0.8-0.2S432.9,174.9,433.2,175L433.2,175z M431.8,175.6
						c-0.2,0.1-0.3,0.2-0.4,0.4c-0.1,0.2-0.2,0.4-0.3,0.6c-0.1,0.2-0.1,0.5-0.1,0.8s0,0.6,0.1,0.8s0.1,0.5,0.3,0.6s0.2,0.3,0.4,0.4
						c0.2,0.1,0.3,0.1,0.5,0.1s0.4-0.1,0.5-0.1c0.2-0.1,0.3-0.2,0.4-0.4c0.1-0.2,0.2-0.4,0.3-0.6c0.1-0.2,0.1-0.5,0.1-0.8
						s0-0.6-0.1-0.8s-0.1-0.5-0.3-0.6c-0.1-0.2-0.2-0.3-0.4-0.4s-0.3-0.1-0.5-0.1S432,175.5,431.8,175.6L431.8,175.6z"/><path d="M438,176.5v0.7c0.1-0.2,0.3-0.4,0.5-0.5c0.2-0.1,0.4-0.2,0.6-0.2c0.3,0,0.5,0.1,0.7,0.2c0.2,0.1,0.3,0.3,0.4,0.6
						c0.1-0.3,0.3-0.4,0.5-0.6c0.2-0.1,0.4-0.2,0.7-0.2c0.4,0,0.7,0.1,0.9,0.4s0.3,0.6,0.3,1.1v2.2h-0.7V178c0-0.3-0.1-0.5-0.2-0.7
						s-0.3-0.2-0.5-0.2c-0.1,0-0.2,0-0.3,0.1s-0.2,0.1-0.3,0.2c-0.1,0.1-0.1,0.2-0.2,0.3c0,0.1-0.1,0.3-0.1,0.4v2.1h-0.7V178
						c0-0.1,0-0.3-0.1-0.4c0-0.1-0.1-0.2-0.1-0.3s-0.1-0.1-0.2-0.2c-0.1,0-0.2-0.1-0.3-0.1s-0.2,0-0.3,0.1s-0.2,0.1-0.2,0.2
						c-0.1,0.1-0.1,0.2-0.2,0.3c0,0.1-0.1,0.3-0.1,0.4v2.1h-0.7v-3.6L438,176.5L438,176.5z"/><path d="M444.2,176.5v0.7c0.1-0.2,0.3-0.4,0.5-0.5c0.2-0.1,0.4-0.2,0.6-0.2c0.3,0,0.5,0.1,0.7,0.2c0.2,0.1,0.3,0.3,0.4,0.6
						c0.1-0.3,0.3-0.4,0.5-0.6c0.2-0.1,0.4-0.2,0.7-0.2c0.4,0,0.7,0.1,0.9,0.4s0.3,0.6,0.3,1.1v2.2H448V178c0-0.3-0.1-0.5-0.2-0.7
						s-0.3-0.2-0.5-0.2c-0.1,0-0.2,0-0.3,0.1s-0.2,0.1-0.3,0.2c-0.1,0.1-0.1,0.2-0.2,0.3c0,0.1-0.1,0.3-0.1,0.4v2.1h-0.7V178
						c0-0.1,0-0.3-0.1-0.4c0-0.1-0.1-0.2-0.1-0.3s-0.1-0.1-0.2-0.2c-0.1,0-0.2-0.1-0.3-0.1s-0.2,0-0.3,0.1s-0.2,0.1-0.2,0.2
						c-0.1,0.1-0.1,0.2-0.2,0.3c0,0.1-0.1,0.3-0.1,0.4v2.1h-0.7v-3.6L444.2,176.5L444.2,176.5z"/></g></g><g id="LINE-2"><g><line y2="201" x2="332.7" y1="283.3" x1="332.7" class="st1"/><rect height="0.3" width="2" class="st2" y="283.1" x="331.7"/><rect height="0.3" width="2" class="st2" y="200.9" x="331.7"/></g></g><g id="LINE-3"><g><line y2="184.1" x2="514.5" y1="184.1" x1="354.4" class="st1"/><rect height="1.9" width="0.3" class="st2" y="183.1" x="354.3"/><rect height="1.9" width="0.3" class="st2" y="183.1" x="514.4"/></g></g><g id="MTEXT-4"><g><path d="M323.5,252.1h0.6v1.9l1.5,0.2c-0.1-0.1-0.2-0.2-0.2-0.4s-0.1-0.3-0.1-0.5c0-0.2,0-0.5,0.1-0.7c0.1-0.2,0.2-0.4,0.4-0.5
						s0.3-0.3,0.5-0.4c0.2-0.1,0.4-0.1,0.7-0.1s0.5,0,0.7,0.1c0.2,0.1,0.4,0.2,0.5,0.4c0.1,0.2,0.3,0.3,0.4,0.6
						c0.1,0.2,0.1,0.4,0.1,0.7c0,0.2,0,0.4-0.1,0.6s-0.1,0.4-0.2,0.5s-0.2,0.3-0.4,0.4c-0.1,0.1-0.3,0.2-0.5,0.2l-0.3-0.6
						c0.2-0.1,0.4-0.2,0.6-0.4c0.1-0.2,0.2-0.4,0.2-0.7c0-0.1,0-0.3-0.1-0.4c0-0.1-0.1-0.2-0.2-0.3c-0.1-0.1-0.2-0.2-0.3-0.2
						c-0.1-0.1-0.3-0.1-0.4-0.1s-0.3,0-0.4,0.1c-0.1,0.1-0.2,0.1-0.3,0.2s-0.2,0.2-0.2,0.3c0,0.1-0.1,0.3-0.1,0.4
						c0,0.2,0,0.4,0.1,0.5c0.1,0.1,0.2,0.3,0.3,0.4l-0.1,0.6l-2.8-0.5L323.5,252.1L323.5,252.1z"/><path d="M323.5,248.1h0.6v1.9l1.5,0.2c-0.1-0.1-0.2-0.2-0.2-0.4s-0.1-0.3-0.1-0.5c0-0.2,0-0.5,0.1-0.7c0.1-0.2,0.2-0.4,0.4-0.5
						s0.3-0.3,0.5-0.4c0.2-0.1,0.4-0.1,0.7-0.1s0.5,0,0.7,0.1c0.2,0.1,0.4,0.2,0.5,0.4c0.1,0.2,0.3,0.3,0.4,0.6
						c0.1,0.2,0.1,0.4,0.1,0.7c0,0.2,0,0.4-0.1,0.6s-0.1,0.4-0.2,0.5s-0.2,0.3-0.4,0.4c-0.1,0.1-0.3,0.2-0.5,0.2l-0.3-0.6
						c0.2-0.1,0.4-0.2,0.6-0.4c0.1-0.2,0.2-0.4,0.2-0.7c0-0.1,0-0.3-0.1-0.4c0-0.1-0.1-0.2-0.2-0.3c-0.1-0.1-0.2-0.2-0.3-0.2
						c-0.1-0.1-0.3-0.1-0.4-0.1s-0.3,0-0.4,0.1c-0.1,0.1-0.2,0.1-0.3,0.2s-0.2,0.2-0.2,0.3c0,0.1-0.1,0.3-0.1,0.4
						c0,0.2,0,0.4,0.1,0.5c0.1,0.1,0.2,0.3,0.3,0.4l-0.1,0.6l-2.8-0.5L323.5,248.1L323.5,248.1z"/><path d="M323.6,244.7c0.1-0.2,0.3-0.4,0.5-0.6s0.5-0.3,0.8-0.4s0.7-0.1,1.1-0.1s0.8,0.1,1.1,0.1c0.4,0.1,0.6,0.2,0.9,0.4
						s0.4,0.4,0.6,0.7s0.2,0.6,0.2,0.9c0,0.4-0.1,0.7-0.3,1s-0.4,0.5-0.8,0.6l-0.3-0.6c0.2-0.1,0.4-0.2,0.5-0.3
						c0.1-0.2,0.2-0.4,0.2-0.6c0-0.2,0-0.4-0.1-0.6c-0.1-0.2-0.2-0.3-0.4-0.4c-0.2-0.1-0.4-0.2-0.6-0.3c-0.2-0.1-0.5-0.1-0.8-0.1
						h-0.2c-0.1,0-0.1,0-0.1,0c0.2,0.1,0.5,0.2,0.6,0.4c0.1,0.2,0.2,0.5,0.2,0.8c0,0.2,0,0.5-0.1,0.6c-0.1,0.2-0.2,0.4-0.3,0.5
						c-0.1,0.1-0.3,0.2-0.5,0.3c-0.2,0.1-0.4,0.1-0.7,0.1s-0.5,0-0.7-0.1c-0.2-0.1-0.4-0.2-0.5-0.4c-0.1-0.1-0.3-0.3-0.3-0.5
						c-0.1-0.2-0.1-0.4-0.1-0.7C323.4,245.2,323.5,244.9,323.6,244.7L323.6,244.7z M324.2,245.9c0,0.1,0.1,0.2,0.2,0.3
						s0.2,0.1,0.3,0.2s0.3,0.1,0.4,0.1s0.3,0,0.4-0.1s0.2-0.1,0.3-0.2c0.1-0.1,0.2-0.2,0.2-0.3s0.1-0.2,0.1-0.4s0-0.3-0.1-0.4
						c0-0.1-0.1-0.2-0.2-0.3c-0.1-0.1-0.2-0.1-0.3-0.2s-0.2-0.1-0.4-0.1s-0.3,0-0.4,0.1s-0.2,0.1-0.3,0.2c-0.1,0.1-0.2,0.2-0.2,0.3
						s-0.1,0.3-0.1,0.4S324.1,245.8,324.2,245.9L324.2,245.9z"/><path d="M325.1,240h0.7c-0.2-0.1-0.4-0.3-0.5-0.4c-0.1-0.2-0.2-0.4-0.2-0.6c0-0.3,0.1-0.5,0.2-0.7c0.1-0.2,0.3-0.3,0.6-0.4
						c-0.3-0.1-0.5-0.3-0.6-0.5c-0.1-0.2-0.2-0.4-0.2-0.7c0-0.4,0.1-0.7,0.4-0.9s0.6-0.3,1.1-0.3h2.2v0.7h-2.2
						c-0.3,0-0.5,0.1-0.7,0.2c-0.2,0.1-0.2,0.3-0.2,0.5c0,0.1,0,0.2,0.1,0.3c0,0.1,0.1,0.2,0.2,0.3c0.1,0.1,0.2,0.1,0.3,0.2
						c0.1,0,0.3,0.1,0.4,0.1h2.1v0.7h-2.2c-0.1,0-0.3,0-0.4,0.1c-0.1,0-0.2,0.1-0.3,0.1s-0.1,0.1-0.2,0.2c0,0.1-0.1,0.2-0.1,0.3
						s0,0.2,0.1,0.3c0,0.1,0.1,0.2,0.2,0.2s0.2,0.1,0.3,0.2c0.1,0,0.3,0.1,0.4,0.1h2.1v0.7h-3.6V240L325.1,240z"/><path d="M325.1,233.8h0.7c-0.2-0.1-0.4-0.3-0.5-0.4c-0.1-0.2-0.2-0.4-0.2-0.6c0-0.3,0.1-0.5,0.2-0.7c0.1-0.2,0.3-0.3,0.6-0.4
						c-0.3-0.1-0.5-0.3-0.6-0.5c-0.1-0.2-0.2-0.4-0.2-0.7c0-0.4,0.1-0.7,0.4-0.9s0.6-0.3,1.1-0.3h2.2v0.7h-2.2
						c-0.3,0-0.5,0.1-0.7,0.2c-0.2,0.1-0.2,0.3-0.2,0.5c0,0.1,0,0.2,0.1,0.3c0,0.1,0.1,0.2,0.2,0.3c0.1,0.1,0.2,0.1,0.3,0.2
						c0.1,0,0.3,0.1,0.4,0.1h2.1v0.7h-2.2c-0.1,0-0.3,0-0.4,0.1c-0.1,0-0.2,0.1-0.3,0.1s-0.1,0.1-0.2,0.2c0,0.1-0.1,0.2-0.1,0.3
						s0,0.2,0.1,0.3c0,0.1,0.1,0.2,0.2,0.2s0.2,0.1,0.3,0.2c0.1,0,0.3,0.1,0.4,0.1h2.1v0.7h-3.6V233.8L325.1,233.8z"/></g></g><g><rect height="69.7" width="154.6" class="st1" y="213.7" x="357"/><g><g><rect height="5.1" width="1.4" class="st1" y="217.9" x="355.6"/><rect height="0.5" width="1.4" class="st1" y="223.1" x="355.6"/></g><g><rect height="5.1" width="1.4" class="st1" y="273.6" x="355.6"/><rect height="0.5" width="1.4" class="st1" y="278.7" x="355.6"/></g><g><rect height="5.1" width="1.4" class="st1" y="217.9" x="511.7"/><rect height="0.5" width="1.4" class="st1" y="223.1" x="511.7"/></g><g><rect height="5.1" width="1.5" class="st1" y="273.6" x="511.6"/><rect height="0.5" width="1.5" class="st1" y="278.7" x="511.6"/></g></g><rect height="81.5" width="1.5" class="st1" y="201.9" x="354.1"/><rect height="1.5" width="157.5" class="st1" y="210.8" x="355.6"/><rect height="81.5" width="1.5" class="st1" y="201.9" x="513.1"/><line y2="211.4" x2="354.1" y1="211.4" x1="355.5" class="st1"/><line y2="211.4" x2="513.1" y1="211.4" x1="514.5" class="st1"/><line y2="212.2" x2="357" y1="213.7" x1="357" class="st1"/><line y2="212.2" x2="511.6" y1="213.7" x1="511.6" class="st1"/></g></g></g></g></svg>