<svg viewBox="0 0 531.26 288" xmlns="http://www.w3.org/2000/svg" id="Urban"><defs><style>.cls-1,.cls-2{stroke:#000;}.cls-1,.cls-2,.cls-3,.cls-4{stroke-width:.3px;}.cls-1,.cls-3,.cls-4{fill:none;stroke-linecap:round;stroke-linejoin:round;}.cls-2{fill:#f1efea;stroke-miterlimit:10;}.cls-5{fill:#12100a;}.cls-3{stroke:#877069;}.cls-4{stroke:#12100a;}</style></defs><g id="Frame"><g id="banco_SMART_com_costas"><g id="LINE-2"><line y2="202.18" x2="38.9" y1="202.18" x1="395.04" class="cls-1"/></g><g id="LINE-3"><path d="M395.04,200.29v1.89-1.89H38.9v1.89s0,84.9,0,84.9h16.87v-67.92h322.4s0,67.92,0,67.92h16.87v-84.9" class="cls-1"/></g><g id="LINE-4"><path d="M395.04,208.31h1.41c.52,0,.94-.42.94-.94v-2.92" class="cls-1"/></g><g id="LINE-5"><polyline points="395.04 204.44 395.04 203.59 397.38 203.59 397.38 204.44" class="cls-1"/></g><polyline points="395.79 208.31 397.08 208.31 397.08 210.57 395.79 210.57" class="cls-1"/><line y2="210.57" x2="395.04" y1="210.57" x1="395.79" class="cls-1"/><path d="M39.46,86.22v1.86h356.17v-1.86H39.46ZM39.46,95.61v2h185.31v-2H39.46ZM224.96,114.78v.07H39.48v-7.59h185.28v-2.13H39.46v20.9h356.17v-11.25h-170.66ZM39.46,67.25v1.93h356.17v-1.93H39.46ZM39.46,48.28v1.93h356.17v-1.93H39.46ZM39.46,18.2v22.56h356.17v-22.56H39.46ZM39.46,57.73v2h356.17v-2H39.46ZM39.46,76.7v1.93h356.17v-1.93H39.46ZM145.29,105.12v2.13h67.16v-2.13h-67.16Z" class="cls-2"/><rect height="7.52" width="356.17" y="40.76" x="39.46" class="cls-2"/><rect height="4.47" width="356.16" y="33.77" x="39.45" class="cls-2"/><rect height="4.47" width="356.16" y="29.31" x="39.45" class="cls-2"/><rect height=".73" width="356.16" y="38.17" x="39.46" class="cls-2"/><rect height="7.52" width="356.17" y="50.21" x="39.46" class="cls-2"/><rect height="7.52" width="356.17" y="59.73" x="39.46" class="cls-2"/><rect height="7.52" width="356.17" y="69.18" x="39.46" class="cls-2"/><rect height="7.59" width="356.17" y="78.63" x="39.46" class="cls-2"/><polyline points="224.76 95.61 39.46 95.61 39.46 88.08 224.76 88.08" class="cls-2"/><line y2="88.08" x2="224.96" y1="88.08" x1="224.76" class="cls-2"/><line y2="95.61" x2="224.76" y1="95.61" x1="224.96" class="cls-2"/><polyline points="224.76 105.12 39.46 105.12 39.46 97.6 224.76 97.6" class="cls-2"/><line y2="97.6" x2="224.96" y1="97.6" x1="224.76" class="cls-2"/><line y2="105.12" x2="224.76" y1="105.12" x1="224.96" class="cls-2"/><line y2="107.25" x2="224.96" y1="107.25" x1="224.76" class="cls-2"/><rect height="7.55" width="356.16" y="116.59" x="39.46" class="cls-2"/><path d="M378.12,113.31v1.46h-13.98v-1.46c0-.27.2-.47.4-.47h13.18c.2,0,.4.2.4.47Z" class="cls-2"/><rect height="19.77" width="2.33" y="91.88" x="395.62" class="cls-2"/><rect height="1.35" width="16.85" y="16.81" x="378.76" class="cls-2"/><rect height="1.35" width="16.85" y="16.81" x="39.45" class="cls-2"/><g id="LINE-6"><line y2="202.25" x2="513.37" y1="202.25" x1="511.53" class="cls-1"/></g><g id="LINE-7"><line y2="202.25" x2="421.42" y1="202.25" x1="419.58" class="cls-1"/></g><path d="M504.79,200.94h6.12c.34,0,.62.28.62.62v14.13h-7.36v-14.13c0-.34.28-.62.62-.62Z" class="cls-1"/><path d="M495.6,200.94h6.12c.34,0,.62.28.62.62v14.13h-7.36v-14.13c0-.34.28-.62.62-.62Z" class="cls-1"/><path d="M486.4,200.94h6.12c.34,0,.62.28.62.62v14.13h-7.36v-14.13c0-.34.28-.62.62-.62Z" class="cls-1"/><path d="M477.21,200.94h6.12c.34,0,.62.28.62.62v14.13h-7.36v-14.13c0-.34.28-.62.62-.62Z" class="cls-1"/><path d="M468.01,200.94h6.12c.34,0,.62.28.62.62v14.13h-7.36v-14.13c0-.34.28-.62.62-.62Z" class="cls-1"/><path d="M458.82,200.94h6.12c.34,0,.62.28.62.62v14.13h-7.36v-14.13c0-.34.28-.62.62-.62Z" class="cls-1"/><path d="M422.04,200.94h6.12c.34,0,.62.28.62.62v14.13h-7.36v-14.13c0-.34.28-.62.62-.62Z" class="cls-1"/><rect height="14.74" width="25.84" y="200.94" x="430.57" class="cls-1"/><g id="ARC"><path d="M502.34,206.86c0-.2.17-.37.39-.37h1.06c.21,0,.39.16.39.37" class="cls-1"/></g><g id="ARC-2"><path d="M493.14,206.86c0-.2.17-.37.39-.37h1.06c.21,0,.39.16.39.37" class="cls-1"/></g><g id="ARC-3"><path d="M483.95,206.86c0-.2.17-.37.39-.37h1.06c.21,0,.39.16.39.37" class="cls-1"/></g><g id="ARC-4"><path d="M474.75,206.86c0-.2.17-.37.39-.37h1.06c.21,0,.39.16.39.37" class="cls-1"/></g><g id="ARC-5"><path d="M465.56,206.86c0-.2.17-.37.39-.37h1.06c.21,0,.39.16.39.37" class="cls-1"/></g><g id="ARC-6"><path d="M456.41,206.86c0-.2.17-.37.38-.37h1.04c.21,0,.38.16.38.37" class="cls-1"/></g><g id="ARC-7"><path d="M428.78,206.86c0-.2.17-.37.38-.37h1.04c.21,0,.38.16.38.37" class="cls-1"/></g><g id="LINE-8"><path d="M433.63,208.89v-3.77c0-.46.37-.83.83-.83h17.65c.46,0,.83.37.83.83v3.77" class="cls-1"/></g><g id="ARC-8"><path d="M436.94,206.27c-.69.5-1.1,1.31-1.1,2.16" class="cls-1"/></g><g id="ARC-9"><path d="M441.17,208.43c0-.86-.41-1.66-1.1-2.16" class="cls-1"/></g><g id="CIRCLE"><circle r="2.67" cy="208.43" cx="438.5" class="cls-1"/></g><polyline points="436.93 206.27 436.93 205.17 440.06 205.17 440.06 206.27" class="cls-1"/><g id="LINE-9"><line y2="205.45" x2="449.63" y1="205.45" x1="449.64" class="cls-1"/></g><g id="ARC-10"><path d="M446.5,206.27c-.69.5-1.1,1.31-1.1,2.16" class="cls-1"/></g><g id="ARC-11"><path d="M450.73,208.43c0-.86-.41-1.66-1.1-2.16" class="cls-1"/></g><g id="CIRCLE-2"><circle r="2.67" cy="208.43" cx="448.06" class="cls-1"/></g><polyline points="446.49 206.27 446.49 205.17 449.63 205.17 449.63 206.27" class="cls-1"/><line y2="202.12" x2="421.39" y1="202.12" x1="419.31" class="cls-3"/><line y2="202.12" x2="421.39" y1="202.12" x1="419.31" class="cls-4"/><line y2="285.48" x2="421.39" y1="202.12" x1="421.39" class="cls-4"/><line y2="287.38" x2="419.31" y1="202.12" x1="419.31" class="cls-4"/><line y2="200.79" x2="513.37" y1="215.38" x1="513.37" class="cls-3"/><line y2="134.19" x2="527.78" y1="148.83" x1="523.45" class="cls-3"/><line y2="150.66" x2="522.91" y1="165.3" x1="518.58" class="cls-3"/><path d="M515.99,147.01l7.46,1.81s0,0,0,0l4.33-14.63s0,0,0,0l-8.06-1.96s0,0,0,0l-4.16,14.08c-.09.31.11.62.45.7Z" class="cls-4"/><path d="M506.2,179.93l7.51,1.82,4.33-14.64-7.4-1.8c-.37-.09-.76.11-.86.45l-4,13.51c-.08.28.1.58.42.65Z" class="cls-4"/><path d="M511.09,163.47l7.51,1.82,4.33-14.64-7.4-1.8c-.37-.09-.76.11-.86.45l-4,13.51c-.08.28.1.58.42.65Z" class="cls-4"/><rect transform="translate(934.77 504.65) rotate(-180)" height="66.31" width="91.98" y="219.17" x="421.39" class="cls-4"/><path d="M515.46,287.38s0-103.67,0-103.96c0-.28.09-.56.09-.56l13.7-46.35-2.02-.49-13.42,45.42s-.19.61-.33,1.07-.13.99-.13.99v.38s0,101.6,0,101.6" class="cls-4"/><line y2="287.38" x2="419.31" y1="287.38" x1="515.46" class="cls-4"/><line y2="200.86" x2="395.04" y1="202.18" x1="395.04" class="cls-4"/><polyline points="395.04 200.29 395.04 200.3 395.04 200.33 395.04 200.39 395.04 200.46 395.04 200.54 395.04 200.64 395.04 200.75 395.04 200.86" class="cls-4"/><polyline points="38.9 200.86 38.9 200.75 38.9 200.64 38.9 200.54 38.9 200.46 38.9 200.39 38.9 200.33 38.9 200.3 38.9 200.29" class="cls-4"/><line y2="147.31" x2="38.9" y1="147.31" x1="395.04" class="cls-4"/><line y2="163.71" x2="38.9" y1="163.71" x1="395.04" class="cls-4"/><line y2="149.12" x2="38.9" y1="149.12" x1="395.04" class="cls-4"/><line y2="165.51" x2="38.9" y1="165.51" x1="395.04" class="cls-4"/><rect height="67.57" width="356.14" y="132.72" x="38.9" class="cls-4"/><rect height="18.23" width="323.21" y="182.06" x="55.66" class="cls-1"/><polyline points="395.04 202.18 38.9 202.18 38.9 200.86" class="cls-4"/><line y2="179.96" x2="38.9" y1="179.96" x1="395.04" class="cls-4"/><line y2="182.06" x2="38.9" y1="182.06" x1="395.04" class="cls-4"/><rect height="1.66" width="2.06" y="39.1" x="53.17" class="cls-4"/><rect height="1.93" width="2.06" y="48.28" x="53.17" class="cls-4"/><rect height="2" width="2.06" y="57.73" x="53.17" class="cls-4"/><rect height="1.93" width="2.06" y="67.25" x="53.17" class="cls-4"/><rect height="1.93" width="2.06" y="76.7" x="53.17" class="cls-4"/><rect height="1.86" width="2.06" y="86.22" x="53.17" class="cls-4"/><rect height="2" width="2.06" y="95.61" x="53.17" class="cls-4"/><rect height="2.13" width="2.06" y="105.12" x="53.17" class="cls-4"/><rect height="1.8" width="2.06" y="114.84" x="53.17" class="cls-4"/><line y2="39.1" x2="65.61" y1="40.76" x1="65.61" class="cls-4"/><line y2="57.73" x2="65.61" y1="59.73" x1="65.61" class="cls-4"/><line y2="76.7" x2="65.61" y1="78.63" x1="65.61" class="cls-4"/><line y2="95.61" x2="65.61" y1="97.6" x1="65.61" class="cls-4"/><polyline points="65.61 116.64 65.61 116.57 65.61 114.84" class="cls-4"/><line y2="105.12" x2="65.61" y1="107.25" x1="65.61" class="cls-4"/><line y2="86.22" x2="65.61" y1="88.08" x1="65.61" class="cls-4"/><line y2="67.25" x2="65.61" y1="69.18" x1="65.61" class="cls-4"/><line y2="48.28" x2="65.61" y1="50.21" x1="65.61" class="cls-4"/><rect height="1.66" width="2.06" y="39.1" x="132.84" class="cls-4"/><rect height="1.93" width="2.06" y="48.28" x="132.84" class="cls-4"/><rect height="2" width="2.06" y="57.73" x="132.84" class="cls-4"/><rect height="1.93" width="2.06" y="67.25" x="132.84" class="cls-4"/><rect height="1.93" width="2.06" y="76.7" x="132.84" class="cls-4"/><rect height="1.86" width="2.06" y="86.22" x="132.84" class="cls-4"/><rect height="2" width="2.06" y="95.61" x="132.84" class="cls-4"/><rect height="2.13" width="2.06" y="105.12" x="132.84" class="cls-4"/><rect height="1.66" width="2.06" y="114.84" x="132.84" class="cls-4"/><line y2="105.12" x2="145.29" y1="107.25" x1="145.29" class="cls-4"/><line y2="86.22" x2="145.29" y1="88.08" x1="145.29" class="cls-4"/><line y2="67.25" x2="145.29" y1="69.18" x1="145.29" class="cls-4"/><line y2="48.28" x2="145.29" y1="50.21" x1="145.29" class="cls-4"/><line y2="39.1" x2="145.29" y1="40.76" x1="145.29" class="cls-4"/><line y2="57.73" x2="145.29" y1="59.73" x1="145.29" class="cls-4"/><line y2="76.7" x2="145.29" y1="78.63" x1="145.29" class="cls-4"/><line y2="95.61" x2="145.29" y1="97.6" x1="145.29" class="cls-4"/><line y2="114.84" x2="145.29" y1="116.51" x1="145.29" class="cls-4"/><rect height="1.66" width="2.13" y="39.1" x="222.83" class="cls-4"/><rect height="1.93" width="2.13" y="48.28" x="222.83" class="cls-4"/><rect height="2" width="2.13" y="57.73" x="222.83" class="cls-4"/><rect height="1.93" width="2.13" y="67.25" x="222.83" class="cls-4"/><rect height="1.93" width="2.13" y="76.7" x="222.83" class="cls-4"/><polyline points="224.5 88.08 222.83 88.08 222.83 86.22 224.7 86.22" class="cls-4"/><polyline points="224.76 97.6 222.83 97.6 222.83 95.61 224.5 95.61" class="cls-4"/><polyline points="224.76 107.25 222.83 107.25 222.83 105.12 224.76 105.12" class="cls-4"/><rect height="1.73" width="2.13" y="114.84" x="222.83" class="cls-4"/><line y2="105.12" x2="212.45" y1="107.25" x1="212.45" class="cls-4"/><line y2="86.22" x2="212.45" y1="88.08" x1="212.45" class="cls-4"/><line y2="67.25" x2="212.45" y1="69.18" x1="212.45" class="cls-4"/><line y2="48.28" x2="212.45" y1="50.21" x1="212.45" class="cls-4"/><line y2="39.1" x2="212.45" y1="40.76" x1="212.45" class="cls-4"/><line y2="57.73" x2="212.45" y1="59.73" x1="212.45" class="cls-4"/><line y2="76.7" x2="212.45" y1="78.63" x1="212.45" class="cls-4"/><line y2="95.61" x2="212.45" y1="97.6" x1="212.45" class="cls-4"/><polyline points="212.45 114.84 212.45 116.51 212.45 116.57" class="cls-4"/><rect height="1.66" width="2.06" y="39.1" x="302.5" class="cls-4"/><rect height="1.93" width="2.06" y="48.28" x="302.5" class="cls-4"/><rect height="2" width="2.06" y="57.73" x="302.5" class="cls-4"/><rect height="1.93" width="2.06" y="67.25" x="302.5" class="cls-4"/><rect height="1.93" width="2.06" y="76.7" x="302.5" class="cls-4"/><rect height="1.86" width="2.06" y="86.22" x="302.5" class="cls-4"/><rect height="1.86" width="2.06" y="114.78" x="302.5" class="cls-4"/><line y2="39.1" x2="292.12" y1="40.76" x1="292.12" class="cls-4"/><line y2="57.73" x2="292.12" y1="59.73" x1="292.12" class="cls-4"/><line y2="76.7" x2="292.12" y1="78.63" x1="292.12" class="cls-4"/><polyline points="292.12 116.64 292.12 116.57 292.12 114.84 292.12 114.78" class="cls-4"/><line y2="86.22" x2="292.12" y1="88.08" x1="292.12" class="cls-4"/><line y2="67.25" x2="292.12" y1="69.18" x1="292.12" class="cls-4"/><line y2="48.28" x2="292.12" y1="50.21" x1="292.12" class="cls-4"/><rect height="1.66" width="2.13" y="39.1" x="382.11" class="cls-4"/><rect height="1.93" width="2.13" y="48.28" x="382.11" class="cls-4"/><rect height="2" width="2.13" y="57.73" x="382.11" class="cls-4"/><rect height="1.93" width="2.13" y="67.25" x="382.11" class="cls-4"/><rect height="1.93" width="2.13" y="76.7" x="382.11" class="cls-4"/><rect height="1.86" width="2.13" y="86.22" x="382.11" class="cls-4"/><rect height="1.86" width="2.13" y="114.78" x="382.11" class="cls-4"/><line y2="86.22" x2="371.79" y1="88.08" x1="371.79" class="cls-4"/><line y2="67.25" x2="371.79" y1="69.18" x1="371.79" class="cls-4"/><line y2="48.28" x2="371.79" y1="50.21" x1="371.79" class="cls-4"/><line y2="39.1" x2="371.79" y1="40.76" x1="371.79" class="cls-4"/><line y2="57.73" x2="371.79" y1="59.73" x1="371.79" class="cls-4"/><line y2="76.7" x2="371.79" y1="78.63" x1="371.79" class="cls-4"/><polyline points="371.79 116.64 371.79 116.57 371.79 114.84 371.79 114.78" class="cls-4"/><path d="M224.96,88.08v26.69h139.18v-1.46c0-.27.2-.47.4-.47h13.18c.2,0,.4.2.4.47v1.46h17.51v-26.69h-170.66Z" class="cls-1"/><path d="M378.12,88.15v1.46c0,.2-.2.4-.4.4h-13.18c-.2,0-.4-.2-.4-.4v-1.46h13.98Z" class="cls-1"/><path d="M7.48,81.07h.65v1.92l1.54.25c-.09-.1-.16-.22-.21-.36-.05-.14-.07-.29-.07-.46,0-.25.04-.47.13-.68.08-.21.2-.38.35-.53.15-.15.33-.27.54-.35.21-.08.44-.12.69-.12s.48.04.7.13c.21.09.4.21.55.36.15.16.27.34.36.56.08.21.13.45.13.71,0,.2-.03.39-.08.58s-.13.35-.23.5c-.1.15-.22.28-.36.39-.14.11-.3.19-.48.24l-.31-.63c.24-.07.43-.19.56-.39.14-.19.21-.42.21-.67,0-.15-.03-.29-.08-.41-.05-.13-.12-.23-.21-.33-.09-.09-.2-.16-.33-.21-.13-.05-.27-.08-.43-.08s-.3.03-.44.08c-.13.05-.25.13-.34.22s-.17.21-.22.34c-.05.13-.08.28-.08.44,0,.18.04.35.1.49.07.14.17.26.31.36l-.15.62-2.79-.47v-2.52Z"/><path d="M12.76,79.67l-4.62-1.78v2.69h-.67v-3.5h.59l4.7,1.77v.83Z"/><path d="M12.64,75.58c-.12.24-.29.44-.51.61-.22.17-.5.3-.82.39s-.69.14-1.09.14-.8-.05-1.15-.15c-.35-.1-.64-.24-.89-.43-.25-.18-.43-.41-.56-.67-.13-.26-.2-.55-.2-.88,0-.37.09-.7.27-.97.18-.27.43-.47.76-.59l.29.64c-.21.07-.37.18-.48.34-.11.16-.17.35-.17.56,0,.2.05.38.14.55s.23.31.4.44c.17.13.37.22.61.29s.49.1.77.1h.17c.06,0,.1,0,.15,0-.25-.08-.45-.23-.59-.45-.14-.22-.21-.48-.21-.79,0-.24.04-.46.12-.65.08-.2.19-.36.34-.5.15-.14.32-.25.52-.33.2-.08.42-.12.66-.12s.47.04.68.13c.21.08.38.2.53.35.14.15.26.32.34.53s.12.43.12.68c0,.3-.06.57-.18.81ZM12.07,74.41c-.05-.12-.12-.22-.21-.3-.09-.08-.19-.15-.31-.2-.12-.05-.26-.07-.41-.07s-.29.02-.41.07c-.12.05-.23.12-.32.2s-.16.19-.21.31-.07.25-.07.4.02.27.07.39.12.22.2.31c.09.09.19.15.31.2.12.05.25.07.4.07s.28-.03.41-.08.24-.12.34-.21.17-.2.22-.32c.05-.12.08-.26.08-.4s-.03-.26-.08-.38Z"/><path d="M9.12,69.41h.67c-.24-.11-.42-.26-.54-.45-.12-.18-.18-.4-.18-.63,0-.26.07-.48.2-.67.14-.19.33-.32.59-.41-.26-.11-.45-.27-.59-.46-.14-.2-.2-.43-.2-.7,0-.38.12-.67.37-.88.25-.21.61-.31,1.07-.31h2.25v.7h-2.16c-.29,0-.52.07-.69.2-.17.13-.25.31-.25.54,0,.12.02.22.07.32.05.1.11.18.2.26.09.07.19.13.32.16.12.04.26.06.4.06h2.11v.7h-2.16c-.14,0-.27.02-.38.06-.12.04-.22.09-.3.15-.08.06-.14.14-.19.23-.04.09-.07.2-.07.31s.02.22.07.32c.05.1.12.18.21.25.09.07.2.12.32.17.12.04.26.06.41.06h2.09v.7h-3.64v-.68Z"/><path d="M9.12,63.23h.67c-.24-.11-.42-.26-.54-.45-.12-.18-.18-.4-.18-.63,0-.26.07-.48.2-.67.14-.19.33-.32.59-.41-.26-.11-.45-.27-.59-.46-.14-.2-.2-.43-.2-.7,0-.38.12-.67.37-.88.25-.21.61-.31,1.07-.31h2.25v.7h-2.16c-.29,0-.52.07-.69.2-.17.13-.25.31-.25.54,0,.12.02.22.07.32.05.1.11.18.2.26.09.07.19.13.32.16.12.04.26.06.4.06h2.11v.7h-2.16c-.14,0-.27.02-.38.06-.12.04-.22.09-.3.15-.08.06-.14.14-.19.23-.04.09-.07.2-.07.31s.02.22.07.32c.05.1.12.18.21.25.09.07.2.12.32.17.12.04.26.06.41.06h2.09v.7h-3.64v-.68Z"/><line y2="17.26" x2="16.69" y1="125.44" x1="16.69" class="cls-4"/><rect height=".3" width="1.95" y="125.29" x="15.71" class="cls-5"/><rect height=".3" width="1.95" y="17.11" x="15.71" class="cls-5"/><line y2="9.59" x2="395.44" y1="9.59" x1="40.07" class="cls-4"/><rect height="1.95" width=".3" y="8.61" x="39.92" class="cls-5"/><rect height="1.95" width=".3" y="8.61" x="395.29" class="cls-5"/><path d="M12.71,222.06c-.07.22-.17.4-.31.56-.13.15-.29.28-.47.36s-.38.13-.6.13c-.16,0-.31-.02-.45-.07-.15-.05-.28-.11-.4-.2-.12-.09-.22-.19-.3-.31s-.14-.25-.18-.4c-.05.14-.12.25-.2.36-.08.1-.17.19-.27.27s-.21.13-.33.17c-.12.04-.25.06-.38.06-.21,0-.39-.04-.56-.12-.17-.08-.32-.2-.44-.34-.13-.14-.22-.32-.29-.52-.07-.2-.1-.42-.1-.66s.03-.46.1-.66c.07-.2.17-.37.29-.52.12-.15.27-.26.44-.35.17-.08.36-.13.57-.13.13,0,.26.02.38.06.12.04.24.1.34.17.1.07.19.16.27.27.08.1.14.22.19.35.04-.15.1-.28.18-.4s.19-.22.31-.3c.12-.08.25-.15.4-.2.14-.05.29-.07.45-.07.21,0,.41.04.6.13.18.09.34.21.47.36.13.15.24.34.31.56.07.22.11.46.11.72s-.04.5-.11.72ZM8.15,221.69c.04.11.09.2.16.28.07.08.15.14.26.18s.21.07.33.07c.11,0,.22-.02.32-.07.1-.04.19-.11.26-.19.07-.08.13-.17.17-.28s.06-.23.06-.35-.02-.25-.06-.35c-.04-.1-.1-.2-.17-.28s-.16-.14-.26-.19c-.1-.04-.21-.07-.32-.07-.12,0-.23.02-.33.07-.1.04-.19.11-.26.19-.07.08-.12.17-.16.28-.04.11-.06.23-.06.36s.02.24.06.35ZM12.08,220.92c-.04-.13-.11-.23-.19-.32-.08-.09-.18-.16-.29-.21-.11-.05-.24-.08-.37-.08s-.26.03-.37.08c-.11.05-.21.12-.29.21-.08.09-.15.2-.2.33-.05.13-.07.26-.07.41s.02.28.07.41c.04.13.11.23.19.33s.18.16.3.21c.11.05.24.07.37.07.14,0,.27-.02.38-.07.11-.05.21-.12.29-.21.08-.09.14-.2.19-.33.04-.13.07-.26.07-.41s-.02-.29-.07-.41Z"/><path d="M7.48,217.02h5.29v.72h-4.54l.64,1.3h-.73l-.67-1.36v-.67Z"/><path d="M12.71,215.14c-.07.22-.17.4-.31.56-.13.15-.29.28-.47.36s-.38.13-.6.13c-.16,0-.31-.02-.45-.07-.15-.05-.28-.11-.4-.2-.12-.09-.22-.19-.3-.31s-.14-.25-.18-.4c-.05.14-.12.25-.2.36-.08.1-.17.19-.27.27s-.21.13-.33.17c-.12.04-.25.06-.38.06-.21,0-.39-.04-.56-.12-.17-.08-.32-.2-.44-.34-.13-.14-.22-.32-.29-.52-.07-.2-.1-.42-.1-.66s.03-.46.1-.66c.07-.2.17-.37.29-.52.12-.15.27-.26.44-.35.17-.08.36-.13.57-.13.13,0,.26.02.38.06.12.04.24.1.34.17.1.07.19.16.27.27.08.1.14.22.19.35.04-.15.1-.28.18-.4s.19-.22.31-.3c.12-.08.25-.15.4-.2.14-.05.29-.07.45-.07.21,0,.41.04.6.13.18.09.34.21.47.36.13.15.24.34.31.56.07.22.11.46.11.72s-.04.5-.11.72ZM8.15,214.77c.04.11.09.2.16.28.07.08.15.14.26.18s.21.07.33.07c.11,0,.22-.02.32-.07.1-.04.19-.11.26-.19.07-.08.13-.17.17-.28s.06-.23.06-.35-.02-.25-.06-.35c-.04-.1-.1-.2-.17-.28s-.16-.14-.26-.19c-.1-.04-.21-.07-.32-.07-.12,0-.23.02-.33.07-.1.04-.19.11-.26.19-.07.08-.12.17-.16.28-.04.11-.06.23-.06.36s.02.24.06.35ZM12.08,214c-.04-.13-.11-.23-.19-.32-.08-.09-.18-.16-.29-.21-.11-.05-.24-.08-.37-.08s-.26.03-.37.08c-.11.05-.21.12-.29.21-.08.09-.15.2-.2.33-.05.13-.07.26-.07.41s.02.28.07.41c.04.13.11.23.19.33s.18.16.3.21c.11.05.24.07.37.07.14,0,.27-.02.38-.07.11-.05.21-.12.29-.21.08-.09.14-.2.19-.33.04-.13.07-.26.07-.41s-.02-.29-.07-.41Z"/><path d="M9.12,209.03h.67c-.24-.11-.42-.26-.54-.45-.12-.18-.18-.4-.18-.63,0-.26.07-.48.2-.67.14-.19.33-.32.59-.41-.26-.11-.45-.27-.59-.46-.14-.2-.2-.43-.2-.7,0-.38.12-.67.37-.88.25-.21.61-.31,1.07-.31h2.25v.7h-2.16c-.29,0-.52.07-.69.2-.17.13-.25.31-.25.54,0,.12.02.22.07.32.05.1.11.18.2.26.09.07.19.13.32.16.12.04.26.06.4.06h2.11v.7h-2.16c-.14,0-.27.02-.38.06-.12.04-.22.09-.3.15-.08.06-.14.14-.19.23-.04.09-.07.2-.07.31s.02.22.07.32c.05.1.12.18.21.25.09.07.2.12.32.17.12.04.26.06.41.06h2.09v.7h-3.64v-.68Z"/><path d="M9.12,202.85h.67c-.24-.11-.42-.26-.54-.45-.12-.18-.18-.4-.18-.63,0-.26.07-.48.2-.67.14-.19.33-.32.59-.41-.26-.11-.45-.27-.59-.46-.14-.2-.2-.43-.2-.7,0-.38.12-.67.37-.88.25-.21.61-.31,1.07-.31h2.25v.7h-2.16c-.29,0-.52.07-.69.2-.17.13-.25.31-.25.54,0,.12.02.22.07.32.05.1.11.18.2.26.09.07.19.13.32.16.12.04.26.06.4.06h2.11v.7h-2.16c-.14,0-.27.02-.38.06-.12.04-.22.09-.3.15-.08.06-.14.14-.19.23-.04.09-.07.2-.07.31s.02.22.07.32c.05.1.12.18.21.25.09.07.2.12.32.17.12.04.26.06.41.06h2.09v.7h-3.64v-.68Z"/><line y2="133.75" x2="16.69" y1="287.5" x1="16.69" class="cls-4"/><rect height=".3" width="1.95" y="287.35" x="15.71" class="cls-5"/><rect height=".3" width="1.95" y="133.6" x="15.71" class="cls-5"/><path d="M206.1.51v5.18h-.71V1.89c0-.07,0-.13-.02-.19-.01-.05-.03-.09-.05-.12-.03-.03-.06-.06-.1-.07-.04-.02-.09-.02-.15-.02-.06,0-.12,0-.18.03-.06.02-.13.05-.2.08l-.57.28v-.71l1.33-.65h.65Z" class="cls-5"/><path d="M209.38.63c.23.12.43.28.6.5s.3.49.38.81c.09.32.13.67.13,1.06,0,.42-.05.79-.15,1.13-.1.34-.24.63-.42.87-.18.24-.4.42-.66.55-.26.13-.54.19-.86.19-.37,0-.68-.09-.95-.26-.27-.17-.46-.42-.58-.75l.62-.29c.06.21.18.37.34.48.16.11.35.16.57.16.18,0,.34-.04.49-.12.15-.08.28-.19.4-.33.11-.14.2-.32.26-.51s.09-.41.09-.63c0-.06-.01-.12-.03-.15-.02-.04-.05-.06-.1-.05-.01,0-.03,0-.04,0s-.02,0-.03.01-.02.01-.04.02-.03.02-.04.04c-.12.11-.25.19-.38.25-.14.05-.29.08-.45.08-.23,0-.45-.04-.64-.12s-.36-.19-.5-.33c-.14-.14-.25-.31-.33-.51s-.12-.41-.12-.64.04-.46.12-.67.2-.37.34-.52c.14-.14.32-.25.52-.33.2-.08.42-.12.66-.12.29,0,.56.06.79.17ZM208.23,1.19c-.12.05-.22.12-.3.21-.08.09-.15.19-.19.31-.05.12-.07.25-.07.4s.02.27.07.4c.05.12.11.23.2.32.08.09.19.16.3.21.12.05.25.07.39.07s.26-.02.38-.07c.12-.05.22-.11.3-.2s.15-.19.2-.3c.05-.12.07-.25.07-.39s-.03-.28-.08-.4c-.05-.13-.12-.24-.21-.33s-.19-.17-.31-.22c-.12-.05-.25-.08-.39-.08s-.26.03-.37.08Z" class="cls-5"/><path d="M213.81.65c.24.13.46.31.63.54.18.23.31.51.41.83.1.32.15.68.15,1.06s-.05.75-.15,1.07c-.1.33-.24.61-.42.84-.18.24-.39.42-.63.55-.24.13-.51.2-.81.2s-.56-.07-.81-.2c-.25-.13-.46-.31-.64-.55-.18-.24-.31-.52-.41-.84-.1-.33-.15-.69-.15-1.07s.05-.74.15-1.06c.1-.33.24-.6.41-.83.18-.23.39-.41.63-.54.24-.13.52-.19.81-.19s.57.07.81.2ZM212.49,1.27c-.15.1-.29.23-.4.4-.11.17-.2.38-.26.61-.06.24-.1.5-.1.79s.03.56.09.81c.06.25.15.46.26.63.11.18.25.31.41.41.16.1.32.15.51.15s.36-.05.51-.15c.16-.1.29-.24.4-.41.11-.18.2-.39.26-.63.06-.24.09-.51.09-.8s-.03-.55-.09-.79c-.06-.24-.15-.45-.26-.62-.11-.17-.24-.3-.4-.4-.16-.1-.33-.14-.52-.14s-.36.05-.51.14Z" class="cls-5"/><path d="M218.32.65c.24.13.46.31.63.54.18.23.31.51.41.83.1.32.15.68.15,1.06s-.05.75-.15,1.07c-.1.33-.24.61-.42.84-.18.24-.39.42-.63.55-.24.13-.51.2-.81.2s-.56-.07-.81-.2c-.25-.13-.46-.31-.64-.55-.18-.24-.31-.52-.41-.84-.1-.33-.15-.69-.15-1.07s.05-.74.15-1.06c.1-.33.24-.6.41-.83.18-.23.39-.41.63-.54.24-.13.52-.19.81-.19s.57.07.81.2ZM217,1.27c-.15.1-.29.23-.4.4-.11.17-.2.38-.26.61-.06.24-.1.5-.1.79s.03.56.09.81c.06.25.15.46.26.63.11.18.25.31.41.41.16.1.32.15.51.15s.36-.05.51-.15c.16-.1.29-.24.4-.41.11-.18.2-.39.26-.63.06-.24.09-.51.09-.8s-.03-.55-.09-.79c-.06-.24-.15-.45-.26-.62-.11-.17-.24-.3-.4-.4-.16-.1-.33-.14-.52-.14s-.36.05-.51.14Z" class="cls-5"/><path d="M222.98,2.12v.14c0,.06.01.11.03.13.02.02.05.03.09.03.02,0,.04,0,.05,0,.02,0,.03,0,.05-.02.02,0,.04-.02.06-.03s.04-.03.06-.05c.11-.09.22-.15.34-.19.12-.04.25-.06.4-.06.17,0,.31.03.45.08.13.06.25.14.36.27.05.05.09.09.13.11.04.02.08.03.13.03.02,0,.04,0,.06,0,.02,0,.04-.01.05-.02s.04-.02.06-.04.05-.04.07-.06c.11-.12.24-.21.39-.27.15-.06.31-.09.48-.09.37,0,.65.12.85.37.2.25.31.59.31,1.04v2.21h-.69v-2.12c0-.28-.07-.51-.2-.67-.13-.16-.31-.25-.53-.25-.11,0-.22.02-.32.07-.1.05-.18.11-.25.2s-.12.19-.16.31c-.04.12-.06.25-.06.39v2.07h-.69v-2.12c0-.14-.02-.26-.06-.38-.04-.11-.09-.21-.15-.29-.06-.08-.14-.14-.23-.19-.09-.04-.19-.07-.31-.07s-.21.02-.31.07c-.1.05-.18.11-.25.2s-.12.19-.16.32c-.04.12-.06.25-.06.4v2.05h-.69v-3.57h.65Z" class="cls-5"/><path d="M229,2.12v.14c0,.06.01.11.03.13.02.02.05.03.09.03.02,0,.04,0,.05,0,.02,0,.03,0,.05-.02.02,0,.04-.02.06-.03s.04-.03.06-.05c.11-.09.22-.15.34-.19.12-.04.25-.06.4-.06.17,0,.31.03.45.08.13.06.25.14.36.27.05.05.09.09.13.11.04.02.08.03.13.03.02,0,.04,0,.06,0,.02,0,.04-.01.05-.02s.04-.02.06-.04.05-.04.07-.06c.11-.12.24-.21.39-.27.15-.06.31-.09.48-.09.37,0,.65.12.85.37.2.25.31.59.31,1.04v2.21h-.69v-2.12c0-.28-.07-.51-.2-.67-.13-.16-.31-.25-.53-.25-.11,0-.22.02-.32.07-.1.05-.18.11-.25.2s-.12.19-.16.31c-.04.12-.06.25-.06.39v2.07h-.69v-2.12c0-.14-.02-.26-.06-.38-.04-.11-.09-.21-.15-.29-.06-.08-.14-.14-.23-.19-.09-.04-.19-.07-.31-.07s-.21.02-.31.07c-.1.05-.18.11-.25.2s-.12.19-.16.32c-.04.12-.06.25-.06.4v2.05h-.69v-3.57h.65Z" class="cls-5"/></g></g></svg>