<svg viewBox="0 0 531.27 288" xmlns:xlink="http://www.w3.org/1999/xlink" xmlns="http://www.w3.org/2000/svg" id="Camada_2"><defs><style>.cls-1,.cls-2,.cls-3{fill:none;}.cls-4,.cls-5{fill:#12100c;}.cls-2,.cls-3{stroke:#12100c;stroke-linecap:round;stroke-linejoin:round;stroke-width:.3px;}.cls-5,.cls-3{fill-rule:evenodd;}</style><symbol viewBox="0 0 531.27 288" id="fundo_transparente"><rect height="288" width="531.27" x="0" class="cls-1"/></symbol></defs><g id="Nature"><g id="Centros_Cyclin_Portugal"><g id="painel_de_homologação_700_x_700"><use xlink:href="#fundo_transparente" height="288" width="531.27"/><g id="MTEXT"><path d="M74.54,103.62l1.78-4.62h-2.69v-.67h3.5v.59l-1.77,4.7h-.83Z"/><path d="M80.37,98.47c.25.13.47.32.65.55.18.23.32.52.42.85.1.33.15.69.15,1.08s-.05.76-.15,1.1-.24.62-.42.86c-.18.24-.4.43-.65.56-.25.13-.52.2-.83.2s-.57-.07-.82-.2-.47-.32-.65-.56c-.18-.24-.32-.53-.42-.86-.1-.33-.15-.7-.15-1.1s.05-.75.15-1.08c.1-.33.24-.61.42-.85.18-.24.4-.42.65-.55.25-.13.53-.2.83-.2s.58.07.83.2ZM79.01,99.11c-.16.1-.29.23-.41.41-.11.18-.2.38-.27.63-.07.24-.1.51-.1.81s.03.57.09.82c.06.25.15.46.27.64.12.18.25.32.41.42.16.1.33.15.52.15s.37-.05.53-.15c.16-.1.3-.24.41-.42.11-.18.2-.39.27-.64.06-.25.09-.52.09-.82s-.03-.56-.09-.81c-.06-.25-.15-.46-.26-.63-.11-.17-.25-.31-.41-.41-.16-.1-.34-.15-.53-.15s-.37.05-.52.15Z"/><path d="M85,98.47c.25.13.47.32.65.55.18.23.32.52.42.85.1.33.15.69.15,1.08s-.05.76-.15,1.1-.24.62-.42.86c-.18.24-.4.43-.65.56-.25.13-.52.2-.83.2s-.57-.07-.82-.2-.47-.32-.65-.56c-.18-.24-.32-.53-.42-.86-.1-.33-.15-.7-.15-1.1s.05-.75.15-1.08c.1-.33.24-.61.42-.85.18-.24.4-.42.65-.55.25-.13.53-.2.83-.2s.58.07.83.2ZM83.65,99.11c-.16.1-.29.23-.41.41-.11.18-.2.38-.27.63-.07.24-.1.51-.1.81s.03.57.09.82c.06.25.15.46.27.64.12.18.25.32.41.42.16.1.33.15.52.15s.37-.05.53-.15c.16-.1.3-.24.41-.42.11-.18.2-.39.27-.64.06-.25.09-.52.09-.82s-.03-.56-.09-.81c-.06-.25-.15-.46-.26-.63-.11-.17-.25-.31-.41-.41-.16-.1-.34-.15-.53-.15s-.37.05-.52.15Z"/><path d="M89.83,99.98v.67c.11-.24.26-.42.45-.54.18-.12.4-.18.63-.18.26,0,.48.07.67.2.19.14.32.33.41.59.11-.26.27-.45.46-.59.2-.14.43-.2.7-.2.38,0,.67.12.88.37.21.25.31.61.31,1.07v2.25h-.7v-2.16c0-.29-.07-.52-.2-.69-.13-.17-.31-.25-.54-.25-.12,0-.22.02-.32.07-.1.05-.18.11-.26.2-.07.09-.13.19-.16.32-.04.12-.06.26-.06.4v2.11h-.7v-2.16c0-.14-.02-.27-.06-.38-.04-.12-.09-.22-.15-.3-.06-.08-.14-.14-.23-.19-.09-.04-.2-.07-.31-.07s-.22.02-.32.07c-.1.05-.18.12-.25.21-.07.09-.12.2-.17.32-.04.12-.06.26-.06.41v2.09h-.7v-3.64h.68Z"/><path d="M96.01,99.98v.67c.11-.24.26-.42.45-.54.18-.12.4-.18.63-.18.26,0,.48.07.67.2.19.14.32.33.41.59.11-.26.27-.45.46-.59.2-.14.43-.2.7-.2.38,0,.67.12.88.37.21.25.31.61.31,1.07v2.25h-.7v-2.16c0-.29-.07-.52-.2-.69-.13-.17-.31-.25-.54-.25-.12,0-.22.02-.32.07-.1.05-.18.11-.26.2-.07.09-.13.19-.16.32-.04.12-.06.26-.06.4v2.11h-.7v-2.16c0-.14-.02-.27-.06-.38-.04-.12-.09-.22-.15-.3-.06-.08-.14-.14-.23-.19-.09-.04-.2-.07-.31-.07s-.22.02-.32.07c-.1.05-.18.12-.25.21-.07.09-.12.2-.17.32-.04.12-.06.26-.06.41v2.09h-.7v-3.64h.68Z"/></g><g id="LINE"><line y2="108.37" x2="146.37" y1="108.37" x1="28.15" class="cls-2"/><rect height="1.95" width=".3" y="107.4" x="28" class="cls-4"/><rect height="1.95" width=".3" y="107.4" x="146.22" class="cls-4"/></g><g id="MTEXT-2"><path d="M9.07,238.06l-4.62-1.78v2.69h-.67v-3.5h.59l4.7,1.77v.83Z"/><path d="M3.93,232.23c.13-.25.32-.47.55-.65.23-.18.52-.32.85-.42.33-.1.69-.15,1.08-.15s.76.05,1.1.15.62.24.86.42c.24.18.43.4.56.65.13.25.2.52.2.83s-.07.57-.2.82-.32.47-.56.65c-.24.18-.53.32-.86.42-.33.1-.7.15-1.1.15s-.75-.05-1.08-.15c-.33-.1-.61-.24-.85-.42-.24-.18-.42-.4-.55-.65-.13-.25-.2-.53-.2-.83s.07-.58.2-.83ZM4.56,233.59c.1.16.23.29.41.41.18.11.38.2.63.27.24.07.51.1.81.1s.57-.03.82-.09c.25-.06.46-.15.64-.27.18-.12.32-.25.42-.41.1-.16.15-.33.15-.52s-.05-.37-.15-.53c-.1-.16-.24-.3-.42-.41-.18-.11-.39-.2-.64-.27-.25-.06-.52-.09-.82-.09s-.56.03-.81.09c-.25.06-.46.15-.63.26-.17.11-.31.25-.41.41-.1.16-.15.34-.15.53s.05.37.15.52Z"/><path d="M3.93,227.6c.13-.25.32-.47.55-.65.23-.18.52-.32.85-.42.33-.1.69-.15,1.08-.15s.76.05,1.1.15.62.24.86.42c.24.18.43.4.56.65.13.25.2.52.2.83s-.07.57-.2.82-.32.47-.56.65c-.24.18-.53.32-.86.42-.33.1-.7.15-1.1.15s-.75-.05-1.08-.15c-.33-.1-.61-.24-.85-.42-.24-.18-.42-.4-.55-.65-.13-.25-.2-.53-.2-.83s.07-.58.2-.83ZM4.56,228.95c.1.16.23.29.41.41.18.11.38.2.63.27.24.07.51.1.81.1s.57-.03.82-.09c.25-.06.46-.15.64-.27.18-.12.32-.25.42-.41.1-.16.15-.33.15-.52s-.05-.37-.15-.53c-.1-.16-.24-.3-.42-.41-.18-.11-.39-.2-.64-.27-.25-.06-.52-.09-.82-.09s-.56.03-.81.09c-.25.06-.46.15-.63.26-.17.11-.31.25-.41.41-.1.16-.15.34-.15.53s.05.37.15.52Z"/><path d="M5.43,222.77h.67c-.24-.11-.42-.26-.54-.45-.12-.18-.18-.4-.18-.63,0-.26.07-.48.2-.67.14-.19.33-.32.59-.41-.26-.11-.45-.27-.59-.46-.14-.2-.2-.43-.2-.7,0-.38.12-.67.37-.88.25-.21.61-.31,1.07-.31h2.25v.7h-2.16c-.29,0-.52.07-.69.2-.17.13-.25.31-.25.54,0,.12.02.22.07.32.05.1.11.18.2.26.09.07.19.13.32.16.12.04.26.06.4.06h2.11v.7h-2.16c-.14,0-.27.02-.38.06-.12.04-.22.09-.3.15-.08.06-.14.14-.19.23-.04.09-.07.2-.07.31s.02.22.07.32c.05.1.12.18.21.25.09.07.2.12.32.17.12.04.26.06.41.06h2.09v.7h-3.64v-.68Z"/><path d="M5.43,216.59h.67c-.24-.11-.42-.26-.54-.45-.12-.18-.18-.4-.18-.63,0-.26.07-.48.2-.67.14-.19.33-.32.59-.41-.26-.11-.45-.27-.59-.46-.14-.2-.2-.43-.2-.7,0-.38.12-.67.37-.88.25-.21.61-.31,1.07-.31h2.25v.7h-2.16c-.29,0-.52.07-.69.2-.17.13-.25.31-.25.54,0,.12.02.22.07.32.05.1.11.18.2.26.09.07.19.13.32.16.12.04.26.06.4.06h2.11v.7h-2.16c-.14,0-.27.02-.38.06-.12.04-.22.09-.3.15-.08.06-.14.14-.19.23-.04.09-.07.2-.07.31s.02.22.07.32c.05.1.12.18.21.25.09.07.2.12.32.17.12.04.26.06.41.06h2.09v.7h-3.64v-.68Z"/></g><g id="LINE-2"><line y2="284.45" x2="13.83" y1="166.23" x1="13.83" class="cls-2"/><rect height=".3" width="1.95" y="166.08" x="12.85" class="cls-4"/><rect height=".3" width="1.95" y="284.3" x="12.85" class="cls-4"/></g><g id="LINE-3"><line y2="123.75" x2="13.83" y1="122.36" x1="13.83" class="cls-2"/><rect height=".3" width="1.95" y="122.21" x="12.85" class="cls-4"/><rect height=".3" width="1.95" y="123.6" x="12.85" class="cls-4"/></g><g id="MTEXT-3"><path d="M8.95,131.01c-.12.24-.29.44-.51.61-.22.17-.5.3-.82.39s-.69.14-1.09.14-.8-.05-1.15-.15c-.35-.1-.64-.24-.89-.43-.25-.18-.43-.41-.56-.67-.13-.26-.2-.55-.2-.88,0-.37.09-.7.27-.97.18-.27.43-.47.76-.59l.29.64c-.21.07-.37.18-.48.34-.11.16-.17.35-.17.56,0,.2.05.38.14.55s.23.31.4.44c.17.13.37.22.61.29s.49.1.77.1h.17c.06,0,.1,0,.15,0-.25-.08-.45-.23-.59-.45-.14-.22-.21-.48-.21-.79,0-.24.04-.46.12-.65.08-.2.19-.36.34-.5.15-.14.32-.25.52-.33.2-.08.42-.12.66-.12s.47.04.68.13c.21.08.38.2.53.35.14.15.26.32.34.53s.12.43.12.68c0,.3-.06.57-.18.81ZM8.38,129.85c-.05-.12-.12-.22-.21-.3-.09-.08-.19-.15-.31-.2-.12-.05-.26-.07-.41-.07s-.29.02-.41.07c-.12.05-.23.12-.32.2s-.16.19-.21.31-.07.25-.07.4.02.27.07.39.12.22.2.31c.09.09.19.15.31.2.12.05.25.07.4.07s.28-.03.41-.08.24-.12.34-.21.17-.2.22-.32c.05-.12.08-.26.08-.4s-.03-.26-.08-.38Z"/><path d="M5.43,124.85h.67c-.24-.11-.42-.26-.54-.45-.12-.18-.18-.4-.18-.63,0-.26.07-.48.2-.67.14-.19.33-.32.59-.41-.26-.11-.45-.27-.59-.46-.14-.2-.2-.43-.2-.7,0-.38.12-.67.37-.88.25-.21.61-.31,1.07-.31h2.25v.7h-2.16c-.29,0-.52.07-.69.2-.17.13-.25.31-.25.54,0,.12.02.22.07.32.05.1.11.18.2.26.09.07.19.13.32.16.12.04.26.06.4.06h2.11v.7h-2.16c-.14,0-.27.02-.38.06-.12.04-.22.09-.3.15-.08.06-.14.14-.19.23-.04.09-.07.2-.07.31s.02.22.07.32c.05.1.12.18.21.25.09.07.2.12.32.17.12.04.26.06.41.06h2.09v.7h-3.64v-.68Z"/><path d="M5.43,118.67h.67c-.24-.11-.42-.26-.54-.45-.12-.18-.18-.4-.18-.63,0-.26.07-.48.2-.67.14-.19.33-.32.59-.41-.26-.11-.45-.27-.59-.46-.14-.2-.2-.43-.2-.7,0-.38.12-.67.37-.88.25-.21.61-.31,1.07-.31h2.25v.7h-2.16c-.29,0-.52.07-.69.2-.17.13-.25.31-.25.54,0,.12.02.22.07.32.05.1.11.18.2.26.09.07.19.13.32.16.12.04.26.06.4.06h2.11v.7h-2.16c-.14,0-.27.02-.38.06-.12.04-.22.09-.3.15-.08.06-.14.14-.19.23-.04.09-.07.2-.07.31s.02.22.07.32c.05.1.12.18.21.25.09.07.2.12.32.17.12.04.26.06.41.06h2.09v.7h-3.64v-.68Z"/></g><path d="M44.8,166.08h84.92c9.24,0,16.8,7.56,16.8,16.8v84.92c0,9.24-7.56,16.8-16.8,16.8H44.8c-9.24,0-16.8-7.56-16.8-16.8v-84.92c0-9.24,7.56-16.8,16.8-16.8" class="cls-3"/><path d="M108.78,183.01c8.15,0,15.52,3.32,20.86,8.68,5.34,5.36,8.64,12.77,8.64,20.95s-3.3,15.59-8.64,20.95c-5.34,5.36-12.71,8.68-20.86,8.68h-42.58c-8.15,0-15.52-3.32-20.86-8.68-5.34-5.36-8.64-12.77-8.64-20.95s3.3-15.59,8.64-20.95c5.34-5.36,12.71-8.68,20.86-8.68h42.58Z" class="cls-3"/><path d="M59.21,207.94l.8-5.33c.38-2.53,1.73-3.58,4.04-3.58,3.17,0,3.68,1.13,3.45,4.14l-2.58.18c.19-1.67.27-2.23-.95-2.23-.85,0-1.29.42-1.46,1.57l-.8,5.45c-.19,1.15-.02,1.63,1.04,1.63,1.14,0,1.29-.4,1.65-2.39l2.43.42c-.53,2.41-1.29,4-4.21,4-2.69,0-3.78-1.17-3.4-3.86" class="cls-2"/><polygon points="70.04 207.4 68.6 199.14 71.12 199.14 71.81 203.94 73.99 199.14 76.47 199.14 72.53 207.44 71.9 211.73 69.4 211.73 70.04 207.4" class="cls-2"/><path d="M75.77,207.94l.8-5.33c.38-2.53,1.73-3.58,4.04-3.58,3.17,0,3.68,1.13,3.45,4.14l-2.58.18c.19-1.67.27-2.23-.95-2.23-.85,0-1.29.42-1.46,1.57l-.8,5.45c-.19,1.15-.02,1.63,1.04,1.63,1.14,0,1.29-.4,1.65-2.39l2.43.42c-.53,2.41-1.29,4-4.21,4-2.69,0-3.78-1.17-3.4-3.86" class="cls-2"/><polygon points="85.98 199.14 88.48 199.14 86.91 209.65 90.4 209.65 90.08 211.73 84.12 211.73 85.98 199.14" class="cls-2"/><polygon points="94.14 199.14 96.64 199.14 94.78 211.73 92.28 211.73 94.14 199.14" class="cls-2"/><polygon points="98.41 199.14 101.44 199.14 102.39 205.39 103.32 199.14 105.71 199.14 103.85 211.73 101.4 211.73 100.04 204.14 98.92 211.73 96.55 211.73 98.41 199.14" class="cls-2"/><polygon points="107.23 201.19 107.53 199.14 110.02 199.14 109.73 201.19 108.94 204.26 107.11 204.26 107.23 201.19" class="cls-2"/><path d="M58.76,213.32h3.17c2.83,0,4.19.66,3.71,3.68l-.13.86c-.48,3.02-1.96,3.47-4.14,3.47h-1.27l-.69,4.85h-2.55l1.9-12.85ZM61.38,219.33c1.25,0,1.45-.35,1.62-1.5l.15-.99c.15-1.05.06-1.52-1.21-1.52h-.93l-.6,4h.97Z" class="cls-2"/><path d="M65.99,222.33l.82-5.46c.3-2.05,1.34-3.65,4.12-3.65,3.48,0,3.99,1.77,3.71,3.8l-.82,5.5c-.35,2.26-1.49,3.74-4.19,3.74-3.28,0-3.97-1.68-3.65-3.92M71.26,222.52l.82-5.58c.17-1.11-.15-1.58-1.14-1.58s-1.42.49-1.58,1.6l-.82,5.54c-.19,1.25.13,1.68,1.1,1.68.91,0,1.45-.43,1.62-1.66Z" class="cls-2"/><path d="M76.77,213.32h3.13c2.78,0,4.1.66,3.67,3.68l-.13.76c-.28,1.89-.95,2.69-2.01,3.06l.73,5.36h-2.57l-.69-5.07h-.76l-.73,5.07h-2.55l1.9-12.85ZM79.31,219.19c1.25,0,1.45-.35,1.62-1.5l.13-.84c.15-1.05.09-1.52-1.19-1.52h-.86l-.58,3.86h.88Z" class="cls-2"/><polygon points="87.04 215.45 84.69 215.45 85.01 213.32 92.22 213.32 91.92 215.45 89.59 215.45 87.99 226.17 85.47 226.17 87.04 215.45" class="cls-2"/><path d="M92.07,222.66l1.4-9.34h2.55l-1.36,9.18c-.19,1.25.06,1.68,1.04,1.68.91,0,1.36-.43,1.53-1.66l1.36-9.22h2.53l-1.38,9.34c-.35,2.26-1.36,3.61-4.06,3.61-3.26,0-3.93-1.38-3.6-3.59" class="cls-2"/><path d="M101.25,222.31l.82-5.44c.39-2.65,1.81-3.65,4.1-3.65,3.43,0,3.73,1.5,3.63,3.8l-2.68.23c.19-1.58.09-1.89-1.01-1.89-.99,0-1.34.57-1.49,1.6l-.82,5.56c-.19,1.13,0,1.66,1.17,1.66,1.27,0,1.42-.43,1.77-2.75l.09-.47h-1.36l.3-1.99h3.69l-1.08,7.21h-1.94l-.04-.57c-.54.45-1.21.66-2.05.66-2.46,0-3.48-1.25-3.09-3.94" class="cls-2"/><path d="M113.87,213.28h2.81l.65,12.89h-2.5l-.13-2.34h-1.99l-.78,2.34h-2.5l4.45-12.89ZM114.8,221.96v-2.96l-.02-2.05-.6,2.05-.95,2.96h1.58Z" class="cls-2"/><polygon points="120.44 213.32 122.98 213.32 121.39 224.06 124.95 224.06 124.62 226.17 118.54 226.17 120.44 213.32" class="cls-2"/><path d="M66.12,231.04c-9.9,0-18-7.86-18.37-17.67h-4.13c.37,11.83,9.91,21.38,21.73,21.79l1.07-4.03v-.09h-.29Z" class="cls-2"/><path d="M66.4,190.13h-.28c-12.37,0-22.44,10.02-22.52,22.37h4.13c.08-9.82,7.89-17.82,17.62-18.22h-.05s1.1-4.14,1.1-4.14Z" class="cls-2"/><path d="M51.06,271.28c-1.58-1-3.35-1.51-3.41-2.83.02-.25-.17-.46-.82-.68-2.24-.48-4.07-.25-5.19,1.24.84.24,1.68.48,2.51.72.06-.47.78-.37,1.6-.2,1.83.45,4.64,1.86,5.31,1.76" class="cls-5"/><path d="M48.55,268.29c.82.45,1.68.85,2.45,1.6.22.24-.09.37-.38.42-.75.16-2.02-1.69-2.08-2.02" class="cls-5"/><path d="M41.49,269.27c2.61.69,4.97,1.42,6.09,2.37.8.7.8,1.36,0,1.96-1.51,1.11-2.97,2.25-4.37,3.41-.24.16-.34.06-.18-.18.76-1.18,1.62-2.28,2.79-3.21.54-.43.34-1.02-.34-1.22-3.55-.99-5.05-1.13-3.99-3.13" class="cls-5"/><path d="M40.67,271.94c-.91.16-2.99,2.34-1.14,4.49,1.85,1.79,3.9-.42,3.91-2.21-.22.13-.47.96-1.04,1.6-.69.77-1.71,1.3-2.73.32-.81-.92-.7-2.2,1-4.19" class="cls-5"/><path d="M51.7,271.76c-.28-.6.27-.69.53-.13.17.48.32.94.37,1.37.2,1.7-.57,3.03-2.39,3.59-1.87.32-2.6-2.33-1.48-3.61-.11,1.33-.34,3.81,1.97,2.99,1.02-.36,1.92-1.72,1.39-3.31-.1-.29-.23-.58-.39-.9" class="cls-5"/><polygon points="55.78 272.43 55.03 272.43 55.03 273.24 54.61 273.24 54.61 271.25 55.86 271.25 55.86 271.64 55.03 271.64 55.03 272.05 55.78 272.05 55.78 272.43" class="cls-4"/><polygon points="57.31 272.4 56.55 272.4 56.55 272.85 57.39 272.85 57.39 273.24 56.12 273.24 56.12 271.25 57.39 271.25 57.39 271.64 56.55 271.64 56.55 272.02 57.31 272.02 57.31 272.4" class="cls-4"/><path d="M57.7,273.24v-1.99h.64c.67,0,.85.43.85.99s-.18,1-.85,1h-.64ZM58.13,272.85h.23c.31,0,.4-.22.4-.61s-.09-.61-.4-.61h-.23v1.22Z" class="cls-4"/><polygon points="60.7 272.4 59.93 272.4 59.93 272.85 60.77 272.85 60.77 273.24 59.5 273.24 59.5 271.25 60.77 271.25 60.77 271.64 59.93 271.64 59.93 272.02 60.7 272.02 60.7 272.4" class="cls-4"/><path d="M61.51,273.24h-.42v-1.99h.68c.54,0,.71.24.71.62,0,.25-.07.44-.28.54l.35.83h-.5l-.27-.75h-.27v.75ZM61.51,272.11h.29c.19,0,.21-.13.21-.24s-.02-.24-.21-.24h-.29v.47Z" class="cls-4"/><path d="M62.71,273.24l.55-2h.49l.55,2h-.45l-.09-.41h-.5l-.09.41h-.45ZM63.34,272.5h.34l-.17-.75-.17.75Z" class="cls-4"/><path d="M65.28,273.9c-.11,0-.22-.03-.27-.05v-.24s.14.04.23.04c.06,0,.1-.02.1-.06,0-.04-.02-.08-.19-.1l.02-.23c-.45-.06-.67-.36-.67-1.02,0-.75.28-1.03.86-1.03.23,0,.33.04.41.07v.4c-.12-.05-.21-.08-.37-.08-.32,0-.47.13-.47.63s.15.63.47.63c.16,0,.25-.03.37-.08v.4c-.08.03-.18.07-.41.07v.11c.17.04.25.11.25.23,0,.2-.15.28-.34.28" class="cls-4"/><path d="M66,273.24l.55-2h.49l.55,2h-.45l-.09-.41h-.5l-.09.41h-.45ZM66.23,271.15c0-.26.12-.38.34-.38s.32.16.45.16c.08,0,.12-.04.12-.1h.23c0,.26-.12.38-.34.38s-.32-.16-.45-.16c-.08,0-.12.04-.12.1h-.23ZM66.63,272.5h.34l-.17-.75-.17.75Z" class="cls-4"/><path d="M67.8,272.25c0-.61.17-1.03.79-1.03s.79.42.79,1.03-.17,1.03-.79,1.03-.79-.42-.79-1.03M68.23,272.25c0,.46.1.65.36.65s.36-.18.36-.65-.1-.65-.36-.65-.36.18-.36.65Z" class="cls-4"/><path d="M39.79,278.56c-.2-.11-.63-.23.08-.34,3.91-.84,8-1.34,12.39-1.28.3.01.31.13.02.18-4.74.06-8.61.49-11.33,1.4-.42.22-.79.19-1.16.04" class="cls-5"/><path d="M55.03,276.09h-.42v-1.99h.67c.53,0,.71.31.71.65s-.18.65-.71.65h-.25v.69ZM55.03,275.02h.25c.21,0,.25-.16.25-.27s-.04-.27-.25-.27h-.25v.53Z" class="cls-4"/><path d="M56.23,275.1c0-.61.17-1.03.79-1.03s.79.42.79,1.03-.17,1.03-.79,1.03-.79-.42-.79-1.03M56.66,275.1c0,.46.1.65.36.65s.36-.18.36-.65-.1-.65-.36-.65-.36.18-.36.65Z" class="cls-4"/><path d="M58.56,276.09h-.42v-1.99h.68c.54,0,.71.24.71.62,0,.25-.07.44-.28.54l.35.83h-.5l-.27-.75h-.27v.75ZM58.56,274.96h.29c.19,0,.21-.13.21-.24s-.02-.24-.21-.24h-.29v.47Z" class="cls-4"/><polygon points="60.55 274.49 60.55 276.09 60.13 276.09 60.13 274.49 59.65 274.49 59.65 274.1 61.03 274.1 61.03 274.49 60.55 274.49" class="cls-4"/><path d="M61.27,275.46v-1.36h.42v1.34c0,.26.17.3.32.3s.32-.05.32-.3v-1.34h.42v1.36c0,.55-.44.67-.74.67s-.74-.12-.74-.67" class="cls-4"/><path d="M63.06,275.1c0-.69.25-1.03.85-1.03.27,0,.47.04.59.09v.41c-.16-.07-.34-.11-.51-.11-.38,0-.5.17-.5.63,0,.5.14.63.5.63.04,0,.09,0,.12,0v-.4h-.28v-.38h.71v1.05c-.12.07-.35.14-.64.14-.59,0-.84-.34-.84-1.03" class="cls-4"/><path d="M64.86,275.46v-1.36h.42v1.34c0,.26.17.3.32.3s.32-.05.32-.3v-1.34h.42v1.36c0,.55-.44.67-.74.67s-.74-.12-.74-.67" class="cls-4"/><polygon points="67.85 275.26 67.09 275.26 67.09 275.71 67.93 275.71 67.93 276.09 66.66 276.09 66.66 274.1 67.93 274.1 67.93 274.49 67.09 274.49 67.09 274.88 67.85 274.88 67.85 275.26" class="cls-4"/><path d="M69.61,275.46c0,.49-.31.67-.78.67-.21,0-.48-.04-.62-.12v-.44c.09.05.32.15.58.15.3,0,.39-.09.39-.23,0-.15-.07-.2-.27-.23-.5-.07-.7-.21-.7-.6,0-.36.22-.6.75-.6.27,0,.47.05.56.1v.41c-.11-.05-.33-.11-.53-.11-.22,0-.34.07-.34.2,0,.14.08.19.28.22.44.06.68.15.68.58" class="cls-4"/><path d="M69.79,276.09l.55-2h.49l.55,2h-.45l-.09-.41h-.5l-.09.41h-.45ZM70.42,275.35h.34l-.17-.75-.17.75Z" class="cls-4"/><path d="M54.61,278.66v-1.99h.64c.67,0,.85.43.85,1s-.18.99-.85.99h-.64ZM55.03,278.27h.23c.31,0,.4-.22.4-.61s-.09-.61-.4-.61h-.23v1.22Z" class="cls-4"/><polygon points="57.6 277.82 56.84 277.82 56.84 278.27 57.68 278.27 57.68 278.66 56.41 278.66 56.41 276.67 57.68 276.67 57.68 277.06 56.84 277.06 56.84 277.44 57.6 277.44 57.6 277.82" class="cls-4"/><path d="M59.46,276.63c.23,0,.33.04.41.07v.4c-.12-.05-.21-.08-.37-.08-.32,0-.47.13-.47.63s.15.63.47.63c.16,0,.25-.03.37-.08v.4c-.08.03-.18.07-.41.07-.58,0-.86-.28-.86-1.03,0-.75.28-1.03.86-1.03" class="cls-4"/><rect height="1.99" width=".42" y="276.67" x="60.23" class="cls-4"/><path d="M61.86,276.63c.23,0,.33.04.41.07v.4c-.12-.05-.21-.08-.37-.08-.32,0-.47.13-.47.63s.15.63.47.63c.16,0,.25-.03.37-.08v.4c-.08.03-.18.07-.41.07-.58,0-.86-.28-.86-1.03,0-.75.28-1.03.86-1.03" class="cls-4"/><polygon points="63.03 278.27 63.83 278.27 63.83 278.66 62.6 278.66 62.6 276.67 63.03 276.67 63.03 278.27" class="cls-4"/><rect height="1.99" width=".42" y="276.67" x="64.1" class="cls-4"/><path d="M66.27,278.03c0,.49-.31.67-.78.67-.21,0-.48-.04-.62-.12v-.44c.09.05.32.15.58.15.3,0,.39-.09.39-.23,0-.15-.07-.2-.27-.23-.5-.07-.7-.21-.7-.6,0-.36.22-.6.75-.6.27,0,.47.05.56.1v.41c-.11-.05-.33-.11-.53-.11-.22,0-.34.07-.34.2,0,.14.08.19.28.22.44.06.68.15.68.58" class="cls-4"/><polygon points="67.71 278.42 67.28 278.42 66.97 277.44 66.98 278.66 66.57 278.66 66.57 276.67 67.1 276.67 67.49 277.91 67.89 276.67 68.42 276.67 68.42 278.66 68 278.66 68.02 277.44 67.71 278.42" class="cls-4"/><path d="M68.75,277.67c0-.61.17-1.03.79-1.03s.79.42.79,1.03-.17,1.03-.79,1.03-.79-.42-.79-1.03M69.18,277.67c0,.46.1.65.36.65s.36-.18.36-.65-.1-.65-.36-.65-.36.18-.36.65Z" class="cls-4"/><path d="M43.61,278.52v-.41s.12-.02.12-.02v.4c0,.08.05.08.09.08.04,0,.09-.03.09-.1v-.4s.12-.02.12-.02v.41c0,.16-.13.22-.22.23-.09.01-.22,0-.22-.17" class="cls-4"/><path d="M44.18,278.5s.08.02.08.06c0,.04-.02.08-.06.08-.04,0-.08-.02-.08-.06,0-.04.02-.08.06-.08" class="cls-4"/><polygon points="44.71 277.97 44.55 278.59 44.41 278.61 44.24 278.03 44.38 278.02 44.48 278.45 44.58 277.99 44.71 277.97" class="cls-4"/><path d="M44.75,278.42s.08.02.08.06c0,.04-.02.08-.06.08-.04,0-.08-.02-.08-.06,0-.04.02-.08.06-.08" class="cls-4"/><path d="M45.04,278.53l-.12.02v-.59s.2-.02.2-.02c.16-.02.21.07.21.17,0,.1-.05.2-.21.22h-.07s0,.22,0,.22ZM45.04,278.21h.07c.06-.02.07-.07.07-.1,0-.03-.01-.08-.07-.07h-.07s0,.17,0,.17Z" class="cls-4"/><path d="M45.32,278.35s.08.02.08.06c0,.04-.02.08-.06.08-.04,0-.08-.02-.08-.06,0-.04.02-.08.06-.08" class="cls-4"/><polygon points="45.48 278.51 45.69 277.84 45.82 277.83 45.61 278.49 45.48 278.51" class="cls-4"/><polygon points="46.24 278.13 46.02 278.16 46.02 278.4 45.9 278.42 45.9 277.82 46.26 277.78 46.26 277.89 46.02 277.92 46.02 278.05 46.24 278.02 46.24 278.13" class="cls-4"/><path d="M46.3,278.23s.08.02.08.06c0,.04-.02.08-.06.08-.04,0-.08-.02-.08-.06,0-.04.02-.08.06-.08" class="cls-4"/><path d="M46.59,278.33l-.12.02v-.59s.2-.03.2-.03c.16-.02.21.07.21.17,0,.1-.05.2-.21.22h-.07s0,.22,0,.22ZM46.59,278.01h.07c.06-.02.07-.07.07-.1,0-.03-.01-.08-.07-.07h-.07s0,.17,0,.17Z" class="cls-4"/><path d="M46.87,278.15s.08.02.08.06c0,.04-.02.08-.06.08-.04,0-.08-.02-.08-.06,0-.04.02-.08.06-.08" class="cls-4"/><path d="M47.28,277.64c.07,0,.1,0,.12,0v.12s-.06-.02-.11,0c-.1.01-.14.06-.14.21,0,.15.04.18.14.17.05,0,.07-.02.11-.04v.12s-.05.03-.12.04c-.17.02-.25-.05-.25-.28,0-.22.08-.32.25-.34" class="cls-4"/><path d="M47.54,278.07s.08.02.08.06c0,.04-.02.08-.06.08-.04,0-.08-.02-.08-.06,0-.04.02-.08.06-.08" class="cls-4"/><rect transform="translate(395.7 54.98) rotate(90)" height="1.02" width="118.52" y="224.83" x="111.11" class="cls-2"/><rect transform="translate(174.52 246.11) rotate(-180)" height="1.02" width="118.52" y="122.55" x="28" class="cls-2"/></g></g></g></svg>