<svg viewBox="0 0 531.26 288" xmlns="http://www.w3.org/2000/svg" id="Urban"><defs><style>.cls-1,.cls-2{stroke:#000;}.cls-1,.cls-2,.cls-3,.cls-4{stroke-width:.3px;}.cls-1,.cls-3,.cls-4{fill:none;stroke-linecap:round;stroke-linejoin:round;}.cls-2{fill:#f1efea;stroke-miterlimit:10;}.cls-5{fill:#12100a;}.cls-3{stroke:#877069;}.cls-4{stroke:#12100a;}</style></defs><g id="Frame"><g id="banco_com_costas_1400"><path d="M12.95,221.97c-.07.22-.17.4-.31.56-.13.15-.29.28-.47.36s-.38.13-.6.13c-.16,0-.31-.02-.45-.07-.15-.05-.28-.11-.4-.2-.12-.09-.22-.19-.3-.31s-.14-.25-.18-.4c-.05.14-.12.25-.2.36-.08.1-.17.19-.27.27s-.21.13-.33.17c-.12.04-.25.06-.38.06-.21,0-.39-.04-.56-.12-.17-.08-.32-.2-.44-.34-.13-.14-.22-.32-.29-.52-.07-.2-.1-.42-.1-.66s.03-.46.1-.66c.07-.2.17-.37.29-.52.12-.15.27-.26.44-.35.17-.08.36-.13.57-.13.13,0,.26.02.38.06.12.04.24.1.34.17.1.07.19.16.27.27.08.1.14.22.19.35.04-.15.1-.28.18-.4s.19-.22.31-.3c.12-.08.25-.15.4-.2.14-.05.29-.07.45-.07.21,0,.41.04.6.13.18.09.34.21.47.36.13.15.24.34.31.56.07.22.11.46.11.72s-.04.5-.11.72ZM8.39,221.61c.04.11.09.2.16.28.07.08.15.14.26.18s.21.07.33.07c.11,0,.22-.02.32-.07.1-.04.19-.11.26-.19.07-.08.13-.17.17-.28s.06-.23.06-.35-.02-.25-.06-.35c-.04-.1-.1-.2-.17-.28s-.16-.14-.26-.19c-.1-.04-.21-.07-.32-.07-.12,0-.23.02-.33.07-.1.04-.19.11-.26.19-.07.08-.12.17-.16.28-.04.11-.06.23-.06.36s.02.24.06.35ZM12.32,220.84c-.04-.13-.11-.23-.19-.32-.08-.09-.18-.16-.29-.21-.11-.05-.24-.08-.37-.08s-.26.03-.37.08c-.11.05-.21.12-.29.21-.08.09-.15.2-.2.33-.05.13-.07.26-.07.41s.02.28.07.41c.04.13.11.23.19.33s.18.16.3.21c.11.05.24.07.37.07.14,0,.27-.02.38-.07.11-.05.21-.12.29-.21.08-.09.14-.2.19-.33.04-.13.07-.26.07-.41s-.02-.29-.07-.41Z"/><path d="M7.71,216.93h5.29v.72h-4.54l.64,1.3h-.73l-.67-1.36v-.67Z"/><path d="M12.95,215.05c-.07.22-.17.4-.31.56-.13.15-.29.28-.47.36s-.38.13-.6.13c-.16,0-.31-.02-.45-.07-.15-.05-.28-.11-.4-.2-.12-.09-.22-.19-.3-.31s-.14-.25-.18-.4c-.05.14-.12.25-.2.36-.08.1-.17.19-.27.27s-.21.13-.33.17c-.12.04-.25.06-.38.06-.21,0-.39-.04-.56-.12-.17-.08-.32-.2-.44-.34-.13-.14-.22-.32-.29-.52-.07-.2-.1-.42-.1-.66s.03-.46.1-.66c.07-.2.17-.37.29-.52.12-.15.27-.26.44-.35.17-.08.36-.13.57-.13.13,0,.26.02.38.06.12.04.24.1.34.17.1.07.19.16.27.27.08.1.14.22.19.35.04-.15.1-.28.18-.4s.19-.22.31-.3c.12-.08.25-.15.4-.2.14-.05.29-.07.45-.07.21,0,.41.04.6.13.18.09.34.21.47.36.13.15.24.34.31.56.07.22.11.46.11.72s-.04.5-.11.72ZM8.39,214.68c.04.11.09.2.16.28.07.08.15.14.26.18s.21.07.33.07c.11,0,.22-.02.32-.07.1-.04.19-.11.26-.19.07-.08.13-.17.17-.28s.06-.23.06-.35-.02-.25-.06-.35c-.04-.1-.1-.2-.17-.28s-.16-.14-.26-.19c-.1-.04-.21-.07-.32-.07-.12,0-.23.02-.33.07-.1.04-.19.11-.26.19-.07.08-.12.17-.16.28-.04.11-.06.23-.06.36s.02.24.06.35ZM12.32,213.92c-.04-.13-.11-.23-.19-.32-.08-.09-.18-.16-.29-.21-.11-.05-.24-.08-.37-.08s-.26.03-.37.08c-.11.05-.21.12-.29.21-.08.09-.15.2-.2.33-.05.13-.07.26-.07.41s.02.28.07.41c.04.13.11.23.19.33s.18.16.3.21c.11.05.24.07.37.07.14,0,.27-.02.38-.07.11-.05.21-.12.29-.21.08-.09.14-.2.19-.33.04-.13.07-.26.07-.41s-.02-.29-.07-.41Z"/><path d="M9.36,208.95h.67c-.24-.11-.42-.26-.54-.45-.12-.18-.18-.4-.18-.63,0-.26.07-.48.2-.67.14-.19.33-.32.59-.41-.26-.11-.45-.27-.59-.46-.14-.2-.2-.43-.2-.7,0-.38.12-.67.37-.88.25-.21.61-.31,1.07-.31h2.25v.7h-2.16c-.29,0-.52.07-.69.2-.17.13-.25.31-.25.54,0,.12.02.22.07.32.05.1.11.18.2.26.09.07.19.13.32.16.12.04.26.06.4.06h2.11v.7h-2.16c-.14,0-.27.02-.38.06-.12.04-.22.09-.3.15-.08.06-.14.14-.19.23-.04.09-.07.2-.07.31s.02.22.07.32c.05.1.12.18.21.25.09.07.2.12.32.17.12.04.26.06.41.06h2.09v.7h-3.64v-.68Z"/><path d="M9.36,202.76h.67c-.24-.11-.42-.26-.54-.45-.12-.18-.18-.4-.18-.63,0-.26.07-.48.2-.67.14-.19.33-.32.59-.41-.26-.11-.45-.27-.59-.46-.14-.2-.2-.43-.2-.7,0-.38.12-.67.37-.88.25-.21.61-.31,1.07-.31h2.25v.7h-2.16c-.29,0-.52.07-.69.2-.17.13-.25.31-.25.54,0,.12.02.22.07.32.05.1.11.18.2.26.09.07.19.13.32.16.12.04.26.06.4.06h2.11v.7h-2.16c-.14,0-.27.02-.38.06-.12.04-.22.09-.3.15-.08.06-.14.14-.19.23-.04.09-.07.2-.07.31s.02.22.07.32c.05.1.12.18.21.25.09.07.2.12.32.17.12.04.26.06.41.06h2.09v.7h-3.64v-.68Z"/><path d="M7.22,84.79h.65v1.92l1.54.25c-.09-.1-.16-.22-.21-.36-.05-.14-.07-.29-.07-.46,0-.25.04-.47.13-.68.08-.21.2-.38.35-.53.15-.15.33-.27.54-.35.21-.08.44-.12.69-.12s.48.04.7.13c.21.09.4.21.55.36.15.16.27.34.36.56.08.21.13.45.13.71,0,.2-.03.39-.08.58s-.13.35-.23.5c-.1.15-.22.28-.36.39-.14.11-.3.19-.48.24l-.31-.63c.24-.07.43-.19.56-.39.14-.19.21-.42.21-.67,0-.15-.03-.29-.08-.41-.05-.13-.12-.23-.21-.33-.09-.09-.2-.16-.33-.21-.13-.05-.27-.08-.43-.08s-.3.03-.44.08c-.13.05-.25.13-.34.22s-.17.21-.22.34c-.05.13-.08.28-.08.44,0,.18.04.35.1.49.07.14.17.26.31.36l-.15.62-2.79-.47v-2.52Z"/><path d="M7.28,81.57c.08-.21.19-.39.33-.54.14-.15.31-.27.51-.35.2-.08.42-.13.67-.13.14,0,.28.02.42.05.14.03.28.08.41.15.14.07.27.16.42.27.14.11.29.24.45.39l1.35,1.31v-2.29h.67v3.32h-.59l-1.85-1.79c-.12-.12-.23-.22-.33-.3-.1-.08-.21-.15-.3-.2-.1-.05-.19-.09-.29-.11-.09-.02-.19-.03-.29-.03-.15,0-.28.02-.4.07-.12.04-.23.11-.32.2-.09.09-.16.19-.21.3-.05.11-.07.24-.07.39,0,.25.08.47.23.65.15.18.36.31.63.39l-.23.67c-.42-.12-.74-.32-.97-.62s-.34-.66-.34-1.1c0-.25.04-.48.12-.69Z"/><path d="M12.38,78.76c-.12.24-.29.44-.51.61-.22.17-.5.3-.82.39s-.69.14-1.09.14-.8-.05-1.15-.15c-.35-.1-.64-.24-.89-.43-.25-.18-.43-.41-.56-.67-.13-.26-.2-.55-.2-.88,0-.37.09-.7.27-.97.18-.27.43-.47.76-.59l.29.64c-.21.07-.37.18-.48.34-.11.16-.17.35-.17.56,0,.2.05.38.14.55s.23.31.4.44c.17.13.37.22.61.29s.49.1.77.1h.17c.06,0,.1,0,.15,0-.25-.08-.45-.23-.59-.45-.14-.22-.21-.48-.21-.79,0-.24.04-.46.12-.65.08-.2.19-.36.34-.5.15-.14.32-.25.52-.33.2-.08.42-.12.66-.12s.47.04.68.13c.21.08.38.2.53.35.14.15.26.32.34.53s.12.43.12.68c0,.3-.06.57-.18.81ZM11.81,77.59c-.05-.12-.12-.22-.21-.3-.09-.08-.19-.15-.31-.2-.12-.05-.26-.07-.41-.07s-.29.02-.41.07c-.12.05-.23.12-.32.2s-.16.19-.21.31-.07.25-.07.4.02.27.07.39.12.22.2.31c.09.09.19.15.31.2.12.05.25.07.4.07s.28-.03.41-.08.24-.12.34-.21.17-.2.22-.32c.05-.12.08-.26.08-.4s-.03-.26-.08-.38Z"/><path d="M8.86,72.6h.67c-.24-.11-.42-.26-.54-.45-.12-.18-.18-.4-.18-.63,0-.26.07-.48.2-.67.14-.19.33-.32.59-.41-.26-.11-.45-.27-.59-.46-.14-.2-.2-.43-.2-.7,0-.38.12-.67.37-.88.25-.21.61-.31,1.07-.31h2.25v.7h-2.16c-.29,0-.52.07-.69.2-.17.13-.25.31-.25.54,0,.12.02.22.07.32.05.1.11.18.2.26.09.07.19.13.32.16.12.04.26.06.4.06h2.11v.7h-2.16c-.14,0-.27.02-.38.06-.12.04-.22.09-.3.15-.08.06-.14.14-.19.23-.04.09-.07.2-.07.31s.02.22.07.32c.05.1.12.18.21.25.09.07.2.12.32.17.12.04.26.06.41.06h2.09v.7h-3.64v-.68Z"/><path d="M8.86,66.41h.67c-.24-.11-.42-.26-.54-.45-.12-.18-.18-.4-.18-.63,0-.26.07-.48.2-.67.14-.19.33-.32.59-.41-.26-.11-.45-.27-.59-.46-.14-.2-.2-.43-.2-.7,0-.38.12-.67.37-.88.25-.21.61-.31,1.07-.31h2.25v.7h-2.16c-.29,0-.52.07-.69.2-.17.13-.25.31-.25.54,0,.12.02.22.07.32.05.1.11.18.2.26.09.07.19.13.32.16.12.04.26.06.4.06h2.11v.7h-2.16c-.14,0-.27.02-.38.06-.12.04-.22.09-.3.15-.08.06-.14.14-.19.23-.04.09-.07.2-.07.31s.02.22.07.32c.05.1.12.18.21.25.09.07.2.12.32.17.12.04.26.06.41.06h2.09v.7h-3.64v-.68Z"/><line y2="8.62" x2="38.97" y1="8.62" x1="299.52" class="cls-4"/><rect height="1.95" width=".3" y="7.64" x="299.37" class="cls-5"/><rect height="1.95" width=".3" y="7.64" x="38.82" class="cls-5"/><line y2="124.01" x2="16.43" y1="25.6" x1="16.43" class="cls-4"/><rect height=".3" width="1.95" y="25.45" x="15.45" class="cls-5"/><rect height=".3" width="1.95" y="123.86" x="15.45" class="cls-5"/><line y2="287.14" x2="16.92" y1="133.93" x1="16.92" class="cls-4"/><rect height=".3" width="1.95" y="133.78" x="15.95" class="cls-5"/><rect height=".3" width="1.95" y="286.99" x="15.95" class="cls-5"/><g id="LINE-2"><line y2="203.57" x2="38.74" y1="203.57" x1="299.59" class="cls-1"/></g><g id="LINE-3"><path d="M299.59,201.69v1.88-1.88H38.74v1.88s0,84.43,0,84.43h16.9v-67.55h227.09s0,67.55,0,67.55h16.86v-84.43" class="cls-1"/></g><path d="M300.08,90v-1.68H39.35v1.68M175,96.79H39.35v1.81h135.65M300.08,114.12l-260.71.06v-6.86h260.71M175,105.4H39.35v18.89h260.73v-34.58M39.35,71.17v1.74h260.73v-1.74H39.35ZM39.35,54.02v1.74h260.73v-1.74H39.35ZM39.35,26.83v20.39h260.73v-20.39H39.35ZM39.35,62.56v1.81h260.73v-1.81H39.35ZM39.35,79.71v1.74h260.73v-1.74H39.35ZM116.82,105.4v1.93h49.16v-1.93h-49.16Z" class="cls-2"/><rect height="6.8" width="260.73" y="47.22" x="39.35" class="cls-2"/><rect height="4.04" width="260.72" y="40.91" x="39.35" class="cls-2"/><rect height="4.04" width="260.72" y="36.87" x="39.35" class="cls-2"/><rect height=".66" width="260.72" y="44.88" x="39.35" class="cls-2"/><rect height="6.8" width="260.73" y="55.77" x="39.35" class="cls-2"/><rect height="6.8" width="260.73" y="64.37" x="39.35" class="cls-2"/><rect height="6.8" width="260.73" y="72.91" x="39.35" class="cls-2"/><rect height="6.86" width="260.73" y="81.45" x="39.35" class="cls-2"/><polyline points="300.01 96.79 39.23 96.79 39.23 90 300.08 90" class="cls-2"/><line y2="90" x2="175.15" y1="90" x1="175" class="cls-2"/><line y2="96.79" x2="175" y1="96.79" x1="175.15" class="cls-2"/><polyline points="299.91 105.4 39.35 105.4 39.35 98.6 299.91 98.6" class="cls-2"/><line y2="98.6" x2="175.15" y1="98.6" x1="175" class="cls-2"/><line y2="105.4" x2="175" y1="105.4" x1="175.15" class="cls-2"/><line y2="107.32" x2="175.15" y1="107.32" x1="175" class="cls-2"/><rect height="6.82" width="260.72" y="115.76" x="39.35" class="cls-2"/><rect height="1.22" width="16.89" y="25.58" x="283.19" class="cls-2"/><rect height="1.22" width="16.89" y="25.58" x="39.35" class="cls-2"/><line y2="202.25" x2="299.59" y1="203.57" x1="299.59" class="cls-4"/><polyline points="299.59 201.69 299.59 201.7 299.59 201.73 299.59 201.78 299.59 201.85 299.59 201.94 299.59 202.04 299.59 202.14 299.59 202.25" class="cls-4"/><polyline points="38.74 202.25 38.74 202.14 38.74 202.04 38.74 201.94 38.74 201.85 38.74 201.78 38.74 201.73 38.74 201.7 38.74 201.69" class="cls-4"/><line y2="149.01" x2="38.74" y1="149.01" x1="299.59" class="cls-4"/><line y2="165.31" x2="38.74" y1="165.31" x1="299.59" class="cls-4"/><line y2="150.8" x2="38.74" y1="150.8" x1="299.59" class="cls-4"/><line y2="167.11" x2="38.74" y1="167.11" x1="299.59" class="cls-4"/><rect height="67.2" width="260.85" y="134.49" x="38.74" class="cls-4"/><rect height="18.13" width="227.26" y="183.56" x="55.24" class="cls-1"/><polyline points="299.59 203.57 38.74 203.57 38.74 202.25" class="cls-4"/><line y2="181.47" x2="38.74" y1="181.47" x1="299.59" class="cls-4"/><line y2="183.56" x2="38.74" y1="183.56" x1="299.59" class="cls-4"/><rect height="1.5" width="1.51" y="45.72" x="49.39" class="cls-4"/><rect height="1.74" width="1.51" y="54.02" x="49.39" class="cls-4"/><rect height="1.81" width="1.51" y="62.56" x="49.39" class="cls-4"/><rect height="1.74" width="1.51" y="71.17" x="49.39" class="cls-4"/><rect height="1.74" width="1.51" y="79.71" x="49.39" class="cls-4"/><rect height="1.68" width="1.51" y="88.31" x="49.39" class="cls-4"/><rect height="1.81" width="1.51" y="96.79" x="49.39" class="cls-4"/><rect height="1.93" width="1.51" y="105.4" x="49.39" class="cls-4"/><rect height="1.62" width="1.51" y="114.18" x="49.39" class="cls-4"/><line y2="45.72" x2="58.5" y1="47.22" x1="58.5" class="cls-4"/><line y2="62.56" x2="58.5" y1="64.37" x1="58.5" class="cls-4"/><line y2="79.71" x2="58.5" y1="81.45" x1="58.5" class="cls-4"/><line y2="96.79" x2="58.5" y1="98.6" x1="58.5" class="cls-4"/><polyline points="58.5 115.81 58.5 115.75 58.5 114.18" class="cls-4"/><line y2="105.4" x2="58.5" y1="107.32" x1="58.5" class="cls-4"/><line y2="88.31" x2="58.5" y1="90" x1="58.5" class="cls-4"/><line y2="71.17" x2="58.5" y1="72.91" x1="58.5" class="cls-4"/><line y2="54.02" x2="58.5" y1="55.77" x1="58.5" class="cls-4"/><rect height="1.5" width="1.51" y="45.72" x="107.71" class="cls-4"/><rect height="1.74" width="1.51" y="54.02" x="107.71" class="cls-4"/><rect height="1.81" width="1.51" y="62.56" x="107.71" class="cls-4"/><rect height="1.74" width="1.51" y="71.17" x="107.71" class="cls-4"/><rect height="1.74" width="1.51" y="79.71" x="107.71" class="cls-4"/><rect height="1.68" width="1.51" y="88.31" x="107.71" class="cls-4"/><rect height="1.81" width="1.51" y="96.79" x="107.71" class="cls-4"/><rect height="1.93" width="1.51" y="105.4" x="107.71" class="cls-4"/><rect height="1.5" width="1.51" y="114.18" x="107.71" class="cls-4"/><line y2="105.4" x2="116.82" y1="107.32" x1="116.82" class="cls-4"/><line y2="88.31" x2="116.82" y1="90" x1="116.82" class="cls-4"/><line y2="71.17" x2="116.82" y1="72.91" x1="116.82" class="cls-4"/><line y2="54.02" x2="116.82" y1="55.77" x1="116.82" class="cls-4"/><line y2="45.72" x2="116.82" y1="47.22" x1="116.82" class="cls-4"/><line y2="62.56" x2="116.82" y1="64.37" x1="116.82" class="cls-4"/><line y2="79.71" x2="116.82" y1="81.45" x1="116.82" class="cls-4"/><line y2="96.79" x2="116.82" y1="98.6" x1="116.82" class="cls-4"/><line y2="114.18" x2="116.82" y1="115.68" x1="116.82" class="cls-4"/><rect height="1.5" width="1.56" y="45.72" x="173.59" class="cls-4"/><rect height="1.74" width="1.56" y="54.02" x="173.59" class="cls-4"/><rect height="1.81" width="1.56" y="62.56" x="173.59" class="cls-4"/><rect height="1.74" width="1.56" y="71.17" x="173.59" class="cls-4"/><rect height="1.74" width="1.56" y="79.71" x="173.59" class="cls-4"/><rect height="1.68" width="1.56" y="88.33" x="173.59" class="cls-4"/><rect height="1.83" width="1.56" y="96.8" x="173.59" class="cls-4"/><rect height="1.94" width="1.56" y="105.39" x="173.6" class="cls-4"/><rect height="1.62" width="1.56" y="114.14" x="173.6" class="cls-4"/><line y2="105.4" x2="165.99" y1="107.32" x1="165.99" class="cls-4"/><line y2="88.31" x2="165.99" y1="90" x1="165.99" class="cls-4"/><line y2="71.17" x2="165.99" y1="72.91" x1="165.99" class="cls-4"/><line y2="54.02" x2="165.99" y1="55.77" x1="165.99" class="cls-4"/><line y2="45.72" x2="165.99" y1="47.22" x1="165.99" class="cls-4"/><line y2="62.56" x2="165.99" y1="64.37" x1="165.99" class="cls-4"/><line y2="79.71" x2="165.99" y1="81.45" x1="165.99" class="cls-4"/><line y2="96.79" x2="165.99" y1="98.6" x1="165.99" class="cls-4"/><polyline points="165.99 114.18 165.99 115.68 165.99 115.75" class="cls-4"/><rect height="1.5" width="1.51" y="45.72" x="231.91" class="cls-4"/><rect height="1.74" width="1.51" y="54.02" x="231.91" class="cls-4"/><rect height="1.81" width="1.51" y="62.56" x="231.91" class="cls-4"/><rect height="1.74" width="1.51" y="71.17" x="231.91" class="cls-4"/><rect height="1.74" width="1.51" y="79.71" x="231.91" class="cls-4"/><rect height="1.68" width="1.51" y="88.31" x="231.91" class="cls-4"/><rect height="1.68" width="1.51" y="114.12" x="231.91" class="cls-4"/><line y2="45.72" x2="224.31" y1="47.22" x1="224.31" class="cls-4"/><line y2="62.56" x2="224.31" y1="64.37" x1="224.31" class="cls-4"/><line y2="79.71" x2="224.31" y1="81.45" x1="224.31" class="cls-4"/><polyline points="224.31 115.81 224.31 115.75 224.31 114.18 224.31 114.12" class="cls-4"/><rect height="1.68" width="1.51" y="105.54" x="231.91" class="cls-4"/><polyline points="224.31 107.22 224.31 107.16 224.31 105.6 224.31 105.54" class="cls-4"/><rect height="1.68" width="1.51" y="96.87" x="231.91" class="cls-4"/><polyline points="224.31 98.55 224.31 98.49 224.31 96.93 224.31 96.87" class="cls-4"/><line y2="88.31" x2="224.31" y1="90" x1="224.31" class="cls-4"/><line y2="71.17" x2="224.31" y1="72.91" x1="224.31" class="cls-4"/><line y2="54.02" x2="224.31" y1="55.77" x1="224.31" class="cls-4"/><rect height="1.5" width="1.56" y="45.72" x="290.19" class="cls-4"/><rect height="1.74" width="1.56" y="54.02" x="290.19" class="cls-4"/><rect height="1.8" width="1.56" y="62.56" x="290.19" class="cls-4"/><rect height="1.74" width="1.56" y="71.16" x="290.19" class="cls-4"/><rect height="1.74" width="1.56" y="79.7" x="290.19" class="cls-4"/><rect height="1.68" width="1.56" y="88.3" x="290.19" class="cls-4"/><rect height="1.68" width="1.56" y="96.9" x="290.19" class="cls-4"/><rect height="1.68" width="1.56" y="114.1" x="290.19" class="cls-4"/><line y2="71.16" x2="282.63" y1="72.9" x1="282.63" class="cls-4"/><line y2="54.02" x2="282.63" y1="55.76" x1="282.63" class="cls-4"/><line y2="45.72" x2="282.63" y1="47.22" x1="282.63" class="cls-4"/><line y2="62.56" x2="282.63" y1="64.36" x1="282.63" class="cls-4"/><line y2="79.7" x2="282.63" y1="81.44" x1="282.63" class="cls-4"/><line y2="88.3" x2="282.64" y1="90" x1="282.64" class="cls-4"/><line y2="96.82" x2="282.63" y1="98.56" x1="282.63" class="cls-4"/><rect height="1.78" width="1.56" y="105.49" x="290.19" class="cls-4"/><line y2="105.41" x2="282.63" y1="107.26" x1="282.63" class="cls-4"/><polyline points="282.63 115.79 282.63 115.73 282.63 114.16 282.63 114.1" class="cls-4"/><polygon points="428.18 201.5 426.33 201.5 426.33 286.09 343.61 286.09 343.61 201.5 341.75 201.5 341.73 201.5 341.73 287.93 341.75 287.93 341.75 287.97 428.18 287.97 428.18 287.93 428.21 287.93 428.21 201.5 428.18 201.5" class="cls-4"/><path d="M354.14,201.5h5.26c.62,0,1.13.51,1.13,1.13v13.91h-7.52v-13.91c0-.62.51-1.13,1.13-1.13Z" class="cls-4"/><path d="M344.74,201.5h5.26c.62,0,1.13.51,1.13,1.13v13.91h-7.52v-13.91c0-.62.51-1.13,1.13-1.13Z" class="cls-4"/><path d="M372.94,201.5h5.26c.62,0,1.13.51,1.13,1.13v13.91h-7.52v-13.91c0-.62.51-1.13,1.13-1.13Z" class="cls-4"/><path d="M363.54,201.5h5.26c.62,0,1.13.51,1.13,1.13v13.91h-7.52v-13.91c0-.62.51-1.13,1.13-1.13Z" class="cls-4"/><path d="M391.74,201.5h5.26c.62,0,1.13.51,1.13,1.13v13.91h-7.52v-13.91c0-.62.51-1.13,1.13-1.13Z" class="cls-4"/><path d="M401.14,201.5h5.26c.62,0,1.13.51,1.13,1.13v13.91h-7.52v-13.91c0-.62.51-1.13,1.13-1.13Z" class="cls-4"/><path d="M410.53,201.5h5.26c.62,0,1.13.51,1.13,1.13v13.91h-7.52v-13.91c0-.62.51-1.13,1.13-1.13Z" class="cls-4"/><path d="M419.93,201.5h5.26c.62,0,1.13.51,1.13,1.13v13.91h-7.52v-13.91c0-.62.51-1.13,1.13-1.13Z" class="cls-4"/><path d="M382.34,201.5h5.26c.62,0,1.13.51,1.13,1.13v13.91h-7.52v-13.91c0-.62.51-1.13,1.13-1.13Z" class="cls-4"/><path d="M426.32,216.51v3.77h-82.7v-3.77h7.5v-5.31c0-.2.07-.33.27-.33h1.34c.13,0,.27.13.27.33v5.31h7.55v-5.31c0-.2.13-.33.33-.33h1.26c.13,0,.27.13.27.33v5.31h7.55v-5.31c0-.2.13-.33.27-.33h1.26c.2,0,.33.13.33.33v5.31h7.52v-5.31c0-.2.13-.33.27-.33h1.3c.2,0,.33.13.33.33v5.31h7.49v-5.31c0-.2.13-.33.27-.33h1.36c.2,0,.27.13.27.33v5.31h7.5v-5.31c0-.2.13-.33.27-.33h1.36c.13,0,.27.13.27.33v5.31h7.53v-5.31c0-.2.13-.33.27-.33h1.35c.13,0,.27.13.27.33v5.31h7.52v-5.31c0-.2.07-.33.27-.33h1.33c.13,0,.27.13.27.33v5.31h7.53Z" class="cls-4"/><line y2="136.26" x2="439.28" y1="150.77" x1="435.39" class="cls-3"/><line y2="152.58" x2="434.9" y1="167.09" x1="431.01" class="cls-3"/><path d="M428.67,148.97l6.71,1.8s0,0,0,0l3.89-14.5s0,0,0,0l-7.25-1.94s0,0,0,0l-3.74,13.96c-.08.3.1.61.4.7Z" class="cls-4"/><path d="M419.88,181.59l6.75,1.81,3.89-14.51-6.65-1.78c-.34-.09-.68.11-.77.45l-3.59,13.39c-.08.28.09.57.37.65Z" class="cls-4"/><path d="M424.27,165.28l6.75,1.81,3.89-14.51-6.65-1.78c-.34-.09-.68.11-.77.45l-3.59,13.39c-.08.28.09.57.37.65Z" class="cls-4"/><path d="M428.2,201.61c0-9.86,0-16.49,0-16.56,0-.28.08-.55.08-.55l12.32-45.94-1.82-.49-12.06,45.02s-.17.6-.29,1.06-.11.98-.11.98v.38s0,16.1,0,16.1" class="cls-4"/><path d="M156.38.51v5.18h-.71V1.89c0-.07,0-.13-.02-.19-.01-.05-.03-.09-.06-.12-.03-.03-.06-.06-.1-.07-.04-.02-.09-.02-.15-.02-.06,0-.12,0-.18.03-.06.02-.13.05-.2.08l-.57.28v-.71l1.33-.65h.65Z"/><path d="M160.17.51v5.18h-.71v-3.58s0-.07-.01-.1c0-.03-.02-.05-.03-.07-.02-.02-.04-.04-.06-.04-.02,0-.05-.01-.08-.01-.02,0-.04,0-.06,0-.02,0-.03.01-.05.03-.02.02-.04.04-.06.07s-.05.06-.08.09l-.75,1.12s-.03.05-.05.08c-.01.03-.02.05-.03.07s-.01.05-.02.07c0,.02-.01.05-.01.07,0,.04,0,.08.02.11s.03.06.06.08.06.04.1.05c.04.01.08.02.13.02h2.57v.63h-3.9v-.58l2.18-3.28h.85Z"/><path d="M164.24.65c.24.13.46.31.63.54.18.23.31.51.41.83.1.32.15.68.15,1.06s-.05.75-.15,1.07c-.1.33-.24.61-.42.84s-.39.42-.63.55c-.24.13-.51.2-.81.2s-.56-.07-.81-.2-.46-.31-.64-.55c-.18-.24-.31-.52-.41-.84-.1-.33-.15-.69-.15-1.07s.05-.74.15-1.06.24-.6.41-.83c.18-.23.39-.41.63-.54.24-.13.52-.19.81-.19s.57.07.81.2ZM162.92,1.27c-.15.1-.29.23-.4.4-.11.17-.2.38-.26.61-.06.24-.1.5-.1.79s.03.56.09.81c.06.25.15.46.26.63.11.18.25.31.41.41s.32.15.51.15.36-.05.51-.15.29-.24.4-.41c.11-.18.2-.39.26-.63.06-.24.09-.51.09-.8s-.03-.55-.09-.79c-.06-.24-.15-.45-.26-.62-.11-.17-.24-.31-.4-.4-.16-.1-.33-.14-.52-.14s-.36.05-.51.14Z"/><path d="M168.75.65c.24.13.46.31.63.54.18.23.31.51.41.83.1.32.15.68.15,1.06s-.05.75-.15,1.07c-.1.33-.24.61-.42.84s-.39.42-.63.55c-.24.13-.51.2-.81.2s-.56-.07-.81-.2-.46-.31-.64-.55c-.18-.24-.31-.52-.41-.84-.1-.33-.15-.69-.15-1.07s.05-.74.15-1.06.24-.6.41-.83c.18-.23.39-.41.63-.54.24-.13.52-.19.81-.19s.57.07.81.2ZM167.43,1.27c-.15.1-.29.23-.4.4-.11.17-.2.38-.26.61-.06.24-.1.5-.1.79s.03.56.09.81c.06.25.15.46.26.63.11.18.25.31.41.41s.32.15.51.15.36-.05.51-.15.29-.24.4-.41c.11-.18.2-.39.26-.63.06-.24.09-.51.09-.8s-.03-.55-.09-.79c-.06-.24-.15-.45-.26-.62-.11-.17-.24-.31-.4-.4-.16-.1-.33-.14-.52-.14s-.36.05-.51.14Z"/><path d="M173.41,2.12v.14c0,.06.01.11.03.13.02.02.05.03.09.03.02,0,.04,0,.05,0,.02,0,.03-.01.05-.02.02,0,.04-.02.05-.03.02-.02.04-.03.06-.05.11-.09.22-.15.34-.19.12-.04.25-.06.4-.06.16,0,.31.03.45.08.13.05.26.14.36.27.05.06.09.09.13.11.04.02.08.03.13.03.02,0,.04,0,.06,0s.04-.01.06-.02c.02,0,.04-.02.06-.04.02-.02.05-.04.07-.06.11-.12.25-.21.39-.27.15-.06.31-.09.48-.09.37,0,.65.12.85.37s.31.6.31,1.04v2.21h-.69v-2.12c0-.28-.07-.51-.2-.67-.13-.16-.31-.25-.53-.25-.11,0-.22.02-.32.07s-.18.11-.25.2c-.07.09-.12.19-.16.31-.04.12-.06.25-.06.39v2.07h-.69v-2.12c0-.14-.02-.26-.05-.38-.04-.11-.09-.21-.15-.29-.06-.08-.14-.14-.23-.19-.09-.04-.19-.07-.31-.07s-.21.02-.31.07c-.1.05-.18.11-.25.2-.07.09-.12.19-.16.32-.04.12-.06.26-.06.4v2.05h-.69v-3.57h.65Z"/><path d="M179.44,2.12v.14c0,.06.01.11.03.13.02.02.05.03.09.03.02,0,.04,0,.05,0,.02,0,.03-.01.05-.02.02,0,.04-.02.05-.03.02-.02.04-.03.06-.05.11-.09.22-.15.34-.19.12-.04.25-.06.4-.06.16,0,.31.03.45.08.13.05.26.14.36.27.05.06.09.09.13.11.04.02.08.03.13.03.02,0,.04,0,.06,0s.04-.01.06-.02c.02,0,.04-.02.06-.04.02-.02.05-.04.07-.06.11-.12.25-.21.39-.27.15-.06.31-.09.48-.09.37,0,.65.12.85.37s.31.6.31,1.04v2.21h-.69v-2.12c0-.28-.07-.51-.2-.67-.13-.16-.31-.25-.53-.25-.11,0-.22.02-.32.07s-.18.11-.25.2c-.07.09-.12.19-.16.31-.04.12-.06.25-.06.39v2.07h-.69v-2.12c0-.14-.02-.26-.05-.38-.04-.11-.09-.21-.15-.29-.06-.08-.14-.14-.23-.19-.09-.04-.19-.07-.31-.07s-.21.02-.31.07c-.1.05-.18.11-.25.2-.07.09-.12.19-.16.32-.04.12-.06.26-.06.4v2.05h-.69v-3.57h.65Z"/></g></g></svg>