<svg viewBox="0 0 531.27 288" xmlns:xlink="http://www.w3.org/1999/xlink" xmlns="http://www.w3.org/2000/svg" id="Camada_2"><defs><style>.cls-1,.cls-2{fill:none;}.cls-3,.cls-4{fill:#f1efea;}.cls-2{stroke:#12100b;stroke-linecap:round;stroke-linejoin:round;}.cls-2,.cls-4{stroke-width:.3px;}.cls-5{fill:#1d1d1b;}.cls-6{fill:#12100b;}.cls-4{stroke:#000;stroke-miterlimit:10;}</style><symbol viewBox="0 0 531.27 288" id="fundo_transparente"><rect height="288" width="531.27" x="0" class="cls-1"/></symbol></defs><g id="Golf"><g id="Driving_Range"><g id="limpa_tacos_Palmer"><use xlink:href="#fundo_transparente" height="288" width="531.27"/><rect height="176.14" width="22.34" y="108.91" x="295.54" class="cls-2"/><rect height="175.9" width="2.45" y="109.14" x="305.49" class="cls-2"/><line y2="267.57" x2="239.6" y1="110.15" x1="239.6" class="cls-2"/><line y2="273.85" x2="250.79" y1="110.15" x1="250.79" class="cls-2"/><line y2="275.19" x2="261.98" y1="110.15" x1="261.98" class="cls-2"/><line y2="273.85" x2="273.17" y1="110.15" x1="273.17" class="cls-2"/><line y2="267.57" x2="284.35" y1="110.15" x1="284.35" class="cls-2"/><g id="ARC"><path d="M358.58,173.31c-.68,0-1.24.52-1.24,1.16v109.35c0,.64.55,1.16,1.24,1.16h158.66c.68,0,1.24-.52,1.24-1.16v-109.35c0-.64-.55-1.16-1.24-1.16h-158.66Z" class="cls-2"/></g><g id="SPLINE"><path d="M295.54,245.11V109.01h-67.01v136.1c.18,10.7,7.12,31.26,33.5,31.26s33.32-20.57,33.5-31.26Z" class="cls-2"/></g><rect height="176.08" width="22.34" y="108.97" x="206.08" class="cls-2"/><rect height="176.07" width="2.45" y="108.97" x="216.02" class="cls-2"/><rect height="2.55" width="111.8" y="106.41" x="206.08" class="cls-2"/><line y2="106.53" x2="18.18" y1="284.91" x1="18.18" class="cls-2"/><rect height=".3" width="1.95" y="284.76" x="17.21" class="cls-6"/><rect height=".3" width="1.95" y="106.38" x="17.21" class="cls-6"/><path d="M8.97,206.01h.65v1.92l1.54.25c-.09-.1-.16-.22-.21-.36-.05-.14-.07-.29-.07-.46,0-.25.04-.47.13-.68.08-.21.2-.38.35-.53.15-.15.33-.27.54-.35.21-.08.44-.12.69-.12s.48.04.7.13c.21.09.4.21.55.36.15.16.27.34.36.56.08.21.13.45.13.71,0,.2-.03.39-.08.58s-.13.35-.23.5c-.1.15-.22.28-.36.39-.14.11-.3.19-.48.24l-.31-.63c.24-.07.43-.19.56-.39.14-.19.21-.42.21-.67,0-.15-.03-.29-.08-.41-.05-.13-.12-.23-.21-.33-.09-.09-.2-.16-.33-.21-.13-.05-.27-.08-.43-.08s-.3.03-.44.08c-.13.05-.25.13-.34.22s-.17.21-.22.34c-.05.13-.08.28-.08.44,0,.18.04.35.1.49.07.14.17.26.31.36l-.15.62-2.79-.47v-2.52Z"/><path d="M14.13,204c-.12.24-.29.44-.51.61-.22.17-.5.3-.82.39s-.69.14-1.09.14-.8-.05-1.15-.15c-.35-.1-.64-.24-.89-.43-.25-.18-.43-.41-.56-.67-.13-.26-.2-.55-.2-.88,0-.37.09-.7.27-.97.18-.27.43-.47.76-.59l.29.64c-.21.07-.37.18-.48.34-.11.16-.17.35-.17.56,0,.2.05.38.14.55s.23.31.4.44c.17.13.37.22.61.29s.49.1.77.1h.17c.06,0,.1,0,.15,0-.25-.08-.45-.23-.59-.45-.14-.22-.21-.48-.21-.79,0-.24.04-.46.12-.65.08-.2.19-.36.34-.5.15-.14.32-.25.52-.33.2-.08.42-.12.66-.12s.47.04.68.13c.21.08.38.2.53.35.14.15.26.32.34.53s.12.43.12.68c0,.3-.06.57-.18.81ZM13.56,202.84c-.05-.12-.12-.22-.21-.3-.09-.08-.19-.15-.31-.2-.12-.05-.26-.07-.41-.07s-.29.02-.41.07c-.12.05-.23.12-.32.2s-.16.19-.21.31-.07.25-.07.4.02.27.07.39.12.22.2.31c.09.09.19.15.31.2.12.05.25.07.4.07s.28-.03.41-.08.24-.12.34-.21.17-.2.22-.32c.05-.12.08-.26.08-.4s-.03-.26-.08-.38Z"/><path d="M9.12,198.03c.13-.25.32-.47.55-.65.23-.18.52-.32.85-.42.33-.1.69-.15,1.08-.15s.76.05,1.1.15.62.24.86.42c.24.18.43.4.56.65.13.25.2.52.2.83s-.07.57-.2.82-.32.47-.56.65c-.24.18-.53.32-.86.42-.33.1-.7.15-1.1.15s-.75-.05-1.08-.15c-.33-.1-.61-.24-.85-.42-.24-.18-.42-.4-.55-.65-.13-.25-.2-.53-.2-.83s.07-.58.2-.83ZM9.75,199.39c.1.16.23.29.41.41.18.11.38.2.63.27.24.07.51.1.81.1s.57-.03.82-.09c.25-.06.46-.15.64-.27.18-.12.32-.25.42-.41.1-.16.15-.33.15-.52s-.05-.37-.15-.53c-.1-.16-.24-.3-.42-.41-.18-.11-.39-.2-.64-.27-.25-.06-.52-.09-.82-.09s-.56.03-.81.09c-.25.06-.46.15-.63.26-.17.11-.31.25-.41.41-.1.16-.15.34-.15.53s.05.37.15.52Z"/><path d="M10.62,193.21h.67c-.24-.11-.42-.26-.54-.45-.12-.18-.18-.4-.18-.63,0-.26.07-.48.2-.67.14-.19.33-.32.59-.41-.26-.11-.45-.27-.59-.46-.14-.2-.2-.43-.2-.7,0-.38.12-.67.37-.88.25-.21.61-.31,1.07-.31h2.25v.7h-2.16c-.29,0-.52.07-.69.2-.17.13-.25.31-.25.54,0,.12.02.22.07.32.05.1.11.18.2.26.09.07.19.13.32.16.12.04.26.06.4.06h2.11v.7h-2.16c-.14,0-.27.02-.38.06-.12.04-.22.09-.3.15-.08.06-.14.14-.19.23-.04.09-.07.2-.07.31s.02.22.07.32c.05.1.12.18.21.25.09.07.2.12.32.17.12.04.26.06.41.06h2.09v.7h-3.64v-.68Z"/><path d="M10.62,187.02h.67c-.24-.11-.42-.26-.54-.45-.12-.18-.18-.4-.18-.63,0-.26.07-.48.2-.67.14-.19.33-.32.59-.41-.26-.11-.45-.27-.59-.46-.14-.2-.2-.43-.2-.7,0-.38.12-.67.37-.88.25-.21.61-.31,1.07-.31h2.25v.7h-2.16c-.29,0-.52.07-.69.2-.17.13-.25.31-.25.54,0,.12.02.22.07.32.05.1.11.18.2.26.09.07.19.13.32.16.12.04.26.06.4.06h2.11v.7h-2.16c-.14,0-.27.02-.38.06-.12.04-.22.09-.3.15-.08.06-.14.14-.19.23-.04.09-.07.2-.07.31s.02.22.07.32c.05.1.12.18.21.25.09.07.2.12.32.17.12.04.26.06.41.06h2.09v.7h-3.64v-.68Z"/><g id="LINE"><line y2="173.46" x2="341.86" y1="284.84" x1="341.86" class="cls-2"/><rect height=".3" width="1.95" y="284.69" x="340.88" class="cls-6"/><rect height=".3" width="1.95" y="173.31" x="340.88" class="cls-6"/></g><g id="MTEXT"><path d="M332.65,239.7h.55l.98.65c.06.04.1.07.15.1.04.03.08.06.13.09s.09.06.13.09.09.06.15.09c.02-.19.08-.37.18-.52s.21-.29.35-.41c.14-.12.3-.21.48-.27s.38-.09.59-.09c.24,0,.47.04.67.13.2.08.38.2.52.36.14.15.26.34.34.54s.12.44.12.69c0,.21-.03.4-.08.58-.05.18-.13.35-.23.49-.1.15-.22.28-.37.39-.14.11-.31.2-.49.26l-.31-.63c.24-.08.44-.22.58-.41.14-.19.21-.42.21-.67,0-.15-.02-.28-.07-.4-.05-.12-.11-.23-.2-.31-.09-.09-.19-.15-.31-.2-.12-.05-.26-.07-.41-.07s-.29.03-.42.08c-.13.06-.23.13-.32.22-.09.09-.16.21-.21.34-.05.13-.08.28-.08.44v.35l-.44.08-1.07-.72s-.09-.06-.12-.09c-.03-.03-.07-.05-.12-.08s-.08-.06-.12-.08c-.03-.03-.07-.06-.12-.09v2.18h-.65v-3.09Z"/><path d="M332.65,235.77h.65v1.92l1.54.25c-.09-.1-.16-.22-.21-.36-.05-.14-.07-.29-.07-.46,0-.25.04-.47.13-.68.08-.21.2-.38.35-.53.15-.15.33-.27.54-.35.21-.08.44-.12.69-.12s.48.04.7.13c.21.09.4.21.55.36.15.16.27.34.36.56.08.21.13.45.13.71,0,.2-.03.39-.08.58s-.13.35-.23.5c-.1.15-.22.28-.36.39-.14.11-.3.19-.48.24l-.31-.63c.24-.07.43-.19.56-.39.14-.19.21-.42.21-.67,0-.15-.03-.29-.08-.41-.05-.13-.12-.23-.21-.33-.09-.09-.2-.16-.33-.21-.13-.05-.27-.08-.43-.08s-.3.03-.44.08c-.13.05-.25.13-.34.22s-.17.21-.22.34c-.05.13-.08.28-.08.44,0,.18.04.35.1.49.07.14.17.26.31.36l-.15.62-2.79-.47v-2.52Z"/><path d="M332.79,232.03c.13-.25.32-.47.55-.65.23-.18.52-.32.85-.42.33-.1.69-.15,1.08-.15s.76.05,1.1.15.62.24.86.42c.24.18.43.4.56.65.13.25.2.52.2.83s-.07.57-.2.82-.32.47-.56.65c-.24.18-.53.32-.86.42-.33.1-.7.15-1.1.15s-.75-.05-1.08-.15c-.33-.1-.61-.24-.85-.42-.24-.18-.42-.4-.55-.65-.13-.25-.2-.53-.2-.83s.07-.58.2-.83ZM333.43,233.38c.1.16.23.29.41.41.18.11.38.2.63.27.24.07.51.1.81.1s.57-.03.82-.09c.25-.06.46-.15.64-.27.18-.12.32-.25.42-.41.1-.16.15-.33.15-.52s-.05-.37-.15-.53c-.1-.16-.24-.3-.42-.41-.18-.11-.39-.2-.64-.27-.25-.06-.52-.09-.82-.09s-.56.03-.81.09c-.25.06-.46.15-.63.26-.17.11-.31.25-.41.41-.1.16-.15.34-.15.53s.05.37.15.52Z"/><path d="M334.29,227.2h.67c-.24-.11-.42-.26-.54-.45-.12-.18-.18-.4-.18-.63,0-.26.07-.48.2-.67.14-.19.33-.32.59-.41-.26-.11-.45-.27-.59-.46-.14-.2-.2-.43-.2-.7,0-.38.12-.67.37-.88.25-.21.61-.31,1.07-.31h2.25v.7h-2.16c-.29,0-.52.07-.69.2-.17.13-.25.31-.25.54,0,.12.02.22.07.32.05.1.11.18.2.26.09.07.19.13.32.16.12.04.26.06.4.06h2.11v.7h-2.16c-.14,0-.27.02-.38.06-.12.04-.22.09-.3.15-.08.06-.14.14-.19.23-.04.09-.07.2-.07.31s.02.22.07.32c.05.1.12.18.21.25.09.07.2.12.32.17.12.04.26.06.41.06h2.09v.7h-3.64v-.68Z"/><path d="M334.29,221.02h.67c-.24-.11-.42-.26-.54-.45-.12-.18-.18-.4-.18-.63,0-.26.07-.48.2-.67.14-.19.33-.32.59-.41-.26-.11-.45-.27-.59-.46-.14-.2-.2-.43-.2-.7,0-.38.12-.67.37-.88.25-.21.61-.31,1.07-.31h2.25v.7h-2.16c-.29,0-.52.07-.69.2-.17.13-.25.31-.25.54,0,.12.02.22.07.32.05.1.11.18.2.26.09.07.19.13.32.16.12.04.26.06.4.06h2.11v.7h-2.16c-.14,0-.27.02-.38.06-.12.04-.22.09-.3.15-.08.06-.14.14-.19.23-.04.09-.07.2-.07.31s.02.22.07.32c.05.1.12.18.21.25.09.07.2.12.32.17.12.04.26.06.41.06h2.09v.7h-3.64v-.68Z"/></g><g id="LINE-2"><line y2="157.47" x2="518.32" y1="157.47" x1="357.49" class="cls-2"/><rect height="1.95" width=".3" y="156.49" x="357.34" class="cls-6"/><rect height="1.95" width=".3" y="156.49" x="518.17" class="cls-6"/></g><g id="MTEXT-2"><path d="M427.74,149.26v.65h-1.92l-.25,1.54c.1-.09.22-.16.36-.21.14-.05.29-.07.46-.07.25,0,.47.04.68.13.21.08.38.2.53.35.15.15.27.33.35.54.08.21.12.44.12.69s-.04.48-.13.7c-.09.21-.21.4-.36.55-.16.15-.34.27-.56.36-.21.08-.45.13-.71.13-.2,0-.39-.03-.58-.08s-.35-.13-.5-.23c-.15-.1-.28-.22-.39-.36-.11-.14-.19-.3-.24-.48l.63-.31c.07.24.19.43.39.56.19.14.42.21.67.21.15,0,.29-.03.41-.08.13-.05.23-.12.33-.21.09-.09.16-.2.21-.33.05-.13.08-.27.08-.43s-.03-.3-.08-.44c-.05-.13-.13-.25-.22-.34s-.21-.17-.34-.22c-.13-.05-.28-.08-.44-.08-.18,0-.35.04-.49.1-.14.07-.26.17-.36.31l-.62-.15.47-2.79h2.52Z"/><path d="M431.48,149.4c.25.13.47.32.65.55.18.23.32.52.42.85.1.33.15.69.15,1.08s-.05.76-.15,1.1-.24.62-.42.86c-.18.24-.4.43-.65.56-.25.13-.52.2-.83.2s-.57-.07-.82-.2-.47-.32-.65-.56c-.18-.24-.32-.53-.42-.86-.1-.33-.15-.7-.15-1.1s.05-.75.15-1.08c.1-.33.24-.61.42-.85.18-.24.4-.42.65-.55.25-.13.53-.2.83-.2s.58.07.83.2ZM430.13,150.04c-.16.1-.29.23-.41.41-.11.18-.2.38-.27.63-.07.24-.1.51-.1.81s.03.57.09.82c.06.25.15.46.27.64.12.18.25.32.41.42.16.1.33.15.52.15s.37-.05.53-.15c.16-.1.3-.24.41-.42.11-.18.2-.39.27-.64.06-.25.09-.52.09-.82s-.03-.56-.09-.81c-.06-.25-.15-.46-.26-.63-.11-.17-.25-.31-.41-.41-.16-.1-.34-.15-.53-.15s-.37.05-.52.15Z"/><path d="M436.36,149.26v.65h-1.92l-.25,1.54c.1-.09.22-.16.36-.21.14-.05.29-.07.46-.07.25,0,.47.04.68.13.21.08.38.2.53.35.15.15.27.33.35.54.08.21.12.44.12.69s-.04.48-.13.7c-.09.21-.21.4-.36.55-.16.15-.34.27-.56.36-.21.08-.45.13-.71.13-.2,0-.39-.03-.58-.08s-.35-.13-.5-.23c-.15-.1-.28-.22-.39-.36-.11-.14-.19-.3-.24-.48l.63-.31c.07.24.19.43.39.56.19.14.42.21.67.21.15,0,.29-.03.41-.08.13-.05.23-.12.33-.21.09-.09.16-.2.21-.33.05-.13.08-.27.08-.43s-.03-.3-.08-.44c-.05-.13-.13-.25-.22-.34s-.21-.17-.34-.22c-.13-.05-.28-.08-.44-.08-.18,0-.35.04-.49.1-.14.07-.26.17-.36.31l-.62-.15.47-2.79h2.52Z"/><path d="M440.29,150.9v.67c.11-.24.26-.42.45-.54.18-.12.4-.18.63-.18.26,0,.48.07.67.2.19.14.32.33.41.59.11-.26.27-.45.46-.59.2-.14.43-.2.7-.2.38,0,.67.12.88.37.21.25.31.61.31,1.07v2.25h-.7v-2.16c0-.29-.07-.52-.2-.69-.13-.17-.31-.25-.54-.25-.12,0-.22.02-.32.07-.1.05-.18.11-.26.2-.07.09-.13.19-.16.32-.04.12-.06.26-.06.4v2.11h-.7v-2.16c0-.14-.02-.27-.06-.38-.04-.12-.09-.22-.15-.3-.06-.08-.14-.14-.23-.19-.09-.04-.2-.07-.31-.07s-.22.02-.32.07c-.1.05-.18.12-.25.21-.07.09-.12.2-.17.32-.04.12-.06.26-.06.41v2.09h-.7v-3.64h.68Z"/><path d="M446.48,150.9v.67c.11-.24.26-.42.45-.54.18-.12.4-.18.63-.18.26,0,.48.07.67.2.19.14.32.33.41.59.11-.26.27-.45.46-.59.2-.14.43-.2.7-.2.38,0,.67.12.88.37.21.25.31.61.31,1.07v2.25h-.7v-2.16c0-.29-.07-.52-.2-.69-.13-.17-.31-.25-.54-.25-.12,0-.22.02-.32.07-.1.05-.18.11-.26.2-.07.09-.13.19-.16.32-.04.12-.06.26-.06.4v2.11h-.7v-2.16c0-.14-.02-.27-.06-.38-.04-.12-.09-.22-.15-.3-.06-.08-.14-.14-.23-.19-.09-.04-.2-.07-.31-.07s-.22.02-.32.07c-.1.05-.18.12-.25.21-.07.09-.12.2-.17.32-.04.12-.06.26-.06.41v2.09h-.7v-3.64h.68Z"/></g><line y2="261.44" x2="65.8" y1="110.75" x1="65.8" class="cls-2"/><line y2="268.08" x2="77.44" y1="110.75" x1="77.44" class="cls-2"/><line y2="272.09" x2="89.09" y1="110.75" x1="89.09" class="cls-2"/><line y2="274.44" x2="100.74" y1="110.75" x1="100.74" class="cls-2"/><line y2="274.44" x2="124.03" y1="110.75" x1="124.03" class="cls-2"/><line y2="275.16" x2="112.38" y1="110.75" x1="112.38" class="cls-2"/><line y2="272.09" x2="135.68" y1="110.75" x1="135.68" class="cls-2"/><line y2="268.08" x2="147.32" y1="110.75" x1="147.32" class="cls-2"/><line y2="261.44" x2="158.97" y1="110.75" x1="158.97" class="cls-2"/><rect height="176.08" width="22.34" y="108.96" x="170.62" class="cls-2"/><rect height="176.08" width="2.3" y="108.96" x="180.64" class="cls-2"/><rect height="176.08" width="22.34" y="108.96" x="31.81" class="cls-2"/><rect height="176.08" width="2.3" y="108.96" x="41.83" class="cls-2"/><g id="SPLINE-2"><path d="M170.62,108.99H54.15v136.23c.32,16.07,26.26,31.36,58.23,31.36s57.92-15.29,58.23-31.36V108.99Z" class="cls-2"/></g><rect height="2.55" width="161.14" y="106.41" x="31.85" class="cls-2"/><path d="M112.38,186.12c-14.84,0-26.46-6.82-26.46-15.53s11.62-15.53,26.46-15.53,26.46,6.82,26.46,15.53-11.62,15.53-26.46,15.53Z" class="cls-3"/><ellipse ry="13.94" rx="24.86" cy="170.59" cx="112.38" class="cls-4"/><ellipse ry="12.77" rx="23.46" cy="170.59" cx="112.38" class="cls-4"/><circle r="5.71" cy="253.98" cx="217.3" class="cls-4"/><path d="M214.16,252.95h.31s0,1.95,0,1.95h-.31s0-1.95,0-1.95Z" class="cls-5"/><path d="M216.08,254.23c0,.38-.32.69-.71.69-.39,0-.71-.31-.71-.69s.32-.69.71-.69.71.31.71.69ZM214.97,254.23c0,.23.18.41.4.41s.4-.18.4-.41c0-.23-.18-.41-.4-.41s-.4.18-.4.41Z" class="cls-5"/><path d="M217.56,254.23s0,.06,0,.07h-1.04c.03.21.19.34.42.34.16,0,.29-.07.35-.19l.27.1c-.1.23-.32.37-.62.37-.43,0-.74-.29-.74-.69,0-.4.29-.69.69-.69s.68.29.68.69ZM217.22,254.06c-.04-.15-.17-.24-.33-.24s-.29.1-.35.24h.68Z" class="cls-5"/><path d="M218.06,253.56v.05s.01.06.05.06c.03,0,.05-.01.08-.04.07-.06.16-.1.27-.1.13,0,.22.04.3.13.03.04.06.05.1.05.03,0,.05-.01.09-.05.09-.09.19-.13.32-.13.28,0,.44.2.44.53v.83s-.31,0-.31,0v-.79c0-.19-.09-.31-.24-.31-.16,0-.26.13-.26.33v.77s-.31,0-.31,0v-.79c0-.19-.09-.31-.24-.31s-.26.14-.26.34v.77s-.31,0-.31,0v-1.34s.29,0,.29,0Z" class="cls-5"/><path d="M221.07,254.07v.83s-.29,0-.29,0v-.09s-.01-.06-.05-.06c-.03,0-.05.01-.09.05-.09.09-.19.13-.32.13-.25,0-.42-.15-.42-.37,0-.23.18-.38.51-.44l.36-.06c-.02-.15-.13-.24-.31-.24-.15,0-.26.06-.3.19l-.27-.09c.07-.23.29-.38.57-.38.36,0,.62.22.62.54ZM220.48,254.35c-.18.03-.26.09-.26.19,0,.09.08.15.21.15.21,0,.34-.15.35-.39l-.3.05Z" class="cls-5"/><path d="M214.01,252.95h-1.33v1.95h.32v-1.22c0-.09.1-.13.17-.07l.51.51.2-.2-.51-.51c-.06-.06-.02-.17.07-.17h.57v-.29Z" class="cls-5"/><path d="M222.13,254.52c0,.23-.18.4-.42.4s-.42-.18-.42-.4c0-.23.18-.4.42-.4.23,0,.42.18.42.4ZM221.38,254.52c0,.18.14.33.33.33s.33-.14.33-.33-.14-.32-.33-.32-.33.14-.33.32ZM221.8,254.55s-.02.01-.02.03c0,0,0,.02.01.03l.1.13h-.1s-.12-.17-.12-.17v.17s-.09,0-.09,0v-.43s.16,0,.16,0c.09,0,.15.06.15.13,0,.05-.03.1-.09.11Z" class="cls-5"/><rect ry="2.07" rx="2.07" height="35.1" width="54.24" y="212.06" x="410.75" class="cls-2"/><rect ry="2.27" rx="2.27" height="39.12" width="58.35" y="210.03" x="408.73" class="cls-2"/></g></g></g></svg>