<svg viewBox="0 0 531.26 288" xmlns="http://www.w3.org/2000/svg"><defs><style>.cls-1, .cls-2 {
        stroke: #000;
      }

      .cls-1, .cls-2, .cls-3 {
        fill: none;
      }

      .cls-1, .cls-3 {
        stroke-linecap: round;
        stroke-linejoin: round;
        stroke-width: .3px;
      }

      .cls-4 {
        fill: #12100a;
      }

      .cls-2 {
        stroke-miterlimit: 10;
        stroke-width: .28px;
      }

      .cls-3 {
        stroke: #12100a;
      }</style></defs><g id="bases"><rect height="358.35" width="589.11" y="-33.95" x="-25.44" class="cls-2"/></g><g id="Urban"><g id="Plaza"><g id="espreguiçadeira_Sun_Louger"><g><g id="LINE"><g><line y2="25.39" x2="16.37" y1="168.79" x1="16.37" class="cls-3"/><rect height=".3" width="1.95" y="168.64" x="15.39" class="cls-4"/><rect height=".3" width="1.95" y="25.24" x="15.39" class="cls-4"/></g></g><g id="MTEXT"><g><path d="M7.16,109.42h5.29v.72h-4.54l.64,1.3h-.73l-.67-1.36v-.67Z"/><path d="M7.16,105.47h.65v1.92l1.54.25c-.09-.1-.16-.22-.21-.36-.05-.14-.07-.29-.07-.46,0-.25.04-.47.13-.68.08-.21.2-.38.35-.53.15-.15.33-.27.54-.35.21-.08.44-.12.69-.12s.48.04.7.13c.21.09.4.21.55.36.15.16.27.34.36.56.08.21.13.45.13.71,0,.2-.03.39-.08.58s-.13.35-.23.5c-.1.15-.22.28-.36.39-.14.11-.3.19-.48.24l-.31-.63c.24-.07.43-.19.56-.39.14-.19.21-.42.21-.67,0-.15-.03-.29-.08-.41-.05-.13-.12-.23-.21-.33-.09-.09-.2-.16-.33-.21-.13-.05-.27-.08-.43-.08s-.3.03-.44.08c-.13.05-.25.13-.34.22s-.17.21-.22.34c-.05.13-.08.28-.08.44,0,.18.04.35.1.49.07.14.17.26.31.36l-.15.62-2.79-.47v-2.52Z"/><path d="M7.16,101.53h5.29v.73h-4.36s.08.04.1.06c.03.02.06.04.09.07l2.02,1.35s.06.04.08.05.05.03.08.06v-3.2h.64v3.98h-.59l-3.35-2.22v-.87Z"/><path d="M12.44,99.68l-4.62-1.78v2.69h-.67v-3.5h.59l4.7,1.77v.83Z"/><path d="M8.8,93.66h.67c-.24-.11-.42-.26-.54-.45-.12-.18-.18-.4-.18-.63,0-.26.07-.48.2-.67.14-.19.33-.32.59-.41-.26-.11-.45-.27-.59-.46-.14-.2-.2-.43-.2-.7,0-.38.12-.67.37-.88.25-.21.61-.31,1.07-.31h2.25v.7h-2.16c-.29,0-.52.07-.69.2-.17.13-.25.31-.25.54,0,.12.02.22.07.32.05.1.11.18.2.26.09.07.19.13.32.16.12.04.26.06.4.06h2.11v.7h-2.16c-.14,0-.27.02-.38.06-.12.04-.22.09-.3.15-.08.06-.14.14-.19.23-.04.09-.07.2-.07.31s.02.22.07.32c.05.1.12.18.21.25.09.07.2.12.32.17.12.04.26.06.41.06h2.09v.7h-3.64v-.68Z"/><path d="M8.8,87.48h.67c-.24-.11-.42-.26-.54-.45-.12-.18-.18-.4-.18-.63,0-.26.07-.48.2-.67.14-.19.33-.32.59-.41-.26-.11-.45-.27-.59-.46-.14-.2-.2-.43-.2-.7,0-.38.12-.67.37-.88.25-.21.61-.31,1.07-.31h2.25v.7h-2.16c-.29,0-.52.07-.69.2-.17.13-.25.31-.25.54,0,.12.02.22.07.32.05.1.11.18.2.26.09.07.19.13.32.16.12.04.26.06.4.06h2.11v.7h-2.16c-.14,0-.27.02-.38.06-.12.04-.22.09-.3.15-.08.06-.14.14-.19.23-.04.09-.07.2-.07.31s.02.22.07.32c.05.1.12.18.21.25.09.07.2.12.32.17.12.04.26.06.41.06h2.09v.7h-3.64v-.68Z"/></g></g><g id="LINE-2"><g><line y2="15.59" x2="224.7" y1="15.59" x1="39.22" class="cls-3"/><rect height="1.95" width=".3" y="14.61" x="39.07" class="cls-4"/><rect height="1.95" width=".3" y="14.61" x="224.55" class="cls-4"/></g></g><g id="MTEXT-2"><g><path d="M118.37,6.44c.21.08.39.19.54.33.15.14.27.31.35.51.08.2.13.42.13.67,0,.14-.02.28-.05.42-.03.14-.08.28-.15.41-.07.14-.16.27-.27.42-.11.14-.24.29-.39.45l-1.31,1.35h2.29v.67h-3.32v-.59l1.79-1.85c.12-.12.22-.23.3-.33.08-.1.15-.21.2-.3.05-.1.09-.19.11-.29.02-.09.03-.19.03-.29,0-.15-.02-.28-.07-.4-.04-.12-.11-.23-.2-.32-.09-.09-.19-.16-.3-.21-.11-.05-.24-.07-.39-.07-.25,0-.47.08-.65.23-.18.15-.31.36-.39.63l-.67-.23c.12-.42.32-.74.62-.97s.66-.34,1.1-.34c.25,0,.48.04.69.12Z"/><path d="M122.91,6.52c.25.13.47.32.65.55.18.23.32.52.42.85.1.33.15.69.15,1.08s-.05.76-.15,1.1-.24.62-.42.86c-.18.24-.4.43-.65.56-.25.13-.52.2-.83.2s-.57-.07-.82-.2-.47-.32-.65-.56c-.18-.24-.32-.53-.42-.86-.1-.33-.15-.7-.15-1.1s.05-.75.15-1.08c.1-.33.24-.61.42-.85.18-.24.4-.42.65-.55.25-.13.53-.2.83-.2s.58.07.83.2ZM121.56,7.15c-.16.1-.29.23-.41.41-.11.18-.2.38-.27.63-.07.24-.1.51-.1.81s.03.57.09.82c.06.25.15.46.27.64.12.18.25.32.41.42.16.1.33.15.52.15s.37-.05.53-.15c.16-.1.3-.24.41-.42.11-.18.2-.39.27-.64.06-.25.09-.52.09-.82s-.03-.56-.09-.81c-.06-.25-.15-.46-.26-.63-.11-.17-.25-.31-.41-.41-.16-.1-.34-.15-.53-.15s-.37.05-.52.15Z"/><path d="M127.55,6.52c.25.13.47.32.65.55.18.23.32.52.42.85.1.33.15.69.15,1.08s-.05.76-.15,1.1-.24.62-.42.86c-.18.24-.4.43-.65.56-.25.13-.52.2-.83.2s-.57-.07-.82-.2-.47-.32-.65-.56c-.18-.24-.32-.53-.42-.86-.1-.33-.15-.7-.15-1.1s.05-.75.15-1.08c.1-.33.24-.61.42-.85.18-.24.4-.42.65-.55.25-.13.53-.2.83-.2s.58.07.83.2ZM126.19,7.15c-.16.1-.29.23-.41.41-.11.18-.2.38-.27.63-.07.24-.1.51-.1.81s.03.57.09.82c.06.25.15.46.27.64.12.18.25.32.41.42.16.1.33.15.52.15s.37-.05.53-.15c.16-.1.3-.24.41-.42.11-.18.2-.39.27-.64.06-.25.09-.52.09-.82s-.03-.56-.09-.81c-.06-.25-.15-.46-.26-.63-.11-.17-.25-.31-.41-.41-.16-.1-.34-.15-.53-.15s-.37.05-.52.15Z"/><path d="M132.18,6.52c.25.13.47.32.65.55.18.23.32.52.42.85.1.33.15.69.15,1.08s-.05.76-.15,1.1-.24.62-.42.86c-.18.24-.4.43-.65.56-.25.13-.52.2-.83.2s-.57-.07-.82-.2-.47-.32-.65-.56c-.18-.24-.32-.53-.42-.86-.1-.33-.15-.7-.15-1.1s.05-.75.15-1.08c.1-.33.24-.61.42-.85.18-.24.4-.42.65-.55.25-.13.53-.2.83-.2s.58.07.83.2ZM130.83,7.15c-.16.1-.29.23-.41.41-.11.18-.2.38-.27.63-.07.24-.1.51-.1.81s.03.57.09.82c.06.25.15.46.27.64.12.18.25.32.41.42.16.1.33.15.52.15s.37-.05.53-.15c.16-.1.3-.24.41-.42.11-.18.2-.39.27-.64.06-.25.09-.52.09-.82s-.03-.56-.09-.81c-.06-.25-.15-.46-.26-.63-.11-.17-.25-.31-.41-.41-.16-.1-.34-.15-.53-.15s-.37.05-.52.15Z"/><path d="M137.01,8.02v.67c.11-.24.26-.42.45-.54.18-.12.4-.18.63-.18.26,0,.48.07.67.2.19.14.32.33.41.59.11-.26.27-.45.46-.59.2-.14.43-.2.7-.2.38,0,.67.12.88.37.21.25.31.61.31,1.07v2.25h-.7v-2.16c0-.29-.07-.52-.2-.69-.13-.17-.31-.25-.54-.25-.12,0-.22.02-.32.07-.1.05-.18.11-.26.2-.07.09-.13.19-.16.32-.04.12-.06.26-.06.4v2.11h-.7v-2.16c0-.14-.02-.27-.06-.38-.04-.12-.09-.22-.15-.3-.06-.08-.14-.14-.23-.19-.09-.04-.2-.07-.31-.07s-.22.02-.32.07c-.1.05-.18.12-.25.21-.07.09-.12.2-.17.32-.04.12-.06.26-.06.41v2.09h-.7v-3.64h.68Z"/><path d="M143.2,8.02v.67c.11-.24.26-.42.45-.54.18-.12.4-.18.63-.18.26,0,.48.07.67.2.19.14.32.33.41.59.11-.26.27-.45.46-.59.2-.14.43-.2.7-.2.38,0,.67.12.88.37.21.25.31.61.31,1.07v2.25h-.7v-2.16c0-.29-.07-.52-.2-.69-.13-.17-.31-.25-.54-.25-.12,0-.22.02-.32.07-.1.05-.18.11-.26.2-.07.09-.13.19-.16.32-.04.12-.06.26-.06.4v2.11h-.7v-2.16c0-.14-.02-.27-.06-.38-.04-.12-.09-.22-.15-.3-.06-.08-.14-.14-.23-.19-.09-.04-.2-.07-.31-.07s-.22.02-.32.07c-.1.05-.18.12-.25.21-.07.09-.12.2-.17.32-.04.12-.06.26-.06.41v2.09h-.7v-3.64h.68Z"/></g></g><g id="LINE-3"><g><line y2="282.97" x2="16.37" y1="194.47" x1="16.37" class="cls-3"/><rect height=".3" width="1.95" y="194.32" x="15.39" class="cls-4"/><rect height=".3" width="1.95" y="282.82" x="15.39" class="cls-4"/></g></g><g id="MTEXT-3"><g><path d="M7.28,246.15c.12-.24.29-.44.51-.61.22-.17.5-.3.82-.39.32-.09.69-.14,1.09-.14s.8.05,1.15.15c.35.1.64.24.89.43s.43.41.56.67c.13.26.2.55.2.88,0,.37-.09.7-.27.97-.18.27-.43.47-.76.59l-.29-.64c.21-.07.37-.18.48-.34.11-.16.17-.35.17-.56,0-.2-.05-.38-.14-.55-.09-.17-.23-.31-.4-.44-.17-.13-.37-.22-.61-.29-.24-.07-.49-.1-.77-.1h-.17c-.06,0-.1,0-.15,0,.25.08.45.23.59.45.14.22.21.48.21.79,0,.24-.04.46-.12.65-.08.2-.19.36-.34.5-.14.14-.32.25-.52.33-.2.08-.42.12-.66.12s-.47-.04-.68-.13c-.21-.08-.38-.2-.52-.35-.14-.15-.26-.32-.34-.53-.08-.21-.12-.43-.12-.68,0-.3.06-.57.18-.81ZM7.85,247.32c.05.12.12.22.21.3.09.08.19.15.31.2.12.05.26.07.41.07s.29-.02.41-.07c.12-.05.23-.12.32-.2.09-.09.16-.19.21-.31.05-.12.07-.25.07-.4s-.02-.27-.07-.39c-.05-.12-.12-.22-.2-.31-.09-.09-.19-.15-.31-.2-.12-.05-.25-.07-.4-.07s-.28.03-.41.08c-.13.05-.24.13-.34.21-.1.09-.17.2-.22.32s-.08.26-.08.4.03.26.08.38Z"/><path d="M7.16,241.34h.65v1.92l1.54.25c-.09-.1-.16-.22-.21-.36-.05-.14-.07-.29-.07-.46,0-.25.04-.47.13-.68.08-.21.2-.38.35-.53.15-.15.33-.27.54-.35.21-.08.44-.12.69-.12s.48.04.7.13c.21.09.4.21.55.36.15.16.27.34.36.56.08.21.13.45.13.71,0,.2-.03.39-.08.58s-.13.35-.23.5c-.1.15-.22.28-.36.39-.14.11-.3.19-.48.24l-.31-.63c.24-.07.43-.19.56-.39.14-.19.21-.42.21-.67,0-.15-.03-.29-.08-.41-.05-.13-.12-.23-.21-.33-.09-.09-.2-.16-.33-.21-.13-.05-.27-.08-.43-.08s-.3.03-.44.08c-.13.05-.25.13-.34.22s-.17.21-.22.34c-.05.13-.08.28-.08.44,0,.18.04.35.1.49.07.14.17.26.31.36l-.15.62-2.79-.47v-2.52Z"/><path d="M12.32,239.34c-.12.24-.29.44-.51.61-.22.17-.5.3-.82.39s-.69.14-1.09.14-.8-.05-1.15-.15c-.35-.1-.64-.24-.89-.43-.25-.18-.43-.41-.56-.67-.13-.26-.2-.55-.2-.88,0-.37.09-.7.27-.97.18-.27.43-.47.76-.59l.29.64c-.21.07-.37.18-.48.34-.11.16-.17.35-.17.56,0,.2.05.38.14.55s.23.31.4.44c.17.13.37.22.61.29s.49.1.77.1h.17c.06,0,.1,0,.15,0-.25-.08-.45-.23-.59-.45-.14-.22-.21-.48-.21-.79,0-.24.04-.46.12-.65.08-.2.19-.36.34-.5.15-.14.32-.25.52-.33.2-.08.42-.12.66-.12s.47.04.68.13c.21.08.38.2.53.35.14.15.26.32.34.53s.12.43.12.68c0,.3-.06.57-.18.81ZM11.75,238.17c-.05-.12-.12-.22-.21-.3-.09-.08-.19-.15-.31-.2-.12-.05-.26-.07-.41-.07s-.29.02-.41.07c-.12.05-.23.12-.32.2s-.16.19-.21.31-.07.25-.07.4.02.27.07.39.12.22.2.31c.09.09.19.15.31.2.12.05.25.07.4.07s.28-.03.41-.08.24-.12.34-.21.17-.2.22-.32c.05-.12.08-.26.08-.4s-.03-.26-.08-.38Z"/><path d="M8.8,233.17h.67c-.24-.11-.42-.26-.54-.45-.12-.18-.18-.4-.18-.63,0-.26.07-.48.2-.67.14-.19.33-.32.59-.41-.26-.11-.45-.27-.59-.46-.14-.2-.2-.43-.2-.7,0-.38.12-.67.37-.88.25-.21.61-.31,1.07-.31h2.25v.7h-2.16c-.29,0-.52.07-.69.2-.17.13-.25.31-.25.54,0,.12.02.22.07.32.05.1.11.18.2.26.09.07.19.13.32.16.12.04.26.06.4.06h2.11v.7h-2.16c-.14,0-.27.02-.38.06-.12.04-.22.09-.3.15-.08.06-.14.14-.19.23-.04.09-.07.2-.07.31s.02.22.07.32c.05.1.12.18.21.25.09.07.2.12.32.17.12.04.26.06.41.06h2.09v.7h-3.64v-.68Z"/><path d="M8.8,226.99h.67c-.24-.11-.42-.26-.54-.45-.12-.18-.18-.4-.18-.63,0-.26.07-.48.2-.67.14-.19.33-.32.59-.41-.26-.11-.45-.27-.59-.46-.14-.2-.2-.43-.2-.7,0-.38.12-.67.37-.88.25-.21.61-.31,1.07-.31h2.25v.7h-2.16c-.29,0-.52.07-.69.2-.17.13-.25.31-.25.54,0,.12.02.22.07.32.05.1.11.18.2.26.09.07.19.13.32.16.12.04.26.06.4.06h2.11v.7h-2.16c-.14,0-.27.02-.38.06-.12.04-.22.09-.3.15-.08.06-.14.14-.19.23-.04.09-.07.2-.07.31s.02.22.07.32c.05.1.12.18.21.25.09.07.2.12.32.17.12.04.26.06.41.06h2.09v.7h-3.64v-.68Z"/></g></g><path d="M46.97,259.33h0l-.03.03h-.03l-.07.03h-.16M46.97,258.55v.79M46.68,259.4l-.1.03M46.58,259.43h-.07M46.51,281.29v1.84M39.99,281.29v1.84M46.51,283.12h-6.52M46.51,260.38v20.91M39.99,260.38v20.91M39.99,258.55v1.84M46.51,258.55v1.84M133.58,259.33v.03M132.24,259.33v.03M130.34,259.33v.03M131.68,259.33v.03M132.24,258.84h-.56M132.24,258.84v.49M133.58,258.68v.66M130.34,258.68v.66M131.68,258.84v.49M130.6,258.74h-.13l-.07-.03h-.07v-.03M130.34,258.68v-.13M133.32,258.74h-2.72M133.58,258.68v.03h-.07l-.07.03h-.13M133.58,258.55v.13M224.84,254.35h0v.69M39.07,255.04v-.69M224.84,258.45h0l-.03.03h-.07l-.07.03h-.16l-.1.03h-.13M224.84,255.04v3.41M39.63,258.55h-.1l-.13-.03h-.16l-.07-.03h-.07l-.03-.03M39.07,258.45v-3.41M224.29,258.55H39.63M224.84,255.04h0M39.07,255.04h0M39.07,245.83v-.1M224.84,245.73h0v.1M39.07,245.83h0M224.84,245.83h0M224.84,245.83v.13M39.07,245.96v-.13M224.84,251.21h0v.69M39.07,251.9v-.69M224.84,251.9v.36M39.07,252.26v-.36M224.84,251.9h0M39.07,251.9h0M39.07,249.8v-.69M224.84,249.11h0v.69M224.84,249.8v.36M39.07,250.16v-.36M39.07,249.8h0M224.84,249.8h0M224.84,235.61h0M39.07,235.61h0M224.84,238.98v1.74M39.07,240.72v-1.74M39.07,238.98v-3.38M224.84,235.61v3.38M224.84,238.98h0M39.07,238.98h0M39.07,205.07h0M224.84,205.07h0M224.84,208.44v1.7M39.07,210.15v-1.7M39.07,208.41v-3.34M224.84,205.07v3.34M224.84,208.41h0v.03M39.07,208.44h0v-.03M39.07,210.15h0M224.84,210.15h0M224.84,213.52v1.74M39.07,215.26v-1.74M224.84,210.15v3.38M39.07,213.52v-3.38M224.84,213.52h0M39.07,213.52h0M39.07,194.88h0M224.84,194.88h0M39.07,199.96v-1.7M224.84,198.25v1.7M39.07,198.25v-3.38M224.84,194.88v3.38M224.84,198.25h0M39.07,198.25h0M224.84,245.96h0v.69M39.07,246.65v-.69M39.07,247.01v-.36M224.84,246.65v.36M224.84,246.65h0M39.07,246.65h0M39.07,230.53h0M224.84,230.53h0M224.84,233.9v1.7M39.07,235.61v-1.7M224.84,230.53v3.34M39.07,233.87v-3.34M39.07,233.9h0v-.03M224.84,233.87h0v.03M224.84,240.72h0M39.07,240.72h0M39.07,245.73v-1.67M224.84,244.06v1.67M39.07,244.06v-3.34M224.84,240.72v3.34M224.84,244.06h0M39.07,244.06h0M39.07,220.34h0M224.84,220.34h0M224.84,223.71v1.7M39.07,225.42v-1.7M39.07,223.71v-3.38M224.84,220.34v3.38M224.84,223.71h0M39.07,223.71h0M39.07,215.26h0M224.84,215.26h0M39.07,220.34v-1.74M224.84,218.6v1.74M39.07,218.6v-3.34M224.84,215.26v3.34M39.07,218.6h0M224.84,218.6h0M224.84,199.96h0v.03M39.07,199.99h0v-.03M224.84,203.33v1.74M39.07,205.07v-1.74M39.07,203.33v-3.34M224.84,199.99v3.34M224.84,203.33h0M39.07,203.33h0M39.07,250.85v-.69M224.84,250.16h0v.69M39.07,251.21v-.36M224.84,250.85v.36M224.84,250.85h0M39.07,250.85h0M224.84,253.3h0v.69M39.07,253.99v-.69M39.07,254.35v-.36M39.07,253.99h0M224.84,253.99h0M224.84,247.01h0v.69M39.07,247.7v-.69M39.07,248.06v-.36M224.84,247.7v.36M224.84,247.7h0M39.07,247.7h0M224.84,248.06h0v.69M39.07,248.75v-.69M39.07,249.11v-.36M224.84,248.75v.36M39.07,248.75h0M224.84,248.75h0M39.07,252.94v-.69M224.84,252.26h0v.69M39.07,253.3v-.36M39.07,252.94h0M224.84,252.94h0M224.84,225.42h0v.03M39.07,225.45v-.03M224.84,228.79v1.74M39.07,230.53v-1.74M39.07,228.79v-3.34M224.84,225.45v3.34M224.84,228.79h0M39.07,228.79h0M216.95,259.33h0l.03.03h.07l.03.03h.16M216.95,258.55v.79M217.24,259.4l.1.03M217.34,259.43h.07M223.93,258.55v1.84M217.4,258.55v1.84M223.93,260.38v20.91M217.4,260.38v20.91M223.93,281.29v1.84M217.4,281.29v1.84M217.4,283.12h6.52M132.24,259.37h1.34M130.34,259.37h1.34M131.68,259.14h.56M224.84,254.35v-.1l-.03-.1-.07-.1-.07-.1-.07-.07-.1-.07-.1-.03h-.13M39.63,253.8h-.1l-.13.03-.1.07-.07.07-.07.1-.07.1-.03.1v.1M224.29,253.8H39.63M224.29,250.65H39.63M224.84,251.21v-.1l-.03-.1-.07-.1-.07-.1-.07-.07-.1-.07-.1-.03h-.13M39.63,250.65h-.1l-.13.03-.1.07-.07.07-.07.1-.07.1-.03.1v.1M39.63,248.55h-.1l-.13.03-.1.07-.07.07-.07.1-.07.1-.03.1v.1M224.29,248.55H39.63M224.84,249.11v-.1l-.03-.1-.07-.1-.07-.1-.07-.07-.1-.07-.1-.03h-.13M224.29,235.05H39.63M224.84,235.61v-.1l-.03-.1-.07-.1-.07-.1-.07-.07-.1-.03-.1-.03-.13-.03M39.63,235.05l-.1.03-.13.03-.1.03-.07.07-.07.1-.07.1-.03.1v.1M224.29,204.51H39.63M39.63,204.51h-.1l-.13.03-.1.07-.07.07-.07.07-.07.1-.03.13v.1M224.84,205.07v-.1l-.03-.13-.07-.1-.07-.07-.07-.07-.1-.07-.1-.03h-.13M224.29,209.59H39.63M39.63,209.59l-.1.03-.13.03-.1.03-.07.07-.07.1-.07.1-.03.1v.1M224.84,210.15v-.1l-.03-.1-.07-.1-.07-.1-.07-.07-.1-.03-.1-.03-.13-.03M224.29,194.32H39.63M39.63,194.32h-.1l-.13.03-.1.07-.07.07-.07.1-.07.1-.03.1v.1M224.84,194.88v-.1l-.03-.1-.07-.1-.07-.1-.07-.07-.1-.07-.1-.03h-.13M224.29,245.41H39.63M224.84,245.96v-.1l-.03-.1-.07-.1-.07-.1-.07-.07-.1-.07-.1-.03h-.13M39.63,245.41h-.1l-.13.03-.1.07-.07.07-.07.1-.07.1-.03.1v.1M224.29,229.97H39.63M39.63,229.97h-.1l-.13.03-.1.07-.07.07-.07.07-.07.1-.03.13v.1M224.84,230.53v-.1l-.03-.13-.07-.1-.07-.07-.07-.07-.1-.07-.1-.03h-.13M224.29,240.16H39.63M224.84,240.72v-.13l-.03-.1-.07-.1-.07-.07-.07-.1-.1-.03-.1-.03h-.13M39.63,240.16h-.1l-.13.03-.1.03-.07.1-.07.07-.07.1-.03.1v.13M224.29,219.78H39.63M39.63,219.78h-.1l-.13.03-.1.07-.07.07-.07.1-.07.1-.03.1v.1M224.84,220.34v-.1l-.03-.1-.07-.1-.07-.1-.07-.07-.1-.07-.1-.03h-.13M224.29,214.7H39.63M39.63,214.7h-.1l-.13.03-.1.07-.07.07-.07.07-.07.1-.03.1v.13M224.84,215.26v-.13l-.03-.1-.07-.1-.07-.07-.07-.07-.1-.07-.1-.03h-.13M224.29,199.4H39.63M224.84,199.96v-.1l-.03-.1-.07-.1-.07-.1-.07-.07-.1-.03-.1-.03-.13-.03M39.63,199.4l-.1.03-.13.03-.1.03-.07.07-.07.1-.07.1-.03.1v.1M39.63,249.6h-.1l-.13.03-.1.07-.07.07-.07.1-.07.1-.03.1v.1M224.84,250.16v-.1l-.03-.1-.07-.1-.07-.1-.07-.07-.1-.07-.1-.03h-.13M224.29,249.6H39.63M224.84,253.3v-.1l-.03-.1-.07-.1-.07-.1-.07-.07-.1-.07-.1-.03h-.13M39.63,252.75h-.1l-.13.03-.1.07-.07.07-.07.1-.07.1-.03.1v.1M224.29,252.75H39.63M224.29,246.46H39.63M224.84,247.01v-.1l-.03-.1-.07-.1-.07-.1-.07-.07-.1-.07-.1-.03h-.13M39.63,246.46h-.1l-.13.03-.1.07-.07.07-.07.1-.07.1-.03.1v.1M224.84,248.06v-.1l-.03-.1-.07-.1-.07-.1-.07-.07-.1-.07-.1-.03h-.13M224.29,247.5H39.63M39.63,247.5h-.1l-.13.03-.1.07-.07.07-.07.1-.07.1-.03.1v.1M224.29,251.7H39.63M39.63,251.7h-.1l-.13.03-.1.07-.07.07-.07.1-.07.1-.03.1v.1M224.84,252.26v-.1l-.03-.1-.07-.1-.07-.1-.07-.07-.1-.07-.1-.03h-.13M224.29,224.86H39.63M224.84,225.42v-.1l-.03-.1-.07-.1-.07-.1-.07-.07-.1-.03-.1-.03-.13-.03M39.63,224.86l-.1.03-.13.03-.1.03-.07.07-.07.1-.07.1-.03.1v.1" class="cls-1"/><path d="M39.99,167.99v.95M46.51,168.94h-6.52M46.51,167.99v.95M46.51,162.25v.07l.03.03M46.74,73.78h0l-.07.03M46.68,73.81v.03M46.51,156.32h0v.07h.03v.03M46.74,79.64h0l-.07.03M46.68,79.68h0M46.51,150.36v.07l.03.03M46.51,144.43h0v.07h.03v.03M46.74,85.51h0l-.07.03M46.68,85.54h0M46.51,138.46v.07l.03.03v.03M46.74,91.34v.03l-.07.03M46.68,91.41h0M46.51,132.53h0v.07h.03v.03M46.51,126.57v.1h.03v.03M46.74,97.21h0l-.07.07M46.68,97.27h0M46.51,120.64v.07l.03.03M46.74,103.07h0l-.07.03M46.68,103.11l-.1.07M46.58,103.17l-.03.03M39.99,103.07v.07M39.99,97.21v.07M39.99,91.34v.07M39.99,85.51v.03M39.99,79.64v.03M39.99,73.78v.07M39.99,67.62v.36M46.51,103.07v.07M46.51,97.21v.07M46.51,91.34v.07M46.51,85.51v.03M46.51,79.64v.03M46.51,73.78v.07M39.99,103.14v.07M46.51,103.14v.07M46.51,108.45v.07M39.99,162.06v.29M39.99,156.09v.33M39.99,150.16v.29M39.99,144.23v.29M39.99,138.27v.33M39.99,132.34v.29M39.99,126.37v.33M39.99,120.44v.29M46.51,120.44v.29M46.51,162.06v.29M46.51,156.09v.33M46.51,150.16v.29M46.51,144.23v.29M46.51,138.27v.33M46.51,132.34v.29M46.51,126.37v.33M46.51,114.74h0v.03h.03v.03M39.99,108.45v.79M46.51,108.45v.79M46.51,108.45h0M46.51,114.48h0v.03M39.99,114.48v.33M46.51,114.48v.33M46.51,114.48h0M46.97,25.54v.46M46.68,25.28l.07.03.07.03.03.03.07.03.03.03v.03l.03.03v.03M46.64,25.28h.03M46.35,25.25h-5.9M39.99,25.48l.03-.03v-.07l.07-.03.03-.03.1-.03.07-.03h.16M39.99,26v-.52M46.35,25.25h.26l.03.03M46.35,26h-5.9M217.4,67.98v-.36M217.96,67.62v.36M46.51,67.62v.36M45.96,67.98v-.36M130.34,67.98v-.36M130.34,73.84v-.07M130.34,79.68v-.03M130.34,85.54v-.03M130.34,91.41v-.07M130.34,97.27v-.07M130.34,103.2v-.13M133.58,67.98v-.36M133.58,73.84v-.07M133.58,79.68v-.03M133.58,85.54v-.03M133.58,91.41v-.07M133.58,97.27v-.07M133.58,103.2v-.13M133.58,114.8v-.03M133.58,120.74v-.29M133.58,126.7v-.33M133.58,132.63v-.29M133.58,138.59v-.33M133.58,144.53v-.29M133.58,150.46v-.29M133.58,156.42v-.33M133.58,162.35v-.29M130.34,114.8v-.03M130.34,120.74v-.29M130.34,126.7v-.33M130.34,132.63v-.29M130.34,138.59v-.33M130.34,144.53v-.29M130.34,150.46v-.29M130.34,156.42v-.33M130.34,162.35v-.29M130.34,109.23v-.79M130.34,114.61v-.13M133.58,109.23v-.79M133.58,114.61v-.13M130.34,114.77v-.16M133.58,114.77v-.16M132.24,67.62v.36M131.68,67.62v.36M224.84,167.43h0M39.07,167.43h0M39.07,163.5v-.59M39.07,162.91v-.1l.03-.1.07-.1.07-.1.07-.07.1-.03.13-.03.1-.03M224.84,162.91v.59M224.29,162.35l.13.03.1.03.1.03.07.07.07.1.07.1.03.1v.1M224.29,162.35H39.63M224.84,163.5h0v.03M39.07,163.53h0v-.03M224.84,163.53v3.9M39.07,167.43v-3.9M224.84,97.83h0M39.07,97.83h0M224.84,101.7v.82M224.84,102.52v.13l-.03.1-.07.1-.07.07-.07.07-.1.07-.1.03h-.13M39.63,103.07h184.65M39.07,102.52v-.82M39.63,103.07h-.1l-.13-.03-.1-.07-.07-.07-.07-.07-.07-.1-.03-.1v-.13M224.84,101.7h0M39.07,101.7h0M39.07,101.7v-3.87M224.84,97.83v3.87M224.84,86.1h0M39.07,86.1h0M224.84,90v.82M224.84,90.82v.1l-.03.1-.07.1-.07.1-.07.07-.1.03-.1.03h-.13M39.63,91.34h184.65M39.07,90.82v-.82M39.63,91.34h-.1l-.13-.03-.1-.03-.07-.07-.07-.1-.07-.1-.03-.1v-.1M39.07,90h0v-.03M224.84,89.96h0v.03M39.07,89.96v-3.87M224.84,86.1v3.87M224.84,74.4h0M39.07,74.4h0M39.07,79.09v-.82M39.63,79.64h-.1l-.13-.03-.1-.07-.07-.07-.07-.07-.07-.1-.03-.1v-.13M224.84,78.27v.82M224.84,79.09v.13l-.03.1-.07.1-.07.07-.07.07-.1.07-.1.03h-.13M39.63,79.64h184.65M39.07,78.27h0M224.84,78.27h0M224.84,74.4v3.87M39.07,78.27v-3.87M39.07,68.53h0M224.84,68.53h0M39.63,73.78h184.65M39.07,73.25v-.85M39.63,73.78h-.1l-.13-.03-.1-.07-.07-.07-.07-.07-.07-.1-.03-.1v-.1M224.84,72.4v.85M224.84,73.25v.1l-.03.1-.07.1-.07.07-.07.07-.1.07-.1.03h-.13M224.84,72.4h0M39.07,72.4h0M39.07,72.4v-3.87M224.84,68.53v3.87M224.84,80.23h0v.03M39.07,80.27h0v-.03M39.63,85.51h184.65M39.07,84.95v-.82M39.63,85.51l-.1-.03-.13-.03-.1-.03-.07-.07-.07-.1-.07-.1-.03-.1v-.1M224.84,84.13v.82M224.84,84.95v.1l-.03.1-.07.1-.07.1-.07.07-.1.03-.1.03-.13.03M224.84,84.1v.03M39.07,84.13h0v-.03M224.84,80.27v3.83M39.07,84.1v-3.83M39.07,91.96h0M224.84,91.96h0M39.63,97.21h184.65M39.07,96.68v-.85M39.63,97.21h-.1l-.13-.03-.1-.07-.07-.07-.07-.07-.07-.1-.03-.1v-.1M224.84,95.83v.85M224.84,96.68v.1l-.03.1-.07.1-.07.07-.07.07-.1.07-.1.03h-.13M39.07,95.83h0M224.84,95.83h0M224.84,91.96v3.87M39.07,95.83v-3.87M39.07,107.89v-.13M39.63,108.45h-.1l-.13-.03-.1-.07-.07-.07-.07-.07-.07-.1-.03-.1v-.13M39.63,108.45h184.65M224.84,107.76v.13M224.84,107.89v.13l-.03.1-.07.1-.07.07-.07.07-.1.07-.1.03h-.13M224.84,103.76h0M39.07,103.76h0M224.84,107.73h0v.03M39.07,107.76h0v-.03M39.07,107.73v-3.97M224.84,103.76v3.97M39.63,114.48h184.65M39.07,113.92v-.13M39.63,114.48h-.1l-.13-.03-.1-.07-.07-.07-.07-.07-.07-.1-.03-.1v-.13M224.84,113.79v.13M224.84,113.92v.13l-.03.1-.07.1-.07.07-.07.07-.1.07-.1.03h-.13M224.84,109.79h0M39.07,109.79h0M39.07,113.79h0v-.03M224.84,113.76v.03M224.84,109.79v3.97M39.07,113.76v-3.97M224.84,149.6h0M39.07,149.6h0M224.29,144.53H39.63M224.84,145.08v.59M224.29,144.53h.13l.1.03.1.07.07.07.07.07.07.1.03.1v.13M39.07,145.67v-.59M39.07,145.08v-.13l.03-.1.07-.1.07-.07.07-.07.1-.07.13-.03h.1M39.07,145.67h0M224.84,145.67h0M39.07,149.6v-3.93M224.84,145.67v3.93M224.84,63.82v1.08M39.07,64.9v-1.08M224.84,64.9v2.16M39.07,67.06v-2.16M39.07,64.9h0M224.84,64.9h0M39.07,137.71h0M224.84,137.71h0M39.07,133.78v-.59M39.07,133.19v-.1l.03-.13.07-.07.07-.1.07-.07.1-.07.13-.03h.1M224.29,132.63H39.63M224.84,133.19v.59M224.29,132.63h.13l.1.03.1.07.07.07.07.1.07.07.03.13v.1M39.07,133.78h0M224.84,133.78h0M39.07,137.71v-3.93M224.84,133.78v3.93M224.84,54.08v1.08M39.07,55.16v-1.08M39.07,57.33v-2.16M224.84,55.16v2.16M39.07,55.16h0M224.84,55.16h0M224.84,34.62v1.08M39.07,35.7v-1.08M224.84,35.7v2.16M39.07,37.86v-2.16M224.84,35.7h0M39.07,35.7h0M224.84,37.86v1.08M39.07,38.94v-1.08M224.84,38.94v2.16M39.07,41.11v-2.16M39.07,38.94h0M224.84,38.94h0M39.63,26h184.65M39.07,26.33v-.07l.03-.07.07-.07.07-.03.07-.03.1-.03h.13l.1-.03M39.07,29.21v-2.88M224.29,26l.13.03h.1l.1.03.07.03.07.03.07.07.03.07v.07M224.84,26.33v2.88M224.84,29.21v2.16M39.07,31.37v-2.16M224.84,29.21h0M39.07,29.21h0M39.07,119.88h0M224.84,119.88h0M39.07,115.95v-.62M39.07,115.33v-.1l.03-.1.07-.1.07-.07.07-.07.1-.07.13-.03h.1M224.84,115.33v.62M224.29,114.8h.13l.1.03.1.07.07.07.07.07.07.1.03.1v.1M224.29,114.8H39.63M224.84,115.95h0M39.07,115.95h0M224.84,115.95v3.93M39.07,119.88v-3.93M39.07,51.92v-1.08M224.84,50.84v1.08M224.84,51.92v2.16M39.07,54.08v-2.16M224.84,51.92h0M39.07,51.92h0M224.84,57.33v1.08M39.07,58.41v-1.08M39.07,60.57v-2.16M224.84,58.41v2.16M39.07,58.41h0M224.84,58.41h0M224.84,44.35v1.08M39.07,45.43v-1.08M224.84,45.43v2.16M39.07,47.59v-2.16M39.07,45.43h0M224.84,45.43h0M39.07,42.19v-1.08M224.84,41.11v1.08M224.84,42.19v2.16M39.07,44.35v-2.16M39.07,42.19h0M224.84,42.19h0M39.07,32.46v-1.08M224.84,31.37v1.08M224.84,32.46v2.16M39.07,34.62v-2.16M224.84,32.46h0M39.07,32.46h0M224.84,143.64h0v.03M39.07,143.67h0v-.03M39.07,139.74v-.62M39.07,139.12v-.1l.03-.1.07-.1.07-.1.07-.07.1-.03.13-.03h.1M224.29,138.59H39.63M224.84,139.12v.62M224.29,138.59h.13l.1.03.1.03.07.07.07.1.07.1.03.1v.1M224.84,139.74h0M39.07,139.74h0M39.07,143.64v-3.9M224.84,139.74v3.9M224.84,161.5h0M39.07,161.5h0M39.07,157.57v-.59M39.07,156.98v-.13l.03-.1.07-.1.07-.07.07-.07.1-.07.13-.03h.1M224.84,156.98v.59M224.29,156.42h.13l.1.03.1.07.07.07.07.07.07.1.03.1v.13M224.29,156.42H39.63M39.07,157.57h0M224.84,157.57h0M224.84,157.57v3.93M39.07,161.5v-3.93M39.07,125.81h0M224.84,125.81h0M39.07,121.88v-.59M39.07,121.29v-.1l.03-.1.07-.1.07-.1.07-.07.1-.07h.13l.1-.03M224.29,120.74H39.63M224.84,121.29v.59M224.29,120.74l.13.03h.1l.1.07.07.07.07.1.07.1.03.1v.1M224.84,121.88h0M39.07,121.88h0M39.07,125.81v-3.93M224.84,121.88v3.93M39.07,131.78h0v-.03M224.84,131.75v.03M224.29,126.7H39.63M224.84,127.22v.62M224.29,126.7h.13l.1.03.1.03.07.1.07.07.07.1.03.1v.1M39.07,127.85v-.62M39.07,127.22v-.1l.03-.1.07-.1.07-.07.07-.1.1-.03.13-.03h.1M39.07,127.85h0M224.84,127.85h0M39.07,131.75v-3.9M224.84,127.85v3.9M224.84,155.54h0M39.07,155.54h0M224.84,151.01v.59M224.29,150.46l.13.03.1.03.1.03.07.07.07.1.07.1.03.1v.1M39.07,151.6v-.59M39.07,151.01v-.1l.03-.1.07-.1.07-.1.07-.07.1-.03.13-.03.1-.03M224.29,150.46H39.63M224.84,151.6h0v.03M39.07,151.64h0v-.03M224.84,151.64v3.9M39.07,155.54v-3.9M224.84,47.59v1.08M39.07,48.68v-1.08M224.84,48.68v2.16M39.07,50.84v-2.16M39.07,48.68h0M224.84,48.68h0M224.84,60.57v1.08M39.07,61.65v-1.08M224.84,61.65v2.16M39.07,63.82v-2.16M39.07,61.65h0M224.84,61.65h0M223.93,167.99v.95M217.4,167.99v.95M217.4,168.94h6.52M217.4,162.25v.1h-.03M217.17,73.78h0l.07.03M217.24,73.81v.03M217.4,156.32h0v.07l-.03.03M217.17,79.64h0l.07.03M217.24,79.68h0M217.4,150.36v.1h-.03M217.4,144.43h0v.07l-.03.03M217.17,85.51h0l.07.03M217.24,85.54h0M217.4,138.46v.1h-.03v.03M217.17,91.34v.03l.07.03M217.24,91.41h0M217.4,132.53h0v.07l-.03.03M217.4,126.57v.1h-.03v.03M217.17,97.21h0l.07.07M217.24,97.27h0M217.4,120.64v.1h-.03M217.17,103.07h0l.07.03M217.24,103.11l.1.07M217.34,103.17l.03.03M223.93,103.07v.07M223.93,97.21v.07M223.93,91.34v.07M223.93,85.51v.03M223.93,79.64v.03M223.93,73.78v.07M223.93,67.62v.36M217.4,73.78v.07M217.4,79.64v.03M217.4,85.51v.03M217.4,91.34v.07M217.4,97.21v.07M217.4,103.07v.07M223.93,103.14v.07M217.4,103.14v.07M217.4,108.45v.07M223.93,162.06v.29M223.93,156.09v.33M223.93,150.16v.29M223.93,144.23v.29M223.93,138.27v.33M223.93,132.34v.29M223.93,126.37v.33M223.93,120.44v.29M217.4,120.44v.29M217.4,126.37v.33M217.4,132.34v.29M217.4,138.27v.33M217.4,144.23v.29M217.4,150.16v.29M217.4,156.09v.33M217.4,162.06v.29M217.4,114.74h0v.03h-.03v.03M223.93,108.45v.79M217.4,108.45h0M217.4,108.45v.79M217.4,114.48h0v.03M217.4,114.48v.33M223.93,114.48v.33M217.4,114.48h0M217.24,25.28l-.07.03-.07.03-.03.03-.03.03-.03.03-.03.03-.03.03v.03M216.95,25.54v.46M217.27,25.28h-.03M223.93,26v-.52M223.93,25.48v-.03l-.03-.07-.07-.03-.03-.03-.07-.03-.1-.03h-.16M217.57,25.25h5.9M217.57,26h5.9M217.57,25.25h-.26l-.03.03M39.63,167.99h184.65M224.29,167.99h.13l.1-.03.1-.03.07-.1.07-.07.07-.1.03-.1v-.13M39.07,167.43v.13l.03.1.07.1.07.07.07.1.1.03.13.03h.1M224.29,97.27H39.63M224.84,97.83v-.13l-.03-.1-.07-.1-.07-.07-.07-.07-.1-.07-.1-.03h-.13M39.63,97.27h-.1l-.13.03-.1.07-.07.07-.07.07-.07.1-.03.1v.13M224.29,85.54H39.63M224.84,86.1v-.1l-.03-.1-.07-.1-.07-.1-.07-.07-.1-.03-.1-.03-.13-.03M39.63,85.54l-.1.03-.13.03-.1.03-.07.07-.07.1-.07.1-.03.1v.1M224.29,73.84H39.63M224.84,74.4v-.13l-.03-.1-.07-.1-.07-.07-.07-.07-.1-.07-.1-.03h-.13M39.63,73.84h-.1l-.13.03-.1.07-.07.07-.07.07-.07.1-.03.1v.13M224.29,67.98H39.63M39.63,67.98h-.1l-.13.03-.1.07-.07.07-.07.07-.07.1-.03.13v.1M224.84,68.53v-.1l-.03-.13-.07-.1-.07-.07-.07-.07-.1-.07-.1-.03h-.13M224.29,79.68H39.63M224.84,80.23v-.1l-.03-.1-.07-.1-.07-.1-.07-.07-.1-.03-.1-.03-.13-.03M39.63,79.68l-.1.03-.13.03-.1.03-.07.07-.07.1-.07.1-.03.1v.1M224.29,91.41H39.63M39.63,91.41h-.1l-.13.03-.1.07-.07.07-.07.1-.07.1-.03.1v.1M224.84,91.96v-.1l-.03-.1-.07-.1-.07-.1-.07-.07-.1-.07-.1-.03h-.13M224.29,103.2H39.63M224.84,103.76v-.1l-.03-.13-.07-.1-.07-.07-.07-.07-.1-.07-.1-.03h-.13M39.63,103.2h-.1l-.13.03-.1.07-.07.07-.07.07-.07.1-.03.13v.1M224.29,109.23H39.63M224.84,109.79v-.1l-.03-.13-.07-.07-.07-.1-.07-.07-.1-.07-.1-.03h-.13M39.63,109.23h-.1l-.13.03-.1.07-.07.07-.07.1-.07.07-.03.13v.1M39.63,150.16h184.65M224.29,150.16h.13l.1-.03.1-.07.07-.07.07-.1.07-.07.03-.13v-.1M39.07,149.6v.1l.03.13.07.07.07.1.07.07.1.07.13.03h.1M39.63,67.62h184.65M224.29,67.62l.13-.03.1-.03.1-.03.07-.07.07-.1.07-.1.03-.1v-.1M39.07,67.06v.1l.03.1.07.1.07.1.07.07.1.03.13.03.1.03M39.63,138.27h184.65M39.07,137.71v.1l.03.13.07.1.07.07.07.07.1.07.13.03h.1M224.29,138.27h.13l.1-.03.1-.07.07-.07.07-.07.07-.1.03-.13v-.1M39.63,57.88h184.65M224.29,57.88l.13-.03.1-.03.1-.03.07-.07.07-.1.07-.1.03-.1v-.1M39.07,57.33v.1l.03.1.07.1.07.1.07.07.1.03.13.03.1.03M39.63,38.42h184.65M224.29,38.42l.13-.03.1-.03.1-.03.07-.07.07-.1.07-.1.03-.1v-.1M39.07,37.86v.1l.03.1.07.1.07.1.07.07.1.03.13.03.1.03M39.63,41.66h184.65M224.29,41.66l.13-.03.1-.03.1-.03.07-.07.07-.1.07-.1.03-.1v-.1M39.07,41.11v.1l.03.1.07.1.07.1.07.07.1.03.13.03.1.03M39.63,31.93h184.65M224.29,31.93l.13-.03.1-.03.1-.03.07-.07.07-.1.07-.1.03-.1v-.1M39.07,31.37v.1l.03.1.07.1.07.1.07.07.1.03.13.03.1.03M39.63,120.44h184.65M39.07,119.88v.1l.03.1.07.1.07.1.07.07.1.03.13.03.1.03M224.29,120.44l.13-.03.1-.03.1-.03.07-.07.07-.1.07-.1.03-.1v-.1M39.63,54.64h184.65M224.29,54.64l.13-.03.1-.03.1-.03.07-.07.07-.1.07-.1.03-.1v-.1M39.07,54.08v.1l.03.1.07.1.07.1.07.07.1.03.13.03.1.03M39.63,61.13h184.65M39.07,60.57v.1l.03.1.07.1.07.1.07.07.1.03.13.03.1.03M224.29,61.13l.13-.03.1-.03.1-.03.07-.07.07-.1.07-.1.03-.1v-.1M39.63,48.15h184.65M224.29,48.15l.13-.03.1-.03.1-.03.07-.07.07-.1.07-.1.03-.1v-.1M39.07,47.59v.1l.03.1.07.1.07.1.07.07.1.03.13.03.1.03M39.63,44.91h184.65M39.07,44.35v.1l.03.1.07.1.07.1.07.07.1.03.13.03.1.03M224.29,44.91l.13-.03.1-.03.1-.03.07-.07.07-.1.07-.1.03-.1v-.1M39.63,35.18h184.65M39.07,34.62v.1l.03.1.07.1.07.1.07.07.1.03.13.03.1.03M224.29,35.18l.13-.03.1-.03.1-.03.07-.07.07-.1.07-.1.03-.1v-.1M39.63,144.23h184.65M224.29,144.23l.13-.03.1-.03.1-.03.07-.07.07-.1.07-.1.03-.1v-.1M39.07,143.67v.1l.03.1.07.1.07.1.07.07.1.03.13.03.1.03M39.63,162.06h184.65M224.29,162.06h.13l.1-.03.1-.07.07-.07.07-.1.07-.1.03-.1v-.1M39.07,161.5v.1l.03.1.07.1.07.1.07.07.1.07.13.03h.1M39.63,126.37h184.65M39.07,125.81v.13l.03.1.07.1.07.07.07.07.1.07.13.03h.1M224.29,126.37h.13l.1-.03.1-.07.07-.07.07-.07.07-.1.03-.1v-.13M39.63,132.34h184.65M39.07,131.78v.1l.03.1.07.1.07.1.07.07.1.03.13.03.1.03M224.29,132.34l.13-.03.1-.03.1-.03.07-.07.07-.1.07-.1.03-.1v-.1M39.63,156.09h184.65M224.29,156.09h.13l.1-.03.1-.03.07-.1.07-.07.07-.1.03-.1v-.13M39.07,155.54v.13l.03.1.07.1.07.07.07.1.1.03.13.03h.1M39.63,51.4h184.65M224.29,51.4l.13-.03.1-.03.1-.03.07-.07.07-.1.07-.1.03-.1v-.1M39.07,50.84v.1l.03.1.07.1.07.1.07.07.1.03.13.03.1.03M39.63,64.37h184.65M224.29,64.37l.13-.03.1-.03.1-.03.07-.07.07-.1.07-.1.03-.1v-.1M39.07,63.82v.1l.03.1.07.1.07.1.07.07.1.03.13.03.1.03" class="cls-1"/><g><path d="M381.17,239.96l7.25,41.31c0,1.02-.83,1.85-1.85,1.85h-122.59c-1.01,0-1.83-.82-1.83-1.83v-20.84c0-1.05.81-1.93,1.86-2.01l51.87-9.11c.31-.05.62-.07.92-.06l10.57.48c.31.01.62.06.93.14l35.94,9c.53.13,1.09-.09,1.39-.56l39.45-62.1.79.49-26.05,40.93" class="cls-1"/><path d="M380.41,241.17l7.08,39.97c-.01.96-.61,1.09-1.61,1.09l-121.85-.02c-.51,0-.92-.42-.92-.92v-20.96c.2-1.12.95-.86,4.36-1.49l48.57-8.56c.24-.04.48-.06.72-.05l10.55.42c.25.01.5.05.74.11l36.29,9.1c1.31.11,1.71-.65,1.93-.93l13.55-21.26" class="cls-1"/><path d="M263.8,259.54c.14.62.17,1.44.7,1.87.14.11.3.19.47.22.33.06.67-.04,1-.1l.27-.05.68-.12.86-.15,1.03-.18,1.19-.21,1.34-.24,1.47-.26c.53-.09,1.06-.19,1.59-.28l1.7-.3,1.79-.32,1.87-.33,1.94-.34,2-.35,2.04-.36,2.08-.37,2.1-.37c.7-.12,1.4-.25,2.1-.37.7-.12,1.4-.25,2.1-.37s1.38-.24,2.08-.37c.68-.12,1.36-.24,2.05-.36s1.33-.23,2-.35,1.3-.23,1.95-.34l1.88-.33c.6-.11,1.2-.21,1.79-.32l1.7-.3c.53-.09,1.06-.19,1.59-.28l1.47-.26,1.34-.24,1.2-.21,1.04-.18.87-.15.69-.12.49-.09.35-.06,10.68.46c.79.2,1.58.39,2.36.59,2,.5,4,.99,6,1.49,2.66.66,5.33,1.33,7.99,1.99,2.78.69,5.56,1.38,8.34,2.08,2.35.59,4.7,1.17,7.05,1.76,1.56.39,3.12.85,4.7,1.19.79.17,1.62.11,2.37-.18,1.33-.51,2.02-1.62,2.75-2.76.52-.82,1.04-1.63,1.56-2.45,1.49-2.33,2.97-4.66,4.46-6.99,1.38-2.16,2.76-4.32,4.13-6.48.46-.72.91-1.43,1.37-2.15l.72-1.18.24-.37.63-.98c.3-.47.6-.95.91-1.42.36-.56.71-1.12,1.07-1.67.37-.58.74-1.16,1.11-1.75.35-.55.7-1.09,1.05-1.64.29-.45.58-.9.86-1.35.22-.34.44-.68.65-1.02.19-.31.34-.65.23-1.02-.18-.64-.95-.99-1.47-1.32" class="cls-1"/><g><g id="ARC"><path d="M263.87,258.42l-.6-3.27c-.05-.26.1-.52.35-.61,1.27-.48,2.61-.73,3.97-.73.27,0,.49.19.54.45l.6,3.27" class="cls-1"/></g><g id="ARC-2"><path d="M269.81,257.35l-.6-3.27c-.05-.26.1-.52.35-.61,1.27-.48,2.61-.73,3.97-.73.27,0,.49.19.54.45l.6,3.27" class="cls-1"/></g><g id="ARC-3"><path d="M275.72,256.28l-.6-3.27c-.05-.26.1-.52.35-.61,1.27-.48,2.61-.73,3.97-.73.27,0,.49.19.54.45l.6,3.27" class="cls-1"/></g><g id="ARC-4"><path d="M281.77,255.31l-.6-3.27c-.05-.26.1-.52.35-.61,1.27-.48,2.61-.73,3.97-.73.27,0,.49.19.54.45l.6,3.27" class="cls-1"/></g><g id="ARC-5"><path d="M287.61,254.23l-.6-3.27c-.05-.26.1-.52.35-.61,1.27-.48,2.61-.73,3.97-.73.27,0,.49.19.54.45l.6,3.27" class="cls-1"/></g><g id="ARC-6"><path d="M293.59,253.22l-.6-3.27c-.05-.26.1-.52.35-.61,1.27-.48,2.61-.73,3.97-.73.27,0,.49.19.54.45l.6,3.27" class="cls-1"/></g><g id="ARC-7"><path d="M299.61,252.18l-.6-3.27c-.05-.26.1-.52.35-.61,1.27-.48,2.61-.73,3.97-.73.27,0,.49.19.54.45l.6,3.27" class="cls-1"/></g><g id="ARC-8"><path d="M305.53,251.07l-.6-3.27c-.05-.26.1-.52.35-.61,1.27-.48,2.61-.73,3.97-.73.27,0,.49.19.54.45l.6,3.27" class="cls-1"/></g><g id="ARC-9"><path d="M311.42,250.05l-.6-3.27c-.05-.26.1-.52.35-.61,1.27-.48,2.61-.73,3.97-.73.27,0,.49.19.54.45l.6,3.27" class="cls-1"/></g><g id="ARC-10"><path d="M316.72,249.14l.19-3.32c.01-.26.22-.48.48-.51,1.35-.16,2.71-.09,4.03.23.26.06.43.3.42.56l-.19,3.32" class="cls-1"/></g><g id="ARC-11"><path d="M322.83,249.38l.19-3.32c.01-.26.22-.48.48-.51,1.35-.16,2.71-.09,4.03.23.26.06.43.3.42.56l-.19,3.32" class="cls-1"/></g><g id="ARC-12"><path d="M328.22,249.75l.83-3.22c.07-.26.31-.43.57-.41,1.35.1,2.68.44,3.91,1.01.24.11.37.38.3.63l-.83,3.22" class="cls-1"/></g><g id="ARC-13"><path d="M334.04,251.19l.83-3.22c.07-.26.31-.43.57-.41,1.35.1,2.68.44,3.91,1.01.24.11.37.38.3.63l-.83,3.22" class="cls-1"/></g><g id="ARC-14"><path d="M339.96,252.61l.83-3.22c.07-.26.31-.43.57-.41,1.35.1,2.68.44,3.91,1.01.24.11.37.38.3.63l-.83,3.22" class="cls-1"/></g><g id="ARC-15"><path d="M345.77,254.09l.83-3.22c.07-.26.31-.43.57-.41,1.35.1,2.68.44,3.91,1.01.24.11.37.38.3.63l-.83,3.22" class="cls-1"/></g><g id="ARC-16"><path d="M351.64,255.58l.83-3.22c.07-.26.31-.43.57-.41,1.35.1,2.68.44,3.91,1.01.24.11.37.38.3.63l-.83,3.22" class="cls-1"/></g><g id="ARC-17"><path d="M357.53,257.03l.83-3.22c.07-.26.31-.43.57-.41,1.35.1,2.68.44,3.91,1.01.24.11.37.38.3.63l-.83,3.22" class="cls-1"/></g><g id="ARC-18"><path d="M366.68,256.54l-2.79-1.8c-.22-.14-.31-.43-.21-.67.52-1.25,1.26-2.4,2.18-3.4.18-.19.47-.23.7-.09l2.79,1.8" class="cls-1"/></g><g id="ARC-19"><path d="M370,251.43l-2.84-1.72c-.23-.14-.32-.42-.23-.66.49-1.27,1.2-2.44,2.09-3.45.18-.2.47-.24.69-.11l2.84,1.72" class="cls-1"/></g><g id="ARC-20"><path d="M373.15,246.27l-2.8-1.79c-.22-.14-.31-.42-.21-.67.52-1.25,1.25-2.41,2.17-3.41.18-.19.47-.23.7-.09l2.8,1.79" class="cls-1"/></g><g id="ARC-21"><path d="M376.45,241.2l-2.81-1.78c-.22-.14-.31-.42-.21-.67.51-1.26,1.24-2.41,2.16-3.41.18-.2.47-.23.7-.09l2.81,1.78" class="cls-1"/></g><g id="ARC-22"><path d="M379.7,236.12l-2.8-1.79c-.22-.14-.31-.42-.21-.67.52-1.25,1.25-2.41,2.17-3.41.18-.19.47-.23.7-.09l2.8,1.79" class="cls-1"/></g><g id="ARC-23"><path d="M383,230.97l-2.84-1.72c-.23-.14-.32-.42-.23-.66.49-1.27,1.2-2.44,2.09-3.45.18-.2.47-.24.69-.11l2.84,1.72" class="cls-1"/></g><g id="ARC-24"><path d="M386.22,225.91l-2.81-1.77c-.22-.14-.31-.42-.21-.67.51-1.26,1.24-2.41,2.16-3.42.18-.2.47-.24.7-.09l2.81,1.77" class="cls-1"/></g><g id="ARC-25"><path d="M389.47,220.8l-2.81-1.77c-.22-.14-.31-.42-.21-.67.51-1.26,1.24-2.41,2.16-3.42.18-.2.47-.24.7-.09l2.81,1.77" class="cls-1"/></g><g id="ARC-26"><path d="M392.65,215.73l-2.81-1.77c-.22-.14-.31-.42-.21-.67.51-1.26,1.24-2.41,2.16-3.42.18-.2.47-.24.7-.09l2.81,1.77" class="cls-1"/></g><g id="ARC-27"><path d="M395.92,210.66l-2.81-1.77c-.22-.14-.31-.42-.21-.67.51-1.26,1.24-2.41,2.16-3.42.18-.2.47-.24.7-.09l2.81,1.77" class="cls-1"/></g><g id="ARC-28"><path d="M399.15,205.52l-2.81-1.77c-.22-.14-.31-.42-.21-.67.51-1.26,1.24-2.41,2.16-3.42.18-.2.47-.24.7-.09l2.81,1.77" class="cls-1"/></g><g id="ARC-29"><path d="M402.41,200.39l-2.81-1.77c-.22-.14-.31-.42-.21-.67.51-1.26,1.24-2.41,2.16-3.42.18-.2.47-.24.7-.09l2.81,1.77" class="cls-1"/></g><rect transform="translate(-41.49 51.62) rotate(-10.29)" height="1.86" width="1.86" y="255.34" x="265.06" class="cls-1"/><rect transform="translate(-41.21 52.67) rotate(-10.29)" height="1.86" width="1.86" y="254.28" x="270.99" class="cls-1"/><rect transform="translate(-40.92 53.72) rotate(-10.29)" height="1.86" width="1.86" y="253.23" x="276.97" class="cls-1"/><rect transform="translate(-40.65 54.76) rotate(-10.29)" height="1.86" width="1.86" y="252.22" x="282.89" class="cls-1"/><rect transform="translate(-40.37 55.81) rotate(-10.29)" height="1.86" width="1.86" y="251.18" x="288.85" class="cls-1"/><rect transform="translate(-40.08 56.85) rotate(-10.29)" height="1.86" width="1.86" y="250.12" x="294.78" class="cls-1"/><rect transform="translate(-39.79 57.9) rotate(-10.29)" height="1.86" width="1.86" y="249.04" x="300.75" class="cls-1"/><rect transform="translate(-39.51 58.94) rotate(-10.29)" height="1.86" width="1.86" y="248.02" x="306.68" class="cls-1"/><rect transform="translate(-39.23 59.98) rotate(-10.29)" height="1.86" width="1.86" y="246.98" x="312.63" class="cls-1"/><rect transform="translate(11.56 -14.23) rotate(2.6)" height="1.86" width="1.86" y="246.6" x="318.42" class="cls-1"/><rect transform="translate(11.57 -14.5) rotate(2.6)" height="1.86" width="1.86" y="246.85" x="324.45" class="cls-1"/><rect transform="translate(72.62 -74.83) rotate(14.47)" height="1.86" width="1.86" y="247.71" x="330.12" class="cls-1"/><rect transform="translate(73.17 -76.24) rotate(14.47)" height="1.86" width="1.86" y="249.16" x="335.97" class="cls-1"/><rect transform="translate(73.72 -77.66) rotate(14.47)" height="1.86" width="1.86" y="250.61" x="341.83" class="cls-1"/><rect transform="translate(74.27 -79.08) rotate(14.47)" height="1.86" width="1.86" y="252.08" x="347.69" class="cls-1"/><rect transform="translate(74.83 -80.5) rotate(14.47)" height="1.86" width="1.86" y="253.56" x="353.56" class="cls-1"/><rect transform="translate(75.37 -81.91) rotate(14.47)" height="1.86" width="1.86" y="255.01" x="359.4" class="cls-1"/><rect transform="translate(205.45 -162.06) rotate(34.15)" height="1.86" width="1.86" y="252.52" x="365.63" class="cls-1"/><rect transform="translate(192.17 -160.15) rotate(32.62)" height="1.86" width="1.86" y="247.41" x="368.86" class="cls-1"/><rect transform="translate(199.43 -166.84) rotate(33.95)" height="1.86" width="1.86" y="242.35" x="372.1" class="cls-1"/><rect transform="translate(195.49 -168.81) rotate(33.72)" height="1.86" width="1.86" y="237.23" x="375.35" class="cls-1"/><rect transform="translate(194.81 -172.21) rotate(33.95)" height="1.86" width="1.86" y="232.1" x="378.58" class="cls-1"/><rect transform="translate(183.25 -170.36) rotate(32.62)" height="1.86" width="1.86" y="227.07" x="381.85" class="cls-1"/><rect transform="translate(181.01 -172.91) rotate(32.62)" height="1.86" width="1.86" y="221.96" x="385.09" class="cls-1"/><rect transform="translate(178.78 -175.46) rotate(32.62)" height="1.86" width="1.86" y="216.88" x="388.33" class="cls-1"/><rect transform="translate(176.54 -178.02) rotate(32.62)" height="1.86" width="1.86" y="211.78" x="391.58" class="cls-1"/><rect transform="translate(174.3 -180.57) rotate(32.62)" height="1.86" width="1.86" y="206.67" x="394.81" class="cls-1"/><rect transform="translate(172.03 -183.07) rotate(32.62)" height="1.86" width="1.86" y="201.55" x="397.96" class="cls-1"/><rect transform="translate(169.84 -185.67) rotate(32.62)" height="1.86" width="1.86" y="196.49" x="401.31" class="cls-1"/></g></g></g></g></g></g></svg>