<svg viewBox="0 0 531.27 288" xmlns:xlink="http://www.w3.org/1999/xlink" xmlns="http://www.w3.org/2000/svg" id="Camada_2"><defs><style>.cls-1,.cls-2{fill:none;}.cls-2{stroke:#000;stroke-miterlimit:10;stroke-width:.3px;}</style><symbol viewBox="0 0 531.27 288" id="fundo_transparente"><rect height="288" width="531.27" x="0" class="cls-1"/></symbol></defs><g id="RePlastic"><g id="banco_Core_1300"><use xlink:href="#fundo_transparente" height="288" width="531.27"/><rect height="84.76" width="10.35" y="54.11" x="50.29" class="cls-2"/><rect height="84.76" width="2.29" y="54.11" x="71.05" class="cls-2"/><path d="M96.47,49.16v94.73c0,.22-.22.44-.44.44h-9.61c-.22,0-.37-.22-.37-.44V49.16c0-.22.15-.44.37-.44h9.61c.22,0,.44.22.44.44Z" class="cls-2"/><rect height="84.76" width="2.29" y="54.11" x="83.76" class="cls-2"/><rect height="84.76" width="2.29" y="54.11" x="96.47" class="cls-2"/><rect height="84.76" width="2.29" y="54.11" x="109.18" class="cls-2"/><path d="M134.6,49.16v94.73c0,.22-.15.44-.37.44h-9.61c-.22,0-.44-.22-.44-.44V49.16c0-.22.22-.44.44-.44h9.61c.22,0,.37.22.37.44Z" class="cls-2"/><rect height="84.76" width="2.29" y="54.11" x="121.89" class="cls-2"/><rect height="84.76" width="2.29" y="54.11" x="134.6" class="cls-2"/><path d="M150.04,48.72h9.61c.24,0,.44.2.44.44v94.73c0,.24-.2.44-.44.44h-9.61c-.24,0-.44-.2-.44-.44V49.16c0-.24.2-.44.44-.44Z" class="cls-2"/><rect height="84.76" width="2.29" y="54.11" x="147.31" class="cls-2"/><rect height="84.76" width="2.29" y="54.11" x="160.09" class="cls-2"/><rect height="84.76" width="2.29" y="54.11" x="172.8" class="cls-2"/><rect height="84.76" width="2.29" y="54.11" x="185.51" class="cls-2"/><rect height="84.76" width="2.29" y="54.11" x="198.22" class="cls-2"/><rect height="84.76" width="2.29" y="54.11" x="210.93" class="cls-2"/><rect height="84.76" width="2.29" y="54.11" x="223.64" class="cls-2"/><rect height="84.76" width="2.29" y="54.11" x="236.35" class="cls-2"/><rect height="84.76" width="2.29" y="54.11" x="249.06" class="cls-2"/><rect height="84.76" width="2.22" y="54.11" x="261.84" class="cls-2"/><rect height="84.76" width="8.35" y="54.11" x="274.55" class="cls-2"/><path d="M71.05,49.16v94.73c0,.22-.22.44-.44.44h-9.61c-.22,0-.37-.22-.37-.44V49.16c0-.22.15-.44.37-.44h9.61c.22,0,.44.22.44.44Z" class="cls-2"/><path d="M83.76,49.16v94.73c0,.22-.22.44-.44.44h-9.61c-.22,0-.37-.22-.37-.44V49.16c0-.22.15-.44.37-.44h9.61c.22,0,.44.22.44.44Z" class="cls-2"/><path d="M109.18,49.16v94.73c0,.22-.15.44-.37.44h-9.68c-.22,0-.37-.22-.37-.44V49.16c0-.22.15-.44.37-.44h9.68c.22,0,.37.22.37.44Z" class="cls-2"/><path d="M121.89,49.16v94.73c0,.22-.15.44-.37.44h-9.61c-.22,0-.44-.22-.44-.44V49.16c0-.22.22-.44.44-.44h9.61c.22,0,.37.22.37.44Z" class="cls-2"/><path d="M147.31,49.16v94.73c0,.22-.15.44-.37.44h-9.61c-.22,0-.44-.22-.44-.44V49.16c0-.22.22-.44.44-.44h9.61c.22,0,.37.22.37.44Z" class="cls-2"/><path d="M172.8,49.16v94.73c0,.22-.22.44-.44.44h-9.61c-.22,0-.37-.22-.37-.44V49.16c0-.22.15-.44.37-.44h9.61c.22,0,.44.22.44.44Z" class="cls-2"/><path d="M185.51,49.16v94.73c0,.22-.22.44-.44.44h-9.61c-.22,0-.37-.22-.37-.44V49.16c0-.22.15-.44.37-.44h9.61c.22,0,.44.22.44.44Z" class="cls-2"/><path d="M198.22,49.16v94.73c0,.22-.22.44-.44.44h-9.61c-.22,0-.37-.22-.37-.44V49.16c0-.22.15-.44.37-.44h9.61c.22,0,.44.22.44.44Z" class="cls-2"/><path d="M210.93,49.16v94.73c0,.22-.15.44-.44.44h-9.61c-.22,0-.37-.22-.37-.44V49.16c0-.22.15-.44.37-.44h9.61c.29,0,.44.22.44.44Z" class="cls-2"/><path d="M223.64,49.16v94.73c0,.22-.15.44-.37.44h-9.61c-.3,0-.44-.22-.44-.44V49.16c0-.22.15-.44.44-.44h9.61c.22,0,.37.22.37.44Z" class="cls-2"/><path d="M236.35,49.16v94.73c0,.22-.15.44-.37.44h-9.61c-.22,0-.44-.22-.44-.44V49.16c0-.22.22-.44.44-.44h9.61c.22,0,.37.22.37.44Z" class="cls-2"/><path d="M249.06,49.16v94.73c0,.22-.15.44-.37.44h-9.61c-.22,0-.44-.22-.44-.44V49.16c0-.22.22-.44.44-.44h9.61c.22,0,.37.22.37.44Z" class="cls-2"/><path d="M251.79,48.72h9.61c.24,0,.44.2.44.44v94.73c0,.24-.2.44-.44.44h-9.61c-.24,0-.44-.2-.44-.44V49.16c0-.24.2-.44.44-.44Z" class="cls-2"/><path d="M264.5,48.72h9.61c.24,0,.44.2.44.44v94.73c0,.24-.2.44-.44.44h-9.61c-.24,0-.44-.2-.44-.44V49.16c0-.24.2-.44.44-.44Z" class="cls-2"/><rect transform="translate(136.65 56.03) rotate(90)" ry=".41" rx=".41" height="19.73" width="96.06" y="86.48" x="-7.72" class="cls-2"/><rect transform="translate(389.23 -196.54) rotate(90)" ry=".41" rx=".41" height="19.73" width="96.06" y="86.48" x="244.85" class="cls-2"/><path d="M283.05,187.85v14.63H50.21v-14.63h10.42v8.13c0,.22.15.37.37.37h9.61c.22,0,.37-.15.37-.37v-8.13h2.29v8.13c0,.22.22.37.44.37h9.61c.22,0,.37-.15.37-.37v-8.13h2.29v8.13c0,.22.22.37.44.37h9.61c.22,0,.37-.15.37-.37v-8.13h2.29v8.13c0,.22.22.37.44.37h9.61c.22,0,.37-.15.37-.37v-8.13h2.29v8.13c0,.22.15.37.44.37h9.53c.22,0,.44-.15.44-.37v-8.13h2.29v8.13c0,.22.15.37.37.37h9.61c.22,0,.44-.15.44-.37v-8.13h2.29v8.13c0,.22.15.37.37.37h9.61c.22,0,.44-.15.44-.37v-8.13h2.29v8.13c0,.22.15.37.37.37h9.61c.22,0,.37-.15.37-.37v-8.13h2.29v8.13c0,.22.22.37.44.37h9.61c.22,0,.37-.15.37-.37v-8.13h2.29v8.13c0,.22.22.37.44.37h9.61c.22,0,.37-.15.37-.37v-8.13h2.29v8.13c0,.22.22.37.44.37h9.61c.22,0,.37-.15.37-.37v-8.13h2.29v8.13c0,.22.15.37.44.37h9.53c.22,0,.44-.15.44-.37v-8.13h2.29v8.13c0,.22.15.37.37.37h9.61c.22,0,.44-.15.44-.37v-8.13h2.29v8.13c0,.22.15.37.37.37h9.61c.22,0,.44-.15.44-.37v-8.13h2.29v8.13c0,.22.15.37.37.37h9.61c.22,0,.44-.15.44-.37v-8.13h2.22v8.13c0,.22.22.37.44.37h9.61c.22,0,.37-.15.37-.37v-8.13h2.29v8.13c0,.22.22.37.44.37h9.61c.22,0,.37-.15.37-.37v-8.13h8.87Z" class="cls-2"/><path d="M70.98,185.34v10.64c0,.22-.15.37-.37.37h-9.61c-.22,0-.37-.15-.37-.37v-10.64c0-.22.15-.44.37-.44h9.61c.22,0,.37.22.37.44Z" class="cls-2"/><path d="M83.69,185.34v10.64c0,.22-.15.37-.37.37h-9.61c-.22,0-.44-.15-.44-.37v-10.64c0-.22.22-.44.44-.44h9.61c.22,0,.37.22.37.44Z" class="cls-2"/><path d="M96.4,185.34v10.64c0,.22-.15.37-.37.37h-9.61c-.22,0-.44-.15-.44-.37v-10.64c0-.22.22-.44.44-.44h9.61c.22,0,.37.22.37.44Z" class="cls-2"/><path d="M109.11,185.34v10.64c0,.22-.15.37-.37.37h-9.61c-.22,0-.44-.15-.44-.37v-10.64c0-.22.22-.44.44-.44h9.61c.22,0,.37.22.37.44Z" class="cls-2"/><path d="M121.81,185.34v10.64c0,.22-.22.37-.44.37h-9.53c-.3,0-.44-.15-.44-.37v-10.64c0-.22.15-.44.44-.44h9.53c.22,0,.44.22.44.44Z" class="cls-2"/><path d="M134.53,185.34v10.64c0,.22-.22.37-.44.37h-9.61c-.22,0-.37-.15-.37-.37v-10.64c0-.22.15-.44.37-.44h9.61c.22,0,.44.22.44.44Z" class="cls-2"/><path d="M147.23,185.34v10.64c0,.22-.22.37-.44.37h-9.61c-.22,0-.37-.15-.37-.37v-10.64c0-.22.15-.44.37-.44h9.61c.22,0,.44.22.44.44Z" class="cls-2"/><path d="M159.87,185.34v10.64c0,.22-.15.37-.37.37h-9.61c-.22,0-.37-.15-.37-.37v-10.64c0-.22.15-.44.37-.44h9.61c.22,0,.37.22.37.44Z" class="cls-2"/><path d="M172.58,185.34v10.64c0,.22-.15.37-.37.37h-9.61c-.22,0-.44-.15-.44-.37v-10.64c0-.22.22-.44.44-.44h9.61c.22,0,.37.22.37.44Z" class="cls-2"/><path d="M185.29,185.34v10.64c0,.22-.15.37-.37.37h-9.61c-.22,0-.44-.15-.44-.37v-10.64c0-.22.22-.44.44-.44h9.61c.22,0,.37.22.37.44Z" class="cls-2"/><path d="M198,185.34v10.64c0,.22-.15.37-.37.37h-9.61c-.22,0-.44-.15-.44-.37v-10.64c0-.22.22-.44.44-.44h9.61c.22,0,.37.22.37.44Z" class="cls-2"/><path d="M210.71,185.34v10.64c0,.22-.22.37-.44.37h-9.53c-.3,0-.44-.15-.44-.37v-10.64c0-.22.15-.44.44-.44h9.53c.22,0,.44.22.44.44Z" class="cls-2"/><path d="M223.42,185.34v10.64c0,.22-.22.37-.44.37h-9.61c-.22,0-.37-.15-.37-.37v-10.64c0-.22.15-.44.37-.44h9.61c.22,0,.44.22.44.44Z" class="cls-2"/><path d="M236.13,185.34v10.64c0,.22-.22.37-.44.37h-9.61c-.22,0-.37-.15-.37-.37v-10.64c0-.22.15-.44.37-.44h9.61c.22,0,.44.22.44.44Z" class="cls-2"/><path d="M248.84,185.34v10.64c0,.22-.22.37-.44.37h-9.61c-.22,0-.37-.15-.37-.37v-10.64c0-.22.15-.44.37-.44h9.61c.22,0,.44.22.44.44Z" class="cls-2"/><path d="M261.47,185.34v10.64c0,.22-.15.37-.37.37h-9.61c-.22,0-.44-.15-.44-.37v-10.64c0-.22.22-.44.44-.44h9.61c.22,0,.37.22.37.44Z" class="cls-2"/><path d="M274.18,185.34v10.64c0,.22-.15.37-.37.37h-9.61c-.22,0-.44-.15-.44-.37v-10.64c0-.22.22-.44.44-.44h9.61c.22,0,.37.22.37.44Z" class="cls-2"/><rect transform="translate(275.21 194.62) rotate(90)" ry=".42" rx=".42" height="19.7" width="99.97" y="225.07" x="-9.69" class="cls-2"/><rect transform="translate(527.68 -58.11) rotate(90)" ry=".42" rx=".42" height="19.7" width="99.97" y="224.94" x="242.91" class="cls-2"/><path d="M350.2,285.35h20.86v-78.49h54.2v78.49h20.86v-100.12c0-.23-.19-.42-.42-.42h-95.52c-.23,0-.42.19-.42.42.02,7.04.3,100.12.44,100.12Z" class="cls-2"/><polygon points="354.75 280.11 354.75 190.83 441.12 190.83 441.12 280.2 429.95 280.2 429.95 201.27 365.47 201.27 365.47 280.06 354.76 280.06 354.75 280.11" class="cls-2"/><line y2="22.84" x2="302.6" y1="22.84" x1="28.9" class="cls-2"/><rect height="1.95" width=".3" y="21.87" x="28.75"/><rect height="1.95" width=".3" y="21.87" x="302.45"/><path d="M152.73,13.87v5.29h-.72v-4.54l-1.3.64v-.73l1.36-.67h.67Z"/><path d="M156.72,13.87v.55l-.65.98c-.04.06-.07.1-.1.15-.03.04-.06.08-.09.13s-.06.09-.09.13-.06.09-.09.15c.19.02.37.08.52.18s.29.21.41.35c.12.14.21.3.27.48s.09.38.09.59c0,.24-.04.47-.13.67-.08.2-.2.38-.36.52-.15.14-.34.26-.54.34s-.44.12-.69.12c-.21,0-.4-.03-.58-.08-.18-.05-.35-.13-.49-.23-.15-.1-.28-.22-.39-.37-.11-.14-.2-.31-.26-.49l.63-.31c.08.24.22.44.41.58.19.14.42.21.67.21.15,0,.28-.02.4-.07.12-.05.23-.11.31-.2.09-.09.15-.19.2-.31.05-.12.07-.26.07-.41s-.03-.29-.08-.42c-.06-.13-.13-.23-.22-.32-.09-.09-.21-.16-.34-.21-.13-.05-.28-.08-.44-.08h-.35l-.08-.44.72-1.07s.06-.09.09-.12c.03-.03.05-.07.08-.12s.06-.08.08-.12c.03-.03.06-.07.09-.12h-2.18v-.65h3.09Z"/><path d="M160.42,14.02c.25.13.47.32.65.55.18.23.32.52.42.85.1.33.15.69.15,1.08s-.05.76-.15,1.1-.24.62-.42.86c-.18.24-.4.43-.65.56-.25.13-.52.2-.83.2s-.57-.07-.82-.2-.47-.32-.65-.56c-.18-.24-.32-.53-.42-.86-.1-.33-.15-.7-.15-1.1s.05-.75.15-1.08c.1-.33.24-.61.42-.85.18-.24.4-.42.65-.55.25-.13.53-.2.83-.2s.58.07.83.2ZM159.06,14.65c-.16.1-.29.23-.41.41-.11.18-.2.38-.27.63-.07.24-.1.51-.1.81s.03.57.09.82c.06.25.15.46.27.64.12.18.25.32.41.42.16.1.33.15.52.15s.37-.05.53-.15c.16-.1.3-.24.41-.42.11-.18.2-.39.27-.64.06-.25.09-.52.09-.82s-.03-.56-.09-.81c-.06-.25-.15-.46-.26-.63-.11-.17-.25-.31-.41-.41-.16-.1-.34-.15-.53-.15s-.37.05-.52.15Z"/><path d="M165.05,14.02c.25.13.47.32.65.55.18.23.32.52.42.85.1.33.15.69.15,1.08s-.05.76-.15,1.1-.24.62-.42.86c-.18.24-.4.43-.65.56-.25.13-.52.2-.83.2s-.57-.07-.82-.2-.47-.32-.65-.56c-.18-.24-.32-.53-.42-.86-.1-.33-.15-.7-.15-1.1s.05-.75.15-1.08c.1-.33.24-.61.42-.85.18-.24.4-.42.65-.55.25-.13.53-.2.83-.2s.58.07.83.2ZM163.7,14.65c-.16.1-.29.23-.41.41-.11.18-.2.38-.27.63-.07.24-.1.51-.1.81s.03.57.09.82c.06.25.15.46.27.64.12.18.25.32.41.42.16.1.33.15.52.15s.37-.05.53-.15c.16-.1.3-.24.41-.42.11-.18.2-.39.27-.64.06-.25.09-.52.09-.82s-.03-.56-.09-.81c-.06-.25-.15-.46-.26-.63-.11-.17-.25-.31-.41-.41-.16-.1-.34-.15-.53-.15s-.37.05-.52.15Z"/><path d="M169.88,15.52v.67c.11-.24.26-.42.45-.54.18-.12.4-.18.63-.18.26,0,.48.07.67.2.19.14.32.33.41.59.11-.26.27-.45.46-.59.2-.14.43-.2.7-.2.38,0,.67.12.88.37.21.25.31.61.31,1.07v2.25h-.7v-2.16c0-.29-.07-.52-.2-.69-.13-.17-.31-.25-.54-.25-.12,0-.22.02-.32.07-.1.05-.18.11-.26.2-.07.09-.13.19-.16.32-.04.12-.06.26-.06.4v2.11h-.7v-2.16c0-.14-.02-.27-.06-.38-.04-.12-.09-.22-.15-.3-.06-.08-.14-.14-.23-.19-.09-.04-.2-.07-.31-.07s-.22.02-.32.07c-.1.05-.18.12-.25.21-.07.09-.12.2-.17.32-.04.12-.06.26-.06.41v2.09h-.7v-3.64h.68Z"/><path d="M176.06,15.52v.67c.11-.24.26-.42.45-.54.18-.12.4-.18.63-.18.26,0,.48.07.67.2.19.14.32.33.41.59.11-.26.27-.45.46-.59.2-.14.43-.2.7-.2.38,0,.67.12.88.37.21.25.31.61.31,1.07v2.25h-.7v-2.16c0-.29-.07-.52-.2-.69-.13-.17-.31-.25-.54-.25-.12,0-.22.02-.32.07-.1.05-.18.11-.26.2-.07.09-.13.19-.16.32-.04.12-.06.26-.06.4v2.11h-.7v-2.16c0-.14-.02-.27-.06-.38-.04-.12-.09-.22-.15-.3-.06-.08-.14-.14-.23-.19-.09-.04-.2-.07-.31-.07s-.22.02-.32.07c-.1.05-.18.12-.25.21-.07.09-.12.2-.17.32-.04.12-.06.26-.06.41v2.09h-.7v-3.64h.68Z"/><line y2="48.87" x2="11.31" y1="144.19" x1="11.31" class="cls-2"/><rect height=".3" width="1.95" y="144.04" x="10.34"/><rect height=".3" width="1.95" y="48.72" x="10.34"/><path d="M3.01,107.2h5.29v.73H3.94s.08.04.1.06c.03.02.06.04.09.07l2.02,1.35s.06.04.08.05.05.03.08.06v-3.2h.64v3.98h-.59l-3.35-2.22v-.87Z"/><path d="M8.18,104.75c-.12.24-.29.44-.51.61-.22.17-.5.3-.82.39s-.69.14-1.09.14-.8-.05-1.15-.15c-.35-.1-.64-.24-.89-.43-.25-.18-.43-.41-.56-.67-.13-.26-.2-.55-.2-.88,0-.37.09-.7.27-.97.18-.27.43-.47.76-.59l.29.64c-.21.07-.37.18-.48.34-.11.16-.17.35-.17.56,0,.2.05.38.14.55s.23.31.4.44c.17.13.37.22.61.29s.49.1.77.1h.17c.06,0,.1,0,.15,0-.25-.08-.45-.23-.59-.45-.14-.22-.21-.48-.21-.79,0-.24.04-.46.12-.65.08-.2.19-.36.34-.5.15-.14.32-.25.52-.33.2-.08.42-.12.66-.12s.47.04.68.13c.21.08.38.2.53.35.14.15.26.32.34.53s.12.43.12.68c0,.3-.06.57-.18.81ZM7.61,103.58c-.05-.12-.12-.22-.21-.3-.09-.08-.19-.15-.31-.2-.12-.05-.26-.07-.41-.07s-.29.02-.41.07c-.12.05-.23.12-.32.2s-.16.19-.21.31-.07.25-.07.4.02.27.07.39.12.22.2.31c.09.09.19.15.31.2.12.05.25.07.4.07s.28-.03.41-.08.24-.12.34-.21.17-.2.22-.32c.05-.12.08-.26.08-.4s-.03-.26-.08-.38Z"/><path d="M3.16,98.78c.13-.25.32-.47.55-.65.23-.18.52-.32.85-.42.33-.1.69-.15,1.08-.15s.76.05,1.1.15.62.24.86.42c.24.18.43.4.56.65.13.25.2.52.2.83s-.07.57-.2.82-.32.47-.56.65c-.24.18-.53.32-.86.42-.33.1-.7.15-1.1.15s-.75-.05-1.08-.15c-.33-.1-.61-.24-.85-.42-.24-.18-.42-.4-.55-.65-.13-.25-.2-.53-.2-.83s.07-.58.2-.83ZM3.79,100.13c.1.16.23.29.41.41.18.11.38.2.63.27.24.07.51.1.81.1s.57-.03.82-.09c.25-.06.46-.15.64-.27.18-.12.32-.25.42-.41.1-.16.15-.33.15-.52s-.05-.37-.15-.53c-.1-.16-.24-.3-.42-.41-.18-.11-.39-.2-.64-.27-.25-.06-.52-.09-.82-.09s-.56.03-.81.09c-.25.06-.46.15-.63.26-.17.11-.31.25-.41.41-.1.16-.15.34-.15.53s.05.37.15.52Z"/><path d="M4.66,93.95h.67c-.24-.11-.42-.26-.54-.45-.12-.18-.18-.4-.18-.63,0-.26.07-.48.2-.67.14-.19.33-.32.59-.41-.26-.11-.45-.27-.59-.46-.14-.2-.2-.43-.2-.7,0-.38.12-.67.37-.88.25-.21.61-.31,1.07-.31h2.25v.7h-2.16c-.29,0-.52.07-.69.2-.17.13-.25.31-.25.54,0,.12.02.22.07.32.05.1.11.18.2.26.09.07.19.13.32.16.12.04.26.06.4.06h2.11v.7h-2.16c-.14,0-.27.02-.38.06-.12.04-.22.09-.3.15-.08.06-.14.14-.19.23-.04.09-.07.2-.07.31s.02.22.07.32c.05.1.12.18.21.25.09.07.2.12.32.17.12.04.26.06.41.06h2.09v.7h-3.64v-.68Z"/><path d="M4.66,87.77h.67c-.24-.11-.42-.26-.54-.45-.12-.18-.18-.4-.18-.63,0-.26.07-.48.2-.67.14-.19.33-.32.59-.41-.26-.11-.45-.27-.59-.46-.14-.2-.2-.43-.2-.7,0-.38.12-.67.37-.88.25-.21.61-.31,1.07-.31h2.25v.7h-2.16c-.29,0-.52.07-.69.2-.17.13-.25.31-.25.54,0,.12.02.22.07.32.05.1.11.18.2.26.09.07.19.13.32.16.12.04.26.06.4.06h2.11v.7h-2.16c-.14,0-.27.02-.38.06-.12.04-.22.09-.3.15-.08.06-.14.14-.19.23-.04.09-.07.2-.07.31s.02.22.07.32c.05.1.12.18.21.25.09.07.2.12.32.17.12.04.26.06.41.06h2.09v.7h-3.64v-.68Z"/><line y2="185.08" x2="11.31" y1="285.02" x1="11.31" class="cls-2"/><rect height=".3" width="1.95" y="284.86" x="10.34"/><rect height=".3" width="1.95" y="184.93" x="10.34"/><path d="M3.01,245.51h5.29v.73H3.94s.08.04.1.06c.03.02.06.04.09.07l2.02,1.35s.06.04.08.05.05.03.08.06v-3.2h.64v3.98h-.59l-3.35-2.22v-.87Z"/><path d="M8.25,243.15c-.07.22-.17.4-.31.56-.13.15-.29.28-.47.36s-.38.13-.6.13c-.16,0-.31-.02-.45-.07-.15-.05-.28-.11-.4-.2-.12-.09-.22-.19-.3-.31s-.14-.25-.18-.4c-.05.14-.12.25-.2.36-.08.1-.17.19-.27.27s-.21.13-.33.17c-.12.04-.25.06-.38.06-.21,0-.39-.04-.56-.12-.17-.08-.32-.2-.44-.34-.13-.14-.22-.32-.29-.52-.07-.2-.1-.42-.1-.66s.03-.46.1-.66c.07-.2.17-.37.29-.52.12-.15.27-.26.44-.35.17-.08.36-.13.57-.13.13,0,.26.02.38.06.12.04.24.1.34.17.1.07.19.16.27.27.08.1.14.22.19.35.04-.15.1-.28.18-.4s.19-.22.31-.3c.12-.08.25-.15.4-.2.14-.05.29-.07.45-.07.21,0,.41.04.6.13.18.09.34.21.47.36.13.15.24.34.31.56.07.22.11.46.11.72s-.04.5-.11.72ZM3.69,242.79c.04.11.09.2.16.28.07.08.15.14.26.18s.21.07.33.07c.11,0,.22-.02.32-.07.1-.04.19-.11.26-.19.07-.08.13-.17.17-.28s.06-.23.06-.35-.02-.25-.06-.35c-.04-.1-.1-.2-.17-.28s-.16-.14-.26-.19c-.1-.04-.21-.07-.32-.07-.12,0-.23.02-.33.07-.1.04-.19.11-.26.19-.07.08-.12.17-.16.28-.04.11-.06.23-.06.36s.02.24.06.35ZM7.62,242.02c-.04-.13-.11-.23-.19-.32-.08-.09-.18-.16-.29-.21-.11-.05-.24-.08-.37-.08s-.26.03-.37.08c-.11.05-.21.12-.29.21-.08.09-.15.2-.2.33-.05.13-.07.26-.07.41s.02.28.07.41c.04.13.11.23.19.33s.18.16.3.21c.11.05.24.07.37.07.14,0,.27-.02.38-.07.11-.05.21-.12.29-.21.08-.09.14-.2.19-.33.04-.13.07-.26.07-.41s-.02-.29-.07-.41Z"/><path d="M3.16,237.24c.13-.25.32-.47.55-.65.23-.18.52-.32.85-.42.33-.1.69-.15,1.08-.15s.76.05,1.1.15.62.24.86.42c.24.18.43.4.56.65.13.25.2.52.2.83s-.07.57-.2.82-.32.47-.56.65c-.24.18-.53.32-.86.42-.33.1-.7.15-1.1.15s-.75-.05-1.08-.15c-.33-.1-.61-.24-.85-.42-.24-.18-.42-.4-.55-.65-.13-.25-.2-.53-.2-.83s.07-.58.2-.83ZM3.79,238.59c.1.16.23.29.41.41.18.11.38.2.63.27.24.07.51.1.81.1s.57-.03.82-.09c.25-.06.46-.15.64-.27.18-.12.32-.25.42-.41.1-.16.15-.33.15-.52s-.05-.37-.15-.53c-.1-.16-.24-.3-.42-.41-.18-.11-.39-.2-.64-.27-.25-.06-.52-.09-.82-.09s-.56.03-.81.09c-.25.06-.46.15-.63.26-.17.11-.31.25-.41.41-.1.16-.15.34-.15.53s.05.37.15.52Z"/><path d="M4.66,232.41h.67c-.24-.11-.42-.26-.54-.45-.12-.18-.18-.4-.18-.63,0-.26.07-.48.2-.67.14-.19.33-.32.59-.41-.26-.11-.45-.27-.59-.46-.14-.2-.2-.43-.2-.7,0-.38.12-.67.37-.88.25-.21.61-.31,1.07-.31h2.25v.7h-2.16c-.29,0-.52.07-.69.2-.17.13-.25.31-.25.54,0,.12.02.22.07.32.05.1.11.18.2.26.09.07.19.13.32.16.12.04.26.06.4.06h2.11v.7h-2.16c-.14,0-.27.02-.38.06-.12.04-.22.09-.3.15-.08.06-.14.14-.19.23-.04.09-.07.2-.07.31s.02.22.07.32c.05.1.12.18.21.25.09.07.2.12.32.17.12.04.26.06.41.06h2.09v.7h-3.64v-.68Z"/><path d="M4.66,226.23h.67c-.24-.11-.42-.26-.54-.45-.12-.18-.18-.4-.18-.63,0-.26.07-.48.2-.67.14-.19.33-.32.59-.41-.26-.11-.45-.27-.59-.46-.14-.2-.2-.43-.2-.7,0-.38.12-.67.37-.88.25-.21.61-.31,1.07-.31h2.25v.7h-2.16c-.29,0-.52.07-.69.2-.17.13-.25.31-.25.54,0,.12.02.22.07.32.05.1.11.18.2.26.09.07.19.13.32.16.12.04.26.06.4.06h2.11v.7h-2.16c-.14,0-.27.02-.38.06-.12.04-.22.09-.3.15-.08.06-.14.14-.19.23-.04.09-.07.2-.07.31s.02.22.07.32c.05.1.12.18.21.25.09.07.2.12.32.17.12.04.26.06.41.06h2.09v.7h-3.64v-.68Z"/></g></g></svg>