<svg viewBox="0 0 531.27 288" xmlns:xlink="http://www.w3.org/1999/xlink" xmlns="http://www.w3.org/2000/svg" id="Camada_2"><defs><style>.cls-1,.cls-2{fill:none;}.cls-2{stroke:#12100c;stroke-linecap:round;stroke-linejoin:round;stroke-width:.3px;}</style><symbol viewBox="0 0 531.27 288" id="fundo_transparente"><rect height="288" width="531.27" x="0" class="cls-1"/></symbol></defs><g id="RePlastic"><g id="miradouro_plataforma_com_elevação"><use xlink:href="#fundo_transparente" height="288" width="531.27"/><path d="M37.39,45.08v-.51M37.39,55.76v-.53M37.39,66.45v-.53M37.39,77.11v-.51M37.39,98.48v-.51M37.39,109.16v-.53M37.39,119.83v-.51M37.39,130.51v-.51M37.39,141.2v-.51M37.39,151.88v-.53M40.48,45.08v-.51M40.48,55.76v-.53M40.48,66.45v-.53M40.48,77.11v-.51M40.48,98.48v-.51M40.48,109.16v-.53M40.48,119.83v-.51M40.48,130.51v-.51M40.48,141.2v-.51M40.48,151.88v-.53M147.03,45.08v-.51M147.03,55.76v-.53M147.03,66.45v-.53M147.03,77.11v-.51M147.03,98.48v-.51M147.03,109.16v-.53M147.03,119.83v-.51M147.03,130.51v-.51M147.03,141.2v-.51M147.03,151.88v-.53M86.62,151.35v.02l-.04.05-.04.04-.05.04-.05.02h-.07l-.05-.04-.04-.04-.04-.04-.02-.05M78.89,151.35v.02l-.04.05-.04.04-.05.04-.05.02h-.07l-.05-.04-.05-.04-.02-.04-.02-.05M103.17,45.08v-.51M103.17,55.76v-.53M103.17,66.45v-.53M103.17,77.11v-.51M103.17,98.48v-.51M103.17,109.16v-.53M103.17,119.83v-.51M103.17,130.51v-.51M103.17,141.2v-.51M103.17,151.88v-.53M106.26,45.08v-.51M106.26,55.76v-.53M106.26,66.45v-.53M106.26,77.11v-.51M106.26,98.48v-.51M106.26,109.16v-.53M106.26,119.83v-.51M106.26,130.51v-.51M106.26,141.2v-.51M106.26,151.88v-.53M125.1,45.08v-.51M125.1,55.76v-.53M125.1,66.45v-.53M125.1,77.11v-.51M125.1,98.48v-.51M125.1,109.16v-.53M125.1,119.83v-.51M125.1,130.51v-.51M125.1,141.2v-.51M125.1,151.88v-.53M128.19,45.08v-.51M128.19,55.76v-.53M128.19,66.45v-.53M128.19,77.11v-.51M128.19,98.48v-.51M128.19,109.16v-.53M128.19,119.83v-.51M128.19,130.51v-.51M128.19,141.2v-.51M128.19,151.88v-.53M59.32,45.08v-.51M59.32,55.76v-.53M59.32,66.45v-.53M59.32,77.11v-.51M59.32,98.48v-.51M59.32,109.16v-.53M59.32,119.83v-.51M59.32,130.51v-.51M59.32,141.2v-.51M59.32,151.88v-.53M62.42,45.08v-.51M62.42,55.76v-.53M62.42,66.45v-.53M62.42,77.11v-.51M62.42,98.48v-.51M62.42,109.16v-.53M62.42,119.83v-.51M62.42,130.51v-.51M62.42,141.2v-.51M62.42,151.88v-.53M81.24,45.08v-.51M81.24,55.76v-.53M81.24,66.45v-.53M81.24,77.11v-.51M81.24,98.48v-.51M81.24,109.16v-.53M81.24,119.83v-.51M81.24,130.51v-.51M81.24,141.2v-.51M81.24,151.88v-.53M84.33,45.08v-.51M84.33,55.76v-.53M84.33,66.45v-.53M84.33,77.11v-.51M84.33,98.48v-.51M84.33,109.16v-.53M84.33,119.83v-.51M84.33,130.51v-.51M84.33,141.2v-.51M84.33,151.88v-.53M18.55,23.73v-.53M18.55,34.39v-.51M18.55,45.08v-.51M18.55,55.76v-.53M18.55,66.45v-.53M18.55,77.11v-.51M18.55,98.48v-.51M18.55,109.16v-.53M18.55,119.83v-.51M18.55,130.51v-.51M18.55,141.2v-.51M18.55,151.88v-.53" class="cls-2"/><rect height=".31" width=".76" y="87.29" x="102.4" class="cls-2"/><rect height=".51" width="18.84" y="87.29" x="128.19" class="cls-2"/><polygon points="103.17 87.6 103.17 87.8 84.33 87.8 84.33 87.29 102.4 87.29 102.4 87.6 103.17 87.6" class="cls-2"/><rect height=".51" width="18.84" y="87.29" x="18.55" class="cls-2"/><rect height="3.09" width=".24" y="149.77" x="10.32" class="cls-2"/><polygon points="155.02 12.52 148.05 19.49 17.53 19.49 10.56 12.52 155.02 12.52" class="cls-2"/><polygon points="155.02 12.52 155.02 156.98 148.05 156.98 148.05 19.49 155.02 12.52" class="cls-2"/><rect height="10.16" width="130.52" y="141.2" x="17.53" class="cls-2"/><rect height="10.17" width="130.52" y="130.51" x="17.53" class="cls-2"/><rect height="10.17" width="130.52" y="119.83" x="17.53" class="cls-2"/><rect height="10.16" width="130.52" y="109.16" x="17.53" class="cls-2"/><rect height="10.16" width="130.52" y="98.48" x="17.53" class="cls-2"/><rect height="10.17" width="130.52" y="87.8" x="17.53" class="cls-2"/><polygon points="81.24 87.29 81.24 87.8 62.42 87.8 62.42 87.6 63.18 87.6 63.18 87.29 81.24 87.29" class="cls-2"/><rect height=".31" width=".76" y="87.29" x="62.42" class="cls-2"/><rect height=".31" width=".78" y="87.29" x="58.54" class="cls-2"/><polygon points="59.32 87.6 59.32 87.8 40.48 87.8 40.48 87.29 58.54 87.29 58.54 87.6 59.32 87.6" class="cls-2"/><polygon points="125.1 87.29 125.1 87.8 106.26 87.8 106.26 87.6 107.04 87.6 107.04 87.29 125.1 87.29" class="cls-2"/><rect height=".31" width=".78" y="87.29" x="106.26" class="cls-2"/><rect height="10.17" width="130.52" y="77.11" x="17.53" class="cls-2"/><rect height="10.16" width="130.52" y="66.45" x="17.53" class="cls-2"/><rect height="10.16" width="130.52" y="55.76" x="17.53" class="cls-2"/><rect height="10.16" width="130.52" y="45.08" x="17.53" class="cls-2"/><rect height="10.17" width="130.52" y="34.39" x="17.53" class="cls-2"/><rect height=".51" width="3.09" y="33.88" x="37.39" class="cls-2"/><rect height=".51" width="3.09" y="33.88" x="59.32" class="cls-2"/><rect height=".51" width="3.09" y="33.88" x="81.24" class="cls-2"/><rect height=".51" width="3.09" y="33.88" x="103.17" class="cls-2"/><rect height=".51" width="3.09" y="33.88" x="125.1" class="cls-2"/><rect height=".51" width="1.02" y="33.88" x="147.03" class="cls-2"/><rect height="10.16" width="130.52" y="23.73" x="17.53" class="cls-2"/><rect height=".53" width="3.09" y="23.2" x="37.39" class="cls-2"/><rect height=".53" width="3.09" y="23.2" x="59.32" class="cls-2"/><rect height=".53" width="3.09" y="23.2" x="81.24" class="cls-2"/><rect height=".53" width="3.09" y="23.2" x="103.17" class="cls-2"/><rect height=".53" width="3.09" y="23.2" x="125.1" class="cls-2"/><rect height=".53" width="1.02" y="23.2" x="147.03" class="cls-2"/><rect height="3.71" width="130.52" y="19.49" x="17.53" class="cls-2"/><polygon points="17.53 19.49 17.53 156.98 10.56 156.98 10.56 12.52 17.53 19.49" class="cls-2"/><rect height=".53" width="6.46" y="156.98" x="148.07" class="cls-2"/><rect height=".53" width="6.46" y="156.98" x="10.83" class="cls-2"/><polygon points="155.02 156.98 155.02 162.04 10.56 162.04 10.56 156.98 10.83 156.98 10.83 157.51 17.3 157.51 17.3 156.98 17.53 156.98 17.53 151.88 148.05 151.88 148.05 156.98 148.07 156.98 148.07 157.51 154.53 157.51 154.53 156.98 155.02 156.98" class="cls-2"/><path d="M147.03,264.4v-6.19M149.89,237.57h-1.82M149.89,230.62h-1.82" class="cls-2"/><rect height="6.19" width=".51" y="264.4" x="10.32" class="cls-2"/><polygon points="15.48 264.4 15.48 283.75 10.83 283.75 10.83 258.21 15.46 258.21 15.46 264.4 15.48 264.4" class="cls-2"/><rect height="13.16" width="4.64" y="270.59" x="58.54" class="cls-2"/><rect height="13.16" width="4.64" y="270.59" x="102.4" class="cls-2"/><rect height="6.19" width="134.41" y="264.4" x="15.48" class="cls-2"/><rect height="6.19" width=".49" y="264.4" x="154.53" class="cls-2"/><rect height="25.54" width="4.64" y="258.21" x="149.89" class="cls-2"/><rect height="6.19" width="3.08" y="258.21" x="15.48" class="cls-2"/><rect height="6.19" width="3.09" y="258.21" x="37.39" class="cls-2"/><rect height="6.19" width="4.64" y="258.21" x="58.54" class="cls-2"/><rect height="6.19" width="3.09" y="258.21" x="81.24" class="cls-2"/><rect height="6.19" width="4.64" y="258.21" x="102.4" class="cls-2"/><rect height="6.19" width="3.09" y="258.21" x="125.1" class="cls-2"/><rect height="2.06" width="144.46" y="256.16" x="10.56" class="cls-2"/><rect height="6.95" width="130.77" y="230.62" x="17.3" class="cls-2"/><rect height="18.58" width="4.64" y="237.57" x="58.54" class="cls-2"/><rect height="17.29" width="4.64" y="213.33" x="58.54" class="cls-2"/><rect height="18.58" width="4.64" y="237.57" x="102.4" class="cls-2"/><rect height="17.29" width="4.64" y="213.33" x="102.4" class="cls-2"/><rect height="49.8" width="4.64" y="206.36" x="149.89" class="cls-2"/><rect height="1.8" width="6.97" y="204.56" x="148.05" class="cls-2"/><rect height="6.97" width="1.82" y="206.36" x="148.07" class="cls-2"/><rect height="6.97" width="130.77" y="206.36" x="17.3" class="cls-2"/><rect height="6.95" width="1.82" y="230.62" x="15.48" class="cls-2"/><rect height="49.8" width="4.64" y="206.36" x="10.83" class="cls-2"/><rect height="6.97" width="1.82" y="206.36" x="15.48" class="cls-2"/><rect height="1.8" width="6.97" y="204.56" x="10.56" class="cls-2"/><rect height="1.8" width="130.52" y="204.56" x="17.53" class="cls-2"/><rect height="6.19" width="3.09" y="264.4" x="202.71" class="cls-2"/><polygon points="325.71 256.41 325.71 258.21 315.54 258.21 315.54 256.41 315.56 256.36 315.56 256.3 315.59 256.27 315.61 256.23 315.67 256.19 315.7 256.18 315.76 256.16 325.5 256.16 325.55 256.18 325.59 256.19 325.64 256.23 325.66 256.27 325.7 256.3 325.7 256.36 325.71 256.41" class="cls-2"/><rect height="6.19" width="65.27" y="258.21" x="272.62" class="cls-2"/><rect height="6.19" width="65.27" y="258.21" x="202.71" class="cls-2"/><rect height="77.39" width="4.64" y="206.36" x="337.89" class="cls-2"/><polygon points="347.06 256.36 347.06 258.21 342.53 258.21 342.53 256.16 346.86 256.16 346.9 256.18 346.95 256.19 346.99 256.23 347.03 256.27 347.05 256.3 347.06 256.36" class="cls-2"/><rect height="6.19" width="3.09" y="264.4" x="334.8" class="cls-2"/><polygon points="336.38 256.36 336.38 258.21 326.22 258.21 326.22 256.36 326.24 256.3 326.26 256.27 326.3 256.23 326.33 256.19 326.39 256.18 326.42 256.16 336.18 256.16 336.23 256.18 336.27 256.19 336.31 256.23 336.34 256.27 336.36 256.3 336.38 256.36" class="cls-2"/><polygon points="315.03 256.36 315.03 258.21 304.86 258.21 304.86 256.41 304.87 256.36 304.89 256.3 304.91 256.27 304.95 256.23 304.98 256.19 305.02 256.18 305.07 256.16 314.81 256.16 314.87 256.18 314.92 256.19 314.99 256.27 315.01 256.3 315.03 256.36" class="cls-2"/><polygon points="304.35 256.36 304.35 258.21 294.19 258.21 294.19 256.36 294.21 256.3 294.23 256.27 294.26 256.23 294.3 256.19 294.34 256.18 294.39 256.16 304.15 256.16 304.18 256.18 304.24 256.19 304.31 256.27 304.33 256.3 304.35 256.36" class="cls-2"/><polygon points="293.66 256.36 293.66 258.21 283.51 258.21 283.51 256.36 283.52 256.3 283.54 256.27 283.58 256.23 283.61 256.19 283.67 256.18 283.71 256.16 293.46 256.16 293.52 256.18 293.55 256.19 293.63 256.27 293.64 256.3 293.66 256.36" class="cls-2"/><polygon points="283 256.41 283 258.21 272.62 258.21 272.62 256.36 272.64 256.3 272.68 256.27 272.69 256.23 272.73 256.19 272.79 256.18 272.84 256.16 282.78 256.16 282.83 256.18 282.87 256.19 282.91 256.23 282.94 256.27 282.96 256.3 282.98 256.36 283 256.41" class="cls-2"/><polygon points="261.63 256.36 261.63 258.21 251.47 258.21 251.47 256.36 251.49 256.3 251.51 256.27 251.54 256.23 251.58 256.19 251.62 256.18 251.67 256.16 261.43 256.16 261.46 256.18 261.52 256.19 261.56 256.23 261.59 256.27 261.61 256.3 261.63 256.36" class="cls-2"/><polygon points="250.94 256.36 250.94 258.21 240.79 258.21 240.79 256.36 240.81 256.3 240.82 256.27 240.86 256.23 240.9 256.19 240.95 256.18 240.99 256.16 250.74 256.16 250.8 256.18 250.84 256.19 250.87 256.23 250.91 256.27 250.93 256.3 250.94 256.36" class="cls-2"/><polygon points="240.26 256.36 240.26 258.21 230.1 258.21 230.1 256.36 230.12 256.3 230.14 256.27 230.18 256.23 230.21 256.19 230.27 256.18 230.3 256.16 240.06 256.16 240.11 256.18 240.15 256.19 240.19 256.23 240.22 256.27 240.24 256.3 240.26 256.36" class="cls-2"/><polygon points="229.59 256.41 229.59 258.21 219.42 258.21 219.42 256.41 219.44 256.36 219.44 256.3 219.47 256.27 219.49 256.23 219.55 256.19 219.58 256.18 219.64 256.16 229.38 256.16 229.43 256.18 229.47 256.19 229.52 256.23 229.54 256.27 229.58 256.3 229.58 256.36 229.59 256.41" class="cls-2"/><polygon points="218.91 256.36 218.91 258.21 208.75 258.21 208.75 256.36 208.77 256.3 208.79 256.27 208.83 256.23 208.86 256.19 208.9 256.18 208.95 256.16 218.71 256.16 218.75 256.18 218.8 256.19 218.87 256.27 218.89 256.3 218.91 256.36" class="cls-2"/><rect height="77.39" width="4.64" y="206.36" x="198.07" class="cls-2"/><polygon points="208.23 256.36 208.23 258.21 202.71 258.21 202.71 256.16 208.03 256.16 208.06 256.18 208.12 256.19 208.19 256.27 208.21 256.3 208.23 256.36" class="cls-2"/><rect height="1.8" width="144.99" y="204.56" x="197.54" class="cls-2"/><rect height="6.19" width="3.09" y="264.4" x="264.89" class="cls-2"/><rect height="6.19" width="3.09" y="264.4" x="272.62" class="cls-2"/><rect height="6.97" width="65.27" y="230.6" x="272.62" class="cls-2"/><rect height="6.97" width="65.27" y="230.6" x="202.71" class="cls-2"/><rect height="6.97" width="65.27" y="206.36" x="202.71" class="cls-2"/><rect height="6.97" width="65.27" y="206.36" x="272.62" class="cls-2"/><polygon points="267.98 256.16 267.98 258.21 262.14 258.21 262.14 256.41 262.16 256.36 262.16 256.3 262.27 256.19 262.3 256.18 262.36 256.16 267.98 256.16" class="cls-2"/><rect height="77.39" width="4.64" y="206.36" x="267.98" class="cls-2"/><polygon points="337.89 256.16 337.89 258.21 336.91 258.21 336.91 256.36 336.93 256.3 336.94 256.27 336.98 256.23 337.02 256.19 337.07 256.18 337.11 256.16 337.89 256.16" class="cls-2"/></g></g></svg>