<svg viewBox="0 0 531.26 288" xmlns="http://www.w3.org/2000/svg"><defs><style>.cls-1, .cls-2 {
        stroke: #000;
      }

      .cls-1, .cls-2, .cls-3 {
        fill: none;
      }

      .cls-1, .cls-3 {
        stroke-linecap: round;
        stroke-linejoin: round;
        stroke-width: .3px;
      }

      .cls-2 {
        stroke-miterlimit: 10;
        stroke-width: .28px;
      }

      .cls-3 {
        stroke: #12100a;
      }</style></defs><g id="bases"><rect height="358.35" width="589.11" y="-33.95" x="-25.44" class="cls-2"/></g><g id="Urban"><g id="Reuse"><g id="banco_sem_costas_3"><g><g id="LINE"><line y2="281.64" x2="479.29" y1="283.32" x1="479.29" class="cls-3"/></g><g id="LINE-2"><line y2="283.32" x2="454.11" y1="281.64" x1="454.11" class="cls-3"/></g><g id="ARC"><path d="M476.39,223.43c-.76.18-1.3.85-1.3,1.63" class="cls-3"/></g><g id="ARC-2"><path d="M458.31,225.06c0-.78-.54-1.46-1.3-1.63" class="cls-3"/></g><g id="LINE-3"><line y2="206.94" x2="424.32" y1="206.94" x1="509.09" class="cls-3"/></g><g id="ARC-3"><path d="M510.08,215.56c2.35-.55,3.81-2.9,3.26-5.24-.46-1.97-2.22-3.37-4.25-3.37" class="cls-3"/></g><g id="LINE-4"><line y2="223.43" x2="476.39" y1="215.56" x1="510.08" class="cls-3"/></g><g id="LINE-5"><line y2="225.06" x2="475.1" y1="281.64" x1="475.1" class="cls-3"/></g><g id="LINE-6"><line y2="283.32" x2="475.1" y1="283.32" x1="458.31" class="cls-3"/></g><g id="LINE-7"><line y2="281.64" x2="458.31" y1="225.06" x1="458.31" class="cls-3"/></g><g id="LINE-8"><line y2="223.43" x2="457.01" y1="215.56" x1="423.33" class="cls-3"/></g><g id="ARC-4"><path d="M424.32,206.94c-2.41,0-4.36,1.95-4.36,4.36,0,2.03,1.4,3.79,3.37,4.25" class="cls-3"/></g><g id="LINE-9"><line y2="216.93" x2="504.22" y1="216.76" x1="509.27" class="cls-3"/></g><g id="ARC-5"><path d="M469.15,205.85c-.7,0-1.33.43-1.57,1.09" class="cls-3"/></g><g id="ARC-6"><path d="M509.27,216.76c3.01-.1,5.37-2.62,5.27-5.63-.1-2.94-2.51-5.27-5.45-5.27" class="cls-3"/></g><g id="LINE-10"><line y2="205.85" x2="509.09" y1="205.85" x1="469.15" class="cls-3"/></g><g id="ARC-7"><path d="M465.83,206.94c-.25-.66-.87-1.09-1.57-1.09" class="cls-3"/></g><g id="ARC-8"><path d="M424.32,205.85c-3.01,0-5.46,2.44-5.46,5.46s2.33,5.36,5.27,5.45" class="cls-3"/></g><g id="LINE-11"><line y2="216.76" x2="424.14" y1="216.93" x1="429.19" class="cls-3"/></g><g id="LINE-12"><line y2="205.85" x2="464.25" y1="205.85" x1="424.32" class="cls-3"/></g><g id="LINE-13"><line y2="281.64" x2="478.37" y1="281.64" x1="475.1" class="cls-3"/></g><g id="LINE-14"><line y2="283.32" x2="478.37" y1="283.32" x1="475.1" class="cls-3"/></g><g id="LINE-15"><line y2="281.64" x2="455.03" y1="281.64" x1="458.31" class="cls-3"/></g><g id="LINE-16"><line y2="283.32" x2="455.03" y1="283.32" x1="458.31" class="cls-3"/></g><g id="LINE-17"><line y2="281.64" x2="479.29" y1="281.64" x1="478.37" class="cls-3"/></g><g id="LINE-18"><line y2="283.32" x2="479.29" y1="283.32" x1="478.37" class="cls-3"/></g><g id="LINE-19"><line y2="281.64" x2="455.03" y1="281.64" x1="454.11" class="cls-3"/></g><g id="LINE-20"><line y2="283.32" x2="455.03" y1="283.32" x1="454.11" class="cls-3"/></g></g><g id="LINE-21"><g><line y2="283.17" x2="16.87" y1="206" x1="16.87" class="cls-1"/><rect height=".3" width="1.95" y="205.85" x="15.89"/><rect height=".3" width="1.95" y="283.02" x="15.89"/></g></g><g id="MTEXT"><g><path d="M7.45,260.26h5.29v.73h-4.36s.08.04.1.06c.03.02.06.04.09.07l2.02,1.35s.06.04.08.05.05.03.08.06v-3.2h.64v3.98h-.59l-3.35-2.22v-.87Z"/><path d="M12.61,257.81c-.12.24-.29.44-.51.61-.22.17-.5.3-.82.39s-.69.14-1.09.14-.8-.05-1.15-.15c-.35-.1-.64-.24-.89-.43-.25-.18-.43-.41-.56-.67-.13-.26-.2-.55-.2-.88,0-.37.09-.7.27-.97.18-.27.43-.47.76-.59l.29.64c-.21.07-.37.18-.48.34-.11.16-.17.35-.17.56,0,.2.05.38.14.55s.23.31.4.44c.17.13.37.22.61.29s.49.1.77.1h.17c.06,0,.1,0,.15,0-.25-.08-.45-.23-.59-.45-.14-.22-.21-.48-.21-.79,0-.24.04-.46.12-.65.08-.2.19-.36.34-.5.15-.14.32-.25.52-.33.2-.08.42-.12.66-.12s.47.04.68.13c.21.08.38.2.53.35.14.15.26.32.34.53s.12.43.12.68c0,.3-.06.57-.18.81ZM12.04,256.65c-.05-.12-.12-.22-.21-.3-.09-.08-.19-.15-.31-.2-.12-.05-.26-.07-.41-.07s-.29.02-.41.07c-.12.05-.23.12-.32.2s-.16.19-.21.31-.07.25-.07.4.02.27.07.39.12.22.2.31c.09.09.19.15.31.2.12.05.25.07.4.07s.28-.03.41-.08.24-.12.34-.21.17-.2.22-.32c.05-.12.08-.26.08-.4s-.03-.26-.08-.38Z"/><path d="M7.6,251.84c.13-.25.32-.47.55-.65.23-.18.52-.32.85-.42.33-.1.69-.15,1.08-.15s.76.05,1.1.15.62.24.86.42c.24.18.43.4.56.65.13.25.2.52.2.83s-.07.57-.2.82-.32.47-.56.65c-.24.18-.53.32-.86.42-.33.1-.7.15-1.1.15s-.75-.05-1.08-.15c-.33-.1-.61-.24-.85-.42-.24-.18-.42-.4-.55-.65-.13-.25-.2-.53-.2-.83s.07-.58.2-.83ZM8.23,253.2c.1.16.23.29.41.41.18.11.38.2.63.27.24.07.51.1.81.1s.57-.03.82-.09c.25-.06.46-.15.64-.27.18-.12.32-.25.42-.41.1-.16.15-.33.15-.52s-.05-.37-.15-.53c-.1-.16-.24-.3-.42-.41-.18-.11-.39-.2-.64-.27-.25-.06-.52-.09-.82-.09s-.56.03-.81.09c-.25.06-.46.15-.63.26-.17.11-.31.25-.41.41-.1.16-.15.34-.15.53s.05.37.15.52Z"/><path d="M9.1,247.01h.67c-.24-.11-.42-.26-.54-.45-.12-.18-.18-.4-.18-.63,0-.26.07-.48.2-.67.14-.19.33-.32.59-.41-.26-.11-.45-.27-.59-.46-.14-.2-.2-.43-.2-.7,0-.38.12-.67.37-.88.25-.21.61-.31,1.07-.31h2.25v.7h-2.16c-.29,0-.52.07-.69.2-.17.13-.25.31-.25.54,0,.12.02.22.07.32.05.1.11.18.2.26.09.07.19.13.32.16.12.04.26.06.4.06h2.11v.7h-2.16c-.14,0-.27.02-.38.06-.12.04-.22.09-.3.15-.08.06-.14.14-.19.23-.04.09-.07.2-.07.31s.02.22.07.32c.05.1.12.18.21.25.09.07.2.12.32.17.12.04.26.06.41.06h2.09v.7h-3.64v-.68Z"/><path d="M9.1,240.83h.67c-.24-.11-.42-.26-.54-.45-.12-.18-.18-.4-.18-.63,0-.26.07-.48.2-.67.14-.19.33-.32.59-.41-.26-.11-.45-.27-.59-.46-.14-.2-.2-.43-.2-.7,0-.38.12-.67.37-.88.25-.21.61-.31,1.07-.31h2.25v.7h-2.16c-.29,0-.52.07-.69.2-.17.13-.25.31-.25.54,0,.12.02.22.07.32.05.1.11.18.2.26.09.07.19.13.32.16.12.04.26.06.4.06h2.11v.7h-2.16c-.14,0-.27.02-.38.06-.12.04-.22.09-.3.15-.08.06-.14.14-.19.23-.04.09-.07.2-.07.31s.02.22.07.32c.05.1.12.18.21.25.09.07.2.12.32.17.12.04.26.06.41.06h2.09v.7h-3.64v-.68Z"/></g></g><g><g id="LINE-22"><line y2="217.87" x2="368.9" y1="217.87" x1="42.84" class="cls-3"/></g><g id="ARC-9"><path d="M41.16,216.19c0,.93.75,1.68,1.68,1.68" class="cls-3"/></g><g id="LINE-23"><line y2="215.34" x2="373.1" y1="215.34" x1="371.42" class="cls-3"/></g><g id="LINE-24"><line y2="206.7" x2="371.42" y1="215.34" x1="371.42" class="cls-3"/></g><g id="LINE-25"><line y2="206.7" x2="373.1" y1="206.7" x1="371.42" class="cls-3"/></g><g id="LINE-26"><line y2="206.7" x2="373.1" y1="215.34" x1="373.1" class="cls-3"/></g><g id="LINE-27"><line y2="223.23" x2="373.1" y1="223.23" x1="371.42" class="cls-3"/></g><g id="LINE-28"><line y2="223.23" x2="371.42" y1="215.34" x1="371.42" class="cls-3"/></g><g id="LINE-29"><line y2="223.23" x2="373.1" y1="215.34" x1="373.1" class="cls-3"/></g><g id="LINE-30"><line y2="223.23" x2="371.42" y1="224.87" x1="371.42" class="cls-3"/></g><g id="LINE-31"><line y2="224.87" x2="373.1" y1="223.23" x1="373.1" class="cls-3"/></g><g id="LINE-32"><line y2="283.32" x2="373.1" y1="283.32" x1="371.42" class="cls-3"/></g><g id="LINE-33"><line y2="224.87" x2="371.42" y1="281.64" x1="371.42" class="cls-3"/></g><g id="LINE-34"><line y2="224.87" x2="373.1" y1="283.32" x1="373.1" class="cls-3"/></g><g id="LINE-35"><line y2="215.34" x2="40.32" y1="215.34" x1="38.64" class="cls-3"/></g><g id="LINE-36"><line y2="206.7" x2="38.64" y1="215.34" x1="38.64" class="cls-3"/></g><g id="LINE-37"><line y2="206.7" x2="40.32" y1="206.7" x1="38.64" class="cls-3"/></g><g id="LINE-38"><line y2="206.7" x2="40.32" y1="215.34" x1="40.32" class="cls-3"/></g><g id="LINE-39"><line y2="223.23" x2="40.32" y1="223.23" x1="38.64" class="cls-3"/></g><g id="LINE-40"><line y2="223.23" x2="38.64" y1="215.34" x1="38.64" class="cls-3"/></g><g id="LINE-41"><line y2="223.23" x2="40.32" y1="215.34" x1="40.32" class="cls-3"/></g><g id="LINE-42"><line y2="223.23" x2="38.64" y1="224.87" x1="38.64" class="cls-3"/></g><g id="LINE-43"><line y2="224.87" x2="40.32" y1="223.23" x1="40.32" class="cls-3"/></g><g id="LINE-44"><line y2="283.32" x2="40.32" y1="283.32" x1="38.64" class="cls-3"/></g><g id="LINE-45"><line y2="224.87" x2="38.64" y1="283.32" x1="38.64" class="cls-3"/></g><g id="LINE-46"><line y2="224.87" x2="40.32" y1="281.64" x1="40.32" class="cls-3"/></g><g id="LINE-47"><line y2="207.54" x2="41.16" y1="207.54" x1="40.32" class="cls-3"/></g><g id="ARC-10"><path d="M370.58,207.12c0-.06-.01-.11-.03-.16" class="cls-3"/></g><g id="LINE-48"><line y2="207.28" x2="370.58" y1="207.12" x1="370.58" class="cls-3"/></g><g id="LINE-49"><line y2="207.54" x2="370.58" y1="207.54" x1="371.42" class="cls-3"/></g><g id="LINE-50"><line y2="216.8" x2="40.32" y1="216.8" x1="41.28" class="cls-3"/></g><g id="LINE-51"><line y2="281.64" x2="45.36" y1="217.87" x1="45.36" class="cls-3"/></g><g id="LINE-52"><line y2="281.64" x2="366.38" y1="217.87" x1="366.38" class="cls-3"/></g><g id="LINE-53"><line y2="216.8" x2="370.46" y1="216.8" x1="371.42" class="cls-3"/></g><g id="LINE-54"><line y2="214.86" x2="370.58" y1="207.28" x1="370.58" class="cls-3"/></g><g id="ARC-11"><path d="M370.58,207.28c0-.93-.75-1.68-1.68-1.68" class="cls-3"/></g><g id="LINE-55"><line y2="205.6" x2="42.84" y1="205.6" x1="368.9" class="cls-3"/></g><g id="LINE-56"><line y2="207.28" x2="41.16" y1="214.86" x1="41.16" class="cls-3"/></g><g id="ARC-12"><path d="M42.84,205.6c-.93,0-1.68.75-1.68,1.68" class="cls-3"/></g><g id="ARC-13"><path d="M368.9,217.87c.93,0,1.68-.75,1.68-1.68" class="cls-3"/></g><g id="LINE-57"><line y2="216.19" x2="370.58" y1="214.86" x1="370.58" class="cls-3"/></g><g id="LINE-58"><path d="M41.16,214.86v1.33c0,.93.75,1.68,1.68,1.68" class="cls-3"/></g><g id="LINE-59"><line y2="217.87" x2="42.84" y1="217.87" x1="42.84" class="cls-3"/></g><g id="LINE-60"><line y2="283.32" x2="360.49" y1="281.64" x1="360.49" class="cls-3"/></g><g id="LINE-61"><line y2="281.64" x2="367.32" y1="281.64" x1="360.49" class="cls-3"/></g><g id="LINE-62"><line y2="283.32" x2="367.32" y1="283.32" x1="360.49" class="cls-3"/></g><g id="LINE-63"><line y2="281.64" x2="367.32" y1="281.64" x1="371.42" class="cls-3"/></g><g id="LINE-64"><line y2="283.32" x2="367.32" y1="283.32" x1="371.42" class="cls-3"/></g><g id="LINE-65"><line y2="281.64" x2="51.25" y1="281.64" x1="44.42" class="cls-3"/></g><g id="LINE-66"><line y2="283.32" x2="51.25" y1="281.64" x1="51.25" class="cls-3"/></g><g id="LINE-67"><line y2="283.32" x2="51.25" y1="283.32" x1="44.42" class="cls-3"/></g><g id="LINE-68"><line y2="283.32" x2="44.42" y1="283.32" x1="40.32" class="cls-3"/></g><g id="LINE-69"><line y2="281.64" x2="44.42" y1="281.64" x1="40.32" class="cls-3"/></g></g><g id="LINE-70"><g><line y2="31.23" x2="373.29" y1="31.23" x1="38.45" class="cls-1"/><rect height="1.95" width=".3" y="30.25" x="38.3"/><rect height="1.95" width=".3" y="30.25" x="373.14"/></g></g><g id="MTEXT-2"><g><path d="M187.71,21.81v5.29h-.72v-4.54l-1.3.64v-.73l1.36-.67h.67Z"/><path d="M191.09,21.94c.24.12.44.29.61.51.17.22.3.5.39.82.09.32.14.69.14,1.09s-.05.8-.15,1.15c-.1.35-.24.64-.43.89s-.41.43-.67.56c-.26.13-.55.2-.88.2-.37,0-.7-.09-.97-.27-.27-.18-.47-.43-.59-.76l.64-.29c.07.21.18.37.34.48.16.11.35.17.56.17.2,0,.38-.05.55-.14.17-.09.31-.23.44-.4.13-.17.22-.37.29-.61.07-.24.1-.49.1-.77v-.17c0-.06,0-.1,0-.15-.08.25-.23.45-.45.59-.22.14-.48.21-.79.21-.24,0-.46-.04-.65-.12-.2-.08-.36-.19-.5-.34-.14-.14-.25-.32-.33-.52-.08-.2-.12-.42-.12-.66s.04-.47.13-.68c.08-.21.2-.38.35-.52.15-.14.32-.26.53-.34.21-.08.43-.12.68-.12.3,0,.57.06.81.18ZM189.92,22.51c-.12.05-.22.12-.3.21-.08.09-.15.19-.2.31-.05.12-.07.26-.07.41s.02.29.07.41c.05.12.12.23.2.32.09.09.19.16.31.21.12.05.25.07.4.07s.27-.02.39-.07c.12-.05.22-.12.31-.2.09-.09.15-.19.2-.31.05-.12.07-.25.07-.4s-.03-.28-.08-.41c-.05-.13-.13-.24-.21-.34-.09-.1-.2-.17-.32-.22s-.26-.08-.4-.08-.26.03-.38.08Z"/><path d="M193.83,27.05c-.22-.07-.4-.17-.56-.31-.15-.13-.28-.29-.36-.47s-.13-.38-.13-.6c0-.16.02-.31.07-.45.05-.15.11-.28.2-.4.09-.12.19-.22.31-.3s.25-.14.4-.18c-.14-.05-.25-.12-.36-.2-.1-.08-.19-.17-.27-.27s-.13-.21-.17-.33c-.04-.12-.06-.25-.06-.38,0-.21.04-.39.12-.56.08-.17.2-.32.34-.44.14-.13.32-.22.52-.29.2-.07.42-.1.66-.1s.46.03.66.1c.2.07.37.17.52.29.15.12.26.27.35.44.08.17.13.36.13.57,0,.13-.02.26-.06.38-.04.12-.1.24-.17.34-.07.1-.16.19-.27.27-.1.08-.22.14-.35.19.15.04.28.1.4.18s.22.19.3.31c.08.12.15.25.2.4.05.14.07.29.07.45,0,.21-.04.41-.13.6-.09.18-.21.34-.36.47-.15.13-.34.24-.56.31-.22.07-.46.11-.72.11s-.5-.04-.72-.11ZM194.97,26.42c.13-.04.23-.11.32-.19.09-.08.16-.18.21-.29.05-.11.08-.24.08-.37s-.03-.26-.08-.37c-.05-.11-.12-.21-.21-.29-.09-.08-.2-.15-.33-.2-.13-.05-.26-.07-.41-.07s-.28.02-.41.07c-.13.04-.23.11-.33.19s-.16.18-.21.3c-.05.11-.07.24-.07.37,0,.14.02.27.07.38.05.11.12.21.21.29.09.08.2.14.33.19.13.04.26.07.41.07s.29-.02.41-.07ZM194.2,22.49c-.11.04-.2.09-.28.16-.08.07-.14.15-.18.26s-.07.21-.07.33c0,.11.02.22.07.32.04.1.11.19.19.26.08.07.17.13.28.17s.23.06.35.06.25-.02.35-.06c.1-.04.2-.1.28-.17s.14-.16.19-.26c.04-.1.07-.21.07-.32,0-.12-.02-.23-.07-.33-.04-.1-.11-.19-.19-.26-.08-.07-.17-.12-.28-.16-.11-.04-.23-.06-.36-.06s-.24.02-.35.06Z"/><path d="M198.01,26.98c-.24-.12-.44-.29-.61-.51-.17-.22-.3-.5-.39-.82s-.14-.69-.14-1.09.05-.8.15-1.15c.1-.35.24-.64.43-.89.18-.25.41-.43.67-.56.26-.13.55-.2.88-.2.37,0,.7.09.97.27.27.18.47.43.59.76l-.64.29c-.07-.21-.18-.37-.34-.48-.16-.11-.35-.17-.56-.17-.2,0-.38.05-.55.14s-.31.23-.44.4c-.13.17-.22.37-.29.61s-.1.49-.1.77v.17c0,.06,0,.1,0,.15.08-.25.23-.45.45-.59.22-.14.48-.21.79-.21.24,0,.46.04.65.12.2.08.36.19.5.34.14.15.25.32.33.52.08.2.12.42.12.66s-.04.47-.13.68c-.08.21-.2.38-.35.53-.15.14-.32.26-.53.34s-.43.12-.68.12c-.3,0-.57-.06-.81-.18ZM199.18,26.41c.12-.05.22-.12.3-.21.08-.09.15-.19.2-.31.05-.12.07-.26.07-.41s-.02-.29-.07-.41c-.05-.12-.12-.23-.2-.32s-.19-.16-.31-.21-.25-.07-.4-.07-.27.02-.39.07-.22.12-.31.2c-.09.09-.15.19-.2.31-.05.12-.07.25-.07.4s.03.28.08.41.12.24.21.34.2.17.32.22c.12.05.26.08.4.08s.26-.03.38-.08Z"/><path d="M204.17,23.46v.67c.11-.24.26-.42.45-.54.18-.12.4-.18.63-.18.26,0,.48.07.67.2.19.14.32.33.41.59.11-.26.27-.45.46-.59.2-.14.43-.2.7-.2.38,0,.67.12.88.37.21.25.31.61.31,1.07v2.25h-.7v-2.16c0-.29-.07-.52-.2-.69-.13-.17-.31-.25-.54-.25-.12,0-.22.02-.32.07-.1.05-.18.11-.26.2-.07.09-.13.19-.16.32-.04.12-.06.26-.06.4v2.11h-.7v-2.16c0-.14-.02-.27-.06-.38-.04-.12-.09-.22-.15-.3-.06-.08-.14-.14-.23-.19-.09-.04-.2-.07-.31-.07s-.22.02-.32.07c-.1.05-.18.12-.25.21-.07.09-.12.2-.17.32-.04.12-.06.26-.06.41v2.09h-.7v-3.64h.68Z"/><path d="M210.36,23.46v.67c.11-.24.26-.42.45-.54.18-.12.4-.18.63-.18.26,0,.48.07.67.2.19.14.32.33.41.59.11-.26.27-.45.46-.59.2-.14.43-.2.7-.2.38,0,.67.12.88.37.21.25.31.61.31,1.07v2.25h-.7v-2.16c0-.29-.07-.52-.2-.69-.13-.17-.31-.25-.54-.25-.12,0-.22.02-.32.07-.1.05-.18.11-.26.2-.07.09-.13.19-.16.32-.04.12-.06.26-.06.4v2.11h-.7v-2.16c0-.14-.02-.27-.06-.38-.04-.12-.09-.22-.15-.3-.06-.08-.14-.14-.23-.19-.09-.04-.2-.07-.31-.07s-.22.02-.32.07c-.1.05-.18.12-.25.21-.07.09-.12.2-.17.32-.04.12-.06.26-.06.41v2.09h-.7v-3.64h.68Z"/></g></g><g id="LINE-71"><g><line y2="151.99" x2="16.87" y1="56.29" x1="16.87" class="cls-1"/><rect height=".3" width="1.95" y="56.14" x="15.89"/><rect height=".3" width="1.95" y="151.84" x="15.89"/></g></g><g id="MTEXT-3"><g><path d="M7.45,117.69h.65v1.92l1.54.25c-.09-.1-.16-.22-.21-.36-.05-.14-.07-.29-.07-.46,0-.25.04-.47.13-.68.08-.21.2-.38.35-.53.15-.15.33-.27.54-.35.21-.08.44-.12.69-.12s.48.04.7.13c.21.09.4.21.55.36.15.16.27.34.36.56.08.21.13.45.13.71,0,.2-.03.39-.08.58s-.13.35-.23.5c-.1.15-.22.28-.36.39-.14.11-.3.19-.48.24l-.31-.63c.24-.07.43-.19.56-.39.14-.19.21-.42.21-.67,0-.15-.03-.29-.08-.41-.05-.13-.12-.23-.21-.33-.09-.09-.2-.16-.33-.21-.13-.05-.27-.08-.43-.08s-.3.03-.44.08c-.13.05-.25.13-.34.22s-.17.21-.22.34c-.05.13-.08.28-.08.44,0,.18.04.35.1.49.07.14.17.26.31.36l-.15.62-2.79-.47v-2.52Z"/><path d="M12.74,116.3l-4.62-1.78v2.69h-.67v-3.5h.59l4.7,1.77v.83Z"/><path d="M7.45,111.34h5.29v.72h-4.54l.64,1.3h-.73l-.67-1.36v-.67Z"/><path d="M9.1,107.44h.67c-.24-.11-.42-.26-.54-.45-.12-.18-.18-.4-.18-.63,0-.26.07-.48.2-.67.14-.19.33-.32.59-.41-.26-.11-.45-.27-.59-.46-.14-.2-.2-.43-.2-.7,0-.38.12-.67.37-.88.25-.21.61-.31,1.07-.31h2.25v.7h-2.16c-.29,0-.52.07-.69.2-.17.13-.25.31-.25.54,0,.12.02.22.07.32.05.1.11.18.2.26.09.07.19.13.32.16.12.04.26.06.4.06h2.11v.7h-2.16c-.14,0-.27.02-.38.06-.12.04-.22.09-.3.15-.08.06-.14.14-.19.23-.04.09-.07.2-.07.31s.02.22.07.32c.05.1.12.18.21.25.09.07.2.12.32.17.12.04.26.06.41.06h2.09v.7h-3.64v-.68Z"/><path d="M9.1,101.26h.67c-.24-.11-.42-.26-.54-.45-.12-.18-.18-.4-.18-.63,0-.26.07-.48.2-.67.14-.19.33-.32.59-.41-.26-.11-.45-.27-.59-.46-.14-.2-.2-.43-.2-.7,0-.38.12-.67.37-.88.25-.21.61-.31,1.07-.31h2.25v.7h-2.16c-.29,0-.52.07-.69.2-.17.13-.25.31-.25.54,0,.12.02.22.07.32.05.1.11.18.2.26.09.07.19.13.32.16.12.04.26.06.4.06h2.11v.7h-2.16c-.14,0-.27.02-.38.06-.12.04-.22.09-.3.15-.08.06-.14.14-.19.23-.04.09-.07.2-.07.31s.02.22.07.32c.05.1.12.18.21.25.09.07.2.12.32.17.12.04.26.06.41.06h2.09v.7h-3.64v-.68Z"/></g></g><g><g id="LINE-72"><line y2="57.24" x2="371.42" y1="57.24" x1="373.1" class="cls-3"/></g><g id="LINE-73"><line y2="151.04" x2="373.1" y1="151.04" x1="371.42" class="cls-3"/></g><g id="LINE-74"><line y2="57.24" x2="38.64" y1="57.24" x1="40.32" class="cls-3"/></g><g id="LINE-75"><line y2="151.04" x2="40.32" y1="151.04" x1="38.64" class="cls-3"/></g><g id="LINE-76"><line y2="57.24" x2="371.42" y1="61.62" x1="371.42" class="cls-3"/></g><g id="LINE-77"><line y2="57.24" x2="373.1" y1="61.62" x1="373.1" class="cls-3"/></g><g id="LINE-78"><line y2="61.62" x2="371.42" y1="146.67" x1="371.42" class="cls-3"/></g><g id="LINE-79"><line y2="61.62" x2="373.1" y1="146.67" x1="373.1" class="cls-3"/></g><g id="LINE-80"><line y2="146.67" x2="371.42" y1="151.04" x1="371.42" class="cls-3"/></g><g id="LINE-81"><line y2="146.67" x2="373.1" y1="151.04" x1="373.1" class="cls-3"/></g><g id="LINE-82"><line y2="57.24" x2="38.64" y1="61.62" x1="38.64" class="cls-3"/></g><g id="LINE-83"><line y2="57.24" x2="40.32" y1="61.62" x1="40.32" class="cls-3"/></g><g id="LINE-84"><line y2="61.62" x2="38.64" y1="146.67" x1="38.64" class="cls-3"/></g><g id="LINE-85"><line y2="61.62" x2="40.32" y1="146.67" x1="40.32" class="cls-3"/></g><g id="LINE-86"><line y2="146.67" x2="38.64" y1="151.04" x1="38.64" class="cls-3"/></g><g id="LINE-87"><line y2="146.67" x2="40.32" y1="151.04" x1="40.32" class="cls-3"/></g><g id="LINE-88"><line y2="104.65" x2="41.58" y1="103.64" x1="41.58" class="cls-3"/></g><g id="LINE-89"><line y2="103.64" x2="370.16" y1="104.65" x1="370.16" class="cls-3"/></g><g id="LINE-90"><line y2="104.65" x2="370.58" y1="103.64" x1="370.58" class="cls-3"/></g><g id="LINE-91"><line y2="103.64" x2="41.16" y1="104.65" x1="41.16" class="cls-3"/></g><g id="LINE-92"><line y2="103.64" x2="371.42" y1="103.64" x1="40.32" class="cls-3"/></g><g id="LINE-93"><line y2="104.65" x2="371.42" y1="104.65" x1="40.32" class="cls-3"/></g><g id="LINE-94"><line y2="103.64" x2="45.36" y1="103.3" x1="45.36" class="cls-3"/></g><g id="LINE-95"><line y2="104.98" x2="45.36" y1="104.65" x1="45.36" class="cls-3"/></g><g id="LINE-96"><line y2="103.64" x2="366.38" y1="103.3" x1="366.38" class="cls-3"/></g><g id="LINE-97"><line y2="104.98" x2="366.38" y1="104.65" x1="366.38" class="cls-3"/></g><g id="LINE-98"><line y2="95.05" x2="370.58" y1="95.72" x1="371.42" class="cls-3"/></g><g id="LINE-99"><line y2="113.24" x2="370.58" y1="112.56" x1="371.42" class="cls-3"/></g><g id="LINE-100"><line y2="104.65" x2="360.49" y1="104.98" x1="360.49" class="cls-3"/></g><g id="LINE-101"><line y2="103.3" x2="360.49" y1="103.64" x1="360.49" class="cls-3"/></g><g id="LINE-102"><line y2="113.24" x2="41.16" y1="112.56" x1="40.32" class="cls-3"/></g><g id="LINE-103"><line y2="95.05" x2="41.16" y1="95.72" x1="40.32" class="cls-3"/></g><g id="LINE-104"><line y2="103.64" x2="51.25" y1="103.3" x1="51.25" class="cls-3"/></g><g id="LINE-105"><line y2="104.98" x2="51.25" y1="104.65" x1="51.25" class="cls-3"/></g><g id="LINE-106"><line y2="56.07" x2="42.85" y1="56.07" x1="368.91" class="cls-3"/></g><rect ry="1.74" rx="1.74" height="47.23" width="329.42" y="56.07" x="41.17" class="cls-3"/><rect ry="1.74" rx="1.74" height="47.23" width="329.42" y="104.98" x="41.16" class="cls-3"/><rect height="1.68" width="331.1" y="103.3" x="40.32" class="cls-3"/></g></g></g></g></svg>