<svg viewBox="0 0 531.26 288" xmlns="http://www.w3.org/2000/svg" id="Urban"><defs><style>.cls-1,.cls-2{stroke:#000;}.cls-1,.cls-2,.cls-3{stroke-width:.3px;}.cls-1,.cls-3{fill:none;stroke-linecap:round;stroke-linejoin:round;}.cls-2{fill:#f1efea;stroke-miterlimit:10;}.cls-4{fill:#12100a;}.cls-3{stroke:#12100a;}</style></defs><g id="Frame"><g id="banco_SMART_sem_costas"><line y2="21.48" x2="39.27" y1="21.48" x1="395.47" class="cls-3"/><rect height="1.95" width=".3" y="20.51" x="395.32" class="cls-4"/><rect height="1.95" width=".3" y="20.51" x="39.12" class="cls-4"/><path d="M7.4,93.1h.65v1.92l1.54.25c-.09-.1-.16-.22-.21-.36-.05-.14-.07-.29-.07-.46,0-.25.04-.47.13-.68.08-.21.2-.38.35-.53.15-.15.33-.27.54-.35.21-.08.44-.12.69-.12s.48.04.7.13c.21.09.4.21.55.37.15.16.27.34.36.56.08.21.13.45.13.71,0,.2-.03.39-.08.58-.05.18-.13.35-.23.5-.1.15-.22.28-.36.39-.14.11-.3.19-.48.24l-.31-.63c.24-.07.43-.19.56-.39.14-.19.21-.42.21-.67,0-.15-.03-.29-.08-.41-.05-.13-.12-.24-.21-.33-.09-.09-.2-.16-.33-.21s-.27-.08-.43-.08-.3.03-.44.08c-.13.05-.25.13-.34.22s-.17.21-.22.34-.08.28-.08.45c0,.18.04.34.1.49.07.14.17.26.31.36l-.15.62-2.79-.47v-2.52Z"/><path d="M7.4,90.44h5.29v.72h-4.54l.64,1.3h-.73l-.67-1.36v-.67Z"/><path d="M7.54,86.74c.13-.25.32-.47.55-.65s.52-.32.85-.42c.33-.1.69-.15,1.08-.15s.76.05,1.1.15.62.24.86.42c.24.18.43.4.56.64.13.25.2.52.2.83s-.07.57-.2.82-.32.47-.56.65c-.24.18-.53.32-.86.42s-.7.15-1.1.15-.75-.05-1.08-.15c-.33-.1-.61-.24-.85-.42-.24-.18-.42-.39-.55-.65-.13-.25-.2-.53-.2-.83s.07-.58.2-.83ZM8.17,88.09c.1.16.23.29.41.41.18.11.38.2.63.27.24.07.51.1.81.1s.57-.03.82-.09c.25-.06.46-.15.64-.27.18-.12.32-.25.42-.41.1-.16.15-.33.15-.52s-.05-.37-.15-.53c-.1-.16-.24-.3-.42-.41-.18-.11-.39-.2-.64-.27-.25-.06-.52-.09-.82-.09s-.56.03-.81.09c-.25.06-.46.15-.63.26-.17.11-.31.25-.41.41-.1.16-.15.34-.15.53s.05.37.15.52Z"/><path d="M9.04,81.91h.67c-.24-.11-.42-.26-.54-.45-.12-.18-.18-.4-.18-.63,0-.26.07-.48.2-.67.14-.19.33-.32.59-.41-.26-.11-.45-.27-.59-.46-.14-.2-.2-.43-.2-.7,0-.38.12-.67.37-.88.25-.21.61-.31,1.07-.31h2.25v.7h-2.16c-.29,0-.52.07-.69.2-.17.13-.25.31-.25.54,0,.12.02.22.07.32.05.1.11.18.2.26.09.07.19.13.32.17.12.04.26.06.4.06h2.11v.7h-2.16c-.14,0-.27.02-.38.06s-.22.09-.3.15c-.08.06-.14.14-.19.23-.04.09-.07.2-.07.31s.02.22.07.32c.05.1.12.18.21.25.09.07.2.12.32.17.12.04.26.06.41.06h2.09v.7h-3.64v-.68Z"/><path d="M9.04,75.73h.67c-.24-.11-.42-.26-.54-.45-.12-.18-.18-.4-.18-.63,0-.26.07-.48.2-.67.14-.19.33-.32.59-.41-.26-.11-.45-.27-.59-.46-.14-.2-.2-.43-.2-.7,0-.38.12-.67.37-.88.25-.21.61-.31,1.07-.31h2.25v.7h-2.16c-.29,0-.52.07-.69.2-.17.13-.25.31-.25.54,0,.12.02.22.07.32.05.1.11.18.2.26.09.07.19.13.32.17.12.04.26.06.4.06h2.11v.7h-2.16c-.14,0-.27.02-.38.06s-.22.09-.3.15c-.08.06-.14.14-.19.23-.04.09-.07.2-.07.31s.02.22.07.32c.05.1.12.18.21.25.09.07.2.12.32.17.12.04.26.06.41.06h2.09v.7h-3.64v-.68Z"/><line y2="130.4" x2="16.61" y1="34.7" x1="16.61" class="cls-3"/><rect height=".3" width="1.95" y="34.55" x="15.63" class="cls-4"/><rect height=".3" width="1.95" y="130.25" x="15.63" class="cls-4"/><path d="M7.4,249.52h5.29v.73h-4.36s.08.04.1.06c.03.02.06.04.09.07l2.02,1.35s.06.04.08.05.05.03.08.06v-3.2h.64v3.98h-.59l-3.35-2.22v-.87Z"/><path d="M12.56,247.08c-.12.24-.29.44-.51.61-.22.17-.5.3-.82.39s-.69.14-1.09.14-.8-.05-1.15-.15c-.35-.1-.64-.24-.89-.43-.25-.18-.43-.41-.56-.67-.13-.26-.2-.55-.2-.88,0-.37.09-.7.27-.97.18-.27.43-.47.76-.59l.29.64c-.21.07-.37.18-.48.34-.11.16-.17.35-.17.56,0,.2.05.38.14.55s.23.31.4.44c.17.13.37.22.61.29s.49.1.77.1h.17c.06,0,.1,0,.15,0-.25-.08-.45-.23-.59-.45-.14-.22-.21-.48-.21-.79,0-.24.04-.46.12-.65.08-.2.19-.36.34-.5.15-.14.32-.25.52-.33.2-.08.42-.12.66-.12s.47.04.68.13c.21.08.38.2.53.35.14.15.26.32.34.53s.12.43.12.68c0,.3-.06.57-.18.81ZM11.99,245.91c-.05-.12-.12-.22-.21-.3-.09-.08-.19-.15-.31-.2-.12-.05-.26-.07-.41-.07s-.29.02-.41.07c-.12.05-.23.12-.32.2s-.16.19-.21.31-.07.25-.07.4.02.27.07.39.12.22.2.31c.09.09.19.15.31.2.12.05.25.07.4.07s.28-.03.41-.08.24-.12.34-.21.17-.2.22-.32c.05-.12.08-.26.08-.4s-.03-.26-.08-.38Z"/><path d="M7.54,241.11c.13-.25.32-.47.55-.65.23-.18.52-.32.85-.42.33-.1.69-.15,1.08-.15s.76.05,1.1.15.62.24.86.42c.24.18.43.4.56.65.13.25.2.52.2.83s-.07.57-.2.82-.32.47-.56.65c-.24.18-.53.32-.86.42-.33.1-.7.15-1.1.15s-.75-.05-1.08-.15c-.33-.1-.61-.24-.85-.42-.24-.18-.42-.4-.55-.65-.13-.25-.2-.53-.2-.83s.07-.58.2-.83ZM8.17,242.46c.1.16.23.29.41.41.18.11.38.2.63.27.24.07.51.1.81.1s.57-.03.82-.09c.25-.06.46-.15.64-.27.18-.12.32-.25.42-.41.1-.16.15-.33.15-.52s-.05-.37-.15-.53c-.1-.16-.24-.3-.42-.41-.18-.11-.39-.2-.64-.27-.25-.06-.52-.09-.82-.09s-.56.03-.81.09c-.25.06-.46.15-.63.26-.17.11-.31.25-.41.41-.1.16-.15.34-.15.53s.05.37.15.52Z"/><path d="M9.04,236.28h.67c-.24-.11-.42-.26-.54-.45-.12-.18-.18-.4-.18-.63,0-.26.07-.48.2-.67.14-.19.33-.32.59-.41-.26-.11-.45-.27-.59-.46-.14-.2-.2-.43-.2-.7,0-.38.12-.67.37-.88.25-.21.61-.31,1.07-.31h2.25v.7h-2.16c-.29,0-.52.07-.69.2-.17.13-.25.31-.25.54,0,.12.02.22.07.32.05.1.11.18.2.26.09.07.19.13.32.16.12.04.26.06.4.06h2.11v.7h-2.16c-.14,0-.27.02-.38.06-.12.04-.22.09-.3.15-.08.06-.14.14-.19.23-.04.09-.07.2-.07.31s.02.22.07.32c.05.1.12.18.21.25.09.07.2.12.32.17.12.04.26.06.41.06h2.09v.7h-3.64v-.68Z"/><path d="M9.04,230.09h.67c-.24-.11-.42-.26-.54-.45-.12-.18-.18-.4-.18-.63,0-.26.07-.48.2-.67.14-.19.33-.32.59-.41-.26-.11-.45-.27-.59-.46-.14-.2-.2-.43-.2-.7,0-.38.12-.67.37-.88.25-.21.61-.31,1.07-.31h2.25v.7h-2.16c-.29,0-.52.07-.69.2-.17.13-.25.31-.25.54,0,.12.02.22.07.32.05.1.11.18.2.26.09.07.19.13.32.16.12.04.26.06.4.06h2.11v.7h-2.16c-.14,0-.27.02-.38.06-.12.04-.22.09-.3.15-.08.06-.14.14-.19.23-.04.09-.07.2-.07.31s.02.22.07.32c.05.1.12.18.21.25.09.07.2.12.32.17.12.04.26.06.41.06h2.09v.7h-3.64v-.68Z"/><line y2="282.13" x2="16.61" y1="195.85" x1="16.61" class="cls-3"/><rect height=".3" width="1.95" y="195.7" x="15.63" class="cls-4"/><rect height=".3" width="1.95" y="281.98" x="15.63" class="cls-4"/><g id="LINE-2"><line y2="198.27" x2="38.71" y1="198.27" x1="395.51" class="cls-1"/></g><g id="LINE-3"><path d="M395.51,196.38v1.89-1.89H38.71v86.95h16.9v-68.05h323s0,68.05,0,68.05h16.9v-85.06" class="cls-1"/></g><g id="LINE-4"><path d="M395.51,204.41h1.41c.52,0,.94-.42.94-.95v-2.93" class="cls-1"/></g><g id="LINE-5"><polyline points="395.51 200.54 395.51 199.69 397.86 199.69 397.86 200.54" class="cls-1"/></g><polyline points="396.27 204.41 397.56 204.41 397.56 206.68 396.27 206.68" class="cls-1"/><line y2="206.68" x2="395.51" y1="206.68" x1="396.27" class="cls-1"/><g id="LINE-6"><line y2="197.73" x2="515.77" y1="197.73" x1="513.88" class="cls-1"/></g><g id="LINE-7"><line y2="197.73" x2="421.25" y1="197.73" x1="419.36" class="cls-1"/></g><g id="LINE-8"><line y2="214.85" x2="513.88" y1="214.85" x1="421.25" class="cls-1"/></g><g id="LINE-9"><polyline points="513.88 197.73 515.77 197.73 515.77 283.33 513.88 283.33 421.25 283.33 419.36 283.33 419.36 197.73 421.25 197.73" class="cls-1"/></g><g id="LINE-10"><polyline points="513.88 197.73 513.88 281.43 513.88 279.57" class="cls-1"/></g><g id="LINE-11"><line y2="281.43" x2="421.25" y1="197.73" x1="421.25" class="cls-1"/></g><g id="LINE-12"><line y2="281.43" x2="513.88" y1="281.43" x1="421.25" class="cls-1"/></g><path d="M506.95,196.38h6.29c.35,0,.64.28.64.64v14.62h-7.56v-14.62c0-.35.28-.64.64-.64Z" class="cls-1"/><path d="M497.5,196.38h6.29c.35,0,.64.28.64.64v14.62h-7.56v-14.62c0-.35.28-.64.64-.64Z" class="cls-1"/><path d="M488.05,196.38h6.29c.35,0,.64.28.64.64v14.62h-7.56v-14.62c0-.35.28-.64.64-.64Z" class="cls-1"/><path d="M478.6,196.38h6.29c.35,0,.64.28.64.64v14.62h-7.56v-14.62c0-.35.28-.64.64-.64Z" class="cls-1"/><path d="M469.15,196.38h6.29c.35,0,.64.28.64.64v14.62h-7.56v-14.62c0-.35.28-.64.64-.64Z" class="cls-1"/><path d="M459.69,196.38h6.29c.35,0,.64.28.64.64v14.62h-7.56v-14.62c0-.35.28-.64.64-.64Z" class="cls-1"/><path d="M421.89,196.38h6.29c.35,0,.64.28.64.64v14.62h-7.56v-14.62c0-.35.28-.64.64-.64Z" class="cls-1"/><rect height="15.25" width="26.56" y="196.38" x="430.66" class="cls-1"/><g id="ARC"><path d="M504.43,202.5c0-.21.18-.38.4-.38h1.09c.22,0,.4.17.4.38" class="cls-1"/></g><g id="ARC-2"><path d="M494.97,202.5c0-.21.18-.38.4-.38h1.09c.22,0,.4.17.4.38" class="cls-1"/></g><g id="ARC-3"><path d="M485.52,202.5c0-.21.18-.38.4-.38h1.09c.22,0,.4.17.4.38" class="cls-1"/></g><g id="ARC-4"><path d="M476.07,202.5c0-.21.18-.38.4-.38h1.09c.22,0,.4.17.4.38" class="cls-1"/></g><g id="ARC-5"><path d="M466.62,202.5c0-.21.18-.38.4-.38h1.09c.22,0,.4.17.4.38" class="cls-1"/></g><g id="ARC-6"><path d="M457.22,202.5c0-.21.17-.38.39-.38h1.07c.21,0,.39.17.39.38" class="cls-1"/></g><g id="ARC-7"><path d="M428.82,202.5c0-.21.17-.38.39-.38h1.07c.21,0,.39.17.39.38" class="cls-1"/></g><g id="LINE-13"><path d="M433.8,204.6v-3.9c0-.47.38-.86.85-.86h18.15c.47,0,.85.38.85.86v3.9" class="cls-1"/></g><g id="ARC-8"><path d="M437.2,201.89c-.71.52-1.13,1.35-1.13,2.23" class="cls-1"/></g><g id="ARC-9"><path d="M441.55,204.12c0-.88-.42-1.72-1.13-2.23" class="cls-1"/></g><g id="CIRCLE"><ellipse ry="2.76" rx="2.74" cy="204.12" cx="438.81" class="cls-1"/></g><polyline points="437.2 201.89 437.2 200.75 440.42 200.75 440.42 201.89" class="cls-1"/><g id="LINE-14"><line y2="201.04" x2="450.25" y1="201.04" x1="450.26" class="cls-1"/></g><g id="ARC-10"><path d="M447.03,201.89c-.71.52-1.13,1.35-1.13,2.23" class="cls-1"/></g><g id="ARC-11"><path d="M451.38,204.12c0-.88-.42-1.72-1.13-2.23" class="cls-1"/></g><g id="CIRCLE-2"><ellipse ry="2.76" rx="2.74" cy="204.12" cx="448.64" class="cls-1"/></g><polyline points="447.03 201.89 447.03 200.75 450.25 200.75 450.25 201.89" class="cls-1"/><rect height="96.4" width="356.82" y="34.61" x="38.85" class="cls-2"/><rect height="7.56" width="356.82" y="36.5" x="38.85" class="cls-2"/><rect height="7.56" width="356.82" y="45.95" x="38.85" class="cls-2"/><rect height="7.56" width="356.82" y="36.5" x="38.85" class="cls-2"/><rect height="7.56" width="356.82" y="55.41" x="38.85" class="cls-2"/><rect height="7.56" width="356.82" y="64.86" x="38.85" class="cls-2"/><rect height="7.56" width="356.82" y="74.31" x="38.85" class="cls-2"/><rect height="7.56" width="356.82" y="83.76" x="38.85" class="cls-2"/><rect height="7.56" width="356.82" y="93.21" x="38.85" class="cls-2"/><rect height="7.56" width="356.82" y="103.13" x="38.85" class="cls-2"/><rect height="7.56" width="356.82" y="112.59" x="38.85" class="cls-2"/><rect height="7.56" width="356.82" y="122.04" x="38.85" class="cls-2"/><rect height="26.94" width="171.18" y="93.21" x="224.49" class="cls-2"/><path d="M364.13,93.21h13.99v1.47c0,.23-.19.42-.42.42h-13.16c-.23,0-.42-.19-.42-.42v-1.47h0Z" class="cls-2"/><path transform="translate(742.26 238.4) rotate(-180)" d="M364.13,118.26h13.99v1.47c0,.23-.19.42-.42.42h-13.16c-.23,0-.42-.19-.42-.42v-1.47h0Z" class="cls-2"/><rect height="19.85" width="2.33" y="96.75" x="395.67" class="cls-2"/><path d="M204.58,12.38v5.18h-.71v-3.8c0-.07,0-.13-.02-.19-.01-.05-.03-.09-.05-.12-.03-.03-.06-.06-.1-.07-.04-.02-.09-.02-.15-.02-.06,0-.12,0-.18.03-.06.02-.13.05-.2.08l-.57.28v-.71l1.33-.65h.65Z" class="cls-4"/><path d="M207.86,12.5c.23.12.43.28.6.5s.3.49.38.81c.09.32.13.67.13,1.06,0,.42-.05.79-.15,1.13-.1.34-.24.63-.42.87-.18.24-.4.42-.66.55-.26.13-.54.19-.86.19-.37,0-.68-.09-.95-.26-.27-.17-.46-.42-.58-.75l.62-.29c.06.21.18.37.34.48.16.11.35.16.57.16.18,0,.34-.04.49-.12.15-.08.28-.19.4-.33.11-.14.2-.32.26-.51s.09-.41.09-.63c0-.06-.01-.12-.03-.15-.02-.04-.05-.06-.1-.05-.01,0-.03,0-.04,0s-.02,0-.03.01-.02.01-.04.02-.03.02-.04.04c-.12.11-.25.19-.38.25-.14.05-.29.08-.45.08-.23,0-.45-.04-.64-.12s-.36-.19-.5-.33c-.14-.14-.25-.31-.33-.51s-.12-.41-.12-.64.04-.46.12-.67.2-.37.34-.52c.14-.14.32-.25.52-.33.2-.08.42-.12.66-.12.29,0,.56.06.79.17ZM206.72,13.06c-.12.05-.22.12-.3.21-.08.09-.15.19-.19.31-.05.12-.07.25-.07.4s.02.27.07.4c.05.12.11.23.2.32.08.09.19.16.3.21.12.05.25.07.39.07s.26-.02.38-.07c.12-.05.22-.11.3-.2s.15-.19.2-.3c.05-.12.07-.25.07-.39s-.03-.28-.08-.4c-.05-.13-.12-.24-.21-.33s-.19-.17-.31-.22c-.12-.05-.25-.08-.39-.08s-.26.03-.37.08Z" class="cls-4"/><path d="M212.3,12.52c.24.13.46.31.63.54.18.23.31.51.41.83.1.32.15.68.15,1.06s-.05.75-.15,1.07c-.1.33-.24.61-.42.84-.18.24-.39.42-.63.55-.24.13-.51.2-.81.2s-.56-.07-.81-.2c-.25-.13-.46-.31-.64-.55-.18-.24-.31-.52-.41-.84-.1-.33-.15-.69-.15-1.07s.05-.74.15-1.06c.1-.33.24-.6.41-.83.18-.23.39-.41.63-.54.24-.13.52-.19.81-.19s.57.07.81.2ZM210.97,13.14c-.15.1-.29.23-.4.4-.11.17-.2.38-.26.61-.06.24-.1.5-.1.79s.03.56.09.81c.06.25.15.46.26.63.11.18.25.31.41.41.16.1.32.15.51.15s.36-.05.51-.15c.16-.1.29-.24.4-.41.11-.18.2-.39.26-.63.06-.24.09-.51.09-.8s-.03-.55-.09-.79c-.06-.24-.15-.45-.26-.62-.11-.17-.24-.3-.4-.4-.16-.1-.33-.14-.52-.14s-.36.05-.51.14Z" class="cls-4"/><path d="M216.81,12.52c.24.13.46.31.63.54.18.23.31.51.41.83.1.32.15.68.15,1.06s-.05.75-.15,1.07c-.1.33-.24.61-.42.84-.18.24-.39.42-.63.55-.24.13-.51.2-.81.2s-.56-.07-.81-.2c-.25-.13-.46-.31-.64-.55-.18-.24-.31-.52-.41-.84-.1-.33-.15-.69-.15-1.07s.05-.74.15-1.06c.1-.33.24-.6.41-.83.18-.23.39-.41.63-.54.24-.13.52-.19.81-.19s.57.07.81.2ZM215.48,13.14c-.15.1-.29.23-.4.4-.11.17-.2.38-.26.61-.06.24-.1.5-.1.79s.03.56.09.81c.06.25.15.46.26.63.11.18.25.31.41.41.16.1.32.15.51.15s.36-.05.51-.15c.16-.1.29-.24.4-.41.11-.18.2-.39.26-.63.06-.24.09-.51.09-.8s-.03-.55-.09-.79c-.06-.24-.15-.45-.26-.62-.11-.17-.24-.3-.4-.4-.16-.1-.33-.14-.52-.14s-.36.05-.51.14Z" class="cls-4"/><path d="M221.46,13.99v.14c0,.06.01.11.03.13.02.02.05.03.09.03.02,0,.04,0,.05,0,.02,0,.03,0,.05-.02.02,0,.04-.02.06-.03s.04-.03.06-.05c.11-.09.22-.15.34-.19.12-.04.25-.06.4-.06.17,0,.31.03.45.08.13.06.25.14.36.27.05.05.09.09.13.11.04.02.08.03.13.03.02,0,.04,0,.06,0,.02,0,.04-.01.05-.02s.04-.02.06-.04.05-.04.07-.06c.11-.12.24-.21.39-.27.15-.06.31-.09.48-.09.37,0,.65.12.85.37.2.25.31.59.31,1.04v2.21h-.69v-2.12c0-.28-.07-.51-.2-.67-.13-.16-.31-.25-.53-.25-.11,0-.22.02-.32.07-.1.05-.18.11-.25.2s-.12.19-.16.31c-.04.12-.06.25-.06.39v2.07h-.69v-2.12c0-.14-.02-.26-.06-.38-.04-.11-.09-.21-.15-.29-.06-.08-.14-.14-.23-.19-.09-.04-.19-.07-.31-.07s-.21.02-.31.07c-.1.05-.18.11-.25.2s-.12.19-.16.32c-.04.12-.06.25-.06.4v2.05h-.69v-3.57h.65Z" class="cls-4"/><path d="M227.49,13.99v.14c0,.06.01.11.03.13.02.02.05.03.09.03.02,0,.04,0,.05,0,.02,0,.03,0,.05-.02.02,0,.04-.02.06-.03s.04-.03.06-.05c.11-.09.22-.15.34-.19.12-.04.25-.06.4-.06.17,0,.31.03.45.08.13.06.25.14.36.27.05.05.09.09.13.11.04.02.08.03.13.03.02,0,.04,0,.06,0,.02,0,.04-.01.05-.02s.04-.02.06-.04.05-.04.07-.06c.11-.12.24-.21.39-.27.15-.06.31-.09.48-.09.37,0,.65.12.85.37.2.25.31.59.31,1.04v2.21h-.69v-2.12c0-.28-.07-.51-.2-.67-.13-.16-.31-.25-.53-.25-.11,0-.22.02-.32.07-.1.05-.18.11-.25.2s-.12.19-.16.31c-.04.12-.06.25-.06.39v2.07h-.69v-2.12c0-.14-.02-.26-.06-.38-.04-.11-.09-.21-.15-.29-.06-.08-.14-.14-.23-.19-.09-.04-.19-.07-.31-.07s-.21.02-.31.07c-.1.05-.18.11-.25.2s-.12.19-.16.32c-.04.12-.06.25-.06.4v2.05h-.69v-3.57h.65Z" class="cls-4"/></g></g></svg>