<svg xml:space="preserve" style="enable-background:new 0 0 531.3 288;" viewBox="0 0 531.3 288" y="0px" x="0px" xmlns:xlink="http://www.w3.org/1999/xlink" xmlns="http://www.w3.org/2000/svg" id="Layer_1" version="1.1"><style type="text/css">.st0{fill:none;stroke:#000000;stroke-width:0.28;stroke-miterlimit:10;}
	.st1{fill:none;stroke:#12100A;stroke-width:0.3;stroke-linecap:round;stroke-linejoin:round;}
	.st2{fill:#12100A;}
	.st3{fill:none;stroke:#76544B;stroke-width:0.3;stroke-linecap:round;stroke-linejoin:round;}
	.st4{font-family:&apos;Zimula-MediumInkSpot&apos;;}
	.st5{font-size:7.1661px;}</style><g id="bases"><rect height="358.4" width="589.1" class="st0" y="-33.9" x="-25.4"/></g><g id="Urban"><g id="Frame"><g id="estacionamento_para_bicicletas_2"><g><line y2="283.2" x2="314.6" y1="259.9" x1="314.6" class="st1"/><rect height="0.3" width="2" class="st2" y="259.7" x="313.6"/><rect height="0.3" width="2" class="st2" y="283.1" x="313.6"/></g><g><line y2="236.3" x2="505.5" y1="236.3" x1="335.1" class="st1"/><rect height="1.9" width="0.3" class="st2" y="235.4" x="335"/><rect height="1.9" width="0.3" class="st2" y="235.4" x="505.3"/></g><g><line y2="283.2" x2="16.7" y1="23.6" x1="16.7" class="st1"/><rect height="0.3" width="2" class="st2" y="23.4" x="15.7"/><rect height="0.3" width="2" class="st2" y="283" x="15.7"/></g><g><line y2="283.3" x2="344.7" y1="283.3" x1="496" class="st3"/><line y2="260" x2="496" y1="260" x1="344.7" class="st3"/><rect height="20.4" width="2.6" class="st1" y="261.5" x="335"/><rect height="20.4" width="2.6" class="st1" y="261.5" x="503"/><path d="M338.6,260H502c0.5,0,1,0.4,1,1v21.4c0,0.5-0.4,1-1,1H338.6c-0.5,0-1-0.4-1-1V261
					C337.6,260.4,338.1,260,338.6,260z" class="st1"/><path d="M344.8,260h151.1c0.4,0,0.8,0.3,0.8,0.8v21.8c0,0.4-0.3,0.8-0.8,0.8H344.8c-0.4,0-0.8-0.3-0.8-0.8v-21.8
					C344,260.4,344.3,260,344.8,260z" class="st1"/></g><g><path d="M200,23.4h0.1h0.1h0.1h0.1h0.1h0.1l0.1,0.1l0.1,0.1l6,6.1l0.1,0.1l0.1,0.1l0.1,0.1v0.1v0.1v0.1v0.1v0.1
					v19.6H41.7V30.4v-0.1v-0.1v-0.1V30v-0.1l0.1-0.1l0.1-0.1l6-6.1l0.1-0.1l0.1-0.1h0.1h0.1h0.1h0.1h0.1h0.1L200,23.4" class="st1"/><path d="M207,34h2.6v243.2c0,3.4-2.7,6.2-6.1,6.2H45.2c-3.4,0-6.1-2.8-6.1-6.2V34h2.7" class="st1"/><path d="M41.7,50.1H207v226.4c0,2.3-1.9,4.2-4.2,4.2H45.5c-2.1,0-3.8-1.7-3.8-3.8V50.1L41.7,50.1z" class="st1"/></g><g><path d="M249.5,50.1H248V24.5c0-0.6,0.4-1,0.9-1h21.5c0.5,0,0.9,0.5,0.9,1v25.6h-1.5" class="st1"/><path d="M249.5,50.1H248V30.6c0-0.5,0.3-0.8,0.7-0.8h21.9c0.4,0,0.7,0.4,0.7,0.8v19.5h-1.5" class="st1"/><rect height="249.3" width="20.4" class="st1" y="34" x="249.5"/></g><text class="st4 st5" transform="matrix(1 0 0 1 407.7363 232.4045)">512 mm</text><text class="st4 st5" transform="matrix(6.123234e-17 -1 1 6.123234e-17 310.6726 283.7131)">80 mm</text><text class="st4 st5" transform="matrix(6.123234e-17 -1 1 6.123234e-17 12.7415 166.5568)">780 mm</text></g></g></g></svg>