<svg viewBox="0 0 531.27 288" xmlns:xlink="http://www.w3.org/1999/xlink" xmlns="http://www.w3.org/2000/svg" id="Camada_2"><defs><style>.cls-1,.cls-2,.cls-3,.cls-4{fill:none;}.cls-2{stroke-width:1px;}.cls-2,.cls-3{stroke-linecap:round;stroke-linejoin:round;}.cls-2,.cls-3,.cls-4{stroke:#12100b;}.cls-3,.cls-4{stroke-width:.34px;}.cls-4{stroke-miterlimit:10;}.cls-5{fill:#12100b;}</style><symbol viewBox="0 0 103.05 103.05" id="Novo_símbolo_9"><circle r="19.71" cy="51.52" cx="51.52" class="cls-2"/><circle r="17.01" cy="51.52" cx="51.52" class="cls-2"/><path d="M51.52.5C23.34.5.5,23.34.5,51.52s22.84,51.02,51.02,51.02,51.02-22.84,51.02-51.02S79.7.5,51.52.5ZM51.52,71.37c-10.96,0-19.84-8.88-19.84-19.84s8.88-19.84,19.84-19.84,19.84,8.88,19.84,19.84-8.88,19.84-19.84,19.84Z" class="cls-2"/></symbol><symbol viewBox="0 0 531.27 288" id="fundo_transparente"><rect height="288" width="531.27" x="0" class="cls-1"/></symbol></defs><g id="Golf"><g id="Driving_Range"><g id="pirâmide_de_bolas_Royal_55_bolas_"><use xlink:href="#fundo_transparente" height="288" width="531.27"/><rect ry="23.24" rx="23.24" height="177.3" width="148.19" y="59.44" x="31.59" class="cls-3"/><rect ry="16.14" rx="16.14" height="130.72" width="130.72" y="66.66" x="40.6" class="cls-3"/><use xlink:href="#Novo_símbolo_9" transform="translate(50.49 76.84) scale(.19)" height="103.05" width="103.05"/><use xlink:href="#Novo_símbolo_9" transform="translate(50.49 99.59) scale(.19)" height="103.05" width="103.05"/><use xlink:href="#Novo_símbolo_9" transform="translate(50.49 122.35) scale(.19)" height="103.05" width="103.05"/><use xlink:href="#Novo_símbolo_9" transform="translate(50.49 145.11) scale(.19)" height="103.05" width="103.05"/><use xlink:href="#Novo_símbolo_9" transform="translate(50.49 167.87) scale(.19)" height="103.05" width="103.05"/><use xlink:href="#Novo_símbolo_9" transform="translate(73.24 99.59) scale(.19)" height="103.05" width="103.05"/><use xlink:href="#Novo_símbolo_9" transform="translate(73.24 122.35) scale(.19)" height="103.05" width="103.05"/><use xlink:href="#Novo_símbolo_9" transform="translate(73.24 145.11) scale(.19)" height="103.05" width="103.05"/><use xlink:href="#Novo_símbolo_9" transform="translate(73.24 167.87) scale(.19)" height="103.05" width="103.05"/><use xlink:href="#Novo_símbolo_9" transform="translate(96 99.59) scale(.19)" height="103.05" width="103.05"/><use xlink:href="#Novo_símbolo_9" transform="translate(96 122.35) scale(.19)" height="103.05" width="103.05"/><use xlink:href="#Novo_símbolo_9" transform="translate(96 145.11) scale(.19)" height="103.05" width="103.05"/><use xlink:href="#Novo_símbolo_9" transform="translate(96 167.87) scale(.19)" height="103.05" width="103.05"/><use xlink:href="#Novo_símbolo_9" transform="translate(118.76 99.59) scale(.19)" height="103.05" width="103.05"/><use xlink:href="#Novo_símbolo_9" transform="translate(118.76 122.35) scale(.19)" height="103.05" width="103.05"/><use xlink:href="#Novo_símbolo_9" transform="translate(118.76 145.11) scale(.19)" height="103.05" width="103.05"/><use xlink:href="#Novo_símbolo_9" transform="translate(118.76 167.87) scale(.19)" height="103.05" width="103.05"/><use xlink:href="#Novo_símbolo_9" transform="translate(141.51 99.59) scale(.19)" height="103.05" width="103.05"/><use xlink:href="#Novo_símbolo_9" transform="translate(141.51 122.35) scale(.19)" height="103.05" width="103.05"/><use xlink:href="#Novo_símbolo_9" transform="translate(141.51 145.11) scale(.19)" height="103.05" width="103.05"/><use xlink:href="#Novo_símbolo_9" transform="translate(141.51 167.87) scale(.19)" height="103.05" width="103.05"/><use xlink:href="#Novo_símbolo_9" transform="translate(73.24 76.84) scale(.19)" height="103.05" width="103.05"/><use xlink:href="#Novo_símbolo_9" transform="translate(96 76.84) scale(.19)" height="103.05" width="103.05"/><use xlink:href="#Novo_símbolo_9" transform="translate(118.76 76.84) scale(.19)" height="103.05" width="103.05"/><use xlink:href="#Novo_símbolo_9" transform="translate(141.51 76.84) scale(.19)" height="103.05" width="103.05"/><path d="M39.83,259.4h129.66c.29,0,.53.24.53.53v12.7H39.3v-12.7c0-.29.24-.53.53-.53Z" class="cls-3"/><rect height="5.29" width="146.6" y="272.63" x="31.37" class="cls-3"/><rect transform="translate(570.86 -19.74) rotate(90)" height="177.3" width="4.72" y="186.91" x="292.94" class="cls-3"/><rect transform="translate(578.08 -45.4) rotate(90)" height="129.77" width="13.88" y="201.45" x="304.8" class="cls-3"/><line y2="22.22" x2="179.39" y1="22.22" x1="31.53" class="cls-4"/><rect height="2.19" width=".34" y="21.12" x="31.37" class="cls-5"/><rect height="2.19" width=".34" y="21.12" x="179.22" class="cls-5"/><path d="M93.11,12.19c.24.09.44.21.61.37.17.16.3.35.39.57.09.22.14.47.14.75,0,.16-.02.31-.06.47-.04.16-.09.31-.17.46-.08.15-.18.31-.3.47s-.27.33-.44.51l-1.47,1.52h2.57v.75h-3.72v-.66l2.01-2.08c.13-.13.24-.26.33-.37.09-.12.17-.23.22-.34.06-.11.1-.22.12-.32.02-.1.04-.21.04-.32,0-.16-.03-.31-.08-.45s-.12-.26-.22-.36-.21-.18-.34-.23c-.13-.06-.27-.08-.44-.08-.28,0-.53.08-.73.26s-.35.41-.44.71l-.75-.26c.13-.47.36-.84.7-1.09.33-.26.75-.39,1.24-.39.28,0,.54.04.78.13Z"/><path d="M96.17,18c-.24-.08-.45-.2-.63-.35-.17-.15-.31-.33-.41-.53-.1-.2-.15-.43-.15-.67,0-.18.03-.35.08-.51.05-.16.13-.31.23-.44.1-.13.22-.25.35-.34.13-.09.28-.16.44-.2-.15-.06-.29-.13-.4-.22-.12-.09-.22-.19-.3-.31-.08-.12-.15-.24-.19-.37-.04-.13-.06-.28-.06-.43,0-.23.05-.44.14-.63.09-.19.22-.35.38-.5.16-.14.36-.25.59-.33.23-.08.47-.11.74-.11s.51.04.74.12c.22.08.42.19.58.32.17.14.29.3.39.49.09.19.14.4.14.64,0,.15-.02.29-.07.43s-.11.27-.19.38-.19.22-.3.3-.25.16-.39.21c.16.04.31.11.44.2.13.09.25.21.34.35.09.14.17.29.22.45.06.16.08.33.08.5,0,.24-.05.46-.15.67-.1.2-.24.38-.41.53-.17.15-.38.26-.63.35-.24.08-.51.12-.81.12s-.56-.04-.81-.12ZM97.44,17.29c.14-.05.26-.12.36-.21.1-.09.18-.2.24-.33.06-.13.09-.27.09-.42s-.03-.29-.09-.42c-.06-.13-.14-.24-.24-.33s-.22-.17-.37-.22-.3-.08-.46-.08-.31.02-.46.07c-.14.05-.26.12-.37.22-.1.09-.18.21-.24.33s-.08.27-.08.41c0,.16.03.3.08.43s.13.24.24.33c.1.09.22.16.37.21.14.05.3.07.46.07s.32-.02.46-.07ZM96.58,12.88c-.12.04-.23.11-.31.19-.09.08-.16.17-.21.29-.05.11-.07.24-.07.37,0,.13.02.25.07.36s.12.21.21.29c.09.08.2.14.32.19.12.04.26.07.4.07s.28-.02.4-.07.22-.11.31-.19.16-.18.21-.29c.05-.12.07-.24.07-.36,0-.14-.02-.26-.07-.37-.05-.11-.12-.21-.21-.29s-.19-.14-.31-.19c-.12-.04-.25-.07-.4-.07s-.27.02-.4.07Z"/><path d="M102.8,12.28c.28.15.52.35.72.62.2.26.36.58.47.95s.17.78.17,1.22-.06.86-.17,1.23c-.11.38-.27.7-.48.97-.2.27-.45.48-.72.63-.28.15-.59.22-.93.22s-.64-.07-.93-.22-.53-.36-.73-.63c-.2-.27-.36-.59-.47-.97-.11-.37-.17-.78-.17-1.23s.06-.85.17-1.22.27-.69.47-.95c.2-.26.44-.47.72-.62.28-.15.59-.22.93-.22s.65.07.93.22ZM101.28,13c-.18.11-.33.26-.46.46-.13.2-.23.43-.3.7-.07.27-.11.57-.11.9s.04.64.11.92c.07.28.17.52.3.72.13.2.29.36.46.47.18.11.37.17.58.17s.41-.06.59-.17c.18-.11.33-.27.46-.47.13-.2.23-.44.3-.72s.11-.59.11-.92-.04-.63-.11-.91c-.07-.27-.17-.51-.3-.71-.13-.2-.28-.35-.46-.46-.18-.11-.38-.17-.59-.17s-.41.05-.59.17Z"/><path d="M108.22,13.97v.75c.13-.27.29-.47.5-.61.21-.14.44-.2.71-.2.29,0,.54.08.75.23s.36.37.46.66c.13-.29.3-.51.52-.66.22-.15.48-.23.79-.23.43,0,.75.14.98.42s.35.68.35,1.2v2.53h-.79v-2.43c0-.32-.08-.58-.22-.77-.15-.19-.35-.28-.6-.28-.13,0-.25.03-.36.08-.11.05-.21.13-.29.23s-.14.22-.19.36c-.04.14-.06.29-.06.45v2.37h-.79v-2.43c0-.16-.02-.3-.06-.43s-.1-.24-.17-.33-.16-.16-.26-.21-.22-.07-.35-.07-.24.03-.35.08c-.11.05-.2.13-.28.23-.08.1-.14.22-.18.36-.04.14-.07.29-.07.46v2.35h-.79v-4.09h.76Z"/><path d="M115.17,13.97v.75c.13-.27.29-.47.5-.61.21-.14.44-.2.71-.2.29,0,.54.08.75.23s.36.37.46.66c.13-.29.3-.51.52-.66.22-.15.48-.23.79-.23.43,0,.75.14.98.42s.35.68.35,1.2v2.53h-.79v-2.43c0-.32-.08-.58-.22-.77-.15-.19-.35-.28-.6-.28-.13,0-.25.03-.36.08-.11.05-.21.13-.29.23s-.14.22-.19.36c-.04.14-.06.29-.06.45v2.37h-.79v-2.43c0-.16-.02-.3-.06-.43s-.1-.24-.17-.33-.16-.16-.26-.21-.22-.07-.35-.07-.24.03-.35.08c-.11.05-.2.13-.28.23-.08.1-.14.22-.18.36-.04.14-.07.29-.07.46v2.35h-.79v-4.09h.76Z"/><line y2="46.82" x2="18.96" y1="223.78" x1="18.96" class="cls-4"/><rect height=".34" width="2.19" y="223.61" x="17.86" class="cls-5"/><rect height=".34" width="2.19" y="46.65" x="17.86" class="cls-5"/><path d="M8.86,146.29h.62l1.1.72c.06.04.12.08.17.11.05.03.1.07.15.1s.1.07.15.1c.05.03.1.07.17.11.03-.21.09-.41.2-.59.1-.18.24-.33.4-.46.16-.13.34-.23.54-.3s.42-.11.66-.11c.27,0,.52.05.75.14.23.09.42.23.59.4.16.17.29.38.38.61s.14.49.14.78c0,.23-.03.45-.09.65-.06.2-.15.39-.26.56-.11.17-.25.31-.41.44-.16.13-.35.22-.55.29l-.35-.71c.27-.09.49-.24.65-.46.16-.22.24-.47.24-.75,0-.16-.03-.31-.08-.45-.05-.14-.13-.25-.23-.35s-.22-.17-.35-.23-.29-.08-.46-.08-.33.03-.47.09-.26.15-.36.25c-.1.1-.18.23-.24.38-.06.15-.09.31-.09.49v.39l-.5.09-1.2-.8c-.05-.04-.1-.07-.13-.1s-.08-.06-.13-.09-.09-.07-.13-.09-.08-.06-.13-.11v2.45h-.73v-3.47Z"/><path d="M8.86,141.82h.62l1.1.72c.06.04.12.08.17.11.05.03.1.07.15.1s.1.07.15.1c.05.03.1.07.17.11.03-.21.09-.41.2-.59.1-.18.24-.33.4-.46.16-.13.34-.23.54-.3s.42-.11.66-.11c.27,0,.52.05.75.14.23.09.42.23.59.4.16.17.29.38.38.61s.14.49.14.78c0,.23-.03.45-.09.65-.06.2-.15.39-.26.56-.11.17-.25.31-.41.44-.16.13-.35.22-.55.29l-.35-.71c.27-.09.49-.24.65-.46.16-.22.24-.47.24-.75,0-.16-.03-.31-.08-.45-.05-.14-.13-.25-.23-.35s-.22-.17-.35-.23-.29-.08-.46-.08-.33.03-.47.09-.26.15-.36.25c-.1.1-.18.23-.24.38-.06.15-.09.31-.09.49v.39l-.5.09-1.2-.8c-.05-.04-.1-.07-.13-.1s-.08-.06-.13-.09-.09-.07-.13-.09-.08-.06-.13-.11v2.45h-.73v-3.47Z"/><path d="M8.86,137.4h.73v2.16l1.73.28c-.1-.12-.18-.25-.24-.41-.05-.15-.08-.33-.08-.52,0-.28.05-.53.14-.76s.23-.43.39-.6.37-.3.6-.39.5-.14.78-.14.54.05.78.15c.24.1.44.23.62.41s.31.38.4.63c.09.24.14.51.14.8,0,.23-.03.44-.09.65s-.14.39-.26.56c-.11.17-.25.31-.4.44-.16.12-.34.21-.54.27l-.35-.71c.27-.07.48-.22.63-.43.15-.22.23-.47.23-.76,0-.17-.03-.32-.09-.46-.06-.14-.14-.26-.24-.37-.1-.1-.23-.18-.37-.24s-.31-.09-.48-.09-.34.03-.49.09c-.15.06-.28.14-.39.25-.11.11-.19.24-.25.39-.06.15-.09.32-.09.5,0,.2.04.39.12.55s.19.29.35.41l-.17.7-3.13-.53v-2.83Z"/><path d="M10.71,132.99h.75c-.27-.13-.47-.29-.61-.5-.14-.21-.2-.44-.2-.71,0-.29.08-.54.23-.75s.37-.36.66-.46c-.29-.13-.51-.3-.66-.52-.15-.22-.23-.48-.23-.79,0-.43.14-.75.42-.98s.68-.35,1.2-.35h2.53v.79h-2.43c-.32,0-.58.08-.77.22-.19.15-.28.35-.28.6,0,.13.03.25.08.36.05.11.13.21.23.29s.22.14.36.19c.14.04.29.06.45.06h2.37v.79h-2.43c-.16,0-.3.02-.43.06s-.24.1-.33.17-.16.16-.21.26-.07.22-.07.35.03.24.08.35c.05.11.13.2.23.28.1.08.22.14.36.18.14.04.29.07.46.07h2.35v.79h-4.09v-.76Z"/><path d="M10.71,126.04h.75c-.27-.13-.47-.29-.61-.5-.14-.21-.2-.44-.2-.71,0-.29.08-.54.23-.75s.37-.36.66-.46c-.29-.13-.51-.3-.66-.52-.15-.22-.23-.48-.23-.79,0-.43.14-.75.42-.98s.68-.35,1.2-.35h2.53v.79h-2.43c-.32,0-.58.08-.77.22-.19.15-.28.35-.28.6,0,.13.03.25.08.36.05.11.13.21.23.29s.22.14.36.19c.14.04.29.06.45.06h2.37v.79h-2.43c-.16,0-.3.02-.43.06s-.24.1-.33.17-.16.16-.21.26-.07.22-.07.35.03.24.08.35c.05.11.13.2.23.28.1.08.22.14.36.18.14.04.29.07.46.07h2.35v.79h-4.09v-.76Z"/><line y2="259.56" x2="18.96" y1="277.75" x1="18.96" class="cls-4"/><rect height=".34" width="2.19" y="277.58" x="17.86" class="cls-5"/><rect height=".34" width="2.19" y="259.4" x="17.86" class="cls-5"/><path d="M8.86,277.41h.62l1.1.72c.06.04.12.08.17.11.05.03.1.07.15.1s.1.07.15.1c.05.03.1.07.17.11.03-.21.09-.41.2-.59.1-.18.24-.33.4-.46.16-.13.34-.23.54-.3s.42-.11.66-.11c.27,0,.52.05.75.14.23.09.42.23.59.4.16.17.29.38.38.61s.14.49.14.78c0,.23-.03.45-.09.65-.06.2-.15.39-.26.56-.11.17-.25.31-.41.44-.16.13-.35.22-.55.29l-.35-.71c.27-.09.49-.24.65-.46.16-.22.24-.47.24-.75,0-.16-.03-.31-.08-.45-.05-.14-.13-.25-.23-.35s-.22-.17-.35-.23-.29-.08-.46-.08-.33.03-.47.09-.26.15-.36.25c-.1.1-.18.23-.24.38-.06.15-.09.31-.09.49v.39l-.5.09-1.2-.8c-.05-.04-.1-.07-.13-.1s-.08-.06-.13-.09-.09-.07-.13-.09-.08-.06-.13-.11v2.45h-.73v-3.47Z"/><path d="M8.86,273h.73v2.16l1.73.28c-.1-.12-.18-.25-.24-.41-.05-.15-.08-.33-.08-.52,0-.28.05-.53.14-.76s.23-.43.39-.6.37-.3.6-.39.5-.14.78-.14.54.05.78.15c.24.1.44.23.62.41s.31.38.4.63c.09.24.14.51.14.8,0,.23-.03.44-.09.65s-.14.39-.26.56c-.11.17-.25.31-.4.44-.16.12-.34.21-.54.27l-.35-.71c.27-.07.48-.22.63-.43.15-.22.23-.47.23-.76,0-.17-.03-.32-.09-.46-.06-.14-.14-.26-.24-.37-.1-.1-.23-.18-.37-.24s-.31-.09-.48-.09-.34.03-.49.09c-.15.06-.28.14-.39.25-.11.11-.19.24-.25.39-.06.15-.09.32-.09.5,0,.2.04.39.12.55s.19.29.35.41l-.17.7-3.13-.53v-2.83Z"/><path d="M10.71,268.58h.75c-.27-.13-.47-.29-.61-.5-.14-.21-.2-.44-.2-.71,0-.29.08-.54.23-.75s.37-.36.66-.46c-.29-.13-.51-.3-.66-.52-.15-.22-.23-.48-.23-.79,0-.43.14-.75.42-.98s.68-.35,1.2-.35h2.53v.79h-2.43c-.32,0-.58.08-.77.22-.19.15-.28.35-.28.6,0,.13.03.25.08.36.05.11.13.21.23.29s.22.14.36.19c.14.04.29.06.45.06h2.37v.79h-2.43c-.16,0-.3.02-.43.06s-.24.1-.33.17-.16.16-.21.26-.07.22-.07.35.03.24.08.35c.05.11.13.2.23.28.1.08.22.14.36.18.14.04.29.07.46.07h2.35v.79h-4.09v-.76Z"/><path d="M10.71,261.63h.75c-.27-.13-.47-.29-.61-.5-.14-.21-.2-.44-.2-.71,0-.29.08-.54.23-.75s.37-.36.66-.46c-.29-.13-.51-.3-.66-.52-.15-.22-.23-.48-.23-.79,0-.43.14-.75.42-.98s.68-.35,1.2-.35h2.53v.79h-2.43c-.32,0-.58.08-.77.22-.19.15-.28.35-.28.6,0,.13.03.25.08.36.05.11.13.21.23.29s.22.14.36.19c.14.04.29.06.45.06h2.37v.79h-2.43c-.16,0-.3.02-.43.06s-.24.1-.33.17-.16.16-.21.26-.07.22-.07.35.03.24.08.35c.05.11.13.2.23.28.1.08.22.14.36.18.14.04.29.07.46.07h2.35v.79h-4.09v-.76Z"/></g></g></g></svg>