<svg viewBox="0 0 531.26 288" xmlns="http://www.w3.org/2000/svg"><defs><style>.cls-1 {
        stroke: #12100a;
        stroke-width: .3px;
      }

      .cls-1, .cls-2 {
        fill: none;
        stroke-miterlimit: 10;
      }

      .cls-3 {
        fill: #12100a;
      }

      .cls-2 {
        stroke: #000;
        stroke-width: .28px;
      }</style></defs><g id="bases"><rect height="358.35" width="589.11" y="-33.95" x="-25.44" class="cls-2"/></g><g id="Urban"><g id="Frame"><g id="totem_informativo_XS1"><g><g id="LINE"><line y2="275.62" x2="108.78" y1="275.62" x1="99.36" class="cls-1"/></g><g><g id="LINE-2"><line y2="275.62" x2="99.36" y1="160.57" x1="99.36" class="cls-1"/></g><g id="LINE-3"><line y2="160.57" x2="99.36" y1="160.57" x1="108.78" class="cls-1"/></g><g id="LINE-4"><line y2="160.57" x2="108.78" y1="275.62" x1="108.78" class="cls-1"/></g></g></g><g id="LINE-5"><g><line y2="275.74" x2="16.31" y1="160.99" x1="16.31" class="cls-1"/><rect height=".3" width="1.95" y="160.84" x="15.34" class="cls-3"/><rect height=".3" width="1.95" y="275.59" x="15.34" class="cls-3"/></g></g><g id="MTEXT"><g><path d="M7.1,230.81h5.28v.72h-4.54l.64,1.3h-.73l-.66-1.36v-.67Z"/><path d="M7.1,227.98h5.28v.72h-4.54l.64,1.3h-.73l-.66-1.36v-.67Z"/><path d="M7.25,224.27c.13-.25.32-.47.55-.65.23-.18.52-.32.85-.42.33-.1.69-.15,1.09-.15s.76.05,1.1.15c.33.1.62.24.86.42.24.18.43.4.56.65.13.25.2.52.2.83s-.07.57-.2.82c-.13.25-.32.47-.56.65-.24.18-.53.32-.86.42-.33.1-.7.15-1.1.15s-.75-.05-1.09-.15c-.33-.1-.61-.24-.85-.42-.24-.18-.42-.4-.55-.65-.13-.25-.2-.53-.2-.83s.07-.58.2-.83ZM7.88,225.63c.1.16.23.29.41.41.17.11.38.2.63.27.24.07.51.1.8.1s.57-.03.82-.09c.25-.06.46-.15.64-.27.18-.12.32-.25.42-.41.1-.16.15-.33.15-.52s-.05-.37-.15-.53c-.1-.16-.24-.3-.42-.41-.18-.11-.39-.2-.64-.27s-.52-.09-.82-.09-.56.03-.81.09-.46.15-.63.26c-.18.11-.31.25-.41.41-.1.16-.15.34-.15.53s.05.37.15.52Z"/><path d="M7.25,219.64c.13-.25.32-.47.55-.65.23-.18.52-.32.85-.42.33-.1.69-.15,1.09-.15s.76.05,1.1.15c.33.1.62.24.86.42.24.18.43.4.56.65.13.25.2.52.2.83s-.07.57-.2.82c-.13.25-.32.47-.56.65-.24.18-.53.32-.86.42-.33.1-.7.15-1.1.15s-.75-.05-1.09-.15c-.33-.1-.61-.24-.85-.42-.24-.18-.42-.4-.55-.65-.13-.25-.2-.53-.2-.83s.07-.58.2-.83ZM7.88,220.99c.1.16.23.29.41.41.17.11.38.2.63.27.24.07.51.1.8.1s.57-.03.82-.09c.25-.06.46-.15.64-.27.18-.12.32-.25.42-.41.1-.16.15-.33.15-.52s-.05-.37-.15-.53c-.1-.16-.24-.3-.42-.41-.18-.11-.39-.2-.64-.27s-.52-.09-.82-.09-.56.03-.81.09-.46.15-.63.26c-.18.11-.31.25-.41.41-.1.16-.15.34-.15.53s.05.37.15.52Z"/><path d="M8.75,214.81h.66c-.24-.11-.42-.26-.54-.45-.12-.18-.18-.4-.18-.63,0-.26.07-.48.2-.67.14-.19.33-.32.59-.41-.26-.11-.45-.27-.59-.46-.14-.2-.2-.43-.2-.7,0-.38.12-.67.37-.88s.61-.31,1.07-.31h2.25v.7h-2.16c-.29,0-.52.07-.69.2-.17.13-.25.31-.25.54,0,.12.02.22.07.32.05.1.11.18.2.26.09.07.19.13.32.16.12.04.26.06.4.06h2.11v.7h-2.16c-.14,0-.27.02-.38.06-.12.04-.22.09-.3.15s-.14.14-.19.23c-.04.09-.07.2-.07.31s.02.22.07.32c.05.1.12.18.21.25.09.07.2.12.32.17.12.04.26.06.41.06h2.09v.7h-3.64v-.68Z"/><path d="M8.75,208.62h.66c-.24-.11-.42-.26-.54-.45-.12-.18-.18-.4-.18-.63,0-.26.07-.48.2-.67.14-.19.33-.32.59-.41-.26-.11-.45-.27-.59-.46-.14-.2-.2-.43-.2-.7,0-.38.12-.67.37-.88s.61-.31,1.07-.31h2.25v.7h-2.16c-.29,0-.52.07-.69.2-.17.13-.25.31-.25.54,0,.12.02.22.07.32.05.1.11.18.2.26.09.07.19.13.32.16.12.04.26.06.4.06h2.11v.7h-2.16c-.14,0-.27.02-.38.06-.12.04-.22.09-.3.15s-.14.14-.19.23c-.04.09-.07.2-.07.31s.02.22.07.32c.05.1.12.18.21.25.09.07.2.12.32.17.12.04.26.06.41.06h2.09v.7h-3.64v-.68Z"/></g></g><g id="LINE-6"><g><line y2="265.8" x2="152.75" y1="275.81" x1="152.75" class="cls-1"/><rect height=".3" width="1.95" y="275.66" x="151.77" class="cls-3"/><rect height=".3" width="1.95" y="265.65" x="151.77" class="cls-3"/></g></g><g id="MTEXT-2"><g><path d="M143.66,279.68c.12-.24.29-.44.51-.61.22-.17.5-.3.82-.39.32-.09.69-.14,1.09-.14s.8.05,1.15.15c.34.1.64.24.89.43.24.18.43.41.56.67.13.26.2.55.2.88,0,.37-.09.7-.27.97s-.43.47-.76.59l-.29-.64c.21-.07.37-.18.48-.34.11-.16.17-.35.17-.56,0-.2-.05-.38-.14-.55-.09-.17-.23-.31-.4-.44-.17-.13-.37-.22-.61-.29-.24-.07-.49-.1-.77-.1h-.17c-.06,0-.1,0-.15,0,.25.08.45.23.59.45.14.22.21.48.21.79,0,.24-.04.46-.12.65s-.19.36-.34.5c-.14.14-.32.25-.52.33-.2.08-.42.12-.66.12s-.47-.04-.68-.13c-.21-.08-.38-.2-.52-.35-.14-.15-.26-.32-.34-.53-.08-.21-.12-.43-.12-.68,0-.3.06-.57.18-.81ZM144.23,280.84c.05.12.12.22.21.3.09.08.19.15.32.2.12.05.26.07.41.07s.29-.02.41-.07c.12-.05.23-.12.32-.2s.16-.19.21-.31.07-.25.07-.4-.02-.27-.07-.39c-.05-.12-.12-.22-.2-.31-.09-.09-.19-.15-.31-.2-.12-.05-.25-.07-.4-.07s-.28.03-.41.08c-.13.05-.24.13-.34.21-.1.09-.17.2-.22.32-.05.12-.08.26-.08.4s.03.26.08.38Z"/><path d="M143.68,275.11c.13-.25.32-.47.55-.65.23-.18.52-.32.85-.42.33-.1.69-.15,1.08-.15s.76.05,1.1.15.62.24.86.42c.24.18.43.4.56.65.13.25.2.52.2.83s-.07.57-.2.82-.32.47-.56.65c-.24.18-.53.32-.86.42-.33.1-.7.15-1.1.15s-.75-.05-1.08-.15c-.33-.1-.61-.24-.85-.42-.24-.18-.42-.4-.55-.65-.13-.25-.2-.53-.2-.83s.07-.58.2-.83ZM144.32,276.46c.1.16.23.29.41.41.17.11.38.2.63.27.24.07.51.1.8.1s.57-.03.82-.09c.25-.06.46-.15.64-.27.18-.12.32-.25.42-.41.1-.16.15-.33.15-.52s-.05-.37-.15-.53c-.1-.16-.24-.3-.42-.41-.18-.11-.39-.2-.64-.27-.25-.06-.52-.09-.82-.09s-.56.03-.81.09c-.24.06-.46.15-.63.26-.17.11-.31.25-.41.41-.1.16-.15.34-.15.53s.05.37.15.52Z"/><path d="M145.18,270.28h.66c-.24-.11-.42-.26-.54-.45-.12-.18-.18-.4-.18-.63,0-.26.07-.48.2-.67.14-.19.33-.32.59-.41-.26-.11-.45-.27-.59-.46-.14-.2-.2-.43-.2-.7,0-.38.12-.67.38-.88.25-.21.61-.31,1.07-.31h2.25v.7h-2.16c-.29,0-.52.07-.69.2-.17.13-.25.31-.25.54,0,.12.02.22.07.32.05.1.11.18.2.26.09.07.2.13.32.16.12.04.26.06.4.06h2.11v.7h-2.16c-.14,0-.27.02-.38.06-.12.04-.22.09-.3.15-.08.06-.14.14-.19.23-.04.09-.07.2-.07.31s.02.22.07.32c.05.1.12.18.21.25.09.07.2.12.32.17.12.04.26.06.41.06h2.09v.7h-3.64v-.68Z"/><path d="M145.18,264.1h.66c-.24-.11-.42-.26-.54-.45-.12-.18-.18-.4-.18-.63,0-.26.07-.48.2-.67.14-.19.33-.32.59-.41-.26-.11-.45-.27-.59-.46-.14-.2-.2-.43-.2-.7,0-.38.12-.67.38-.88.25-.21.61-.31,1.07-.31h2.25v.7h-2.16c-.29,0-.52.07-.69.2-.17.13-.25.31-.25.54,0,.12.02.22.07.32.05.1.11.18.2.26.09.07.2.13.32.16.12.04.26.06.4.06h2.11v.7h-2.16c-.14,0-.27.02-.38.06-.12.04-.22.09-.3.15-.08.06-.14.14-.19.23-.04.09-.07.2-.07.31s.02.22.07.32c.05.1.12.18.21.25.09.07.2.12.32.17.12.04.26.06.41.06h2.09v.7h-3.64v-.68Z"/></g></g><g id="LINE-7"><g><line y2="257.18" x2="192.74" y1="257.18" x1="159.78" class="cls-1"/><rect height="1.95" width=".3" y="256.21" x="159.63" class="cls-3"/><rect height="1.95" width=".3" y="256.21" x="192.59" class="cls-3"/></g></g><g id="MTEXT-3"><g><path d="M167,247.97v.55l-.65.98c-.04.06-.07.1-.1.15-.03.04-.06.08-.09.13-.03.04-.06.09-.09.13s-.06.09-.09.15c.19.02.37.08.52.18.16.09.29.21.41.35.12.14.21.3.27.48s.09.38.09.59c0,.24-.04.47-.13.67-.08.2-.2.38-.36.52-.15.14-.34.26-.54.34s-.44.12-.69.12c-.21,0-.4-.03-.58-.08s-.35-.13-.49-.23c-.15-.1-.28-.22-.39-.37-.11-.14-.2-.31-.26-.49l.63-.31c.08.24.22.44.41.58.19.14.42.21.67.21.14,0,.28-.02.4-.07.12-.05.23-.11.31-.2.09-.09.15-.19.2-.31.05-.12.07-.26.07-.41s-.03-.29-.08-.42c-.06-.13-.13-.23-.22-.32-.09-.09-.21-.16-.34-.21-.13-.05-.28-.08-.43-.08h-.35l-.08-.44.71-1.07s.06-.09.09-.12c.03-.03.05-.07.08-.12s.06-.08.08-.12c.03-.03.06-.07.09-.12h-2.18v-.65h3.09Z"/><path d="M169.82,247.97v5.29h-.72v-4.54l-1.3.64v-.73l1.36-.67h.67Z"/><path d="M171.7,253.2c-.22-.07-.4-.17-.56-.31-.15-.13-.28-.29-.36-.47-.09-.18-.13-.38-.13-.6,0-.16.02-.31.07-.45.05-.15.11-.28.2-.4.09-.12.19-.22.31-.3s.25-.14.4-.18c-.14-.05-.25-.12-.36-.2-.1-.08-.19-.17-.27-.27s-.13-.21-.17-.33-.06-.25-.06-.38c0-.21.04-.39.12-.56.08-.17.2-.32.34-.44s.32-.22.52-.29c.2-.07.42-.1.66-.1s.46.03.66.1c.2.07.37.17.52.29.15.12.26.27.35.44.08.17.13.36.13.57,0,.13-.02.26-.06.38-.04.12-.1.24-.17.34-.07.1-.16.19-.27.27-.11.08-.22.14-.35.19.15.04.28.1.4.18s.22.19.31.31c.08.12.15.25.2.4s.07.29.07.45c0,.21-.04.41-.13.6s-.21.34-.36.47c-.15.13-.34.24-.56.31-.22.07-.46.11-.72.11s-.5-.04-.72-.11ZM172.83,252.57c.13-.04.23-.11.32-.19.09-.08.16-.18.21-.29.05-.11.08-.24.08-.37s-.03-.26-.08-.37c-.05-.11-.12-.21-.21-.29-.09-.08-.2-.15-.33-.2-.13-.05-.26-.07-.41-.07s-.28.02-.41.07c-.13.04-.23.11-.33.19-.09.08-.16.18-.21.3-.05.11-.07.24-.07.37,0,.14.02.27.07.38.05.11.12.21.21.29.09.08.2.14.33.19.13.04.26.07.41.07s.29-.02.41-.07ZM172.06,248.65c-.11.04-.2.09-.28.16-.08.07-.14.15-.18.26-.04.1-.07.21-.07.33,0,.11.02.22.07.32.04.1.11.19.19.26.08.07.17.13.28.17s.23.06.35.06.25-.02.35-.06c.1-.04.2-.1.28-.17.08-.07.14-.16.19-.26.04-.1.07-.21.07-.32,0-.12-.02-.23-.07-.33s-.11-.19-.19-.26c-.08-.07-.17-.12-.28-.16s-.23-.06-.36-.06-.24.02-.35.06Z"/><path d="M177.8,249.62v.67c.11-.24.26-.42.45-.54.18-.12.4-.18.63-.18.26,0,.48.07.67.2.19.14.32.33.41.59.11-.26.27-.45.46-.59.2-.14.43-.2.7-.2.38,0,.67.12.88.37.21.25.31.61.31,1.07v2.25h-.7v-2.16c0-.29-.07-.52-.2-.69-.13-.17-.31-.25-.54-.25-.12,0-.22.02-.32.07-.1.05-.18.11-.26.2-.07.09-.13.19-.16.32-.04.12-.06.26-.06.4v2.11h-.7v-2.16c0-.14-.02-.27-.06-.38-.04-.12-.09-.22-.15-.3-.06-.08-.14-.14-.23-.19-.09-.04-.19-.07-.31-.07s-.22.02-.32.07c-.1.05-.18.12-.25.21-.07.09-.13.2-.16.32-.04.12-.06.26-.06.41v2.09h-.7v-3.64h.68Z"/><path d="M183.99,249.62v.67c.11-.24.26-.42.45-.54.18-.12.4-.18.63-.18.26,0,.48.07.67.2.19.14.32.33.41.59.11-.26.27-.45.46-.59.2-.14.43-.2.7-.2.38,0,.67.12.88.37.21.25.31.61.31,1.07v2.25h-.7v-2.16c0-.29-.07-.52-.2-.69-.13-.17-.31-.25-.54-.25-.12,0-.22.02-.32.07-.1.05-.18.11-.26.2-.07.09-.13.19-.16.32-.04.12-.06.26-.06.4v2.11h-.7v-2.16c0-.14-.02-.27-.06-.38-.04-.12-.09-.22-.15-.3-.06-.08-.14-.14-.23-.19-.09-.04-.19-.07-.31-.07s-.22.02-.32.07c-.1.05-.18.12-.25.21-.07.09-.13.2-.16.32-.04.12-.06.26-.06.41v2.09h-.7v-3.64h.68Z"/></g></g><rect height="9.41" width="33.26" y="266.12" x="159.69" class="cls-1"/><g><g id="LINE-8"><line y2="176.01" x2="70.5" y1="176.01" x1="71.55" class="cls-1"/></g><g id="LINE-9"><line y2="173.91" x2="71.55" y1="173.91" x1="70.5" class="cls-1"/></g><g id="LINE-10"><line y2="173.91" x2="41.29" y1="173.91" x1="40.24" class="cls-1"/></g><g id="LINE-11"><line y2="176.01" x2="40.24" y1="176.01" x1="41.29" class="cls-1"/></g><g id="LINE-12"><line y2="204.36" x2="70.5" y1="204.36" x1="71.55" class="cls-1"/></g><g id="LINE-13"><line y2="202.26" x2="71.55" y1="202.26" x1="70.5" class="cls-1"/></g><g id="LINE-14"><line y2="202.26" x2="41.29" y1="202.26" x1="40.24" class="cls-1"/></g><g id="LINE-15"><line y2="204.36" x2="40.24" y1="204.36" x1="41.29" class="cls-1"/></g></g><g><g id="LINE-16"><line y2="274.86" x2="71.48" y1="274.86" x1="40.31" class="cls-1"/></g><g id="LINE-17"><line y2="161.9" x2="71.48" y1="161.9" x1="40.31" class="cls-1"/></g><g id="LINE-18"><polyline points="71.44 161.9 71.48 161.9 71.48 161.95 71.48 274.82 71.48 274.86 71.42 274.86" class="cls-1"/></g><g id="LINE-19"><polyline points="40.36 161.9 40.31 161.9 40.31 274.83 40.31 274.86 40.33 274.86" class="cls-1"/></g></g><g><g id="LINE-20"><line y2="275.91" x2="72.52" y1="275.91" x1="39.26" class="cls-1"/></g><g id="LINE-21"><polyline points="72.52 160.86 72.52 275.86 72.52 275.91 72.47 275.91" class="cls-1"/></g><g id="LINE-22"><polyline points="39.26 160.86 39.26 275.86 39.26 275.91 39.3 275.91" class="cls-1"/></g><polyline points="39.26 160.92 39.26 160.86 39.33 160.86 72.52 160.86 72.52 160.92" class="cls-1"/></g><rect ry=".11" rx=".11" height="52.3" width="28.87" y="162.99" x="41.46" class="cls-1"/></g></g></g></svg>