<svg viewBox="0 0 531.26 288" xmlns="http://www.w3.org/2000/svg" id="Golf"><defs><style>.cls-1{stroke-width:.3px;}.cls-1,.cls-2,.cls-3{stroke-linecap:round;stroke-linejoin:round;}.cls-1,.cls-2,.cls-3,.cls-4{fill:none;stroke:#000;}.cls-2,.cls-4{stroke-width:.3px;}.cls-3{stroke-width:.3px;}.cls-4{stroke-miterlimit:10;}</style></defs><g id="Club_House"><g id="ecoponto_Palmer_x3_"><g id="LINE"><line y2="18.78" x2="223.04" y1="18.78" x1="31.37" class="cls-2"/><rect height="1.95" width=".3" y="17.8" x="31.22"/><rect height="1.95" width=".3" y="17.8" x="222.89"/></g><g id="MTEXT"><path d="M114.38,9.57v5.29h-.72v-4.54l-1.3.64v-.73l1.36-.67h.67Z"/><path d="M118.09,9.71c.25.13.47.32.65.55.18.23.32.52.42.85.1.33.15.69.15,1.08s-.05.76-.15,1.1-.24.62-.42.86c-.18.24-.4.43-.65.56-.25.13-.52.2-.83.2s-.57-.07-.82-.2-.47-.32-.65-.56c-.18-.24-.32-.53-.42-.86-.1-.33-.15-.7-.15-1.1s.05-.75.15-1.08c.1-.33.24-.61.42-.85.18-.24.4-.42.65-.55.25-.13.53-.2.83-.2s.58.07.83.2ZM116.74,10.34c-.16.1-.29.23-.41.41-.11.18-.2.38-.27.63-.07.24-.1.51-.1.81s.03.57.09.82c.06.25.15.46.27.64.12.18.25.32.41.42.16.1.33.15.52.15s.37-.05.53-.15c.16-.1.3-.24.41-.42.11-.18.2-.39.27-.64.06-.25.09-.52.09-.82s-.03-.56-.09-.81c-.06-.25-.15-.46-.26-.63-.11-.17-.25-.31-.41-.41-.16-.1-.34-.15-.53-.15s-.37.05-.52.15Z"/><path d="M120.99,14.73c-.24-.12-.44-.29-.61-.51-.17-.22-.3-.5-.39-.82s-.14-.69-.14-1.09.05-.8.15-1.15c.1-.35.24-.64.43-.89.18-.25.41-.43.67-.56.26-.13.55-.2.88-.2.37,0,.7.09.97.27.27.18.47.43.59.76l-.64.29c-.07-.21-.18-.37-.34-.48-.16-.11-.35-.17-.56-.17-.2,0-.38.05-.55.14s-.31.23-.44.4c-.13.17-.22.37-.29.61s-.1.49-.1.77v.17c0,.06,0,.1,0,.15.08-.25.23-.45.45-.59.22-.14.48-.21.79-.21.24,0,.46.04.65.12.2.08.36.19.5.34.14.15.25.32.33.52.08.2.12.42.12.66s-.04.47-.13.68c-.08.21-.2.38-.35.53-.15.14-.32.26-.53.34s-.43.12-.68.12c-.3,0-.57-.06-.81-.18ZM122.16,14.16c.12-.05.22-.12.3-.21.08-.09.15-.19.2-.31.05-.12.07-.26.07-.41s-.02-.29-.07-.41c-.05-.12-.12-.23-.2-.32s-.19-.16-.31-.21-.25-.07-.4-.07-.27.02-.39.07-.22.12-.31.2c-.09.09-.15.19-.2.31-.05.12-.07.25-.07.4s.03.28.08.41.12.24.21.34.2.17.32.22c.12.05.26.08.4.08s.26-.03.38-.08Z"/><path d="M127.2,9.57v.65h-1.92l-.25,1.54c.1-.09.22-.16.36-.21.14-.05.29-.07.46-.07.25,0,.47.04.68.13.21.08.38.2.53.35.15.15.27.33.35.54.08.21.12.44.12.69s-.04.48-.13.7c-.09.21-.21.4-.36.55-.16.15-.34.27-.56.36-.21.08-.45.13-.71.13-.2,0-.39-.03-.58-.08s-.35-.13-.5-.23c-.15-.1-.28-.22-.39-.36-.11-.14-.19-.3-.24-.48l.63-.31c.07.24.19.43.39.56.19.14.42.21.67.21.15,0,.29-.03.41-.08.13-.05.23-.12.33-.21.09-.09.16-.2.21-.33.05-.13.08-.27.08-.43s-.03-.3-.08-.44c-.05-.13-.13-.25-.22-.34s-.21-.17-.34-.22c-.13-.05-.28-.08-.44-.08-.18,0-.35.04-.49.1-.14.07-.26.17-.36.31l-.62-.15.47-2.79h2.52Z"/><path d="M131.14,11.21v.67c.11-.24.26-.42.45-.54.18-.12.4-.18.63-.18.26,0,.48.07.67.2.19.14.32.33.41.59.11-.26.27-.45.46-.59.2-.14.43-.2.7-.2.38,0,.67.12.88.37.21.25.31.61.31,1.07v2.25h-.7v-2.16c0-.29-.07-.52-.2-.69-.13-.17-.31-.25-.54-.25-.12,0-.22.02-.32.07-.1.05-.18.11-.26.2-.07.09-.13.19-.16.32-.04.12-.06.26-.06.4v2.11h-.7v-2.16c0-.14-.02-.27-.06-.38-.04-.12-.09-.22-.15-.3-.06-.08-.14-.14-.23-.19-.09-.04-.2-.07-.31-.07s-.22.02-.32.07c-.1.05-.18.12-.25.21-.07.09-.12.2-.17.32-.04.12-.06.26-.06.41v2.09h-.7v-3.64h.68Z"/><path d="M137.32,11.21v.67c.11-.24.26-.42.45-.54.18-.12.4-.18.63-.18.26,0,.48.07.67.2.19.14.32.33.41.59.11-.26.27-.45.46-.59.2-.14.43-.2.7-.2.38,0,.67.12.88.37.21.25.31.61.31,1.07v2.25h-.7v-2.16c0-.29-.07-.52-.2-.69-.13-.17-.31-.25-.54-.25-.12,0-.22.02-.32.07-.1.05-.18.11-.26.2-.07.09-.13.19-.16.32-.04.12-.06.26-.06.4v2.11h-.7v-2.16c0-.14-.02-.27-.06-.38-.04-.12-.09-.22-.15-.3-.06-.08-.14-.14-.23-.19-.09-.04-.2-.07-.31-.07s-.22.02-.32.07c-.1.05-.18.12-.25.21-.07.09-.12.2-.17.32-.04.12-.06.26-.06.41v2.09h-.7v-3.64h.68Z"/></g><rect ry="1.07" rx="1.07" height="81" width="191.69" y="28.66" x="31.23" class="cls-2"/><line y2="284.56" x2="35.07" y1="284.56" x1="33.27" class="cls-2"/><line y2="284.56" x2="214.24" y1="284.56" x1="212.44" class="cls-2"/><g id="LINE-2"><rect height="160.93" width="5.39" y="123.63" x="38.51" class="cls-2"/></g><g id="LINE-3"><rect height="160.93" width="5.38" y="123.63" x="31.33" class="cls-2"/></g><g id="LINE-4"><rect height="160.93" width="5.39" y="123.63" x="217.63" class="cls-2"/></g><g id="LINE-5"><rect height="160.93" width="5.39" y="123.63" x="210.44" class="cls-2"/></g><rect height="146.98" width="53.27" y="123.63" x="45.64" class="cls-2"/><rect height="146.98" width="53.28" y="123.63" x="155.43" class="cls-2"/><path d="M71.16,160s-.01-.02-.02-.02c0,0-.02-.01-.02-.02l-2.29-1s-.02,0-.03,0c0,0-.02,0-.02,0l-.84.09-.68-.84s-.02-.02-.03-.02c-.01,0-.02-.01-.03-.01,0,0-.02,0-.03,0,0,0-.02,0-.03,0l-2.29,1s-.03.02-.04.03c0,.01-.01.02-.02.04,0,0,0,.02,0,.03,0,0,0,.02,0,.02,0,.01.01.02.02.04l.67.82-.67.82s0,.01-.01.02c0,0,0,.02,0,.02,0,.01,0,.03,0,.04,0,0,0,.02,0,.02,0,0,0,.01.01.02,0,0,.02.02.03.02l2.29,1.02s.01,0,.02,0c0,0,.01,0,.02,0,.02,0,.03,0,.05-.01.01,0,.02-.02.03-.03l.64-.79.64.79s.01.01.02.02c0,0,.01,0,.02.01.01,0,.03,0,.04,0,0,0,.02,0,.02,0,0,0,.01,0,.02,0l2.29-1.02s.03-.02.04-.03c0-.01.01-.02.02-.04,0-.02,0-.03,0-.05,0-.01-.01-.02-.02-.04l-.6-.74.7-.07s.02,0,.04-.01c.01,0,.02-.01.03-.02,0,0,.01-.01.02-.02,0,0,0-.02,0-.03,0-.01,0-.02,0-.04,0-.01,0-.02-.01-.03ZM65.04,159.3l2.1-.92.59.73-2.11.91-.59-.72ZM67.14,161.92l-2.1-.93.59-.72,2.11.93-.59.73ZM65.84,160.15l1.95-.84v1.49s0,.03,0,.04c0,.01.02.02.03.03,0,0,.02.01.03.02.01,0,.02,0,.03,0,.02,0,.03,0,.04,0,.01,0,.02-.02.03-.03,0,0,.01-.02.02-.03,0-.01,0-.02,0-.03v-1.49l1.95.84-2.05.9-2.05-.9ZM70.74,160.99l-2.1.93-.59-.73,2.11-.93.59.72ZM70.2,160.04l-1.93-.84.49-.05,1.92.84-.48.05Z"/><path d="M70.29,161.53s-.02-.01-.03-.02c-.01,0-.02,0-.03,0-.01,0-.03,0-.04,0-.01,0-.02.02-.03.03,0,0-.01.02-.02.03,0,.01,0,.02,0,.03v.86l-2.14.91v-1.71s0-.03,0-.04c0-.01-.02-.02-.03-.03,0,0-.02-.01-.03-.02-.01,0-.02,0-.03,0-.01,0-.03,0-.04,0-.01,0-.02.02-.03.03,0,0-.01.02-.02.03,0,.01,0,.02,0,.03v1.71l-2.14-.91v-.86s0-.03,0-.04c0-.01-.02-.02-.03-.03,0,0-.02-.01-.03-.02-.01,0-.02,0-.03,0-.01,0-.03,0-.04,0-.01,0-.02.02-.03.03,0,0-.01.02-.02.03,0,.01,0,.02,0,.03v.92s0,.02,0,.03c0,.01,0,.02.02.03,0,0,.01.01.02.02,0,0,.01,0,.02.01l2.34,1s0,0,0,0c0,0,0,0,0,0,0,0,0,0,0,0,0,0,0,0,0,0,0,0,0,0,.01,0,0,0,0,0,.01,0h0s0,0,.01,0c0,0,0,0,.01,0,0,0,0,0,0,0,0,0,0,0,0,0,0,0,0,0,0,0,0,0,0,0,0,0l2.34-1s.02-.01.03-.02c0,0,.01-.02.02-.02,0,0,0-.02,0-.02,0,0,0-.02,0-.03v-.92s0-.03,0-.04c0-.01-.02-.02-.03-.03Z"/><path d="M77.95,159.88s0-.02-.01-.02c0,0-.02-.02-.03-.02l-3.33-1.51s-.03,0-.05,0c-.01,0-.02,0-.04,0l-2.81,1.27s-.02,0-.02.02c0,0-.01.01-.02.02,0,.01-.01.03-.01.04,0,0,0,.02,0,.03,0,0,0,.02.01.03,0,.01.02.02.03.03l3.91,2.62s.02.01.03.01c0,0,.02,0,.03,0,.02,0,.03,0,.04-.01.01,0,.02-.01.03-.02l2.24-2.38s.01-.01.02-.02c0,0,0-.02,0-.02,0-.01,0-.03,0-.04,0,0,0-.02,0-.02ZM75.61,162.18l-3.69-2.47,2.61-1.18,3.16,1.44-2.08,2.22Z"/><path d="M77.64,160.68s-.02-.02-.02-.02c-.01,0-.03-.01-.04-.02-.01,0-.03,0-.04,0-.01,0-.02,0-.03.01,0,0-.02.02-.02.02l-1.82,2.56-3.59-2.52.25-.24s.02-.02.02-.04c0-.01,0-.03,0-.04,0-.01,0-.02,0-.03,0-.01-.01-.02-.02-.03-.01,0-.02-.02-.04-.02-.01,0-.03,0-.04,0-.01,0-.02,0-.03,0-.01,0-.02.01-.03.02l-.33.32s-.02.03-.03.04c0,.01,0,.02,0,.04,0,.02,0,.03.02.05,0,.01.02.02.03.03l3.77,2.64s.02.01.03.01c0,0,.02,0,.03,0,0,0,0,0,0,0,0,0,0,0,0,0,.01,0,.03,0,.04-.02,0,0,.02-.02.02-.02l1.88-2.64s.01-.03.02-.04c0-.01,0-.03,0-.04,0-.01,0-.02-.01-.03Z"/><path d="M73.1,159.97s-.02.02-.02.04c0,.01,0,.02,0,.03,0,.01,0,.02,0,.03,0,0,.01.02.02.03,0,0,.02.01.02.02.01,0,.03,0,.05.01,0,0,.02,0,.03,0,0,0,.01,0,.02,0l1.79-.88s.03-.02.03-.03c0-.01.02-.02.02-.04,0-.01,0-.02,0-.03,0-.01,0-.02,0-.03,0-.01-.02-.02-.03-.03-.01,0-.02-.02-.04-.02-.01,0-.02,0-.03,0-.01,0-.02,0-.03,0l-1.79.88s-.03.02-.03.03Z"/><path d="M74.44,160.77s0,.03,0,.04c0,.01,0,.02,0,.03,0,.01.01.02.02.03,0,0,.01.01.02.02,0,0,.01,0,.02.01.01,0,.02,0,.04,0,.01,0,.03,0,.04,0,0,0,.02,0,.03-.02l1.5-1.22s.02-.02.03-.03c0-.01,0-.03,0-.04,0-.01,0-.02,0-.03,0-.01-.01-.02-.02-.03-.01-.01-.02-.02-.04-.03-.01,0-.03,0-.04,0-.01,0-.02,0-.03,0-.01,0-.02.01-.03.02l-1.5,1.22s-.02.02-.03.03Z"/><path d="M73.83,160.31s-.01.03-.01.04c0,.01,0,.02,0,.03,0,.01,0,.02.01.03,0,0,.01.02.02.02,0,0,.01.01.02.02.01,0,.03,0,.04,0,.01,0,.02,0,.03,0,0,0,.02,0,.02-.01l1.54-.95s.02-.02.03-.03c0-.01.01-.03.01-.04,0-.01,0-.02,0-.03,0-.01,0-.02-.01-.03,0-.01-.02-.02-.03-.03-.01,0-.03-.01-.04-.01-.01,0-.02,0-.03,0-.01,0-.02,0-.03.01l-1.54.95s-.02.02-.03.03Z"/><path d="M92.93,173.91c.07,0,.13-.06.13-.13v-37.01s-.02-.09-.06-.11c-6.08-4.1-13.67-6.35-21.37-6.35s-15.29,2.26-21.37,6.36c-.04.02-.06.07-.06.11v126.38c0,.07.06.13.13.13h7.09s0,0,0,0,0,0,0,0h7.09s0,0,0,0,0,0,0,0h7.09s0,0,0,0,0,0,0,0h7.09s0,0,0,0,0,0,0,0h7.09s0,0,0,0,0,0,0,0h7.14c.07,0,.13-.06.13-.13v-83.08c0-.07-.06-.13-.13-.13s-.13.06-.13.13v82.95h-6.87v-105.29c0-.07-.06-.13-.13-.13s-.13.06-.13.13v105.29h-6.82v-96.9c0-.07-.06-.13-.13-.13s-.13.06-.13.13v96.9h-6.82v-96.9c0-.07-.06-.13-.13-.13s-.13.06-.13.13v96.9h-6.82v-96.9c0-.07-.06-.13-.13-.13s-.13.06-.13.13v96.9h-6.82v-105.29c0-.07-.06-.13-.13-.13s-.13.06-.13.13v105.29h-6.82v-126.18c6.02-4.04,13.53-6.27,21.16-6.27s15.14,2.23,21.16,6.27v36.93c0,.07.06.13.13.13Z"/><path d="M202.73,173.91c.07,0,.13-.06.13-.13v-37.01s-.02-.09-.06-.11c-6.08-4.1-13.67-6.35-21.37-6.35s-15.29,2.26-21.37,6.36c-.04.02-.06.07-.06.11v126.38c0,.07.06.13.13.13h7.09s0,0,0,0,0,0,0,0h7.09s0,0,0,0,0,0,0,0h7.09s0,0,0,0,0,0,0,0h7.09s0,0,0,0,0,0,0,0h7.09s0,0,0,0,0,0,0,0h7.14c.07,0,.13-.06.13-.13v-83.08c0-.07-.06-.13-.13-.13s-.13.06-.13.13v82.95h-6.87v-105.29c0-.07-.06-.13-.13-.13s-.13.06-.13.13v105.29h-6.82v-96.9c0-.07-.06-.13-.13-.13s-.13.06-.13.13v96.9h-6.82v-96.9c0-.07-.06-.13-.13-.13s-.13.06-.13.13v96.9h-6.82v-96.9c0-.07-.06-.13-.13-.13s-.13.06-.13.13v96.9h-6.82v-105.29c0-.07-.06-.13-.13-.13s-.13.06-.13.13v105.29h-6.82v-126.18c6.02-4.04,13.53-6.27,21.16-6.27s15.14,2.23,21.16,6.27v36.93c0,.07.06.13.13.13Z"/><path d="M80.73,134.86c-2.96-.77-6.02-1.16-9.09-1.16s-6.13.39-9.09,1.16c-2.95.77-5.75,1.89-8.31,3.34-.37.21-.61.62-.61,1.05v14.71c0,.27.22.49.49.49h35.03c.27,0,.49-.22.49-.49v-14.71c0-.44-.23-.84-.61-1.05-2.56-1.45-5.35-2.58-8.31-3.34Z" class="cls-2"/><path d="M190.53,134.86c-2.96-.77-6.02-1.16-9.09-1.16s-6.13.39-9.09,1.16c-2.95.77-5.75,1.89-8.31,3.34-.37.21-.61.62-.61,1.05v14.71c0,.27.22.49.49.49h35.03c.27,0,.49-.22.49-.49v-14.71c0-.44-.23-.84-.61-1.05-2.56-1.45-5.35-2.58-8.31-3.34Z" class="cls-2"/><polygon points="154.44 270.61 100.51 270.61 100.51 123.63 153.97 123.63 154.44 270.61" class="cls-1"/><path d="M141.2,184.6c0,.18-.01.37-.04.55s-.06.36-.1.54-.1.35-.17.52c-.03.09-.07.17-.1.26s-.08.17-.12.25c-.17.33-.36.63-.58.93-.06.07-.11.14-.17.22s-.12.14-.18.21c-.12.14-.25.27-.38.4-.26.26-.54.49-.83.72s-.59.43-.9.62c-.16.1-.31.19-.47.28s-.32.18-.48.26c-.32.17-.65.32-.99.46-.67.28-1.36.52-2.06.73-.18.05-.35.1-.53.15s-.36.09-.53.13c-.36.08-.71.16-1.07.22-.72.13-1.44.22-2.16.29s-1.44.09-2.17.09-1.45-.03-2.18-.1c-.37-.03-.73-.07-1.09-.12s-.72-.11-1.08-.17c-.72-.13-1.42-.29-2.12-.5-.35-.1-.7-.21-1.04-.33-.34-.12-.69-.25-1.02-.4s-.67-.3-.99-.47-.64-.35-.95-.54c-.15-.1-.31-.2-.46-.3s-.3-.21-.44-.33c-.29-.22-.57-.46-.82-.72s-.5-.53-.72-.82c-.06-.07-.11-.15-.16-.22s-.1-.15-.15-.23c-.1-.16-.19-.31-.27-.48s-.15-.33-.22-.5-.12-.35-.16-.53-.08-.36-.1-.54-.03-.36-.03-.55c0-.37.05-.73.14-1.08.02-.09.05-.18.08-.26s.06-.17.09-.26c.07-.17.14-.34.22-.5s.17-.32.27-.48c.05-.08.1-.15.15-.23s.11-.15.16-.22c.22-.29.47-.56.73-.82s.54-.49.83-.71c.15-.11.29-.22.45-.32s.3-.2.46-.3c.31-.19.63-.37.95-.54s.65-.32.99-.46.67-.27,1.02-.4c.17-.06.35-.12.52-.17s.35-.11.52-.16c.7-.2,1.41-.36,2.12-.49s1.43-.22,2.15-.29,1.45-.09,2.18-.09c.37,0,.73,0,1.1.02s.73.04,1.09.07c.72.06,1.44.16,2.15.29s1.42.29,2.11.49c.35.1.7.21,1.04.33.17.06.35.12.52.19s.34.14.51.21c.34.14.67.3.99.46s.64.35.95.54c.16.1.31.2.46.3s.3.21.44.32c.29.22.56.46.82.71s.5.52.72.82c.06.07.11.15.16.22s.1.15.15.23c.1.15.19.31.27.48s.16.33.22.5c.03.09.06.17.09.26s.05.18.08.27c.04.18.08.36.1.54s.03.37.03.55Z" class="cls-4"/><path d="M122.66,161.3s0,.03,0,.04c0,.01-.01.03-.02.04-.01.01-.03.03-.04.03-.02,0-.03,0-.05.01h-.74s-.07,0-.11.02c-.03.01-.06.03-.09.05-.03.03-.06.06-.08.1-.02.04-.02.09-.03.13,0,.04,0,.07.02.11.01.03.03.06.05.09.03.03.07.06.11.08.04.02.09.02.14.03.01,0,.03,0,.04,0,.01,0,.03.01.04.02.01.01.03.03.03.04,0,.02,0,.03.01.05,0,.01,0,.03,0,.04,0,.01-.01.03-.02.04-.01.01-.03.03-.04.03-.02,0-.03,0-.05.01-.04,0-.07,0-.11.02-.03.01-.06.03-.09.05-.03.03-.06.06-.08.1-.02.04-.02.09-.03.13,0,.04,0,.07.02.11.01.03.03.06.05.09.03.03.07.06.11.08.04.02.09.02.14.03h.41s.03,0,.04,0c.01,0,.03.01.04.02.01.01.03.03.03.04,0,.02.01.03.01.05,0,.01,0,.03,0,.04,0,.01-.01.03-.02.04-.01.01-.03.03-.04.03-.02,0-.04,0-.05.01h-.41c-.07,0-.13-.01-.19-.03-.06-.02-.11-.05-.16-.09-.06-.05-.12-.12-.15-.19-.03-.07-.04-.16-.05-.24,0-.07.02-.15.04-.22.02-.04.04-.08.07-.12.03-.04.06-.07.1-.1-.05-.05-.1-.1-.14-.16-.02-.04-.04-.08-.05-.13-.01-.05-.02-.09-.02-.14,0-.07.02-.15.04-.22.02-.04.04-.08.07-.12.03-.04.06-.07.1-.1-.05-.05-.1-.1-.14-.16-.02-.04-.04-.08-.05-.13-.01-.05-.02-.09-.02-.14,0-.06,0-.12.02-.18.01-.08.04-.16.07-.24.03-.09.08-.17.13-.25.06-.1.13-.19.2-.28.09-.11.19-.21.29-.31v-.38s0-.03,0-.04c0-.01.01-.03.02-.04.01-.01.03-.03.04-.03.02,0,.03,0,.05-.01.01,0,.03,0,.04,0,.01,0,.03.01.04.02.01.01.03.03.03.04,0,.02,0,.03.01.05v.44s0,.03,0,.04c0,.02-.02.03-.03.05-.08.08-.16.15-.23.23-.06.07-.12.14-.17.21-.04.06-.08.12-.12.19-.04.07-.07.14-.09.21-.02.05-.03.11-.04.16,0,.04,0,.07-.01.11,0,.04,0,.07.02.11.01.03.03.06.05.09.03.03.07.06.11.08.04.02.09.02.14.03h.74s.03,0,.04,0c.01,0,.03.01.04.02.01.01.03.03.03.04,0,.02,0,.03.01.05Z"/><path d="M132.29,159.4s-.02-.08-.04-.11c-.02-.04-.04-.07-.07-.11-.01-.02-.03-.04-.05-.06-.01-.02-.03-.03-.04-.05,0-.02-.02-.04-.02-.06,0-.02,0-.04,0-.06,0-.03,0-.06,0-.1,0-.06,0-.13,0-.19-.01-.06-.04-.11-.08-.16-.03-.04-.07-.07-.11-.1-.05-.03-.1-.05-.16-.08,0,0,0,0,0,0,0,0,0,0,0,0-.01-.05-.03-.09-.06-.13-.01-.02-.03-.04-.04-.05-.02-.02-.04-.03-.06-.04-.02,0-.04-.01-.06-.02-.02,0-.04,0-.07,0-.04,0-.08.02-.11.03-.02,0-.04.01-.06.02-.02,0-.05,0-.07,0-.04,0-.08,0-.12,0-.05,0-.1,0-.15,0-.05,0-.11.01-.16.03-.03,0-.05.02-.07.04-.02.01-.05.03-.06.05-.02.02-.04.05-.05.08-.01.03-.02.07-.03.1,0,0,0,.02,0,.03,0,0,0,.02,0,.02,0,0,0,.01-.01.02,0,0,0,0-.01.01,0,0-.02,0-.03.01-.02,0-.03,0-.05,0-.03,0-.06,0-.1.02-.04.01-.07.03-.1.06-.02.02-.03.04-.04.06-.01.03-.02.05-.03.08,0,.04-.01.07-.01.11,0,.02,0,.03,0,.05,0,.01,0,.02-.01.03,0,.01-.01.02-.02.03-.02.02-.05.04-.09.05-.03.02-.07.04-.1.06-.04.03-.07.06-.09.09-.02.03-.04.07-.05.11-.01.05-.02.1-.02.15,0,.03,0,.06,0,.09,0,.02-.02.05-.03.07-.02.03-.05.06-.07.09-.03.03-.06.06-.08.1-.03.04-.05.09-.07.13s-.03.1-.03.15c0,.07,0,.13,0,.2,0,.06,0,.12,0,.17,0,.05-.02.1-.03.14-.02.06-.05.12-.09.17-.02.03-.03.06-.05.09-.02.03-.03.07-.03.11,0,.02,0,.04,0,.06,0,.02,0,.04.02.06,0,.02.02.04.04.05.02.02.04.04.06.05.01.01.03.02.04.04.01.02.02.03.02.05,0,.04,0,.08,0,.12,0,.04-.02.07-.03.11,0,0,0,.02-.01.03h0s0,0,0,0c0,.02-.01.04-.01.05,0,.02,0,.03.01.05,0,.01.01.02.02.03.01.01.02.02.04.02.02,0,.04.01.05.01s.04,0,.05-.01c.01,0,.02-.01.03-.02.01-.01.02-.02.03-.03.02-.06.04-.11.06-.17.01-.07.02-.13.01-.2,0-.05-.02-.11-.05-.15-.03-.05-.07-.09-.12-.13,0,0,0,0,0,0,0,0,0,0,0,0,0-.02.01-.03.02-.05,0-.02.02-.03.02-.04.02-.04.05-.08.07-.13.02-.05.05-.11.06-.17.01-.05.02-.11.03-.16,0-.06,0-.13,0-.19,0-.04,0-.07,0-.11,0-.03,0-.06,0-.08,0-.02.01-.04.02-.06.02-.04.05-.08.09-.11.02-.03.05-.05.07-.08.02-.03.05-.06.06-.1.02-.03.03-.07.03-.1,0-.04.01-.09.01-.13,0-.02,0-.04,0-.06,0-.02,0-.03.01-.05,0-.01.01-.02.02-.03.03-.03.06-.04.09-.06.03-.02.06-.03.09-.05.03-.02.06-.05.09-.09.02-.03.04-.06.05-.1.01-.04.02-.09.02-.14,0-.02,0-.03,0-.04,0,0,0-.01,0-.02,0,0,0,0,0,0,0,0,0,0,0,0,0,0,0,0,0,0,0,0,.01,0,.02,0,.01,0,.02,0,.03,0,.03,0,.06,0,.1-.02.04-.01.07-.03.11-.05.02-.01.04-.03.05-.05.02-.02.03-.05.04-.07.01-.03.02-.06.03-.1,0-.01,0-.02,0-.03,0,0,0-.02.01-.02,0,0,.01-.01.02-.02,0,0,.02-.01.03-.01.03,0,.05-.01.08-.01.05,0,.09,0,.13,0,.07,0,.14,0,.21,0,.05,0,.11-.02.16-.04,0,0,.01,0,.02,0,0,0,0,0,.01,0,0,.01.01.02.01.03,0,0,0,.02,0,.03.01.03.02.06.04.09,0,.01.02.02.03.03.01,0,.02.02.04.03,0,0,.02,0,.02.01,0,0,.02,0,.03,0,.04.01.07.03.11.05.03.02.05.04.07.06,0,.01.02.03.02.04,0,.02,0,.03.01.05,0,.02,0,.04,0,.06,0,.06-.01.12,0,.18,0,.04,0,.09.02.12.02.05.05.1.09.14.02.02.03.04.05.07.01.02.03.05.04.07,0,.02.01.04.02.06,0,.02,0,.05-.01.07-.01.05-.03.1-.06.14-.03.07-.07.15-.08.23-.01.07-.02.14-.02.21v.02c0,.06.02.13.01.19,0,.04,0,.09-.02.13-.01.03-.03.06-.05.09-.03.04-.06.07-.09.1-.04.05-.07.09-.1.15-.02.05-.04.11-.05.17-.01.09-.01.18-.02.27,0,.04,0,.08,0,.12,0,.02,0,.05,0,.07-.04.03-.07.05-.11.08-.04.04-.08.09-.12.13-.07.09-.14.19-.21.28-.02.03-.04.06-.07.1-.01.02-.02.03-.04.05-.02.02-.04.04-.07.05-.05.04-.11.06-.17.08-.07.02-.14.04-.22.05-.1.01-.2.01-.3.01h-.02s0,0-.01,0c-.06-.06-.11-.12-.18-.17-.07-.06-.16-.1-.25-.15-.1-.05-.2-.09-.31-.12-.12-.04-.23-.07-.35-.1-.2-.05-.41-.08-.62-.1-.22-.02-.44-.03-.65-.03-.2,0-.4.01-.6.03-.19.02-.38.04-.57.08-.17.03-.34.08-.51.13-.11.04-.22.08-.32.13-.09.05-.17.1-.25.16-.06.05-.12.12-.16.19-.03.07-.04.14-.06.22v1.65c.01.08.02.15.06.22.04.07.1.14.16.19.08.06.16.12.25.16.1.05.21.1.32.13.17.06.34.1.51.13.19.04.38.07.57.08.2.02.4.02.6.03.2,0,.4-.01.6-.03.19-.02.38-.04.57-.08.17-.03.34-.08.51-.13.11-.04.22-.08.32-.13.09-.05.17-.1.25-.16.06-.05.12-.12.16-.19.03-.07.04-.14.06-.22v-1.65s0-.02,0-.02c0,0,0-.01,0-.02,0,0,0,0,.01,0h0c.09,0,.18,0,.27-.02.07-.01.15-.03.22-.05.06-.02.11-.04.16-.07.04-.02.09-.05.13-.08.02-.02.04-.03.06-.05.02-.02.04-.05.06-.07.03-.03.05-.07.07-.1.03-.04.06-.08.09-.13.04-.05.07-.1.11-.15.03-.04.06-.07.09-.11,0,0,.02-.02.03-.03,0,0,.02-.01.02-.02.03-.02.07-.04.09-.07.02-.03.03-.07.04-.11.01-.07.01-.14.01-.22,0-.09,0-.17.02-.25,0-.03.01-.06.03-.09.01-.02.03-.04.04-.07.04-.04.08-.08.12-.13.03-.04.05-.08.07-.12.02-.04.03-.08.03-.12,0-.05,0-.1,0-.15,0-.06,0-.12-.01-.18v-.02c0-.06,0-.12.02-.18.01-.05.04-.09.06-.14.02-.04.04-.08.05-.12.02-.04.03-.09.03-.13,0-.04,0-.07,0-.11ZM125.68,162.45s.03-.06.05-.08c.03-.03.06-.06.09-.08.06-.05.13-.08.19-.12.08-.04.17-.08.26-.11.14-.05.29-.09.44-.12.18-.04.36-.06.54-.08.2-.02.41-.02.62-.03.18,0,.35,0,.52.02.16.01.31.03.47.06.14.02.27.05.4.09.13.04.26.08.38.13.1.04.19.09.27.15.03.02.05.04.08.07.02.02.04.04.05.07.01.02.02.05.03.07,0,.02,0,.05,0,.07,0,.03-.02.07-.04.09-.02.04-.05.07-.08.09-.04.03-.08.06-.13.09-.07.04-.14.08-.21.11-.09.04-.18.07-.27.1-.11.03-.22.06-.32.08-.12.03-.25.04-.37.06-.14.02-.28.03-.41.04-.13,0-.26.01-.4.01-.05,0-.11,0-.16,0-.05,0-.1,0-.16,0-.15,0-.31-.02-.46-.04-.14-.02-.27-.04-.41-.07.06-.01.12-.03.18-.04.06-.01.12-.02.19-.03.06,0,.13-.02.19-.02.07,0,.13-.01.2-.02.07,0,.14,0,.2-.01.07,0,.14,0,.21,0h.11c.14,0,.27,0,.41.02.02,0,.04,0,.05,0,.02,0,.03-.02.04-.03,0-.01.02-.02.02-.03,0-.01,0-.03.01-.04,0-.02,0-.04,0-.05,0-.02-.02-.03-.03-.04-.01-.01-.02-.02-.03-.02-.01,0-.03,0-.04-.01-.1,0-.2-.01-.3-.01-.02,0-.04,0-.06,0-.02,0-.04,0-.06,0-.02,0-.04,0-.06,0-.07,0-.15,0-.22,0-.17,0-.34.02-.52.04-.16.02-.32.04-.48.08-.14.03-.28.07-.43.11,0,0,0,0-.01,0,0,0,0,0,0,0-.08-.03-.16-.06-.23-.1-.06-.03-.12-.07-.17-.11-.02-.01-.04-.03-.05-.05-.01-.02-.03-.03-.04-.05-.01-.02-.02-.03-.03-.05,0-.02-.01-.03-.02-.05,0-.02,0-.03,0-.05,0-.03,0-.06.02-.08ZM130.09,164.18s0,.06-.02.08c-.01.03-.03.06-.05.08-.03.03-.06.06-.09.08-.06.05-.13.08-.19.12-.08.04-.17.08-.26.11-.14.05-.29.09-.44.12-.18.04-.36.06-.54.08-.21.02-.41.02-.62.03-.21,0-.41-.01-.62-.03-.18-.02-.36-.04-.54-.08-.15-.03-.3-.07-.44-.12-.09-.03-.18-.07-.26-.11-.07-.03-.13-.07-.19-.12-.03-.03-.06-.05-.09-.08-.02-.03-.04-.05-.05-.08-.01-.03-.01-.06-.02-.08v-1.22c.09.06.19.12.29.17.12.06.24.1.37.14.14.04.28.08.43.1.18.04.37.06.55.08.19.02.38.02.58.03.16,0,.33,0,.49-.02.16-.01.32-.03.48-.05.15-.02.3-.05.45-.09.11-.03.21-.06.31-.1.09-.03.18-.07.27-.12.08-.04.15-.09.22-.14v1.22Z"/><path d="M123.52,158.1c-.02-.05-.06-.1-.11-.14-.04-.03-.08-.05-.12-.07-.05-.01-.09-.02-.14-.02h-.84c-.06,0-.12.02-.18.04-.05.02-.1.06-.14.11-.03.04-.06.08-.07.12-.02.04-.02.09-.03.14v.56s0,.04.01.05c0,.02.02.03.03.04.01,0,.02.02.04.02s.03,0,.04,0h1.42s.04,0,.05-.01c.02,0,.03-.02.04-.03,0-.01.02-.02.02-.04,0-.01,0-.03,0-.04v-.56c0-.06-.02-.12-.04-.17ZM123.31,158.71h-1.17v-.44s0-.05.02-.07c0-.02.03-.04.04-.05.01-.01.03-.02.05-.03.02,0,.04,0,.06-.01h.84s.05,0,.07.02c.02,0,.04.02.06.04.01.01.02.03.03.05,0,.02,0,.04.01.06v.44Z"/><path d="M124.15,163.28v1.64s0,0,0,.01c0,0,0,0,0,.01,0,.03-.02.07-.03.1-.02.03-.04.06-.06.09-.03.03-.06.05-.09.08-.08.05-.16.08-.25.1-.11.02-.21.03-.32.04-.04,0-.08,0-.12,0-.05,0-.1-.01-.15-.02-.01,0-.03,0-.04-.02-.01,0-.02-.02-.03-.03-.01-.01-.02-.03-.02-.05,0-.02,0-.04,0-.05,0-.01,0-.03.02-.04,0-.01.02-.02.03-.03.01-.01.03-.02.05-.02.02,0,.04,0,.05,0,.03,0,.06.01.1.01.04,0,.09,0,.13,0,.07,0,.14,0,.22-.02.06-.01.11-.03.16-.05.04-.02.07-.03.1-.06,0,0,.01-.01.02-.02,0,0,0,0,.01-.02,0,0,0,0,0-.01,0,0,0,0,0-.01,0,0,0,0,0-.01s0,0,0-.01c0,0,0-.01-.01-.01,0,0-.01-.01-.02-.02-.03-.03-.07-.04-.1-.06-.05-.02-.11-.04-.16-.05-.07-.01-.14-.02-.22-.02-.05,0-.1,0-.14.02-.05.01-.09.03-.13.05-.05.03-.1.06-.15.1-.05.04-.1.08-.15.12-.09.07-.18.14-.28.2-.07.04-.14.07-.21.1-.08.02-.16.03-.25.04-.09,0-.17,0-.26-.02-.07-.01-.15-.03-.22-.07-.05-.02-.1-.05-.14-.08-.04-.03-.07-.06-.1-.1-.02-.04-.03-.08-.04-.12,0,0,0,0,0-.01,0,0,0,0,0-.01v-1.64s0-.03,0-.04c0-.01.01-.02.02-.04.01-.01.03-.03.04-.03.02,0,.03,0,.05-.01.01,0,.03,0,.04,0,.01,0,.03.01.04.02.01.01.03.03.03.04,0,.02,0,.03.01.05v1.64s0,0,0,.01c0,0,0,0,0,.01,0,0,0,.01.01.02,0,0,.01.01.02.02.03.03.06.04.1.06.05.02.11.04.16.05.07.01.14.02.21.02.05,0,.1,0,.14-.02.05-.01.09-.03.13-.05.05-.03.1-.06.15-.09.05-.04.1-.08.15-.12.09-.07.18-.14.28-.2.07-.04.14-.07.21-.1.08-.02.16-.03.25-.04.09,0,.17,0,.25.02.09.02.18.05.26.09v-1.31s0-.03,0-.04c0-.01.01-.02.02-.04.01-.01.03-.03.04-.03.02,0,.03,0,.05-.01.01,0,.03,0,.04,0,.01,0,.03.01.04.02.01.01.03.03.03.04,0,.02,0,.03.01.05Z"/><path d="M124.01,162.16c.05.05.1.1.14.16.02.04.04.08.05.13.01.05.01.09.02.14,0,.07-.01.13-.03.19-.02.06-.05.11-.09.16-.05.06-.12.11-.19.15-.07.03-.16.04-.24.05-.01,0-.03,0-.04,0-.01,0-.03-.01-.04-.02-.01-.01-.03-.03-.03-.04,0-.02,0-.03-.01-.05,0-.01,0-.03,0-.04,0-.01.01-.03.02-.04.01-.01.03-.03.04-.03.02,0,.03,0,.05-.01.04,0,.07,0,.11-.02.03-.01.06-.03.09-.05.03-.03.06-.06.08-.1.02-.04.02-.09.03-.13,0-.04,0-.07-.02-.11-.01-.03-.03-.06-.05-.09-.03-.03-.07-.06-.11-.08-.04-.02-.09-.02-.14-.03h-.77s-.03,0-.04,0c-.01,0-.03-.01-.04-.02-.01-.01-.03-.03-.03-.04,0-.02,0-.03-.01-.05,0-.01,0-.03,0-.04s.01-.03.02-.04c.01-.01.03-.03.04-.03.02,0,.03,0,.05-.01h.77s.07,0,.11-.02c.03-.01.06-.03.09-.05.03-.03.06-.06.08-.1.02-.04.02-.09.03-.13,0-.04,0-.07-.02-.11-.01-.03-.03-.06-.05-.09-.03-.03-.07-.06-.11-.08-.04-.02-.09-.02-.14-.03-.01,0-.03,0-.04,0s-.03-.01-.04-.02c-.01-.01-.03-.03-.03-.04,0-.02,0-.03-.01-.05,0-.01,0-.03,0-.04,0-.01.01-.02.02-.04.01-.01.03-.03.04-.03.02,0,.03-.01.05-.01.04,0,.07,0,.11-.02.03-.01.06-.03.09-.05.03-.03.06-.06.08-.1.02-.04.02-.09.03-.13,0-.05,0-.09-.01-.14-.01-.07-.04-.14-.06-.21-.03-.08-.07-.15-.12-.22-.06-.09-.12-.18-.19-.26-.09-.1-.19-.2-.29-.3-.01-.01-.02-.02-.03-.04,0-.02-.01-.04-.01-.05v-.44s0-.03,0-.04c0-.01.01-.03.02-.04.01-.01.03-.03.04-.03.02,0,.03,0,.05-.01.01,0,.03,0,.04,0,.01,0,.03.01.04.02.01.01.03.03.03.04,0,.02,0,.03.01.05v.38c.08.08.16.16.24.25.06.07.12.15.18.23.05.07.09.14.13.21.04.08.07.15.1.23.02.06.04.13.05.19,0,.05,0,.1.01.15,0,.07-.02.15-.04.22-.02.04-.04.08-.07.12-.03.04-.06.07-.1.1.05.05.1.1.14.16.02.04.04.08.05.13.01.05.01.09.02.14,0,.07-.02.15-.04.22-.02.04-.04.08-.07.12-.03.04-.06.07-.1.1Z"/><path d="M131.36,159.8c0,.07-.01.15-.02.22,0,.05-.02.11-.03.16,0,.01,0,.03-.02.04s-.02.02-.03.03c-.01.01-.03.02-.05.02-.02,0-.04,0-.05,0-.01,0-.03,0-.04-.02-.01,0-.02-.02-.03-.03-.01-.01-.02-.03-.02-.05,0-.02,0-.04,0-.05.02-.09.03-.18.04-.26,0-.07.01-.14.01-.22,0-.06,0-.11,0-.17,0-.06-.01-.11-.03-.16,0-.01-.01-.03-.02-.04,0,0,0,0,0-.01,0,0,0,0,0,0,0,0,0,0,0,0,0,0,0,0-.01,0,0,0,0,0-.01,0,0,0-.01,0-.02,0-.02.01-.04.03-.06.04-.03.02-.05.05-.07.08-.03.04-.06.07-.08.11-.04.07-.08.14-.12.21-.05.09-.09.18-.12.27-.04.11-.08.22-.12.34-.04.14-.07.28-.1.42-.02.08-.03.16-.03.25,0,.07,0,.15,0,.22,0,.05,0,.1.01.14,0,.03.01.07.02.1,0,.02.02.04.03.06,0,0,0,.01.01.02,0,0,0,0,0,0,0,0,0,0,0,0,0,0,0,0,0,0,0,0,0,0,0,0,0,0,0,0,.01,0,.01,0,.03-.01.04-.02.04-.03.07-.06.1-.1.05-.06.09-.12.13-.19.06-.09.1-.19.15-.29,0-.01.01-.02.02-.04,0-.01.02-.02.03-.02.02,0,.03-.01.05-.01.02,0,.04,0,.05.01.01,0,.03.01.04.02.01,0,.02.02.02.03,0,.02.01.03.01.05,0,.02,0,.04-.01.05-.03.07-.07.15-.11.22-.05.09-.1.17-.15.25-.04.05-.08.1-.12.14-.04.04-.09.08-.14.1-.05.02-.1.04-.15.04h-.01s-.01,0-.02,0c-.01,0-.03,0-.04,0-.02,0-.04-.01-.05-.02-.02,0-.04-.02-.05-.04-.02-.02-.03-.04-.05-.06-.02-.03-.04-.07-.05-.1-.02-.05-.03-.1-.04-.15-.01-.07-.01-.13-.02-.2,0-.13,0-.26.03-.39.02-.19.07-.38.12-.57.03-.11.07-.22.11-.33.04-.1.09-.21.14-.31.05-.09.1-.18.15-.27.04-.06.08-.11.13-.16.04-.04.08-.08.13-.11.04-.03.09-.05.13-.06.04,0,.09,0,.13,0,.04.02.09.04.12.07.03.03.06.08.08.12.02.05.04.1.05.16.01.06.02.12.02.18,0,.08,0,.16,0,.24Z"/><path d="M130.02,163.52s0,.03-.02.05c-.01.02-.02.03-.04.04-.11.06-.22.11-.34.16-.14.05-.28.09-.42.12-.16.04-.32.07-.48.09-.18.02-.35.04-.53.05-.08,0-.17,0-.25,0h-.11s-.05,0-.07,0c-.02,0-.05,0-.07,0-.02,0-.05,0-.07,0-.14,0-.29-.02-.43-.03-.01,0-.03,0-.04-.01-.01,0-.02-.01-.03-.02-.01-.01-.02-.03-.03-.04,0-.02,0-.04,0-.05,0-.01,0-.03.01-.04,0-.01.01-.02.02-.03.01-.01.03-.02.05-.03.02,0,.04,0,.05,0,.2.02.39.03.59.03.02,0,.04,0,.07,0,.07,0,.13,0,.2,0,.08,0,.15,0,.23-.01.08,0,.15-.01.23-.02.07,0,.15-.02.22-.03.14-.02.29-.05.43-.08.13-.03.25-.06.37-.11.1-.04.2-.09.29-.14.01,0,.03-.01.04-.02.01,0,.03,0,.04,0,.02,0,.04,0,.05.02.01.01.03.02.04.04,0,.01.01.03.02.04,0,.01,0,.03,0,.04Z"/><path d="M126.56,163.77s-.02.04-.03.05c-.01.01-.03.02-.05.03-.01,0-.03,0-.04,0,0,0,0,0,0,0,0,0,0,0,0,0,0,0-.01,0-.02,0-.09-.03-.17-.05-.26-.08-.09-.04-.18-.08-.28-.12-.01,0-.02-.02-.03-.03,0,0-.02-.02-.02-.03,0-.02-.01-.03,0-.05,0-.02,0-.03.01-.05,0-.01.02-.02.03-.03,0,0,.02-.02.04-.02.02,0,.03-.01.05,0,.02,0,.04,0,.05.01.06.03.13.06.19.09.09.04.19.07.29.1.01,0,.03.01.04.02.01,0,.02.02.03.03.01.01.02.03.02.05,0,.02,0,.04,0,.05Z"/><path d="M148.33,173.78v-36.93c-6.02-4.04-13.53-6.27-21.16-6.27s-15.14,2.23-21.16,6.27v126.18h6.82v-76.1c0-.07.06-.13.13-.13s.14.06.14.13v76.1h6.82v-71.36h0c0-.07.06-.13.13-.13s.14.06.14.13v71.36h6.82c0-23.44,0-46.89,0-70.33,0-.07.06-.13.14-.13s.14.06.14.13c0,23.33,0,47.01,0,70.33h6.82c0-23.68,0-47.66,0-71.34,0-.07.06-.13.14-.13s.14.06.14.13v71.34h6.82c0-25.37,0-50.73,0-76.1,0-.07.06-.13.14-.13.06,0,.11.04.13.1,0,0,0,0,0,0h0s0,.03,0,.04c0,25.37,0,50.73,0,76.1h6.87v-82.95c0-.07.06-.13.14-.13s.13.06.13.13v83.08c0,.07-.06.13-.13.13h-42.59c-.07,0-.13-.06-.13-.13v-126.38s.02-.09.06-.11c6.08-4.1,13.67-6.36,21.37-6.36s15.29,2.26,21.37,6.35c.04.03.06.07.06.11v37.01c0,.07-.06.13-.13.13s-.14-.06-.14-.13Z"/><path d="M127.15,166.26c-.07,0-.14.06-.14.13,0,3.17,0,6.18,0,9.35,0,.07.06.13.13.13s.13-.06.13-.13c0-3.17,0-6.18,0-9.35,0-.07-.06-.13-.13-.13Z"/><path d="M112.83,181.59c0,.07.06.12.13.12s.13-.06.13-.13c0-8.05,0-15.54,0-23.59,0-.07-.06-.13-.14-.13s-.13.06-.13.13c0,8.05,0,15.54,0,23.59,0,0,0,0,0,0h0s0,0,0,0Z"/><path d="M134.24,176.88c.07,0,.13-.06.13-.13v-.08h0v-10.28c0-.07-.06-.13-.14-.13s-.14.06-.14.13v10.36s0,0,0,0h0c0,.07.06.13.13.13Z"/><path d="M141.33,157.86c-.07,0-.13.06-.13.13,0,8.05,0,15.45,0,23.49,0,.07.06.13.13.13s.13-.06.13-.13c0-8.05,0-15.45,0-23.49,0-.07-.06-.13-.14-.13Z"/><path d="M120.06,176.9c.07,0,.13-.06.13-.13,0-3.53,0-6.85,0-10.37,0-.07-.06-.13-.14-.13s-.14.06-.14.13v10.37s0,0,0,0h0c0,.07.06.13.13.13Z"/><path d="M127.17,177.31c-7.37,0-13.37,3.27-13.37,7.29s6,7.29,13.37,7.29,13.37-3.27,13.37-7.29-6-7.29-13.37-7.29ZM127.17,191.63c-7.22,0-13.1-3.15-13.1-7.02s5.88-7.03,13.1-7.03,13.1,3.15,13.1,7.03-5.88,7.02-13.1,7.02Z"/><path d="M136.27,134.86c-2.96-.77-6.02-1.16-9.09-1.16s-6.13.39-9.09,1.16c-2.95.77-5.75,1.89-8.31,3.34-.37.21-.61.62-.61,1.05v14.71c0,.27.22.49.49.49h35.03c.27,0,.49-.22.49-.49v-14.71c0-.44-.23-.84-.61-1.05-2.56-1.45-5.35-2.58-8.31-3.34Z" class="cls-2"/><path d="M182.76,164.31c.2.08.39.11.57.09.19-.02.36-.09.52-.2.1-.07.19-.1.29-.1.04,0,.07,0,.11.01.06.02.13.05.2.09.22.15.44.21.68.19.34-.02.62-.17.88-.44.08-.09.08-.12,0-.21-.6-.6-.82-1.35-.68-2.23.08-.49.33-.94.72-1.33.1-.09.1-.12,0-.22-.14-.17-.31-.3-.5-.39-.41-.2-.78-.17-1.13.09-.02.01-.03.03-.05.04l-.12.08v-.11s0-.03,0-.04c0-.02,0-.05,0-.08.05-.34.21-.61.46-.8.12-.09.24-.16.36-.23h0s.05-.04.08-.05c.05-.03.08-.05.09-.09.01-.05,0-.08-.04-.12-.04-.03-.08-.03-.13,0-.21.1-.38.21-.53.34-.26.22-.42.46-.48.72-.02.07-.03.14-.04.22,0,.04-.01.07-.02.11l-.02.09-.14-.1c-.25-.18-.5-.25-.76-.21-.34.05-.64.24-.91.56-.04.05-.03.08.01.13.01.01.03.03.04.04.24.22.42.48.55.78.2.47.26.97.16,1.49-.09.51-.32.95-.67,1.29-.09.08-.09.12,0,.21.13.15.29.26.47.34ZM182.53,163.83c.47-.51.7-1.12.7-1.87,0-.69-.26-1.31-.76-1.84l-.04-.04.04-.04c.24-.21.45-.32.68-.36.16-.02.31.01.47.11.04.02.07.05.11.07.03.02.05.04.08.05.21.13.42.14.64.01.04-.02.07-.05.11-.07.03-.02.05-.04.08-.06.19-.12.4-.15.61-.09.18.05.35.14.52.28.02.02.05.05.05.09,0,.04-.02.07-.04.09-.42.44-.66.98-.71,1.59-.06.75.15,1.43.63,2,.01.01.02.03.04.05l.06.07-.04.03c-.17.14-.4.29-.71.28-.16,0-.3-.05-.44-.13l-.04-.02c-.07-.04-.14-.09-.22-.11-.19-.07-.38-.04-.55.07-.1.07-.22.14-.37.17-.07.01-.14.02-.21.02-.19,0-.36-.06-.52-.17-.04-.02-.07-.05-.1-.08l-.1-.07.04-.04Z"/><path d="M177.93,161.81c-.02.47.03.84.14,1.18.13.38.34.66.65.86.28.18.61.27,1.02.29.4.01.79-.07,1.19-.26.25-.12.43-.24.58-.39.08-.09.13-.16.15-.25.01-.05,0-.1-.03-.12-.03-.03-.07-.04-.12-.02h-.03c-.31.07-.69.13-1.07.07-.32-.05-.57-.18-.75-.4-.15-.17-.25-.38-.33-.66,0,0,0-.02,0-.02v-.03h.06c.33,0,.61-.03.86-.07.26-.05.45-.11.61-.2.19-.1.3-.23.35-.39.06-.21.02-.42-.14-.64-.02-.03-.06-.05-.09-.04-.04,0-.08.03-.09.07-.05.13-.14.22-.28.27-.11.03-.22.06-.33.07-.23.03-.47,0-.67-.04-.1-.02-.19-.04-.29-.06-.04,0-.09-.02-.13-.03h-.02s0-.03,0-.03c0-.04,0-.07,0-.11,0-.08,0-.15-.01-.22-.01-.16-.03-.33-.05-.52,0-.04,0-.06.04-.09.17-.13.34-.27.52-.41l.11-.09s.06-.06.06-.09c0-.03-.02-.07-.05-.1-.11-.11-.22-.22-.33-.32l-.05-.05c-.07-.07-.11-.07-.19-.01l-.15.12c-.15.12-.31.24-.47.36-.02.02-.05.03-.08.03-.23.02-.41.07-.55.18-.12.09-.22.22-.3.39-.05.1-.1.21-.14.31-.02.05-.04.1-.07.15-.17.37-.45.6-.85.7-.2.05-.41.07-.67.07-.06,0-.09.02-.11.07-.03.06,0,.1.03.13.22.2.44.36.68.46.23.1.45.14.67.11.24-.03.45-.15.63-.35.02-.02.03-.04.05-.06l.09-.1v.16s-.01.08-.01.12ZM179.3,161.27c.07.01.13.03.19.04.32.06.57.07.81.05.25-.02.43-.09.58-.2.01,0,.02-.02.03-.03l.05-.05v.04c.04.06.04.13.02.2-.02.09-.07.16-.16.22-.15.11-.32.16-.47.19-.36.09-.74.1-1.09.1h-.03s-.07-.6-.07-.6l.14.03ZM179.27,159.19l.26.26-.5.39-.21-.31.44-.34ZM178.55,160.05l.08-.25s0-.02.01-.03v-.03s.07-.02.07-.02v.02s.03.03.04.04c.02.03.04.07.05.11h0c.03.13.07.25.08.37.02.2.03.4.05.59,0,.1.01.19.02.29.03.37.06.75.18,1.13.1.32.24.56.44.74.21.2.47.33.8.38.24.04.51.04.8,0,.01,0,.03,0,.06,0l.05.02-.06.05s-.02.02-.04.03c-.28.2-.62.34-.98.41-.13.02-.26.04-.4.04-.19,0-.37-.02-.55-.07-.45-.12-.77-.41-.94-.87-.09-.22-.13-.47-.15-.76-.02-.39.01-.81.1-1.29.01-.06.03-.12.06-.17.01-.03.03-.07.04-.1.07-.2.13-.41.2-.61ZM177.9,161.17c-.09.17-.18.3-.28.41-.16.17-.35.26-.58.26-.06,0-.11,0-.17-.02-.25-.04-.45-.17-.6-.27l-.06-.04.07-.02c.05-.01.11-.02.16-.04.12-.03.23-.05.35-.09.38-.12.66-.38.84-.77.03-.07.06-.13.09-.2.04-.09.08-.18.12-.26.06-.12.14-.26.28-.34.05-.03.1-.05.16-.07h.03s.05-.01.07,0c.02.02.03.04.02.07-.03.09-.06.18-.08.27-.11.36-.23.74-.41,1.09Z"/><ellipse ry="1.87" rx="1.89" cy="176.85" cx="92.94" class="cls-2"/><ellipse ry="1.87" rx="1.89" cy="176.85" cx="148.51" class="cls-2"/><ellipse ry="1.87" rx="1.89" cy="176.85" cx="202.77" class="cls-2"/><line y2="270.62" x2="210.44" y1="270.62" x1="43.94" class="cls-2"/><rect height="1.07" width="191.69" y="122.56" x="31.33" class="cls-4"/><g id="LINE-6"><rect height="1.08" width="80.95" y="122.79" x="236.81" class="cls-3"/></g><g id="LINE-7"><line y2="270.48" x2="305.18" y1="270.48" x1="249.4" class="cls-2"/></g><g id="LINE-8"><path d="M317.75,123.86v160.92h-5.37v-22.16c1.41-.32,2.46-1.58,2.46-3.08s-1.05-2.75-2.46-3.07V123.86h5.37Z" class="cls-2"/></g><g id="LINE-9"><path d="M308.54,259.54c0,1.35.85,2.5,2.04,2.95v22.29h-5.39V123.86h5.39v132.74c-1.19.45-2.04,1.6-2.04,2.94Z" class="cls-2"/></g><g id="LINE-10"><line y2="284.78" x2="310.58" y1="284.78" x1="312.38" class="cls-2"/></g><g id="LINE-11"><rect height="160.91" width="5.4" y="123.87" x="244.01" class="cls-2"/></g><g id="LINE-12"><rect height="160.91" width="5.4" y="123.87" x="236.81" class="cls-2"/></g><g id="LINE-13"><line y2="284.78" x2="244.01" y1="284.78" x1="242.21" class="cls-2"/></g><path d="M314.84,259.54c0,1.5-1.05,2.76-2.46,3.08-.22.04-.45.07-.69.07-.39,0-.76-.07-1.11-.2-1.19-.45-2.04-1.6-2.04-2.95s.85-2.49,2.04-2.94c.35-.13.72-.2,1.11-.2.24,0,.47.03.69.07,1.41.32,2.46,1.57,2.46,3.07Z" class="cls-4"/><path d="M298.58,180.37c.07,0,.13-.06.13-.13v-43.3s-.02-.09-.06-.11c-6.08-4.1-13.67-6.35-21.37-6.35s-15.29,2.26-21.37,6.36c-.04.02-.06.07-.06.11v126.38c0,.07.06.13.13.13h7.09s0,0,0,0,0,0,0,0h7.09s0,0,0,0,0,0,0,0h7.09s0,0,0,0,0,0,0,0h7.09s0,0,0,0,0,0,0,0h7.09s0,0,0,0,0,0,0,0h7.14c.07,0,.13-.06.13-.13v-83.08c0-.07-.06-.13-.13-.13s-.13.06-.13.13v82.95h-6.87v-129.79c0-.07-.06-.13-.13-.13s-.13.06-.13.13v129.79h-6.82v-131.79c0-.07-.06-.13-.13-.13s-.13.06-.13.13v131.79h-6.82v-132.58c0-.07-.06-.13-.13-.13s-.13.06-.13.13v132.58h-6.82v-131.79c0-.07-.06-.13-.13-.13s-.13.06-.13.13v131.79h-6.82v-129.79c0-.07-.06-.13-.13-.13s-.13.06-.13.13v129.79h-6.82v-126.18c6.02-4.04,13.53-6.27,21.16-6.27s15.14,2.23,21.16,6.27v43.23c0,.07.06.13.13.13Z"/><g id="LINE-14"><line y2="122.39" x2="18.1" y1="284.61" x1="18.1" class="cls-2"/><rect height=".3" width="1.95" y="284.46" x="17.13"/><rect height=".3" width="1.95" y="122.24" x="17.13"/></g><g id="MTEXT-2"><path d="M9.01,214.69c.12-.24.29-.44.51-.61.22-.17.5-.3.82-.39.32-.09.69-.14,1.09-.14s.8.05,1.15.15c.35.1.64.24.89.43s.43.41.56.67c.13.26.2.55.2.88,0,.37-.09.7-.27.97-.18.27-.43.47-.76.59l-.29-.64c.21-.07.37-.18.48-.34.11-.16.17-.35.17-.56,0-.2-.05-.38-.14-.55-.09-.17-.23-.31-.4-.44-.17-.13-.37-.22-.61-.29-.24-.07-.49-.1-.77-.1h-.17c-.06,0-.1,0-.15,0,.25.08.45.23.59.45.14.22.21.48.21.79,0,.24-.04.46-.12.65-.08.2-.19.36-.34.5-.14.14-.32.25-.52.33-.2.08-.42.12-.66.12s-.47-.04-.68-.13c-.21-.08-.38-.2-.52-.35-.14-.15-.26-.32-.34-.53-.08-.21-.12-.43-.12-.68,0-.3.06-.57.18-.81ZM9.58,215.86c.05.12.12.22.21.3.09.08.19.15.31.2.12.05.26.07.41.07s.29-.02.41-.07c.12-.05.23-.12.32-.2.09-.09.16-.19.21-.31.05-.12.07-.25.07-.4s-.02-.27-.07-.39c-.05-.12-.12-.22-.2-.31-.09-.09-.19-.15-.31-.2-.12-.05-.25-.07-.4-.07s-.28.03-.41.08c-.13.05-.24.13-.34.21-.1.09-.17.2-.22.32s-.08.26-.08.4.03.26.08.38Z"/><path d="M9.04,210.12c.13-.25.32-.47.55-.65.23-.18.52-.32.85-.42.33-.1.69-.15,1.08-.15s.76.05,1.1.15.62.24.86.42c.24.18.43.4.56.65.13.25.2.52.2.83s-.07.57-.2.82-.32.47-.56.65c-.24.18-.53.32-.86.42-.33.1-.7.15-1.1.15s-.75-.05-1.08-.15c-.33-.1-.61-.24-.85-.42-.24-.18-.42-.4-.55-.65-.13-.25-.2-.53-.2-.83s.07-.58.2-.83ZM9.67,211.47c.1.16.23.29.41.41.18.11.38.2.63.27.24.07.51.1.81.1s.57-.03.82-.09c.25-.06.46-.15.64-.27.18-.12.32-.25.42-.41.1-.16.15-.33.15-.52s-.05-.37-.15-.53c-.1-.16-.24-.3-.42-.41-.18-.11-.39-.2-.64-.27-.25-.06-.52-.09-.82-.09s-.56.03-.81.09c-.25.06-.46.15-.63.26-.17.11-.31.25-.41.41-.1.16-.15.34-.15.53s.05.37.15.52Z"/><path d="M9.04,205.49c.13-.25.32-.47.55-.65.23-.18.52-.32.85-.42.33-.1.69-.15,1.08-.15s.76.05,1.1.15.62.24.86.42c.24.18.43.4.56.65.13.25.2.52.2.83s-.07.57-.2.82-.32.47-.56.65c-.24.18-.53.32-.86.42-.33.1-.7.15-1.1.15s-.75-.05-1.08-.15c-.33-.1-.61-.24-.85-.42-.24-.18-.42-.4-.55-.65-.13-.25-.2-.53-.2-.83s.07-.58.2-.83ZM9.67,206.84c.1.16.23.29.41.41.18.11.38.2.63.27.24.07.51.1.81.1s.57-.03.82-.09c.25-.06.46-.15.64-.27.18-.12.32-.25.42-.41.1-.16.15-.33.15-.52s-.05-.37-.15-.53c-.1-.16-.24-.3-.42-.41-.18-.11-.39-.2-.64-.27-.25-.06-.52-.09-.82-.09s-.56.03-.81.09c-.25.06-.46.15-.63.26-.17.11-.31.25-.41.41-.1.16-.15.34-.15.53s.05.37.15.52Z"/><path d="M10.54,200.66h.67c-.24-.11-.42-.26-.54-.45-.12-.18-.18-.4-.18-.63,0-.26.07-.48.2-.67.14-.19.33-.32.59-.41-.26-.11-.45-.27-.59-.46-.14-.2-.2-.43-.2-.7,0-.38.12-.67.37-.88.25-.21.61-.31,1.07-.31h2.25v.7h-2.16c-.29,0-.52.07-.69.2-.17.13-.25.31-.25.54,0,.12.02.22.07.32.05.1.11.18.2.26.09.07.19.13.32.16.12.04.26.06.4.06h2.11v.7h-2.16c-.14,0-.27.02-.38.06-.12.04-.22.09-.3.15-.08.06-.14.14-.19.23-.04.09-.07.2-.07.31s.02.22.07.32c.05.1.12.18.21.25.09.07.2.12.32.17.12.04.26.06.41.06h2.09v.7h-3.64v-.68Z"/><path d="M10.54,194.47h.67c-.24-.11-.42-.26-.54-.45-.12-.18-.18-.4-.18-.63,0-.26.07-.48.2-.67.14-.19.33-.32.59-.41-.26-.11-.45-.27-.59-.46-.14-.2-.2-.43-.2-.7,0-.38.12-.67.37-.88.25-.21.61-.31,1.07-.31h2.25v.7h-2.16c-.29,0-.52.07-.69.2-.17.13-.25.31-.25.54,0,.12.02.22.07.32.05.1.11.18.2.26.09.07.19.13.32.16.12.04.26.06.4.06h2.11v.7h-2.16c-.14,0-.27.02-.38.06-.12.04-.22.09-.3.15-.08.06-.14.14-.19.23-.04.09-.07.2-.07.31s.02.22.07.32c.05.1.12.18.21.25.09.07.2.12.32.17.12.04.26.06.41.06h2.09v.7h-3.64v-.68Z"/></g><g id="LINE-15"><line y2="109.51" x2="18.1" y1="28.81" x1="18.1" class="cls-2"/><rect height=".3" width="1.95" y="28.66" x="17.13"/><rect height=".3" width="1.95" y="109.36" x="17.13"/></g><g id="MTEXT-3"><path d="M8.89,78.2h5.29v.73h-4.36s.08.04.1.06c.03.02.06.04.09.07l2.02,1.35s.06.04.08.05.05.03.08.06v-3.2h.64v3.98h-.59l-3.35-2.22v-.87Z"/><path d="M8.89,73.77h.65v1.92l1.54.25c-.09-.1-.16-.22-.21-.36-.05-.14-.07-.29-.07-.46,0-.25.04-.47.13-.68.08-.21.2-.38.35-.53.15-.15.33-.27.54-.35.21-.08.44-.12.69-.12s.48.04.7.13c.21.09.4.21.55.36.15.16.27.34.36.56.08.21.13.45.13.71,0,.2-.03.39-.08.58s-.13.35-.23.5c-.1.15-.22.28-.36.39-.14.11-.3.19-.48.24l-.31-.63c.24-.07.43-.19.56-.39.14-.19.21-.42.21-.67,0-.15-.03-.29-.08-.41-.05-.13-.12-.23-.21-.33-.09-.09-.2-.16-.33-.21-.13-.05-.27-.08-.43-.08s-.3.03-.44.08c-.13.05-.25.13-.34.22s-.17.21-.22.34c-.05.13-.08.28-.08.44,0,.18.04.35.1.49.07.14.17.26.31.36l-.15.62-2.79-.47v-2.52Z"/><path d="M9.04,70.03c.13-.25.32-.47.55-.65.23-.18.52-.32.85-.42.33-.1.69-.15,1.08-.15s.76.05,1.1.15.62.24.86.42c.24.18.43.4.56.65.13.25.2.52.2.83s-.07.57-.2.82-.32.47-.56.65c-.24.18-.53.32-.86.42-.33.1-.7.15-1.1.15s-.75-.05-1.08-.15c-.33-.1-.61-.24-.85-.42-.24-.18-.42-.4-.55-.65-.13-.25-.2-.53-.2-.83s.07-.58.2-.83ZM9.67,71.38c.1.16.23.29.41.41.18.11.38.2.63.27.24.07.51.1.81.1s.57-.03.82-.09c.25-.06.46-.15.64-.27.18-.12.32-.25.42-.41.1-.16.15-.33.15-.52s-.05-.37-.15-.53c-.1-.16-.24-.3-.42-.41-.18-.11-.39-.2-.64-.27-.25-.06-.52-.09-.82-.09s-.56.03-.81.09c-.25.06-.46.15-.63.26-.17.11-.31.25-.41.41-.1.16-.15.34-.15.53s.05.37.15.52Z"/><path d="M10.54,65.2h.67c-.24-.11-.42-.26-.54-.45-.12-.18-.18-.4-.18-.63,0-.26.07-.48.2-.67.14-.19.33-.32.59-.41-.26-.11-.45-.27-.59-.46-.14-.2-.2-.43-.2-.7,0-.38.12-.67.37-.88.25-.21.61-.31,1.07-.31h2.25v.7h-2.16c-.29,0-.52.07-.69.2-.17.13-.25.31-.25.54,0,.12.02.22.07.32.05.1.11.18.2.26.09.07.19.13.32.16.12.04.26.06.4.06h2.11v.7h-2.16c-.14,0-.27.02-.38.06-.12.04-.22.09-.3.15-.08.06-.14.14-.19.23-.04.09-.07.2-.07.31s.02.22.07.32c.05.1.12.18.21.25.09.07.2.12.32.17.12.04.26.06.41.06h2.09v.7h-3.64v-.68Z"/><path d="M10.54,59.02h.67c-.24-.11-.42-.26-.54-.45-.12-.18-.18-.4-.18-.63,0-.26.07-.48.2-.67.14-.19.33-.32.59-.41-.26-.11-.45-.27-.59-.46-.14-.2-.2-.43-.2-.7,0-.38.12-.67.37-.88.25-.21.61-.31,1.07-.31h2.25v.7h-2.16c-.29,0-.52.07-.69.2-.17.13-.25.31-.25.54,0,.12.02.22.07.32.05.1.11.18.2.26.09.07.19.13.32.16.12.04.26.06.4.06h2.11v.7h-2.16c-.14,0-.27.02-.38.06-.12.04-.22.09-.3.15-.08.06-.14.14-.19.23-.04.09-.07.2-.07.31s.02.22.07.32c.05.1.12.18.21.25.09.07.2.12.32.17.12.04.26.06.41.06h2.09v.7h-3.64v-.68Z"/></g><path d="M310.23,259.01h.17s0,1.05,0,1.05h-.17s0-1.05,0-1.05Z"/><path d="M311.27,259.7c0,.21-.17.37-.38.37s-.38-.17-.38-.37c0-.21.17-.37.38-.37s.38.17.38.37ZM310.67,259.7c0,.12.1.22.22.22s.22-.1.22-.22-.1-.22-.22-.22-.22.1-.22.22Z"/><path d="M312.07,259.7s0,.03,0,.04h-.56c.01.11.1.19.23.19.09,0,.16-.04.19-.1l.14.06c-.05.13-.17.2-.33.2-.23,0-.4-.15-.4-.37s.16-.37.37-.37.37.16.37.37ZM311.88,259.61c-.02-.08-.09-.13-.18-.13s-.16.05-.19.13h.37Z"/><path d="M312.34,259.34v.03s0,.03.03.03c.01,0,.03,0,.04-.02.04-.03.08-.05.14-.05.07,0,.12.02.16.07.02.02.03.03.05.03.02,0,.03,0,.05-.03.05-.05.1-.07.17-.07.15,0,.24.11.24.29v.45s-.17,0-.17,0v-.43c0-.1-.05-.17-.13-.17-.08,0-.14.07-.14.18v.42s-.17,0-.17,0v-.43c0-.1-.05-.17-.13-.17s-.14.07-.14.18v.41s-.17,0-.17,0v-.72s.16,0,.16,0Z"/><path d="M313.96,259.62v.45s-.16,0-.16,0v-.05s0-.03-.03-.03c-.02,0-.03,0-.05.03-.05.05-.1.07-.17.07-.14,0-.23-.08-.23-.2s.1-.21.27-.24l.19-.03c0-.08-.07-.13-.17-.13-.08,0-.14.03-.16.1l-.15-.05c.04-.13.15-.2.31-.2.19,0,.33.12.33.29ZM313.64,259.77c-.1.02-.14.05-.14.1s.04.08.11.08c.11,0,.18-.08.19-.21l-.16.03Z"/><path d="M310.14,259.02h-.72v1.05h.17v-.66s.06-.07.09-.04l.28.28.11-.11-.28-.28s0-.09.04-.09h.31v-.16Z"/><path d="M314.53,259.86c0,.12-.1.22-.23.22s-.23-.1-.23-.22.1-.22.23-.22.23.1.23.22ZM314.13,259.86c0,.1.08.18.18.18s.18-.08.18-.18-.08-.18-.18-.18-.18.08-.18.18ZM314.36,259.88s-.01,0-.01.02c0,0,0,.01,0,.02l.05.07h-.06s-.06-.09-.06-.09v.09s-.05,0-.05,0v-.23s.09,0,.09,0c.05,0,.08.03.08.07,0,.03-.02.05-.05.06Z"/><path d="M313.03,260.37s0,.01,0,.02c0,0,0,0,0,.01,0,0,0,0,0,.01,0,0,0,0,0,0,0,0,0,0-.01,0,0,0,0,0-.01,0,0,0,0,0-.01,0,0,0,0,0,0-.01,0,0,0,0,0-.01,0,0,0-.02,0-.02s.01,0,.02,0,.02,0,.02,0Z"/><path d="M313.26,260.27s0-.01,0-.02c0,0,0-.01-.02-.01,0,0-.01,0-.02,0,0,0-.01,0-.02,0-.01,0-.02,0-.03,0,0,0-.02,0-.02.02,0,0-.01.02-.02.03,0,0,0,.02,0,.03,0,.01,0,.02,0,.03,0,0,0,.02.02.03,0,0,.02.01.02.02,0,0,.02,0,.03,0,.02,0,.03,0,.04-.01.01,0,.02-.02.03-.03h.04s-.02.05-.04.07-.04.02-.07.02c-.02,0-.03,0-.05,0-.02,0-.03-.01-.04-.03-.01-.01-.02-.02-.03-.04,0-.01,0-.03,0-.05s0-.03,0-.05.01-.03.03-.04c.01-.01.02-.02.04-.03.01,0,.03,0,.05,0,.01,0,.03,0,.04,0,.01,0,.02,0,.03.01,0,0,.02.01.02.02,0,0,.01.02.01.03h-.04Z"/><path d="M313.5,260.2s.03.01.04.03.02.02.03.04,0,.03,0,.05,0,.03,0,.05-.02.03-.03.04c-.01.01-.02.02-.04.03-.01,0-.03,0-.05,0s-.03,0-.05,0c-.01,0-.03-.01-.04-.03-.01-.01-.02-.02-.03-.04,0-.01,0-.03,0-.05s0-.03,0-.05c0-.01.02-.03.03-.04.01-.01.02-.02.04-.03.01,0,.03,0,.05,0s.03,0,.05,0ZM313.42,260.23s-.02,0-.02.02c0,0-.01.02-.02.03,0,0,0,.02,0,.03s0,.02,0,.03c0,0,0,.02.02.03,0,0,.02.01.02.02,0,0,.02,0,.03,0s.02,0,.03,0c0,0,.02,0,.03-.02s.01-.02.02-.03,0-.02,0-.03,0-.02,0-.03c0,0,0-.02-.02-.03s-.02-.01-.03-.02c0,0-.02,0-.03,0s-.02,0-.03,0Z"/><path d="M313.67,260.19h0s0,.02,0,.02,0,0,0,0c0,0,0,0,0,0,0,0,0,0,0,0s0,0,0,0,0,0,0,0c0,0,.01,0,.02-.01,0,0,.02,0,.03,0,.01,0,.02,0,.03,0,0,0,.02,0,.02.02,0,0,0,0,0,0,0,0,0,0,0,0,0,0,0,0,0,0,0,0,0,0,0,0,0,0,0,0,0,0s0,0,0,0c0,0,.02-.01.03-.02,0,0,.02,0,.03,0,.02,0,.04,0,.06.02.01.02.02.04.02.07v.15h-.05v-.14s0-.03-.01-.04c0-.01-.02-.02-.03-.02,0,0-.01,0-.02,0,0,0-.01,0-.02.01,0,0,0,.01-.01.02,0,0,0,.02,0,.03v.14h-.05v-.14s0-.02,0-.02c0,0,0-.01,0-.02,0,0,0,0-.01-.01s-.01,0-.02,0-.01,0-.02,0c0,0-.01,0-.02.01s0,.01-.01.02c0,0,0,.02,0,.03v.14h-.05v-.24h.04Z"/></g></g></svg>