<svg viewBox="0 0 531.26 288" xmlns="http://www.w3.org/2000/svg"><defs><style>.cls-1 {
        stroke-linecap: round;
        stroke-linejoin: round;
      }

      .cls-1, .cls-2, .cls-3 {
        fill: none;
      }

      .cls-1, .cls-3 {
        stroke: #12100b;
        stroke-width: .3px;
      }

      .cls-4 {
        fill: #12100b;
      }

      .cls-5 {
        fill: #fff;
      }

      .cls-2 {
        stroke: #000;
        stroke-miterlimit: 10;
        stroke-width: .28px;
      }

      .cls-3 {
        stroke-miterlimit: 1;
      }</style></defs><g id="bases"><rect height="358.35" width="589.11" y="-33.95" x="-25.44" class="cls-2"/></g><g id="Golf"><g id="Campo_de_Golf"><g id="tee_box_Metal"><g><path d="M147.08,158.75v41.29c0,.66-.54,1.2-1.2,1.2H41.94c-.66,0-1.2-.54-1.2-1.2v-41.29h-1.8v40.99c0,1.84,1.49,3.33,3.33,3.33h103.26c1.84,0,3.33-1.49,3.33-3.33v-40.99h-1.77Z" class="cls-1"/><path d="M42.39,158.79h102.96c.62,0,1.12.5,1.12,1.12v42.49c0,.34-.28.62-.62.62H41.89c-.34,0-.62-.28-.62-.62v-42.49c0-.62.5-1.12,1.12-1.12Z" class="cls-1"/></g><path d="M297.4,158.75v41.29c0,.66-.54,1.2-1.2,1.2h-103.94c-.66,0-1.2-.54-1.2-1.2v-41.29h-1.8v40.99c0,1.84,1.49,3.33,3.33,3.33h103.26c1.84,0,3.33-1.49,3.33-3.33v-40.99h-1.77Z" class="cls-1"/><path d="M192.71,158.79h102.96c.62,0,1.12.5,1.12,1.12v42.49c0,.34-.28.62-.62.62h-103.97c-.34,0-.62-.28-.62-.62v-42.49c0-.62.5-1.12,1.12-1.12Z" class="cls-1"/><g><g><g id="LINE"><line y2="280.17" x2="396.25" y1="280.17" x1="498.3" class="cls-1"/></g><g id="LINE-2"><line y2="177.39" x2="395.49" y1="279.28" x1="395.49" class="cls-1"/></g><path d="M392.38,280.83v-104.99h.01s1.75-.01,1.75-.01h.01v105h-.01s-1.75.01-1.75.01h-.01Z" class="cls-3"/><path d="M394.7,281.54h105.16v1.76h-.01s-105.15.01-105.15.01h-.01v-1.76h.01Z" class="cls-3"/><g id="LINE-3"><line y2="176.5" x2="498.42" y1="176.5" x1="396.37" class="cls-1"/></g><g id="LINE-4"><line y2="279.28" x2="499.31" y1="177.39" x1="499.31" class="cls-1"/></g><path d="M502.3,175.77v104.99h-.01s-1.75.01-1.75.01h-.01v-105h.01s1.75-.01,1.75-.01h.01Z" class="cls-3"/><path d="M499.97,175.17h-105.16v-1.76h.01s105.15-.01,105.15-.01h.01v1.76h-.01Z" class="cls-3"/><path d="M500.52,175.74c-.08.07-.3.24-.36.38-.14.3-.3.6-.47.9-.05.08-.11.15-.37.26-.49,0-.89-.4-.89-.89,0-.07.02-.14.07-.2.04-.06.11-.12.19-.17.3-.17.6-.33.9-.47,0,0,.12-.04.36-.37" class="cls-1"/><path d="M394.83,175.11c0,.18.13.32.21.4.24.23.6.3.9.47.08.05.15.11.26.37,0,.49-.4.89-.89.89-.07,0-.14-.02-.2-.07-.06-.04-.12-.11-.17-.19-.17-.3-.34-.6-.47-.9,0,0-.14-.19-.45-.23" class="cls-1"/></g><path d="M499.87,281.58c0-.18-.13-.32-.21-.4-.24-.23-.6-.3-.9-.47-.08-.05-.15-.11-.26-.37,0-.49.4-.89.89-.89.07,0,.14.02.2.07.06.04.12.11.17.19.17.3.34.6.47.9,0,0,.14.19.45.23" class="cls-1"/><path d="M394,280.85c.18,0,.32-.13.4-.21.23-.24.3-.6.47-.9.05-.08.11-.15.37-.26.49,0,.89.4.89.89,0,.07-.02.14-.07.2-.04.06-.11.12-.19.17-.3.17-.6.33-.9.47,0,0-.19.14-.23.45" class="cls-1"/></g><g id="LINE-5"><g><line y2="140.29" x2="502.15" y1="140.29" x1="392.53" class="cls-3"/><rect height="1.95" width=".3" y="139.31" x="392.38" class="cls-4"/><rect height="1.95" width=".3" y="139.31" x="502" class="cls-4"/></g></g><g id="MTEXT"><g><path d="M436.81,130.3v5.29h-.72v-4.54l-1.3.64v-.73l1.36-.67h.67Z"/><path d="M439.99,130.36c.21.08.39.19.54.33.15.14.27.31.35.51.08.2.13.42.13.67,0,.14-.02.28-.05.42-.03.14-.08.28-.15.41-.07.14-.16.27-.27.42-.11.14-.24.29-.39.45l-1.31,1.35h2.29v.67h-3.32v-.59l1.79-1.85c.12-.12.22-.23.3-.33.08-.1.15-.21.2-.3.05-.1.09-.19.11-.29.02-.09.03-.19.03-.29,0-.15-.02-.28-.07-.4-.04-.12-.11-.23-.2-.32-.09-.09-.19-.16-.3-.21-.11-.05-.24-.07-.39-.07-.25,0-.47.08-.65.23-.18.15-.31.36-.39.63l-.67-.23c.12-.42.32-.74.62-.97s.66-.34,1.1-.34c.25,0,.48.04.69.12Z"/><path d="M444.78,130.3v.65h-1.92l-.25,1.54c.1-.09.22-.16.36-.21.14-.05.29-.07.46-.07.25,0,.47.04.68.13.21.08.38.2.53.35.15.15.27.33.35.54.08.21.12.44.12.69s-.04.48-.13.7c-.09.21-.21.4-.36.55-.16.15-.34.27-.56.36-.21.08-.45.13-.71.13-.2,0-.39-.03-.58-.08s-.35-.13-.5-.23c-.15-.1-.28-.22-.39-.36-.11-.14-.19-.3-.24-.48l.63-.31c.07.24.19.43.39.56.19.14.42.21.67.21.15,0,.29-.03.41-.08.13-.05.23-.12.33-.21.09-.09.16-.2.21-.33.05-.13.08-.27.08-.43s-.03-.3-.08-.44c-.05-.13-.13-.25-.22-.34s-.21-.17-.34-.22c-.13-.05-.28-.08-.44-.08-.18,0-.35.04-.49.1-.14.07-.26.17-.36.31l-.62-.15.47-2.79h2.52Z"/><path d="M448.71,131.95v.67c.11-.24.26-.42.45-.54.18-.12.4-.18.63-.18.26,0,.48.07.67.2.19.14.32.33.41.59.11-.26.27-.45.46-.59.2-.14.43-.2.7-.2.38,0,.67.12.88.37.21.25.31.61.31,1.07v2.25h-.7v-2.16c0-.29-.07-.52-.2-.69-.13-.17-.31-.25-.54-.25-.12,0-.22.02-.32.07-.1.05-.18.11-.26.2-.07.09-.13.19-.16.32-.04.12-.06.26-.06.4v2.11h-.7v-2.16c0-.14-.02-.27-.06-.38-.04-.12-.09-.22-.15-.3-.06-.08-.14-.14-.23-.19-.09-.04-.2-.07-.31-.07s-.22.02-.32.07c-.1.05-.18.12-.25.21-.07.09-.12.2-.17.32-.04.12-.06.26-.06.41v2.09h-.7v-3.64h.68Z"/><path d="M454.9,131.95v.67c.11-.24.26-.42.45-.54.18-.12.4-.18.63-.18.26,0,.48.07.67.2.19.14.32.33.41.59.11-.26.27-.45.46-.59.2-.14.43-.2.7-.2.38,0,.67.12.88.37.21.25.31.61.31,1.07v2.25h-.7v-2.16c0-.29-.07-.52-.2-.69-.13-.17-.31-.25-.54-.25-.12,0-.22.02-.32.07-.1.05-.18.11-.26.2-.07.09-.13.19-.16.32-.04.12-.06.26-.06.4v2.11h-.7v-2.16c0-.14-.02-.27-.06-.38-.04-.12-.09-.22-.15-.3-.06-.08-.14-.14-.23-.19-.09-.04-.2-.07-.31-.07s-.22.02-.32.07c-.1.05-.18.12-.25.21-.07.09-.12.2-.17.32-.04.12-.06.26-.06.41v2.09h-.7v-3.64h.68Z"/></g></g><g id="LINE-6"><g><line y2="173.55" x2="359.57" y1="283.17" x1="359.57" class="cls-3"/><rect height=".3" width="1.95" y="283.02" x="358.6" class="cls-4"/><rect height=".3" width="1.95" y="173.4" x="358.6" class="cls-4"/></g></g><g id="MTEXT-2"><g><path d="M349.59,238.89h5.29v.72h-4.54l.64,1.3h-.73l-.67-1.36v-.67Z"/><path d="M349.65,235.71c.08-.21.19-.39.33-.54.14-.15.31-.27.51-.35.2-.08.42-.13.67-.13.14,0,.28.02.42.05.14.03.28.08.41.15.14.07.27.16.42.27.14.11.29.24.45.39l1.35,1.31v-2.29h.67v3.32h-.59l-1.85-1.79c-.12-.12-.23-.22-.33-.3-.1-.08-.21-.15-.3-.2-.1-.05-.19-.09-.29-.11-.09-.02-.19-.03-.29-.03-.15,0-.28.02-.4.07-.12.04-.23.11-.32.2-.09.09-.16.19-.21.3-.05.11-.07.24-.07.39,0,.25.08.47.23.65.15.18.36.31.63.39l-.23.67c-.42-.12-.74-.32-.97-.62s-.34-.66-.34-1.1c0-.25.04-.48.12-.69Z"/><path d="M349.59,230.92h.65v1.92l1.54.25c-.09-.1-.16-.22-.21-.36-.05-.14-.07-.29-.07-.46,0-.25.04-.47.13-.68.08-.21.2-.38.35-.53.15-.15.33-.27.54-.35.21-.08.44-.12.69-.12s.48.04.7.13c.21.09.4.21.55.36.15.16.27.34.36.56.08.21.13.45.13.71,0,.2-.03.39-.08.58s-.13.35-.23.5c-.1.15-.22.28-.36.39-.14.11-.3.19-.48.24l-.31-.63c.24-.07.43-.19.56-.39.14-.19.21-.42.21-.67,0-.15-.03-.29-.08-.41-.05-.13-.12-.23-.21-.33-.09-.09-.2-.16-.33-.21-.13-.05-.27-.08-.43-.08s-.3.03-.44.08c-.13.05-.25.13-.34.22s-.17.21-.22.34c-.05.13-.08.28-.08.44,0,.18.04.35.1.49.07.14.17.26.31.36l-.15.62-2.79-.47v-2.52Z"/><path d="M351.23,226.98h.67c-.24-.11-.42-.26-.54-.45-.12-.18-.18-.4-.18-.63,0-.26.07-.48.2-.67.14-.19.33-.32.59-.41-.26-.11-.45-.27-.59-.46-.14-.2-.2-.43-.2-.7,0-.38.12-.67.37-.88.25-.21.61-.31,1.07-.31h2.25v.7h-2.16c-.29,0-.52.07-.69.2-.17.13-.25.31-.25.54,0,.12.02.22.07.32.05.1.11.18.2.26.09.07.19.13.32.16.12.04.26.06.4.06h2.11v.7h-2.16c-.14,0-.27.02-.38.06-.12.04-.22.09-.3.15-.08.06-.14.14-.19.23-.04.09-.07.2-.07.31s.02.22.07.32c.05.1.12.18.21.25.09.07.2.12.32.17.12.04.26.06.41.06h2.09v.7h-3.64v-.68Z"/><path d="M351.23,220.8h.67c-.24-.11-.42-.26-.54-.45-.12-.18-.18-.4-.18-.63,0-.26.07-.48.2-.67.14-.19.33-.32.59-.41-.26-.11-.45-.27-.59-.46-.14-.2-.2-.43-.2-.7,0-.38.12-.67.37-.88.25-.21.61-.31,1.07-.31h2.25v.7h-2.16c-.29,0-.52.07-.69.2-.17.13-.25.31-.25.54,0,.12.02.22.07.32.05.1.11.18.2.26.09.07.19.13.32.16.12.04.26.06.4.06h2.11v.7h-2.16c-.14,0-.27.02-.38.06-.12.04-.22.09-.3.15-.08.06-.14.14-.19.23-.04.09-.07.2-.07.31s.02.22.07.32c.05.1.12.18.21.25.09.07.2.12.32.17.12.04.26.06.41.06h2.09v.7h-3.64v-.68Z"/></g></g><g id="LINE-7"><g><line y2="160.52" x2="16.81" y1="204.84" x1="16.81" class="cls-5"/><g><line y2="160.67" x2="16.81" y1="204.69" x1="16.81" class="cls-1"/><rect height=".3" width="1.95" y="204.54" x="15.84" class="cls-4"/><rect height=".3" width="1.95" y="160.52" x="15.84" class="cls-4"/></g></g></g><g id="MTEXT-3"><g><path d="M6.83,190.85h.65v1.92l1.54.25c-.09-.1-.16-.22-.21-.36-.05-.14-.07-.29-.07-.46,0-.25.04-.47.13-.68.08-.21.2-.38.35-.53.15-.15.33-.27.54-.35.21-.08.44-.12.69-.12s.48.04.7.13c.21.09.4.21.55.36.15.16.27.34.36.56.08.21.13.45.13.71,0,.2-.03.39-.08.58s-.13.35-.23.5c-.1.15-.22.28-.36.39-.14.11-.3.19-.48.24l-.31-.63c.24-.07.43-.19.56-.39.14-.19.21-.42.21-.67,0-.15-.03-.29-.08-.41-.05-.13-.12-.23-.21-.33-.09-.09-.2-.16-.33-.21-.13-.05-.27-.08-.43-.08s-.3.03-.44.08c-.13.05-.25.13-.34.22s-.17.21-.22.34c-.05.13-.08.28-.08.44,0,.18.04.35.1.49.07.14.17.26.31.36l-.15.62-2.79-.47v-2.52Z"/><path d="M6.97,187.11c.13-.25.32-.47.55-.65.23-.18.52-.32.85-.42.33-.1.69-.15,1.08-.15s.76.05,1.1.15.62.24.86.42c.24.18.43.4.56.65.13.25.2.52.2.83s-.07.57-.2.82-.32.47-.56.65c-.24.18-.53.32-.86.42-.33.1-.7.15-1.1.15s-.75-.05-1.08-.15c-.33-.1-.61-.24-.85-.42-.24-.18-.42-.4-.55-.65-.13-.25-.2-.53-.2-.83s.07-.58.2-.83ZM7.6,188.47c.1.16.23.29.41.41.18.11.38.2.63.27.24.07.51.1.81.1s.57-.03.82-.09c.25-.06.46-.15.64-.27.18-.12.32-.25.42-.41.1-.16.15-.33.15-.52s-.05-.37-.15-.53c-.1-.16-.24-.3-.42-.41-.18-.11-.39-.2-.64-.27-.25-.06-.52-.09-.82-.09s-.56.03-.81.09c-.25.06-.46.15-.63.26-.17.11-.31.25-.41.41-.1.16-.15.34-.15.53s.05.37.15.52Z"/><path d="M8.47,182.29h.67c-.24-.11-.42-.26-.54-.45-.12-.18-.18-.4-.18-.63,0-.26.07-.48.2-.67.14-.19.33-.32.59-.41-.26-.11-.45-.27-.59-.46-.14-.2-.2-.43-.2-.7,0-.38.12-.67.37-.88.25-.21.61-.31,1.07-.31h2.25v.7h-2.16c-.29,0-.52.07-.69.2-.17.13-.25.31-.25.54,0,.12.02.22.07.32.05.1.11.18.2.26.09.07.19.13.32.16.12.04.26.06.4.06h2.11v.7h-2.16c-.14,0-.27.02-.38.06-.12.04-.22.09-.3.15-.08.06-.14.14-.19.23-.04.09-.07.2-.07.31s.02.22.07.32c.05.1.12.18.21.25.09.07.2.12.32.17.12.04.26.06.41.06h2.09v.7h-3.64v-.68Z"/><path d="M8.47,176.1h.67c-.24-.11-.42-.26-.54-.45-.12-.18-.18-.4-.18-.63,0-.26.07-.48.2-.67.14-.19.33-.32.59-.41-.26-.11-.45-.27-.59-.46-.14-.2-.2-.43-.2-.7,0-.38.12-.67.37-.88.25-.21.61-.31,1.07-.31h2.25v.7h-2.16c-.29,0-.52.07-.69.2-.17.13-.25.31-.25.54,0,.12.02.22.07.32.05.1.11.18.2.26.09.07.19.13.32.16.12.04.26.06.4.06h2.11v.7h-2.16c-.14,0-.27.02-.38.06-.12.04-.22.09-.3.15-.08.06-.14.14-.19.23-.04.09-.07.2-.07.31s.02.22.07.32c.05.1.12.18.21.25.09.07.2.12.32.17.12.04.26.06.41.06h2.09v.7h-3.64v-.68Z"/></g></g><polygon points="247.01 203.04 247.01 278.31 244.31 283.39 241.26 278.31 241.26 203.04 247.01 203.04" class="cls-1"/><polygon points="135.61 203.04 135.61 278.31 132.9 283.39 129.85 278.31 129.85 203.04 135.61 203.04" class="cls-1"/><polygon points="57.67 203.04 57.67 278.31 54.97 283.39 51.92 278.31 51.92 203.04 57.67 203.04" class="cls-1"/></g></g></g></svg>