<svg viewBox="0 0 531.27 288" xmlns:xlink="http://www.w3.org/1999/xlink" xmlns="http://www.w3.org/2000/svg" id="Camada_2"><defs><style>.cls-1,.cls-2,.cls-3,.cls-4{fill:none;}.cls-2{stroke:#1d1e1c;stroke-linecap:square;stroke-width:.3px;}.cls-3,.cls-4,.cls-5,.cls-6{stroke-width:.3px;}.cls-3,.cls-4,.cls-6{stroke-linecap:round;stroke-linejoin:round;}.cls-3,.cls-6{stroke:#12100b;}.cls-7{fill:url(#Remoção_de_águas_USGS_8);}.cls-4,.cls-5{stroke:#000;}.cls-8{fill:#12100b;}.cls-5{fill:#f1efea;stroke-miterlimit:10;}.cls-9{fill:url(#Remoção_de_águas_USGS_8-2);}.cls-6{fill:#fff;}</style><symbol viewBox="0 0 531.27 288" id="fundo_transparente"><rect height="288" width="531.27" x="0" class="cls-1"/></symbol><pattern viewBox="0 0 72 74.8" patternUnits="userSpaceOnUse" patternTransform="translate(-53.09 -12856.72) rotate(132.99) scale(1.74) skewX(-3.71)" height="74.8" width="72" y="0" x="0" id="Remoção_de_águas_USGS_8"><rect height="74.8" width="72" class="cls-1"/><line y2="73.95" x2="144" y1="73.95" x1="72" class="cls-2"/><line y2="72.25" x2="144" y1="72.25" x1="72" class="cls-2"/><line y2="70.55" x2="144" y1="70.55" x1="72" class="cls-2"/><line y2="68.85" x2="144" y1="68.85" x1="72" class="cls-2"/><line y2="67.15" x2="144" y1="67.15" x1="72" class="cls-2"/><line y2="65.45" x2="144" y1="65.45" x1="72" class="cls-2"/><line y2="63.75" x2="144" y1="63.75" x1="72" class="cls-2"/><line y2="62.05" x2="144" y1="62.05" x1="72" class="cls-2"/><line y2="60.35" x2="144" y1="60.35" x1="72" class="cls-2"/><line y2="58.65" x2="144" y1="58.65" x1="72" class="cls-2"/><line y2="56.95" x2="144" y1="56.95" x1="72" class="cls-2"/><line y2="55.25" x2="144" y1="55.25" x1="72" class="cls-2"/><line y2="53.55" x2="144" y1="53.55" x1="72" class="cls-2"/><line y2="51.85" x2="144" y1="51.85" x1="72" class="cls-2"/><line y2="50.15" x2="144" y1="50.15" x1="72" class="cls-2"/><line y2="48.45" x2="144" y1="48.45" x1="72" class="cls-2"/><line y2="46.75" x2="144" y1="46.75" x1="72" class="cls-2"/><line y2="45.05" x2="144" y1="45.05" x1="72" class="cls-2"/><line y2="43.35" x2="144" y1="43.35" x1="72" class="cls-2"/><line y2="41.65" x2="144" y1="41.65" x1="72" class="cls-2"/><line y2="39.95" x2="144" y1="39.95" x1="72" class="cls-2"/><line y2="38.25" x2="144" y1="38.25" x1="72" class="cls-2"/><line y2="36.55" x2="144" y1="36.55" x1="72" class="cls-2"/><line y2="34.85" x2="144" y1="34.85" x1="72" class="cls-2"/><line y2="33.15" x2="144" y1="33.15" x1="72" class="cls-2"/><line y2="31.45" x2="144" y1="31.45" x1="72" class="cls-2"/><line y2="29.75" x2="144" y1="29.75" x1="72" class="cls-2"/><line y2="28.05" x2="144" y1="28.05" x1="72" class="cls-2"/><line y2="26.35" x2="144" y1="26.35" x1="72" class="cls-2"/><line y2="24.65" x2="144" y1="24.65" x1="72" class="cls-2"/><line y2="22.95" x2="144" y1="22.95" x1="72" class="cls-2"/><line y2="21.25" x2="144" y1="21.25" x1="72" class="cls-2"/><line y2="19.55" x2="144" y1="19.55" x1="72" class="cls-2"/><line y2="17.85" x2="144" y1="17.85" x1="72" class="cls-2"/><line y2="16.15" x2="144" y1="16.15" x1="72" class="cls-2"/><line y2="14.45" x2="144" y1="14.45" x1="72" class="cls-2"/><line y2="12.75" x2="144" y1="12.75" x1="72" class="cls-2"/><line y2="11.05" x2="144" y1="11.05" x1="72" class="cls-2"/><line y2="9.35" x2="144" y1="9.35" x1="72" class="cls-2"/><line y2="7.65" x2="144" y1="7.65" x1="72" class="cls-2"/><line y2="5.95" x2="144" y1="5.95" x1="72" class="cls-2"/><line y2="4.25" x2="144" y1="4.25" x1="72" class="cls-2"/><line y2="2.55" x2="144" y1="2.55" x1="72" class="cls-2"/><line y2=".85" x2="144" y1=".85" x1="72" class="cls-2"/><line y2="73.95" x2="72" y1="73.95" class="cls-2"/><line y2="72.25" x2="72" y1="72.25" class="cls-2"/><line y2="70.55" x2="72" y1="70.55" class="cls-2"/><line y2="68.85" x2="72" y1="68.85" class="cls-2"/><line y2="67.15" x2="72" y1="67.15" class="cls-2"/><line y2="65.45" x2="72" y1="65.45" class="cls-2"/><line y2="63.75" x2="72" y1="63.75" class="cls-2"/><line y2="62.05" x2="72" y1="62.05" class="cls-2"/><line y2="60.35" x2="72" y1="60.35" class="cls-2"/><line y2="58.65" x2="72" y1="58.65" class="cls-2"/><line y2="56.95" x2="72" y1="56.95" class="cls-2"/><line y2="55.25" x2="72" y1="55.25" class="cls-2"/><line y2="53.55" x2="72" y1="53.55" class="cls-2"/><line y2="51.85" x2="72" y1="51.85" class="cls-2"/><line y2="50.15" x2="72" y1="50.15" class="cls-2"/><line y2="48.45" x2="72" y1="48.45" class="cls-2"/><line y2="46.75" x2="72" y1="46.75" class="cls-2"/><line y2="45.05" x2="72" y1="45.05" class="cls-2"/><line y2="43.35" x2="72" y1="43.35" class="cls-2"/><line y2="41.65" x2="72" y1="41.65" class="cls-2"/><line y2="39.95" x2="72" y1="39.95" class="cls-2"/><line y2="38.25" x2="72" y1="38.25" class="cls-2"/><line y2="36.55" x2="72" y1="36.55" class="cls-2"/><line y2="34.85" x2="72" y1="34.85" class="cls-2"/><line y2="33.15" x2="72" y1="33.15" class="cls-2"/><line y2="31.45" x2="72" y1="31.45" class="cls-2"/><line y2="29.75" x2="72" y1="29.75" class="cls-2"/><line y2="28.05" x2="72" y1="28.05" class="cls-2"/><line y2="26.35" x2="72" y1="26.35" class="cls-2"/><line y2="24.65" x2="72" y1="24.65" class="cls-2"/><line y2="22.95" x2="72" y1="22.95" class="cls-2"/><line y2="21.25" x2="72" y1="21.25" class="cls-2"/><line y2="19.55" x2="72" y1="19.55" class="cls-2"/><line y2="17.85" x2="72" y1="17.85" class="cls-2"/><line y2="16.15" x2="72" y1="16.15" class="cls-2"/><line y2="14.45" x2="72" y1="14.45" class="cls-2"/><line y2="12.75" x2="72" y1="12.75" class="cls-2"/><line y2="11.05" x2="72" y1="11.05" class="cls-2"/><line y2="9.35" x2="72" y1="9.35" class="cls-2"/><line y2="7.65" x2="72" y1="7.65" class="cls-2"/><line y2="5.95" x2="72" y1="5.95" class="cls-2"/><line y2="4.25" x2="72" y1="4.25" class="cls-2"/><line y2="2.55" x2="72" y1="2.55" class="cls-2"/><line y2=".85" x2="72" y1=".85" class="cls-2"/><line y2="73.95" y1="73.95" x1="-72" class="cls-2"/><line y2="72.25" y1="72.25" x1="-72" class="cls-2"/><line y2="70.55" y1="70.55" x1="-72" class="cls-2"/><line y2="68.85" y1="68.85" x1="-72" class="cls-2"/><line y2="67.15" y1="67.15" x1="-72" class="cls-2"/><line y2="65.45" y1="65.45" x1="-72" class="cls-2"/><line y2="63.75" y1="63.75" x1="-72" class="cls-2"/><line y2="62.05" y1="62.05" x1="-72" class="cls-2"/><line y2="60.35" y1="60.35" x1="-72" class="cls-2"/><line y2="58.65" y1="58.65" x1="-72" class="cls-2"/><line y2="56.95" y1="56.95" x1="-72" class="cls-2"/><line y2="55.25" y1="55.25" x1="-72" class="cls-2"/><line y2="53.55" y1="53.55" x1="-72" class="cls-2"/><line y2="51.85" y1="51.85" x1="-72" class="cls-2"/><line y2="50.15" y1="50.15" x1="-72" class="cls-2"/><line y2="48.45" y1="48.45" x1="-72" class="cls-2"/><line y2="46.75" y1="46.75" x1="-72" class="cls-2"/><line y2="45.05" y1="45.05" x1="-72" class="cls-2"/><line y2="43.35" y1="43.35" x1="-72" class="cls-2"/><line y2="41.65" y1="41.65" x1="-72" class="cls-2"/><line y2="39.95" y1="39.95" x1="-72" class="cls-2"/><line y2="38.25" y1="38.25" x1="-72" class="cls-2"/><line y2="36.55" y1="36.55" x1="-72" class="cls-2"/><line y2="34.85" y1="34.85" x1="-72" class="cls-2"/><line y2="33.15" y1="33.15" x1="-72" class="cls-2"/><line y2="31.45" y1="31.45" x1="-72" class="cls-2"/><line y2="29.75" y1="29.75" x1="-72" class="cls-2"/><line y2="28.05" y1="28.05" x1="-72" class="cls-2"/><line y2="26.35" y1="26.35" x1="-72" class="cls-2"/><line y2="24.65" y1="24.65" x1="-72" class="cls-2"/><line y2="22.95" y1="22.95" x1="-72" class="cls-2"/><line y2="21.25" y1="21.25" x1="-72" class="cls-2"/><line y2="19.55" y1="19.55" x1="-72" class="cls-2"/><line y2="17.85" y1="17.85" x1="-72" class="cls-2"/><line y2="16.15" y1="16.15" x1="-72" class="cls-2"/><line y2="14.45" y1="14.45" x1="-72" class="cls-2"/><line y2="12.75" y1="12.75" x1="-72" class="cls-2"/><line y2="11.05" y1="11.05" x1="-72" class="cls-2"/><line y2="9.35" y1="9.35" x1="-72" class="cls-2"/><line y2="7.65" y1="7.65" x1="-72" class="cls-2"/><line y2="5.95" y1="5.95" x1="-72" class="cls-2"/><line y2="4.25" y1="4.25" x1="-72" class="cls-2"/><line y2="2.55" y1="2.55" x1="-72" class="cls-2"/><line y2=".85" y1=".85" x1="-72" class="cls-2"/></pattern><pattern xlink:href="#Remoção_de_águas_USGS_8" patternTransform="translate(-5400.35 -14.65) rotate(34.29) scale(1.8 1.68) skewX(-19.79)" id="Remoção_de_águas_USGS_8-2"/></defs><g id="Golf"><g id="Campo_de_Golf"><g id="tee_box_Royal"><use xlink:href="#fundo_transparente" height="288" width="531.27"/><g id="LINE"><line y2="237.19" x2="18.02" y1="184.58" x1="18.02" class="cls-3"/><rect height=".3" width="1.95" y="184.43" x="17.05" class="cls-8"/><rect height=".3" width="1.95" y="237.04" x="17.05" class="cls-8"/></g><g id="MTEXT"><path d="M8.81,221.92h5.29v.72h-4.54l.64,1.3h-.73l-.67-1.36v-.67Z"/><path d="M8.95,218.21c.13-.25.32-.47.55-.65.23-.18.52-.32.85-.42.33-.1.69-.15,1.08-.15s.76.05,1.1.15.62.24.86.42c.24.18.43.4.56.65.13.25.2.52.2.83s-.07.57-.2.82-.32.47-.56.65c-.24.18-.53.32-.86.42-.33.1-.7.15-1.1.15s-.75-.05-1.08-.15c-.33-.1-.61-.24-.85-.42-.24-.18-.42-.4-.55-.65-.13-.25-.2-.53-.2-.83s.07-.58.2-.83ZM9.59,219.56c.1.16.23.29.41.41.18.11.38.2.63.27.24.07.51.1.81.1s.57-.03.82-.09c.25-.06.46-.15.64-.27.18-.12.32-.25.42-.41.1-.16.15-.33.15-.52s-.05-.37-.15-.53c-.1-.16-.24-.3-.42-.41-.18-.11-.39-.2-.64-.27-.25-.06-.52-.09-.82-.09s-.56.03-.81.09c-.25.06-.46.15-.63.26-.17.11-.31.25-.41.41-.1.16-.15.34-.15.53s.05.37.15.52Z"/><path d="M8.95,213.58c.13-.25.32-.47.55-.65.23-.18.52-.32.85-.42.33-.1.69-.15,1.08-.15s.76.05,1.1.15.62.24.86.42c.24.18.43.4.56.65.13.25.2.52.2.83s-.07.57-.2.82-.32.47-.56.65c-.24.18-.53.32-.86.42-.33.1-.7.15-1.1.15s-.75-.05-1.08-.15c-.33-.1-.61-.24-.85-.42-.24-.18-.42-.4-.55-.65-.13-.25-.2-.53-.2-.83s.07-.58.2-.83ZM9.59,214.93c.1.16.23.29.41.41.18.11.38.2.63.27.24.07.51.1.81.1s.57-.03.82-.09c.25-.06.46-.15.64-.27.18-.12.32-.25.42-.41.1-.16.15-.33.15-.52s-.05-.37-.15-.53c-.1-.16-.24-.3-.42-.41-.18-.11-.39-.2-.64-.27-.25-.06-.52-.09-.82-.09s-.56.03-.81.09c-.25.06-.46.15-.63.26-.17.11-.31.25-.41.41-.1.16-.15.34-.15.53s.05.37.15.52Z"/><path d="M10.45,208.75h.67c-.24-.11-.42-.26-.54-.45-.12-.18-.18-.4-.18-.63,0-.26.07-.48.2-.67.14-.19.33-.32.59-.41-.26-.11-.45-.27-.59-.46-.14-.2-.2-.43-.2-.7,0-.38.12-.67.37-.88.25-.21.61-.31,1.07-.31h2.25v.7h-2.16c-.29,0-.52.07-.69.2-.17.13-.25.31-.25.54,0,.12.02.22.07.32.05.1.11.18.2.26.09.07.19.13.32.16.12.04.26.06.4.06h2.11v.7h-2.16c-.14,0-.27.02-.38.06-.12.04-.22.09-.3.15-.08.06-.14.14-.19.23-.04.09-.07.2-.07.31s.02.22.07.32c.05.1.12.18.21.25.09.07.2.12.32.17.12.04.26.06.41.06h2.09v.7h-3.64v-.68Z"/><path d="M10.45,202.56h.67c-.24-.11-.42-.26-.54-.45-.12-.18-.18-.4-.18-.63,0-.26.07-.48.2-.67.14-.19.33-.32.59-.41-.26-.11-.45-.27-.59-.46-.14-.2-.2-.43-.2-.7,0-.38.12-.67.37-.88.25-.21.61-.31,1.07-.31h2.25v.7h-2.16c-.29,0-.52.07-.69.2-.17.13-.25.31-.25.54,0,.12.02.22.07.32.05.1.11.18.2.26.09.07.19.13.32.16.12.04.26.06.4.06h2.11v.7h-2.16c-.14,0-.27.02-.38.06-.12.04-.22.09-.3.15-.08.06-.14.14-.19.23-.04.09-.07.2-.07.31s.02.22.07.32c.05.1.12.18.21.25.09.07.2.12.32.17.12.04.26.06.41.06h2.09v.7h-3.64v-.68Z"/></g><polygon points="159.8 237.09 159.8 281.38 158.31 284.37 156.62 281.38 156.62 237.09 159.8 237.09" class="cls-3"/><polygon points="214.87 237.23 214.87 281.39 213.37 284.37 211.69 281.39 211.69 237.23 214.87 237.23" class="cls-3"/><polygon points="299.61 237.23 299.61 281.39 298.11 284.37 296.43 281.39 296.43 237.23 299.61 237.23" class="cls-3"/><rect height="52.91" width="10.58" y="184.18" x="152.97" class="cls-3"/><polygon points="38.09 237.09 38.09 281.38 36.61 284.37 34.92 281.38 34.92 237.09 38.09 237.09" class="cls-3"/><rect height="52.91" width="10.58" y="184.18" x="31.27" class="cls-3"/><path d="M31.27,184.18v47.62h10.69c2.04,0,4.02-.74,5.56-2.08l2.52-2.19c1.54-1.34,3.52-2.08,5.56-2.08h83.61c2.04,0,4.02.74,5.56,2.08l2.52,2.19c1.54,1.34,3.52,2.08,5.56,2.08h10.69v-47.62H31.27Z" class="cls-5"/><rect height="52.82" width="95.19" y="184.4" x="208.14" class="cls-3"/><rect height="47.78" width="4.23" y="184.18" x="203.91" class="cls-3"/><rect height="47.78" width="4.23" y="184.18" x="303.39" class="cls-3"/><g id="LINE-2"><line y2="158.9" x2="366.8" y1="158.9" x1="498.77" class="cls-3"/><rect height="1.95" width=".3" y="157.93" x="498.62" class="cls-8"/><rect height="1.95" width=".3" y="157.93" x="366.65" class="cls-8"/></g><g id="MTEXT-2"><path d="M421.84,149.76c.21.08.39.19.54.33.15.14.27.31.35.51.08.2.13.42.13.67,0,.14-.02.28-.05.42-.03.14-.08.28-.15.41-.07.14-.16.27-.27.42-.11.14-.24.29-.39.45l-1.31,1.35h2.29v.67h-3.32v-.59l1.79-1.85c.12-.12.22-.23.3-.33.08-.1.15-.21.2-.3.05-.1.09-.19.11-.29.02-.09.03-.19.03-.29,0-.15-.02-.28-.07-.4-.04-.12-.11-.23-.2-.32-.09-.09-.19-.16-.3-.21-.11-.05-.24-.07-.39-.07-.25,0-.47.08-.65.23-.18.15-.31.36-.39.63l-.67-.23c.12-.42.32-.74.62-.97s.66-.34,1.1-.34c.25,0,.48.04.69.12Z"/><path d="M426.63,149.69v.65h-1.92l-.25,1.54c.1-.09.22-.16.36-.21.14-.05.29-.07.46-.07.25,0,.47.04.68.13.21.08.38.2.53.35.15.15.27.33.35.54.08.21.12.44.12.69s-.04.48-.13.7c-.09.21-.21.4-.36.55-.16.15-.34.27-.56.36-.21.08-.45.13-.71.13-.2,0-.39-.03-.58-.08s-.35-.13-.5-.23c-.15-.1-.28-.22-.39-.36-.11-.14-.19-.3-.24-.48l.63-.31c.07.24.19.43.39.56.19.14.42.21.67.21.15,0,.29-.03.41-.08.13-.05.23-.12.33-.21.09-.09.16-.2.21-.33.05-.13.08-.27.08-.43s-.03-.3-.08-.44c-.05-.13-.13-.25-.22-.34s-.21-.17-.34-.22c-.13-.05-.28-.08-.44-.08-.18,0-.35.04-.49.1-.14.07-.26.17-.36.31l-.62-.15.47-2.79h2.52Z"/><path d="M430.37,149.84c.25.13.47.32.65.55.18.23.32.52.42.85.1.33.15.69.15,1.08s-.05.76-.15,1.1-.24.62-.42.86c-.18.24-.4.43-.65.56-.25.13-.52.2-.83.2s-.57-.07-.82-.2-.47-.32-.65-.56c-.18-.24-.32-.53-.42-.86-.1-.33-.15-.7-.15-1.1s.05-.75.15-1.08c.1-.33.24-.61.42-.85.18-.24.4-.42.65-.55.25-.13.53-.2.83-.2s.58.07.83.2ZM429.01,150.47c-.16.1-.29.23-.41.41-.11.18-.2.38-.27.63-.07.24-.1.51-.1.81s.03.57.09.82c.06.25.15.46.27.64.12.18.25.32.41.42.16.1.33.15.52.15s.37-.05.53-.15c.16-.1.3-.24.41-.42.11-.18.2-.39.27-.64.06-.25.09-.52.09-.82s-.03-.56-.09-.81c-.06-.25-.15-.46-.26-.63-.11-.17-.25-.31-.41-.41-.16-.1-.34-.15-.53-.15s-.37.05-.52.15Z"/><path d="M435.19,151.34v.67c.11-.24.26-.42.45-.54.18-.12.4-.18.63-.18.26,0,.48.07.67.2.19.14.32.33.41.59.11-.26.27-.45.46-.59.2-.14.43-.2.7-.2.38,0,.67.12.88.37.21.25.31.61.31,1.07v2.25h-.7v-2.16c0-.29-.07-.52-.2-.69-.13-.17-.31-.25-.54-.25-.12,0-.22.02-.32.07-.1.05-.18.11-.26.2-.07.09-.13.19-.16.32-.04.12-.06.26-.06.4v2.11h-.7v-2.16c0-.14-.02-.27-.06-.38-.04-.12-.09-.22-.15-.3-.06-.08-.14-.14-.23-.19-.09-.04-.2-.07-.31-.07s-.22.02-.32.07c-.1.05-.18.12-.25.21-.07.09-.12.2-.17.32-.04.12-.06.26-.06.41v2.09h-.7v-3.64h.68Z"/><path d="M441.38,151.34v.67c.11-.24.26-.42.45-.54.18-.12.4-.18.63-.18.26,0,.48.07.67.2.19.14.32.33.41.59.11-.26.27-.45.46-.59.2-.14.43-.2.7-.2.38,0,.67.12.88.37.21.25.31.61.31,1.07v2.25h-.7v-2.16c0-.29-.07-.52-.2-.69-.13-.17-.31-.25-.54-.25-.12,0-.22.02-.32.07-.1.05-.18.11-.26.2-.07.09-.13.19-.16.32-.04.12-.06.26-.06.4v2.11h-.7v-2.16c0-.14-.02-.27-.06-.38-.04-.12-.09-.22-.15-.3-.06-.08-.14-.14-.23-.19-.09-.04-.2-.07-.31-.07s-.22.02-.32.07c-.1.05-.18.12-.25.21-.07.09-.12.2-.17.32-.04.12-.06.26-.06.41v2.09h-.7v-3.64h.68Z"/></g><g id="LINE-3"><line y2="282.63" x2="344.43" y1="182.4" x1="344.43" class="cls-3"/><rect height=".3" width="1.95" y="182.25" x="343.46" class="cls-8"/><rect height=".3" width="1.95" y="282.48" x="343.46" class="cls-8"/></g><g id="MTEXT-3"><path d="M335.22,243.35h5.29v.72h-4.54l.64,1.3h-.73l-.67-1.36v-.67Z"/><path d="M335.34,239.98c.12-.24.29-.44.51-.61.22-.17.5-.3.82-.39.32-.09.69-.14,1.09-.14s.8.05,1.15.15c.35.1.64.24.89.43s.43.41.56.67c.13.26.2.55.2.88,0,.37-.09.7-.27.97-.18.27-.43.47-.76.59l-.29-.64c.21-.07.37-.18.48-.34.11-.16.17-.35.17-.56,0-.2-.05-.38-.14-.55-.09-.17-.23-.31-.4-.44-.17-.13-.37-.22-.61-.29-.24-.07-.49-.1-.77-.1h-.17c-.06,0-.1,0-.15,0,.25.08.45.23.59.45.14.22.21.48.21.79,0,.24-.04.46-.12.65-.08.2-.19.36-.34.5-.14.14-.32.25-.52.33-.2.08-.42.12-.66.12s-.47-.04-.68-.13c-.21-.08-.38-.2-.52-.35-.14-.15-.26-.32-.34-.53-.08-.21-.12-.43-.12-.68,0-.3.06-.57.18-.81ZM335.92,241.14c.05.12.12.22.21.3.09.08.19.15.31.2.12.05.26.07.41.07s.29-.02.41-.07c.12-.05.23-.12.32-.2.09-.09.16-.19.21-.31.05-.12.07-.25.07-.4s-.02-.27-.07-.39c-.05-.12-.12-.22-.2-.31-.09-.09-.19-.15-.31-.2-.12-.05-.25-.07-.4-.07s-.28.03-.41.08c-.13.05-.24.13-.34.21-.1.09-.17.2-.22.32s-.08.26-.08.4.03.26.08.38Z"/><path d="M335.37,235.41c.13-.25.32-.47.55-.65.23-.18.52-.32.85-.42.33-.1.69-.15,1.08-.15s.76.05,1.1.15.62.24.86.42c.24.18.43.4.56.65.13.25.2.52.2.83s-.07.57-.2.82-.32.47-.56.65c-.24.18-.53.32-.86.42-.33.1-.7.15-1.1.15s-.75-.05-1.08-.15c-.33-.1-.61-.24-.85-.42-.24-.18-.42-.4-.55-.65-.13-.25-.2-.53-.2-.83s.07-.58.2-.83ZM336,236.76c.1.16.23.29.41.41.18.11.38.2.63.27.24.07.51.1.81.1s.57-.03.82-.09c.25-.06.46-.15.64-.27.18-.12.32-.25.42-.41.1-.16.15-.33.15-.52s-.05-.37-.15-.53c-.1-.16-.24-.3-.42-.41-.18-.11-.39-.2-.64-.27-.25-.06-.52-.09-.82-.09s-.56.03-.81.09c-.25.06-.46.15-.63.26-.17.11-.31.25-.41.41-.1.16-.15.34-.15.53s.05.37.15.52Z"/><path d="M336.87,230.58h.67c-.24-.11-.42-.26-.54-.45-.12-.18-.18-.4-.18-.63,0-.26.07-.48.2-.67.14-.19.33-.32.59-.41-.26-.11-.45-.27-.59-.46-.14-.2-.2-.43-.2-.7,0-.38.12-.67.37-.88.25-.21.61-.31,1.07-.31h2.25v.7h-2.16c-.29,0-.52.07-.69.2-.17.13-.25.31-.25.54,0,.12.02.22.07.32.05.1.11.18.2.26.09.07.19.13.32.16.12.04.26.06.4.06h2.11v.7h-2.16c-.14,0-.27.02-.38.06-.12.04-.22.09-.3.15-.08.06-.14.14-.19.23-.04.09-.07.2-.07.31s.02.22.07.32c.05.1.12.18.21.25.09.07.2.12.32.17.12.04.26.06.41.06h2.09v.7h-3.64v-.68Z"/><path d="M336.87,224.4h.67c-.24-.11-.42-.26-.54-.45-.12-.18-.18-.4-.18-.63,0-.26.07-.48.2-.67.14-.19.33-.32.59-.41-.26-.11-.45-.27-.59-.46-.14-.2-.2-.43-.2-.7,0-.38.12-.67.37-.88.25-.21.61-.31,1.07-.31h2.25v.7h-2.16c-.29,0-.52.07-.69.2-.17.13-.25.31-.25.54,0,.12.02.22.07.32.05.1.11.18.2.26.09.07.19.13.32.16.12.04.26.06.4.06h2.11v.7h-2.16c-.14,0-.27.02-.38.06-.12.04-.22.09-.3.15-.08.06-.14.14-.19.23-.04.09-.07.2-.07.31s.02.22.07.32c.05.1.12.18.21.25.09.07.2.12.32.17.12.04.26.06.41.06h2.09v.7h-3.64v-.68Z"/></g><rect height="95.24" width="111.11" y="184.9" x="377.23" class="cls-7"/><polygon points="488.35 184.9 488.35 280.14 377.22 280.14 377.22 184.9 488.35 184.9" class="cls-9"/><rect height="95.24" width="10.58" y="184.9" x="488.34" class="cls-3"/><rect height="95.24" width="10.58" y="184.9" x="366.64" class="cls-3"/><rect transform="translate(150.53 715.04) rotate(-90)" height="132.28" width="4.23" y="216.12" x="430.67" class="cls-3"/><rect transform="translate(250 615.57) rotate(-90)" height="132.28" width="4.23" y="116.64" x="430.67" class="cls-3"/><circle r="2.65" cy="190.86" cx="36.6" class="cls-6"/><polygon points="37.07 190.04 36.13 190.04 35.65 190.86 36.13 191.68 37.07 191.68 37.55 190.86 37.07 190.04"/><circle r="2.65" cy="225.2" cx="36.6" class="cls-3"/><polygon points="37.07 224.38 36.13 224.38 35.65 225.2 36.13 226.02 37.07 226.02 37.55 225.2 37.07 224.38"/><circle r="2.65" cy="190.86" cx="158.3" class="cls-6"/><polygon points="158.77 190.04 157.83 190.04 157.35 190.86 157.83 191.68 158.77 191.68 159.25 190.86 158.77 190.04"/><circle r="2.65" cy="225.2" cx="158.3" class="cls-3"/><polygon points="158.77 224.38 157.83 224.38 157.35 225.2 157.83 226.02 158.77 226.02 159.25 225.2 158.77 224.38"/><g id="CIRCLE"><path d="M37.98,190.9c0,.77-.63,1.4-1.4,1.4s-1.4-.63-1.4-1.4.63-1.4,1.4-1.4,1.4.63,1.4,1.4Z" class="cls-4"/></g><g id="CIRCLE-2"><path d="M37.98,225.21c0,.77-.63,1.4-1.4,1.4s-1.4-.63-1.4-1.4.63-1.4,1.4-1.4,1.4.63,1.4,1.4Z" class="cls-4"/></g><g id="CIRCLE-3"><path d="M159.71,190.85c0,.77-.63,1.4-1.4,1.4s-1.4-.63-1.4-1.4.63-1.4,1.4-1.4,1.4.63,1.4,1.4Z" class="cls-4"/></g><g id="CIRCLE-4"><path d="M159.71,225.19c0,.77-.63,1.4-1.4,1.4s-1.4-.63-1.4-1.4.63-1.4,1.4-1.4,1.4.63,1.4,1.4Z" class="cls-4"/></g></g></g></g></svg>