<svg viewBox="0 0 531.26 288" xmlns="http://www.w3.org/2000/svg" id="Urban"><defs><style>.cls-1,.cls-2{stroke:#000;}.cls-1,.cls-2,.cls-3{stroke-width:.3px;}.cls-1,.cls-3{fill:none;stroke-linecap:round;stroke-linejoin:round;}.cls-2{fill:#f1efea;stroke-miterlimit:10;}.cls-4{fill:#12100a;}.cls-3{stroke:#12100a;}</style></defs><g id="Frame"><g id="banco_com_costas_1900"><g id="LINE-2"><line y2="202.65" x2="39.53" y1="202.65" x1="395.02" class="cls-1"/></g><g id="LINE-3"><path d="M395.02,200.77v1.88-1.88H39.53v1.88s0,84.75,0,84.75h16.84v-67.8h321.81s0,67.8,0,67.8h16.84v-84.75" class="cls-1"/></g><line y2="201.33" x2="395.02" y1="202.65" x1="395.02" class="cls-3"/><polyline points="395.02 200.77 395.02 200.78 395.02 200.81 395.02 200.86 395.02 200.93 395.02 201.02 395.02 201.12 395.02 201.22 395.02 201.33" class="cls-3"/><polyline points="39.53 201.33 39.53 201.22 39.53 201.12 39.53 201.02 39.53 200.93 39.53 200.86 39.53 200.81 39.53 200.78 39.53 200.77" class="cls-3"/><line y2="147.89" x2="39.53" y1="147.89" x1="395.02" class="cls-3"/><line y2="164.26" x2="39.53" y1="164.26" x1="395.02" class="cls-3"/><line y2="149.69" x2="39.53" y1="149.69" x1="395.02" class="cls-3"/><line y2="166.06" x2="39.53" y1="166.06" x1="395.02" class="cls-3"/><rect height="67.45" width="355.48" y="133.32" x="39.53" class="cls-3"/><rect height="18.2" width="322.61" y="182.57" x="56.26" class="cls-1"/><polyline points="395.02 202.65 39.53 202.65 39.53 201.33" class="cls-3"/><line y2="180.48" x2="39.53" y1="180.48" x1="395.02" class="cls-3"/><line y2="182.57" x2="39.53" y1="182.57" x1="395.02" class="cls-3"/><path d="M395.6,88.34v-1.86H40.09v1.86M225.05,95.85H40.09v1.99h184.96M395.6,114.98l-355.48.07v-7.57h355.49M225.05,105.35H40.09v20.86h355.51v-38.18M40.09,67.54v1.93h355.51v-1.93H40.09ZM40.09,48.61v1.93h355.51v-1.93H40.09ZM40.09,18.58v22.52h355.51v-22.52H40.09ZM40.09,58.04v1.99h355.51v-1.99H40.09ZM40.09,76.98v1.93h355.51v-1.93H40.09ZM145.73,105.35v2.13h67.04v-2.13h-67.04Z" class="cls-2"/><rect height="7.51" width="355.51" y="41.1" x="40.09" class="cls-2"/><rect height="4.46" width="355.5" y="34.13" x="40.09" class="cls-2"/><rect height="4.46" width="355.5" y="29.67" x="40.09" class="cls-2"/><rect height=".73" width="355.5" y="38.52" x="40.09" class="cls-2"/><rect height="7.51" width="355.51" y="50.54" x="40.09" class="cls-2"/><rect height="7.51" width="355.51" y="60.04" x="40.09" class="cls-2"/><rect height="7.51" width="355.51" y="69.47" x="40.09" class="cls-2"/><rect height="7.57" width="355.51" y="78.9" x="40.09" class="cls-2"/><polyline points="395.5 95.85 39.92 95.85 39.92 88.34 395.6 88.34" class="cls-2"/><line y2="88.34" x2="225.25" y1="88.34" x1="225.05" class="cls-2"/><line y2="95.85" x2="225.05" y1="95.85" x1="225.25" class="cls-2"/><polyline points="395.37 105.35 40.09 105.35 40.09 97.84 395.37 97.84" class="cls-2"/><line y2="97.84" x2="225.25" y1="97.84" x1="225.05" class="cls-2"/><line y2="105.35" x2="225.05" y1="105.35" x1="225.25" class="cls-2"/><line y2="107.47" x2="225.25" y1="107.47" x1="225.05" class="cls-2"/><rect height="7.53" width="355.5" y="116.79" x="40.09" class="cls-2"/><rect height="1.35" width="16.95" y="17.2" x="378.65" class="cls-2"/><rect height="1.35" width="16.95" y="17.2" x="40.09" class="cls-2"/><rect height="1.66" width="2.06" y="39.44" x="53.78" class="cls-2"/><rect height="1.93" width="2.06" y="48.61" x="53.78" class="cls-2"/><rect height="1.99" width="2.06" y="58.04" x="53.78" class="cls-2"/><rect height="1.93" width="2.06" y="67.54" x="53.78" class="cls-2"/><rect height="1.93" width="2.06" y="76.98" x="53.78" class="cls-2"/><rect height="1.86" width="2.06" y="86.48" x="53.78" class="cls-2"/><rect height="1.99" width="2.06" y="95.85" x="53.78" class="cls-2"/><rect height="2.13" width="2.06" y="105.35" x="53.78" class="cls-2"/><rect height="1.79" width="2.06" y="115.05" x="53.78" class="cls-2"/><line y2="39.44" x2="66.2" y1="41.1" x1="66.2" class="cls-2"/><line y2="58.04" x2="66.2" y1="60.04" x1="66.2" class="cls-2"/><line y2="76.98" x2="66.2" y1="78.9" x1="66.2" class="cls-2"/><line y2="95.85" x2="66.2" y1="97.84" x1="66.2" class="cls-2"/><polyline points="66.2 116.84 66.2 116.77 66.2 115.05" class="cls-2"/><line y2="105.35" x2="66.2" y1="107.47" x1="66.2" class="cls-2"/><line y2="86.48" x2="66.2" y1="88.34" x1="66.2" class="cls-2"/><line y2="67.54" x2="66.2" y1="69.47" x1="66.2" class="cls-2"/><line y2="48.61" x2="66.2" y1="50.54" x1="66.2" class="cls-2"/><rect height="1.66" width="2.06" y="39.44" x="133.3" class="cls-2"/><rect height="1.93" width="2.06" y="48.61" x="133.3" class="cls-2"/><rect height="1.99" width="2.06" y="58.04" x="133.3" class="cls-2"/><rect height="1.93" width="2.06" y="67.54" x="133.3" class="cls-2"/><rect height="1.93" width="2.06" y="76.98" x="133.3" class="cls-2"/><rect height="1.86" width="2.06" y="86.48" x="133.3" class="cls-2"/><rect height="1.99" width="2.06" y="95.85" x="133.3" class="cls-2"/><rect height="2.13" width="2.06" y="105.35" x="133.3" class="cls-2"/><rect height="1.66" width="2.06" y="115.05" x="133.3" class="cls-2"/><line y2="105.35" x2="145.73" y1="107.47" x1="145.73" class="cls-2"/><line y2="86.48" x2="145.73" y1="88.34" x1="145.73" class="cls-2"/><line y2="67.54" x2="145.73" y1="69.47" x1="145.73" class="cls-2"/><line y2="48.61" x2="145.73" y1="50.54" x1="145.73" class="cls-2"/><line y2="39.44" x2="145.73" y1="41.1" x1="145.73" class="cls-2"/><line y2="58.04" x2="145.73" y1="60.04" x1="145.73" class="cls-2"/><line y2="76.98" x2="145.73" y1="78.9" x1="145.73" class="cls-2"/><line y2="95.85" x2="145.73" y1="97.84" x1="145.73" class="cls-2"/><line y2="115.05" x2="145.73" y1="116.71" x1="145.73" class="cls-2"/><rect height="1.66" width="2.13" y="39.44" x="223.13" class="cls-2"/><rect height="1.93" width="2.13" y="48.61" x="223.13" class="cls-2"/><rect height="1.99" width="2.13" y="58.04" x="223.13" class="cls-2"/><rect height="1.93" width="2.13" y="67.54" x="223.13" class="cls-2"/><rect height="1.93" width="2.13" y="76.98" x="223.13" class="cls-2"/><rect height="1.85" width="2.13" y="86.5" x="223.13" class="cls-2"/><rect height="2.02" width="2.13" y="95.85" x="223.13" class="cls-2"/><rect height="2.14" width="2.13" y="105.34" x="223.14" class="cls-2"/><rect height="1.78" width="2.13" y="115" x="223.14" class="cls-2"/><line y2="105.35" x2="212.76" y1="107.47" x1="212.76" class="cls-2"/><line y2="86.48" x2="212.76" y1="88.34" x1="212.76" class="cls-2"/><line y2="67.54" x2="212.76" y1="69.47" x1="212.76" class="cls-2"/><line y2="48.61" x2="212.76" y1="50.54" x1="212.76" class="cls-2"/><line y2="39.44" x2="212.76" y1="41.1" x1="212.76" class="cls-2"/><line y2="58.04" x2="212.76" y1="60.04" x1="212.76" class="cls-2"/><line y2="76.98" x2="212.76" y1="78.9" x1="212.76" class="cls-2"/><line y2="95.85" x2="212.76" y1="97.84" x1="212.76" class="cls-2"/><polyline points="212.76 115.05 212.76 116.71 212.76 116.77" class="cls-2"/><rect height="1.66" width="2.06" y="39.44" x="302.65" class="cls-2"/><rect height="1.93" width="2.06" y="48.61" x="302.65" class="cls-2"/><rect height="1.99" width="2.06" y="58.04" x="302.65" class="cls-2"/><rect height="1.93" width="2.06" y="67.54" x="302.65" class="cls-2"/><rect height="1.93" width="2.06" y="76.98" x="302.65" class="cls-2"/><rect height="1.86" width="2.06" y="86.48" x="302.65" class="cls-2"/><rect height="1.86" width="2.06" y="114.98" x="302.65" class="cls-2"/><line y2="39.44" x2="292.29" y1="41.1" x1="292.29" class="cls-2"/><line y2="58.04" x2="292.29" y1="60.04" x1="292.29" class="cls-2"/><line y2="76.98" x2="292.29" y1="78.9" x1="292.29" class="cls-2"/><polyline points="292.29 116.84 292.29 116.77 292.29 115.05 292.29 114.98" class="cls-2"/><rect height="1.86" width="2.06" y="105.5" x="302.65" class="cls-2"/><polyline points="292.29 107.36 292.29 107.3 292.29 105.57 292.29 105.5" class="cls-2"/><rect height="1.86" width="2.06" y="95.93" x="302.65" class="cls-2"/><polyline points="292.29 97.79 292.29 97.72 292.29 95.99 292.29 95.93" class="cls-2"/><line y2="86.48" x2="292.29" y1="88.34" x1="292.29" class="cls-2"/><line y2="67.54" x2="292.29" y1="69.47" x1="292.29" class="cls-2"/><line y2="48.61" x2="292.29" y1="50.54" x1="292.29" class="cls-2"/><rect height="1.66" width="2.13" y="39.44" x="382.11" class="cls-2"/><rect height="1.93" width="2.13" y="48.61" x="382.11" class="cls-2"/><rect height="1.99" width="2.13" y="58.04" x="382.11" class="cls-2"/><rect height="1.93" width="2.13" y="67.54" x="382.11" class="cls-2"/><rect height="1.93" width="2.13" y="76.97" x="382.11" class="cls-2"/><rect height="1.86" width="2.13" y="86.47" x="382.11" class="cls-2"/><rect height="1.86" width="2.13" y="95.96" x="382.11" class="cls-2"/><rect height="1.86" width="2.13" y="114.96" x="382.11" class="cls-2"/><line y2="67.54" x2="371.82" y1="69.46" x1="371.82" class="cls-2"/><line y2="48.61" x2="371.82" y1="50.53" x1="371.82" class="cls-2"/><line y2="39.44" x2="371.82" y1="41.1" x1="371.82" class="cls-2"/><line y2="58.04" x2="371.82" y1="60.03" x1="371.82" class="cls-2"/><line y2="76.97" x2="371.82" y1="78.89" x1="371.82" class="cls-2"/><line y2="86.47" x2="371.83" y1="88.34" x1="371.83" class="cls-2"/><line y2="95.87" x2="371.82" y1="97.8" x1="371.82" class="cls-2"/><rect height="1.97" width="2.13" y="105.45" x="382.11" class="cls-2"/><line y2="105.36" x2="371.82" y1="107.4" x1="371.82" class="cls-2"/><polyline points="371.82 116.82 371.82 116.75 371.82 115.03 371.82 114.96" class="cls-2"/><polygon points="515.43 200.98 513.37 200.98 513.37 285.72 421.5 285.72 421.5 200.98 419.43 200.98 419.41 200.98 419.41 287.56 419.43 287.56 419.43 287.61 515.43 287.61 515.43 287.56 515.46 287.56 515.46 200.98 515.43 200.98" class="cls-3"/><path d="M431.97,200.98h5.24c.62,0,1.13.51,1.13,1.13v13.94h-7.5v-13.94c0-.62.51-1.13,1.13-1.13Z" class="cls-3"/><path d="M422.6,200.98h5.24c.62,0,1.13.51,1.13,1.13v13.94h-7.5v-13.94c0-.62.51-1.13,1.13-1.13Z" class="cls-3"/><path d="M450.7,200.98h5.24c.62,0,1.13.51,1.13,1.13v13.94h-7.5v-13.94c0-.62.51-1.13,1.13-1.13Z" class="cls-3"/><path d="M441.34,200.98h5.24c.62,0,1.13.51,1.13,1.13v13.94h-7.5v-13.94c0-.62.51-1.13,1.13-1.13Z" class="cls-3"/><path d="M469.44,200.98h5.24c.62,0,1.13.51,1.13,1.13v13.94h-7.5v-13.94c0-.62.51-1.13,1.13-1.13Z" class="cls-3"/><path d="M478.81,200.98h5.24c.62,0,1.13.51,1.13,1.13v13.94h-7.5v-13.94c0-.62.51-1.13,1.13-1.13Z" class="cls-3"/><path d="M488.18,200.98h5.24c.62,0,1.13.51,1.13,1.13v13.94h-7.5v-13.94c0-.62.51-1.13,1.13-1.13Z" class="cls-3"/><path d="M497.55,200.98h5.24c.62,0,1.13.51,1.13,1.13v13.94h-7.5v-13.94c0-.62.51-1.13,1.13-1.13Z" class="cls-3"/><path d="M506.88,200.98h5.24c.62,0,1.13.51,1.13,1.13v13.94h-7.5v-13.94c0-.62.51-1.13,1.13-1.13Z" class="cls-3"/><path d="M460.07,200.98h5.24c.62,0,1.13.51,1.13,1.13v13.94h-7.5v-13.94c0-.62.51-1.13,1.13-1.13Z" class="cls-3"/><path d="M505.78,216.02v-5.31c0-.2-.13-.33-.26-.33h-1.33c-.2,0-.26.13-.26.33v5.31h-7.49v-5.31c0-.2-.13-.33-.26-.33h-1.35c-.2,0-.26.13-.26.33v5.31h-7.49v-5.31c0-.2-.13-.33-.26-.33h-1.37c-.13,0-.26.13-.26.33v5.31h-7.48v-5.31c0-.2-.07-.33-.26-.33h-1.36c-.13,0-.26.13-.26.33v5.31h-7.46v-5.31c0-.05-.07-.04-.09-.09-.03-.12-.05-.25-.2-.25h-1.35c-.13,0-.26.13-.26.33v5.31h-7.47v-5.31c0-.2-.13-.33-.33-.33h-1.29c-.13,0-.26.13-.26.33v5.31h-7.5v-5.31s-.06-.03-.07-.07c-.04-.13-.1-.26-.21-.26h-1.31c-.11,0-.17.13-.21.27-.01.03-.07.03-.07.07v5.31h-7.52v-5.31c0-.2-.13-.33-.26-.33h-1.34c-.2,0-.26.13-.26.33v5.31h-7.5v-5.31c0-.2-.13-.33-.26-.33h-1.34c-.2,0-.26.13-.26.33v5.31h-7.48v3.77h91.77v-3.77h-7.47Z" class="cls-3"/><line y2="148.7" x2="522.93" y1="164.25" x1="518.59" class="cls-3"/><path d="M515.27,147.53l7.48,1.93s0,0,0,0l4.05-14.47s0,0,0,0l-8.09-2.09s0,0,0,0l-3.9,13.93c-.08.3.12.62.46.71Z" class="cls-3"/><path d="M506.1,180.08l7.53,1.94,4.05-14.48-7.42-1.91c-.37-.1-.75.1-.85.43l-3.74,13.36c-.08.28.11.57.43.66Z" class="cls-3"/><path d="M510.68,163.8l7.53,1.94,4.05-14.48-7.42-1.91c-.37-.1-.75.1-.85.43l-3.74,13.36c-.08.28.11.57.43.66Z" class="cls-3"/><path d="M515.46,201.25c0-10.57,0-17.67,0-17.75,0-.3.09-.59.09-.59l12.83-45.78-2.03-.52-12.54,44.8s-.19.64-.33,1.14-.13,1.05-.13,1.05v.41s0,17.26,0,17.26" class="cls-3"/><path d="M7.48,81.42h.65v1.92l1.54.25c-.09-.1-.16-.22-.21-.36-.05-.14-.07-.29-.07-.46,0-.25.04-.47.13-.68.08-.21.2-.38.35-.53.15-.15.33-.27.54-.35.21-.08.44-.12.69-.12s.48.04.7.13c.21.09.4.21.55.36.15.16.27.34.36.56.08.21.13.45.13.71,0,.2-.03.39-.08.58s-.13.35-.23.5c-.1.15-.22.28-.36.39-.14.11-.3.19-.48.24l-.31-.63c.24-.07.43-.19.56-.39.14-.19.21-.42.21-.67,0-.15-.03-.29-.08-.41-.05-.13-.12-.23-.21-.33-.09-.09-.2-.16-.33-.21-.13-.05-.27-.08-.43-.08s-.3.03-.44.08c-.13.05-.25.13-.34.22s-.17.21-.22.34c-.05.13-.08.28-.08.44,0,.18.04.35.1.49.07.14.17.26.31.36l-.15.62-2.79-.47v-2.52Z"/><path d="M12.76,80.02l-4.62-1.78v2.69h-.67v-3.5h.59l4.7,1.77v.83Z"/><path d="M12.64,75.93c-.12.24-.29.44-.51.61-.22.17-.5.3-.82.39s-.69.14-1.09.14-.8-.05-1.15-.15c-.35-.1-.64-.24-.89-.43-.25-.18-.43-.41-.56-.67-.13-.26-.2-.55-.2-.88,0-.37.09-.7.27-.97.18-.27.43-.47.76-.59l.29.64c-.21.07-.37.18-.48.34-.11.16-.17.35-.17.56,0,.2.05.38.14.55s.23.31.4.44c.17.13.37.22.61.29s.49.1.77.1h.17c.06,0,.1,0,.15,0-.25-.08-.45-.23-.59-.45-.14-.22-.21-.48-.21-.79,0-.24.04-.46.12-.65.08-.2.19-.36.34-.5.15-.14.32-.25.52-.33.2-.08.42-.12.66-.12s.47.04.68.13c.21.08.38.2.53.35.14.15.26.32.34.53s.12.43.12.68c0,.3-.06.57-.18.81ZM12.07,74.76c-.05-.12-.12-.22-.21-.3-.09-.08-.19-.15-.31-.2-.12-.05-.26-.07-.41-.07s-.29.02-.41.07c-.12.05-.23.12-.32.2s-.16.19-.21.31-.07.25-.07.4.02.27.07.39.12.22.2.31c.09.09.19.15.31.2.12.05.25.07.4.07s.28-.03.41-.08.24-.12.34-.21.17-.2.22-.32c.05-.12.08-.26.08-.4s-.03-.26-.08-.38Z"/><path d="M9.12,69.77h.67c-.24-.11-.42-.26-.54-.45-.12-.18-.18-.4-.18-.63,0-.26.07-.48.2-.67.14-.19.33-.32.59-.41-.26-.11-.45-.27-.59-.46-.14-.2-.2-.43-.2-.7,0-.38.12-.67.37-.88.25-.21.61-.31,1.07-.31h2.25v.7h-2.16c-.29,0-.52.07-.69.2-.17.13-.25.31-.25.54,0,.12.02.22.07.32.05.1.11.18.2.26.09.07.19.13.32.16.12.04.26.06.4.06h2.11v.7h-2.16c-.14,0-.27.02-.38.06-.12.04-.22.09-.3.15-.08.06-.14.14-.19.23-.04.09-.07.2-.07.31s.02.22.07.32c.05.1.12.18.21.25.09.07.2.12.32.17.12.04.26.06.41.06h2.09v.7h-3.64v-.68Z"/><path d="M9.12,63.58h.67c-.24-.11-.42-.26-.54-.45-.12-.18-.18-.4-.18-.63,0-.26.07-.48.2-.67.14-.19.33-.32.59-.41-.26-.11-.45-.27-.59-.46-.14-.2-.2-.43-.2-.7,0-.38.12-.67.37-.88.25-.21.61-.31,1.07-.31h2.25v.7h-2.16c-.29,0-.52.07-.69.2-.17.13-.25.31-.25.54,0,.12.02.22.07.32.05.1.11.18.2.26.09.07.19.13.32.16.12.04.26.06.4.06h2.11v.7h-2.16c-.14,0-.27.02-.38.06-.12.04-.22.09-.3.15-.08.06-.14.14-.19.23-.04.09-.07.2-.07.31s.02.22.07.32c.05.1.12.18.21.25.09.07.2.12.32.17.12.04.26.06.41.06h2.09v.7h-3.64v-.68Z"/><line y2="17.61" x2="16.69" y1="125.79" x1="16.69" class="cls-3"/><rect height=".3" width="1.95" y="125.64" x="15.71" class="cls-4"/><rect height=".3" width="1.95" y="17.46" x="15.71" class="cls-4"/><line y2="9.94" x2="397.6" y1="9.94" x1="40.07" class="cls-3"/><rect height="1.95" width=".3" y="8.97" x="39.92" class="cls-4"/><rect height="1.95" width=".3" y="8.96" x="397.45" class="cls-4"/><path d="M12.71,222.41c-.07.22-.17.4-.31.56-.13.15-.29.28-.47.36s-.38.13-.6.13c-.16,0-.31-.02-.45-.07-.15-.05-.28-.11-.4-.2-.12-.09-.22-.19-.3-.31s-.14-.25-.18-.4c-.05.14-.12.25-.2.36-.08.1-.17.19-.27.27s-.21.13-.33.17c-.12.04-.25.06-.38.06-.21,0-.39-.04-.56-.12-.17-.08-.32-.2-.44-.34-.13-.14-.22-.32-.29-.52-.07-.2-.1-.42-.1-.66s.03-.46.1-.66c.07-.2.17-.37.29-.52.12-.15.27-.26.44-.35.17-.08.36-.13.57-.13.13,0,.26.02.38.06.12.04.24.1.34.17.1.07.19.16.27.27.08.1.14.22.19.35.04-.15.1-.28.18-.4s.19-.22.31-.3c.12-.08.25-.15.4-.2.14-.05.29-.07.45-.07.21,0,.41.04.6.13.18.09.34.21.47.36.13.15.24.34.31.56.07.22.11.46.11.72s-.04.5-.11.72ZM8.15,222.04c.04.11.09.2.16.28.07.08.15.14.26.18s.21.07.33.07c.11,0,.22-.02.32-.07.1-.04.19-.11.26-.19.07-.08.13-.17.17-.28s.06-.23.06-.35-.02-.25-.06-.35c-.04-.1-.1-.2-.17-.28s-.16-.14-.26-.19c-.1-.04-.21-.07-.32-.07-.12,0-.23.02-.33.07-.1.04-.19.11-.26.19-.07.08-.12.17-.16.28-.04.11-.06.23-.06.36s.02.24.06.35ZM12.08,221.27c-.04-.13-.11-.23-.19-.32-.08-.09-.18-.16-.29-.21-.11-.05-.24-.08-.37-.08s-.26.03-.37.08c-.11.05-.21.12-.29.21-.08.09-.15.2-.2.33-.05.13-.07.26-.07.41s.02.28.07.41c.04.13.11.23.19.33s.18.16.3.21c.11.05.24.07.37.07.14,0,.27-.02.38-.07.11-.05.21-.12.29-.21.08-.09.14-.2.19-.33.04-.13.07-.26.07-.41s-.02-.29-.07-.41Z"/><path d="M7.48,217.37h5.29v.72h-4.54l.64,1.3h-.73l-.67-1.36v-.67Z"/><path d="M12.71,215.49c-.07.22-.17.4-.31.56-.13.15-.29.28-.47.36s-.38.13-.6.13c-.16,0-.31-.02-.45-.07-.15-.05-.28-.11-.4-.2-.12-.09-.22-.19-.3-.31s-.14-.25-.18-.4c-.05.14-.12.25-.2.36-.08.1-.17.19-.27.27s-.21.13-.33.17c-.12.04-.25.06-.38.06-.21,0-.39-.04-.56-.12-.17-.08-.32-.2-.44-.34-.13-.14-.22-.32-.29-.52-.07-.2-.1-.42-.1-.66s.03-.46.1-.66c.07-.2.17-.37.29-.52.12-.15.27-.26.44-.35.17-.08.36-.13.57-.13.13,0,.26.02.38.06.12.04.24.1.34.17.1.07.19.16.27.27.08.1.14.22.19.35.04-.15.1-.28.18-.4s.19-.22.31-.3c.12-.08.25-.15.4-.2.14-.05.29-.07.45-.07.21,0,.41.04.6.13.18.09.34.21.47.36.13.15.24.34.31.56.07.22.11.46.11.72s-.04.5-.11.72ZM8.15,215.12c.04.11.09.2.16.28.07.08.15.14.26.18s.21.07.33.07c.11,0,.22-.02.32-.07.1-.04.19-.11.26-.19.07-.08.13-.17.17-.28s.06-.23.06-.35-.02-.25-.06-.35c-.04-.1-.1-.2-.17-.28s-.16-.14-.26-.19c-.1-.04-.21-.07-.32-.07-.12,0-.23.02-.33.07-.1.04-.19.11-.26.19-.07.08-.12.17-.16.28-.04.11-.06.23-.06.36s.02.24.06.35ZM12.08,214.35c-.04-.13-.11-.23-.19-.32-.08-.09-.18-.16-.29-.21-.11-.05-.24-.08-.37-.08s-.26.03-.37.08c-.11.05-.21.12-.29.21-.08.09-.15.2-.2.33-.05.13-.07.26-.07.41s.02.28.07.41c.04.13.11.23.19.33s.18.16.3.21c.11.05.24.07.37.07.14,0,.27-.02.38-.07.11-.05.21-.12.29-.21.08-.09.14-.2.19-.33.04-.13.07-.26.07-.41s-.02-.29-.07-.41Z"/><path d="M9.12,209.38h.67c-.24-.11-.42-.26-.54-.45-.12-.18-.18-.4-.18-.63,0-.26.07-.48.2-.67.14-.19.33-.32.59-.41-.26-.11-.45-.27-.59-.46-.14-.2-.2-.43-.2-.7,0-.38.12-.67.37-.88.25-.21.61-.31,1.07-.31h2.25v.7h-2.16c-.29,0-.52.07-.69.2-.17.13-.25.31-.25.54,0,.12.02.22.07.32.05.1.11.18.2.26.09.07.19.13.32.16.12.04.26.06.4.06h2.11v.7h-2.16c-.14,0-.27.02-.38.06-.12.04-.22.09-.3.15-.08.06-.14.14-.19.23-.04.09-.07.2-.07.31s.02.22.07.32c.05.1.12.18.21.25.09.07.2.12.32.17.12.04.26.06.41.06h2.09v.7h-3.64v-.68Z"/><path d="M9.12,203.2h.67c-.24-.11-.42-.26-.54-.45-.12-.18-.18-.4-.18-.63,0-.26.07-.48.2-.67.14-.19.33-.32.59-.41-.26-.11-.45-.27-.59-.46-.14-.2-.2-.43-.2-.7,0-.38.12-.67.37-.88.25-.21.61-.31,1.07-.31h2.25v.7h-2.16c-.29,0-.52.07-.69.2-.17.13-.25.31-.25.54,0,.12.02.22.07.32.05.1.11.18.2.26.09.07.19.13.32.16.12.04.26.06.4.06h2.11v.7h-2.16c-.14,0-.27.02-.38.06-.12.04-.22.09-.3.15-.08.06-.14.14-.19.23-.04.09-.07.2-.07.31s.02.22.07.32c.05.1.12.18.21.25.09.07.2.12.32.17.12.04.26.06.41.06h2.09v.7h-3.64v-.68Z"/><line y2="134.1" x2="16.69" y1="287.85" x1="16.69" class="cls-3"/><rect height=".3" width="1.95" y="287.7" x="15.71" class="cls-4"/><rect height=".3" width="1.95" y="133.95" x="15.71" class="cls-4"/><path d="M206.05.84v5.18h-.71v-3.8c0-.07,0-.13-.02-.19-.01-.05-.03-.09-.06-.12-.03-.03-.06-.06-.1-.07-.04-.02-.09-.02-.15-.02-.06,0-.12,0-.18.03-.06.02-.13.05-.2.08l-.57.28v-.71l1.33-.65h.65Z"/><path d="M209.33.96c.23.12.43.28.6.5.17.22.3.49.38.81.09.32.13.67.13,1.06,0,.42-.05.79-.15,1.13-.1.34-.24.63-.42.87-.18.24-.4.42-.66.55-.26.13-.54.19-.86.19-.37,0-.68-.09-.95-.26-.27-.17-.46-.42-.58-.75l.62-.29c.06.21.18.37.34.48.16.11.35.16.57.16.18,0,.34-.04.49-.12.15-.08.28-.19.4-.33.11-.14.2-.32.26-.51.06-.2.09-.41.09-.63,0-.06-.01-.12-.03-.15-.02-.04-.05-.06-.1-.05-.01,0-.03,0-.04,0-.01,0-.02,0-.03.01-.01,0-.02.01-.04.02-.01,0-.03.02-.04.04-.12.11-.25.19-.38.25-.14.06-.29.08-.45.08-.23,0-.45-.04-.65-.12-.2-.08-.36-.19-.5-.33s-.25-.31-.33-.51c-.08-.2-.12-.41-.12-.65s.04-.46.12-.67c.08-.2.2-.37.34-.52.14-.14.32-.25.52-.33.2-.08.42-.12.66-.12.29,0,.56.06.79.17ZM208.19,1.51c-.12.05-.22.12-.3.21s-.15.19-.19.31-.07.25-.07.4.02.27.07.4c.05.12.11.23.2.32.08.09.19.16.31.21s.25.07.39.07.26-.02.38-.07.22-.11.3-.2.15-.19.2-.3.07-.25.07-.39-.03-.28-.08-.4c-.05-.13-.12-.24-.21-.33-.09-.09-.19-.17-.31-.22-.12-.05-.25-.08-.39-.08s-.26.03-.37.08Z"/><path d="M213.77.98c.24.13.46.31.63.54.18.23.31.51.41.83.1.32.15.68.15,1.06s-.05.75-.15,1.07c-.1.33-.24.61-.42.84s-.39.42-.63.55c-.24.13-.51.2-.81.2s-.56-.07-.81-.2-.46-.31-.64-.55c-.18-.24-.31-.52-.41-.84-.1-.33-.15-.68-.15-1.07s.05-.74.15-1.06.24-.6.41-.83c.18-.23.39-.41.63-.54.24-.13.52-.19.81-.19s.57.07.81.2ZM212.44,1.6c-.15.1-.29.23-.4.4-.11.17-.2.38-.26.61-.06.24-.1.5-.1.79s.03.56.09.81c.06.24.15.46.26.63.11.18.25.31.4.41s.32.15.51.15.36-.05.51-.15.29-.24.4-.41c.11-.18.2-.39.26-.63.06-.24.09-.51.09-.8s-.03-.55-.09-.79c-.06-.24-.15-.45-.26-.62-.11-.17-.24-.31-.4-.4-.16-.1-.33-.14-.52-.14s-.36.05-.51.14Z"/><path d="M218.27.98c.24.13.46.31.63.54.18.23.31.51.41.83.1.32.15.68.15,1.06s-.05.75-.15,1.07c-.1.33-.24.61-.42.84s-.39.42-.63.55c-.24.13-.51.2-.81.2s-.56-.07-.81-.2-.46-.31-.64-.55c-.18-.24-.31-.52-.41-.84-.1-.33-.15-.68-.15-1.07s.05-.74.15-1.06.24-.6.41-.83c.18-.23.39-.41.63-.54.24-.13.52-.19.81-.19s.57.07.81.2ZM216.95,1.6c-.15.1-.29.23-.4.4-.11.17-.2.38-.26.61-.06.24-.1.5-.1.79s.03.56.09.81c.06.24.15.46.26.63.11.18.25.31.4.41s.32.15.51.15.36-.05.51-.15.29-.24.4-.41c.11-.18.2-.39.26-.63.06-.24.09-.51.09-.8s-.03-.55-.09-.79c-.06-.24-.15-.45-.26-.62-.11-.17-.24-.31-.4-.4-.16-.1-.33-.14-.52-.14s-.36.05-.51.14Z"/><path d="M222.93,2.45v.14c0,.06.01.11.03.13.02.02.05.03.09.03.02,0,.04,0,.05,0,.02,0,.03-.01.05-.02.02,0,.04-.02.05-.03.02-.02.04-.03.06-.05.1-.09.22-.15.34-.19.12-.04.25-.06.4-.06.16,0,.31.03.45.08.13.05.25.14.36.27.05.06.09.09.13.11.04.02.08.03.13.03.02,0,.04,0,.06,0s.04-.01.06-.02c.02,0,.04-.02.06-.04.02-.02.05-.04.07-.06.11-.12.24-.21.39-.27.15-.06.31-.09.48-.09.37,0,.65.12.85.37s.31.59.31,1.04v2.21h-.69v-2.12c0-.28-.07-.51-.2-.67-.13-.16-.31-.25-.52-.25-.11,0-.22.02-.32.07s-.18.11-.25.2c-.07.09-.12.19-.16.31-.04.12-.06.25-.06.39v2.07h-.69v-2.12c0-.14-.02-.26-.05-.38-.04-.11-.09-.21-.15-.29-.06-.08-.14-.14-.23-.19-.09-.04-.19-.07-.31-.07s-.21.02-.31.07c-.1.05-.18.11-.25.2-.07.09-.12.19-.16.32-.04.12-.06.26-.06.4v2.05h-.69v-3.57h.65Z"/><path d="M228.96,2.45v.14c0,.06.01.11.03.13.02.02.05.03.09.03.02,0,.04,0,.05,0,.02,0,.03-.01.05-.02.02,0,.04-.02.05-.03.02-.02.04-.03.06-.05.1-.09.22-.15.34-.19.12-.04.25-.06.4-.06.16,0,.31.03.45.08.13.05.25.14.36.27.05.06.09.09.13.11.04.02.08.03.13.03.02,0,.04,0,.06,0s.04-.01.06-.02c.02,0,.04-.02.06-.04.02-.02.05-.04.07-.06.11-.12.24-.21.39-.27.15-.06.31-.09.48-.09.37,0,.65.12.85.37s.31.59.31,1.04v2.21h-.69v-2.12c0-.28-.07-.51-.2-.67-.13-.16-.31-.25-.52-.25-.11,0-.22.02-.32.07s-.18.11-.25.2c-.07.09-.12.19-.16.31-.04.12-.06.25-.06.39v2.07h-.69v-2.12c0-.14-.02-.26-.05-.38-.04-.11-.09-.21-.15-.29-.06-.08-.14-.14-.23-.19-.09-.04-.19-.07-.31-.07s-.21.02-.31.07c-.1.05-.18.11-.25.2-.07.09-.12.19-.16.32-.04.12-.06.26-.06.4v2.05h-.69v-3.57h.65Z"/></g></g></svg>