<svg viewBox="0 0 531.27 288" xmlns:xlink="http://www.w3.org/1999/xlink" xmlns="http://www.w3.org/2000/svg" id="Camada_2"><defs><style>.cls-1,.cls-2,.cls-3{fill:none;}.cls-4{fill:#12100c;}.cls-2,.cls-3{stroke:#12100c;stroke-linecap:round;stroke-linejoin:round;stroke-width:.3px;}.cls-3{fill-rule:evenodd;}</style><symbol viewBox="0 0 531.27 288" id="fundo_transparente"><rect height="288" width="531.27" x="0" class="cls-1"/></symbol></defs><g id="Nature"><g id="Centros_Cyclin_Portugal"><g id="placa_de_cedência_de_prioridade"><use xlink:href="#fundo_transparente" height="288" width="531.27"/><g id="MTEXT"><path d="M123.77,2.21v.55l-.65.98c-.04.06-.07.1-.1.15-.03.04-.06.08-.09.13s-.06.09-.09.13-.06.09-.09.15c.19.02.37.08.52.18s.29.21.41.35c.12.14.21.3.27.48s.09.38.09.59c0,.24-.04.47-.13.67-.08.2-.2.38-.36.52-.15.14-.34.26-.54.34s-.44.12-.69.12c-.21,0-.4-.03-.58-.08-.18-.05-.35-.13-.49-.23-.15-.1-.28-.22-.39-.37-.11-.14-.2-.31-.26-.49l.63-.31c.08.24.22.44.41.58.19.14.42.21.67.21.15,0,.28-.02.4-.07.12-.05.23-.11.31-.2.09-.09.15-.19.2-.31.05-.12.07-.26.07-.41s-.03-.29-.08-.42c-.06-.13-.13-.23-.22-.32-.09-.09-.21-.16-.34-.21-.13-.05-.28-.08-.44-.08h-.35l-.08-.44.72-1.07s.06-.09.09-.12c.03-.03.05-.07.08-.12s.06-.08.08-.12c.03-.03.06-.07.09-.12h-2.18v-.65h3.09Z"/><path d="M127.47,2.35c.25.13.47.32.65.55.18.23.32.52.42.85.1.33.15.69.15,1.08s-.05.76-.15,1.1-.24.62-.42.86c-.18.24-.4.43-.65.56-.25.13-.52.2-.83.2s-.57-.07-.82-.2-.47-.32-.65-.56c-.18-.24-.32-.53-.42-.86-.1-.33-.15-.7-.15-1.1s.05-.75.15-1.08c.1-.33.24-.61.42-.85.18-.24.4-.42.65-.55.25-.13.53-.2.83-.2s.58.07.83.2ZM126.11,2.98c-.16.1-.29.23-.41.41-.11.18-.2.38-.27.63-.07.24-.1.51-.1.81s.03.57.09.82c.06.25.15.46.27.64.12.18.25.32.41.42.16.1.33.15.52.15s.37-.05.53-.15c.16-.1.3-.24.41-.42.11-.18.2-.39.27-.64.06-.25.09-.52.09-.82s-.03-.56-.09-.81c-.06-.25-.15-.46-.26-.63-.11-.17-.25-.31-.41-.41-.16-.1-.34-.15-.53-.15s-.37.05-.52.15Z"/><path d="M132.1,2.35c.25.13.47.32.65.55.18.23.32.52.42.85.1.33.15.69.15,1.08s-.05.76-.15,1.1-.24.62-.42.86c-.18.24-.4.43-.65.56-.25.13-.52.2-.83.2s-.57-.07-.82-.2-.47-.32-.65-.56c-.18-.24-.32-.53-.42-.86-.1-.33-.15-.7-.15-1.1s.05-.75.15-1.08c.1-.33.24-.61.42-.85.18-.24.4-.42.65-.55.25-.13.53-.2.83-.2s.58.07.83.2ZM130.75,2.98c-.16.1-.29.23-.41.41-.11.18-.2.38-.27.63-.07.24-.1.51-.1.81s.03.57.09.82c.06.25.15.46.27.64.12.18.25.32.41.42.16.1.33.15.52.15s.37-.05.53-.15c.16-.1.3-.24.41-.42.11-.18.2-.39.27-.64.06-.25.09-.52.09-.82s-.03-.56-.09-.81c-.06-.25-.15-.46-.26-.63-.11-.17-.25-.31-.41-.41-.16-.1-.34-.15-.53-.15s-.37.05-.52.15Z"/><path d="M136.93,3.85v.67c.11-.24.26-.42.45-.54.18-.12.4-.18.63-.18.26,0,.48.07.67.2.19.14.32.33.41.59.11-.26.27-.45.46-.59.2-.14.43-.2.7-.2.38,0,.67.12.88.37.21.25.31.61.31,1.07v2.25h-.7v-2.16c0-.29-.07-.52-.2-.69-.13-.17-.31-.25-.54-.25-.12,0-.22.02-.32.07-.1.05-.18.11-.26.2-.07.09-.13.19-.16.32-.04.12-.06.26-.06.4v2.11h-.7v-2.16c0-.14-.02-.27-.06-.38-.04-.12-.09-.22-.15-.3-.06-.08-.14-.14-.23-.19-.09-.04-.2-.07-.31-.07s-.22.02-.32.07c-.1.05-.18.12-.25.21-.07.09-.12.2-.17.32-.04.12-.06.26-.06.41v2.09h-.7v-3.64h.68Z"/><path d="M143.11,3.85v.67c.11-.24.26-.42.45-.54.18-.12.4-.18.63-.18.26,0,.48.07.67.2.19.14.32.33.41.59.11-.26.27-.45.46-.59.2-.14.43-.2.7-.2.38,0,.67.12.88.37.21.25.31.61.31,1.07v2.25h-.7v-2.16c0-.29-.07-.52-.2-.69-.13-.17-.31-.25-.54-.25-.12,0-.22.02-.32.07-.1.05-.18.11-.26.2-.07.09-.13.19-.16.32-.04.12-.06.26-.06.4v2.11h-.7v-2.16c0-.14-.02-.27-.06-.38-.04-.12-.09-.22-.15-.3-.06-.08-.14-.14-.23-.19-.09-.04-.2-.07-.31-.07s-.22.02-.32.07c-.1.05-.18.12-.25.21-.07.09-.12.2-.17.32-.04.12-.06.26-.06.41v2.09h-.7v-3.64h.68Z"/></g><g id="LINE"><line y2="12.25" x2="238.34" y1="12.25" x1="30.09" class="cls-2"/><rect height="1.95" width=".3" y="11.28" x="29.94" class="cls-4"/><rect height="1.95" width=".3" y="11.28" x="238.19" class="cls-4"/></g><g id="MTEXT-2"><path d="M4.52,190.61h.55l.98.65c.06.04.1.07.15.1.04.03.08.06.13.09s.09.06.13.09.09.06.15.09c.02-.19.08-.37.18-.52.09-.16.21-.29.35-.41.14-.12.3-.21.48-.27s.38-.09.59-.09c.24,0,.47.04.67.13.2.08.38.2.52.36.14.15.26.34.34.54s.12.44.12.69c0,.21-.03.4-.08.58-.05.18-.13.35-.23.49-.1.15-.22.28-.37.39-.14.11-.31.2-.49.26l-.31-.63c.24-.08.44-.22.58-.41.14-.19.21-.42.21-.67,0-.15-.02-.28-.07-.4-.05-.12-.11-.23-.2-.31-.09-.09-.19-.15-.31-.2-.12-.05-.26-.07-.41-.07s-.29.03-.42.08c-.13.06-.23.13-.32.22-.09.09-.16.21-.21.34-.05.13-.08.28-.08.44v.35l-.44.08-1.07-.72s-.09-.06-.12-.09c-.03-.03-.07-.05-.12-.08s-.08-.06-.12-.08c-.03-.03-.07-.06-.12-.09v2.18h-.65v-3.09Z"/><path d="M4.67,186.92c.13-.25.32-.47.55-.65.23-.18.52-.32.85-.42.33-.1.69-.15,1.08-.15s.76.05,1.1.15.62.24.86.42c.24.18.43.4.56.65.13.25.2.52.2.83s-.07.57-.2.82-.32.47-.56.65c-.24.18-.53.32-.86.42-.33.1-.7.15-1.1.15s-.75-.05-1.08-.15c-.33-.1-.61-.24-.85-.42-.24-.18-.42-.4-.55-.65-.13-.25-.2-.53-.2-.83s.07-.58.2-.83ZM5.3,188.27c.1.16.23.29.41.41.18.11.38.2.63.27.24.07.51.1.81.1s.57-.03.82-.09c.25-.06.46-.15.64-.27.18-.12.32-.25.42-.41.1-.16.15-.33.15-.52s-.05-.37-.15-.53c-.1-.16-.24-.3-.42-.41-.18-.11-.39-.2-.64-.27-.25-.06-.52-.09-.82-.09s-.56.03-.81.09c-.25.06-.46.15-.63.26-.17.11-.31.25-.41.41-.1.16-.15.34-.15.53s.05.37.15.52Z"/><path d="M4.67,182.29c.13-.25.32-.47.55-.65.23-.18.52-.32.85-.42.33-.1.69-.15,1.08-.15s.76.05,1.1.15.62.24.86.42c.24.18.43.4.56.65.13.25.2.52.2.83s-.07.57-.2.82-.32.47-.56.65c-.24.18-.53.32-.86.42-.33.1-.7.15-1.1.15s-.75-.05-1.08-.15c-.33-.1-.61-.24-.85-.42-.24-.18-.42-.4-.55-.65-.13-.25-.2-.53-.2-.83s.07-.58.2-.83ZM5.3,183.64c.1.16.23.29.41.41.18.11.38.2.63.27.24.07.51.1.81.1s.57-.03.82-.09c.25-.06.46-.15.64-.27.18-.12.32-.25.42-.41.1-.16.15-.33.15-.52s-.05-.37-.15-.53c-.1-.16-.24-.3-.42-.41-.18-.11-.39-.2-.64-.27-.25-.06-.52-.09-.82-.09s-.56.03-.81.09c-.25.06-.46.15-.63.26-.17.11-.31.25-.41.41-.1.16-.15.34-.15.53s.05.37.15.52Z"/><path d="M6.17,177.46h.67c-.24-.11-.42-.26-.54-.45-.12-.18-.18-.4-.18-.63,0-.26.07-.48.2-.67.14-.19.33-.32.59-.41-.26-.11-.45-.27-.59-.46-.14-.2-.2-.43-.2-.7,0-.38.12-.67.37-.88.25-.21.61-.31,1.07-.31h2.25v.7h-2.16c-.29,0-.52.07-.69.2-.17.13-.25.31-.25.54,0,.12.02.23.07.32.05.1.11.18.2.26.09.07.19.13.32.16.12.04.26.06.4.06h2.11v.7h-2.16c-.14,0-.27.02-.38.06-.12.04-.22.09-.3.15-.08.06-.14.14-.19.23-.04.09-.07.19-.07.31s.02.22.07.32c.05.1.12.18.21.25.09.07.2.12.32.17.12.04.26.06.41.06h2.09v.7h-3.64v-.68Z"/><path d="M6.17,171.27h.67c-.24-.11-.42-.26-.54-.45-.12-.18-.18-.4-.18-.63,0-.26.07-.48.2-.67.14-.19.33-.32.59-.41-.26-.11-.45-.27-.59-.46-.14-.2-.2-.43-.2-.7,0-.38.12-.67.37-.88.25-.21.61-.31,1.07-.31h2.25v.7h-2.16c-.29,0-.52.07-.69.2-.17.13-.25.31-.25.54,0,.12.02.23.07.32.05.1.11.18.2.26.09.07.19.13.32.16.12.04.26.06.4.06h2.11v.7h-2.16c-.14,0-.27.02-.38.06-.12.04-.22.09-.3.15-.08.06-.14.14-.19.23-.04.09-.07.19-.07.31s.02.22.07.32c.05.1.12.18.21.25.09.07.2.12.32.17.12.04.26.06.41.06h2.09v.7h-3.64v-.68Z"/></g><g id="LINE-2"><line y2="271.89" x2="14.57" y1="88.45" x1="14.57" class="cls-2"/><rect height=".3" width="1.95" y="88.3" x="13.6" class="cls-4"/><rect height=".3" width="1.95" y="271.74" x="13.59" class="cls-4"/></g><g id="MTEXT-3"><path d="M5.71,48.28h.55l.98.65c.06.04.1.07.15.1.04.03.08.06.13.09s.09.06.13.09.09.06.15.09c.02-.19.08-.37.18-.52.09-.16.21-.29.35-.41.14-.12.3-.21.48-.27s.38-.09.59-.09c.24,0,.47.04.67.13.2.08.38.2.52.36.14.15.26.34.34.54s.12.44.12.69c0,.21-.03.4-.08.58-.05.18-.13.35-.23.49-.1.15-.22.28-.37.39-.14.11-.31.2-.49.26l-.31-.63c.24-.08.44-.22.58-.41.14-.19.21-.42.21-.67,0-.15-.02-.28-.07-.4-.05-.12-.11-.23-.2-.31-.09-.09-.19-.15-.31-.2-.12-.05-.26-.07-.41-.07s-.29.03-.42.08c-.13.06-.23.13-.32.22-.09.09-.16.21-.21.34-.05.13-.08.28-.08.44v.35l-.44.08-1.07-.72s-.09-.06-.12-.09c-.03-.03-.07-.05-.12-.08s-.08-.06-.12-.08c-.03-.03-.07-.06-.12-.09v2.18h-.65v-3.09Z"/><path d="M7.36,44.39h.67c-.24-.11-.42-.26-.54-.45-.12-.18-.18-.4-.18-.63,0-.26.07-.48.2-.67.14-.19.33-.32.59-.41-.26-.11-.45-.27-.59-.46-.14-.2-.2-.43-.2-.7,0-.38.12-.67.37-.88.25-.21.61-.31,1.07-.31h2.25v.7h-2.16c-.29,0-.52.07-.69.2-.17.13-.25.31-.25.54,0,.12.02.23.07.32.05.1.11.18.2.26.09.07.19.13.32.16.12.04.26.06.4.06h2.11v.7h-2.16c-.14,0-.27.02-.38.06-.12.04-.22.09-.3.15-.08.06-.14.14-.19.23-.04.09-.07.19-.07.31s.02.22.07.32c.05.1.12.18.21.25.09.07.2.12.32.17.12.04.26.06.41.06h2.09v.7h-3.64v-.68Z"/><path d="M7.36,38.21h.67c-.24-.11-.42-.26-.54-.45-.12-.18-.18-.4-.18-.63,0-.26.07-.48.2-.67.14-.19.33-.32.59-.41-.26-.11-.45-.27-.59-.46-.14-.2-.2-.43-.2-.7,0-.38.12-.67.37-.88.25-.21.61-.31,1.07-.31h2.25v.7h-2.16c-.29,0-.52.07-.69.2-.17.13-.25.31-.25.54,0,.12.02.23.07.32.05.1.11.18.2.26.09.07.19.13.32.16.12.04.26.06.4.06h2.11v.7h-2.16c-.14,0-.27.02-.38.06-.12.04-.22.09-.3.15-.08.06-.14.14-.19.23-.04.09-.07.19-.07.31s.02.22.07.32c.05.1.12.18.21.25.09.07.2.12.32.17.12.04.26.06.41.06h2.09v.7h-3.64v-.68Z"/><path d="M5.71,30.86v-.69l5.29,2.25v.69l-5.29-2.25Z"/><path d="M5.71,27.78h5.29v.72h-4.54s.64,1.3.64,1.3h-.73l-.67-1.36v-.67Z"/><path d="M5.86,24.08c.13-.25.32-.47.55-.65.23-.18.52-.32.85-.42.33-.1.69-.15,1.08-.15s.76.05,1.1.15.62.24.86.42c.24.18.43.4.56.65.13.25.2.52.2.83s-.07.57-.2.82-.32.47-.56.65c-.24.18-.53.32-.86.42-.33.1-.7.15-1.1.15s-.75-.05-1.08-.15c-.33-.1-.61-.24-.85-.42-.24-.18-.42-.4-.55-.65-.13-.25-.2-.53-.2-.83s.07-.58.2-.83ZM6.49,25.43c.1.16.23.29.41.41.18.11.38.2.63.27.24.07.51.1.81.1s.57-.03.82-.09c.25-.06.46-.15.64-.27.18-.12.32-.25.42-.41.1-.16.15-.33.15-.52s-.05-.37-.15-.53c-.1-.16-.24-.3-.42-.41-.18-.11-.39-.2-.64-.27-.25-.06-.52-.09-.82-.09s-.56.03-.81.09c-.25.06-.46.15-.63.26-.17.11-.31.25-.41.41-.1.16-.15.34-.15.53s.05.37.15.52Z"/><path d="M7.36,19.25h.67c-.24-.11-.42-.26-.54-.45-.12-.18-.18-.4-.18-.63,0-.26.07-.48.2-.67.14-.19.33-.32.59-.41-.26-.11-.45-.27-.59-.46-.14-.2-.2-.43-.2-.7,0-.38.12-.67.37-.88.25-.21.61-.31,1.07-.31h2.25v.7h-2.16c-.29,0-.52.07-.69.2-.17.13-.25.31-.25.54,0,.12.02.23.07.32.05.1.11.18.2.26.09.07.19.13.32.16.12.04.26.06.4.06h2.11v.7h-2.16c-.14,0-.27.02-.38.06-.12.04-.22.09-.3.15-.08.06-.14.14-.19.23-.04.09-.07.19-.07.31s.02.22.07.32c.05.1.12.18.21.25.09.07.2.12.32.17.12.04.26.06.41.06h2.09v.7h-3.64v-.68Z"/><path d="M7.36,13.06h.67c-.24-.11-.42-.26-.54-.45-.12-.18-.18-.4-.18-.63,0-.26.07-.48.2-.67.14-.19.33-.32.59-.41-.26-.11-.45-.27-.59-.46-.14-.2-.2-.43-.2-.7,0-.38.12-.67.37-.88.25-.21.61-.31,1.07-.31h2.25v.7h-2.16c-.29,0-.52.07-.69.2-.17.13-.25.31-.25.54,0,.12.02.23.07.32.05.1.11.18.2.26.09.07.19.13.32.16.12.04.26.06.4.06h2.11v.7h-2.16c-.14,0-.27.02-.38.06-.12.04-.22.09-.3.15-.08.06-.14.14-.19.23-.04.09-.07.19-.07.31s.02.22.07.32c.05.1.12.18.21.25.09.07.2.12.32.17.12.04.26.06.41.06h2.09v.7h-3.64v-.68Z"/></g><g id="LINE-3"><line y2="33.23" x2="15.76" y1="26.57" x1="15.76" class="cls-2"/><rect height=".3" width="1.95" y="26.42" x="14.79" class="cls-4"/><rect height=".3" width="1.95" y="33.08" x="14.78" class="cls-4"/></g><path d="M30.97,109.7c14.63,28.45,27.57,53.82,42.26,82.23l42.48,82.59c7.58,13.35,27.15,13.41,34.83-.82l42.06-81.76,43.34-84.25c5.1-13.97-4.68-31.78-19.16-31.78H49.28c-15.19,0-25.21,19.6-18.31,33.8" class="cls-3"/><path d="M143.97,267.2l41.5-80.69c13.79-26.8,27.59-53.62,41.36-80.41.86-2,1.35-4.24,1.35-6.6,0-8.38-6.05-15.17-13.51-15.17H51.19c-7.46,0-13.51,6.79-13.51,15.17,0,2.63.6,5.11,1.65,7.27,13.67,26.58,27.36,53.16,41.02,79.75l41.41,80.5c3.95,6.5,11.75,8.59,17.92,4.59,1.76-1.14,3.2-2.65,4.29-4.4Z" class="cls-2"/><path d="M158.9,107.3c-.76-.02-1.37-.29-1.23.78.08.64.56,1,.56,1.63,0,.3-.46,1.37-.58,1.78l-.53,1.71c-.43,1.22-.89,1.94-1.24,3.32-.29,1.14-1.21,2.37-.35,3.4.57.69,1.23,1.59,2.18,1.22.23-.09.18-.06.33-.23.32-.39.31-.85.53-1.29l.15-.32s.03-.05.04-.07c.01-.02.03-.05.04-.07.42-.85.41-.47,1.29-.74.3-.1,1.02-.71,1.29-.99.42-.43.69-.76,1.5-.39.16.07.5.29.7.41.45.28.77.68,1.25.9.69.32.64.3,1.21.91,1.84,2,1.13,1.68,1.77,3.87.16.54.39,1.17.53,1.7.35,1.35-.14,2.87-.27,4.12-.28,2.64-.47,2.6-1.09,4.5l-.94,2.42c-.85,1.96-.75,3.17-2.32,4.76l-.36.39c-.22.27.04.02-.24.27-.33.29-.74.6-.47,1.13.24.48,2.36.22,2.81.15.36-.85.16-1.32.93-1.9,1.16-.88.59.31,1.08-1.7.5-2.02.58-2.27,1.44-4.17.08-.18.13-.34.23-.54l.79-1.23c.62-.62.71-.87.88-1.91.13-.77.09-.33.44-.89.4-.65,1.03-2.51,2-2.1.63.26,1.51,2.82,1.92,3.65.1.19.39.56.52.88,1.13,2.63,2.45,3.48,3.94,5.6.17.25.37.63.54.87.13.19.52.5.6.65.26.49.11,1.75.38,2.41.49,0,1.27-.73,1.6-1.07.6-.6.81-1.32.15-1.97-1.09-1.05-.48-.72-1.11-1.69-.37-.56-.94-.97-1.34-1.44-.34-.4-1.81-3.08-1.99-3.62-.22-.66-.83-4.5-.65-4.72.3-.35,6.65-.47,7.98-.95.65-.23,1.38-.83,1.99-.88.42.81.4,1,.41,2.19,0,.94,0,1.87,0,2.81,0,1.2-.19,2.61-.6,3.54-.38.85-.93,1.83-1.1,2.89-.23,1.38-1.12,2.51-2,3.36-.47.46-.94.68-1.1,1.44.06.99,2.51.68,3.17.61.54-.98.03-1.35,1.31-1.86.33-2.35.26-1.51,1.01-3.53.24-.65,1.22-2.44,1.58-2.93,1.07-1.44.81-1.49.92-3.67.04-.93.48-1.75.78-2.68.36-1.12.86-.63,1.4-.03l2.33,2.46c.6.55,1.04.99,1.58,1.59,1.01,1.12.71.6,1.15,2.08.28.96.46,1.72.6,2.83.37,3,.15,1.75,1.16,3.74.17.34.25.83.46,1.08.12.14,1.57,1.32,1.75,1.41.49-.37.85-1.67.58-2.15-.41-.74-.85-.21-1.25-1.53l-.81-3.51c-.09-.39-.09-.9-.13-1.33-.09-1.11-.26-1.49-.28-2.75-.03-1.63.04-1.28-.72-2.14-.54-.61-.75-.85-1.14-1.68-.26-.55-.69-1.17-.9-1.93.17-.25.22-.44.48-.58.48.25,1.38,1.71,2.31,2.25.29.17.75.22,1.18.23-.07-.8-.41-.93-.54-1.9-.16-1.22-.68-2.91-.58-4.14.2-2.41.53-3.67-.5-5.85-1-2.1-3.02-3.26-5-3.74-2.68-.65-3.86.01-5.92.07-3.74.09-2.46.08-4.33-1.02-.2-.12-.43-.19-.63-.31-.27-2.2.29-5.77-.19-7.71l-1.07-3.33s-.03-.06-.04-.1l-.4-.78c-.86-1.32-.41-1.14-1.87-.64-.26.09-.35.1-.56.16l-.4.13c-.17-.31-.51,1.16-.53,1.43-.07.85-.25.79-.33,1.48-.09.75-.01,1-.19,1.69-.14.56-.17.97-.23,1.62-.52.24-.84.74-1.38,1.12l-3.53,3.12c-.39.45-.03.65.29,1.02.91,1.04,1.12.25,2.25-.46.62-.39.68-.96,1.61-1.07,0,.64-.06,1.42-.36,1.82-.59.78-1.56,1.35-2.48,1.66l-.29.06c-.47,0-.59-.21-1.07-.31.06-.64.46-.84-.35-1.37-.27-.17.42-.15-.37-.13-.63.02-.58.83-1.68.76l-3.54-1.02c-.72-.34-1.25-.12-1.97-.37l-1.79-.5c-1.34-.32-2.46-.56-3.86-.64-.31-.61-.78-1.01-1.12-1.55" class="cls-3"/><path d="M142.8,201.17c.43-.38.56-.77,1.12-.98-.22-.91-.39-1.39-1.06-1.83-1.62-1.06-.64-.01-1.8-.93-.77-.61-2.6-.54-3.75-1.54-.53-.46-1.93-3.17-2.08-3.55-1.15-2.98-1.01-1.42-2.32-3.1-2.94-.1-3.35,2.51-4.53,4.77-.83,1.58-2.95,4.82-2.64,6.69l-.45.4c.6,1.26,1,1.55,1.9,1.88.61.22.19.07.59.54-.28.69-3.08,5.58-3.45,5.96-5.03-3.3-11.21-1.12-13.61,4.44-1.92,4.45-.97,8.6,1.26,11.74,3.35,4.72,10.5,5.3,14.37.45,1.47-1.85,1.67-2.72,2.38-4.94l2,.29c0,2.8.09,1.9.88,3.86,1.49.07,1.57.17,2.2-.6,1.3-1.61-.25-3.18,1.04-4.72.86-1.02,1.14-1.19,1.8-2.27.4-.65,2.42-2.79,3.14-3.7.4-.5.73-1.09,1.11-1.56.4-.5,1-.69,1.4-1.37.45-.76.28-1.2,1.27-1.51l.3.87c-.31.41-.51.49-.81.83-3.35,3.72-3.83,9.52-1.09,13.75.79,1.22,2.01,2.49,3.23,3.2,6.74,3.91,13.94-1.75,13.95-9.35,0-4.17-2.15-7.42-4.34-8.93-1.33-.91-2.62-1.54-4.54-1.7-.94-.08-1.87.03-2.75.27-.94.25-1.46.63-2.22.88-.26-.42-2.39-7.43-2.51-8.23M131.01,201.47c-.2-1.86.39-2.02,1.02-3.25.41-.8,1.02-2.16,1.48-2.79.79.26.95,1.35,1.38,2.24.2.43,1.41.79,2.22,1.13,4.61,1.98,3.8.1,5.1.69-.15.66-.69,1.11-.8,1.9-.09.65.32,1.65.4,2.45-1.77,0-3.54-.02-5.31-.03-1.21,0-3.55.33-4.35-.98.47-.6.88-.05,1.18-1-.76-.32-1.37-.32-2.31-.35M134.91,205.69c1.09,0,7.03-.09,7.52.21.48.33.59,1.28.38,1.73-.13.27-.82,1.11-1.06,1.35l-4.3,5.34c-.34.45-.74.86-1.09,1.32-.25.33-.76,1.09-1.11,1.17.17-1.35,1.35-4.32,1.77-5.92.76-2.91-.06-2.4-1.72-4.44-.35-.43-.19-.38-.39-.76M128.27,205.89c.42.72,1.54,5.03,1.89,6.19.47,1.54.5,1.78.53,3.59.01,1.04.13,3.14.02,4.06l-1.65-.12c-.15-.43-.14-2.28-.27-3.04-.17-.93-.4-1.75-.74-2.52-.72-1.66-1.64-2.78-2.65-3.69.37-.83.9-1.5,1.38-2.26.25-.4,1.16-1.92,1.5-2.21M127.26,220.94c-2.29,8.77-11.99,9.07-15.24,1.86-2.48-5.52.59-12.31,6.2-13.17,1.7-.27,4.14.2,5.28,1.23-.55,1.51-3.01,5.05-4.23,6.08l-.99,1.45c-.26,1.03.63,1.81,1.42,1.46.79-.35.36-.54,2.44.03,1.59.44,3.58.57,5.12,1.05M145.8,210.98c1.61-1.25,4.45-1.41,6.44-.68,2.09.76,3.34,2.17,4.32,3.85,4.42,7.6-3.77,17.63-11.28,12.26-.94-.67-1.4-1.24-2.02-2.14-1.1-1.59-1.85-4.09-1.51-6.72.15-1.21.55-2.38,1.02-3.29.39-.75,1.27-2.07,1.89-2.34.68,1.75,1.86,3.4,2.95,4.8.31.4.85,1.01,1.14,1.48-.58,1.83,1.14,2.42,1.85,1.36.35-.53.24-1.31-.22-1.67-.56-.44-.75-.15-1.41-.83-.74-.77-3.13-4.22-3.16-6.08M120.94,217.27c.13-.46,2.12-3.42,2.62-4.21l.82-1.22c.15-.16.04-.07.19-.17,1.74,1.64,3,3.9,2.91,7.68-1.53-.21-5.88-1.03-6.55-2.08" class="cls-3"/><path d="M69.88,106.14c.58-2.29,3.18-4.69-1.08-4.84-.6,1.92-1.49,4.28-2.34,5.93-.94,1.83-1.84,3.18-.36,4.03.48.28,1.12.2,1.7.24-.06.99-.37,2.23-.6,3.12-.12.46-.1,1.22-.09,1.8.05,1.46,1.28,1.26.43,2.6-.26.42-1.08,3.6-1.25,4.22-.69,2.43-2.77,9.4-3.19,11.37l1.57,1.53c.26.25.22.31.66.37.29-.26,1.32-2.91,1.49-3.31,1.18-2.82,1.75-4.91,2.59-6.99.21-.52,1.08-1.91,1.38-3.28.38.18,2.65,2.73,2.78,3.36.17.83.36,2.62.02,3.26-.56,1.05-3.13,5.52-3.25,6.35l1.86.11c.37-.7.67-1.15,1.04-1.77.52-.87.71-1.72.92-1.73.37-.02.39,1.09.5,1.8.1.66.24,1.31.29,1.95,1.33,0,2.5-.2,3.64-.44.1-.5-.68-4.32-.82-5.26-.63-4.22-1.15-3.23-.22-4.99l3.12-6.13c.36-.61.81-1.35,1.08-1.94l.88.11c.22-.6.61-1.16.68-1.86l-3.92-3.2c-1.44-1.17-1.54-.95-1.71-1.93-.18-1.03-.46-2-.72-2.96-.43-1.61-1.15-3.97-2.96-4.26-2.28-.37-1.81.87-4.13,2.76M74.97,112.57c.95,1.94.29,1.37,2.19,2.34.83.42,2.17,1.21,2.98,1.47-.01,1.12-.46,1.5-.82,2.21l-1.95,3.7c-.3.66-.47,1.55-1.17,1.56-.25-.48-.37-1.5-.57-2.16-.28-.95-1.59-4.47-2.14-5.38l-.12-.18,1.59-3.56Z" class="cls-3"/><path d="M182.21,177.33c.16-.34,1.3-15.53,1.29-16.96-1.04.57-12.13,9.33-12.48,9.72h3.91c-.28.88-7.13,14.01-7.71,15.11-1.32,2.52-2.57,5.06-3.88,7.56-.59,1.11-3.55,6.74-3.79,7.48.38.37,4.79,3.22,5.23,3.35.57-1.46,10.25-19.91,11.58-22.57l3.8-7.29,2.05,3.6Z" class="cls-3"/><path d="M140.65,101.7l-30.99.03.03,6.77,30.98.04-1.92,3.84c1.21-.55,13.46-7.07,13.65-7.31-1.01-.67-5.33-2.86-6.82-3.67l-6.87-3.55,1.94,3.85Z" class="cls-3"/><path d="M92.87,172.3c-.42-.78-1.75-3.01-1.94-3.72l3.9-.11c-.23-.3-11.99-9.04-12.71-9.36l1.68,16.89,1.9-3.84c.72,1.11,1.4,2.57,2.06,3.76,4.04,7.27,8.02,14.88,12.05,22.18.36.66.64,1.2,1.02,1.89.3.54.68,1.37,1.01,1.78l5.09-3.45c-.17-.62-3.45-6.47-4.02-7.55-3.27-6.14-6.84-12.4-10.05-18.48" class="cls-3"/><path d="M92.75,108.07c-.44,2.51-1.69,3.22-1.4,6.6.18,2.1.42.46-.19,3.3-.89,4.13-.38,3.49-1.76,4.06-.43.17-.85.38-1.28.57-.89.38-1.68.75-2.56,1.14-1.49.66-3.79,1.51-5.09,2.31l.36.4c1.84,1.61,1.47,1.28,3.43.76,1.45-.38,2.95-.79,4.42-1.17,1.33-.34,3.5-.57,4-1.67l1.68-4.27c.58.23,2.33,1.36,2.82,1.76.91.72,1.23,1.45,1.61,2.88.52,1.92.07,6.84.18,9.24l2.81-.62c-.22-4.28-.27-2.61-.06-7.18.27-6.21-.97-5.23-4.35-10.28-.82-1.22-.64-1.09-.03-2.49.25-.58.77-2.17,1.13-2.45.27.21.49,1.22,1.02,1.77.6.62,2.62,1.36,3.48,1.71.61.25,1.25.64,1.85.83l.76-1.4c-.34-.47-1.62-1.41-2.15-1.83-2.9-2.31-2.49-1.58-3.13-4.78-.2-1-.16-.71-.64-1.42-1.81-2.66-2.35-3.71-5.92-1.68-1.65.94-3.33,1.79-5.01,2.63l-.29,6.55c-.08,1.78-.01,2.15,1.63,1.96.46-1.1.8-5.47.82-7l1.87-.22Z" class="cls-3"/><path d="M132.46,186.51c.27,1.82,1.34,2.51,3.19,2.25,2.6-.37,3.04-6.74-1.27-5.95-1.39.26-2.19,1.88-1.93,3.7" class="cls-3"/><path d="M74.91,97.25c-2.79.87-2.29,6.67,1.6,5.61,2.52-.69,2.3-6.82-1.6-5.61" class="cls-3"/><path d="M179.15,93.24c-1.38.47-1.92,1.74-1.6,3.19.4,1.81,3.3,2.64,4.15.62.27-.65.48-1.41.23-2.07-.51-1.36-1.25-2.27-2.78-1.75" class="cls-3"/><path d="M98.14,97.91c-2.22.67-2.1,5.65,1.37,4.8,2.14-.53,2.05-5.83-1.37-4.8" class="cls-3"/><path d="M126.13,142.69c-.45.25-1.34.5-2.48.5-2.65,0-4.64-1.87-4.64-5.33s1.99-5.53,4.9-5.53c1.17,0,1.91.28,2.23.47l-.29,1.11c-.46-.25-1.11-.44-1.89-.44-2.2,0-3.66,1.58-3.66,4.34,0,2.58,1.32,4.23,3.6,4.23.74,0,1.49-.17,1.98-.44l.25,1.08Z" class="cls-2"/><path d="M132.5,138.1h-3.65v3.8h4.07v1.14h-5.28v-10.53h5.07v1.15h-3.86v3.33h3.65v1.12Z" class="cls-2"/><path d="M134.48,132.65c.74-.13,1.61-.22,2.57-.22,1.74,0,2.98.45,3.8,1.31.84.86,1.32,2.08,1.32,3.78s-.47,3.13-1.35,4.1c-.88.98-2.32,1.52-4.15,1.52-.86,0-1.59-.05-2.2-.13v-10.35ZM135.69,141.96c.31.06.75.08,1.23.08,2.59,0,3.99-1.62,3.99-4.47.01-2.48-1.24-4.06-3.8-4.06-.63,0-1.1.06-1.42.15v8.31Z" class="cls-2"/><path d="M145.26,139.72l-.97,3.31h-1.25l3.19-10.53h1.46l3.2,10.53h-1.3l-1-3.31h-3.33ZM148.33,138.66l-.92-3.03c-.21-.69-.35-1.31-.49-1.92h-.03c-.14.62-.29,1.27-.47,1.91l-.92,3.04h2.83Z" class="cls-2"/><path d="M97.3,149.97c.58-.11,1.35-.2,2.32-.2,1.2,0,2.07.31,2.63.88.51.5.82,1.27.82,2.2s-.25,1.7-.72,2.25c-.64.77-1.69,1.16-2.87,1.16-.36,0-.69-.02-.97-.09v4.22h-1.21v-10.41ZM98.51,155.05c.27.08.6.11,1,.11,1.46,0,2.35-.8,2.35-2.25s-.88-2.06-2.21-2.06c-.53,0-.93.05-1.14.11v4.09Z" class="cls-2"/><path d="M104.7,149.99c.61-.14,1.49-.22,2.32-.22,1.3,0,2.13.27,2.72.86.47.47.74,1.19.74,2,0,1.39-.78,2.31-1.77,2.69v.05c.72.28,1.15,1.03,1.38,2.13.31,1.47.53,2.48.72,2.89h-1.25c-.15-.3-.36-1.2-.63-2.52-.28-1.45-.78-2-1.88-2.05h-1.14v4.56h-1.21v-10.39ZM105.9,154.78h1.24c1.29,0,2.11-.8,2.11-2,0-1.36-.88-1.95-2.16-1.97-.58,0-1,.06-1.2.12v3.84Z" class="cls-2"/><path d="M113.39,149.84v10.53h-1.21v-10.53h1.21Z" class="cls-2"/><path d="M123.52,155c0,3.63-1.96,5.55-4.36,5.55s-4.22-2.16-4.22-5.34c0-3.34,1.85-5.53,4.36-5.53s4.22,2.2,4.22,5.33ZM116.24,155.17c0,2.25,1.08,4.27,2.99,4.27s3.01-1.98,3.01-4.37c0-2.09-.97-4.28-2.99-4.28s-3.01,2.08-3.01,4.39Z" class="cls-2"/><path d="M125.08,149.99c.61-.14,1.49-.22,2.32-.22,1.3,0,2.13.27,2.72.86.47.47.74,1.19.74,2,0,1.39-.78,2.31-1.77,2.69v.05c.72.28,1.15,1.03,1.38,2.13.31,1.47.53,2.48.72,2.89h-1.25c-.15-.3-.36-1.2-.63-2.52-.28-1.45-.78-2-1.88-2.05h-1.14v4.56h-1.21v-10.39ZM126.29,154.78h1.24c1.29,0,2.11-.8,2.11-2,0-1.36-.88-1.95-2.16-1.97-.58,0-1,.06-1.2.12v3.84Z" class="cls-2"/><path d="M133.77,149.84v10.53h-1.21v-10.53h1.21Z" class="cls-2"/><path d="M135.88,149.99c.74-.13,1.61-.22,2.57-.22,1.74,0,2.98.45,3.8,1.31.84.86,1.32,2.08,1.32,3.78s-.47,3.13-1.35,4.09c-.88.98-2.32,1.52-4.15,1.52-.86,0-1.59-.05-2.2-.13v-10.36ZM137.09,159.3c.31.06.75.08,1.23.08,2.59,0,3.99-1.62,3.99-4.47.01-2.49-1.24-4.06-3.8-4.06-.63,0-1.1.06-1.42.14v8.31Z" class="cls-2"/><path d="M146.66,157.06l-.97,3.31h-1.25l3.19-10.53h1.46l3.2,10.53h-1.3l-1-3.31h-3.33ZM149.73,156l-.92-3.03c-.21-.69-.35-1.31-.49-1.92h-.03c-.14.62-.29,1.27-.47,1.91l-.92,3.05h2.83Z" class="cls-2"/><path d="M153.65,149.99c.74-.13,1.61-.22,2.57-.22,1.74,0,2.98.45,3.8,1.31.84.86,1.32,2.08,1.32,3.78s-.47,3.13-1.35,4.09c-.88.98-2.32,1.52-4.15,1.52-.86,0-1.59-.05-2.2-.13v-10.36ZM154.86,159.3c.31.06.75.08,1.23.08,2.59,0,3.99-1.62,3.99-4.47.01-2.49-1.24-4.06-3.8-4.06-.63,0-1.1.06-1.42.14v8.31Z" class="cls-2"/><path d="M167.77,155.44h-3.65v3.8h4.07v1.14h-5.28v-10.53h5.07v1.14h-3.86v3.33h3.65v1.12Z" class="cls-2"/><path d="M135.8,241.74c0,1.72-1.24,3.12-2.78,3.12s-2.78-1.4-2.78-3.12,1.24-3.12,2.78-3.12,2.78,1.4,2.78,3.12" class="cls-2"/><path d="M135.8,117.6c0,1.72-1.24,3.12-2.78,3.12s-2.78-1.4-2.78-3.12,1.24-3.12,2.78-3.12,2.78,1.4,2.78,3.12" class="cls-2"/><path d="M135.82,117.6c.08,1.65-1.23,3.31-2.79,3.23-1.54,0-2.84-1.54-2.85-3.23-.09-1.72,1.3-3.3,2.85-3.26,1.57-.05,2.87,1.61,2.79,3.26M135.79,117.6c0-1.69-1.37-3.02-2.77-2.99-1.42-.04-2.7,1.37-2.71,2.99-.09,1.65,1.28,3.11,2.71,3.02,1.41,0,2.77-1.33,2.77-3.02" class="cls-2"/><rect height="6.95" width="208.55" y="26.42" x="29.94" class="cls-2"/><rect transform="translate(463.47 -103.12) rotate(90)" height="6.95" width="208.55" y="176.7" x="179.02" class="cls-2"/></g></g></g></svg>