<svg viewBox="0 0 531.27 288" xmlns:xlink="http://www.w3.org/1999/xlink" xmlns="http://www.w3.org/2000/svg" id="Camada_2"><defs><style>.cls-1,.cls-2,.cls-3{fill:none;}.cls-4{fill:#12100c;}.cls-2{stroke-width:.3px;}.cls-2,.cls-3{stroke:#12100c;stroke-linecap:round;stroke-linejoin:round;}.cls-3{stroke-width:.3px;}</style><symbol viewBox="0 0 531.27 288" id="fundo_transparente"><rect height="288" width="531.27" x="0" class="cls-1"/></symbol></defs><g id="Nature"><g id="Rotas_cicláveis"><g id="placas_direcionais_XL"><use xlink:href="#fundo_transparente" height="288" width="531.27"/><path d="M297.86,221.16c1.56,0,3.03.4,4.31,1.1l-5.17,7.34c-.22.32-.25.73-.07,1.08.18.35.54.56.93.56h8.97c-.52,4.49-4.34,7.99-8.97,7.99-4.98,0-9.03-4.05-9.03-9.03s4.05-9.03,9.03-9.03M307.9,217.75l3.4,11.4h-2.37c-.28-2.95-1.71-5.57-3.85-7.4l2.82-4ZM325.9,215.22l-12.71,12.98-3.53-11.82,16.23-1.15ZM306.83,229.15h-6.96l4-5.68c1.6,1.44,2.7,3.44,2.96,5.68M332.2,221.16c4.98,0,9.03,4.05,9.03,9.03s-4.05,9.03-9.03,9.03-9.03-4.05-9.03-9.03c0-3.58,2.09-6.67,5.1-8.13l2.91,8.47c.15.43.55.71.99.71.11,0,.23-.02.34-.06.54-.19.83-.78.65-1.32l-2.91-8.48c.63-.14,1.29-.22,1.96-.22M297.86,241.31c5.78,0,10.54-4.43,11.07-10.07h3.78s.08,0,.12,0c.01,0,.03,0,.04,0,.04,0,.08-.01.12-.02h0s0,0,0,0c.02,0,.04,0,.05-.02l.05-.02s.02,0,.03,0c.09-.04.16-.09.24-.15h0s.05-.05.07-.07l13.24-13.52.92,2.68c-3.84,1.76-6.51,5.63-6.51,10.11,0,6.13,4.99,11.12,11.12,11.12s11.12-4.99,11.12-11.12-4.99-11.12-11.12-11.12c-.91,0-1.79.12-2.64.32l-1.42-4.12c0-.06-.02-.11-.04-.16l-.46-1.33c-.02-.06-.04-.11-.07-.16l-1.9-5.53c-.15-.42-.54-.71-.99-.71h-3.2c-.58,0-1.04.47-1.04,1.04s.47,1.04,1.04,1.04h2.45l1.27,3.71-16.18,1.15-.89-2.99h1.68c.58,0,1.04-.46,1.04-1.04s-.46-1.04-1.04-1.04h-6.15c-.57,0-1.04.47-1.04,1.04s.47,1.04,1.04,1.04h2.3l1.15,3.88-3.76,5.34c-1.63-.93-3.51-1.47-5.52-1.47-6.13,0-11.12,4.99-11.12,11.12s4.99,11.12,11.12,11.12" class="cls-4"/><path d="M52.71,215.49c-.17,0-.29-.11-.29-.29v-13.19c0-.17.11-.29.29-.29h2.62c.17,0,.28.12.28.29v1.17h.03c.65-1.06,1.82-1.77,3.56-1.77,1.08,0,2.17.43,2.88,1.14.14.14.17.26.06.4l-1.51,1.91c-.11.14-.26.17-.4.06-.63-.4-1.28-.66-2.02-.66-1.8,0-2.6,1.29-2.6,3.49v7.45c0,.17-.11.29-.28.29h-2.62Z" class="cls-4"/><path d="M72.42,211.15c.23-.71.29-1.37.29-2.54s-.06-1.8-.29-2.54c-.4-1.14-1.28-1.8-2.56-1.8s-2.2.66-2.6,1.8c-.23.74-.29,1.37-.29,2.54s.06,1.83.29,2.54c.4,1.14,1.31,1.8,2.6,1.8s2.16-.66,2.56-1.8M64.19,212c-.31-.97-.45-1.88-.45-3.4s.14-2.43.45-3.39c.77-2.4,2.88-3.8,5.68-3.8s4.88,1.4,5.64,3.8c.32.97.46,1.88.46,3.39s-.14,2.43-.46,3.4c-.77,2.4-2.88,3.8-5.64,3.8s-4.9-1.4-5.68-3.8" class="cls-4"/><path d="M83.37,215.66c-2.76,0-3.82-1.34-3.82-4.02v-7.25c0-.11-.06-.17-.17-.17h-.91c-.17,0-.28-.11-.28-.28v-1.91c0-.17.11-.29.28-.29h.91c.11,0,.17-.06.17-.17v-3.77c0-.17.11-.29.29-.29h2.62c.17,0,.29.11.29.29v3.77c0,.11.06.17.17.17h1.82c.18,0,.29.11.29.29v1.91c0,.17-.11.28-.29.28h-1.82c-.12,0-.17.06-.17.17v7.14c0,.97.4,1.29,1.28,1.29h.71c.18,0,.29.11.29.29v2.28c0,.17-.11.29-.29.29h-1.37Z" class="cls-4"/><path d="M96.31,210.86v-1.06c0-.11-.06-.17-.17-.17h-2.28c-2.05,0-2.96.57-2.96,1.85,0,1.14.83,1.71,2.36,1.71,1.97,0,3.05-.77,3.05-2.34M96.65,215.49c-.17,0-.29-.11-.29-.29v-1h-.03c-.66.94-1.94,1.6-3.88,1.6-2.51,0-4.62-1.31-4.62-4.19s2.11-4.37,5.5-4.37h2.79c.11,0,.17-.06.17-.17v-.66c0-1.57-.74-2.29-3.05-2.29-1.54,0-2.48.43-3.13.95-.14.11-.32.08-.4-.06l-1.06-1.88c-.09-.14-.06-.29.06-.37,1.11-.8,2.63-1.34,4.88-1.34,4.19,0,5.73,1.43,5.73,4.79v9c0,.17-.11.29-.29.29h-2.39Z" class="cls-4"/><path d="M117.99,211.17c.2-.63.29-1.31.29-2.57s-.08-1.94-.29-2.57c-.37-1.14-1.25-1.77-2.56-1.77s-2.17.63-2.54,1.77c-.2.63-.29,1.32-.29,2.57s.09,1.94.29,2.57c.37,1.14,1.25,1.77,2.54,1.77s2.2-.63,2.56-1.77M118.56,215.49c-.17,0-.29-.11-.29-.29v-1.03h-.02c-.66.94-1.8,1.63-3.65,1.63-2.34,0-4.05-1.11-4.76-3.31-.34-1.06-.48-2.03-.48-3.88s.14-2.83.48-3.89c.71-2.2,2.42-3.31,4.76-3.31,1.85,0,2.99.68,3.65,1.63h.02v-6.68c0-.17.12-.29.29-.29h2.62c.17,0,.29.11.29.29v18.84c0,.17-.12.29-.29.29h-2.62Z" class="cls-4"/><path d="M133.28,210.86v-1.06c0-.11-.06-.17-.17-.17h-2.28c-2.05,0-2.96.57-2.96,1.85,0,1.14.83,1.71,2.37,1.71,1.97,0,3.05-.77,3.05-2.34M133.62,215.49c-.17,0-.29-.11-.29-.29v-1h-.03c-.66.94-1.94,1.6-3.88,1.6-2.51,0-4.62-1.31-4.62-4.19s2.11-4.37,5.5-4.37h2.79c.11,0,.17-.06.17-.17v-.66c0-1.57-.74-2.29-3.05-2.29-1.54,0-2.48.43-3.14.95-.14.11-.31.08-.4-.06l-1.05-1.88c-.09-.14-.06-.29.06-.37,1.11-.8,2.62-1.34,4.88-1.34,4.19,0,5.73,1.43,5.73,4.79v9c0,.17-.11.29-.28.29h-2.4Z" class="cls-4"/><path d="M51.91,238.73c0-3.08.11-4.05.51-5.25,1-3.17,3.45-4.77,6.73-4.77,3.11,0,5.44,1.6,6.56,4.17.06.14,0,.29-.14.34l-2.42,1.17c-.18.08-.32,0-.37-.14-.63-1.37-1.71-2.51-3.62-2.51s-2.94,1-3.48,2.57c-.26.8-.34,1.57-.34,4.42s.08,3.63.34,4.42c.54,1.57,1.62,2.57,3.48,2.57s2.99-1.14,3.62-2.51c.06-.14.2-.23.37-.14l2.42,1.17c.14.06.2.2.14.34-1.11,2.57-3.45,4.17-6.56,4.17-3.28,0-5.73-1.6-6.73-4.77-.4-1.2-.51-2.17-.51-5.25" class="cls-4"/><path d="M77.08,244.1c.23-.72.29-1.37.29-2.54s-.06-1.8-.29-2.54c-.4-1.14-1.28-1.8-2.57-1.8s-2.19.66-2.6,1.8c-.23.74-.29,1.37-.29,2.54s.06,1.83.29,2.54c.4,1.14,1.31,1.8,2.6,1.8s2.17-.66,2.57-1.8M68.84,244.96c-.31-.97-.45-1.88-.45-3.4s.14-2.43.45-3.4c.77-2.4,2.88-3.8,5.67-3.8s4.88,1.4,5.65,3.8c.32.97.45,1.88.45,3.4s-.14,2.43-.45,3.4c-.77,2.4-2.88,3.8-5.65,3.8s-4.9-1.4-5.67-3.8" class="cls-4"/><path d="M83.03,246.59c-.12-.11-.12-.29,0-.4l1.62-1.71c.11-.12.28-.12.4,0,1,.91,2.59,1.57,4.02,1.57,1.68,0,2.54-.69,2.54-1.63,0-.83-.49-1.34-2.28-1.51l-1.48-.14c-2.79-.29-4.22-1.71-4.22-4.05,0-2.65,1.91-4.34,5.33-4.34,2.14,0,3.93.71,5.16,1.69.14.11.14.29.06.4l-1.4,1.68c-.11.15-.26.15-.4.06-.85-.6-2.23-1.14-3.59-1.14s-2.08.6-2.08,1.43.49,1.28,2.25,1.46l1.48.14c2.88.29,4.25,1.77,4.25,4.03,0,2.74-1.99,4.65-5.76,4.65-2.82,0-4.76-1.11-5.9-2.17" class="cls-4"/><path d="M102.21,248.61c-2.77,0-3.82-1.34-3.82-4.03v-7.25c0-.11-.06-.17-.17-.17h-.91c-.17,0-.28-.12-.28-.29v-1.91c0-.17.11-.29.28-.29h.91c.12,0,.17-.06.17-.17v-3.77c0-.17.11-.29.29-.29h2.62c.17,0,.28.11.28.29v3.77c0,.11.06.17.18.17h1.82c.18,0,.29.11.29.29v1.91c0,.17-.11.29-.29.29h-1.82c-.12,0-.18.06-.18.17v7.14c0,.97.4,1.28,1.28,1.28h.71c.18,0,.29.11.29.29v2.28c0,.17-.11.29-.29.29h-1.36Z" class="cls-4"/><path d="M115.15,243.82v-1.06c0-.11-.06-.17-.17-.17h-2.28c-2.05,0-2.96.57-2.96,1.85,0,1.14.83,1.72,2.36,1.72,1.97,0,3.05-.77,3.05-2.34M115.49,248.44c-.17,0-.28-.11-.28-.29v-1h-.03c-.66.94-1.94,1.6-3.88,1.6-2.51,0-4.62-1.32-4.62-4.2s2.11-4.37,5.5-4.37h2.79c.11,0,.17-.06.17-.17v-.66c0-1.57-.74-2.28-3.05-2.28-1.54,0-2.48.43-3.13.94-.14.11-.32.08-.4-.06l-1.06-1.88c-.09-.14-.06-.29.06-.37,1.11-.8,2.63-1.34,4.88-1.34,4.19,0,5.73,1.43,5.73,4.79v9c0,.17-.11.29-.29.29h-2.39Z" class="cls-4"/><path d="M138.26,241.39l-2.56-7.54h-.08l-2.6,7.54h5.24ZM134.01,229.31c.06-.17.17-.29.37-.29h2.62c.2,0,.32.12.37.29l6.55,18.84c.06.17,0,.29-.2.29h-2.79c-.2,0-.31-.08-.37-.29l-1.28-3.77h-7.3l-1.28,3.77c-.06.2-.17.29-.37.29h-2.76c-.2,0-.26-.11-.2-.29l6.64-18.84Z" class="cls-4"/><path d="M150.41,248.61c-2.76,0-3.82-1.34-3.82-4.03v-7.25c0-.11-.06-.17-.17-.17h-.91c-.17,0-.28-.12-.28-.29v-1.91c0-.17.11-.29.28-.29h.91c.11,0,.17-.06.17-.17v-3.77c0-.17.12-.29.29-.29h2.62c.17,0,.28.11.28.29v3.77c0,.11.06.17.17.17h1.83c.17,0,.28.11.28.29v1.91c0,.17-.11.29-.28.29h-1.83c-.11,0-.17.06-.17.17v7.14c0,.97.4,1.28,1.28,1.28h.71c.17,0,.28.11.28.29v2.28c0,.17-.11.29-.28.29h-1.37Z" class="cls-4"/><path d="M158.98,248.61c-2.68,0-3.76-1.29-3.76-3.94v-15.36c0-.17.11-.29.29-.29h2.62c.17,0,.28.12.28.29v15.19c0,.95.37,1.26,1.2,1.26h.63c.17,0,.28.11.28.29v2.28c0,.17-.11.29-.28.29h-1.26Z" class="cls-4"/><path d="M171.59,243.82v-1.06c0-.11-.06-.17-.17-.17h-2.28c-2.05,0-2.97.57-2.97,1.85,0,1.14.83,1.72,2.37,1.72,1.97,0,3.05-.77,3.05-2.34M171.36,232.59c-.26,0-.37-.06-.6-.29l-1.62-1.68h-.06l-1.63,1.68c-.23.23-.34.29-.6.29h-1.8c-.17,0-.23-.14-.11-.29l2.79-3.57c.14-.2.28-.29.51-.29h1.71c.23,0,.37.08.51.29l2.8,3.57c.11.14.06.29-.12.29h-1.8ZM171.93,248.44c-.17,0-.29-.11-.29-.29v-1h-.03c-.66.94-1.94,1.6-3.88,1.6-2.51,0-4.62-1.32-4.62-4.2s2.11-4.37,5.5-4.37h2.8c.11,0,.17-.06.17-.17v-.66c0-1.57-.74-2.28-3.05-2.28-1.54,0-2.48.43-3.13.94-.14.11-.32.08-.4-.06l-1.06-1.88c-.09-.14-.06-.29.06-.37,1.11-.8,2.62-1.34,4.88-1.34,4.19,0,5.73,1.43,5.73,4.79v9c0,.17-.11.29-.29.29h-2.39Z" class="cls-4"/><path d="M187.3,248.44c-.17,0-.29-.11-.29-.29v-7.94c0-1.77-.88-3-2.59-3s-2.62,1.23-2.62,3v7.94c0,.17-.11.29-.29.29h-2.62c-.17,0-.29-.11-.29-.29v-13.19c0-.17.11-.29.29-.29h2.62c.17,0,.29.12.29.29v1h.03c.6-.85,1.8-1.6,3.62-1.6,2.94,0,4.76,2.17,4.76,5.11v8.68c0,.17-.12.29-.28.29h-2.62Z" class="cls-4"/><path d="M198.12,248.61c-2.76,0-3.82-1.34-3.82-4.03v-7.25c0-.11-.06-.17-.17-.17h-.91c-.17,0-.29-.12-.29-.29v-1.91c0-.17.11-.29.29-.29h.91c.11,0,.17-.06.17-.17v-3.77c0-.17.12-.29.29-.29h2.62c.17,0,.28.11.28.29v3.77c0,.11.06.17.17.17h1.83c.17,0,.29.11.29.29v1.91c0,.17-.11.29-.29.29h-1.83c-.11,0-.17.06-.17.17v7.14c0,.97.4,1.28,1.28,1.28h.71c.17,0,.29.11.29.29v2.28c0,.17-.11.29-.29.29h-1.37Z" class="cls-4"/><path d="M203.39,248.44c-.17,0-.28-.11-.28-.29v-13.19c0-.17.11-.29.28-.29h2.62c.17,0,.29.11.29.29v13.19c0,.17-.12.29-.29.29h-2.62ZM203.39,232.08c-.17,0-.28-.11-.28-.29v-2.49c0-.17.11-.28.28-.28h2.62c.17,0,.29.11.29.28v2.49c0,.17-.12.29-.29.29h-2.62Z" class="cls-4"/><path d="M210.14,244.96c-.29-.85-.43-1.94-.43-3.4s.14-2.54.43-3.4c.8-2.46,2.91-3.8,5.67-3.8,2.05,0,3.68.83,4.76,2.14.08.11.11.29-.03.4l-1.8,1.57c-.14.11-.29.08-.4-.06-.69-.77-1.4-1.2-2.54-1.2-1.22,0-2.16.6-2.56,1.8-.23.69-.29,1.48-.29,2.54s.06,1.88.29,2.57c.4,1.17,1.34,1.77,2.56,1.77,1.14,0,1.85-.43,2.54-1.2.11-.14.25-.14.4-.03l1.8,1.57c.14.11.11.26.03.4-1.08,1.28-2.71,2.11-4.76,2.11-2.76,0-4.87-1.34-5.67-3.8" class="cls-4"/><path d="M231.85,243.82v-1.06c0-.11-.06-.17-.17-.17h-2.28c-2.05,0-2.97.57-2.97,1.85,0,1.14.83,1.72,2.36,1.72,1.97,0,3.05-.77,3.05-2.34M232.19,248.44c-.17,0-.29-.11-.29-.29v-1h-.03c-.66.94-1.94,1.6-3.88,1.6-2.51,0-4.62-1.32-4.62-4.2s2.11-4.37,5.5-4.37h2.79c.11,0,.17-.06.17-.17v-.66c0-1.57-.74-2.28-3.05-2.28-1.54,0-2.48.43-3.13.94-.14.11-.31.08-.4-.06l-1.06-1.88c-.09-.14-.06-.29.06-.37,1.11-.8,2.62-1.34,4.88-1.34,4.19,0,5.73,1.43,5.73,4.79v9c0,.17-.11.29-.29.29h-2.39Z" class="cls-4"/><path d="M345.26,167.77H36.74c-3.78,0-6.84,3.06-6.84,6.84v99.48c0,3.78,3.06,6.84,6.84,6.84h308.52c1.81,0,3.55-.72,4.83-2l46.36-51.67c1.6-1.6,1.6-4.2,0-5.8l-46.36-51.67c-1.28-1.28-3.02-2-4.83-2" class="cls-3"/><path d="M343.18,172.17H37.87c-1.89,0-3.42,1.53-3.42,3.42v97.51c0,1.89,1.53,3.42,3.42,3.42h305.31c1.66,0,3.25-.66,4.42-1.83l42.38-47.69c1.46-1.46,1.46-3.84,0-5.3l-42.38-47.69c-1.17-1.17-2.76-1.83-4.42-1.83M343.18,175.59c.76,0,1.47.3,2,.83l30.82,45.43c1.13,1.47,1.13,3.52,0,5l-30.82,45.43c-.53.53-1.25.83-2,.83H38.45c-.38,0-.68-.31-.68-.68v-96.14c0-.38.3-.68.68-.68h304.74Z" class="cls-3"/><g id="MTEXT"><path d="M201.51,100.54c-.24-.12-.44-.29-.61-.51-.17-.22-.3-.5-.39-.82s-.14-.69-.14-1.09.05-.8.15-1.15c.1-.35.24-.64.43-.89.18-.25.41-.43.67-.56.26-.13.55-.2.88-.2.37,0,.7.09.97.27.27.18.47.43.59.76l-.64.29c-.07-.21-.18-.37-.34-.48-.16-.11-.35-.17-.56-.17-.2,0-.38.05-.55.14s-.31.23-.44.4c-.13.17-.22.37-.29.61s-.1.49-.1.77v.17c0,.06,0,.1,0,.15.08-.25.23-.45.45-.59.22-.14.48-.21.79-.21.24,0,.46.04.65.12.2.08.36.19.5.34.14.15.25.32.33.52.08.2.12.42.12.66s-.04.47-.13.68c-.08.21-.2.38-.35.53-.15.14-.32.26-.53.34s-.43.12-.68.12c-.3,0-.57-.06-.81-.18ZM202.68,99.97c.12-.05.22-.12.3-.21.08-.09.15-.19.2-.31.05-.12.07-.26.07-.41s-.02-.29-.07-.41c-.05-.12-.12-.23-.2-.32s-.19-.16-.31-.21-.25-.07-.4-.07-.27.02-.39.07-.22.12-.31.2c-.09.09-.15.19-.2.31-.05.12-.07.25-.07.4s.03.28.08.41.12.24.21.34.2.17.32.22c.12.05.26.08.4.08s.26-.03.38-.08Z"/><path d="M207.72,95.38v.65h-1.92l-.25,1.54c.1-.09.22-.16.36-.21.14-.05.29-.07.46-.07.25,0,.47.04.68.13.21.08.38.2.53.35.15.15.27.33.35.54.08.21.12.44.12.69s-.04.48-.13.7c-.09.21-.21.4-.36.55-.16.15-.34.27-.56.36-.21.08-.45.13-.71.13-.2,0-.39-.03-.58-.08s-.35-.13-.5-.23c-.15-.1-.28-.22-.39-.36-.11-.14-.19-.3-.24-.48l.63-.31c.07.24.19.43.39.56.19.14.42.21.67.21.15,0,.29-.03.41-.08.13-.05.23-.12.33-.21.09-.09.16-.2.21-.33.05-.13.08-.27.08-.43s-.03-.3-.08-.44c-.05-.13-.13-.25-.22-.34s-.21-.17-.34-.22c-.13-.05-.28-.08-.44-.08-.18,0-.35.04-.49.1-.14.07-.26.17-.36.31l-.62-.15.47-2.79h2.52Z"/><path d="M211.46,95.52c.25.13.47.32.65.55.18.23.32.52.42.85.1.33.15.69.15,1.08s-.05.76-.15,1.1-.24.62-.42.86c-.18.24-.4.43-.65.56-.25.13-.52.2-.83.2s-.57-.07-.82-.2-.47-.32-.65-.56c-.18-.24-.32-.53-.42-.86-.1-.33-.15-.7-.15-1.1s.05-.75.15-1.08c.1-.33.24-.61.42-.85.18-.24.4-.42.65-.55.25-.13.53-.2.83-.2s.58.07.83.2ZM210.11,96.15c-.16.1-.29.23-.41.41-.11.18-.2.38-.27.63-.07.24-.1.51-.1.81s.03.57.09.82c.06.25.15.46.27.64.12.18.25.32.41.42.16.1.33.15.52.15s.37-.05.53-.15c.16-.1.3-.24.41-.42.11-.18.2-.39.27-.64.06-.25.09-.52.09-.82s-.03-.56-.09-.81c-.06-.25-.15-.46-.26-.63-.11-.17-.25-.31-.41-.41-.16-.1-.34-.15-.53-.15s-.37.05-.52.15Z"/><path d="M216.29,97.02v.67c.11-.24.26-.42.45-.54.18-.12.4-.18.63-.18.26,0,.48.07.67.2.19.14.32.33.41.59.11-.26.27-.45.46-.59.2-.14.43-.2.7-.2.38,0,.67.12.88.37.21.25.31.61.31,1.07v2.25h-.7v-2.16c0-.29-.07-.52-.2-.69-.13-.17-.31-.25-.54-.25-.12,0-.22.02-.32.07-.1.05-.18.11-.26.2-.07.09-.13.19-.16.32-.04.12-.06.26-.06.4v2.11h-.7v-2.16c0-.14-.02-.27-.06-.38-.04-.12-.09-.22-.15-.3-.06-.08-.14-.14-.23-.19-.09-.04-.2-.07-.31-.07s-.22.02-.32.07c-.1.05-.18.12-.25.21-.07.09-.12.2-.17.32-.04.12-.06.26-.06.41v2.09h-.7v-3.64h.68Z"/><path d="M222.48,97.02v.67c.11-.24.26-.42.45-.54.18-.12.4-.18.63-.18.26,0,.48.07.67.2.19.14.32.33.41.59.11-.26.27-.45.46-.59.2-.14.43-.2.7-.2.38,0,.67.12.88.37.21.25.31.61.31,1.07v2.25h-.7v-2.16c0-.29-.07-.52-.2-.69-.13-.17-.31-.25-.54-.25-.12,0-.22.02-.32.07-.1.05-.18.11-.26.2-.07.09-.13.19-.16.32-.04.12-.06.26-.06.4v2.11h-.7v-2.16c0-.14-.02-.27-.06-.38-.04-.12-.09-.22-.15-.3-.06-.08-.14-.14-.23-.19-.09-.04-.2-.07-.31-.07s-.22.02-.32.07c-.1.05-.18.12-.25.21-.07.09-.12.2-.17.32-.04.12-.06.26-.06.41v2.09h-.7v-3.64h.68Z"/></g><g id="MTEXT-2"><path d="M5.75,235.62c.08-.21.19-.39.33-.54.14-.15.31-.27.51-.35.2-.08.42-.13.67-.13.14,0,.28.02.42.05.14.03.28.08.41.15.14.07.27.16.42.27.14.11.29.24.45.39l1.35,1.31v-2.29h.67v3.32h-.59l-1.85-1.79c-.12-.12-.23-.22-.33-.3-.1-.08-.21-.15-.3-.2-.1-.05-.19-.09-.29-.11-.09-.02-.19-.03-.29-.03-.15,0-.28.02-.4.07-.12.04-.23.11-.32.2-.09.09-.16.19-.21.3-.05.11-.07.24-.07.39,0,.25.08.47.23.65.15.18.36.31.63.39l-.23.67c-.42-.12-.74-.32-.97-.62s-.34-.66-.34-1.1c0-.25.04-.48.12-.69Z"/><path d="M5.83,231.08c.13-.25.32-.47.55-.65.23-.18.52-.32.85-.42.33-.1.69-.15,1.08-.15s.76.05,1.1.15.62.24.86.42c.24.18.43.4.56.65.13.25.2.52.2.83s-.07.57-.2.82-.32.47-.56.65c-.24.18-.53.32-.86.42-.33.1-.7.15-1.1.15s-.75-.05-1.08-.15c-.33-.1-.61-.24-.85-.42-.24-.18-.42-.4-.55-.65-.13-.25-.2-.53-.2-.83s.07-.58.2-.83ZM6.46,232.43c.1.16.23.29.41.41.18.11.38.2.63.27.24.07.51.1.81.1s.57-.03.82-.09c.25-.06.46-.15.64-.27.18-.12.32-.25.42-.41.1-.16.15-.33.15-.52s-.05-.37-.15-.53c-.1-.16-.24-.3-.42-.41-.18-.11-.39-.2-.64-.27-.25-.06-.52-.09-.82-.09s-.56.03-.81.09c-.25.06-.46.15-.63.26-.17.11-.31.25-.41.41-.1.16-.15.34-.15.53s.05.37.15.52Z"/><path d="M5.83,226.44c.13-.25.32-.47.55-.65.23-.18.52-.32.85-.42.33-.1.69-.15,1.08-.15s.76.05,1.1.15.62.24.86.42c.24.18.43.4.56.65.13.25.2.52.2.83s-.07.57-.2.82-.32.47-.56.65c-.24.18-.53.32-.86.42-.33.1-.7.15-1.1.15s-.75-.05-1.08-.15c-.33-.1-.61-.24-.85-.42-.24-.18-.42-.4-.55-.65-.13-.25-.2-.53-.2-.83s.07-.58.2-.83ZM6.46,227.79c.1.16.23.29.41.41.18.11.38.2.63.27.24.07.51.1.81.1s.57-.03.82-.09c.25-.06.46-.15.64-.27.18-.12.32-.25.42-.41.1-.16.15-.33.15-.52s-.05-.37-.15-.53c-.1-.16-.24-.3-.42-.41-.18-.11-.39-.2-.64-.27-.25-.06-.52-.09-.82-.09s-.56.03-.81.09c-.25.06-.46.15-.63.26-.17.11-.31.25-.41.41-.1.16-.15.34-.15.53s.05.37.15.52Z"/><path d="M7.33,221.61h.67c-.24-.11-.42-.26-.54-.45-.12-.18-.18-.4-.18-.63,0-.26.07-.48.2-.67.14-.19.33-.32.59-.41-.26-.11-.45-.27-.59-.46-.14-.2-.2-.43-.2-.7,0-.38.12-.67.37-.88.25-.21.61-.31,1.07-.31h2.25v.7h-2.16c-.29,0-.52.07-.69.2-.17.13-.25.31-.25.54,0,.12.02.22.07.32.05.1.11.18.2.26.09.07.19.13.32.16.12.04.26.06.4.06h2.11v.7h-2.16c-.14,0-.27.02-.38.06-.12.04-.22.09-.3.15-.08.06-.14.14-.19.23-.04.09-.07.2-.07.31s.02.22.07.32c.05.1.12.18.21.25.09.07.2.12.32.17.12.04.26.06.41.06h2.09v.7h-3.64v-.68Z"/><path d="M7.33,215.43h.67c-.24-.11-.42-.26-.54-.45-.12-.18-.18-.4-.18-.63,0-.26.07-.48.2-.67.14-.19.33-.32.59-.41-.26-.11-.45-.27-.59-.46-.14-.2-.2-.43-.2-.7,0-.38.12-.67.37-.88.25-.21.61-.31,1.07-.31h2.25v.7h-2.16c-.29,0-.52.07-.69.2-.17.13-.25.31-.25.54,0,.12.02.22.07.32.05.1.11.18.2.26.09.07.19.13.32.16.12.04.26.06.4.06h2.11v.7h-2.16c-.14,0-.27.02-.38.06-.12.04-.22.09-.3.15-.08.06-.14.14-.19.23-.04.09-.07.2-.07.31s.02.22.07.32c.05.1.12.18.21.25.09.07.2.12.32.17.12.04.26.06.41.06h2.09v.7h-3.64v-.68Z"/></g><g id="MTEXT-3"><path d="M5.68,131.13h5.29v.72h-4.54l.64,1.3h-.73l-.67-1.36v-.67Z"/><path d="M5.83,127.43c.13-.25.32-.47.55-.65.23-.18.52-.32.85-.42.33-.1.69-.15,1.08-.15s.76.05,1.1.15.62.24.86.42c.24.18.43.4.56.65.13.25.2.52.2.83s-.07.57-.2.82-.32.47-.56.65c-.24.18-.53.32-.86.42-.33.1-.7.15-1.1.15s-.75-.05-1.08-.15c-.33-.1-.61-.24-.85-.42-.24-.18-.42-.4-.55-.65-.13-.25-.2-.53-.2-.83s.07-.58.2-.83ZM6.46,128.78c.1.16.23.29.41.41.18.11.38.2.63.27.24.07.51.1.81.1s.57-.03.82-.09c.25-.06.46-.15.64-.27.18-.12.32-.25.42-.41.1-.16.15-.33.15-.52s-.05-.37-.15-.53c-.1-.16-.24-.3-.42-.41-.18-.11-.39-.2-.64-.27-.25-.06-.52-.09-.82-.09s-.56.03-.81.09c-.25.06-.46.15-.63.26-.17.11-.31.25-.41.41-.1.16-.15.34-.15.53s.05.37.15.52Z"/><path d="M7.33,122.6h.67c-.24-.11-.42-.26-.54-.45-.12-.18-.18-.4-.18-.63,0-.26.07-.48.2-.67.14-.19.33-.32.59-.41-.26-.11-.45-.27-.59-.46-.14-.2-.2-.43-.2-.7,0-.38.12-.67.37-.88.25-.21.61-.31,1.07-.31h2.25v.7h-2.16c-.29,0-.52.07-.69.2-.17.13-.25.31-.25.54,0,.12.02.22.07.32.05.1.11.18.2.26.09.07.19.13.32.16.12.04.26.06.4.06h2.11v.7h-2.16c-.14,0-.27.02-.38.06-.12.04-.22.09-.3.15-.08.06-.14.14-.19.23-.04.09-.07.2-.07.31s.02.22.07.32c.05.1.12.18.21.25.09.07.2.12.32.17.12.04.26.06.41.06h2.09v.7h-3.64v-.68Z"/><path d="M7.33,116.42h.67c-.24-.11-.42-.26-.54-.45-.12-.18-.18-.4-.18-.63,0-.26.07-.48.2-.67.14-.19.33-.32.59-.41-.26-.11-.45-.27-.59-.46-.14-.2-.2-.43-.2-.7,0-.38.12-.67.37-.88.25-.21.61-.31,1.07-.31h2.25v.7h-2.16c-.29,0-.52.07-.69.2-.17.13-.25.31-.25.54,0,.12.02.22.07.32.05.1.11.18.2.26.09.07.19.13.32.16.12.04.26.06.4.06h2.11v.7h-2.16c-.14,0-.27.02-.38.06-.12.04-.22.09-.3.15-.08.06-.14.14-.19.23-.04.09-.07.2-.07.31s.02.22.07.32c.05.1.12.18.21.25.09.07.2.12.32.17.12.04.26.06.41.06h2.09v.7h-3.64v-.68Z"/></g><line y2="105.42" x2="398.65" y1="105.42" x1="28.91" class="cls-2"/><rect height="1.95" width=".3" y="104.44" x="28.76" class="cls-4"/><rect height="1.95" width=".3" y="104.44" x="398.5" class="cls-4"/><line y2="125.1" x2="15.73" y1="119.74" x1="15.73" class="cls-2"/><rect height=".3" width="1.95" y="119.59" x="14.75" class="cls-4"/><rect height=".3" width="1.95" y="124.95" x="14.75" class="cls-4"/><line y2="280.78" x2="15.73" y1="167.92" x1="15.73" class="cls-2"/><rect height=".3" width="1.95" y="167.77" x="14.75" class="cls-4"/><rect height=".3" width="1.95" y="280.63" x="14.75" class="cls-4"/><rect height="5.66" width="367.76" y="119.59" x="29.9" class="cls-3"/><rect height="113.16" width="5.66" y="167.77" x="440.18" class="cls-3"/></g></g></g></svg>