<svg viewBox="0 0 531.27 288" xmlns:xlink="http://www.w3.org/1999/xlink" xmlns="http://www.w3.org/2000/svg" id="Camada_2"><defs><style>.cls-1,.cls-2,.cls-3,.cls-4,.cls-5,.cls-6,.cls-7,.cls-8{fill:none;}.cls-2{stroke-width:.13px;}.cls-2,.cls-3,.cls-4,.cls-5,.cls-6,.cls-7,.cls-8{stroke:#000;stroke-linecap:round;stroke-linejoin:round;}.cls-3{stroke-width:.1px;}.cls-4{stroke-width:.1px;}.cls-5{stroke-width:.1px;}.cls-6{stroke-width:.1px;}.cls-7{stroke-width:.1px;}.cls-8{stroke-width:.1px;}</style><symbol viewBox="0 0 531.27 288" id="fundo_transparente"><rect height="288" width="531.27" x="0" class="cls-1"/></symbol></defs><g id="RePlastic"><g id="abrigo_Green"><use xlink:href="#fundo_transparente" height="288" width="531.27"/><g id="LINE"><line y2="191.29" x2="14.17" y1="283.97" x1="14.17" class="cls-2"/><rect height=".13" width=".86" y="283.91" x="13.74"/><rect height=".13" width=".86" y="191.22" x="13.74"/></g><g id="MTEXT"><path d="M4.42,249.72c.08-.2.18-.38.32-.52.14-.14.3-.26.49-.34.19-.08.41-.12.65-.12.14,0,.27.02.41.05.14.03.27.08.4.15.13.07.27.15.4.26s.28.23.44.38l1.31,1.27v-2.22h.64v3.21h-.57l-1.8-1.73c-.11-.11-.22-.21-.32-.29-.1-.08-.2-.14-.29-.19-.1-.05-.19-.08-.28-.1-.09-.02-.18-.03-.28-.03-.14,0-.27.02-.39.06s-.22.11-.31.19c-.09.08-.15.18-.2.29s-.07.24-.07.38c0,.24.07.45.22.63.15.18.35.3.61.38l-.22.65c-.41-.11-.72-.31-.94-.6-.22-.29-.33-.64-.33-1.07,0-.24.04-.47.12-.67Z"/><path d="M9.36,247c-.12.23-.28.43-.5.59s-.48.29-.8.38c-.31.09-.67.13-1.05.13s-.78-.05-1.11-.15c-.33-.1-.62-.24-.86-.41s-.42-.4-.55-.65-.19-.54-.19-.85c0-.36.09-.68.26-.94.17-.26.42-.46.74-.57l.28.62c-.2.06-.36.17-.47.33-.11.15-.16.33-.16.54,0,.19.05.37.14.53s.22.3.38.42.36.21.59.28c.23.06.48.09.74.09h.17c.05,0,.1,0,.14,0-.24-.08-.43-.22-.57-.43s-.21-.47-.21-.77c0-.23.04-.44.11-.63.08-.19.19-.35.33-.49.14-.14.31-.24.5-.32.19-.08.41-.12.64-.12s.46.04.66.12c.2.08.37.19.51.34s.25.31.33.52c.08.2.12.42.12.66,0,.29-.06.55-.17.78ZM8.8,245.87c-.05-.12-.12-.21-.2-.29s-.19-.14-.31-.19-.25-.07-.4-.07-.28.02-.4.07c-.12.05-.22.11-.31.2-.09.08-.16.18-.2.3s-.07.25-.07.39.02.26.07.38c.05.12.11.21.2.3s.18.15.3.2c.12.05.24.07.38.07s.27-.03.4-.08c.12-.05.23-.12.33-.21s.16-.19.21-.31c.05-.12.07-.25.07-.38s-.02-.25-.07-.37Z"/><path d="M4.36,242.07h5.12v.7h-4.39l.62,1.26h-.7l-.64-1.32v-.64Z"/><path d="M4.5,238.48c.13-.24.31-.45.53-.62.23-.17.5-.31.82-.41s.67-.15,1.05-.15.74.05,1.06.15c.32.1.6.23.83.41.23.18.41.38.54.62.13.24.19.51.19.8s-.06.55-.19.8c-.13.25-.31.46-.54.63-.23.17-.51.31-.83.41-.32.1-.68.15-1.06.15s-.73-.05-1.05-.15c-.32-.1-.6-.23-.82-.41-.23-.17-.41-.38-.53-.62-.13-.24-.19-.51-.19-.8s.06-.56.19-.8ZM5.11,239.79c.09.15.23.28.4.39.17.11.37.2.61.26.23.06.49.1.78.1s.55-.03.8-.09.45-.15.62-.26c.17-.11.31-.25.41-.4s.15-.32.15-.5-.05-.35-.15-.51-.23-.29-.41-.4c-.17-.11-.38-.2-.62-.26s-.5-.09-.79-.09-.55.03-.78.09c-.24.06-.44.15-.61.25-.17.11-.3.24-.4.4-.1.16-.14.33-.14.51s.05.35.14.51Z"/><path d="M5.95,233.81h.64c-.23-.11-.4-.25-.52-.43-.12-.18-.18-.38-.18-.61,0-.25.07-.46.2-.65.13-.18.32-.31.57-.39-.25-.11-.44-.26-.57-.45-.13-.19-.2-.42-.2-.68,0-.37.12-.65.36-.85.24-.2.59-.3,1.03-.3h2.18v.68h-2.09c-.28,0-.5.06-.66.19s-.24.3-.24.52c0,.11.02.22.07.31.04.1.11.18.2.25.09.07.19.12.31.16s.25.05.39.05h2.04v.68h-2.09c-.14,0-.26.02-.37.05-.11.04-.21.08-.29.15s-.14.14-.18.22c-.04.09-.06.19-.06.3s.02.21.07.31c.04.09.11.18.2.24.09.07.19.12.31.16.12.04.25.06.4.06h2.03v.68h-3.52v-.66Z"/><path d="M5.95,227.82h.64c-.23-.11-.4-.25-.52-.43-.12-.18-.18-.38-.18-.61,0-.25.07-.46.2-.65.13-.18.32-.31.57-.39-.25-.11-.44-.26-.57-.45-.13-.19-.2-.42-.2-.68,0-.37.12-.65.36-.85.24-.2.59-.3,1.03-.3h2.18v.68h-2.09c-.28,0-.5.06-.66.19s-.24.3-.24.52c0,.11.02.22.07.31.04.1.11.18.2.25.09.07.19.12.31.16s.25.05.39.05h2.04v.68h-2.09c-.14,0-.26.02-.37.05-.11.04-.21.08-.29.15s-.14.14-.18.22c-.04.09-.06.19-.06.3s.02.21.07.31c.04.09.11.18.2.24.09.07.19.12.31.16.12.04.25.06.4.06h2.03v.68h-3.52v-.66Z"/></g><rect height="9.34" width="91.24" y="274.59" x="40.34" class="cls-3"/><rect height="9.34" width="91.24" y="274.59" x="137.28" class="cls-3"/><rect height="4.67" width="91.24" y="269.92" x="40.34" class="cls-4"/><rect height="4.67" width="91.24" y="269.92" x="137.28" class="cls-4"/><rect height="4.67" width="91.24" y="274.59" x="40.34" class="cls-4"/><rect height="4.67" width="91.24" y="274.59" x="137.28" class="cls-4"/><rect height="4.67" width="91.24" y="279.26" x="40.34" class="cls-4"/><rect height="4.67" width="91.24" y="279.26" x="137.28" class="cls-4"/><rect height="4.67" width="91.24" y="265.24" x="40.34" class="cls-4"/><rect height="4.67" width="91.24" y="265.24" x="137.28" class="cls-4"/><rect height="4.67" width="91.24" y="260.57" x="40.34" class="cls-4"/><rect height="4.67" width="91.24" y="260.57" x="137.28" class="cls-4"/><rect height="4.67" width="91.24" y="255.9" x="40.34" class="cls-4"/><rect height="4.67" width="91.24" y="255.9" x="137.28" class="cls-4"/><rect height="4.67" width="91.24" y="251.23" x="40.34" class="cls-4"/><rect height="4.67" width="91.24" y="251.23" x="137.28" class="cls-4"/><rect height="4.67" width="91.24" y="246.55" x="40.34" class="cls-4"/><rect height="4.67" width="91.24" y="246.55" x="137.28" class="cls-4"/><rect height="4.67" width="91.24" y="241.88" x="40.34" class="cls-4"/><rect height="4.67" width="91.24" y="241.88" x="137.28" class="cls-4"/><rect height="4.67" width="91.24" y="237.21" x="40.34" class="cls-4"/><rect height="4.67" width="91.24" y="237.21" x="137.28" class="cls-4"/><rect height="4.67" width="91.24" y="232.54" x="40.34" class="cls-4"/><rect height="4.67" width="91.24" y="232.54" x="137.28" class="cls-4"/><rect height="4.67" width="91.24" y="227.87" x="40.34" class="cls-4"/><rect height="4.67" width="91.24" y="227.87" x="137.28" class="cls-4"/><rect height="4.67" width="91.24" y="223.19" x="40.34" class="cls-4"/><rect height="4.67" width="91.24" y="223.19" x="137.28" class="cls-4"/><rect height="4.67" width="91.24" y="218.52" x="40.34" class="cls-4"/><rect height="4.67" width="91.24" y="218.52" x="137.28" class="cls-4"/><rect height="4.67" width="91.24" y="213.85" x="40.34" class="cls-4"/><rect height="4.67" width="91.24" y="213.85" x="137.28" class="cls-4"/><rect height="4.67" width="91.24" y="209.18" x="40.34" class="cls-4"/><rect height="4.67" width="91.24" y="209.18" x="137.28" class="cls-4"/><rect height="4.67" width="91.24" y="204.5" x="40.34" class="cls-4"/><rect height="4.67" width="91.24" y="204.5" x="137.28" class="cls-4"/><rect height="4.67" width="91.24" y="199.83" x="40.34" class="cls-4"/><rect height="4.67" width="91.24" y="199.83" x="137.28" class="cls-4"/><rect height="3.82" width="91.24" y="196.01" x="40.34" class="cls-4"/><rect height="3.82" width="91.24" y="196.01" x="137.28" class="cls-4"/><rect height="87.92" width="5.7" y="196.01" x="34.64" class="cls-8"/><rect height="87.92" width="5.7" y="196.01" x="131.58" class="cls-8"/><rect height="87.92" width="5.7" y="196.01" x="228.52" class="cls-8"/><rect height="4.67" width="212.17" y="191.33" x="28.35" class="cls-4"/><rect height="4.67" width="1.24" y="191.33" x="28.35" class="cls-4"/><rect height="4.67" width="1.24" y="191.33" x="239.27" class="cls-4"/><rect height="3.82" width="6.29" y="196.01" x="28.35" class="cls-4"/><rect height="3.82" width="91.24" y="196.01" x="40.34" class="cls-4"/><rect height="3.82" width="91.24" y="196.01" x="137.28" class="cls-4"/><rect height="3.82" width="6.29" y="196.01" x="234.22" class="cls-4"/><rect height="3.83" width="1.24" y="196" x="28.35" class="cls-4"/><rect height="3.83" width="1.24" y="196" x="239.27" class="cls-4"/><g id="LINE-2"><line y2="28.25" x2="14.17" y1="148.74" x1="14.17" class="cls-2"/><rect height=".13" width=".86" y="148.68" x="13.74"/><rect height=".13" width=".86" y="28.18" x="13.74"/></g><g id="MTEXT-2"><path d="M4.36,100.36h.54l.95.62c.05.04.1.07.14.1.04.03.08.06.13.09.04.03.08.06.12.09.04.03.09.06.14.09.02-.19.08-.35.17-.51s.2-.28.34-.4c.14-.11.29-.2.47-.26.17-.06.36-.09.57-.09.23,0,.45.04.65.12.2.08.36.2.5.35s.25.32.33.53c.08.2.12.42.12.67,0,.2-.03.39-.08.56-.05.18-.13.34-.22.48-.1.14-.22.27-.36.38-.14.11-.3.19-.47.25l-.3-.61c.23-.08.42-.21.56-.4.14-.19.21-.4.21-.65,0-.14-.02-.27-.07-.39-.04-.12-.11-.22-.2-.3-.09-.08-.19-.15-.31-.2-.12-.05-.25-.07-.39-.07s-.28.03-.41.08c-.12.05-.23.13-.31.22-.09.09-.15.2-.2.33-.05.13-.07.27-.07.42v.34l-.43.07-1.04-.69s-.08-.06-.12-.08c-.03-.02-.07-.05-.11-.08-.04-.03-.08-.06-.11-.08s-.07-.06-.12-.09v2.11h-.63v-2.99Z"/><path d="M4.36,96.6h5.12v.71h-4.22s.07.04.1.06c.02.02.06.04.09.07l1.95,1.3s.06.04.08.05.05.03.08.05v-3.1h.62v3.86h-.57l-3.24-2.15v-.84Z"/><path d="M4.42,93.19c.08-.2.18-.38.32-.52.14-.14.3-.26.49-.34.19-.08.41-.12.65-.12.14,0,.27.02.41.05.14.03.27.08.4.15.13.07.27.15.4.26s.28.23.44.38l1.31,1.27v-2.22h.64v3.21h-.57l-1.8-1.73c-.11-.11-.22-.21-.32-.29-.1-.08-.2-.14-.29-.19-.1-.05-.19-.08-.28-.1-.09-.02-.18-.03-.28-.03-.14,0-.27.02-.39.06s-.22.11-.31.19c-.09.08-.15.18-.2.29s-.07.24-.07.38c0,.24.07.45.22.63.15.18.35.3.61.38l-.22.65c-.41-.11-.72-.31-.94-.6-.22-.29-.33-.64-.33-1.07,0-.24.04-.47.12-.67Z"/><path d="M4.5,88.79c.13-.24.31-.45.53-.62.23-.17.5-.31.82-.41s.67-.15,1.05-.15.74.05,1.06.15c.32.1.6.23.83.41.23.18.41.38.54.62.13.24.19.51.19.8s-.06.55-.19.8c-.13.25-.31.46-.54.63-.23.17-.51.31-.83.41-.32.1-.68.15-1.06.15s-.73-.05-1.05-.15c-.32-.1-.6-.23-.82-.41-.23-.17-.41-.38-.53-.62-.13-.24-.19-.51-.19-.8s.06-.56.19-.8ZM5.11,90.1c.09.15.23.28.4.39.17.11.37.2.61.26.23.06.49.1.78.1s.55-.03.8-.09.45-.15.62-.26c.17-.11.31-.25.41-.4s.15-.32.15-.5-.05-.35-.15-.51-.23-.29-.41-.4c-.17-.11-.38-.2-.62-.26s-.5-.09-.79-.09-.55.03-.78.09c-.24.06-.44.15-.61.25-.17.11-.3.24-.4.4-.1.16-.14.33-.14.51s.05.35.14.51Z"/><path d="M5.95,84.12h.64c-.23-.11-.4-.25-.52-.43-.12-.18-.18-.38-.18-.61,0-.25.07-.46.2-.65.13-.18.32-.31.57-.39-.25-.11-.44-.26-.57-.45-.13-.19-.2-.42-.2-.68,0-.37.12-.65.36-.85.24-.2.59-.3,1.03-.3h2.18v.68h-2.09c-.28,0-.5.06-.66.19s-.24.3-.24.52c0,.11.02.22.07.31.04.1.11.18.2.25.09.07.19.12.31.16s.25.05.39.05h2.04v.68h-2.09c-.14,0-.26.02-.37.05-.11.04-.21.08-.29.15s-.14.14-.18.22c-.04.09-.06.19-.06.3s.02.21.07.31c.04.09.11.18.2.24.09.07.19.12.31.16.12.04.25.06.4.06h2.03v.68h-3.52v-.66Z"/><path d="M5.95,78.13h.64c-.23-.11-.4-.25-.52-.43-.12-.18-.18-.38-.18-.61,0-.25.07-.46.2-.65.13-.18.32-.31.57-.39-.25-.11-.44-.26-.57-.45-.13-.19-.2-.42-.2-.68,0-.37.12-.65.36-.85.24-.2.59-.3,1.03-.3h2.18v.68h-2.09c-.28,0-.5.06-.66.19s-.24.3-.24.52c0,.11.02.22.07.31.04.1.11.18.2.25.09.07.19.12.31.16s.25.05.39.05h2.04v.68h-2.09c-.14,0-.26.02-.37.05-.11.04-.21.08-.29.15s-.14.14-.18.22c-.04.09-.06.19-.06.3s.02.21.07.31c.04.09.11.18.2.24.09.07.19.12.31.16.12.04.25.06.4.06h2.03v.68h-3.52v-.66Z"/></g><g id="LINE-3"><line y2="14.01" x2="240.44" y1="14.01" x1="28.41" class="cls-2"/><rect height=".86" width=".13" y="13.58" x="28.35"/><rect height=".86" width=".13" y="13.58" x="240.38"/></g><g id="MTEXT-3"><path d="M122.49,4.19v.63h-1.86l-.24,1.49c.1-.09.22-.16.35-.21s.28-.07.44-.07c.24,0,.46.04.66.12.2.08.37.19.52.34.14.14.26.32.34.52.08.2.12.43.12.67s-.04.47-.13.67c-.08.21-.2.38-.35.53-.15.15-.33.26-.54.35-.21.08-.44.12-.69.12-.19,0-.38-.02-.56-.07-.18-.05-.34-.12-.48-.22-.15-.1-.27-.21-.38-.35-.11-.14-.18-.29-.23-.47l.61-.3c.06.23.19.41.37.55.19.13.4.2.65.2.15,0,.28-.02.4-.07.12-.05.23-.12.32-.21.09-.09.16-.19.21-.32.05-.12.07-.26.07-.42s-.03-.29-.08-.42c-.05-.13-.12-.24-.22-.33s-.2-.17-.33-.22-.27-.08-.43-.08c-.18,0-.33.03-.47.1-.14.07-.25.17-.35.3l-.6-.14.45-2.7h2.44Z"/><path d="M125.79,4.31c.23.12.43.28.59.5s.29.48.38.8c.09.31.13.67.13,1.05s-.05.78-.15,1.11c-.1.33-.24.62-.41.86s-.4.42-.65.55c-.25.13-.54.19-.85.19-.36,0-.68-.09-.94-.26-.27-.17-.46-.42-.57-.74l.62-.28c.06.2.17.36.33.47s.33.16.54.16c.19,0,.37-.04.53-.14s.3-.22.42-.38c.12-.17.21-.36.28-.59.06-.23.1-.48.1-.74v-.17c0-.05,0-.1,0-.14-.08.24-.22.44-.43.57-.21.14-.47.21-.77.21-.23,0-.44-.04-.63-.12-.19-.08-.35-.19-.49-.33-.14-.14-.24-.31-.32-.5-.08-.19-.12-.41-.12-.64s.04-.46.12-.66c.08-.2.19-.37.34-.51.14-.14.31-.25.52-.33s.42-.12.65-.12c.29,0,.55.06.78.17ZM124.66,4.87c-.12.05-.21.12-.29.2-.08.08-.14.19-.19.31-.05.12-.07.25-.07.4s.02.28.07.4c.05.12.11.22.2.31.08.09.18.16.3.2s.25.07.39.07.26-.02.38-.07.21-.11.3-.2c.08-.08.15-.18.2-.3s.07-.24.07-.38-.03-.27-.08-.4c-.05-.12-.12-.23-.21-.33-.09-.09-.19-.16-.31-.21-.12-.05-.25-.07-.38-.07s-.25.02-.37.07Z"/><path d="M128.45,9.26c-.21-.07-.39-.17-.54-.3-.15-.13-.27-.28-.35-.46-.09-.18-.13-.37-.13-.58,0-.15.02-.3.07-.44.05-.14.11-.27.2-.38.09-.12.19-.21.3-.29.12-.08.24-.14.38-.18-.13-.05-.25-.11-.35-.19-.1-.08-.19-.17-.26-.26-.07-.1-.13-.21-.16-.32s-.05-.24-.05-.37c0-.2.04-.38.12-.54s.19-.31.33-.43.31-.22.51-.28c.2-.07.41-.1.63-.1s.44.03.63.1c.19.07.36.16.5.28.14.12.25.26.34.42s.12.35.12.55c0,.13-.02.25-.06.37-.04.12-.09.23-.17.33-.07.1-.16.19-.26.26-.1.07-.21.13-.34.18.14.04.27.1.38.18.12.08.21.18.3.3.08.12.15.25.19.39s.07.28.07.43c0,.21-.04.4-.13.58-.09.18-.2.33-.35.46-.15.13-.33.23-.54.3s-.44.1-.7.1-.49-.04-.7-.1ZM129.54,8.65c.12-.04.23-.1.31-.18.09-.08.15-.17.2-.28.05-.11.07-.23.07-.36s-.02-.25-.07-.36-.12-.2-.21-.28c-.09-.08-.19-.14-.32-.19-.12-.05-.26-.07-.4-.07s-.27.02-.39.06c-.12.04-.23.1-.32.19-.09.08-.16.18-.2.29-.05.11-.07.23-.07.36,0,.14.02.26.07.37.05.11.12.2.2.28.09.08.19.14.32.18.12.04.26.06.4.06s.28-.02.4-.06ZM128.8,4.85c-.11.04-.2.09-.27.16-.07.07-.13.15-.18.25s-.06.2-.06.32c0,.11.02.21.06.31.04.1.1.18.18.25.08.07.17.12.27.16.11.04.22.06.34.06s.24-.02.34-.06c.1-.04.19-.09.27-.16.08-.07.14-.15.18-.25.04-.1.06-.2.06-.31,0-.12-.02-.22-.06-.32s-.1-.18-.18-.25c-.08-.07-.17-.12-.27-.16-.1-.04-.22-.06-.35-.06s-.24.02-.34.06Z"/><path d="M134.17,4.33c.24.13.45.31.62.53.17.23.31.5.41.82s.15.67.15,1.05-.05.74-.15,1.06c-.1.32-.23.6-.41.83-.18.23-.38.41-.62.54-.24.13-.51.19-.8.19s-.55-.06-.8-.19c-.25-.13-.46-.31-.63-.54-.17-.23-.31-.51-.41-.83-.1-.32-.15-.68-.15-1.06s.05-.73.15-1.05c.1-.32.23-.6.41-.82.17-.23.38-.41.62-.53.24-.13.51-.19.8-.19s.56.06.8.19ZM132.86,4.95c-.15.09-.28.23-.39.4-.11.17-.2.37-.26.61-.06.23-.1.49-.1.78s.03.55.09.8.15.45.26.62c.11.17.25.31.4.41s.32.15.5.15.35-.05.51-.15.29-.23.4-.41c.11-.17.2-.38.26-.62s.09-.5.09-.79-.03-.55-.09-.78c-.06-.24-.15-.44-.25-.61-.11-.17-.24-.3-.4-.4-.16-.1-.33-.14-.51-.14s-.35.05-.51.14Z"/><path d="M138.84,5.79v.64c.11-.23.25-.4.43-.52.18-.12.38-.18.61-.18.25,0,.46.07.65.2.18.13.31.32.39.57.11-.25.26-.44.45-.57.19-.13.42-.2.68-.2.37,0,.65.12.85.36.2.24.3.59.3,1.03v2.18h-.68v-2.09c0-.28-.06-.5-.19-.66s-.3-.24-.52-.24c-.11,0-.22.02-.31.07-.1.04-.18.11-.25.2-.07.09-.12.19-.16.31s-.05.25-.05.39v2.04h-.68v-2.09c0-.14-.02-.26-.05-.37-.04-.11-.08-.21-.15-.29s-.14-.14-.22-.18c-.09-.04-.19-.06-.3-.06s-.21.02-.31.07c-.09.04-.18.11-.24.2-.07.09-.12.19-.16.31-.04.12-.06.25-.06.4v2.03h-.68v-3.52h.66Z"/><path d="M144.83,5.79v.64c.11-.23.25-.4.43-.52.18-.12.38-.18.61-.18.25,0,.46.07.65.2.18.13.31.32.39.57.11-.25.26-.44.45-.57.19-.13.42-.2.68-.2.37,0,.65.12.85.36.2.24.3.59.3,1.03v2.18h-.68v-2.09c0-.28-.06-.5-.19-.66s-.3-.24-.52-.24c-.11,0-.22.02-.31.07-.1.04-.18.11-.25.2-.07.09-.12.19-.16.31s-.05.25-.05.39v2.04h-.68v-2.09c0-.14-.02-.26-.05-.37-.04-.11-.08-.21-.15-.29s-.14-.14-.22-.18c-.09-.04-.19-.06-.3-.06s-.21.02-.31.07c-.09.04-.18.11-.24.2-.07.09-.12.19-.16.31-.04.12-.06.25-.06.4v2.03h-.68v-3.52h.66Z"/></g><rect height="120.63" width=".85" y="28.18" x="28.35" class="cls-7"/><rect height="120.63" width=".85" y="28.18" x="239.66" class="cls-7"/><rect height="1.09" width="210.46" y="147.72" x="29.2" class="cls-7"/><polyline points="29.56 147.72 29.56 28.18 239.27 28.18 239.27 147.72" class="cls-7"/><line y2="147.72" x2="239.66" y1="28.18" x1="239.66" class="cls-7"/><line y2="147.72" x2="237.38" y1="28.18" x1="237.38" class="cls-7"/><line y2="147.72" x2="237.07" y1="28.18" x1="237.07" class="cls-7"/><line y2="147.72" x2="235.09" y1="28.18" x1="235.09" class="cls-7"/><line y2="147.72" x2="234.96" y1="28.18" x1="234.96" class="cls-7"/><line y2="147.72" x2="234.6" y1="28.18" x1="234.6" class="cls-7"/><line y2="147.72" x2="234.46" y1="28.18" x1="234.46" class="cls-7"/><line y2="147.72" x2="233.76" y1="28.18" x1="233.76" class="cls-7"/><line y2="147.72" x2="233.62" y1="28.18" x1="233.62" class="cls-7"/><line y2="147.72" x2="233.17" y1="28.18" x1="233.17" class="cls-7"/><line y2="147.72" x2="233.03" y1="28.18" x1="233.03" class="cls-7"/><line y2="147.72" x2="226.16" y1="28.18" x1="226.16" class="cls-7"/><line y2="147.72" x2="226.02" y1="28.18" x1="226.02" class="cls-7"/><line y2="147.72" x2="225.67" y1="28.18" x1="225.67" class="cls-7"/><line y2="147.72" x2="225.53" y1="28.18" x1="225.53" class="cls-7"/><line y2="147.72" x2="224.83" y1="28.18" x1="224.83" class="cls-7"/><line y2="147.72" x2="224.69" y1="28.18" x1="224.69" class="cls-7"/><line y2="147.72" x2="224.24" y1="28.18" x1="224.24" class="cls-7"/><line y2="147.72" x2="224.1" y1="28.18" x1="224.1" class="cls-7"/><line y2="147.72" x2="230.99" y1="28.18" x1="230.99" class="cls-7"/><line y2="147.72" x2="230.67" y1="28.18" x1="230.67" class="cls-7"/><line y2="147.72" x2="228.67" y1="28.18" x1="228.67" class="cls-7"/><line y2="147.72" x2="228.35" y1="28.18" x1="228.35" class="cls-7"/><line y2="147.72" x2="221.66" y1="28.18" x1="221.66" class="cls-7"/><line y2="147.72" x2="222.05" y1="28.18" x1="222.05" class="cls-7"/><line y2="147.72" x2="219.77" y1="28.18" x1="219.77" class="cls-7"/><line y2="147.72" x2="219.46" y1="28.18" x1="219.46" class="cls-7"/><line y2="147.72" x2="217.48" y1="28.18" x1="217.48" class="cls-7"/><line y2="147.72" x2="217.34" y1="28.18" x1="217.34" class="cls-7"/><line y2="147.72" x2="216.99" y1="28.18" x1="216.99" class="cls-7"/><line y2="147.72" x2="216.85" y1="28.18" x1="216.85" class="cls-7"/><line y2="147.72" x2="216.15" y1="28.18" x1="216.15" class="cls-7"/><line y2="147.72" x2="216.01" y1="28.18" x1="216.01" class="cls-7"/><line y2="147.72" x2="215.56" y1="28.18" x1="215.56" class="cls-7"/><line y2="147.72" x2="215.42" y1="28.18" x1="215.42" class="cls-7"/><line y2="147.72" x2="208.55" y1="28.18" x1="208.55" class="cls-7"/><line y2="147.72" x2="208.41" y1="28.18" x1="208.41" class="cls-7"/><line y2="147.72" x2="208.06" y1="28.18" x1="208.06" class="cls-7"/><line y2="147.72" x2="207.92" y1="28.18" x1="207.92" class="cls-7"/><line y2="147.72" x2="207.22" y1="28.18" x1="207.22" class="cls-7"/><line y2="147.72" x2="207.08" y1="28.18" x1="207.08" class="cls-7"/><line y2="147.72" x2="206.63" y1="28.18" x1="206.63" class="cls-7"/><line y2="147.72" x2="206.49" y1="28.18" x1="206.49" class="cls-7"/><line y2="147.72" x2="213.38" y1="28.18" x1="213.38" class="cls-7"/><line y2="147.72" x2="213.06" y1="28.18" x1="213.06" class="cls-7"/><line y2="147.72" x2="211.06" y1="28.18" x1="211.06" class="cls-7"/><line y2="147.72" x2="210.74" y1="28.18" x1="210.74" class="cls-7"/><line y2="147.72" x2="204.05" y1="28.18" x1="204.05" class="cls-7"/><line y2="147.72" x2="204.44" y1="28.18" x1="204.44" class="cls-7"/><line y2="147.72" x2="202.16" y1="28.18" x1="202.16" class="cls-7"/><line y2="147.72" x2="201.85" y1="28.18" x1="201.85" class="cls-7"/><line y2="147.72" x2="199.87" y1="28.18" x1="199.87" class="cls-7"/><line y2="147.72" x2="199.73" y1="28.18" x1="199.73" class="cls-7"/><line y2="147.72" x2="199.38" y1="28.18" x1="199.38" class="cls-7"/><line y2="147.72" x2="199.24" y1="28.18" x1="199.24" class="cls-7"/><line y2="147.72" x2="198.54" y1="28.18" x1="198.54" class="cls-7"/><line y2="147.72" x2="198.4" y1="28.18" x1="198.4" class="cls-7"/><line y2="147.72" x2="197.95" y1="28.18" x1="197.95" class="cls-7"/><line y2="147.72" x2="197.81" y1="28.18" x1="197.81" class="cls-7"/><line y2="147.72" x2="190.94" y1="28.18" x1="190.94" class="cls-7"/><line y2="147.72" x2="190.8" y1="28.18" x1="190.8" class="cls-7"/><line y2="147.72" x2="190.45" y1="28.18" x1="190.45" class="cls-7"/><line y2="147.72" x2="190.31" y1="28.18" x1="190.31" class="cls-7"/><line y2="147.72" x2="189.61" y1="28.18" x1="189.61" class="cls-7"/><line y2="147.72" x2="189.47" y1="28.18" x1="189.47" class="cls-7"/><line y2="147.72" x2="189.02" y1="28.18" x1="189.02" class="cls-7"/><line y2="147.72" x2="188.88" y1="28.18" x1="188.88" class="cls-7"/><line y2="147.72" x2="195.77" y1="28.18" x1="195.77" class="cls-7"/><line y2="147.72" x2="195.45" y1="28.18" x1="195.45" class="cls-7"/><line y2="147.72" x2="193.44" y1="28.18" x1="193.44" class="cls-7"/><line y2="147.72" x2="193.13" y1="28.18" x1="193.13" class="cls-7"/><line y2="147.72" x2="186.44" y1="28.18" x1="186.44" class="cls-7"/><line y2="147.72" x2="186.83" y1="28.18" x1="186.83" class="cls-7"/><line y2="147.72" x2="184.55" y1="28.18" x1="184.55" class="cls-7"/><line y2="147.72" x2="184.24" y1="28.18" x1="184.24" class="cls-7"/><line y2="147.72" x2="182.26" y1="28.18" x1="182.26" class="cls-7"/><line y2="147.72" x2="182.12" y1="28.18" x1="182.12" class="cls-7"/><line y2="147.72" x2="181.77" y1="28.18" x1="181.77" class="cls-7"/><line y2="147.72" x2="181.63" y1="28.18" x1="181.63" class="cls-7"/><line y2="147.72" x2="180.93" y1="28.18" x1="180.93" class="cls-7"/><line y2="147.72" x2="180.79" y1="28.18" x1="180.79" class="cls-7"/><line y2="147.72" x2="180.34" y1="28.18" x1="180.34" class="cls-7"/><line y2="147.72" x2="180.2" y1="28.18" x1="180.2" class="cls-7"/><line y2="147.72" x2="173.33" y1="28.18" x1="173.33" class="cls-7"/><line y2="147.72" x2="173.19" y1="28.18" x1="173.19" class="cls-7"/><line y2="147.72" x2="172.84" y1="28.18" x1="172.84" class="cls-7"/><line y2="147.72" x2="172.7" y1="28.18" x1="172.7" class="cls-7"/><line y2="147.72" x2="172" y1="28.18" x1="172" class="cls-7"/><line y2="147.72" x2="171.86" y1="28.18" x1="171.86" class="cls-7"/><line y2="147.72" x2="171.41" y1="28.18" x1="171.41" class="cls-7"/><line y2="147.72" x2="171.27" y1="28.18" x1="171.27" class="cls-7"/><line y2="147.72" x2="178.16" y1="28.18" x1="178.16" class="cls-7"/><line y2="147.72" x2="177.84" y1="28.18" x1="177.84" class="cls-7"/><line y2="147.72" x2="175.83" y1="28.18" x1="175.83" class="cls-7"/><line y2="147.72" x2="175.52" y1="28.18" x1="175.52" class="cls-7"/><line y2="147.72" x2="168.83" y1="28.18" x1="168.83" class="cls-7"/><line y2="147.72" x2="169.22" y1="28.18" x1="169.22" class="cls-7"/><line y2="147.72" x2="166.94" y1="28.18" x1="166.94" class="cls-7"/><line y2="147.72" x2="166.63" y1="28.18" x1="166.63" class="cls-7"/><line y2="147.72" x2="164.65" y1="28.18" x1="164.65" class="cls-7"/><line y2="147.72" x2="164.51" y1="28.18" x1="164.51" class="cls-7"/><line y2="147.72" x2="164.16" y1="28.18" x1="164.16" class="cls-7"/><line y2="147.72" x2="164.02" y1="28.18" x1="164.02" class="cls-7"/><line y2="147.72" x2="163.32" y1="28.18" x1="163.32" class="cls-7"/><line y2="147.72" x2="163.18" y1="28.18" x1="163.18" class="cls-7"/><line y2="147.72" x2="162.73" y1="28.18" x1="162.73" class="cls-7"/><line y2="147.72" x2="162.59" y1="28.18" x1="162.59" class="cls-7"/><line y2="147.72" x2="155.72" y1="28.18" x1="155.72" class="cls-7"/><line y2="147.72" x2="155.58" y1="28.18" x1="155.58" class="cls-7"/><line y2="147.72" x2="155.23" y1="28.18" x1="155.23" class="cls-7"/><line y2="147.72" x2="155.09" y1="28.18" x1="155.09" class="cls-7"/><line y2="147.72" x2="154.39" y1="28.18" x1="154.39" class="cls-7"/><line y2="147.72" x2="154.25" y1="28.18" x1="154.25" class="cls-7"/><line y2="147.72" x2="153.8" y1="28.18" x1="153.8" class="cls-7"/><line y2="147.72" x2="153.66" y1="28.18" x1="153.66" class="cls-7"/><line y2="147.72" x2="160.54" y1="28.18" x1="160.54" class="cls-7"/><line y2="147.72" x2="160.23" y1="28.18" x1="160.23" class="cls-7"/><line y2="147.72" x2="158.22" y1="28.18" x1="158.22" class="cls-7"/><line y2="147.72" x2="157.91" y1="28.18" x1="157.91" class="cls-7"/><line y2="147.72" x2="151.22" y1="28.18" x1="151.22" class="cls-7"/><line y2="147.72" x2="151.61" y1="28.18" x1="151.61" class="cls-7"/><line y2="147.72" x2="149.33" y1="28.18" x1="149.33" class="cls-7"/><line y2="147.72" x2="149.02" y1="28.18" x1="149.02" class="cls-7"/><line y2="147.72" x2="147.04" y1="28.18" x1="147.04" class="cls-7"/><line y2="147.72" x2="146.9" y1="28.18" x1="146.9" class="cls-7"/><line y2="147.72" x2="146.55" y1="28.18" x1="146.55" class="cls-7"/><line y2="147.72" x2="146.41" y1="28.18" x1="146.41" class="cls-7"/><line y2="147.72" x2="145.71" y1="28.18" x1="145.71" class="cls-7"/><line y2="147.72" x2="145.57" y1="28.18" x1="145.57" class="cls-7"/><line y2="147.72" x2="145.12" y1="28.18" x1="145.12" class="cls-7"/><line y2="147.72" x2="144.98" y1="28.18" x1="144.98" class="cls-7"/><line y2="147.72" x2="138.11" y1="28.18" x1="138.11" class="cls-7"/><line y2="147.72" x2="137.97" y1="28.18" x1="137.97" class="cls-7"/><line y2="147.72" x2="137.61" y1="28.18" x1="137.61" class="cls-7"/><line y2="147.72" x2="137.48" y1="28.18" x1="137.48" class="cls-7"/><line y2="147.72" x2="136.78" y1="28.18" x1="136.78" class="cls-7"/><line y2="147.72" x2="136.64" y1="28.18" x1="136.64" class="cls-7"/><line y2="147.72" x2="136.19" y1="28.18" x1="136.19" class="cls-7"/><line y2="147.72" x2="136.05" y1="28.18" x1="136.05" class="cls-7"/><line y2="147.72" x2="142.93" y1="28.18" x1="142.93" class="cls-7"/><line y2="147.72" x2="142.62" y1="28.18" x1="142.62" class="cls-7"/><line y2="147.72" x2="140.61" y1="28.18" x1="140.61" class="cls-7"/><line y2="147.72" x2="140.3" y1="28.18" x1="140.3" class="cls-7"/><line y2="147.72" x2="133.61" y1="28.18" x1="133.61" class="cls-7"/><line y2="147.72" x2="133.99" y1="28.18" x1="133.99" class="cls-7"/><line y2="147.72" x2="131.72" y1="28.18" x1="131.72" class="cls-7"/><line y2="147.72" x2="131.41" y1="28.18" x1="131.41" class="cls-7"/><line y2="147.72" x2="129.43" y1="28.18" x1="129.43" class="cls-7"/><line y2="147.72" x2="129.29" y1="28.18" x1="129.29" class="cls-7"/><line y2="147.72" x2="128.93" y1="28.18" x1="128.93" class="cls-7"/><line y2="147.72" x2="128.8" y1="28.18" x1="128.8" class="cls-7"/><line y2="147.72" x2="128.1" y1="28.18" x1="128.1" class="cls-7"/><line y2="147.72" x2="127.96" y1="28.18" x1="127.96" class="cls-7"/><line y2="147.72" x2="127.51" y1="28.18" x1="127.51" class="cls-7"/><line y2="147.72" x2="127.37" y1="28.18" x1="127.37" class="cls-7"/><line y2="147.72" x2="120.5" y1="28.18" x1="120.5" class="cls-7"/><line y2="147.72" x2="120.36" y1="28.18" x1="120.36" class="cls-7"/><line y2="147.72" x2="120" y1="28.18" x1="120" class="cls-7"/><line y2="147.72" x2="119.87" y1="28.18" x1="119.87" class="cls-7"/><line y2="147.72" x2="119.17" y1="28.18" x1="119.17" class="cls-7"/><line y2="147.72" x2="119.03" y1="28.18" x1="119.03" class="cls-7"/><line y2="147.72" x2="118.58" y1="28.18" x1="118.58" class="cls-7"/><line y2="147.72" x2="118.44" y1="28.18" x1="118.44" class="cls-7"/><line y2="147.72" x2="125.32" y1="28.18" x1="125.32" class="cls-7"/><line y2="147.72" x2="125.01" y1="28.18" x1="125.01" class="cls-7"/><line y2="147.72" x2="123" y1="28.18" x1="123" class="cls-7"/><line y2="147.72" x2="122.69" y1="28.18" x1="122.69" class="cls-7"/><line y2="147.72" x2="116" y1="28.18" x1="116" class="cls-7"/><line y2="147.72" x2="116.38" y1="28.18" x1="116.38" class="cls-7"/><line y2="147.72" x2="114.11" y1="28.18" x1="114.11" class="cls-7"/><line y2="147.72" x2="113.8" y1="28.18" x1="113.8" class="cls-7"/><line y2="147.72" x2="111.82" y1="28.18" x1="111.82" class="cls-7"/><line y2="147.72" x2="111.68" y1="28.18" x1="111.68" class="cls-7"/><line y2="147.72" x2="111.32" y1="28.18" x1="111.32" class="cls-7"/><line y2="147.72" x2="111.19" y1="28.18" x1="111.19" class="cls-7"/><line y2="147.72" x2="110.49" y1="28.18" x1="110.49" class="cls-7"/><line y2="147.72" x2="110.35" y1="28.18" x1="110.35" class="cls-7"/><line y2="147.72" x2="109.9" y1="28.18" x1="109.9" class="cls-7"/><line y2="147.72" x2="109.76" y1="28.18" x1="109.76" class="cls-7"/><line y2="147.72" x2="102.89" y1="28.18" x1="102.89" class="cls-7"/><line y2="147.72" x2="102.75" y1="28.18" x1="102.75" class="cls-7"/><line y2="147.72" x2="102.39" y1="28.18" x1="102.39" class="cls-7"/><line y2="147.72" x2="102.26" y1="28.18" x1="102.26" class="cls-7"/><line y2="147.72" x2="101.55" y1="28.18" x1="101.55" class="cls-7"/><line y2="147.72" x2="101.42" y1="28.18" x1="101.42" class="cls-7"/><line y2="147.72" x2="100.97" y1="28.18" x1="100.97" class="cls-7"/><line y2="147.72" x2="100.83" y1="28.18" x1="100.83" class="cls-7"/><line y2="147.72" x2="107.71" y1="28.18" x1="107.71" class="cls-7"/><line y2="147.72" x2="107.4" y1="28.18" x1="107.4" class="cls-7"/><line y2="147.72" x2="105.39" y1="28.18" x1="105.39" class="cls-7"/><line y2="147.72" x2="105.08" y1="28.18" x1="105.08" class="cls-7"/><line y2="147.72" x2="98.39" y1="28.18" x1="98.39" class="cls-7"/><line y2="147.72" x2="98.77" y1="28.18" x1="98.77" class="cls-7"/><line y2="147.72" x2="96.5" y1="28.18" x1="96.5" class="cls-7"/><line y2="147.72" x2="96.19" y1="28.18" x1="96.19" class="cls-7"/><line y2="147.72" x2="94.21" y1="28.18" x1="94.21" class="cls-7"/><line y2="147.72" x2="94.07" y1="28.18" x1="94.07" class="cls-7"/><line y2="147.72" x2="93.71" y1="28.18" x1="93.71" class="cls-7"/><line y2="147.72" x2="93.58" y1="28.18" x1="93.58" class="cls-7"/><line y2="147.72" x2="92.87" y1="28.18" x1="92.87" class="cls-7"/><line y2="147.72" x2="92.74" y1="28.18" x1="92.74" class="cls-7"/><line y2="147.72" x2="92.29" y1="28.18" x1="92.29" class="cls-7"/><line y2="147.72" x2="92.15" y1="28.18" x1="92.15" class="cls-7"/><line y2="147.72" x2="85.28" y1="28.18" x1="85.28" class="cls-7"/><line y2="147.72" x2="85.14" y1="28.18" x1="85.14" class="cls-7"/><line y2="147.72" x2="84.78" y1="28.18" x1="84.78" class="cls-7"/><line y2="147.72" x2="84.65" y1="28.18" x1="84.65" class="cls-7"/><line y2="147.72" x2="83.94" y1="28.18" x1="83.94" class="cls-7"/><line y2="147.72" x2="83.81" y1="28.18" x1="83.81" class="cls-7"/><line y2="147.72" x2="83.36" y1="28.18" x1="83.36" class="cls-7"/><line y2="147.72" x2="83.22" y1="28.18" x1="83.22" class="cls-7"/><line y2="147.72" x2="90.1" y1="28.18" x1="90.1" class="cls-7"/><line y2="147.72" x2="89.79" y1="28.18" x1="89.79" class="cls-7"/><line y2="147.72" x2="87.78" y1="28.18" x1="87.78" class="cls-7"/><line y2="147.72" x2="87.47" y1="28.18" x1="87.47" class="cls-7"/><line y2="147.72" x2="80.78" y1="28.18" x1="80.78" class="cls-7"/><line y2="147.72" x2="81.16" y1="28.18" x1="81.16" class="cls-7"/><line y2="147.72" x2="78.89" y1="28.18" x1="78.89" class="cls-7"/><line y2="147.72" x2="78.57" y1="28.18" x1="78.57" class="cls-7"/><line y2="147.72" x2="76.6" y1="28.18" x1="76.6" class="cls-7"/><line y2="147.72" x2="76.46" y1="28.18" x1="76.46" class="cls-7"/><line y2="147.72" x2="76.1" y1="28.18" x1="76.1" class="cls-7"/><line y2="147.72" x2="75.97" y1="28.18" x1="75.97" class="cls-7"/><line y2="147.72" x2="75.26" y1="28.18" x1="75.26" class="cls-7"/><line y2="147.72" x2="75.13" y1="28.18" x1="75.13" class="cls-7"/><line y2="147.72" x2="74.68" y1="28.18" x1="74.68" class="cls-7"/><line y2="147.72" x2="74.54" y1="28.18" x1="74.54" class="cls-7"/><line y2="147.72" x2="67.67" y1="28.18" x1="67.67" class="cls-7"/><line y2="147.72" x2="67.53" y1="28.18" x1="67.53" class="cls-7"/><line y2="147.72" x2="67.17" y1="28.18" x1="67.17" class="cls-7"/><line y2="147.72" x2="67.03" y1="28.18" x1="67.03" class="cls-7"/><line y2="147.72" x2="66.33" y1="28.18" x1="66.33" class="cls-7"/><line y2="147.72" x2="66.2" y1="28.18" x1="66.2" class="cls-7"/><line y2="147.72" x2="65.75" y1="28.18" x1="65.75" class="cls-7"/><line y2="147.72" x2="65.61" y1="28.18" x1="65.61" class="cls-7"/><line y2="147.72" x2="72.49" y1="28.18" x1="72.49" class="cls-7"/><line y2="147.72" x2="72.18" y1="28.18" x1="72.18" class="cls-7"/><line y2="147.72" x2="70.17" y1="28.18" x1="70.17" class="cls-7"/><line y2="147.72" x2="69.86" y1="28.18" x1="69.86" class="cls-7"/><line y2="147.72" x2="63.17" y1="28.18" x1="63.17" class="cls-7"/><line y2="147.72" x2="63.55" y1="28.18" x1="63.55" class="cls-7"/><line y2="147.72" x2="61.28" y1="28.18" x1="61.28" class="cls-7"/><line y2="147.72" x2="60.96" y1="28.18" x1="60.96" class="cls-7"/><line y2="147.72" x2="58.99" y1="28.18" x1="58.99" class="cls-7"/><line y2="147.72" x2="58.85" y1="28.18" x1="58.85" class="cls-7"/><line y2="147.72" x2="58.49" y1="28.18" x1="58.49" class="cls-7"/><line y2="147.72" x2="58.35" y1="28.18" x1="58.35" class="cls-7"/><line y2="147.72" x2="57.65" y1="28.18" x1="57.65" class="cls-7"/><line y2="147.72" x2="57.52" y1="28.18" x1="57.52" class="cls-7"/><line y2="147.72" x2="57.07" y1="28.18" x1="57.07" class="cls-7"/><line y2="147.72" x2="56.93" y1="28.18" x1="56.93" class="cls-7"/><line y2="147.72" x2="50.06" y1="28.18" x1="50.06" class="cls-7"/><line y2="147.72" x2="49.92" y1="28.18" x1="49.92" class="cls-7"/><line y2="147.72" x2="49.56" y1="28.18" x1="49.56" class="cls-7"/><line y2="147.72" x2="49.42" y1="28.18" x1="49.42" class="cls-7"/><line y2="147.72" x2="48.72" y1="28.18" x1="48.72" class="cls-7"/><line y2="147.72" x2="48.59" y1="28.18" x1="48.59" class="cls-7"/><line y2="147.72" x2="48.13" y1="28.18" x1="48.13" class="cls-7"/><line y2="147.72" x2="48" y1="28.18" x1="48" class="cls-7"/><line y2="147.72" x2="54.88" y1="28.18" x1="54.88" class="cls-7"/><line y2="147.72" x2="54.57" y1="28.18" x1="54.57" class="cls-7"/><line y2="147.72" x2="52.56" y1="28.18" x1="52.56" class="cls-7"/><line y2="147.72" x2="52.25" y1="28.18" x1="52.25" class="cls-7"/><line y2="147.72" x2="45.56" y1="28.18" x1="45.56" class="cls-7"/><line y2="147.72" x2="45.94" y1="28.18" x1="45.94" class="cls-7"/><line y2="147.72" x2="43.67" y1="28.18" x1="43.67" class="cls-7"/><line y2="147.72" x2="43.35" y1="28.18" x1="43.35" class="cls-7"/><line y2="147.72" x2="41.38" y1="28.18" x1="41.38" class="cls-7"/><line y2="147.72" x2="41.24" y1="28.18" x1="41.24" class="cls-7"/><line y2="147.72" x2="40.88" y1="28.18" x1="40.88" class="cls-7"/><line y2="147.72" x2="40.74" y1="28.18" x1="40.74" class="cls-7"/><line y2="147.72" x2="40.04" y1="28.18" x1="40.04" class="cls-7"/><line y2="147.72" x2="39.91" y1="28.18" x1="39.91" class="cls-7"/><line y2="147.72" x2="39.45" y1="28.18" x1="39.45" class="cls-7"/><line y2="147.72" x2="39.32" y1="28.18" x1="39.32" class="cls-7"/><line y2="147.72" x2="32.45" y1="28.18" x1="32.45" class="cls-7"/><line y2="147.72" x2="32.31" y1="28.18" x1="32.31" class="cls-7"/><line y2="147.72" x2="31.95" y1="28.18" x1="31.95" class="cls-7"/><line y2="147.72" x2="31.81" y1="28.18" x1="31.81" class="cls-7"/><line y2="147.72" x2="31.11" y1="28.18" x1="31.11" class="cls-7"/><line y2="147.72" x2="30.97" y1="28.18" x1="30.97" class="cls-7"/><line y2="147.72" x2="30.52" y1="28.18" x1="30.52" class="cls-7"/><line y2="147.72" x2="30.39" y1="28.18" x1="30.39" class="cls-7"/><line y2="147.72" x2="37.27" y1="28.18" x1="37.27" class="cls-7"/><line y2="147.72" x2="36.96" y1="28.18" x1="36.96" class="cls-7"/><line y2="147.72" x2="34.95" y1="28.18" x1="34.95" class="cls-7"/><line y2="147.72" x2="34.64" y1="28.18" x1="34.64" class="cls-7"/><line y2="29.34" x2="239.29" y1="29.34" x1="239.64" class="cls-7"/><line y2="30.05" x2="239.29" y1="30.05" x1="239.64" class="cls-7"/><line y2="29.34" x2="29.21" y1="29.34" x1="29.56" class="cls-7"/><line y2="30.05" x2="29.21" y1="30.05" x1="29.56" class="cls-7"/><polygon points="389.42 199.9 389.42 283.93 385.24 283.93 385.24 199.75 389.42 199.9" class="cls-5"/><rect transform="translate(751.55 441.58) rotate(-180)" height="4.68" width="18.92" y="218.45" x="366.31" class="cls-5"/><rect transform="translate(751.55 432.23) rotate(-180)" height="4.68" width="18.92" y="213.78" x="366.31" class="cls-5"/><rect transform="translate(751.55 422.88) rotate(-180)" height="4.68" width="18.92" y="209.1" x="366.31" class="cls-5"/><rect transform="translate(607.04 441.58) rotate(-180)" height="4.68" width="18.05" y="218.45" x="294.49" class="cls-5"/><rect transform="translate(607.04 432.23) rotate(-180)" height="4.68" width="18.05" y="213.78" x="294.49" class="cls-5"/><rect transform="translate(607.04 422.88) rotate(-180)" height="4.68" width="18.05" y="209.1" x="294.49" class="cls-5"/><rect transform="translate(751.55 469.64) rotate(-180)" height="4.68" width="18.92" y="232.48" x="366.31" class="cls-5"/><rect transform="translate(751.55 460.28) rotate(-180)" height="4.68" width="18.92" y="227.8" x="366.31" class="cls-5"/><rect transform="translate(751.55 450.93) rotate(-180)" height="4.68" width="18.92" y="223.13" x="366.31" class="cls-5"/><rect transform="translate(607.04 469.64) rotate(-180)" height="4.68" width="18.05" y="232.48" x="294.49" class="cls-5"/><rect transform="translate(607.04 460.28) rotate(-180)" height="4.68" width="18.05" y="227.8" x="294.49" class="cls-5"/><rect transform="translate(607.04 450.93) rotate(-180)" height="4.68" width="18.05" y="223.13" x="294.49" class="cls-5"/><rect transform="translate(751.55 497.69) rotate(-180)" height="4.68" width="18.92" y="246.51" x="366.31" class="cls-5"/><rect transform="translate(751.55 488.34) rotate(-180)" height="4.68" width="18.92" y="241.83" x="366.31" class="cls-5"/><rect transform="translate(751.55 478.98) rotate(-180)" height="4.68" width="18.92" y="237.15" x="366.31" class="cls-5"/><rect transform="translate(607.04 497.69) rotate(-180)" height="4.68" width="18.05" y="246.51" x="294.49" class="cls-5"/><rect transform="translate(607.04 488.34) rotate(-180)" height="4.68" width="18.05" y="241.83" x="294.49" class="cls-5"/><rect transform="translate(607.04 478.98) rotate(-180)" height="4.68" width="18.05" y="237.15" x="294.49" class="cls-5"/><rect transform="translate(751.55 525.74) rotate(-180)" height="4.68" width="18.92" y="260.53" x="366.31" class="cls-5"/><rect transform="translate(727.05 493.03) rotate(-180)" height="74.83" width="5.58" y="209.1" x="360.73" class="cls-5"/><rect transform="translate(630.67 493.03) rotate(-180)" height="74.83" width="5.58" y="209.1" x="312.54" class="cls-5"/><rect transform="translate(751.55 516.39) rotate(-180)" height="4.68" width="18.92" y="255.86" x="366.31" class="cls-5"/><rect transform="translate(751.55 507.04) rotate(-180)" height="4.68" width="18.92" y="251.18" x="366.31" class="cls-5"/><rect transform="translate(607.04 525.74) rotate(-180)" height="4.68" width="18.05" y="260.53" x="294.49" class="cls-5"/><rect transform="translate(607.04 516.39) rotate(-180)" height="4.68" width="18.05" y="255.86" x="294.49" class="cls-5"/><rect transform="translate(607.04 507.04) rotate(-180)" height="4.68" width="18.05" y="251.18" x="294.49" class="cls-5"/><rect transform="translate(751.55 553.8) rotate(-180)" height="4.68" width="18.92" y="274.56" x="366.31" class="cls-5"/><rect transform="translate(751.55 544.44) rotate(-180)" height="4.68" width="18.92" y="269.88" x="366.31" class="cls-5"/><rect transform="translate(751.55 535.09) rotate(-180)" height="4.68" width="18.92" y="265.21" x="366.31" class="cls-5"/><rect transform="translate(607.04 553.8) rotate(-180)" height="4.68" width="18.05" y="274.56" x="294.49" class="cls-5"/><rect transform="translate(607.04 544.44) rotate(-180)" height="4.68" width="18.05" y="269.88" x="294.49" class="cls-5"/><rect transform="translate(607.04 535.09) rotate(-180)" height="4.68" width="18.05" y="265.21" x="294.49" class="cls-5"/><rect transform="translate(751.55 563.14) rotate(-180)" height="4.68" width="18.92" y="279.23" x="366.31" class="cls-5"/><rect transform="translate(607.04 563.14) rotate(-180)" height="4.68" width="18.05" y="279.23" x="294.49" class="cls-5"/><rect transform="translate(679.72 413.52) rotate(-180)" height="4.68" width="90.75" y="204.42" x="294.48" class="cls-5"/><rect transform="translate(679.72 404.17) rotate(-180)" height="4.68" width="90.75" y="199.75" x="294.48" class="cls-5"/><polygon points="294.48 199.75 384.59 199.75 294.48 196.43 294.48 199.75" class="cls-5"/><polygon points="290.25 196.28 294.48 196.43 294.48 283.93 290.25 283.93 290.25 196.28" class="cls-5"/><polygon points="283.03 196 403.5 200.44 403.66 195.76 283.19 191.33 283.03 196" class="cls-6"/><rect transform="translate(79.97 470.26) rotate(-87.95)" height="1.12" width="4.68" y="193.13" x="281.34" class="cls-6"/><rect transform="translate(190.66 593.76) rotate(-87.95)" height="1.12" width="4.68" y="197.52" x="400.68" class="cls-6"/><rect height="74.84" width="42.61" y="209.09" x="318.12" class="cls-5"/><ellipse ry=".53" rx=".52" cy="246.51" cx="320.92" class="cls-5"/></g></g></svg>