<svg viewBox="0 0 531.26 288" xmlns="http://www.w3.org/2000/svg" id="Golf"><defs><style>.cls-1{fill:none;stroke:#12100b;stroke-linecap:round;stroke-linejoin:round;stroke-width:.3px;}.cls-2{fill:#12100b;}</style></defs><g id="Club_House"><g id="bag_rack_Royal"><line y2="284.49" x2="17.79" y1="156.02" x1="17.79" class="cls-1"/><rect height=".3" width="1.95" y="155.87" x="16.81" class="cls-2"/><rect height=".3" width="1.95" y="284.34" x="16.81" class="cls-2"/><path d="M14.58,233.81c-.08.24-.19.44-.34.61-.15.17-.32.3-.52.4-.2.1-.42.15-.66.15-.17,0-.34-.03-.5-.08-.16-.05-.3-.13-.44-.22-.13-.1-.24-.21-.34-.34s-.16-.28-.2-.44c-.06.15-.13.28-.22.39s-.19.21-.3.29c-.11.08-.24.14-.37.19-.13.04-.27.06-.42.06-.23,0-.43-.05-.62-.14-.19-.09-.35-.22-.49-.38-.14-.16-.25-.35-.32-.58-.07-.22-.11-.46-.11-.72s.04-.5.12-.72c.08-.22.18-.41.32-.57.13-.16.29-.29.48-.38.19-.09.4-.14.63-.14.14,0,.28.02.42.07.14.04.26.11.37.19.11.08.21.18.3.3.08.12.15.24.2.38.04-.16.11-.31.2-.44s.21-.24.34-.34c.13-.09.28-.17.44-.22.16-.05.32-.08.49-.08.24,0,.46.05.66.15.2.1.37.23.52.4.15.17.26.37.34.61.08.24.12.5.12.79s-.04.55-.12.79ZM9.56,233.41c.04.12.1.22.18.31s.17.15.28.2c.11.05.23.07.37.07.12,0,.24-.02.35-.07.11-.05.21-.12.29-.2.08-.09.14-.19.19-.31.04-.12.07-.25.07-.39s-.02-.27-.07-.39c-.04-.12-.11-.22-.19-.31s-.18-.16-.29-.2c-.11-.05-.23-.07-.35-.07-.13,0-.26.02-.37.07-.11.05-.2.12-.28.2s-.14.19-.18.31-.07.25-.07.39.02.27.07.39ZM13.89,232.56c-.05-.14-.12-.26-.2-.36-.09-.1-.19-.17-.32-.23s-.26-.08-.41-.08-.29.03-.41.08c-.12.06-.23.14-.32.24-.09.1-.16.22-.22.36-.05.14-.08.29-.08.46s.02.31.07.45c.05.14.12.26.21.36.09.1.2.18.33.23.13.05.26.08.41.08.15,0,.29-.03.42-.08s.23-.13.32-.23c.09-.1.16-.22.2-.36.05-.14.07-.29.07-.46s-.02-.32-.07-.46Z"/><path d="M8.89,227.87c.09-.23.21-.43.36-.6.15-.16.34-.29.56-.39.22-.09.46-.14.74-.14.15,0,.31.02.46.05s.31.09.46.17c.15.08.3.18.46.29.16.12.32.26.5.43l1.49,1.44v-2.53h.73v3.65h-.65l-2.04-1.97c-.13-.13-.25-.24-.37-.33-.12-.09-.23-.16-.34-.22-.11-.06-.21-.1-.32-.12-.1-.02-.21-.03-.32-.03-.16,0-.31.02-.44.07s-.25.12-.35.22-.17.21-.23.33c-.05.13-.08.27-.08.43,0,.28.08.52.25.72.17.2.4.35.7.43l-.25.73c-.46-.13-.82-.36-1.07-.68-.25-.33-.38-.73-.38-1.22,0-.28.04-.53.13-.76Z"/><path d="M8.97,222.86c.15-.28.35-.51.61-.71.26-.2.57-.35.93-.46.37-.11.76-.17,1.2-.17s.84.06,1.21.17c.37.11.68.27.95.47.27.2.47.44.62.71s.22.58.22.91-.07.63-.22.91-.35.52-.62.72c-.26.2-.58.35-.95.46-.37.11-.77.17-1.21.17s-.83-.06-1.2-.17-.68-.27-.94-.46c-.26-.2-.46-.44-.61-.71-.14-.28-.22-.58-.22-.92s.07-.64.22-.92ZM9.67,224.35c.11.17.26.32.45.45.19.13.42.23.69.3s.56.11.89.11.63-.03.91-.1c.27-.07.51-.17.71-.3.2-.13.35-.28.46-.46.11-.18.17-.37.17-.57s-.06-.4-.17-.58c-.11-.18-.27-.33-.46-.45-.2-.13-.43-.22-.71-.29-.28-.07-.57-.1-.9-.1s-.62.04-.89.1-.5.17-.69.29c-.19.12-.34.27-.45.45s-.16.37-.16.58.05.4.16.58Z"/><path d="M10.63,217.54h.73c-.26-.12-.46-.29-.59-.49-.13-.2-.2-.44-.2-.7,0-.28.07-.53.22-.73.15-.21.37-.36.65-.45-.28-.12-.5-.29-.65-.51-.15-.22-.22-.47-.22-.77,0-.42.14-.74.41-.97.28-.23.67-.34,1.18-.34h2.48v.77h-2.38c-.32,0-.57.07-.76.22-.19.15-.28.34-.28.59,0,.13.03.25.08.36.05.11.13.2.22.28.1.08.21.14.35.18.14.04.28.06.44.06h2.32v.77h-2.38c-.15,0-.3.02-.42.06-.13.04-.24.1-.33.17s-.16.15-.21.25-.07.22-.07.34.03.24.08.35c.05.11.13.2.23.28s.22.14.35.18.29.07.46.07h2.31v.77h-4.01v-.75Z"/><path d="M10.63,210.73h.73c-.26-.12-.46-.29-.59-.49-.13-.2-.2-.44-.2-.7,0-.28.07-.53.22-.73.15-.21.37-.36.65-.45-.28-.12-.5-.29-.65-.51-.15-.22-.22-.47-.22-.77,0-.42.14-.74.41-.97.28-.23.67-.34,1.18-.34h2.48v.77h-2.38c-.32,0-.57.07-.76.22-.19.15-.28.34-.28.59,0,.13.03.25.08.36.05.11.13.2.22.28.1.08.21.14.35.18.14.04.28.06.44.06h2.32v.77h-2.38c-.15,0-.3.02-.42.06-.13.04-.24.1-.33.17s-.16.15-.21.25-.07.22-.07.34.03.24.08.35c.05.11.13.2.23.28s.22.14.35.18.29.07.46.07h2.31v.77h-4.01v-.75Z"/><line y2="35.45" x2="17.79" y1="126.22" x1="17.79" class="cls-1"/><rect height=".3" width="1.95" y="126.07" x="16.81" class="cls-2"/><rect height=".3" width="1.95" y="35.3" x="16.81" class="cls-2"/><path d="M8.82,92.09h.72v2.12l1.7.28c-.1-.11-.18-.25-.24-.4s-.08-.32-.08-.51c0-.27.05-.52.14-.75.09-.23.22-.42.39-.59.17-.16.36-.29.59-.38s.49-.14.76-.14.53.05.77.14c.23.1.44.23.61.4.17.17.3.38.39.61.09.24.14.5.14.79,0,.22-.03.43-.08.63-.06.2-.14.38-.25.55-.11.16-.24.31-.4.43s-.33.21-.53.27l-.34-.7c.26-.07.47-.21.62-.43.15-.21.23-.46.23-.74,0-.16-.03-.32-.08-.46-.06-.14-.14-.26-.24-.36-.1-.1-.22-.18-.36-.24-.14-.06-.3-.08-.47-.08s-.34.03-.48.09c-.15.06-.27.14-.38.25-.1.11-.19.23-.25.38s-.09.31-.09.49c0,.2.04.38.12.54.08.16.19.29.34.4l-.16.69-3.07-.52v-2.77Z"/><path d="M14.58,89.98c-.08.24-.19.44-.34.61-.15.17-.32.3-.52.4-.2.1-.42.15-.66.15-.17,0-.34-.03-.5-.08-.16-.05-.3-.13-.44-.22-.13-.1-.24-.21-.34-.34s-.16-.28-.2-.44c-.06.15-.13.28-.22.39s-.19.21-.3.29c-.11.08-.24.14-.37.19-.13.04-.27.06-.42.06-.23,0-.43-.05-.62-.14-.19-.09-.35-.22-.49-.38-.14-.16-.25-.35-.32-.58-.07-.22-.11-.46-.11-.72s.04-.5.12-.72c.08-.22.18-.41.32-.57.13-.16.29-.29.48-.38.19-.09.4-.14.63-.14.14,0,.28.02.42.07.14.04.26.11.37.19.11.08.21.18.3.3.08.12.15.24.2.38.04-.16.11-.31.2-.44s.21-.24.34-.34c.13-.09.28-.17.44-.22.16-.05.32-.08.49-.08.24,0,.46.05.66.15.2.1.37.23.52.4.15.17.26.37.34.61.08.24.12.5.12.79s-.04.55-.12.79ZM9.56,89.58c.04.12.1.22.18.31s.17.15.28.2c.11.05.23.07.37.07.12,0,.24-.02.35-.07.11-.05.21-.12.29-.2.08-.09.14-.19.19-.31.04-.12.07-.25.07-.39s-.02-.27-.07-.39c-.04-.12-.11-.22-.19-.31s-.18-.16-.29-.2c-.11-.05-.23-.07-.35-.07-.13,0-.26.02-.37.07-.11.05-.2.12-.28.2s-.14.19-.18.31-.07.25-.07.39.02.27.07.39ZM13.89,88.73c-.05-.14-.12-.26-.2-.36-.09-.1-.19-.17-.32-.23s-.26-.08-.41-.08-.29.03-.41.08c-.12.06-.23.14-.32.24-.09.1-.16.22-.22.36-.05.14-.08.29-.08.46s.02.31.07.45c.05.14.12.26.21.36.09.1.2.18.33.23.13.05.26.08.41.08.15,0,.29-.03.42-.08s.23-.13.32-.23c.09-.1.16-.22.2-.36.05-.14.07-.29.07-.46s-.02-.32-.07-.46Z"/><path d="M8.97,83.47c.15-.28.35-.51.61-.71.26-.2.57-.35.93-.46.37-.11.76-.17,1.2-.17s.84.06,1.21.17c.37.11.68.27.95.47.27.2.47.44.62.71s.22.58.22.91-.07.63-.22.91-.35.52-.62.72c-.26.2-.58.35-.95.46-.37.11-.77.17-1.21.17s-.83-.06-1.2-.17-.68-.27-.94-.46c-.26-.2-.46-.44-.61-.71-.14-.28-.22-.58-.22-.92s.07-.64.22-.92ZM9.67,84.96c.11.17.26.32.45.45.19.13.42.23.69.3s.56.11.89.11.63-.03.91-.1c.27-.07.51-.17.71-.3.2-.13.35-.28.46-.46.11-.18.17-.37.17-.57s-.06-.4-.17-.58c-.11-.18-.27-.33-.46-.45-.2-.13-.43-.22-.71-.29-.28-.07-.57-.1-.9-.1s-.62.04-.89.1-.5.17-.69.29c-.19.12-.34.27-.45.45s-.16.37-.16.58.05.4.16.58Z"/><path d="M10.63,78.15h.73c-.26-.12-.46-.29-.59-.49-.13-.2-.2-.44-.2-.7,0-.28.07-.53.22-.73.15-.21.37-.36.65-.45-.28-.12-.5-.29-.65-.51-.15-.22-.22-.47-.22-.77,0-.42.14-.74.41-.97.28-.23.67-.34,1.18-.34h2.48v.77h-2.38c-.32,0-.57.07-.76.22-.19.15-.28.34-.28.59,0,.13.03.25.08.36.05.11.13.2.22.28.1.08.21.14.35.18.14.04.28.06.44.06h2.32v.77h-2.38c-.15,0-.3.02-.42.06-.13.04-.24.1-.33.17s-.16.15-.21.25-.07.22-.07.34.03.24.08.35c.05.11.13.2.23.28s.22.14.35.18.29.07.46.07h2.31v.77h-4.01v-.75Z"/><path d="M10.63,71.33h.73c-.26-.12-.46-.29-.59-.49-.13-.2-.2-.44-.2-.7,0-.28.07-.53.22-.73.15-.21.37-.36.65-.45-.28-.12-.5-.29-.65-.51-.15-.22-.22-.47-.22-.77,0-.42.14-.74.41-.97.28-.23.67-.34,1.18-.34h2.48v.77h-2.38c-.32,0-.57.07-.76.22-.19.15-.28.34-.28.59,0,.13.03.25.08.36.05.11.13.2.22.28.1.08.21.14.35.18.14.04.28.06.44.06h2.32v.77h-2.38c-.15,0-.3.02-.42.06-.13.04-.24.1-.33.17s-.16.15-.21.25-.07.22-.07.34.03.24.08.35c.05.11.13.2.23.28s.22.14.35.18.29.07.46.07h2.31v.77h-4.01v-.75Z"/><line y2="22" x2="392.34" y1="22" x1="28.34" class="cls-1"/><rect height="1.95" width=".3" y="21.02" x="28.19" class="cls-2"/><rect height="1.95" width=".3" y="21.02" x="392.19" class="cls-2"/><path d="M196.05,12.12c.23.09.43.21.6.36.16.15.29.34.39.56.09.22.14.46.14.74,0,.15-.02.31-.05.46s-.09.31-.17.46c-.08.15-.18.3-.29.46-.12.16-.26.32-.43.5l-1.44,1.49h2.53v.73h-3.65v-.65l1.97-2.04c.13-.13.24-.25.33-.37.09-.12.16-.23.22-.34.06-.11.1-.21.12-.32.02-.1.03-.21.03-.32,0-.16-.02-.31-.07-.44s-.12-.25-.22-.35-.21-.17-.33-.23c-.13-.05-.27-.08-.43-.08-.28,0-.52.08-.72.25-.2.17-.35.4-.43.7l-.73-.25c.13-.46.36-.82.68-1.07.33-.25.73-.38,1.22-.38.28,0,.53.04.76.13Z"/><path d="M201.39,12.05v.61l-.71,1.08c-.04.06-.08.12-.11.16-.03.05-.07.09-.1.14s-.07.1-.1.14c-.03.05-.07.1-.1.16.21.03.4.09.58.19.17.1.32.23.45.39.13.16.23.33.3.53.07.2.1.42.1.65,0,.27-.05.51-.14.74s-.22.42-.39.57c-.17.16-.37.28-.6.37-.23.09-.48.13-.76.13-.23,0-.44-.03-.64-.09s-.38-.14-.54-.25c-.16-.11-.31-.25-.43-.4-.12-.16-.22-.34-.29-.54l.7-.34c.09.27.24.48.45.64.21.16.46.24.74.24.16,0,.31-.03.44-.08.13-.05.25-.13.34-.22.1-.1.17-.21.22-.35.05-.13.08-.28.08-.45s-.03-.32-.09-.46c-.06-.14-.14-.26-.25-.35-.1-.1-.23-.17-.37-.23s-.3-.08-.48-.08h-.39l-.08-.49.79-1.18c.04-.05.07-.1.1-.13.03-.04.06-.08.09-.13.03-.05.06-.09.09-.13.03-.04.06-.08.1-.13h-2.4v-.72h3.41Z"/><path d="M204.88,12.12c.23.09.43.21.6.36.16.15.29.34.39.56.09.22.14.46.14.74,0,.15-.02.31-.05.46s-.09.31-.17.46c-.08.15-.18.3-.29.46-.12.16-.26.32-.43.5l-1.44,1.49h2.53v.73h-3.65v-.65l1.97-2.04c.13-.13.24-.25.33-.37.09-.12.16-.23.22-.34.06-.11.1-.21.12-.32.02-.1.03-.21.03-.32,0-.16-.02-.31-.07-.44s-.12-.25-.22-.35-.21-.17-.33-.23c-.13-.05-.27-.08-.43-.08-.28,0-.52.08-.72.25-.2.17-.35.4-.43.7l-.73-.25c.13-.46.36-.82.68-1.07.33-.25.73-.38,1.22-.38.28,0,.53.04.76.13Z"/><path d="M209.89,12.21c.28.15.51.35.71.61.2.26.35.57.46.93.11.37.17.76.17,1.2s-.06.84-.17,1.21c-.11.37-.27.68-.47.95-.2.27-.44.47-.71.62s-.58.22-.91.22-.63-.07-.91-.22-.52-.35-.72-.62c-.2-.26-.35-.58-.46-.95-.11-.37-.17-.77-.17-1.21s.06-.83.17-1.2.27-.68.46-.94c.2-.26.44-.46.71-.61.28-.14.58-.22.92-.22s.64.07.92.22ZM208.4,12.91c-.17.11-.32.26-.45.45-.13.19-.23.42-.3.69s-.11.56-.11.89.03.63.1.91c.07.27.17.51.3.71.13.2.28.35.46.46.18.11.37.17.57.17s.4-.06.58-.17c.18-.11.33-.27.45-.46.13-.2.22-.43.29-.71.07-.28.1-.57.1-.9s-.04-.62-.1-.89-.17-.5-.29-.69c-.12-.19-.27-.34-.45-.45s-.37-.16-.58-.16-.4.05-.58.16Z"/><path d="M215.21,13.87v.73c.12-.26.29-.46.49-.59.2-.13.44-.2.7-.2.28,0,.53.07.73.22.21.15.36.37.45.65.12-.28.29-.5.51-.65.22-.15.47-.22.77-.22.42,0,.74.14.97.41.23.28.34.67.34,1.18v2.48h-.77v-2.38c0-.32-.07-.57-.22-.76-.15-.19-.34-.28-.59-.28-.13,0-.25.03-.36.08-.11.05-.2.13-.28.22-.08.1-.14.21-.18.35-.04.14-.06.28-.06.44v2.32h-.77v-2.38c0-.15-.02-.3-.06-.42-.04-.13-.1-.24-.17-.33s-.15-.16-.25-.21-.22-.07-.34-.07-.24.03-.35.08c-.11.05-.2.13-.28.23s-.14.22-.18.35-.07.29-.07.46v2.31h-.77v-4.01h.75Z"/><path d="M222.02,13.87v.73c.12-.26.29-.46.49-.59.2-.13.44-.2.7-.2.28,0,.53.07.73.22.21.15.36.37.45.65.12-.28.29-.5.51-.65.22-.15.47-.22.77-.22.42,0,.74.14.97.41.23.28.34.67.34,1.18v2.48h-.77v-2.38c0-.32-.07-.57-.22-.76-.15-.19-.34-.28-.59-.28-.13,0-.25.03-.36.08-.11.05-.2.13-.28.22-.08.1-.14.21-.18.35-.04.14-.06.28-.06.44v2.32h-.77v-2.38c0-.15-.02-.3-.06-.42-.04-.13-.1-.24-.17-.33s-.15-.16-.25-.21-.22-.07-.34-.07-.24.03-.35.08c-.11.05-.2.13-.28.23s-.14.22-.18.35-.07.29-.07.46v2.31h-.77v-4.01h.75Z"/><line y2="275.61" x2="395.56" y1="275.61" x1="31.27" class="cls-1"/><line y2="275.45" x2="32.84" y1="157.84" x1="32.84" class="cls-1"/><polyline points="395.56 157.84 395.17 157.84 36.83 157.84 31.28 157.84" class="cls-1"/><line y2="275.45" x2="393.99" y1="157.84" x1="393.99" class="cls-1"/><line y2="164.12" x2="393.99" y1="164.12" x1="32.84" class="cls-1"/><line y2="164.14" x2="389.28" y1="275.61" x1="389.28" class="cls-1"/><line y2="164.14" x2="329.88" y1="275.61" x1="329.88" class="cls-1"/><line y2="164.14" x2="334.59" y1="275.61" x1="334.59" class="cls-1"/><line y2="164.14" x2="156.36" y1="275.61" x1="156.36" class="cls-1"/><line y2="164.14" x2="151.65" y1="275.61" x1="151.65" class="cls-1"/><line y2="164.14" x2="275.16" y1="275.61" x1="275.16" class="cls-1"/><line y2="164.14" x2="270.45" y1="275.61" x1="270.45" class="cls-1"/><line y2="164.14" x2="92.25" y1="275.61" x1="92.25" class="cls-1"/><line y2="164.14" x2="96.96" y1="275.61" x1="96.96" class="cls-1"/><line y2="164.14" x2="211.05" y1="275.61" x1="211.05" class="cls-1"/><line y2="164.14" x2="215.76" y1="275.61" x1="215.76" class="cls-1"/><line y2="164.14" x2="37.55" y1="275.61" x1="37.55" class="cls-1"/><polyline points="42.27 283.52 42.27 285.03 46.98 285.03 46.98 283.46" class="cls-1"/><polyline points="203.98 283.52 203.98 285.03 208.69 285.03 208.69 283.46" class="cls-1"/><polyline points="218.11 283.52 218.11 285.03 222.82 285.03 222.82 283.46" class="cls-1"/><polyline points="379.86 283.46 379.86 284.97 384.57 284.97 384.57 283.4" class="cls-1"/><rect height="127.19" width="364.3" y="156.27" x="31.28" class="cls-1"/><path d="M425.06,157.84v-1.57h26.22c.06,0,.11,0,.16,0h.31s0,1.57,0,1.57h-26.69" class="cls-1"/><path d="M516.12,282.99c0,.26-.21.47-.47.47h-5.34c-.26,0-.47-.21-.47-.47v-6.91c0-.26.21-.47.47-.47h5.34c.26,0,.47.21.47.47v6.91" class="cls-1"/><line y2="275.68" x2="509.96" y1="157.84" x1="451.74" class="cls-1"/><line y2="157.84" x2="425.06" y1="283.46" x1="425.06" class="cls-1"/><line y2="283.46" x2="425.06" y1="283.46" x1="510.31" class="cls-1"/><polyline points="500.42 283.52 500.42 285.03 495.71 285.03 495.71 283.46" class="cls-1"/><polyline points="439.18 283.52 439.18 285.03 434.47 285.03 434.47 283.46" class="cls-1"/><line y2="120.5" x2="395.51" y1="120.5" x1="31.33" class="cls-1"/><g id="ARC"><path d="M96.99,91.83c.43,0,.78.35.78.79v10.52c0,.43-.35.79-.78.79h-4.71c-.43,0-.78-.35-.78-.78v-10.52c0-.43.35-.79.78-.79" class="cls-1"/></g><g id="LINE"><line y2="103.93" x2="94.64" y1="120.5" x1="94.64" class="cls-1"/></g><g id="LINE-2"><path d="M96.52,103.64h-3.77c-.26,0-.47-.24-.47-.53v-40.72h4.71v40.72c0,.29-.21.53-.47.53" class="cls-1"/></g><g id="LINE-3"><line y2="120.5" x2="32.9" y1="62.39" x1="32.9" class="cls-1"/></g><g id="ARC-2"><path d="M37.61,91.83c.43,0,.78.35.78.79v10.52c0,.43-.35.79-.78.79h-4.71" class="cls-1"/></g><g id="ELLIPSE"><path d="M32.9,103.11c0,.29.21.53.47.53h3.77c.26,0,.47-.24.47-.53v-40.73h-6.28v64.39h364.17v-6.28" class="cls-1"/></g><g id="LINE-4"><line y2="120.5" x2="393.94" y1="62.39" x1="393.94" class="cls-1"/></g><g id="ARC-3"><path d="M389.23,91.83c-.43,0-.78.35-.78.79v10.52c0,.43.35.79.78.79h4.71" class="cls-1"/></g><g id="ELLIPSE-2"><path d="M393.94,103.11c0,.29-.21.53-.47.53h-3.77c-.26,0-.47-.24-.47-.53v-40.73h6.28v58.11" class="cls-1"/></g><g id="ARC-4"><path d="M156.38,91.83c.43,0,.78.35.78.79v10.52c0,.43-.35.79-.78.79h-4.71c-.43,0-.78-.35-.78-.78v-10.52c0-.43.35-.79.78-.79" class="cls-1"/></g><g id="LINE-5"><line y2="103.93" x2="154.02" y1="120.5" x1="154.02" class="cls-1"/></g><g id="LINE-6"><path d="M155.9,103.64h-3.77c-.26,0-.47-.24-.47-.53v-40.72h4.71v40.72c0,.29-.21.53-.47.53" class="cls-1"/></g><g id="ARC-5"><path d="M215.76,91.81c.43,0,.78.35.78.79v10.52c0,.43-.35.79-.78.79h-4.71c-.43,0-.78-.35-.78-.78v-10.52c0-.43.35-.79.78-.79" class="cls-1"/></g><g id="LINE-7"><line y2="103.9" x2="213.4" y1="120.47" x1="213.4" class="cls-1"/></g><g id="LINE-8"><path d="M215.29,103.62h-3.77c-.26,0-.47-.24-.47-.53v-40.72h4.71v40.72c0,.29-.21.53-.47.53" class="cls-1"/></g><g id="ARC-6"><path d="M275.15,91.83c.43,0,.78.35.78.79v10.52c0,.43-.35.79-.78.79h-4.71c-.43,0-.78-.35-.78-.78v-10.52c0-.43.35-.79.78-.79" class="cls-1"/></g><g id="LINE-9"><line y2="103.93" x2="272.8" y1="120.5" x1="272.8" class="cls-1"/></g><g id="LINE-10"><path d="M274.68,103.64h-3.77c-.26,0-.47-.24-.47-.53v-40.72h4.71v40.72c0,.29-.21.53-.47.53" class="cls-1"/></g><g id="ARC-7"><path d="M334.55,91.81c.43,0,.78.35.78.78v10.51c0,.43-.35.78-.78.78h-4.71c-.43,0-.78-.35-.78-.78v-10.51c0-.43.35-.78.78-.78" class="cls-1"/></g><g id="LINE-11"><line y2="103.89" x2="332.2" y1="120.43" x1="332.2" class="cls-1"/></g><g id="LINE-12"><path d="M334.08,103.6h-3.77c-.26,0-.47-.23-.47-.52v-40.66h4.71v40.66c0,.29-.21.52-.47.52" class="cls-1"/></g><path d="M31.21,36.49v25.12c0,.43.35.79.78.79h4.07c.99,0,1.97-.19,2.88-.55l1.43-1.24c14.19-12.25,35.21-12.25,49.4,0l1.43,1.24c.92.36,1.9.55,2.88.55h1.46c.99,0,1.97-.19,2.88-.55l1.43-1.24c14.19-12.25,35.21-12.25,49.4,0l1.43,1.24c.92.36,1.9.55,2.88.55h1.14c.99,0,1.97-.19,2.88-.55l1.43-1.24c14.19-12.25,35.21-12.25,49.4,0l1.43,1.24c.92.36,1.9.55,2.88.55h1.14c.99,0,1.97-.19,2.88-.55l1.43-1.24c14.19-12.25,35.21-12.25,49.4,0l1.43,1.24c.92.36,1.9.55,2.88.55h1.14c.99,0,1.97-.19,2.88-.55l1.43-1.24c14.19-12.25,35.21-12.25,49.4,0l1.43,1.24c.92.36,1.9.55,2.88.55h1.45c.99,0,1.97-.19,2.88-.55l1.43-1.24c14.19-12.25,35.21-12.25,49.4,0l1.43,1.24c.92.36,1.9.55,2.88.55h4.07c.43,0,.78-.35.78-.79v-25.12c0-.43-.35-.79-.78-.79H31.99c-.43,0-.78.35-.78.79Z" class="cls-1"/></g></g></svg>