<svg viewBox="0 0 531.26 288" xmlns="http://www.w3.org/2000/svg" id="Golf"><defs><style>.cls-1{stroke:#12100b;stroke-linecap:round;stroke-linejoin:round;}.cls-1,.cls-2{fill:none;stroke-width:.3px;}.cls-2{stroke:#000;stroke-miterlimit:10;}</style></defs><g id="Club_House"><g id="totem_direcional_informativo"><g id="LINE"><line y2="282.13" x2="18.59" y1="19.16" x1="18.59" class="cls-2"/><rect height=".3" width="1.95" y="19.02" x="17.61"/><rect height=".3" width="1.95" y="281.98" x="17.61"/></g><g id="MTEXT"><path d="M9.38,163.72h5.29v.72h-4.54l.64,1.3h-.73l-.67-1.36v-.67Z"/><path d="M14.61,161.84c-.07.22-.17.4-.31.56-.13.15-.29.28-.47.36-.18.09-.38.13-.6.13-.16,0-.31-.02-.45-.07-.15-.05-.28-.11-.4-.2-.12-.09-.22-.19-.3-.31s-.14-.25-.18-.4c-.05.14-.12.25-.2.36-.08.1-.17.19-.27.27s-.21.13-.33.17c-.12.04-.25.06-.38.06-.21,0-.39-.04-.56-.12-.17-.08-.32-.2-.44-.34-.13-.14-.22-.32-.29-.52-.07-.2-.1-.42-.1-.66s.03-.46.1-.66.17-.37.29-.52c.12-.15.27-.26.44-.35.17-.08.36-.13.57-.13.13,0,.26.02.38.06.12.04.24.1.34.17.1.07.19.16.27.27.08.1.14.22.19.35.04-.15.1-.28.18-.4s.19-.22.31-.3c.12-.08.25-.15.4-.2.14-.05.29-.07.45-.07.21,0,.41.04.6.13.18.09.34.21.47.36.13.15.24.34.31.56s.11.46.11.72-.04.5-.11.72ZM10.05,161.47c.04.11.09.2.16.28s.16.14.26.18.21.07.33.07c.11,0,.22-.02.32-.07s.19-.11.26-.19c.07-.08.13-.17.17-.28.04-.11.06-.23.06-.35s-.02-.25-.06-.35c-.04-.1-.1-.2-.17-.28s-.16-.14-.26-.19c-.1-.04-.21-.07-.32-.07-.12,0-.23.02-.33.07-.1.04-.19.11-.26.19s-.12.17-.16.28c-.04.11-.06.23-.06.36s.02.24.06.35ZM13.98,160.71c-.04-.13-.11-.23-.19-.32s-.18-.16-.29-.21c-.11-.05-.24-.08-.37-.08s-.26.03-.37.08c-.11.05-.21.12-.29.21s-.15.2-.2.33c-.05.13-.07.26-.07.41s.02.28.07.41c.04.13.11.23.19.33s.18.16.3.21c.12.05.24.07.37.07.14,0,.27-.02.38-.07.12-.05.21-.12.29-.21s.14-.2.19-.33c.04-.13.07-.26.07-.41s-.02-.29-.07-.41Z"/><path d="M9.52,155.93c.13-.25.32-.47.55-.65.23-.18.52-.32.85-.42s.69-.15,1.08-.15.76.05,1.1.15c.33.1.62.24.86.42.24.18.43.4.56.65.13.25.2.52.2.83s-.07.57-.2.82-.32.47-.56.65c-.24.18-.53.32-.86.42-.33.1-.7.15-1.1.15s-.75-.05-1.08-.15c-.33-.1-.62-.24-.85-.42-.24-.18-.42-.4-.55-.65-.13-.25-.2-.53-.2-.83s.07-.58.2-.83ZM10.15,157.28c.1.16.23.29.41.41.17.11.38.2.63.27.24.07.51.1.81.1s.57-.03.82-.09c.25-.06.46-.15.64-.27.18-.12.32-.25.42-.41.1-.16.15-.33.15-.52s-.05-.37-.15-.53c-.1-.16-.24-.3-.42-.41-.18-.11-.39-.2-.64-.27s-.52-.09-.82-.09-.56.03-.81.09-.46.15-.63.26c-.17.11-.31.25-.41.41-.1.16-.15.34-.15.53s.05.37.15.52Z"/><path d="M9.52,151.29c.13-.25.32-.47.55-.65.23-.18.52-.32.85-.42s.69-.15,1.08-.15.76.05,1.1.15c.33.1.62.24.86.42.24.18.43.4.56.65.13.25.2.52.2.83s-.07.57-.2.82-.32.47-.56.65c-.24.18-.53.32-.86.42-.33.1-.7.15-1.1.15s-.75-.05-1.08-.15c-.33-.1-.62-.24-.85-.42-.24-.18-.42-.4-.55-.65-.13-.25-.2-.53-.2-.83s.07-.58.2-.83ZM10.15,152.65c.1.16.23.29.41.41.17.11.38.2.63.27.24.07.51.1.81.1s.57-.03.82-.09c.25-.06.46-.15.64-.27.18-.12.32-.25.42-.41.1-.16.15-.33.15-.52s-.05-.37-.15-.53c-.1-.16-.24-.3-.42-.41-.18-.11-.39-.2-.64-.27s-.52-.09-.82-.09-.56.03-.81.09-.46.15-.63.26c-.17.11-.31.25-.41.41-.1.16-.15.34-.15.53s.05.37.15.52Z"/><path d="M11.02,146.46h.67c-.24-.11-.42-.26-.54-.45-.12-.18-.18-.4-.18-.63,0-.26.07-.48.2-.67s.33-.32.59-.41c-.26-.11-.45-.27-.59-.46s-.2-.43-.2-.7c0-.38.12-.67.38-.88.25-.21.61-.31,1.07-.31h2.25v.7h-2.16c-.29,0-.52.07-.69.2-.17.13-.25.31-.25.54,0,.12.02.22.07.32s.11.18.2.26.19.13.32.16c.12.04.26.06.4.06h2.11v.7h-2.16c-.14,0-.27.02-.38.06-.12.04-.22.09-.3.15s-.14.14-.19.23c-.04.09-.07.2-.07.31s.02.22.07.32.12.18.21.25c.09.07.2.12.32.17.12.04.26.06.41.06h2.09v.7h-3.64v-.68Z"/><path d="M11.02,140.28h.67c-.24-.11-.42-.26-.54-.45-.12-.18-.18-.4-.18-.63,0-.26.07-.48.2-.67s.33-.32.59-.41c-.26-.11-.45-.27-.59-.46s-.2-.43-.2-.7c0-.38.12-.67.38-.88.25-.21.61-.31,1.07-.31h2.25v.7h-2.16c-.29,0-.52.07-.69.2-.17.13-.25.31-.25.54,0,.12.02.22.07.32s.11.18.2.26.19.13.32.16c.12.04.26.06.4.06h2.11v.7h-2.16c-.14,0-.27.02-.38.06-.12.04-.22.09-.3.15s-.14.14-.19.23c-.04.09-.07.2-.07.31s.02.22.07.32.12.18.21.25c.09.07.2.12.32.17.12.04.26.06.41.06h2.09v.7h-3.64v-.68Z"/></g><polyline points="214.12 282.28 214.12 19.02 200.95 19.02 200.95 282.28 214.12 282.28" class="cls-2"/><line y2="269.27" x2="229.54" y1="282.47" x1="229.54" class="cls-2"/><rect height=".3" width="1.95" y="282.32" x="228.57"/><rect height=".3" width="1.95" y="269.12" x="228.57"/><path d="M222.46,284.57c.12-.24.29-.44.51-.61.22-.17.5-.3.82-.39.32-.09.69-.14,1.09-.14s.8.05,1.15.15c.35.1.64.24.89.43s.43.41.56.67c.13.26.2.55.2.88,0,.37-.09.7-.27.97-.18.27-.43.47-.76.59l-.29-.64c.21-.07.37-.18.48-.34.11-.16.17-.35.17-.56,0-.2-.05-.38-.14-.55-.09-.17-.23-.31-.4-.44-.17-.13-.37-.22-.61-.29-.24-.07-.49-.1-.77-.1h-.17c-.06,0-.1,0-.15,0,.25.08.45.23.59.45.14.22.21.48.21.79,0,.24-.04.46-.12.65-.08.2-.19.36-.34.5-.14.14-.32.25-.52.33-.2.08-.42.12-.66.12s-.47-.04-.68-.13c-.21-.08-.38-.2-.52-.35-.14-.15-.26-.32-.34-.53-.08-.21-.12-.43-.12-.68,0-.3.06-.57.18-.81ZM223.03,285.74c.05.12.12.22.21.3.09.08.19.15.31.2.12.05.26.07.41.07s.29-.02.41-.07c.12-.05.23-.12.32-.2.09-.09.16-.19.21-.31.05-.12.07-.25.07-.4s-.02-.27-.07-.39c-.05-.12-.12-.22-.2-.31-.09-.09-.19-.15-.31-.2-.12-.05-.25-.07-.4-.07s-.28.03-.41.08c-.13.05-.24.13-.34.21-.1.09-.17.2-.22.32s-.08.26-.08.4.03.26.08.38Z"/><path d="M222.48,280c.13-.25.32-.47.55-.65.23-.18.52-.32.85-.42.33-.1.69-.15,1.08-.15s.76.05,1.1.15.62.24.86.42c.24.18.43.4.56.65.13.25.2.52.2.83s-.07.57-.2.82-.32.47-.56.65c-.24.18-.53.32-.86.42-.33.1-.7.15-1.1.15s-.75-.05-1.08-.15c-.33-.1-.61-.24-.85-.42-.24-.18-.42-.4-.55-.65-.13-.25-.2-.53-.2-.83s.07-.58.2-.83ZM223.11,281.36c.1.16.23.29.41.41.18.11.38.2.63.27.24.07.51.1.81.1s.57-.03.82-.09c.25-.06.46-.15.64-.27.18-.12.32-.25.42-.41.1-.16.15-.33.15-.52s-.05-.37-.15-.53c-.1-.16-.24-.3-.42-.41-.18-.11-.39-.2-.64-.27-.25-.06-.52-.09-.82-.09s-.56.03-.81.09c-.25.06-.46.15-.63.26-.17.11-.31.25-.41.41-.1.16-.15.34-.15.53s.05.37.15.52Z"/><path d="M223.98,275.18h.67c-.24-.11-.42-.26-.54-.45-.12-.18-.18-.4-.18-.63,0-.26.07-.48.2-.67.14-.19.33-.32.59-.41-.26-.11-.45-.27-.59-.46-.14-.2-.2-.43-.2-.7,0-.38.12-.67.37-.88.25-.21.61-.31,1.07-.31h2.25v.7h-2.16c-.29,0-.52.07-.69.2-.17.13-.25.31-.25.54,0,.12.02.22.07.32.05.1.11.18.2.26.09.07.19.13.32.16.12.04.26.06.4.06h2.11v.7h-2.16c-.14,0-.27.02-.38.06-.12.04-.22.09-.3.15-.08.06-.14.14-.19.23-.04.09-.07.2-.07.31s.02.22.07.32c.05.1.12.18.21.25.09.07.2.12.32.17.12.04.26.06.41.06h2.09v.7h-3.64v-.68Z"/><path d="M223.98,268.99h.67c-.24-.11-.42-.26-.54-.45-.12-.18-.18-.4-.18-.63,0-.26.07-.48.2-.67.14-.19.33-.32.59-.41-.26-.11-.45-.27-.59-.46-.14-.2-.2-.43-.2-.7,0-.38.12-.67.37-.88.25-.21.61-.31,1.07-.31h2.25v.7h-2.16c-.29,0-.52.07-.69.2-.17.13-.25.31-.25.54,0,.12.02.22.07.32.05.1.11.18.2.26.09.07.19.13.32.16.12.04.26.06.4.06h2.11v.7h-2.16c-.14,0-.27.02-.38.06-.12.04-.22.09-.3.15-.08.06-.14.14-.19.23-.04.09-.07.2-.07.31s.02.22.07.32c.05.1.12.18.21.25.09.07.2.12.32.17.12.04.26.06.41.06h2.09v.7h-3.64v-.68Z"/><g id="LINE-2"><polyline points="157.48 20.48 55.29 20.48 55.22 195.99 157.54 195.99 157.48 20.48" class="cls-1"/></g><polyline points="170.67 282.28 170.67 19.02 157.51 19.02 157.51 282.28 170.67 282.28" class="cls-2"/><polyline points="55.26 282.28 55.26 19.01 42.09 19.01 42.09 282.28 55.26 282.28" class="cls-2"/><line y2="258.38" x2="365.24" y1="258.38" x1="236.83" class="cls-2"/><rect height="1.95" width=".3" y="257.4" x="236.68"/><rect height="1.95" width=".3" y="257.4" x="365.09"/><path d="M288.7,254.4c-.22-.07-.4-.17-.56-.31-.15-.13-.28-.29-.36-.47s-.13-.38-.13-.6c0-.16.02-.31.07-.45.05-.15.11-.28.2-.4.09-.12.19-.22.31-.3s.25-.14.4-.18c-.14-.05-.25-.12-.36-.2-.1-.08-.19-.17-.27-.27s-.13-.21-.17-.33c-.04-.12-.06-.25-.06-.38,0-.21.04-.39.12-.56.08-.17.2-.32.34-.44.14-.13.32-.22.52-.29.2-.07.42-.1.66-.1s.46.03.66.1c.2.07.37.17.52.29.15.12.26.27.35.44.08.17.13.36.13.57,0,.13-.02.26-.06.38-.04.12-.1.24-.17.34-.07.1-.16.19-.27.27-.1.08-.22.14-.35.19.15.04.28.1.4.18s.22.19.3.31c.08.12.15.25.2.4.05.14.07.29.07.45,0,.21-.04.41-.13.6-.09.18-.21.34-.36.47-.15.13-.34.24-.56.31-.22.07-.46.11-.72.11s-.5-.04-.72-.11ZM289.83,253.77c.13-.04.23-.11.32-.19.09-.08.16-.18.21-.29.05-.11.08-.24.08-.37s-.03-.26-.08-.37c-.05-.11-.12-.21-.21-.29-.09-.08-.2-.15-.33-.2-.13-.05-.26-.07-.41-.07s-.28.02-.41.07c-.13.04-.23.11-.33.19s-.16.18-.21.3c-.05.11-.07.24-.07.37,0,.14.02.27.07.38.05.11.12.21.21.29.09.08.2.14.33.19.13.04.26.07.41.07s.29-.02.41-.07ZM289.07,249.84c-.11.04-.2.09-.28.16-.08.07-.14.15-.18.26s-.07.21-.07.33c0,.11.02.22.07.32.04.1.11.19.19.26.08.07.17.13.28.17s.23.06.35.06.25-.02.35-.06c.1-.04.2-.1.28-.17s.14-.16.19-.26c.04-.1.07-.21.07-.32,0-.12-.02-.23-.07-.33-.04-.1-.11-.19-.19-.26-.08-.07-.17-.12-.28-.16-.11-.04-.23-.06-.36-.06s-.24.02-.35.06Z"/><path d="M292.79,254.4c-.22-.07-.4-.17-.56-.31-.15-.13-.28-.29-.36-.47s-.13-.38-.13-.6c0-.16.02-.31.07-.45.05-.15.11-.28.2-.4.09-.12.19-.22.31-.3s.25-.14.4-.18c-.14-.05-.25-.12-.36-.2-.1-.08-.19-.17-.27-.27s-.13-.21-.17-.33c-.04-.12-.06-.25-.06-.38,0-.21.04-.39.12-.56.08-.17.2-.32.34-.44.14-.13.32-.22.52-.29.2-.07.42-.1.66-.1s.46.03.66.1c.2.07.37.17.52.29.15.12.26.27.35.44.08.17.13.36.13.57,0,.13-.02.26-.06.38-.04.12-.1.24-.17.34-.07.1-.16.19-.27.27-.1.08-.22.14-.35.19.15.04.28.1.4.18s.22.19.3.31c.08.12.15.25.2.4.05.14.07.29.07.45,0,.21-.04.41-.13.6-.09.18-.21.34-.36.47-.15.13-.34.24-.56.31-.22.07-.46.11-.72.11s-.5-.04-.72-.11ZM293.92,253.77c.13-.04.23-.11.32-.19.09-.08.16-.18.21-.29.05-.11.08-.24.08-.37s-.03-.26-.08-.37c-.05-.11-.12-.21-.21-.29-.09-.08-.2-.15-.33-.2-.13-.05-.26-.07-.41-.07s-.28.02-.41.07c-.13.04-.23.11-.33.19s-.16.18-.21.3c-.05.11-.07.24-.07.37,0,.14.02.27.07.38.05.11.12.21.21.29.09.08.2.14.33.19.13.04.26.07.41.07s.29-.02.41-.07ZM293.15,249.84c-.11.04-.2.09-.28.16-.08.07-.14.15-.18.26s-.07.21-.07.33c0,.11.02.22.07.32.04.1.11.19.19.26.08.07.17.13.28.17s.23.06.35.06.25-.02.35-.06c.1-.04.2-.1.28-.17s.14-.16.19-.26c.04-.1.07-.21.07-.32,0-.12-.02-.23-.07-.33-.04-.1-.11-.19-.19-.26-.08-.07-.17-.12-.28-.16-.11-.04-.23-.06-.36-.06s-.24.02-.35.06Z"/><path d="M298.7,249.31c.25.13.47.32.65.55.18.23.32.52.42.85.1.33.15.69.15,1.08s-.05.76-.15,1.1-.24.62-.42.86c-.18.24-.4.43-.65.56-.25.13-.52.2-.83.2s-.57-.07-.82-.2-.47-.32-.65-.56c-.18-.24-.32-.53-.42-.86-.1-.33-.15-.7-.15-1.1s.05-.75.15-1.08c.1-.33.24-.61.42-.85.18-.24.4-.42.65-.55.25-.13.53-.2.83-.2s.58.07.83.2ZM297.35,249.95c-.16.1-.29.23-.41.41-.11.18-.2.38-.27.63-.07.24-.1.51-.1.81s.03.57.09.82c.06.25.15.46.27.64.12.18.25.32.41.42.16.1.33.15.52.15s.37-.05.53-.15c.16-.1.3-.24.41-.42.11-.18.2-.39.27-.64.06-.25.09-.52.09-.82s-.03-.56-.09-.81c-.06-.25-.15-.46-.26-.63-.11-.17-.25-.31-.41-.41-.16-.1-.34-.15-.53-.15s-.37.05-.52.15Z"/><path d="M303.53,250.81v.67c.11-.24.26-.42.45-.54.18-.12.4-.18.63-.18.26,0,.48.07.67.2.19.14.32.33.41.59.11-.26.27-.45.46-.59.2-.14.43-.2.7-.2.38,0,.67.12.88.37.21.25.31.61.31,1.07v2.25h-.7v-2.16c0-.29-.07-.52-.2-.69-.13-.17-.31-.25-.54-.25-.12,0-.22.02-.32.07-.1.05-.18.11-.26.2-.07.09-.13.19-.16.32-.04.12-.06.26-.06.4v2.11h-.7v-2.16c0-.14-.02-.27-.06-.38-.04-.12-.09-.22-.15-.3-.06-.08-.14-.14-.23-.19-.09-.04-.2-.07-.31-.07s-.22.02-.32.07c-.1.05-.18.12-.25.21-.07.09-.12.2-.17.32-.04.12-.06.26-.06.41v2.09h-.7v-3.64h.68Z"/><path d="M309.71,250.81v.67c.11-.24.26-.42.45-.54.18-.12.4-.18.63-.18.26,0,.48.07.67.2.19.14.32.33.41.59.11-.26.27-.45.46-.59.2-.14.43-.2.7-.2.38,0,.67.12.88.37.21.25.31.61.31,1.07v2.25h-.7v-2.16c0-.29-.07-.52-.2-.69-.13-.17-.31-.25-.54-.25-.12,0-.22.02-.32.07-.1.05-.18.11-.26.2-.07.09-.13.19-.16.32-.04.12-.06.26-.06.4v2.11h-.7v-2.16c0-.14-.02-.27-.06-.38-.04-.12-.09-.22-.15-.3-.06-.08-.14-.14-.23-.19-.09-.04-.2-.07-.31-.07s-.22.02-.32.07c-.1.05-.18.12-.25.21-.07.09-.12.2-.17.32-.04.12-.06.26-.06.41v2.09h-.7v-3.64h.68Z"/><rect height="1.46" width="102.37" y="274.97" x="249.82" class="cls-2"/><path d="M365.23,269.12c.07,0,.13.06.13.13v12.9c0,.07-.06.13-.13.13h-12.9c-.07,0-.13-.06-.13-.13v-12.9c0-.07.06-.13.13-.13h12.9" class="cls-2"/><path d="M249.68,269.12c.07,0,.13.06.13.13v12.9c0,.07-.06.13-.13.13h-12.9c-.07,0-.13-.06-.13-.13v-12.9c0-.07.06-.13.13-.13h12.9" class="cls-2"/></g></g></svg>