<svg viewBox="0 0 531.26 288" xmlns="http://www.w3.org/2000/svg" id="Urban"><defs><style>.cls-1{stroke-width:.28px;}.cls-1,.cls-2,.cls-3{fill:none;stroke:#000;stroke-miterlimit:10;}.cls-2{stroke-width:.25px;}.cls-3{stroke-width:.3px;}</style></defs><g id="Frame"><g id="bebedouro_Frame"><path d="M302.14,264.36h5.29v.72h-4.54l.64,1.3h-.73l-.67-1.36v-.67Z"/><path d="M307.31,262.39c-.12.24-.29.44-.51.61-.22.17-.5.3-.82.39s-.69.14-1.09.14-.8-.05-1.15-.15c-.35-.1-.64-.24-.89-.43-.25-.18-.43-.41-.56-.67-.13-.26-.2-.55-.2-.88,0-.37.09-.7.27-.97.18-.27.43-.47.76-.59l.29.64c-.21.07-.37.18-.48.34-.11.16-.17.35-.17.56,0,.2.05.38.14.55s.23.31.4.44c.17.13.37.22.61.29s.49.1.77.1h.17c.06,0,.1,0,.15,0-.25-.08-.45-.23-.59-.45-.14-.22-.21-.48-.21-.79,0-.24.04-.46.12-.65.08-.2.19-.36.34-.5.15-.14.32-.25.52-.33.2-.08.42-.12.66-.12s.47.04.68.13c.21.08.38.2.53.35.14.15.26.32.34.53s.12.43.12.68c0,.3-.06.57-.18.81ZM306.74,261.22c-.05-.12-.12-.22-.21-.3-.09-.08-.19-.15-.31-.2-.12-.05-.26-.07-.41-.07s-.29.02-.41.07c-.12.05-.23.12-.32.2s-.16.19-.21.31-.07.25-.07.4.02.27.07.39.12.22.2.31c.09.09.19.15.31.2.12.05.25.07.4.07s.28-.03.41-.08.24-.12.34-.21.17-.2.22-.32c.05-.12.08-.26.08-.4s-.03-.26-.08-.38Z"/><path d="M302.29,256.42c.13-.25.32-.47.55-.65.23-.18.52-.32.85-.42.33-.1.69-.15,1.08-.15s.76.05,1.1.15.62.24.86.42c.24.18.43.4.56.65.13.25.2.52.2.83s-.07.57-.2.82-.32.47-.56.65c-.24.18-.53.32-.86.42-.33.1-.7.15-1.1.15s-.75-.05-1.08-.15c-.33-.1-.61-.24-.85-.42-.24-.18-.42-.4-.55-.65-.13-.25-.2-.53-.2-.83s.07-.58.2-.83ZM302.92,257.77c.1.16.23.29.41.41.18.11.38.2.63.27.24.07.51.1.81.1s.57-.03.82-.09c.25-.06.46-.15.64-.27.18-.12.32-.25.42-.41.1-.16.15-.33.15-.52s-.05-.37-.15-.53c-.1-.16-.24-.3-.42-.41-.18-.11-.39-.2-.64-.27-.25-.06-.52-.09-.82-.09s-.56.03-.81.09c-.25.06-.46.15-.63.26-.17.11-.31.25-.41.41-.1.16-.15.34-.15.53s.05.37.15.52Z"/><path d="M303.79,251.59h.67c-.24-.11-.42-.26-.54-.45-.12-.18-.18-.4-.18-.63,0-.26.07-.48.2-.67.14-.19.33-.32.59-.41-.26-.11-.45-.27-.59-.46-.14-.2-.2-.43-.2-.7,0-.38.12-.67.37-.88.25-.21.61-.31,1.07-.31h2.25v.7h-2.16c-.29,0-.52.07-.69.2-.17.13-.25.31-.25.54,0,.12.02.22.07.32.05.1.11.18.2.26.09.07.19.13.32.16.12.04.26.06.4.06h2.11v.7h-2.16c-.14,0-.27.02-.38.06-.12.04-.22.09-.3.15-.08.06-.14.14-.19.23-.04.09-.07.2-.07.31s.02.22.07.32c.05.1.12.18.21.25.09.07.2.12.32.17.12.04.26.06.41.06h2.09v.7h-3.64v-.68Z"/><path d="M303.79,245.41h.67c-.24-.11-.42-.26-.54-.45-.12-.18-.18-.4-.18-.63,0-.26.07-.48.2-.67.14-.19.33-.32.59-.41-.26-.11-.45-.27-.59-.46-.14-.2-.2-.43-.2-.7,0-.38.12-.67.37-.88.25-.21.61-.31,1.07-.31h2.25v.7h-2.16c-.29,0-.52.07-.69.2-.17.13-.25.31-.25.54,0,.12.02.22.07.32.05.1.11.18.2.26.09.07.19.13.32.16.12.04.26.06.4.06h2.11v.7h-2.16c-.14,0-.27.02-.38.06-.12.04-.22.09-.3.15-.08.06-.14.14-.19.23-.04.09-.07.2-.07.31s.02.22.07.32c.05.1.12.18.21.25.09.07.2.12.32.17.12.04.26.06.41.06h2.09v.7h-3.64v-.68Z"/><line y2="216.33" x2="425.1" y1="216.33" x1="325.58" class="cls-2"/><rect height="1.95" width=".21" y="215.36" x="325.47"/><rect height="1.95" width=".21" y="215.36" x="424.99"/><line y2="231.07" x2="310.82" y1="276.22" x1="310.82" class="cls-1"/><rect height=".26" width="1.95" y="276.09" x="309.84"/><rect height=".26" width="1.95" y="230.94" x="309.84"/><line y2="253.25" x2="206.42" y1="258.56" x1="206.42" class="cls-3"/><line y2="258.56" x2="249.62" y1="253.25" x1="249.62" class="cls-3"/><line y2="253.25" x2="206.42" y1="240.07" x1="206.42" class="cls-3"/><line y2="253.25" x2="249.62" y1="240.07" x1="249.62" class="cls-3"/><line y2="7.93" x2="230.88" y1="7.99" x1="230.88" class="cls-3"/><line y2="7.93" x2="225.15" y1="7.99" x1="225.16" class="cls-3"/><line y2="7.84" x2="225.14" y1="7.91" x1="225.15" class="cls-3"/><line y2="7.91" x2="225.15" y1="7.93" x1="225.15" class="cls-3"/><line y2="7.91" x2="230.89" y1="7.93" x1="230.88" class="cls-3"/><line y2="7.84" x2="230.89" y1="7.91" x1="230.89" class="cls-3"/><polyline points="225.15 7.28 225.14 7.29 225.14 7.3 225.14 7.31 225.14 7.32 225.14 7.32" class="cls-3"/><polyline points="225.14 7.84 225.14 7.64 225.14 7.6" class="cls-3"/><polyline points="225.17 7.21 225.21 7.14 225.29 7.09 225.41 7.08" class="cls-3"/><polyline points="225.17 7.21 225.16 7.21 225.16 7.22" class="cls-3"/><polyline points="225.16 7.22 225.16 7.24 225.15 7.26 225.15 7.28" class="cls-3"/><polyline points="230.89 7.32 230.89 7.32 230.89 7.31 230.89 7.3 230.89 7.29 230.89 7.28" class="cls-3"/><polyline points="230.89 7.28 230.89 7.26 230.88 7.24 230.87 7.22" class="cls-3"/><polyline points="230.87 7.22 230.87 7.21 230.87 7.21" class="cls-3"/><polyline points="230.89 7.84 230.89 7.64 230.89 7.6" class="cls-3"/><polyline points="226.58 15.02 226.61 15.17 226.74 15.35 226.97 15.51 227.27 15.63 227.63 15.71 228.02 15.73" class="cls-3"/><polyline points="228.02 15.73 228.41 15.71 228.77 15.63 229.07 15.51 229.3 15.35 229.43 15.17 229.46 15.02" class="cls-3"/><polyline points="228.94 14.02 228.99 14.14 228.96 14.3 228.83 14.45 228.62 14.56 228.33 14.64 228.02 14.67" class="cls-3"/><polyline points="228.02 14.67 227.7 14.64 227.42 14.56 227.2 14.45 227.07 14.3 227.05 14.14 227.1 14.02" class="cls-3"/><line y2="21.9" x2="206.42" y1="21.9" x1="249.62" class="cls-3"/><polyline points="249.62 258.56 249.62 282.74 206.42 282.74 206.42 258.56" class="cls-3"/><line y2="240.07" x2="206.42" y1="21.9" x1="206.42" class="cls-3"/><line y2="240.07" x2="249.62" y1="21.9" x1="249.62" class="cls-3"/><polyline points="250.19 56.88 250.33 56.88 250.47 56.88 250.59 56.88 250.7 56.88 250.79 56.88 250.86 56.88 250.9 56.88 250.91 56.88" class="cls-3"/><polyline points="250.91 56.88 250.91 281.05 249.61 281.05" class="cls-3"/><line y2="56.88" x2="250.19" y1="56.88" x1="249.62" class="cls-3"/><polyline points="205.12 56.88 205.14 56.88 205.18 56.88 205.25 56.88 205.34 56.88 205.44 56.88 205.57 56.88 205.7 56.88 205.84 56.88" class="cls-3"/><polyline points="206.44 281.08 205.12 281.08 205.12 56.88" class="cls-3"/><line y2="56.88" x2="206.42" y1="56.88" x1="205.84" class="cls-3"/><line y2="20.76" x2="246.64" y1="21.9" x1="246.57" class="cls-3"/><line y2="20.76" x2="209.4" y1="21.9" x1="209.46" class="cls-3"/><polyline points="231.12 12.35 230.81 12.17 230.47 12" class="cls-3"/><polyline points="225.5 11.37 225.36 11.41 224.81 11.63 224.33 11.89 223.93 12.17 223.62 12.49 223.41 12.82 223.31 13.17 223.31 13.51 223.41 13.86 223.62 14.19 223.93 14.51 224.13 14.66" class="cls-3"/><polyline points="231.91 14.66 232.11 14.51 232.41 14.19 232.62 13.86 232.73 13.51 232.73 13.17 232.62 12.82 232.41 12.49 232.11 12.17 231.71 11.89 231.23 11.63 230.68 11.41 230.54 11.37" class="cls-3"/><polyline points="231.91 14.66 232.01 14.58 232.29 14.3" class="cls-3"/><polyline points="225.57 12.02 225.16 12.21 224.76 12.46 224.46 12.74 224.25 13.04 224.14 13.35 224.13 13.51" class="cls-3"/><polyline points="225.75 13.84 225.27 14.01 224.79 14.24 224.39 14.5 224.08 14.79 223.85 15.09 223.73 15.41 223.7 15.66" class="cls-3"/><polyline points="232.34 15.66 232.31 15.41 232.18 15.09 231.96 14.79 231.64 14.5 231.24 14.24 230.77 14.01 230.29 13.84" class="cls-3"/><line y2="14.91" x2="230.18" y1="16.32" x1="230.18" class="cls-3"/><line y2="14.91" x2="225.86" y1="16.32" x1="225.86" class="cls-3"/><polyline points="226.75 15.65 226.76 15.74 226.87 15.91 227.06 16.06 227.33 16.18 227.66 16.25 228.02 16.28" class="cls-3"/><polyline points="228.02 16.28 228.38 16.25 228.7 16.18 228.98 16.06 229.17 15.91 229.27 15.74 229.29 15.65" class="cls-3"/><line y2="16.56" x2="230.18" y1="19.24" x1="230.18" class="cls-3"/><line y2="16.56" x2="225.86" y1="19.24" x1="225.86" class="cls-3"/><polyline points="230.18 16.32 230.18 16.34 230.18 16.36 230.18 16.39 230.18 16.42 230.18 16.45 230.18 16.49 230.18 16.53 230.18 16.56" class="cls-3"/><polyline points="225.86 16.32 225.86 16.34 225.86 16.36 225.86 16.39 225.86 16.42 225.86 16.45 225.86 16.49 225.86 16.53 225.86 16.56" class="cls-3"/><line y2="16.56" x2="225.86" y1="16.56" x1="230.18" class="cls-3"/><polyline points="228.02 14.01 228.14 14.02 228.24 14.05 228.3 14.1 228.33 14.16 228.3 14.22 228.24 14.27 228.14 14.3 228.02 14.31 227.9 14.3 227.8 14.27 227.73 14.22 227.71 14.16 227.73 14.1 227.8 14.05 227.9 14.02 228.02 14.01" class="cls-3"/><polyline points="227.1 14.02 226.67 14.63 226.64 14.66 226.6 14.77 226.58 14.89" class="cls-3"/><polyline points="228.82 13.91 228.91 13.99 228.94 14.02" class="cls-3"/><polyline points="227.1 14.02 227.13 13.99 227.14 13.97" class="cls-3"/><line y2="7.99" x2="230.88" y1="14.91" x1="230.18" class="cls-3"/><line y2="7.99" x2="225.16" y1="14.91" x1="225.86" class="cls-3"/><line y2="14.91" x2="225.86" y1="14.91" x1="226.58" class="cls-3"/><line y2="14.91" x2="229.46" y1="14.91" x1="230.18" class="cls-3"/><polyline points="225.28 9.21 225.08 9.28 224.59 9.52 224.16 9.81 223.8 10.15 223.55 10.47 223.39 10.82 223.3 11.21 223.31 11.34" class="cls-3"/><polyline points="232.73 11.4 232.74 11.27 232.67 10.9 232.53 10.54 232.3 10.21 231.99 9.9 231.59 9.61 231.13 9.36 230.75 9.21" class="cls-3"/><polyline points="231.91 13.51 231.89 13.35 231.79 13.04 231.58 12.74 231.27 12.46 231.19 12.4 231.12 12.35" class="cls-3"/><line y2="13.34" x2="223.3" y1="11.35" x1="223.3" class="cls-3"/><line y2="11.35" x2="232.74" y1="13.34" x1="232.74" class="cls-3"/><line y2="14.73" x2="224.13" y1="13.51" x1="224.13" class="cls-3"/><line y2="13.51" x2="231.91" y1="14.73" x1="231.91" class="cls-3"/><line y2="19.24" x2="223.7" y1="15.66" x1="223.7" class="cls-3"/><line y2="15.66" x2="232.34" y1="19.24" x1="232.34" class="cls-3"/><polyline points="228.27 14.21 228.27 14.21 228.26 14.23 228.22 14.26 228.15 14.29 228.07 14.3 228.05 14.3" class="cls-3"/><polyline points="228.05 14.3 227.97 14.3 227.88 14.29 227.81 14.26 227.78 14.23 227.77 14.21 227.77 14.21" class="cls-3"/><polyline points="229.29 15.65 229.29 15.52 229.29 15.36" class="cls-3"/><line y2="15.65" x2="226.75" y1="15.36" x1="226.75" class="cls-3"/><line y2="14.89" x2="229.46" y1="15.02" x1="229.46" class="cls-3"/><line y2="15.02" x2="226.58" y1="14.89" x1="226.58" class="cls-3"/><polyline points="229.46 14.89 229.44 14.77 229.37 14.63 228.94 14.02" class="cls-3"/><polyline points="228.02 13.7 227.86 13.7 227.58 13.75 227.34 13.84 227.15 13.96 227.15 13.97" class="cls-3"/><polyline points="228.8 13.9 228.62 13.8 228.36 13.73 228.08 13.7 228.02 13.7" class="cls-3"/><polyline points="225.38 7.08 230.65 7.08 230.75 7.09 230.82 7.14 230.87 7.21" class="cls-3"/><line y2="7.6" x2="225.14" y1="7.32" x1="225.14" class="cls-3"/><line y2="7.32" x2="230.89" y1="7.6" x1="230.89" class="cls-3"/><path d="M422.25,276.5h-.26v-.3h.14l.1-.1h.1l.21-.21v-.84h.3v.96l-.39.39h-.1l-.1.1ZM421.98,276.5h-9.61v-.3h9.61v.3ZM412.36,276.5h-.16l-.1-.1h-.2l-.29-.29v-.13l-.1-.24v-.1h.3v.06l.1.27.11.11h.2l.1.1h.04v.3ZM408.16,276.5h-.14v-.3h.06l.27-.1.21-.21v-.24h.3v.36l-.39.39h-.13l-.2.1ZM408.02,276.5h-9.61v-.3h9.61v.3ZM398.39,276.5l-.17-.02-.17-.08h-.13l-.29-.29v-.13l-.1-.24v-.1h.3v.06l.1.27.11.11.1.02.17.08h.06v.3ZM352.33,276.5h-.26v-.3h.14l.1-.1h.1l.21-.21v-.84h.3v.96l-.39.39h-.1l-.1.1ZM352.06,276.5h-9.61v-.3h9.61v.3ZM342.44,276.5h-.16l-.1-.1h-.2l-.29-.29v-.13l-.1-.24v-.1h.3v.06l.1.27.11.11h.2l.1.1h.04v.3ZM338.36,276.5h-.26v-.3h.14l.1-.1h.1l.21-.21v-.84h.3v.96l-.39.39h-.1l-.1.1ZM338.09,276.5h-9.61v-.3h9.61v.3ZM328.47,276.5l-.17-.02-.17-.08h-.13l-.29-.29v-.13l-.1-.24v-.1h.3v.06l.1.27.11.11.1.02.17.08h.06v.3ZM394.05,276.5h-9.61v-.17l-.08.15-.17-.08h-.13l-.49-.49v-.86h.3v.74l.31.31.1.02.17.08h9.52l.1-.1h.13l.19-.11v-.1l.2-.2v-.14h.3v.26l-.2.2v.1l-.18.17-.3.12-.06.06-.11-.11v.15ZM380.09,276.5h-9.61v-.17l-.08.15-.17-.08h-.13l-.49-.49v-.86h.3v.74l.31.31.1.02.17.08h9.52l.1-.1h.2l.21-.21v-.1l.1-.1v-.14h.3v.26l-.1.1v.1l-.39.39h-.2l-.06.06-.11-.11v.15ZM366.12,276.5h-9.61v-.16l-.12.12-.06-.06h-.2l-.39-.39v-.1l-.1-.1v-.76h.3v.64l.1.1v.1l.21.21h.2l.1.1h9.5l.1-.1h.2l.31-.31v-.24h.3v.36l-.49.49h-.2l-.06.06-.11-.11v.15ZM411.81,275.65h-.3v-.6h.3v.6ZM408.87,275.65h-.3v-.6h.3v.6ZM397.84,275.65h-.3v-.6h.3v.6ZM341.89,275.65h-.3v-.6h.3v.6ZM327.92,275.65h-.3v-.6h.3v.6ZM394.91,275.55h-.3v-.5h.3v.5ZM380.95,275.55h-.3v-.5h.3v.5ZM366.98,275.55h-.3v-.5h.3v.5ZM425.57,274.95h-.3v-42.15h.3v42.15ZM341.51,259.08l-1.11-.1-1.16-.21-1.01-.5-.28-.18h-1.33l-.17.08-.52.21-.64.11h-1.23s0-.3,0-.3h1.21l.59-.1.73-.3h.05l.26-.17.5-.39.78-.98.28-.57.19-.67.19-1.36-.2-1.38-.19-.57-.29-.58-.39-.58-.38-.38-.5-.39-.25-.17-.12-.02-.2-.1-.5-.19-.58-.09-.32-.11h0s-1.16,0-1.16,0v-.3h1.21v.16l.05-.14.3.1.59.09.68.28v-.09h1.37l.26-.17,1.04-.42,1.13-.31,1.14-.1.02.19.04-.18,2.06.41,1.01.5.93.61.53.52-.21.21-.51-.5-.89-.58-.98-.48-1.98-.39-1.1.1-1.08.3-.77.31h2.86l.83.1.64.21.7.2.64.31.66.44.35.44h.03s1.5-.2,1.5-.2l.02.15v-.15h.03s-.54,0-.54,0v-.15l-.11.11-.06-.06h-.1l-.14-.14.21-.21.06.06h.1l.1.1h.6l.13.13.26.13v.04h.36v.15s0-.15,0-.15h.1v.15h.15v5.71h-.15v.15h-.1v-.15s0,.15,0,.15h-.47l-.15.07-.12.11-.27.12h-.54l-.06.06-.11-.11.1.11-.61.6-.84.52-.82.41-.93.31-1.34.21-.03-.19-.02.19ZM339.35,258.49l1.09.2,1.09.1,1.31-.2.89-.29.79-.39.8-.49.73-.72.66-.02-1.36-.27-.44.44-.63.42-.63.31-.72.3-.64.11-.93.1h-2.81l.82.41ZM341.33,257.78h.1l.79-.1.6-.1.68-.29.6-.3.59-.39.23-.23-2.5-.4h-1.51v-.16l-.13-.04.2-.6.19-1.27v-.58s-.2-1.18-.2-1.18l-.19-.58.13-.04v-.15h1.51l2.52-.4h0s0,0,0,0l-.27-.34-.59-.39-.59-.29-.68-.19-.62-.2-.78-.09h-.08s-3.8,0-3.8,0l.31.12.56.33.4.4.84,1.06.4,1.2.11.73v.62s-.1.72-.1.72l-.43,1.27-.8,1-.44.44-.51.3-.31.12h3.77ZM337.32,249.71l.26.21.41.41.42.62.31.62.21.62.21,1.45-.2,1.42-.2.72-.31.63-.86,1.06.17-.07.47-.28.39-.39.77-.97.39-1.17.09-.67v-.58s-.1-.68-.1-.68l-.39-1.15-.78-.98-.38-.37-.49-.29-.39-.15ZM346.8,256.48l-.03.14h.03v-.14ZM347.31,256.38h.35v-5.41h-.85l-1.51.2-.27.09-.07-.2.03.2-2.53.4-.02-.15v.15h-1.3l.13.4.21,1.22v.62s-.2,1.32-.2,1.32l-.14.44h1.31v.15l.02-.15,2.52.4h.29l1.53.3h.51ZM344.97,256.23l-.02.12.02-.02v-.1ZM425.57,232.8h-.3v-.4h.3v.4ZM422.84,232.19h-.3v-.74s-.32-.31-.32-.31l-.1-.02-.17-.08h-9.52l-.1.1h-.13l-.15.07-.14.14v.1l-.1.1v.14h-.3v-.26l.1-.1v-.1l.28-.27.31-.12.06-.06.12.12v-.16h9.61v.15l.07-.13.17.08h.13l.49.49v.86ZM411.81,232.19h-.3v-.5h.3v.5ZM408.77,232.19h-.3v-.74s-.32-.31-.32-.31l-.11-.02-.17-.08h-9.52l-.1.1h-.13l-.19.11v.1l-.2.2v.14h-.3v-.26l.2-.2v-.1l.18-.17.3-.12.06-.06.12.12v-.16h9.61v.15l.07-.13.17.08h.13l.49.49v.86ZM397.74,232.19h-.3v-.5h.3v.5ZM394.91,232.19h-.3v-.64s-.21-.2-.21-.2v-.1l-.04-.04-.15-.07h-.13l-.1-.1h-9.52l-.27.1-.31.31v.24h-.3v-.36l.49-.49h.13l.17-.08.08.15v-.17h9.61v.15l.11-.11.06.06.1.02.24.13.14.14v.1l.2.2v.76ZM383.88,232.19h-.3v-.5h.3v.5ZM380.95,232.19h-.3v-.64s-.11-.1-.11-.1v-.1l-.21-.21h-.2l-.1-.1h-9.52l-.27.1-.31.31v.24h-.3v-.36l.49-.49h.13l.17-.08.08.15v-.17h9.61v.15l.11-.11.06.06h.2l.39.39v.1l.1.1v.76ZM369.92,232.19h-.3v-.5h.3v.5ZM366.98,232.19h-.3v-.74s-.32-.31-.32-.31h-.2l-.1-.1h-9.5l-.1.1h-.2l-.21.21v.1l-.1.1v.14h-.3v-.26l.1-.1v-.1l.39-.39h.2l.06-.06.12.12v-.16h9.61v.15l.11-.11.06.06h.2l.49.49v.86ZM355.95,232.19h-.3v-.5h.3v.5ZM353.02,232.19h-.3v-.74s-.32-.31-.32-.31h-.2l-.1-.1h-9.5l-.1.1h-.2l-.21.21v.1l-.1.1v.14h-.3v-.26l.1-.1v-.1l.39-.39h.2l.06-.06.12.12v-.16h9.61v.15l.11-.11.06.06h.2l.49.49v.86ZM341.99,232.19h-.3v-.5h.3v.5ZM338.95,232.19h-.3v-.74s-.32-.31-.32-.31l-.11-.02-.17-.08h-9.52l-.1.1h-.2l-.21.21v.1l-.1.1v.14h-.3v-.26l.1-.1v-.1l.39-.39h.2l.06-.06.12.12v-.16h9.61v.15l.07-.13.17.08h.13l.49.49v.86ZM327.92,232.19h-.3v-.5h.3v.5Z"/><path d="M424.98,275.1h-.16v-.3h.04l.1-.1h.1l.11-.11v-.1l.1-.1v-.04h.04-.04v-41.45h.3v41.45h-.25.25v.16l-.1.1v.1l-.29.29h-.1l-.1.1ZM424.81,275.1h-99.27v-.25.25h-.16l-.1-.1h-.1l-.19-.19v-.1l-.1-.1v-.26h.3v.14l.1.1v.11h.11l.1.1h.04v.04-.04h99.27v.3ZM325.19,274.35h-.3v-41.45h.3v41.45ZM420.12,269.99h-89.61v-.3h89.49l.11-.11v-31.83h-.1v-.1h-.05v-.3h.35v.1h.1v32.25l-.29.29ZM330.5,269.99h-.35v-.1h-.1v-13.86h.3v13.56h.1v.1h.05v.3ZM417.63,254.87c-.68,0-1.26-.57-1.26-1.25,0-.76.55-1.35,1.26-1.35.79,0,1.36.57,1.36,1.35,0,.7-.6,1.25-1.36,1.25ZM417.63,252.57c-.55,0-.96.45-.96,1.05,0,.52.44.95.96.95.6,0,1.06-.41,1.06-.95,0-.62-.44-1.05-1.06-1.05ZM330.35,251.22h-.3v-13.77h.1v-.1h.35v.3h-.05v.1h-.1v13.47ZM419.96,237.65h-89.45v-.3h89.45v.3ZM325.19,232.9h-.3v-.26l.1-.1v-.19h.19l.1-.1h.26v.3h-.14l-.21.21v.14ZM425.31,232.9h0s-.04,0-.04,0v-.04l-.1-.1v-.11h-.11l-.1-.1h-99.41v-.3h99.53l.1.1h.1l.19.19v.1l.1.1v.16h-.26Z"/><path d="M333.34,258.48l-.54-.1-.63-.21-.53-.31-.53-.41-.41-.41-.42-.51-.32-.63-.42-1.23-.11-.62v-.72s.1-.72.1-.72l.42-1.23.11-.22.21-.32.86-1.05,1.01-.6.53-.21.64-.11h.19s.22-.11.22-.11l.37.12.58.09.63.21.54.31,1.07.86.92,1.85.1.72v1.4l-.11.76-.31.71-.3.61-.33.54-.51.5-.51.41-.53.31-.64.21-.62.1h-.73ZM331.31,250.04l-.79.98-.19.29-.09.18-.4,1.18-.09.67v.68s.1.58.1.58l.4,1.19.29.58.39.47.39.39.5.39.48.29.58.19.49.09h.68s.58-.1.58-.1l.59-.19.48-.29.48-.39.49-.48.29-.48.29-.59.3-.69.1-.68v-1.37s-.1-.66-.1-.66l-.88-1.75-.98-.78-.49-.29-.58-.19-.58-.09-.27-.09-.21.09h-.2l-.59.1-.48.19-.96.58Z"/><rect height="1.11" width="42.91" y="19.57" x="206.57" class="cls-3"/><polyline points="206.23 33.06 206.23 33.06 206.23 33.26 206.23 33.46 206.23 33.87 206.23 34.27 206.23 34.77 206.23 35.38 206.23 35.99 206.23 36.69 206.23 37.4 206.23 38.21 206.23 38.91 206.23 39.72 206.23 40.43 206.23 41.13 206.23 41.84 206.23 42.45 206.23 42.95 206.23 43.46 206.23 43.86 206.23 44.16 206.23 44.36 206.23 44.47" class="cls-3"/><polyline points="204.92 34.57 204.92 34.67 204.92 34.77 204.92 35.08 204.92 35.38 204.92 35.78 204.92 36.29 204.92 36.89 204.92 37.5 204.92 38.11 204.92 38.71 204.92 39.42 204.92 40.02 204.92 40.63 204.92 41.13 204.92 41.64 204.92 42.04 204.92 42.45 205.02 43.05" class="cls-3"/><polyline points="205.32 33.87 205.32 33.97 205.32 34.07 205.32 34.37 205.32 34.67 205.32 35.18 205.32 35.68 205.32 36.19 205.32 36.89 205.32 37.5 205.32 38.21 205.32 38.91 205.32 39.62 205.32 40.33 205.32 40.93 205.32 41.54 205.32 42.14 205.32 42.55 205.32 42.95 205.32 43.25 205.32 43.46 205.32 43.56" class="cls-3"/><line y2="42.55" x2="202.39" y1="42.55" x1="202.29" class="cls-3"/><line y2="34.98" x2="202.29" y1="34.88" x1="202.39" class="cls-3"/><line y2="42.55" x2="204.92" y1="42.55" x1="202.39" class="cls-3"/><line y2="34.88" x2="202.39" y1="34.88" x1="204.92" class="cls-3"/><polyline points="205.02 34.47 205.02 34.47 204.92 34.47 204.92 34.57" class="cls-3"/><line y2="43.05" x2="205.32" y1="43.05" x1="205.02" class="cls-3"/><line y2="34.47" x2="205.02" y1="34.47" x1="205.32" class="cls-3"/><polygon points="202.29 43.43 199.86 43.43 199.76 43.33 199.56 43.33 199.46 43.23 199.46 43.12 199.36 43.12 199.36 43.02 199.26 42.62 199.16 42.32 199.06 42.01 199.06 41.61 198.96 41.31 198.96 40.9 198.86 40.6 198.86 36.87 198.96 36.46 198.96 36.16 199.06 35.75 199.06 35.45 199.16 35.15 199.26 34.75 199.36 34.44 199.36 34.34 199.56 34.14 199.66 34.14 199.76 34.04 202.29 34.04 202.29 43.43" class="cls-3"/><polyline points="205.32 43.56 205.32 43.76 205.42 43.96 205.53 44.06 205.63 44.16 205.73 44.26 205.83 44.36 206.03 44.47 206.23 44.47" class="cls-3"/><polyline points="206.23 33.06 206.03 33.06 205.83 33.06 205.73 33.16 205.63 33.26 205.53 33.46 205.42 33.56 205.32 33.76 205.32 33.87" class="cls-3"/><line y2="44.47" x2="206.44" y1="44.47" x1="206.23" class="cls-3"/><line y2="33.06" x2="206.23" y1="33.06" x1="206.44" class="cls-3"/><g id="LINE11"><line y2="20.41" x2="135.51" y1="21.55" x1="135.45" class="cls-3"/></g><g id="LINE12"><line y2="20.41" x2="41.23" y1="21.55" x1="41.29" class="cls-3"/></g><rect height="261.3" width="100.21" y="21.55" x="38.26" class="cls-3"/><line y2="50.66" x2="83.07" y1="280.29" x1="83.07" class="cls-3"/><line y2="280.29" x2="94.09" y1="50.66" x1="94.09" class="cls-3"/><line y2="280.29" x2="108.04" y1="50.66" x1="108.04" class="cls-3"/><line y2="50.66" x2="97.02" y1="280.29" x1="97.02" class="cls-3"/><line y2="50.66" x2="69.12" y1="280.29" x1="69.12" class="cls-3"/><line y2="280.29" x2="80.14" y1="50.66" x1="80.14" class="cls-3"/><line y2="280.29" x2="121.99" y1="50.55" x1="121.99" class="cls-3"/><line y2="50.55" x2="110.98" y1="280.29" x1="110.98" class="cls-3"/><line y2="280.29" x2="66.19" y1="50.55" x1="66.19" class="cls-3"/><line y2="50.55" x2="55.17" y1="280.29" x1="55.17" class="cls-3"/><line y2="50.55" x2="124.93" y1="280.29" x1="124.93" class="cls-3"/><line y2="280.29" x2="52.24" y1="50.55" x1="52.24" class="cls-3"/><line y2="50.57" x2="135.94" y1="50.55" x1="40.79" class="cls-3"/><polyline points="135.94 50.64 135.94 280.48 40.79 280.48 40.79 50.62" class="cls-3"/><g id="LINE2"><line y2="15.04" x2="44.85" y1="14.92" x1="44.88" class="cls-3"/></g><g id="LINE3"><line y2="11.17" x2="51.41" y1="11.2" x1="51.53" class="cls-3"/></g><g id="LINE4"><line y2="17.18" x2="46.09" y1="15.04" x1="44.85" class="cls-3"/></g><g id="LINE5"><line y2="11.2" x2="51.53" y1="13.34" x1="52.77" class="cls-3"/></g><g id="ARC"><path d="M52.1,10.77s.04-.04.05-.07c0-.04,0-.07,0-.09l-1.15-1.98c-.12-.21-.36-.32-.6-.27-.94.18-1.83.51-2.66.99l-.16.09h-.02l-.02.03h-.02l-.03.03-.03.02-.03.02-.03.02-.03.02-.03.02-.03.02-.03.02-.03.02-.04.02-.04.02-.04.02-.04.02-.04.02-.04.02-.04.02-.04.02-.04.02-.04.02-.04.02-.04.02-.04.03-.04.03-.04.03-.04.03-.04.03-.04.03-.04.03-.04.03-.04.03-.04.03-.04.03-.04.03-.04.03-.04.03-.04.02-.04.02-.04.02-.04.02-.04.02-.04.02-.04.02-.04.02-.04.02-.04.02-.04.02-.04.02-.03.02-.03.02-.03.02-.03.02-.03.02-.03.02-.03.02-.03.02h-.03l-.02.03h-.02l-.02.03h-.02c-.96.57-1.7,1.17-2.33,1.89-.15.17-.18.41-.09.61.02.03.03.05.03.05l.04.08s.91,1.56,1.08,1.86c0,.02.02.03.03.05,0,.01.04.03.08.04.08.02.14-.03.15-.04h.02l.02-.02h.02l.03-.03.03-.02.03-.02.04-.02.04-.02.04-.02.04-.02.05-.03.05-.03.05-.03.05-.03.06-.03.06-.03.06-.03.06-.04.06-.04.07-.04.07-.04.07-.04.07-.04.07-.04.08-.04.08-.04.08-.05.08-.05.08-.05.08-.05.09-.05.09-.05.09-.05.09-.05.09-.05.09-.05.09-.05.1-.05.1-.06.1-.06.1-.06.1-.06.1-.06.1-.06.1-.06.1-.06.1-.06.1-.06.1-.06.1-.06.1-.06.1-.06.1-.06.1-.06.1-.06.1-.06.1-.06.1-.06.1-.06.1-.06.1-.06.1-.06.1-.06.1-.06.1-.06.1-.06.1-.06.1-.06.09-.05.09-.05.09-.05.09-.05.09-.05.09-.05.09-.05.09-.05.08-.05.08-.05.08-.05.08-.05.08-.04.08-.04.07-.04.07-.04.07-.04.07-.04.07-.04.06-.04.06-.04.06-.03.06-.03.06-.03.05-.03.05-.03.05-.03.05-.03.04-.02.04-.02.04-.02.04-.02.03-.02.03-.02.03-.02h.03s.02-.02.02-.03c.04-.01.07-.04.09-.05l-.07-.02Z" class="cls-3"/></g><g id="LINE9"><polyline points="59.64 16.7 59.64 16.37 59.64 16.35 59.64 16.34" class="cls-3"/></g><g id="LINE10"><path d="M59.64,16.7v2.23-2.59c0-.09-.06-.17-.14-.21l-.21-.16-2.02-1.12-.21-.12,3.84-6.91v-.02l.02-.02s0-.02.13-.23c.07-.13.03-.29-.09-.38l-.35-.23c-.13-.09-.31-.05-.41.1-.12.18-.13.2-.13.2v.02l-.03.02-4.42,6.77s-.03.05-.05.08-.03.05-.05.08-.03.05-.05.08-.03.05-.05.08-.57.87-.57.87c-.02.04-.06.07-.1.09-.14.08-.31.03-.39-.1l-1-1.72-.14-.25c-.04-.07-.13-.09-.2-.05-.08.05-.1.06-.1.06h-.02l-.03.03-.03.02-.03.02-.03.02-.03.02-.04.02-.04.02-.04.02-.04.03-.05.03-.05.03-.05.03-.05.03-.05.03-.06.03-.06.03-.06.03-.06.04-.06.04-.06.03-.07.04-.07.04-.07.04-.07.04-.07.04-.08.04-.08.04-.08.04-.08.05-.08.05-.08.05-.08.05-.08.05-.09.05-.09.05-.09.05-.09.05-.09.05-.09.05-.09.05-.09.05-.09.05-.09.05-.09.05-.09.05-.09.05-.09.05-.09.05-.09.05-.09.05-.09.05-.09.05-.09.05-.09.05-.09.05-.09.05-.09.05-.09.05-.09.05-.09.05-.09.05-.09.05-.09.05-.09.05-.09.05-.09.05-.09.05-.08.05-.08.05-.08.05-.08.05-.08.05-.08.04-.08.04-.08.04-.07.04-.07.04-.07.04-.07.04-.07.04-.07.04-.06.04-.06.04-.06.03-.06.03-.06.03-.05.03-.05.03-.05.03-.05.03-.05.03-.04.03-.04.02-.04.02-.04.02-.03.02-.03.02-.03.02-.03.02h-.03l-.02.03s-.02.01-.1.06c-.07.04-.09.13-.05.19l.05.09c.04.07.09.15.09.15l.67,1.16" class="cls-3"/></g><g id="ARC1"><path d="M57.29,14.77h.21l-.11-.19.11-.19h-.02c-.07-.05-.09-.14-.05-.21l.09-.15.83-.48c.15.09.17.1.17.1h.02l.02.03h.02l.03.03.03.02.03.02.03.02.03.02.03.02.03.02.03.02.03.02.03.02.03.02.03.02.03.02.04.02.04.02.04.02.04.02.04.02.04.02.04.02.04.02.04.02.04.02.03.02.03.02.03.02.03.02.03.02.03.02.03.02.03.02.03.02.03.02.03.02.03.02h.03l.02.03h.02l.02.03h.02s.04.03.15.1v.95l-.09.15c-.04.07-.13.09-.19.05h-.02l-.07.1s-.03.04-.06.08c-.02-.04-.04-.09-.05-.08v.08c0,.05,0,.12-.07.22" class="cls-3"/></g><g id="ARC2"><path d="M59.67,19.22h78.35c.19,0,.35.06.36.15l.1.96H38.26l.1-.96c0-.08.17-.15.36-.15h20.95Z" class="cls-3"/></g><path d="M365.57,207.19v.55l-.65.98c-.04.06-.07.1-.1.15-.03.04-.06.08-.09.13s-.06.09-.09.13-.06.09-.09.15c.19.02.37.08.52.18s.29.21.41.35c.12.14.21.3.27.48s.09.38.09.59c0,.24-.04.47-.13.67-.08.2-.2.38-.36.52-.15.14-.34.26-.54.34s-.44.12-.69.12c-.21,0-.4-.03-.58-.08-.18-.05-.35-.13-.49-.23-.15-.1-.28-.22-.39-.37-.11-.14-.2-.31-.26-.49l.63-.31c.08.24.22.44.41.58.19.14.42.21.67.21.15,0,.28-.02.4-.07.12-.05.23-.11.31-.2.09-.09.15-.19.2-.31.05-.12.07-.26.07-.41s-.03-.29-.08-.42c-.06-.13-.13-.23-.22-.32-.09-.09-.21-.16-.34-.21-.13-.05-.28-.08-.44-.08h-.35l-.08-.44.72-1.07s.06-.09.09-.12c.03-.03.05-.07.08-.12s.06-.08.08-.12c.03-.03.06-.07.09-.12h-2.18v-.65h3.09Z"/><path d="M369.5,207.19v.65h-1.92l-.25,1.54c.1-.09.22-.16.36-.21.14-.05.29-.07.46-.07.25,0,.47.04.68.13.21.08.38.2.53.35.15.15.27.33.35.54.08.21.12.44.12.69s-.04.48-.13.7c-.09.21-.21.4-.36.55-.16.15-.34.27-.56.36-.21.08-.45.13-.71.13-.2,0-.39-.03-.58-.08s-.35-.13-.5-.23c-.15-.1-.28-.22-.39-.36-.11-.14-.19-.3-.24-.48l.63-.31c.07.24.19.43.39.56.19.14.42.21.67.21.15,0,.29-.03.41-.08.13-.05.23-.12.33-.21.09-.09.16-.2.21-.33.05-.13.08-.27.08-.43s-.03-.3-.08-.44c-.05-.13-.13-.25-.22-.34s-.21-.17-.34-.22c-.13-.05-.28-.08-.44-.08-.18,0-.35.04-.49.1-.14.07-.26.17-.36.31l-.62-.15.47-2.79h2.52Z"/><path d="M373.24,207.33c.25.13.47.32.65.55.18.23.32.52.42.85.1.33.15.69.15,1.08s-.05.76-.15,1.1-.24.62-.42.86c-.18.24-.4.43-.65.56-.25.13-.52.2-.83.2s-.57-.07-.82-.2-.47-.32-.65-.56c-.18-.24-.32-.53-.42-.86-.1-.33-.15-.7-.15-1.1s.05-.75.15-1.08c.1-.33.24-.61.42-.85.18-.24.4-.42.65-.55.25-.13.53-.2.83-.2s.58.07.83.2ZM371.89,207.97c-.16.1-.29.23-.41.41-.11.18-.2.38-.27.63-.07.24-.1.51-.1.81s.03.57.09.82c.06.25.15.46.27.64.12.18.25.32.41.42.16.1.33.15.52.15s.37-.05.53-.15c.16-.1.3-.24.41-.42.11-.18.2-.39.27-.64.06-.25.09-.52.09-.82s-.03-.56-.09-.81c-.06-.25-.15-.46-.26-.63-.11-.17-.25-.31-.41-.41-.16-.1-.34-.15-.53-.15s-.37.05-.52.15Z"/><path d="M378.07,208.83v.67c.11-.24.26-.42.45-.54.18-.12.4-.18.63-.18.26,0,.48.07.67.2.19.14.32.33.41.59.11-.26.27-.45.46-.59.2-.14.43-.2.7-.2.38,0,.67.12.88.37.21.25.31.61.31,1.07v2.25h-.7v-2.16c0-.29-.07-.52-.2-.69-.13-.17-.31-.25-.54-.25-.12,0-.22.02-.32.07-.1.05-.18.11-.26.2-.07.09-.13.19-.16.32-.04.12-.06.26-.06.4v2.11h-.7v-2.16c0-.14-.02-.27-.06-.38-.04-.12-.09-.22-.15-.3-.06-.08-.14-.14-.23-.19-.09-.04-.2-.07-.31-.07s-.22.02-.32.07c-.1.05-.18.12-.25.21-.07.09-.12.2-.17.32-.04.12-.06.26-.06.41v2.09h-.7v-3.64h.68Z"/><path d="M384.25,208.83v.67c.11-.24.26-.42.45-.54.18-.12.4-.18.63-.18.26,0,.48.07.67.2.19.14.32.33.41.59.11-.26.27-.45.46-.59.2-.14.43-.2.7-.2.38,0,.67.12.88.37.21.25.31.61.31,1.07v2.25h-.7v-2.16c0-.29-.07-.52-.2-.69-.13-.17-.31-.25-.54-.25-.12,0-.22.02-.32.07-.1.05-.18.11-.26.2-.07.09-.13.19-.16.32-.04.12-.06.26-.06.4v2.11h-.7v-2.16c0-.14-.02-.27-.06-.38-.04-.12-.09-.22-.15-.3-.06-.08-.14-.14-.23-.19-.09-.04-.2-.07-.31-.07s-.22.02-.32.07c-.1.05-.18.12-.25.21-.07.09-.12.2-.17.32-.04.12-.06.26-.06.41v2.09h-.7v-3.64h.68Z"/><line y2="282.76" x2="20.35" y1="6.9" x1="20.35" class="cls-3"/><rect height=".3" width="1.95" y="6.75" x="19.37"/><rect height=".3" width="1.95" y="282.61" x="19.37"/><path d="M12.78,142.51h.67c-.24-.11-.42-.26-.54-.45-.12-.18-.18-.4-.18-.63,0-.26.07-.48.2-.67.14-.19.33-.32.59-.41-.26-.11-.45-.27-.59-.46-.14-.2-.2-.43-.2-.7,0-.38.12-.67.37-.88s.61-.31,1.07-.31h2.25v.7h-2.16c-.29,0-.52.07-.69.2-.17.13-.25.31-.25.54,0,.12.02.22.07.32.05.1.11.18.2.26.09.07.19.13.32.17.12.04.26.06.4.06h2.11v.7h-2.16c-.14,0-.27.02-.38.06-.12.04-.22.09-.3.15s-.14.14-.19.23c-.04.09-.07.2-.07.31s.02.22.07.32c.05.1.12.18.21.25s.2.12.32.17c.12.04.26.06.41.06h2.09v.7h-3.64v-.68h0Z"/><path d="M12.78,136.33h.67c-.24-.11-.42-.26-.54-.45-.12-.18-.18-.4-.18-.63,0-.26.07-.48.2-.67.14-.19.33-.32.59-.41-.26-.11-.45-.27-.59-.46-.14-.2-.2-.43-.2-.7,0-.38.12-.67.37-.88s.61-.31,1.07-.31h2.25v.7h-2.16c-.29,0-.52.07-.69.2-.17.13-.25.31-.25.54,0,.12.02.22.07.32.05.1.11.18.2.26.09.07.19.13.32.17.12.04.26.06.4.06h2.11v.7h-2.16c-.14,0-.27.02-.38.06-.12.04-.22.09-.3.15s-.14.14-.19.23c-.04.09-.07.2-.07.31s.02.22.07.32c.05.1.12.18.21.25s.2.12.32.17c.12.04.26.06.41.06h2.09v.7h-3.64v-.68h0Z"/><path d="M11.26,155.45c.12-.24.3-.45.53-.63.23-.17.51-.31.84-.4.33-.09.7-.14,1.1-.14.43,0,.83.05,1.18.15.35.1.65.25.9.44.25.19.44.42.58.68.13.27.2.56.2.89,0,.38-.09.71-.27.99s-.44.48-.78.6l-.3-.65c.22-.07.39-.18.5-.35.11-.17.17-.36.17-.59,0-.19-.04-.36-.12-.52s-.2-.3-.35-.41c-.15-.12-.33-.21-.54-.27s-.43-.09-.66-.09c-.07,0-.12.01-.16.03-.04.02-.06.06-.05.1,0,.01,0,.03,0,.04,0,.01,0,.02.01.04,0,.01.01.02.02.04,0,.01.02.03.04.04.11.12.2.26.26.4s.09.3.09.47c0,.24-.04.47-.12.67s-.2.38-.34.53c-.15.15-.32.26-.53.34s-.43.12-.67.12-.48-.04-.69-.13c-.21-.09-.39-.2-.54-.35-.15-.15-.27-.33-.35-.54s-.12-.44-.12-.69c0-.3.06-.58.18-.82ZM11.84,156.64c.05.12.12.23.21.31.09.09.2.15.32.2s.26.07.42.07.29-.02.41-.08c.13-.05.24-.12.33-.21.09-.09.16-.19.21-.32.05-.12.07-.26.07-.41s-.02-.28-.07-.4c-.05-.12-.12-.23-.21-.31s-.19-.16-.31-.21c-.12-.05-.26-.08-.4-.08s-.29.03-.42.08c-.13.05-.25.13-.34.22-.1.09-.17.2-.23.33-.05.13-.08.26-.08.4s.03.27.08.39Z"/><path d="M16.41,152.59c-.12.24-.3.45-.53.63s-.51.31-.84.4c-.33.09-.7.14-1.1.14-.43,0-.83-.05-1.18-.15-.35-.1-.65-.25-.9-.44-.25-.19-.44-.42-.58-.68-.13-.27-.2-.56-.2-.89,0-.38.09-.71.27-.99s.44-.48.78-.6l.3.65c-.22.07-.39.18-.5.35s-.17.36-.17.59c0,.19.04.36.12.51.08.16.2.3.35.42s.33.21.54.27c.21.06.43.09.66.09.07,0,.12-.01.16-.03s.06-.06.05-.1c0-.01,0-.03,0-.04,0-.01,0-.02-.01-.04,0-.01-.01-.03-.02-.04,0-.01-.02-.03-.04-.04-.11-.12-.2-.26-.26-.4-.06-.14-.09-.3-.09-.47,0-.24.04-.47.12-.67s.2-.38.34-.53c.15-.15.32-.26.53-.34.21-.08.43-.12.67-.12s.48.04.69.13c.21.09.39.2.54.35.15.15.27.33.35.54.08.21.12.44.12.69,0,.31-.06.58-.18.82ZM15.82,151.4c-.05-.12-.12-.23-.21-.31-.09-.09-.2-.15-.32-.2-.12-.05-.26-.07-.41-.07s-.29.02-.42.08c-.13.05-.24.12-.33.21-.09.09-.16.19-.21.32s-.08.26-.08.41.02.28.08.4.12.23.21.31c.09.09.19.16.31.21.12.05.26.08.4.08s.29-.03.42-.08c.13-.06.25-.13.34-.22.1-.09.17-.2.23-.33.05-.13.08-.26.08-.4s-.03-.27-.08-.39Z"/><path d="M16.53,148.71l-3.89-1.49c-.08-.03-.16-.06-.23-.08s-.13-.02-.2-.02c-.07,0-.13,0-.18.03s-.1.05-.13.09c-.03.04-.06.09-.08.15-.02.06-.02.13-.02.21v2.04h-.68v-3.57h.6l4.8,1.8v.84Z"/></g></g></svg>