<svg viewBox="0 0 531.27 288" xmlns:xlink="http://www.w3.org/1999/xlink" xmlns="http://www.w3.org/2000/svg" id="Camada_2"><defs><style>.cls-1,.cls-2,.cls-3,.cls-4,.cls-5,.cls-6{fill:none;}.cls-2{stroke-width:1px;}.cls-2,.cls-3,.cls-4,.cls-5{stroke-linecap:round;stroke-linejoin:round;}.cls-2,.cls-3,.cls-4,.cls-5,.cls-6{stroke:#12100b;}.cls-3{stroke-width:.53px;}.cls-4{stroke-width:.53px;}.cls-5{stroke-width:.54px;}.cls-6{stroke-miterlimit:10;stroke-width:.34px;}.cls-7{fill:#12100b;}</style><symbol viewBox="0 0 103.05 103.05" id="Novo_símbolo_9"><circle r="19.71" cy="51.52" cx="51.52" class="cls-2"/><circle r="17.01" cy="51.52" cx="51.52" class="cls-2"/><path d="M51.52.5C23.34.5.5,23.34.5,51.52s22.84,51.02,51.02,51.02,51.02-22.84,51.02-51.02S79.7.5,51.52.5ZM51.52,71.37c-10.96,0-19.84-8.88-19.84-19.84s8.88-19.84,19.84-19.84,19.84,8.88,19.84,19.84-8.88,19.84-19.84,19.84Z" class="cls-2"/></symbol><symbol viewBox="0 0 531.27 288" id="fundo_transparente"><rect height="288" width="531.27" x="0" class="cls-1"/></symbol></defs><g id="Golf"><g id="Driving_Range"><g id="pirâmide_de_bolas_Royal_91_bolas_cópia"><use xlink:href="#fundo_transparente" height="288" width="531.27"/><use xlink:href="#Novo_símbolo_9" transform="translate(50.25 76.63) scale(.19)" height="103.05" width="103.05"/><use xlink:href="#Novo_símbolo_9" transform="translate(50.25 99.44) scale(.19)" height="103.05" width="103.05"/><use xlink:href="#Novo_símbolo_9" transform="translate(50.25 122.26) scale(.19)" height="103.05" width="103.05"/><use xlink:href="#Novo_símbolo_9" transform="translate(73.06 99.44) scale(.19)" height="103.05" width="103.05"/><use xlink:href="#Novo_símbolo_9" transform="translate(73.06 122.26) scale(.19)" height="103.05" width="103.05"/><use xlink:href="#Novo_símbolo_9" transform="translate(95.88 99.44) scale(.19)" height="103.05" width="103.05"/><use xlink:href="#Novo_símbolo_9" transform="translate(95.88 122.26) scale(.19)" height="103.05" width="103.05"/><use xlink:href="#Novo_símbolo_9" transform="translate(118.69 99.44) scale(.19)" height="103.05" width="103.05"/><use xlink:href="#Novo_símbolo_9" transform="translate(118.69 122.26) scale(.19)" height="103.05" width="103.05"/><use xlink:href="#Novo_símbolo_9" transform="translate(141.51 99.44) scale(.19)" height="103.05" width="103.05"/><use xlink:href="#Novo_símbolo_9" transform="translate(141.51 122.26) scale(.19)" height="103.05" width="103.05"/><use xlink:href="#Novo_símbolo_9" transform="translate(73.06 76.63) scale(.19)" height="103.05" width="103.05"/><use xlink:href="#Novo_símbolo_9" transform="translate(95.88 76.63) scale(.19)" height="103.05" width="103.05"/><use xlink:href="#Novo_símbolo_9" transform="translate(118.69 76.63) scale(.19)" height="103.05" width="103.05"/><use xlink:href="#Novo_símbolo_9" transform="translate(141.51 76.63) scale(.19)" height="103.05" width="103.05"/><use xlink:href="#Novo_símbolo_9" transform="translate(50.25 53.82) scale(.19)" height="103.05" width="103.05"/><use xlink:href="#Novo_símbolo_9" transform="translate(73.06 53.82) scale(.19)" height="103.05" width="103.05"/><use xlink:href="#Novo_símbolo_9" transform="translate(95.88 53.82) scale(.19)" height="103.05" width="103.05"/><use xlink:href="#Novo_símbolo_9" transform="translate(118.69 53.82) scale(.19)" height="103.05" width="103.05"/><use xlink:href="#Novo_símbolo_9" transform="translate(141.51 53.82) scale(.19)" height="103.05" width="103.05"/><use xlink:href="#Novo_símbolo_9" transform="translate(164.32 99.44) scale(.19)" height="103.05" width="103.05"/><use xlink:href="#Novo_símbolo_9" transform="translate(164.32 122.26) scale(.19)" height="103.05" width="103.05"/><rect ry="24.14" rx="24.14" height="201.62" width="169.79" y="35.23" x="31.45" class="cls-4"/><path d="M177.81,43.59H56.57c-8.94,0-16.18,7.25-16.18,16.18v121.5c0,8.94,7.25,16.18,16.18,16.18h121.5c8.94,0,16.18-7.25,16.18-16.18V60.04c0-9.08-7.36-16.45-16.45-16.45" class="cls-4"/><use xlink:href="#Novo_símbolo_9" transform="translate(50.25 145.07) scale(.19)" height="103.05" width="103.05"/><use xlink:href="#Novo_símbolo_9" transform="translate(50.25 167.89) scale(.19)" height="103.05" width="103.05"/><use xlink:href="#Novo_símbolo_9" transform="translate(73.06 145.07) scale(.19)" height="103.05" width="103.05"/><use xlink:href="#Novo_símbolo_9" transform="translate(73.06 167.89) scale(.19)" height="103.05" width="103.05"/><use xlink:href="#Novo_símbolo_9" transform="translate(95.88 145.07) scale(.19)" height="103.05" width="103.05"/><use xlink:href="#Novo_símbolo_9" transform="translate(95.88 167.89) scale(.19)" height="103.05" width="103.05"/><use xlink:href="#Novo_símbolo_9" transform="translate(118.69 145.07) scale(.19)" height="103.05" width="103.05"/><use xlink:href="#Novo_símbolo_9" transform="translate(118.69 167.89) scale(.19)" height="103.05" width="103.05"/><use xlink:href="#Novo_símbolo_9" transform="translate(141.51 145.07) scale(.19)" height="103.05" width="103.05"/><use xlink:href="#Novo_símbolo_9" transform="translate(141.51 167.89) scale(.19)" height="103.05" width="103.05"/><use xlink:href="#Novo_símbolo_9" transform="translate(164.32 145.07) scale(.19)" height="103.05" width="103.05"/><use xlink:href="#Novo_símbolo_9" transform="translate(164.32 167.89) scale(.19)" height="103.05" width="103.05"/><use xlink:href="#Novo_símbolo_9" transform="translate(164.32 76.63) scale(.19)" height="103.05" width="103.05"/><use xlink:href="#Novo_símbolo_9" transform="translate(164.32 53.82) scale(.19)" height="103.05" width="103.05"/><path d="M39.93,259.47h152.81c.29,0,.53.24.53.53v12.73H39.4v-12.73c0-.29.24-.53.53-.53Z" class="cls-4"/><rect height="5.31" width="169.79" y="272.73" x="31.44" class="cls-4"/><rect transform="translate(583.09 -31.75) rotate(90)" height="201.62" width="4.73" y="174.86" x="305.05" class="cls-3"/><rect transform="translate(589.95 -57.1) rotate(90)" height="153.49" width="13.92" y="189.68" x="316.56" class="cls-5"/><line y2="22.26" x2="201.33" y1="22.26" x1="31.38" class="cls-6"/><rect height="2.19" width=".34" y="21.17" x="31.21" class="cls-7"/><rect height="2.19" width=".34" y="21.17" x="201.17" class="cls-7"/><path d="M104.97,12.17v.62l-.72,1.1c-.04.06-.08.12-.11.17-.03.05-.07.1-.1.15s-.07.1-.1.15c-.03.05-.07.1-.11.17.21.03.41.09.59.2.18.1.33.24.46.4.13.16.23.34.3.54s.11.42.11.66c0,.27-.05.52-.14.75-.09.23-.23.42-.4.59-.17.16-.38.29-.61.38s-.49.14-.78.14c-.23,0-.45-.03-.65-.09-.2-.06-.39-.15-.56-.26-.17-.11-.31-.25-.44-.41-.13-.16-.22-.35-.29-.55l.71-.35c.09.27.24.49.46.65.22.16.47.24.75.24.16,0,.31-.03.45-.08.14-.05.25-.13.35-.23s.17-.22.23-.35.08-.29.08-.46-.03-.33-.09-.47-.15-.26-.25-.36c-.1-.1-.23-.18-.38-.24-.15-.06-.31-.09-.49-.09h-.39l-.09-.5.8-1.2c.04-.05.07-.1.1-.13s.06-.08.09-.13.07-.09.09-.13.06-.08.11-.13h-2.45v-.73h3.47Z"/><path d="M108.53,12.24c.24.09.44.21.61.37.17.16.3.35.39.57.09.22.14.47.14.75,0,.16-.02.31-.06.47-.04.16-.09.31-.17.46-.08.15-.18.31-.3.47s-.27.33-.44.51l-1.47,1.52h2.57v.75h-3.72v-.66l2.01-2.08c.13-.13.24-.26.33-.37.09-.12.17-.23.22-.34.06-.11.1-.22.12-.32.02-.1.04-.21.04-.32,0-.16-.03-.31-.08-.45s-.12-.26-.22-.36-.21-.18-.34-.23c-.13-.06-.27-.08-.44-.08-.28,0-.53.08-.73.26s-.35.41-.44.71l-.75-.26c.13-.47.36-.84.7-1.09.33-.26.75-.39,1.24-.39.28,0,.54.04.78.13Z"/><path d="M113.64,12.33c.28.15.52.35.72.62.2.26.36.58.47.95s.17.78.17,1.22-.06.86-.17,1.23c-.11.38-.27.7-.48.97-.2.27-.45.48-.72.63-.28.15-.59.22-.93.22s-.64-.07-.93-.22-.53-.36-.73-.63c-.2-.27-.36-.59-.47-.97-.11-.37-.17-.78-.17-1.23s.06-.85.17-1.22.27-.69.47-.95c.2-.26.44-.47.72-.62.28-.15.59-.22.93-.22s.65.07.93.22ZM112.12,13.04c-.18.11-.33.26-.46.46-.13.2-.23.43-.3.7-.07.27-.11.57-.11.9s.04.64.11.92c.07.28.17.52.3.72.13.2.29.36.46.47.18.11.37.17.58.17s.41-.06.59-.17c.18-.11.33-.27.46-.47.13-.2.23-.44.3-.72s.11-.59.11-.92-.04-.63-.11-.91c-.07-.27-.17-.51-.3-.71-.13-.2-.28-.35-.46-.46-.18-.11-.38-.17-.59-.17s-.41.05-.59.17Z"/><path d="M119.06,14.02v.75c.13-.27.29-.47.5-.61.21-.14.44-.2.71-.2.29,0,.54.08.75.23s.36.37.46.66c.13-.29.3-.51.52-.66.22-.15.48-.23.79-.23.43,0,.75.14.98.42s.35.68.35,1.2v2.53h-.79v-2.43c0-.32-.08-.58-.22-.77-.15-.19-.35-.28-.6-.28-.13,0-.25.03-.36.08-.11.05-.21.13-.29.23s-.14.22-.19.36c-.04.14-.06.29-.06.45v2.37h-.79v-2.43c0-.16-.02-.3-.06-.43s-.1-.24-.17-.33-.16-.16-.26-.21-.22-.07-.35-.07-.24.03-.35.08c-.11.05-.2.13-.28.23-.08.1-.14.22-.18.36-.04.14-.07.29-.07.46v2.35h-.79v-4.09h.76Z"/><path d="M126,14.02v.75c.13-.27.29-.47.5-.61.21-.14.44-.2.71-.2.29,0,.54.08.75.23s.36.37.46.66c.13-.29.3-.51.52-.66.22-.15.48-.23.79-.23.43,0,.75.14.98.42s.35.68.35,1.2v2.53h-.79v-2.43c0-.32-.08-.58-.22-.77-.15-.19-.35-.28-.6-.28-.13,0-.25.03-.36.08-.11.05-.21.13-.29.23s-.14.22-.19.36c-.04.14-.06.29-.06.45v2.37h-.79v-2.43c0-.16-.02-.3-.06-.43s-.1-.24-.17-.33-.16-.16-.26-.21-.22-.07-.35-.07-.24.03-.35.08c-.11.05-.2.13-.28.23-.08.1-.14.22-.18.36-.04.14-.07.29-.07.46v2.35h-.79v-4.09h.76Z"/><line y2="34.66" x2="18.96" y1="236.69" x1="18.96" class="cls-6"/><rect height=".34" width="2.19" y="236.52" x="17.86" class="cls-7"/><rect height=".34" width="2.19" y="34.5" x="17.86" class="cls-7"/><path d="M8.86,147.09h.62l1.1.72c.06.04.12.08.17.11.05.03.1.07.15.1s.1.07.15.1c.05.03.1.07.17.11.03-.21.09-.41.2-.59.1-.18.24-.33.4-.46.16-.13.34-.23.54-.3s.42-.11.66-.11c.27,0,.52.05.75.14.23.09.42.23.59.4.16.17.29.38.38.61s.14.49.14.78c0,.23-.03.45-.09.65-.06.2-.15.39-.26.56-.11.17-.25.31-.41.44-.16.13-.35.22-.55.29l-.35-.71c.27-.09.49-.24.65-.46.16-.22.24-.47.24-.75,0-.16-.03-.31-.08-.45-.05-.14-.13-.25-.23-.35s-.22-.17-.35-.23-.29-.08-.46-.08-.33.03-.47.09-.26.15-.36.25c-.1.1-.18.23-.24.38-.06.15-.09.31-.09.49v.39l-.5.09-1.2-.8c-.05-.04-.1-.07-.13-.1s-.08-.06-.13-.09-.09-.07-.13-.09-.08-.06-.13-.11v2.45h-.73v-3.47Z"/><path d="M14.74,144.99c-.08.24-.2.45-.35.63-.15.17-.33.31-.53.41-.2.1-.43.15-.67.15-.18,0-.35-.03-.51-.08-.16-.05-.31-.13-.44-.23-.13-.1-.25-.22-.34-.35-.09-.13-.16-.28-.2-.44-.06.15-.13.29-.22.4-.09.12-.19.22-.31.3-.12.08-.24.15-.37.19-.13.04-.28.06-.43.06-.23,0-.44-.05-.63-.14-.19-.09-.35-.22-.5-.38-.14-.16-.25-.36-.33-.59-.08-.23-.11-.47-.11-.74s.04-.51.12-.74c.08-.22.19-.42.32-.58.14-.17.3-.29.49-.39.19-.09.4-.14.64-.14.15,0,.29.02.43.07s.27.11.38.19.22.19.3.3.16.25.21.39c.04-.16.11-.31.2-.44.09-.13.21-.25.35-.34.14-.09.29-.17.45-.22.16-.06.33-.08.5-.08.24,0,.46.05.67.15.2.1.38.24.53.41.15.17.26.38.35.63.08.24.12.51.12.81s-.04.56-.12.81ZM9.62,144.58c.04.12.11.23.19.31.08.09.17.16.29.21.11.05.24.07.37.07.13,0,.25-.02.36-.07s.21-.12.29-.21c.08-.09.14-.2.19-.32.04-.12.07-.26.07-.4s-.02-.28-.07-.4-.11-.22-.19-.31-.18-.16-.29-.21c-.12-.05-.24-.07-.36-.07-.14,0-.26.02-.37.07-.11.05-.21.12-.29.21s-.14.19-.19.31c-.04.12-.07.25-.07.4s.02.27.07.4ZM14.03,143.72c-.05-.14-.12-.26-.21-.36-.09-.1-.2-.18-.33-.24-.13-.06-.27-.09-.42-.09s-.29.03-.42.09c-.13.06-.24.14-.33.24s-.17.22-.22.37-.08.3-.08.46.02.31.07.46c.05.14.12.26.22.37.09.1.21.18.33.24s.27.08.41.08c.16,0,.3-.03.43-.08s.24-.13.33-.24c.09-.1.16-.22.21-.37.05-.14.07-.3.07-.46s-.02-.32-.07-.46Z"/><path d="M9.03,138.36c.15-.28.35-.52.62-.72.26-.2.58-.36.95-.47s.78-.17,1.22-.17.86.06,1.23.17c.38.11.7.27.97.48.27.2.48.45.63.72.15.28.22.59.22.93s-.07.64-.22.93-.36.53-.63.73c-.27.2-.59.36-.97.47-.37.11-.78.17-1.23.17s-.85-.06-1.22-.17-.69-.27-.95-.47c-.26-.2-.47-.44-.62-.72-.15-.28-.22-.59-.22-.93s.07-.65.22-.93ZM9.74,139.88c.11.18.26.33.46.46.2.13.43.23.7.3.27.07.57.11.9.11s.64-.04.92-.11c.28-.07.52-.17.72-.3.2-.13.36-.29.47-.46.11-.18.17-.37.17-.58s-.06-.41-.17-.59c-.11-.18-.27-.33-.47-.46-.2-.13-.44-.23-.72-.3s-.59-.11-.92-.11-.63.04-.91.11c-.27.07-.51.17-.71.3-.2.13-.35.28-.46.46-.11.18-.17.38-.17.59s.05.41.17.59Z"/><path d="M10.71,132.94h.75c-.27-.13-.47-.29-.61-.5-.14-.21-.2-.44-.2-.71,0-.29.08-.54.23-.75s.37-.36.66-.46c-.29-.13-.51-.3-.66-.52-.15-.22-.23-.48-.23-.79,0-.43.14-.75.42-.98s.68-.35,1.2-.35h2.53v.79h-2.43c-.32,0-.58.08-.77.22-.19.15-.28.35-.28.6,0,.13.03.25.08.36.05.11.13.21.23.29s.22.14.36.19c.14.04.29.06.45.06h2.37v.79h-2.43c-.16,0-.3.02-.43.06s-.24.1-.33.17-.16.16-.21.26-.07.22-.07.35.03.24.08.35c.05.11.13.2.23.28.1.08.22.14.36.18.14.04.29.07.46.07h2.35v.79h-4.09v-.76Z"/><path d="M10.71,125.99h.75c-.27-.13-.47-.29-.61-.5-.14-.21-.2-.44-.2-.71,0-.29.08-.54.23-.75s.37-.36.66-.46c-.29-.13-.51-.3-.66-.52-.15-.22-.23-.48-.23-.79,0-.43.14-.75.42-.98s.68-.35,1.2-.35h2.53v.79h-2.43c-.32,0-.58.08-.77.22-.19.15-.28.35-.28.6,0,.13.03.25.08.36.05.11.13.21.23.29s.22.14.36.19c.14.04.29.06.45.06h2.37v.79h-2.43c-.16,0-.3.02-.43.06s-.24.1-.33.17-.16.16-.21.26-.07.22-.07.35.03.24.08.35c.05.11.13.2.23.28.1.08.22.14.36.18.14.04.29.07.46.07h2.35v.79h-4.09v-.76Z"/><line y2="259.56" x2="18.96" y1="277.75" x1="18.96" class="cls-6"/><rect height=".34" width="2.19" y="277.58" x="17.86" class="cls-7"/><rect height=".34" width="2.19" y="259.4" x="17.86" class="cls-7"/><path d="M8.86,277.41h.62l1.1.72c.06.04.12.08.17.11.05.03.1.07.15.1s.1.07.15.1c.05.03.1.07.17.11.03-.21.09-.41.2-.59.1-.18.24-.33.4-.46.16-.13.34-.23.54-.3s.42-.11.66-.11c.27,0,.52.05.75.14.23.09.42.23.59.4.16.17.29.38.38.61s.14.49.14.78c0,.23-.03.45-.09.65-.06.2-.15.39-.26.56-.11.17-.25.31-.41.44-.16.13-.35.22-.55.29l-.35-.71c.27-.09.49-.24.65-.46.16-.22.24-.47.24-.75,0-.16-.03-.31-.08-.45-.05-.14-.13-.25-.23-.35s-.22-.17-.35-.23-.29-.08-.46-.08-.33.03-.47.09-.26.15-.36.25c-.1.1-.18.23-.24.38-.06.15-.09.31-.09.49v.39l-.5.09-1.2-.8c-.05-.04-.1-.07-.13-.1s-.08-.06-.13-.09-.09-.07-.13-.09-.08-.06-.13-.11v2.45h-.73v-3.47Z"/><path d="M8.86,273h.73v2.16l1.73.28c-.1-.12-.18-.25-.24-.41-.05-.15-.08-.33-.08-.52,0-.28.05-.53.14-.76s.23-.43.39-.6.37-.3.6-.39.5-.14.78-.14.54.05.78.15c.24.1.44.23.62.41s.31.38.4.63c.09.24.14.51.14.8,0,.23-.03.44-.09.65s-.14.39-.26.56c-.11.17-.25.31-.4.44-.16.12-.34.21-.54.27l-.35-.71c.27-.07.48-.22.63-.43.15-.22.23-.47.23-.76,0-.17-.03-.32-.09-.46-.06-.14-.14-.26-.24-.37-.1-.1-.23-.18-.37-.24s-.31-.09-.48-.09-.34.03-.49.09c-.15.06-.28.14-.39.25-.11.11-.19.24-.25.39-.06.15-.09.32-.09.5,0,.2.04.39.12.55s.19.29.35.41l-.17.7-3.13-.53v-2.83Z"/><path d="M10.71,268.58h.75c-.27-.13-.47-.29-.61-.5-.14-.21-.2-.44-.2-.71,0-.29.08-.54.23-.75s.37-.36.66-.46c-.29-.13-.51-.3-.66-.52-.15-.22-.23-.48-.23-.79,0-.43.14-.75.42-.98s.68-.35,1.2-.35h2.53v.79h-2.43c-.32,0-.58.08-.77.22-.19.15-.28.35-.28.6,0,.13.03.25.08.36.05.11.13.21.23.29s.22.14.36.19c.14.04.29.06.45.06h2.37v.79h-2.43c-.16,0-.3.02-.43.06s-.24.1-.33.17-.16.16-.21.26-.07.22-.07.35.03.24.08.35c.05.11.13.2.23.28.1.08.22.14.36.18.14.04.29.07.46.07h2.35v.79h-4.09v-.76Z"/><path d="M10.71,261.63h.75c-.27-.13-.47-.29-.61-.5-.14-.21-.2-.44-.2-.71,0-.29.08-.54.23-.75s.37-.36.66-.46c-.29-.13-.51-.3-.66-.52-.15-.22-.23-.48-.23-.79,0-.43.14-.75.42-.98s.68-.35,1.2-.35h2.53v.79h-2.43c-.32,0-.58.08-.77.22-.19.15-.28.35-.28.6,0,.13.03.25.08.36.05.11.13.21.23.29s.22.14.36.19c.14.04.29.06.45.06h2.37v.79h-2.43c-.16,0-.3.02-.43.06s-.24.1-.33.17-.16.16-.21.26-.07.22-.07.35.03.24.08.35c.05.11.13.2.23.28.1.08.22.14.36.18.14.04.29.07.46.07h2.35v.79h-4.09v-.76Z"/></g></g></g></svg>