<svg viewBox="0 0 531.26 288" xmlns="http://www.w3.org/2000/svg"><defs><style>.cls-1 {
        stroke: #76544b;
      }

      .cls-1, .cls-2, .cls-3, .cls-4 {
        fill: none;
      }

      .cls-1, .cls-2, .cls-4 {
        stroke-linejoin: round;
        stroke-width: .3px;
      }

      .cls-1, .cls-4 {
        stroke-linecap: round;
      }

      .cls-5 {
        fill: #12100a;
      }

      .cls-2 {
        stroke-linecap: square;
      }

      .cls-2, .cls-4 {
        stroke: #12100a;
      }

      .cls-3 {
        stroke: #000;
        stroke-miterlimit: 10;
        stroke-width: .28px;
      }</style></defs><g id="bases"><rect height="358.35" width="589.11" y="-33.95" x="-25.44" class="cls-3"/></g><g id="Urban"><g id="Frame"><g id="e-bike_charger"><g><path d="M7.06,158.6h5.29v.72h-4.54l.64,1.3h-.73l-.67-1.36v-.67Z"/><path d="M12.22,156.63c-.12.24-.29.44-.51.61-.22.17-.5.3-.82.39s-.69.14-1.09.14-.8-.05-1.15-.15c-.35-.1-.64-.24-.89-.43-.25-.18-.43-.41-.56-.67-.13-.26-.2-.55-.2-.88,0-.37.09-.7.27-.97.18-.27.43-.47.76-.59l.29.64c-.21.07-.37.18-.48.34-.11.16-.17.35-.17.56,0,.2.05.38.14.55s.23.31.4.44c.17.13.37.22.61.29s.49.1.77.1h.17c.06,0,.1,0,.15,0-.25-.08-.45-.23-.59-.45-.14-.22-.21-.48-.21-.79,0-.24.04-.46.12-.65.08-.2.19-.36.34-.5.15-.14.32-.25.52-.33.2-.08.42-.12.66-.12s.47.04.68.13c.21.08.38.2.53.35.14.15.26.32.34.53s.12.43.12.68c0,.3-.06.57-.18.81ZM11.65,155.46c-.05-.12-.12-.22-.21-.3-.09-.08-.19-.15-.31-.2-.12-.05-.26-.07-.41-.07s-.29.02-.41.07c-.12.05-.23.12-.32.2s-.16.19-.21.31-.07.25-.07.4.02.27.07.39.12.22.2.31c.09.09.19.15.31.2.12.05.25.07.4.07s.28-.03.41-.08.24-.12.34-.21.17-.2.22-.32c.05-.12.08-.26.08-.4s-.03-.26-.08-.38Z"/><path d="M7.2,150.66c.13-.25.32-.47.55-.65.23-.18.52-.32.85-.42.33-.1.69-.15,1.08-.15s.76.05,1.1.15.62.24.86.42c.24.18.43.4.56.65.13.25.2.52.2.83s-.07.57-.2.82-.32.47-.56.65c-.24.18-.53.32-.86.42-.33.1-.7.15-1.1.15s-.75-.05-1.08-.15c-.33-.1-.61-.24-.85-.42-.24-.18-.42-.4-.55-.65-.13-.25-.2-.53-.2-.83s.07-.58.2-.83ZM7.84,152.01c.1.16.23.29.41.41.18.11.38.2.63.27.24.07.51.1.81.1s.57-.03.82-.09c.25-.06.46-.15.64-.27.18-.12.32-.25.42-.41.1-.16.15-.33.15-.52s-.05-.37-.15-.53c-.1-.16-.24-.3-.42-.41-.18-.11-.39-.2-.64-.27-.25-.06-.52-.09-.82-.09s-.56.03-.81.09c-.25.06-.46.15-.63.26-.17.11-.31.25-.41.41-.1.16-.15.34-.15.53s.05.37.15.52Z"/><path d="M7.2,146.02c.13-.25.32-.47.55-.65.23-.18.52-.32.85-.42.33-.1.69-.15,1.08-.15s.76.05,1.1.15.62.24.86.42c.24.18.43.4.56.65.13.25.2.52.2.83s-.07.57-.2.82-.32.47-.56.65c-.24.18-.53.32-.86.42-.33.1-.7.15-1.1.15s-.75-.05-1.08-.15c-.33-.1-.61-.24-.85-.42-.24-.18-.42-.4-.55-.65-.13-.25-.2-.53-.2-.83s.07-.58.2-.83ZM7.84,147.37c.1.16.23.29.41.41.18.11.38.2.63.27.24.07.51.1.81.1s.57-.03.82-.09c.25-.06.46-.15.64-.27.18-.12.32-.25.42-.41.1-.16.15-.33.15-.52s-.05-.37-.15-.53c-.1-.16-.24-.3-.42-.41-.18-.11-.39-.2-.64-.27-.25-.06-.52-.09-.82-.09s-.56.03-.81.09c-.25.06-.46.15-.63.26-.17.11-.31.25-.41.41-.1.16-.15.34-.15.53s.05.37.15.52Z"/><path d="M8.71,141.19h.67c-.24-.11-.42-.26-.54-.45-.12-.18-.18-.4-.18-.63,0-.26.07-.48.2-.67.14-.19.33-.32.59-.41-.26-.11-.45-.27-.59-.46-.14-.2-.2-.43-.2-.7,0-.38.12-.67.37-.88.25-.21.61-.31,1.07-.31h2.25v.7h-2.16c-.29,0-.52.07-.69.2-.17.13-.25.31-.25.54,0,.12.02.22.07.32.05.1.11.18.2.26.09.07.19.13.32.16.12.04.26.06.4.06h2.11v.7h-2.16c-.14,0-.27.02-.38.06-.12.04-.22.09-.3.15-.08.06-.14.14-.19.23-.04.09-.07.2-.07.31s.02.22.07.32c.05.1.12.18.21.25.09.07.2.12.32.17.12.04.26.06.41.06h2.09v.7h-3.64v-.68Z"/><path d="M8.71,135.01h.67c-.24-.11-.42-.26-.54-.45-.12-.18-.18-.4-.18-.63,0-.26.07-.48.2-.67.14-.19.33-.32.59-.41-.26-.11-.45-.27-.59-.46-.14-.2-.2-.43-.2-.7,0-.38.12-.67.37-.88.25-.21.61-.31,1.07-.31h2.25v.7h-2.16c-.29,0-.52.07-.69.2-.17.13-.25.31-.25.54,0,.12.02.22.07.32.05.1.11.18.2.26.09.07.19.13.32.16.12.04.26.06.4.06h2.11v.7h-2.16c-.14,0-.27.02-.38.06-.12.04-.22.09-.3.15-.08.06-.14.14-.19.23-.04.09-.07.2-.07.31s.02.22.07.32c.05.1.12.18.21.25.09.07.2.12.32.17.12.04.26.06.41.06h2.09v.7h-3.64v-.68Z"/></g><g><path d="M316.16,211.23v5.29h-.73v-4.36s-.04.08-.06.1c-.02.03-.04.06-.07.09l-1.35,2.02s-.04.06-.05.08-.03.05-.06.08h3.2v.64h-3.98v-.59l2.22-3.35h.87Z"/><path d="M320.54,211.23v5.29h-.73v-4.36s-.04.08-.06.1c-.02.03-.04.06-.07.09l-1.35,2.02s-.04.06-.05.08-.03.05-.06.08h3.2v.64h-3.98v-.59l2.22-3.35h.87Z"/><path d="M324.72,211.38c.25.13.47.32.65.55.18.23.32.52.42.85.1.33.15.69.15,1.08s-.05.76-.15,1.1-.24.62-.42.86c-.18.24-.4.43-.65.56-.25.13-.52.2-.83.2s-.57-.07-.82-.2-.47-.32-.65-.56c-.18-.24-.32-.53-.42-.86-.1-.33-.15-.7-.15-1.1s.05-.75.15-1.08c.1-.33.24-.61.42-.85.18-.24.4-.42.65-.55.25-.13.53-.2.83-.2s.58.07.83.2ZM323.37,212.01c-.16.1-.29.23-.41.41-.11.18-.2.38-.27.63-.07.24-.1.51-.1.81s.03.57.09.82c.06.25.15.46.27.64.12.18.25.32.41.42.16.1.33.15.52.15s.37-.05.53-.15c.16-.1.3-.24.41-.42.11-.18.2-.39.27-.64.06-.25.09-.52.09-.82s-.03-.56-.09-.81c-.06-.25-.15-.46-.26-.63-.11-.17-.25-.31-.41-.41-.16-.1-.34-.15-.53-.15s-.37.05-.52.15Z"/><path d="M329.55,212.88v.67c.11-.24.26-.42.45-.54.18-.12.4-.18.63-.18.26,0,.48.07.67.2.19.14.32.33.41.59.11-.26.27-.45.46-.59.2-.14.43-.2.7-.2.38,0,.67.12.88.37.21.25.31.61.31,1.07v2.25h-.7v-2.16c0-.29-.07-.52-.2-.69-.13-.17-.31-.25-.54-.25-.12,0-.22.02-.32.07-.1.05-.18.11-.26.2-.07.09-.13.19-.16.32-.04.12-.06.26-.06.4v2.11h-.7v-2.16c0-.14-.02-.27-.06-.38-.04-.12-.09-.22-.15-.3-.06-.08-.14-.14-.23-.19-.09-.04-.2-.07-.31-.07s-.22.02-.32.07c-.1.05-.18.12-.25.21-.07.09-.12.2-.17.32-.04.12-.06.26-.06.41v2.09h-.7v-3.64h.68Z"/><path d="M335.73,212.88v.67c.11-.24.26-.42.45-.54.18-.12.4-.18.63-.18.26,0,.48.07.67.2.19.14.32.33.41.59.11-.26.27-.45.46-.59.2-.14.43-.2.7-.2.38,0,.67.12.88.37.21.25.31.61.31,1.07v2.25h-.7v-2.16c0-.29-.07-.52-.2-.69-.13-.17-.31-.25-.54-.25-.12,0-.22.02-.32.07-.1.05-.18.11-.26.2-.07.09-.13.19-.16.32-.04.12-.06.26-.06.4v2.11h-.7v-2.16c0-.14-.02-.27-.06-.38-.04-.12-.09-.22-.15-.3-.06-.08-.14-.14-.23-.19-.09-.04-.2-.07-.31-.07s-.22.02-.32.07c-.1.05-.18.12-.25.21-.07.09-.12.2-.17.32-.04.12-.06.26-.06.41v2.09h-.7v-3.64h.68Z"/></g><g><path d="M260.88,272.41c.08-.21.19-.39.33-.54.14-.15.31-.27.51-.35.2-.08.42-.13.67-.13.14,0,.28.02.42.05.14.03.28.08.41.15.14.07.27.16.42.27.14.11.29.24.45.39l1.35,1.31v-2.29h.67v3.32h-.59l-1.85-1.79c-.12-.12-.23-.22-.33-.3-.1-.08-.21-.15-.3-.2-.1-.05-.19-.09-.29-.11-.09-.02-.19-.03-.29-.03-.15,0-.28.02-.4.07-.12.04-.23.11-.32.2-.09.09-.16.19-.21.3-.05.11-.07.24-.07.39,0,.25.08.47.23.65.15.18.36.31.63.39l-.23.67c-.42-.12-.74-.32-.97-.62s-.34-.66-.34-1.1c0-.25.04-.48.12-.69Z"/><path d="M265.98,269.59c-.12.24-.29.44-.51.61-.22.17-.5.3-.82.39s-.69.14-1.09.14-.8-.05-1.15-.15c-.35-.1-.64-.24-.89-.43-.25-.18-.43-.41-.56-.67-.13-.26-.2-.55-.2-.88,0-.37.09-.7.27-.97.18-.27.43-.47.76-.59l.29.64c-.21.07-.37.18-.48.34-.11.16-.17.35-.17.56,0,.2.05.38.14.55s.23.31.4.44c.17.13.37.22.61.29s.49.1.77.1h.17c.06,0,.1,0,.15,0-.25-.08-.45-.23-.59-.45-.14-.22-.21-.48-.21-.79,0-.24.04-.46.12-.65.08-.2.19-.36.34-.5.15-.14.32-.25.52-.33.2-.08.42-.12.66-.12s.47.04.68.13c.21.08.38.2.53.35.14.15.26.32.34.53s.12.43.12.68c0,.3-.06.57-.18.81ZM265.41,268.43c-.05-.12-.12-.22-.21-.3-.09-.08-.19-.15-.31-.2-.12-.05-.26-.07-.41-.07s-.29.02-.41.07c-.12.05-.23.12-.32.2s-.16.19-.21.31-.07.25-.07.4.02.27.07.39.12.22.2.31c.09.09.19.15.31.2.12.05.25.07.4.07s.28-.03.41-.08.24-.12.34-.21.17-.2.22-.32c.05-.12.08-.26.08-.4s-.03-.26-.08-.38Z"/><path d="M260.88,264.15c.08-.21.19-.39.33-.54.14-.15.31-.27.51-.35.2-.08.42-.13.67-.13.14,0,.28.02.42.05.14.03.28.08.41.15.14.07.27.16.42.27.14.11.29.24.45.39l1.35,1.31v-2.29h.67v3.32h-.59l-1.85-1.79c-.12-.12-.23-.22-.33-.3-.1-.08-.21-.15-.3-.2-.1-.05-.19-.09-.29-.11-.09-.02-.19-.03-.29-.03-.15,0-.28.02-.4.07-.12.04-.23.11-.32.2-.09.09-.16.19-.21.3-.05.11-.07.24-.07.39,0,.25.08.47.23.65.15.18.36.31.63.39l-.23.67c-.42-.12-.74-.32-.97-.62s-.34-.66-.34-1.1c0-.25.04-.48.12-.69Z"/><path d="M262.46,259.41h.67c-.24-.11-.42-.26-.54-.45-.12-.18-.18-.4-.18-.63,0-.26.07-.48.2-.67.14-.19.33-.32.59-.41-.26-.11-.45-.27-.59-.46-.14-.2-.2-.43-.2-.7,0-.38.12-.67.37-.88.25-.21.61-.31,1.07-.31h2.25v.7h-2.16c-.29,0-.52.07-.69.2-.17.13-.25.31-.25.54,0,.12.02.22.07.32.05.1.11.18.2.26.09.07.19.13.32.16.12.04.26.06.4.06h2.11v.7h-2.16c-.14,0-.27.02-.38.06-.12.04-.22.09-.3.15-.08.06-.14.14-.19.23-.04.09-.07.2-.07.31s.02.22.07.32c.05.1.12.18.21.25.09.07.2.12.32.17.12.04.26.06.41.06h2.09v.7h-3.64v-.68Z"/><path d="M262.46,253.22h.67c-.24-.11-.42-.26-.54-.45-.12-.18-.18-.4-.18-.63,0-.26.07-.48.2-.67.14-.19.33-.32.59-.41-.26-.11-.45-.27-.59-.46-.14-.2-.2-.43-.2-.7,0-.38.12-.67.37-.88.25-.21.61-.31,1.07-.31h2.25v.7h-2.16c-.29,0-.52.07-.69.2-.17.13-.25.31-.25.54,0,.12.02.22.07.32.05.1.11.18.2.26.09.07.19.13.32.16.12.04.26.06.4.06h2.11v.7h-2.16c-.14,0-.27.02-.38.06-.12.04-.22.09-.3.15-.08.06-.14.14-.19.23-.04.09-.07.2-.07.31s.02.22.07.32c.05.1.12.18.21.25.09.07.2.12.32.17.12.04.26.06.41.06h2.09v.7h-3.64v-.68Z"/></g><g><line y2="220.44" x2="363.4" y1="220.44" x1="288.01" class="cls-4"/><rect height="1.95" width=".3" y="219.47" x="287.86" class="cls-5"/><rect height="1.95" width=".3" y="219.47" x="363.25" class="cls-5"/></g><g><line y2="282.96" x2="270.03" y1="238.18" x1="270.03" class="cls-4"/><rect height=".3" width="1.95" y="238.03" x="269.05" class="cls-5"/><rect height=".3" width="1.95" y="282.81" x="269.05" class="cls-5"/></g><g><line y2="282.93" x2="16.27" y1="7.97" x1="16.27" class="cls-4"/><rect height=".3" width="1.95" y="7.82" x="15.3" class="cls-5"/><rect height=".3" width="1.95" y="282.78" x="15.3" class="cls-5"/></g><g><polyline points="290.11 275.97 290.11 278.9 290.11 279 290.15 279.1 290.19 279.18 290.26 279.26 290.34 279.33 290.43 279.37 290.52 279.4 290.62 279.41 291.35 279.41" class="cls-4"/><rect height="34.47" width="75.7" y="241.49" x="287.86" class="cls-4"/><g><polyline points="296.85 241.49 296.85 238.56 296.84 238.46 296.81 238.37 296.77 238.28 296.7 238.2 296.62 238.13 296.53 238.09 296.44 238.06 296.33 238.05 290.62 238.05 290.52 238.06 290.43 238.09 290.34 238.13 290.26 238.2 290.19 238.28 290.15 238.37 290.11 238.46 290.11 238.56 290.11 241.49 296.85 241.49" class="cls-4"/><polyline points="305.33 241.49 305.33 238.56 305.32 238.46 305.29 238.37 305.24 238.28 305.18 238.2 305.1 238.13 305.01 238.09 304.91 238.06 304.81 238.05 299.1 238.05 299 238.06 298.9 238.09 298.81 238.13 298.74 238.2 298.67 238.28 298.62 238.37 298.59 238.46 298.58 238.56 298.58 241.49 305.33 241.49" class="cls-4"/><polyline points="313.81 241.49 313.81 238.56 313.8 238.46 313.77 238.37 313.72 238.28 313.66 238.2 313.58 238.13 313.49 238.09 313.39 238.06 313.29 238.05 307.58 238.05 307.48 238.06 307.38 238.09 307.29 238.13 307.21 238.2 307.15 238.28 307.1 238.37 307.07 238.46 307.06 238.56 307.06 241.49 313.81 241.49" class="cls-4"/></g><g><path d="M294.99,283.12h62.67l.19-.03.09-.04.08-.06.22-.21.21-.22.21-.24.14-.18.13-.18.13-.2.1-.16.1-.17.09-.16.04-.08.03-.07.03-.06.02-.05s0,0,0-.02c.03-.06.06-.13.06-.13l.08-.19.08-.2.07-.2.06-.2.06-.2.05-.21v-.09s.18-3.27.18-3.27v-.03s.02-.03.02-.03v-.03s.04-.02.04-.02l.03-.02h.03s.03-.02.03-.02h.03s.1-.02.1-.02l.09-.03.08-.05.07-.06.02-.02" class="cls-4"/><polyline points="291.43 279.41 291.26 276.3 291.26 276.27 291.25 276.24 291.23 276.21 291.21 276.19 291.19 276.17 291.16 276.15 291.13 276.14 291.1 276.14 291 276.13 290.91 276.1 290.83 276.05 290.75 275.99 290.73 275.97" class="cls-4"/><path d="M294.99,283.12h-.51s-.06,0-.06,0h-.34s-.11,0-.11,0h-.24l-.19-.03-.09-.04-.08-.06-.22-.21-.21-.22-.21-.24-.14-.18-.13-.18-.13-.2-.1-.16-.1-.17-.09-.16-.04-.08-.03-.07-.03-.06-.02-.05s0,0,0-.02c-.03-.06-.06-.13-.06-.13l-.08-.19-.08-.2-.07-.2-.06-.2-.06-.2-.05-.21v-.09s-.02-.15-.02-.15" class="cls-4"/></g></g><g><g><path d="M207.52,96.85l.02-.02.06-.07.05-.08.03-.09v-.09s.02-.03.02-.03v-.03s.03-.03.03-.03l.02-.02.02-.02.03-.02h.03s.03-.01.03-.01c0,0,3.27-.17,3.36-.18l1.28-.44h.01s.03-.02.03-.02l.05-.02.06-.03.15-.08.15-.08.19-.11.23-.15.25-.17.24-.19.24-.21.23-.21.21-.22.06-.08.04-.09.04-.18V14.34l-.04-.18-.04-.09-.06-.08-.21-.22-.23-.21-.25-.21-.18-.14-.18-.13-.2-.14-.16-.1-.17-.1-.16-.09h-.01s-.19-.1-.19-.1l-.19-.09-.19-.08-.2-.08-.2-.07-.2-.06-.2-.06-.2-.05h-.02s-.07-.01-.07-.01c.07,0-3.27-.17-3.27-.17h-.03s-.03-.01-.03-.01l-.03-.02-.02-.02-.02-.02v-.03s-.03-.03-.03-.03v-.03s-.02-.09-.02-.09l-.03-.09-.05-.08-.06-.07-.02-.02" class="cls-4"/><rect height="275.26" width="34.48" y="7.86" x="173.04" class="cls-4"/><g><rect height="180.22" width="3.44" y="100.75" x="169.6" class="cls-4"/><rect height="180.22" width="3.44" y="100.75" x="207.52" class="cls-4"/></g></g><g><polyline points="191.94 46.42 192.03 46.82 192.19 47.2 192.4 47.55 192.66 47.86 192.97 48.13 193.32 48.35 193.7 48.51 194.09 48.6 194.5 48.63 194.91 48.6 195.31 48.51 195.69 48.35 196.04 48.13 196.35 47.86 196.61 47.55 196.82 47.2 196.97 46.82 197.06 46.42" class="cls-1"/><polyline points="197.49 46.05 197.41 46.06 197.34 46.08 197.27 46.11 197.21 46.16 197.15 46.21 197.11 46.28 197.08 46.35 197.06 46.42" class="cls-1"/><polyline points="191.94 46.42 192.03 46.82 192.19 47.2 192.4 47.55 192.66 47.86 192.97 48.13 193.32 48.35 193.7 48.51 194.09 48.6 194.5 48.63 194.91 48.6 195.31 48.51 195.69 48.35 196.04 48.13 196.35 47.86 196.61 47.55 196.82 47.2 196.97 46.82 197.06 46.42" class="cls-1"/><polyline points="191.94 46.42 191.93 46.35 191.9 46.28 191.85 46.21 191.8 46.16 191.74 46.11 191.67 46.08 191.59 46.06 191.52 46.05" class="cls-4"/><g><path d="M191.48,46.05h-1.7c-.24,0-.44-.2-.44-.44v-11.35c0-.24.2-.44.44-.44h9.46c.24,0,.44.2.44.44v11.35c0,.24-.2.44-.44.44h-1.74" class="cls-4"/><g><polyline points="197.49 46.05 197.41 46.06 197.34 46.08 197.27 46.11 197.21 46.16 197.15 46.21 197.11 46.28 197.08 46.35 197.06 46.42" class="cls-4"/><path d="M191.94,46.42l-.02-.07-.03-.07-.04-.06-.05-.05-.06-.04-.07-.03-.07-.02h-.12s-.2,0-.2,0" class="cls-4"/><path d="M197.06,46.42c-.18,1.26-1.28,2.21-2.56,2.21s-2.38-.95-2.56-2.21" class="cls-4"/></g></g><g><path d="M196.59,34.79v-.03s-.03-.03-.03-.03l-.03-.02h-.03s-3.97,0-3.97,0c-.07,0-.12.05-.12.12v2.33l-.02.02-.47.31-.43.37-.38.42-.32.47-.25.51-.18.54-.11.55-.04.56.04.56.11.55.18.54.25.51.32.47.38.42.43.37.47.31.5.24.52.17.54.11.55.04.55-.04.54-.11.52-.17.5-.24.45-.29.41-.34.36-.39.31-.43.26-.47.19-.5.13-.52.07-.53v-.53l-.07-.53-.13-.52-.19-.5-.25-.47-.31-.43-.36-.39-.41-.34-.45-.29-.02-.02s0-.34,0-.4v-1.95" class="cls-4"/><path d="M196.59,36.59h1.38c.46,0,.83.37.83.83v6.93c0,.46-.37.83-.83.83h-6.94c-.46,0-.83-.37-.83-.83v-6.93c0-.46.37-.83.83-.83h1.39" class="cls-4"/></g></g></g><g><g><path d="M39.24,7.86v275.26h75.69V7.86H39.24ZM79.45,161.47c-.17,0-.31-.14-.31-.31v-11.83c0-.17.14-.31.31-.31h2.78c.17,0,.3.14.3.31v11.83c0,.17-.13.31-.3.31h-2.78ZM83.37,121.7l-.17,1.83c0,.11-.11.19-.22.18l-2.69-.17-3.23-.2c-.11-.01-.2-.11-.19-.22l.1-1.91c0-.08-.06-.15-.13-.16l-.69-.05c-.05,0-.09-.02-.12-.06-.03-.03-.05-.08-.05-.13l.11-1.02c.01-.11.11-.2.23-.19,1.66.11,3.29.21,4.95.32.22.01.45.03.68.04.03,0,.15.03.31.08.01,0,.02,0,.04.01.27.09.64.29.88.7.23.4.21.79.19.95ZM97.5,160.02c-.01.17-.15.3-.32.29l-.47-.02-1.55-.05-.76-.03c-.17-.01-.3-.15-.29-.32l.45-11.83c.01-.17.15-.3.32-.29l.67.02,1.56.06.55.02c.17.01.3.15.29.32l-.45,11.83Z" class="cls-4"/><polyline points="113.2 100.33 113.2 133.43 113.2 281.4 65.19 281.4 58.96 281.4 56.19 281.4 49.96 281.4 48.23 281.4 40.96 281.4 40.96 100.33" class="cls-4"/><polyline points="40.97 98.61 40.97 9.58 113.2 9.58 113.2 98.61" class="cls-4"/><rect height="1.51" width="4.33" y="9.58" x="45.94" class="cls-4"/><rect height="1.51" width="4.33" y="9.58" x="103.9" class="cls-4"/><rect ry="2.17" rx="2.17" height="86.02" width="69.21" y="11.09" x="42.48" class="cls-4"/><rect height="1.51" width="62.29" y="97.11" x="45.94" class="cls-4"/><line y2="100.33" x2="40.97" y1="100.33" x1="113.2" class="cls-4"/><line y2="98.61" x2="113.2" y1="98.61" x1="40.97" class="cls-4"/><rect height="181.07" width="1.73" y="100.33" x="48.23" class="cls-4"/><rect height="181.07" width="2.77" y="100.33" x="56.19" class="cls-4"/><rect height="181.07" width="6.23" y="100.33" x="58.96" class="cls-4"/><g><g><polyline points="74.25 123.49 74.27 120.24 74.3 117.88 74.32 115.51 74.34 113.13 74.36 110.76 74.38 108.73 74.39 106.54 74.4 104.28 74.4 100.33" class="cls-4"/><polyline points="72.84 100.33 72.84 104.39 72.83 106.84 72.81 109.36 72.79 111.93 72.77 114.5 72.75 117.03 72.69 123 72.69 123.49" class="cls-4"/></g><polyline points="81.43 167.87 81.49 173.13 81.74 188.9 82.03 201.26 82.4 213.61 82.89 225.94 83.4 236.27 84.05 246.59 84.48 252.36 85 258.11 85.33 261.31 85.7 264.48 85.81 265.36 85.92 266.23 86.04 267.09 86.17 267.99 86.34 269.1 86.55 270.36 86.8 271.71 87.08 273.09 87.4 274.41 87.57 275.02 87.73 275.53 87.88 275.95 88.09 276.42 88.26 276.74 88.36 276.89" class="cls-4"/><path d="M81.14,221.28v.1l.13,3.1.57,11.77.41,6.9.49,6.88.58,6.86.29,3.01.33,2.99.36,2.95.11.85.12.84.14.94.17,1.11.21,1.24.24,1.32.29,1.35.32,1.31.23.8.21.64.19.5.17.4.15.31.14.23.18.24.16.17.18.15.26.15.4.14.4.02.28-.08.23-.12.16-.12.18-.18.21-.27.22-.37.21-.43s.03-.07.05-.11l.22-.61.36-1.21.31-1.36.28-1.44.25-1.48.22-1.47.18-1.42.19-1.55.16-1.38.12-1.19.12-1.18.26-2.86.23-2.94.22-2.98.35-5.42.31-5.61.28-5.76.13-2.86.12-2.74.11-2.6.09-2.44.09-2.29.09-2.31.13-3.81.14-4.02.13-4.05.62-19.7.11-3.87.12-3.87.11-3.83.11-3.66.04-1.31.04-1.29.04-1.25.03-1.23.04-1.19.04-1.27.04-1.36.05-1.51.05-1.66.05-1.83.02-.77" class="cls-4"/><path d="M97.11,147.85l.04-1.4.1-3.04.1-3.24.11-3.46.13-3.67v-7.36c0-.61.02-1.22.03-1.82-.04-.44-.43-.77-.85-.74-.38.03-.7.34-.74.74v9.57s-.13,3.53-.13,3.53l-.12,3.76-.12,3.59-.11,3.43v.05" class="cls-4"/><polyline points="95.16 160.24 95.16 160.26 95.07 163.23 94.98 166.04 94.9 168.7 94.83 171.22 94.75 173.86 94.67 176.34 94.6 178.66 94.54 180.83 94.48 182.84 94.42 184.71 94.37 186.45 94.32 188.18 94.17 193.23 94.01 198.42 93.85 203.72 93.67 209.11 93.49 214.56 93.38 217.82 93.26 221.09 93.14 224.36 93.02 227.62 92.89 230.81 92.76 233.81 92.66 236.05 92.56 238.17 92.46 240.23 92.35 242.4 92.23 244.74 92.09 247.2 91.78 252.2 91.42 257.19 91 262.18 90.78 264.37 90.54 266.53 90.28 268.59 90.19 269.26 90.07 270.05 89.92 271.05 89.72 272.2 89.48 273.44 89.19 274.68 88.86 275.81 88.69 276.27 88.53 276.61 88.41 276.85 88.35 276.96 88.3 277.02 88.27 277.06 88.26 277.07" class="cls-4"/><line y2="161.47" x2="79.82" y1="168.07" x1="79.87" class="cls-4"/><polyline points="79.7 133.43 79.7 141.26 79.73 149.02" class="cls-4"/><g><polyline points="81.27 119.92 81.28 118.52 81.29 116.61 81.29 114.69 81.3 112.78 81.31 110.85 81.31 108.78 81.32 106.56 81.32 104.28 81.32 100.41" class="cls-4"/><polyline points="79.77 100.41 79.76 106.8 79.75 111.27 79.73 115.22 79.72 119.19 79.72 119.78" class="cls-4"/></g><g><path d="M77.51,276.13h0s-.04-.14-.04-.14l-.12-.6-.1-.52-.1-.62-.12-.73s0-.03-.01-.07c-.05-.37-.16-1.22-.16-1.22l-.16-1.42-.15-1.38-.12-1.3-.11-1.17-.08-1-.07-.86-.07-.86-.06-.87-.21-3.15-.19-3.18-.3-5.73-.24-5.73-.35-10.27-.27-10.28-.23-12.25-.15-12.28-.09-12.28-.04-15.67.03-15.7.09-15.74.04-5.2.03-2.48" class="cls-4"/><path d="M80.29,123.54v9.89s-.06,2.74-.06,2.74l-.04,2.97-.04,2.78-.03,2.58-.03,2.41-.03,2.11" class="cls-4"/><path d="M79.93,161.47v.55s-.05,4.96-.05,4.96v1.09s-.04,4-.04,4l-.03,5.13-.13,27.47-.03,6.42-.04,6.24-.04,6.19-.02,2.95-.03,3.1-.04,3.26-.04,3.38-.05,3.48-.05,3.16-.06,3.04-.07,2.91-.02.95-.02.93-.03.92-.03.91-.02.89-.03.95-.03,1.08-.05,1.43-.06,1.57-.07,1.7-.08,1.81-.09,1.89-.11,1.93-.12,1.84-.13,1.81-.15,1.75-.16,1.66-.19,1.5c-.03.21-.14.93-.14.93l-.16.81v.06s-.15.57-.15.57l-.14.44" class="cls-4"/><path d="M81.49,161.47v.13l-.03,3.21-.03,3.03v.02l-.02,2.86-.02,2.72v2.61s-.03,2.46-.03,2.46v2.32s-.02,2.17-.02,2.17l-.02,2.04v2.4s-.02,2.19-.02,2.19v1.99s-.01,1.78-.01,1.78v1.66s-.02,1.7-.02,1.7v1.77s-.02,2.74-.02,2.74v2.86s-.03,2.99-.03,2.99v3.09s-.03,3.2-.03,3.2v3.21s-.04,3.69-.04,3.69v.97s-.01.1-.01.1v2.45s-.04,3.35-.04,3.35l-.03,3.23-.04,3.28-.04,3.35-.05,3.45-.07,3.5-.07,3.58-.09,3.59-.1,3.58-.14,4.02-.18,4.01-.11,2.23-.13,2.2-.06.79-.05.78-.07.93-.09,1.1-.11,1.23-.14,1.3-.16,1.32-.03.17c-.03.24-.09.62-.09.62l-.11.66-.11.55-.1.44-.1.36-.15.44-.13.3-.12.2-.06.09-.06.08-.11.1-.17.13-.23.1-.25.04-.23-.02-.19-.07-.15-.08-.14-.11-.15-.16-.14-.21-.12-.23-.07-.15-.05-.14-.08-.22-.1-.34-.12-.48-.11-.48-.12-.6-.13-.75-.14-.94-.03-.22c-.06-.41-.17-1.25-.17-1.25l-.18-1.54-.16-1.55-.14-1.51-.12-1.43-.11-1.31-.09-1.17-.07-.99-.09-1.38-.09-1.38-.09-1.41-.08-1.45-.08-1.47-.08-1.49-.32-6.84-.25-6.85-.22-6.85-.28-11.71-.2-11.72-.13-11.75-.08-11.76-.03-12.33v-12.35s.06-12.37.06-12.37l.07-10.41.05-5.92" class="cls-4"/><path d="M81.62,149.02v-.35l.05-3.62.05-3.79.06-3.97.06-3.86v-.29s-.06-8.94-.07-9.5" class="cls-4"/></g><line y2="133.43" x2="96.02" y1="133.43" x1="81.84" class="cls-4"/></g></g><line y2="133.43" x2="65.19" y1="133.43" x1="80.29" class="cls-4"/><line y2="133.43" x2="113.2" y1="133.43" x1="97.59" class="cls-4"/><line y2="123.52" x2="113.09" y1="123.52" x1="99.05" class="cls-4"/><line y2="123.52" x2="94.74" y1="123.52" x1="83.56" class="cls-4"/><line y2="123.52" x2="77.17" y1="123.52" x1="65.23" class="cls-4"/><path d="M83.56,123.52c.38.05.71.19.71.33,0,.29-1.01,1.15-2.48,1.31" class="cls-4"/><path d="M80.3,125.06c-1.28-.27-2.27-.97-2.27-1.22" class="cls-4"/><path d="M99.05,123.52c.27,0,.84.02.84.33,0,.27-.91,1.06-2.26,1.28" class="cls-4"/><path d="M96.03,125.09c-1.33-.25-2.39-.98-2.39-1.25,0-.28.74-.33,1.18-.33" class="cls-4"/><path d="M83.37,121.7l-.17,1.83c0,.11-.11.19-.22.18l-2.69-.17-3.23-.2c-.11-.01-.2-.11-.19-.22l.1-1.91c0-.08-.06-.15-.13-.16l-.69-.05c-.05,0-.09-.02-.12-.06-.03-.03-.05-.08-.05-.13l.11-1.02c.01-.11.11-.2.23-.19,1.66.11,3.29.21,4.95.32.22.01.45.03.68.04.03,0,.15.03.31.08.01,0,.02,0,.04.01.27.09.64.29.88.7.23.4.21.79.19.95Z" class="cls-4"/><path d="M82.53,149.33v11.83c0,.17-.13.31-.3.31h-2.78c-.17,0-.31-.14-.31-.31v-11.83c0-.17.14-.31.31-.31h2.78c.17,0,.3.14.3.31Z" class="cls-4"/><path d="M97.95,148.19l-.45,11.83c-.01.17-.15.3-.32.29l-.47-.02-1.55-.05-.76-.03c-.17-.01-.3-.15-.29-.32l.45-11.83c.01-.17.15-.3.32-.29l.67.02,1.56.06.55.02c.17.01.3.15.29.32Z" class="cls-4"/><g><g id="SPLINE"><path d="M99.11,121.84c.18.28.27.61.23.94-.02.22-.13.53-.3.68" class="cls-2"/></g><g id="SPLINE-2"><path d="M98.74,120.79s.06.04.09.06c.09.07.17.15.25.24s.15.18.21.28.11.2.15.31.07.23.09.35c.03.2.02.4-.02.6-.03.18-.25.6-.38.77-.01.02-.02.03-.03.04l-.44.49c-.07.05-.15.1-.24.14-.12.06-.24.11-.34.14" class="cls-4"/></g><g id="SPLINE-3"><path d="M94.56,123.01s.04.1.07.17c.02.04.09.18.21.34.07.09.16.2.29.32" class="cls-4"/></g><g id="SPLINE-4"><path d="M96.03,124.36c-.33-.08-.29-.06-.49-.16,0,0-.02-.01-.03-.03-.04-.03-.1-.08-.14-.14-.04-.07-.04-.11-.06-.19-.01-.07,0-.16.01-.23.01-.06.03-.11.06-.16.02-.04.04-.08.07-.12.03-.05.07-.09.11-.13.08-.08.18-.15.28-.21.06-.03.12-.06.19-.09.2-.08.41-.12.63-.13.21-.01.43,0,.64.05.17.04.34.1.5.19.1.06.2.13.28.21.06.06.11.13.15.21.03.07.05.14.06.21,0,.08,0,.15-.02.22-.01.05-.04.12-.09.2-.05.07-.1.15-.24.22-.2.07-.25.08-.3.09" class="cls-4"/></g><g id="SPLINE-5"><path d="M95.56,124.2s-.07-.05-.07-.05c-.09-.07-.13-.12-.18-.23-.04-.08-.07-.17-.09-.25s-.01-.18,0-.27c.02-.08.05-.16.09-.24.06-.1.13-.2.22-.28.12-.11.25-.2.4-.26.1-.05.2-.08.31-.11s.22-.05.33-.06c.22-.02.45,0,.67.04.21.04.41.11.59.21.12.07.23.15.32.24.07.08.13.16.18.26.04.08.06.17.07.25s0,.18-.01.26-.05.16-.09.24c-.06.09-.23.27-.35.32" class="cls-4"/></g><g id="SPLINE-6"><path d="M97.96,124.28c.2-.09.45-.4.48-.45.05-.09.08-.2.09-.31s0-.22-.02-.33c-.02-.1-.06-.19-.11-.28-.07-.12-.16-.23-.26-.32-.14-.13-.31-.22-.48-.3-.12-.05-.24-.09-.36-.11s-.25-.04-.37-.05-.26,0-.38.01-.25.04-.37.08c-.19.06-.37.14-.54.26-.12.09-.23.19-.32.31-.07.09-.13.2-.17.31s-.05.24-.05.36c0,.11.02.21.07.3.02.03.04.06.06.09" class="cls-4"/></g><g id="SPLINE-7"><path d="M94.57,123.02c-.04-.11-.05-.33-.05-.44,0-.17.03-.35.09-.51s.14-.32.25-.45c.06-.07.13-.16.2-.22" class="cls-4"/></g><g id="SPLINE-8"><path d="M94.56,123.01s-.09-.27-.1-.3c-.04-.1-.05-.21-.06-.31s0-.22,0-.33c.02-.19.08-.37.16-.54.09-.18.2-.34.34-.49.15-.16.33-.31.53-.42.11-.06.22-.11.33-.16" class="cls-4"/></g><g id="SPLINE-9"><path d="M94.42,122.48c-.02-.08-.04-.34-.05-.42-.01-.12-.01-.24,0-.36.02-.21.08-.41.16-.6.09-.19.21-.37.35-.53.16-.18.34-.33.55-.46.12-.07.24-.13.36-.19s.26-.1.39-.14c.15-.04.31-.07.47-.09s.33-.02.49-.02c.17,0,.35.03.52.06s.35.09.51.15c.14.05.27.12.39.19s.25.16.37.26c.09.08.18.17.26.26s.16.2.22.31.12.22.16.34.08.25.1.37c.02.11.02.22.02.33s-.14.61-.18.72" class="cls-4"/></g><g id="SPLINE-10"><path d="M99.66,122.12c.13-.56.06-1.16.04-1.28-.04-.2-.13-.4-.25-.57-.02-.04-.05-.07-.07-.1-.07-.1-.15-.19-.24-.27-.09-.09-.19-.17-.29-.24-.14-.1-.29-.18-.45-.25-.16-.07-.34-.13-.51-.18-.16-.04-.33-.07-.5-.08-.17-.01-.35-.02-.52,0-.15.01-.29.03-.44.06-.15.03-.29.07-.43.13-.24.09-.47.21-.67.36-.18.13-.33.29-.47.46-.12.16-.25.37-.36.75-.04.13-.07.27-.09.43-.03.2-.04.38-.04.53" class="cls-4"/></g><g id="SPLINE-11"><path d="M95.4,124.08c-.04-.05-.24-.34-.27-.39-.06-.11-.09-.23-.1-.36s0-.25.02-.37.06-.23.12-.33c.06-.12.14-.22.22-.31.13-.14.29-.26.45-.35.14-.07.28-.12.43-.17.08-.03.17-.05.25-.05h.05c.22-.02.46-.02.68.02.14.02.28.07.42.12s.26.12.37.2c.13.09.26.21.36.34.08.11.16.23.2.36.03.09.03.17.04.27l-.03.34c-.02.12-.04.26-.09.36-.02.04-.04.11-.2.26" class="cls-4"/></g><g id="SPLINE-12"><path d="M95.49,124.16s-.36-.29-.42-.36c-.1-.13-.22-.31-.25-.49-.03-.17-.03-.29-.02-.46,0-.14,0-.28.06-.42.03-.09.07-.21.13-.31l.06-.09c.09-.14.24-.25.38-.34.17-.11.36-.2.55-.27.23-.08.48-.12.73-.13.14,0,.29,0,.43.01.15.02.29.04.44.08.15.04.3.09.44.16.15.07.28.15.42.25.15.11.29.24.39.39.06.1.1.2.15.31.04.11.11.35.05.65-.05.27-.29.71-.36.8" class="cls-4"/></g><g id="SPLINE-13"><path d="M95.07,121.4c.07-.07.14-.12.22-.18.18-.14.39-.24.61-.32.13-.04.26-.08.39-.11s.27-.05.41-.05c.16,0,.31,0,.47,0s.32.04.47.08.32.09.47.16.31.15.44.25c.23.16.4.38.56.61" class="cls-4"/></g><g id="SPLINE-14"><path d="M95.76,120.46s.01,0,.02-.01c.12-.06.25-.09.38-.13.15-.04.3-.07.45-.08s.32-.02.47-.02c.17,0,.34.03.5.06s.34.08.5.14c.13.05.26.11.38.18.09.05.18.12.26.18" class="cls-4"/></g></g><path d="M82.26,120.04c-.16-.03-.28-.04-.31-.05" class="cls-4"/><path d="M82.3,120.05c.35.08.87.28,1.17.79.16.27.2.53.21.72l-.02.21-.17,2.14c-.01.08-.03.19-.13.19l-1.56-.06" class="cls-4"/><path d="M76.96,123.31l.32.28c.09.07.18.15.25.19l2.77.17" class="cls-4"/><line y2="124" x2="83.43" y1="123.72" x1="83.11" class="cls-4"/><line y2="121.77" x2="83.66" y1="121.58" x1="83.44" class="cls-4"/><path d="M76.02,120.94l.32.28c.09.07.18.15.25.19l.34.02" class="cls-4"/></g></g></g></g></svg>