<svg viewBox="0 0 531.27 288.27" xmlns:xlink="http://www.w3.org/1999/xlink" xmlns="http://www.w3.org/2000/svg"><defs><style>.cls-1,.cls-2,.cls-3{fill:none;}.cls-4{mix-blend-mode:multiply;opacity:.5;}.cls-4,.cls-5{fill:#f1efea;stroke:#000;stroke-miterlimit:10;}.cls-4,.cls-5,.cls-3{stroke-width:.3px;}.cls-6{fill:#12100c;}.cls-7{fill:#1d1d1b;}.cls-8{isolation:isolate;}.cls-2{stroke-width:.46px;}.cls-2,.cls-3{stroke:#12100c;stroke-linecap:round;stroke-linejoin:round;}</style><symbol viewBox="0 0 135.29 37.45" id="Floema_.com"><path d="M21.3,0h4.42s0,27.85,0,27.85h-4.42S21.3,0,21.3,0Z" class="cls-7"/><path d="M48.8,18.26c0,5.46-4.53,9.92-10.18,9.92-5.64,0-10.18-4.46-10.18-9.92,0-5.46,4.53-9.92,10.18-9.92,5.6,0,10.18,4.46,10.18,9.92ZM32.91,18.26c0,3.24,2.54,5.83,5.71,5.83,3.17,0,5.71-2.58,5.71-5.83s-2.54-5.83-5.71-5.83c-3.17,0-5.71,2.58-5.71,5.83Z" class="cls-7"/><path d="M69.95,18.23c0,.48-.04.81-.07.96h-14.93c.37,2.95,2.69,4.9,6.05,4.9,2.36,0,4.2-1,4.98-2.65l3.8,1.47c-1.36,3.36-4.61,5.27-8.85,5.27-6.19,0-10.54-4.09-10.54-9.92,0-5.71,4.17-9.92,9.84-9.92,5.64,0,9.73,4.17,9.73,9.88ZM65.01,15.9c-.59-2.1-2.43-3.47-4.76-3.47-2.32,0-4.17,1.36-4.98,3.47h9.73Z" class="cls-7"/><path d="M77.13,8.68v.74c0,.63.18.88.66.88.37,0,.7-.18,1.18-.59,1.03-.92,2.25-1.36,3.8-1.36,1.81,0,3.21.59,4.31,1.81.48.55.85.74,1.36.74.44,0,.77-.15,1.25-.66,1.22-1.25,2.73-1.88,4.61-1.88,3.95,0,6.23,2.8,6.23,7.6v11.91s-4.42,0-4.42,0v-11.28c0-2.77-1.33-4.5-3.43-4.5-2.25,0-3.72,1.92-3.72,4.76v11.02s-4.42,0-4.42,0v-11.28c0-2.77-1.33-4.5-3.47-4.5-2.21,0-3.72,1.95-3.72,4.83v10.95s-4.42,0-4.42,0V8.68s4.2,0,4.2,0Z" class="cls-7"/><path d="M120.15,16.02v11.84s-4.17,0-4.17,0l.04-1.25c0-.63-.22-.92-.77-.92-.41,0-.74.18-1.25.7-1.22,1.22-2.69,1.81-4.53,1.81-3.58,0-5.97-2.14-5.97-5.31,0-3.28,2.54-5.49,7.23-6.27l5.12-.85c-.26-2.21-1.88-3.5-4.5-3.5-2.21,0-3.69.92-4.28,2.69l-3.91-1.22c1.03-3.36,4.09-5.38,8.15-5.38,5.12,0,8.85,3.21,8.85,7.67ZM111.64,20.03c-2.54.44-3.76,1.29-3.76,2.65,0,1.33,1.14,2.14,2.99,2.14,2.95,0,4.87-2.14,5.01-5.57l-4.24.77Z" class="cls-7"/><path d="M19.08.01H0s0,27.84,0,27.84h4.57V10.41c0-1.23,1.49-1.85,2.36-.98l7.35,7.35,2.9-2.9-7.29-7.29c-.87-.87-.25-2.36.98-2.36h8.21V.01Z" class="cls-7"/><path d="M135.29,22.39c0,3.26-2.61,5.79-5.96,5.79-3.35,0-5.96-2.53-5.96-5.79,0-3.26,2.61-5.77,5.96-5.77,3.36,0,5.96,2.53,5.96,5.77ZM124.6,22.39c0,2.63,2.06,4.67,4.72,4.67,2.66,0,4.7-2.04,4.7-4.67s-2.04-4.65-4.7-4.65c-2.66,0-4.72,2.01-4.72,4.65ZM130.57,22.81c-.2.07-.3.2-.3.4,0,.12.07.27.15.4l1.39,1.89h-1.49s-1.71-2.41-1.71-2.41v2.41s-1.32,0-1.32,0v-6.19s2.31,0,2.31,0c1.27,0,2.19.8,2.19,1.89,0,.77-.47,1.37-1.22,1.62Z" class="cls-7"/><path d="M95.35,35.97c.17.16.25.36.25.6,0,.13-.02.25-.07.35-.05.11-.11.2-.19.28-.08.08-.16.14-.26.18-.1.04-.21.07-.34.07-.14,0-.26-.02-.37-.07-.11-.04-.2-.1-.28-.18-.07-.08-.13-.17-.18-.27-.05-.1-.07-.22-.07-.35,0-.25.08-.45.25-.61s.38-.24.62-.24.47.08.64.23Z" class="cls-7"/><path d="M101.56,33.29c-.06-.18-.15-.34-.26-.48-.11-.14-.25-.27-.41-.37-.16-.1-.34-.18-.53-.23-.19-.05-.39-.08-.6-.08-.29,0-.56.05-.8.16-.25.1-.46.25-.64.43-.18.18-.32.41-.42.67-.1.26-.15.54-.15.83,0,.31.05.6.15.85.1.26.24.48.43.67.19.19.41.33.66.44.25.1.53.16.84.16.42,0,.78-.1,1.1-.3.32-.2.55-.48.7-.84l1.05.31c-.19.61-.54,1.08-1.05,1.43s-1.12.52-1.81.52c-.47,0-.91-.08-1.31-.24-.4-.16-.75-.38-1.04-.67-.3-.29-.53-.63-.7-1.02-.17-.4-.25-.83-.25-1.29s.08-.89.25-1.28.39-.73.67-1.01c.28-.28.62-.51,1.02-.67.4-.16.82-.24,1.28-.24.35,0,.68.05.99.14.31.09.59.22.84.4.25.17.47.38.65.61.18.24.32.5.4.8l-1.06.32Z" class="cls-7"/><path d="M107.98,31.28c.4.17.75.4,1.04.68s.53.63.7,1.02.26.81.26,1.26-.09.85-.26,1.24-.41.73-.71,1.02c-.3.29-.65.52-1.04.7-.4.17-.82.26-1.26.26s-.89-.08-1.29-.25c-.4-.17-.74-.4-1.04-.68-.3-.29-.54-.63-.71-1.02-.17-.39-.26-.81-.26-1.26s.09-.87.26-1.26c.17-.39.41-.73.71-1.02.3-.29.65-.52,1.04-.68.4-.17.82-.25,1.28-.25s.87.08,1.28.25ZM105.89,32.3c-.25.1-.47.25-.66.44-.19.19-.33.42-.44.67-.1.26-.16.53-.16.83s.05.56.16.82c.1.26.25.49.44.68.19.19.41.34.66.44.25.1.52.16.81.16s.55-.05.8-.16c.25-.11.47-.26.67-.45s.34-.41.44-.67.16-.53.16-.82-.05-.56-.16-.82c-.1-.26-.25-.48-.44-.68s-.41-.34-.67-.44c-.25-.1-.52-.16-.8-.16s-.56.05-.81.16Z" class="cls-7"/><path d="M112.43,31.12v.25c0,.11.02.19.05.23s.09.06.16.06c.03,0,.06,0,.09-.01.03,0,.06-.02.09-.03s.06-.03.1-.06.07-.06.11-.09c.18-.15.38-.26.59-.34.21-.07.44-.11.7-.11.29,0,.55.05.78.14.24.1.45.25.63.47.08.1.15.16.22.2.07.04.15.05.23.05.03,0,.07,0,.1-.01.04,0,.07-.02.1-.04.03-.02.06-.04.1-.07s.08-.07.12-.11c.2-.21.43-.37.68-.47.26-.11.54-.16.84-.16.64,0,1.14.22,1.49.65.36.43.53,1.04.53,1.82v3.86h-1.2v-3.7c0-.5-.11-.89-.34-1.17-.23-.29-.53-.43-.92-.43-.2,0-.38.04-.55.12-.17.08-.31.2-.44.35-.12.15-.22.33-.28.55-.06.21-.1.44-.1.69v3.61h-1.2v-3.7c0-.24-.03-.46-.1-.66-.06-.2-.15-.37-.26-.51-.11-.14-.24-.25-.4-.32s-.33-.11-.53-.11-.37.04-.55.12c-.17.08-.32.2-.43.35s-.21.34-.28.55c-.07.21-.1.45-.1.7v3.58h-1.2v-6.23h1.14Z" class="cls-7"/></symbol><symbol viewBox="0 0 531.27 288" id="fundo_transparente"><rect height="288" width="531.27" x="0" class="cls-1"/></symbol></defs><g class="cls-8"><g id="Camada_2"><g id="RePlastic"><g id="ecoponto_Halux_4_baldes"><use xlink:href="#fundo_transparente" transform="translate(0 .27)" height="288" width="531.27"/><path d="M201.44,147.42h-.01s0,0,0,0h-1.86c-.43,0-.54-.09-1.12,1.04-.72-.94-1.26-.95-2.13-1.04h0s-.04,0-.11,0h-1.37c-1.51,0-2.77.64-3.01,4.52h-.23c-.5-3.88-3.07-4.52-6.16-4.52h0c-.16,0-.31,0-.47.02-.16-.02-.31-.02-.47-.02h0c-3.1,0-5.67.64-6.16,4.52h-1.91c-.63-3.88-3.88-4.52-7.78-4.52h0c-3.91,0-7.15.64-7.78,4.52h-2.01c-.5-3.88-3.07-4.52-6.16-4.52h0c-.14,0-.28,0-.42.02-.14-.01-.28-.02-.42-.02h0c-3.1,0-5.67.64-6.16,4.52h-.21c-.24-3.88-1.5-4.52-3.01-4.52h-1.48c-.88.07-1.22-.04-2.18,1.14-.65-1.21-.68-1.14-1.11-1.14h-1.86c-.79,0-1.42,1.36-1.42,5.9v84.56c0,.1.08.18.18.18h3.61s1.4,0,1.4,0h5.75c.1,0,.18-.08.18-.18v-.78h.07v.78c0,.1.08.18.18.18h13c.1,0,.18-.08.18-.18v-.78h1.81v.78c0,.1.08.18.18.18h15.44c.1,0,.18-.08.18-.18v-.78h1.71v.78c0,.1.08.18.18.18h13.09c.1,0,.18-.08.18-.18v-.78h.1v.78c0,.1.08.18.18.18h7.13s1.11,0,1.11,0h2.5c.1,0,.18-.08.18-.18v-84.56c0-4.53-.64-5.9-1.42-5.9Z" class="cls-5"/><path d="M287.96,147.42h-.01s0,0,0,0h-1.86c-.43,0-.54-.09-1.12,1.04-.72-.94-1.26-.95-2.13-1.04h0s-.04,0-.11,0h-1.37c-1.51,0-2.77.64-3.01,4.52h-.23c-.5-3.88-3.07-4.52-6.16-4.52h0c-.16,0-.31,0-.47.02-.16-.02-.31-.02-.47-.02h0c-3.1,0-5.67.64-6.16,4.52h-1.91c-.63-3.88-3.88-4.52-7.78-4.52h0c-3.91,0-7.15.64-7.78,4.52h-2.01c-.5-3.88-3.07-4.52-6.16-4.52h0c-.14,0-.28,0-.42.02-.14-.01-.28-.02-.42-.02h0c-3.1,0-5.67.64-6.16,4.52h-.21c-.24-3.88-1.5-4.52-3.01-4.52h-1.48c-.88.07-1.22-.04-2.18,1.14-.65-1.21-.68-1.14-1.11-1.14h-1.86c-.79,0-1.42,1.36-1.42,5.9v84.56c0,.1.08.18.18.18h3.61s1.4,0,1.4,0h5.75c.1,0,.18-.08.18-.18v-.78h.07v.78c0,.1.08.18.18.18h13c.1,0,.18-.08.18-.18v-.78h1.81v.78c0,.1.08.18.18.18h15.44c.1,0,.18-.08.18-.18v-.78h1.71v.78c0,.1.08.18.18.18h13.09c.1,0,.18-.08.18-.18v-.78h.1v.78c0,.1.08.18.18.18h7.13s1.11,0,1.11,0h2.5c.1,0,.18-.08.18-.18v-84.56c0-4.53-.64-5.9-1.42-5.9Z" class="cls-5"/><path d="M114.92,147.42h0s0,0-.01,0h0c-.85,0-1.07,0-1.86,0h0c-.43,0-.54-.09-1.12,1.04-.72-.94-1.26-.95-2.13-1.04h0s-.04,0-.11,0h-1.37c-1.51,0-2.77.64-3.01,4.52h-.23c-.5-3.88-3.07-4.52-6.16-4.52h0c-.16,0-.31,0-.47.02-.16-.02-.31-.02-.47-.02h0c-3.1,0-5.67.64-6.16,4.52h-1.91c-.63-3.88-3.88-4.52-7.78-4.52h0c-3.91,0-7.15.64-7.78,4.52h-2.01c-.5-3.88-3.07-4.52-6.16-4.52h0c-.14,0-.28,0-.42.02-.14-.01-.28-.02-.42-.02h0c-3.1,0-5.67.64-6.16,4.52h-.21c-.24-3.88-1.5-4.52-3.01-4.52h-1.48c-.88.07-1.22-.04-2.18,1.14-.65-1.21-.68-1.14-1.11-1.14h-1.86c-.79,0-1.42,1.36-1.42,5.9v84.56c0,.1.08.18.18.18h3.61s1.4,0,1.4,0h5.75c.1,0,.18-.08.18-.18v-.78h.07v.78c0,.1.08.18.18.18h13c.1,0,.18-.08.18-.18v-.78h1.81v.78c0,.1.08.18.18.18h15.44c.1,0,.18-.08.18-.18v-.78h1.71v.78c0,.1.08.18.18.18h13.09c.1,0,.18-.08.18-.18v-.78h.1v.78c0,.1.08.18.18.18h7.13s1.11,0,1.11,0h2.5c.1,0,.18-.08.18-.18v-84.56c0-4.53-.64-5.9-1.42-5.9Z" class="cls-5"/><rect height="2.22" width="78.5" y="166.2" x="215.89" class="cls-5"/><rect height="167.53" width="13.36" y="120.12" x="291.8" class="cls-5"/><rect height="85.16" width="65.29" y="151.94" x="222.31" class="cls-5"/><path d="M245.26,238.06c.1,0,.18-.08.18-.18v-84.56c0-4.53-2.8-5.9-6.25-5.9h0c-3.45,0-6.25,1.36-6.25,5.9v84.56c0,.1.08.18.18.18h12.15Z" class="cls-5"/><path d="M231.84,238.06c.1,0,.18-.08.18-.18v-84.56c0-4.53-1.37-5.9-3.05-5.9h0c-1.69,0-1.48,0-1.48,0l-1.57,90.46c0,.1.08.18.18.18h5.75Z" class="cls-5"/><path d="M225.43,238.06c.1,0,.18-.08.18-.18v-84.56c0-4.53-.64-5.9-1.42-5.9h-1.86l.43,90.46c0,.1.08.18.18.18h2.5Z" class="cls-5"/><path d="M263.04,237.88v-84.56c0-4.53-3.53-5.9-7.9-5.9h0c-4.36,0-7.9,1.36-7.9,5.9v84.56c0,.1.08.18.18.18h15.44c.1,0,.18-.08.18-.18Z" class="cls-5"/><path d="M244.42,238.06c.1,0,.18-.08.18-.18v-84.56c0-4.53-2.8-5.9-6.25-5.9h0c-3.45,0-6.25,1.36-6.25,5.9v84.56c0,.1.08.18.18.18h12.15Z" class="cls-5"/><path d="M230.44,238.06c.1,0,.18-.08.18-.18v-84.56c0-4.53-1.37-5.9-3.05-5.9h0c-1.69,0-3.05,1.36-3.05,5.9v84.56c0,.1.08.18.18.18h5.75Z" class="cls-5"/><path d="M223.58,238.06c.1,0,.18-.08.18-.18v-84.56c0-4.53-.64-5.9-1.42-5.9h0c-.79,0-1.42,1.36-1.42,5.9v84.56c0,.1.08.18.18.18h2.5Z" class="cls-5"/><path d="M264.93,238.06c-.1,0-.18-.08-.18-.18v-84.56c0-4.53,2.8-5.9,6.25-5.9h0c3.45,0,6.25,1.36,6.25,5.9v84.56c0,.1-.08.18-.18.18h-12.15Z" class="cls-5"/><path d="M278.47,238.06c-.1,0-.18-.08-.18-.18v-84.56c0-4.53,1.37-5.9,3.05-5.9h0c1.69,0,1.48,0,1.48,0l1.57,90.46c0,.1-.08.18-.18.18h-5.75Z" class="cls-5"/><path d="M284.84,238.06c-.1,0-.18-.08-.18-.18v-84.56c0-4.53.64-5.9,1.42-5.9h0c.79,0,1.01,0,1.86,0l-.43,90.46c0,.1-.08.18-.18.18h-2.5Z" class="cls-5"/><path d="M265.86,238.06c-.1,0-.18-.08-.18-.18v-84.56c0-4.53,2.8-5.9,6.25-5.9h0c3.45,0,6.25,1.36,6.25,5.9v84.56c0,.1-.08.18-.18.18h-12.15Z" class="cls-5"/><path d="M279.85,238.06c-.1,0-.18-.08-.18-.18v-84.56c0-4.53,1.37-5.9,3.05-5.9h0c1.69,0,3.05,1.36,3.05,5.9v84.56c0,.1-.08.18-.18.18h-5.75Z" class="cls-5"/><path d="M286.71,238.06c-.1,0-.18-.08-.18-.18v-84.56c0-4.53.64-5.9,1.42-5.9h0c.79,0,1.42,1.36,1.42,5.9v84.56c0,.1-.08.18-.18.18h-2.5Z" class="cls-5"/><line y2="120.12" x2="306.83" y1="120.12" x1="203.45" class="cls-5"/><rect height="2.22" width="78.5" y="166.2" x="129.37" class="cls-5"/><rect height="167.53" width="13.36" y="120.12" x="205.28" class="cls-5"/><rect height="85.16" width="65.29" y="151.94" x="135.79" class="cls-5"/><path d="M158.74,238.06c.1,0,.18-.08.18-.18v-84.56c0-4.53-2.8-5.9-6.25-5.9h0c-3.45,0-6.25,1.36-6.25,5.9v84.56c0,.1.08.18.18.18h12.15Z" class="cls-5"/><path d="M145.32,238.06c.1,0,.18-.08.18-.18v-84.56c0-4.53-1.37-5.9-3.05-5.9h0c-1.69,0-1.48,0-1.48,0l-1.57,90.46c0,.1.08.18.18.18h5.75Z" class="cls-5"/><path d="M138.91,238.06c.1,0,.18-.08.18-.18v-84.56c0-4.53-.64-5.9-1.42-5.9h-1.86l.43,90.46c0,.1.08.18.18.18h2.5Z" class="cls-5"/><path d="M176.52,237.88v-84.56c0-4.53-3.53-5.9-7.9-5.9h0c-4.36,0-7.9,1.36-7.9,5.9v84.56c0,.1.08.18.18.18h15.44c.1,0,.18-.08.18-.18Z" class="cls-5"/><path d="M157.9,238.06c.1,0,.18-.08.18-.18v-84.56c0-4.53-2.8-5.9-6.25-5.9h0c-3.45,0-6.25,1.36-6.25,5.9v84.56c0,.1.08.18.18.18h12.15Z" class="cls-5"/><path d="M143.92,238.06c.1,0,.18-.08.18-.18v-84.56c0-4.53-1.37-5.9-3.05-5.9h0c-1.69,0-3.05,1.36-3.05,5.9v84.56c0,.1.08.18.18.18h5.75Z" class="cls-5"/><path d="M137.06,238.06c.1,0,.18-.08.18-.18v-84.56c0-4.53-.64-5.9-1.42-5.9h0c-.79,0-1.42,1.36-1.42,5.9v84.56c0,.1.08.18.18.18h2.5Z" class="cls-5"/><path d="M178.41,238.06c-.1,0-.18-.08-.18-.18v-84.56c0-4.53,2.8-5.9,6.25-5.9h0c3.45,0,6.25,1.36,6.25,5.9v84.56c0,.1-.08.18-.18.18h-12.15Z" class="cls-5"/><path d="M191.95,238.06c-.1,0-.18-.08-.18-.18v-84.56c0-4.53,1.37-5.9,3.05-5.9h0c1.69,0,1.48,0,1.48,0l1.57,90.46c0,.1-.08.18-.18.18h-5.75Z" class="cls-5"/><path d="M198.32,238.06c-.1,0-.18-.08-.18-.18v-84.56c0-4.53.64-5.9,1.42-5.9h0c.79,0,1.01,0,1.86,0l-.43,90.46c0,.1-.08.18-.18.18h-2.5Z" class="cls-5"/><path d="M179.35,238.06c-.1,0-.18-.08-.18-.18v-84.56c0-4.53,2.8-5.9,6.25-5.9h0c3.45,0,6.25,1.36,6.25,5.9v84.56c0,.1-.08.18-.18.18h-12.15Z" class="cls-5"/><path d="M193.33,238.06c-.1,0-.18-.08-.18-.18v-84.56c0-4.53,1.37-5.9,3.05-5.9h0c1.69,0,3.05,1.36,3.05,5.9v84.56c0,.1-.08.18-.18.18h-5.75Z" class="cls-5"/><path d="M200.19,238.06c-.1,0-.18-.08-.18-.18v-84.56c0-4.53.64-5.9,1.42-5.9h0c.79,0,1.42,1.36,1.42,5.9v84.56c0,.1-.08.18-.18.18h-2.5Z" class="cls-5"/><line y2="120.12" x2="220.31" y1="120.12" x1="116.93" class="cls-5"/><rect height="2.22" width="78.5" y="166.2" x="42.85" class="cls-5"/><rect height="167.53" width="13.36" y="120.12" x="118.76" class="cls-5"/><rect height="167.53" width="13.36" y="120.12" x="32.08" class="cls-5"/><rect height="85.16" width="65.29" y="151.94" x="49.27" class="cls-5"/><path d="M72.22,238.06c.1,0,.18-.08.18-.18v-84.56c0-4.53-2.8-5.9-6.25-5.9h0c-3.45,0-6.25,1.36-6.25,5.9v84.56c0,.1.08.18.18.18h12.15Z" class="cls-5"/><path d="M58.8,238.06c.1,0,.18-.08.18-.18v-84.56c0-4.53-1.37-5.9-3.05-5.9h0c-1.69,0-1.48,0-1.48,0l-1.57,90.46c0,.1.08.18.18.18h5.75Z" class="cls-5"/><path d="M52.4,238.06c.1,0,.18-.08.18-.18v-84.56c0-4.53-.64-5.9-1.42-5.9h-1.86l.43,90.46c0,.1.08.18.18.18h2.5Z" class="cls-5"/><path d="M90,237.88v-84.56c0-4.53-3.53-5.9-7.9-5.9h0c-4.36,0-7.9,1.36-7.9,5.9v84.56c0,.1.08.18.18.18h15.44c.1,0,.18-.08.18-.18Z" class="cls-5"/><path d="M71.38,238.06c.1,0,.18-.08.18-.18v-84.56c0-4.53-2.8-5.9-6.25-5.9h0c-3.45,0-6.25,1.36-6.25,5.9v84.56c0,.1.08.18.18.18h12.15Z" class="cls-5"/><path d="M57.4,238.06c.1,0,.18-.08.18-.18v-84.56c0-4.53-1.37-5.9-3.05-5.9h0c-1.69,0-3.05,1.36-3.05,5.9v84.56c0,.1.08.18.18.18h5.75Z" class="cls-5"/><path d="M50.54,238.06c.1,0,.18-.08.18-.18v-84.56c0-4.53-.64-5.9-1.42-5.9h0c-.79,0-1.42,1.36-1.42,5.9v84.56c0,.1.08.18.18.18h2.5Z" class="cls-5"/><path d="M91.89,238.06c-.1,0-.18-.08-.18-.18v-84.56c0-4.53,2.8-5.9,6.25-5.9h0c3.45,0,6.25,1.36,6.25,5.9v84.56c0,.1-.08.18-.18.18h-12.15Z" class="cls-5"/><path d="M105.43,238.06c-.1,0-.18-.08-.18-.18v-84.56c0-4.53,1.37-5.9,3.05-5.9h0c1.69,0,1.48,0,1.48,0l1.57,90.46c0,.1-.08.18-.18.18h-5.75Z" class="cls-5"/><path d="M111.8,238.06c-.1,0-.18-.08-.18-.18v-84.56c0-4.53.64-5.9,1.42-5.9h0c.79,0,1.01,0,1.86,0l-.43,90.46c0,.1-.08.18-.18.18h-2.5Z" class="cls-5"/><path d="M92.83,238.06c-.1,0-.18-.08-.18-.18v-84.56c0-4.53,2.8-5.9,6.25-5.9h0c3.45,0,6.25,1.36,6.25,5.9v84.56c0,.1-.08.18-.18.18h-12.15Z" class="cls-5"/><path d="M106.81,238.06c-.1,0-.18-.08-.18-.18v-84.56c0-4.53,1.37-5.9,3.05-5.9h0c1.69,0,3.05,1.36,3.05,5.9v84.56c0,.1-.08.18-.18.18h-5.75Z" class="cls-5"/><path d="M113.67,238.06c-.1,0-.18-.08-.18-.18v-84.56c0-4.53.64-5.9,1.42-5.9h0c.79,0,1.42,1.36,1.42,5.9v84.56c0,.1-.08.18-.18.18h-2.5Z" class="cls-5"/><line y2="120.12" x2="133.79" y1="120.12" x1="30.41" class="cls-5"/><rect height="167.53" width="13.36" y="120.12" x="291.8" class="cls-5"/><rect height="167.53" width="13.36" y="120.12" x="205.28" class="cls-5"/><path d="M374.46,147.42h-.01s0,0,0,0h-1.86c-.43,0-.54-.09-1.12,1.04-.72-.94-1.26-.95-2.13-1.04h0s-.04,0-.11,0h-1.37c-1.51,0-2.77.64-3.01,4.52h-.23c-.5-3.88-3.07-4.52-6.16-4.52h0c-.16,0-.31,0-.47.02-.16-.02-.31-.02-.47-.02h0c-3.1,0-5.67.64-6.16,4.52h-1.91c-.63-3.88-3.88-4.52-7.78-4.52h0c-3.91,0-7.15.64-7.78,4.52h-2.01c-.5-3.88-3.07-4.52-6.16-4.52h0c-.14,0-.28,0-.42.02-.14-.01-.28-.02-.42-.02h0c-3.1,0-5.67.64-6.16,4.52h-.21c-.24-3.88-1.5-4.52-3.01-4.52h-1.48c-.88.07-1.22-.04-2.18,1.14-.65-1.21-.68-1.14-1.11-1.14h-1.86c-.79,0-1.42,1.36-1.42,5.9v84.56c0,.1.08.18.18.18h3.61s1.4,0,1.4,0h5.75c.1,0,.18-.08.18-.18v-.78h.07v.78c0,.1.08.18.18.18h13c.1,0,.18-.08.18-.18v-.78h1.81v.78c0,.1.08.18.18.18h15.44c.1,0,.18-.08.18-.18v-.78h1.71v.78c0,.1.08.18.18.18h13.09c.1,0,.18-.08.18-.18v-.78h.1v.78c0,.1.08.18.18.18h7.13s1.11,0,1.11,0h2.5c.1,0,.18-.08.18-.18v-84.56c0-4.53-.64-5.9-1.42-5.9Z" class="cls-5"/><rect height="2.22" width="75.73" y="166.2" x="305.17" class="cls-5"/><rect height="167.53" width="13.36" y="120.12" x="378.31" class="cls-5"/><rect height="85.16" width="65.29" y="151.94" x="308.82" class="cls-5"/><path d="M331.77,238.06c.1,0,.18-.08.18-.18v-84.56c0-4.53-2.8-5.9-6.25-5.9h0c-3.45,0-6.25,1.36-6.25,5.9v84.56c0,.1.08.18.18.18h12.15Z" class="cls-5"/><path d="M318.34,238.06c.1,0,.18-.08.18-.18v-84.56c0-4.53-1.37-5.9-3.05-5.9h0c-1.69,0-1.48,0-1.48,0l-1.57,90.46c0,.1.08.18.18.18h5.75Z" class="cls-5"/><path d="M311.94,238.06c.1,0,.18-.08.18-.18v-84.56c0-4.53-.64-5.9-1.42-5.9h-1.86l.43,90.46c0,.1.08.18.18.18h2.5Z" class="cls-5"/><path d="M349.54,237.88v-84.56c0-4.53-3.53-5.9-7.9-5.9h0c-4.36,0-7.9,1.36-7.9,5.9v84.56c0,.1.08.18.18.18h15.44c.1,0,.18-.08.18-.18Z" class="cls-5"/><path d="M330.92,238.06c.1,0,.18-.08.18-.18v-84.56c0-4.53-2.8-5.9-6.25-5.9h0c-3.45,0-6.25,1.36-6.25,5.9v84.56c0,.1.08.18.18.18h12.15Z" class="cls-5"/><path d="M316.94,238.06c.1,0,.18-.08.18-.18v-84.56c0-4.53-1.37-5.9-3.05-5.9h0c-1.69,0-3.05,1.36-3.05,5.9v84.56c0,.1.08.18.18.18h5.75Z" class="cls-5"/><path d="M310.08,238.06c.1,0,.18-.08.18-.18v-84.56c0-4.53-.64-5.9-1.42-5.9h0c-.79,0-1.42,1.36-1.42,5.9v84.56c0,.1.08.18.18.18h2.5Z" class="cls-5"/><path d="M351.43,238.06c-.1,0-.18-.08-.18-.18v-84.56c0-4.53,2.8-5.9,6.25-5.9h0c3.45,0,6.25,1.36,6.25,5.9v84.56c0,.1-.08.18-.18.18h-12.15Z" class="cls-5"/><path d="M364.98,238.06c-.1,0-.18-.08-.18-.18v-84.56c0-4.53,1.37-5.9,3.05-5.9h0c1.69,0,1.48,0,1.48,0l1.57,90.46c0,.1-.08.18-.18.18h-5.75Z" class="cls-5"/><path d="M371.34,238.06c-.1,0-.18-.08-.18-.18v-84.56c0-4.53.64-5.9,1.42-5.9h0c.79,0,1.01,0,1.86,0l-.43,90.46c0,.1-.08.18-.18.18h-2.5Z" class="cls-5"/><path d="M352.37,238.06c-.1,0-.18-.08-.18-.18v-84.56c0-4.53,2.8-5.9,6.25-5.9h0c3.45,0,6.25,1.36,6.25,5.9v84.56c0,.1-.08.18-.18.18h-12.15Z" class="cls-5"/><path d="M366.35,238.06c-.1,0-.18-.08-.18-.18v-84.56c0-4.53,1.37-5.9,3.05-5.9h0c1.69,0,3.05,1.36,3.05,5.9v84.56c0,.1-.08.18-.18.18h-5.75Z" class="cls-5"/><path d="M373.21,238.06c-.1,0-.18-.08-.18-.18v-84.56c0-4.53.64-5.9,1.42-5.9h0c.79,0,1.42,1.36,1.42,5.9v84.56c0,.1-.08.18-.18.18h-2.5Z" class="cls-5"/><line y2="120.12" x2="393.34" y1="120.12" x1="289.95" class="cls-5"/><rect height="167.53" width="13.36" y="120.12" x="378.31" class="cls-5"/><rect height="167.53" width="13.36" y="120.12" x="118.76" class="cls-5"/><rect height="167.53" width="13.36" y="120.12" x="32.08" class="cls-5"/><path d="M294.5,65.43h2.15c.92,0,1.67-.75,1.67-1.67v-13.4c0-.93-.75-1.68-1.67-1.68h-2.47c-2.54-.12-4.71-1.67-5.73-3.86-5.02-13.79-18.19-23.37-33.34-23.37s-28.45,9.65-33.42,23.6c-1.02,2-3,3.41-5.34,3.62h-2.83c-.92,0-1.67.75-1.67,1.68v13.4c.01.92.76,1.67,1.68,1.67h2.52c2.89.14,5.3,2.12,6.08,4.8,5.29,13.33,18.24,22.42,32.98,22.42s27.78-9.3,32.99-22.45c.82-2.77,3.38-4.79,6.41-4.79.15,0,.31,0,0,.02" class="cls-5"/><path d="M381,65.43h3.96c4.75,0,8.57-3.97,8.34-8.78-.21-4.51-4.08-7.97-8.58-7.97h-4.04c-2.54-.12-4.71-1.67-5.73-3.86-5.02-13.79-18.19-23.37-33.34-23.37s-28.45,9.65-33.42,23.6c-1.02,2-3,3.41-5.34,3.62h-2.87c-.92,0-1.67.75-1.67,1.67v13.4c0,.93.75,1.68,1.67,1.68h2.57c2.89.14,5.3,2.12,6.08,4.8,5.29,13.33,18.24,22.42,32.98,22.42s27.78-9.3,32.99-22.45c.82-2.77,3.38-4.79,6.41-4.79.15,0,.31,0,0,.02" class="cls-5"/><path d="M208.02,65.43h2.15c.92,0,1.67-.75,1.67-1.67v-13.4c0-.93-.75-1.68-1.67-1.68h-2.47c-2.54-.12-4.71-1.67-5.73-3.86-5.02-13.79-18.19-23.37-33.34-23.37s-28.45,9.65-33.42,23.6c-1.02,2-3,3.41-5.34,3.62h-2.83c-.92,0-1.67.75-1.67,1.68v13.4c.01.92.76,1.67,1.68,1.67h2.52c2.89.14,5.3,2.12,6.08,4.8,5.29,13.33,18.24,22.42,32.98,22.42s27.78-9.3,32.99-22.45c.82-2.77,3.38-4.79,6.41-4.79.15,0,.31,0,0,.02" class="cls-5"/><path d="M167.51,77.86s.02-.1.03-.15c0-.03,0-.06,0-.09,0-.03,0-.06-.01-.1h0s-.03-.09-.05-.13c-.04-.06-.09-.11-.14-.17h-.01s.02-.03.02-.03c.03-.03.07-.06.1-.1.03-.04.05-.08.07-.12.01-.03.02-.06.03-.1.01-.08.02-.15,0-.22,0-.01,0-.02,0-.04-.01-.05-.03-.09-.05-.13-.04-.06-.09-.11-.14-.17h-.01s.02-.03.02-.03c.03-.03.07-.06.1-.1.03-.04.05-.08.07-.12.03-.07.04-.15.04-.22h0c0-.05,0-.1-.01-.15,0-.06-.02-.13-.05-.2-.03-.08-.06-.16-.1-.24-.04-.07-.08-.14-.13-.22-.06-.08-.12-.16-.18-.24-.08-.09-.16-.17-.24-.26h0s0-.01,0-.01v-.72h0s.01-.02.02-.02c0-.01.01-.02.02-.03,0-.01,0-.03,0-.04v-.58c0-.06-.02-.12-.04-.18-.02-.05-.06-.1-.11-.14-.04-.03-.08-.05-.12-.07-.05-.02-.09-.02-.14-.03h-.87c-.06,0-.12.02-.18.04-.05.02-.1.06-.14.11-.03.04-.05.08-.07.12-.02.04-.02.09-.03.14v.58s0,.03.01.05c0,.01.02.03.03.04h.01v.74h0c-.1.11-.21.22-.3.33-.08.09-.15.19-.21.29-.05.09-.09.17-.13.26-.04.09-.06.17-.07.25-.01.06-.01.13-.02.19,0,.05,0,.09.02.14.01.04.03.09.05.13.04.06.09.11.14.17h.01s-.02.03-.02.03c-.04.03-.07.06-.1.1-.03.04-.05.08-.07.12-.03.07-.04.15-.04.22,0,.04,0,.09.02.14.01.05.03.09.05.13.04.06.09.11.14.17h.01s-.02.03-.02.03c-.03.03-.07.06-.1.1-.03.04-.05.08-.07.12,0,.01,0,.03-.01.04-.03.11-.03.22,0,.34,0,.03.02.06.03.08,0,0,0,.02.01.03h0v2.17s0,0,0,.01c0,0,0,0,0,0,.01.04.02.08.04.12.02.04.05.07.1.1.04.03.09.06.14.09.07.03.14.05.22.07.09.02.18.02.26.02.06,0,.13-.01.19-.02h0s0,0,0,0c.05,0,.09.02.13.02.04,0,.08,0,.13,0,.03,0,.15,0,.31,0,.34,0,.85-.01.92-.03.09-.02.18-.06.25-.11.04-.02.07-.05.09-.08.03-.03.05-.06.06-.09.01-.03.02-.06.03-.1,0,0,0,0,0-.01,0,0,0,0,0-.01v-2.15s0,0,0,0c.02-.03.03-.06.04-.09ZM165.4,73.13s0-.05.02-.08c.01-.02.03-.05.05-.06.02-.01.04-.03.06-.03.02,0,.04,0,.06-.01h.87s.06,0,.08.02c.02.01.05.03.06.05.01.02.03.04.03.06,0,.02,0,.04.01.06v.48s-1.25,0-1.25,0v-.48ZM164.72,75.86s0-.08.01-.12c0-.05.02-.11.04-.17.03-.07.06-.15.1-.22.04-.07.08-.13.13-.2.05-.08.12-.15.18-.23.08-.09.16-.17.24-.24.01-.02.02-.03.03-.04,0-.01,0-.02,0-.04v-.76s1.14,0,1.14,0v.76s0,.03.01.05c0,.01.01.02.02.03h0c.1.1.2.2.29.31.08.09.14.18.2.28.05.08.09.16.12.24.03.08.06.15.07.22,0,.05.01.1.02.15h0s0,0,0,0c0,.05-.01.1-.03.15-.02.04-.05.08-.09.12-.03.03-.07.05-.1.06-.04.01-.08.02-.12.02h-1.92c-.05,0-.1-.01-.15-.03-.04-.02-.08-.05-.12-.09-.03-.03-.05-.07-.06-.1-.01-.04-.02-.08-.02-.12ZM164.72,76.76h0s0,0,0,0c0-.05.01-.1.03-.15.02-.04.05-.08.09-.12.03-.03.07-.05.1-.06.04-.01.08-.02.12-.02h1.92c.05,0,.1.01.15.03.04.02.08.05.12.09.03.03.05.07.06.1.01.04.02.08.02.12h0s0,0,0,0c0,.05-.01.1-.03.15-.02.04-.05.08-.09.12-.03.03-.07.05-.1.06-.04.01-.08.02-.12.02h-1.92c-.05,0-.1-.01-.15-.03-.04-.02-.08-.05-.12-.09-.03-.03-.05-.07-.06-.1-.01-.04-.02-.08-.02-.12ZM165.8,80.14c-.06.04-.11.08-.16.1-.05.02-.09.04-.14.05-.05.01-.1.02-.15.02-.08,0-.15,0-.23-.02-.06-.01-.12-.03-.17-.05-.05-.02-.08-.04-.11-.07,0,0-.01-.01-.02-.02,0,0,0-.01-.01-.02,0,0,0-.01,0-.02,0,0,0-.01,0-.02v-1.94s.03.01.03.01c.02,0,.03.01.05.02.06.02.13.03.2.03h1.93s.02,0,.03,0c.08-.01.14-.02.2-.05h.03s0,1.62,0,1.62h-.03c-.09-.05-.18-.08-.27-.1h0c-.08-.02-.17-.02-.25-.02-.08,0-.17.02-.25.04-.07.02-.14.05-.21.1-.1.06-.2.14-.29.21-.05.04-.1.08-.16.13ZM167.26,80.1s0,.01,0,.02c0,0,0,.01,0,.02,0,0,0,.01-.01.02,0,0-.01.01-.02.02-.03.03-.06.05-.11.07-.05.02-.11.04-.17.05-.05,0-.42.01-.84.02h-.16s.05-.03.05-.03c.04-.03.08-.06.12-.09.06-.05.11-.09.16-.13.06-.04.11-.08.16-.1.05-.03.09-.04.14-.05.05-.01.1-.02.15-.02.08,0,.15,0,.23.02.06.01.12.03.17.05.05.02.08.04.11.07,0,0,.01.01.02.02,0,0,0,.01.01.02,0,0,0,.01,0,.02,0,0,0,.01,0,.02h0s0,0,0,0ZM167.32,77.75s-.01.04-.02.06c-.02.04-.05.08-.09.12-.03.03-.07.05-.1.06h0s-.08.02-.12.02h-1.92c-.05,0-.1-.01-.15-.03-.04-.02-.08-.05-.12-.09-.03-.03-.05-.07-.06-.1,0,0,0-.02,0-.03-.01-.05-.01-.12,0-.17,0-.02.01-.04.02-.06.02-.04.05-.08.09-.12.03-.03.07-.05.1-.06.04-.01.08-.02.12-.02h1.92c.05,0,.1.01.15.03.04.02.08.05.12.09.03.03.05.07.06.1,0,0,0,.02,0,.03.01.05.01.12,0,.17Z" class="cls-6"/><path d="M171.76,78.87c-.08.04-.17.08-.25.11-.1.04-.21.06-.32.09-.12.02-.24.04-.37.06-.06,0-.12.01-.19.02-.06,0-.13,0-.19.01-.07,0-.13,0-.2,0-.06,0-.11,0-.17,0-.02,0-.04,0-.06,0-.17,0-.33-.03-.5-.05-.02,0-.03,0-.05,0-.01,0-.03.01-.04.02,0,0-.02.02-.02.03,0,.01,0,.02-.01.04,0,.02,0,.03,0,.05,0,.01.01.03.02.04,0,0,.02.02.03.02.01,0,.02,0,.04.01.12.02.24.03.36.04.02,0,.04,0,.06,0,.02,0,.04,0,.06,0,.02,0,.04,0,.06,0,.03,0,.06,0,.09,0,.07,0,.14,0,.21,0,.15,0,.3,0,.45-.03.14-.01.28-.03.41-.06.12-.02.24-.05.36-.1.1-.04.2-.08.29-.13.01,0,.03-.02.03-.03,0-.01.01-.03.02-.04,0-.01,0-.02,0-.04,0-.01,0-.02-.01-.03,0-.01-.02-.03-.03-.03-.01,0-.03-.01-.04-.02-.01,0-.02,0-.04,0-.01,0-.02,0-.03.01Z" class="cls-6"/><path d="M174.01,75.38s-.02-.07-.03-.1c-.02-.03-.04-.06-.06-.09-.01-.02-.03-.04-.04-.05-.01-.01-.02-.03-.03-.05,0-.02-.01-.03-.02-.05,0-.02,0-.04,0-.06,0-.03,0-.06,0-.08,0-.06,0-.11,0-.16-.01-.05-.04-.1-.07-.13-.03-.03-.06-.06-.1-.08-.04-.03-.09-.05-.14-.06,0,0,0,0,0,0,0,0,0,0,0,0-.01-.04-.03-.08-.05-.11,0-.02-.02-.03-.04-.04-.02-.01-.03-.02-.05-.03-.02,0-.03-.01-.05-.01-.02,0-.04,0-.06,0-.03,0-.06.02-.1.03-.02,0-.03.01-.05.01-.02,0-.04,0-.06,0-.03,0-.07,0-.1,0-.04,0-.09,0-.13,0-.05,0-.09,0-.14.02-.02,0-.04.02-.06.03-.02.01-.04.03-.05.05-.02.02-.03.04-.04.07-.01.03-.02.06-.03.09,0,0,0,.02,0,.03,0,0,0,.01,0,.02,0,0,0,0,0,.01,0,0,0,0-.01,0,0,0-.02,0-.03,0-.01,0-.03,0-.04,0-.03,0-.05,0-.08.02-.03,0-.06.03-.09.05-.02.01-.03.03-.04.05-.01.02-.02.05-.03.07,0,.03,0,.06,0,.09,0,.01,0,.03,0,.04,0,.01,0,.02,0,.03,0,0-.01.02-.02.02-.02.02-.05.03-.07.05-.03.02-.06.03-.08.05-.03.02-.06.05-.08.08-.02.03-.04.06-.05.1-.01.04-.01.09-.02.13,0,.03,0,.05,0,.08,0,.02-.01.04-.02.06-.02.03-.04.05-.06.08-.03.03-.05.05-.07.08-.03.03-.05.07-.06.11-.01.04-.02.08-.02.13,0,.06,0,.11,0,.17,0,.05,0,.1,0,.15,0,.04-.01.08-.03.12-.02.05-.05.1-.07.15-.01.03-.03.05-.04.08-.01.03-.02.06-.03.09,0,.02,0,.03,0,.05,0,.02,0,.03.01.05,0,.02.02.03.03.05.02.02.03.03.05.05.01.01.02.02.03.03s.01.03.02.04c0,.03,0,.07,0,.1,0,.03-.01.06-.02.09,0,0-.08.17-.11.24-.03,0-.07-.02-.1-.03-.17-.04-.35-.07-.53-.08-.18-.02-.37-.02-.55-.03-.17,0-.34,0-.51.02-.16.01-.32.04-.49.07-.15.03-.29.07-.43.12-.09.03-.18.07-.27.12-.07.04-.14.08-.21.14-.05.05-.11.1-.14.16-.03.06-.04.12-.05.19v1.43c.01.07.02.13.05.19.03.06.08.12.14.16.06.06.14.1.21.14.09.05.18.08.27.12.14.05.29.09.43.12.16.03.32.06.49.07.17.01.34.02.51.02.17,0,.34,0,.51-.02.16-.01.32-.04.49-.07.15-.03.29-.07.43-.12.09-.03.18-.07.27-.12.07-.04.14-.08.21-.14.05-.05.11-.1.14-.16.03-.06.04-.12.05-.19v-1.43s0-.01,0-.02c0,0,0-.01,0-.02,0,0,0,0,0,0,0,0,0,0,0,0,.08,0,.15,0,.23-.02.06,0,.12-.02.18-.04.05-.02.09-.04.14-.06.04-.02.07-.04.11-.07.02-.01.04-.03.05-.04.02-.02.03-.04.05-.06.02-.03.04-.06.06-.09.03-.04.05-.07.08-.11.03-.04.06-.09.1-.13.03-.03.05-.06.08-.09,0,0,.02-.02.03-.02,0,0,.01,0,.02-.01.03-.02.06-.04.07-.06.02-.03.03-.06.03-.1.01-.06.01-.13.01-.19,0-.07,0-.15.01-.22,0-.03.01-.05.02-.07,0-.02.02-.04.04-.06.03-.04.07-.07.1-.11.02-.03.04-.07.06-.1.01-.03.02-.07.03-.1,0-.04,0-.09,0-.13,0-.05,0-.1-.01-.16v-.02c0-.05,0-.11.02-.16.01-.04.03-.08.05-.12.02-.04.03-.07.04-.11.01-.04.02-.08.03-.12,0-.03,0-.06,0-.09ZM168.41,78.01s.03-.05.05-.07c.02-.03.05-.05.08-.07.05-.04.11-.07.16-.1.07-.04.15-.07.22-.09.12-.04.25-.08.38-.1.15-.03.3-.05.46-.07.17-.02.35-.02.52-.03.15,0,.3,0,.44.02.13.01.27.03.4.05.12.02.23.04.34.08.11.03.22.07.33.11.08.04.16.08.23.13.02.02.05.04.07.06.02.02.03.04.05.06.01.02.02.04.02.06,0,.02,0,.04,0,.06,0,.03-.02.06-.03.08-.02.03-.04.06-.07.08-.03.03-.07.06-.11.08-.06.04-.12.07-.18.09,0,0,0,0,0,0-.13-.03-.26-.06-.39-.09-.07-.01-.14-.02-.21-.03-.03,0-.06,0-.09-.01-.02,0-.04,0-.06,0-.02,0-.04,0-.06,0-.02,0-.04,0-.06,0-.12-.01-.24-.02-.37-.02,0,0,0,0,0,0-.03,0-.05,0-.08,0-.02,0-.03,0-.05,0-.02,0-.03,0-.05,0-.02,0-.03,0-.05,0-.06,0-.12,0-.19,0-.15,0-.29.02-.44.03-.14.02-.27.04-.41.07-.12.03-.24.06-.36.1,0,0,0,0-.01,0,0,0,0,0,0,0-.07-.03-.13-.06-.2-.09-.05-.03-.1-.06-.15-.1-.02-.01-.03-.03-.04-.04-.01-.01-.02-.03-.03-.04,0-.01-.02-.03-.02-.04,0-.01-.01-.03-.02-.04,0-.01,0-.03,0-.04,0-.02,0-.05.02-.07ZM170.67,78.49s0,0,0,0c.11,0,.22.01.33.03.02,0,.04,0,.06,0,.06,0,.11.02.17.02.04,0,.08.01.12.02-.03,0-.06.02-.1.02-.1.02-.21.04-.32.05-.12.02-.23.03-.35.03-.11,0-.22,0-.34,0-.05,0-.09,0-.14,0-.04,0-.09,0-.13,0-.13,0-.26-.02-.39-.04-.12-.02-.23-.04-.35-.06.05-.01.1-.02.15-.03.05,0,.1-.02.16-.03.05,0,.11-.01.16-.02.06,0,.11-.01.17-.02.06,0,.11,0,.17,0,.06,0,.12,0,.18,0,.03,0,.06,0,.09,0,.11,0,.23,0,.34.01ZM172.15,79.51s0,.05-.02.07c-.01.03-.03.05-.05.07-.02.03-.05.05-.08.07-.05.04-.11.07-.16.1-.07.04-.15.07-.22.09-.12.04-.25.08-.38.1-.15.03-.3.05-.46.07-.17.02-.35.02-.52.03-.17,0-.35,0-.52-.03-.15-.01-.3-.04-.46-.07-.13-.03-.25-.06-.38-.1-.08-.03-.15-.06-.22-.09-.06-.03-.11-.06-.16-.1-.03-.02-.05-.04-.08-.07-.02-.02-.04-.05-.05-.07,0-.02-.01-.05-.02-.07v-1.05c.08.05.16.11.24.15.1.05.2.09.31.12.12.04.24.07.36.09.16.03.31.05.47.07.16.01.33.02.49.02.14,0,.28,0,.42-.02.14,0,.27-.03.41-.05.13-.02.25-.05.38-.08.09-.02.18-.05.27-.08.08-.03.16-.06.23-.1.06-.04.12-.08.18-.12v1.05ZM173.8,75.5s-.03.08-.05.12c-.03.06-.06.13-.07.19-.01.06-.01.12-.02.18v.02c0,.06.01.11.01.17,0,.04,0,.08-.02.11,0,.03-.02.05-.04.07-.02.03-.05.06-.08.09-.03.04-.06.08-.08.13-.02.04-.03.09-.04.14-.01.08-.01.15-.01.23,0,.03,0,.07,0,.1,0,.02,0,.04,0,.06-.03.02-.06.05-.09.07-.04.03-.07.07-.1.11-.06.08-.12.16-.18.24-.02.03-.04.06-.06.08,0,.01-.02.03-.03.04-.02.02-.04.03-.06.04-.04.03-.09.05-.15.07-.06.02-.12.04-.19.04-.08.01-.17.01-.25,0,0,0,0,0-.01,0,0,0,0,0,0,0-.05-.05-.1-.1-.15-.15-.06-.05-.14-.09-.21-.13-.08-.04-.17-.07-.26-.1.05-.1.13-.29.14-.32.01-.06.02-.12,0-.17,0-.05-.02-.09-.04-.13-.02-.04-.06-.08-.1-.11,0,0,0,0,0,0,0,0,0,0,0,0,0-.01.01-.03.02-.04,0-.01.01-.03.02-.04.02-.04.04-.07.06-.11.02-.05.04-.09.05-.14.01-.05.02-.09.02-.14,0-.05,0-.11,0-.16,0-.03,0-.06,0-.09,0-.02,0-.05,0-.07,0-.02,0-.04.02-.05.02-.04.05-.07.07-.1.02-.02.04-.04.06-.07.02-.03.04-.06.05-.09.01-.03.02-.06.03-.09,0-.04,0-.08.01-.11,0-.02,0-.04,0-.05,0-.01,0-.03.01-.04,0-.01.01-.02.02-.03.02-.02.05-.04.08-.05.03-.01.05-.03.08-.05.03-.02.05-.05.07-.07.02-.03.03-.06.04-.09.01-.04.01-.08.02-.12,0-.01,0-.03,0-.04,0,0,0-.01,0-.02,0,0,0,0,0,0h0s0,0,0,0c0,0,0,0,0,0,0,0,0,0,.01,0,0,0,.02,0,.03,0,.03,0,.05,0,.08-.02.03,0,.06-.02.09-.04.02-.01.03-.03.04-.04.01-.02.03-.04.04-.06.01-.03.02-.06.03-.08,0,0,0-.02,0-.03,0,0,0-.01.01-.02,0,0,0-.01.02-.02,0,0,.01,0,.02-.01.02,0,.05-.01.07-.01.04,0,.08,0,.11,0,.06,0,.12,0,.17,0,.05,0,.09-.02.13-.04,0,0,.01,0,.02,0,0,0,0,0,0,0,0,.01,0,.02.01.03,0,0,0,.02,0,.02,0,.03.02.06.03.08,0,.01.01.02.02.03,0,0,.02.02.03.02,0,0,.01,0,.02,0,0,0,.01,0,.02,0,.03.01.06.02.09.04.02.01.05.03.06.05,0,.01.01.02.02.04,0,.01,0,.03,0,.04,0,.02,0,.04,0,.05,0,.05-.01.1,0,.16,0,.04,0,.07.02.11.02.05.05.09.07.12.01.02.03.04.04.06.01.02.02.04.04.06,0,.02.01.03.01.05,0,.02,0,.04,0,.06Z" class="cls-6"/><path d="M173.23,75.67s0-.01,0-.02c0-.05,0-.1,0-.15,0-.05,0-.1-.02-.15,0-.05-.02-.09-.04-.14-.02-.04-.04-.08-.07-.1-.03-.03-.06-.04-.1-.06,0,0,0,0,0,0,0,0,0,0,0,0-.04,0-.08,0-.12,0-.04,0-.08.03-.11.05-.04.03-.07.06-.1.09-.03.04-.07.08-.09.12-.03.04-.05.08-.08.12,0,0,0,0,0,.01,0,.01-.02.03-.02.04-.01.02-.02.04-.03.06,0,0,0,0,0,0,0,0,0,0,0,0-.02.04-.03.07-.05.11,0,0,0,0,0,.01-.01.02-.02.05-.03.07,0,.02-.01.03-.02.05,0,0,0,0,0,0,0,0,0,.02,0,.02-.03.09-.06.19-.09.28-.04.16-.08.32-.11.49-.01.11-.02.23-.02.34,0,.06,0,.12.01.17,0,.04.02.09.03.13.01.03.03.06.05.09.01.02.03.03.04.05.01.01.03.02.04.03,0,0,0,0,.01,0,0,0,0,0,0,0,0,0,0,0,0,0,0,0,.02,0,.03.01,0,0,0,0,0,0,0,0,0,0,0,0,0,0,.02,0,.03,0,0,0,0,0,0,0,0,0,0,0,0,0,0,0,0,0,.01,0,.02,0,.04,0,.05,0,.02,0,.04-.01.06-.02.03-.01.06-.03.09-.05.04-.03.07-.06.1-.09.04-.04.07-.09.1-.14.06-.1.11-.2.16-.3.07-.15.12-.31.17-.47.03-.1.05-.19.07-.29,0,0,0-.02,0-.02,0,0,0,0,0,0,0-.02,0-.03,0-.05,0-.03,0-.05.01-.08,0,0,0,0,0-.01,0-.04.01-.08.01-.12,0,0,0,0,0,0,0,0,0,0,0,0,0-.02,0-.05,0-.07,0-.02,0-.03,0-.05ZM172.98,76.01s0,0,0,0c0,0,0,0,0,0-.02.1-.05.2-.07.3-.04.12-.07.24-.12.35,0,.01-.01.02-.01.04,0,0,0,0,0,.01-.04.08-.08.17-.13.25-.03.06-.07.11-.11.16-.03.03-.05.06-.09.09-.01,0-.02.01-.03.02,0,0,0,0-.01,0,0,0,0,0,0,0,0,0,0,0,0,0,0,0,0,0,0,0,0-.01-.01-.02-.02-.03-.02-.04-.02-.08-.03-.12,0-.07-.01-.13,0-.2,0-.09.01-.19.03-.28,0,0,0-.01,0-.02,0-.01,0-.03,0-.04.02-.12.05-.24.08-.36.03-.1.06-.2.1-.29,0,0,0,0,0,0,0,0,0,0,0,0,.02-.05.04-.1.07-.16.01-.03.02-.05.04-.08.03-.06.06-.12.1-.18.02-.03.05-.07.07-.1.01-.02.03-.03.05-.05.01-.01.02-.02.04-.04,0,0,0,0,0,0,0,0,.01,0,.02-.01,0,0,0,0,0,0,0,0,0,0,.01,0,0,0,0,0,.01,0,0,0,0,0,0,0,0,0,0,0,0,0,0,0,0,0,0,0,0,0,0,0,0,.01,0,0,0,0,0,0,0,0,0,.01,0,.02,0,0,0,0,0,0,0,0,0,.01,0,.02,0,0,0,0,0,0,0,.03.01.06.02.09,0,.04,0,.08,0,.12,0,.07,0,.14,0,.21,0,.03,0,.06-.01.09,0,.06-.02.11-.03.17Z" class="cls-6"/><path d="M160.22,84.53l.43-1.52.29.08-.04.14c.06-.04.12-.07.19-.08.07-.01.13,0,.2.01.09.03.17.07.23.14.06.07.1.15.12.25.02.1,0,.21-.03.33-.03.12-.08.22-.15.29-.07.08-.14.13-.23.15-.09.02-.18.02-.27,0-.07-.02-.12-.05-.17-.1-.05-.04-.09-.1-.12-.17l-.16.56-.29-.08ZM161.3,83.51c-.03-.08-.09-.13-.17-.16-.05-.01-.1-.01-.15,0-.05.01-.1.04-.13.07l-.12.43s.04.09.08.13c.04.04.08.07.13.08.08.02.16,0,.23-.04.07-.05.12-.13.15-.24.03-.1.03-.2,0-.28Z" class="cls-6"/><path d="M162.08,82.95l.29.07-.37,1.53-.29-.07.37-1.53Z" class="cls-6"/><path d="M163.01,84.66s-.11.06-.17.07c-.07.01-.14.01-.21,0-.06-.01-.12-.04-.17-.08-.05-.04-.09-.09-.12-.16-.03-.06-.03-.14-.02-.22.02-.08.05-.15.1-.19.05-.05.11-.07.17-.09.06-.01.13-.01.19,0,.08.02.14.04.2.08.06.04.1.08.13.13l.03-.16c.01-.06,0-.12-.03-.17-.04-.05-.09-.08-.17-.09-.12-.03-.24,0-.35.06l-.07-.21c.08-.04.16-.06.25-.07.09,0,.18,0,.27.02.14.03.25.09.33.17.08.09.1.2.07.35l-.15.72-.29-.06.02-.12ZM163.07,84.38s-.05-.06-.08-.09c-.04-.02-.08-.04-.13-.05-.06-.01-.11,0-.16.01-.05.02-.07.05-.08.1,0,.05,0,.09.04.12.03.04.08.06.14.07.05.01.1.01.14,0,.05,0,.08-.02.11-.04l.03-.13Z" class="cls-6"/><path d="M163.7,84.56s.09.09.16.14c.07.04.14.07.2.08.06.01.11,0,.15-.01.04-.02.06-.05.06-.09,0-.04,0-.08-.04-.11-.03-.03-.09-.06-.16-.09-.09-.03-.16-.06-.21-.09s-.1-.07-.14-.12c-.04-.05-.05-.12-.04-.2,0-.06.04-.12.08-.16s.1-.08.18-.1c.07-.02.16-.02.25,0,.17.03.32.1.43.22l-.15.18s-.07-.08-.13-.12c-.06-.03-.12-.06-.18-.07-.05,0-.1,0-.13,0-.03.01-.06.04-.06.07s0,.06.04.09c.03.02.08.05.15.08.09.03.16.06.22.1.06.03.1.08.14.13.04.06.05.13.03.21-.02.11-.07.19-.17.24-.1.05-.22.07-.37.04-.1-.02-.19-.05-.27-.09-.08-.04-.15-.1-.2-.16l.16-.18Z" class="cls-6"/><path d="M164.91,85.04c-.05-.06-.07-.15-.05-.25l.08-.61-.19-.02.03-.23.19.02.04-.31.3.04-.04.31.23.03-.03.23-.23-.03-.07.57s0,.07.02.1c.02.03.04.04.07.05.02,0,.04,0,.06,0,.02,0,.03-.01.05-.02l.04.21c-.06.03-.14.05-.26.03-.1-.01-.18-.05-.23-.11Z" class="cls-6"/><path d="M165.69,84.03l.3.03-.11,1.14-.3-.03.11-1.14ZM165.73,83.81s-.05-.08-.04-.13c0-.05.03-.09.07-.12.04-.03.08-.05.13-.04.05,0,.09.03.12.06.03.04.04.08.04.13,0,.05-.03.09-.06.12s-.08.05-.13.04c-.05,0-.09-.03-.12-.07Z" class="cls-6"/><path d="M166.27,84.35c.06-.09.13-.15.23-.2.09-.05.2-.06.32-.06.11,0,.2.03.27.07.07.04.13.08.17.14l-.21.16c-.05-.09-.13-.13-.23-.14-.09,0-.17.02-.23.09s-.1.15-.1.26c0,.11.02.2.07.27.05.07.12.11.22.12.05,0,.1,0,.14-.02.04-.02.08-.05.11-.08l.18.19s-.11.09-.18.12c-.08.03-.17.04-.28.03-.12,0-.22-.04-.31-.1-.09-.06-.15-.13-.2-.23-.05-.09-.07-.2-.06-.32,0-.12.04-.22.1-.3Z" class="cls-6"/><path d="M167.64,85.26c-.09-.06-.16-.13-.21-.22s-.07-.19-.07-.3c0-.11.03-.21.08-.3.05-.09.12-.16.21-.21.09-.05.2-.08.32-.08.12,0,.23.03.32.09.09.06.16.13.21.22.05.09.07.19.07.3,0,.11-.03.21-.08.3s-.12.16-.21.21c-.09.05-.2.08-.32.08-.12,0-.23-.03-.32-.09ZM168.17,85.01c.05-.07.08-.16.08-.26,0-.1-.02-.19-.07-.26-.05-.07-.12-.11-.21-.11-.09,0-.16.03-.21.1-.05.07-.08.16-.08.26,0,.11.02.19.07.27.05.07.12.11.21.11.09,0,.16-.03.22-.1Z" class="cls-6"/><path d="M169.41,84.66c.05-.05.11-.08.17-.08.07,0,.13.02.18.07s.08.11.08.18c0,.07-.02.13-.07.18s-.11.08-.17.08c-.07,0-.13-.02-.18-.07-.05-.05-.08-.11-.08-.17,0-.07.02-.13.07-.18Z" class="cls-6"/><path d="M172.09,84.32c0-.06-.03-.1-.06-.13-.03-.03-.08-.04-.13-.04-.05,0-.09.02-.13.06-.04.03-.07.07-.09.11l.09.8-.3.03-.09-.75c0-.06-.03-.1-.06-.13s-.08-.04-.13-.04c-.05,0-.09.02-.13.06-.04.03-.07.07-.09.11l.09.8-.3.03-.13-1.13.3-.03.02.15s.07-.09.13-.14c.07-.05.14-.07.22-.08.08,0,.15,0,.21.03.06.03.1.08.13.14.03-.06.08-.12.14-.16.07-.05.14-.08.22-.09.11-.01.19,0,.26.06.06.05.1.13.12.25l.09.82-.3.03-.09-.75Z" class="cls-6"/><path d="M172.67,84.11c.03-.1.09-.18.17-.25.08-.07.17-.11.29-.13.11-.02.21-.01.31.03.09.04.17.1.24.18.06.09.11.19.13.31v.07s-.82.15-.82.15c.02.08.07.14.14.18.07.04.15.06.24.04.05,0,.11-.03.16-.06.05-.03.09-.07.12-.11l.16.16c-.05.06-.11.1-.19.14-.08.04-.16.07-.25.08-.11.02-.22.01-.32-.02-.1-.03-.18-.09-.25-.17s-.11-.18-.13-.3c-.02-.11-.01-.21.02-.31ZM172.99,84.05c-.04.06-.05.12-.05.19l.55-.1c-.02-.06-.05-.12-.11-.16-.06-.04-.13-.06-.21-.04-.08.02-.14.05-.18.11Z" class="cls-6"/><path d="M174.27,84.64c-.07-.04-.11-.11-.13-.22l-.13-.6-.18.04-.05-.22.18-.04-.07-.3.29-.07.07.3.23-.05.05.22-.23.05.12.56s.03.07.05.09c.02.02.05.03.08.02.02,0,.04-.01.06-.02.02-.01.03-.02.04-.03l.11.18c-.04.05-.12.09-.23.12-.1.02-.19.01-.25-.03Z" class="cls-6"/><path d="M175.59,84.25c-.03.05-.07.1-.12.14-.05.04-.12.07-.19.09-.06.02-.13.02-.19,0s-.12-.04-.18-.09-.09-.11-.11-.19c-.02-.08-.02-.15,0-.22.02-.06.06-.11.11-.15.05-.04.11-.07.17-.08.07-.02.15-.03.21-.02s.12.03.17.06l-.04-.16c-.02-.06-.05-.11-.11-.14-.05-.03-.12-.03-.19-.01-.12.03-.22.1-.29.22l-.16-.16c.05-.07.12-.13.19-.17.08-.05.16-.08.25-.11.14-.04.27-.03.37,0,.11.04.18.14.22.28l.19.71-.29.08-.03-.11ZM175.52,83.97s-.07-.03-.11-.04-.09,0-.14.01c-.06.02-.11.04-.14.08-.03.04-.04.08-.03.13.01.05.04.08.09.09.05.02.1.02.16,0,.05-.01.09-.03.13-.06.04-.03.06-.06.08-.09l-.03-.12Z" class="cls-6"/><path d="M175.78,82.68l.29-.09.45,1.51-.29.09-.45-1.51Z" class="cls-6"/><path d="M161.25,87.87l.35-1.54.17.04-.04.17c.05-.05.12-.08.19-.1.07-.02.15-.02.23,0,.1.02.18.07.24.13.06.06.11.15.13.24.02.1.02.21,0,.32-.03.12-.07.22-.13.3-.06.08-.14.13-.22.16s-.18.03-.27.01c-.08-.02-.14-.05-.2-.1-.06-.05-.1-.11-.13-.18l-.14.59-.17-.04ZM162.31,86.75c-.05-.1-.12-.16-.23-.18-.07-.02-.13-.01-.2,0s-.13.05-.17.1l-.12.51c.02.06.06.11.11.16.05.05.11.08.18.1.11.03.2,0,.29-.06.08-.07.14-.17.17-.3.03-.13.02-.24-.02-.34Z" class="cls-6"/><path d="M163,86.2l.17.03-.3,1.55-.17-.03.3-1.55Z" class="cls-6"/><path d="M163.97,87.84c-.11.09-.24.12-.4.1-.07-.01-.13-.04-.18-.07-.05-.04-.1-.09-.13-.15-.03-.06-.04-.13-.02-.21.01-.08.04-.14.09-.19s.1-.08.17-.1.13-.02.2-.01c.16.03.28.1.35.22l.03-.21c.01-.08,0-.14-.05-.2-.05-.05-.11-.09-.19-.1-.07-.01-.13,0-.19,0-.06.02-.12.05-.18.09l-.06-.13c.07-.05.14-.08.22-.1.08-.02.16-.02.25,0,.13.02.23.07.3.15.07.08.09.18.07.31l-.13.77-.17-.03.02-.13ZM164.02,87.53s-.06-.09-.11-.12c-.05-.03-.11-.05-.17-.06-.08-.01-.15,0-.21.03-.06.04-.09.09-.11.16-.01.07,0,.13.05.18.04.05.11.09.19.1.06.01.12,0,.18,0,.06-.01.11-.04.15-.08l.03-.2Z" class="cls-6"/><path d="M164.54,87.78c.03.05.08.1.15.14.06.04.13.06.21.07.08.01.15,0,.2-.03.05-.03.08-.08.09-.13s-.01-.11-.06-.14c-.04-.04-.11-.07-.21-.11-.08-.03-.15-.06-.2-.09s-.09-.06-.13-.11c-.03-.05-.05-.11-.04-.18,0-.06.03-.11.07-.15s.09-.08.16-.1c.07-.02.14-.03.23-.01.17.02.3.09.4.21l-.1.11s-.07-.09-.13-.12-.12-.06-.19-.06c-.08,0-.14,0-.19.02-.05.03-.08.07-.08.12,0,.05.01.09.05.12.04.03.11.06.2.1.08.03.15.06.21.09.05.03.1.07.13.12.03.05.05.12.04.19-.01.1-.06.18-.15.23s-.2.07-.34.05c-.19-.02-.34-.1-.43-.23l.11-.12Z" class="cls-6"/><path d="M165.73,88.16c-.04-.05-.05-.12-.04-.21l.07-.75-.19-.02v-.15s.2.02.2.02l.03-.31.18.02-.03.31.23.02v.15s-.24-.02-.24-.02l-.07.72s0,.08.02.11c.02.03.04.05.08.05.02,0,.05,0,.07,0,.02,0,.04-.02.05-.03l.04.13c-.06.04-.13.06-.22.05-.08,0-.14-.04-.18-.09Z" class="cls-6"/><path d="M166.43,87.11h.18s-.09,1.15-.09,1.15h-.18s.09-1.15.09-1.15ZM166.45,86.89s-.03-.05-.03-.09.02-.06.04-.08.05-.03.08-.03c.03,0,.06.02.08.04.02.02.03.05.03.09,0,.03-.02.06-.04.08-.03.02-.05.03-.09.03-.03,0-.06-.02-.08-.04Z" class="cls-6"/><path d="M166.94,87.42c.05-.09.12-.16.21-.21.09-.05.19-.07.3-.06.1,0,.18.02.24.06.06.04.12.09.17.15l-.12.1c-.07-.1-.16-.16-.28-.16-.12,0-.22.03-.29.11-.08.08-.12.19-.12.32,0,.13.02.24.09.33.07.09.16.13.28.14.12,0,.22-.04.3-.13l.11.11c-.05.06-.11.1-.18.13-.07.03-.15.04-.25.04-.11,0-.21-.04-.29-.09-.08-.06-.15-.13-.19-.22-.04-.09-.06-.2-.06-.31,0-.11.03-.21.09-.3Z" class="cls-6"/><path d="M168.7,87.76s.1-.07.15-.07c.06,0,.11.02.16.06s.07.1.07.16c0,.06-.02.11-.06.16-.04.04-.1.07-.15.07-.06,0-.11-.02-.16-.06-.04-.04-.07-.1-.07-.16,0-.06.02-.11.06-.16Z" class="cls-6"/><path d="M171.34,87.47c0-.07-.03-.13-.06-.17-.04-.04-.09-.06-.16-.05-.06,0-.11.02-.17.06s-.1.08-.12.13l.05.84h-.18s-.05-.77-.05-.77c-.01-.16-.08-.23-.22-.22-.05,0-.11.02-.16.06s-.1.08-.12.13l.05.84h-.18s-.07-1.13-.07-1.13h.18s.01.15.01.15c.03-.05.07-.09.14-.14.07-.05.14-.07.21-.08.08,0,.15,0,.21.05.05.04.09.08.11.15.03-.06.08-.11.15-.16.07-.05.14-.07.22-.08.1,0,.18.02.24.07.06.05.09.14.1.25l.05.82h-.18s-.05-.77-.05-.77Z" class="cls-6"/><path d="M171.87,87.32c.04-.1.1-.18.17-.24s.17-.1.28-.11c.11-.01.21,0,.3.05.09.04.16.11.21.2.05.09.09.19.1.3v.04s-.91.11-.91.11c.02.11.07.2.16.27.08.07.18.1.3.08.07,0,.13-.03.19-.06s.11-.07.15-.12l.1.11c-.1.12-.25.2-.43.22-.11.01-.21,0-.31-.04s-.17-.1-.23-.19c-.06-.09-.1-.19-.11-.3-.01-.11,0-.21.04-.31ZM172.15,87.19c-.05.04-.09.1-.11.16-.02.06-.03.12-.03.18l.74-.09c0-.06-.03-.12-.06-.17-.03-.05-.08-.1-.14-.13s-.13-.04-.21-.03c-.08,0-.14.04-.19.08Z" class="cls-6"/><path d="M173.41,87.97s-.08-.1-.09-.19l-.11-.75-.19.03-.02-.15.19-.03-.05-.31.17-.03.05.31.23-.03.02.15-.23.03.11.72s.02.08.05.1c.02.02.05.03.09.03.02,0,.05-.01.07-.02.02-.01.04-.03.05-.04l.07.12c-.04.05-.11.09-.2.1-.08.01-.15,0-.2-.04Z" class="cls-6"/><path d="M174.71,87.65c-.07.12-.19.2-.34.23-.07.01-.13,0-.2,0s-.12-.05-.17-.1c-.05-.05-.08-.11-.09-.19-.01-.08,0-.15.02-.21.03-.06.07-.11.12-.15.05-.04.11-.06.18-.08.16-.03.29,0,.4.08l-.04-.2c-.01-.08-.05-.13-.11-.17-.06-.03-.13-.04-.22-.03-.07.01-.13.04-.18.07-.05.04-.1.08-.14.15l-.1-.11c.05-.07.11-.13.18-.17.07-.04.15-.07.24-.09.13-.02.24-.01.33.03.09.05.15.13.17.26l.14.77-.17.03-.02-.13ZM174.65,87.33s-.09-.06-.15-.07-.12-.01-.18,0c-.08.01-.14.05-.19.1-.04.05-.06.11-.05.18.01.07.05.12.11.15.06.03.13.04.21.03.06-.01.12-.03.17-.07.05-.03.09-.07.11-.12l-.04-.2Z" class="cls-6"/><path d="M174.95,86.12l.17-.04.33,1.54-.17.04-.33-1.54Z" class="cls-6"/><path d="M384.96,56.55c-.28,0-.5.22-.5.5s.22.5.5.5.5-.22.5-.5-.22-.5-.5-.5Z" class="cls-2"/><path d="M121.5,65.43h2.22c.92,0,1.67-.75,1.67-1.68v-13.4c-.01-.92-.76-1.67-1.68-1.67h-2.53c-2.54-.12-4.71-1.67-5.73-3.86-5.02-13.79-18.19-23.37-33.34-23.37s-28.45,9.65-33.42,23.6c-1.02,2-3,3.41-5.34,3.62h-4.35c-4.5,0-8.37,3.46-8.58,7.97-.23,4.81,3.6,8.78,8.34,8.78h4.29c2.89.14,5.3,2.12,6.08,4.8,5.29,13.33,18.24,22.42,32.98,22.42s27.78-9.3,32.99-22.45c.82-2.77,3.38-4.79,6.41-4.79.15,0,.31,0,0,.02" class="cls-5"/><path d="M38.31,56.55c-.28,0-.5.22-.5.5s.22.5.5.5.5-.22.5-.5-.22-.5-.5-.5Z" class="cls-2"/><circle r=".5" cy="57.06" cx="128.67" class="cls-2"/><circle r=".5" cy="57.06" cx="121.93" class="cls-2"/><circle r=".5" cy="57.06" cx="301.91" class="cls-2"/><path d="M82.82,78.59c.2.09.39.12.58.09.19-.03.37-.09.53-.2.1-.07.19-.1.29-.1.04,0,.07,0,.11.01.06.02.13.05.2.1.23.15.45.22.69.2.34-.02.63-.17.89-.46.08-.09.08-.13,0-.21-.6-.62-.84-1.39-.69-2.3.08-.51.33-.97.74-1.37.1-.1.1-.13,0-.23-.14-.17-.31-.31-.51-.41-.41-.21-.79-.18-1.15.09-.02.01-.04.03-.06.04l-.12.09v-.11s0-.03,0-.04c0-.03,0-.05,0-.08.05-.35.21-.63.47-.82.12-.09.24-.16.37-.24h0s.05-.04.08-.05c.05-.03.08-.05.09-.09.01-.05,0-.09-.04-.12-.04-.03-.08-.04-.13,0-.21.11-.39.22-.54.35-.26.23-.42.47-.49.75-.02.07-.03.15-.04.23,0,.04-.01.08-.02.11l-.02.09-.14-.1c-.25-.19-.5-.26-.77-.22-.35.06-.65.25-.92.58-.04.05-.04.08.01.14.01.01.03.03.04.04.24.23.43.49.56.81.21.49.26,1.01.17,1.54-.09.53-.32.98-.68,1.33-.09.09-.09.12,0,.21.14.16.3.27.48.35ZM82.58,78.09c.48-.53.71-1.16.71-1.94,0-.71-.26-1.35-.77-1.9l-.04-.04.04-.04c.24-.22.45-.34.69-.37.16-.02.32.01.48.11.04.02.08.05.11.07.03.02.05.04.08.06.21.14.43.14.65.01.04-.02.07-.05.11-.07.03-.02.06-.04.08-.06.19-.13.4-.16.62-.09.18.05.35.15.52.29.02.02.05.05.05.09,0,.04-.02.07-.04.1-.43.46-.67,1.01-.72,1.64-.06.78.15,1.47.64,2.07.01.01.02.03.04.05l.06.07-.04.03c-.17.14-.4.3-.72.29-.16,0-.3-.05-.45-.14l-.04-.03c-.07-.04-.14-.09-.22-.11-.2-.07-.39-.04-.56.08-.1.07-.23.15-.37.18-.07.02-.14.02-.21.02-.19,0-.37-.06-.53-.17-.04-.03-.07-.05-.11-.08l-.1-.08.04-.05Z" class="cls-6"/><path d="M77.92,76.01c-.02.48.03.87.15,1.22.13.39.35.69.65.89.28.19.62.28,1.03.3.41.01.8-.07,1.2-.27.25-.12.44-.25.58-.4.08-.09.13-.17.15-.26.01-.05,0-.1-.03-.13-.03-.03-.07-.04-.12-.03h-.03c-.32.08-.7.14-1.08.07-.32-.05-.58-.19-.77-.41-.15-.18-.25-.39-.33-.68,0-.01,0-.02,0-.02v-.03h.06c.34,0,.62-.03.88-.07.26-.05.45-.11.62-.2.19-.11.3-.23.35-.4.07-.22.02-.44-.14-.66-.02-.03-.06-.05-.09-.04-.04,0-.08.03-.09.08-.05.14-.15.23-.28.27-.11.04-.22.06-.33.07-.24.03-.47,0-.68-.04-.1-.02-.2-.04-.29-.06-.04,0-.09-.02-.13-.03h-.02s0-.03,0-.03c0-.04,0-.08,0-.11,0-.08,0-.16-.01-.23-.01-.16-.03-.34-.05-.54,0-.04,0-.07.04-.09.17-.14.35-.28.52-.42l.12-.09s.06-.07.06-.1c0-.03-.02-.07-.05-.11-.11-.11-.22-.22-.33-.33l-.06-.06c-.07-.07-.12-.07-.19-.01l-.15.12c-.16.13-.31.25-.47.38-.02.02-.05.03-.08.03-.24.02-.42.08-.56.19-.12.09-.22.23-.3.4-.05.11-.1.22-.15.32-.02.05-.05.1-.07.15-.17.38-.46.62-.86.72-.2.05-.42.07-.68.08-.06,0-.09.02-.11.07-.03.06,0,.1.03.13.22.21.45.37.7.48.23.1.46.14.68.11.25-.03.45-.15.64-.36.02-.02.03-.04.05-.06l.09-.11v.16s-.01.08-.01.12ZM79.31,75.45c.07.01.13.03.2.04.33.06.58.07.82.05.26-.03.44-.09.58-.21.01,0,.02-.02.03-.03l.06-.05v.04c.04.07.04.13.02.21-.02.09-.08.16-.17.23-.15.11-.32.16-.47.2-.37.09-.75.1-1.11.11h-.03s-.08-.62-.08-.62l.14.03ZM79.27,73.29l.27.27-.5.4-.21-.32.45-.36ZM78.54,74.19l.08-.26s0-.02.01-.03v-.03s.07-.02.07-.02v.02s.03.03.04.04c.02.03.04.07.06.11h0c.03.13.07.26.08.38.02.2.03.41.05.61,0,.1.01.2.02.3.03.38.06.78.19,1.17.1.33.25.58.45.77.22.21.48.34.81.39.25.04.51.04.81,0,.01,0,.03,0,.06,0l.05.02-.06.05s-.02.02-.04.03c-.29.21-.62.35-1,.42-.13.03-.27.04-.4.04-.19,0-.38-.03-.56-.08-.46-.13-.78-.43-.96-.89-.09-.23-.14-.49-.15-.79-.02-.4.01-.84.1-1.33.01-.06.04-.12.06-.18.01-.03.03-.07.04-.1.07-.21.13-.42.2-.63ZM77.88,75.35c-.09.18-.18.31-.28.43-.16.18-.36.27-.59.27-.06,0-.11,0-.17-.02-.25-.05-.46-.17-.61-.28l-.06-.04.07-.02c.05-.01.11-.03.16-.04.12-.03.24-.05.35-.09.38-.12.67-.39.85-.79.03-.07.06-.14.09-.21.04-.09.08-.18.12-.27.06-.12.14-.26.28-.35.05-.03.11-.05.16-.07h.03s.05-.02.07,0c.02.02.03.05.02.07-.03.09-.06.18-.08.28-.11.38-.23.77-.41,1.13Z" class="cls-6"/><path d="M70.82,80l.27.12-.23.53c.06-.03.13-.05.2-.06.07,0,.13,0,.2.04.09.04.16.1.21.17.05.08.08.16.08.26,0,.1-.02.21-.07.32-.05.11-.11.2-.19.27-.08.07-.16.1-.25.12s-.18,0-.27-.04c-.06-.03-.11-.07-.16-.12-.04-.05-.07-.11-.09-.18l-.06.13-.27-.12.63-1.45ZM70.67,81.39s.07.08.12.1c.08.03.16.03.23,0,.08-.04.14-.11.18-.21.04-.1.06-.19.03-.28-.02-.08-.07-.14-.15-.18-.04-.02-.09-.03-.15-.02-.06,0-.1.02-.14.05l-.18.41s.03.09.06.14Z" class="cls-6"/><path d="M72.19,82.14c-.05.03-.11.04-.18.05-.07,0-.14,0-.21-.04-.06-.02-.11-.06-.16-.11-.05-.05-.08-.11-.09-.17-.02-.07-.01-.14.02-.22.03-.08.07-.14.13-.17.06-.04.12-.06.18-.06.06,0,.13,0,.19.03.07.03.13.06.18.11s.09.09.1.15l.06-.15c.02-.06.02-.12,0-.17s-.08-.09-.15-.12c-.12-.04-.24-.04-.36,0l-.04-.22c.08-.03.17-.04.26-.03.09,0,.18.02.26.06.14.05.24.13.3.22s.07.22.01.36l-.26.69-.28-.11.04-.11ZM72.29,81.87s-.04-.07-.07-.1c-.03-.03-.08-.05-.12-.07-.06-.02-.11-.03-.16-.01-.05.01-.08.04-.1.08-.02.04-.01.09.02.13.03.04.07.07.13.09.05.02.09.03.14.03s.09,0,.12-.03l.05-.12Z" class="cls-6"/><path d="M72.89,82.15c.03.05.07.11.14.16.06.05.13.09.19.11.06.02.11.02.15,0,.04-.01.06-.04.08-.08.01-.04,0-.08-.02-.11-.03-.03-.08-.07-.14-.11-.08-.04-.15-.08-.2-.12s-.09-.08-.12-.14c-.03-.06-.03-.12,0-.2.02-.06.05-.11.11-.15.05-.04.12-.06.19-.07s.16,0,.25.03c.17.05.3.15.39.28l-.17.16s-.06-.09-.11-.13c-.05-.04-.11-.07-.17-.1-.05-.02-.1-.02-.13-.01-.04,0-.06.03-.07.06-.01.03,0,.06.03.09.03.03.07.06.14.1.08.04.15.09.2.13.05.04.09.09.12.15.03.06.03.13,0,.22-.03.1-.1.17-.21.21-.1.04-.23.03-.38-.02-.09-.03-.18-.07-.26-.13-.08-.06-.14-.12-.18-.19l.19-.16Z" class="cls-6"/><path d="M74.65,82.89c-.06.04-.12.06-.2.07s-.15.01-.24-.01c-.12-.03-.2-.09-.24-.16-.04-.08-.05-.17-.02-.28l.21-.78.29.08-.19.7c-.02.08-.02.14,0,.18.03.04.07.07.14.09.05.01.1.01.15,0s.1-.03.13-.06l.21-.78.29.08-.3,1.1-.29-.08.04-.14Z" class="cls-6"/><path d="M75.48,82.08l.29.07-.03.15c.05-.04.11-.07.19-.09.07-.02.14-.02.21,0l-.06.27s-.05-.02-.08-.03c-.05-.01-.1-.01-.16,0s-.11.03-.14.06l-.17.75-.29-.07.26-1.11Z" class="cls-6"/><path d="M76.79,83.4s-.1.06-.17.08c-.07.01-.14.01-.21,0-.06-.01-.12-.04-.18-.08-.05-.04-.1-.09-.12-.15-.03-.06-.03-.14-.02-.21.02-.08.05-.15.1-.19.05-.05.1-.08.17-.09.06-.01.13-.01.19,0,.08.01.14.04.2.07.06.03.1.08.13.13l.03-.16c.01-.06,0-.12-.04-.17-.04-.05-.09-.08-.17-.09-.12-.02-.24,0-.35.07l-.08-.21c.08-.04.16-.06.25-.07.09-.01.18,0,.27.01.14.03.25.08.33.17s.1.2.08.35l-.14.72-.29-.06.02-.12ZM76.84,83.11s-.05-.06-.09-.08c-.04-.02-.08-.04-.13-.05-.06-.01-.11,0-.16.01s-.07.05-.08.1c0,.05,0,.09.04.12.04.03.08.06.14.07.05,0,.1.01.14,0s.08-.02.11-.05l.02-.13Z" class="cls-6"/><path d="M78.15,82.58l.3.04-.15,1.13-.3-.04.15-1.13ZM78.2,82.36s-.04-.08-.04-.13c0-.05.03-.09.07-.12.04-.03.08-.04.13-.04.05,0,.09.03.12.07.03.04.04.08.04.13,0,.05-.03.09-.07.12-.04.03-.08.04-.13.04-.05,0-.09-.03-.12-.07Z" class="cls-6"/><path d="M79.46,83.15c0-.08,0-.14-.04-.17s-.08-.06-.15-.07c-.05,0-.11,0-.15.03-.05.02-.09.05-.12.09l-.07.8-.3-.03.1-1.14.3.03v.15s.09-.08.16-.11c.07-.03.15-.04.24-.03.12.01.21.05.27.12.06.07.08.16.07.27l-.07.8-.3-.03.07-.72Z" class="cls-6"/><path d="M80.83,83.8c-.05.05-.1.09-.16.12-.06.03-.13.04-.19.04-.1,0-.18-.03-.26-.08-.08-.05-.13-.12-.17-.21-.04-.09-.06-.2-.05-.32,0-.12.03-.23.08-.32.05-.09.11-.16.19-.2.08-.05.17-.07.26-.06.07,0,.13.02.19.05.06.03.11.08.15.14l.02-.58h.3s-.06,1.59-.06,1.59h-.3s0-.16,0-.16ZM80.86,83.15s-.06-.08-.11-.11c-.05-.03-.1-.04-.15-.05-.08,0-.16.03-.21.09-.06.07-.09.16-.09.27,0,.11.02.2.07.27.05.07.12.11.2.11.05,0,.1,0,.15-.04.05-.03.09-.06.12-.1l.02-.45Z" class="cls-6"/><path d="M81.49,82.59s-.05-.08-.05-.13c0-.05.02-.09.05-.13s.08-.05.13-.05c.05,0,.09.02.13.05.03.04.05.08.05.13,0,.05-.02.09-.05.13-.04.04-.08.05-.13.05-.05,0-.09-.02-.13-.05ZM81.47,82.81h.3s-.01,1.15-.01,1.15h-.3s.01-1.15.01-1.15Z" class="cls-6"/><path d="M82.12,83.04h-.19s0-.23,0-.23h.19s0-.07,0-.07c0-.12.03-.22.1-.29.07-.07.16-.11.27-.11.08,0,.16.01.22.04l-.06.21s-.06-.02-.1-.02c-.04,0-.08.02-.1.05-.02.03-.04.07-.03.13v.06s.23,0,.23,0v.23s-.23,0-.23,0l.02.91h-.3s-.02-.91-.02-.91Z" class="cls-6"/><path d="M82.83,83.06c.04-.09.11-.17.2-.23s.19-.09.3-.1c.11,0,.21.01.3.06.09.05.16.12.21.21.05.09.08.2.09.32v.07s-.84.05-.84.05c.01.08.05.15.11.2.06.05.14.07.23.07.05,0,.11-.02.16-.04.05-.02.1-.05.13-.09l.14.18c-.05.05-.12.09-.2.12-.08.03-.17.05-.26.05-.11,0-.22-.01-.32-.06-.1-.04-.17-.11-.23-.2s-.09-.19-.1-.31c0-.11.01-.21.06-.31ZM83.15,83.04c-.04.06-.07.12-.07.19l.56-.03c0-.07-.04-.12-.09-.17-.05-.05-.12-.07-.21-.07-.08,0-.15.04-.19.09Z" class="cls-6"/><path d="M84.11,82.7l.3-.03.02.16c.04-.06.08-.1.15-.15s.13-.07.2-.07l.03.28s-.05,0-.08,0c-.05,0-.1.02-.16.05-.05.03-.09.07-.11.1l.08.77-.3.03-.11-1.14Z" class="cls-6"/><path d="M84.98,82.88c.04-.1.1-.18.18-.24.08-.07.18-.11.29-.12.11-.02.21,0,.31.04.09.04.17.1.23.19.06.09.1.19.12.31v.07s-.83.12-.83.12c.02.08.06.14.13.19.07.05.14.06.24.05.05,0,.11-.03.16-.05.05-.03.09-.06.12-.1l.16.17c-.05.05-.11.1-.19.14-.08.04-.16.06-.25.07-.11.02-.22,0-.32-.03-.1-.04-.18-.1-.25-.18-.06-.08-.11-.18-.12-.3-.02-.11,0-.21.03-.31ZM85.3,82.84c-.04.06-.06.12-.05.19l.55-.08c-.01-.07-.05-.12-.1-.17s-.12-.06-.21-.05c-.08.01-.15.05-.18.11Z" class="cls-6"/><path d="M87.06,82.7c-.01-.08-.04-.13-.09-.16-.04-.03-.1-.03-.16-.02-.05.01-.1.03-.14.07-.04.04-.07.07-.09.12l.15.79-.29.06-.22-1.12.29-.06.03.15c.03-.06.08-.11.14-.15.06-.05.13-.08.22-.1.12-.02.22,0,.29.04.07.05.12.13.14.24l.15.79-.29.06-.14-.71Z" class="cls-6"/><path d="M87.62,82.41c.03-.1.08-.19.16-.26.08-.07.17-.12.28-.15.11-.03.2-.03.28-.02.08.02.15.04.2.08l-.15.22c-.07-.07-.16-.09-.26-.06-.09.02-.15.07-.19.15-.04.08-.05.17-.02.28.03.11.08.19.15.24.07.05.15.07.24.05.05-.01.09-.03.13-.06.03-.03.06-.07.08-.11l.23.12c-.03.06-.08.12-.14.17-.06.05-.15.09-.25.11-.11.03-.22.03-.32,0-.1-.03-.19-.08-.26-.16-.07-.08-.12-.17-.15-.28-.03-.11-.03-.22,0-.32Z" class="cls-6"/><path d="M88.65,81.65s-.07-.06-.09-.11c-.01-.05,0-.09.02-.14.02-.04.06-.07.11-.09.05-.01.09,0,.14.02.04.02.07.06.08.11.01.05,0,.09-.02.14s-.06.07-.11.09c-.05.01-.09,0-.14-.02ZM88.69,81.87l.29-.08.31,1.1-.29.08-.31-1.1Z" class="cls-6"/><path d="M90.22,82.48c-.02.06-.06.11-.11.15-.05.04-.11.08-.18.1-.06.02-.13.03-.19.02-.07,0-.13-.03-.18-.08-.05-.04-.09-.1-.12-.18-.03-.08-.03-.15,0-.22.02-.06.06-.12.11-.16s.11-.07.17-.09c.07-.02.14-.03.21-.03s.13.02.18.05l-.05-.15c-.02-.06-.06-.11-.11-.13-.06-.02-.12-.02-.19,0-.12.04-.21.11-.28.23l-.17-.15c.05-.07.11-.13.18-.18.07-.05.15-.09.24-.12.14-.04.26-.05.37-.01.11.04.19.13.23.27l.22.7-.29.09-.04-.11ZM90.14,82.2s-.07-.03-.12-.03-.09,0-.14.02c-.06.02-.1.05-.13.09-.03.04-.04.08-.02.13.01.05.05.07.09.09.05.01.1.01.16,0,.05-.02.09-.04.13-.07.04-.03.06-.06.08-.09l-.04-.12Z" class="cls-6"/><path d="M91.55,81.97c-.02.07-.06.13-.1.18-.05.05-.1.09-.16.11-.09.03-.18.04-.27.03-.09-.02-.17-.06-.24-.13-.07-.07-.13-.16-.17-.28-.04-.11-.06-.22-.05-.32s.04-.19.09-.26c.05-.07.13-.13.22-.16.06-.02.13-.03.2-.03.07,0,.13.03.19.07l-.2-.54.28-.11.55,1.48-.28.11-.05-.13ZM91.33,81.36s-.09-.05-.14-.06c-.05,0-.11,0-.15.01-.08.03-.13.09-.16.17-.03.08-.02.18.02.28.04.1.09.18.17.22.07.05.15.05.23.02.05-.02.09-.05.12-.09s.06-.09.07-.14l-.16-.42Z" class="cls-6"/><path d="M92.38,81.74c-.1-.01-.2-.05-.28-.12-.08-.06-.14-.15-.19-.25-.04-.1-.06-.2-.05-.31,0-.1.04-.2.11-.28s.15-.15.26-.2c.11-.05.22-.07.33-.05.1.01.2.05.28.12.08.06.14.15.19.25.04.1.06.2.05.31,0,.1-.04.2-.11.28-.06.09-.15.15-.26.2-.11.05-.22.07-.32.05ZM92.76,81.29c.02-.09,0-.18-.03-.28-.04-.1-.1-.16-.18-.21-.08-.04-.16-.05-.24-.01-.08.04-.13.1-.15.18-.02.09,0,.18.03.27.04.1.1.17.18.21.08.04.15.05.24.01.08-.04.13-.1.15-.18Z" class="cls-6"/><path d="M71.48,84.95c-.06.03-.13.05-.21.06-.08,0-.16,0-.23-.03-.23-.09-.3-.24-.21-.47l.28-.76.17.06-.27.71c-.03.09-.04.16-.01.21s.08.09.16.12c.06.02.13.03.2.02.07,0,.13-.03.18-.07l.3-.79.17.06-.4,1.07-.17-.06.06-.15Z" class="cls-6"/><path d="M72.93,84.82c.03-.09.03-.16,0-.22-.03-.05-.08-.09-.16-.12-.06-.02-.13-.02-.2-.01-.07.01-.13.04-.18.07l-.26.8-.17-.06.36-1.08.17.06-.05.16c.06-.04.13-.06.21-.07.08-.01.16,0,.24.02.23.08.31.23.23.46l-.25.76-.17-.06.23-.72Z" class="cls-6"/><path d="M74.08,85.77c-.06.05-.13.08-.2.09-.07.02-.15.02-.22,0-.1-.03-.17-.07-.23-.14-.06-.07-.1-.15-.12-.25-.02-.1,0-.21.02-.32.03-.12.08-.21.15-.29.07-.08.14-.13.23-.15.09-.03.18-.03.27,0,.07.02.14.06.19.11.05.05.1.11.12.19l.16-.59.17.05-.42,1.52-.17-.05.05-.16ZM74.26,85.13c-.02-.06-.05-.12-.1-.17-.05-.05-.11-.09-.17-.11-.11-.03-.2-.01-.29.05s-.15.16-.18.29-.03.24,0,.34c.04.1.12.16.22.19.07.02.13.02.2,0,.07-.02.13-.05.17-.09l.14-.51Z" class="cls-6"/><path d="M74.85,84.97l.17.04-.27,1.11-.17-.04.27-1.11ZM74.91,84.75s-.02-.06-.01-.09c0-.03.03-.06.05-.07.03-.02.06-.02.09-.01.03,0,.06.03.07.05.02.03.02.06.01.09,0,.03-.03.06-.05.07-.03.02-.06.02-.09.01-.03,0-.05-.03-.07-.05Z" class="cls-6"/><path d="M75.38,85.25l-.18-.04.03-.15.18.04.02-.09c.03-.11.07-.2.15-.25s.16-.07.26-.04c.07.02.12.04.16.08l-.07.12s-.06-.04-.09-.05c-.06-.01-.1,0-.14.03s-.07.08-.08.15l-.02.09.23.05-.03.15-.23-.05-.22.97-.17-.04.22-.97Z" class="cls-6"/><path d="M76.03,85.39l-.18-.04.03-.15.18.04.02-.09c.02-.11.07-.2.14-.25.07-.05.16-.07.26-.05.07.01.12.04.16.07l-.07.12s-.06-.04-.09-.05c-.06-.01-.1,0-.14.03-.04.03-.06.08-.08.15l-.02.09.23.05-.03.15-.23-.05-.2.97-.17-.03.2-.97Z" class="cls-6"/><path d="M76.62,85.63c.06-.08.14-.14.23-.18s.19-.05.3-.03c.11.02.2.06.27.13.07.07.12.15.15.25.03.1.03.21.01.32v.04s-.92-.15-.92-.15c-.01.11.01.22.07.3.06.09.15.14.26.16.07.01.13,0,.2,0,.07-.01.12-.04.17-.08l.06.13c-.13.09-.29.12-.47.09-.11-.02-.2-.06-.28-.12-.08-.06-.13-.15-.17-.24s-.04-.21-.02-.32c.02-.11.06-.2.12-.28ZM76.92,85.58c-.06.03-.11.07-.15.12-.04.05-.06.11-.08.17l.74.12c0-.06,0-.12-.01-.18s-.05-.12-.1-.16-.11-.08-.19-.09c-.08-.01-.14,0-.2.02Z" class="cls-6"/><path d="M77.97,85.57l.18.02-.02.18c.06-.06.12-.1.19-.13.07-.03.14-.04.21-.03l-.02.17s-.04-.01-.07-.02c-.05,0-.11,0-.18.03-.07.03-.12.07-.15.11l-.11.82-.18-.02.15-1.13Z" class="cls-6"/><path d="M78.71,85.94c.06-.09.13-.15.22-.2s.19-.06.29-.05c.11.01.21.05.28.11.08.06.13.14.17.24.04.1.05.2.04.32v.04s-.92-.09-.92-.09c0,.11.03.21.09.3.07.08.16.13.28.14.07,0,.13,0,.19-.02.06-.02.12-.05.17-.09l.07.12c-.13.1-.28.14-.47.12-.11-.01-.21-.05-.29-.1-.08-.06-.14-.14-.19-.23-.04-.1-.06-.2-.04-.32.01-.11.04-.21.1-.29ZM79.01,85.86c-.06.03-.1.08-.14.13s-.06.11-.06.17l.74.07c0-.06,0-.12-.03-.18-.02-.06-.06-.11-.11-.15-.05-.04-.12-.07-.2-.08-.08,0-.14,0-.2.04Z" class="cls-6"/><path d="M80.79,86.21c0-.1-.01-.17-.06-.21s-.1-.07-.19-.07c-.07,0-.13.01-.19.04-.06.03-.11.07-.15.12l-.04.84h-.18s.06-1.15.06-1.15h.18s0,.17,0,.17c.05-.05.11-.09.18-.13s.15-.05.23-.05c.24.01.36.14.34.39l-.04.8h-.18s.04-.76.04-.76Z" class="cls-6"/><path d="M81.42,86.94s-.06-.11-.06-.2v-.75s-.18,0-.18,0v-.15s.19,0,.19,0v-.31s.18,0,.18,0v.31s.23,0,.23,0v.15s-.23,0-.23,0v.72s0,.08.01.11c.02.03.05.04.09.04.02,0,.05,0,.07-.01s.04-.02.05-.03l.05.13c-.05.05-.12.07-.21.07-.08,0-.15-.03-.19-.07Z" class="cls-6"/><path d="M82.02,85.62s-.04-.05-.04-.08c0-.03.01-.06.03-.08s.05-.03.08-.04c.03,0,.06.01.09.03.02.02.04.05.04.08,0,.03-.01.06-.03.09s-.05.04-.08.04c-.03,0-.06-.01-.08-.03ZM82.02,85.85h.18s.01,1.14.01,1.14h-.18s-.01-1.14-.01-1.14Z" class="cls-6"/><path d="M83.29,86.84c-.09.11-.22.17-.37.17-.07,0-.13-.01-.19-.04-.06-.03-.11-.07-.15-.13-.04-.06-.06-.12-.06-.2,0-.08.01-.15.05-.21.04-.06.08-.1.14-.13s.12-.05.19-.05c.16,0,.29.04.38.14v-.21c0-.08-.04-.14-.09-.18-.05-.04-.12-.06-.21-.06-.07,0-.13.02-.19.04-.06.03-.11.07-.16.12l-.09-.12c.06-.06.13-.11.2-.14.07-.03.16-.05.25-.05.13,0,.24.02.32.08s.13.16.13.29l.02.78h-.18s0-.12,0-.12ZM83.28,86.52s-.08-.07-.14-.1-.12-.03-.18-.03c-.08,0-.15.03-.2.07-.05.05-.08.1-.07.18,0,.07.03.13.08.17.05.04.12.06.2.06.06,0,.12-.02.18-.04.06-.03.1-.06.13-.1v-.21Z" class="cls-6"/><path d="M83.95,86.89s-.07-.11-.08-.2l-.05-.75h-.19s0-.14,0-.14h.19s-.02-.32-.02-.32h.18s.02.3.02.3h.23s0,.13,0,.13h-.23s.05.74.05.74c0,.05.01.08.04.11.02.03.05.04.09.04.02,0,.05,0,.07-.02.02,0,.04-.02.05-.04l.06.12s-.12.08-.21.08c-.08,0-.15-.01-.19-.06Z" class="cls-6"/><path d="M84.5,86.02c.04-.1.1-.17.18-.24.08-.06.17-.1.28-.11.11-.01.21,0,.3.05.09.05.16.11.21.2.05.09.08.19.1.3v.04s-.91.09-.91.09c.02.11.07.2.15.27.08.07.18.1.3.09.07,0,.13-.03.19-.06.06-.03.11-.07.15-.12l.1.11c-.11.12-.25.19-.43.21-.11.01-.21,0-.31-.05-.09-.04-.17-.11-.23-.19s-.09-.19-.1-.3c-.01-.11,0-.21.04-.31ZM84.78,85.89c-.05.04-.09.09-.11.15-.02.06-.03.12-.03.18l.74-.07c0-.06-.03-.12-.06-.17-.03-.06-.08-.1-.14-.13-.06-.03-.13-.04-.21-.04-.08,0-.14.03-.19.08Z" class="cls-6"/><path d="M86.73,86.47c-.04.07-.08.12-.15.17-.06.05-.13.07-.21.09-.1.01-.19,0-.27-.03-.08-.04-.15-.1-.21-.18s-.09-.19-.11-.31c-.02-.12-.01-.23.02-.32.03-.1.08-.17.15-.23.07-.06.15-.1.25-.11.07-.01.15,0,.22.02s.13.07.19.12l-.09-.6.17-.02.22,1.56-.17.02-.02-.17ZM86.64,85.81s-.09-.09-.16-.11c-.07-.03-.14-.04-.2-.03-.11.02-.19.07-.25.16s-.07.21-.05.34c.02.13.07.23.14.31.08.07.17.1.28.09.07,0,.13-.04.19-.08.06-.04.1-.09.12-.15l-.07-.52Z" class="cls-6"/><path d="M88.02,86.37c-.05-.04-.08-.1-.1-.18l-.15-.74-.18.04-.03-.15.18-.04-.06-.31.17-.03.06.31.23-.05.03.15-.23.05.14.71s.03.08.05.1.06.03.09.02c.02,0,.04-.01.06-.03.02-.01.03-.03.04-.04l.08.11c-.04.06-.11.09-.19.11-.08.02-.15,0-.2-.03Z" class="cls-6"/><path d="M88.39,85.17l.17-.04.04.18c.03-.07.08-.13.13-.19s.12-.09.19-.1l.04.16s-.05,0-.07,0c-.05.01-.1.04-.16.09s-.09.1-.1.15l.18.8-.17.04-.25-1.11Z" class="cls-6"/><path d="M90.08,85.8c-.07.13-.17.21-.32.25-.07.02-.13.02-.2,0-.07-.01-.12-.04-.18-.09-.05-.05-.09-.11-.11-.18-.02-.08-.02-.15,0-.21.02-.06.06-.12.11-.16.05-.04.11-.07.18-.09.16-.04.29-.02.4.06l-.05-.2c-.02-.08-.06-.13-.12-.16-.06-.03-.14-.03-.22-.01-.07.02-.12.05-.17.09s-.09.09-.13.16l-.11-.1c.04-.07.1-.13.16-.18.07-.05.14-.08.23-.1.13-.03.24-.03.33.01s.16.12.19.25l.2.76-.17.04-.03-.13ZM90,85.49s-.09-.06-.15-.06c-.06,0-.12,0-.18.01-.08.02-.14.06-.18.12-.04.06-.05.12-.03.19.02.07.06.12.12.15.06.03.13.03.21.01.06-.02.12-.04.17-.08.05-.04.08-.08.1-.13l-.05-.2Z" class="cls-6"/><path d="M90.58,85.51c.05.03.11.05.19.06.07.01.15,0,.22-.02.08-.02.14-.06.17-.11s.04-.1.03-.16c-.02-.06-.05-.09-.11-.11s-.13-.02-.23-.01c-.09,0-.16,0-.22,0-.06,0-.11-.02-.16-.05-.05-.03-.09-.08-.11-.15-.02-.06-.02-.11,0-.17.02-.06.05-.11.11-.15.05-.05.12-.08.21-.11.16-.05.31-.04.45.03l-.04.14s-.1-.05-.17-.06c-.06,0-.13,0-.2.02-.07.02-.13.06-.16.1s-.04.09-.03.14c.01.05.05.08.1.09.05.01.12.01.22,0,.09,0,.17,0,.23,0,.06,0,.12.02.17.06.05.03.09.09.11.16.03.1.02.19-.04.27-.06.08-.15.15-.29.19-.19.06-.35.04-.49-.03l.05-.15Z" class="cls-6"/><path d="M92.23,84.47c-.03-.09-.07-.15-.13-.17-.05-.02-.12-.02-.2,0-.06.02-.11.06-.16.11-.05.05-.08.11-.1.17l.28.8-.17.06-.52-1.49.17-.06.2.57c.02-.06.07-.13.12-.19.06-.06.12-.1.2-.13.23-.08.38,0,.46.22l.26.76-.17.06-.25-.72Z" class="cls-6"/><path d="M247.5,84.75l.39-1.53.29.07-.04.14c.06-.04.12-.07.18-.08s.13-.01.2,0c.09.02.17.07.23.13.06.06.1.15.12.24.02.1.01.21-.02.33-.03.12-.08.22-.14.3-.06.08-.14.13-.22.16s-.18.03-.27,0c-.07-.02-.13-.05-.18-.09-.05-.04-.09-.1-.12-.17l-.14.56-.29-.07ZM248.55,83.71c-.03-.08-.09-.13-.18-.15-.05-.01-.1-.01-.15,0-.05.02-.1.04-.13.07l-.11.44s.04.09.08.13c.04.04.08.07.13.08.08.02.16,0,.23-.05.07-.05.12-.13.14-.24.03-.11.02-.2-.01-.28Z" class="cls-6"/><path d="M249.68,84.69s-.11.06-.17.08c-.07.01-.14.01-.21,0-.06-.01-.12-.04-.18-.08-.05-.04-.09-.09-.12-.16-.03-.06-.03-.14-.02-.22.02-.08.05-.15.1-.19.05-.05.11-.07.17-.09.06-.01.13-.01.19,0,.08.02.14.04.2.08.06.04.1.08.13.13l.03-.16c.01-.06,0-.12-.04-.17s-.09-.08-.17-.09c-.12-.02-.24,0-.35.07l-.07-.21c.08-.04.16-.06.25-.07.09,0,.18,0,.27.01.14.03.25.09.33.17.08.08.1.2.07.35l-.15.72-.29-.06.02-.12ZM249.74,84.41s-.05-.06-.09-.09c-.04-.02-.08-.04-.13-.05-.06-.01-.11,0-.16.01-.05.02-.07.05-.08.1,0,.05,0,.09.04.12.03.03.08.06.14.07.05,0,.1.01.14,0s.08-.02.11-.05l.03-.13Z" class="cls-6"/><path d="M250.23,85.36l.23-1.56.3.04-.02.14c.05-.05.11-.08.17-.1.06-.02.13-.03.2-.02.1.01.18.05.25.11.07.06.12.13.15.23.03.1.03.2.02.33-.02.12-.06.23-.11.31-.06.08-.13.14-.21.18-.08.04-.17.05-.27.03-.07-.01-.13-.03-.18-.07-.05-.04-.1-.09-.14-.15l-.09.57-.3-.04ZM251.18,84.21c-.04-.08-.11-.12-.19-.13-.05,0-.1,0-.15.02s-.09.05-.12.09l-.07.45s.05.08.1.12c.04.04.09.06.14.06.09.01.16-.01.22-.07.06-.06.1-.15.12-.25.02-.11,0-.2-.04-.28Z" class="cls-6"/><path d="M251.8,84.26c.06-.09.14-.15.23-.2s.2-.06.31-.05c.11.01.21.05.29.11s.14.14.18.24c.04.1.05.21.04.33v.07s-.85-.08-.85-.08c0,.08.03.15.08.21.05.06.12.1.22.1.05,0,.11,0,.17-.01.06-.01.11-.04.15-.07l.11.2c-.06.04-.13.07-.22.09s-.17.02-.26.01c-.11-.01-.21-.05-.3-.1-.09-.06-.15-.14-.2-.23-.04-.1-.06-.2-.05-.32.01-.11.05-.21.1-.29ZM252.11,84.29c-.05.05-.08.11-.1.17l.56.05c0-.07-.02-.13-.06-.19-.04-.06-.11-.09-.2-.1-.08,0-.15.01-.2.06Z" class="cls-6"/><path d="M253.14,83.68l.3.02-.1,1.57-.3-.02.1-1.57Z" class="cls-6"/><path d="M254.3,84.67c.05-.05.11-.07.18-.07.07,0,.13.03.18.08s.07.11.07.18c0,.07-.03.13-.08.18s-.11.07-.18.07c-.07,0-.13-.03-.18-.08-.05-.05-.07-.11-.07-.18,0-.07.03-.13.08-.18Z" class="cls-6"/><path d="M255.58,84.43c.05-.09.12-.17.21-.22.09-.05.19-.08.31-.09.11,0,.2,0,.28.04.08.03.14.07.18.12l-.19.18c-.06-.08-.14-.12-.25-.11-.09,0-.16.04-.22.11s-.08.16-.08.27c0,.11.04.2.1.27.06.07.14.1.23.09.05,0,.1-.01.14-.04.04-.02.07-.05.1-.1l.2.17c-.04.05-.1.1-.17.13s-.16.06-.27.06c-.12,0-.22-.02-.31-.06s-.17-.12-.22-.2c-.06-.09-.09-.19-.09-.31,0-.12.02-.22.07-.31Z" class="cls-6"/><path d="M257.5,85.08s-.08.09-.14.12-.13.05-.2.06c-.06,0-.13,0-.19-.03-.06-.02-.12-.06-.16-.12-.04-.05-.07-.12-.08-.2,0-.08,0-.15.04-.21.03-.06.08-.1.14-.13.06-.03.12-.05.18-.05.08,0,.15,0,.21.02.06.02.12.05.16.09v-.16c-.02-.07-.05-.12-.1-.15-.05-.04-.11-.05-.19-.04-.12.01-.23.06-.32.16l-.13-.18c.06-.06.14-.1.22-.14.08-.03.17-.05.26-.06.15-.01.27.01.37.07.1.06.15.17.17.32l.06.73-.3.03v-.12ZM257.47,84.79s-.06-.05-.11-.06c-.04-.01-.09-.02-.14-.01-.06,0-.11.02-.15.06-.04.03-.06.07-.05.12,0,.05.03.08.07.11.04.02.1.03.16.03.05,0,.1-.02.14-.04.04-.02.07-.04.09-.08v-.13Z" class="cls-6"/><path d="M258,84l.3-.04.02.15c.03-.06.08-.11.14-.15.06-.04.13-.07.19-.08l.03.27s-.05,0-.08,0c-.05,0-.1.03-.15.06-.05.03-.09.07-.11.11l.1.76-.3.04-.14-1.13Z" class="cls-6"/><path d="M259.14,84.94c-.06-.05-.1-.12-.12-.22l-.1-.61-.19.03-.04-.23.19-.03-.05-.31.3-.05.05.31.23-.04.04.23-.23.04.09.57s.02.07.04.09c.02.02.05.03.08.03.02,0,.04,0,.06-.02.02,0,.03-.02.04-.03l.09.19c-.05.05-.13.08-.24.1-.1.02-.19,0-.25-.04Z" class="cls-6"/><path d="M260.03,84.79c-.1-.03-.18-.09-.25-.17-.07-.08-.11-.17-.13-.28-.02-.11-.02-.21.01-.31s.08-.18.16-.25c.08-.07.18-.12.3-.14.12-.02.23-.02.33.02.1.03.18.09.25.17.07.08.11.17.13.28.02.11.02.21-.01.31-.03.1-.08.18-.16.25-.08.07-.18.12-.3.14-.12.02-.23.02-.33-.02ZM260.5,84.44c.04-.08.05-.17.03-.28-.02-.1-.06-.18-.13-.24-.07-.06-.14-.08-.23-.06s-.15.07-.19.15c-.04.08-.05.17-.02.27.02.1.06.19.13.25.06.06.14.08.23.06.09-.02.15-.07.19-.15ZM259.99,83.51l.24-.4.27-.05-.31.41-.21.04Z" class="cls-6"/><path d="M261.78,83.71c-.02-.08-.05-.13-.09-.15-.04-.02-.1-.03-.16-.01-.05.01-.1.04-.14.08-.04.04-.06.08-.08.12l.2.78-.29.07-.28-1.11.29-.07.04.14c.03-.06.07-.11.13-.16.06-.05.13-.09.21-.11.12-.03.22-.02.29.03.08.05.13.13.16.24l.2.78-.29.07-.18-.7Z" class="cls-6"/><path d="M245.56,87.24l.46-1.51.17.05-.05.16c.06-.04.12-.07.2-.09.08-.01.15-.01.23.01.09.03.17.08.23.15.06.07.1.15.11.25.01.1,0,.21-.03.32s-.09.21-.15.29c-.07.07-.14.12-.23.15s-.18.02-.27,0c-.07-.02-.14-.06-.19-.11-.05-.05-.09-.12-.12-.19l-.18.58-.17-.05ZM246.7,86.2c-.04-.1-.11-.17-.22-.2-.06-.02-.13-.02-.2,0s-.13.04-.18.08l-.16.5c.01.06.05.12.1.17.05.05.11.09.17.11.11.03.2.02.29-.04.09-.06.15-.16.19-.28.04-.13.04-.24,0-.34Z" class="cls-6"/><path d="M247.74,87.28c-.12.08-.25.1-.41.06-.07-.02-.12-.05-.17-.09-.05-.04-.09-.1-.11-.16-.02-.07-.02-.14,0-.21.02-.08.06-.14.11-.18.05-.05.11-.07.18-.09s.13,0,.2,0c.16.04.26.12.33.25l.05-.2c.02-.08,0-.14-.03-.2-.04-.06-.1-.1-.18-.12-.07-.02-.13-.02-.19-.01-.06.01-.12.04-.19.07l-.05-.14c.07-.04.15-.07.23-.08.08,0,.16,0,.25.02.13.03.22.09.28.17.06.08.08.19.05.31l-.2.76-.17-.04.03-.13ZM247.82,86.97c-.02-.05-.06-.09-.1-.13-.05-.04-.1-.06-.17-.08-.08-.02-.15-.02-.21.01-.06.03-.1.08-.12.15-.02.07,0,.13.03.19.04.06.1.09.18.12.06.02.12.02.18.01.06,0,.11-.03.15-.06l.05-.2Z" class="cls-6"/><path d="M248.17,87.97l.33-1.54.17.04-.04.17c.05-.05.12-.08.19-.11.07-.02.15-.02.23,0,.1.02.18.06.24.13.07.06.11.14.13.24.02.1.02.21,0,.32-.03.12-.07.22-.13.3-.06.08-.13.14-.22.17-.09.03-.18.04-.27.02-.08-.02-.14-.05-.2-.1-.06-.05-.1-.11-.13-.18l-.13.59-.17-.04ZM249.22,86.84c-.05-.1-.12-.16-.23-.18-.07-.01-.13-.01-.2.01-.07.02-.13.06-.17.1l-.11.52c.02.06.06.11.11.16.05.05.11.08.18.09.11.02.2,0,.29-.07.08-.07.14-.17.17-.3.03-.13.02-.24-.03-.34Z" class="cls-6"/><path d="M249.78,86.97c.06-.08.14-.14.23-.18.09-.04.19-.05.3-.03.11.02.2.06.27.13.07.07.12.15.15.25.03.1.03.21.01.32v.04s-.92-.15-.92-.15c-.01.11.01.22.07.3.06.09.15.14.26.16.07.01.13,0,.2,0,.07-.01.12-.04.17-.08l.06.13c-.13.09-.29.12-.47.09-.11-.02-.2-.06-.28-.12-.08-.06-.13-.15-.17-.24-.03-.1-.04-.21-.02-.32.02-.11.06-.2.12-.28ZM250.09,86.92c-.06.03-.11.07-.15.12-.04.05-.06.11-.08.17l.74.13c0-.06,0-.12-.01-.18-.02-.06-.05-.12-.1-.16-.05-.05-.11-.08-.19-.09-.08-.01-.14,0-.2.02Z" class="cls-6"/><path d="M251.13,86.92l.18.02-.02.18c.06-.06.12-.1.19-.13.07-.03.14-.04.21-.03l-.02.17s-.04-.01-.07-.02c-.05,0-.11,0-.18.03-.07.03-.12.07-.15.11l-.11.82-.18-.02.15-1.13Z" class="cls-6"/><path d="M252.43,87.63s.1-.06.16-.05c.06,0,.11.03.15.08s.06.1.05.16c0,.06-.03.11-.08.15-.05.04-.1.06-.16.05-.06,0-.11-.03-.15-.08-.04-.05-.06-.1-.05-.16,0-.06.03-.11.08-.15Z" class="cls-6"/><path d="M253.73,87.43c.05-.09.12-.16.21-.21.09-.05.19-.07.3-.07.1,0,.18.02.24.06s.12.08.17.15l-.12.1c-.07-.1-.16-.16-.28-.16-.12,0-.22.03-.29.11s-.11.19-.12.32c0,.13.03.24.09.33.07.09.16.13.28.14.12,0,.22-.04.3-.14l.11.11c-.05.06-.11.1-.18.13-.07.03-.15.04-.25.04-.11,0-.21-.03-.29-.09-.08-.06-.15-.13-.19-.22s-.06-.2-.06-.31c0-.11.03-.21.08-.3Z" class="cls-6"/><path d="M255.6,88.22c-.09.11-.22.16-.38.17-.07,0-.13-.01-.19-.04-.06-.03-.11-.07-.15-.13-.04-.06-.06-.13-.06-.2,0-.08.02-.15.06-.21s.09-.1.15-.13c.06-.03.12-.04.19-.05.16,0,.29.05.38.15v-.21c0-.08-.03-.14-.08-.18-.05-.04-.12-.07-.21-.06-.07,0-.13.01-.19.04-.06.03-.11.07-.16.12l-.08-.12c.06-.06.13-.11.2-.14.07-.03.16-.04.25-.04.13,0,.24.03.32.09.08.06.12.16.13.29v.78s-.17,0-.17,0v-.13ZM255.6,87.9s-.08-.08-.13-.1-.12-.03-.18-.03c-.08,0-.15.02-.2.07-.05.05-.08.1-.08.17,0,.07.03.13.08.17s.12.07.2.06c.06,0,.12-.01.18-.04s.1-.06.13-.1v-.21Z" class="cls-6"/><path d="M256.12,87.2h.18s0,.18,0,.18c.05-.06.1-.12.17-.16.06-.04.13-.06.21-.07v.17s-.04,0-.07,0c-.05,0-.11.02-.17.06-.06.04-.1.08-.13.13l.03.82h-.18s-.04-1.14-.04-1.14Z" class="cls-6"/><path d="M257.78,88.08c-.04.06-.09.12-.16.16-.06.04-.14.07-.21.07-.1,0-.19-.01-.27-.05-.08-.04-.14-.11-.19-.2-.05-.09-.08-.19-.09-.31,0-.12,0-.23.04-.32.04-.09.09-.17.16-.22.07-.05.16-.09.26-.09.08,0,.15,0,.22.04.07.03.13.08.18.14l-.04-.61h.18s.11,1.56.11,1.56h-.18s-.01-.16-.01-.16ZM257.74,87.42c-.04-.05-.09-.09-.15-.12-.07-.03-.13-.05-.2-.04-.11,0-.2.06-.26.15-.06.09-.09.2-.08.33,0,.13.05.24.12.32.07.08.16.11.27.11.07,0,.13-.03.19-.07.06-.04.11-.09.13-.14l-.04-.53Z" class="cls-6"/><path d="M258.19,86.63l.18-.02.07.6c.04-.07.09-.12.15-.17.06-.04.13-.07.21-.08.1-.01.19,0,.27.04.08.04.15.1.2.19.05.09.09.19.1.31.01.12,0,.23-.03.32-.03.1-.08.17-.15.23-.07.06-.15.09-.25.1-.08,0-.15,0-.22-.03-.07-.03-.13-.07-.18-.13l.02.17-.18.02-.18-1.57ZM258.66,87.99c.07.03.13.04.2.03.11-.01.2-.06.25-.16.06-.09.08-.2.06-.33-.02-.13-.06-.24-.14-.31-.08-.08-.17-.11-.28-.1-.07,0-.13.03-.19.08-.06.04-.1.09-.13.15l.06.53s.09.09.16.11Z" class="cls-6"/><path d="M259.94,87.95c-.09-.04-.17-.1-.23-.18-.06-.08-.1-.18-.12-.29-.02-.11-.01-.21.02-.31.03-.1.08-.18.16-.25.08-.07.17-.11.28-.13.11-.02.21,0,.31.03s.17.1.23.18.1.18.12.29.01.21-.02.31c-.03.1-.08.18-.16.25s-.17.11-.28.13-.21,0-.31-.03ZM260.42,87.74s.08-.11.1-.18c.02-.07.02-.15,0-.23-.01-.08-.04-.15-.08-.21-.04-.06-.09-.11-.15-.14-.06-.03-.13-.04-.21-.03-.08.01-.14.04-.19.09s-.08.11-.1.18-.02.15,0,.23.04.15.08.22c.04.06.09.11.16.14s.13.04.21.03.14-.04.19-.09Z" class="cls-6"/><path d="M261.8,87.53c-.07.12-.18.2-.34.23-.07.01-.13.01-.2,0-.07-.02-.12-.05-.17-.1-.05-.05-.08-.11-.1-.19-.02-.08-.01-.15.02-.21s.07-.12.12-.16c.05-.04.11-.07.18-.08.16-.03.29,0,.4.08l-.04-.2c-.02-.08-.05-.13-.12-.17-.06-.03-.13-.04-.22-.02-.07.01-.13.04-.18.08-.05.04-.09.09-.13.15l-.11-.1c.05-.07.11-.13.17-.17.07-.04.15-.07.24-.09.13-.03.24-.02.33.03.09.05.15.13.18.26l.16.77-.17.04-.03-.13ZM261.73,87.21s-.09-.06-.15-.07c-.06-.01-.12-.01-.18,0-.08.02-.14.05-.18.11s-.06.12-.04.19c.01.07.05.12.11.15.06.03.13.04.21.02.06-.01.12-.04.17-.07.05-.03.09-.08.11-.13l-.04-.2Z" class="cls-6"/><path d="M262.11,86.42l.17-.04.04.18c.03-.07.08-.14.13-.19.05-.05.12-.09.19-.11l.04.16s-.05,0-.07,0c-.05.01-.1.05-.16.1-.05.05-.09.1-.1.16l.19.8-.17.04-.27-1.11Z" class="cls-6"/><path d="M263.91,86.95c-.03.07-.07.13-.12.19-.06.05-.12.09-.19.11-.1.03-.19.03-.27,0-.09-.03-.16-.08-.23-.15-.07-.08-.12-.17-.15-.29-.03-.12-.04-.22-.02-.32.02-.1.06-.18.12-.25.06-.07.14-.12.23-.14.07-.02.15-.02.22,0,.07.02.14.05.2.1l-.16-.59.17-.05.42,1.52-.17.05-.05-.16ZM263.73,86.31s-.1-.07-.18-.09c-.07-.02-.14-.02-.2,0-.11.03-.18.09-.22.19-.04.1-.04.21,0,.34.04.13.1.22.18.29.09.06.18.08.29.05.07-.02.13-.05.18-.1.05-.05.09-.11.1-.16l-.14-.51Z" class="cls-6"/><path d="M255.04,77.7s0,.02,0,.03c0,0,0,.02,0,.03,0,0,0,.01.01.02,0,0,.02.02.03.02,0,0,.02,0,.03,0l.63.06-.54.67s-.01.02-.02.03c0,.01,0,.03,0,.05,0,.01,0,.02.02.03,0,.01.02.02.04.03l2.06.93s.01,0,.02,0c0,0,.01,0,.02,0,.01,0,.02,0,.03,0,0,0,.01,0,.02-.01,0,0,.01-.01.02-.02l.57-.72.57.72s.02.02.03.02c.01,0,.03,0,.04.01,0,0,.01,0,.02,0,0,0,.01,0,.02,0l2.06-.93s.02-.01.03-.02c0,0,0-.01.01-.02,0,0,0-.01,0-.02,0-.01,0-.02,0-.04,0,0,0-.01,0-.02,0,0,0-.01-.01-.02l-.6-.75.6-.75s.01-.02.02-.03c0,0,0-.02,0-.02,0,0,0-.02,0-.02,0-.01,0-.02-.02-.03,0-.01-.02-.02-.04-.03l-2.06-.92s-.02,0-.03,0c0,0-.02,0-.03,0-.01,0-.02,0-.03.01,0,0-.02.01-.03.02l-.61.77-.75-.08s-.01,0-.02,0c0,0-.02,0-.03,0l-2.06.92s-.02,0-.02.01c0,0-.01.01-.02.02,0,0-.01.02-.01.03ZM260.02,77.69l-1.89-.84.53-.66,1.89.84-.53.66ZM258.13,78.76l1.89-.85.53.66-1.89.85-.53-.66ZM257.99,78.63l-1.84-.82,1.75-.77v1.37s0,.02,0,.03c0,0,0,.02.02.03,0,.01.02.02.03.02.01,0,.03,0,.04,0,.01,0,.02,0,.03,0,0,0,.02,0,.03-.02.01,0,.02-.02.02-.03,0-.01,0-.03,0-.04v-1.37s1.75.77,1.75.77l-1.84.82ZM255.95,77.91l1.89.85-.53.66-1.89-.85.53-.66ZM255.47,77.66l1.73-.77.44.05-1.73.76-.44-.04Z" class="cls-6"/><path d="M255.83,79.07s.02-.01.03-.02c0,0,.02,0,.03,0,.01,0,.03,0,.04,0,.01,0,.02.01.03.02,0,0,.01.02.02.03,0,0,0,.02,0,.03v.79l1.92.83v-1.57s0-.03,0-.04c0-.01.01-.02.02-.03,0,0,.02-.01.03-.02,0,0,.02,0,.03,0,.01,0,.03,0,.04,0,.01,0,.02.01.03.02,0,0,.01.02.02.03,0,0,0,.02,0,.03v1.57s1.92-.83,1.92-.83v-.79s0-.03,0-.04c0-.01.01-.02.02-.03,0,0,.02-.01.03-.02,0,0,.02,0,.03,0,.01,0,.03,0,.04,0,.01,0,.02.01.03.02,0,0,.01.02.02.03,0,0,0,.02,0,.03v.85s0,.02,0,.03c0,0,0,.02-.01.03,0,0,0,.01-.02.02,0,0-.01,0-.02.01l-2.1.91s0,0,0,0c0,0,0,0,0,0,0,0,0,0,0,0,0,0,0,0,0,0,0,0,0,0-.01,0,0,0,0,0-.01,0h0s0,0-.01,0c0,0,0,0,0,0,0,0,0,0,0,0,0,0,0,0,0,0,0,0,0,0,0,0,0,0,0,0,0,0l-2.1-.91s-.02,0-.02-.02c0,0-.01-.01-.02-.02,0,0,0-.01,0-.02,0,0,0-.02,0-.02v-.85s0-.03,0-.04c0-.01.01-.02.02-.03Z" class="cls-6"/><path d="M248.94,77.58s0,.03,0,.04c0,0,0,.02,0,.02,0,0,0,.01.01.02l2.01,2.18s.02.02.03.02c.01,0,.03,0,.04,0,0,0,.02,0,.02,0,0,0,.02,0,.03-.01l3.51-2.4s.02-.02.03-.03c0,0,0-.02,0-.02,0,0,0-.02,0-.03,0-.01,0-.03-.01-.04,0,0-.01-.01-.02-.02,0,0-.01-.01-.02-.01l-2.53-1.16s-.02,0-.03,0c-.01,0-.03,0-.04,0l-2.99,1.38s-.02.01-.03.02c0,0,0,.01-.01.02,0,0,0,.01,0,.02ZM249.18,77.63l2.84-1.31,2.35,1.08-3.31,2.26-1.87-2.03Z" class="cls-6"/><path d="M249.22,78.29s.01-.02.02-.02c.01,0,.02-.01.04-.02.01,0,.03,0,.04,0,.01,0,.02,0,.03.01,0,0,.02.01.02.02l1.64,2.34,3.23-2.3-.22-.21s-.02-.02-.02-.03c0-.01,0-.03,0-.04,0-.01,0-.02,0-.03,0,0,.01-.02.02-.03.01,0,.02-.02.03-.02.01,0,.03,0,.04,0,.01,0,.02,0,.03,0,0,0,.02.01.03.02l.3.29s.02.02.02.04c0,.01,0,.02,0,.03,0,.01,0,.03-.01.04,0,0-.02.02-.02.03l-3.39,2.42s-.02.01-.03.01c0,0-.02,0-.02,0,0,0,0,0,0,0,0,0,0,0,0,0-.01,0-.03,0-.04-.02,0,0-.02-.01-.02-.02l-1.69-2.42s-.01-.02-.02-.04c0-.01,0-.03,0-.04,0,0,0-.02.01-.03Z" class="cls-6"/><path d="M253.3,77.64s.01.02.02.03c0,.01,0,.02,0,.03,0,.01,0,.02,0,.03,0,0-.01.02-.02.02,0,0-.01.01-.02.02-.01,0-.03,0-.04.01,0,0-.02,0-.02,0,0,0-.01,0-.02,0l-1.61-.8s-.02-.02-.03-.03c0,0-.01-.02-.02-.03,0-.01,0-.02,0-.03,0-.01,0-.02,0-.03,0-.01.02-.02.03-.03,0,0,.02-.01.03-.02.01,0,.02,0,.03,0,.01,0,.02,0,.03,0l1.61.8s.02.02.03.03Z" class="cls-6"/><path d="M252.1,78.37s0,.02,0,.04c0,.01,0,.02,0,.03,0,0,0,.02-.02.03,0,0-.01.01-.02.02,0,0-.01,0-.02.01-.01,0-.02,0-.03,0-.01,0-.02,0-.03,0,0,0-.02,0-.02-.01l-1.35-1.11s-.02-.02-.02-.03c0-.01,0-.02,0-.04,0-.01,0-.02,0-.03,0,0,0-.02.02-.03,0,0,.02-.02.03-.02.01,0,.02,0,.04,0,.01,0,.02,0,.03,0,0,0,.02,0,.03.02l1.35,1.11s.02.02.02.03Z" class="cls-6"/><path d="M252.65,77.95s.01.02.01.04c0,.01,0,.02,0,.03,0,.01,0,.02-.01.03,0,0-.01.01-.02.02,0,0-.01.01-.02.01-.01,0-.03,0-.04,0,0,0-.02,0-.03,0,0,0-.01,0-.02,0l-1.38-.87s-.02-.02-.03-.03c0-.01-.01-.02-.01-.04,0-.01,0-.02,0-.03,0-.01,0-.02.01-.03,0-.01.02-.02.03-.03.01,0,.02-.01.04-.01.01,0,.02,0,.03,0,.01,0,.02,0,.03.01l1.38.87s.02.02.03.03Z" class="cls-6"/><circle r=".5" cy="57.06" cx="295.17" class="cls-2"/><circle r=".5" cy="57.06" cx="215.2" class="cls-2"/><circle r=".5" cy="57.06" cx="208.46" class="cls-2"/><rect height="85.93" width="67.54" y="151.22" x="442.23" class="cls-5"/><path d="M465.97,238.13c.1,0,.18-.08.18-.18v-85.33c0-4.58-2.9-5.95-6.47-5.95h0c-3.57,0-6.47,1.38-6.47,5.95v85.33c0,.1.08.18.18.18h12.57Z" class="cls-5"/><path d="M452.08,238.13c.1,0,.18-.08.18-.18v-85.33c0-4.58-1.41-5.95-3.16-5.95h0c-1.74,0-1.54,0-1.54,0l-1.62,91.28c0,.1.08.18.18.18h5.95Z" class="cls-5"/><path d="M445.46,238.13c.1,0,.18-.08.18-.18v-85.33c0-4.58-.66-5.95-1.47-5.95h-1.92l.45,91.28c0,.1.08.18.18.18h2.58Z" class="cls-5"/><path d="M484.35,237.94v-85.33c0-4.58-3.66-5.95-8.17-5.95h0c-4.51,0-8.17,1.38-8.17,5.95v85.33c0,.1.08.18.18.18h15.97c.1,0,.18-.08.18-.18Z" class="cls-5"/><path d="M465.09,238.13c.1,0,.18-.08.18-.18v-85.33c0-4.58-2.9-5.95-6.47-5.95h0c-3.57,0-6.47,1.38-6.47,5.95v85.33c0,.1.08.18.18.18h12.57Z" class="cls-5"/><path d="M450.63,238.13c.1,0,.18-.08.18-.18v-85.33c0-4.58-1.41-5.95-3.16-5.95h0c-1.74,0-3.16,1.38-3.16,5.95v85.33c0,.1.08.18.18.18h5.95Z" class="cls-5"/><path d="M443.53,238.13c.1,0,.18-.08.18-.18v-85.33c0-4.58-.66-5.95-1.47-5.95h0c-.81,0-1.47,1.38-1.47,5.95v85.33c0,.1.08.18.18.18h2.58Z" class="cls-5"/><path d="M486.31,238.13c-.1,0-.18-.08-.18-.18v-85.33c0-4.58,2.9-5.95,6.47-5.95h0c3.57,0,6.47,1.38,6.47,5.95v85.33c0,.1-.08.18-.18.18h-12.57Z" class="cls-5"/><path d="M500.32,238.13c-.1,0-.18-.08-.18-.18v-85.33c0-4.58,1.41-5.95,3.16-5.95h0c1.74,0,1.54,0,1.54,0l1.62,91.28c0,.1-.08.18-.18.18h-5.95Z" class="cls-5"/><path d="M506.9,238.13c-.1,0-.18-.08-.18-.18v-85.33c0-4.58.66-5.95,1.47-5.95h0c.81,0,1.05,0,1.92,0l-.45,91.28c0,.1-.08.18-.18.18h-2.58Z" class="cls-5"/><path d="M487.28,238.13c-.1,0-.18-.08-.18-.18v-85.33c0-4.58,2.9-5.95,6.47-5.95h0c3.57,0,6.47,1.38,6.47,5.95v85.33c0,.1-.08.18-.18.18h-12.57Z" class="cls-5"/><path d="M501.74,238.13c-.1,0-.18-.08-.18-.18v-85.33c0-4.58,1.41-5.95,3.16-5.95h0c1.74,0,3.16,1.38,3.16,5.95v85.33c0,.1-.08.18-.18.18h-5.95Z" class="cls-5"/><path d="M508.84,238.13c-.1,0-.18-.08-.18-.18v-85.33c0-4.58.66-5.95,1.47-5.95h0c.81,0,1.47,1.38,1.47,5.95v85.33c0,.1-.08.18-.18.18h-2.58Z" class="cls-5"/><path d="M510.13,146.66h0s0,0-.01,0h0c-.87,0-1.11,0-1.92,0h0c-.44,0-.56-.09-1.16,1.05-.75-.95-1.3-.96-2.2-1.05h0s-.04,0-.11,0h-1.42c-1.56,0-2.86.65-3.11,4.56h-.24c-.52-3.91-3.17-4.56-6.38-4.56h0c-.16,0-.33,0-.49.02-.16-.02-.32-.02-.49-.02h0c-3.2,0-5.86.65-6.38,4.56h-1.98c-.65-3.91-4.01-4.56-8.05-4.56h0c-4.04,0-7.4.65-8.05,4.56h-2.08c-.52-3.91-3.17-4.56-6.38-4.56h0c-.15,0-.29,0-.44.02-.14-.01-.29-.02-.44-.02h0c-3.2,0-5.86.65-6.38,4.56h-.21c-.25-3.91-1.55-4.56-3.11-4.56h-1.54c-.92.07-1.26-.04-2.26,1.15-.67-1.22-.71-1.16-1.15-1.16h-1.92c-.81,0-1.47,1.38-1.47,5.95v85.33c0,.1.08.18.18.18h3.73s1.45,0,1.45,0h5.95c.1,0,.18-.08.18-.18v-.78h.08v.78c0,.1.08.18.18.18h13.45c.1,0,.18-.08.18-.18v-.78h1.87v.78c0,.1.08.18.18.18h15.97c.1,0,.18-.08.18-.18v-.78h1.77v.78c0,.1.08.18.18.18h13.54c.1,0,.18-.08.18-.18v-.78h.11v.78c0,.1.08.18.18.18h7.37s1.14,0,1.14,0h2.58c.1,0,.18-.08.18-.18v-85.33c0-4.58-.66-5.95-1.47-5.95Z" class="cls-4"/><ellipse ry="3.23" rx="3.26" cy="232.5" cx="493.91" class="cls-5"/><use xlink:href="#Floema_.com" transform="translate(491.56 231.96) scale(.04)" height="37.45" width="135.29"/><rect height="167.53" width="13.94" y="120.12" x="469.11" class="cls-5"/><line y2="120.12" x2="511.58" y1="120.12" x1="440.4" class="cls-5"/><rect height="167.53" width="13.94" y="120.12" x="469.11" class="cls-4"/><path d="M338.59,84.19l.31.02.23.79.35-.75.31.02-.53,1.07-.31-.02-.36-1.14Z" class="cls-6"/><path d="M339.91,84.28h.29s-.05,1.12-.05,1.12h-.29s.05-1.12.05-1.12ZM339.9,83.94c0-.1.09-.17.18-.17.1,0,.17.09.17.18s-.09.17-.18.17c-.09,0-.17-.09-.17-.18Z" class="cls-6"/><path d="M341.25,85.28c-.09.11-.21.16-.34.16-.28,0-.49-.22-.48-.59,0-.36.22-.58.5-.58.13,0,.25.06.34.17v-.56s.3,0,.3,0l-.02,1.53h-.29s0-.14,0-.14ZM341.26,84.67c-.05-.07-.15-.13-.25-.13-.16,0-.28.13-.28.32,0,.19.11.32.28.32.1,0,.2-.05.25-.12v-.39Z" class="cls-6"/><path d="M341.83,84.31h.29s0,.14,0,.14c.07-.1.21-.18.35-.19v.28s-.04,0-.07,0c-.1,0-.22.06-.27.13l.03.73h-.29s-.04-1.1-.04-1.1Z" class="cls-6"/><path d="M342.62,84.84c-.02-.31.17-.59.54-.62.37-.03.61.22.63.53.02.32-.17.6-.54.62-.36.03-.6-.22-.63-.54ZM343.48,84.77c-.01-.17-.13-.31-.31-.3-.18.01-.27.17-.26.34.01.17.13.31.31.3.18-.01.27-.17.26-.34Z" class="cls-6"/><path d="M338.78,88.4c.08.12.19.17.35.18.18.01.36-.06.38-.3v-.16c-.08.11-.22.18-.37.17-.29-.02-.47-.25-.45-.61.03-.35.25-.56.54-.53.15.01.27.1.35.22v-.17s.18.01.18.01l-.09,1.07c-.03.37-.29.46-.56.44-.19-.02-.31-.06-.43-.2l.1-.12ZM339.56,87.5c-.05-.1-.18-.19-.31-.2-.22-.02-.37.15-.39.39-.02.24.1.43.32.45.14.01.28-.06.34-.15l.04-.48Z" class="cls-6"/><path d="M340.11,86.8h.17s-.07,1.54-.07,1.54h-.17s.07-1.54.07-1.54Z" class="cls-6"/><path d="M341.28,88.24c-.09.1-.22.15-.37.15-.19,0-.38-.13-.38-.37,0-.25.21-.36.39-.36.15,0,.28.05.36.16v-.2c0-.15-.11-.24-.27-.24-.13,0-.24.04-.34.15l-.08-.12c.12-.12.26-.18.45-.18.23,0,.43.11.42.38v.76s-.19,0-.19,0v-.13ZM341.29,87.92c-.06-.09-.18-.14-.3-.14-.16,0-.27.1-.28.24,0,.14.11.24.27.25.12,0,.24-.04.31-.13v-.21Z" class="cls-6"/><path d="M341.82,88.1c.08.08.22.15.37.15.17,0,.26-.08.26-.19,0-.12-.14-.16-.29-.19-.19-.04-.4-.09-.41-.32,0-.17.14-.32.41-.33.19,0,.32.06.41.15l-.08.12c-.07-.08-.19-.14-.33-.13-.15,0-.24.07-.24.17,0,.11.13.14.27.17.19.04.42.09.42.34,0,.19-.14.34-.43.34-.18,0-.34-.05-.45-.17l.09-.13Z" class="cls-6"/><path d="M342.9,88.07c.08.08.22.15.37.14.17,0,.26-.09.25-.2,0-.12-.14-.15-.3-.18-.19-.03-.41-.07-.42-.3,0-.17.13-.33.39-.34.19-.01.33.05.42.14l-.07.12c-.07-.08-.2-.13-.34-.12-.15,0-.24.08-.24.18,0,.11.13.13.28.16.2.03.42.07.43.32.01.19-.13.34-.42.36-.18.01-.34-.04-.46-.15l.08-.13Z" class="cls-6"/><path d="M343.68,76.97s-.02-.01-.03-.01c-.01,0-.02,0-.04,0-.03,0-.05,0-.08,0-.03,0-.05,0-.08,0-.03,0-.05,0-.08,0-.03,0-.05,0-.08,0-.04,0-.09,0-.13,0-.11,0-.22,0-.33-.03-.1-.01-.2-.04-.3-.06-.02,0-.03,0-.04,0-.01,0-.03,0-.04.02,0,0-.02.01-.02.02,0,0-.01.02-.01.03,0,.02,0,.03,0,.04,0,.01,0,.03.02.04,0,0,.01.02.02.02,0,0,.02.01.03.01.04.01.09.02.13.03.05,0,.09.02.14.02.05,0,.1.01.15.02.05,0,.1,0,.15.01.05,0,.1,0,.16,0,.03,0,.07,0,.1,0,.11,0,.22-.01.34-.02.01,0,.03,0,.04-.01.01,0,.02-.02.03-.03,0,0,.01-.02.01-.03,0-.01,0-.02,0-.04,0-.01,0-.03-.01-.04,0-.01-.02-.02-.03-.03Z" class="cls-6"/><path d="M343.47,80.44c-.05,0-.1,0-.16,0-.03,0-.07,0-.1,0-.11,0-.22.01-.34.02-.01,0-.03,0-.04.01-.01,0-.02.02-.03.03,0,0-.01.02-.01.03,0,.01,0,.02,0,.04,0,.01,0,.03.01.04,0,.01.02.02.03.03,0,0,.02.01.03.01.01,0,.02,0,.04,0,.03,0,.05,0,.08,0,.03,0,.05,0,.08,0,.03,0,.05,0,.08,0,.03,0,.05,0,.08,0,.04,0,.09,0,.13,0,.11,0,.22,0,.33.03.1.01.2.04.3.06,0,0,0,0,.01,0,0,0,0,0,0,0,0,0,0,0,0,0h0s.02,0,.03,0,.02,0,.03-.02c0,0,.02-.01.02-.02,0,0,0-.02.01-.03,0-.02,0-.03,0-.04,0-.01,0-.03-.02-.04,0,0-.01-.02-.02-.02,0,0-.02-.01-.03-.01-.04-.01-.09-.02-.13-.03-.05,0-.09-.02-.14-.02-.05,0-.1-.01-.15-.02-.05,0-.1,0-.15-.01Z" class="cls-6"/><path d="M342.51,80.54s-.02,0-.03,0c-.01,0-.02,0-.04,0-.05.01-.09.03-.14.05-.03.01-.07.03-.1.04-.01,0-.03.02-.04.03,0,.01-.02.02-.02.04,0,.01,0,.02,0,.03,0,.01,0,.02,0,.03,0,0,0,.02.02.02,0,0,.01.01.02.02,0,0,.01,0,.02,0,0,0,.01,0,.02,0s.01,0,.02,0c.01,0,.03,0,.04,0,.04-.02.07-.03.11-.04.03-.01.07-.02.1-.03.01,0,.03-.01.04-.02.01,0,.02-.02.03-.04,0-.01,0-.02,0-.03,0-.01,0-.02,0-.04,0-.01-.01-.03-.02-.04,0-.01-.02-.02-.04-.03Z" class="cls-6"/><path d="M340.94,78.57s-.02-.01-.03-.02c-.01,0-.02,0-.04,0-.02,0-.03,0-.04,0-.01,0-.02.02-.03.03,0,0-.01.02-.02.03,0,.01,0,.02,0,.04v1.38s0,.02,0,.04c0,.01-.01.03-.02.04,0,.01-.02.03-.03.04-.01.01-.03.03-.04.04-.04.03-.08.05-.12.08-.05.03-.11.05-.17.07-.09.03-.19.06-.29.08-.12.03-.24.04-.36.06-.14.01-.28.02-.42.02-.14,0-.28,0-.42-.02-.12-.01-.24-.03-.36-.06-.1-.02-.19-.05-.29-.08-.06-.02-.11-.04-.17-.07-.04-.02-.08-.05-.12-.08-.02-.01-.03-.02-.04-.04-.01-.01-.02-.02-.03-.04,0-.01-.01-.02-.02-.04,0-.01,0-.02,0-.04v-1.38s0-.03,0-.04c0-.01-.02-.02-.03-.03,0,0-.02-.01-.03-.02-.01,0-.02,0-.04,0-.02,0-.03,0-.04,0-.01,0-.02.02-.03.03,0,0-.01.02-.02.03,0,.01,0,.02,0,.04v1.38c0,.05.02.11.04.15.02.05.06.09.11.13.05.04.11.08.17.11.07.04.14.07.22.09.11.04.23.07.34.09.13.03.26.05.39.06.13.01.27.02.4.02.13,0,.27,0,.4-.02.13-.01.26-.03.39-.06.12-.02.23-.05.34-.09.07-.03.15-.06.22-.09.06-.03.12-.07.17-.11.04-.04.08-.08.11-.13.02-.05.03-.1.04-.15v-1.38s0-.03,0-.04c0-.01-.02-.02-.03-.03Z" class="cls-6"/><path d="M342.65,74.71s.04.04.07.05c.03.02.06.03.08.04.07.03.14.04.21.06.08.01.16.01.24.02.08,0,.16,0,.24-.02.07-.01.14-.03.21-.06.03-.01.06-.03.08-.04.02-.01.05-.03.07-.05.02-.02.03-.04.04-.06,0-.02.01-.05.01-.07v-.4s0,0,0-.01c0,0,0,0,0,0,0-.02-.01-.05-.02-.07-.01-.02-.03-.04-.05-.06-.04-.04-.1-.07-.15-.09-.07-.03-.14-.04-.21-.05-.08-.01-.16-.01-.23-.02-.08,0-.16,0-.23.02-.07,0-.14.03-.21.05-.05.02-.11.05-.15.09-.02.02-.03.04-.05.06-.01.02-.02.04-.02.07,0,0,0,0,0,.01,0,0,0,0,0,0v.4s0,.05.01.07c0,.02.02.04.04.06ZM342.83,74.16s.03-.01.04-.02c.03-.01.07-.02.1-.03.04,0,.08-.02.12-.02.05,0,.1,0,.16,0,.06,0,.13,0,.19.01.05,0,.1.02.14.03.03,0,.05.02.08.03.01,0,.03.02.04.03-.01,0-.02.01-.03.02-.02,0-.03.02-.05.02-.04.01-.08.03-.12.03-.05,0-.1.02-.15.02-.06,0-.12,0-.18,0-.05,0-.1,0-.15-.02-.04,0-.08-.02-.11-.03-.02,0-.04-.01-.06-.03-.01,0-.02-.02-.04-.02,0,0,.02-.01.03-.02ZM342.8,74.4c.08.02.16.05.24.06.07.01.14.01.22.01.09,0,.18,0,.27-.02.06-.01.12-.03.19-.05v.17s0,0,0,0c0,0-.01,0-.02.01-.01,0-.02.01-.04.02-.03.01-.07.03-.1.03-.04.01-.09.02-.13.02-.05,0-.11,0-.17,0-.07,0-.14,0-.2-.01-.05,0-.1-.02-.15-.03-.03,0-.05-.02-.08-.03,0,0-.01,0-.02-.01,0,0,0,0-.01-.01v-.17Z" class="cls-6"/><path d="M340.84,77.49c-.05-.04-.11-.08-.17-.11-.07-.04-.14-.07-.22-.09-.11-.04-.23-.07-.35-.09-.13-.03-.26-.05-.39-.06-.13-.01-.27-.02-.4-.02-.13,0-.27,0-.4.02-.13.01-.26.03-.39.06-.12.02-.23.05-.35.09-.07.03-.15.06-.22.09-.06.03-.12.07-.17.11-.04.04-.08.08-.11.13-.02.05-.03.1-.04.15v.39c0,.05.02.11.04.15.02.05.06.09.11.13.05.04.11.08.17.11.07.04.14.07.22.09.11.04.23.07.35.09.13.03.26.05.39.06.13.01.27.02.4.02.13,0,.27,0,.4-.02.13-.01.26-.03.39-.06.12-.02.23-.05.35-.09.07-.03.15-.06.22-.09.06-.03.12-.07.17-.11.04-.04.08-.08.11-.13.02-.05.03-.1.04-.15v-.39c0-.05-.02-.11-.04-.15-.02-.05-.06-.1-.11-.13ZM340.79,78.17s0,.02,0,.04c0,.01-.01.03-.02.04,0,.01-.02.03-.03.04-.01.01-.03.03-.04.04-.04.03-.08.05-.12.08-.05.03-.11.05-.17.07-.09.03-.19.06-.29.08-.12.03-.24.04-.36.06-.14.01-.28.02-.42.02-.14,0-.28,0-.42-.02-.12-.01-.24-.03-.36-.06-.1-.02-.2-.05-.29-.08-.06-.02-.11-.04-.17-.07-.04-.02-.08-.05-.12-.08-.02-.01-.03-.03-.04-.04-.01-.01-.02-.02-.03-.04,0-.01-.01-.02-.02-.04,0-.01,0-.02,0-.04v-.06c.06.04.13.08.2.11.08.04.16.07.25.09.09.03.19.05.28.07.12.02.24.04.36.05.12.01.25.01.38.02.16,0,.32,0,.48-.03.15-.02.3-.04.45-.08.1-.03.21-.06.3-.1.08-.04.16-.08.24-.13v.06ZM340.78,77.81s-.01.03-.02.04c0,.01-.02.03-.03.04-.01.01-.03.03-.04.04-.04.03-.08.05-.12.08-.05.03-.11.05-.17.07-.09.03-.19.06-.29.08-.12.03-.24.04-.36.06-.14.01-.28.02-.42.02-.14,0-.28,0-.42-.02-.12-.01-.24-.03-.36-.06-.1-.02-.2-.05-.29-.08-.06-.02-.11-.04-.17-.07-.04-.02-.08-.05-.12-.08-.02-.01-.03-.02-.04-.04-.01-.01-.02-.02-.03-.04,0-.01-.01-.02-.02-.04,0-.01,0-.02,0-.04s0-.02,0-.04c0-.01.01-.03.02-.04,0-.01.02-.03.03-.04.01-.01.03-.03.04-.04.04-.03.08-.05.12-.08.05-.03.11-.05.17-.07.09-.03.19-.06.29-.08.12-.03.24-.04.36-.06.14-.01.28-.02.42-.02.14,0,.28,0,.42.02.12.01.24.03.36.06.1.02.2.05.29.08.06.02.11.04.17.07.04.02.08.05.12.08.02.01.03.03.04.04.01.01.02.02.03.04,0,.01.01.02.02.04,0,.01,0,.02,0,.04s0,.02,0,.04Z" class="cls-6"/><path d="M338.11,79.99s.02.01.03.02c.01,0,.02,0,.04,0,.02,0,.03,0,.04,0,.01,0,.02-.02.03-.03,0,0,.01-.02.02-.03,0-.01,0-.02,0-.04v-.93s0-.03,0-.04c0-.01-.02-.02-.03-.03,0,0-.02-.01-.03-.02-.01,0-.02,0-.04,0-.02,0-.03,0-.04,0-.01,0-.02.02-.03.03,0,0-.01.02-.02.03,0,.01,0,.02,0,.04v.93s0,.03,0,.04c0,.01.02.02.03.03Z" class="cls-6"/><path d="M344.61,76.89c-.02-.07-.04-.14-.08-.2-.04-.07-.08-.13-.13-.18-.06-.07-.13-.14-.21-.19-.08-.06-.17-.11-.26-.15-.02-.01-.04-.02-.06-.04-.02-.01-.03-.03-.04-.05,0-.02-.02-.03-.02-.05,0-.02,0-.03,0-.05v-.95s0-.03,0-.04c0-.01-.02-.02-.03-.03,0,0-.02-.01-.03-.02-.01,0-.02,0-.04,0-.02,0-.03,0-.04,0-.01,0-.02.02-.03.03,0,0-.01.02-.02.03,0,.01,0,.02,0,.04v.95s0,.09.02.13c.01.04.03.08.06.11.02.03.04.05.07.07.03.02.06.04.09.06.09.05.19.1.27.16.07.06.14.13.19.21.04.06.07.12.09.18.02.06.02.13.03.2v3.88s0,.02,0,.03c0,.01-.01.02-.02.03-.02.02-.04.04-.06.05-.03.02-.07.04-.1.06-.04.02-.09.04-.14.06-.08.03-.15.05-.23.06-.1.02-.19.03-.29.04-.11.01-.22.01-.34.02-.11,0-.22,0-.34-.02-.1,0-.19-.02-.29-.04-.08-.02-.16-.04-.23-.06-.05-.02-.09-.03-.14-.06-.03-.02-.07-.04-.1-.06-.01-.01-.03-.02-.04-.03,0-.01-.02-.02-.03-.03,0,0,0-.02-.01-.03,0,0,0-.02,0-.02v-3.88c.01-.09.02-.17.05-.25.03-.08.08-.16.14-.23.05-.06.11-.11.17-.15.07-.05.14-.09.22-.13.04-.02.08-.04.11-.07.03-.03.06-.06.08-.1.02-.03.03-.06.04-.09,0-.03.01-.07.01-.1v-.95s0-.03,0-.04c0-.01-.02-.02-.03-.03,0,0-.02-.01-.03-.02-.01,0-.02,0-.04,0-.02,0-.03,0-.04,0-.01,0-.02.02-.03.03,0,0-.01.02-.02.03,0,.01,0,.02,0,.04v.95s0,.04-.01.07c0,.02-.02.04-.03.06-.01.01-.02.03-.04.04-.01.01-.03.02-.05.03-.08.04-.15.08-.23.13-.07.04-.13.1-.19.15-.05.05-.1.11-.14.18-.05.07-.08.15-.11.23-.02.08-.03.16-.04.25v3.88s.01.09.03.13c.02.04.05.08.09.11.04.04.09.07.14.1.06.03.12.06.18.08.09.03.19.06.28.08.11.02.21.04.32.05.11,0,.23.01.34.02.11,0,.23,0,.34-.02.11,0,.22-.03.32-.05.1-.02.19-.05.28-.08.06-.02.12-.05.18-.08.05-.03.09-.06.14-.1.04-.03.07-.07.09-.11.02-.04.02-.08.03-.13v-3.88c0-.07-.01-.14-.03-.21Z" class="cls-6"/><path d="M338.83,79.61s.02,0,.04,0c.03,0,.05,0,.08,0,.03,0,.05,0,.08,0,.03,0,.06,0,.08,0,.03,0,.06,0,.08,0,.03,0,.06,0,.08,0,.05,0,.1,0,.15,0,.14,0,.27.01.41.03.12.02.25.04.37.07,0,0,0,0,.01,0,0,0,0,0,0,0,0,0,0,0,0,0,0,0,0,0,0,0h0s.02,0,.03,0c.01,0,.02,0,.03-.02s.02-.01.02-.02c0,0,.01-.02.01-.03,0-.02,0-.03,0-.04,0-.01,0-.03-.02-.04,0,0-.01-.02-.02-.02,0,0-.02-.01-.03-.01-.05-.01-.11-.03-.16-.04-.06-.01-.11-.02-.17-.03-.06,0-.12-.02-.18-.02-.06,0-.12-.01-.18-.01-.06,0-.13,0-.19,0-.04,0-.08,0-.13,0-.14,0-.27.01-.41.02-.01,0-.03,0-.04.01-.01,0-.02.02-.03.03,0,0-.01.02-.01.03,0,.01,0,.02,0,.04,0,.01,0,.03.01.04,0,.01.02.02.03.03,0,0,.02.01.03.01Z" class="cls-6"/><line y2="287.55" x2="11.39" y1="120.37" x1="11.39" class="cls-3"/><rect height=".3" width="1.95" y="120.22" x="10.42" class="cls-6"/><rect height=".3" width="1.95" y="287.4" x="10.42" class="cls-6"/><path d="M3.01,217.31h5.29v.72H3.76l.64,1.3h-.73l-.67-1.36v-.67Z"/><path d="M3.16,213.6c.13-.25.32-.47.55-.65.23-.18.52-.32.85-.42.33-.1.69-.15,1.08-.15s.76.05,1.1.15.62.24.86.42c.24.18.43.4.56.65.13.25.2.52.2.83s-.07.57-.2.82-.32.47-.56.65c-.24.18-.53.32-.86.42-.33.1-.7.15-1.1.15s-.75-.05-1.08-.15c-.33-.1-.61-.24-.85-.42-.24-.18-.42-.4-.55-.65-.13-.25-.2-.53-.2-.83s.07-.58.2-.83ZM3.79,214.95c.1.16.23.29.41.41.18.11.38.2.63.27.24.07.51.1.81.1s.57-.03.82-.09c.25-.06.46-.15.64-.27.18-.12.32-.25.42-.41.1-.16.15-.33.15-.52s-.05-.37-.15-.53c-.1-.16-.24-.3-.42-.41-.18-.11-.39-.2-.64-.27-.25-.06-.52-.09-.82-.09s-.56.03-.81.09c-.25.06-.46.15-.63.26-.17.11-.31.25-.41.41-.1.16-.15.34-.15.53s.05.37.15.52Z"/><path d="M3.16,208.96c.13-.25.32-.47.55-.65.23-.18.52-.32.85-.42.33-.1.69-.15,1.08-.15s.76.05,1.1.15.62.24.86.42c.24.18.43.4.56.65.13.25.2.52.2.83s-.07.57-.2.82-.32.47-.56.65c-.24.18-.53.32-.86.42-.33.1-.7.15-1.1.15s-.75-.05-1.08-.15c-.33-.1-.61-.24-.85-.42-.24-.18-.42-.4-.55-.65-.13-.25-.2-.53-.2-.83s.07-.58.2-.83ZM3.79,210.32c.1.16.23.29.41.41.18.11.38.2.63.27.24.07.51.1.81.1s.57-.03.82-.09c.25-.06.46-.15.64-.27.18-.12.32-.25.42-.41.1-.16.15-.33.15-.52s-.05-.37-.15-.53c-.1-.16-.24-.3-.42-.41-.18-.11-.39-.2-.64-.27-.25-.06-.52-.09-.82-.09s-.56.03-.81.09c-.25.06-.46.15-.63.26-.17.11-.31.25-.41.41-.1.16-.15.34-.15.53s.05.37.15.52Z"/><path d="M3.16,204.33c.13-.25.32-.47.55-.65.23-.18.52-.32.85-.42.33-.1.69-.15,1.08-.15s.76.05,1.1.15.62.24.86.42c.24.18.43.4.56.65.13.25.2.52.2.83s-.07.57-.2.82-.32.47-.56.65c-.24.18-.53.32-.86.42-.33.1-.7.15-1.1.15s-.75-.05-1.08-.15c-.33-.1-.61-.24-.85-.42-.24-.18-.42-.4-.55-.65-.13-.25-.2-.53-.2-.83s.07-.58.2-.83ZM3.79,205.68c.1.16.23.29.41.41.18.11.38.2.63.27.24.07.51.1.81.1s.57-.03.82-.09c.25-.06.46-.15.64-.27.18-.12.32-.25.42-.41.1-.16.15-.33.15-.52s-.05-.37-.15-.53c-.1-.16-.24-.3-.42-.41-.18-.11-.39-.2-.64-.27-.25-.06-.52-.09-.82-.09s-.56.03-.81.09c-.25.06-.46.15-.63.26-.17.11-.31.25-.41.41-.1.16-.15.34-.15.53s.05.37.15.52Z"/><path d="M4.66,199.5h.67c-.24-.11-.42-.26-.54-.45-.12-.18-.18-.4-.18-.63,0-.26.07-.48.2-.67.14-.19.33-.32.59-.41-.26-.11-.45-.27-.59-.46-.14-.2-.2-.43-.2-.7,0-.38.12-.67.37-.88.25-.21.61-.31,1.07-.31h2.25v.7h-2.16c-.29,0-.52.07-.69.2-.17.13-.25.31-.25.54,0,.12.02.22.07.32.05.1.11.18.2.26.09.07.19.13.32.16.12.04.26.06.4.06h2.11v.7h-2.16c-.14,0-.27.02-.38.06-.12.04-.22.09-.3.15-.08.06-.14.14-.19.23-.04.09-.07.2-.07.31s.02.22.07.32c.05.1.12.18.21.25.09.07.2.12.32.17.12.04.26.06.41.06h2.09v.7h-3.64v-.68Z"/><path d="M4.66,193.32h.67c-.24-.11-.42-.26-.54-.45-.12-.18-.18-.4-.18-.63,0-.26.07-.48.2-.67.14-.19.33-.32.59-.41-.26-.11-.45-.27-.59-.46-.14-.2-.2-.43-.2-.7,0-.38.12-.67.37-.88.25-.21.61-.31,1.07-.31h2.25v.7h-2.16c-.29,0-.52.07-.69.2-.17.13-.25.31-.25.54,0,.12.02.22.07.32.05.1.11.18.2.26.09.07.19.13.32.16.12.04.26.06.4.06h2.11v.7h-2.16c-.14,0-.27.02-.38.06-.12.04-.22.09-.3.15-.08.06-.14.14-.19.23-.04.09-.07.2-.07.31s.02.22.07.32c.05.1.12.18.21.25.09.07.2.12.32.17.12.04.26.06.41.06h2.09v.7h-3.64v-.68Z"/><line y2="9.24" x2="30.77" y1="9.24" x1="393.19" class="cls-3"/><rect height="1.95" width=".3" y="8.26" x="393.04" class="cls-6"/><rect height="1.95" width=".3" y="8.26" x="30.62" class="cls-6"/><path d="M198.69.92c.21.08.39.19.54.33.15.14.27.31.35.51.08.2.13.42.13.67,0,.14-.02.28-.05.42s-.08.28-.15.41-.16.27-.27.42c-.11.14-.24.29-.39.45l-1.31,1.35h2.29v.67h-3.32v-.59l1.79-1.85c.12-.12.22-.23.3-.33.08-.1.15-.21.2-.3.05-.1.09-.19.11-.29.02-.09.03-.19.03-.29,0-.15-.02-.28-.07-.4-.04-.12-.11-.23-.2-.32-.09-.09-.19-.16-.3-.21-.11-.05-.24-.07-.39-.07-.25,0-.47.08-.65.23-.18.15-.31.36-.39.63l-.67-.23c.12-.42.32-.75.62-.97s.66-.34,1.1-.34c.25,0,.48.04.69.12Z"/><path d="M202.72.92c.21.08.39.19.54.33.15.14.27.31.35.51.08.2.13.42.13.67,0,.14-.02.28-.05.42s-.08.28-.15.41-.16.27-.27.42c-.11.14-.24.29-.39.45l-1.31,1.35h2.29v.67h-3.32v-.59l1.79-1.85c.12-.12.22-.23.3-.33.08-.1.15-.21.2-.3.05-.1.09-.19.11-.29.02-.09.03-.19.03-.29,0-.15-.02-.28-.07-.4-.04-.12-.11-.23-.2-.32-.09-.09-.19-.16-.3-.21-.11-.05-.24-.07-.39-.07-.25,0-.47.08-.65.23-.18.15-.31.36-.39.63l-.67-.23c.12-.42.32-.75.62-.97s.66-.34,1.1-.34c.25,0,.48.04.69.12Z"/><path d="M207.27,1c.25.13.47.32.65.55.18.23.32.52.42.85.1.33.15.69.15,1.08s-.05.76-.15,1.1c-.1.33-.24.62-.42.86s-.4.43-.65.56c-.25.13-.52.2-.83.2s-.57-.07-.82-.2-.47-.32-.65-.56c-.18-.24-.32-.53-.42-.86-.1-.33-.15-.7-.15-1.1s.05-.75.15-1.08c.1-.33.24-.61.42-.85.18-.24.4-.42.65-.55.25-.13.53-.2.83-.2s.58.07.83.2ZM205.91,1.63c-.16.1-.29.23-.41.41-.11.18-.2.38-.27.63-.07.24-.1.51-.1.8s.03.57.09.82c.06.25.15.46.27.64.12.18.25.32.41.42.16.1.33.15.52.15s.37-.05.53-.15c.16-.1.3-.24.41-.42.11-.18.2-.39.27-.64.06-.25.09-.52.09-.82s-.03-.56-.09-.81c-.06-.25-.15-.46-.26-.63-.11-.17-.25-.31-.41-.41-.16-.1-.34-.15-.53-.15s-.37.05-.52.15Z"/><path d="M211.9,1c.25.13.47.32.65.55.18.23.32.52.42.85.1.33.15.69.15,1.08s-.05.76-.15,1.1c-.1.33-.24.62-.42.86s-.4.43-.65.56c-.25.13-.52.2-.83.2s-.57-.07-.82-.2-.47-.32-.65-.56c-.18-.24-.32-.53-.42-.86-.1-.33-.15-.7-.15-1.1s.05-.75.15-1.08c.1-.33.24-.61.42-.85.18-.24.4-.42.65-.55.25-.13.53-.2.83-.2s.58.07.83.2ZM210.55,1.63c-.16.1-.29.23-.41.41-.11.18-.2.38-.27.63-.07.24-.1.51-.1.8s.03.57.09.82c.06.25.15.46.27.64.12.18.25.32.41.42.16.1.33.15.52.15s.37-.05.53-.15c.16-.1.3-.24.41-.42.11-.18.2-.39.27-.64.06-.25.09-.52.09-.82s-.03-.56-.09-.81c-.06-.25-.15-.46-.26-.63-.11-.17-.25-.31-.41-.41-.16-.1-.34-.15-.53-.15s-.37.05-.52.15Z"/><path d="M216.73,2.5v.67c.11-.24.26-.42.45-.54s.4-.18.63-.18c.26,0,.48.07.67.2.19.14.32.33.41.59.11-.26.27-.45.46-.59.2-.13.43-.2.7-.2.38,0,.67.12.88.37s.31.61.31,1.07v2.25h-.7v-2.16c0-.29-.07-.52-.2-.69-.13-.17-.31-.25-.54-.25-.12,0-.22.02-.32.07-.1.05-.18.11-.26.2-.07.09-.13.2-.16.32-.04.12-.06.26-.06.4v2.11h-.7v-2.16c0-.14-.02-.27-.06-.38-.04-.12-.09-.22-.15-.3-.06-.08-.14-.14-.23-.19-.09-.04-.2-.07-.31-.07s-.22.02-.32.07c-.1.05-.18.12-.25.21s-.12.2-.17.32c-.04.12-.06.26-.06.41v2.09h-.7v-3.64h.68Z"/><path d="M222.91,2.5v.67c.11-.24.26-.42.45-.54s.4-.18.63-.18c.26,0,.48.07.67.2.19.14.32.33.41.59.11-.26.27-.45.46-.59.2-.13.43-.2.7-.2.38,0,.67.12.88.37s.31.61.31,1.07v2.25h-.7v-2.16c0-.29-.07-.52-.2-.69-.13-.17-.31-.25-.54-.25-.12,0-.22.02-.32.07-.1.05-.18.11-.26.2-.07.09-.13.2-.16.32-.04.12-.06.26-.06.4v2.11h-.7v-2.16c0-.14-.02-.27-.06-.38-.04-.12-.09-.22-.15-.3-.06-.08-.14-.14-.23-.19-.09-.04-.2-.07-.31-.07s-.22.02-.32.07c-.1.05-.18.12-.25.21s-.12.2-.17.32c-.04.12-.06.26-.06.41v2.09h-.7v-3.64h.68Z"/><line y2="92.49" x2="11.39" y1="21.62" x1="11.39" class="cls-3"/><rect height=".3" width="1.95" y="21.47" x="10.42" class="cls-6"/><rect height=".3" width="1.95" y="92.34" x="10.42" class="cls-6"/><path d="M3.01,67.09h5.29v.73H3.94s.08.04.1.06c.03.02.06.04.09.07l2.02,1.35s.06.04.08.05.05.03.08.06v-3.2h.64v3.98h-.59l-3.35-2.22v-.87Z"/><path d="M3.08,63.57c.08-.21.19-.39.33-.54.14-.15.31-.27.51-.35.2-.08.42-.13.67-.13.14,0,.28.02.42.05.14.03.28.08.41.15.14.07.27.16.42.27.14.11.29.24.45.39l1.35,1.31v-2.29h.67v3.32h-.59l-1.85-1.79c-.12-.12-.23-.22-.33-.3-.1-.08-.21-.15-.3-.2-.1-.05-.19-.09-.29-.11-.09-.02-.19-.03-.29-.03-.15,0-.28.02-.4.07-.12.04-.23.11-.32.2-.09.09-.16.19-.21.3-.05.11-.07.24-.07.39,0,.25.08.47.23.65.15.18.36.31.63.39l-.23.67c-.42-.12-.74-.32-.97-.62s-.34-.66-.34-1.1c0-.25.04-.48.12-.69Z"/><path d="M3.01,58.78h.65v1.92l1.54.25c-.09-.1-.16-.22-.21-.36-.05-.14-.07-.29-.07-.46,0-.25.04-.47.13-.68.08-.21.2-.38.35-.53.15-.15.33-.27.54-.35.21-.08.44-.12.69-.12s.48.04.7.13c.21.09.4.21.55.36.15.16.27.34.36.56.08.21.13.45.13.71,0,.2-.03.39-.08.58s-.13.35-.23.5c-.1.15-.22.28-.36.39-.14.11-.3.19-.48.24l-.31-.63c.24-.07.43-.19.56-.39.14-.19.21-.42.21-.67,0-.15-.03-.29-.08-.41-.05-.13-.12-.23-.21-.33-.09-.09-.2-.16-.33-.21-.13-.05-.27-.08-.43-.08s-.3.03-.44.08c-.13.05-.25.13-.34.22s-.17.21-.22.34c-.05.13-.08.28-.08.44,0,.18.04.35.1.49.07.14.17.26.31.36l-.15.62-2.79-.47v-2.52Z"/><path d="M4.66,54.85h.67c-.24-.11-.42-.26-.54-.45-.12-.18-.18-.4-.18-.63,0-.26.07-.48.2-.67.14-.19.33-.32.59-.41-.26-.11-.45-.27-.59-.46-.14-.2-.2-.43-.2-.7,0-.38.12-.67.37-.88.25-.21.61-.31,1.07-.31h2.25v.7h-2.16c-.29,0-.52.07-.69.2-.17.13-.25.31-.25.54,0,.12.02.22.07.32.05.1.11.18.2.26.09.07.19.13.32.16.12.04.26.06.4.06h2.11v.7h-2.16c-.14,0-.27.02-.38.06-.12.04-.22.09-.3.15-.08.06-.14.14-.19.23-.04.09-.07.2-.07.31s.02.22.07.32c.05.1.12.18.21.25.09.07.2.12.32.17.12.04.26.06.41.06h2.09v.7h-3.64v-.68Z"/><path d="M4.66,48.66h.67c-.24-.11-.42-.26-.54-.45-.12-.18-.18-.4-.18-.63,0-.26.07-.48.2-.67.14-.19.33-.32.59-.41-.26-.11-.45-.27-.59-.46-.14-.2-.2-.43-.2-.7,0-.38.12-.67.37-.88.25-.21.61-.31,1.07-.31h2.25v.7h-2.16c-.29,0-.52.07-.69.2-.17.13-.25.31-.25.54,0,.12.02.22.07.32.05.1.11.18.2.26.09.07.19.13.32.16.12.04.26.06.4.06h2.11v.7h-2.16c-.14,0-.27.02-.38.06-.12.04-.22.09-.3.15-.08.06-.14.14-.19.23-.04.09-.07.2-.07.31s.02.22.07.32c.05.1.12.18.21.25.09.07.2.12.32.17.12.04.26.06.41.06h2.09v.7h-3.64v-.68Z"/></g></g></g></g></svg>