<svg viewBox="0 0 531.26 288" xmlns="http://www.w3.org/2000/svg"><defs><style>.cls-1 {
        fill: #12100a;
      }

      .cls-2 {
        stroke: #000;
        stroke-miterlimit: 10;
        stroke-width: .28px;
      }

      .cls-2, .cls-3, .cls-4 {
        fill: none;
      }

      .cls-3 {
        stroke: #877069;
      }

      .cls-3, .cls-4 {
        stroke-linecap: round;
        stroke-linejoin: round;
        stroke-width: .3px;
      }

      .cls-4 {
        stroke: #12100a;
      }</style></defs><g id="bases"><rect height="358.35" width="589.11" y="-33.95" x="-25.44" class="cls-2"/></g><g id="Urban"><g id="Frame"><g id="banco_com_estacionamento_para_bicicletas"><g><path d="M7.21,250.17h5.29v.73h-4.36s.08.04.1.06c.03.02.06.04.09.07l2.02,1.35s.06.04.08.05.05.03.08.06v-3.2h.64v3.98h-.59l-3.35-2.22v-.87Z"/><path d="M12.38,247.72c-.12.24-.29.44-.51.61-.22.17-.5.3-.82.39s-.69.14-1.09.14-.8-.05-1.15-.15c-.35-.1-.64-.24-.89-.43-.25-.18-.43-.41-.56-.67-.13-.26-.2-.55-.2-.88,0-.37.09-.7.27-.97.18-.27.43-.47.76-.59l.29.64c-.21.07-.37.18-.48.34-.11.16-.17.35-.17.56,0,.2.05.38.14.55s.23.31.4.44c.17.13.37.22.61.29s.49.1.77.1h.17c.06,0,.1,0,.15,0-.25-.08-.45-.23-.59-.45-.14-.22-.21-.48-.21-.79,0-.24.04-.46.12-.65.08-.2.19-.36.34-.5.15-.14.32-.25.52-.33.2-.08.42-.12.66-.12s.47.04.68.13c.21.08.38.2.53.35.14.15.26.32.34.53s.12.43.12.68c0,.3-.06.57-.18.81ZM11.81,246.55c-.05-.12-.12-.22-.21-.3-.09-.08-.19-.15-.31-.2-.12-.05-.26-.07-.41-.07s-.29.02-.41.07c-.12.05-.23.12-.32.2s-.16.19-.21.31-.07.25-.07.4.02.27.07.39.12.22.2.31c.09.09.19.15.31.2.12.05.25.07.4.07s.28-.03.41-.08.24-.12.34-.21.17-.2.22-.32c.05-.12.08-.26.08-.4s-.03-.26-.08-.38Z"/><path d="M7.36,241.75c.13-.25.32-.47.55-.65.23-.18.52-.32.85-.42.33-.1.69-.15,1.08-.15s.76.05,1.1.15.62.24.86.42c.24.18.43.4.56.65.13.25.2.52.2.83s-.07.57-.2.82-.32.47-.56.65c-.24.18-.53.32-.86.42-.33.1-.7.15-1.1.15s-.75-.05-1.08-.15c-.33-.1-.61-.24-.85-.42-.24-.18-.42-.4-.55-.65-.13-.25-.2-.53-.2-.83s.07-.58.2-.83ZM7.99,243.1c.1.16.23.29.41.41.18.11.38.2.63.27.24.07.51.1.81.1s.57-.03.82-.09c.25-.06.46-.15.64-.27.18-.12.32-.25.42-.41.1-.16.15-.33.15-.52s-.05-.37-.15-.53c-.1-.16-.24-.3-.42-.41-.18-.11-.39-.2-.64-.27-.25-.06-.52-.09-.82-.09s-.56.03-.81.09c-.25.06-.46.15-.63.26-.17.11-.31.25-.41.41-.1.16-.15.34-.15.53s.05.37.15.52Z"/><path d="M8.86,236.92h.67c-.24-.11-.42-.26-.54-.45-.12-.18-.18-.4-.18-.63,0-.26.07-.48.2-.67.14-.19.33-.32.59-.41-.26-.11-.45-.27-.59-.46-.14-.2-.2-.43-.2-.7,0-.38.12-.67.37-.88.25-.21.61-.31,1.07-.31h2.25v.7h-2.16c-.29,0-.52.07-.69.2-.17.13-.25.31-.25.54,0,.12.02.22.07.32.05.1.11.18.2.26.09.07.19.13.32.16.12.04.26.06.4.06h2.11v.7h-2.16c-.14,0-.27.02-.38.06-.12.04-.22.09-.3.15-.08.06-.14.14-.19.23-.04.09-.07.2-.07.31s.02.22.07.32c.05.1.12.18.21.25.09.07.2.12.32.17.12.04.26.06.41.06h2.09v.7h-3.64v-.68Z"/><path d="M8.86,230.74h.67c-.24-.11-.42-.26-.54-.45-.12-.18-.18-.4-.18-.63,0-.26.07-.48.2-.67.14-.19.33-.32.59-.41-.26-.11-.45-.27-.59-.46-.14-.2-.2-.43-.2-.7,0-.38.12-.67.37-.88.25-.21.61-.31,1.07-.31h2.25v.7h-2.16c-.29,0-.52.07-.69.2-.17.13-.25.31-.25.54,0,.12.02.22.07.32.05.1.11.18.2.26.09.07.19.13.32.16.12.04.26.06.4.06h2.11v.7h-2.16c-.14,0-.27.02-.38.06-.12.04-.22.09-.3.15-.08.06-.14.14-.19.23-.04.09-.07.2-.07.31s.02.22.07.32c.05.1.12.18.21.25.09.07.2.12.32.17.12.04.26.06.41.06h2.09v.7h-3.64v-.68Z"/></g><g><path d="M7.21,101.28h.65v1.92l1.54.25c-.09-.1-.16-.22-.21-.36-.05-.14-.07-.29-.07-.46,0-.25.04-.47.13-.68.08-.21.2-.38.35-.53.15-.15.33-.27.54-.35.21-.08.44-.12.69-.12s.48.04.7.13c.21.09.4.21.55.36.15.16.27.34.36.56.08.21.13.45.13.71,0,.2-.03.39-.08.58s-.13.35-.23.5c-.1.15-.22.28-.36.39-.14.11-.3.19-.48.24l-.31-.63c.24-.07.43-.19.56-.39.14-.19.21-.42.21-.67,0-.15-.03-.29-.08-.41-.05-.13-.12-.23-.21-.33-.09-.09-.2-.16-.33-.21-.13-.05-.27-.08-.43-.08s-.3.03-.44.08c-.13.05-.25.13-.34.22s-.17.21-.22.34c-.05.13-.08.28-.08.44,0,.18.04.35.1.49.07.14.17.26.31.36l-.15.62-2.79-.47v-2.52Z"/><path d="M7.21,98.62h5.29v.72h-4.54l.64,1.3h-.73l-.67-1.36v-.67Z"/><path d="M7.36,94.91c.13-.25.32-.47.55-.65.23-.18.52-.32.85-.42.33-.1.69-.15,1.08-.15s.76.05,1.1.15.62.24.86.42c.24.18.43.4.56.65.13.25.2.52.2.83s-.07.57-.2.82-.32.47-.56.65c-.24.18-.53.32-.86.42-.33.1-.7.15-1.1.15s-.75-.05-1.08-.15c-.33-.1-.61-.24-.85-.42-.24-.18-.42-.4-.55-.65-.13-.25-.2-.53-.2-.83s.07-.58.2-.83ZM7.99,96.27c.1.16.23.29.41.41.18.11.38.2.63.27.24.07.51.1.81.1s.57-.03.82-.09c.25-.06.46-.15.64-.27.18-.12.32-.25.42-.41.1-.16.15-.33.15-.52s-.05-.37-.15-.53c-.1-.16-.24-.3-.42-.41-.18-.11-.39-.2-.64-.27-.25-.06-.52-.09-.82-.09s-.56.03-.81.09c-.25.06-.46.15-.63.26-.17.11-.31.25-.41.41-.1.16-.15.34-.15.53s.05.37.15.52Z"/><path d="M8.86,90.09h.67c-.24-.11-.42-.26-.54-.45-.12-.18-.18-.4-.18-.63,0-.26.07-.48.2-.67.14-.19.33-.32.59-.41-.26-.11-.45-.27-.59-.46-.14-.2-.2-.43-.2-.7,0-.38.12-.67.37-.88.25-.21.61-.31,1.07-.31h2.25v.7h-2.16c-.29,0-.52.07-.69.2-.17.13-.25.31-.25.54,0,.12.02.22.07.32.05.1.11.18.2.26.09.07.19.13.32.16.12.04.26.06.4.06h2.11v.7h-2.16c-.14,0-.27.02-.38.06-.12.04-.22.09-.3.15-.08.06-.14.14-.19.23-.04.09-.07.2-.07.31s.02.22.07.32c.05.1.12.18.21.25.09.07.2.12.32.17.12.04.26.06.41.06h2.09v.7h-3.64v-.68Z"/><path d="M8.86,83.9h.67c-.24-.11-.42-.26-.54-.45-.12-.18-.18-.4-.18-.63,0-.26.07-.48.2-.67.14-.19.33-.32.59-.41-.26-.11-.45-.27-.59-.46-.14-.2-.2-.43-.2-.7,0-.38.12-.67.37-.88.25-.21.61-.31,1.07-.31h2.25v.7h-2.16c-.29,0-.52.07-.69.2-.17.13-.25.31-.25.54,0,.12.02.22.07.32.05.1.11.18.2.26.09.07.19.13.32.16.12.04.26.06.4.06h2.11v.7h-2.16c-.14,0-.27.02-.38.06-.12.04-.22.09-.3.15-.08.06-.14.14-.19.23-.04.09-.07.2-.07.31s.02.22.07.32c.05.1.12.18.21.25.09.07.2.12.32.17.12.04.26.06.41.06h2.09v.7h-3.64v-.68Z"/></g><g><path d="M207,14.15v5.29h-.72v-4.54l-1.3.64v-.73l1.36-.67h.67Z"/><path d="M210.37,14.27c.24.12.44.29.61.51.17.22.3.5.39.82.09.32.14.69.14,1.09s-.05.8-.15,1.15c-.1.35-.24.64-.43.89s-.41.43-.67.56c-.26.13-.55.2-.88.2-.37,0-.7-.09-.97-.27-.27-.18-.47-.43-.59-.76l.64-.29c.07.21.18.37.34.48.16.11.35.17.56.17.2,0,.38-.05.55-.14.17-.09.31-.23.44-.4.13-.17.22-.37.29-.61.07-.24.1-.49.1-.77v-.17c0-.06,0-.1,0-.15-.08.25-.23.45-.45.59-.22.14-.48.21-.79.21-.24,0-.46-.04-.65-.12-.2-.08-.36-.19-.5-.34-.14-.14-.25-.32-.33-.52-.08-.2-.12-.42-.12-.66s.04-.47.13-.68c.08-.21.2-.38.35-.52.15-.14.32-.26.53-.34.21-.08.43-.12.68-.12.3,0,.57.06.81.18ZM209.2,14.84c-.12.05-.22.12-.3.21-.08.09-.15.19-.2.31-.05.12-.07.26-.07.41s.02.29.07.41c.05.12.12.23.2.32.09.09.19.16.31.21.12.05.25.07.4.07s.27-.02.39-.07c.12-.05.22-.12.31-.2.09-.09.15-.19.2-.31.05-.12.07-.25.07-.4s-.03-.28-.08-.41c-.05-.13-.13-.24-.21-.34-.09-.1-.2-.17-.32-.22s-.26-.08-.4-.08-.26.03-.38.08Z"/><path d="M214.06,14.15v5.29h-.72v-4.54l-1.3.64v-.73l1.36-.67h.67Z"/><path d="M217.77,14.29c.25.13.47.32.65.55.18.23.32.52.42.85.1.33.15.69.15,1.08s-.05.76-.15,1.1-.24.62-.42.86c-.18.24-.4.43-.65.56-.25.13-.52.2-.83.2s-.57-.07-.82-.2-.47-.32-.65-.56c-.18-.24-.32-.53-.42-.86-.1-.33-.15-.7-.15-1.1s.05-.75.15-1.08c.1-.33.24-.61.42-.85.18-.24.4-.42.65-.55.25-.13.53-.2.83-.2s.58.07.83.2ZM216.42,14.93c-.16.1-.29.23-.41.41-.11.18-.2.38-.27.63-.07.24-.1.51-.1.81s.03.57.09.82c.06.25.15.46.27.64.12.18.25.32.41.42.16.1.33.15.52.15s.37-.05.53-.15c.16-.1.3-.24.41-.42.11-.18.2-.39.27-.64.06-.25.09-.52.09-.82s-.03-.56-.09-.81c-.06-.25-.15-.46-.26-.63-.11-.17-.25-.31-.41-.41-.16-.1-.34-.15-.53-.15s-.37.05-.52.15Z"/><path d="M222.6,15.79v.67c.11-.24.26-.42.45-.54.18-.12.4-.18.63-.18.26,0,.48.07.67.2.19.14.32.33.41.59.11-.26.27-.45.46-.59.2-.14.43-.2.7-.2.38,0,.67.12.88.37.21.25.31.61.31,1.07v2.25h-.7v-2.16c0-.29-.07-.52-.2-.69-.13-.17-.31-.25-.54-.25-.12,0-.22.02-.32.07-.1.05-.18.11-.26.2-.07.09-.13.19-.16.32-.04.12-.06.26-.06.4v2.11h-.7v-2.16c0-.14-.02-.27-.06-.38-.04-.12-.09-.22-.15-.3-.06-.08-.14-.14-.23-.19-.09-.04-.2-.07-.31-.07s-.22.02-.32.07c-.1.05-.18.12-.25.21-.07.09-.12.2-.17.32-.04.12-.06.26-.06.41v2.09h-.7v-3.64h.68Z"/><path d="M228.78,15.79v.67c.11-.24.26-.42.45-.54.18-.12.4-.18.63-.18.26,0,.48.07.67.2.19.14.32.33.41.59.11-.26.27-.45.46-.59.2-.14.43-.2.7-.2.38,0,.67.12.88.37.21.25.31.61.31,1.07v2.25h-.7v-2.16c0-.29-.07-.52-.2-.69-.13-.17-.31-.25-.54-.25-.12,0-.22.02-.32.07-.1.05-.18.11-.26.2-.07.09-.13.19-.16.32-.04.12-.06.26-.06.4v2.11h-.7v-2.16c0-.14-.02-.27-.06-.38-.04-.12-.09-.22-.15-.3-.06-.08-.14-.14-.23-.19-.09-.04-.2-.07-.31-.07s-.22.02-.32.07c-.1.05-.18.12-.25.21-.07.09-.12.2-.17.32-.04.12-.06.26-.06.41v2.09h-.7v-3.64h.68Z"/></g><g><line y2="23.36" x2="39.27" y1="23.36" x1="399.22" class="cls-4"/><rect height="1.95" width=".3" y="22.38" x="399.07" class="cls-1"/><rect height="1.95" width=".3" y="22.38" x="39.12" class="cls-1"/></g><g><line y2="139.74" x2="16.42" y1="43.85" x1="16.42" class="cls-4"/><rect height=".3" width="1.95" y="43.7" x="15.45" class="cls-1"/><rect height=".3" width="1.95" y="139.59" x="15.45" class="cls-1"/></g><g><line y2="282.86" x2="16.42" y1="196.4" x1="16.42" class="cls-4"/><rect height=".3" width="1.95" y="196.25" x="15.45" class="cls-1"/><rect height=".3" width="1.95" y="282.71" x="15.45" class="cls-1"/></g><line y2="283.01" x2="399.28" y1="283.01" x1="382.38" class="cls-4"/><line y2="283.01" x2="56.07" y1="283.01" x1="39.03" class="cls-4"/><g><line y2="130.44" x2="88.01" y1="130.44" x1="88.01" class="cls-3"/><line y2="130.44" x2="90" y1="130.44" x1="90" class="cls-3"/><line y2="128.58" x2="90" y1="128.58" x1="90" class="cls-3"/><line y2="121" x2="90" y1="121" x1="90" class="cls-3"/><line y2="119.13" x2="88.01" y1="119.13" x1="88.01" class="cls-3"/><line y2="119.13" x2="90" y1="119.13" x1="90" class="cls-3"/><line y2="64.45" x2="88.01" y1="64.45" x1="88.01" class="cls-3"/><line y2="55.01" x2="90" y1="55.01" x1="90" class="cls-3"/><line y2="53.14" x2="88.01" y1="53.14" x1="88.01" class="cls-3"/><line y2="53.14" x2="90" y1="53.14" x1="90" class="cls-3"/><line y2="130.44" x2="90" y1="130.44" x1="88.01" class="cls-3"/><line y2="128.58" x2="90" y1="128.58" x1="88.01" class="cls-3"/><line y2="121" x2="90" y1="121" x1="88.01" class="cls-3"/><line y2="119.13" x2="90" y1="119.13" x1="88.01" class="cls-3"/><line y2="53.14" x2="90" y1="53.14" x1="88.01" class="cls-3"/><line y2="62.59" x2="88.01" y1="62.59" x1="350.31" class="cls-4"/><line y2="55.01" x2="350.31" y1="55.01" x1="88.01" class="cls-4"/><line y2="128.58" x2="88.41" y1="128.58" x1="350.31" class="cls-4"/><line y2="121" x2="350.31" y1="121" x1="88.41" class="cls-4"/><line y2="81.48" x2="39.03" y1="81.48" x1="399.28" class="cls-4"/><line y2="73.9" x2="399.28" y1="73.9" x1="39.03" class="cls-4"/><line y2="119.13" x2="39.03" y1="119.13" x1="399.28" class="cls-4"/><line y2="111.55" x2="399.28" y1="111.55" x1="39.03" class="cls-4"/><line y2="109.69" x2="39.03" y1="109.69" x1="399.28" class="cls-4"/><line y2="102.5" x2="39.03" y1="102.5" x1="399.28" class="cls-4"/><line y2="100.24" x2="39.03" y1="100.24" x1="399.28" class="cls-4"/><line y2="92.79" x2="399.28" y1="92.79" x1="39.03" class="cls-4"/><line y2="53.14" x2="39.03" y1="53.14" x1="399.28" class="cls-4"/><line y2="45.56" x2="399.28" y1="45.56" x1="39.03" class="cls-4"/><line y2="90.79" x2="39.1" y1="90.79" x1="399.28" class="cls-4"/><line y2="83.34" x2="399.28" y1="83.34" x1="39.1" class="cls-4"/><line y2="138.03" x2="39.03" y1="138.03" x1="399.28" class="cls-4"/><line y2="130.44" x2="399.28" y1="130.44" x1="39.03" class="cls-4"/><line y2="72.04" x2="39.03" y1="72.04" x1="399.28" class="cls-4"/><line y2="64.45" x2="399.28" y1="64.45" x1="39.03" class="cls-4"/><rect height="96.19" width="360.25" y="43.7" x="39.03" class="cls-4"/><rect height="11.31" width="31.94" y="53.14" x="56.07" class="cls-4"/><rect height="11.31" width="31.94" y="119.13" x="56.07" class="cls-4"/><rect height="11.31" width="31.94" y="119.13" x="350.31" class="cls-4"/><rect height="11.31" width="31.94" y="53.14" x="350.31" class="cls-4"/></g><g><line y2="215.14" x2="512.94" y1="215.14" x1="501.63" class="cls-4"/><line y2="215.14" x2="446.95" y1="215.14" x1="435.64" class="cls-4"/><g><polyline points="428.19 198.23 428.19 281.18 520.53 281.18 520.53 198.23" class="cls-4"/><g><line y2="198.23" x2="522.39" y1="198.23" x1="520.53" class="cls-4"/><line y2="198.23" x2="428.19" y1="198.23" x1="426.2" class="cls-4"/><polyline points="426.2 198.23 426.2 283.04 522.39 283.04 522.39 198.23" class="cls-4"/></g></g><line y2="211.41" x2="446.95" y1="281.18" x1="446.95" class="cls-4"/><line y2="281.12" x2="454.42" y1="211.36" x1="454.42" class="cls-4"/><line y2="211.41" x2="475.29" y1="281.18" x1="475.29" class="cls-4"/><line y2="281.18" x2="482.87" y1="211.41" x1="482.87" class="cls-4"/><line y2="281.18" x2="435.64" y1="211.41" x1="435.64" class="cls-4"/><line y2="211.41" x2="484.74" y1="281.18" x1="484.74" class="cls-4"/><line y2="281.18" x2="492.19" y1="211.41" x1="492.19" class="cls-4"/><line y2="211.41" x2="494.18" y1="281.18" x1="494.18" class="cls-4"/><line y2="281.18" x2="501.63" y1="211.41" x1="501.63" class="cls-4"/><line y2="211.41" x2="512.94" y1="281.18" x1="512.94" class="cls-4"/><line y2="211.41" x2="456.4" y1="281.18" x1="456.4" class="cls-4"/><line y2="281.18" x2="463.85" y1="211.41" x1="463.85" class="cls-4"/><line y2="211.41" x2="465.84" y1="281.18" x1="465.84" class="cls-4"/><line y2="281.18" x2="473.29" y1="211.41" x1="473.29" class="cls-4"/><line y2="219" x2="454.53" y1="219" x1="456.4" class="cls-4"/><line y2="219" x2="463.98" y1="219" x1="465.84" class="cls-4"/><line y2="219" x2="473.43" y1="219" x1="475.29" class="cls-4"/><line y2="219" x2="482.87" y1="219" x1="484.74" class="cls-4"/><line y2="219" x2="492.19" y1="219" x1="494.18" class="cls-4"/><path d="M463.85,206.08c0-.22.18-.39.41-.39h1.17c.23,0,.41.17.41.39" class="cls-4"/><path d="M473.29,206.08c0-.22.18-.39.41-.39h1.17c.23,0,.41.17.41.39" class="cls-4"/><path d="M482.87,206.08c0-.22.17-.39.38-.39h1.09c.21,0,.38.17.38.39" class="cls-4"/><path d="M492.19,206.08c0-.22.18-.39.41-.39h1.17c.23,0,.41.17.41.39" class="cls-4"/><path d="M501.63,206.08c0-.22.17-.39.39-.39h1.1c.21,0,.39.17.39.39" class="cls-4"/><path d="M510.96,206.08c0-.22.18-.39.41-.39h1.17c.23,0,.41.17.41.39" class="cls-4"/><path d="M454.42,206.08c0-.22.18-.39.41-.39h1.16c.23,0,.41.17.41.39" class="cls-4"/><path d="M445.05,206.08c0-.22.18-.39.39-.39h1.11c.22,0,.39.17.39.39" class="cls-4"/><path d="M435.64,206.08c0-.22.18-.39.39-.39h1.12c.22,0,.39.17.39.39" class="cls-4"/><path d="M428.68,196.28h6.47c.27,0,.49.22.49.49v14.6h-7.45v-14.6c0-.27.22-.49.49-.49Z" class="cls-4"/><path d="M438.1,196.31h6.47c.27,0,.49.22.49.49v14.6h-7.45v-14.6c0-.27.22-.49.49-.49Z" class="cls-4"/><path d="M447.44,196.31h6.49c.27,0,.49.22.49.49v14.6h-7.47v-14.6c0-.27.22-.49.49-.49Z" class="cls-4"/><path d="M456.89,196.31h6.47c.27,0,.49.22.49.49v14.6h-7.45v-14.6c0-.27.22-.49.49-.49Z" class="cls-4"/><path d="M466.34,196.31h6.47c.27,0,.49.22.49.49v14.6h-7.45v-14.6c0-.27.22-.49.49-.49Z" class="cls-4"/><path d="M475.78,196.31h6.6c.27,0,.49.22.49.49v14.6h-7.58v-14.6c0-.27.22-.49.49-.49Z" class="cls-4"/><path d="M485.23,196.31h6.47c.27,0,.49.22.49.49v14.6h-7.45v-14.6c0-.27.22-.49.49-.49Z" class="cls-4"/><path d="M494.67,196.31h6.47c.27,0,.49.22.49.49v14.6h-7.45v-14.6c0-.27.22-.49.49-.49Z" class="cls-4"/><path d="M504,196.31h6.47c.27,0,.49.22.49.49v14.6h-7.45v-14.6c0-.27.22-.49.49-.49Z" class="cls-4"/><path d="M513.43,196.31h6.6c.27,0,.49.22.49.49v14.6h-7.58v-14.6c0-.27.22-.49.49-.49Z" class="cls-4"/></g><g><g><line y2="215.15" x2="56.07" y1="283.01" x1="56.07" class="cls-4"/><line y2="215.15" x2="382.38" y1="215.15" x1="56.07" class="cls-4"/><line y2="283.01" x2="382.38" y1="215.15" x1="382.38" class="cls-4"/></g><line y2="198.25" x2="39.03" y1="283.01" x1="39.03" class="cls-4"/><g><line y2="198.25" x2="399.28" y1="283.01" x1="399.28" class="cls-4"/><rect height="2" width="360.25" y="196.25" x="39.03" class="cls-4"/></g></g></g></g></g></svg>