<svg viewBox="0 0 531.27 288" xmlns:xlink="http://www.w3.org/1999/xlink" xmlns="http://www.w3.org/2000/svg" id="Camada_2"><defs><style>.cls-1,.cls-2,.cls-3{fill:none;}.cls-4{fill:#12100c;}.cls-2{stroke:#000;}.cls-2,.cls-3{stroke-linecap:round;stroke-linejoin:round;stroke-width:.3px;}.cls-3{stroke:#12100c;}</style><symbol viewBox="0 0 531.27 288" id="fundo_transparente"><rect height="288" width="531.27" x="0" class="cls-1"/></symbol></defs><g id="RePlastic"><g id="vedação_Corda_Square"><use xlink:href="#fundo_transparente" height="288" width="531.27"/><rect transform="translate(282.7 213.35) rotate(90)" height="6.03" width="73.66" y="245.01" x="-2.16" class="cls-2"/><rect transform="translate(288.72 207.32) rotate(90)" height="6.03" width="73.66" y="245.01" x="3.87" class="cls-2"/><rect height="6.03" width="6.03" y="190.96" x="31.66" class="cls-2"/><rect height="6.03" width="6.03" y="41.75" x="31.66" class="cls-2"/><rect height="6.03" width="6.03" y="41.75" x="37.69" class="cls-2"/><rect height="6.03" width="6.03" y="41.75" x="191.02" class="cls-2"/><rect height="6.03" width="6.03" y="41.75" x="340.34" class="cls-2"/><rect transform="translate(442.06 53.99) rotate(90)" height="6.03" width="73.66" y="245.01" x="157.21" class="cls-2"/><rect transform="translate(591.38 -95.33) rotate(90)" height="6.03" width="73.66" y="245.01" x="306.53" class="cls-2"/><rect transform="translate(612.2 -116.16) rotate(90)" height="6.03" width="73.66" y="245.01" x="327.35" class="cls-2"/><rect transform="translate(761.52 -265.48) rotate(90)" height="6.03" width="73.66" y="245.01" x="476.67" class="cls-2"/><rect height="2.01" width="147.31" y="217.53" x="43.71" class="cls-2"/><rect transform="translate(-84.69 154.04) rotate(-90)" height="2.01" width="143.18" y="118.36" x="-36.92" class="cls-2"/><rect height="2.01" width="147.31" y="43.65" x="43.71" class="cls-2"/><rect height="2.01" width="143.29" y="43.65" x="197.05" class="cls-2"/><rect height="2.01" width="147.31" y="247.71" x="43.71" class="cls-2"/><rect height="2.01" width="143.29" y="217.53" x="197.05" class="cls-2"/><rect height="2.01" width="143.29" y="247.71" x="197.05" class="cls-2"/><rect height="2.01" width="143.29" y="217.53" x="367.19" class="cls-2"/><rect height="2.01" width="143.29" y="247.71" x="367.19" class="cls-2"/><line y2="285.02" x2="11.39" y1="213.97" x1="11.39" class="cls-3"/><rect height=".3" width="1.95" y="213.82" x="10.42" class="cls-4"/><rect height=".3" width="1.95" y="284.86" x="10.42" class="cls-4"/><path d="M3.01,261.94h5.29v.72H3.76l.64,1.3h-.73l-.67-1.36v-.67Z"/><path d="M3.01,259.1h5.29v.72H3.76l.64,1.3h-.73l-.67-1.36v-.67Z"/><path d="M3.16,255.4c.13-.25.32-.47.55-.65.23-.18.52-.32.85-.42.33-.1.69-.15,1.08-.15s.76.05,1.1.15.62.24.86.42c.24.18.43.4.56.65.13.25.2.52.2.83s-.07.57-.2.82-.32.47-.56.65c-.24.18-.53.32-.86.42-.33.1-.7.15-1.1.15s-.75-.05-1.08-.15c-.33-.1-.61-.24-.85-.42-.24-.18-.42-.4-.55-.65-.13-.25-.2-.53-.2-.83s.07-.58.2-.83ZM3.79,256.75c.1.16.23.29.41.41.18.11.38.2.63.27.24.07.51.1.81.1s.57-.03.82-.09c.25-.06.46-.15.64-.27.18-.12.32-.25.42-.41.1-.16.15-.33.15-.52s-.05-.37-.15-.53c-.1-.16-.24-.3-.42-.41-.18-.11-.39-.2-.64-.27-.25-.06-.52-.09-.82-.09s-.56.03-.81.09c-.25.06-.46.15-.63.26-.17.11-.31.25-.41.41-.1.16-.15.34-.15.53s.05.37.15.52Z"/><path d="M3.16,250.76c.13-.25.32-.47.55-.65.23-.18.52-.32.85-.42.33-.1.69-.15,1.08-.15s.76.05,1.1.15.62.24.86.42c.24.18.43.4.56.65.13.25.2.52.2.83s-.07.57-.2.82-.32.47-.56.65c-.24.18-.53.32-.86.42-.33.1-.7.15-1.1.15s-.75-.05-1.08-.15c-.33-.1-.61-.24-.85-.42-.24-.18-.42-.4-.55-.65-.13-.25-.2-.53-.2-.83s.07-.58.2-.83ZM3.79,252.12c.1.16.23.29.41.41.18.11.38.2.63.27.24.07.51.1.81.1s.57-.03.82-.09c.25-.06.46-.15.64-.27.18-.12.32-.25.42-.41.1-.16.15-.33.15-.52s-.05-.37-.15-.53c-.1-.16-.24-.3-.42-.41-.18-.11-.39-.2-.64-.27-.25-.06-.52-.09-.82-.09s-.56.03-.81.09c-.25.06-.46.15-.63.26-.17.11-.31.25-.41.41-.1.16-.15.34-.15.53s.05.37.15.52Z"/><path d="M4.66,245.94h.67c-.24-.11-.42-.26-.54-.45-.12-.18-.18-.4-.18-.63,0-.26.07-.48.2-.67.14-.19.33-.32.59-.41-.26-.11-.45-.27-.59-.46-.14-.2-.2-.43-.2-.7,0-.38.12-.67.37-.88.25-.21.61-.31,1.07-.31h2.25v.7h-2.16c-.29,0-.52.07-.69.2-.17.13-.25.31-.25.54,0,.12.02.22.07.32.05.1.11.18.2.26.09.07.19.13.32.16.12.04.26.06.4.06h2.11v.7h-2.16c-.14,0-.27.02-.38.06-.12.04-.22.09-.3.15-.08.06-.14.14-.19.23-.04.09-.07.2-.07.31s.02.22.07.32c.05.1.12.18.21.25.09.07.2.12.32.17.12.04.26.06.41.06h2.09v.7h-3.64v-.68Z"/><path d="M4.66,239.75h.67c-.24-.11-.42-.26-.54-.45-.12-.18-.18-.4-.18-.63,0-.26.07-.48.2-.67.14-.19.33-.32.59-.41-.26-.11-.45-.27-.59-.46-.14-.2-.2-.43-.2-.7,0-.38.12-.67.37-.88.25-.21.61-.31,1.07-.31h2.25v.7h-2.16c-.29,0-.52.07-.69.2-.17.13-.25.31-.25.54,0,.12.02.22.07.32.05.1.11.18.2.26.09.07.19.13.32.16.12.04.26.06.4.06h2.11v.7h-2.16c-.14,0-.27.02-.38.06-.12.04-.22.09-.3.15-.08.06-.14.14-.19.23-.04.09-.07.2-.07.31s.02.22.07.32c.05.1.12.18.21.25.09.07.2.12.32.17.12.04.26.06.41.06h2.09v.7h-3.64v-.68Z"/></g></g></svg>