<svg viewBox="0 0 531.27 288" xmlns:xlink="http://www.w3.org/1999/xlink" xmlns="http://www.w3.org/2000/svg" id="Camada_2"><defs><style>.cls-1,.cls-2{fill:none;}.cls-3{fill:#12100c;}.cls-2{stroke:#12100c;stroke-linecap:round;stroke-linejoin:round;stroke-width:.3px;}</style><symbol viewBox="0 0 531.27 288" id="fundo_transparente"><rect height="288" width="531.27" x="0" class="cls-1"/></symbol></defs><g id="RePlastic"><g id="vedação_Simple"><use xlink:href="#fundo_transparente" height="288" width="531.27"/><g id="LINE"><polyline points="450.92 135.97 450.92 135.97 450.92 130.88" class="cls-2"/><line y2="135.97" x2="34.63" y1="135.97" x1="437.76" class="cls-2"/></g><g id="LINE-2"><line y2="130.88" x2="34.62" y1="136" x1="34.62" class="cls-2"/></g><g id="LINE-3"><line y2="130.88" x2="450.92" y1="130.88" x1="34.62" class="cls-2"/></g><g id="LINE-4"><line y2="201.84" x2="246.08" y1="201.84" x1="437.76" class="cls-2"/><line y2="201.84" x2="450.92" y1="201.84" x1="450.87" class="cls-2"/></g><g id="LINE-5"><line y2="201.85" x2="47.79" y1="201.85" x1="232.91" class="cls-2"/></g><g id="LINE-6"><line y2="216.51" x2="246.08" y1="216.51" x1="437.76" class="cls-2"/><line y2="216.51" x2="450.92" y1="216.51" x1="450.87" class="cls-2"/></g><g id="LINE-7"><line y2="216.48" x2="47.79" y1="216.48" x1="232.91" class="cls-2"/></g><g id="LINE-8"><line y2="150.63" x2="246.08" y1="150.63" x1="437.76" class="cls-2"/><line y2="150.63" x2="450.92" y1="150.63" x1="450.87" class="cls-2"/></g><g id="LINE-9"><line y2="150.63" x2="47.79" y1="150.63" x1="232.91" class="cls-2"/></g><g id="LINE-10"><rect height="146.35" width="13.16" y="135.97" x="437.76" class="cls-2"/></g><g id="LINE-11"><line y2="136" x2="246.08" y1="282.33" x1="246.08" class="cls-2"/></g><g id="LINE-12"><line y2="282.33" x2="232.91" y1="282.33" x1="246.08" class="cls-2"/></g><g id="LINE-13"><line y2="136" x2="232.91" y1="282.33" x1="232.91" class="cls-2"/></g><g id="LINE-14"><line y2="136" x2="34.62" y1="282.33" x1="34.62" class="cls-2"/></g><g id="LINE-15"><line y2="136" x2="47.79" y1="282.33" x1="47.79" class="cls-2"/></g><g id="LINE-16"><line y2="282.33" x2="34.62" y1="282.33" x1="47.79" class="cls-2"/></g><g id="LINE-17"><line y2="136" x2="513.32" y1="130.88" x1="513.32" class="cls-2"/></g><g id="LINE-18"><line y2="130.88" x2="513.32" y1="130.88" x1="493.57" class="cls-2"/></g><g id="LINE-19"><line y2="130.88" x2="493.57" y1="136" x1="493.57" class="cls-2"/></g><g id="LINE-20"><line y2="136" x2="493.57" y1="136" x1="513.32" class="cls-2"/></g><g id="LINE-21"><line y2="216.48" x2="513.32" y1="201.85" x1="513.32" class="cls-2"/></g><g id="LINE-22"><line y2="201.85" x2="513.32" y1="201.85" x1="508.93" class="cls-2"/></g><g id="LINE-23"><line y2="216.48" x2="508.93" y1="216.48" x1="513.32" class="cls-2"/></g><g id="LINE-24"><line y2="201.85" x2="508.93" y1="216.48" x1="508.93" class="cls-2"/></g><g id="LINE-25"><line y2="136" x2="508.93" y1="150.63" x1="508.93" class="cls-2"/></g><g id="LINE-26"><line y2="136" x2="513.32" y1="136" x1="508.93" class="cls-2"/></g><g id="LINE-27"><line y2="150.63" x2="513.32" y1="136" x1="513.32" class="cls-2"/></g><g id="LINE-28"><line y2="150.63" x2="508.93" y1="150.63" x1="513.32" class="cls-2"/></g><g id="LINE-29"><line y2="136" x2="508.93" y1="282.33" x1="508.93" class="cls-2"/></g><g id="LINE-30"><line y2="136" x2="495.76" y1="282.33" x1="495.76" class="cls-2"/></g><g id="LINE-31"><line y2="282.33" x2="495.76" y1="282.33" x1="508.93" class="cls-2"/></g><g id="LINE-32"><rect height="18.58" width="416.31" y="50.68" x="34.68" class="cls-2"/></g><line y2="282.18" x2="14.23" y1="131.03" x1="14.23" class="cls-2"/><rect height=".3" width="1.95" y="130.88" x="13.25" class="cls-3"/><rect height=".3" width="1.95" y="282.03" x="13.25" class="cls-3"/><path d="M5.85,219.05h5.29v.72h-4.54l.64,1.3h-.73l-.67-1.36v-.67Z"/><path d="M5.85,216.22h5.29v.72h-4.54l.64,1.3h-.73l-.67-1.36v-.67Z"/><path d="M5.99,212.51c.13-.25.32-.47.55-.65.23-.18.52-.32.85-.42.33-.1.69-.15,1.08-.15s.76.05,1.1.15.62.24.86.42c.24.18.43.4.56.65.13.25.2.52.2.83s-.07.57-.2.82-.32.47-.56.65c-.24.18-.53.32-.86.42-.33.1-.7.15-1.1.15s-.75-.05-1.08-.15c-.33-.1-.61-.24-.85-.42-.24-.18-.42-.4-.55-.65-.13-.25-.2-.53-.2-.83s.07-.58.2-.83ZM6.63,213.86c.1.16.23.29.41.41.18.11.38.2.63.27.24.07.51.1.81.1s.57-.03.82-.09c.25-.06.46-.15.64-.27.18-.12.32-.25.42-.41.1-.16.15-.33.15-.52s-.05-.37-.15-.53c-.1-.16-.24-.3-.42-.41-.18-.11-.39-.2-.64-.27-.25-.06-.52-.09-.82-.09s-.56.03-.81.09c-.25.06-.46.15-.63.26-.17.11-.31.25-.41.41-.1.16-.15.34-.15.53s.05.37.15.52Z"/><path d="M5.99,207.87c.13-.25.32-.47.55-.65.23-.18.52-.32.85-.42.33-.1.69-.15,1.08-.15s.76.05,1.1.15.62.24.86.42c.24.18.43.4.56.65.13.25.2.52.2.83s-.07.57-.2.82-.32.47-.56.65c-.24.18-.53.32-.86.42-.33.1-.7.15-1.1.15s-.75-.05-1.08-.15c-.33-.1-.61-.24-.85-.42-.24-.18-.42-.4-.55-.65-.13-.25-.2-.53-.2-.83s.07-.58.2-.83ZM6.63,209.23c.1.16.23.29.41.41.18.11.38.2.63.27.24.07.51.1.81.1s.57-.03.82-.09c.25-.06.46-.15.64-.27.18-.12.32-.25.42-.41.1-.16.15-.33.15-.52s-.05-.37-.15-.53c-.1-.16-.24-.3-.42-.41-.18-.11-.39-.2-.64-.27-.25-.06-.52-.09-.82-.09s-.56.03-.81.09c-.25.06-.46.15-.63.26-.17.11-.31.25-.41.41-.1.16-.15.34-.15.53s.05.37.15.52Z"/><path d="M7.49,203.05h.67c-.24-.11-.42-.26-.54-.45-.12-.18-.18-.4-.18-.63,0-.26.07-.48.2-.67.14-.19.33-.32.59-.41-.26-.11-.45-.27-.59-.46-.14-.2-.2-.43-.2-.7,0-.38.12-.67.37-.88.25-.21.61-.31,1.07-.31h2.25v.7h-2.16c-.29,0-.52.07-.69.2-.17.13-.25.31-.25.54,0,.12.02.22.07.32.05.1.11.18.2.26.09.07.19.13.32.16.12.04.26.06.4.06h2.11v.7h-2.16c-.14,0-.27.02-.38.06-.12.04-.22.09-.3.15-.08.06-.14.14-.19.23-.04.09-.07.2-.07.31s.02.22.07.32c.05.1.12.18.21.25.09.07.2.12.32.17.12.04.26.06.41.06h2.09v.7h-3.64v-.68Z"/><path d="M7.49,196.86h.67c-.24-.11-.42-.26-.54-.45-.12-.18-.18-.4-.18-.63,0-.26.07-.48.2-.67.14-.19.33-.32.59-.41-.26-.11-.45-.27-.59-.46-.14-.2-.2-.43-.2-.7,0-.38.12-.67.37-.88.25-.21.61-.31,1.07-.31h2.25v.7h-2.16c-.29,0-.52.07-.69.2-.17.13-.25.31-.25.54,0,.12.02.22.07.32.05.1.11.18.2.26.09.07.19.13.32.16.12.04.26.06.4.06h2.11v.7h-2.16c-.14,0-.27.02-.38.06-.12.04-.22.09-.3.15-.08.06-.14.14-.19.23-.04.09-.07.2-.07.31s.02.22.07.32c.05.1.12.18.21.25.09.07.2.12.32.17.12.04.26.06.41.06h2.09v.7h-3.64v-.68Z"/></g></g></svg>