<svg viewBox="0 0 531.26 288" xmlns="http://www.w3.org/2000/svg"><defs><style>.cls-1, .cls-2 {
        stroke: #000;
      }

      .cls-1, .cls-2, .cls-3 {
        fill: none;
      }

      .cls-1, .cls-3 {
        stroke-linecap: round;
        stroke-linejoin: round;
        stroke-width: .3px;
      }

      .cls-4 {
        fill: #12100a;
      }

      .cls-2 {
        stroke-miterlimit: 10;
        stroke-width: .28px;
      }

      .cls-3 {
        stroke: #12100a;
      }</style></defs><g id="bases"><rect height="358.35" width="589.11" y="-33.95" x="-25.44" class="cls-2"/></g><g id="Urban"><g id="Reuse"><g id="banco_sem_costas_tábua_65_55"><g id="LINE"><g><line y2="282.77" x2="16.82" y1="205.83" x1="16.82" class="cls-1"/><rect height=".3" width="1.95" y="205.68" x="15.84"/><rect height=".3" width="1.95" y="282.62" x="15.84"/></g></g><g><line y2="52.56" x2="372.02" y1="52.56" x1="38.85" class="cls-3"/><rect height="1.95" width=".3" y="51.58" x="38.7" class="cls-4"/><rect height="1.95" width=".3" y="51.58" x="371.87" class="cls-4"/></g><g><path d="M192.76,43.35v5.29h-.72v-4.54l-1.3.64v-.73l1.36-.67h.67Z"/><path d="M196.14,43.47c.24.12.44.29.61.51.17.22.3.5.39.82.09.32.14.69.14,1.09s-.05.8-.15,1.15c-.1.35-.24.64-.43.89s-.41.43-.67.56c-.26.13-.55.2-.88.2-.37,0-.7-.09-.97-.27-.27-.18-.47-.43-.59-.76l.64-.29c.07.21.18.37.34.48.16.11.35.17.56.17.2,0,.38-.05.55-.14.17-.09.31-.23.44-.4.13-.17.22-.37.29-.61.07-.24.1-.49.1-.77v-.17c0-.06,0-.1,0-.15-.08.25-.23.45-.45.59-.22.14-.48.21-.79.21-.24,0-.46-.04-.65-.12-.2-.08-.36-.19-.5-.34-.14-.14-.25-.32-.33-.52-.08-.2-.12-.42-.12-.66s.04-.47.13-.68c.08-.21.2-.38.35-.52.15-.14.32-.26.53-.34.21-.08.43-.12.68-.12.3,0,.57.06.81.18ZM194.97,44.04c-.12.05-.22.12-.3.21-.08.09-.15.19-.2.31-.05.12-.07.26-.07.41s.02.29.07.41c.05.12.12.23.2.32.09.09.19.16.31.21.12.05.25.07.4.07s.27-.02.39-.07c.12-.05.22-.12.31-.2.09-.09.15-.19.2-.31.05-.12.07-.25.07-.4s-.03-.28-.08-.41c-.05-.13-.13-.24-.21-.34-.09-.1-.2-.17-.32-.22s-.26-.08-.4-.08-.26.03-.38.08Z"/><path d="M198.88,48.58c-.22-.07-.4-.17-.56-.31-.15-.13-.28-.29-.36-.47s-.13-.38-.13-.6c0-.16.02-.31.07-.45.05-.15.11-.28.2-.4.09-.12.19-.22.31-.3s.25-.14.4-.18c-.14-.05-.25-.12-.36-.2-.1-.08-.19-.17-.27-.27s-.13-.21-.17-.33c-.04-.12-.06-.25-.06-.38,0-.21.04-.39.12-.56.08-.17.2-.32.34-.44.14-.13.32-.22.52-.29.2-.07.42-.1.66-.1s.46.03.66.1c.2.07.37.17.52.29.15.12.26.27.35.44.08.17.13.36.13.57,0,.13-.02.26-.06.38-.04.12-.1.24-.17.34-.07.1-.16.19-.27.27-.1.08-.22.14-.35.19.15.04.28.1.4.18s.22.19.3.31c.08.12.15.25.2.4.05.14.07.29.07.45,0,.21-.04.41-.13.6-.09.18-.21.34-.36.47-.15.13-.34.24-.56.31-.22.07-.46.11-.72.11s-.5-.04-.72-.11ZM200.01,47.95c.13-.04.23-.11.32-.19.09-.08.16-.18.21-.29.05-.11.08-.24.08-.37s-.03-.26-.08-.37c-.05-.11-.12-.21-.21-.29-.09-.08-.2-.15-.33-.2-.13-.05-.26-.07-.41-.07s-.28.02-.41.07c-.13.04-.23.11-.33.19s-.16.18-.21.3c-.05.11-.07.24-.07.37,0,.14.02.27.07.38.05.11.12.21.21.29.09.08.2.14.33.19.13.04.26.07.41.07s.29-.02.41-.07ZM199.25,44.02c-.11.04-.2.09-.28.16-.08.07-.14.15-.18.26s-.07.21-.07.33c0,.11.02.22.07.32.04.1.11.19.19.26.08.07.17.13.28.17s.23.06.35.06.25-.02.35-.06c.1-.04.2-.1.28-.17s.14-.16.19-.26c.04-.1.07-.21.07-.32,0-.12-.02-.23-.07-.33-.04-.1-.11-.19-.19-.26-.08-.07-.17-.12-.28-.16-.11-.04-.23-.06-.36-.06s-.24.02-.35.06Z"/><path d="M203.06,48.51c-.24-.12-.44-.29-.61-.51-.17-.22-.3-.5-.39-.82s-.14-.69-.14-1.09.05-.8.15-1.15c.1-.35.24-.64.43-.89.18-.25.41-.43.67-.56.26-.13.55-.2.88-.2.37,0,.7.09.97.27.27.18.47.43.59.76l-.64.29c-.07-.21-.18-.37-.34-.48-.16-.11-.35-.17-.56-.17-.2,0-.38.05-.55.14s-.31.23-.44.4c-.13.17-.22.37-.29.61s-.1.49-.1.77v.17c0,.06,0,.1,0,.15.08-.25.23-.45.45-.59.22-.14.48-.21.79-.21.24,0,.46.04.65.12.2.08.36.19.5.34.14.15.25.32.33.52.08.2.12.42.12.66s-.04.47-.13.68c-.08.21-.2.38-.35.53-.15.14-.32.26-.53.34s-.43.12-.68.12c-.3,0-.57-.06-.81-.18ZM204.22,47.94c.12-.05.22-.12.3-.21.08-.09.15-.19.2-.31.05-.12.07-.26.07-.41s-.02-.29-.07-.41c-.05-.12-.12-.23-.2-.32s-.19-.16-.31-.21c-.12-.05-.25-.07-.4-.07s-.27.02-.39.07c-.12.05-.22.12-.31.2-.09.09-.15.19-.2.31-.05.12-.07.25-.07.4s.03.28.08.41.12.24.21.34.2.17.32.22c.12.05.26.08.4.08s.26-.03.38-.08Z"/><path d="M209.22,44.99v.67c.11-.24.26-.42.45-.54.18-.12.4-.18.63-.18.26,0,.48.07.67.2.19.14.32.33.41.59.11-.26.27-.45.46-.59.2-.14.43-.2.7-.2.38,0,.67.12.88.37.21.25.31.61.31,1.07v2.25h-.7v-2.16c0-.29-.07-.52-.2-.69-.13-.17-.31-.25-.54-.25-.12,0-.22.02-.32.07-.1.05-.18.11-.26.2-.07.09-.13.19-.16.32-.04.12-.06.26-.06.4v2.11h-.7v-2.16c0-.14-.02-.27-.06-.38-.04-.12-.09-.22-.15-.3-.06-.08-.14-.14-.23-.19-.09-.04-.2-.07-.31-.07s-.22.02-.32.07c-.1.05-.18.12-.25.21-.07.09-.12.2-.17.32-.04.12-.06.26-.06.41v2.09h-.7v-3.64h.68Z"/><path d="M215.4,44.99v.67c.11-.24.26-.42.45-.54.18-.12.4-.18.63-.18.26,0,.48.07.67.2.19.14.32.33.41.59.11-.26.27-.45.46-.59.2-.14.43-.2.7-.2.38,0,.67.12.88.37.21.25.31.61.31,1.07v2.25h-.7v-2.16c0-.29-.07-.52-.2-.69-.13-.17-.31-.25-.54-.25-.12,0-.22.02-.32.07-.1.05-.18.11-.26.2-.07.09-.13.19-.16.32-.04.12-.06.26-.06.4v2.11h-.7v-2.16c0-.14-.02-.27-.06-.38-.04-.12-.09-.22-.15-.3-.06-.08-.14-.14-.23-.19-.09-.04-.2-.07-.31-.07s-.22.02-.32.07c-.1.05-.18.12-.25.21-.07.09-.12.2-.17.32-.04.12-.06.26-.06.41v2.09h-.7v-3.64h.68Z"/></g><g id="MTEXT"><g><path d="M7.61,254.84h5.29v.73h-4.36s.08.04.1.06c.03.02.06.04.09.07l2.02,1.35s.06.04.08.05.05.03.08.06v-3.2h.64v3.98h-.59l-3.35-2.22v-.87Z"/><path d="M12.77,252.39c-.12.24-.29.44-.51.61-.22.17-.5.3-.82.39s-.69.14-1.09.14-.8-.05-1.15-.15c-.35-.1-.64-.24-.89-.43-.25-.18-.43-.41-.56-.67-.13-.26-.2-.55-.2-.88,0-.37.09-.7.27-.97.18-.27.43-.47.76-.59l.29.64c-.21.07-.37.18-.48.34-.11.16-.17.35-.17.56,0,.2.05.38.14.55s.23.31.4.44c.17.13.37.22.61.29s.49.1.77.1h.17c.06,0,.1,0,.15,0-.25-.08-.45-.23-.59-.45-.14-.22-.21-.48-.21-.79,0-.24.04-.46.12-.65.08-.2.19-.36.34-.5.15-.14.32-.25.52-.33.2-.08.42-.12.66-.12s.47.04.68.13c.21.08.38.2.53.35.14.15.26.32.34.53s.12.43.12.68c0,.3-.06.57-.18.81ZM12.2,251.22c-.05-.12-.12-.22-.21-.3-.09-.08-.19-.15-.31-.2-.12-.05-.26-.07-.41-.07s-.29.02-.41.07c-.12.05-.23.12-.32.2s-.16.19-.21.31-.07.25-.07.4.02.27.07.39.12.22.2.31c.09.09.19.15.31.2.12.05.25.07.4.07s.28-.03.41-.08.24-.12.34-.21.17-.2.22-.32c.05-.12.08-.26.08-.4s-.03-.26-.08-.38Z"/><path d="M7.75,246.42c.13-.25.32-.47.55-.65.23-.18.52-.32.85-.42.33-.1.69-.15,1.08-.15s.76.05,1.1.15.62.24.86.42c.24.18.43.4.56.65.13.25.2.52.2.83s-.07.57-.2.82-.32.47-.56.65c-.24.18-.53.32-.86.42-.33.1-.7.15-1.1.15s-.75-.05-1.08-.15c-.33-.1-.61-.24-.85-.42-.24-.18-.42-.4-.55-.65-.13-.25-.2-.53-.2-.83s.07-.58.2-.83ZM8.39,247.77c.1.16.23.29.41.41.18.11.38.2.63.27.24.07.51.1.81.1s.57-.03.82-.09c.25-.06.46-.15.64-.27.18-.12.32-.25.42-.41.1-.16.15-.33.15-.52s-.05-.37-.15-.53c-.1-.16-.24-.3-.42-.41-.18-.11-.39-.2-.64-.27-.25-.06-.52-.09-.82-.09s-.56.03-.81.09c-.25.06-.46.15-.63.26-.17.11-.31.25-.41.41-.1.16-.15.34-.15.53s.05.37.15.52Z"/><path d="M9.25,241.59h.67c-.24-.11-.42-.26-.54-.45-.12-.18-.18-.4-.18-.63,0-.26.07-.48.2-.67.14-.19.33-.32.59-.41-.26-.11-.45-.27-.59-.46-.14-.2-.2-.43-.2-.7,0-.38.12-.67.37-.88.25-.21.61-.31,1.07-.31h2.25v.7h-2.16c-.29,0-.52.07-.69.2-.17.13-.25.31-.25.54,0,.12.02.22.07.32.05.1.11.18.2.26.09.07.19.13.32.16.12.04.26.06.4.06h2.11v.7h-2.16c-.14,0-.27.02-.38.06-.12.04-.22.09-.3.15-.08.06-.14.14-.19.23-.04.09-.07.2-.07.31s.02.22.07.32c.05.1.12.18.21.25.09.07.2.12.32.17.12.04.26.06.41.06h2.09v.7h-3.64v-.68Z"/><path d="M9.25,235.41h.67c-.24-.11-.42-.26-.54-.45-.12-.18-.18-.4-.18-.63,0-.26.07-.48.2-.67.14-.19.33-.32.59-.41-.26-.11-.45-.27-.59-.46-.14-.2-.2-.43-.2-.7,0-.38.12-.67.37-.88.25-.21.61-.31,1.07-.31h2.25v.7h-2.16c-.29,0-.52.07-.69.2-.17.13-.25.31-.25.54,0,.12.02.22.07.32.05.1.11.18.2.26.09.07.19.13.32.16.12.04.26.06.4.06h2.11v.7h-2.16c-.14,0-.27.02-.38.06-.12.04-.22.09-.3.15-.08.06-.14.14-.19.23-.04.09-.07.2-.07.31s.02.22.07.32c.05.1.12.18.21.25.09.07.2.12.32.17.12.04.26.06.41.06h2.09v.7h-3.64v-.68Z"/></g></g><g><line y2="119.95" x2="16.82" y1="73.24" x1="16.82" class="cls-1"/><rect height=".3" width="1.95" y="73.09" x="15.84"/><rect height=".3" width="1.95" y="119.8" x="15.84"/></g><path d="M39.22,205.68v1.07M40.88,205.68h-1.66M371.03,205.68h1.66M47.63,279.43v-.24M47.63,279.19l-.12-.18M364.34,279.43v-.24M364.34,279.19l.12-.18M39.22,208.47v-1.72M40.88,205.68v2.78M39.22,282.92v-74.45M40.88,280.91v-72.44M39.22,282.92h1.66M361.79,280.91h-1.66M360.13,282.92h1.66M360.13,280.91v2.01M371.03,280.91h-9.24M371.03,282.92h-9.24M371.03,280.91,371.03,282.92,40.88,282.92h9.24M40.88,280.91h9.24M51.78,282.92h-1.66M51.78,280.91v2.01M50.12,280.91h1.66M68.6,218.6h2.25l.12-.06h.12M71.09,218.54v-.65M41.53,216.82h-.65M42.42,217.77h-1.54M68.6,218.6h-27.73M55.98,218.66v-.06M47.63,221.85h5.15M45.91,223.57v49.76M45.91,223.57l.06-.36.06-.3.18-.3.24-.24.24-.24.3-.18.3-.06.36-.06M47.51,279.01l-.36-.65-.36-.65-.24-.71-.24-.71-.18-.71-.12-.77-.06-.71-.06-.77M53.97,221.38l1.54-1.54M55.51,219.84l.12-.12.12-.12.06-.18.06-.12.06-.18.06-.12v-.36M47.63,280.91v-1.48M47.63,279.43v-.06M52.79,221.85h.36l.12-.06.18-.06.12-.06.18-.06.12-.12.12-.12M364.46,279.01l.36-.65.3-.65.3-.71.18-.71.18-.71.12-.77.12-.71v-.77M364.46,279.01l-.06.06v.06l-.06.06v.24M364.34,280.91v-1.48M355.92,218.66v-.06M355.92,218.66v.18l.06.18v.12l.06.18.06.12.12.18.06.12.12.12M357.94,221.38l-1.54-1.54M357.94,221.38l.12.12.12.12.18.06.12.06.18.06.18.06h.3M364.34,221.85h-5.21M364.34,221.85l.3.06.36.06.24.18.3.24.18.24.18.3.06.3.06.36M366,223.57v49.76M372.69,205.68v2.78M371.03,208.47v-2.78M372.69,282.92v-74.45M371.03,280.91v-72.44M371.03,282.92h1.66M340.82,218.54v-.65M343.31,218.6h-2.25l-.12-.06h-.12M370.44,216.82h.59M343.31,218.6h27.73M43.07,217.89h0M368.84,217.89h0M370.56,207.34v8.88M41.41,216.23v-8.88M43.07,205.68h-.36l-.3.12-.3.18-.24.18-.24.24-.12.3-.12.36v.3M43.07,205.68h325.77M368.84,205.68h.36l.3.12.3.18.24.18.24.24.12.3.12.36.06.3M327.31,222.33l-.18.18-.12.12-.12.12-.12.12-.12.12-.06.06h-.06v.06M84.66,222.33l.12.18.12.12.18.12.12.12.06.12.06.06h.06v.06M331.16,218.48l-3.85,3.85M331.51,217.88v.24s-.05.06-.05.06l-.06.06-.06.06-.06.06-.06.06-.06.06M84.66,222.33l-3.91-3.85-.41-.36v-.24M43.07,217.89h325.77M41.41,216.23v.3l.12.36.12.3.24.24.24.24.3.12.3.12h.36M368.84,217.89h.36l.3-.12.3-.12.24-.24.24-.24.12-.3.12-.36.06-.3M85.37,223.1h241.17" class="cls-1"/><path d="M40.88,117.32v1.66M39.22,118.98h0v-1.66M40.88,118.98h-1.66M40.88,117.32v-38.79M39.22,117.32v-38.79M40.88,78.53v-4.38M39.22,78.53v-4.38M371.03,118.98h-.59M40.88,118.98h.65M41.41,87.28h-.53M41.41,87.34h-.53M41.41,115.66h-.53M371.03,118.98h0v-1.66M372.69,117.32v1.66M372.69,118.98h-1.66M371.03,117.32v-38.79M372.69,117.32v-38.79M371.03,78.53v-4.38M372.69,78.53v-4.38M370.56,87.28h.47M370.56,115.66h.47M370.56,87.34h.47M370.56,74.74h0v3.78M41.41,78.53v-3.78M41.41,118.39v-39.86M370.56,78.53v39.86M40.88,74.15h-1.66M372.69,74.15h-1.66M41.41,118.39v.35l.12.3.12.3.24.24.24.24.3.12.3.12.36.06M368.84,120.1l.36-.06.3-.12.3-.12.24-.24.24-.24.12-.3.12-.3.06-.35M43.07,120.1h325.77M370.56,74.74l-.06-.35-.12-.3-.12-.3-.24-.24-.24-.24-.3-.12-.3-.12h-.36M368.84,73.09H43.07M43.07,73.09h-.36l-.3.12-.3.12-.24.24-.24.24-.12.3-.12.3v.35" class="cls-1"/><path d="M494.04,225.27,493.75,224.15" class="cls-1"/><path d="M450.94,217.71c1.64.41,3.26,1.13,4.85,1.7,3.16,1.12,6.31,2.26,9.5,3.27.88.28,2.42.99,2.19,2.16l.09,56.04-4.61-.03v2.19h22.94s-.01-51.69-.01-51.69c.02-5.69-.05-16.3,0-22.7,0-1.05-.47-1.94-1.52-1.94h-38.94c-.38,0-1.76.09-2.95,1.15-1.15,1.02-1.44,2.38-1.24,3.88.27,2.13,1.92,3.12,3.8,3.83l5.93,2.13Z" class="cls-1"/><path d="M451.32,217.89l-6.96-2.53c-1.97-.74-3.52-1.79-3.8-4.07-.2-1.61.1-3.06,1.28-4.15,1.24-1.14,2.66-1.22,3.05-1.23h40.21c1.08,0,1.58.96,1.57,2.08-.02,2.51-.02,6.08-.02,9.32-.13.34-.48.62-.81.51" class="cls-1"/><g><path d="M7.67,107.07c.08-.21.19-.39.33-.54.14-.15.31-.27.51-.35.2-.08.42-.13.67-.13.14,0,.28.02.42.05s.28.08.41.15.27.16.42.27c.14.11.29.24.45.39l1.35,1.31v-2.29h.67v3.32h-.59l-1.85-1.79c-.12-.12-.23-.22-.33-.3-.1-.08-.21-.15-.3-.2-.1-.05-.19-.09-.29-.11-.09-.02-.19-.03-.29-.03-.15,0-.28.02-.4.07-.12.04-.23.11-.32.2-.09.09-.16.19-.21.3-.05.11-.07.24-.07.39,0,.25.08.47.23.65.15.18.36.31.63.39l-.23.67c-.42-.12-.75-.32-.97-.62s-.34-.66-.34-1.1c0-.25.04-.48.12-.69Z"/><path d="M12.89,104.66l-4.62-1.78v2.69h-.67v-3.5h.59l4.7,1.77v.83Z"/><path d="M7.61,98.59h.65v1.92l1.54.25c-.09-.1-.16-.22-.21-.36-.05-.14-.07-.29-.07-.46,0-.25.04-.47.13-.68.08-.21.2-.38.35-.53.15-.15.33-.27.54-.35.21-.08.44-.12.69-.12s.48.04.7.13c.21.09.4.21.55.36s.27.34.36.56c.08.21.13.45.13.71,0,.2-.03.39-.08.58-.05.18-.13.35-.23.5-.1.15-.22.28-.36.39-.14.11-.3.19-.48.24l-.31-.63c.24-.07.43-.19.56-.39.14-.19.21-.42.21-.67,0-.15-.03-.29-.08-.41-.05-.13-.12-.23-.21-.33-.09-.09-.2-.16-.33-.21-.13-.05-.27-.08-.43-.08s-.3.03-.44.08-.25.13-.34.22-.17.21-.22.34c-.05.13-.08.28-.08.44,0,.18.04.35.1.49.07.14.17.26.31.36l-.15.62-2.79-.47v-2.52Z"/><path d="M9.25,94.65h.67c-.24-.11-.42-.26-.54-.45s-.18-.4-.18-.63c0-.26.07-.48.2-.67.14-.19.33-.32.59-.41-.26-.11-.45-.27-.59-.46-.13-.2-.2-.43-.2-.7,0-.38.12-.67.37-.88s.61-.31,1.07-.31h2.25v.7h-2.16c-.29,0-.52.07-.69.2-.17.13-.25.31-.25.54,0,.12.02.22.07.32.05.1.11.18.2.26.09.07.2.13.32.16.12.04.26.06.4.06h2.11v.7h-2.16c-.14,0-.27.02-.38.06-.12.04-.22.09-.3.15-.08.06-.14.14-.19.23-.04.09-.07.2-.07.31s.02.22.07.32c.05.1.12.18.21.25s.2.12.32.17c.12.04.26.06.41.06h2.09v.7h-3.64v-.68Z"/><path d="M9.25,88.47h.67c-.24-.11-.42-.26-.54-.45s-.18-.4-.18-.63c0-.26.07-.48.2-.67.14-.19.33-.32.59-.41-.26-.11-.45-.27-.59-.46-.13-.2-.2-.43-.2-.7,0-.38.12-.67.37-.88s.61-.31,1.07-.31h2.25v.7h-2.16c-.29,0-.52.07-.69.2-.17.13-.25.31-.25.54,0,.12.02.22.07.32.05.1.11.18.2.26.09.07.2.13.32.16.12.04.26.06.4.06h2.11v.7h-2.16c-.14,0-.27.02-.38.06-.12.04-.22.09-.3.15-.08.06-.14.14-.19.23-.04.09-.07.2-.07.31s.02.22.07.32c.05.1.12.18.21.25s.2.12.32.17c.12.04.26.06.41.06h2.09v.7h-3.64v-.68Z"/></g></g></g></g></svg>