<svg viewBox="0 0 531.27 288" xmlns:xlink="http://www.w3.org/1999/xlink" xmlns="http://www.w3.org/2000/svg" id="Camada_2"><defs><style>.cls-1,.cls-2,.cls-3,.cls-4,.cls-5,.cls-6{fill:none;}.cls-7{fill:#12100c;}.cls-2{stroke-width:.33px;}.cls-2,.cls-3,.cls-4,.cls-5{stroke:#12100c;}.cls-2,.cls-6{stroke-linecap:round;stroke-linejoin:round;}.cls-3{stroke-width:.27px;}.cls-3,.cls-4,.cls-5{stroke-miterlimit:10;}.cls-4{stroke-width:.27px;}.cls-5{stroke-width:.32px;}.cls-6{stroke:#000;stroke-width:.37px;}</style><symbol viewBox="0 0 531.27 288" id="fundo_transparente"><rect height="288" width="531.27" x="0" class="cls-1"/></symbol></defs><g id="RePlastic"><g id="mesa_Arch"><use xlink:href="#fundo_transparente" height="288" width="531.27"/><g id="LINE"><line y2="194.72" x2="282.87" y1="194.72" x1="284.06" class="cls-6"/><line y2="194.72" x2="310.09" y1="194.72" x1="311.23" class="cls-6"/><line y2="194.72" x2="337.21" y1="194.72" x1="338.4" class="cls-6"/><line y2="194.72" x2="323.67" y1="194.72" x1="324.81" class="cls-6"/><line y2="194.72" x2="296.5" y1="194.72" x1="297.64" class="cls-6"/><line y2="194.72" x2="269.33" y1="194.72" x1="270.47" class="cls-6"/></g><rect height="98.12" width="12.39" y="182.52" x="256.89" class="cls-6"/><rect height="98.17" width="12.39" y="182.47" x="270.47" class="cls-6"/><rect height="98.17" width="12.44" y="182.47" x="284.06" class="cls-6"/><path d="M297.64,182.47v98.17h12.44v-98.17h-12.44ZM303.89,189.51c-.69,0-1.24-.55-1.24-1.19s.55-1.19,1.24-1.19c.65,0,1.19.55,1.19,1.19s-.54,1.19-1.19,1.19Z" class="cls-6"/><path d="M302.65,188.32c0-.64.55-1.19,1.24-1.19.65,0,1.19.55,1.19,1.19s-.54,1.19-1.19,1.19c-.69,0-1.24-.55-1.24-1.19Z" class="cls-6"/><polygon points="323.67 182.47 323.67 195.81 323.62 195.81 323.62 200.37 323.67 200.37 323.67 280.64 311.23 280.64 311.23 182.47 323.67 182.47" class="cls-6"/><rect height="4.56" width=".05" y="195.81" x="323.62" class="cls-6"/><rect height="98.22" width="12.39" y="182.42" x="324.81" class="cls-6"/><rect height="98.17" width="12.39" y="182.47" x="338.4" class="cls-6"/><rect height="4.56" width="1.19" y="195.81" x="337.21" class="cls-6"/><rect height="4.56" width="1.19" y="195.81" x="323.62" class="cls-6"/><rect height="4.56" width="1.14" y="195.81" x="310.09" class="cls-6"/><rect height="4.56" width="1.14" y="195.81" x="296.5" class="cls-6"/><rect height="4.56" width="1.19" y="195.81" x="282.87" class="cls-6"/><rect height="4.56" width="1.19" y="195.81" x="269.28" class="cls-6"/><rect height="4.76" width="93.9" y="280.64" x="256.89" class="cls-6"/><path d="M263.11,187.12c-.67,0-1.22.54-1.22,1.2s.55,1.2,1.22,1.2,1.22-.54,1.22-1.2-.54-1.2-1.22-1.2Z" class="cls-6"/><path d="M263.62,188.43s0-.02-.01-.03c0,0-.01-.02-.02-.02,0,0,0,0,0,0-.02-.02-.04-.03-.05-.06-.01-.02-.02-.04-.03-.06,0-.02-.01-.04-.02-.07,0-.02,0-.04,0-.06,0-.02.01-.04.02-.06,0-.01,0-.02,0-.03,0-.01,0-.02,0-.03,0,0,0-.02-.01-.03,0,0,0,0,0,0,0,0,0,0-.01-.01,0,0-.02,0-.03-.01-.01,0-.02,0-.03,0-.01,0-.02,0-.03,0,0,0,0,0,0,0-.02,0-.05.01-.07.02-.02,0-.05,0-.07,0-.02,0-.05-.01-.07-.02-.02,0-.04-.02-.05-.03-.02-.01-.03-.03-.05-.05,0,0-.01-.02-.02-.02,0,0-.02-.01-.03-.01-.01,0-.02,0-.03,0,0,0,0,0-.01,0,0,0-.01,0-.02,0,0,0-.02,0-.02.02,0,0-.01.01-.02.02,0,0,0,.02-.01.03,0,0,0,0,0,0,0,.03-.01.05-.02.07,0,.02-.02.04-.04.06-.01.02-.03.03-.05.05-.02.01-.04.02-.06.03-.02,0-.04.01-.06.02-.01,0-.02,0-.03,0-.01,0-.02.01-.03.02,0,0-.01.02-.02.03,0,0,0,0,0,.01,0,0,0,.01,0,.02,0,0,0,.02,0,.03,0,0,0,.02,0,.03,0,0,.01.02.02.02,0,0,0,0,0,0,.02.02.04.03.05.05.01.02.02.04.03.06,0,.02.01.04.01.07,0,.02,0,.04,0,.06,0,.02-.01.04-.02.06,0,.01,0,.02,0,.03,0,.01,0,.02,0,.03s0,.02.01.03c0,0,0,0,0,0,0,0,0,0,.01.01,0,0,.02.01.03.01,0,0,.02,0,.03,0,.01,0,.02,0,.03,0,0,0,0,0,0,0,.02,0,.05-.02.08-.02.02,0,.04,0,.07,0,.02,0,.05.01.07.02.02,0,.04.02.05.03.02.01.03.03.05.05,0,0,.01.02.02.02,0,0,.02.01.03.01.01,0,.02,0,.03,0,0,0,0,0,.01,0,0,0,.01,0,.02,0,0,0,.02,0,.02-.02s.01-.01.02-.02c0,0,0-.02.01-.03,0,0,0,0,0,0,0-.02.01-.05.02-.07,0-.02.02-.04.04-.06.02-.02.03-.03.05-.05.02-.01.04-.02.05-.03.02,0,.04-.01.06-.02.01,0,.02,0,.03,0,.01,0,.02-.01.03-.02,0,0,.01-.02.02-.03,0,0,0,0,0-.01,0,0,0-.01,0-.02,0,0,0-.02,0-.03Z" class="cls-6"/><path d="M303.89,187.13c-.69,0-1.24.55-1.24,1.19s.55,1.19,1.24,1.19c.65,0,1.19-.55,1.19-1.19s-.54-1.19-1.19-1.19Z" class="cls-6"/><path d="M304.38,188.43s0-.02-.01-.03c0,0-.01-.02-.02-.02,0,0,0,0,0,0-.02-.02-.04-.03-.05-.06-.01-.02-.02-.04-.03-.06,0-.02-.01-.04-.02-.07,0-.02,0-.04,0-.06,0-.02.01-.04.02-.06,0-.01,0-.02,0-.03,0-.01,0-.02,0-.03,0,0,0-.02-.01-.03,0,0,0,0,0,0,0,0,0,0-.01-.01,0,0-.02,0-.03-.01-.01,0-.02,0-.03,0-.01,0-.02,0-.03,0,0,0,0,0,0,0-.02,0-.05.01-.07.02-.02,0-.05,0-.07,0-.02,0-.05-.01-.07-.02-.02,0-.04-.02-.05-.03-.02-.01-.03-.03-.05-.05,0,0-.01-.02-.02-.02,0,0-.02-.01-.03-.01-.01,0-.02,0-.03,0,0,0,0,0-.01,0,0,0-.01,0-.02,0,0,0-.02,0-.02.02,0,0-.01.01-.02.02,0,0,0,.02-.01.03,0,0,0,0,0,0,0,.03-.01.05-.02.07,0,.02-.02.04-.04.06-.01.02-.03.03-.05.05-.02.01-.04.02-.06.03-.02,0-.04.01-.06.02-.01,0-.02,0-.03,0-.01,0-.02.01-.03.02,0,0-.01.02-.02.03,0,0,0,0,0,.01,0,0,0,.01,0,.02,0,0,0,.02,0,.03,0,0,0,.02,0,.03,0,0,.01.02.02.02,0,0,0,0,0,0,.02.02.04.03.05.05.01.02.02.04.03.06,0,.02.01.04.01.07,0,.02,0,.04,0,.06,0,.02-.01.04-.02.06,0,.01,0,.02,0,.03,0,.01,0,.02,0,.03s0,.02.01.03c0,0,0,0,0,0,0,0,0,0,.01.01,0,0,.02.01.03.01,0,0,.02,0,.03,0,.01,0,.02,0,.03,0,0,0,0,0,0,0,.02,0,.05-.02.08-.02.02,0,.04,0,.07,0,.02,0,.05.01.07.02.02,0,.04.02.05.03.02.01.03.03.05.05,0,0,.01.02.02.02,0,0,.02.01.03.01.01,0,.02,0,.03,0,0,0,0,0,.01,0,0,0,.01,0,.02,0,0,0,.02,0,.02-.02s.01-.01.02-.02c0,0,0-.02.01-.03,0,0,0,0,0,0,0-.02.01-.05.02-.07,0-.02.02-.04.04-.06.02-.02.03-.03.05-.05.02-.01.04-.02.05-.03.02,0,.04-.01.06-.02.01,0,.02,0,.03,0,.01,0,.02-.01.03-.02,0,0,.01-.02.02-.03,0,0,0,0,0-.01,0,0,0-.01,0-.02,0,0,0-.02,0-.03Z" class="cls-6"/><path d="M344.59,187.12c-.67,0-1.22.54-1.22,1.2s.55,1.2,1.22,1.2,1.22-.54,1.22-1.2-.54-1.2-1.22-1.2Z" class="cls-6"/><path d="M345.1,188.43s0-.02-.01-.03c0,0-.01-.02-.02-.02,0,0,0,0,0,0-.02-.02-.04-.03-.05-.06-.01-.02-.02-.04-.03-.06,0-.02-.01-.04-.02-.07,0-.02,0-.04,0-.06,0-.02.01-.04.02-.06,0-.01,0-.02,0-.03,0-.01,0-.02,0-.03,0,0,0-.02-.01-.03,0,0,0,0,0,0,0,0,0,0-.01-.01,0,0-.02,0-.03-.01-.01,0-.02,0-.03,0-.01,0-.02,0-.03,0,0,0,0,0,0,0-.02,0-.05.01-.07.02-.02,0-.05,0-.07,0-.02,0-.05-.01-.07-.02-.02,0-.04-.02-.05-.03-.02-.01-.03-.03-.05-.05,0,0-.01-.02-.02-.02,0,0-.02-.01-.03-.01-.01,0-.02,0-.03,0,0,0,0,0-.01,0,0,0-.01,0-.02,0,0,0-.02,0-.02.02,0,0-.01.01-.02.02,0,0,0,.02-.01.03,0,0,0,0,0,0,0,.03-.01.05-.02.07,0,.02-.02.04-.04.06-.01.02-.03.03-.05.05-.02.01-.04.02-.06.03-.02,0-.04.01-.06.02-.01,0-.02,0-.03,0-.01,0-.02.01-.03.02,0,0-.01.02-.02.03,0,0,0,0,0,.01,0,0,0,.01,0,.02,0,0,0,.02,0,.03,0,0,0,.02,0,.03,0,0,.01.02.02.02,0,0,0,0,0,0,.02.02.04.03.05.05.01.02.02.04.03.06,0,.02.01.04.01.07,0,.02,0,.04,0,.06,0,.02-.01.04-.02.06,0,.01,0,.02,0,.03,0,.01,0,.02,0,.03s0,.02.01.03c0,0,0,0,0,0,0,0,0,0,.01.01,0,0,.02.01.03.01,0,0,.02,0,.03,0,.01,0,.02,0,.03,0,0,0,0,0,0,0,.02,0,.05-.02.08-.02.02,0,.04,0,.07,0,.02,0,.05.01.07.02.02,0,.04.02.05.03.02.01.03.03.05.05,0,0,.01.02.02.02,0,0,.02.01.03.01.01,0,.02,0,.03,0,0,0,0,0,.01,0,0,0,.01,0,.02,0,0,0,.02,0,.02-.02s.01-.01.02-.02c0,0,0-.02.01-.03,0,0,0,0,0,0,0-.02.01-.05.02-.07,0-.02.02-.04.04-.06.02-.02.03-.03.05-.05.02-.01.04-.02.05-.03.02,0,.04-.01.06-.02.01,0,.02,0,.03,0,.01,0,.02-.01.03-.02,0,0,.01-.02.02-.03,0,0,0,0,0-.01,0,0,0-.01,0-.02,0,0,0-.02,0-.03Z" class="cls-6"/><g id="MTEXT"><path d="M6.64,96.78c-.12.24-.29.44-.51.61-.22.17-.5.3-.82.39s-.69.14-1.09.14-.8-.05-1.15-.15c-.35-.1-.64-.24-.89-.43-.25-.18-.43-.41-.56-.67-.13-.26-.2-.55-.2-.88,0-.37.09-.7.27-.97.18-.27.43-.47.76-.59l.29.64c-.21.07-.37.18-.48.34-.11.16-.17.35-.17.56,0,.2.05.38.14.55s.23.31.4.44c.17.13.37.22.61.29s.49.1.77.1h.17c.06,0,.1,0,.15,0-.25-.08-.45-.23-.59-.45-.14-.22-.21-.48-.21-.79,0-.24.04-.46.12-.65.08-.2.19-.36.34-.5.15-.14.32-.25.52-.33.2-.08.42-.12.66-.12s.47.04.68.13c.21.08.38.2.53.35.14.15.26.32.34.53s.12.43.12.68c0,.3-.06.57-.18.81ZM6.07,95.61c-.05-.12-.12-.22-.21-.3-.09-.08-.19-.15-.31-.2-.12-.05-.26-.07-.41-.07s-.29.02-.41.07c-.12.05-.23.12-.32.2s-.16.19-.21.31-.07.25-.07.4.02.27.07.39.12.22.2.31c.09.09.19.15.31.2.12.05.25.07.4.07s.28-.03.41-.08.24-.12.34-.21.17-.2.22-.32c.05-.12.08-.26.08-.4s-.03-.26-.08-.38Z"/><path d="M6.77,92.95l-4.62-1.78v2.69h-.67v-3.5h.59l4.7,1.77v.83Z"/><path d="M1.62,87.11c.13-.25.32-.47.55-.65.23-.18.52-.32.85-.42.33-.1.69-.15,1.08-.15s.76.05,1.1.15.62.24.86.42c.24.18.43.4.56.65.13.25.2.52.2.83s-.07.57-.2.82-.32.47-.56.65c-.24.18-.53.32-.86.42-.33.1-.7.15-1.1.15s-.75-.05-1.08-.15c-.33-.1-.61-.24-.85-.42-.24-.18-.42-.4-.55-.65-.13-.25-.2-.53-.2-.83s.07-.58.2-.83ZM2.26,88.47c.1.16.23.29.41.41.18.11.38.2.63.27.24.07.51.1.81.1s.57-.03.82-.09c.25-.06.46-.15.64-.27.18-.12.32-.25.42-.41.1-.16.15-.33.15-.52s-.05-.37-.15-.53c-.1-.16-.24-.3-.42-.41-.18-.11-.39-.2-.64-.27-.25-.06-.52-.09-.82-.09s-.56.03-.81.09c-.25.06-.46.15-.63.26-.17.11-.31.25-.41.41-.1.16-.15.34-.15.53s.05.37.15.52Z"/><path d="M3.13,82.29h.67c-.24-.11-.42-.26-.54-.45-.12-.18-.18-.4-.18-.63,0-.26.07-.48.2-.67.14-.19.33-.32.59-.41-.26-.11-.45-.27-.59-.46-.14-.2-.2-.43-.2-.7,0-.38.12-.67.37-.88.25-.21.61-.31,1.07-.31h2.25v.7h-2.16c-.29,0-.52.07-.69.2-.17.13-.25.31-.25.54,0,.12.02.22.07.32.05.1.11.18.2.26.09.07.19.13.32.16.12.04.26.06.4.06h2.11v.7h-2.16c-.14,0-.27.02-.38.06-.12.04-.22.09-.3.15-.08.06-.14.14-.19.23-.04.09-.07.2-.07.31s.02.22.07.32c.05.1.12.18.21.25.09.07.2.12.32.17.12.04.26.06.41.06h2.09v.7h-3.64v-.68Z"/><path d="M3.13,76.1h.67c-.24-.11-.42-.26-.54-.45-.12-.18-.18-.4-.18-.63,0-.26.07-.48.2-.67.14-.19.33-.32.59-.41-.26-.11-.45-.27-.59-.46-.14-.2-.2-.43-.2-.7,0-.38.12-.67.37-.88.25-.21.61-.31,1.07-.31h2.25v.7h-2.16c-.29,0-.52.07-.69.2-.17.13-.25.31-.25.54,0,.12.02.22.07.32.05.1.11.18.2.26.09.07.19.13.32.16.12.04.26.06.4.06h2.11v.7h-2.16c-.14,0-.27.02-.38.06-.12.04-.22.09-.3.15-.08.06-.14.14-.19.23-.04.09-.07.2-.07.31s.02.22.07.32c.05.1.12.18.21.25.09.07.2.12.32.17.12.04.26.06.41.06h2.09v.7h-3.64v-.68Z"/></g><line y2="130.47" x2="10.76" y1="38.85" x1="10.76" class="cls-5"/><rect height=".32" width="2.09" y="38.68" x="9.72" class="cls-7"/><rect height=".32" width="2.09" y="130.31" x="9.72" class="cls-7"/><g id="MTEXT-2"><path d="M8.02,245.82l-4.62-1.78v2.69h-.67v-3.5h.59l4.7,1.77v.83Z"/><path d="M2.73,239.74h.65v1.92l1.54.25c-.09-.1-.16-.22-.21-.36-.05-.14-.07-.29-.07-.46,0-.25.04-.47.13-.68.08-.21.2-.38.35-.53.15-.15.33-.27.54-.35.21-.08.44-.12.69-.12s.48.04.7.13c.21.09.4.21.55.36.15.16.27.34.36.56.08.21.13.45.13.71,0,.2-.03.39-.08.58s-.13.35-.23.5c-.1.15-.22.28-.36.39-.14.11-.3.19-.48.24l-.31-.63c.24-.07.43-.19.56-.39.14-.19.21-.42.21-.67,0-.15-.03-.29-.08-.41-.05-.13-.12-.23-.21-.33-.09-.09-.2-.16-.33-.21-.13-.05-.27-.08-.43-.08s-.3.03-.44.08c-.13.05-.25.13-.34.22s-.17.21-.22.34c-.05.13-.08.28-.08.44,0,.18.04.35.1.49.07.14.17.26.31.36l-.15.62-2.79-.47v-2.52Z"/><path d="M2.87,236c.13-.25.32-.47.55-.65.23-.18.52-.32.85-.42.33-.1.69-.15,1.08-.15s.76.05,1.1.15.62.24.86.42c.24.18.43.4.56.65.13.25.2.52.2.83s-.07.57-.2.82-.32.47-.56.65c-.24.18-.53.32-.86.42-.33.1-.7.15-1.1.15s-.75-.05-1.08-.15c-.33-.1-.61-.24-.85-.42-.24-.18-.42-.4-.55-.65-.13-.25-.2-.53-.2-.83s.07-.58.2-.83ZM3.51,237.36c.1.16.23.29.41.41.18.11.38.2.63.27.24.07.51.1.81.1s.57-.03.82-.09c.25-.06.46-.15.64-.27.18-.12.32-.25.42-.41.1-.16.15-.33.15-.52s-.05-.37-.15-.53c-.1-.16-.24-.3-.42-.41-.18-.11-.39-.2-.64-.27-.25-.06-.52-.09-.82-.09s-.56.03-.81.09c-.25.06-.46.15-.63.26-.17.11-.31.25-.41.41-.1.16-.15.34-.15.53s.05.37.15.52Z"/><path d="M4.38,231.18h.67c-.24-.11-.42-.26-.54-.45-.12-.18-.18-.4-.18-.63,0-.26.07-.48.2-.67.14-.19.33-.32.59-.41-.26-.11-.45-.27-.59-.46-.14-.2-.2-.43-.2-.7,0-.38.12-.67.37-.88.25-.21.61-.31,1.07-.31h2.25v.7h-2.16c-.29,0-.52.07-.69.2-.17.13-.25.31-.25.54,0,.12.02.22.07.32.05.1.11.18.2.26.09.07.19.13.32.16.12.04.26.06.4.06h2.11v.7h-2.16c-.14,0-.27.02-.38.06-.12.04-.22.09-.3.15-.08.06-.14.14-.19.23-.04.09-.07.2-.07.31s.02.22.07.32c.05.1.12.18.21.25.09.07.2.12.32.17.12.04.26.06.41.06h2.09v.7h-3.64v-.68Z"/><path d="M4.38,224.99h.67c-.24-.11-.42-.26-.54-.45-.12-.18-.18-.4-.18-.63,0-.26.07-.48.2-.67.14-.19.33-.32.59-.41-.26-.11-.45-.27-.59-.46-.14-.2-.2-.43-.2-.7,0-.38.12-.67.37-.88.25-.21.61-.31,1.07-.31h2.25v.7h-2.16c-.29,0-.52.07-.69.2-.17.13-.25.31-.25.54,0,.12.02.22.07.32.05.1.11.18.2.26.09.07.19.13.32.16.12.04.26.06.4.06h2.11v.7h-2.16c-.14,0-.27.02-.38.06-.12.04-.22.09-.3.15-.08.06-.14.14-.19.23-.04.09-.07.2-.07.31s.02.22.07.32c.05.1.12.18.21.25.09.07.2.12.32.17.12.04.26.06.41.06h2.09v.7h-3.64v-.68Z"/></g><line y2="285" x2="10.76" y1="182.58" x1="10.76" class="cls-5"/><rect height=".32" width="2.09" y="182.42" x="9.72" class="cls-7"/><rect height=".32" width="2.09" y="284.84" x="9.72" class="cls-7"/><rect height="12.1" width="208.52" y="38.92" x="20.84" class="cls-3"/><rect height="12.1" width="12.51" y="38.92" x="20.84" class="cls-3"/><rect height="12.1" width="12.51" y="38.92" x="216.85" class="cls-3"/><rect height="12.1" width="208.52" y="52.24" x="20.84" class="cls-3"/><rect height="12.1" width="12.51" y="52.24" x="20.84" class="cls-3"/><rect height="12.1" width="12.51" y="52.24" x="216.85" class="cls-3"/><rect height="12.1" width="208.52" y="65.5" x="20.84" class="cls-3"/><rect height="12.1" width="12.51" y="65.5" x="20.84" class="cls-3"/><rect height="12.1" width="12.51" y="65.5" x="216.85" class="cls-3"/><rect height="12.1" width="208.52" y="78.75" x="20.84" class="cls-3"/><rect height="12.1" width="12.51" y="78.75" x="20.84" class="cls-3"/><rect height="12.1" width="12.51" y="78.75" x="216.85" class="cls-3"/><rect height="12.1" width="208.52" y="92.01" x="20.84" class="cls-3"/><rect height="12.1" width="12.51" y="92.01" x="20.84" class="cls-3"/><rect height="12.1" width="12.51" y="92.01" x="216.85" class="cls-3"/><rect height="12.1" width="208.52" y="105.27" x="20.84" class="cls-3"/><rect height="12.1" width="12.51" y="105.27" x="20.84" class="cls-3"/><rect height="12.1" width="12.51" y="105.27" x="216.85" class="cls-3"/><rect height="12.1" width="208.11" y="118.57" x="21.12" class="cls-4"/><rect height="12.1" width="12.49" y="118.57" x="21.12" class="cls-4"/><rect height="12.1" width="12.49" y="118.57" x="216.75" class="cls-4"/><rect height="1.16" width="4.17" y="51.02" x="34.6" class="cls-3"/><rect height="1.16" width="4.17" y="64.34" x="34.6" class="cls-3"/><rect height="1.16" width="4.17" y="77.6" x="34.6" class="cls-3"/><rect height="1.16" width="4.17" y="90.85" x="34.6" class="cls-3"/><rect height="1.16" width="4.17" y="104.11" x="34.6" class="cls-3"/><rect height="1.16" width="4.16" y="117.41" x="34.86" class="cls-4"/><rect height="1.16" width="6.95" y="51.02" x="121.62" class="cls-3"/><rect height="1.16" width="6.95" y="64.34" x="121.62" class="cls-3"/><rect height="1.16" width="6.95" y="77.6" x="121.62" class="cls-3"/><rect height="1.16" width="6.95" y="90.85" x="121.62" class="cls-3"/><rect height="1.16" width="6.95" y="104.11" x="121.62" class="cls-3"/><rect height="1.16" width="6.94" y="117.41" x="121.71" class="cls-4"/><rect transform="translate(427.02 103.2) rotate(-180)" height="1.16" width="4.17" y="51.02" x="211.42" class="cls-3"/><rect transform="translate(427.02 129.84) rotate(-180)" height="1.16" width="4.17" y="64.34" x="211.42" class="cls-3"/><rect transform="translate(427.02 156.35) rotate(-180)" height="1.16" width="4.17" y="77.6" x="211.42" class="cls-3"/><rect transform="translate(427.02 182.86) rotate(-180)" height="1.16" width="4.17" y="90.85" x="211.42" class="cls-3"/><rect transform="translate(427.02 209.38) rotate(-180)" height="1.16" width="4.17" y="104.11" x="211.42" class="cls-3"/><rect transform="translate(426.84 235.97) rotate(-180)" height="1.16" width="4.16" y="117.41" x="211.34" class="cls-4"/><polygon points="229.24 182.37 229.24 182.47 216.73 182.47 216.73 194.68 33.63 194.68 33.63 182.47 21.12 182.47 21.12 182.37 229.24 182.37" class="cls-4"/><rect height="97.01" width="12.51" y="182.47" x="21.12" class="cls-4"/><rect height="97.01" width="12.51" y="182.47" x="216.73" class="cls-4"/><rect height="5.59" width="13.99" y="279.48" x="215.24" class="cls-4"/><rect height="5.59" width="13.99" y="279.48" x="21.12" class="cls-4"/><line y2="25.67" x2="21.01" y1="25.67" x1="229.38" class="cls-2"/><rect height="2.16" width=".33" y="24.59" x="229.21" class="cls-7"/><rect height="2.16" width=".33" y="24.59" x="20.84" class="cls-7"/><path d="M112.04,17.67v5.29h-.72v-4.54l-1.3.64v-.73l1.36-.67h.67Z"/><path d="M115.99,17.67v.65h-1.92l-.25,1.54c.1-.09.22-.16.36-.21.14-.05.29-.07.46-.07.25,0,.47.04.68.13.21.08.38.2.53.35.15.15.27.33.35.54.08.21.12.44.12.69s-.04.48-.13.7c-.09.21-.21.4-.36.55-.16.15-.34.27-.56.36-.21.08-.45.13-.71.13-.2,0-.39-.03-.58-.08s-.35-.13-.5-.23c-.15-.1-.28-.22-.39-.36-.11-.14-.19-.3-.24-.48l.63-.31c.07.24.19.43.39.56.19.14.42.21.67.21.15,0,.29-.03.41-.08.13-.05.23-.12.33-.21.09-.09.16-.2.21-.33.05-.13.08-.27.08-.43s-.03-.3-.08-.44c-.05-.13-.13-.25-.22-.34s-.21-.17-.34-.22c-.13-.05-.28-.08-.44-.08-.18,0-.35.04-.49.1-.14.07-.26.17-.36.31l-.62-.15.47-2.79h2.52Z"/><path d="M119.73,17.81c.25.13.47.32.65.55.18.23.32.52.42.85.1.33.15.69.15,1.08s-.05.76-.15,1.1-.24.62-.42.86c-.18.24-.4.43-.65.56-.25.13-.52.2-.83.2s-.57-.07-.82-.2-.47-.32-.65-.56c-.18-.24-.32-.53-.42-.86-.1-.33-.15-.7-.15-1.1s.05-.75.15-1.08c.1-.33.24-.61.42-.85.18-.24.4-.42.65-.55.25-.13.53-.2.83-.2s.58.07.83.2ZM118.38,18.45c-.16.1-.29.23-.41.41-.11.18-.2.38-.27.63-.07.24-.1.51-.1.81s.03.57.09.82c.06.25.15.46.27.64.12.18.25.32.41.42.16.1.33.15.52.15s.37-.05.53-.15c.16-.1.3-.24.41-.42.11-.18.2-.39.27-.64.06-.25.09-.52.09-.82s-.03-.56-.09-.81c-.06-.25-.15-.46-.26-.63-.11-.17-.25-.31-.41-.41-.16-.1-.34-.15-.53-.15s-.37.05-.52.15Z"/><path d="M124.37,17.81c.25.13.47.32.65.55.18.23.32.52.42.85.1.33.15.69.15,1.08s-.05.76-.15,1.1-.24.62-.42.86c-.18.24-.4.43-.65.56-.25.13-.52.2-.83.2s-.57-.07-.82-.2-.47-.32-.65-.56c-.18-.24-.32-.53-.42-.86-.1-.33-.15-.7-.15-1.1s.05-.75.15-1.08c.1-.33.24-.61.42-.85.18-.24.4-.42.65-.55.25-.13.53-.2.83-.2s.58.07.83.2ZM123.01,18.45c-.16.1-.29.23-.41.41-.11.18-.2.38-.27.63-.07.24-.1.51-.1.81s.03.57.09.82c.06.25.15.46.27.64.12.18.25.32.41.42.16.1.33.15.52.15s.37-.05.53-.15c.16-.1.3-.24.41-.42.11-.18.2-.39.27-.64.06-.25.09-.52.09-.82s-.03-.56-.09-.81c-.06-.25-.15-.46-.26-.63-.11-.17-.25-.31-.41-.41-.16-.1-.34-.15-.53-.15s-.37.05-.52.15Z"/><path d="M129.2,19.31v.67c.11-.24.26-.42.45-.54.18-.12.4-.18.63-.18.26,0,.48.07.67.2.19.14.32.33.41.59.11-.26.27-.45.46-.59.2-.14.43-.2.7-.2.38,0,.67.12.88.37.21.25.31.61.31,1.07v2.25h-.7v-2.16c0-.29-.07-.52-.2-.69-.13-.17-.31-.25-.54-.25-.12,0-.22.02-.32.07-.1.05-.18.11-.26.2-.07.09-.13.19-.16.32-.04.12-.06.26-.06.4v2.11h-.7v-2.16c0-.14-.02-.27-.06-.38-.04-.12-.09-.22-.15-.3-.06-.08-.14-.14-.23-.19-.09-.04-.2-.07-.31-.07s-.22.02-.32.07c-.1.05-.18.12-.25.21-.07.09-.12.2-.17.32-.04.12-.06.26-.06.41v2.09h-.7v-3.64h.68Z"/><path d="M135.38,19.31v.67c.11-.24.26-.42.45-.54.18-.12.4-.18.63-.18.26,0,.48.07.67.2.19.14.32.33.41.59.11-.26.27-.45.46-.59.2-.14.43-.2.7-.2.38,0,.67.12.88.37.21.25.31.61.31,1.07v2.25h-.7v-2.16c0-.29-.07-.52-.2-.69-.13-.17-.31-.25-.54-.25-.12,0-.22.02-.32.07-.1.05-.18.11-.26.2-.07.09-.13.19-.16.32-.04.12-.06.26-.06.4v2.11h-.7v-2.16c0-.14-.02-.27-.06-.38-.04-.12-.09-.22-.15-.3-.06-.08-.14-.14-.23-.19-.09-.04-.2-.07-.31-.07s-.22.02-.32.07c-.1.05-.18.12-.25.21-.07.09-.12.2-.17.32-.04.12-.06.26-.06.41v2.09h-.7v-3.64h.68Z"/></g></g></svg>