<svg viewBox="0 0 531.26 288" xmlns="http://www.w3.org/2000/svg" id="Golf"><defs><style>.cls-1{stroke-width:.28px;}.cls-1,.cls-2{stroke:#12100b;stroke-linecap:round;stroke-linejoin:round;}.cls-1,.cls-2,.cls-3,.cls-4{fill:none;}.cls-2,.cls-4{stroke-width:.3px;}.cls-5{fill:#12100b;}.cls-3{stroke-width:.37px;}.cls-3,.cls-4{stroke:#000;stroke-miterlimit:10;}</style></defs><g id="Club_House"><g id="ecoponto_Premium_L3"><path d="M112.51,151.29v126.05h72.37v-126.05h-72.37ZM176.21,187.65c-.83,0-1.5-.67-1.5-1.51s.67-1.51,1.5-1.51,1.51.68,1.51,1.51-.67,1.51-1.51,1.51Z" class="cls-2"/><path d="M177.72,186.14c0,.84-.67,1.51-1.51,1.51s-1.5-.67-1.5-1.51.67-1.51,1.5-1.51,1.51.68,1.51,1.51Z" class="cls-2"/><path d="M186.4,151.29v126.05h72.37v-126.05h-72.37ZM250.25,187.65c-.83,0-1.5-.67-1.5-1.51s.67-1.51,1.5-1.51,1.51.68,1.51,1.51-.67,1.51-1.51,1.51Z" class="cls-2"/><path d="M251.76,186.14c0,.84-.67,1.51-1.51,1.51s-1.5-.67-1.5-1.51.67-1.51,1.5-1.51,1.51.68,1.51,1.51Z" class="cls-2"/><path d="M38.62,151.29v126.05h72.37v-126.05H38.62ZM102.32,187.65c-.83,0-1.51-.67-1.51-1.51s.68-1.51,1.51-1.51,1.51.68,1.51,1.51-.68,1.51-1.51,1.51Z" class="cls-2"/><circle r="1.51" cy="186.14" cx="102.32" class="cls-2"/><g id="LINE"><line y2="30.76" x2="265.03" y1="30.76" x1="30.87" class="cls-2"/><rect height="1.95" width=".3" y="29.78" x="30.72" class="cls-5"/><rect height="1.95" width=".3" y="29.78" x="264.88" class="cls-5"/></g><g id="MTEXT"><path d="M135.58,21.55v5.29h-.72v-4.54l-1.3.64v-.73l1.36-.67h.67Z"/><path d="M139.53,21.55v.65h-1.92l-.25,1.54c.1-.09.22-.16.36-.21.14-.05.29-.07.46-.07.25,0,.47.04.68.13.21.08.38.2.53.35.15.15.27.33.35.54.08.21.12.44.12.69s-.04.48-.13.7c-.09.21-.21.4-.36.55-.16.15-.34.27-.56.36-.21.08-.45.13-.71.13-.2,0-.39-.03-.58-.08s-.35-.13-.5-.23c-.15-.1-.28-.22-.39-.36-.11-.14-.19-.3-.24-.48l.63-.31c.07.24.19.43.39.56.19.14.42.21.67.21.15,0,.29-.03.41-.08.13-.05.23-.12.33-.21.09-.09.16-.2.21-.33.05-.13.08-.27.08-.43s-.03-.3-.08-.44c-.05-.13-.13-.25-.22-.34s-.21-.17-.34-.22c-.13-.05-.28-.08-.44-.08-.18,0-.35.04-.49.1-.14.07-.26.17-.36.31l-.62-.15.47-2.79h2.52Z"/><path d="M143.51,21.55v.65h-1.92l-.25,1.54c.1-.09.22-.16.36-.21.14-.05.29-.07.46-.07.25,0,.47.04.68.13.21.08.38.2.53.35.15.15.27.33.35.54.08.21.12.44.12.69s-.04.48-.13.7c-.09.21-.21.4-.36.55-.16.15-.34.27-.56.36-.21.08-.45.13-.71.13-.2,0-.39-.03-.58-.08s-.35-.13-.5-.23c-.15-.1-.28-.22-.39-.36-.11-.14-.19-.3-.24-.48l.63-.31c.07.24.19.43.39.56.19.14.42.21.67.21.15,0,.29-.03.41-.08.13-.05.23-.12.33-.21.09-.09.16-.2.21-.33.05-.13.08-.27.08-.43s-.03-.3-.08-.44c-.05-.13-.13-.25-.22-.34s-.21-.17-.34-.22c-.13-.05-.28-.08-.44-.08-.18,0-.35.04-.49.1-.14.07-.26.17-.36.31l-.62-.15.47-2.79h2.52Z"/><path d="M147.49,21.55v.65h-1.92l-.25,1.54c.1-.09.22-.16.36-.21.14-.05.29-.07.46-.07.25,0,.47.04.68.13.21.08.38.2.53.35.15.15.27.33.35.54.08.21.12.44.12.69s-.04.48-.13.7c-.09.21-.21.4-.36.55-.16.15-.34.27-.56.36-.21.08-.45.13-.71.13-.2,0-.39-.03-.58-.08s-.35-.13-.5-.23c-.15-.1-.28-.22-.39-.36-.11-.14-.19-.3-.24-.48l.63-.31c.07.24.19.43.39.56.19.14.42.21.67.21.15,0,.29-.03.41-.08.13-.05.23-.12.33-.21.09-.09.16-.2.21-.33.05-.13.08-.27.08-.43s-.03-.3-.08-.44c-.05-.13-.13-.25-.22-.34s-.21-.17-.34-.22c-.13-.05-.28-.08-.44-.08-.18,0-.35.04-.49.1-.14.07-.26.17-.36.31l-.62-.15.47-2.79h2.52Z"/><path d="M151.43,23.19v.67c.11-.24.26-.42.45-.54.18-.12.4-.18.63-.18.26,0,.48.07.67.2.19.14.32.33.41.59.11-.26.27-.45.46-.59.2-.14.43-.2.7-.2.38,0,.67.12.88.37.21.25.31.61.31,1.07v2.25h-.7v-2.16c0-.29-.07-.52-.2-.69-.13-.17-.31-.25-.54-.25-.12,0-.22.02-.32.07-.1.05-.18.11-.26.2-.07.09-.13.19-.16.32-.04.12-.06.26-.06.4v2.11h-.7v-2.16c0-.14-.02-.27-.06-.38-.04-.12-.09-.22-.15-.3-.06-.08-.14-.14-.23-.19-.09-.04-.2-.07-.31-.07s-.22.02-.32.07c-.1.05-.18.12-.25.21-.07.09-.12.2-.17.32-.04.12-.06.26-.06.41v2.09h-.7v-3.64h.68Z"/><path d="M157.61,23.19v.67c.11-.24.26-.42.45-.54.18-.12.4-.18.63-.18.26,0,.48.07.67.2.19.14.32.33.41.59.11-.26.27-.45.46-.59.2-.14.43-.2.7-.2.38,0,.67.12.88.37.21.25.31.61.31,1.07v2.25h-.7v-2.16c0-.29-.07-.52-.2-.69-.13-.17-.31-.25-.54-.25-.12,0-.22.02-.32.07-.1.05-.18.11-.26.2-.07.09-.13.19-.16.32-.04.12-.06.26-.06.4v2.11h-.7v-2.16c0-.14-.02-.27-.06-.38-.04-.12-.09-.22-.15-.3-.06-.08-.14-.14-.23-.19-.09-.04-.2-.07-.31-.07s-.22.02-.32.07c-.1.05-.18.12-.25.21-.07.09-.12.2-.17.32-.04.12-.06.26-.06.41v2.09h-.7v-3.64h.68Z"/></g><g id="LINE-2"><line y2="123.58" x2="16.25" y1="41.63" x1="16.25" class="cls-2"/><rect height=".3" width="1.95" y="41.48" x="15.28" class="cls-5"/><rect height=".3" width="1.95" y="123.43" x="15.28" class="cls-5"/></g><g id="LINE-3"><line y2="284.47" x2="16.25" y1="149.07" x1="16.25" class="cls-2"/><rect height=".3" width="1.95" y="148.92" x="15.28" class="cls-5"/><rect height=".3" width="1.95" y="284.32" x="15.28" class="cls-5"/></g><rect height="6.14" width="1.76" y="267.06" x="302.26" class="cls-2"/><polygon points="309.87 267.04 311.62 267.03 311.62 273.2 309.87 273.21 309.87 267.04" class="cls-2"/><rect height="6.2" width="1.76" y="267.01" x="317.47" class="cls-2"/><polygon points="325.08 266.99 326.83 266.98 326.83 273.2 325.08 273.21 325.08 266.99" class="cls-2"/><rect height="6.24" width="1.76" y="266.96" x="332.68" class="cls-2"/><rect height="6.26" width="1.75" y="266.94" x="340.29" class="cls-2"/><polygon points="347.89 266.92 349.65 266.91 349.65 273.2 347.89 273.21 347.89 266.92" class="cls-2"/><rect height="6.31" width="1.76" y="266.89" x="355.5" class="cls-2"/><polygon points="363.11 266.87 364.86 266.86 364.86 273.2 363.11 273.21 363.11 266.87" class="cls-2"/><rect height="6.4" width="1.76" y="266.84" x="370.71" class="cls-2"/><rect height="5.44" width="1.76" y="211.7" x="302.26" class="cls-2"/><polygon points="309.87 211.68 311.62 211.67 311.62 217.11 309.87 217.12 309.87 211.68" class="cls-2"/><polygon points="317.47 211.66 319.23 211.65 319.23 217.09 317.47 217.09 317.47 211.66" class="cls-2"/><polygon points="325.08 211.63 326.83 211.63 326.83 217.06 325.08 217.07 325.08 211.63" class="cls-2"/><polygon points="332.68 211.61 334.44 211.6 334.44 217.04 332.68 217.04 332.68 211.61" class="cls-2"/><polygon points="340.29 211.59 342.04 211.58 342.04 217.02 340.29 217.02 340.29 211.59" class="cls-2"/><polygon points="347.89 211.56 349.65 211.56 349.65 216.99 347.89 217 347.89 211.56" class="cls-2"/><polygon points="355.5 211.54 357.26 211.53 357.26 216.97 355.5 216.97 355.5 211.54" class="cls-2"/><polygon points="363.11 211.52 364.86 211.51 364.86 216.94 363.11 216.95 363.11 211.52" class="cls-2"/><rect height="5.43" width="1.76" y="211.49" x="370.71" class="cls-2"/><polygon points="378.33 216.9 378.32 216.9 378.32 214.19 378.33 216.9" class="cls-2"/><rect height="6.4" width="1.76" y="179.44" x="302.26" class="cls-2"/><polygon points="309.87 179.42 311.62 179.41 311.62 185.81 309.87 185.82 309.87 179.42" class="cls-2"/><rect height="6.4" width="1.76" y="179.39" x="317.47" class="cls-2"/><polygon points="325.08 179.37 326.83 179.36 326.83 185.76 325.08 185.77 325.08 179.37" class="cls-2"/><polygon points="332.68 179.34 334.44 179.34 334.44 185.74 332.68 185.75 332.68 179.34" class="cls-2"/><rect height="6.4" width="1.75" y="179.32" x="340.29" class="cls-2"/><polygon points="347.89 179.3 349.65 179.29 349.65 185.69 347.89 185.7 347.89 179.3" class="cls-2"/><rect height="6.4" width="1.76" y="179.27" x="355.5" class="cls-2"/><polygon points="363.11 179.25 364.86 179.24 364.86 185.64 363.11 185.65 363.11 179.25" class="cls-2"/><rect height="6.4" width="1.76" y="179.22" x="370.71" class="cls-2"/><polygon points="378.39 185.6 378.32 185.6 378.32 179.2 378.37 179.2 378.39 185.6" class="cls-2"/><polygon points="296.38 163.12 296.41 163.12 296.41 172.69 296.38 163.12" class="cls-2"/><rect height="12.76" width="1.76" y="163.1" x="302.26" class="cls-2"/><polygon points="309.87 163.08 311.62 163.07 311.62 175.83 309.87 175.84 309.87 163.08" class="cls-2"/><polygon points="317.47 163.06 319.23 163.05 319.23 175.81 317.47 175.82 317.47 163.06" class="cls-2"/><rect height="12.76" width="1.75" y="163.03" x="325.08" class="cls-2"/><polygon points="332.68 163.01 334.44 163 334.44 175.76 332.68 175.77 332.68 163.01" class="cls-2"/><polygon points="340.29 162.99 342.04 162.98 342.04 175.74 340.29 175.75 340.29 162.99" class="cls-2"/><rect height="12.76" width="1.76" y="162.96" x="347.89" class="cls-2"/><polygon points="355.5 162.94 357.26 162.93 357.26 175.69 355.5 175.7 355.5 162.94" class="cls-2"/><polygon points="363.11 162.92 364.86 162.91 364.86 175.67 363.11 175.68 363.11 162.92" class="cls-2"/><rect height="12.76" width="1.76" y="162.89" x="370.71" class="cls-2"/><polygon points="378.36 175.63 378.32 175.63 378.32 162.87 378.36 175.63" class="cls-2"/><rect height="1.21" width="82.25" y="149.3" x="296.24" class="cls-2"/><g id="MTEXT-2"><path d="M7.04,92.64h.65v1.92l1.54.25c-.09-.1-.16-.22-.21-.36-.05-.14-.07-.29-.07-.46,0-.25.04-.47.13-.68.08-.21.2-.38.35-.53.15-.15.33-.27.54-.35.21-.08.44-.12.69-.12s.48.04.7.13c.21.09.4.21.55.36.15.16.27.34.36.56.08.21.13.45.13.71,0,.2-.03.39-.08.58s-.13.35-.23.5c-.1.15-.22.28-.36.39-.14.11-.3.19-.48.24l-.31-.63c.24-.07.43-.19.56-.39.14-.19.21-.42.21-.67,0-.15-.03-.29-.08-.41-.05-.13-.12-.23-.21-.33-.09-.09-.2-.16-.33-.21-.13-.05-.27-.08-.43-.08s-.3.03-.44.08c-.13.05-.25.13-.34.22s-.17.21-.22.34c-.05.13-.08.28-.08.44,0,.18.04.35.1.49.07.14.17.26.31.36l-.15.62-2.79-.47v-2.52Z"/><path d="M7.04,88.71h5.29v.73h-4.36s.08.04.1.06c.03.02.06.04.09.07l2.02,1.35s.06.04.08.05.05.03.08.06v-3.2h.64v3.98h-.59l-3.35-2.22v-.87Z"/><path d="M7.04,84.28h.65v1.92l1.54.25c-.09-.1-.16-.22-.21-.36-.05-.14-.07-.29-.07-.46,0-.25.04-.47.13-.68.08-.21.2-.38.35-.53.15-.15.33-.27.54-.35.21-.08.44-.12.69-.12s.48.04.7.13c.21.09.4.21.55.36.15.16.27.34.36.56.08.21.13.45.13.71,0,.2-.03.39-.08.58s-.13.35-.23.5c-.1.15-.22.28-.36.39-.14.11-.3.19-.48.24l-.31-.63c.24-.07.43-.19.56-.39.14-.19.21-.42.21-.67,0-.15-.03-.29-.08-.41-.05-.13-.12-.23-.21-.33-.09-.09-.2-.16-.33-.21-.13-.05-.27-.08-.43-.08s-.3.03-.44.08c-.13.05-.25.13-.34.22s-.17.21-.22.34c-.05.13-.08.28-.08.44,0,.18.04.35.1.49.07.14.17.26.31.36l-.15.62-2.79-.47v-2.52Z"/><path d="M8.69,80.35h.67c-.24-.11-.42-.26-.54-.45-.12-.18-.18-.4-.18-.63,0-.26.07-.48.2-.67.14-.19.33-.32.59-.41-.26-.11-.45-.27-.59-.46-.14-.2-.2-.43-.2-.7,0-.38.12-.67.37-.88.25-.21.61-.31,1.07-.31h2.25v.7h-2.16c-.29,0-.52.07-.69.2-.17.13-.25.31-.25.54,0,.12.02.22.07.32.05.1.11.18.2.26.09.07.19.13.32.16.12.04.26.06.4.06h2.11v.7h-2.16c-.14,0-.27.02-.38.06-.12.04-.22.09-.3.15-.08.06-.14.14-.19.23-.04.09-.07.2-.07.31s.02.22.07.32c.05.1.12.18.21.25.09.07.2.12.32.17.12.04.26.06.41.06h2.09v.7h-3.64v-.68Z"/><path d="M8.69,74.16h.67c-.24-.11-.42-.26-.54-.45-.12-.18-.18-.4-.18-.63,0-.26.07-.48.2-.67.14-.19.33-.32.59-.41-.26-.11-.45-.27-.59-.46-.14-.2-.2-.43-.2-.7,0-.38.12-.67.37-.88.25-.21.61-.31,1.07-.31h2.25v.7h-2.16c-.29,0-.52.07-.69.2-.17.13-.25.31-.25.54,0,.12.02.22.07.32.05.1.11.18.2.26.09.07.19.13.32.16.12.04.26.06.4.06h2.11v.7h-2.16c-.14,0-.27.02-.38.06-.12.04-.22.09-.3.15-.08.06-.14.14-.19.23-.04.09-.07.2-.07.31s.02.22.07.32c.05.1.12.18.21.25.09.07.2.12.32.17.12.04.26.06.41.06h2.09v.7h-3.64v-.68Z"/></g><rect ry="3.09" rx="3.09" height="82.17" width="234.46" y="41.52" x="30.72" class="cls-2"/><g id="CIRCLE"><ellipse ry="16.59" rx="16.88" cy="82.61" cx="74.25" class="cls-2"/></g><g id="CIRCLE-2"><ellipse ry="15.7" rx="15.97" cy="82.61" cx="74.25" class="cls-2"/></g><g id="CIRCLE-3"><ellipse ry="13.57" rx="13.56" cy="82.61" cx="74.25" class="cls-2"/></g><g id="CIRCLE-4"><ellipse ry="16.59" rx="16.88" cy="82.61" cx="148.14" class="cls-2"/></g><g id="CIRCLE-5"><ellipse ry="13.57" rx="13.56" cy="82.61" cx="148.14" class="cls-2"/></g><g id="CIRCLE-6"><ellipse ry="15.7" rx="15.97" cy="82.61" cx="148.14" class="cls-2"/></g><g id="CIRCLE-7"><ellipse ry="16.44" rx="16.73" cy="82.61" cx="222.03" class="cls-2"/></g><g id="CIRCLE-8"><ellipse ry="15.55" rx="15.82" cy="82.61" cx="222.03" class="cls-2"/></g><g id="CIRCLE-9"><ellipse ry="13.57" rx="13.56" cy="82.61" cx="222.03" class="cls-2"/></g><rect ry="3.09" rx="3.09" height="82.17" width="234.46" y="41.52" x="30.72" class="cls-2"/><g id="CIRCLE-10"><ellipse ry="16.59" rx="16.88" cy="82.61" cx="74.25" class="cls-2"/></g><g id="CIRCLE-11"><ellipse ry="15.7" rx="15.97" cy="82.61" cx="74.25" class="cls-2"/></g><g id="CIRCLE-12"><ellipse ry="13.57" rx="13.56" cy="82.61" cx="74.25" class="cls-2"/></g><g id="CIRCLE-13"><ellipse ry="16.59" rx="16.88" cy="82.61" cx="148.14" class="cls-2"/></g><g id="CIRCLE-14"><ellipse ry="13.57" rx="13.56" cy="82.61" cx="148.14" class="cls-2"/></g><g id="CIRCLE-15"><ellipse ry="15.7" rx="15.97" cy="82.61" cx="148.14" class="cls-2"/></g><g id="CIRCLE-16"><ellipse ry="16.44" rx="16.73" cy="82.61" cx="222.03" class="cls-2"/></g><g id="CIRCLE-17"><ellipse ry="15.55" rx="15.82" cy="82.61" cx="222.03" class="cls-2"/></g><g id="CIRCLE-18"><ellipse ry="13.57" rx="13.56" cy="82.61" cx="222.03" class="cls-2"/></g><g id="MTEXT-3"><path d="M7.17,226.04c.12-.24.29-.44.51-.61.22-.17.5-.3.82-.39.32-.09.69-.14,1.09-.14s.8.05,1.15.15c.35.1.64.24.89.43s.43.41.56.67c.13.26.2.55.2.88,0,.37-.09.7-.27.97-.18.27-.43.47-.76.59l-.29-.64c.21-.07.37-.18.48-.34.11-.16.17-.35.17-.56,0-.2-.05-.38-.14-.55-.09-.17-.23-.31-.4-.44-.17-.13-.37-.22-.61-.29-.24-.07-.49-.1-.77-.1h-.17c-.06,0-.1,0-.15,0,.25.08.45.23.59.45.14.22.21.48.21.79,0,.24-.04.46-.12.65-.08.2-.19.36-.34.5-.14.14-.32.25-.52.33-.2.08-.42.12-.66.12s-.47-.04-.68-.13c-.21-.08-.38-.2-.52-.35-.14-.15-.26-.32-.34-.53-.08-.21-.12-.43-.12-.68,0-.3.06-.57.18-.81ZM7.74,227.2c.05.12.12.22.21.3.09.08.19.15.31.2.12.05.26.07.41.07s.29-.02.41-.07c.12-.05.23-.12.32-.2.09-.09.16-.19.21-.31.05-.12.07-.25.07-.4s-.02-.27-.07-.39c-.05-.12-.12-.22-.2-.31-.09-.09-.19-.15-.31-.2-.12-.05-.25-.07-.4-.07s-.28.03-.41.08c-.13.05-.24.13-.34.21-.1.09-.17.2-.22.32s-.08.26-.08.4.03.26.08.38Z"/><path d="M7.19,221.47c.13-.25.32-.47.55-.65.23-.18.52-.32.85-.42.33-.1.69-.15,1.08-.15s.76.05,1.1.15.62.24.86.42c.24.18.43.4.56.65.13.25.2.52.2.83s-.07.57-.2.82-.32.47-.56.65c-.24.18-.53.32-.86.42-.33.1-.7.15-1.1.15s-.75-.05-1.08-.15c-.33-.1-.61-.24-.85-.42-.24-.18-.42-.4-.55-.65-.13-.25-.2-.53-.2-.83s.07-.58.2-.83ZM7.82,222.82c.1.16.23.29.41.41.18.11.38.2.63.27.24.07.51.1.81.1s.57-.03.82-.09c.25-.06.46-.15.64-.27.18-.12.32-.25.42-.41.1-.16.15-.33.15-.52s-.05-.37-.15-.53c-.1-.16-.24-.3-.42-.41-.18-.11-.39-.2-.64-.27-.25-.06-.52-.09-.82-.09s-.56.03-.81.09c-.25.06-.46.15-.63.26-.17.11-.31.25-.41.41-.1.16-.15.34-.15.53s.05.37.15.52Z"/><path d="M7.19,216.83c.13-.25.32-.47.55-.65.23-.18.52-.32.85-.42.33-.1.69-.15,1.08-.15s.76.05,1.1.15.62.24.86.42c.24.18.43.4.56.65.13.25.2.52.2.83s-.07.57-.2.82-.32.47-.56.65c-.24.18-.53.32-.86.42-.33.1-.7.15-1.1.15s-.75-.05-1.08-.15c-.33-.1-.61-.24-.85-.42-.24-.18-.42-.4-.55-.65-.13-.25-.2-.53-.2-.83s.07-.58.2-.83ZM7.82,218.19c.1.16.23.29.41.41.18.11.38.2.63.27.24.07.51.1.81.1s.57-.03.82-.09c.25-.06.46-.15.64-.27.18-.12.32-.25.42-.41.1-.16.15-.33.15-.52s-.05-.37-.15-.53c-.1-.16-.24-.3-.42-.41-.18-.11-.39-.2-.64-.27-.25-.06-.52-.09-.82-.09s-.56.03-.81.09c-.25.06-.46.15-.63.26-.17.11-.31.25-.41.41-.1.16-.15.34-.15.53s.05.37.15.52Z"/><path d="M8.69,212h.67c-.24-.11-.42-.26-.54-.45-.12-.18-.18-.4-.18-.63,0-.26.07-.48.2-.67.14-.19.33-.32.59-.41-.26-.11-.45-.27-.59-.46-.14-.2-.2-.43-.2-.7,0-.38.12-.67.37-.88.25-.21.61-.31,1.07-.31h2.25v.7h-2.16c-.29,0-.52.07-.69.2-.17.13-.25.31-.25.54,0,.12.02.22.07.32.05.1.11.18.2.26.09.07.19.13.32.16.12.04.26.06.4.06h2.11v.7h-2.16c-.14,0-.27.02-.38.06-.12.04-.22.09-.3.15-.08.06-.14.14-.19.23-.04.09-.07.2-.07.31s.02.22.07.32c.05.1.12.18.21.25.09.07.2.12.32.17.12.04.26.06.41.06h2.09v.7h-3.64v-.68Z"/><path d="M8.69,205.82h.67c-.24-.11-.42-.26-.54-.45-.12-.18-.18-.4-.18-.63,0-.26.07-.48.2-.67.14-.19.33-.32.59-.41-.26-.11-.45-.27-.59-.46-.14-.2-.2-.43-.2-.7,0-.38.12-.67.37-.88.25-.21.61-.31,1.07-.31h2.25v.7h-2.16c-.29,0-.52.07-.69.2-.17.13-.25.31-.25.54,0,.12.02.22.07.32.05.1.11.18.2.26.09.07.19.13.32.16.12.04.26.06.4.06h2.11v.7h-2.16c-.14,0-.27.02-.38.06-.12.04-.22.09-.3.15-.08.06-.14.14-.19.23-.04.09-.07.2-.07.31s.02.22.07.32c.05.1.12.18.21.25.09.07.2.12.32.17.12.04.26.06.41.06h2.09v.7h-3.64v-.68Z"/></g><rect height="5.44" width="1.76" y="211.7" x="302.26" class="cls-2"/><polygon points="309.87 211.68 311.62 211.67 311.62 217.11 309.87 217.12 309.87 211.68" class="cls-2"/><polygon points="317.47 211.66 319.23 211.65 319.23 217.09 317.47 217.09 317.47 211.66" class="cls-2"/><polygon points="325.08 211.63 326.83 211.63 326.83 217.06 325.08 217.07 325.08 211.63" class="cls-2"/><polygon points="332.68 211.61 334.44 211.6 334.44 217.04 332.68 217.04 332.68 211.61" class="cls-2"/><polygon points="340.29 211.59 342.04 211.58 342.04 217.02 340.29 217.02 340.29 211.59" class="cls-2"/><polygon points="347.89 211.56 349.65 211.56 349.65 216.99 347.89 217 347.89 211.56" class="cls-2"/><polygon points="355.5 211.54 357.26 211.53 357.26 216.97 355.5 216.97 355.5 211.54" class="cls-2"/><polygon points="363.11 211.52 364.86 211.51 364.86 216.94 363.11 216.95 363.11 211.52" class="cls-2"/><rect height="5.43" width="1.76" y="211.49" x="370.71" class="cls-2"/><polygon points="378.33 216.9 378.32 216.9 378.32 214.19 378.33 216.9" class="cls-2"/><rect height="6.4" width="1.76" y="179.44" x="302.26" class="cls-2"/><polygon points="309.87 179.42 311.62 179.41 311.62 185.81 309.87 185.82 309.87 179.42" class="cls-2"/><rect height="6.4" width="1.76" y="179.39" x="317.47" class="cls-2"/><polygon points="325.08 179.37 326.83 179.36 326.83 185.76 325.08 185.77 325.08 179.37" class="cls-2"/><polygon points="332.68 179.34 334.44 179.34 334.44 185.74 332.68 185.75 332.68 179.34" class="cls-2"/><rect height="6.4" width="1.75" y="179.32" x="340.29" class="cls-2"/><polygon points="347.89 179.3 349.65 179.29 349.65 185.69 347.89 185.7 347.89 179.3" class="cls-2"/><rect height="6.4" width="1.76" y="179.27" x="355.5" class="cls-2"/><polygon points="363.11 179.25 364.86 179.24 364.86 185.64 363.11 185.65 363.11 179.25" class="cls-2"/><rect height="6.4" width="1.76" y="179.22" x="370.71" class="cls-2"/><polygon points="378.39 185.6 378.32 185.6 378.32 179.2 378.37 179.2 378.39 185.6" class="cls-2"/><polygon points="296.38 163.12 296.41 163.12 296.41 172.69 296.38 163.12" class="cls-2"/><rect height="12.76" width="1.76" y="163.1" x="302.26" class="cls-2"/><polygon points="309.87 163.08 311.62 163.07 311.62 175.83 309.87 175.84 309.87 163.08" class="cls-2"/><polygon points="317.47 163.06 319.23 163.05 319.23 175.81 317.47 175.82 317.47 163.06" class="cls-2"/><rect height="12.76" width="1.75" y="163.03" x="325.08" class="cls-2"/><polygon points="332.68 163.01 334.44 163 334.44 175.76 332.68 175.77 332.68 163.01" class="cls-2"/><polygon points="340.29 162.99 342.04 162.98 342.04 175.74 340.29 175.75 340.29 162.99" class="cls-2"/><rect height="12.76" width="1.76" y="162.96" x="347.89" class="cls-2"/><polygon points="355.5 162.94 357.26 162.93 357.26 175.69 355.5 175.7 355.5 162.94" class="cls-2"/><polygon points="363.11 162.92 364.86 162.91 364.86 175.67 363.11 175.68 363.11 162.92" class="cls-2"/><rect height="12.76" width="1.76" y="162.89" x="370.71" class="cls-2"/><polygon points="378.36 175.63 378.32 175.63 378.32 162.87 378.36 175.63" class="cls-2"/><rect height="126.05" width="5.85" y="151.29" x="296.41" class="cls-2"/><rect height="126.05" width="5.85" y="151.29" x="304.02" class="cls-2"/><rect height="126.05" width="5.85" y="151.29" x="311.62" class="cls-2"/><rect height="126.05" width="5.85" y="151.29" x="319.23" class="cls-2"/><rect height="126.05" width="5.85" y="151.29" x="326.83" class="cls-2"/><rect height="126.05" width="5.85" y="151.29" x="334.44" class="cls-2"/><rect height="126.05" width="5.85" y="151.29" x="342.04" class="cls-2"/><rect height="126.05" width="5.85" y="151.29" x="349.65" class="cls-2"/><rect height="126.05" width="5.85" y="151.29" x="357.26" class="cls-2"/><rect height="126.05" width="5.85" y="151.29" x="364.86" class="cls-2"/><rect height="126.05" width="5.85" y="151.29" x="372.47" class="cls-2"/><rect height="1.21" width="82.25" y="149.3" x="296.24" class="cls-2"/><polygon points="259.92 275.2 259.92 285 37.3 285 37.3 275.2 38.62 275.2 38.62 277.34 110.99 277.34 110.99 275.2 112.51 275.2 112.51 277.34 184.88 277.34 184.88 275.2 186.4 275.2 186.4 277.34 258.77 277.34 258.77 275.2 259.92 275.2" class="cls-2"/><rect height=".79" width=".83" y="150.5" x="43.89" class="cls-2"/><rect height=".79" width="2.56" y="150.5" x="107.3" class="cls-2"/><rect height=".79" width=".82" y="150.5" x="187.74" class="cls-2"/><rect height=".79" width="2.56" y="150.5" x="251.15" class="cls-2"/><rect height=".73" width=".83" y="150.5" x="115.81" class="cls-1"/><rect height=".79" width="2.57" y="150.5" x="179.22" class="cls-2"/><circle r="1.51" cy="186.14" cx="102.32" class="cls-4"/><polygon points="259.92 275.2 259.92 285 37.3 285 37.3 275.2 38.62 275.2 38.62 277.34 110.99 277.34 110.99 275.2 112.51 275.2 112.51 277.34 184.88 277.34 184.88 275.2 186.4 275.2 186.4 277.34 258.77 277.34 258.77 275.2 259.92 275.2" class="cls-2"/><rect height="126.13" width="5.8" y="151.29" x="31.5" class="cls-2"/><rect height="126.05" width="5.8" y="151.29" x="259.93" class="cls-2"/><path d="M177.72,186.14c0,.84-.67,1.51-1.51,1.51s-1.5-.67-1.5-1.51.67-1.51,1.5-1.51,1.51.68,1.51,1.51Z" class="cls-4"/><path d="M251.76,186.14c0,.84-.67,1.51-1.51,1.51s-1.5-.67-1.5-1.51.67-1.51,1.5-1.51,1.51.68,1.51,1.51Z" class="cls-4"/><circle r="1.51" cy="186.14" cx="102.32" class="cls-4"/><rect height="1.2" width="234.46" y="149.3" x="31.29" class="cls-2"/><path d="M73.57,170.53c-.06-.05-.13-.06-.22-.04h-.06c-.55.12-1.22.23-1.9.12-.56-.08-1-.32-1.34-.71-.26-.31-.44-.69-.57-1.19-.02-.02-.02-.03-.02-.05l.02-.06h.11c.59,0,1.08-.03,1.53-.12.45-.08.79-.19,1.09-.35.32-.18.52-.42.61-.7.12-.39.03-.76-.25-1.15-.05-.05-.11-.08-.17-.08-.07.01-.13.06-.16.14-.1.24-.25.4-.5.48-.19.07-.39.1-.58.13-.4.04-.83,0-1.18-.06-.18-.04-.35-.08-.52-.1-.07-.03-.16-.04-.23-.05h-.03v-.06c-.02-.06-.02-.14-.02-.2,0-.13-.02-.27-.03-.4-.03-.29-.05-.6-.09-.94,0-.07.01-.12.07-.17l.92-.73.21-.16c.07-.06.11-.11.11-.17s-.03-.12-.1-.18c-.2-.2-.39-.39-.59-.59l-.09-.09c-.13-.13-.2-.14-.33-.03l-.28.22c-.27.22-.55.44-.83.66-.04.04-.09.05-.15.06-.41.02-.73.13-.99.33-.2.16-.37.39-.52.69-.1.2-.17.38-.26.58-.03.08-.08.17-.12.26-.29.66-.8,1.09-1.5,1.26-.35.09-.73.13-1.19.13-.11,0-.17.04-.21.13-.03.09,0,.18.06.23.39.36.78.63,1.22.83.4.18.79.24,1.2.19.42-.06.79-.27,1.1-.63.04-.04.07-.06.09-.11l.16-.18v.28c-.01.08-.03.14-.03.21-.02.85.05,1.53.26,2.14.23.69.61,1.19,1.15,1.56.5.31,1.08.49,1.8.51.72.02,1.4-.12,2.11-.46.45-.21.77-.44,1.02-.71.15-.16.23-.29.27-.45.01-.09,0-.17-.05-.22ZM69.45,167.19c.12.02.23.04.35.06.58.1,1.02.13,1.44.09.45-.04.77-.16,1.03-.37.01,0,.03-.02.05-.05l.09-.07.03.07c.03.12.05.23,0,.37-.04.14-.13.28-.29.4-.26.19-.56.28-.83.34-.65.16-1.31.18-1.94.2h-.05l-.13-1.09.24.05ZM69.39,163.42l.46.47-.87.7-.37-.54.78-.63ZM66.95,167.01c-.16.3-.31.53-.5.74-.28.31-.62.46-1.02.46-.1,0-.2,0-.31-.02-.43-.07-.8-.31-1.07-.49l-.1-.07.11-.03c.1-.02.2-.04.3-.07.2-.04.41-.08.61-.16.67-.2,1.18-.68,1.5-1.37.06-.13.11-.25.15-.37.08-.16.15-.32.22-.48.1-.2.25-.45.5-.6.09-.05.19-.09.27-.13h.06s.09-.02.12.02c.04.02.05.07.04.12-.05.16-.1.31-.15.47-.2.66-.4,1.34-.73,1.98ZM72.86,171.13s-.04.03-.07.05c-.5.36-1.1.62-1.74.74-.25.04-.48.06-.71.06-.33,0-.66-.04-.99-.13-.8-.22-1.36-.75-1.67-1.56-.14-.41-.24-.86-.26-1.38-.04-.71,0-1.46.17-2.33.02-.11.07-.21.11-.32.02-.06.05-.12.06-.17.12-.37.23-.74.35-1.11l.13-.45s.02-.03.03-.06v-.05s.11-.03.11-.03l.02.03s.04.05.05.08c.04.06.09.12.1.19v.03c.06.2.12.42.15.64.03.36.06.71.08,1.06.01.17.01.36.04.53.03.65.11,1.36.31,2.03.19.57.44,1,.78,1.34.38.37.85.6,1.43.68.43.08.9.08,1.43-.01.02,0,.06,0,.11.01l.08.04-.1.09Z"/><path d="M80.15,167.64c.15-.89.57-1.69,1.29-2.4.16-.16.17-.22.02-.4-.26-.29-.55-.54-.89-.71-.72-.36-1.38-.32-2,.17-.04.03-.08.04-.1.06l-.22.16v-.39c.1-.62.37-1.1.82-1.44.2-.16.44-.29.64-.41h.03c.05-.04.09-.07.14-.1.08-.05.14-.08.15-.16.02-.08,0-.16-.06-.2-.07-.07-.15-.07-.24-.03-.37.2-.69.39-.94.62-.47.4-.75.83-.87,1.31-.02.12-.05.25-.07.4-.01.06-.03.13-.04.19l-.02.16-.25-.18c-.43-.33-.87-.45-1.35-.38-.6.1-1.13.44-1.61,1.03-.06.08-.06.14.03.23.01.02.03.05.06.07.42.4.75.87.98,1.43.37.84.47,1.75.3,2.68-.16.92-.56,1.7-1.19,2.32-.14.16-.14.21,0,.38.24.27.53.48.85.61.35.16.68.21,1.01.16.34-.04.64-.16.92-.35.17-.11.34-.17.52-.17.06,0,.12.01.18.02.11.03.23.09.35.17.4.26.79.38,1.21.34.6-.03,1.11-.3,1.56-.79.14-.16.14-.23,0-.38-1.06-1.08-1.48-2.43-1.21-4.02ZM80.91,171.93c-.31.26-.72.52-1.26.51-.28-.01-.53-.08-.79-.24l-.07-.04c-.12-.08-.25-.16-.38-.2-.34-.11-.68-.08-.99.13-.17.12-.39.27-.64.32-.13.02-.25.03-.37.03-.33,0-.65-.09-.93-.29-.07-.05-.13-.1-.19-.13l-.17-.14.07-.08c.84-.92,1.24-2.03,1.24-3.38,0-1.24-.45-2.36-1.35-3.33l-.06-.07.06-.06c.43-.39.81-.59,1.22-.65.27-.05.55.03.83.19.07.05.13.09.19.13.05.04.1.07.15.1.37.24.74.24,1.12.02.08-.03.14-.08.2-.13.05-.04.09-.06.14-.1.34-.22.71-.28,1.1-.16.32.09.61.26.91.5.05.04.1.09.1.16s-.04.13-.07.17c-.76.79-1.18,1.76-1.27,2.87-.11,1.36.27,2.57,1.11,3.6.02.03.05.05.06.09l.11.12-.07.06Z"/><path d="M145.23,170.35v3.01c-.02.06-.04.12-.06.17-.03.06-.07.11-.11.16-.05.05-.11.1-.17.13-.14.09-.28.15-.44.18-.2.05-.38.07-.58.08-.07,0-.14,0-.22-.01-.08,0-.18-.03-.26-.04-.03-.01-.05-.01-.08-.03-.02-.01-.03-.03-.05-.04-.02-.04-.03-.07-.04-.09v-.1s.01-.05.02-.07c.01-.02.04-.05.05-.06.04-.03.06-.04.08-.04.04,0,.08,0,.1,0,.06,0,.12.01.17.03.08,0,.16.01.23.01.13-.01.26-.01.38-.04.1-.02.2-.05.29-.08.07-.04.13-.06.19-.11,0,0,0-.03.02-.04.01,0,.01-.01.03-.02,0,0,0-.02.01-.03v-.05s-.01-.01-.01-.02c-.02,0-.02-.01-.03-.03-.01,0-.02,0-.02-.02-.06-.05-.12-.09-.19-.11-.09-.04-.19-.07-.29-.08-.12-.03-.25-.04-.38-.04-.08,0-.17.01-.25.02-.09.03-.16.05-.23.1-.1.05-.19.1-.27.17-.1.06-.18.14-.28.21-.16.13-.32.25-.49.36-.12.08-.24.14-.38.17-.14.05-.29.07-.44.08-.15-.01-.3-.01-.46-.05-.13-.03-.25-.06-.38-.11-.09-.05-.18-.1-.25-.16-.08-.05-.14-.11-.17-.18-.04-.08-.06-.15-.09-.22v-3.01s0-.05.01-.07c.02-.03.03-.05.04-.07.02-.02.05-.04.07-.06.04-.01.06-.02.1-.02.03,0,.05.01.07.01.03.01.05.03.07.04.02.02.04.05.06.07.01.04.02.07.02.1v2.97s.01.03.01.03c.01.01.01.02.03.02.01.01.01.03.02.04.05.05.12.07.18.11.1.03.2.06.3.08.12.03.24.03.37.04.09-.01.17-.01.26-.04.07,0,.16-.05.23-.08.1-.05.18-.11.27-.17.1-.08.18-.15.27-.22.17-.12.33-.26.5-.37.12-.07.24-.13.38-.17.13-.04.29-.05.43-.06.15,0,.31,0,.46.04.15.03.3.09.46.16v-2.38s0-.05.01-.07c.01-.03.02-.05.04-.07.02-.02.05-.04.07-.06.04-.01.06-.02.1-.02.02,0,.05.01.07.01.02.01.05.03.06.04.04.02.05.05.06.07.01.04.03.07.03.1Z"/><path d="M145.15,168.17c-.05.06-.11.11-.17.17.09.1.19.18.25.29.05.07.07.15.09.23.03.09.03.17.04.26-.01.11-.02.23-.06.34-.04.11-.1.21-.17.29-.1.11-.21.21-.34.27-.14.05-.28.07-.43.1-.02-.01-.05-.01-.07-.01-.03-.02-.05-.03-.07-.05-.03-.02-.04-.04-.05-.08-.03-.02-.03-.06-.03-.08,0-.04,0-.06.01-.09,0-.02.03-.03.04-.06.03-.02.05-.05.07-.06.03-.01.07-.01.1-.02.06,0,.14-.02.2-.03.05-.02.11-.06.15-.1.07-.04.11-.12.15-.18.04-.08.05-.16.05-.24s-.01-.14-.02-.2c-.03-.06-.07-.11-.1-.16-.05-.06-.12-.12-.18-.14-.09-.04-.16-.05-.25-.06h-1.38s-.04,0-.07-.01c-.02-.02-.05-.03-.07-.04-.03-.03-.04-.05-.05-.07-.03-.04-.03-.07-.03-.1s0-.05.02-.08c.01-.02.02-.04.03-.07.03-.02.05-.03.08-.05.02-.01.06-.02.09-.02h1.38c.06-.01.14-.01.2-.04.05-.02.11-.05.15-.1.07-.04.11-.1.15-.18.04-.07.05-.16.05-.24,0-.06-.01-.14-.02-.2-.03-.05-.07-.11-.1-.16-.05-.06-.12-.1-.18-.14-.09-.04-.16-.05-.25-.05-.02-.01-.05-.01-.07-.02-.03,0-.05-.02-.07-.04-.03-.01-.04-.04-.05-.07-.03-.03-.03-.07-.03-.1s0-.05.01-.07c0-.03.03-.05.04-.07.03-.02.05-.04.07-.06.03-.01.07-.01.1-.02.06,0,.14-.01.2-.03.05-.02.11-.06.15-.09.07-.05.11-.12.15-.2.04-.07.05-.16.05-.23,0-.08,0-.17-.02-.26-.02-.12-.07-.24-.11-.36-.07-.15-.13-.27-.21-.4-.1-.17-.21-.33-.34-.48-.16-.18-.33-.35-.5-.52-.03-.03-.04-.05-.05-.08,0-.02-.03-.06-.03-.09v-.78s0-.05.02-.08l.03-.07s.05-.04.08-.05c.03-.02.06-.02.09-.02s.05,0,.08.01c.02.01.05.02.06.04.02.02.05.05.06.07s.02.06.02.1v.69c.15.14.3.28.43.44.11.13.22.27.32.41.08.13.16.25.23.38.07.14.13.28.18.43.04.11.06.23.09.35.01.09.01.17.02.27-.02.13-.04.27-.08.39-.03.07-.08.15-.13.21-.05.06-.11.12-.17.17.09.1.19.18.25.29.05.07.07.16.09.23.03.09.03.17.04.26-.02.13-.04.27-.08.39-.03.07-.08.14-.13.22Z"/><path d="M142.58,166.78s-.01.06-.01.08c-.01.03-.02.04-.04.06-.02.03-.05.05-.07.07-.04.01-.06.01-.1.02h-1.31c-.06,0-.14.01-.2.02-.06.03-.11.07-.16.1-.06.05-.12.12-.14.2-.04.07-.05.14-.06.23.01.07.01.13.03.19.03.06.06.11.1.16.05.07.11.12.18.15.08.03.16.05.25.06.02,0,.05,0,.07.01s.05.03.07.04c.03.02.04.05.05.07.01.04.03.06.03.1,0,.02,0,.05-.02.07-.01.03-.02.05-.03.07-.03.03-.05.04-.08.05-.03.02-.06.03-.09.03-.06.01-.14.01-.2.03-.06.03-.11.05-.16.1-.06.05-.12.11-.14.18-.04.08-.05.16-.06.25.01.06.01.13.03.19.03.05.06.11.1.16.05.06.11.11.18.15.08.03.16.05.25.05h.73s.05.01.07.02c.03,0,.05.01.06.04.03.01.05.03.06.07.02.02.03.06.03.1,0,.02-.01.05-.01.07-.02.03-.03.05-.04.06-.03.03-.05.05-.07.06-.04.02-.07.02-.1.03h-.73c-.12-.01-.23-.03-.34-.06-.11-.04-.21-.1-.3-.17-.11-.1-.2-.21-.26-.35-.07-.13-.08-.28-.1-.42.01-.14.03-.27.08-.39.03-.08.08-.15.12-.22.05-.06.11-.11.18-.17-.1-.09-.19-.18-.25-.29-.05-.08-.08-.15-.1-.24-.02-.08-.02-.17-.03-.25.01-.14.03-.27.08-.39.03-.07.08-.15.12-.21.05-.06.11-.12.18-.18-.1-.09-.19-.18-.25-.29-.05-.07-.08-.15-.1-.22-.02-.09-.02-.17-.03-.26.01-.11.01-.22.03-.33.03-.14.08-.29.13-.44.07-.16.14-.3.23-.45.1-.17.22-.34.35-.5.16-.2.34-.38.52-.56v-.69s0-.05.02-.08l.03-.07s.05-.04.08-.05c.03-.02.06-.02.09-.02s.05,0,.08.01c.02.01.05.02.06.04.02.02.05.05.06.07,0,.02.02.06.02.1v.78s0,.06-.01.08c0,.03-.04.05-.06.09-.13.13-.28.27-.41.41-.11.12-.21.26-.31.39-.07.11-.14.23-.22.34-.06.13-.11.26-.16.38-.03.1-.06.2-.07.29-.01.08-.01.14-.02.21.01.06.01.12.03.18.03.06.06.13.1.17.05.06.11.11.18.15.08.04.16.04.25.05h1.31s.05.01.08.01c.02.01.04.03.06.05.02.01.05.04.06.07.01.03.02.06.02.09Z"/><path d="M144.12,161c-.05-.1-.12-.18-.2-.24-.07-.06-.13-.1-.22-.14-.07-.02-.17-.03-.25-.03h-1.5c-.11,0-.21.02-.31.07-.09.04-.18.11-.25.18-.05.08-.1.15-.12.22-.03.09-.04.17-.05.26v1s.01.07.02.1c.01.02.04.06.06.07.01.02.04.04.06.04.03,0,.05,0,.08,0h2.52s.07,0,.1,0c.03-.02.06-.04.07-.07.02-.02.04-.04.04-.06,0-.02,0-.06,0-.08v-1c0-.11-.03-.22-.06-.32ZM143.74,162.1h-2.08v-.78s.01-.09.03-.14c0-.03.04-.06.08-.09.02-.01.06-.04.08-.05.04,0,.07,0,.1,0h1.5c.05,0,.09,0,.13.02.04.03.07.05.1.07.02.04.04.06.05.1,0,.03,0,.06,0,.1v.78Z"/><path d="M158.06,163.63c0,.15,0,.3-.01.44-.02.14-.03.27-.05.41-.01.09-.03.19-.05.29,0,.02,0,.05-.03.07l-.04.05s-.07.04-.09.05h-.1s-.05-.01-.07-.03c-.02,0-.04-.03-.06-.04-.01-.03-.03-.07-.04-.09-.01-.04,0-.07,0-.1.03-.16.05-.31.08-.47.01-.14.02-.27.02-.39,0-.1-.01-.21-.01-.31-.01-.09-.03-.2-.06-.29-.02-.04-.03-.06-.04-.07,0-.02-.01-.02-.01-.03-.01,0-.01-.01-.01-.01t-.03-.01h-.01s-.03,0-.03.01c-.01,0-.02,0-.03.01-.04.01-.06.04-.1.08-.05.04-.08.08-.13.14s-.1.14-.15.2c-.07.12-.15.25-.22.37-.07.16-.15.33-.22.5-.07.2-.13.41-.19.61-.08.25-.14.5-.19.76-.02.15-.04.29-.06.44-.01.13-.01.27-.01.4,0,.09.01.18.03.27,0,.06.01.11.03.17.01.04.03.08.05.12,0,.01,0,.02.02.02v.02s.02.01.02.01h.03s.05-.03.08-.05c.07-.05.13-.11.18-.17.1-.11.17-.22.24-.34.1-.17.19-.34.27-.53.01-.02.03-.04.04-.06.01-.02.03-.03.06-.05.02-.01.06-.02.1-.02.02,0,.06.01.08.02.03.02.05.03.07.04.02.03.03.04.04.06,0,.03.03.06.03.1,0,.02-.02.06-.02.09-.06.13-.12.26-.19.39-.07.15-.17.3-.27.45-.07.08-.15.18-.22.25-.07.08-.16.14-.24.18-.09.05-.17.08-.27.08h-.06s-.05-.01-.07-.01c-.03-.02-.07-.03-.09-.05-.04-.02-.07-.04-.1-.06-.03-.03-.06-.06-.08-.1-.04-.06-.08-.12-.1-.2-.04-.08-.05-.17-.07-.25-.02-.12-.03-.25-.03-.37.01-.24.01-.47.05-.7.04-.36.13-.69.22-1.03.06-.21.12-.4.2-.6.07-.18.15-.37.24-.56.08-.15.17-.31.27-.47.07-.1.14-.2.23-.28.06-.09.13-.15.23-.21.07-.05.15-.1.23-.11.07-.01.16,0,.23.01.09.04.16.08.22.13.06.06.11.13.14.22.05.09.07.18.08.28.03.11.03.21.04.32Z"/><path d="M159.69,163.37c-.01-.08-.04-.15-.07-.21-.04-.07-.08-.13-.11-.2-.04-.03-.06-.07-.09-.11-.02-.03-.05-.06-.07-.09-.01-.04-.02-.08-.04-.11v-.11c0-.06.02-.12.02-.17.01-.12.01-.25-.02-.36-.02-.09-.07-.19-.14-.28-.06-.07-.14-.12-.21-.17-.08-.06-.18-.09-.28-.13h0v-.03c-.04-.08-.06-.15-.11-.23-.01-.03-.04-.07-.07-.09-.03-.03-.06-.05-.1-.08-.04-.01-.07-.02-.11-.02-.04-.01-.09-.01-.12,0-.06.01-.14.03-.2.06-.03.01-.07.02-.11.02-.03.02-.07.02-.12.02h-.21c-.09,0-.18-.02-.28,0-.09,0-.19.01-.28.04-.04.02-.08.04-.13.06-.04.03-.07.07-.11.1-.04.04-.07.09-.09.14-.03.06-.04.13-.06.19-.01.01-.01.04-.01.05-.01.01-.01.02-.02.04,0,.01,0,.02-.01.03-.02,0-.02.02-.03.02-.01.01-.04.01-.05.02-.03,0-.06,0-.08.01-.06,0-.11,0-.17.03-.06.02-.14.06-.19.11-.03.02-.06.06-.08.09-.03.05-.04.1-.05.15-.01.06-.01.13-.03.19v.09s-.01.05-.02.07-.02.03-.04.04c-.03.05-.09.07-.14.11-.06.02-.12.06-.17.1-.06.05-.12.11-.17.17-.04.06-.08.13-.1.19-.03.1-.03.2-.04.28,0,.06,0,.11,0,.17-.01.04-.02.08-.05.11-.03.06-.08.11-.13.16-.05.06-.11.12-.15.18-.06.08-.1.15-.12.24-.04.08-.05.17-.06.26,0,.11.01.24.01.36,0,.09.03.2,0,.3,0,.09-.03.18-.06.26-.05.11-.1.22-.16.31-.02.07-.06.11-.08.18-.03.06-.05.12-.06.19v.1s.02.07.03.1c.02.03.04.07.06.1.04.04.08.07.11.09s.05.05.08.07c.01.03.02.06.02.1.01.06.01.13,0,.21-.01.06-.02.13-.05.19-.01.02-.01.03-.02.05h0s-.03.07-.03.11c0,.03.02.06.03.09.01.02.02.05.05.06.01.02.03.03.06.05.02.01.06.02.1.02.02,0,.06-.01.08-.02.03-.02.05-.03.06-.05.03-.01.04-.04.05-.06.04-.1.07-.2.1-.31.02-.12.04-.24.02-.36-.01-.1-.03-.2-.08-.28-.05-.09-.14-.16-.21-.22v-.02h-.02s.03-.06.04-.09c.02-.03.03-.05.05-.08.04-.07.08-.15.13-.23.03-.1.07-.19.09-.29.03-.1.05-.19.05-.29.01-.11,0-.23-.01-.34,0-.06-.01-.14-.01-.2,0-.05,0-.1.01-.16.01-.03.02-.07.04-.11.03-.07.09-.13.15-.2.05-.04.09-.09.13-.14.05-.06.08-.12.12-.18.02-.06.03-.12.06-.18.01-.09.01-.16.01-.25.01-.03.01-.07.01-.11.02-.02.02-.06.03-.08.01-.01.02-.04.05-.06.03-.05.09-.08.15-.11.07-.03.11-.06.16-.1.06-.04.13-.1.16-.15.05-.06.07-.12.1-.18.02-.08.02-.17.02-.26.02-.02.02-.04.02-.07,0-.01,0-.02.01-.03v-.02h.02s.01-.01.03-.01.03,0,.06,0c.05,0,.11-.01.17-.03s.13-.04.18-.09c.04-.03.06-.06.1-.09.02-.05.05-.08.07-.13.03-.05.04-.11.05-.17,0-.03.01-.04.01-.06.01-.02.01-.03.03-.05.01-.02.02-.03.03-.03.02-.01.03-.02.05-.02.04-.03.09-.03.15-.03h.23c.12.02.24.02.37,0,.09-.01.18-.04.28-.07.01-.01.02-.01.03-.02h.03s.01.03.02.06c0,.01,0,.03.01.05.02.06.04.12.06.17.02.02.04.03.05.06.03.01.04.02.06.03.02.02.04.02.05.03.01,0,.03.01.05.01.06.03.12.05.18.09.07.03.1.06.14.11.01.02.02.04.04.07.01.04.02.06.02.1,0,.03,0,.07-.01.11,0,.11-.01.22-.01.33,0,.07.01.15.03.21.04.1.1.19.16.27.04.04.06.08.09.12.03.04.04.08.07.13,0,.03.03.07.03.11,0,.03-.01.08-.02.12-.02.08-.06.17-.1.25-.06.14-.11.27-.14.41-.03.13-.03.25-.04.39v.03c.02.11.04.23.04.36,0,.07-.02.14-.04.22-.02.06-.05.1-.08.15-.05.06-.11.13-.16.19-.08.08-.14.15-.19.25-.03.1-.06.2-.07.31-.02.16-.02.31-.02.47,0,.08,0,.15-.02.22,0,.04-.01.09-.01.12-.07.05-.13.1-.19.15-.08.07-.15.16-.21.24-.13.17-.26.34-.38.52-.03.06-.08.1-.12.17-.02.02-.05.04-.06.08-.05.03-.09.06-.12.09-.1.07-.2.11-.31.14-.13.05-.25.08-.39.1-.17.02-.35.02-.53,0,0,0-.02,0-.03.01h-.02c-.1-.11-.2-.22-.31-.3-.13-.11-.29-.2-.44-.27-.18-.08-.36-.16-.54-.22-.21-.06-.43-.12-.64-.17-.36-.07-.73-.13-1.09-.17-.39-.04-.78-.05-1.17-.06-.36.01-.71.01-1.06.05-.35.02-.69.07-1.02.15-.3.06-.6.13-.91.24-.18.06-.38.15-.56.24-.16.08-.31.17-.44.29-.12.1-.22.21-.28.35-.06.12-.08.25-.11.39v2.98c.03.14.05.27.11.39.06.14.16.25.28.34.13.12.28.21.44.3.18.09.38.17.56.24.31.1.61.18.91.24.33.06.67.12,1.02.15.35.02.7.04,1.06.05.35-.01.7-.03,1.06-.05.34-.03.68-.09,1.02-.15.3-.06.61-.14.9-.24.2-.07.39-.15.57-.24.15-.09.31-.18.44-.3.11-.09.22-.2.28-.34.06-.12.09-.25.1-.39v-3.06h.04c.16-.01.31-.01.48-.03.13-.03.26-.05.38-.1.1-.03.2-.07.29-.12.08-.04.15-.09.22-.14.04-.02.08-.06.11-.09.04-.04.08-.09.11-.13.04-.06.09-.12.13-.18.06-.08.1-.16.17-.23.06-.09.13-.18.19-.27.06-.06.11-.13.17-.19.01-.02.04-.03.05-.05.01-.01.04-.01.05-.03.06-.03.12-.08.16-.13.03-.06.06-.13.07-.21.03-.12.03-.25.03-.39s0-.3.02-.45c.01-.06.02-.11.05-.16.01-.03.05-.08.07-.12.07-.07.15-.15.21-.23.05-.07.1-.15.13-.22.03-.06.05-.13.06-.21.02-.08.02-.18.02-.27-.02-.1-.03-.21-.03-.32v-.04c0-.11.01-.22.04-.33.02-.09.06-.17.09-.26.04-.07.08-.14.1-.22.03-.08.05-.15.06-.24,0-.06,0-.13,0-.19ZM155.79,171.98c0,.05-.01.1-.02.15-.03.06-.06.11-.1.16-.05.05-.11.09-.16.14-.11.09-.23.15-.35.21-.15.09-.31.15-.46.19-.26.1-.53.16-.78.22-.32.06-.64.11-.97.15-.36.02-.73.04-1.09.05-.37-.01-.74-.03-1.1-.05-.32-.04-.63-.09-.95-.15-.27-.06-.53-.12-.79-.22-.16-.04-.31-.1-.47-.19-.12-.06-.23-.12-.34-.21-.06-.05-.11-.09-.16-.14-.03-.05-.07-.1-.09-.16-.02-.05-.03-.1-.04-.15v-2.2c.17.11.34.22.51.31.21.1.43.19.66.25.24.07.5.13.76.18.32.07.65.11.98.15.34.02.68.03,1.03.04l.87-.03c.28-.03.56-.06.84-.1.27-.05.54-.1.8-.17.19-.05.37-.11.56-.17.17-.06.33-.12.48-.21.14-.07.26-.17.38-.25v2.2ZM155.79,169.06c-.01.06-.03.12-.07.17-.04.06-.09.12-.15.17-.07.06-.14.11-.22.16-.12.07-.25.14-.39.19-.14.07-.31.12-.47.17-.2.06-.39.11-.57.15-.22.05-.46.08-.68.11-.24.03-.48.06-.73.07-.23.01-.47.01-.7.01h-.3c-.08,0-.18-.01-.26-.01-.28-.01-.55-.04-.83-.07-.25-.04-.48-.09-.72-.14.1-.02.21-.03.32-.06.11-.02.22-.03.32-.05.11-.02.22-.03.35-.04.11-.02.23-.03.35-.04.12,0,.24,0,.35,0,.14-.02.26-.02.38-.02h.18c.25,0,.49.02.73.03.03,0,.07,0,.1,0,.03-.02.05-.03.08-.05.01-.03.03-.04.03-.06.01-.03.03-.05.03-.08s0-.07-.02-.09c-.01-.04-.03-.06-.04-.09-.03,0-.05-.02-.08-.04-.01-.01-.05-.01-.07-.02-.17,0-.35,0-.53-.02h-.71c-.31.01-.61.03-.92.07-.28.04-.57.07-.85.13-.26.06-.5.14-.76.21,0,0-.01,0-.02.01h-.01c-.15-.05-.28-.11-.42-.18-.11-.06-.22-.12-.3-.21-.04-.02-.08-.05-.1-.08-.02-.03-.05-.05-.07-.09-.02-.02-.04-.05-.05-.08,0-.03-.03-.05-.04-.09,0-.02,0-.05,0-.08,0-.05,0-.1.04-.15.02-.06.06-.11.09-.16.05-.05.1-.1.16-.14.11-.09.22-.15.34-.21.16-.09.31-.15.47-.2.26-.09.52-.16.79-.22.32-.06.63-.11.95-.14.36-.03.73-.04,1.1-.05.31.01.62.01.93.04.28.02.55.06.83.11.25.03.49.08.72.15.23.06.46.14.68.23.17.09.35.18.49.29.05.03.09.08.14.12.03.05.06.08.09.13.02.04.04.09.05.12v.14Z"/><path d="M149.43,171.01s-.05-.02-.07-.03c-.17-.05-.35-.1-.52-.17-.11-.05-.23-.1-.34-.16-.03-.01-.06-.02-.09-.03-.03,0-.06,0-.09.02-.02,0-.05.02-.06.04-.02.02-.03.04-.05.06-.01.03-.02.06-.03.09,0,.03,0,.06.02.09,0,.02.02.05.04.06.02.02.04.03.06.05.16.08.32.15.49.22.15.06.3.1.45.15,0,0,.02,0,.03,0,0,0,0,0,.01,0,0,0,0,0,.01,0,.02,0,.05,0,.07-.01.03-.01.07-.03.09-.06.02-.03.04-.06.05-.09,0-.03,0-.07,0-.1,0-.03-.02-.06-.04-.09-.01-.02-.03-.04-.05-.05Z"/><path d="M155.33,170.58c-.17.09-.34.18-.52.25-.21.09-.43.15-.66.2-.25.06-.51.11-.76.15-.13.02-.26.03-.39.05-.13.01-.27.03-.4.03-.14,0-.27.02-.41.02-.12,0-.24,0-.35,0-.04,0-.08,0-.12,0-.35,0-.69-.03-1.04-.06-.03,0-.07,0-.1.01-.03,0-.06.03-.08.05-.02.02-.03.04-.04.06-.01.02-.02.05-.02.07,0,.03,0,.07.01.1,0,.03.03.06.05.08.02.02.04.03.06.04.02.01.05.02.07.02.26.02.51.05.77.06.04,0,.08,0,.12,0,.04,0,.08,0,.12,0,.04,0,.08,0,.12,0,.07,0,.13,0,.2,0,.15,0,.3,0,.44-.01.32-.01.63-.04.95-.08.29-.04.58-.09.86-.16.25-.06.51-.13.75-.23.21-.08.4-.19.6-.29.03-.02.05-.04.07-.07.02-.03.03-.06.03-.09,0-.03,0-.05,0-.07,0-.03-.02-.05-.03-.07-.02-.03-.04-.05-.07-.07-.03-.02-.06-.03-.09-.03-.03,0-.05,0-.07,0-.02,0-.05.02-.07.03Z"/><path d="M222.56,168.59v1.66s-.02.03-.02.04c0,.02-.01.04-.01.05-.01.02-.02.03-.04.04,0,.01-.03.02-.04.04l-4.16,1.8h-.02s-.02.01-.03.01h-.05s-.01,0-.02-.01h-.03l-4.15-1.8s-.03-.02-.04-.03c0-.01-.02-.02-.02-.03-.02-.02-.03-.03-.04-.05v-1.72s0-.05.01-.06c0-.03.01-.04.03-.06.01-.02.03-.04.06-.05.02,0,.05-.01.07-.01s.05,0,.06.01c.03,0,.04.01.06.02.01.03.04.04.05.06,0,.03,0,.05,0,.09v1.55l3.79,1.64v-3.09s.02-.04.02-.07c.01-.01.02-.03.03-.04.01-.03.04-.04.06-.05.03-.02.05-.02.08-.02.02,0,.05,0,.06.02.02,0,.03,0,.05.02s.03.04.05.06c.01.03.01.05.02.08v3.09l3.79-1.64v-1.55s0-.05,0-.06c.01-.03.01-.04.04-.06.01-.02.04-.04.06-.05.01,0,.05-.01.07-.01.03,0,.04,0,.06.01.02,0,.04.01.05.02.03.03.04.04.05.06.01.03.01.05.03.09Z"/><path d="M235.58,166.97s.02.05,0,.07c0,.02-.01.05-.02.07l-3.34,4.77s-.02.04-.05.05c-.02.01-.05.02-.07.02,0,0,0,.01-.01.01h-.02s-.03-.01-.04-.01c-.03,0-.04-.01-.06-.02l-6.71-4.77s-.04-.03-.05-.05c-.01-.02-.01-.06-.02-.08,0-.03,0-.05,0-.08,0-.02.02-.04.04-.07l.59-.57s.04-.03.05-.04c.03,0,.05-.01.06-.01.03,0,.07,0,.08.01.02.01.05.03.07.04.01.02.02.04.04.06,0,.01.01.04.01.06s0,.05-.01.07c-.02.03-.03.05-.04.06l-.44.43,6.38,4.54,3.24-4.62s.02-.03.05-.04c.01-.01.03-.02.05-.02.02-.02.04-.02.07-.02.04.02.05.03.07.04.03.01.04.02.05.04.01.02.02.03.02.06Z"/><path d="M227.48,165.64s-.03.04-.03.07c0,.02,0,.04,0,.06,0,.02.01.04.02.06.01.02.02.03.03.05.01.01.03.02.04.03.03.01.05.02.08.02.02,0,.03,0,.04,0,.01,0,.02,0,.03-.01l3.18-1.58s.04-.03.06-.05c.02-.02.03-.04.03-.07,0-.02,0-.04,0-.06,0-.02-.01-.04-.02-.06-.01-.02-.03-.04-.05-.06-.02-.02-.04-.03-.07-.03-.02,0-.04,0-.06,0-.02,0-.04.01-.06.02l-3.18,1.58s-.04.03-.06.05Z"/><path d="M229.87,167.08s-.02.05-.02.07c0,.02,0,.04,0,.06,0,.02.02.04.03.05.01.01.02.02.03.03.01,0,.02.02.04.02.02,0,.04.01.07.01.02,0,.05,0,.07-.01.02,0,.03-.02.05-.03l2.67-2.2s.04-.04.05-.06c.01-.02.02-.05.02-.07,0-.02,0-.04,0-.06,0-.02-.02-.04-.03-.05-.02-.02-.04-.04-.06-.05-.02-.01-.05-.02-.07-.02-.02,0-.04,0-.06,0-.02,0-.04.02-.05.03l-2.67,2.2s-.04.04-.05.06Z"/><path d="M228.78,166.24s-.02.05-.03.07c0,.02,0,.04,0,.06,0,.02.01.04.02.06.01.01.02.03.03.04.01.01.03.02.04.03.02.01.05.01.08.02.02,0,.04,0,.05,0,.01,0,.03-.01.04-.02l2.73-1.71s.04-.03.06-.06c.01-.02.02-.05.03-.07,0-.02,0-.04,0-.06,0-.02-.01-.04-.02-.06-.02-.02-.03-.04-.06-.06-.02-.01-.05-.02-.07-.03-.02,0-.04,0-.06,0-.02,0-.04.01-.06.02l-2.73,1.71s-.04.03-.06.06Z"/><path d="M224.03,165.69s-.02-.03-.04-.04c0-.01-.02-.02-.04-.02l-4.08-1.82s-.03-.01-.04-.01h-.05l-1.48.16-1.22-1.53s-.03-.02-.05-.03c-.02-.02-.03-.03-.06-.03h-.05s-.03,0-.06.01l-4.07,1.82s-.05.02-.07.05c0,.02-.02.05-.02.07-.02.01-.02.03-.02.04,0,.02,0,.04.02.05,0,.02.01.03.02.06l1.18,1.47-1.18,1.48s0,.02-.02.03c0,.02,0,.04-.02.05,0,.03,0,.05.02.08,0,.01,0,.02.01.03,0,.02,0,.03.02.04,0,.02.04.04.06.05l4.07,1.84s.04,0,.05.01h.03s.06-.01.08-.02c.03-.02.04-.03.06-.05l1.14-1.43,1.13,1.43s.02.02.04.03c.01.02.02.02.03.03.03,0,.05.01.08.01.01,0,.02,0,.03-.01h.04l4.07-1.84s.06-.04.07-.06c.02-.01.03-.04.04-.06,0-.04,0-.06-.01-.1,0-.03,0-.04-.03-.06l-1.07-1.33,1.26-.12s.05,0,.06-.03c.02-.01.03-.02.05-.03.01-.02.02-.03.03-.04,0-.02.01-.04.01-.05v-.07s-.01-.04-.02-.06ZM213.15,164.43l3.74-1.67,1.05,1.32-3.75,1.64-1.04-1.29ZM216.89,169.15l-3.74-1.68,1.04-1.31,3.75,1.67-1.05,1.32ZM214.57,165.94l3.46-1.52v2.69s.02.06.03.09c.01.01.02.04.05.06.01.01.02.01.05.02.02.02.03.02.06.02.02,0,.05-.02.07-.03.02,0,.05-.02.06-.03.01-.03.03-.04.04-.07,0-.01.01-.03.01-.06v-2.69l3.46,1.52-3.64,1.64-3.65-1.64ZM223.29,167.47l-3.74,1.68-1.05-1.32,3.75-1.67,1.04,1.31ZM222.32,165.76l-3.42-1.51.88-.09,3.41,1.52-.87.08Z"/><path d="M222.56,168.59v1.66s-.02.03-.02.04c0,.02-.01.04-.01.05-.01.02-.02.03-.04.04,0,.01-.03.02-.04.04l-4.16,1.8h-.02s-.02.01-.03.01h-.05s-.01,0-.02-.01h-.03l-4.15-1.8s-.03-.02-.04-.03c0-.01-.02-.02-.02-.03-.02-.02-.03-.03-.04-.05v-1.72s0-.05.01-.06c0-.03.01-.04.03-.06.01-.02.03-.04.06-.05.02,0,.05-.01.07-.01s.05,0,.06.01c.03,0,.04.01.06.02.01.03.04.04.05.06,0,.03,0,.05,0,.09v1.55l3.79,1.64v-3.09s.02-.04.02-.07c.01-.01.02-.03.03-.04.01-.03.04-.04.06-.05.03-.02.05-.02.08-.02.02,0,.05,0,.06.02.02,0,.03,0,.05.02s.03.04.05.06c.01.03.01.05.02.08v3.09l3.79-1.64v-1.55s0-.05,0-.06c.01-.03.01-.04.04-.06.01-.02.04-.04.06-.05.01,0,.05-.01.07-.01.03,0,.04,0,.06.01.02,0,.04.01.05.02.03.03.04.04.05.06.01.03.01.05.03.09Z"/><path d="M235.58,166.97s.02.05,0,.07c0,.02-.01.05-.02.07l-3.34,4.77s-.02.04-.05.05c-.02.01-.05.02-.07.02,0,0,0,.01-.01.01h-.02s-.03-.01-.04-.01c-.03,0-.04-.01-.06-.02l-6.71-4.77s-.04-.03-.05-.05c-.01-.02-.01-.06-.02-.08,0-.03,0-.05,0-.08,0-.02.02-.04.04-.07l.59-.57s.04-.03.05-.04c.03,0,.05-.01.06-.01.03,0,.07,0,.08.01.02.01.05.03.07.04.01.02.02.04.04.06,0,.01.01.04.01.06s0,.05-.01.07c-.02.03-.03.05-.04.06l-.44.43,6.38,4.54,3.24-4.62s.02-.03.05-.04c.01-.01.03-.02.05-.02.02-.02.04-.02.07-.02.04.02.05.03.07.04.03.01.04.02.05.04.01.02.02.03.02.06Z"/><path d="M236.12,165.52v.07s-.01.02-.01.04c-.01.02-.03.03-.03.05l-3.98,4.29s-.03.02-.05.03-.05.01-.07.03c-.03-.02-.04-.02-.05-.02-.03,0-.04-.01-.06-.02l-6.94-4.73s-.05-.04-.06-.06c0-.01-.01-.04-.01-.05-.01-.01-.01-.04-.01-.05.01-.03.01-.06.03-.08,0-.02.02-.03.03-.04s.03-.02.05-.02l5.01-2.31s.03-.01.06-.01c.02,0,.05.01.08.01l5.91,2.73s.04.03.06.05c.02.01.02.03.03.04,0,.01.01.03.01.05Z" class="cls-3"/><line y2="152.3" x2="259.93" y1="150.5" x1="259.93" class="cls-2"/><line y2="151.29" x2="260.54" y1="150.5" x1="260.54" class="cls-2"/><line y2="152.23" x2="37.3" y1="150.52" x1="37.3" class="cls-2"/><line y2="151.2" x2="36.69" y1="150.52" x1="36.69" class="cls-2"/><line y2="275.2" x2="111.71" y1="150.5" x1="111.71" class="cls-4"/><line y2="275.2" x2="185.64" y1="150.5" x1="185.64" class="cls-4"/><polyline points="372.47 273.24 372.47 273.24 372.47 277.34 373.51 277.34 373.51 285 301.18 285 301.18 277.34 302.26 277.34 302.26 273.2 304.02 273.2 304.02 277.34 309.87 277.34 309.87 273.2 311.62 273.2 311.62 277.34 317.47 277.34 317.47 273.2 319.23 273.2 319.23 277.34 325.08 277.34 325.08 273.2 326.83 273.2 326.83 277.34 332.68 277.34 332.68 273.2 334.44 273.2 334.44 277.34 340.29 277.34 340.29 273.2 342.04 273.2 342.04 277.34 347.89 277.34 347.89 273.2 349.65 273.2 349.65 277.34 355.5 277.34 355.5 273.2 357.26 273.2 357.26 277.34 363.11 277.34 363.11 273.2 364.86 273.2 364.86 277.34 370.71 277.34 370.71 273.2" class="cls-2"/></g></g></svg>