<svg viewBox="0 0 531.26 288" xmlns="http://www.w3.org/2000/svg" id="Golf"><defs><style>.cls-1,.cls-2{stroke:#12100b;stroke-linecap:round;stroke-linejoin:round;}.cls-1,.cls-2,.cls-3{fill:none;}.cls-1,.cls-3{stroke-width:.3px;}.cls-2{stroke-width:.3px;}.cls-4{fill:#12100b;}.cls-3{stroke:#000;stroke-miterlimit:10;}</style></defs><g id="Club_House"><g id="ecoponto_Premium_S3"><g id="LINE"><line y2="123.59" x2="17.69" y1="64.48" x1="17.69" class="cls-1"/><rect height=".3" width="1.95" y="64.33" x="16.72" class="cls-4"/><rect height=".3" width="1.95" y="123.44" x="16.72" class="cls-4"/></g><rect ry="3.09" rx="3.09" height="59.41" width="158.32" y="64.38" x="30.72" class="cls-1"/><g id="CIRCLE"><ellipse ry="16.59" rx="16.88" cy="94.09" cx="66.06" class="cls-1"/></g><g id="CIRCLE-2"><ellipse ry="16.59" rx="16.88" cy="94.09" cx="109.95" class="cls-1"/></g><g id="CIRCLE-3"><ellipse ry="16.44" rx="16.73" cy="94.09" cx="153.85" class="cls-1"/></g><g id="CIRCLE-4"><ellipse ry="15.7" rx="15.97" cy="94.09" cx="66.06" class="cls-1"/></g><g id="CIRCLE-5"><ellipse ry="13.57" rx="13.56" cy="94.09" cx="66.06" class="cls-1"/></g><g id="CIRCLE-6"><ellipse ry="13.57" rx="13.56" cy="94.09" cx="109.95" class="cls-1"/></g><g id="CIRCLE-7"><ellipse ry="15.7" rx="15.97" cy="94.09" cx="109.95" class="cls-1"/></g><g id="CIRCLE-8"><ellipse ry="15.55" rx="15.82" cy="94.09" cx="153.85" class="cls-1"/></g><g id="CIRCLE-9"><ellipse ry="13.57" rx="13.56" cy="94.09" cx="153.85" class="cls-1"/></g><g id="LINE-2"><line y2="284.47" x2="17.69" y1="171.69" x1="17.69" class="cls-1"/><rect height=".3" width="1.95" y="171.54" x="16.72" class="cls-4"/><rect height=".3" width="1.95" y="284.32" x="16.72" class="cls-4"/></g><polyline points="238.74 174.05 234.28 174.05 234.28 173.15 290.58 173.15 290.58 174.05 286.49 174.05 286.49 275.18 284.66 275.18 284.66 174.05 278.83 174.05 278.83 275.18 277.01 275.18 277.01 174.05 271.18 174.05 271.18 275.18 269.36 275.18 269.36 174.05 263.52 174.05 263.52 275.18 261.7 275.18 261.7 174.05 255.87 174.05 255.87 275.18 254.05 275.18 254.05 174.05 248.22 174.05 248.22 275.18 246.4 275.18 246.4 174.05 240.56 174.05 240.56 275.18" class="cls-1"/><polygon points="286.49 275.18 286.49 285.01 238.74 285.01 238.74 275.18 240.56 275.18 240.56 277.47 246.4 277.47 246.4 275.18 248.22 275.18 248.22 277.47 254.05 277.47 254.05 275.18 255.87 275.18 255.87 277.47 261.7 277.47 261.7 275.18 263.52 275.18 263.52 277.47 269.36 277.47 269.36 275.18 271.18 275.18 271.18 277.47 277.01 277.47 277.01 275.18 278.83 275.18 278.83 277.47 284.66 277.47 284.66 275.18 286.49 275.18" class="cls-1"/><rect height="4.58" width="1.82" y="223.02" x="246.4" class="cls-1"/><rect height="4.58" width="1.82" y="223.02" x="254.05" class="cls-1"/><rect height="4.58" width="1.82" y="223.02" x="261.7" class="cls-1"/><rect height="4.58" width="1.82" y="223.02" x="269.36" class="cls-1"/><rect height="4.58" width="1.82" y="223.02" x="277.01" class="cls-1"/><rect height="4.58" width="1.83" y="223.02" x="284.66" class="cls-1"/><rect height="5.25" width="1.82" y="269.93" x="246.4" class="cls-1"/><rect height="5.25" width="1.82" y="269.93" x="254.05" class="cls-1"/><rect height="5.25" width="1.82" y="269.93" x="261.7" class="cls-1"/><rect height="5.25" width="1.82" y="269.93" x="269.36" class="cls-1"/><rect height="5.25" width="1.82" y="269.93" x="277.01" class="cls-1"/><rect height="5.25" width="1.83" y="269.93" x="284.66" class="cls-1"/><rect height="5.25" width="1.82" y="194.09" x="246.4" class="cls-1"/><rect height="5.25" width="1.82" y="194.09" x="238.74" class="cls-1"/><rect height="5.25" width="1.82" y="194.09" x="254.05" class="cls-1"/><rect height="5.25" width="1.82" y="194.09" x="261.7" class="cls-1"/><rect height="5.25" width="1.82" y="194.09" x="269.36" class="cls-1"/><rect height="5.25" width="1.82" y="194.09" x="277.01" class="cls-1"/><rect height="5.25" width="1.83" y="194.09" x="284.66" class="cls-1"/><rect height="10.47" width="1.82" y="180.69" x="246.4" class="cls-1"/><rect height="10.47" width="1.82" y="180.69" x="238.74" class="cls-1"/><rect height="10.47" width="1.82" y="180.69" x="254.05" class="cls-1"/><rect height="10.47" width="1.82" y="180.69" x="261.7" class="cls-1"/><rect height="10.47" width="1.82" y="180.69" x="269.36" class="cls-1"/><rect height="10.47" width="1.82" y="180.69" x="277.01" class="cls-1"/><rect height="10.47" width="1.83" y="180.69" x="284.66" class="cls-1"/><polyline points="238.74 277.47 232.91 277.47 232.91 174.05 238.74 174.05" class="cls-1"/><polyline points="238.74 223.02 240.56 223.02 240.56 227.6 238.74 227.6 238.74 223.02 238.74 269.93" class="cls-1"/><line y2="223.02" x2="238.74" y1="174.05" x1="238.74" class="cls-1"/><rect height="103.42" width="5.84" y="174.05" x="240.56" class="cls-1"/><rect height="103.42" width="5.83" y="174.05" x="248.22" class="cls-1"/><rect height="103.42" width="5.83" y="174.05" x="255.87" class="cls-1"/><rect height="103.42" width="5.84" y="174.05" x="263.52" class="cls-1"/><rect height="103.42" width="5.83" y="174.05" x="271.18" class="cls-1"/><rect height="103.42" width="5.83" y="174.05" x="278.83" class="cls-1"/><rect height="103.42" width="5.83" y="174.05" x="286.49" class="cls-1"/><rect height="1.23" width="59.41" y="171.92" x="232.91" class="cls-1"/><path d="M82.34,208.06c0,.96-.77,1.73-1.72,1.73s-1.73-.77-1.73-1.73.77-1.72,1.73-1.72,1.72.77,1.72,1.72Z" class="cls-1"/><path d="M130.91,208.06c0,.96-.77,1.73-1.73,1.73s-1.72-.77-1.72-1.73.77-1.72,1.72-1.72,1.73.77,1.73,1.72Z" class="cls-1"/><path d="M179.58,208.06c0,.96-.78,1.73-1.73,1.73s-1.73-.77-1.73-1.73.78-1.72,1.73-1.72,1.73.77,1.73,1.72Z" class="cls-1"/><polygon points="184.13 173.23 184.13 174.12 183.37 174.12 183.37 275.25 182.59 275.25 182.59 174.12 135.75 174.12 135.75 275.25 134.02 275.25 134.02 174.12 87.18 174.12 87.18 275.25 85.45 275.25 85.45 174.12 38.62 174.12 38.62 275.25 37.74 275.25 37.74 174.12 36.22 174.12 36.22 173.23 184.13 173.23" class="cls-1"/><rect height="103.42" width="5.8" y="174.12" x="31.94" class="cls-1"/><rect height="103.42" width="5.8" y="174.12" x="183.37" class="cls-1"/><rect height="1.23" width="158.31" y="172" x="30.97" class="cls-1"/><rect height=".89" width=".56" y="173.23" x="40.01" class="cls-1"/><rect height=".89" width="1.73" y="173.23" x="82.83" class="cls-1"/><line y2="275.26" x2="86.07" y1="173.23" x1="86.07" class="cls-1"/><rect height=".89" width=".55" y="173.23" x="137.15" class="cls-1"/><rect height=".89" width="1.73" y="173.23" x="179.96" class="cls-1"/><line y2="173.23" x2="183.37" y1="275.25" x1="183.37" class="cls-1"/><line y2="173.23" x2="37.74" y1="275.25" x1="37.74" class="cls-1"/><rect height=".89" width=".56" y="173.23" x="88.58" class="cls-1"/><rect height=".89" width="1.73" y="173.23" x="131.4" class="cls-1"/><line y2="275.26" x2="134.63" y1="173.23" x1="134.63" class="cls-1"/><rect height="103.42" width="46.83" y="174.12" x="38.62" class="cls-1"/><polygon points="134.02 174.12 134.02 277.54 87.14 277.54 87.14 275.25 87.18 275.25 87.18 174.12 134.02 174.12" class="cls-2"/><rect height="101.13" width=".04" y="174.12" x="87.14" class="cls-2"/><path d="M80.62,206.34c.95,0,1.72.77,1.72,1.72s-.77,1.73-1.72,1.73-1.73-.77-1.73-1.73.77-1.72,1.73-1.72Z" class="cls-1"/><path d="M82.34,208.06c0,.96-.77,1.73-1.72,1.73s-1.73-.77-1.73-1.73.77-1.72,1.73-1.72,1.72.77,1.72,1.72Z" class="cls-1"/><path d="M177.85,206.34c.95,0,1.73.77,1.73,1.72s-.78,1.73-1.73,1.73-1.73-.77-1.73-1.73.78-1.72,1.73-1.72Z" class="cls-1"/><path d="M179.58,208.06c0,.96-.78,1.73-1.73,1.73s-1.73-.77-1.73-1.73.78-1.72,1.73-1.72,1.73.77,1.73,1.72Z" class="cls-1"/><path d="M130.91,208.06c0,.96-.77,1.73-1.73,1.73s-1.72-.77-1.72-1.73.77-1.72,1.72-1.72,1.73.77,1.73,1.72Z" class="cls-1"/><path d="M82.34,208.06c0,.96-.77,1.73-1.72,1.73s-1.73-.77-1.73-1.73.77-1.72,1.73-1.72,1.72.77,1.72,1.72Z" class="cls-1"/><path d="M130.91,208.06c0,.96-.77,1.73-1.73,1.73s-1.72-.77-1.72-1.73.77-1.72,1.72-1.72,1.73.77,1.73,1.72Z" class="cls-1"/><path d="M179.58,208.06c0,.96-.78,1.73-1.73,1.73s-1.73-.77-1.73-1.73.78-1.72,1.73-1.72,1.73.77,1.73,1.72Z" class="cls-1"/><g id="LINE-3"><line y2="54.61" x2="189.26" y1="54.61" x1="31.17" class="cls-1"/><rect height="1.95" width=".3" y="53.63" x="31.02" class="cls-4"/><rect height="1.95" width=".3" y="53.63" x="189.11" class="cls-4"/></g><g id="MTEXT"><path d="M94.38,46.07v5.29h-.72v-4.54l-1.3.64v-.73l1.36-.67h.67Z"/><path d="M98.09,46.21c.25.13.47.32.65.55.18.23.32.52.42.85.1.33.15.69.15,1.08s-.05.76-.15,1.1-.24.62-.42.86c-.18.24-.4.43-.65.56-.25.13-.52.2-.83.2s-.57-.07-.82-.2-.47-.32-.65-.56c-.18-.24-.32-.53-.42-.86-.1-.33-.15-.7-.15-1.1s.05-.75.15-1.08c.1-.33.24-.61.42-.85.18-.24.4-.42.65-.55.25-.13.53-.2.83-.2s.58.07.83.2ZM96.73,46.85c-.16.1-.29.23-.41.41-.11.18-.2.38-.27.63-.07.24-.1.51-.1.81s.03.57.09.82c.06.25.15.46.27.64.12.18.25.32.41.42.16.1.33.15.52.15s.37-.05.53-.15c.16-.1.3-.24.41-.42.11-.18.2-.39.27-.64.06-.25.09-.52.09-.82s-.03-.56-.09-.81c-.06-.25-.15-.46-.26-.63-.11-.17-.25-.31-.41-.41-.16-.1-.34-.15-.53-.15s-.37.05-.52.15Z"/><path d="M102.96,46.07v.65h-1.92l-.25,1.54c.1-.09.22-.16.36-.21.14-.05.29-.07.46-.07.25,0,.47.04.68.13.21.08.38.2.53.35.15.15.27.33.35.54.08.21.12.44.12.69s-.04.48-.13.7c-.09.21-.21.4-.36.55-.16.15-.34.27-.56.36-.21.08-.45.13-.71.13-.2,0-.39-.03-.58-.08s-.35-.13-.5-.23c-.15-.1-.28-.22-.39-.36-.11-.14-.19-.3-.24-.48l.63-.31c.07.24.19.43.39.56.19.14.42.21.67.21.15,0,.29-.03.41-.08.13-.05.23-.12.33-.21.09-.09.16-.2.21-.33.05-.13.08-.27.08-.43s-.03-.3-.08-.44c-.05-.13-.13-.25-.22-.34s-.21-.17-.34-.22c-.13-.05-.28-.08-.44-.08-.18,0-.35.04-.49.1-.14.07-.26.17-.36.31l-.62-.15.47-2.79h2.52Z"/><path d="M106.7,46.21c.25.13.47.32.65.55.18.23.32.52.42.85.1.33.15.69.15,1.08s-.05.76-.15,1.1-.24.62-.42.86c-.18.24-.4.43-.65.56-.25.13-.52.2-.83.2s-.57-.07-.82-.2-.47-.32-.65-.56c-.18-.24-.32-.53-.42-.86-.1-.33-.15-.7-.15-1.1s.05-.75.15-1.08c.1-.33.24-.61.42-.85.18-.24.4-.42.65-.55.25-.13.53-.2.83-.2s.58.07.83.2ZM105.35,46.85c-.16.1-.29.23-.41.41-.11.18-.2.38-.27.63-.07.24-.1.51-.1.81s.03.57.09.82c.06.25.15.46.27.64.12.18.25.32.41.42.16.1.33.15.52.15s.37-.05.53-.15c.16-.1.3-.24.41-.42.11-.18.2-.39.27-.64.06-.25.09-.52.09-.82s-.03-.56-.09-.81c-.06-.25-.15-.46-.26-.63-.11-.17-.25-.31-.41-.41-.16-.1-.34-.15-.53-.15s-.37.05-.52.15Z"/><path d="M111.53,47.71v.67c.11-.24.26-.42.45-.54.18-.12.4-.18.63-.18.26,0,.48.07.67.2.19.14.32.33.41.59.11-.26.27-.45.46-.59.2-.14.43-.2.7-.2.38,0,.67.12.88.37.21.25.31.61.31,1.07v2.25h-.7v-2.16c0-.29-.07-.52-.2-.69-.13-.17-.31-.25-.54-.25-.12,0-.22.02-.32.07-.1.05-.18.11-.26.2-.07.09-.13.19-.16.32-.04.12-.06.26-.06.4v2.11h-.7v-2.16c0-.14-.02-.27-.06-.38-.04-.12-.09-.22-.15-.3-.06-.08-.14-.14-.23-.19-.09-.04-.2-.07-.31-.07s-.22.02-.32.07c-.1.05-.18.12-.25.21-.07.09-.12.2-.17.32-.04.12-.06.26-.06.41v2.09h-.7v-3.64h.68Z"/><path d="M117.72,47.71v.67c.11-.24.26-.42.45-.54.18-.12.4-.18.63-.18.26,0,.48.07.67.2.19.14.32.33.41.59.11-.26.27-.45.46-.59.2-.14.43-.2.7-.2.38,0,.67.12.88.37.21.25.31.61.31,1.07v2.25h-.7v-2.16c0-.29-.07-.52-.2-.69-.13-.17-.31-.25-.54-.25-.12,0-.22.02-.32.07-.1.05-.18.11-.26.2-.07.09-.13.19-.16.32-.04.12-.06.26-.06.4v2.11h-.7v-2.16c0-.14-.02-.27-.06-.38-.04-.12-.09-.22-.15-.3-.06-.08-.14-.14-.23-.19-.09-.04-.2-.07-.31-.07s-.22.02-.32.07c-.1.05-.18.12-.25.21-.07.09-.12.2-.17.32-.04.12-.06.26-.06.41v2.09h-.7v-3.64h.68Z"/></g><g id="MTEXT-2"><path d="M8.48,104.14h.55l.98.65c.06.04.1.07.15.1.04.03.08.06.13.09s.09.06.13.09.09.06.15.09c.02-.19.08-.37.18-.52s.21-.29.35-.41c.14-.12.3-.21.48-.27s.38-.09.59-.09c.24,0,.47.04.67.13.2.08.38.2.52.36.14.15.26.34.34.54s.12.44.12.69c0,.21-.03.4-.08.58-.05.18-.13.35-.23.49-.1.15-.22.28-.37.39-.14.11-.31.2-.49.26l-.31-.63c.24-.08.44-.22.58-.41.14-.19.21-.42.21-.67,0-.15-.02-.28-.07-.4-.05-.12-.11-.23-.2-.31-.09-.09-.19-.15-.31-.2-.12-.05-.26-.07-.41-.07s-.29.03-.42.08c-.13.06-.23.13-.32.22-.09.09-.16.21-.21.34-.05.13-.08.28-.08.44v.35l-.44.08-1.07-.72s-.09-.06-.12-.09c-.03-.03-.07-.05-.12-.08s-.08-.06-.12-.08c-.03-.03-.07-.06-.12-.09v2.18h-.65v-3.09Z"/><path d="M8.61,100.79c.12-.24.29-.44.51-.61.22-.17.5-.3.82-.39.32-.09.69-.14,1.09-.14s.8.05,1.15.15c.35.1.64.24.89.43s.43.41.56.67c.13.26.2.55.2.88,0,.37-.09.7-.27.97-.18.27-.43.47-.76.59l-.29-.64c.21-.07.37-.18.48-.34.11-.16.17-.35.17-.56,0-.2-.05-.38-.14-.55-.09-.17-.23-.31-.4-.44-.17-.13-.37-.22-.61-.29-.24-.07-.49-.1-.77-.1h-.17c-.06,0-.1,0-.15,0,.25.08.45.23.59.45.14.22.21.48.21.79,0,.24-.04.46-.12.65-.08.2-.19.36-.34.5-.14.14-.32.25-.52.33-.2.08-.42.12-.66.12s-.47-.04-.68-.13c-.21-.08-.38-.2-.52-.35-.14-.15-.26-.32-.34-.53-.08-.21-.12-.43-.12-.68,0-.3.06-.57.18-.81ZM9.18,101.95c.05.12.12.22.21.3.09.08.19.15.31.2.12.05.26.07.41.07s.29-.02.41-.07c.12-.05.23-.12.32-.2.09-.09.16-.19.21-.31.05-.12.07-.25.07-.4s-.02-.27-.07-.39c-.05-.12-.12-.22-.2-.31-.09-.09-.19-.15-.31-.2-.12-.05-.25-.07-.4-.07s-.28.03-.41.08c-.13.05-.24.13-.34.21-.1.09-.17.2-.22.32s-.08.26-.08.4.03.26.08.38Z"/><path d="M8.48,96.02h5.29v.73h-4.36s.08.04.1.06c.03.02.06.04.09.07l2.02,1.35s.06.04.08.05.05.03.08.06v-3.2h.64v3.98h-.59l-3.35-2.22v-.87Z"/><path d="M10.13,91.65h.67c-.24-.11-.42-.26-.54-.45-.12-.18-.18-.4-.18-.63,0-.26.07-.48.2-.67.14-.19.33-.32.59-.41-.26-.11-.45-.27-.59-.46-.14-.2-.2-.43-.2-.7,0-.38.12-.67.37-.88.25-.21.61-.31,1.07-.31h2.25v.7h-2.16c-.29,0-.52.07-.69.2-.17.13-.25.31-.25.54,0,.12.02.22.07.32.05.1.11.18.2.26.09.07.19.13.32.16.12.04.26.06.4.06h2.11v.7h-2.16c-.14,0-.27.02-.38.06-.12.04-.22.09-.3.15-.08.06-.14.14-.19.23-.04.09-.07.2-.07.31s.02.22.07.32c.05.1.12.18.21.25.09.07.2.12.32.17.12.04.26.06.41.06h2.09v.7h-3.64v-.68Z"/><path d="M10.13,85.46h.67c-.24-.11-.42-.26-.54-.45-.12-.18-.18-.4-.18-.63,0-.26.07-.48.2-.67.14-.19.33-.32.59-.41-.26-.11-.45-.27-.59-.46-.14-.2-.2-.43-.2-.7,0-.38.12-.67.37-.88.25-.21.61-.31,1.07-.31h2.25v.7h-2.16c-.29,0-.52.07-.69.2-.17.13-.25.31-.25.54,0,.12.02.22.07.32.05.1.11.18.2.26.09.07.19.13.32.16.12.04.26.06.4.06h2.11v.7h-2.16c-.14,0-.27.02-.38.06-.12.04-.22.09-.3.15-.08.06-.14.14-.19.23-.04.09-.07.2-.07.31s.02.22.07.32c.05.1.12.18.21.25.09.07.2.12.32.17.12.04.26.06.41.06h2.09v.7h-3.64v-.68Z"/></g><g id="MTEXT-3"><path d="M13.77,243.57l-4.62-1.78v2.69h-.67v-3.5h.59l4.7,1.77v.83Z"/><path d="M8.48,237.5h.65v1.92l1.54.25c-.09-.1-.16-.22-.21-.36-.05-.14-.07-.29-.07-.46,0-.25.04-.47.13-.68.08-.21.2-.38.35-.53.15-.15.33-.27.54-.35.21-.08.44-.12.69-.12s.48.04.7.13c.21.09.4.21.55.36.15.16.27.34.36.56.08.21.13.45.13.71,0,.2-.03.39-.08.58s-.13.35-.23.5c-.1.15-.22.28-.36.39-.14.11-.3.19-.48.24l-.31-.63c.24-.07.43-.19.56-.39.14-.19.21-.42.21-.67,0-.15-.03-.29-.08-.41-.05-.13-.12-.23-.21-.33-.09-.09-.2-.16-.33-.21-.13-.05-.27-.08-.43-.08s-.3.03-.44.08c-.13.05-.25.13-.34.22s-.17.21-.22.34c-.05.13-.08.28-.08.44,0,.18.04.35.1.49.07.14.17.26.31.36l-.15.62-2.79-.47v-2.52Z"/><path d="M8.63,233.76c.13-.25.32-.47.55-.65.23-.18.52-.32.85-.42.33-.1.69-.15,1.08-.15s.76.05,1.1.15.62.24.86.42c.24.18.43.4.56.65.13.25.2.52.2.83s-.07.57-.2.82-.32.47-.56.65c-.24.18-.53.32-.86.42-.33.1-.7.15-1.1.15s-.75-.05-1.08-.15c-.33-.1-.61-.24-.85-.42-.24-.18-.42-.4-.55-.65-.13-.25-.2-.53-.2-.83s.07-.58.2-.83ZM9.26,235.11c.1.16.23.29.41.41.18.11.38.2.63.27.24.07.51.1.81.1s.57-.03.82-.09c.25-.06.46-.15.64-.27.18-.12.32-.25.42-.41.1-.16.15-.33.15-.52s-.05-.37-.15-.53c-.1-.16-.24-.3-.42-.41-.18-.11-.39-.2-.64-.27-.25-.06-.52-.09-.82-.09s-.56.03-.81.09c-.25.06-.46.15-.63.26-.17.11-.31.25-.41.41-.1.16-.15.34-.15.53s.05.37.15.52Z"/><path d="M10.13,228.93h.67c-.24-.11-.42-.26-.54-.45-.12-.18-.18-.4-.18-.63,0-.26.07-.48.2-.67.14-.19.33-.32.59-.41-.26-.11-.45-.27-.59-.46-.14-.2-.2-.43-.2-.7,0-.38.12-.67.37-.88.25-.21.61-.31,1.07-.31h2.25v.7h-2.16c-.29,0-.52.07-.69.2-.17.13-.25.31-.25.54,0,.12.02.22.07.32.05.1.11.18.2.26.09.07.19.13.32.16.12.04.26.06.4.06h2.11v.7h-2.16c-.14,0-.27.02-.38.06-.12.04-.22.09-.3.15-.08.06-.14.14-.19.23-.04.09-.07.2-.07.31s.02.22.07.32c.05.1.12.18.21.25.09.07.2.12.32.17.12.04.26.06.41.06h2.09v.7h-3.64v-.68Z"/><path d="M10.13,222.75h.67c-.24-.11-.42-.26-.54-.45-.12-.18-.18-.4-.18-.63,0-.26.07-.48.2-.67.14-.19.33-.32.59-.41-.26-.11-.45-.27-.59-.46-.14-.2-.2-.43-.2-.7,0-.38.12-.67.37-.88.25-.21.61-.31,1.07-.31h2.25v.7h-2.16c-.29,0-.52.07-.69.2-.17.13-.25.31-.25.54,0,.12.02.22.07.32.05.1.11.18.2.26.09.07.19.13.32.16.12.04.26.06.4.06h2.11v.7h-2.16c-.14,0-.27.02-.38.06-.12.04-.22.09-.3.15-.08.06-.14.14-.19.23-.04.09-.07.2-.07.31s.02.22.07.32c.05.1.12.18.21.25.09.07.2.12.32.17.12.04.26.06.41.06h2.09v.7h-3.64v-.68Z"/></g><path d="M157.63,189.1s.01.04.02.07v1.36s-.01.03-.01.04-.01.03-.01.04l-.03.03s-.03.02-.04.03l-3.41,1.48h-.02s-.01,0-.02,0h-.04s-.01,0-.02,0h-.02l-3.41-1.48s-.02-.01-.03-.02c-.01-.01-.02-.02-.02-.03-.01-.01-.02-.02-.03-.04v-1.41s0-.04.01-.05c0-.02.01-.03.02-.05.01-.01.03-.03.05-.04.02,0,.04-.01.06-.01s.04,0,.05.01c.02,0,.03,0,.05.02.01.02.03.03.04.05,0,.02.01.04.01.07v1.27l3.11,1.35v-2.54s0-.03,0-.05c.01-.01.02-.03.03-.04,0-.02.03-.03.05-.04s.04-.01.06-.01.04,0,.05.01c.02,0,.03.01.04.02.02.01.03.03.04.05.01.02.01.04.02.06v2.54l3.11-1.35v-1.27s.01-.04.01-.05c.01-.02.01-.03.03-.05.01-.01.03-.03.05-.04,0,0,.04-.01.06-.01s.03,0,.05.01c.01,0,.03,0,.04.02.02.02.03.03.04.05Z"/><path d="M168.32,187.79s.02.03.02.05c.01.02.01.04,0,.06,0,.02-.01.04-.02.06l-2.74,3.91s-.02.03-.04.04c-.02.01-.04.02-.06.02,0,0,0,.01-.01.01h0s-.03-.01-.04-.01c-.02,0-.03-.01-.05-.02l-5.5-3.91s-.03-.03-.04-.04c-.01-.02-.01-.05-.02-.07,0-.02,0-.04.01-.06,0-.02.02-.04.03-.06l.49-.47s.03-.02.04-.03c.02,0,.04-.01.05-.01.02,0,.05,0,.06.01.02.01.04.02.06.03.01.02.02.03.03.05,0,.01.01.03.01.05s0,.04-.01.06c-.01.02-.02.04-.03.05l-.36.35,5.23,3.72,2.66-3.79s.02-.02.04-.03c.01-.01.03-.02.04-.02.02-.01.04-.01.06-.01.03.01.04.02.06.03s.03.02.04.03Z"/><path d="M161.69,186.75s-.02.04-.03.06c0,.02,0,.03,0,.05,0,.02,0,.03.01.05,0,.01.02.03.03.04.01.01.02.02.04.03.02.01.04.01.07.02.01,0,.02,0,.04,0,0,0,.02,0,.03-.01l2.61-1.3s.04-.02.05-.04c.01-.02.02-.04.03-.06,0-.02,0-.03,0-.05,0-.02,0-.03-.01-.05-.01-.02-.02-.04-.04-.05-.02-.01-.04-.02-.06-.03-.02,0-.03,0-.05,0-.02,0-.03,0-.05.01l-2.61,1.3s-.04.02-.05.04Z"/><path d="M163.65,187.93s-.01.04-.01.06c0,.02,0,.03,0,.05,0,.02.02.03.03.04,0,0,.02.02.03.03,0,0,.02.01.03.02.02,0,.04,0,.05.01.02,0,.04,0,.05-.01.01,0,.03-.01.04-.02l2.19-1.8s.03-.03.04-.05c0-.02.01-.04.01-.06,0-.02,0-.03,0-.05,0-.02-.02-.03-.03-.04-.02-.02-.03-.03-.05-.04-.02,0-.04-.01-.06-.01-.02,0-.03,0-.05,0-.02,0-.03.02-.05.03l-2.19,1.8s-.03.03-.04.05Z"/><path d="M162.75,187.24s-.02.04-.02.06c0,.02,0,.03,0,.05,0,.02.01.03.02.05,0,.01.02.02.03.03.01,0,.02.02.03.02.02,0,.04.01.06.01.02,0,.03,0,.04,0,.01,0,.02,0,.03-.02l2.24-1.4s.03-.03.05-.05c.01-.02.02-.04.02-.06,0-.02,0-.03,0-.05,0-.02-.01-.03-.02-.05-.01-.02-.03-.03-.05-.05-.02-.01-.04-.02-.06-.02-.02,0-.03,0-.05,0-.02,0-.03.01-.05.02l-2.24,1.4s-.03.03-.05.05Z"/><path d="M106.72,190.59v2.47s-.03.1-.05.14c-.02.05-.05.09-.09.13-.04.04-.09.08-.14.11-.11.07-.23.12-.36.15-.16.04-.31.05-.47.06-.06,0-.12,0-.18-.01-.07,0-.15-.02-.22-.03-.02-.01-.04-.01-.06-.02-.02-.01-.03-.03-.04-.04-.02-.03-.03-.05-.04-.07v-.08s.01-.04.02-.06c.01-.02.03-.04.04-.05.03-.02.05-.03.07-.03.03-.01.06-.01.08,0,.05,0,.1.01.14.02.06,0,.13,0,.19,0,.1,0,.21,0,.31-.03.08-.02.16-.04.24-.07.05-.03.1-.05.15-.09,0,0,.01-.02.02-.03.01,0,.01-.01.02-.02,0,0,0-.01.01-.02v-.04s-.01-.01-.01-.02c-.01,0-.01,0-.02-.02s-.02-.01-.02-.02c-.05-.04-.1-.07-.15-.09-.08-.03-.16-.06-.24-.07-.1-.02-.21-.03-.31-.03-.07,0-.14.01-.21.02-.07.02-.13.04-.19.08-.08.04-.15.08-.22.14-.08.05-.15.11-.23.17-.13.11-.26.21-.4.3-.1.06-.2.11-.31.14-.12.04-.24.05-.36.06-.13-.01-.25-.01-.38-.04-.11-.02-.21-.05-.31-.09-.08-.04-.15-.08-.21-.13-.06-.04-.11-.09-.14-.15-.03-.06-.05-.12-.07-.18v-2.47s0-.04.01-.06c.01-.02.02-.04.03-.05.02-.02.04-.04.06-.05.03-.01.05-.02.08-.02.02,0,.04.01.06.01.02.01.04.02.05.03.02.02.04.04.05.06,0,.03.02.06.02.08v2.44s0,.02,0,.02c.01.01.01.02.02.02.01.01.01.02.02.03.04.04.1.06.15.09.08.03.16.05.24.07.1.02.2.02.31.03.07,0,.14,0,.21-.03.06-.01.13-.04.19-.07.08-.04.15-.09.22-.14.08-.06.15-.12.22-.18.14-.1.27-.21.41-.3.1-.06.2-.11.31-.14.11-.03.24-.04.36-.05.12,0,.25,0,.37.03.13.03.25.08.38.13v-1.95s0-.04.01-.06c.01-.02.02-.04.03-.05.02-.02.04-.04.06-.05.03-.01.05-.02.08-.02.02,0,.04.01.06.01.02.01.04.02.05.03.03.02.04.04.05.06.01.03.02.06.02.08Z"/><path d="M106.66,188.8s-.09.09-.14.14c.07.08.15.15.2.24.04.06.06.12.08.19s.02.14.03.21c-.01.09-.02.19-.05.28-.03.09-.08.17-.14.24-.08.09-.17.17-.28.22-.11.04-.23.06-.35.08-.02-.01-.04-.01-.06-.01-.02-.01-.04-.02-.06-.04-.02,0-.03-.03-.04-.06-.02-.02-.02-.05-.02-.07,0-.03,0-.05.01-.07,0-.02.02-.03.03-.05.02-.02.04-.04.06-.05.02-.01.05-.01.08-.02.05,0,.11-.01.16-.02.04-.02.09-.05.13-.08.05-.04.09-.1.12-.15.03-.07.04-.13.04-.2,0-.06-.01-.11-.02-.16-.02-.05-.05-.09-.08-.13-.04-.05-.1-.1-.15-.12-.07-.03-.13-.04-.2-.05h-1.13s-.04,0-.06-.01-.04-.02-.06-.03c-.02-.02-.03-.04-.04-.06-.02-.03-.02-.05-.02-.08,0-.02,0-.04.01-.06,0-.02.02-.04.03-.06.02-.02.04-.03.06-.04.02-.01.05-.02.08-.02h1.13c.05-.01.11-.01.16-.03.04-.02.09-.04.13-.08.05-.04.09-.09.12-.15.03-.06.04-.13.04-.2,0-.05-.01-.11-.02-.16-.02-.04-.05-.09-.08-.13-.04-.05-.1-.09-.15-.12-.07-.03-.13-.04-.2-.04-.02,0-.04,0-.06-.02-.02,0-.04-.01-.06-.03-.02-.01-.03-.03-.04-.06-.02-.02-.02-.05-.02-.08,0-.02,0-.04.01-.06,0-.02.02-.04.03-.05.02-.02.04-.04.06-.05.02-.01.05-.01.08-.02.05,0,.11-.01.16-.02.04-.02.09-.05.13-.08.05-.04.09-.1.12-.16.03-.06.04-.13.04-.19,0-.07,0-.14-.02-.21-.01-.1-.05-.2-.09-.3-.05-.12-.1-.22-.17-.33-.08-.14-.17-.27-.28-.39-.13-.15-.27-.29-.41-.43-.02-.02-.03-.04-.04-.06,0-.02-.02-.05-.02-.08v-.64s0-.04.01-.06l.03-.06s.04-.03.06-.04c.03-.02.05-.02.08-.02.02,0,.04,0,.06.01s.04.02.05.03c.02.02.04.04.05.06s.02.05.02.08v.57c.12.11.24.23.35.36.09.11.18.22.26.34.07.1.13.2.19.31.06.11.11.23.15.35.03.09.05.19.07.29.01.07.01.14.02.22-.02.11-.03.22-.07.32-.02.06-.06.12-.1.17-.04.05-.09.1-.14.14.07.08.15.15.2.24.04.06.06.13.08.19.02.07.02.14.03.21-.02.11-.03.22-.07.32-.02.06-.06.12-.1.18Z"/><path d="M104.55,187.66s-.01.05-.01.07c-.01.02-.02.03-.03.05-.02.02-.04.04-.06.05-.03.01-.05.01-.08.02h-1.08c-.05,0-.11.01-.16.02-.05.02-.09.05-.13.08-.05.04-.1.1-.12.16-.03.06-.04.12-.05.19.01.06.01.11.03.16.02.05.05.09.08.13.04.06.09.1.15.12.06.03.13.04.2.05.02,0,.04,0,.06.01s.04.02.06.03c.02.02.03.04.04.06.01.03.02.05.02.08,0,.02,0,.04,0,.06-.01.02-.02.04-.03.06-.02.02-.04.03-.06.04-.03.01-.05.02-.08.02-.05.01-.11.01-.16.03-.05.02-.09.04-.13.08-.05.04-.1.09-.12.15-.03.06-.04.13-.05.2.01.05.01.11.03.16.02.04.05.09.08.13.04.05.09.09.15.12.06.03.13.04.2.04h.6s.04,0,.06.02c.02,0,.04.01.05.03.02.01.04.03.05.06.01.02.02.05.02.08,0,.02-.01.04-.01.06-.01.02-.02.04-.03.05-.02.02-.04.04-.06.05-.03.01-.05.01-.08.02h-.6c-.1-.01-.19-.02-.28-.05-.09-.03-.17-.08-.24-.14-.09-.08-.17-.17-.22-.28s-.06-.23-.08-.35c.01-.11.03-.22.07-.32.02-.06.06-.12.1-.18.04-.05.09-.09.14-.14-.08-.07-.15-.15-.2-.24-.04-.06-.07-.12-.08-.19-.02-.07-.02-.14-.03-.21.01-.11.03-.22.07-.32.02-.06.06-.12.1-.17.04-.05.09-.1.14-.15-.08-.07-.15-.15-.2-.24-.04-.05-.07-.12-.08-.18-.02-.07-.02-.14-.03-.21.01-.09.01-.18.03-.27.02-.12.06-.24.1-.36.06-.13.12-.25.19-.37.08-.14.18-.28.29-.41.13-.17.28-.31.43-.46v-.57s0-.04.01-.06l.03-.06s.04-.03.06-.04c.03-.02.05-.02.08-.02.02,0,.04,0,.06.01.02.01.04.02.05.03.02.02.04.04.05.06s.02.05.02.08v.64s0,.05-.01.07c-.01.02-.03.04-.05.07-.11.11-.23.22-.34.34-.09.1-.17.21-.25.32-.06.09-.12.19-.18.28-.05.1-.09.21-.13.31-.03.08-.05.16-.06.24-.01.06-.01.11-.02.17.01.05.01.1.03.15s.05.1.08.14c.04.05.09.09.15.12.06.03.13.03.2.04h1.08s.04.01.06.01c.02.01.04.02.05.04.02,0,.04.03.05.06.01.02.02.05.02.07Z"/><path d="M105.81,182.92c-.04-.08-.1-.15-.16-.2-.06-.05-.11-.08-.18-.11-.06-.02-.14-.03-.21-.03h-1.23c-.09.01-.17.02-.25.06-.08.03-.15.09-.21.15-.04.06-.08.12-.1.18-.02.07-.03.14-.04.21v.82s.01.06.02.08c.01.02.03.05.05.06.01.02.03.03.05.03.02.01.04.01.06.01h2.07s.06,0,.08-.01c.03-.01.05-.03.06-.05.02-.02.03-.04.03-.05.01-.02.01-.05.01-.07v-.82c-.01-.09-.02-.18-.05-.26ZM105.5,183.82h-1.71v-.64s.01-.07.03-.11c.01-.03.03-.05.06-.08.02-.01.05-.03.07-.04.03-.01.06-.01.08-.01h1.23s.08.01.11.02c.03.02.06.04.08.06.02.03.03.05.04.08.01.02.01.05.01.08v.64Z"/><path d="M117.25,185.08c0,.12,0,.24-.01.36,0,.11-.02.22-.04.33,0,.08-.02.16-.04.24,0,.02-.01.04-.02.06l-.04.04s-.05.03-.07.04h-.08s-.04-.01-.06-.02-.03-.03-.05-.04c-.01-.02-.02-.05-.03-.07-.01-.03,0-.06,0-.08l.06-.39c.01-.11.02-.22.02-.32,0-.08-.01-.17-.01-.25-.01-.08-.02-.17-.05-.24-.01-.03-.02-.05-.03-.06,0-.01-.01-.01-.01-.02-.01,0-.01,0-.01,0t-.02-.01h-.01s-.02,0-.02.01c-.01,0-.02,0-.03,0-.03.01-.05.03-.08.06-.04.04-.07.07-.11.12-.04.05-.08.11-.12.16-.06.1-.12.21-.18.31-.06.13-.12.27-.18.41-.06.16-.11.33-.16.5-.06.2-.11.41-.15.62-.02.12-.04.24-.05.36-.01.11-.01.22-.01.33,0,.07.01.15.02.22,0,.05.01.09.03.14,0,.03.02.07.04.1,0,.01.01.02.02.02h0s.01.02.01.02h.03s.04-.02.06-.04c.06-.04.11-.09.15-.14.08-.09.14-.18.2-.28.08-.14.15-.28.22-.43,0-.02.02-.04.03-.05.01-.02.03-.03.05-.04s.05-.02.08-.02c.02,0,.05,0,.07.02l.06.03s.02.03.03.05.02.05.02.08c0,.02-.01.05-.01.07-.05.11-.1.22-.16.32-.06.13-.14.25-.22.37-.06.07-.12.15-.18.21-.06.06-.13.11-.2.15-.07.04-.14.06-.22.06h-.05s-.04-.01-.06-.01c-.02-.01-.05-.02-.07-.04-.03-.01-.06-.03-.08-.05-.03-.02-.05-.05-.07-.08-.03-.05-.06-.1-.08-.16-.03-.07-.04-.14-.06-.21-.01-.1-.02-.2-.02-.3.01-.2.01-.39.04-.58.03-.29.11-.56.18-.84.05-.17.1-.33.16-.49.06-.15.13-.31.2-.46.07-.13.14-.26.22-.39.06-.08.12-.16.19-.23.05-.07.11-.12.19-.17.06-.04.12-.08.19-.09.06,0,.13,0,.19.01.07.03.13.06.18.1.05.05.09.11.11.18.04.08.06.15.07.23.02.09.02.18.03.27Z"/><path d="M118.59,184.86c-.01-.06-.03-.12-.06-.17-.03-.06-.06-.11-.09-.16-.03-.03-.05-.06-.07-.09-.02-.03-.04-.05-.06-.08-.01-.03-.02-.06-.03-.09v-.09s.01-.1.01-.14c.01-.1.01-.2-.01-.29-.02-.08-.06-.16-.12-.23-.05-.06-.11-.1-.17-.14-.07-.05-.15-.08-.23-.11h0v-.02c-.03-.07-.05-.13-.09-.19-.01-.03-.03-.06-.06-.08-.02-.02-.05-.04-.08-.06-.03-.01-.06-.02-.09-.02-.03-.01-.07-.01-.1,0-.05,0-.11.03-.16.05-.03.01-.06.02-.09.02-.03.01-.06.01-.1.01h-.17c-.08,0-.15-.01-.23,0-.08,0-.16.01-.23.04-.04.01-.07.03-.11.05-.03.02-.06.05-.09.08-.03.03-.06.07-.07.11-.03.05-.04.11-.05.16-.01.01-.01.03-.01.04-.01,0-.01.02-.02.03,0,.01,0,.02-.01.03-.01,0-.01.01-.02.01-.01,0-.03,0-.04.02-.03,0-.05,0-.07.01-.05,0-.09.01-.14.02-.05.02-.11.05-.15.09-.03.02-.05.05-.07.08-.02.04-.03.08-.04.12,0,.05,0,.11-.02.16v.07s0,.04-.02.06c0,.01-.02.02-.03.03-.03.04-.08.06-.12.09-.05.02-.1.05-.14.08-.05.04-.1.09-.14.14-.03.05-.06.11-.08.16-.02.08-.02.16-.03.23,0,.05,0,.09-.01.14-.01.03-.02.06-.04.09-.03.05-.07.09-.11.13-.04.05-.09.1-.12.15-.05.06-.08.12-.1.19-.03.07-.04.14-.05.22,0,.09,0,.19,0,.29.01.08.02.17.01.25-.01.07-.03.15-.05.21-.04.09-.08.18-.13.26-.02.05-.05.09-.07.14-.02.05-.04.1-.05.16v.08s.02.06.03.08c0,.03.03.06.05.09.03.03.06.05.09.07.02.02.04.04.06.06.01.02.02.05.02.08.01.05.01.11,0,.17,0,.05-.02.11-.04.16-.01.01-.01.02-.02.04h0s-.02.06-.02.09c0,.02.01.05.02.07.01.02.02.04.04.05.01.02.03.03.05.04s.05.02.08.02c.02,0,.05,0,.07-.02s.04-.02.05-.04c.02,0,.03-.03.04-.05.03-.08.06-.16.08-.25.02-.1.03-.2.02-.3-.01-.08-.03-.16-.07-.23-.04-.07-.11-.13-.17-.18h-.01s0-.01-.01-.01c.02-.03.03-.05.04-.08.01-.02.02-.04.04-.06.03-.06.06-.13.1-.19.03-.08.06-.16.08-.24s.04-.16.04-.24c.01-.09,0-.19-.01-.28,0-.05-.01-.11-.01-.16,0-.04,0-.08.01-.13.01-.03.02-.06.03-.09.03-.06.08-.11.13-.17.04-.03.07-.07.1-.11.04-.05.07-.1.1-.15.02-.05.03-.1.05-.15.01-.07.01-.13.01-.2.01-.03.01-.06.01-.09.01-.02.01-.05.02-.07.01-.01.02-.03.04-.05.03-.04.08-.06.13-.09.05-.02.09-.05.13-.08.05-.03.1-.08.13-.12.04-.05.06-.1.08-.15.02-.07.02-.14.02-.21.01-.02.01-.04.01-.06,0,0,0-.02.01-.03h0s0-.01.01-.01h.01s.01-.01.02-.01c.02,0,.03,0,.05-.01.04,0,.09,0,.14-.02.05-.02.11-.04.15-.08.03-.02.05-.05.08-.07.02-.04.04-.07.06-.11s.03-.09.04-.14c0-.02.01-.03.01-.05.01-.01.01-.02.02-.04,0-.01.02-.02.03-.02.01-.01.02-.02.04-.02.03-.02.07-.02.12-.02h.19c.1,0,.2,0,.3,0,.08-.01.15-.04.23-.06.01-.01.02-.01.03-.02h.02s.01.03.02.05c0,.01,0,.03.01.04.01.05.03.1.05.14,0,.02.03.03.04.05.02.01.03.02.05.03.01.01.03.01.04.02.01,0,.02,0,.04,0,.05.02.1.04.15.07.05.03.08.05.11.09.01.02.02.04.03.06,0,.03.02.05.02.08s0,.06-.01.09c0,.09,0,.18,0,.27,0,.06,0,.13.03.18.03.08.08.15.13.22.03.03.05.06.07.1.03.03.04.06.06.1,0,.03.03.06.03.09s0,.07-.02.1c-.02.07-.05.14-.08.21-.05.11-.09.22-.12.33-.02.11-.02.21-.03.32v.03c.02.09.03.19.03.29,0,.06-.01.12-.03.18-.02.05-.04.09-.07.13-.04.05-.09.1-.13.15-.06.07-.11.13-.15.21-.03.08-.05.16-.06.25-.02.13-.02.26-.02.39,0,.06,0,.12-.01.18,0,.03-.01.07-.01.1-.06.04-.11.08-.16.12-.06.06-.12.13-.17.2-.11.14-.21.28-.31.42-.03.05-.07.09-.1.14-.02.02-.04.04-.05.07-.04.02-.07.05-.1.07-.08.06-.16.09-.25.12-.11.04-.21.06-.32.08-.14.02-.29.02-.44.01,0,0-.01,0-.02.01h-.02c-.08-.09-.16-.18-.25-.25-.11-.09-.24-.16-.36-.22-.15-.07-.3-.13-.45-.18-.17-.05-.35-.1-.52-.14-.3-.06-.6-.11-.9-.14-.32-.03-.64-.04-.96-.05-.29.01-.58.01-.87.04-.28.02-.56.06-.83.12-.25.05-.5.11-.75.2-.15.05-.31.12-.46.2-.13.06-.25.14-.36.24-.1.08-.18.17-.23.28-.05.1-.07.21-.09.32v2.45c.02.11.04.22.09.32.05.11.13.2.23.28.11.1.23.17.36.24.15.08.31.14.46.2.25.08.5.15.75.2.27.05.55.1.83.12.29.02.58.03.87.04.29-.01.58-.02.87-.04.28-.02.56-.07.84-.12.25-.05.5-.12.74-.2.16-.06.32-.12.47-.2.12-.07.25-.14.36-.24.09-.08.18-.17.23-.28.05-.1.07-.21.08-.32v-2.51h.03c.13-.01.26-.01.4-.03.1-.02.21-.04.31-.08.08-.02.16-.06.24-.1.06-.03.12-.07.18-.11.03-.02.06-.05.09-.08.03-.03.06-.07.09-.1.03-.05.07-.1.1-.15.05-.07.09-.13.14-.19.05-.07.11-.15.16-.22.05-.05.09-.11.14-.16.01-.01.03-.02.04-.04,0,0,.03,0,.04-.02.05-.03.1-.07.13-.11.03-.05.05-.11.06-.17.02-.1.02-.21.02-.32,0-.12,0-.25.02-.37,0-.05.02-.09.04-.13,0-.03.04-.07.06-.1.06-.06.12-.12.17-.19.04-.06.08-.12.11-.18.02-.05.04-.11.05-.17.01-.07.01-.15.01-.22-.01-.09-.02-.18-.02-.27v-.03c0-.09.01-.18.03-.27.02-.07.05-.14.08-.21.03-.06.06-.12.08-.18.02-.07.04-.13.05-.2,0-.05,0-.11-.01-.16ZM115.39,191.93s-.01.08-.02.12c-.02.05-.05.09-.08.13-.04.04-.09.08-.13.12-.09.07-.19.12-.29.17-.12.07-.25.12-.38.16-.21.08-.43.13-.64.18-.26.05-.52.09-.79.12-.3.02-.6.03-.9.04-.3,0-.6-.02-.9-.04-.26-.03-.52-.07-.78-.12-.22-.05-.43-.1-.65-.18-.13-.04-.25-.09-.38-.16-.1-.05-.19-.1-.28-.17-.05-.04-.09-.08-.13-.12-.03-.04-.06-.08-.08-.13-.01-.04-.02-.08-.03-.12v-1.81c.14.09.28.18.42.26.17.08.35.15.54.2.2.06.41.11.62.15.27.06.54.09.81.12.28.02.56.03.84.04l.72-.03c.23-.02.46-.05.69-.08.22-.04.44-.08.65-.14.16-.04.31-.09.46-.14.14-.05.27-.1.4-.17.11-.06.21-.14.31-.21v1.81ZM115.39,189.53s-.03.1-.06.14c-.03.05-.07.1-.12.14-.06.05-.12.09-.18.13-.1.06-.21.12-.32.16-.12.06-.26.1-.39.14-.16.05-.32.09-.47.12-.18.04-.37.07-.55.09-.2.03-.4.05-.6.06-.19.01-.39.01-.58.01h-.24c-.07,0-.15-.01-.22-.01-.23-.01-.45-.03-.68-.06-.2-.03-.39-.07-.59-.11.08-.02.17-.03.26-.05.09-.02.18-.03.27-.04.09-.02.18-.03.28-.04.09-.01.19-.02.29-.03.1,0,.2-.01.29-.01.11-.01.21-.01.31-.01h.15c.2,0,.4.01.6.02.02,0,.05,0,.08-.01.02-.01.04-.02.06-.04,0-.02.03-.03.03-.05.01-.02.02-.04.02-.06,0-.03,0-.06-.01-.08-.01-.03-.03-.05-.04-.07-.02-.01-.04-.02-.06-.03-.01-.01-.04-.01-.06-.02-.14,0-.29-.01-.43-.02h-.59c-.25.01-.5.03-.75.06-.23.03-.47.06-.7.11-.21.05-.41.11-.62.17,0,0-.01,0-.02.01h-.01c-.12-.04-.23-.09-.34-.15-.09-.05-.18-.1-.25-.17-.03-.02-.06-.04-.08-.07-.02-.02-.04-.04-.06-.07-.01-.02-.03-.04-.04-.07,0-.02-.02-.04-.03-.07,0-.02-.01-.04-.01-.07,0-.04.01-.08.03-.12.02-.05.05-.09.08-.13.04-.04.08-.08.13-.12.09-.07.18-.12.28-.17.13-.07.25-.12.38-.16.22-.08.43-.13.65-.18.26-.05.52-.09.78-.12.3-.02.6-.03.9-.04.26.01.51.01.77.03.23.02.45.05.68.09.2.03.4.07.59.13.19.05.38.11.56.19.14.07.28.14.4.23.04.03.07.07.11.1.03.04.05.07.08.11.01.03.03.07.04.1v.11Z"/><path d="M110.17,191.13s-.04-.02-.06-.03c-.14-.04-.29-.09-.42-.14-.09-.04-.19-.08-.28-.13-.03,0-.05-.02-.08-.02-.03,0-.05,0-.08.01-.02,0-.04.02-.05.03-.02.01-.03.03-.04.05,0,.03-.02.05-.02.08,0,.03,0,.05.01.08,0,.02.02.04.03.05.01.02.03.03.05.04.13.06.27.13.4.18.12.05.25.08.37.12,0,0,.02,0,.02,0,0,0,0,0,.01,0,0,0,0,0,.01,0,.02,0,.04,0,.06,0,.03,0,.05-.02.07-.05.02-.02.03-.05.04-.08,0-.03,0-.05,0-.08,0-.03-.01-.05-.03-.07-.01-.02-.03-.03-.04-.04Z"/><path d="M115.01,190.78c-.14.07-.28.15-.43.2-.17.07-.36.12-.54.16-.21.05-.41.09-.62.12-.11.02-.21.03-.32.04-.11.01-.22.02-.33.03-.11,0-.23.01-.34.02-.1,0-.19,0-.29,0-.03,0-.07,0-.1,0-.29,0-.57-.03-.85-.05-.03,0-.05,0-.08,0-.02,0-.05.02-.07.04-.01.01-.03.03-.04.05,0,.02-.01.04-.02.06,0,.03,0,.05,0,.08,0,.02.02.05.04.07.01.02.03.03.05.04.02,0,.04.01.06.02.21.02.42.04.63.05.03,0,.07,0,.1,0,.03,0,.07,0,.1,0,.03,0,.07,0,.1,0,.05,0,.11,0,.16,0,.12,0,.24,0,.37,0,.26-.01.52-.03.78-.07.24-.03.47-.08.71-.13.21-.05.41-.11.61-.19.17-.07.33-.15.49-.24.02-.02.04-.03.06-.06.01-.02.02-.05.03-.07,0-.02,0-.04,0-.06,0-.02-.01-.04-.02-.06-.02-.02-.03-.04-.06-.06-.02-.01-.05-.02-.07-.03-.02,0-.04,0-.06,0-.02,0-.04.01-.06.02Z"/><path d="M158.86,186.79s-.02-.02-.03-.03-.02-.02-.04-.02l-3.34-1.49s-.03-.01-.04-.01h-.04l-1.21.13-1-1.25s-.03-.02-.04-.03c-.02-.01-.03-.02-.05-.02h-.04s-.03,0-.05.01l-3.34,1.49s-.04.02-.06.04c-.01.02-.02.04-.02.06-.01.01-.01.02-.01.03,0,.02,0,.03.01.04,0,.02.01.03.02.05l.97,1.21-.97,1.21s-.01.02-.02.03c0,.01,0,.03-.01.04,0,.02,0,.04.01.06,0,0,0,.02.01.03,0,.01.01.02.02.03.01.02.03.03.05.04l3.34,1.51s.03,0,.04.01h.02s.05-.01.07-.02.03-.02.05-.04l.93-1.17.93,1.17s.02.02.03.03.02.01.03.02c.02,0,.04.01.06.01.01,0,.02,0,.03-.01h.03l3.34-1.51s.05-.03.06-.05c.01-.01.02-.03.03-.05,0-.03,0-.05-.01-.08,0-.02-.01-.03-.02-.05l-.88-1.09,1.03-.1s.04-.01.05-.02c.02-.01.03-.02.04-.03.01,0,.02-.02.03-.03,0-.02.01-.03.01-.04v-.06s-.01-.03-.02-.05ZM149.93,185.76l3.07-1.37.86,1.08-3.07,1.35-.86-1.06ZM153,189.63l-3.07-1.38.86-1.07,3.07,1.37-.86,1.08ZM151.1,187l2.84-1.25v2.21s0,.05.02.07c0,0,.02.03.04.05.01.01.02.01.04.02.02.01.03.01.05.01s.04-.01.06-.02c.02,0,.04-.02.05-.03.01-.02.02-.03.03-.05,0-.01,0-.03,0-.05v-2.21l2.84,1.25-2.99,1.34-2.99-1.34ZM158.25,188.25l-3.07,1.38-.86-1.08,3.08-1.37.85,1.07ZM157.46,186.85l-2.81-1.24.72-.07,2.8,1.24-.71.07Z"/><path d="M157.65,189.17v1.36s-.01.03-.01.04-.01.03-.01.04l-.03.03s-.03.02-.04.03l-3.41,1.48h-.02s-.01,0-.02,0h-.04s-.01,0-.02,0h-.02l-3.41-1.48s-.02-.01-.03-.02c-.01-.01-.02-.02-.02-.03-.01-.01-.02-.02-.03-.04v-1.41s0-.04.01-.05c0-.02.01-.03.02-.05.01-.01.03-.03.05-.04.02,0,.04-.01.06-.01s.04,0,.05.01c.02,0,.03,0,.05.02.01.02.03.03.04.05,0,.02.01.04.01.07v1.27l3.11,1.35v-2.54s0-.03,0-.05c.01-.01.02-.03.03-.04,0-.02.03-.03.05-.04s.04-.01.06-.01.04,0,.05.01c.02,0,.03.01.04.02.02.01.03.03.04.05.01.02.01.04.02.06v2.54l3.11-1.35v-1.27s.01-.04.01-.05c.01-.02.01-.03.03-.05.01-.01.03-.03.05-.04,0,0,.04-.01.06-.01s.03,0,.05.01c.01,0,.03,0,.04.02.02.02.03.03.04.05.01.02.01.04.02.07Z"/><path d="M168.34,187.84s.01.04,0,.06c0,.02-.01.04-.02.06l-2.74,3.91s-.02.03-.04.04c-.02.01-.04.02-.06.02,0,0,0,.01-.01.01h0s-.03-.01-.04-.01c-.02,0-.03-.01-.05-.02l-5.5-3.91s-.03-.03-.04-.04c-.01-.02-.01-.05-.02-.07,0-.02,0-.04.01-.06,0-.02.02-.04.03-.06l.49-.47s.03-.02.04-.03c.02,0,.04-.01.05-.01.02,0,.05,0,.06.01.02.01.04.02.06.03.01.02.02.03.03.05,0,.01.01.03.01.05s0,.04-.01.06c-.01.02-.02.04-.03.05l-.36.35,5.23,3.72,2.66-3.79s.02-.02.04-.03c.01-.01.03-.02.04-.02.02-.01.04-.01.06-.01.03.01.04.02.06.03s.03.02.04.03c.01.02.02.03.02.05Z"/><rect height="103.42" width="46.84" y="174.12" x="135.75" class="cls-1"/><polygon points="183.37 275.25 183.37 285.08 37.74 285.08 37.74 275.25 38.62 275.25 38.62 277.54 85.45 277.54 85.45 275.25 87.14 275.25 87.14 277.54 134.02 277.54 134.02 275.25 135.75 275.25 135.75 277.54 182.59 277.54 182.59 275.25 183.37 275.25" class="cls-1"/><path d="M63.01,190.76s-.11-.05-.18-.03h-.05c-.45.1-1,.19-1.56.1-.46-.07-.82-.27-1.1-.59-.21-.25-.36-.56-.47-.97-.01-.02-.01-.03-.01-.04v-.05h.1c.49,0,.89-.03,1.26-.1.37-.07.65-.16.89-.29.27-.15.43-.34.5-.57.1-.32.03-.63-.2-.95-.04-.04-.09-.06-.14-.06-.06,0-.11.05-.13.11-.08.2-.21.33-.41.4-.16.05-.32.08-.48.1-.33.04-.68,0-.97-.05-.14-.03-.28-.06-.42-.08-.06-.02-.13-.03-.19-.04h-.03v-.05s-.01-.11-.01-.16c-.01-.11-.02-.22-.03-.33-.02-.24-.04-.49-.07-.77,0-.06.01-.1.06-.14l.75-.6.17-.13c.06-.05.09-.09.09-.14s-.02-.1-.08-.15c-.16-.16-.32-.32-.48-.48l-.08-.08c-.1-.1-.16-.11-.27-.02l-.23.18c-.22.18-.45.36-.68.54-.03.03-.07.04-.12.05-.34.02-.6.11-.81.27-.17.13-.31.32-.43.57-.08.16-.14.31-.21.47-.03.07-.07.14-.1.22-.24.54-.66.89-1.23,1.03-.29.07-.6.11-.98.11-.09,0-.14.03-.17.1-.03.08.01.15.05.19.32.3.64.52,1,.68.33.15.65.2.98.16.35-.05.65-.22.91-.52.03-.03.05-.05.07-.09l.13-.15v.23c-.01.07-.02.12-.02.18-.02.69.04,1.25.21,1.75.19.57.5.98.94,1.28.41.26.89.4,1.48.42.59.02,1.15-.1,1.73-.38.37-.17.63-.36.84-.58.12-.13.19-.24.22-.37.01-.07,0-.14-.04-.18ZM59.63,188.02c.1.02.19.03.29.05.47.08.83.11,1.18.07.37-.03.63-.13.84-.3,0-.01.03-.02.04-.04l.08-.06.02.06c.03.1.04.19.01.3-.03.12-.11.23-.24.33-.21.16-.46.23-.68.28-.53.13-1.07.15-1.59.16h-.04l-.11-.89.2.04ZM59.58,184.93l.38.38-.72.58-.3-.45.64-.51ZM57.58,187.87c-.13.25-.26.44-.41.61-.23.25-.51.38-.84.38-.08,0-.16,0-.25-.02-.36-.06-.66-.25-.88-.4l-.08-.06.09-.02c.08-.02.16-.04.24-.06.17-.03.34-.07.5-.13.55-.17.97-.56,1.23-1.13.05-.1.09-.2.13-.3.06-.13.12-.26.18-.39.08-.17.2-.37.41-.5.07-.04.15-.07.22-.1h.05s.07-.02.1.01c.03.02.04.06.03.1l-.12.39c-.17.54-.33,1.1-.6,1.62ZM62.43,191.25s-.04.03-.06.04c-.41.3-.9.51-1.43.61-.2.03-.39.05-.58.05-.27,0-.54-.03-.81-.11-.66-.18-1.12-.61-1.37-1.28-.12-.33-.2-.7-.22-1.13-.03-.58,0-1.2.14-1.91.02-.09.06-.17.09-.26.02-.05.04-.1.05-.14.1-.31.19-.61.29-.91l.11-.37s.01-.03.02-.05v-.04s.09-.03.09-.03l.02.03s.03.04.04.06c.03.05.07.1.08.16v.02c.05.17.1.35.12.53.03.29.05.58.07.87.01.14.01.29.03.43.03.54.09,1.12.26,1.67.15.47.36.82.64,1.1.31.3.69.49,1.17.56.35.06.74.06,1.17-.01.02,0,.05,0,.09.01l.07.03-.08.07Z"/><path d="M68.41,188.39c.12-.73.47-1.39,1.06-1.97.13-.13.14-.18.01-.33-.21-.24-.45-.44-.73-.58-.59-.3-1.13-.26-1.64.14-.03.02-.06.03-.08.05l-.18.13v-.32c.08-.51.3-.9.67-1.18.17-.13.36-.24.53-.34h.02s.08-.06.12-.08c.06-.04.11-.07.12-.13.02-.07,0-.13-.05-.17-.06-.05-.12-.05-.2-.02-.3.16-.56.32-.77.51-.38.33-.61.68-.71,1.07-.02.1-.04.21-.06.33-.01.05-.02.11-.03.16l-.02.13-.2-.15c-.36-.27-.72-.37-1.11-.31-.49.08-.93.36-1.32.84-.05.07-.05.12.02.19.01.02.03.04.05.06.35.33.62.71.81,1.17.3.69.38,1.44.24,2.2-.13.76-.46,1.4-.97,1.91-.12.13-.12.17,0,.31.19.22.43.39.69.5.29.13.56.17.83.13.28-.03.53-.13.76-.29.14-.09.28-.14.42-.14.05,0,.1,0,.15.02.09.02.19.07.29.14.33.21.65.31.99.28.49-.03.91-.25,1.28-.65.12-.13.12-.19,0-.31-.87-.89-1.21-2-.99-3.3ZM69.03,191.91c-.25.21-.59.43-1.03.42-.23-.01-.44-.07-.65-.2l-.06-.03c-.1-.07-.2-.13-.31-.17-.28-.09-.56-.06-.81.11-.14.1-.32.22-.53.26-.1.02-.2.03-.3.03-.27,0-.53-.08-.76-.24-.06-.04-.11-.08-.16-.11l-.14-.11.06-.07c.69-.75,1.02-1.66,1.02-2.77,0-1.02-.37-1.94-1.11-2.73l-.05-.06.05-.05c.35-.32.66-.48,1-.53.22-.04.45.02.68.15.06.04.11.08.16.11.04.03.08.06.12.08.3.2.61.2.92.02.06-.03.11-.07.16-.11.04-.03.08-.05.12-.08.28-.18.58-.23.9-.13.26.07.5.21.75.41.04.03.08.07.08.13s-.03.11-.06.14c-.62.65-.97,1.44-1.04,2.35-.09,1.12.22,2.11.91,2.96.02.02.04.04.05.07l.09.1-.06.05Z"/><path d="M159.56,186.24s.01-.02.02-.03c.01-.01.03-.02.04-.02l4.11-1.89s.03-.01.05-.01.04.01.07.01l4.85,2.24s.03.02.05.04c.01.01.01.02.02.03,0,.01.01.03.01.04v.06s-.01.02-.01.03c-.01.02-.02.03-.02.04l-3.27,3.52s-.02.02-.04.03-.04.01-.06.02c-.02,0-.03,0-.04,0-.02,0-.03-.01-.05-.02l-5.69-3.88s-.04-.03-.05-.05c0-.01-.01-.03-.01-.04-.01,0-.01-.03-.01-.04.01-.03.01-.05.03-.07Z" class="cls-3"/><rect height="5.25" width="1.82" y="269.93" x="238.74" class="cls-1"/></g></g></svg>