<svg viewBox="0 0 531.27 288" xmlns:xlink="http://www.w3.org/1999/xlink" xmlns="http://www.w3.org/2000/svg" id="Camada_2"><defs><style>.cls-1,.cls-2,.cls-3,.cls-4{fill:none;}.cls-2{stroke:#12100b;stroke-miterlimit:10;stroke-width:.45px;}.cls-5,.cls-6{fill:#12100c;}.cls-3,.cls-4{stroke:#12100c;stroke-linecap:round;stroke-linejoin:round;stroke-width:.3px;}.cls-6,.cls-4{fill-rule:evenodd;}</style><symbol viewBox="0 0 531.27 288" id="fundo_transparente"><rect height="288" width="531.27" x="0" class="cls-1"/></symbol></defs><g id="Nature"><g id="Centros_Cyclin_Portugal"><g id="painel_de_homologação_1200_x_1200"><use xlink:href="#fundo_transparente" height="288" width="531.27"/><g id="LINE"><line y2="39.1" x2="13.78" y1="37.71" x1="13.78" class="cls-3"/><rect height=".3" width="1.95" y="37.56" x="12.8" class="cls-5"/><rect height=".3" width="1.95" y="38.95" x="12.8" class="cls-5"/></g><path d="M8.9,46.36c-.12.24-.29.44-.51.61-.22.17-.5.3-.82.39s-.69.14-1.09.14-.8-.05-1.15-.15c-.35-.1-.64-.24-.89-.43-.25-.18-.43-.41-.56-.67-.13-.26-.2-.55-.2-.88,0-.37.09-.7.27-.97.18-.27.43-.47.76-.59l.29.64c-.21.07-.37.18-.48.34-.11.16-.17.35-.17.56,0,.2.05.38.14.55s.23.31.4.44c.17.13.37.22.61.29s.49.1.77.1h.17c.06,0,.1,0,.15,0-.25-.08-.45-.23-.59-.45-.14-.22-.21-.48-.21-.79,0-.24.04-.46.12-.65.08-.2.19-.36.34-.5.15-.14.32-.25.52-.33.2-.08.42-.12.66-.12s.47.04.68.13c.21.08.38.2.53.35.14.15.26.32.34.53s.12.43.12.68c0,.3-.06.57-.18.81ZM8.33,45.19c-.05-.12-.12-.22-.21-.3-.09-.08-.19-.15-.31-.2-.12-.05-.26-.07-.41-.07s-.29.02-.41.07c-.12.05-.23.12-.32.2s-.16.19-.21.31-.07.25-.07.4.02.27.07.39.12.22.2.31c.09.09.19.15.31.2.12.05.25.07.4.07s.28-.03.41-.08.24-.12.34-.21.17-.2.22-.32c.05-.12.08-.26.08-.4s-.03-.26-.08-.38Z"/><path d="M5.38,40.2h.67c-.24-.11-.42-.26-.54-.45-.12-.18-.18-.4-.18-.63,0-.26.07-.48.2-.67.14-.19.33-.32.59-.41-.26-.11-.45-.27-.59-.46-.14-.2-.2-.43-.2-.7,0-.38.12-.67.37-.88.25-.21.61-.31,1.07-.31h2.25v.7h-2.16c-.29,0-.52.07-.69.2-.17.13-.25.31-.25.54,0,.12.02.22.07.32.05.1.11.18.2.26.09.07.19.13.32.16.12.04.26.06.4.06h2.11v.7h-2.16c-.14,0-.27.02-.38.06-.12.04-.22.09-.3.15-.08.06-.14.14-.19.23-.04.09-.07.2-.07.31s.02.22.07.32c.05.1.12.18.21.25.09.07.2.12.32.17.12.04.26.06.41.06h2.09v.7h-3.64v-.68Z"/><path d="M5.38,34.01h.67c-.24-.11-.42-.26-.54-.45-.12-.18-.18-.4-.18-.63,0-.26.07-.48.2-.67.14-.19.33-.32.59-.41-.26-.11-.45-.27-.59-.46-.14-.2-.2-.43-.2-.7,0-.38.12-.67.37-.88.25-.21.61-.31,1.07-.31h2.25v.7h-2.16c-.29,0-.52.07-.69.2-.17.13-.25.31-.25.54,0,.12.02.22.07.32.05.1.11.18.2.26.09.07.19.13.32.16.12.04.26.06.4.06h2.11v.7h-2.16c-.14,0-.27.02-.38.06-.12.04-.22.09-.3.15-.08.06-.14.14-.19.23-.04.09-.07.2-.07.31s.02.22.07.32c.05.1.12.18.21.25.09.07.2.12.32.17.12.04.26.06.41.06h2.09v.7h-3.64v-.68Z"/><path d="M3.73,196.06h5.29v.72h-4.54l.64,1.3h-.73l-.67-1.36v-.67Z"/><path d="M3.8,192.87c.08-.21.19-.39.33-.54.14-.15.31-.27.51-.35.2-.08.42-.13.67-.13.14,0,.28.02.42.05.14.03.28.08.41.15.14.07.27.16.42.27.14.11.29.24.45.39l1.35,1.31v-2.29h.67v3.32h-.59l-1.85-1.79c-.12-.12-.23-.22-.33-.3-.1-.08-.21-.15-.3-.2-.1-.05-.19-.09-.29-.11-.09-.02-.19-.03-.29-.03-.15,0-.28.02-.4.07-.12.04-.23.11-.32.2-.09.09-.16.19-.21.3-.05.11-.07.24-.07.39,0,.25.08.47.23.65.15.18.36.31.63.39l-.23.67c-.42-.12-.74-.32-.97-.62s-.34-.66-.34-1.1c0-.25.04-.48.12-.69Z"/><path d="M3.88,188.33c.13-.25.32-.47.55-.65.23-.18.52-.32.85-.42.33-.1.69-.15,1.08-.15s.76.05,1.1.15.62.24.86.42c.24.18.43.4.56.65.13.25.2.52.2.83s-.07.57-.2.82-.32.47-.56.65c-.24.18-.53.32-.86.42-.33.1-.7.15-1.1.15s-.75-.05-1.08-.15c-.33-.1-.61-.24-.85-.42-.24-.18-.42-.4-.55-.65-.13-.25-.2-.53-.2-.83s.07-.58.2-.83ZM4.51,189.68c.1.16.23.29.41.41.18.11.38.2.63.27.24.07.51.1.81.1s.57-.03.82-.09c.25-.06.46-.15.64-.27.18-.12.32-.25.42-.41.1-.16.15-.33.15-.52s-.05-.37-.15-.53c-.1-.16-.24-.3-.42-.41-.18-.11-.39-.2-.64-.27-.25-.06-.52-.09-.82-.09s-.56.03-.81.09c-.25.06-.46.15-.63.26-.17.11-.31.25-.41.41-.1.16-.15.34-.15.53s.05.37.15.52Z"/><path d="M3.88,183.69c.13-.25.32-.47.55-.65.23-.18.52-.32.85-.42.33-.1.69-.15,1.08-.15s.76.05,1.1.15.62.24.86.42c.24.18.43.4.56.65.13.25.2.52.2.83s-.07.57-.2.82-.32.47-.56.65c-.24.18-.53.32-.86.42-.33.1-.7.15-1.1.15s-.75-.05-1.08-.15c-.33-.1-.61-.24-.85-.42-.24-.18-.42-.4-.55-.65-.13-.25-.2-.53-.2-.83s.07-.58.2-.83ZM4.51,185.04c.1.16.23.29.41.41.18.11.38.2.63.27.24.07.51.1.81.1s.57-.03.82-.09c.25-.06.46-.15.64-.27.18-.12.32-.25.42-.41.1-.16.15-.33.15-.52s-.05-.37-.15-.53c-.1-.16-.24-.3-.42-.41-.18-.11-.39-.2-.64-.27-.25-.06-.52-.09-.82-.09s-.56.03-.81.09c-.25.06-.46.15-.63.26-.17.11-.31.25-.41.41-.1.16-.15.34-.15.53s.05.37.15.52Z"/><path d="M5.38,178.86h.67c-.24-.11-.42-.26-.54-.45-.12-.18-.18-.4-.18-.63,0-.26.07-.48.2-.67.14-.19.33-.32.59-.41-.26-.11-.45-.27-.59-.46-.14-.2-.2-.43-.2-.7,0-.38.12-.67.37-.88.25-.21.61-.31,1.07-.31h2.25v.7h-2.16c-.29,0-.52.07-.69.2-.17.13-.25.31-.25.54,0,.12.02.22.07.32.05.1.11.18.2.26.09.07.19.13.32.16.12.04.26.06.4.06h2.11v.7h-2.16c-.14,0-.27.02-.38.06-.12.04-.22.09-.3.15-.08.06-.14.14-.19.23-.04.09-.07.2-.07.31s.02.22.07.32c.05.1.12.18.21.25.09.07.2.12.32.17.12.04.26.06.41.06h2.09v.7h-3.64v-.68Z"/><path d="M5.38,172.68h.67c-.24-.11-.42-.26-.54-.45-.12-.18-.18-.4-.18-.63,0-.26.07-.48.2-.67.14-.19.33-.32.59-.41-.26-.11-.45-.27-.59-.46-.14-.2-.2-.43-.2-.7,0-.38.12-.67.37-.88.25-.21.61-.31,1.07-.31h2.25v.7h-2.16c-.29,0-.52.07-.69.2-.17.13-.25.31-.25.54,0,.12.02.22.07.32.05.1.11.18.2.26.09.07.19.13.32.16.12.04.26.06.4.06h2.11v.7h-2.16c-.14,0-.27.02-.38.06-.12.04-.22.09-.3.15-.08.06-.14.14-.19.23-.04.09-.07.2-.07.31s.02.22.07.32c.05.1.12.18.21.25.09.07.2.12.32.17.12.04.26.06.41.06h2.09v.7h-3.64v-.68Z"/><line y2="284.45" x2="13.78" y1="81.58" x1="13.78" class="cls-3"/><rect height=".3" width="1.95" y="81.43" x="12.8" class="cls-5"/><rect height=".3" width="1.95" y="284.3" x="12.8" class="cls-5"/><path d="M116.49,13.68v5.29h-.72v-4.54l-1.3.64v-.73l1.36-.67h.67Z"/><path d="M119.68,13.74c.21.08.39.19.54.33.15.14.27.31.35.51.08.2.13.42.13.67,0,.14-.02.28-.05.42-.03.14-.08.28-.15.41-.07.14-.16.27-.27.42-.11.14-.24.29-.39.45l-1.31,1.35h2.29v.67h-3.32v-.59l1.79-1.85c.12-.12.22-.23.3-.33.08-.1.15-.21.2-.3.05-.1.09-.19.11-.29.02-.09.03-.19.03-.29,0-.15-.02-.28-.07-.4-.04-.12-.11-.23-.2-.32-.09-.09-.19-.16-.3-.21-.11-.05-.24-.07-.39-.07-.25,0-.47.08-.65.23-.18.15-.31.36-.39.63l-.67-.23c.12-.42.32-.74.62-.97s.66-.34,1.1-.34c.25,0,.48.04.69.12Z"/><path d="M124.22,13.82c.25.13.47.32.65.55.18.23.32.52.42.85.1.33.15.69.15,1.08s-.05.76-.15,1.1-.24.62-.42.86c-.18.24-.4.43-.65.56-.25.13-.52.2-.83.2s-.57-.07-.82-.2-.47-.32-.65-.56c-.18-.24-.32-.53-.42-.86-.1-.33-.15-.7-.15-1.1s.05-.75.15-1.08c.1-.33.24-.61.42-.85.18-.24.4-.42.65-.55.25-.13.53-.2.83-.2s.58.07.83.2ZM122.87,14.45c-.16.1-.29.23-.41.41-.11.18-.2.38-.27.63-.07.24-.1.51-.1.81s.03.57.09.82c.06.25.15.46.27.64.12.18.25.32.41.42.16.1.33.15.52.15s.37-.05.53-.15c.16-.1.3-.24.41-.42.11-.18.2-.39.27-.64.06-.25.09-.52.09-.82s-.03-.56-.09-.81c-.06-.25-.15-.46-.26-.63-.11-.17-.25-.31-.41-.41-.16-.1-.34-.15-.53-.15s-.37.05-.52.15Z"/><path d="M128.86,13.82c.25.13.47.32.65.55.18.23.32.52.42.85.1.33.15.69.15,1.08s-.05.76-.15,1.1-.24.62-.42.86c-.18.24-.4.43-.65.56-.25.13-.52.2-.83.2s-.57-.07-.82-.2-.47-.32-.65-.56c-.18-.24-.32-.53-.42-.86-.1-.33-.15-.7-.15-1.1s.05-.75.15-1.08c.1-.33.24-.61.42-.85.18-.24.4-.42.65-.55.25-.13.53-.2.83-.2s.58.07.83.2ZM127.51,14.45c-.16.1-.29.23-.41.41-.11.18-.2.38-.27.63-.07.24-.1.51-.1.81s.03.57.09.82c.06.25.15.46.27.64.12.18.25.32.41.42.16.1.33.15.52.15s.37-.05.53-.15c.16-.1.3-.24.41-.42.11-.18.2-.39.27-.64.06-.25.09-.52.09-.82s-.03-.56-.09-.81c-.06-.25-.15-.46-.26-.63-.11-.17-.25-.31-.41-.41-.16-.1-.34-.15-.53-.15s-.37.05-.52.15Z"/><path d="M133.69,15.32v.67c.11-.24.26-.42.45-.54.18-.12.4-.18.63-.18.26,0,.48.07.67.2.19.14.32.33.41.59.11-.26.27-.45.46-.59.2-.14.43-.2.7-.2.38,0,.67.12.88.37.21.25.31.61.31,1.07v2.25h-.7v-2.16c0-.29-.07-.52-.2-.69-.13-.17-.31-.25-.54-.25-.12,0-.22.02-.32.07-.1.05-.18.11-.26.2-.07.09-.13.19-.16.32-.04.12-.06.26-.06.4v2.11h-.7v-2.16c0-.14-.02-.27-.06-.38-.04-.12-.09-.22-.15-.3-.06-.08-.14-.14-.23-.19-.09-.04-.2-.07-.31-.07s-.22.02-.32.07c-.1.05-.18.12-.25.21-.07.09-.12.2-.17.32-.04.12-.06.26-.06.41v2.09h-.7v-3.64h.68Z"/><path d="M139.87,15.32v.67c.11-.24.26-.42.45-.54.18-.12.4-.18.63-.18.26,0,.48.07.67.2.19.14.32.33.41.59.11-.26.27-.45.46-.59.2-.14.43-.2.7-.2.38,0,.67.12.88.37.21.25.31.61.31,1.07v2.25h-.7v-2.16c0-.29-.07-.52-.2-.69-.13-.17-.31-.25-.54-.25-.12,0-.22.02-.32.07-.1.05-.18.11-.26.2-.07.09-.13.19-.16.32-.04.12-.06.26-.06.4v2.11h-.7v-2.16c0-.14-.02-.27-.06-.38-.04-.12-.09-.22-.15-.3-.06-.08-.14-.14-.23-.19-.09-.04-.2-.07-.31-.07s-.22.02-.32.07c-.1.05-.18.12-.25.21-.07.09-.12.2-.17.32-.04.12-.06.26-.06.41v2.09h-.7v-3.64h.68Z"/><line y2="23.72" x2="28.1" y1="23.72" x1="230.97" class="cls-3"/><rect height="1.95" width=".3" y="22.75" x="230.82" class="cls-5"/><rect height="1.95" width=".3" y="22.75" x="27.95" class="cls-5"/><path d="M56.75,81.43h145.58c15.84,0,28.79,12.96,28.79,28.79v145.58c0,15.84-12.96,28.79-28.79,28.79H56.75c-15.84,0-28.79-12.96-28.79-28.79V110.22c0-15.84,12.96-28.79,28.79-28.79" class="cls-4"/><path d="M166.44,110.45c13.97,0,26.61,5.69,35.76,14.88,9.15,9.19,14.81,21.89,14.81,35.92s-5.66,26.72-14.81,35.92c-9.15,9.19-21.8,14.88-35.76,14.88h-73c-13.97,0-26.61-5.69-35.76-14.88-9.15-9.19-14.81-21.89-14.81-35.92s5.66-26.72,14.81-35.92c9.15-9.19,21.8-14.88,35.76-14.88h73Z" class="cls-4"/><path d="M81.45,153.19l1.38-9.14c.65-4.34,2.97-6.14,6.92-6.14,5.44,0,6.31,1.93,5.91,7.1l-4.42.31c.33-2.86.47-3.83-1.63-3.83-1.45,0-2.21.72-2.5,2.69l-1.38,9.34c-.33,1.97-.04,2.79,1.78,2.79,1.96,0,2.21-.69,2.83-4.1l4.17.72c-.91,4.14-2.21,6.86-7.21,6.86-4.6,0-6.49-2-5.84-6.62" class="cls-3"/><polygon points="100.01 152.26 97.55 138.09 101.86 138.09 103.06 146.33 106.79 138.09 111.03 138.09 104.29 152.33 103.2 159.67 98.92 159.67 100.01 152.26" class="cls-3"/><path d="M109.84,153.19l1.38-9.14c.65-4.34,2.97-6.14,6.92-6.14,5.44,0,6.31,1.93,5.91,7.1l-4.42.31c.33-2.86.47-3.83-1.63-3.83-1.45,0-2.21.72-2.5,2.69l-1.38,9.34c-.33,1.97-.04,2.79,1.78,2.79,1.96,0,2.21-.69,2.83-4.1l4.17.72c-.91,4.14-2.21,6.86-7.21,6.86-4.6,0-6.49-2-5.84-6.62" class="cls-3"/><polygon points="127.34 138.09 131.62 138.09 128.94 156.12 134.92 156.12 134.37 159.67 124.15 159.67 127.34 138.09" class="cls-3"/><polygon points="141.33 138.09 145.61 138.09 142.42 159.67 138.14 159.67 141.33 138.09" class="cls-3"/><polygon points="148.66 138.09 153.84 138.09 155.47 148.81 157.07 138.09 161.16 138.09 157.97 159.67 153.77 159.67 151.45 146.67 149.53 159.67 145.47 159.67 148.66 138.09" class="cls-3"/><polygon points="163.77 141.61 164.28 138.09 168.56 138.09 168.05 141.61 166.71 146.88 163.56 146.88 163.77 141.61" class="cls-3"/><path d="M80.68,162.4h5.44c4.85,0,7.18,1.13,6.37,6.3l-.22,1.48c-.81,5.17-3.37,5.95-7.11,5.95h-2.18l-1.18,8.31h-4.37l3.26-22.03ZM85.16,172.71c2.15,0,2.48-.6,2.78-2.57l.26-1.69c.26-1.8.11-2.6-2.07-2.6h-1.59l-1.04,6.86h1.67Z" class="cls-3"/><path d="M93.08,177.85l1.41-9.36c.52-3.52,2.29-6.27,7.07-6.27,5.96,0,6.85,3.03,6.37,6.51l-1.41,9.43c-.59,3.87-2.55,6.41-7.18,6.41-5.62,0-6.81-2.89-6.25-6.72M102.11,178.17l1.41-9.57c.3-1.9-.26-2.71-1.96-2.71s-2.44.84-2.7,2.75l-1.41,9.5c-.33,2.15.22,2.89,1.89,2.89,1.55,0,2.48-.74,2.78-2.85Z" class="cls-3"/><path d="M111.55,162.4h5.37c4.77,0,7.03,1.13,6.29,6.3l-.22,1.3c-.48,3.24-1.63,4.61-3.44,5.25l1.26,9.19h-4.4l-1.18-8.69h-1.29l-1.26,8.69h-4.37l3.26-22.03ZM115.91,172.47c2.15,0,2.48-.6,2.78-2.57l.22-1.44c.26-1.8.15-2.6-2.04-2.6h-1.48l-1,6.62h1.52Z" class="cls-3"/><polygon points="129.16 166.06 125.13 166.06 125.68 162.4 138.04 162.4 137.53 166.06 133.53 166.06 130.79 184.44 126.46 184.44 129.16 166.06" class="cls-3"/><path d="M137.78,178.42l2.41-16.02h4.37l-2.33,15.73c-.33,2.15.11,2.89,1.78,2.89,1.55,0,2.33-.74,2.63-2.85l2.33-15.8h4.33l-2.37,16.02c-.59,3.87-2.33,6.19-6.96,6.19-5.59,0-6.74-2.36-6.18-6.16" class="cls-3"/><path d="M153.51,177.82l1.41-9.33c.67-4.54,3.11-6.27,7.03-6.27,5.88,0,6.4,2.57,6.22,6.51l-4.59.39c.33-2.71.15-3.24-1.74-3.24-1.7,0-2.29.99-2.55,2.75l-1.41,9.54c-.33,1.94,0,2.85,2,2.85,2.18,0,2.44-.74,3.03-4.72l.15-.81h-2.33l.52-3.41h6.33l-1.85,12.36h-3.33l-.07-.99c-.93.77-2.07,1.13-3.52,1.13-4.22,0-5.96-2.15-5.29-6.76" class="cls-3"/><path d="M175.16,162.33h4.81l1.11,22.1h-4.29l-.22-4.01h-3.4l-1.33,4.01h-4.29l7.62-22.1ZM176.75,177.22v-5.07l-.04-3.52-1.04,3.52-1.63,5.07h2.7Z" class="cls-3"/><polygon points="186.41 162.4 190.78 162.4 188.04 180.81 194.14 180.81 193.59 184.44 183.15 184.44 186.41 162.4" class="cls-3"/><path d="M93.3,192.79c-16.97,0-30.85-13.48-31.5-30.29h-7.08c.64,20.27,16.99,36.65,37.25,37.35l1.83-6.91v-.15h-.49Z" class="cls-3"/><path d="M93.78,122.66h-.48c-21.2,0-38.46,17.18-38.6,38.35h7.08c.13-16.83,13.52-30.56,30.21-31.24h-.09s1.88-7.11,1.88-7.11Z" class="cls-3"/><path d="M67.48,261.77c-2.7-1.72-5.75-2.59-5.85-4.86.03-.43-.3-.79-1.4-1.16-3.83-.82-6.98-.43-8.89,2.12,1.44.41,2.87.82,4.31,1.23.11-.8,1.34-.64,2.74-.34,3.14.78,7.95,3.2,9.1,3.01" class="cls-6"/><path d="M63.17,256.64c1.4.78,2.87,1.45,4.21,2.74.38.41-.16.63-.65.72-1.29.27-3.47-2.9-3.56-3.45" class="cls-6"/><path d="M51.06,258.31c4.48,1.18,8.51,2.43,10.43,4.07,1.37,1.21,1.37,2.33,0,3.35-2.59,1.91-5.09,3.85-7.49,5.85-.41.27-.58.1-.31-.31,1.31-2.02,2.78-3.9,4.79-5.51.93-.73.59-1.76-.59-2.09-6.09-1.7-8.66-1.93-6.84-5.37" class="cls-6"/><path d="M49.66,262.9c-1.55.27-5.13,4.02-1.95,7.7,3.18,3.07,6.68-.72,6.7-3.8-.38.22-.81,1.64-1.79,2.74-1.19,1.32-2.93,2.22-4.68.55-1.38-1.58-1.19-3.78,1.71-7.18" class="cls-6"/><path d="M68.58,262.59c-.47-1.03.45-1.18.9-.22.29.82.55,1.61.63,2.35.34,2.92-.98,5.19-4.1,6.15-3.21.55-4.45-4-2.53-6.19-.19,2.28-.58,6.53,3.38,5.13,1.75-.62,3.29-2.95,2.39-5.67-.17-.5-.39-.99-.68-1.54" class="cls-6"/><polygon points="75.57 263.74 74.29 263.74 74.29 265.13 73.56 265.13 73.56 261.72 75.71 261.72 75.71 262.38 74.29 262.38 74.29 263.09 75.57 263.09 75.57 263.74" class="cls-5"/><polygon points="78.2 263.69 76.88 263.69 76.88 264.46 78.33 264.46 78.33 265.13 76.16 265.13 76.16 261.72 78.33 261.72 78.33 262.38 76.88 262.38 76.88 263.04 78.2 263.04 78.2 263.69" class="cls-5"/><path d="M78.86,265.13v-3.41h1.11c1.16,0,1.46.74,1.46,1.71s-.3,1.71-1.46,1.71h-1.11ZM79.59,264.46h.39c.53,0,.69-.38.69-1.04s-.15-1.04-.69-1.04h-.39v2.08Z" class="cls-5"/><polygon points="84 263.69 82.68 263.69 82.68 264.46 84.13 264.46 84.13 265.13 81.96 265.13 81.96 261.72 84.13 261.72 84.13 262.38 82.68 262.38 82.68 263.04 84 263.04 84 263.69" class="cls-5"/><path d="M85.39,265.13h-.73v-3.41h1.16c.92,0,1.22.42,1.22,1.07,0,.42-.12.75-.48.92l.6,1.42h-.85l-.46-1.28h-.47v1.28ZM85.39,263.19h.5c.32,0,.36-.22.36-.4s-.04-.4-.36-.4h-.5v.81Z" class="cls-5"/><path d="M87.45,265.13l.95-3.43h.84l.95,3.43h-.77l-.16-.7h-.86l-.16.7h-.77ZM88.53,263.85h.58l-.29-1.29-.29,1.29Z" class="cls-5"/><path d="M91.85,266.27c-.2,0-.38-.05-.45-.09v-.41c.08.03.24.07.4.07.1,0,.17-.03.17-.1,0-.06-.04-.13-.32-.17l.04-.39c-.78-.1-1.15-.61-1.15-1.75,0-1.28.48-1.77,1.47-1.77.4,0,.57.07.71.13v.69c-.2-.08-.36-.13-.64-.13-.56,0-.81.22-.81,1.09s.25,1.09.81,1.09c.27,0,.43-.05.64-.13v.69c-.14.05-.31.13-.71.13v.2c.29.06.42.19.42.4,0,.35-.26.48-.58.48" class="cls-5"/><path d="M93.09,265.13l.95-3.43h.84l.95,3.43h-.77l-.16-.7h-.86l-.16.7h-.77ZM93.48,261.53c0-.44.2-.66.59-.66s.55.28.77.28c.14,0,.2-.07.2-.16h.4c0,.44-.2.66-.59.66s-.55-.28-.77-.28c-.14,0-.2.07-.2.16h-.4ZM94.17,263.85h.58l-.29-1.29-.29,1.29Z" class="cls-5"/><path d="M96.17,263.42c0-1.04.29-1.77,1.36-1.77s1.36.73,1.36,1.77-.29,1.77-1.36,1.77-1.36-.73-1.36-1.77M96.91,263.42c0,.8.17,1.11.62,1.11s.62-.31.62-1.11-.17-1.11-.62-1.11-.62.31-.62,1.11Z" class="cls-5"/><path d="M48.16,274.25c-.34-.19-1.08-.39.14-.58,6.7-1.44,13.72-2.3,21.24-2.19.51.02.52.23.03.31-8.13.1-14.77.83-19.43,2.39-.71.38-1.36.33-1.98.07" class="cls-6"/><path d="M74.29,270.02h-.73v-3.41h1.16c.91,0,1.22.53,1.22,1.11s-.31,1.11-1.22,1.11h-.43v1.18ZM74.29,268.18h.43c.36,0,.43-.28.43-.45s-.07-.45-.43-.45h-.43v.91Z" class="cls-5"/><path d="M76.33,268.31c0-1.04.29-1.77,1.36-1.77s1.36.73,1.36,1.77-.29,1.77-1.36,1.77-1.36-.73-1.36-1.77M77.07,268.31c0,.8.17,1.11.62,1.11s.62-.31.62-1.11-.17-1.11-.62-1.11-.62.31-.62,1.11Z" class="cls-5"/><path d="M80.34,270.02h-.73v-3.41h1.16c.92,0,1.22.42,1.22,1.07,0,.42-.12.75-.48.92l.6,1.42h-.85l-.46-1.28h-.47v1.28ZM80.34,268.08h.5c.32,0,.36-.22.36-.4s-.04-.4-.36-.4h-.5v.81Z" class="cls-5"/><polygon points="83.75 267.27 83.75 270.02 83.02 270.02 83.02 267.27 82.2 267.27 82.2 266.61 84.57 266.61 84.57 267.27 83.75 267.27" class="cls-5"/><path d="M84.98,268.94v-2.33h.73v2.3c0,.44.29.52.54.52s.54-.08.54-.52v-2.3h.73v2.33c0,.94-.75,1.14-1.27,1.14s-1.27-.2-1.27-1.14" class="cls-5"/><path d="M88.05,268.31c0-1.19.43-1.77,1.46-1.77.46,0,.8.07,1.01.16v.71c-.28-.12-.59-.19-.87-.19-.65,0-.86.29-.86,1.09,0,.85.23,1.09.86,1.09.07,0,.16,0,.21-.01v-.69h-.48v-.65h1.21v1.81c-.2.13-.6.23-1.1.23-1.01,0-1.44-.58-1.44-1.77" class="cls-5"/><path d="M91.13,268.94v-2.33h.73v2.3c0,.44.29.52.54.52s.54-.08.54-.52v-2.3h.73v2.33c0,.94-.75,1.14-1.27,1.14s-1.27-.2-1.27-1.14" class="cls-5"/><polygon points="96.26 268.58 94.95 268.58 94.95 269.35 96.4 269.35 96.4 270.02 94.22 270.02 94.22 266.61 96.4 266.61 96.4 267.27 94.95 267.27 94.95 267.93 96.26 267.93 96.26 268.58" class="cls-5"/><path d="M99.28,268.93c0,.85-.53,1.15-1.34,1.15-.37,0-.82-.06-1.06-.21v-.75c.16.09.54.26.99.26.51,0,.66-.16.66-.39,0-.26-.11-.35-.46-.39-.86-.11-1.2-.37-1.2-1.04,0-.62.38-1.03,1.28-1.03.46,0,.81.08.96.17v.71c-.19-.09-.56-.18-.91-.18-.38,0-.59.12-.59.34,0,.25.13.32.49.37.76.1,1.17.26,1.17.99" class="cls-5"/><path d="M99.58,270.02l.95-3.43h.84l.95,3.43h-.77l-.16-.7h-.86l-.16.7h-.77ZM100.66,268.74h.58l-.29-1.29-.29,1.29Z" class="cls-5"/><path d="M73.56,274.42v-3.41h1.11c1.16,0,1.46.74,1.46,1.71s-.3,1.71-1.46,1.71h-1.11ZM74.29,273.75h.39c.53,0,.69-.38.69-1.04s-.15-1.04-.69-1.04h-.39v2.08Z" class="cls-5"/><polygon points="78.69 272.98 77.38 272.98 77.38 273.75 78.83 273.75 78.83 274.42 76.65 274.42 76.65 271.01 78.83 271.01 78.83 271.67 77.38 271.67 77.38 272.33 78.69 272.33 78.69 272.98" class="cls-5"/><path d="M81.88,270.94c.4,0,.57.07.71.13v.69c-.2-.08-.36-.13-.64-.13-.55,0-.81.22-.81,1.09s.25,1.09.81,1.09c.27,0,.43-.05.64-.13v.69c-.14.05-.31.13-.71.13-1,0-1.47-.49-1.47-1.77,0-1.28.48-1.77,1.47-1.77" class="cls-5"/><rect height="3.41" width=".73" y="271.01" x="83.19" class="cls-5"/><path d="M86,270.94c.4,0,.57.07.71.13v.69c-.2-.08-.36-.13-.64-.13-.55,0-.81.22-.81,1.09s.25,1.09.81,1.09c.27,0,.43-.05.64-.13v.69c-.14.05-.31.13-.71.13-1,0-1.47-.49-1.47-1.77,0-1.28.48-1.77,1.47-1.77" class="cls-5"/><polygon points="87.99 273.75 89.37 273.75 89.37 274.42 87.26 274.42 87.26 271.01 87.99 271.01 87.99 273.75" class="cls-5"/><rect height="3.41" width=".73" y="271.01" x="89.84" class="cls-5"/><path d="M93.55,273.33c0,.85-.53,1.15-1.34,1.15-.37,0-.82-.06-1.06-.21v-.75c.16.09.54.26.99.26.51,0,.66-.16.66-.39,0-.26-.11-.35-.46-.39-.86-.11-1.2-.37-1.2-1.04,0-.62.38-1.03,1.28-1.03.46,0,.81.08.96.17v.7c-.19-.09-.56-.18-.91-.18-.38,0-.59.12-.59.34,0,.25.13.32.49.37.76.1,1.17.26,1.17.99" class="cls-5"/><polygon points="96.02 274 95.28 274 94.75 272.33 94.78 274.42 94.06 274.42 94.06 271.01 94.97 271.01 95.65 273.13 96.33 271.01 97.24 271.01 97.24 274.42 96.52 274.42 96.55 272.33 96.02 274" class="cls-5"/><path d="M97.8,272.71c0-1.04.29-1.77,1.36-1.77s1.36.73,1.36,1.77-.29,1.77-1.36,1.77-1.36-.73-1.36-1.77M98.53,272.71c0,.8.17,1.11.62,1.11s.62-.31.62-1.11-.17-1.11-.62-1.11-.62.31-.62,1.11Z" class="cls-5"/><path d="M54.7,274.18v-.7s.21-.03.21-.03v.69c0,.13.09.14.16.13.07,0,.16-.04.16-.17v-.69s.21-.03.21-.03v.7c0,.28-.22.37-.37.39-.15.02-.37-.01-.37-.29" class="cls-5"/><path d="M55.68,274.14c.07,0,.13.04.14.11,0,.07-.04.13-.11.14-.07,0-.13-.04-.14-.11,0-.07.04-.13.11-.14" class="cls-5"/><polygon points="56.59 273.24 56.32 274.3 56.07 274.33 55.79 273.34 56.02 273.31 56.2 274.07 56.37 273.27 56.59 273.24" class="cls-5"/><path d="M56.67,274.01c.07,0,.13.04.14.11,0,.07-.04.13-.11.14-.07,0-.13-.04-.14-.11,0-.07.04-.13.11-.14" class="cls-5"/><path d="M57.15,274.19l-.21.03v-1.02s.34-.04.34-.04c.27-.03.36.11.36.29,0,.18-.09.34-.36.38l-.13.02v.35ZM57.15,273.64l.13-.02c.11-.01.13-.1.13-.15,0-.05-.02-.13-.13-.12l-.13.02v.27Z" class="cls-5"/><path d="M57.64,273.89c.07,0,.13.04.14.11,0,.07-.04.13-.11.14-.07,0-.13-.04-.14-.11,0-.07.04-.13.11-.14" class="cls-5"/><polygon points="57.92 274.16 58.28 273.01 58.5 272.99 58.13 274.13 57.92 274.16" class="cls-5"/><polygon points="59.22 273.51 58.84 273.56 58.84 273.97 58.63 274 58.62 272.98 59.26 272.9 59.26 273.1 58.84 273.15 58.84 273.36 59.22 273.32 59.22 273.51" class="cls-5"/><path d="M59.33,273.67c.07,0,.13.04.14.11,0,.07-.04.13-.11.14-.07,0-.13-.04-.14-.11,0-.07.04-.13.11-.14" class="cls-5"/><path d="M59.81,273.85l-.21.03v-1.02s.34-.04.34-.04c.27-.03.36.11.36.29,0,.18-.09.34-.36.38l-.13.02v.35ZM59.81,273.3l.13-.02c.11-.01.13-.1.13-.15,0-.05-.02-.13-.13-.12l-.13.02v.27Z" class="cls-5"/><path d="M60.3,273.55c.07,0,.13.04.14.11,0,.07-.04.13-.11.14-.07,0-.13-.04-.14-.11,0-.07.04-.13.11-.14" class="cls-5"/><path d="M60.99,272.66c.12-.01.17,0,.21.01v.21c-.06-.02-.11-.03-.19-.02-.16.02-.24.1-.24.35,0,.26.08.32.24.29.08-.01.13-.03.19-.06v.21s-.09.05-.21.06c-.29.04-.43-.09-.43-.47,0-.38.14-.55.43-.58" class="cls-5"/><path d="M61.44,273.41c.07,0,.13.04.14.11,0,.07-.04.13-.11.14-.07,0-.13-.04-.14-.11,0-.07.04-.13.11-.14" class="cls-5"/><rect transform="translate(457.16 -91.13) rotate(90)" height="1.02" width="203.17" y="182.51" x="172.56" class="cls-2"/><rect transform="translate(259.07 76.8) rotate(180)" height="1.02" width="203.17" y="37.89" x="27.95" class="cls-3"/></g></g></g></svg>