<svg viewBox="0 0 531.27 288.65" xmlns:xlink="http://www.w3.org/1999/xlink" xmlns="http://www.w3.org/2000/svg" id="Camada_2"><defs><style>.cls-1,.cls-2{fill:none;}.cls-2{stroke:#000;stroke-miterlimit:10;stroke-width:.3px;}</style><symbol viewBox="0 0 531.27 288" id="fundo_transparente"><rect height="288" width="531.27" x="0" class="cls-1"/></symbol></defs><g id="RePlastic"><g id="espreguiçadeira_Match_Up_2000"><use xlink:href="#fundo_transparente" transform="translate(0 .65)" height="288" width="531.27"/><g id="SPLINE"><path d="M384.35,195.02c-.36.66-.73,1.32-1.1,1.97-.37.64-.74,1.28-1.12,1.92-.37.63-.74,1.25-1.1,1.88-.36.62-.71,1.24-1.06,1.87-.35.63-.7,1.27-1.05,1.91-.36.65-.71,1.3-1.07,1.94-.43.77-.88,1.54-1.33,2.3-.45.76-.92,1.51-1.39,2.25s-.95,1.47-1.43,2.2-.98,1.45-1.47,2.17c-.71,1.02-1.42,2.03-2.15,3.04-.72,1-1.45,2-2.18,2.99-.73.99-1.46,1.98-2.19,2.97-.73.99-1.45,1.97-2.17,2.97s-1.42,1.98-2.12,2.98c-.55.79-1.1,1.59-1.64,2.4-.54.8-1.07,1.61-1.59,2.43-.52.82-1.03,1.64-1.52,2.47s-.98,1.68-1.44,2.53c-.19.34-.37.68-.56,1.03-.19.35-.38.7-.57,1.05s-.39.71-.59,1.07c-.2.36-.41.72-.61,1.07s-.43.72-.65,1.07-.46.71-.7,1.06-.5.7-.77,1.04-.55.68-.84,1.01c-.25.28-.51.56-.78.82s-.56.53-.85.78c-.29.25-.6.49-.91.72s-.63.44-.95.65c-.32.21-.65.4-.99.59-.34.19-.68.36-1.02.53-.41.2-.82.38-1.24.55s-.85.32-1.27.47-.86.27-1.3.39-.88.23-1.32.32c-.58.12-1.16.23-1.74.32s-1.17.16-1.76.21-1.17.08-1.76.1-1.17.02-1.75,0-1.16-.05-1.73-.1-1.14-.11-1.7-.19-1.11-.17-1.65-.28c-.53-.1-1.06-.22-1.58-.35-.52-.13-1.03-.27-1.54-.42s-1-.3-1.5-.47-.98-.33-1.47-.51-.96-.35-1.43-.53c-.61-.23-1.22-.47-1.84-.7-.6-.23-1.2-.46-1.8-.68s-1.17-.43-1.77-.63-1.24-.41-1.87-.6-1.26-.35-1.89-.51-1.28-.3-1.92-.42c-.64-.13-1.29-.24-1.94-.34s-1.31-.18-1.96-.25c-.74-.08-1.48-.14-2.22-.19s-1.49-.08-2.24-.09-1.5-.01-2.26,0-1.52.05-2.27.09c-.76.05-1.52.11-2.28.18s-1.53.17-2.29.27-1.53.22-2.29.35c-.77.13-1.53.28-2.29.43-.87.18-1.74.38-2.61.59s-1.73.44-2.59.68c-.86.24-1.72.5-2.57.78s-1.7.56-2.55.86c-.85.3-1.69.62-2.52.94-.82.32-1.63.66-2.44,1s-1.6.7-2.4,1.07-1.57.75-2.35,1.14-1.54.79-2.3,1.2c-.9.48-1.78.98-2.66,1.5s-1.73,1.03-2.58,1.57-1.68,1.08-2.51,1.64c-.83.56-1.64,1.14-2.45,1.72-.81.59-1.61,1.19-2.41,1.8-.8.62-1.58,1.25-2.37,1.88v18.19h21.86c23.74-20.94,59.6-20.94,83.34,0h30.41v-9.91c-17.93-19.09-17.93-48.62,0-67.71v-10.5c0-.87-.17-1.73-.5-2.53" class="cls-2"/></g><g id="SPLINE-2"><path d="M254.84,270.14c.49-.38.99-.76,1.49-1.13.5-.37,1-.74,1.51-1.1.3-.21.6-.43.91-.64.82-.57,1.64-1.12,2.48-1.66s1.68-1.07,2.54-1.58,1.72-1.01,2.59-1.48,1.73-.93,2.61-1.37c.88-.44,1.77-.87,2.66-1.28.89-.41,1.8-.81,2.71-1.18.84-.35,1.68-.68,2.53-1s1.71-.62,2.57-.91c.86-.29,1.73-.56,2.6-.82s1.75-.5,2.63-.72c.69-.17,1.37-.34,2.06-.49s1.39-.3,2.08-.43,1.39-.25,2.1-.36,1.4-.2,2.11-.28,1.41-.15,2.11-.21c.58-.05,1.17-.08,1.76-.11s1.17-.04,1.76-.05c.59,0,1.17,0,1.76.01s1.17.04,1.76.08c.57.04,1.14.08,1.71.14.57.06,1.14.13,1.7.21s1.13.18,1.69.28,1.12.22,1.68.36c.46.11.93.23,1.38.36s.92.27,1.37.41.91.3,1.35.46c.67.24,1.34.49,2,.74s1.33.51,2,.77c1.48.57,2.46,1.98,2.46,3.55,0,.05,0,.1,0,.15-.08,2.1-1.87,3.73-4,3.65-16.92-.67-33.49,4.91-46.48,15.65h-14.17v-9.99" class="cls-2"/></g><g id="ARC"><path d="M383.5,191.16c.63-.45,1.33-.34,2.29.9,1.18,1.53,1.78,3.57,1.78,5.49v10.56c0,.64-.25,1.26-.69,1.73-8.2,8.71-12.76,20.17-12.76,32.07s4.56,23.35,12.76,32.07c.44.47.69,1.09.69,1.73v12c0,.37-.31.68-.68.68l-33.71-.18c-22.87-20.7-57.96-20.7-80.84,0l-25.16.18c-.38,0-.68-.3-.68-.68v-21.15s.53-2.24.53-2.24c.12-.52,1.66-1.43,2.04-1.74,2.04-1.67,4.16-3.23,6.34-4.71,5.36-3.64,11.17-7.02,17.23-9.38,10.15-3.97,19.06-4.27,23.94-4.39,7.25-.17,14.43.7,21.4,2.66,4.57,1.28,9.08,3.22,13.82,3.83,5.71.73,10-1.21,13.55-5.45,4.01-4.78,7.53-10,11.15-15.07,14.18-19.86,23.29-34,24.91-36.16.78-1.04,1.39-2.22,2.09-2.72Z" class="cls-2"/></g><g id="ARC-2"><path d="M358.88,245.18c-.3.54-.6,1.08-.91,1.62-.31.54-.63,1.07-.96,1.59-.25.39-.5.77-.76,1.15s-.53.75-.81,1.12-.57.73-.86,1.08-.6.7-.92,1.03c-.32.33-.64.66-.98.97-.33.31-.68.62-1.03.91-.38.31-.76.6-1.16.89s-.8.55-1.22.81-.84.51-1.27.74c-.43.23-.87.46-1.31.66-.44.21-.89.41-1.35.59s-.91.35-1.37.51c-.42.14-.84.28-1.26.4-.57.17-1.14.32-1.72.45-.58.13-1.16.25-1.74.36s-1.17.19-1.76.26c-.34.04-.68.08-1.03.11s-.69.06-1.03.08c-2.12.13-3.73,1.94-3.59,4.04.1,1.54,1.13,2.87,2.61,3.36,8.06,2.67,15.54,6.81,22.06,12.2h16.62c2.12,0,3.85-1.7,3.85-3.8,0-.79-.25-1.57-.72-2.21-5.86-8.08-9.4-17.57-10.26-27.47-.18-2.06-2.02-3.59-4.1-3.41-1.27.11-2.41.84-3.01,1.95" class="cls-2"/></g><path d="M252.93,259.57l-5.45,4.1-2.23-2.93c-.19-.25-.14-.61.11-.8l4.53-3.41c.25-.19.61-.14.81.11l2.23,2.93Z" class="cls-2"/><polygon points="250.23 260.22 248.86 261.25 247.83 259.89 249.19 258.87 250.23 260.22" class="cls-2"/><path d="M249.97,260.42l-.84.63c-.14.11-.35.08-.46-.06l-.64-.84c-.11-.14-.08-.35.06-.45l.84-.63c.14-.11.35-.08.46.06l.64.84c.11.14.08.35-.06.45Z" class="cls-2"/><path d="M259.96,254.8l-5.69,3.77-2.05-3.06c-.18-.26-.11-.62.16-.79l4.73-3.14c.26-.18.62-.1.8.16l2.05,3.06Z" class="cls-2"/><polygon points="257.1 255.27 255.82 256.11 254.96 254.84 256.24 253.99 257.1 255.27" class="cls-2"/><path d="M256.86,255.43l-.79.53c-.14.09-.32.05-.41-.08l-.53-.79c-.09-.13-.05-.32.08-.4l.79-.53c.14-.09.32-.05.41.08l.53.79c.09.13.05.32-.08.4Z" class="cls-2"/><path d="M267.36,250.74l-6.01,3.24-1.77-3.23c-.15-.28-.05-.62.23-.77l5-2.7c.28-.15.63-.05.78.23l1.77,3.23Z" class="cls-2"/><polygon points="264.49 250.95 263.11 251.69 262.36 250.32 263.74 249.57 264.49 250.95" class="cls-2"/><path d="M264.23,251.09l-.86.46c-.15.08-.33.03-.41-.12l-.47-.85c-.08-.14-.03-.33.12-.4l.86-.46c.15-.08.33-.03.41.12l.47.85c.08.14.03.33-.12.4Z" class="cls-2"/><path d="M275.22,247.46l-6.35,2.51-1.37-3.42c-.12-.29.03-.62.32-.74l5.29-2.09c.3-.12.63.03.75.32l1.37,3.41Z" class="cls-2"/><polygon points="272.39 247.35 270.86 247.96 270.26 246.44 271.78 245.83 272.39 247.35" class="cls-2"/><path d="M272.1,247.47l-.94.37c-.16.06-.34-.01-.41-.17l-.38-.94c-.06-.16.01-.34.18-.4l.94-.37c.16-.06.34.01.41.17l.38.94c.06.16-.01.34-.18.4Z" class="cls-2"/><path d="M283.38,245.24l-6.63,1.68-.92-3.56c-.08-.31.11-.62.41-.69l5.51-1.4c.31-.08.62.11.7.41l.92,3.56Z" class="cls-2"/><polygon points="280.63 244.8 278.97 245.22 278.55 243.58 280.21 243.16 280.63 244.8" class="cls-2"/><path d="M280.31,244.88l-1.02.26c-.17.04-.35-.06-.4-.23l-.26-1.02c-.04-.17.06-.35.24-.39l1.02-.26c.17-.04.35.06.4.23l.26,1.02c.04.17-.06.35-.24.39Z" class="cls-2"/><path d="M291.75,244.29l-6.8.69-.38-3.66c-.03-.31.2-.59.51-.63l5.66-.57c.32-.03.6.2.63.51l.38,3.66Z" class="cls-2"/><polygon points="289.1 243.44 287.4 243.62 287.22 241.93 288.92 241.75 289.1 243.44" class="cls-2"/><path d="M288.77,243.48l-1.05.11c-.18.02-.34-.11-.36-.29l-.11-1.05c-.02-.18.11-.34.29-.35l1.05-.11c.18-.02.34.11.36.29l.11,1.05c.02.18-.11.34-.29.35Z" class="cls-2"/><path transform="translate(-4.1 5.11) rotate(-.98)" d="M293.91,239.8h5.7c.31,0,.57.26.57.57v3.68h-6.84v-3.68c0-.31.26-.57.57-.57Z" class="cls-2"/><rect transform="translate(-4.1 5.12) rotate(-.98)" height="1.7" width="1.71" y="241.24" x="295.92" class="cls-2"/><rect transform="translate(-4.1 5.12) rotate(-.98)" ry=".32" rx=".32" height="1.7" width="1.71" y="241.24" x="295.92" class="cls-2"/><path d="M308.61,244.71l-6.81-.63.34-3.66c.03-.31.31-.54.63-.52l5.66.52c.32.03.55.31.52.62l-.34,3.66Z" class="cls-2"/><polygon points="306.18 243.37 304.48 243.22 304.63 241.53 306.34 241.68 306.18 243.37" class="cls-2"/><path d="M305.85,243.34l-1.05-.1c-.18-.02-.31-.17-.29-.35l.1-1.05c.02-.18.18-.31.36-.29l1.05.1c.18.02.31.17.29.35l-.1,1.05c-.02.18-.18.31-.36.29Z" class="cls-2"/><path d="M316.83,246.41l-6.68-1.46.79-3.59c.07-.31.37-.5.69-.43l5.56,1.21c.31.07.51.37.44.68l-.79,3.59Z" class="cls-2"/><polygon points="314.58 244.79 312.91 244.42 313.28 242.76 314.95 243.13 314.58 244.79" class="cls-2"/><path d="M314.26,244.72l-1.03-.23c-.18-.04-.29-.21-.25-.39l.23-1.03c.04-.17.21-.29.39-.25l1.03.23c.18.04.29.21.25.39l-.23,1.03c-.04.17-.21.29-.39.25Z" class="cls-2"/><path d="M324.65,248.8l-6.52-2.05,1.12-3.5c.1-.3.42-.47.72-.37l5.42,1.71c.3.1.47.42.37.72l-1.12,3.5Z" class="cls-2"/><polygon points="322.56 246.98 320.93 246.46 321.44 244.85 323.07 245.36 322.56 246.98" class="cls-2"/><path d="M322.24,246.88l-1.01-.32c-.17-.05-.27-.24-.21-.41l.32-1c.05-.17.24-.26.41-.21l1.01.32c.17.05.27.24.21.41l-.32,1c-.05.17-.24.26-.41.21Z" class="cls-2"/><path d="M333.02,250.68c-1.01-.08-2.14-.23-3.37-.48-1.25-.26-2.36-.51-3.32-.84.22-1.21.44-2.48.67-3.69.06-.31.36-.52.67-.46l5.6,1.02c.31.06.52.35.46.66l-.7,3.79Z" class="cls-2"/><polygon points="330.74 248.96 329.06 248.66 329.37 246.99 331.05 247.29 330.74 248.96" class="cls-2"/><path d="M330.42,248.9l-1.04-.19c-.18-.03-.29-.2-.26-.38l.19-1.03c.03-.18.2-.29.38-.26l1.04.19c.18.03.29.2.26.38l-.19,1.03c-.03.18-.2.29-.38.26Z" class="cls-2"/><path d="M354.13,233.38l-3.95,5.55-3.02-2.12c-.26-.18-.32-.54-.14-.8l3.28-4.61c.18-.26.54-.32.8-.14l3.02,2.12Z" class="cls-2"/><polygon points="351.75 234.81 350.77 236.2 349.37 235.22 350.36 233.83 351.75 234.81" class="cls-2"/><path d="M351.57,235.08l-.61.86c-.1.15-.31.18-.45.08l-.86-.61c-.15-.1-.18-.31-.08-.45l.61-.86c.1-.15.31-.18.45-.08l.86.61c.15.1.18.31.08.45Z" class="cls-2"/><path d="M359.03,226.52l-3.95,5.55-3.02-2.12c-.26-.18-.32-.54-.14-.8l3.28-4.61c.18-.26.54-.32.8-.14l3.02,2.12Z" class="cls-2"/><polygon points="356.65 227.95 355.66 229.33 354.27 228.35 355.25 226.97 356.65 227.95" class="cls-2"/><path d="M356.46,228.21l-.61.86c-.1.15-.31.18-.45.08l-.86-.61c-.15-.1-.18-.31-.08-.45l.61-.86c.1-.15.31-.18.45-.08l.86.61c.15.1.18.31.08.45Z" class="cls-2"/><path d="M368.73,212.56l-4,5.82-2.99-1.96c-.27-.18-.34-.54-.17-.81l3.27-4.91c.18-.27.54-.34.81-.16l3.08,2.02Z" class="cls-2"/><polygon points="366.32 214.17 365.38 215.59 363.95 214.65 364.89 213.23 366.32 214.17" class="cls-2"/><path d="M366.14,214.44l-.58.88c-.1.15-.3.19-.45.09l-.88-.58c-.15-.1-.19-.3-.09-.45l.58-.88c.1-.15.3-.19.45-.09l.88.58c.15.1.19.3.09.45Z" class="cls-2"/><path d="M363.87,219.59c-1.36,1.92-2.71,3.85-4.07,5.77l-3.01-2.11c-.26-.19-.33-.55-.14-.81l3.42-4.8c.19-.26.55-.32.82-.14,1,.7,1.99,1.4,2.99,2.1Z" class="cls-2"/><polygon points="361.44 221.14 360.46 222.52 359.06 221.54 360.04 220.16 361.44 221.14" class="cls-2"/><path d="M361.25,221.4l-.61.86c-.1.15-.31.18-.45.08l-.86-.61c-.15-.1-.18-.31-.08-.45l.61-.86c.1-.15.31-.18.45-.08l.86.61c.15.1.18.31.08.45Z" class="cls-2"/><path d="M373.44,205.64c-1.32,1.95-2.64,3.9-3.96,5.85l-3.05-2.06c-.27-.18-.34-.54-.16-.81l3.33-4.87c.18-.27.55-.33.81-.15,1.01.68,2.02,1.36,3.02,2.04Z" class="cls-2"/><polygon points="371.04 207.23 370.08 208.64 368.66 207.68 369.62 206.28 371.04 207.23" class="cls-2"/><path d="M370.86,207.5l-.59.87c-.1.15-.3.19-.45.09l-.87-.59c-.15-.1-.19-.3-.09-.45l.59-.87c.1-.15.3-.19.45-.09l.87.59c.15.1.19.3.09.45Z" class="cls-2"/><path d="M378.21,198.48c-1.32,1.95-2.64,3.9-3.96,5.85l-3.05-2.06c-.27-.18-.34-.54-.16-.81l3.33-4.87c.18-.27.55-.33.81-.15,1.01.68,2.02,1.36,3.02,2.04Z" class="cls-2"/><polygon points="375.81 200.08 374.85 201.48 373.44 200.53 374.4 199.12 375.81 200.08" class="cls-2"/><path d="M375.63,200.35l-.59.87c-.1.15-.3.19-.45.09l-.87-.59c-.15-.1-.19-.3-.09-.45l.59-.87c.1-.15.3-.19.45-.09l.87.59c.15.1.19.3.09.45Z" class="cls-2"/><path d="M382.91,191.64c-1.34,1.94-2.68,3.87-4.02,5.81l-3.03-2.09c-.27-.18-.33-.55-.15-.81l3.38-4.83c.18-.26.55-.33.81-.15,1,.69,2,1.38,3,2.07Z" class="cls-2"/><polygon points="380.5 193.21 379.52 194.61 378.12 193.64 379.09 192.24 380.5 193.21" class="cls-2"/><path d="M380.31,193.48l-.6.86c-.1.15-.31.18-.45.08l-.87-.6c-.15-.1-.18-.3-.08-.45l.6-.86c.1-.15.31-.18.45-.08l.87.6c.15.1.18.3.08.45Z" class="cls-2"/><path d="M349.21,240.23l-4.41,5.52-2.87-2.24c-.25-.2-.3-.56-.1-.82l3.66-4.63c.2-.25.57-.3.82-.1l2.9,2.26Z" class="cls-2"/><polygon points="346.68 241.64 345.63 242.98 344.28 241.93 345.34 240.59 346.68 241.64" class="cls-2"/><path d="M346.48,241.9l-.65.83c-.11.14-.32.17-.46.06l-.83-.65c-.14-.11-.17-.31-.06-.45l.65-.83c.11-.14.32-.17.46-.06l.83.65c.14.11.17.31.06.45Z" class="cls-2"/><path d="M342.74,247.67c-.65.56-1.61,1.26-2.89,1.84-1.42.64-2.7.89-3.6,1-.5-1.12-.99-2.24-1.49-3.35-.13-.29,0-.64.3-.77l5.42-2.37c.3-.13.64,0,.77.3l1.49,3.35Z" class="cls-2"/><polygon points="339.84 247.72 338.28 248.41 337.59 246.86 339.15 246.17 339.84 247.72" class="cls-2"/><path d="M339.54,247.86l-.97.42c-.17.07-.36,0-.43-.17l-.43-.96c-.07-.16,0-.35.17-.43l.97-.42c.17-.07.36,0,.43.17l.43.96c.07.16,0,.35-.17.43Z" class="cls-2"/><rect height="3.38" width="8.44" y="24.83" x="44.17" class="cls-2"/><rect height="3.38" width="8.44" y="24.83" x="179.86" class="cls-2"/><rect height=".42" width="8.44" y="72.37" x="44.17" class="cls-2"/><rect height=".42" width="8.44" y="72.37" x="179.86" class="cls-2"/><rect height=".42" width="8.44" y="88.22" x="44.16" class="cls-2"/><rect height=".42" width="8.44" y="88.22" x="179.85" class="cls-2"/><rect height=".76" width="8.44" y="79.84" x="44.16" class="cls-2"/><rect height=".76" width="8.44" y="79.84" x="179.85" class="cls-2"/><rect height=".59" width="8.44" y="96.23" x="44.16" class="cls-2"/><rect height=".59" width="8.44" y="96.23" x="179.85" class="cls-2"/><rect height="1.18" width="8.44" y="104.26" x="44.16" class="cls-2"/><rect height="1.18" width="8.44" y="104.26" x="179.85" class="cls-2"/><rect height="1.35" width="8.44" y="112.44" x="44.16" class="cls-2"/><rect height="1.35" width="8.44" y="112.44" x="179.85" class="cls-2"/><rect height="1.01" width="8.44" y="120.78" x="44.16" class="cls-2"/><rect height="1.01" width="8.44" y="120.78" x="179.85" class="cls-2"/><rect height=".59" width="8.44" y="129.38" x="44.15" class="cls-2"/><rect height=".59" width="8.44" y="129.38" x="179.84" class="cls-2"/><rect height=".49" width="8.44" y="137.56" x="44.15" class="cls-2"/><rect height=".49" width="8.44" y="137.56" x="179.84" class="cls-2"/><rect ry=".67" rx=".67" height="6.62" width="169.51" y="65.75" x="31.48" class="cls-2"/><rect ry=".69" rx=".69" height="7.05" width="169.51" y="72.8" x="31.48" class="cls-2"/><rect ry=".72" rx=".72" height="7.62" width="169.51" y="80.61" x="31.48" class="cls-2"/><rect ry=".72" rx=".72" height="7.57" width="169.51" y="88.65" x="31.54" class="cls-2"/><rect ry=".71" rx=".71" height="7.43" width="169.51" y="96.82" x="31.54" class="cls-2"/><rect ry=".69" rx=".69" height="6.99" width="169.51" y="105.45" x="31.48" class="cls-2"/><rect ry=".69" rx=".69" height="6.99" width="169.51" y="113.79" x="31.54" class="cls-2"/><rect ry=".72" rx=".72" height="7.59" width="169.51" y="121.8" x="31.54" class="cls-2"/><rect ry=".72" rx=".72" height="7.59" width="169.51" y="129.98" x="31.54" class="cls-2"/><rect ry=".62" rx=".62" height="5.69" width="169.51" y="60.74" x="31.48" class="cls-2"/><rect ry=".62" rx=".62" height="5.69" width="169.51" y="56.52" x="31.48" class="cls-2"/><rect ry=".62" rx=".62" height="5.69" width="169.51" y="51.95" x="31.48" class="cls-2"/><rect ry=".62" rx=".62" height="5.69" width="169.51" y="47.17" x="31.48" class="cls-2"/><rect ry=".65" rx=".65" height="6.14" width="169.51" y="41.7" x="31.48" class="cls-2"/><rect ry=".61" rx=".61" height="5.5" width="169.51" y="37.41" x="31.48" class="cls-2"/><rect ry=".61" rx=".61" height="5.5" width="169.51" y="33.55" x="31.48" class="cls-2"/><rect ry=".68" rx=".68" height="6.76" width="169.51" y="28.21" x="31.48" class="cls-2"/><rect ry=".75" rx=".75" height="8.24" width="169.57" y="159.03" x="31.47" class="cls-2"/><rect ry=".75" rx=".75" height="8.24" width="169.57" y="152.27" x="31.47" class="cls-2"/><rect ry=".75" rx=".75" height="8.24" width="169.57" y="144.92" x="31.47" class="cls-2"/><rect ry=".72" rx=".72" height="7.59" width="169.51" y="138.05" x="31.47" class="cls-2"/><rect height="21.28" width="8.44" y="267.09" x="44.21" class="cls-2"/><rect height="21.28" width="8.44" y="267.09" x="179.95" class="cls-2"/><rect ry=".71" rx=".71" height="7.55" width="169.57" y="188.32" x="31.52" class="cls-2"/><rect ry=".72" rx=".72" height="7.65" width="169.57" y="195.68" x="31.52" class="cls-2"/><rect ry=".69" rx=".69" height="6.98" width="169.57" y="203.02" x="31.52" class="cls-2"/><rect ry=".69" rx=".69" height="6.98" width="169.57" y="210" x="31.52" class="cls-2"/><rect ry=".68" rx=".68" height="6.93" width="169.57" y="216.87" x="31.52" class="cls-2"/><rect ry=".7" rx=".7" height="7.21" width="169.57" y="223.79" x="31.52" class="cls-2"/><rect ry=".72" rx=".72" height="7.77" width="169.56" y="231" x="31.52" class="cls-2"/><rect ry=".52" rx=".52" height="3.98" width="169.57" y="238.25" x="31.52" class="cls-2"/><rect ry=".36" rx=".36" height="1.97" width="169.56" y="241.24" x="31.52" class="cls-2"/><rect ry=".46" rx=".46" height="3.09" width="169.56" y="242.18" x="31.52" class="cls-2"/><rect ry=".53" rx=".53" height="4.2" width="169.56" y="244.14" x="31.52" class="cls-2"/><rect ry=".57" rx=".57" height="4.84" width="169.56" y="246.97" x="31.52" class="cls-2"/><rect ry=".61" rx=".61" height="5.6" width="169.57" y="250.56" x="31.52" class="cls-2"/><rect ry=".66" rx=".66" height="6.39" width="169.56" y="254.91" x="31.52" class="cls-2"/><rect ry=".7" rx=".7" height="7.26" width="169.57" y="259.83" x="31.51" class="cls-2"/><line y2="9.83" x2="200.89" y1="9.83" x1="30.6" class="cls-2"/><rect height="1.95" width=".3" y="8.85" x="30.45"/><rect height="1.95" width=".3" y="8.85" x="200.74"/><path d="M102.15.92c.21.08.39.19.54.33.15.14.27.31.35.51.08.2.13.42.13.67,0,.14-.02.28-.05.42-.03.14-.08.28-.15.41-.07.14-.16.27-.27.42-.11.14-.24.29-.39.45l-1.31,1.35h2.29v.67h-3.32v-.59l1.79-1.85c.12-.12.22-.23.3-.33.08-.1.15-.21.2-.3.05-.1.09-.19.11-.29.02-.09.03-.19.03-.29,0-.15-.02-.28-.07-.4-.04-.12-.11-.23-.2-.32-.09-.09-.19-.16-.3-.21-.11-.05-.24-.07-.39-.07-.25,0-.47.08-.65.23-.18.15-.31.36-.39.63l-.67-.23c.12-.42.32-.74.62-.97s.66-.34,1.1-.34c.25,0,.48.04.69.12Z"/><path d="M106.7,1c.25.13.47.32.65.55.18.23.32.52.42.85.1.33.15.69.15,1.08s-.05.76-.15,1.1-.24.62-.42.86c-.18.24-.4.43-.65.56-.25.13-.52.2-.83.2s-.57-.07-.82-.2-.47-.32-.65-.56c-.18-.24-.32-.53-.42-.86-.1-.33-.15-.7-.15-1.1s.05-.75.15-1.08c.1-.33.24-.61.42-.85.18-.24.4-.42.65-.55.25-.13.53-.2.83-.2s.58.07.83.2ZM105.35,1.63c-.16.1-.29.23-.41.41-.11.18-.2.38-.27.63-.07.24-.1.51-.1.81s.03.57.09.82c.06.25.15.46.27.64.12.18.25.32.41.42.16.1.33.15.52.15s.37-.05.53-.15c.16-.1.3-.24.41-.42.11-.18.2-.39.27-.64.06-.25.09-.52.09-.82s-.03-.56-.09-.81c-.06-.25-.15-.46-.26-.63-.11-.17-.25-.31-.41-.41-.16-.1-.34-.15-.53-.15s-.37.05-.52.15Z"/><path d="M111.33,1c.25.13.47.32.65.55.18.23.32.52.42.85.1.33.15.69.15,1.08s-.05.76-.15,1.1-.24.62-.42.86c-.18.24-.4.43-.65.56-.25.13-.52.2-.83.2s-.57-.07-.82-.2-.47-.32-.65-.56c-.18-.24-.32-.53-.42-.86-.1-.33-.15-.7-.15-1.1s.05-.75.15-1.08c.1-.33.24-.61.42-.85.18-.24.4-.42.65-.55.25-.13.53-.2.83-.2s.58.07.83.2ZM109.98,1.63c-.16.1-.29.23-.41.41-.11.18-.2.38-.27.63-.07.24-.1.51-.1.81s.03.57.09.82c.06.25.15.46.27.64.12.18.25.32.41.42.16.1.33.15.52.15s.37-.05.53-.15c.16-.1.3-.24.41-.42.11-.18.2-.39.27-.64.06-.25.09-.52.09-.82s-.03-.56-.09-.81c-.06-.25-.15-.46-.26-.63-.11-.17-.25-.31-.41-.41-.16-.1-.34-.15-.53-.15s-.37.05-.52.15Z"/><path d="M115.97,1c.25.13.47.32.65.55.18.23.32.52.42.85.1.33.15.69.15,1.08s-.05.76-.15,1.1-.24.62-.42.86c-.18.24-.4.43-.65.56-.25.13-.52.2-.83.2s-.57-.07-.82-.2-.47-.32-.65-.56c-.18-.24-.32-.53-.42-.86-.1-.33-.15-.7-.15-1.1s.05-.75.15-1.08c.1-.33.24-.61.42-.85.18-.24.4-.42.65-.55.25-.13.53-.2.83-.2s.58.07.83.2ZM114.62,1.63c-.16.1-.29.23-.41.41-.11.18-.2.38-.27.63-.07.24-.1.51-.1.81s.03.57.09.82c.06.25.15.46.27.64.12.18.25.32.41.42.16.1.33.15.52.15s.37-.05.53-.15c.16-.1.3-.24.41-.42.11-.18.2-.39.27-.64.06-.25.09-.52.09-.82s-.03-.56-.09-.81c-.06-.25-.15-.46-.26-.63-.11-.17-.25-.31-.41-.41-.16-.1-.34-.15-.53-.15s-.37.05-.52.15Z"/><path d="M120.8,2.5v.67c.11-.24.26-.42.45-.54.18-.12.4-.18.63-.18.26,0,.48.07.67.2.19.14.32.33.41.59.11-.26.27-.45.46-.59.2-.14.43-.2.7-.2.38,0,.67.12.88.37.21.25.31.61.31,1.07v2.25h-.7v-2.16c0-.29-.07-.52-.2-.69-.13-.17-.31-.25-.54-.25-.12,0-.22.02-.32.07-.1.05-.18.11-.26.2-.07.09-.13.19-.16.32-.04.12-.06.26-.06.4v2.11h-.7v-2.16c0-.14-.02-.27-.06-.38-.04-.12-.09-.22-.15-.3-.06-.08-.14-.14-.23-.19-.09-.04-.2-.07-.31-.07s-.22.02-.32.07c-.1.05-.18.12-.25.21-.07.09-.12.2-.17.32-.04.12-.06.26-.06.41v2.09h-.7v-3.64h.68Z"/><path d="M126.98,2.5v.67c.11-.24.26-.42.45-.54.18-.12.4-.18.63-.18.26,0,.48.07.67.2.19.14.32.33.41.59.11-.26.27-.45.46-.59.2-.14.43-.2.7-.2.38,0,.67.12.88.37.21.25.31.61.31,1.07v2.25h-.7v-2.16c0-.29-.07-.52-.2-.69-.13-.17-.31-.25-.54-.25-.12,0-.22.02-.32.07-.1.05-.18.11-.26.2-.07.09-.13.19-.16.32-.04.12-.06.26-.06.4v2.11h-.7v-2.16c0-.14-.02-.27-.06-.38-.04-.12-.09-.22-.15-.3-.06-.08-.14-.14-.23-.19-.09-.04-.2-.07-.31-.07s-.22.02-.32.07c-.1.05-.18.12-.25.21-.07.09-.12.2-.17.32-.04.12-.06.26-.06.41v2.09h-.7v-3.64h.68Z"/><line y2="24.98" x2="11.31" y1="167.12" x1="11.31" class="cls-2"/><rect height=".3" width="1.95" y="166.97" x="10.34"/><rect height=".3" width="1.95" y="24.83" x="10.34"/><path d="M3.01,108.92h5.29v.72H3.76l.64,1.3h-.73l-.67-1.36v-.67Z"/><path d="M8.18,106.95c-.12.24-.29.44-.51.61-.22.17-.5.3-.82.39s-.69.14-1.09.14-.8-.05-1.15-.15c-.35-.1-.64-.24-.89-.43-.25-.18-.43-.41-.56-.67-.13-.26-.2-.55-.2-.88,0-.37.09-.7.27-.97.18-.27.43-.47.76-.59l.29.64c-.21.07-.37.18-.48.34-.11.16-.17.35-.17.56,0,.2.05.38.14.55s.23.31.4.44c.17.13.37.22.61.29s.49.1.77.1h.17c.06,0,.1,0,.15,0-.25-.08-.45-.23-.59-.45-.14-.22-.21-.48-.21-.79,0-.24.04-.46.12-.65.08-.2.19-.36.34-.5.15-.14.32-.25.52-.33.2-.08.42-.12.66-.12s.47.04.68.13c.21.08.38.2.53.35.14.15.26.32.34.53s.12.43.12.68c0,.3-.06.57-.18.81ZM7.61,105.79c-.05-.12-.12-.22-.21-.3-.09-.08-.19-.15-.31-.2-.12-.05-.26-.07-.41-.07s-.29.02-.41.07c-.12.05-.23.12-.32.2s-.16.19-.21.31-.07.25-.07.4.02.27.07.39.12.22.2.31c.09.09.19.15.31.2.12.05.25.07.4.07s.28-.03.41-.08.24-.12.34-.21.17-.2.22-.32c.05-.12.08-.26.08-.4s-.03-.26-.08-.38Z"/><path d="M8.25,102.81c-.07.22-.17.4-.31.56-.13.15-.29.28-.47.36s-.38.13-.6.13c-.16,0-.31-.02-.45-.07-.15-.05-.28-.11-.4-.2-.12-.09-.22-.19-.3-.31s-.14-.25-.18-.4c-.05.14-.12.25-.2.36-.08.1-.17.19-.27.27s-.21.13-.33.17c-.12.04-.25.06-.38.06-.21,0-.39-.04-.56-.12-.17-.08-.32-.2-.44-.34-.13-.14-.22-.32-.29-.52-.07-.2-.1-.42-.1-.66s.03-.46.1-.66c.07-.2.17-.37.29-.52.12-.15.27-.26.44-.35.17-.08.36-.13.57-.13.13,0,.26.02.38.06.12.04.24.1.34.17.1.07.19.16.27.27.08.1.14.22.19.35.04-.15.1-.28.18-.4s.19-.22.31-.3c.12-.08.25-.15.4-.2.14-.05.29-.07.45-.07.21,0,.41.04.6.13.18.09.34.21.47.36.13.15.24.34.31.56.07.22.11.46.11.72s-.04.5-.11.72ZM3.69,102.44c.04.11.09.2.16.28.07.08.15.14.26.18s.21.07.33.07c.11,0,.22-.02.32-.07.1-.04.19-.11.26-.19.07-.08.13-.17.17-.28s.06-.23.06-.35-.02-.25-.06-.35c-.04-.1-.1-.2-.17-.28s-.16-.14-.26-.19c-.1-.04-.21-.07-.32-.07-.12,0-.23.02-.33.07-.1.04-.19.11-.26.19-.07.08-.12.17-.16.28-.04.11-.06.23-.06.36s.02.24.06.35ZM7.62,101.67c-.04-.13-.11-.23-.19-.32-.08-.09-.18-.16-.29-.21-.11-.05-.24-.08-.37-.08s-.26.03-.37.08c-.11.05-.21.12-.29.21-.08.09-.15.2-.2.33-.05.13-.07.26-.07.41s.02.28.07.41c.04.13.11.23.19.33s.18.16.3.21c.11.05.24.07.37.07.14,0,.27-.02.38-.07.11-.05.21-.12.29-.21.08-.09.14-.2.19-.33.04-.13.07-.26.07-.41s-.02-.29-.07-.41Z"/><path d="M3.16,96.9c.13-.25.32-.47.55-.65.23-.18.52-.32.85-.42.33-.1.69-.15,1.08-.15s.76.05,1.1.15.62.24.86.42c.24.18.43.4.56.65.13.25.2.52.2.83s-.07.57-.2.82-.32.47-.56.65c-.24.18-.53.32-.86.42-.33.1-.7.15-1.1.15s-.75-.05-1.08-.15c-.33-.1-.61-.24-.85-.42-.24-.18-.42-.4-.55-.65-.13-.25-.2-.53-.2-.83s.07-.58.2-.83ZM3.79,98.25c.1.16.23.29.41.41.18.11.38.2.63.27.24.07.51.1.81.1s.57-.03.82-.09c.25-.06.46-.15.64-.27.18-.12.32-.25.42-.41.1-.16.15-.33.15-.52s-.05-.37-.15-.53c-.1-.16-.24-.3-.42-.41-.18-.11-.39-.2-.64-.27-.25-.06-.52-.09-.82-.09s-.56.03-.81.09c-.25.06-.46.15-.63.26-.17.11-.31.25-.41.41-.1.16-.15.34-.15.53s.05.37.15.52Z"/><path d="M4.66,92.07h.67c-.24-.11-.42-.26-.54-.45-.12-.18-.18-.4-.18-.63,0-.26.07-.48.2-.67.14-.19.33-.32.59-.41-.26-.11-.45-.27-.59-.46-.14-.2-.2-.43-.2-.7,0-.38.12-.67.37-.88.25-.21.61-.31,1.07-.31h2.25v.7h-2.16c-.29,0-.52.07-.69.2-.17.13-.25.31-.25.54,0,.12.02.22.07.32.05.1.11.18.2.26.09.07.19.13.32.16.12.04.26.06.4.06h2.11v.7h-2.16c-.14,0-.27.02-.38.06-.12.04-.22.09-.3.15-.08.06-.14.14-.19.23-.04.09-.07.2-.07.31s.02.22.07.32c.05.1.12.18.21.25.09.07.2.12.32.17.12.04.26.06.41.06h2.09v.7h-3.64v-.68Z"/><path d="M4.66,85.88h.67c-.24-.11-.42-.26-.54-.45-.12-.18-.18-.4-.18-.63,0-.26.07-.48.2-.67.14-.19.33-.32.59-.41-.26-.11-.45-.27-.59-.46-.14-.2-.2-.43-.2-.7,0-.38.12-.67.37-.88.25-.21.61-.31,1.07-.31h2.25v.7h-2.16c-.29,0-.52.07-.69.2-.17.13-.25.31-.25.54,0,.12.02.22.07.32.05.1.11.18.2.26.09.07.19.13.32.16.12.04.26.06.4.06h2.11v.7h-2.16c-.14,0-.27.02-.38.06-.12.04-.22.09-.3.15-.08.06-.14.14-.19.23-.04.09-.07.2-.07.31s.02.22.07.32c.05.1.12.18.21.25.09.07.2.12.32.17.12.04.26.06.41.06h2.09v.7h-3.64v-.68Z"/><line y2="188.47" x2="11.31" y1="288.22" x1="11.31" class="cls-2"/><rect height=".3" width="1.95" y="288.07" x="10.34"/><rect height=".3" width="1.95" y="188.32" x="10.34"/><path d="M3.01,250.51h5.29v.72H3.76l.64,1.3h-.73l-.67-1.36v-.67Z"/><path d="M3.01,247.68h5.29v.72H3.76l.64,1.3h-.73l-.67-1.36v-.67Z"/><path d="M8.25,245.8c-.07.22-.17.4-.31.56-.13.15-.29.28-.47.36s-.38.13-.6.13c-.16,0-.31-.02-.45-.07-.15-.05-.28-.11-.4-.2-.12-.09-.22-.19-.3-.31s-.14-.25-.18-.4c-.05.14-.12.25-.2.36-.08.1-.17.19-.27.27s-.21.13-.33.17c-.12.04-.25.06-.38.06-.21,0-.39-.04-.56-.12-.17-.08-.32-.2-.44-.34-.13-.14-.22-.32-.29-.52-.07-.2-.1-.42-.1-.66s.03-.46.1-.66c.07-.2.17-.37.29-.52.12-.15.27-.26.44-.35.17-.08.36-.13.57-.13.13,0,.26.02.38.06.12.04.24.1.34.17.1.07.19.16.27.27.08.1.14.22.19.35.04-.15.1-.28.18-.4s.19-.22.31-.3c.12-.08.25-.15.4-.2.14-.05.29-.07.45-.07.21,0,.41.04.6.13.18.09.34.21.47.36.13.15.24.34.31.56.07.22.11.46.11.72s-.04.5-.11.72ZM3.69,245.43c.04.11.09.2.16.28.07.08.15.14.26.18s.21.07.33.07c.11,0,.22-.02.32-.07.1-.04.19-.11.26-.19.07-.08.13-.17.17-.28s.06-.23.06-.35-.02-.25-.06-.35c-.04-.1-.1-.2-.17-.28s-.16-.14-.26-.19c-.1-.04-.21-.07-.32-.07-.12,0-.23.02-.33.07-.1.04-.19.11-.26.19-.07.08-.12.17-.16.28-.04.11-.06.23-.06.36s.02.24.06.35ZM7.62,244.67c-.04-.13-.11-.23-.19-.32-.08-.09-.18-.16-.29-.21-.11-.05-.24-.08-.37-.08s-.26.03-.37.08c-.11.05-.21.12-.29.21-.08.09-.15.2-.2.33-.05.13-.07.26-.07.41s.02.28.07.41c.04.13.11.23.19.33s.18.16.3.21c.11.05.24.07.37.07.14,0,.27-.02.38-.07.11-.05.21-.12.29-.21.08-.09.14-.2.19-.33.04-.13.07-.26.07-.41s-.02-.29-.07-.41Z"/><path d="M3.16,239.89c.13-.25.32-.47.55-.65.23-.18.52-.32.85-.42.33-.1.69-.15,1.08-.15s.76.05,1.1.15.62.24.86.42c.24.18.43.4.56.65.13.25.2.52.2.83s-.07.57-.2.82-.32.47-.56.65c-.24.18-.53.32-.86.42-.33.1-.7.15-1.1.15s-.75-.05-1.08-.15c-.33-.1-.61-.24-.85-.42-.24-.18-.42-.4-.55-.65-.13-.25-.2-.53-.2-.83s.07-.58.2-.83ZM3.79,241.24c.1.16.23.29.41.41.18.11.38.2.63.27.24.07.51.1.81.1s.57-.03.82-.09c.25-.06.46-.15.64-.27.18-.12.32-.25.42-.41.1-.16.15-.33.15-.52s-.05-.37-.15-.53c-.1-.16-.24-.3-.42-.41-.18-.11-.39-.2-.64-.27-.25-.06-.52-.09-.82-.09s-.56.03-.81.09c-.25.06-.46.15-.63.26-.17.11-.31.25-.41.41-.1.16-.15.34-.15.53s.05.37.15.52Z"/><path d="M4.66,235.06h.67c-.24-.11-.42-.26-.54-.45-.12-.18-.18-.4-.18-.63,0-.26.07-.48.2-.67.14-.19.33-.32.59-.41-.26-.11-.45-.27-.59-.46-.14-.2-.2-.43-.2-.7,0-.38.12-.67.37-.88.25-.21.61-.31,1.07-.31h2.25v.7h-2.16c-.29,0-.52.07-.69.2-.17.13-.25.31-.25.54,0,.12.02.22.07.32.05.1.11.18.2.26.09.07.19.13.32.16.12.04.26.06.4.06h2.11v.7h-2.16c-.14,0-.27.02-.38.06-.12.04-.22.09-.3.15-.08.06-.14.14-.19.23-.04.09-.07.2-.07.31s.02.22.07.32c.05.1.12.18.21.25.09.07.2.12.32.17.12.04.26.06.41.06h2.09v.7h-3.64v-.68Z"/><path d="M4.66,228.88h.67c-.24-.11-.42-.26-.54-.45-.12-.18-.18-.4-.18-.63,0-.26.07-.48.2-.67.14-.19.33-.32.59-.41-.26-.11-.45-.27-.59-.46-.14-.2-.2-.43-.2-.7,0-.38.12-.67.37-.88.25-.21.61-.31,1.07-.31h2.25v.7h-2.16c-.29,0-.52.07-.69.2-.17.13-.25.31-.25.54,0,.12.02.22.07.32.05.1.11.18.2.26.09.07.19.13.32.16.12.04.26.06.4.06h2.11v.7h-2.16c-.14,0-.27.02-.38.06-.12.04-.22.09-.3.15-.08.06-.14.14-.19.23-.04.09-.07.2-.07.31s.02.22.07.32c.05.1.12.18.21.25.09.07.2.12.32.17.12.04.26.06.41.06h2.09v.7h-3.64v-.68Z"/></g></g></svg>