<svg viewBox="0 0 531.26 288" xmlns="http://www.w3.org/2000/svg" id="Urban"><defs><style>.cls-1{stroke:#12100a;stroke-miterlimit:10;stroke-width:.3px;}.cls-1,.cls-2{fill:none;}.cls-2{stroke:#000;stroke-linecap:round;stroke-linejoin:round;stroke-width:.3px;}.cls-3{fill:#12100a;}</style></defs><g id="Frame"><g id="charging_point"><g id="LINE"><line y2="93.63" x2="158.76" y1="93.63" x1="158.77" class="cls-1"/></g><g id="LINE-2"><line y2="93.63" x2="136.87" y1="93.63" x1="136.88" class="cls-1"/></g><g id="LINE-3"><path d="M136.79,264.91h-1.19V83.85h1.19" class="cls-1"/></g><g id="LINE-4"><path d="M158.9,83.85h1.19v181.06h-1.19" class="cls-1"/></g><g id="LINE-5"><polyline points="137.8 82.57 137.8 82.21 139.16 82.21 156.48 82.21 157.85 82.21 157.85 82.57" class="cls-1"/></g><g id="LINE-6"><rect height="200.68" width="21.88" y="82.8" x="136.88" class="cls-1"/></g><g id="LINE-7"><line y2="52.7" x2="44.2" y1="52.68" x1="44.2" class="cls-1"/></g><g id="LINE-8"><line y2="52.68" x2="49.36" y1="52.7" x1="49.36" class="cls-1"/></g><g id="LINE-9"><line y2="52.68" x2="49.89" y1="52.7" x1="49.89" class="cls-1"/></g><g id="LINE-10"><line y2="52.7" x2="47.33" y1="52.68" x1="47.33" class="cls-1"/></g><g id="LINE-11"><line y2="52.7" x2="47.86" y1="52.68" x1="47.86" class="cls-1"/></g><g id="LINE-12"><line y2="30.78" x2="53.02" y1="30.79" x1="53.02" class="cls-1"/></g><g id="LINE-13"><line y2="30.79" x2="47.86" y1="30.78" x1="47.86" class="cls-1"/></g><g id="LINE-14"><line y2="30.79" x2="47.33" y1="30.78" x1="47.33" class="cls-1"/></g><g id="LINE-15"><line y2="30.78" x2="49.89" y1="30.79" x1="49.89" class="cls-1"/></g><g id="LINE-16"><line y2="30.78" x2="49.36" y1="30.79" x1="49.36" class="cls-1"/></g><g id="ARC"><path d="M31.47,51.77h73.05c.76,0,1.37-.61,1.37-1.37v-17.33c0-.76-.61-1.37-1.37-1.37H31.47c-.76,0-1.37.61-1.37,1.37v17.33c0,.76.61,1.37,1.37,1.37" class="cls-1"/></g><g id="LINE-17"><polygon points="107.26 30.79 107.26 52.68 28.73 52.68 28.73 30.79 29.46 30.79 107.26 30.79" class="cls-1"/></g><path transform="translate(208.86 106.57) rotate(180)" d="M102.95,52.69h2.96c.19,0,.35.16.35.35v.84h-3.65v-.84c0-.19.16-.35.35-.35Z" class="cls-1"/><path transform="translate(199.09 106.57) rotate(180)" d="M98.06,52.69h2.96c.19,0,.35.16.35.35v.84h-3.65v-.84c0-.19.16-.35.35-.35Z" class="cls-1"/><path transform="translate(189.32 106.57) rotate(180)" d="M93.18,52.69h2.96c.19,0,.35.16.35.35v.84h-3.65v-.84c0-.19.16-.35.35-.35Z" class="cls-1"/><path transform="translate(179.55 106.57) rotate(180)" d="M88.29,52.69h2.96c.19,0,.35.16.35.35v.84h-3.65v-.84c0-.19.16-.35.35-.35Z" class="cls-1"/><path transform="translate(169.77 106.57) rotate(180)" d="M83.41,52.69h2.96c.19,0,.35.16.35.35v.84h-3.65v-.84c0-.19.16-.35.35-.35Z" class="cls-1"/><path transform="translate(160 106.57) rotate(180)" d="M78.52,52.69h2.96c.19,0,.35.16.35.35v.84h-3.65v-.84c0-.19.16-.35.35-.35Z" class="cls-1"/><path transform="translate(150.23 106.57) rotate(180)" d="M73.64,52.69h2.96c.19,0,.35.16.35.35v.84h-3.65v-.84c0-.19.16-.35.35-.35Z" class="cls-1"/><path transform="translate(140.46 106.57) rotate(180)" d="M68.75,52.69h2.96c.19,0,.35.16.35.35v.84h-3.65v-.84c0-.19.16-.35.35-.35Z" class="cls-1"/><path transform="translate(208.86 60.37) rotate(-180)" d="M102.6,29.59h3.65v.84c0,.19-.16.35-.35.35h-2.96c-.19,0-.35-.16-.35-.35v-.84h0Z" class="cls-1"/><path transform="translate(199.09 60.37) rotate(-180)" d="M97.72,29.59h3.65v.84c0,.19-.16.35-.35.35h-2.96c-.19,0-.35-.16-.35-.35v-.84h0Z" class="cls-1"/><path transform="translate(189.32 60.37) rotate(-180)" d="M92.83,29.59h3.65v.84c0,.19-.16.35-.35.35h-2.96c-.19,0-.35-.16-.35-.35v-.84h0Z" class="cls-1"/><path transform="translate(179.55 60.37) rotate(-180)" d="M87.95,29.59h3.65v.84c0,.19-.16.35-.35.35h-2.96c-.19,0-.35-.16-.35-.35v-.84h0Z" class="cls-1"/><path transform="translate(169.77 60.37) rotate(-180)" d="M83.06,29.59h3.65v.84c0,.19-.16.35-.35.35h-2.96c-.19,0-.35-.16-.35-.35v-.84h0Z" class="cls-1"/><path transform="translate(160 60.37) rotate(-180)" d="M78.18,29.59h3.65v.84c0,.19-.16.35-.35.35h-2.96c-.19,0-.35-.16-.35-.35v-.84h0Z" class="cls-1"/><path transform="translate(150.23 60.37) rotate(-180)" d="M73.29,29.59h3.65v.84c0,.19-.16.35-.35.35h-2.96c-.19,0-.35-.16-.35-.35v-.84h0Z" class="cls-1"/><path transform="translate(140.46 60.37) rotate(-180)" d="M68.4,29.59h3.65v.84c0,.19-.16.35-.35.35h-2.96c-.19,0-.35-.16-.35-.35v-.84h0Z" class="cls-1"/><line y2="15.42" x2="107.11" y1="15.42" x1="28.88" class="cls-1"/><rect height="1.95" width=".3" y="14.45" x="28.73" class="cls-3"/><rect height="1.95" width=".3" y="14.45" x="106.96" class="cls-3"/><line y2="29.56" x2="14.55" y1="53.91" x1="14.55" class="cls-1"/><rect height=".3" width="1.95" y="53.76" x="13.58" class="cls-3"/><rect height=".3" width="1.95" y="29.41" x="13.58" class="cls-3"/><line y2="82.37" x2="14.55" y1="283.33" x1="14.55" class="cls-1"/><rect height=".3" width="1.95" y="283.18" x="13.57" class="cls-3"/><rect height=".3" width="1.95" y="82.22" x="13.57" class="cls-3"/><path d="M4.56,196.01c.08-.21.19-.39.33-.54.14-.15.31-.27.51-.35.2-.08.42-.13.67-.13.14,0,.28.02.42.05s.28.08.41.15.27.16.42.27c.14.11.29.24.45.39l1.35,1.31v-2.29h.67v3.32h-.59l-1.85-1.79c-.12-.12-.23-.22-.33-.3-.1-.08-.21-.15-.3-.2-.1-.05-.19-.09-.29-.11-.09-.02-.19-.03-.29-.03-.15,0-.28.02-.4.07-.12.04-.23.11-.32.2-.09.09-.16.19-.21.3-.05.11-.07.24-.07.39,0,.25.08.47.23.65.15.18.36.31.63.39l-.23.67c-.42-.12-.75-.32-.97-.62s-.34-.66-.34-1.1c0-.25.04-.48.12-.69Z"/><path d="M4.56,191.98c.08-.21.19-.39.33-.54.14-.15.31-.27.51-.35.2-.08.42-.13.67-.13.14,0,.28.02.42.05s.28.08.41.15.27.16.42.27c.14.11.29.24.45.39l1.35,1.31v-2.29h.67v3.32h-.59l-1.85-1.79c-.12-.12-.23-.22-.33-.3-.1-.08-.21-.15-.3-.2-.1-.05-.19-.09-.29-.11-.09-.02-.19-.03-.29-.03-.15,0-.28.02-.4.07-.12.04-.23.11-.32.2-.09.09-.16.19-.21.3-.05.11-.07.24-.07.39,0,.25.08.47.23.65.15.18.36.31.63.39l-.23.67c-.42-.12-.75-.32-.97-.62s-.34-.66-.34-1.1c0-.25.04-.48.12-.69Z"/><path d="M4.65,187.43c.13-.25.32-.47.55-.65.23-.18.52-.32.85-.42.33-.1.69-.15,1.08-.15s.76.05,1.1.15c.33.1.62.24.86.42s.43.4.56.65c.13.25.2.52.2.83s-.07.57-.2.82-.32.47-.56.65c-.24.18-.53.32-.86.42-.33.1-.7.15-1.1.15s-.75-.05-1.08-.15c-.33-.1-.61-.24-.85-.42-.24-.18-.42-.4-.55-.65-.13-.25-.2-.53-.2-.83s.07-.58.2-.83ZM5.28,188.79c.1.16.23.29.41.41.18.11.38.2.63.27.24.07.51.1.8.1s.57-.03.82-.09c.25-.06.46-.15.64-.27.18-.12.32-.25.42-.41.1-.16.15-.33.15-.52s-.05-.37-.15-.53c-.1-.16-.24-.3-.42-.41-.18-.11-.39-.2-.64-.27-.25-.06-.52-.09-.82-.09s-.56.03-.81.09c-.25.06-.46.15-.63.26-.17.11-.31.25-.41.41-.1.16-.15.34-.15.53s.05.37.15.52Z"/><path d="M4.5,182.61h5.29v.73h-4.36s.08.04.1.06c.03.02.06.04.09.07l2.02,1.35s.06.04.08.05c.02,0,.05.03.08.06v-3.2h.64v3.98h-.59l-3.35-2.22v-.87Z"/><path d="M6.15,178.23h.67c-.24-.11-.42-.26-.54-.45s-.18-.4-.18-.63c0-.26.07-.48.2-.67.14-.19.33-.32.59-.41-.26-.11-.45-.27-.59-.46-.13-.2-.2-.43-.2-.7,0-.38.12-.67.37-.88s.61-.31,1.07-.31h2.25v.7h-2.16c-.29,0-.52.07-.69.2-.17.13-.25.31-.25.54,0,.12.02.22.07.32.05.1.11.18.2.26.09.07.2.13.32.16.12.04.26.06.4.06h2.11v.7h-2.16c-.14,0-.27.02-.38.06-.12.04-.22.09-.3.15-.08.06-.14.14-.19.23-.04.09-.07.2-.07.31s.02.22.07.32c.05.1.12.18.21.25s.2.12.32.17c.12.04.26.06.41.06h2.09v.7h-3.64v-.68Z"/><path d="M6.15,172.05h.67c-.24-.11-.42-.26-.54-.45s-.18-.4-.18-.63c0-.26.07-.48.2-.67.14-.19.33-.32.59-.41-.26-.11-.45-.27-.59-.46-.13-.2-.2-.43-.2-.7,0-.38.12-.67.37-.88s.61-.31,1.07-.31h2.25v.7h-2.16c-.29,0-.52.07-.69.2-.17.13-.25.31-.25.54,0,.12.02.22.07.32.05.1.11.18.2.26.09.07.2.13.32.16.12.04.26.06.4.06h2.11v.7h-2.16c-.14,0-.27.02-.38.06-.12.04-.22.09-.3.15-.08.06-.14.14-.19.23-.04.09-.07.2-.07.31s.02.22.07.32c.05.1.12.18.21.25s.2.12.32.17c.12.04.26.06.41.06h2.09v.7h-3.64v-.68Z"/><path d="M4.57,52.54c.08-.21.19-.39.33-.54.14-.15.31-.27.51-.35s.42-.13.67-.13c.14,0,.28.02.42.05.14.03.28.08.41.15.13.07.27.16.42.27s.29.24.45.39l1.35,1.31v-2.29h.67v3.32h-.59l-1.86-1.79c-.12-.12-.23-.22-.33-.3-.11-.08-.21-.15-.3-.2-.1-.05-.19-.09-.29-.11s-.19-.03-.29-.03c-.14,0-.28.02-.4.07s-.23.11-.32.2-.16.19-.21.3c-.05.11-.07.24-.07.39,0,.25.08.47.23.65.15.18.36.31.63.39l-.23.67c-.42-.12-.74-.32-.97-.62s-.34-.66-.34-1.1c0-.25.04-.48.12-.69Z"/><path d="M9.79,50.13l-4.62-1.78v2.69h-.67v-3.5h.59l4.7,1.77v.83Z"/><path d="M4.65,44.3c.13-.25.32-.47.55-.65.23-.18.52-.32.85-.42s.69-.15,1.08-.15.76.05,1.1.15c.33.1.62.24.86.42.24.18.43.4.56.65.13.25.2.52.2.83s-.07.57-.2.82-.32.47-.56.65c-.24.18-.53.32-.86.42-.33.1-.7.15-1.1.15s-.75-.05-1.08-.15c-.33-.1-.62-.24-.85-.42-.24-.18-.42-.4-.55-.65-.13-.25-.2-.53-.2-.83s.07-.58.2-.83ZM5.29,45.65c.1.16.23.29.41.41.17.11.38.2.63.27.24.07.51.1.81.1s.57-.03.82-.09c.25-.06.46-.15.64-.27.18-.12.32-.25.42-.41.1-.16.15-.33.15-.52s-.05-.37-.15-.53c-.1-.16-.24-.3-.42-.41-.18-.11-.39-.2-.64-.27s-.52-.09-.82-.09-.56.03-.81.09-.46.15-.63.26c-.17.11-.31.25-.41.41-.1.16-.15.34-.15.53s.05.37.15.52Z"/><path d="M6.15,39.47h.67c-.24-.11-.42-.26-.54-.45-.12-.18-.18-.4-.18-.63,0-.26.07-.48.2-.67s.33-.32.59-.41c-.26-.11-.45-.27-.59-.46s-.2-.43-.2-.7c0-.38.12-.67.38-.88.25-.21.61-.31,1.07-.31h2.25v.7h-2.16c-.29,0-.52.07-.69.2-.17.13-.25.31-.25.54,0,.12.02.22.07.32s.11.18.2.26.19.13.32.16c.12.04.26.06.4.06h2.11v.7h-2.16c-.14,0-.27.02-.38.06-.12.04-.22.09-.3.15s-.14.14-.19.23c-.04.09-.07.2-.07.31s.02.22.07.32.12.18.21.25c.09.07.2.12.32.17.12.04.26.06.41.06h2.09v.7h-3.64v-.68Z"/><path d="M6.15,33.29h.67c-.24-.11-.42-.26-.54-.45-.12-.18-.18-.4-.18-.63,0-.26.07-.48.2-.67s.33-.32.59-.41c-.26-.11-.45-.27-.59-.46s-.2-.43-.2-.7c0-.38.12-.67.38-.88.25-.21.61-.31,1.07-.31h2.25v.7h-2.16c-.29,0-.52.07-.69.2-.17.13-.25.31-.25.54,0,.12.02.22.07.32s.11.18.2.26.19.13.32.16c.12.04.26.06.4.06h2.11v.7h-2.16c-.14,0-.27.02-.38.06-.12.04-.22.09-.3.15s-.14.14-.19.23c-.04.09-.07.2-.07.31s.02.22.07.32.12.18.21.25c.09.07.2.12.32.17.12.04.26.06.41.06h2.09v.7h-3.64v-.68Z"/><path d="M55.59,10.61c-.22-.07-.4-.17-.56-.31-.15-.13-.28-.29-.36-.47s-.13-.38-.13-.6c0-.16.02-.31.07-.45.05-.15.11-.28.2-.4.09-.12.19-.22.31-.3s.25-.14.4-.18c-.14-.05-.25-.12-.36-.2-.1-.08-.19-.17-.27-.27s-.13-.21-.17-.33c-.04-.12-.06-.25-.06-.38,0-.21.04-.39.12-.56.08-.17.2-.32.34-.44.14-.13.32-.22.52-.29.2-.07.42-.1.66-.1s.46.03.66.1c.2.07.37.17.52.29.15.12.26.27.35.44.08.17.13.36.13.57,0,.13-.02.26-.06.38-.04.12-.1.24-.17.34-.07.1-.16.19-.27.27-.1.08-.22.14-.35.19.15.04.28.1.4.18s.22.19.3.31c.08.12.15.25.2.4.05.14.07.29.07.45,0,.21-.04.41-.13.6-.09.18-.21.34-.36.47-.15.13-.34.24-.56.31-.22.07-.46.11-.72.11s-.5-.04-.72-.11ZM56.72,9.98c.13-.04.23-.11.32-.19.09-.08.16-.18.21-.29.05-.11.08-.24.08-.37s-.03-.26-.08-.37c-.05-.11-.12-.21-.21-.29-.09-.08-.2-.15-.33-.2-.13-.05-.26-.07-.41-.07s-.28.02-.41.07c-.13.04-.23.11-.33.19s-.16.18-.21.3c-.05.11-.07.24-.07.37,0,.14.02.27.07.38.05.11.12.21.21.29.09.08.2.14.33.19.13.04.26.07.41.07s.29-.02.41-.07ZM55.95,6.05c-.11.04-.2.09-.28.16-.08.07-.14.15-.18.26s-.07.21-.07.33c0,.11.02.22.07.32.04.1.11.19.19.26.08.07.17.13.28.17s.23.06.35.06.25-.02.35-.06c.1-.04.2-.1.28-.17s.14-.16.19-.26c.04-.1.07-.21.07-.32,0-.12-.02-.23-.07-.33-.04-.1-.11-.19-.19-.26-.08-.07-.17-.12-.28-.16-.11-.04-.23-.06-.36-.06s-.24.02-.35.06Z"/><path d="M59.76,10.54c-.24-.12-.44-.29-.61-.51-.17-.22-.3-.5-.39-.82s-.14-.69-.14-1.09.05-.8.15-1.15c.1-.35.24-.64.43-.89.18-.25.41-.43.67-.56.26-.13.55-.2.88-.2.37,0,.7.09.97.27.27.18.47.43.59.76l-.64.29c-.07-.21-.18-.37-.34-.48-.16-.11-.35-.17-.56-.17-.2,0-.38.05-.55.14s-.31.23-.44.4c-.13.17-.22.37-.29.61s-.1.49-.1.77v.17c0,.06,0,.1,0,.15.08-.25.23-.45.45-.59.22-.14.48-.21.79-.21.24,0,.46.04.65.12.2.08.36.19.5.34.14.15.25.32.33.52.08.2.12.42.12.66s-.04.47-.13.68c-.08.21-.2.38-.35.53-.15.14-.32.26-.53.34s-.43.12-.68.12c-.3,0-.57-.06-.81-.18ZM60.93,9.97c.12-.05.22-.12.3-.21.08-.09.15-.19.2-.31.05-.12.07-.26.07-.41s-.02-.29-.07-.41c-.05-.12-.12-.23-.2-.32s-.19-.16-.31-.21-.25-.07-.4-.07-.27.02-.39.07-.22.12-.31.2c-.09.09-.15.19-.2.31-.05.12-.07.25-.07.4s.03.28.08.41.12.24.21.34.2.17.32.22c.12.05.26.08.4.08s.26-.03.38-.08Z"/><path d="M65.73,5.52c.25.13.47.32.65.55.18.23.32.52.42.85.1.33.15.69.15,1.08s-.05.76-.15,1.1-.24.62-.42.86c-.18.24-.4.43-.65.56-.25.13-.52.2-.83.2s-.57-.07-.82-.2-.47-.32-.65-.56c-.18-.24-.32-.53-.42-.86-.1-.33-.15-.7-.15-1.1s.05-.75.15-1.08c.1-.33.24-.61.42-.85.18-.24.4-.42.65-.55.25-.13.53-.2.83-.2s.58.07.83.2ZM64.38,6.15c-.16.1-.29.23-.41.41-.11.18-.2.38-.27.63-.07.24-.1.51-.1.81s.03.57.09.82c.06.25.15.46.27.64.12.18.25.32.41.42.16.1.33.15.52.15s.37-.05.53-.15c.16-.1.3-.24.41-.42.11-.18.2-.39.27-.64.06-.25.09-.52.09-.82s-.03-.56-.09-.81c-.06-.25-.15-.46-.26-.63-.11-.17-.25-.31-.41-.41-.16-.1-.34-.15-.53-.15s-.37.05-.52.15Z"/><path d="M70.56,7.02v.67c.11-.24.26-.42.45-.54.18-.12.4-.18.63-.18.26,0,.48.07.67.2.19.14.32.33.41.59.11-.26.27-.45.46-.59.2-.14.43-.2.7-.2.38,0,.67.12.88.37.21.25.31.61.31,1.07v2.25h-.7v-2.16c0-.29-.07-.52-.2-.69-.13-.17-.31-.25-.54-.25-.12,0-.22.02-.32.07-.1.05-.18.11-.26.2-.07.09-.13.19-.16.32-.04.12-.06.26-.06.4v2.11h-.7v-2.16c0-.14-.02-.27-.06-.38-.04-.12-.09-.22-.15-.3-.06-.08-.14-.14-.23-.19-.09-.04-.2-.07-.31-.07s-.22.02-.32.07c-.1.05-.18.12-.25.21-.07.09-.12.2-.17.32-.04.12-.06.26-.06.41v2.09h-.7v-3.64h.68Z"/><path d="M76.74,7.02v.67c.11-.24.26-.42.45-.54.18-.12.4-.18.63-.18.26,0,.48.07.67.2.19.14.32.33.41.59.11-.26.27-.45.46-.59.2-.14.43-.2.7-.2.38,0,.67.12.88.37.21.25.31.61.31,1.07v2.25h-.7v-2.16c0-.29-.07-.52-.2-.69-.13-.17-.31-.25-.54-.25-.12,0-.22.02-.32.07-.1.05-.18.11-.26.2-.07.09-.13.19-.16.32-.04.12-.06.26-.06.4v2.11h-.7v-2.16c0-.14-.02-.27-.06-.38-.04-.12-.09-.22-.15-.3-.06-.08-.14-.14-.23-.19-.09-.04-.2-.07-.31-.07s-.22.02-.32.07c-.1.05-.18.12-.25.21-.07.09-.12.2-.17.32-.04.12-.06.26-.06.41v2.09h-.7v-3.64h.68Z"/><g id="LINE-18"><line y2="82.96" x2="68.89" y1="264.87" x1="68.89" class="cls-2"/></g><path d="M28.72,82.23v201.25h78.54V82.23H28.72ZM72.79,265.01V82.97h28.09v182.05h-28.09Z" class="cls-2"/><rect height="182.05" width="3.64" y="82.97" x="72.79" class="cls-2"/><rect height="182.05" width="43.33" y="82.97" x="29.46" class="cls-2"/><rect height="182.05" width="3.64" y="82.97" x="77.69" class="cls-2"/><rect height="182.05" width="3.67" y="82.97" x="82.55" class="cls-2"/><rect height="182.05" width="1.22" y="82.97" x="86.22" class="cls-2"/><rect height="182.05" width="1.26" y="82.97" x="91.09" class="cls-2"/><rect height="182.05" width="3.64" y="82.97" x="87.45" class="cls-2"/><rect height="182.05" width="3.64" y="82.97" x="92.34" class="cls-2"/><rect height="182.05" width="3.67" y="82.97" x="97.21" class="cls-2"/><rect height="182.05" width="5.64" y="82.97" x="100.88" class="cls-2"/><rect transform="translate(135.98 548.55) rotate(180)" height="16.83" width="77.07" y="265.86" x="29.45" class="cls-2"/><g id="LINE-19"><line y2="82.96" x2="71.56" y1="265.01" x1="71.56" class="cls-2"/></g><g id="LINE-20"><line y2="82.96" x2="68.04" y1="264.87" x1="68.04" class="cls-2"/></g><g id="LINE-21"><line y2="265.01" x2="102.11" y1="82.96" x1="102.11" class="cls-2"/></g><g id="LINE-22"><polyline points="50.18 109.49 50.18 109.85 50.09 109.95 47.35 109.95 47.26 109.85 47.26 109.49" class="cls-2"/></g><rect transform="translate(97.45 192.45) rotate(180)" height="26.53" width="38.54" y="82.96" x="29.45" class="cls-2"/><rect transform="translate(97.5 458.48) rotate(180)" height="71.55" width="38.59" y="193.46" x="29.45" class="cls-2"/><rect height=".93" width="1.22" y="172.65" x="71.57" class="cls-2"/><rect height=".93" width="1.22" y="172.65" x="100.88" class="cls-2"/><rect height=".93" width="1.22" y="264.08" x="71.57" class="cls-2"/><rect height=".93" width="1.22" y="264.08" x="100.88" class="cls-2"/><rect height=".93" width="1.22" y="82.97" x="71.57" class="cls-2"/><rect height="182.05" width="1.26" y="82.97" x="76.43" class="cls-2"/><rect height="182.05" width="1.22" y="82.97" x="81.33" class="cls-2"/><rect height="182.05" width="1.22" y="82.97" x="95.98" class="cls-2"/><rect height=".93" width="1.22" y="82.97" x="100.88" class="cls-2"/><path d="M40.72,95.81v.84c0,.5.41.91.91.91h.31v-2.66h-.31c-.5,0-.91.41-.91.91Z"/><path d="M52.53,96.32c-.04-.18-.13-.31-.29-.37l-1.96-.88,1.3-4.52c.07-.22-.04-.48-.26-.57-.2-.11-.46-.07-.62.11l-4.65,5.8c-.09.11-.13.26-.09.42.02.15.13.26.26.33l1.85.88-1.92,4.34c-.11.22-.02.48.18.62.09.04.18.09.29.09.13,0,.26-.07.35-.15l5.42-5.64c.11-.13.15-.29.13-.44Z"/><path d="M46.63,99.29h-2.55c-.63,0-1.15-.51-1.15-1.15v-3.82c0-.63.51-1.15,1.15-1.15h3.36l.49-.61h-3.85c-.97,0-1.76.79-1.76,1.76v3.82c0,.97.79,1.76,1.76,1.76h2.28l.27-.61Z"/><path d="M54.41,92.56h-2.77l-.18.61h2.95c.63,0,1.15.51,1.15,1.15v3.82c0,.63-.51,1.15-1.15,1.15h-3.59l-.59.61h4.18c.97,0,1.76-.79,1.76-1.76v-3.82c0-.97-.79-1.76-1.76-1.76Z"/></g></g></svg>