<svg viewBox="0 0 531.26 288" xmlns="http://www.w3.org/2000/svg"><defs><style>.cls-1, .cls-2, .cls-3 {
        fill: #f1efea;
      }

      .cls-4 {
        stroke: #12100b;
      }

      .cls-4, .cls-5, .cls-2, .cls-6, .cls-7 {
        stroke-width: .3px;
      }

      .cls-4, .cls-5, .cls-8, .cls-6, .cls-7 {
        fill: none;
      }

      .cls-4, .cls-2, .cls-8, .cls-6, .cls-7 {
        stroke-miterlimit: 10;
      }

      .cls-5 {
        stroke-linecap: round;
        stroke-linejoin: round;
      }

      .cls-5, .cls-2, .cls-8, .cls-6, .cls-7 {
        stroke: #000;
      }

      .cls-9 {
        fill: #12100b;
      }

      .cls-10 {
        font-family: ZimulaVariable-Medium, &apos;Zimula Variable&apos;;
        font-size: 7px;
        font-variation-settings: &apos;wght&apos; 500, &apos;cnct&apos; 500;
        font-weight: 500;
        letter-spacing: 0em;
      }

      .cls-8 {
        stroke-width: .28px;
      }

      .cls-3, .cls-7 {
        fill-rule: evenodd;
      }</style></defs><g id="bases"><rect height="358.35" width="589.11" y="-33.95" x="-25.44" class="cls-8"/></g><g id="Golf"><g id="Campo_de_Golf"><g id="tee_totem_Heritage"><g id="LINE"><g><line y2="253.96" x2="294.12" y1="253.96" x1="341.32" class="cls-4"/><rect height="1.95" width=".3" y="252.98" x="341.17" class="cls-9"/><rect height="1.95" width=".3" y="252.98" x="293.97" class="cls-9"/></g></g><g id="MTEXT"><text transform="translate(303.99 250.03)" class="cls-10"><tspan y="0" x="0">340 mm</tspan></text></g><g id="LINE-2"><g><line y2="278.03" x2="274.95" y1="264.09" x1="274.95" class="cls-5"/><rect height=".3" width="1.95" y="263.94" x="273.98"/><rect height=".3" width="1.95" y="277.88" x="273.98"/></g></g><g id="MTEXT-2"><text transform="translate(271.03 284.35) rotate(-90)" class="cls-10"><tspan y="0" x="0">100 mm</tspan></text></g><g><rect height="1.4" width="47.5" y="276.69" x="293.97" class="cls-5"/><rect height="12.57" width="12.57" y="264.12" x="311.44" class="cls-5"/></g><g><path d="M50.54,26.77h9.03c.98,0,1.77.79,1.77,1.77v249.54h-12.57V28.55c0-.98.79-1.77,1.77-1.77Z" class="cls-2"/><g><path d="M31.4,40.12c0-6.8,2.63-12.96,6.91-17.43,4.28-4.47,10.2-7.24,16.74-7.25,6.55,0,12.48,2.75,16.78,7.21,4.3,4.47,6.97,10.64,6.97,17.46,0,0,0,12.72,0,28.93,0,28.4-.04,67.5-.04,67.5,0,6.81-2.65,12.98-6.94,17.45-4.29,4.47-10.22,7.24-16.76,7.24-6.55,0-12.48-2.76-16.78-7.23-4.3-4.47-6.96-10.65-6.96-17.47,0,0,0-12.72.01-28.93.02-28.4.08-67.5.08-67.5Z" class="cls-3"/><path d="M31.4,40.12c0-6.8,2.63-12.96,6.91-17.43,4.28-4.47,10.2-7.24,16.74-7.25,6.55,0,12.48,2.75,16.78,7.21,4.3,4.47,6.97,10.64,6.97,17.46,0,0,0,12.72,0,28.93,0,28.4-.04,67.5-.04,67.5,0,6.81-2.65,12.98-6.94,17.45-4.29,4.47-10.22,7.24-16.76,7.24-6.55,0-12.48-2.76-16.78-7.23-4.3-4.47-6.96-10.65-6.96-17.47,0,0,0-12.72.01-28.93.02-28.4.08-67.5.08-67.5Z" class="cls-7"/></g></g><g><g><path d="M198.15,40.12c0-6.8,2.63-12.96,6.91-17.43,4.28-4.47,10.2-7.24,16.74-7.25,6.55,0,12.48,2.75,16.78,7.21,4.3,4.47,6.97,10.64,6.97,17.46,0,0,0,12.72,0,28.93,0,28.4-.04,67.5-.04,67.5,0,6.81-2.65,12.98-6.94,17.45-4.29,4.47-10.22,7.24-16.76,7.24-6.55,0-12.48-2.76-16.78-7.23-4.3-4.47-6.96-10.65-6.96-17.47,0,0,0-12.72.01-28.93.02-28.4.08-67.5.08-67.5Z" class="cls-3"/><path d="M198.15,40.12c0-6.8,2.63-12.96,6.91-17.43,4.28-4.47,10.2-7.24,16.74-7.25,6.55,0,12.48,2.75,16.78,7.21,4.3,4.47,6.97,10.64,6.97,17.46,0,0,0,12.72,0,28.93,0,28.4-.04,67.5-.04,67.5,0,6.81-2.65,12.98-6.94,17.45-4.29,4.47-10.22,7.24-16.76,7.24-6.55,0-12.48-2.76-16.78-7.23-4.3-4.47-6.96-10.65-6.96-17.47,0,0,0-12.72.01-28.93.02-28.4.08-67.5.08-67.5Z" class="cls-7"/></g><path d="M217.3,26.77h9.03c.98,0,1.77.79,1.77,1.77v249.54h-12.57V28.55c0-.98.79-1.77,1.77-1.77Z" class="cls-2"/><g><rect ry="4.68" rx="4.68" height="94.1" width="9.36" y="41.29" x="217.13" class="cls-1"/><rect ry="4.68" rx="4.68" height="94.1" width="9.36" y="41.29" x="217.13" class="cls-6"/></g></g><g id="LINE-3"><g><line y2="277.94" x2="18.01" y1="15.6" x1="18.01" class="cls-4"/><rect height=".3" width="1.95" y="15.45" x="17.04" class="cls-9"/><rect height=".3" width="1.95" y="277.79" x="17.04" class="cls-9"/></g></g><g id="MTEXT-3"><text transform="translate(14.09 161.83) rotate(-90)" class="cls-10"><tspan y="0" x="0">1880 mm</tspan></text></g><rect height="250.66" width="12.53" y="27.42" x="129.12" class="cls-5"/><rect height="140" width="1.19" y="16.29" x="127.9" class="cls-5"/></g></g></g></svg>