<svg viewBox="0 0 531.26 288" version="1.1" xmlns="http://www.w3.org/2000/svg" id="Camada_1"><defs><style>.st0 {
        fill: #12100a;
      }

      .st1 {
        stroke: #000;
        stroke-miterlimit: 10;
        stroke-width: .28px;
      }

      .st1, .st2 {
        fill: none;
      }

      .st2 {
        stroke: #12100a;
        stroke-linecap: round;
        stroke-linejoin: round;
        stroke-width: .3px;
      }</style></defs><g id="bases"><rect height="358.35" width="589.11" y="-33.95" x="-25.44" class="st1"/></g><g id="Urban"><g id="Frame"><g id="pérgula_Bella_Vista"><g><path d="M355.16,219.01h.54l.95.62s.1.07.14.1.08.06.13.09c.04.03.08.06.13.09.04.03.09.06.14.09.02-.19.08-.35.17-.51.09-.15.2-.28.34-.4.14-.11.29-.2.47-.26.17-.06.37-.09.57-.09.23,0,.45.04.65.12.2.08.36.2.5.35.14.15.25.33.33.53s.12.42.12.67c0,.2-.03.39-.08.56-.05.18-.13.34-.22.48-.1.14-.22.27-.36.38-.14.11-.3.19-.47.25l-.3-.61c.23-.08.42-.21.56-.4.14-.19.21-.4.21-.65,0-.14-.02-.27-.07-.39-.04-.12-.11-.22-.2-.3s-.19-.15-.31-.2-.25-.07-.39-.07-.28.03-.41.08c-.12.05-.23.13-.31.22-.09.09-.15.2-.2.33-.05.13-.07.27-.07.42v.34l-.43.07-1.04-.69s-.08-.06-.12-.08c-.03-.02-.07-.05-.11-.08-.04-.03-.08-.06-.11-.08s-.07-.06-.11-.09v2.11h-.63v-2.99h-.01Z"/><path d="M355.3,215.44c.13-.24.31-.45.53-.62.23-.17.5-.31.82-.41s.67-.15,1.05-.15.74.05,1.06.15c.32.1.6.23.83.41.23.18.41.38.54.62.13.24.19.51.19.8s-.06.55-.19.8-.31.46-.54.63-.51.31-.83.41c-.32.1-.68.15-1.06.15s-.73-.05-1.05-.15-.6-.23-.82-.41-.41-.38-.53-.62-.19-.51-.19-.8.06-.56.19-.8h0ZM355.91,216.75c.1.15.23.28.4.39.17.11.37.2.61.26.23.06.49.09.78.09s.55-.03.8-.09c.24-.06.45-.15.62-.26.17-.11.31-.25.41-.4s.15-.32.15-.5-.05-.36-.15-.51-.23-.29-.41-.4-.38-.2-.62-.26-.5-.09-.79-.09-.55.03-.78.09c-.24.06-.44.15-.61.25-.17.11-.3.24-.4.4-.09.16-.14.33-.14.51s.05.35.14.51h0Z"/><path d="M355.3,210.95c.13-.24.31-.45.53-.62.23-.17.5-.31.82-.41s.67-.15,1.05-.15.74.05,1.06.15c.32.1.6.23.83.41.23.18.41.38.54.62.13.24.19.51.19.8s-.06.55-.19.8-.31.46-.54.63-.51.31-.83.41c-.32.1-.68.15-1.06.15s-.73-.05-1.05-.15-.6-.23-.82-.41-.41-.38-.53-.62-.19-.51-.19-.8.06-.56.19-.8h0ZM355.91,212.26c.1.15.23.28.4.39.17.11.37.2.61.26.23.06.49.09.78.09s.55-.03.8-.09c.24-.06.45-.15.62-.26.17-.11.31-.25.41-.4s.15-.32.15-.5-.05-.36-.15-.51-.23-.29-.41-.4-.38-.2-.62-.26-.5-.09-.79-.09-.55.03-.78.09c-.24.06-.44.15-.61.25-.17.11-.3.24-.4.4-.09.16-.14.33-.14.51s.05.35.14.51h0Z"/><path d="M355.3,206.47c.13-.24.31-.45.53-.62.23-.17.5-.31.82-.41s.67-.15,1.05-.15.74.05,1.06.15c.32.1.6.23.83.41.23.18.41.38.54.62.13.24.19.51.19.8s-.06.55-.19.8-.31.46-.54.63-.51.31-.83.41c-.32.1-.68.15-1.06.15s-.73-.05-1.05-.15-.6-.23-.82-.41-.41-.38-.53-.62-.19-.51-.19-.8.06-.56.19-.8h0ZM355.91,207.78c.1.15.23.28.4.39.17.11.37.2.61.26.23.06.49.09.78.09s.55-.03.8-.09c.24-.06.45-.15.62-.26.17-.11.31-.25.41-.4s.15-.32.15-.5-.05-.36-.15-.51-.23-.29-.41-.4-.38-.2-.62-.26-.5-.09-.79-.09-.55.03-.78.09c-.24.06-.44.15-.61.25-.17.11-.3.24-.4.4-.09.16-.14.33-.14.51s.05.35.14.51h0Z"/><path d="M356.75,201.79h.64c-.23-.11-.4-.25-.52-.43s-.18-.38-.18-.61c0-.25.07-.46.2-.64s.32-.31.57-.39c-.25-.11-.44-.26-.57-.45s-.2-.42-.2-.68c0-.37.12-.65.36-.85.24-.2.59-.3,1.03-.3h2.18v.68h-2.09c-.28,0-.5.06-.66.19s-.24.3-.24.52c0,.11.02.22.07.31.05.09.11.18.2.25.09.07.19.12.31.16s.25.05.39.05h2.04v.68h-2.09c-.14,0-.26.02-.37.05-.11.04-.21.08-.29.15s-.14.14-.18.22c-.04.09-.06.19-.06.3s.02.21.07.31c.05.1.11.18.2.24.09.07.19.12.31.16.12.04.25.06.4.06h2.03v.68h-3.52v-.66h-.03Z"/><path d="M356.75,195.81h.64c-.23-.11-.4-.25-.52-.43s-.18-.38-.18-.61c0-.25.07-.46.2-.64s.32-.31.57-.39c-.25-.11-.44-.26-.57-.45s-.2-.42-.2-.68c0-.37.12-.65.36-.85.24-.2.59-.3,1.03-.3h2.18v.68h-2.09c-.28,0-.5.06-.66.19s-.24.3-.24.52c0,.11.02.22.07.31.05.09.11.18.2.25.09.07.19.12.31.16s.25.05.39.05h2.04v.68h-2.09c-.14,0-.26.02-.37.05-.11.04-.21.08-.29.15s-.14.14-.18.22c-.04.09-.06.19-.06.3s.02.21.07.31c.05.1.11.18.2.24.09.07.19.12.31.16.12.04.25.06.4.06h2.03v.68h-3.52v-.66h-.03Z"/></g><g><line y2="280.2" x2="364.08" y1="131.06" x1="364.08" class="st2"/><rect height=".3" width="1.95" y="130.91" x="363.1" class="st0"/><rect height=".3" width="1.95" y="280.05" x="363.1" class="st0"/></g><g><path d="M437.06,111.28v.54l-.62.95c-.04.05-.07.1-.1.14s-.06.08-.09.13c-.03.04-.06.08-.09.13-.03.04-.06.09-.09.14.19.02.35.08.51.17.15.09.28.2.4.34.11.14.2.29.26.47.06.17.09.37.09.57,0,.23-.04.45-.12.65-.08.2-.2.36-.35.5s-.33.25-.53.33-.42.12-.67.12c-.2,0-.39-.03-.56-.08-.18-.05-.34-.13-.48-.22-.14-.1-.27-.22-.38-.36-.11-.14-.19-.3-.25-.47l.61-.3c.08.23.21.42.4.56s.4.21.65.21c.14,0,.27-.02.39-.07.12-.04.22-.11.3-.2s.15-.19.2-.31c.05-.12.07-.25.07-.39s-.03-.28-.08-.41c-.05-.12-.13-.23-.22-.31-.09-.09-.2-.15-.33-.2-.13-.05-.27-.07-.42-.07h-.34l-.07-.43.69-1.04s.06-.08.08-.12c.02-.03.05-.07.08-.11s.06-.08.08-.11.06-.07.09-.11h-2.11v-.63h3Z"/><path d="M440.64,111.41c.24.13.45.31.62.53.17.23.31.5.41.82s.15.67.15,1.05-.05.74-.15,1.06-.23.6-.41.83-.38.41-.62.54-.51.19-.8.19-.55-.06-.8-.19c-.25-.13-.46-.31-.63-.54s-.31-.51-.41-.83-.15-.68-.15-1.06.05-.73.15-1.05.23-.6.41-.82.38-.41.62-.53.51-.19.8-.19.56.06.8.19h.01ZM439.33,112.03c-.15.1-.28.23-.39.4-.11.17-.2.37-.26.61-.06.23-.09.49-.09.78s.03.55.09.8c.06.24.15.45.26.62.11.17.25.31.4.41s.32.15.5.15.36-.05.51-.15.29-.23.4-.41.2-.38.26-.62c.06-.24.09-.5.09-.79s-.03-.55-.09-.78c-.06-.24-.15-.44-.25-.61-.11-.17-.24-.3-.4-.4-.16-.09-.33-.14-.51-.14s-.35.05-.51.14h0Z"/><path d="M445.12,111.41c.24.13.45.31.62.53.17.23.31.5.41.82s.15.67.15,1.05-.05.74-.15,1.06-.23.6-.41.83-.38.41-.62.54-.51.19-.8.19-.55-.06-.8-.19c-.25-.13-.46-.31-.63-.54s-.31-.51-.41-.83-.15-.68-.15-1.06.05-.73.15-1.05.23-.6.41-.82.38-.41.62-.53.51-.19.8-.19.56.06.8.19h.01ZM443.81,112.03c-.15.1-.28.23-.39.4-.11.17-.2.37-.26.61-.06.23-.09.49-.09.78s.03.55.09.8c.06.24.15.45.26.62.11.17.25.31.4.41s.32.15.5.15.36-.05.51-.15.29-.23.4-.41.2-.38.26-.62c.06-.24.09-.5.09-.79s-.03-.55-.09-.78c-.06-.24-.15-.44-.25-.61-.11-.17-.24-.3-.4-.4-.16-.09-.33-.14-.51-.14s-.35.05-.51.14h0Z"/><path d="M449.61,111.41c.24.13.45.31.62.53.17.23.31.5.41.82s.15.67.15,1.05-.05.74-.15,1.06-.23.6-.41.83-.38.41-.62.54-.51.19-.8.19-.55-.06-.8-.19c-.25-.13-.46-.31-.63-.54s-.31-.51-.41-.83-.15-.68-.15-1.06.05-.73.15-1.05.23-.6.41-.82.38-.41.62-.53.51-.19.8-.19.56.06.8.19h.01ZM448.3,112.03c-.15.1-.28.23-.39.4-.11.17-.2.37-.26.61-.06.23-.09.49-.09.78s.03.55.09.8c.06.24.15.45.26.62.11.17.25.31.4.41s.32.15.5.15.36-.05.51-.15.29-.23.4-.41.2-.38.26-.62c.06-.24.09-.5.09-.79s-.03-.55-.09-.78c-.06-.24-.15-.44-.25-.61-.11-.17-.24-.3-.4-.4-.16-.09-.33-.14-.51-.14s-.35.05-.51.14h0Z"/><path d="M454.28,112.87v.64c.11-.23.25-.4.43-.52.18-.12.38-.18.61-.18.25,0,.46.07.64.2.18.13.31.32.39.57.11-.25.26-.44.45-.57s.42-.2.68-.2c.37,0,.65.12.85.36s.3.59.3,1.03v2.18h-.68v-2.09c0-.28-.06-.5-.19-.66s-.3-.24-.52-.24c-.11,0-.22.02-.31.07s-.18.11-.25.2-.12.19-.16.31-.05.25-.05.39v2.04h-.68v-2.09c0-.14-.02-.26-.05-.37-.04-.11-.08-.21-.15-.29s-.14-.14-.22-.18c-.09-.04-.19-.06-.3-.06s-.21.02-.31.07-.18.11-.24.2c-.07.09-.12.19-.16.31-.04.12-.06.25-.06.4v2.03h-.68v-3.52h.66v-.03Z"/><path d="M460.27,112.87v.64c.11-.23.25-.4.43-.52.18-.12.38-.18.61-.18.25,0,.46.07.64.2.18.13.31.32.39.57.11-.25.26-.44.45-.57s.42-.2.68-.2c.37,0,.65.12.85.36s.3.59.3,1.03v2.18h-.68v-2.09c0-.28-.06-.5-.19-.66s-.3-.24-.52-.24c-.11,0-.22.02-.31.07s-.18.11-.25.2-.12.19-.16.31-.05.25-.05.39v2.04h-.68v-2.09c0-.14-.02-.26-.05-.37-.04-.11-.08-.21-.15-.29s-.14-.14-.22-.18c-.09-.04-.19-.06-.3-.06s-.21.02-.31.07-.18.11-.24.2c-.07.09-.12.19-.16.31-.04.12-.06.25-.06.4v2.03h-.68v-3.52h.66v-.03Z"/></g><g><line y2="120.19" x2="375.87" y1="120.19" x1="525.02" class="st2"/><rect height="1.95" width=".3" y="119.22" x="524.87" class="st0"/><rect height="1.95" width=".3" y="119.22" x="375.72" class="st0"/></g><path d="M378.3,137.06v3.24M384.85,140.59h-6.25M384.85,140.59h.05l.07-.02.05-.02.03-.05.03-.03.03-.05.02-.05v-.07M385.14,137.06v3.24M385.14,137.06v-.07l-.02-.05-.03-.05-.03-.03-.03-.03-.05-.03-.07-.02h-.05M384.85,136.77h-6.25M378.6,136.77h-.05l-.05.02-.05.03-.05.03-.03.03-.02.05-.02.05-.02.07M378.3,140.3l.02.07.02.05.02.05.03.03.05.05.05.02.05.02h.05M517.98,140.3l.02.07.02.05.02.05.03.03.05.05.05.02.05.02h.05M518.27,136.77h-.05l-.05.02-.05.03-.05.03-.03.03-.02.05-.02.05-.02.07M524.82,137.06v3.24M524.52,140.59h.07l.05-.02.05-.02.03-.05.03-.03.03-.05.02-.05v-.07M517.98,137.06v3.24M524.52,140.59h-6.25M524.52,136.77h-6.25M524.82,137.06v-.07l-.02-.05-.03-.05-.03-.03-.03-.03-.05-.03-.05-.02h-.07M378.6,280.47h6.25M378.6,276.63h6.25M378.6,276.63h-.05l-.05.02-.05.03-.05.03-.03.03-.02.05-.02.07-.02.05M378.3,280.18v-3.26M378.3,280.18l.02.05.02.05.02.05.03.05.05.03.05.02.05.02.05.02M384.85,280.47l.05-.02.07-.02.05-.02.03-.03.03-.05.03-.05.02-.05v-.05M385.14,280.18v-3.26M385.14,276.92v-.05l-.02-.07-.03-.05-.03-.03-.03-.03-.05-.03-.07-.02h-.05M518.27,276.63h-.05l-.05.02-.05.03-.05.03-.03.03-.02.05-.02.07-.02.05M517.98,280.18l.02.05.02.05.02.05.03.05.05.03.05.02.05.02.05.02M524.82,276.92v-.05l-.02-.07-.03-.05-.03-.03-.03-.03-.05-.03-.05-.02h-.07M524.52,280.47l.07-.02.05-.02.05-.02.03-.03.03-.05.03-.05.02-.05v-.05M524.82,280.18v-3.26M518.27,276.63h6.25M518.27,280.47h6.25M524.82,142.52l.03.02.07.05.07.02.07.02.09-.02.07-.02.07-.05.05-.05.03-.07.03-.07v-.15l-.03-.07-.03-.07-.05-.05-.07-.03-.07-.03h-.09M525.06,141.94h-.07l-.07.03-.07.03-.03.03M525.06,134.76h-.07l-.07.03-.07.03-.05.05-.05.07-.02.07v.15l.02.07.05.07.05.05.07.03.07.03h.16l.07-.03.07-.03.05-.05.03-.07.03-.07v-.15l-.03-.07-.03-.07-.05-.05-.07-.03-.07-.03h-.09M517.74,134.76h-.07l-.07.03-.07.03-.05.05-.05.07-.02.07-.02.07.02.08.02.07.05.07.05.05.07.03.07.03h.16l.07-.03.07-.03.05-.05.03-.07.03-.07v-.15l-.03-.07-.03-.07-.05-.05-.07-.03-.07-.03h-.09M525.06,143.48h-4.74M525.06,143.48l.16-.02.14-.03.16-.03.12-.07.14-.07.1-.08.1-.1.1-.12.07-.12.07-.14.03-.14.03-.15v-.14M526.28,142.28v-7.2M526.28,135.08v-.14l-.03-.14-.03-.15-.07-.12-.07-.14-.1-.12-.1-.1-.1-.08-.14-.07-.12-.07-.16-.03-.14-.03h-.16M525.06,133.9h-7.32M517.74,133.9h-.14l-.16.03-.14.03-.14.07-.12.07-.12.08-.1.1-.09.12-.09.14-.05.12-.05.15-.02.14-.02.14M516.51,136.77v-1.69M517.74,282.48l.09-.02.07-.02.07-.05.05-.05.03-.07.03-.07v-.15l-.03-.07-.03-.07-.05-.05-.07-.03-.07-.03h-.16l-.07.03-.07.03-.05.05-.05.07-.02.07-.02.08.02.07.02.07.05.07.05.05.07.05.07.02.07.02M516.51,141.08,525.06,282.48l.09-.02.07-.02.07-.05.05-.05.03-.07.03-.07v-.15l-.03-.07-.03-.07-.05-.05-.07-.03-.07-.03h-.16l-.07.03-.07.03-.05.05-.05.07-.02.07v.15l.02.07.05.07.05.05.07.05.07.02.07.02M524.82,275.19l.03.02.07.05.07.02h.07M525.06,275.28h.09l.07-.02.07-.05.05-.05.03-.07.03-.07v-.15l-.03-.07-.03-.07-.05-.05-.07-.03-.07-.03h-.16l-.07.03-.07.03-.03.03M520.32,273.76h4.74M516.51,280.47v1.67M516.51,280.48v1.66l.02.14.02.15.05.14.05.14.09.12.09.12.1.1.12.08.12.08.14.05.14.05.16.02.14.02M517.74,283.34h7.32M525.06,283.34l.16-.02.14-.02.16-.05.12-.05.14-.08.1-.08.1-.1.1-.12.07-.12.07-.14.03-.14.03-.15v-.14M526.28,274.96v7.18M526.28,274.96v-.15l-.03-.14-.03-.14-.07-.14-.07-.14-.1-.1-.1-.1-.1-.1-.14-.07-.12-.07-.16-.03-.14-.03h-.16M378.06,273.76h4.69M378.06,273.76h-.14l-.16.03-.14.03-.14.07-.12.07-.12.1-.1.1-.09.1-.09.14-.05.14-.05.14-.02.14-.02.15M378.3,274.72l-.03-.03-.05-.03-.07-.03h-.16l-.09.03-.05.03-.05.05-.05.07-.02.07-.02.08.02.07.02.07.05.07.05.05.05.05.09.02h.07M378.06,275.28h.09l.07-.02.05-.05.03-.02M378.06,282.48l.09-.02.07-.02.05-.05.07-.05.03-.07.02-.07.02-.07-.02-.08-.02-.07-.03-.07-.07-.05-.05-.03-.07-.03h-.16l-.09.03-.05.03-.05.05-.05.07-.02.07-.02.08.02.07.02.07.05.07.05.05.05.05.09.02.07.02M385.38,282.48l.09-.02.07-.02.07-.05.05-.05.03-.07.03-.07v-.15l-.03-.07-.03-.07-.05-.05-.07-.03-.07-.03h-.16l-.07.03-.07.03-.05.05-.05.07-.02.07-.02.08.02.07.02.07.05.07.05.05.07.05.07.02.07.02M376.84,274.96v7.18M376.84,282.14l.02.14.02.15.05.14.05.14.09.12.09.12.1.1.12.08.12.08.14.05.14.05.16.02.14.02M378.06,283.34h7.32M385.38,283.34l.16-.02.14-.02.14-.05.14-.05.14-.08.1-.08.1-.1.1-.12.07-.12.07-.14.03-.14.03-.15v-.14M386.61,280.47v1.67M376.84,142.28v-7.2c.02-1.06,1.22-1.18,1.22-1.18h7.32M386.61,135.08v-.14l-.03-.14-.03-.15-.07-.12-.07-.14-.1-.12-.1-.1-.1-.08-.14-.07-.14-.07-.14-.03-.14-.03h-.16M385.38,134.76h-.07l-.07.03-.07.03-.05.05-.05.07-.02.07-.02.07.02.08.02.07.05.07.05.05.07.03.07.03h.16l.07-.03.07-.03.05-.05.03-.07.03-.07v-.15l-.03-.07-.03-.07-.05-.05-.07-.03-.07-.03h-.09M378.06,134.76h-.07l-.09.03-.05.03-.05.05-.05.07-.02.07-.02.07.02.08.02.07.05.07.05.05.05.03.09.03h.16l.07-.03.05-.03.07-.05.03-.07.02-.07.02-.08-.02-.07-.02-.07-.03-.07-.07-.05-.05-.03-.07-.03h-.09M378.3,142.04l-.03-.03-.05-.03-.07-.03h-.09M378.06,141.94h-.07l-.09.03-.05.03-.05.05-.05.07-.02.07-.02.08.02.07.02.07.05.07.05.05.05.05.09.02.07.02.09-.02.07-.02.05-.05.03-.02M382.75,143.48h-4.69M386.61,136.77v-1.69M376.84,142.28l.02.14.02.15.05.14.05.14.09.12.09.12.1.1.12.08.12.07.14.07.14.03.16.03.14.02M518.8,137.26h.17l.07.03.07.05.07.05.03.07.03.08.02.08-.02.08-.02.07-.03.08-.07.05-.07.05-.07.03-.09.02h-.09l-.09-.02-.07-.03-.07-.07-.05-.05-.03-.08-.02-.08-.02-.07.02-.08.03-.08.05-.07.07-.05.07-.03.09-.03M384.83,136.92,384.04,140.18l-.07-.05-.05-.05-.03-.08-.02-.08v-.07l.02-.08.03-.08.03-.07.07-.05.07-.05.09-.02h.17l.07.03.07.03.07.07.05.07.02.08.02.07v.08l-.03.08-.03.07-.05.07-.07.05-.09.03-.09.02h-.09l-.07-.02-.09-.05M379.13,137.26h.16l.09.03.07.05.07.05.03.07.03.08.02.08-.02.08-.02.07-.05.08-.05.05-.07.05-.07.03-.09.02h-.09l-.09-.02-.07-.03-.07-.07-.05-.05-.03-.08-.02-.08-.02-.07.02-.08.03-.08.05-.07.07-.05.07-.03.09-.03M379.41,277.04l.07.05.05.07.03.07.02.08.02.08-.02.08-.03.07-.05.07-.07.05-.07.05-.09.02-.07.02-.09-.02-.09-.03-.07-.03-.07-.07-.03-.07-.03-.07-.02-.08.02-.08.02-.08.05-.07.05-.07.07-.05.07-.03.09-.02.09.02.09.02.07.03M384.33,279.96l-.09.02-.09-.02-.09-.03-.07-.03-.05-.07-.05-.07-.03-.08v-.15l.03-.08.03-.07.05-.07.07-.05.09-.03.09-.02h.07l.09.03.09.03.05.05.05.07.05.07.02.08v.08l-.02.08-.03.07-.05.07-.05.05-.09.05-.07.02M519.08,277.04l.07.05.05.07.03.07.03.08v.08l-.02.08-.03.07-.05.07-.07.05-.07.05-.09.02-.07.02-.09-.02-.09-.03-.07-.03-.07-.07-.03-.07-.03-.07-.02-.08.02-.08.02-.08.05-.07.05-.07.07-.05.07-.03.09-.02.09.02.09.02.07.03M524.01,279.96l-.09.02-.09-.02-.09-.03-.07-.03-.05-.07-.05-.07-.03-.08v-.15l.03-.08.03-.07.05-.07.07-.05.09-.03.09-.02h.09l.07.03.09.03.07.05.05.07.03.07.02.08v.08l-.02.08-.03.07-.05.07-.05.05-.09.05-.07.02M523.71,140.18l-.05-.05-.07-.05-.03-.08-.02-.08v-.07l.02-.08.03-.08.05-.07.05-.05.07-.05.09-.02h.17l.07.03.09.03.05.07.05.07.02.08.02.07v.08l-.03.08-.03.07-.05.07-.07.05-.09.03-.09.02h-.07l-.09-.02-.09-.05M517.98,280.18v.29M385.14,280.47v-.29M517.98,280.47h-132.83M517.98,276.63h0v.29M385.14,276.92v-.29M385.14,276.63h132.83M517.98,280.18v-3.26M385.14,280.18v-3.26M517.98,140.3v.29M385.14,140.59h0v-.29M517.98,140.59h-132.83M517.98,136.77h0v.29M385.14,137.06v-.29M385.14,136.77h132.83M385.14,137.06v3.24M517.98,137.06v3.24M384.71,276.16v.47M384.71,140.59v.49M382.75,141.08v-.49M382.75,145.51v-2.52M382.75,149.95v-2.52M382.75,154.39v-2.52M382.75,158.84v-2.53M382.75,163.27v-2.52M382.75,167.71v-2.53M382.75,172.14v-2.52M382.75,176.58v-2.52M382.75,181.01v-2.5M382.75,185.47v-2.53M382.75,189.9v-2.52M382.75,194.34v-2.53M382.75,198.77v-2.52M382.75,203.21v-2.53M382.75,207.64v-2.5M382.75,212.1v-2.53M382.75,216.51v-2.5M382.75,220.97v-2.53M382.75,225.4v-2.52M382.75,229.84v-2.53M382.75,234.27v-2.5M382.75,238.73v-2.55M382.75,243.14v-2.5M382.75,247.6v-2.53M382.75,252.01v-2.5M382.75,256.47v-2.53M382.75,260.9v-2.5M382.75,265.36v-2.55M382.75,269.77v-2.5M382.75,274.23v-2.55M382.75,276.63v-.47M520.32,276.16v.47M520.32,271.68v2.55M520.32,267.27v2.5M520.32,262.81v2.55M520.32,258.4v2.5M520.32,253.94v2.53M520.32,249.51v2.5M520.32,245.07v2.53M520.32,240.64v2.5M520.32,236.18v2.55M520.32,231.77v2.5M520.32,227.31v2.53M520.32,222.88v2.52M520.32,218.44v2.53M520.32,214.01v2.5M520.32,209.56v2.53M520.32,205.14v2.5M520.32,200.68v2.53M520.32,196.25v2.52M520.32,191.81v2.53M520.32,187.38v2.52M520.32,182.93v2.53M520.32,178.51v2.5M520.32,174.06v2.52M520.32,169.62v2.52M520.32,165.18v2.53M520.32,160.75v2.52M520.32,156.3v2.53M520.32,151.88v2.52M520.32,147.43v2.52M520.32,142.99v2.52M520.32,140.59v.49M518.37,141.08v-.49M518.37,276.63v-.47M384.42,276.58v-.39M384.26,276.63h0v-.05M384.42,276.58v.05M384.26,276.19h0v-.03M384.42,276.16h0v.03M384.26,141.03v-.39M384.42,141.03v-.39M384.26,140.64h0v-.05M384.42,140.59v.05M384.26,141.08h0v-.05M384.42,141.03v.05M518.67,276.63h0v-.05M518.82,276.16h0v.03M518.67,276.19h0v-.03M518.82,276.19v.39M518.67,276.19v.39M518.82,140.59v.05M518.67,140.64h0v-.05M518.82,140.64v.39M518.67,140.64v.39M518.82,141.03v.05M518.67,141.08h0v-.05M438.81,276.16v.47M438.81,140.59v.49M437.35,141.08v-.49M437.35,142.99v133.64-.47M410.3,147.43v129.2-.47M411.76,276.16v.47M411.76,140.59v.49M465.72,276.16v.47M465.72,274.23v-133.64.49M464.26,141.08v-.49M464.26,276.63v-.47M491.32,141.08v-.49M491.32,276.63v-.47M492.79,276.16v.47M492.79,274.23v-133.64.49M465.53,140.64h0v-.02h-.02v-.02h-.02l-.02-.02M464.76,156.3h0M464.76,165.18v.02M464.76,174.06h0M464.76,182.93h0M464.76,191.81v.02M464.76,200.68v.02M464.65,200.69h.1M464.65,191.82h.1M464.65,182.93h.1M464.65,174.06h.1M464.65,165.19h.1M464.65,156.3h.1M464.65,145.51h.1M464.6,140.64v.39M464.46,140.64v.39M464.6,140.59v.05M464.46,140.64h0v-.05M464.6,141.03v.05M464.46,141.08h0v-.05M437.55,276.58v.03h.02v.02h.03M438.62,276.58v.05M438.48,276.63h0v-.05M438.62,276.16h0v.03M438.48,276.19h0v-.03M438.62,276.58v-.39M438.48,276.58v-.39M410.49,276.58v.02h.02v.02h.02v.02h.02M411.42,276.19h0v-.03M411.57,276.16h0v.03M411.42,276.58v-.39M411.57,276.58v-.39M411.42,276.63h0v-.05M411.57,276.58v.05M492.58,140.64h0v-.03h-.03v-.02M491.81,156.3h0M491.81,165.18v.02M491.81,174.06h0M491.81,182.93h0M491.81,191.81v.02M491.81,200.68v.02M491.7,200.69h.1M491.7,191.82h.1M491.7,182.93h.1M491.7,174.06h.1M491.7,165.19h.1M491.7,156.3h.1M491.7,145.51h.1M491.51,140.64v.39M491.65,140.64v.39M491.51,141.08h0v-.05M491.65,141.03v.05M491.51,140.64h0v-.05M491.65,140.59v.05M411.57,141.03v.05M411.42,141.03v-.39M411.57,141.03v-.39M411.57,140.59v.05M411.42,140.64h0v-.05M437.55,141.08v-.44M438.62,141.03v.05M438.48,141.08h0v-.05M438.62,141.03v-.39M438.48,141.03v-.39M438.62,140.59v.05M438.48,140.64h0v-.05M464.76,209.56h0M465.53,276.16v.42M464.76,227.31v.02M464.76,236.18v.02M464.76,245.07v.02M464.76,253.94v.02M464.76,262.81v.02M465.48,276.63h.02l.02-.02.02-.02v-.02M464.65,271.71h.02M464.65,262.83h.1M464.65,253.95h.1M464.65,245.08h.1M464.65,236.2h.1M464.65,227.32h.1M464.65,218.45h.1M464.65,209.56h.1M464.46,276.19v.39M464.6,276.19v.39M464.46,276.63h0v-.05M464.6,276.58v.05M464.46,276.19h0v-.03M464.6,276.16h0v.03M491.81,209.56h0M492.58,276.16v.42M491.81,227.31v.02M491.81,236.18v.02M491.81,245.07v.02M491.81,253.94v.02M491.81,262.81v.02M491.81,271.68v.03M492.55,276.63h.02v-.02h.02v-.03M491.7,271.71h.1M491.7,262.83h.1M491.7,253.95h.1M491.7,245.08h.1M491.7,236.2h.1M491.7,227.32h.1M491.7,218.45h.1M491.7,209.56h.1M491.51,276.63h0v-.05M491.65,276.58v.05M491.51,276.19h0v-.03M491.65,276.16h0v.03M491.51,276.19v.39M491.65,276.19v.39M412.54,149.95h6.99M385.68,149.95h25.4M378.3,149.95h5.91M412.54,151.88h6.99M385.68,151.88h25.4M378.3,151.88h5.91M419.53,149.95v1.93M378.3,151.88v-1.93M490.24,145.51h-6.63M517.39,145.51h-25.69M524.82,145.51h-5.96M483.61,147.43v-1.93M490.24,147.43h-6.63M517.39,147.43h-25.69M524.82,147.43h-5.96M524.82,145.51v1.93M490.24,234.27h-6.63M517.39,234.27h-25.69M524.82,234.27h-5.96M483.61,236.18v-1.91M490.24,236.18h-6.63M517.39,236.18h-25.69M524.82,236.18h-5.96M524.82,234.27v1.91M378.3,142.99v-1.91M419.53,141.08v1.91M378.3,141.08h41.23M412.54,142.99h6.99M385.68,142.99h25.4M378.3,142.99h5.91M412.54,158.84h6.99M385.68,158.84h25.4M378.3,158.84h5.91M378.3,160.75v-1.91M419.53,158.84v1.91M412.54,160.75h6.99M385.68,160.75h25.4M378.3,160.75h5.91M483.61,262.81v-1.91M490.24,260.9h-6.63M517.39,260.9h-25.69M524.82,260.9h-5.96M490.24,262.81h-6.63M517.39,262.81h-25.69M524.82,262.81h-5.96M524.82,260.9v1.91M490.24,252.01h-6.63M517.39,252.01h-25.69M524.82,252.01h-5.96M483.61,253.94v-1.93M490.24,253.94h-6.63M517.39,253.94h-25.69M524.82,253.94h-5.96M524.82,252.01v1.93M378.3,267.27v-1.91M412.54,265.36h6.99M385.68,265.36h25.4M378.3,265.36h5.91M419.53,265.36v1.91M412.54,267.27h6.99M385.68,267.27h25.4M378.3,267.27h5.91M378.3,187.38v-1.91M419.53,185.47v1.91M412.54,185.47h6.99M385.68,185.47h25.4M378.3,185.47h5.91M412.54,187.38h6.99M385.68,187.38h25.4M378.3,187.38h5.91M419.53,274.23v1.93M378.3,276.16h41.23M412.54,274.23h6.99M385.68,274.23h25.4M378.3,274.23h5.91M378.3,276.16v-1.93M419.53,194.34v1.91M412.54,194.34h6.99M385.68,194.34h25.4M378.3,194.34h5.91M412.54,196.25h6.99M385.68,196.25h25.4M378.3,196.25h5.91M378.3,196.25v-1.91M490.24,269.77h-6.63M517.39,269.77h-25.69M524.82,269.77h-5.96M490.24,271.68h-6.63M517.39,271.68h-25.69M524.82,271.68h-5.96M483.61,271.68v-1.91M524.82,269.77v1.91M490.24,225.4h-6.63M517.39,225.4h-25.69M524.82,225.4h-5.96M483.61,227.31v-1.91M490.24,227.31h-6.63M517.39,227.31h-25.69M524.82,227.31h-5.96M524.82,225.4v1.91M483.61,245.07v-1.93M490.24,243.14h-6.63M517.39,243.14h-25.69M524.82,243.14h-5.96M490.24,245.07h-6.63M517.39,245.07h-25.69M524.82,245.07h-5.96M524.82,243.14v1.93M378.3,222.88v-1.91M419.53,220.97v1.91M412.54,222.88h6.99M385.68,222.88h25.4M378.3,222.88h5.91M412.54,220.97h6.99M385.68,220.97h25.4M378.3,220.97h5.91M490.24,216.51h-6.63M517.39,216.51h-25.69M524.82,216.51h-5.96M483.61,218.44v-1.93M490.24,218.44h-6.63M517.39,218.44h-25.69M524.82,218.44h-5.96M524.82,216.51v1.93M483.61,191.81v-1.91M490.24,189.9h-6.63M517.39,189.9h-25.69M524.82,189.9h-5.96M490.24,191.81h-6.63M517.39,191.81h-25.69M524.82,191.81h-5.96M524.82,189.9v1.91M490.24,207.64h-6.63M517.39,207.64h-25.69M524.82,207.64h-5.96M483.61,209.56v-1.93M490.24,209.56h-6.63M517.39,209.56h-25.69M524.82,209.56h-5.96M524.82,207.64v1.93M490.24,163.27h-6.63M517.39,163.27h-25.69M524.82,163.27h-5.96M483.61,165.18v-1.91M490.24,165.18h-6.63M517.39,165.18h-25.69M524.82,165.18h-5.96M524.82,163.27v1.91M483.61,200.68v-1.91M490.24,198.77h-6.63M517.39,198.77h-25.69M524.82,198.77h-5.96M490.24,200.68h-6.63M517.39,200.68h-25.69M524.82,200.68h-5.96M524.82,198.77v1.91M378.3,205.14v-1.93M412.54,203.21h6.99M385.68,203.21h25.4M378.3,203.21h5.91M412.54,205.14h6.99M385.68,205.14h25.4M378.3,205.14h5.91M419.53,203.21v1.93M412.54,231.77h6.99M385.68,231.77h25.4M378.3,231.77h5.91M419.53,229.84v1.93M412.54,229.84h6.99M385.68,229.84h25.4M378.3,229.84h5.91M378.3,231.77v-1.93M490.24,181.01h-6.63M517.39,181.01h-25.69M524.82,181.01h-5.96M483.61,182.93v-1.93M490.24,182.93h-6.63M517.39,182.93h-25.69M524.82,182.93h-5.96M524.82,181.01v1.93M412.54,178.51h6.99M385.68,178.51h25.4M378.3,178.51h5.91M419.53,176.58v1.93M412.54,176.58h6.99M385.68,176.58h25.4M378.3,176.58h5.91M378.3,178.51v-1.93M412.54,212.1h6.99M385.68,212.1h25.4M378.3,212.1h5.91M419.53,212.1v1.91M412.54,214.01h6.99M385.68,214.01h25.4M378.3,214.01h5.91M378.3,214.01v-1.91M483.61,156.3v-1.91M490.24,154.39h-6.63M517.39,154.39h-25.69M524.82,154.39h-5.96M490.24,156.3h-6.63M517.39,156.3h-25.69M524.82,156.3h-5.96M524.82,154.39v1.91M378.3,240.64v-1.91M412.54,240.64h6.99M385.68,240.64h25.4M378.3,240.64h5.91M412.54,238.73h6.99M385.68,238.73h25.4M378.3,238.73h5.91M419.53,238.73v1.91M483.61,174.06v-1.93M490.24,174.06h-6.63M517.39,174.06h-25.69M524.82,174.06h-5.96M490.24,172.14h-6.63M517.39,172.14h-25.69M524.82,172.14h-5.96M524.82,172.14v1.93M419.53,256.47v1.93M412.54,258.4h6.99M385.68,258.4h25.4M378.3,258.4h5.91M412.54,256.47h6.99M385.68,256.47h25.4M378.3,256.47h5.91M378.3,258.4v-1.93M412.54,169.62h6.99M385.68,169.62h25.4M378.3,169.62h5.91M419.53,167.71v1.91M412.54,167.71h6.99M385.68,167.71h25.4M378.3,167.71h5.91M378.3,169.62v-1.91M412.54,249.51h6.99M385.68,249.51h25.4M378.3,249.51h5.91M419.53,247.6v1.91M412.54,247.6h6.99M385.68,247.6h25.4M378.3,247.6h5.91M378.3,249.51v-1.91M518.85,167.71h5.96M491.7,167.71h25.69M464.65,167.71h25.58M439.6,167.71h23.59M429.3,167.71h8.84M429.3,169.62v-1.91M518.85,169.62h5.96M491.7,169.62h25.69M464.65,169.62h25.58M439.6,169.62h23.59M429.3,169.62h8.84M524.82,169.62v-1.91M518.85,258.4h5.96M491.7,258.4h25.69M464.65,258.4h25.58M439.6,258.4h23.59M429.3,258.4h8.84M518.85,256.47h5.96M491.7,256.47h25.69M464.65,256.47h25.58M439.6,256.47h23.59M429.3,256.47h8.84M429.3,258.4v-1.93M524.82,258.4v-1.93M518.85,229.84h5.96M491.7,229.84h25.69M464.65,229.84h25.58M439.6,229.84h23.59M429.3,229.84h8.84M429.3,231.77v-1.93M518.85,231.77h5.96M491.7,231.77h25.69M464.65,231.77h25.58M439.6,231.77h23.59M429.3,231.77h8.84M524.82,231.77v-1.93M429.3,178.51v-1.93M518.85,178.51h5.96M491.7,178.51h25.69M464.65,178.51h25.58M439.6,178.51h23.59M429.3,178.51h8.84M518.85,176.58h5.96M491.7,176.58h25.69M464.65,176.58h25.58M439.6,176.58h23.59M429.3,176.58h8.84M524.82,178.51v-1.93M524.82,240.64v-1.91M518.85,240.64h5.96M491.7,240.64h25.69M464.65,240.64h25.58M439.6,240.64h23.59M429.3,240.64h8.84M518.85,238.73h5.96M491.7,238.73h25.69M464.65,238.73h25.58M439.6,238.73h23.59M429.3,238.73h8.84M429.3,240.64v-1.91M378.3,154.39v1.91M384.21,154.39h-5.91M411.07,154.39h-25.4M438.14,154.39h-25.6M463.19,154.39h-23.59M473.84,154.39h-9.18M384.21,156.3h-5.91M411.07,156.3h-25.4M438.14,156.3h-25.6M463.19,156.3h-23.59M473.84,156.3h-9.18M473.84,154.39v1.91M518.85,205.14h5.96M491.7,205.14h25.69M464.65,205.14h25.58M439.6,205.14h23.59M429.3,205.14h8.84M518.85,203.21h5.96M491.7,203.21h25.69M464.65,203.21h25.58M439.6,203.21h23.59M429.3,203.21h8.84M429.3,205.14v-1.93M524.82,205.14v-1.93M518.85,214.01h5.96M491.7,214.01h25.69M464.65,214.01h25.58M439.6,214.01h23.59M429.3,214.01h8.84M524.82,214.01v-1.91M518.85,212.1h5.96M491.7,212.1h25.69M464.65,212.1h25.58M439.6,212.1h23.59M429.3,212.1h8.84M429.3,214.01v-1.91M378.3,181.01v1.93M384.21,181.01h-5.91M411.07,181.01h-25.4M438.14,181.01h-25.6M463.19,181.01h-23.59M473.84,181.01h-9.18M384.21,182.93h-5.91M411.07,182.93h-25.4M438.14,182.93h-25.6M463.19,182.93h-23.59M473.84,182.93h-9.18M473.84,181.01v1.93M378.3,189.9v1.91M384.21,191.81h-5.91M411.07,191.81h-25.4M438.14,191.81h-25.6M463.19,191.81h-23.59M473.84,191.81h-9.18M473.84,189.9v1.91M384.21,189.9h-5.91M411.07,189.9h-25.4M438.14,189.9h-25.6M463.19,189.9h-23.59M473.84,189.9h-9.18M378.3,198.77v1.91M384.21,200.68h-5.91M411.07,200.68h-25.4M438.14,200.68h-25.6M463.19,200.68h-23.59M473.84,200.68h-9.18M473.84,198.77v1.91M384.21,198.77h-5.91M411.07,198.77h-25.4M438.14,198.77h-25.6M463.19,198.77h-23.59M473.84,198.77h-9.18M378.3,207.64v1.93M384.21,209.56h-5.91M411.07,209.56h-25.4M438.14,209.56h-25.6M463.19,209.56h-23.59M473.84,209.56h-9.18M384.21,207.64h-5.91M411.07,207.64h-25.4M438.14,207.64h-25.6M463.19,207.64h-23.59M473.84,207.64h-9.18M473.84,207.64v1.93M429.3,222.88v-1.91M518.85,220.97h5.96M491.7,220.97h25.69M464.65,220.97h25.58M439.6,220.97h23.59M429.3,220.97h8.84M518.85,222.88h5.96M491.7,222.88h25.69M464.65,222.88h25.58M439.6,222.88h23.59M429.3,222.88h8.84M524.82,222.88v-1.91M384.21,163.27h-5.91M411.07,163.27h-25.4M438.14,163.27h-25.6M463.19,163.27h-23.59M473.84,163.27h-9.18M384.21,165.18h-5.91M411.07,165.18h-25.4M438.14,165.18h-25.6M463.19,165.18h-23.59M473.84,165.18h-9.18M473.84,163.27v1.91M378.3,163.27v1.91M384.21,218.44h-5.91M411.07,218.44h-25.4M438.14,218.44h-25.6M463.19,218.44h-23.59M473.84,218.44h-9.18M378.3,216.51v1.93M384.21,216.51h-5.91M411.07,216.51h-25.4M438.14,216.51h-25.6M463.19,216.51h-23.59M473.84,216.51h-9.18M473.84,216.51v1.93M518.85,194.34h5.96M491.7,194.34h25.69M464.65,194.34h25.58M439.6,194.34h23.59M429.3,194.34h8.84M429.3,196.25v-1.91M518.85,196.25h5.96M491.7,196.25h25.69M464.65,196.25h25.58M439.6,196.25h23.59M429.3,196.25h8.84M524.82,196.25v-1.91M384.21,245.07h-5.91M411.07,245.07h-25.4M438.14,245.07h-25.6M463.19,245.07h-23.59M473.84,245.07h-9.18M378.3,243.14v1.93M473.84,243.14v1.93M384.21,243.14h-5.91M411.07,243.14h-25.4M438.14,243.14h-25.6M463.19,243.14h-23.59M473.84,243.14h-9.18M384.21,271.68h-5.91M411.07,271.68h-25.4M438.14,271.68h-25.6M463.19,271.68h-23.59M473.84,271.68h-9.18M473.84,269.77v1.91M384.21,269.77h-5.91M411.07,269.77h-25.4M438.14,269.77h-25.6M463.19,269.77h-23.59M473.84,269.77h-9.18M378.3,269.77v1.91M518.85,185.47h5.96M491.7,185.47h25.69M464.65,185.47h25.58M439.6,185.47h23.59M429.3,185.47h8.84M429.3,187.38v-1.91M518.85,187.38h5.96M491.7,187.38h25.69M464.65,187.38h25.58M439.6,187.38h23.59M429.3,187.38h8.84M524.82,187.38v-1.91M384.21,227.31h-5.91M411.07,227.31h-25.4M438.14,227.31h-25.6M463.19,227.31h-23.59M473.84,227.31h-9.18M384.21,225.4h-5.91M411.07,225.4h-25.4M438.14,225.4h-25.6M463.19,225.4h-23.59M473.84,225.4h-9.18M473.84,225.4v1.91M378.3,225.4v1.91M429.3,276.16v-1.93M518.85,274.23h5.96M491.7,274.23h25.69M464.65,274.23h25.58M439.6,274.23h23.59M429.3,274.23h8.84M429.3,276.16h95.52M524.82,276.16v-1.93M518.85,158.84h5.96M491.7,158.84h25.69M464.65,158.84h25.58M439.6,158.84h23.59M429.3,158.84h8.84M518.85,160.75h5.96M491.7,160.75h25.69M464.65,160.75h25.58M439.6,160.75h23.59M429.3,160.75h8.84M429.3,160.75v-1.91M524.82,160.75v-1.91M518.85,265.36h5.96M491.7,265.36h25.69M464.65,265.36h25.58M439.6,265.36h23.59M429.3,265.36h8.84M429.3,267.27v-1.91M518.85,267.27h5.96M491.7,267.27h25.69M464.65,267.27h25.58M439.6,267.27h23.59M429.3,267.27h8.84M524.82,267.27v-1.91M384.21,262.81h-5.91M411.07,262.81h-25.4M438.14,262.81h-25.6M463.19,262.81h-23.59M473.84,262.81h-9.18M473.84,260.9v1.91M384.21,260.9h-5.91M411.07,260.9h-25.4M438.14,260.9h-25.6M463.19,260.9h-23.59M473.84,260.9h-9.18M378.3,260.9v1.91M378.3,234.27v1.91M384.21,236.18h-5.91M411.07,236.18h-25.4M438.14,236.18h-25.6M463.19,236.18h-23.59M473.84,236.18h-9.18M473.84,234.27v1.91M384.21,234.27h-5.91M411.07,234.27h-25.4M438.14,234.27h-25.6M463.19,234.27h-23.59M473.84,234.27h-9.18M384.21,252.01h-5.91M411.07,252.01h-25.4M438.14,252.01h-25.6M463.19,252.01h-23.59M473.84,252.01h-9.18M384.21,253.94h-5.91M411.07,253.94h-25.4M438.14,253.94h-25.6M463.19,253.94h-23.59M473.84,253.94h-9.18M473.84,252.01v1.93M378.3,252.01v1.93M524.82,142.99v-1.91M429.3,141.08h95.52M429.3,142.99v-1.91M518.85,142.99h5.96M491.7,142.99h25.69M464.65,142.99h25.58M439.6,142.99h23.59M429.3,142.99h8.84M518.85,247.6h5.96M491.7,247.6h25.69M464.65,247.6h25.58M439.6,247.6h23.59M429.3,247.6h8.84M429.3,249.51v-1.91M518.85,249.51h5.96M491.7,249.51h25.69M464.65,249.51h25.58M439.6,249.51h23.59M429.3,249.51h8.84M524.82,249.51v-1.91M384.21,145.51h-5.91M411.07,145.51h-25.4M438.14,145.51h-25.6M463.19,145.51h-23.59M473.84,145.51h-9.18M378.3,145.51v1.93M384.21,147.43h-5.91M411.07,147.43h-25.4M438.14,147.43h-25.6M463.19,147.43h-23.59M473.84,147.43h-9.18M473.84,145.51v1.93M378.3,172.14v1.93M384.21,174.06h-5.91M411.07,174.06h-25.4M438.14,174.06h-25.6M463.19,174.06h-23.59M473.84,174.06h-9.18M473.84,172.14v1.93M384.21,172.14h-5.91M411.07,172.14h-25.4M438.14,172.14h-25.6M463.19,172.14h-23.59M473.84,172.14h-9.18M524.82,151.88v-1.93M518.85,149.95h5.96M491.7,149.95h25.69M464.65,149.95h25.58M439.6,149.95h23.59M429.3,149.95h8.84M429.3,151.88v-1.93M518.85,151.88h5.96M491.7,151.88h25.69M464.65,151.88h25.58M439.6,151.88h23.59M429.3,151.88h8.84M411.23,141.32h1.17M411.07,141.45v134.32M411.07,275.77v.02l.02.03.02.03.02.02.02.02.03.02h.05M411.23,275.9h1.17M412.4,275.9h.05l.03-.02.02-.02.02-.02.02-.03v-.05M412.54,141.45v134.32M412.54,141.45v-.05l-.02-.02-.02-.03-.02-.02h-.03l-.02-.02h-.03M411.23,141.32h-.03l-.02.02h-.03l-.02.02-.02.03-.02.02-.02.03v.02M464.65,275.77v-134.32M464.65,141.45v-.02l-.02-.03-.02-.02-.02-.03-.02-.02h-.02l-.03-.02h-.03M464.5,141.32h-1.17M463.33,141.32h-.02l-.03.02h-.02l-.03.02-.02.03v.02l-.02.03v.02M463.19,275.77v-134.32M463.19,275.77v.02l.02.03v.03l.02.02.03.02.02.02h.05M464.5,275.9h-1.17M464.5,275.9h.07l.02-.02.02-.02.02-.02.02-.03.02-.03v-.02M438.28,141.32h1.17M438.14,141.45v134.32M439.6,141.45v134.32M438.28,141.32h-.02l-.03.02h-.03l-.02.02-.02.03-.02.02v.05M439.6,141.45v-.02l-.02-.03-.02-.02-.02-.03-.02-.02h-.03l-.02-.02h-.03M438.14,275.77v.05l.02.03.02.02.02.02.03.02h.05M438.28,275.9h1.17M439.45,275.9h.05l.03-.02.02-.02.02-.02.02-.03.02-.03v-.02M384.21,141.45v134.32M384.21,275.77v.02l.02.03.02.03.02.02.02.02.03.02h.05M384.37,275.9h1.17M385.54,275.9h.05l.03-.02.02-.02.02-.02.02-.03v-.05M385.68,141.45v134.32M385.68,141.45v-.05l-.02-.02-.02-.03-.02-.02h-.03l-.03-.02h-.02M384.37,141.32h1.17M384.37,141.32h-.03l-.02.02h-.03l-.02.02-.02.03-.02.02-.02.03v.02M518.85,275.77v-134.32M518.85,141.45v-.05l-.02-.02-.02-.03-.02-.02h-.03l-.02-.02h-.03M518.72,141.32h-1.17M517.55,141.32h-.03l-.02.02h-.03l-.02.02-.02.03-.02.02-.02.03v.02M517.39,275.77v-134.32M517.39,275.77v.02l.02.03.02.03.02.02.02.02.03.02h.05M518.72,275.9h-1.17M518.72,275.9h.05l.03-.02.02-.02.02-.02.02-.03v-.05M491.7,275.77v-134.32M491.56,141.32h-1.17M491.7,141.45v-.05l-.02-.02-.02-.03-.02-.02h-.03l-.03-.02h-.02M490.39,141.32h-.03l-.02.02h-.03l-.02.02-.02.03-.02.02-.02.03v.02M490.24,275.77v-134.32M490.24,275.77v.02l.02.03.02.03.02.02.02.02.03.02h.05M491.56,275.9h-1.17M491.56,275.9h.05l.03-.02.02-.02.02-.02.02-.03v-.05" class="st2"/><path d="M464.76,145.51h0M491.81,145.51h0" class="st2"/><g><path d="M7.15,228.64c.08-.2.18-.38.32-.52.14-.15.3-.26.49-.34s.41-.12.65-.12c.14,0,.27.02.41.05s.27.08.4.15.27.15.4.26c.14.1.28.23.44.38l1.31,1.27v-2.22h.64v3.21h-.57l-1.8-1.73c-.11-.11-.22-.21-.32-.29s-.2-.14-.29-.19-.19-.08-.28-.1-.18-.03-.28-.03c-.14,0-.27.02-.39.06s-.22.11-.31.19c-.09.08-.15.18-.2.29-.05.11-.07.24-.07.38,0,.24.07.45.22.63.15.18.35.3.61.38l-.22.65c-.41-.11-.72-.31-.94-.6-.22-.29-.33-.64-.33-1.07,0-.24.04-.47.12-.67v-.02Z"/><path d="M12.2,226.31l-4.47-1.72v2.6h-.64v-3.39h.57l4.55,1.71v.8h-.01Z"/><path d="M7.15,221.17c.08-.2.18-.38.32-.52.14-.15.3-.26.49-.34s.41-.12.65-.12c.14,0,.27.02.41.05s.27.08.4.15.27.15.4.26c.14.1.28.23.44.38l1.31,1.27v-2.22h.64v3.21h-.57l-1.8-1.73c-.11-.11-.22-.21-.32-.29s-.2-.14-.29-.19-.19-.08-.28-.1-.18-.03-.28-.03c-.14,0-.27.02-.39.06s-.22.11-.31.19c-.09.08-.15.18-.2.29-.05.11-.07.24-.07.38,0,.24.07.45.22.63.15.18.35.3.61.38l-.22.65c-.41-.11-.72-.31-.94-.6-.22-.29-.33-.64-.33-1.07,0-.24.04-.47.12-.67v-.02Z"/><path d="M7.09,216.48h.54l.95.62c.05.04.1.07.14.1s.08.06.13.09c.04.03.08.06.13.09.04.03.09.06.14.09.02-.19.08-.35.17-.51.09-.15.2-.28.34-.4.14-.11.29-.2.47-.26.17-.06.37-.09.57-.09.23,0,.45.04.65.12s.36.2.5.35c.14.15.25.33.33.53s.12.42.12.67c0,.2-.03.39-.08.56-.05.18-.13.34-.22.48-.1.14-.22.27-.36.38-.14.11-.3.19-.47.25l-.3-.61c.23-.08.42-.21.56-.4.14-.19.21-.4.21-.65,0-.14-.02-.27-.07-.39-.04-.12-.11-.22-.2-.3s-.19-.15-.31-.2c-.12-.05-.25-.07-.39-.07s-.28.03-.41.08c-.12.05-.23.13-.31.22-.09.09-.15.2-.2.33s-.07.27-.07.42v.34l-.43.07-1.04-.69s-.08-.06-.12-.08c-.03-.02-.07-.05-.11-.08s-.08-.06-.11-.08-.07-.06-.11-.09v2.11h-.63v-2.99h0Z"/><path d="M8.68,212.72h.64c-.23-.11-.4-.25-.52-.43s-.18-.38-.18-.61c0-.25.07-.46.2-.64s.32-.31.57-.39c-.25-.11-.44-.26-.57-.45s-.2-.42-.2-.68c0-.37.12-.65.36-.85.24-.2.59-.3,1.03-.3h2.18v.68h-2.09c-.28,0-.5.06-.66.19s-.24.3-.24.52c0,.11.02.22.07.31.05.09.11.18.2.25s.19.12.31.16.25.05.39.05h2.04v.68h-2.09c-.14,0-.26.02-.37.05-.11.04-.21.08-.29.15s-.14.14-.18.22c-.04.09-.06.19-.06.3s.02.21.07.31c.05.1.11.18.2.24.09.07.19.12.31.16.12.04.25.06.4.06h2.03v.68h-3.52v-.66h-.03Z"/><path d="M8.68,206.74h.64c-.23-.11-.4-.25-.52-.43s-.18-.38-.18-.61c0-.25.07-.46.2-.64s.32-.31.57-.39c-.25-.11-.44-.26-.57-.45s-.2-.42-.2-.68c0-.37.12-.65.36-.85.24-.2.59-.3,1.03-.3h2.18v.68h-2.09c-.28,0-.5.06-.66.19s-.24.3-.24.52c0,.11.02.22.07.31.05.09.11.18.2.25s.19.12.31.16.25.05.39.05h2.04v.68h-2.09c-.14,0-.26.02-.37.05-.11.04-.21.08-.29.15s-.14.14-.18.22c-.04.09-.06.19-.06.3s.02.21.07.31c.05.1.11.18.2.24.09.07.19.12.31.16.12.04.25.06.4.06h2.03v.68h-3.52v-.66h-.03Z"/></g><g><line y2="283.19" x2="16" y1="147.85" x1="16" class="st2"/><rect height=".3" width="1.95" y="147.7" x="15.03" class="st0"/><rect height=".3" width="1.95" y="283.04" x="15.03" class="st0"/></g><g><rect height="135.14" width="6.71" y="147.7" x="38.36" class="st2"/><rect height="135.14" width="6.71" y="147.7" x="178.22" class="st2"/><rect height="7.01" width="133.16" y="148.85" x="45.08" class="st2"/><rect height="1.15" width="133.16" y="147.7" x="45.08" class="st2"/><rect height="1.15" width="40.47" y="147.7" x="45.08" class="st2"/><rect height="1.15" width="9.58" y="147.7" x="85.55" class="st2"/><rect height=".5" width="9.58" y="282.84" x="36.93" class="st2"/><rect height=".5" width="9.58" y="282.84" x="176.79" class="st2"/></g><g><rect height="133.66" width="3.83" y="149.18" x="202.58" class="st2"/><rect height="133.66" width="3.83" y="149.18" x="342.44" class="st2"/><rect height="3.96" width="136.04" y="151.67" x="206.42" class="st2"/><line y2="147.7" x2="209.28" y1="147.7" x1="211.78" class="st2"/><line y2="147.7" x2="218.1" y1="147.7" x1="220.58" class="st2"/><line y2="147.7" x2="226.9" y1="147.7" x1="229.4" class="st2"/><line y2="147.7" x2="235.72" y1="147.7" x1="238.21" class="st2"/><line y2="147.7" x2="244.54" y1="147.7" x1="247.03" class="st2"/><line y2="147.7" x2="253.35" y1="147.7" x1="255.83" class="st2"/><line y2="147.7" x2="262.17" y1="147.7" x1="264.65" class="st2"/><line y2="147.7" x2="270.97" y1="147.7" x1="273.47" class="st2"/><line y2="147.7" x2="279.79" y1="147.7" x1="282.28" class="st2"/><line y2="147.7" x2="288.6" y1="147.7" x1="291.1" class="st2"/><line y2="147.7" x2="297.42" y1="147.7" x1="299.9" class="st2"/><line y2="147.7" x2="306.24" y1="147.7" x1="308.72" class="st2"/><line y2="147.7" x2="315.04" y1="147.7" x1="317.54" class="st2"/><line y2="147.7" x2="323.86" y1="147.7" x1="326.34" class="st2"/><line y2="147.7" x2="332.66" y1="147.7" x1="335.17" class="st2"/><polyline points="342.45 149.77 341.48 149.77 341.48 147.7" class="st2"/><line y2="147.7" x2="337.07" y1="147.7" x1="339.56" class="st2"/><line y2="147.7" x2="328.25" y1="147.7" x1="330.75" class="st2"/><line y2="147.7" x2="319.45" y1="147.7" x1="321.93" class="st2"/><line y2="147.7" x2="310.63" y1="147.7" x1="313.13" class="st2"/><line y2="147.7" x2="301.83" y1="147.7" x1="304.31" class="st2"/><line y2="147.7" x2="293.01" y1="147.7" x1="295.51" class="st2"/><line y2="147.7" x2="284.2" y1="147.7" x1="286.69" class="st2"/><line y2="147.7" x2="275.38" y1="147.7" x1="277.87" class="st2"/><line y2="147.7" x2="266.56" y1="147.7" x1="269.06" class="st2"/><line y2="147.7" x2="257.76" y1="147.7" x1="260.24" class="st2"/><line y2="147.7" x2="248.94" y1="147.7" x1="251.44" class="st2"/><line y2="147.7" x2="240.13" y1="147.7" x1="242.62" class="st2"/><line y2="147.7" x2="231.31" y1="147.7" x1="233.81" class="st2"/><line y2="147.7" x2="222.51" y1="147.7" x1="224.99" class="st2"/><line y2="147.7" x2="213.69" y1="147.7" x1="216.17" class="st2"/><rect height="1.45" width="2.5" y="150.21" x="209.28" class="st2"/><rect height="1.45" width=".96" y="150.21" x="206.41" class="st2"/><rect height="1.45" width="2.48" y="150.21" x="218.1" class="st2"/><rect height="1.45" width="2.48" y="150.21" x="222.51" class="st2"/><rect height="1.45" width="2.5" y="150.21" x="226.9" class="st2"/><rect height="1.45" width="2.5" y="150.21" x="231.31" class="st2"/><rect height="1.45" width="2.48" y="150.21" x="235.72" class="st2"/><rect height="1.45" width="2.48" y="150.21" x="240.13" class="st2"/><rect height="1.45" width="2.48" y="150.21" x="244.54" class="st2"/><rect height="1.45" width="2.5" y="150.21" x="248.94" class="st2"/><rect height="1.45" width="2.48" y="150.21" x="253.35" class="st2"/><rect height="1.45" width="2.48" y="150.21" x="257.76" class="st2"/><rect height="1.45" width="2.48" y="150.21" x="262.17" class="st2"/><rect height="1.45" width="2.5" y="150.21" x="266.56" class="st2"/><rect height="1.45" width="2.5" y="150.21" x="270.97" class="st2"/><rect height="1.45" width="2.48" y="150.21" x="275.38" class="st2"/><rect height="1.45" width="2.48" y="150.21" x="279.79" class="st2"/><rect height="1.45" width="2.48" y="150.21" x="284.2" class="st2"/><rect height="1.45" width="2.5" y="150.21" x="288.6" class="st2"/><rect height="1.45" width="2.5" y="150.21" x="293.01" class="st2"/><rect height="1.45" width="2.48" y="150.21" x="297.42" class="st2"/><rect height="1.45" width="2.48" y="150.21" x="301.83" class="st2"/><rect height="1.45" width="2.48" y="150.21" x="306.24" class="st2"/><rect height="1.45" width="2.5" y="150.21" x="310.63" class="st2"/><rect height="1.45" width="2.5" y="150.21" x="315.04" class="st2"/><rect height="1.45" width="2.48" y="150.21" x="319.45" class="st2"/><rect height="1.45" width="2.48" y="150.21" x="323.86" class="st2"/><rect height="1.45" width="2.5" y="150.21" x="328.25" class="st2"/><rect height="1.45" width="2.5" y="150.21" x="332.66" class="st2"/><rect height="1.45" width="2.48" y="150.21" x="337.07" class="st2"/><rect height="1.45" width=".96" y="150.21" x="341.48" class="st2"/><g><rect height="3.95" width="1.91" y="147.7" x="207.37" class="st2"/><rect height=".02" width="1.91" y="151.64" x="207.37" class="st2"/><rect height="3.95" width="1.91" y="147.7" x="211.78" class="st2"/><rect height=".02" width="1.91" y="151.64" x="211.78" class="st2"/><rect height="3.95" width="1.93" y="147.7" x="216.17" class="st2"/><rect height=".02" width="1.93" y="151.64" x="216.17" class="st2"/><rect height="3.95" width="1.93" y="147.7" x="220.58" class="st2"/><rect height=".02" width="1.93" y="151.64" x="220.58" class="st2"/><rect height="3.95" width="1.91" y="147.7" x="224.99" class="st2"/><rect height=".02" width="1.91" y="151.64" x="224.99" class="st2"/><rect height="3.95" width="1.91" y="147.7" x="229.4" class="st2"/><rect height=".02" width="1.91" y="151.64" x="229.4" class="st2"/><rect height="3.95" width="1.91" y="147.7" x="233.81" class="st2"/><rect height=".02" width="1.91" y="151.64" x="233.81" class="st2"/><rect height="3.95" width="1.93" y="147.7" x="238.21" class="st2"/><rect height=".02" width="1.93" y="151.64" x="238.21" class="st2"/><rect height="3.95" width="1.93" y="147.7" x="242.62" class="st2"/><rect height=".02" width="1.93" y="151.64" x="242.62" class="st2"/><rect height="3.95" width="1.91" y="147.7" x="247.03" class="st2"/><rect height=".02" width="1.91" y="151.64" x="247.03" class="st2"/><rect height="3.95" width="1.91" y="147.7" x="251.44" class="st2"/><rect height=".02" width="1.91" y="151.64" x="251.44" class="st2"/><rect height="3.95" width="1.93" y="147.7" x="255.83" class="st2"/><rect height=".02" width="1.93" y="151.64" x="255.83" class="st2"/><rect height="3.95" width="1.93" y="147.7" x="260.24" class="st2"/><rect height=".02" width="1.93" y="151.64" x="260.24" class="st2"/><rect height="3.95" width="1.91" y="147.7" x="264.65" class="st2"/><rect height=".02" width="1.91" y="151.64" x="264.65" class="st2"/><rect height="3.95" width="1.91" y="147.7" x="269.06" class="st2"/><rect height=".02" width="1.91" y="151.64" x="269.06" class="st2"/><rect height="3.95" width="1.91" y="147.7" x="273.47" class="st2"/><rect height=".02" width="1.91" y="151.64" x="273.47" class="st2"/><rect height="3.95" width="1.93" y="147.7" x="277.87" class="st2"/><rect height=".02" width="1.93" y="151.64" x="277.87" class="st2"/><rect height="3.95" width="1.93" y="147.7" x="282.28" class="st2"/><rect height=".02" width="1.93" y="151.64" x="282.28" class="st2"/><rect height="3.95" width="1.91" y="147.7" x="286.69" class="st2"/><rect height=".02" width="1.91" y="151.64" x="286.69" class="st2"/><rect height="3.95" width="1.91" y="147.7" x="291.1" class="st2"/><rect height=".02" width="1.91" y="151.64" x="291.1" class="st2"/><rect height="3.95" width="1.91" y="147.7" x="295.51" class="st2"/><rect height=".02" width="1.91" y="151.64" x="295.51" class="st2"/><rect height="3.95" width="1.93" y="147.7" x="299.9" class="st2"/><rect height=".02" width="1.93" y="151.64" x="299.9" class="st2"/><rect height="3.95" width="1.93" y="147.7" x="304.31" class="st2"/><rect height=".02" width="1.93" y="151.64" x="304.31" class="st2"/><rect height="3.95" width="1.91" y="147.7" x="308.72" class="st2"/><rect height=".02" width="1.91" y="151.64" x="308.72" class="st2"/><rect height="3.95" width="1.91" y="147.7" x="313.13" class="st2"/><rect height=".02" width="1.91" y="151.64" x="313.13" class="st2"/><rect height="3.95" width="1.91" y="147.7" x="317.54" class="st2"/><rect height=".02" width="1.91" y="151.64" x="317.54" class="st2"/><rect height="3.95" width="1.93" y="147.7" x="321.93" class="st2"/><rect height=".02" width="1.93" y="151.64" x="321.93" class="st2"/><rect height="3.95" width="1.91" y="147.7" x="326.34" class="st2"/><rect height=".02" width="1.91" y="151.64" x="326.34" class="st2"/><rect height="3.95" width="1.91" y="147.7" x="330.75" class="st2"/><rect height=".02" width="1.91" y="151.64" x="330.75" class="st2"/><rect height="3.95" width="1.91" y="147.7" x="335.17" class="st2"/><rect height=".02" width="1.91" y="151.64" x="335.17" class="st2"/><rect height="3.95" width="1.93" y="147.7" x="339.56" class="st2"/><rect height=".02" width="1.93" y="151.64" x="339.56" class="st2"/></g><rect height=".5" width="9.58" y="282.84" x="199.7" class="st2"/><rect height=".5" width="9.58" y="282.84" x="339.57" class="st2"/></g></g></g></g></svg>