<svg viewBox="0 0 531.27 288" xmlns:xlink="http://www.w3.org/1999/xlink" xmlns="http://www.w3.org/2000/svg" id="Camada_2"><defs><style>.cls-1,.cls-2{fill:none;}.cls-3{fill:#12100c;}.cls-2{stroke:#12100c;stroke-linecap:round;stroke-linejoin:round;stroke-width:.3px;}</style><symbol viewBox="0 0 531.27 288" id="fundo_transparente"><rect height="288" width="531.27" x="0" class="cls-1"/></symbol></defs><g id="Nature"><g id="painel_informativo_grande"><use xlink:href="#fundo_transparente" height="288" width="531.27"/><g id="LINE"><line y2="86.74" x2="15.56" y1="282.67" x1="15.56" class="cls-2"/><rect height=".3" width="1.95" y="282.52" x="14.58" class="cls-3"/><rect height=".3" width="1.95" y="86.59" x="14.58" class="cls-3"/></g><g id="MTEXT"><path d="M5.58,198.3c.08-.21.19-.39.33-.54.14-.15.31-.27.51-.35.2-.08.42-.13.67-.13.14,0,.28.02.42.05.14.03.28.08.41.15.14.07.27.16.42.27.14.11.29.24.45.39l1.35,1.31v-2.29h.67v3.32h-.59l-1.85-1.79c-.12-.12-.23-.22-.33-.3-.1-.08-.21-.15-.3-.2-.1-.05-.19-.09-.29-.11-.09-.02-.19-.03-.29-.03-.15,0-.28.02-.4.07-.12.04-.23.11-.32.2-.09.09-.16.19-.21.3-.05.11-.07.24-.07.39,0,.25.08.47.23.65.15.18.36.31.63.39l-.23.67c-.42-.12-.74-.32-.97-.62s-.34-.66-.34-1.1c0-.25.04-.48.12-.69Z"/><path d="M5.66,193.75c.13-.25.32-.47.55-.65.23-.18.52-.32.85-.42.33-.1.69-.15,1.08-.15s.76.05,1.1.15.62.24.86.42c.24.18.43.4.56.65.13.25.2.52.2.83s-.07.57-.2.82-.32.47-.56.65c-.24.18-.53.32-.86.42-.33.1-.7.15-1.1.15s-.75-.05-1.08-.15c-.33-.1-.61-.24-.85-.42-.24-.18-.42-.4-.55-.65-.13-.25-.2-.53-.2-.83s.07-.58.2-.83ZM6.29,195.11c.1.16.23.29.41.41.18.11.38.2.63.27.24.07.51.1.81.1s.57-.03.82-.09c.25-.06.46-.15.64-.27.18-.12.32-.25.42-.41.1-.16.15-.33.15-.52s-.05-.37-.15-.53c-.1-.16-.24-.3-.42-.41-.18-.11-.39-.2-.64-.27-.25-.06-.52-.09-.82-.09s-.56.03-.81.09c-.25.06-.46.15-.63.26-.17.11-.31.25-.41.41-.1.16-.15.34-.15.53s.05.37.15.52Z"/><path d="M5.66,189.12c.13-.25.32-.47.55-.65.23-.18.52-.32.85-.42.33-.1.69-.15,1.08-.15s.76.05,1.1.15.62.24.86.42c.24.18.43.4.56.65.13.25.2.52.2.83s-.07.57-.2.82-.32.47-.56.65c-.24.18-.53.32-.86.42-.33.1-.7.15-1.1.15s-.75-.05-1.08-.15c-.33-.1-.61-.24-.85-.42-.24-.18-.42-.4-.55-.65-.13-.25-.2-.53-.2-.83s.07-.58.2-.83ZM6.29,190.47c.1.16.23.29.41.41.18.11.38.2.63.27.24.07.51.1.81.1s.57-.03.82-.09c.25-.06.46-.15.64-.27.18-.12.32-.25.42-.41.1-.16.15-.33.15-.52s-.05-.37-.15-.53c-.1-.16-.24-.3-.42-.41-.18-.11-.39-.2-.64-.27-.25-.06-.52-.09-.82-.09s-.56.03-.81.09c-.25.06-.46.15-.63.26-.17.11-.31.25-.41.41-.1.16-.15.34-.15.53s.05.37.15.52Z"/><path d="M5.66,184.48c.13-.25.32-.47.55-.65.23-.18.52-.32.85-.42.33-.1.69-.15,1.08-.15s.76.05,1.1.15.62.24.86.42c.24.18.43.4.56.65.13.25.2.52.2.83s-.07.57-.2.82-.32.47-.56.65c-.24.18-.53.32-.86.42-.33.1-.7.15-1.1.15s-.75-.05-1.08-.15c-.33-.1-.61-.24-.85-.42-.24-.18-.42-.4-.55-.65-.13-.25-.2-.53-.2-.83s.07-.58.2-.83ZM6.29,185.84c.1.16.23.29.41.41.18.11.38.2.63.27.24.07.51.1.81.1s.57-.03.82-.09c.25-.06.46-.15.64-.27.18-.12.32-.25.42-.41.1-.16.15-.33.15-.52s-.05-.37-.15-.53c-.1-.16-.24-.3-.42-.41-.18-.11-.39-.2-.64-.27-.25-.06-.52-.09-.82-.09s-.56.03-.81.09c-.25.06-.46.15-.63.26-.17.11-.31.25-.41.41-.1.16-.15.34-.15.53s.05.37.15.52Z"/><path d="M7.16,179.65h.67c-.24-.11-.42-.26-.54-.45-.12-.18-.18-.4-.18-.63,0-.26.07-.48.2-.67.14-.19.33-.32.59-.41-.26-.11-.45-.27-.59-.46-.14-.2-.2-.43-.2-.7,0-.38.12-.67.37-.88.25-.21.61-.31,1.07-.31h2.25v.7h-2.16c-.29,0-.52.07-.69.2-.17.13-.25.31-.25.54,0,.12.02.22.07.32.05.1.11.18.2.26.09.07.19.13.32.16.12.04.26.06.4.06h2.11v.7h-2.16c-.14,0-.27.02-.38.06-.12.04-.22.09-.3.15-.08.06-.14.14-.19.23-.04.09-.07.2-.07.31s.02.22.07.32c.05.1.12.18.21.25.09.07.2.12.32.17.12.04.26.06.41.06h2.09v.7h-3.64v-.68Z"/><path d="M7.16,173.47h.67c-.24-.11-.42-.26-.54-.45-.12-.18-.18-.4-.18-.63,0-.26.07-.48.2-.67.14-.19.33-.32.59-.41-.26-.11-.45-.27-.59-.46-.14-.2-.2-.43-.2-.7,0-.38.12-.67.37-.88.25-.21.61-.31,1.07-.31h2.25v.7h-2.16c-.29,0-.52.07-.69.2-.17.13-.25.31-.25.54,0,.12.02.22.07.32.05.1.11.18.2.26.09.07.19.13.32.16.12.04.26.06.4.06h2.11v.7h-2.16c-.14,0-.27.02-.38.06-.12.04-.22.09-.3.15-.08.06-.14.14-.19.23-.04.09-.07.2-.07.31s.02.22.07.32c.05.1.12.18.21.25.09.07.2.12.32.17.12.04.26.06.41.06h2.09v.7h-3.64v-.68Z"/></g><g id="LINE-2"><line y2="14.2" x2="161.05" y1="14.2" x1="29.88" class="cls-2"/><rect height="1.95" width=".3" y="13.23" x="29.73" class="cls-3"/><rect height="1.95" width=".3" y="13.23" x="160.9" class="cls-3"/></g><g id="MTEXT-2"><path d="M82.57,4.16v5.29h-.72v-4.54l-1.3.64v-.73l1.36-.67h.67Z"/><path d="M86.57,4.16v.55l-.65.98c-.04.06-.07.1-.1.15-.03.04-.06.08-.09.13s-.06.09-.09.13-.06.09-.09.15c.19.02.37.08.52.18s.29.21.41.35c.12.14.21.3.27.48s.09.38.09.59c0,.24-.04.47-.13.67-.08.2-.2.38-.36.52-.15.14-.34.26-.54.34s-.44.12-.69.12c-.21,0-.4-.03-.58-.08-.18-.05-.35-.13-.49-.23-.15-.1-.28-.22-.39-.37-.11-.14-.2-.31-.26-.49l.63-.31c.08.24.22.44.41.58.19.14.42.21.67.21.15,0,.28-.02.4-.07.12-.05.23-.11.31-.2.09-.09.15-.19.2-.31.05-.12.07-.26.07-.41s-.03-.29-.08-.42c-.06-.13-.13-.23-.22-.32-.09-.09-.21-.16-.34-.21-.13-.05-.28-.08-.44-.08h-.35l-.08-.44.72-1.07s.06-.09.09-.12c.03-.03.05-.07.08-.12s.06-.08.08-.12c.03-.03.06-.07.09-.12h-2.18v-.65h3.09Z"/><path d="M90.45,4.16v5.29h-.73v-4.36s-.04.08-.06.1c-.02.03-.04.06-.07.09l-1.35,2.02s-.04.06-.05.08-.03.05-.06.08h3.2v.64h-3.98v-.59l2.22-3.35h.87Z"/><path d="M94.64,4.3c.25.13.47.32.65.55.18.23.32.52.42.85.1.33.15.69.15,1.08s-.05.76-.15,1.1-.24.62-.42.86c-.18.24-.4.43-.65.56-.25.13-.52.2-.83.2s-.57-.07-.82-.2-.47-.32-.65-.56c-.18-.24-.32-.53-.42-.86-.1-.33-.15-.7-.15-1.1s.05-.75.15-1.08c.1-.33.24-.61.42-.85.18-.24.4-.42.65-.55.25-.13.53-.2.83-.2s.58.07.83.2ZM93.28,4.94c-.16.1-.29.23-.41.41-.11.18-.2.38-.27.63-.07.24-.1.51-.1.81s.03.57.09.82c.06.25.15.46.27.64.12.18.25.32.41.42.16.1.33.15.52.15s.37-.05.53-.15c.16-.1.3-.24.41-.42.11-.18.2-.39.27-.64.06-.25.09-.52.09-.82s-.03-.56-.09-.81c-.06-.25-.15-.46-.26-.63-.11-.17-.25-.31-.41-.41-.16-.1-.34-.15-.53-.15s-.37.05-.52.15Z"/><path d="M99.47,5.8v.67c.11-.24.26-.42.45-.54.18-.12.4-.18.63-.18.26,0,.48.07.67.2.19.14.32.33.41.59.11-.26.27-.45.46-.59.2-.14.43-.2.7-.2.38,0,.67.12.88.37.21.25.31.61.31,1.07v2.25h-.7v-2.16c0-.29-.07-.52-.2-.69-.13-.17-.31-.25-.54-.25-.12,0-.22.02-.32.07-.1.05-.18.11-.26.2-.07.09-.13.19-.16.32-.04.12-.06.26-.06.4v2.11h-.7v-2.16c0-.14-.02-.27-.06-.38-.04-.12-.09-.22-.15-.3-.06-.08-.14-.14-.23-.19-.09-.04-.2-.07-.31-.07s-.22.02-.32.07c-.1.05-.18.12-.25.21-.07.09-.12.2-.17.32-.04.12-.06.26-.06.41v2.09h-.7v-3.64h.68Z"/><path d="M105.65,5.8v.67c.11-.24.26-.42.45-.54.18-.12.4-.18.63-.18.26,0,.48.07.67.2.19.14.32.33.41.59.11-.26.27-.45.46-.59.2-.14.43-.2.7-.2.38,0,.67.12.88.37.21.25.31.61.31,1.07v2.25h-.7v-2.16c0-.29-.07-.52-.2-.69-.13-.17-.31-.25-.54-.25-.12,0-.22.02-.32.07-.1.05-.18.11-.26.2-.07.09-.13.19-.16.32-.04.12-.06.26-.06.4v2.11h-.7v-2.16c0-.14-.02-.27-.06-.38-.04-.12-.09-.22-.15-.3-.06-.08-.14-.14-.23-.19-.09-.04-.2-.07-.31-.07s-.22.02-.32.07c-.1.05-.18.12-.25.21-.07.09-.12.2-.17.32-.04.12-.06.26-.06.41v2.09h-.7v-3.64h.68Z"/></g><g id="LINE-3"><line y2="72.19" x2="219.42" y1="72.19" x1="203.72" class="cls-2"/><rect height="1.95" width=".3" y="71.22" x="203.57" class="cls-3"/><rect height="1.95" width=".3" y="71.22" x="219.27" class="cls-3"/></g><g id="MTEXT-3"><path d="M200.74,62.15v5.29h-.72v-4.54l-1.3.64v-.73l1.36-.67h.67Z"/><path d="M202.71,67.31c-.24-.12-.44-.29-.61-.51-.17-.22-.3-.5-.39-.82s-.14-.69-.14-1.09.05-.8.15-1.15c.1-.35.24-.64.43-.89.18-.25.41-.43.67-.56.26-.13.55-.2.88-.2.37,0,.7.09.97.27.27.18.47.43.59.76l-.64.29c-.07-.21-.18-.37-.34-.48-.16-.11-.35-.17-.56-.17-.2,0-.38.05-.55.14s-.31.23-.44.4c-.13.17-.22.37-.29.61s-.1.49-.1.77v.17c0,.06,0,.1,0,.15.08-.25.23-.45.45-.59.22-.14.48-.21.79-.21.24,0,.46.04.65.12.2.08.36.19.5.34.14.15.25.32.33.52.08.2.12.42.12.66s-.04.47-.13.68c-.08.21-.2.38-.35.53-.15.14-.32.26-.53.34s-.43.12-.68.12c-.3,0-.57-.06-.81-.18ZM203.88,66.74c.12-.05.22-.12.3-.21.08-.09.15-.19.2-.31.05-.12.07-.26.07-.41s-.02-.29-.07-.41c-.05-.12-.12-.23-.2-.32s-.19-.16-.31-.21-.25-.07-.4-.07-.27.02-.39.07-.22.12-.31.2c-.09.09-.15.19-.2.31-.05.12-.07.25-.07.4s.03.28.08.41.12.24.21.34.2.17.32.22c.12.05.26.08.4.08s.26-.03.38-.08Z"/><path d="M208.68,62.29c.25.13.47.32.65.55.18.23.32.52.42.85.1.33.15.69.15,1.08s-.05.76-.15,1.1-.24.62-.42.86c-.18.24-.4.43-.65.56-.25.13-.52.2-.83.2s-.57-.07-.82-.2-.47-.32-.65-.56c-.18-.24-.32-.53-.42-.86-.1-.33-.15-.7-.15-1.1s.05-.75.15-1.08c.1-.33.24-.61.42-.85.18-.24.4-.42.65-.55.25-.13.53-.2.83-.2s.58.07.83.2ZM207.33,62.93c-.16.1-.29.23-.41.41-.11.18-.2.38-.27.63-.07.24-.1.51-.1.81s.03.57.09.82c.06.25.15.46.27.64.12.18.25.32.41.42.16.1.33.15.52.15s.37-.05.53-.15c.16-.1.3-.24.41-.42.11-.18.2-.39.27-.64.06-.25.09-.52.09-.82s-.03-.56-.09-.81c-.06-.25-.15-.46-.26-.63-.11-.17-.25-.31-.41-.41-.16-.1-.34-.15-.53-.15s-.37.05-.52.15Z"/><path d="M213.51,63.79v.67c.11-.24.26-.42.45-.54.18-.12.4-.18.63-.18.26,0,.48.07.67.2.19.14.32.33.41.59.11-.26.27-.45.46-.59.2-.14.43-.2.7-.2.38,0,.67.12.88.37.21.25.31.61.31,1.07v2.25h-.7v-2.16c0-.29-.07-.52-.2-.69-.13-.17-.31-.25-.54-.25-.12,0-.22.02-.32.07-.1.05-.18.11-.26.2-.07.09-.13.19-.16.32-.04.12-.06.26-.06.4v2.11h-.7v-2.16c0-.14-.02-.27-.06-.38-.04-.12-.09-.22-.15-.3-.06-.08-.14-.14-.23-.19-.09-.04-.2-.07-.31-.07s-.22.02-.32.07c-.1.05-.18.12-.25.21-.07.09-.12.2-.17.32-.04.12-.06.26-.06.41v2.09h-.7v-3.64h.68Z"/><path d="M219.69,63.79v.67c.11-.24.26-.42.45-.54.18-.12.4-.18.63-.18.26,0,.48.07.67.2.19.14.32.33.41.59.11-.26.27-.45.46-.59.2-.14.43-.2.7-.2.38,0,.67.12.88.37.21.25.31.61.31,1.07v2.25h-.7v-2.16c0-.29-.07-.52-.2-.69-.13-.17-.31-.25-.54-.25-.12,0-.22.02-.32.07-.1.05-.18.11-.26.2-.07.09-.13.19-.16.32-.04.12-.06.26-.06.4v2.11h-.7v-2.16c0-.14-.02-.27-.06-.38-.04-.12-.09-.22-.15-.3-.06-.08-.14-.14-.23-.19-.09-.04-.2-.07-.31-.07s-.22.02-.32.07c-.1.05-.18.12-.25.21-.07.09-.12.2-.17.32-.04.12-.06.26-.06.41v2.09h-.7v-3.64h.68Z"/></g><rect height="195.29" width="15.7" y="87.53" x="203.72" class="cls-2"/><rect height=".93" width="15.7" y="86.59" x="203.72" class="cls-2"/><rect height="195.25" width="7.85" y="87.57" x="29.73" class="cls-2"/><rect height=".98" width="115.78" y="173.49" x="37.58" class="cls-2"/><rect height=".98" width="131.47" y="86.59" x="29.73" class="cls-2"/><line y2="104.2" x2="32.53" y1="104.2" x1="32.5" class="cls-2"/><rect height="195.25" width="7.85" y="87.57" x="153.35" class="cls-2"/><path d="M29.73,43.7v-14.96c0-.2.15-.37.35-.37h130.78c.19,0,.35.17.35.37v14.96c0,.2-.15.37-.35.37H30.08c-.19,0-.35-.17-.35-.37Z" class="cls-2"/><circle r=".49" cy="41.54" cx="159.5" class="cls-2"/><circle r=".49" cy="41.54" cx="155.07" class="cls-2"/><circle r=".49" cy="30.97" cx="159.5" class="cls-2"/><circle r=".49" cy="30.97" cx="155.07" class="cls-2"/><circle r=".49" cy="30.91" cx="31.43" class="cls-2"/><circle r=".49" cy="30.91" cx="35.86" class="cls-2"/><circle r=".49" cy="41.48" cx="31.43" class="cls-2"/><circle r=".49" cy="41.48" cx="35.86" class="cls-2"/></g></g></svg>