<svg viewBox="0 0 531.27 288" xmlns:xlink="http://www.w3.org/1999/xlink" xmlns="http://www.w3.org/2000/svg" id="Camada_2"><defs><style>.cls-1,.cls-2,.cls-3{fill:none;}.cls-2{stroke-width:.31px;}.cls-2,.cls-3{stroke:#000;stroke-miterlimit:10;}.cls-3{stroke-width:.3px;}</style><symbol viewBox="0 0 531.27 288" id="fundo_transparente"><rect height="288" width="531.27" x="0" class="cls-1"/></symbol></defs><g id="RePlastic"><g id="banco_Élysées_1500"><use xlink:href="#fundo_transparente" height="288" width="531.27"/><rect height="14.08" width="237.45" y="158.22" x="32.47" class="cls-3"/><rect height="11.74" width="237.43" y="173.65" x="32.47" class="cls-3"/><rect height="2.3" width="237.43" y="185.39" x="32.47" class="cls-3"/><rect height="11.74" width="237.43" y="189.12" x="32.47" class="cls-3"/><rect height="2.36" width="237.43" y="200.85" x="32.47" class="cls-3"/><polyline points="269.94 200.85 269.89 200.85 269.89 185.39 269.94 185.39 269.92 169.95 32.45 169.95" class="cls-3"/><rect height="7.29" width="237.47" y="216.7" x="32.47" class="cls-3"/><rect height="1.21" width="23.62" y="224" x="32.47" class="cls-3"/><rect height="1.21" width="158.37" y="224" x="72.05" class="cls-3"/><rect height="1.21" width="23.66" y="224" x="246.27" class="cls-3"/><rect height=".38" width="23.62" y="225.2" x="32.47" class="cls-3"/><rect height=".38" width="158.37" y="225.2" x="72.05" class="cls-3"/><rect height=".38" width="23.66" y="225.2" x="246.27" class="cls-3"/><rect height="1.21" width="23.62" y="225.59" x="32.47" class="cls-3"/><rect height="1.21" width="158.37" y="225.59" x="72.05" class="cls-3"/><rect height="1.21" width="23.66" y="225.59" x="246.27" class="cls-3"/><rect height=".38" width="23.62" y="226.79" x="32.47" class="cls-3"/><rect height=".38" width="158.37" y="226.79" x="72.05" class="cls-3"/><rect height=".38" width="23.66" y="226.79" x="246.27" class="cls-3"/><rect height="1.21" width="23.62" y="227.18" x="32.47" class="cls-3"/><rect height="1.21" width="158.37" y="227.18" x="72.05" class="cls-3"/><rect height="1.21" width="23.66" y="227.18" x="246.27" class="cls-3"/><rect height=".38" width="23.62" y="228.39" x="32.47" class="cls-3"/><rect height=".38" width="158.37" y="228.39" x="72.05" class="cls-3"/><rect height=".38" width="23.66" y="228.39" x="246.27" class="cls-3"/><rect height="1.21" width="23.62" y="228.77" x="32.47" class="cls-3"/><rect height="1.21" width="158.37" y="228.77" x="72.05" class="cls-3"/><rect height="1.21" width="23.66" y="228.77" x="246.27" class="cls-3"/><rect height=".38" width="23.62" y="229.98" x="32.47" class="cls-3"/><rect height=".38" width="158.37" y="229.98" x="72.05" class="cls-3"/><rect height=".38" width="23.66" y="229.98" x="246.27" class="cls-3"/><rect height="60.88" width="15.86" y="224" x="56.07" class="cls-3"/><rect height="1.3" width="15.86" y="172.35" x="56.07" class="cls-3"/><rect height="1.43" width="15.86" y="187.69" x="56.07" class="cls-3"/><rect height="13.4" width="15.86" y="203.21" x="56.07" class="cls-3"/><rect height="60.88" width="15.81" y="224" x="230.51" class="cls-3"/><rect height="1.3" width="15.81" y="172.35" x="230.51" class="cls-3"/><rect height="1.43" width="15.81" y="187.69" x="230.51" class="cls-3"/><rect height="13.4" width="15.81" y="203.21" x="230.51" class="cls-3"/><rect height="12.11" width="237.48" y="111.88" x="32.45" class="cls-3"/><rect height=".05" width="237.48" y="123.99" x="32.45" class="cls-3"/><rect height=".76" width="237.48" y="124.05" x="32.45" class="cls-3"/><rect height=".05" width="237.48" y="123.99" x="32.45" class="cls-3"/><rect height="12.17" width="237.48" y="96.03" x="32.45" class="cls-3"/><rect height=".81" width="237.48" y="108.2" x="32.45" class="cls-3"/><rect height="12.17" width="237.48" y="80.19" x="32.45" class="cls-3"/><rect height=".81" width="237.48" y="92.36" x="32.45" class="cls-3"/><rect height="12.17" width="237.48" y="63.91" x="32.45" class="cls-3"/><rect height=".81" width="237.48" y="76.08" x="32.45" class="cls-3"/><rect height="9.36" width="15.86" y="26.76" x="56.07" class="cls-3"/><rect height="6.06" width="15.86" y="57.85" x="56.07" class="cls-3"/><rect height="3.3" width="15.86" y="76.89" x="56.07" class="cls-3"/><rect height="2.87" width="15.86" y="93.17" x="56.07" class="cls-3"/><rect height="2.87" width="15.86" y="109.01" x="56.07" class="cls-3"/><rect height=".05" width="15.86" y="123.99" x="56.07" class="cls-3"/><rect height="4.87" width="15.86" y="124.8" x="56.07" class="cls-3"/><rect height="9.36" width="15.86" y="26.76" x="230.45" class="cls-3"/><rect height="6.06" width="15.86" y="57.85" x="230.45" class="cls-3"/><rect height="3.3" width="15.86" y="76.89" x="230.45" class="cls-3"/><rect height="2.87" width="15.86" y="93.17" x="230.45" class="cls-3"/><rect height="2.87" width="15.86" y="109.01" x="230.45" class="cls-3"/><rect height=".05" width="15.86" y="123.99" x="230.45" class="cls-3"/><rect height="4.87" width="15.86" y="124.8" x="230.45" class="cls-3"/><rect height="6.81" width="237.48" y="36.12" x="32.45" class="cls-3"/><rect height="4.27" width="237.48" y="42.93" x="32.45" class="cls-3"/><rect height="1.68" width="237.48" y="47.2" x="32.45" class="cls-3"/><rect height="3.57" width="237.48" y="48.88" x="32.45" class="cls-3"/><rect height="1.3" width="237.48" y="52.45" x="32.45" class="cls-3"/><rect height="4.11" width="237.48" y="53.74" x="32.45" class="cls-3"/><path d="M428.82,161.78c4.55-5.42,11.55,5.93,9.39,10.76-6.3,17.27-14.19,34.75-15.68,53.26-.82,20.64,9.2,39.33,13.52,59.08h-18.45c-.57-63.33-59.47-59.11-65.85,0h-16.05c1.87-10.9,11.17-29.32,15.47-39.59,3.66-7.65-2.74-14-8.79-17.61-1.58-.88-1.97-3.55.32-3.55l9.03.87.92.09,3.83.37.92.09,10.41,1,.92.09,3.83.37.92.09,10.41,1,.92.09,3.83.37.92.09,10.41,1,.92.09h0c3.59.19,6.85-2.16,7.82-5.67l5.65-20.31,14.48-41.97Z" class="cls-3"/><path d="M352.88,217.71l-11.28-1.12c-.25-.02-.47.16-.5.41l-.66,6.86,12.19,1.21.66-6.86c.02-.25-.16-.48-.41-.51Z" class="cls-3"/><path d="M368.84,219.26l-11.28-1.12c-.25-.02-.47.16-.5.41l-.66,6.86,12.19,1.21.66-6.86c.02-.25-.16-.48-.41-.51Z" class="cls-3"/><path d="M384.79,220.8l-11.28-1.12c-.25-.02-.47.16-.5.41l-.66,6.86,12.19,1.21.66-6.86c.02-.25-.16-.48-.41-.51Z" class="cls-3"/><path d="M400.74,222.35l-11.28-1.12c-.25-.02-.47.16-.5.41l-.66,6.86,12.19,1.21.66-6.86c.02-.25-.16-.48-.41-.51Z" class="cls-3"/><path d="M411.53,189.41l-3.81,10.82c-.08.24.04.5.28.59l6.41,2.32,4.11-11.69-6.41-2.32c-.24-.09-.5.04-.58.28Z" class="cls-3"/><path d="M416.86,173.89l-3.81,10.82c-.08.24.04.5.28.59l6.41,2.32,4.11-11.69-6.41-2.32c-.24-.09-.5.04-.58.28Z" class="cls-3"/><path d="M422.27,158.53l-3.81,10.82c-.08.24.04.5.28.59l6.41,2.32,4.11-11.69-6.41-2.32c-.24-.09-.5.04-.58.28Z" class="cls-3"/><rect transform="translate(125.82 508.94) rotate(-70.37)" ry=".65" rx=".65" height="3.1" width="3.15" y="163.68" x="422.28" class="cls-3"/><rect transform="translate(107.76 514.05) rotate(-70.37)" ry=".65" rx=".65" height="3.1" width="3.15" y="179.05" x="416.87" class="cls-3"/><rect transform="translate(89.6 519.33) rotate(-70.37)" ry=".65" rx=".65" height="3.1" width="3.15" y="194.57" x="411.54" class="cls-3"/><rect transform="translate(23.91 -37.47) rotate(5.6)" ry=".65" rx=".65" height="3.1" width="3.15" y="223.93" x="393.15" class="cls-3"/><rect transform="translate(23.68 -35.92) rotate(5.6)" ry=".65" rx=".65" height="3.1" width="3.15" y="222.38" x="377.2" class="cls-3"/><rect transform="translate(23.45 -34.37) rotate(5.6)" ry=".65" rx=".65" height="3.1" width="3.15" y="220.83" x="361.25" class="cls-3"/><rect transform="translate(23.22 -32.82) rotate(5.6)" ry=".65" rx=".65" height="3.1" width="3.15" y="219.28" x="345.29" class="cls-3"/><line y2="285.01" x2="10.73" y1="158.68" x1="10.73" class="cls-2"/><rect height=".31" width="2.01" y="158.52" x="9.72"/><rect height=".31" width="2.01" y="284.86" x="9.72"/><path d="M7.62,234.45c-.07.22-.17.4-.31.56-.13.15-.29.28-.47.36s-.38.13-.6.13c-.16,0-.31-.02-.45-.07-.15-.05-.28-.11-.4-.2-.12-.09-.22-.19-.3-.31s-.14-.25-.18-.4c-.05.14-.12.25-.2.36-.08.1-.17.19-.27.27s-.21.13-.33.17c-.12.04-.25.06-.38.06-.21,0-.39-.04-.56-.12-.17-.08-.32-.2-.44-.34-.13-.14-.22-.32-.29-.52-.07-.2-.1-.42-.1-.66s.03-.46.1-.66c.07-.2.17-.37.29-.52.12-.15.27-.26.44-.35.17-.08.36-.13.57-.13.13,0,.26.02.38.06.12.04.24.1.34.17.1.07.19.16.27.27.08.1.14.22.19.35.04-.15.1-.28.18-.4s.19-.22.31-.3c.12-.08.25-.15.4-.2.14-.05.29-.07.45-.07.21,0,.41.04.6.13.18.09.34.21.47.36.13.15.24.34.31.56.07.22.11.46.11.72s-.04.5-.11.72ZM3.07,234.09c.04.11.09.2.16.28.07.08.15.14.26.18s.21.07.33.07c.11,0,.22-.02.32-.07.1-.04.19-.11.26-.19.07-.08.13-.17.17-.28s.06-.23.06-.35-.02-.25-.06-.35c-.04-.1-.1-.2-.17-.28s-.16-.14-.26-.19c-.1-.04-.21-.07-.32-.07-.12,0-.23.02-.33.07-.1.04-.19.11-.26.19-.07.08-.12.17-.16.28-.04.11-.06.23-.06.36s.02.24.06.35ZM6.99,233.32c-.04-.13-.11-.23-.19-.32-.08-.09-.18-.16-.29-.21-.11-.05-.24-.08-.37-.08s-.26.03-.37.08c-.11.05-.21.12-.29.21-.08.09-.15.2-.2.33-.05.13-.07.26-.07.41s.02.28.07.41c.04.13.11.23.19.33s.18.16.3.21c.11.05.24.07.37.07.14,0,.27-.02.38-.07.11-.05.21-.12.29-.21.08-.09.14-.2.19-.33.04-.13.07-.26.07-.41s-.02-.29-.07-.41Z"/><path d="M2.54,228.54c.13-.25.32-.47.55-.65.23-.18.52-.32.85-.42.33-.1.69-.15,1.08-.15s.76.05,1.1.15.62.24.86.42c.24.18.43.4.56.65.13.25.2.52.2.83s-.07.57-.2.82-.32.47-.56.65c-.24.18-.53.32-.86.42-.33.1-.7.15-1.1.15s-.75-.05-1.08-.15c-.33-.1-.61-.24-.85-.42-.24-.18-.42-.4-.55-.65-.13-.25-.2-.53-.2-.83s.07-.58.2-.83ZM3.17,229.89c.1.16.23.29.41.41.18.11.38.2.63.27.24.07.51.1.81.1s.57-.03.82-.09c.25-.06.46-.15.64-.27.18-.12.32-.25.42-.41.1-.16.15-.33.15-.52s-.05-.37-.15-.53c-.1-.16-.24-.3-.42-.41-.18-.11-.39-.2-.64-.27-.25-.06-.52-.09-.82-.09s-.56.03-.81.09c-.25.06-.46.15-.63.26-.17.11-.31.25-.41.41-.1.16-.15.34-.15.53s.05.37.15.52Z"/><path d="M2.54,223.91c.13-.25.32-.47.55-.65.23-.18.52-.32.85-.42.33-.1.69-.15,1.08-.15s.76.05,1.1.15.62.24.86.42c.24.18.43.4.56.65.13.25.2.52.2.83s-.07.57-.2.82-.32.47-.56.65c-.24.18-.53.32-.86.42-.33.1-.7.15-1.1.15s-.75-.05-1.08-.15c-.33-.1-.61-.24-.85-.42-.24-.18-.42-.4-.55-.65-.13-.25-.2-.53-.2-.83s.07-.58.2-.83ZM3.17,225.26c.1.16.23.29.41.41.18.11.38.2.63.27.24.07.51.1.81.1s.57-.03.82-.09c.25-.06.46-.15.64-.27.18-.12.32-.25.42-.41.1-.16.15-.33.15-.52s-.05-.37-.15-.53c-.1-.16-.24-.3-.42-.41-.18-.11-.39-.2-.64-.27-.25-.06-.52-.09-.82-.09s-.56.03-.81.09c-.25.06-.46.15-.63.26-.17.11-.31.25-.41.41-.1.16-.15.34-.15.53s.05.37.15.52Z"/><path d="M4.04,219.08h.67c-.24-.11-.42-.26-.54-.45-.12-.18-.18-.4-.18-.63,0-.26.07-.48.2-.67.14-.19.33-.32.59-.41-.26-.11-.45-.27-.59-.46-.14-.2-.2-.43-.2-.7,0-.38.12-.67.37-.88.25-.21.61-.31,1.07-.31h2.25v.7h-2.16c-.29,0-.52.07-.69.2-.17.13-.25.31-.25.54,0,.12.02.22.07.32.05.1.11.18.2.26.09.07.19.13.32.16.12.04.26.06.4.06h2.11v.7h-2.16c-.14,0-.27.02-.38.06-.12.04-.22.09-.3.15-.08.06-.14.14-.19.23-.04.09-.07.2-.07.31s.02.22.07.32c.05.1.12.18.21.25.09.07.2.12.32.17.12.04.26.06.41.06h2.09v.7h-3.64v-.68Z"/><path d="M4.04,212.89h.67c-.24-.11-.42-.26-.54-.45-.12-.18-.18-.4-.18-.63,0-.26.07-.48.2-.67.14-.19.33-.32.59-.41-.26-.11-.45-.27-.59-.46-.14-.2-.2-.43-.2-.7,0-.38.12-.67.37-.88.25-.21.61-.31,1.07-.31h2.25v.7h-2.16c-.29,0-.52.07-.69.2-.17.13-.25.31-.25.54,0,.12.02.22.07.32.05.1.11.18.2.26.09.07.19.13.32.16.12.04.26.06.4.06h2.11v.7h-2.16c-.14,0-.27.02-.38.06-.12.04-.22.09-.3.15-.08.06-.14.14-.19.23-.04.09-.07.2-.07.31s.02.22.07.32c.05.1.12.18.21.25.09.07.2.12.32.17.12.04.26.06.41.06h2.09v.7h-3.64v-.68Z"/><line y2="127.08" x2="10.73" y1="24.49" x1="10.73" class="cls-2"/><rect height=".31" width="2.01" y="24.33" x="9.72"/><rect height=".31" width="2.01" y="126.92" x="9.72"/><path d="M7.55,88.05c-.12.24-.29.44-.51.61-.22.17-.5.3-.82.39s-.69.14-1.09.14-.8-.05-1.15-.15c-.35-.1-.64-.24-.89-.43-.25-.18-.43-.41-.56-.67-.13-.26-.2-.55-.2-.88,0-.37.09-.7.27-.97.18-.27.43-.47.76-.59l.29.64c-.21.07-.37.18-.48.34-.11.16-.17.35-.17.56,0,.2.05.38.14.55s.23.31.4.44c.17.13.37.22.61.29s.49.1.77.1h.17c.06,0,.1,0,.15,0-.25-.08-.45-.23-.59-.45-.14-.22-.21-.48-.21-.79,0-.24.04-.46.12-.65.08-.2.19-.36.34-.5.15-.14.32-.25.52-.33.2-.08.42-.12.66-.12s.47.04.68.13c.21.08.38.2.53.35.14.15.26.32.34.53s.12.43.12.68c0,.3-.06.57-.18.81ZM6.98,86.88c-.05-.12-.12-.22-.21-.3-.09-.08-.19-.15-.31-.2-.12-.05-.26-.07-.41-.07s-.29.02-.41.07c-.12.05-.23.12-.32.2s-.16.19-.21.31-.07.25-.07.4.02.27.07.39.12.22.2.31c.09.09.19.15.31.2.12.05.25.07.4.07s.28-.03.41-.08.24-.12.34-.21.17-.2.22-.32c.05-.12.08-.26.08-.4s-.03-.26-.08-.38Z"/><path d="M2.39,81.84h.65v1.92l1.54.25c-.09-.1-.16-.22-.21-.36-.05-.14-.07-.29-.07-.46,0-.25.04-.47.13-.68.08-.21.2-.38.35-.53.15-.15.33-.27.54-.35.21-.08.44-.12.69-.12s.48.04.7.13c.21.09.4.21.55.36.15.16.27.34.36.56.08.21.13.45.13.71,0,.2-.03.39-.08.58s-.13.35-.23.5c-.1.15-.22.28-.36.39-.14.11-.3.19-.48.24l-.31-.63c.24-.07.43-.19.56-.39.14-.19.21-.42.21-.67,0-.15-.03-.29-.08-.41-.05-.13-.12-.23-.21-.33-.09-.09-.2-.16-.33-.21-.13-.05-.27-.08-.43-.08s-.3.03-.44.08c-.13.05-.25.13-.34.22s-.17.21-.22.34c-.05.13-.08.28-.08.44,0,.18.04.35.1.49.07.14.17.26.31.36l-.15.62-2.79-.47v-2.52Z"/><path d="M2.54,78.1c.13-.25.32-.47.55-.65.23-.18.52-.32.85-.42.33-.1.69-.15,1.08-.15s.76.05,1.1.15.62.24.86.42c.24.18.43.4.56.65.13.25.2.52.2.83s-.07.57-.2.82-.32.47-.56.65c-.24.18-.53.32-.86.42-.33.1-.7.15-1.1.15s-.75-.05-1.08-.15c-.33-.1-.61-.24-.85-.42-.24-.18-.42-.4-.55-.65-.13-.25-.2-.53-.2-.83s.07-.58.2-.83ZM3.17,79.45c.1.16.23.29.41.41.18.11.38.2.63.27.24.07.51.1.81.1s.57-.03.82-.09c.25-.06.46-.15.64-.27.18-.12.32-.25.42-.41.1-.16.15-.33.15-.52s-.05-.37-.15-.53c-.1-.16-.24-.3-.42-.41-.18-.11-.39-.2-.64-.27-.25-.06-.52-.09-.82-.09s-.56.03-.81.09c-.25.06-.46.15-.63.26-.17.11-.31.25-.41.41-.1.16-.15.34-.15.53s.05.37.15.52Z"/><path d="M4.04,73.27h.67c-.24-.11-.42-.26-.54-.45-.12-.18-.18-.4-.18-.63,0-.26.07-.48.2-.67.14-.19.33-.32.59-.41-.26-.11-.45-.27-.59-.46-.14-.2-.2-.43-.2-.7,0-.38.12-.67.37-.88.25-.21.61-.31,1.07-.31h2.25v.7h-2.16c-.29,0-.52.07-.69.2-.17.13-.25.31-.25.54,0,.12.02.22.07.32.05.1.11.18.2.26.09.07.19.13.32.16.12.04.26.06.4.06h2.11v.7h-2.16c-.14,0-.27.02-.38.06-.12.04-.22.09-.3.15-.08.06-.14.14-.19.23-.04.09-.07.2-.07.31s.02.22.07.32c.05.1.12.18.21.25.09.07.2.12.32.17.12.04.26.06.41.06h2.09v.7h-3.64v-.68Z"/><path d="M4.04,67.08h.67c-.24-.11-.42-.26-.54-.45-.12-.18-.18-.4-.18-.63,0-.26.07-.48.2-.67.14-.19.33-.32.59-.41-.26-.11-.45-.27-.59-.46-.14-.2-.2-.43-.2-.7,0-.38.12-.67.37-.88.25-.21.61-.31,1.07-.31h2.25v.7h-2.16c-.29,0-.52.07-.69.2-.17.13-.25.31-.25.54,0,.12.02.22.07.32.05.1.11.18.2.26.09.07.19.13.32.16.12.04.26.06.4.06h2.11v.7h-2.16c-.14,0-.27.02-.38.06-.12.04-.22.09-.3.15-.08.06-.14.14-.19.23-.04.09-.07.2-.07.31s.02.22.07.32c.05.1.12.18.21.25.09.07.2.12.32.17.12.04.26.06.41.06h2.09v.7h-3.64v-.68Z"/><line y2="12.6" x2="32.71" y1="12.6" x1="269.68" class="cls-2"/><rect height="2.01" width=".31" y="11.6" x="269.53"/><rect height="2.01" width=".31" y="11.6" x="32.56"/><path d="M138.18,3.35v5.29h-.72v-4.54l-1.3.64v-.73l1.36-.67h.67Z"/><path d="M142.12,3.35v.65h-1.92l-.25,1.54c.1-.09.22-.16.36-.21.14-.05.29-.07.46-.07.25,0,.47.04.68.13.21.08.38.2.53.35.15.15.27.33.35.54.08.21.12.44.12.69s-.04.48-.13.7c-.09.21-.21.4-.36.55-.16.15-.34.27-.56.36-.21.08-.45.13-.71.13-.2,0-.39-.03-.58-.08s-.35-.13-.5-.23c-.15-.1-.28-.22-.39-.36-.11-.14-.19-.3-.24-.48l.63-.31c.07.24.19.43.39.56.19.14.42.21.67.21.15,0,.29-.03.41-.08.13-.05.23-.12.33-.21.09-.09.16-.2.21-.33.05-.13.08-.27.08-.43s-.03-.3-.08-.44c-.05-.13-.13-.25-.22-.34s-.21-.17-.34-.22c-.13-.05-.28-.08-.44-.08-.18,0-.35.04-.49.1-.14.07-.26.17-.36.31l-.62-.15.47-2.79h2.52Z"/><path d="M145.87,3.49c.25.13.47.32.65.55.18.23.32.52.42.85.1.33.15.69.15,1.08s-.05.76-.15,1.1-.24.62-.42.86c-.18.24-.4.43-.65.56-.25.13-.52.2-.83.2s-.57-.07-.82-.2-.47-.32-.65-.56c-.18-.24-.32-.53-.42-.86-.1-.33-.15-.7-.15-1.1s.05-.75.15-1.08c.1-.33.24-.61.42-.85.18-.24.4-.42.65-.55.25-.13.53-.2.83-.2s.58.07.83.2ZM144.51,4.12c-.16.1-.29.23-.41.41-.11.18-.2.38-.27.63-.07.24-.1.51-.1.81s.03.57.09.82c.06.25.15.46.27.64.12.18.25.32.41.42.16.1.33.15.52.15s.37-.05.53-.15c.16-.1.3-.24.41-.42.11-.18.2-.39.27-.64.06-.25.09-.52.09-.82s-.03-.56-.09-.81c-.06-.25-.15-.46-.26-.63-.11-.17-.25-.31-.41-.41-.16-.1-.34-.15-.53-.15s-.37.05-.52.15Z"/><path d="M150.5,3.49c.25.13.47.32.65.55.18.23.32.52.42.85.1.33.15.69.15,1.08s-.05.76-.15,1.1-.24.62-.42.86c-.18.24-.4.43-.65.56-.25.13-.52.2-.83.2s-.57-.07-.82-.2-.47-.32-.65-.56c-.18-.24-.32-.53-.42-.86-.1-.33-.15-.7-.15-1.1s.05-.75.15-1.08c.1-.33.24-.61.42-.85.18-.24.4-.42.65-.55.25-.13.53-.2.83-.2s.58.07.83.2ZM149.15,4.12c-.16.1-.29.23-.41.41-.11.18-.2.38-.27.63-.07.24-.1.51-.1.81s.03.57.09.82c.06.25.15.46.27.64.12.18.25.32.41.42.16.1.33.15.52.15s.37-.05.53-.15c.16-.1.3-.24.41-.42.11-.18.2-.39.27-.64.06-.25.09-.52.09-.82s-.03-.56-.09-.81c-.06-.25-.15-.46-.26-.63-.11-.17-.25-.31-.41-.41-.16-.1-.34-.15-.53-.15s-.37.05-.52.15Z"/><path d="M155.33,4.99v.67c.11-.24.26-.42.45-.54.18-.12.4-.18.63-.18.26,0,.48.07.67.2.19.14.32.33.41.59.11-.26.27-.45.46-.59.2-.14.43-.2.7-.2.38,0,.67.12.88.37.21.25.31.61.31,1.07v2.25h-.7v-2.16c0-.29-.07-.52-.2-.69-.13-.17-.31-.25-.54-.25-.12,0-.22.02-.32.07-.1.05-.18.11-.26.2-.07.09-.13.19-.16.32-.04.12-.06.26-.06.4v2.11h-.7v-2.16c0-.14-.02-.27-.06-.38-.04-.12-.09-.22-.15-.3-.06-.08-.14-.14-.23-.19-.09-.04-.2-.07-.31-.07s-.22.02-.32.07c-.1.05-.18.12-.25.21-.07.09-.12.2-.17.32-.04.12-.06.26-.06.41v2.09h-.7v-3.64h.68Z"/><path d="M161.51,4.99v.67c.11-.24.26-.42.45-.54.18-.12.4-.18.63-.18.26,0,.48.07.67.2.19.14.32.33.41.59.11-.26.27-.45.46-.59.2-.14.43-.2.7-.2.38,0,.67.12.88.37.21.25.31.61.31,1.07v2.25h-.7v-2.16c0-.29-.07-.52-.2-.69-.13-.17-.31-.25-.54-.25-.12,0-.22.02-.32.07-.1.05-.18.11-.26.2-.07.09-.13.19-.16.32-.04.12-.06.26-.06.4v2.11h-.7v-2.16c0-.14-.02-.27-.06-.38-.04-.12-.09-.22-.15-.3-.06-.08-.14-.14-.23-.19-.09-.04-.2-.07-.31-.07s-.22.02-.32.07c-.1.05-.18.12-.25.21-.07.09-.12.2-.17.32-.04.12-.06.26-.06.41v2.09h-.7v-3.64h.68Z"/></g></g></svg>