<svg viewBox="0 0 531.27 288" xmlns:xlink="http://www.w3.org/1999/xlink" xmlns="http://www.w3.org/2000/svg" id="Camada_2"><defs><style>.cls-1,.cls-2,.cls-3{fill:none;}.cls-4{fill:#12100c;}.cls-2{stroke-width:.3px;}.cls-2,.cls-3{stroke:#12100c;stroke-linecap:round;stroke-linejoin:round;}.cls-3{stroke-width:.3px;}</style><symbol viewBox="0 0 531.27 288" id="fundo_transparente"><rect height="288" width="531.27" x="0" class="cls-1"/></symbol></defs><g id="Nature"><g id="Rotas_cicláveis"><g id="placas_direcionais_L"><use xlink:href="#fundo_transparente" height="288" width="531.27"/><path d="M301.78,196.06H35.03c-2.83,0-5.13,2.3-5.13,5.13v74.61c0,2.83,2.3,5.13,5.13,5.13h266.75c1.36,0,2.66-.54,3.63-1.5l34.77-38.76c1.2-1.2,1.2-3.15,0-4.35l-34.77-38.76c-.96-.96-2.27-1.5-3.63-1.5" class="cls-3"/><path d="M300.22,199.36H35.88c-1.42,0-2.56,1.15-2.56,2.56v73.13c0,1.42,1.15,2.56,2.56,2.56h264.34c1.24,0,2.43-.49,3.31-1.37l31.79-35.77c1.1-1.1,1.1-2.88,0-3.98l-31.79-35.77c-.88-.88-2.07-1.37-3.31-1.37M300.22,201.93c.57,0,1.1.22,1.5.62l23.11,34.07c.85,1.1.85,2.64,0,3.75l-23.11,34.07c-.4.4-.94.62-1.5.62H36.31c-.29,0-.51-.23-.51-.51v-72.11c0-.28.23-.51.51-.51h263.91Z" class="cls-3"/><path d="M246.08,235.31c1.56,0,3.03.4,4.31,1.1l-5.17,7.34c-.22.32-.25.73-.07,1.08.18.35.54.56.93.56h8.97c-.52,4.49-4.34,7.99-8.97,7.99-4.98,0-9.03-4.05-9.03-9.03s4.05-9.03,9.03-9.03M256.12,231.9l3.4,11.4h-2.37c-.28-2.95-1.71-5.57-3.85-7.4l2.82-4ZM274.11,229.37l-12.71,12.98-3.53-11.82,16.23-1.15ZM255.05,243.3h-6.96l4-5.68c1.6,1.44,2.7,3.44,2.96,5.68M280.42,235.31c4.98,0,9.03,4.05,9.03,9.03s-4.05,9.03-9.03,9.03-9.03-4.05-9.03-9.03c0-3.58,2.09-6.67,5.1-8.13l2.91,8.47c.15.43.55.71.99.71.11,0,.23-.02.34-.06.54-.19.83-.78.65-1.32l-2.91-8.48c.63-.14,1.29-.22,1.96-.22M246.08,255.46c5.78,0,10.54-4.43,11.07-10.07h3.78s.08,0,.12,0c.01,0,.03,0,.04,0,.04,0,.08-.01.12-.02h0s0,0,0,0c.02,0,.04,0,.05-.02l.05-.02s.02,0,.03,0c.09-.04.16-.09.24-.15h0s.05-.05.07-.07l13.24-13.52.92,2.68c-3.84,1.76-6.51,5.63-6.51,10.11,0,6.13,4.99,11.12,11.12,11.12s11.12-4.99,11.12-11.12-4.99-11.12-11.12-11.12c-.91,0-1.79.12-2.64.32l-1.42-4.12c0-.06-.02-.11-.04-.16l-.46-1.33c-.02-.06-.04-.11-.07-.16l-1.9-5.53c-.15-.42-.54-.71-.99-.71h-3.2c-.58,0-1.04.47-1.04,1.04s.47,1.04,1.04,1.04h2.45l1.27,3.71-16.18,1.15-.89-2.99h1.68c.58,0,1.04-.46,1.04-1.04s-.46-1.04-1.04-1.04h-6.15c-.57,0-1.04.47-1.04,1.04s.47,1.04,1.04,1.04h2.3l1.15,3.88-3.76,5.34c-1.63-.93-3.51-1.47-5.52-1.47-6.13,0-11.12,4.99-11.12,11.12s4.99,11.12,11.12,11.12" class="cls-4"/><path d="M47.75,232.27c-.16,0-.26-.1-.26-.26v-11.98c0-.15.1-.26.26-.26h2.38c.16,0,.26.11.26.26v1.07h.03c.59-.96,1.66-1.61,3.23-1.61.99,0,1.97.39,2.61,1.04.13.13.16.23.05.36l-1.37,1.74c-.1.13-.23.16-.36.05-.57-.36-1.17-.6-1.84-.6-1.63,0-2.36,1.17-2.36,3.17v6.77c0,.16-.1.26-.26.26h-2.38Z" class="cls-4"/><path d="M65.66,228.33c.21-.65.26-1.25.26-2.31s-.05-1.63-.26-2.31c-.36-1.04-1.16-1.63-2.33-1.63s-1.99.6-2.36,1.63c-.21.67-.26,1.25-.26,2.31s.05,1.66.26,2.31c.36,1.04,1.19,1.63,2.36,1.63s1.96-.6,2.33-1.63M58.18,229.11c-.28-.88-.41-1.71-.41-3.09s.13-2.2.41-3.08c.7-2.18,2.62-3.45,5.15-3.45s4.43,1.27,5.12,3.45c.29.88.42,1.71.42,3.08s-.13,2.2-.42,3.09c-.7,2.18-2.61,3.45-5.12,3.45s-4.45-1.27-5.15-3.45" class="cls-4"/><path d="M75.6,232.43c-2.51,0-3.47-1.22-3.47-3.66v-6.59c0-.1-.05-.16-.15-.16h-.83c-.16,0-.26-.1-.26-.26v-1.74c0-.16.1-.26.26-.26h.83c.1,0,.15-.05.15-.16v-3.42c0-.16.1-.26.26-.26h2.38c.16,0,.26.1.26.26v3.42c0,.1.05.16.16.16h1.66c.16,0,.26.1.26.26v1.74c0,.15-.1.26-.26.26h-1.66c-.11,0-.16.05-.16.16v6.48c0,.88.36,1.17,1.17,1.17h.65c.16,0,.26.1.26.26v2.07c0,.16-.1.26-.26.26h-1.24Z" class="cls-4"/><path d="M87.35,228.07v-.96c0-.1-.05-.16-.15-.16h-2.07c-1.86,0-2.69.52-2.69,1.68,0,1.04.75,1.55,2.15,1.55,1.78,0,2.77-.7,2.77-2.12M87.66,232.27c-.15,0-.26-.1-.26-.26v-.91h-.02c-.6.86-1.76,1.45-3.52,1.45-2.28,0-4.19-1.19-4.19-3.81s1.91-3.97,5-3.97h2.54c.1,0,.15-.05.15-.15v-.6c0-1.43-.67-2.08-2.77-2.08-1.4,0-2.25.39-2.85.86-.13.1-.29.08-.36-.05l-.96-1.71c-.08-.13-.05-.26.05-.34,1.01-.73,2.39-1.22,4.43-1.22,3.81,0,5.2,1.3,5.2,4.35v8.17c0,.16-.1.26-.26.26h-2.17Z" class="cls-4"/><path d="M107.05,228.35c.18-.57.26-1.19.26-2.33s-.08-1.76-.26-2.34c-.33-1.04-1.14-1.61-2.33-1.61s-1.97.57-2.3,1.61c-.18.57-.26,1.19-.26,2.34s.08,1.76.26,2.33c.34,1.04,1.14,1.61,2.3,1.61s1.99-.57,2.33-1.61M107.56,232.27c-.15,0-.26-.1-.26-.26v-.94h-.02c-.6.86-1.63,1.48-3.32,1.48-2.12,0-3.68-1.01-4.33-3.01-.31-.96-.44-1.84-.44-3.53s.13-2.57.44-3.53c.65-2,2.2-3.01,4.33-3.01,1.68,0,2.72.62,3.32,1.48h.02v-6.07c0-.16.11-.26.26-.26h2.38c.15,0,.26.1.26.26v17.11c0,.16-.11.26-.26.26h-2.38Z" class="cls-4"/><path d="M120.93,228.07v-.96c0-.1-.05-.16-.15-.16h-2.07c-1.86,0-2.69.52-2.69,1.68,0,1.04.75,1.55,2.15,1.55,1.78,0,2.77-.7,2.77-2.12M121.24,232.27c-.15,0-.26-.1-.26-.26v-.91h-.02c-.6.86-1.76,1.45-3.52,1.45-2.28,0-4.2-1.19-4.2-3.81s1.91-3.97,5-3.97h2.54c.1,0,.15-.05.15-.15v-.6c0-1.43-.67-2.08-2.77-2.08-1.4,0-2.25.39-2.85.86-.13.1-.28.08-.36-.05l-.96-1.71c-.08-.13-.05-.26.05-.34,1.01-.73,2.38-1.22,4.43-1.22,3.81,0,5.2,1.3,5.2,4.35v8.17c0,.16-.1.26-.26.26h-2.18Z" class="cls-4"/><path d="M47.03,253.38c0-2.8.1-3.68.47-4.77.91-2.88,3.13-4.33,6.11-4.33,2.82,0,4.94,1.45,5.95,3.79.05.13,0,.26-.13.31l-2.2,1.06c-.16.08-.29,0-.34-.13-.57-1.25-1.55-2.28-3.29-2.28s-2.67.91-3.16,2.33c-.23.73-.31,1.42-.31,4.02s.08,3.29.31,4.02c.49,1.42,1.48,2.33,3.16,2.33s2.72-1.04,3.29-2.28c.05-.13.18-.21.34-.13l2.2,1.06c.13.05.18.18.13.31-1.01,2.33-3.13,3.79-5.95,3.79-2.98,0-5.2-1.45-6.11-4.33-.37-1.09-.47-1.97-.47-4.77" class="cls-4"/><path d="M69.89,258.26c.21-.65.26-1.25.26-2.31s-.05-1.63-.26-2.31c-.36-1.04-1.17-1.63-2.33-1.63s-1.99.6-2.36,1.63c-.21.67-.26,1.25-.26,2.31s.05,1.66.26,2.31c.37,1.04,1.19,1.63,2.36,1.63s1.97-.6,2.33-1.63M62.41,259.04c-.28-.88-.41-1.71-.41-3.09s.13-2.2.41-3.09c.7-2.18,2.61-3.45,5.15-3.45s4.43,1.27,5.13,3.45c.29.88.41,1.71.41,3.09s-.13,2.2-.41,3.09c-.7,2.18-2.61,3.45-5.13,3.45s-4.45-1.27-5.15-3.45" class="cls-4"/><path d="M75.29,260.52c-.11-.1-.11-.26,0-.36l1.48-1.55c.1-.11.26-.11.36,0,.91.83,2.35,1.42,3.65,1.42,1.53,0,2.3-.62,2.3-1.48,0-.75-.44-1.22-2.07-1.37l-1.35-.13c-2.54-.26-3.84-1.55-3.84-3.68,0-2.41,1.74-3.94,4.84-3.94,1.94,0,3.57.65,4.69,1.53.13.1.13.26.05.36l-1.27,1.53c-.1.13-.23.13-.36.05-.78-.55-2.02-1.04-3.26-1.04s-1.89.55-1.89,1.3.44,1.17,2.05,1.32l1.35.13c2.61.26,3.86,1.61,3.86,3.66,0,2.49-1.81,4.22-5.23,4.22-2.56,0-4.32-1.01-5.35-1.97" class="cls-4"/><path d="M92.71,262.36c-2.51,0-3.47-1.22-3.47-3.66v-6.58c0-.1-.05-.15-.16-.15h-.83c-.15,0-.26-.11-.26-.26v-1.74c0-.16.1-.26.26-.26h.83c.11,0,.16-.05.16-.16v-3.42c0-.16.1-.26.26-.26h2.38c.16,0,.26.1.26.26v3.42c0,.1.05.16.16.16h1.65c.16,0,.26.1.26.26v1.74c0,.15-.1.26-.26.26h-1.65c-.11,0-.16.05-.16.15v6.48c0,.88.37,1.17,1.17,1.17h.65c.16,0,.26.1.26.26v2.07c0,.16-.1.26-.26.26h-1.24Z" class="cls-4"/><path d="M104.46,258v-.96c0-.1-.05-.16-.15-.16h-2.07c-1.86,0-2.69.52-2.69,1.68,0,1.04.75,1.56,2.15,1.56,1.79,0,2.77-.7,2.77-2.13M104.77,262.2c-.15,0-.26-.1-.26-.26v-.91h-.03c-.6.86-1.76,1.45-3.52,1.45-2.28,0-4.19-1.19-4.19-3.81s1.91-3.97,5-3.97h2.54c.1,0,.15-.05.15-.16v-.6c0-1.42-.67-2.07-2.77-2.07-1.4,0-2.25.39-2.85.86-.13.1-.29.08-.36-.05l-.96-1.71c-.08-.13-.05-.26.05-.34,1.01-.73,2.39-1.22,4.43-1.22,3.81,0,5.2,1.3,5.2,4.35v8.17c0,.16-.1.26-.26.26h-2.17Z" class="cls-4"/><path d="M125.45,255.8l-2.33-6.84h-.08l-2.36,6.84h4.76ZM121.59,244.83c.05-.15.15-.26.34-.26h2.38c.18,0,.29.11.34.26l5.95,17.11c.06.16,0,.26-.18.26h-2.54c-.18,0-.28-.08-.34-.26l-1.17-3.42h-6.63l-1.16,3.42c-.05.18-.16.26-.34.26h-2.51c-.18,0-.24-.1-.18-.26l6.03-17.11Z" class="cls-4"/><path d="M136.48,262.36c-2.51,0-3.47-1.22-3.47-3.66v-6.58c0-.1-.05-.15-.15-.15h-.83c-.16,0-.26-.11-.26-.26v-1.74c0-.16.1-.26.26-.26h.83c.1,0,.15-.05.15-.16v-3.42c0-.16.11-.26.26-.26h2.38c.15,0,.26.1.26.26v3.42c0,.1.05.16.16.16h1.66c.16,0,.26.1.26.26v1.74c0,.15-.1.26-.26.26h-1.66c-.1,0-.16.05-.16.15v6.48c0,.88.36,1.17,1.17,1.17h.65c.16,0,.26.1.26.26v2.07c0,.16-.1.26-.26.26h-1.25Z" class="cls-4"/><path d="M144.27,262.36c-2.43,0-3.42-1.17-3.42-3.58v-13.95c0-.15.1-.26.26-.26h2.38c.16,0,.26.11.26.26v13.8c0,.86.34,1.14,1.09,1.14h.57c.15,0,.26.1.26.26v2.07c0,.16-.1.26-.26.26h-1.14Z" class="cls-4"/><path d="M155.72,258v-.96c0-.1-.05-.16-.15-.16h-2.07c-1.86,0-2.69.52-2.69,1.68,0,1.04.75,1.56,2.15,1.56,1.78,0,2.77-.7,2.77-2.13M155.51,247.81c-.23,0-.33-.05-.54-.26l-1.48-1.53h-.05l-1.48,1.53c-.21.21-.31.26-.54.26h-1.63c-.16,0-.21-.13-.1-.26l2.54-3.24c.13-.18.26-.26.47-.26h1.55c.21,0,.34.08.47.26l2.54,3.24c.1.13.05.26-.11.26h-1.63ZM156.03,262.2c-.15,0-.26-.1-.26-.26v-.91h-.02c-.6.86-1.76,1.45-3.52,1.45-2.28,0-4.19-1.19-4.19-3.81s1.91-3.97,4.99-3.97h2.54c.1,0,.15-.05.15-.16v-.6c0-1.42-.67-2.07-2.77-2.07-1.4,0-2.25.39-2.85.86-.13.1-.29.08-.36-.05l-.96-1.71c-.08-.13-.05-.26.05-.34,1.01-.73,2.38-1.22,4.43-1.22,3.81,0,5.2,1.3,5.2,4.35v8.17c0,.16-.1.26-.26.26h-2.17Z" class="cls-4"/><path d="M169.99,262.2c-.15,0-.26-.1-.26-.26v-7.21c0-1.61-.8-2.72-2.35-2.72s-2.38,1.12-2.38,2.72v7.21c0,.16-.1.26-.26.26h-2.38c-.16,0-.26-.1-.26-.26v-11.98c0-.16.1-.26.26-.26h2.38c.16,0,.26.11.26.26v.91h.03c.54-.78,1.63-1.45,3.29-1.45,2.67,0,4.33,1.97,4.33,4.64v7.88c0,.16-.11.26-.26.26h-2.38Z" class="cls-4"/><path d="M179.81,262.36c-2.51,0-3.47-1.22-3.47-3.66v-6.58c0-.1-.05-.15-.15-.15h-.83c-.16,0-.26-.11-.26-.26v-1.74c0-.16.1-.26.26-.26h.83c.1,0,.15-.05.15-.16v-3.42c0-.16.11-.26.26-.26h2.38c.15,0,.26.1.26.26v3.42c0,.1.05.16.15.16h1.66c.16,0,.26.1.26.26v1.74c0,.15-.1.26-.26.26h-1.66c-.1,0-.15.05-.15.15v6.48c0,.88.36,1.17,1.17,1.17h.65c.16,0,.26.1.26.26v2.07c0,.16-.1.26-.26.26h-1.24Z" class="cls-4"/><path d="M184.6,262.2c-.15,0-.26-.1-.26-.26v-11.98c0-.16.1-.26.26-.26h2.38c.15,0,.26.1.26.26v11.98c0,.16-.11.26-.26.26h-2.38ZM184.6,247.34c-.15,0-.26-.1-.26-.26v-2.26c0-.15.1-.26.26-.26h2.38c.15,0,.26.1.26.26v2.26c0,.16-.11.26-.26.26h-2.38Z" class="cls-4"/><path d="M190.73,259.04c-.26-.78-.39-1.76-.39-3.09s.13-2.31.39-3.09c.73-2.23,2.64-3.45,5.15-3.45,1.86,0,3.34.75,4.33,1.94.08.1.1.26-.03.36l-1.63,1.43c-.13.1-.26.08-.36-.05-.63-.7-1.27-1.09-2.31-1.09-1.11,0-1.96.54-2.33,1.63-.21.62-.26,1.35-.26,2.31s.05,1.71.26,2.33c.36,1.07,1.22,1.61,2.33,1.61,1.04,0,1.68-.39,2.31-1.09.1-.13.23-.13.36-.03l1.63,1.43c.13.1.1.23.03.36-.98,1.17-2.46,1.92-4.33,1.92-2.51,0-4.43-1.22-5.15-3.45" class="cls-4"/><path d="M210.45,258v-.96c0-.1-.05-.16-.15-.16h-2.07c-1.86,0-2.69.52-2.69,1.68,0,1.04.75,1.56,2.15,1.56,1.79,0,2.77-.7,2.77-2.13M210.76,262.2c-.16,0-.26-.1-.26-.26v-.91h-.03c-.6.86-1.76,1.45-3.52,1.45-2.28,0-4.2-1.19-4.2-3.81s1.91-3.97,5-3.97h2.54c.1,0,.15-.05.15-.16v-.6c0-1.42-.67-2.07-2.77-2.07-1.4,0-2.25.39-2.85.86-.13.1-.28.08-.36-.05l-.96-1.71c-.08-.13-.05-.26.05-.34,1.01-.73,2.38-1.22,4.43-1.22,3.81,0,5.2,1.3,5.2,4.35v8.17c0,.16-.1.26-.26.26h-2.17Z" class="cls-4"/><g id="MTEXT"><path d="M175.32,123.66v.65h-1.92l-.25,1.54c.1-.09.22-.16.36-.21.14-.05.29-.07.46-.07.25,0,.47.04.68.13.21.08.38.2.53.35.15.15.27.33.35.54.08.21.12.44.12.69s-.04.48-.13.7c-.09.21-.21.4-.36.55-.16.15-.34.27-.56.36-.21.08-.45.13-.71.13-.2,0-.39-.03-.58-.08s-.35-.13-.5-.23c-.15-.1-.28-.22-.39-.36-.11-.14-.19-.3-.24-.48l.63-.31c.07.24.19.43.39.56.19.14.42.21.67.21.15,0,.29-.03.41-.08.13-.05.23-.12.33-.21.09-.09.16-.2.21-.33.05-.13.08-.27.08-.43s-.03-.3-.08-.44c-.05-.13-.13-.25-.22-.34s-.21-.17-.34-.22c-.13-.05-.28-.08-.44-.08-.18,0-.35.04-.49.1-.14.07-.26.17-.36.31l-.62-.15.47-2.79h2.52Z"/><path d="M179.31,123.66v.65h-1.92l-.25,1.54c.1-.09.22-.16.36-.21.14-.05.29-.07.46-.07.25,0,.47.04.68.13.21.08.38.2.53.35.15.15.27.33.35.54.08.21.12.44.12.69s-.04.48-.13.7c-.09.21-.21.4-.36.55-.16.15-.34.27-.56.36-.21.08-.45.13-.71.13-.2,0-.39-.03-.58-.08s-.35-.13-.5-.23c-.15-.1-.28-.22-.39-.36-.11-.14-.19-.3-.24-.48l.63-.31c.07.24.19.43.39.56.19.14.42.21.67.21.15,0,.29-.03.41-.08.13-.05.23-.12.33-.21.09-.09.16-.2.21-.33.05-.13.08-.27.08-.43s-.03-.3-.08-.44c-.05-.13-.13-.25-.22-.34s-.21-.17-.34-.22c-.13-.05-.28-.08-.44-.08-.18,0-.35.04-.49.1-.14.07-.26.17-.36.31l-.62-.15.47-2.79h2.52Z"/><path d="M183.05,123.81c.25.13.47.32.65.55.18.23.32.52.42.85.1.33.15.69.15,1.08s-.05.76-.15,1.1-.24.62-.42.86c-.18.24-.4.43-.65.56-.25.13-.52.2-.83.2s-.57-.07-.82-.2-.47-.32-.65-.56c-.18-.24-.32-.53-.42-.86-.1-.33-.15-.7-.15-1.1s.05-.75.15-1.08c.1-.33.24-.61.42-.85.18-.24.4-.42.65-.55.25-.13.53-.2.83-.2s.58.07.83.2ZM181.7,124.44c-.16.1-.29.23-.41.41-.11.18-.2.38-.27.63-.07.24-.1.51-.1.81s.03.57.09.82c.06.25.15.46.27.64.12.18.25.32.41.42.16.1.33.15.52.15s.37-.05.53-.15c.16-.1.3-.24.41-.42.11-.18.2-.39.27-.64.06-.25.09-.52.09-.82s-.03-.56-.09-.81c-.06-.25-.15-.46-.26-.63-.11-.17-.25-.31-.41-.41-.16-.1-.34-.15-.53-.15s-.37.05-.52.15Z"/><path d="M187.88,125.31v.67c.11-.24.26-.42.45-.54.18-.12.4-.18.63-.18.26,0,.48.07.67.2.19.14.32.33.41.59.11-.26.27-.45.46-.59.2-.14.43-.2.7-.2.38,0,.67.12.88.37.21.25.31.61.31,1.07v2.25h-.7v-2.16c0-.29-.07-.52-.2-.69-.13-.17-.31-.25-.54-.25-.12,0-.22.02-.32.07-.1.05-.18.11-.26.2-.07.09-.13.19-.16.32-.04.12-.06.26-.06.4v2.11h-.7v-2.16c0-.14-.02-.27-.06-.38-.04-.12-.09-.22-.15-.3-.06-.08-.14-.14-.23-.19-.09-.04-.2-.07-.31-.07s-.22.02-.32.07c-.1.05-.18.12-.25.21-.07.09-.12.2-.17.32-.04.12-.06.26-.06.41v2.09h-.7v-3.64h.68Z"/><path d="M194.06,125.31v.67c.11-.24.26-.42.45-.54.18-.12.4-.18.63-.18.26,0,.48.07.67.2.19.14.32.33.41.59.11-.26.27-.45.46-.59.2-.14.43-.2.7-.2.38,0,.67.12.88.37.21.25.31.61.31,1.07v2.25h-.7v-2.16c0-.29-.07-.52-.2-.69-.13-.17-.31-.25-.54-.25-.12,0-.22.02-.32.07-.1.05-.18.11-.26.2-.07.09-.13.19-.16.32-.04.12-.06.26-.06.4v2.11h-.7v-2.16c0-.14-.02-.27-.06-.38-.04-.12-.09-.22-.15-.3-.06-.08-.14-.14-.23-.19-.09-.04-.2-.07-.31-.07s-.22.02-.32.07c-.1.05-.18.12-.25.21-.07.09-.12.2-.17.32-.04.12-.06.26-.06.41v2.09h-.7v-3.64h.68Z"/></g><g id="MTEXT-2"><path d="M5.68,249.35h5.28v.72h-4.54l.64,1.3h-.73l-.66-1.36v-.67Z"/><path d="M5.68,245.4h.65v1.92l1.54.25c-.09-.1-.16-.22-.21-.36-.05-.14-.07-.29-.07-.46,0-.25.04-.47.13-.68.08-.21.2-.38.35-.53.15-.15.33-.27.54-.35.21-.08.44-.12.69-.12s.48.04.7.13c.21.09.4.21.55.36.15.16.27.34.36.56.08.21.13.45.13.71,0,.2-.03.39-.08.58s-.13.35-.23.5c-.1.15-.22.28-.36.39s-.3.19-.48.24l-.31-.63c.24-.07.43-.19.56-.39.14-.19.21-.42.21-.67,0-.15-.03-.29-.08-.41-.05-.13-.12-.23-.21-.33s-.2-.16-.33-.21c-.13-.05-.27-.08-.43-.08s-.3.03-.44.08c-.13.05-.25.13-.34.22s-.17.21-.22.34c-.05.13-.08.28-.08.44,0,.18.03.35.1.49.07.14.17.26.31.36l-.15.62-2.79-.47v-2.52Z"/><path d="M5.83,241.66c.13-.25.32-.47.55-.65.23-.18.52-.32.85-.42.33-.1.69-.15,1.09-.15s.76.05,1.1.15c.33.1.62.24.86.42.24.18.43.4.56.65.13.25.2.52.2.83s-.07.57-.2.82c-.13.25-.32.47-.56.65-.24.18-.53.32-.86.42-.33.1-.7.15-1.1.15s-.75-.05-1.09-.15c-.33-.1-.61-.24-.85-.42-.24-.18-.42-.4-.55-.65-.13-.25-.2-.53-.2-.83s.07-.58.2-.83ZM6.46,243.01c.1.16.23.29.41.41.17.11.38.2.63.27.24.07.51.1.8.1s.57-.03.82-.09c.25-.06.46-.15.64-.27.18-.12.32-.25.42-.41.1-.16.15-.33.15-.52s-.05-.37-.15-.53c-.1-.16-.24-.3-.42-.41-.18-.11-.39-.2-.64-.27s-.52-.09-.82-.09-.56.03-.81.09-.46.15-.63.26c-.18.11-.31.25-.41.41-.1.16-.15.34-.15.53s.05.37.15.52Z"/><path d="M7.33,236.83h.66c-.24-.11-.42-.26-.54-.45-.12-.18-.18-.4-.18-.63,0-.26.07-.48.2-.67.14-.19.33-.32.59-.41-.26-.11-.45-.27-.59-.46-.14-.2-.2-.43-.2-.7,0-.38.12-.67.37-.88s.61-.31,1.07-.31h2.25v.7h-2.16c-.29,0-.52.07-.69.2-.17.13-.25.31-.25.54,0,.12.02.22.07.32.05.1.11.18.2.26.09.07.19.13.32.16.12.04.26.06.4.06h2.11v.7h-2.16c-.14,0-.27.02-.38.06-.12.04-.22.09-.3.15s-.14.14-.19.23c-.04.09-.07.2-.07.31s.02.22.07.32c.05.1.12.18.21.25.09.07.2.12.32.17.12.04.26.06.41.06h2.09v.7h-3.64v-.68Z"/><path d="M7.33,230.65h.66c-.24-.11-.42-.26-.54-.45-.12-.18-.18-.4-.18-.63,0-.26.07-.48.2-.67.14-.19.33-.32.59-.41-.26-.11-.45-.27-.59-.46-.14-.2-.2-.43-.2-.7,0-.38.12-.67.37-.88s.61-.31,1.07-.31h2.25v.7h-2.16c-.29,0-.52.07-.69.2-.17.13-.25.31-.25.54,0,.12.02.22.07.32.05.1.11.18.2.26.09.07.19.13.32.16.12.04.26.06.4.06h2.11v.7h-2.16c-.14,0-.27.02-.38.06-.12.04-.22.09-.3.15s-.14.14-.19.23c-.04.09-.07.2-.07.31s.02.22.07.32c.05.1.12.18.21.25.09.07.2.12.32.17.12.04.26.06.41.06h2.09v.7h-3.64v-.68Z"/></g><g id="MTEXT-3"><path d="M5.68,159.42h5.28v.72h-4.54l.64,1.3h-.73l-.66-1.36v-.67Z"/><path d="M5.83,155.72c.13-.25.32-.47.55-.65.23-.18.52-.32.85-.42.33-.1.69-.15,1.09-.15s.76.05,1.1.15c.33.1.62.24.86.42.24.18.43.4.56.65.13.25.2.52.2.83s-.07.57-.2.82c-.13.25-.32.47-.56.65-.24.18-.53.32-.86.42-.33.1-.7.15-1.1.15s-.75-.05-1.09-.15c-.33-.1-.61-.24-.85-.42-.24-.18-.42-.4-.55-.65-.13-.25-.2-.53-.2-.83s.07-.58.2-.83ZM6.46,157.07c.1.16.23.29.41.41.17.11.38.2.63.27.24.07.51.1.8.1s.57-.03.82-.09c.25-.06.46-.15.64-.27.18-.12.32-.25.42-.41.1-.16.15-.33.15-.52s-.05-.37-.15-.53c-.1-.16-.24-.3-.42-.41-.18-.11-.39-.2-.64-.27s-.52-.09-.82-.09-.56.03-.81.09-.46.15-.63.26c-.18.11-.31.25-.41.41-.1.16-.15.34-.15.53s.05.37.15.52Z"/><path d="M7.33,150.89h.66c-.24-.11-.42-.26-.54-.45-.12-.18-.18-.4-.18-.63,0-.26.07-.48.2-.67.14-.19.33-.32.59-.41-.26-.11-.45-.27-.59-.46-.14-.2-.2-.43-.2-.7,0-.38.12-.67.37-.88s.61-.31,1.07-.31h2.25v.7h-2.16c-.29,0-.52.07-.69.2-.17.13-.25.31-.25.54,0,.12.02.22.07.32.05.1.11.18.2.26.09.07.19.13.32.16.12.04.26.06.4.06h2.11v.7h-2.16c-.14,0-.27.02-.38.06-.12.04-.22.09-.3.15s-.14.14-.19.23c-.04.09-.07.2-.07.31s.02.22.07.32c.05.1.12.18.21.25.09.07.2.12.32.17.12.04.26.06.41.06h2.09v.7h-3.64v-.68Z"/><path d="M7.33,144.71h.66c-.24-.11-.42-.26-.54-.45-.12-.18-.18-.4-.18-.63,0-.26.07-.48.2-.67.14-.19.33-.32.59-.41-.26-.11-.45-.27-.59-.46-.14-.2-.2-.43-.2-.7,0-.38.12-.67.37-.88s.61-.31,1.07-.31h2.25v.7h-2.16c-.29,0-.52.07-.69.2-.17.13-.25.31-.25.54,0,.12.02.22.07.32.05.1.11.18.2.26.09.07.19.13.32.16.12.04.26.06.4.06h2.11v.7h-2.16c-.14,0-.27.02-.38.06-.12.04-.22.09-.3.15s-.14.14-.19.23c-.04.09-.07.2-.07.31s.02.22.07.32c.05.1.12.18.21.25.09.07.2.12.32.17.12.04.26.06.41.06h2.09v.7h-3.64v-.68Z"/></g><line y2="133.71" x2="342.07" y1="133.71" x1="28.91" class="cls-2"/><rect height="1.95" width=".3" y="132.73" x="28.76" class="cls-4"/><rect height="1.95" width=".3" y="132.73" x="341.92" class="cls-4"/><line y2="153.39" x2="15.73" y1="148.03" x1="15.73" class="cls-2"/><rect height=".3" width="1.95" y="147.88" x="14.75" class="cls-4"/><rect height=".3" width="1.95" y="153.24" x="14.75" class="cls-4"/><line y2="280.78" x2="15.73" y1="196.52" x1="15.73" class="cls-2"/><rect height=".3" width="1.95" y="196.36" x="14.75" class="cls-4"/><rect height=".3" width="1.95" y="280.63" x="14.75" class="cls-4"/><rect height="5.66" width="311.18" y="147.88" x="29.9" class="cls-3"/><rect height="84.85" width="5.66" y="196.07" x="383.6" class="cls-3"/></g></g></g></svg>