<svg viewBox="0 0 531.27 288" xmlns:xlink="http://www.w3.org/1999/xlink" xmlns="http://www.w3.org/2000/svg" id="Camada_2"><defs><style>.cls-1,.cls-2,.cls-3{fill:none;}.cls-4{fill:#12100c;}.cls-2{stroke:#000;stroke-width:.41px;}.cls-2,.cls-3{stroke-linecap:round;stroke-linejoin:round;}.cls-3{stroke:#12100c;stroke-width:.3px;}</style><symbol viewBox="0 0 531.27 288" id="fundo_transparente"><rect height="288" width="531.27" x="0" class="cls-1"/></symbol></defs><g id="RePlastic"><g id="deck_modular_xs"><use xlink:href="#fundo_transparente" height="288" width="531.27"/><g id="LINE"><line y2="227.34" x2="44.69" y1="227.34" x1="45.67" class="cls-3"/></g><g id="LINE-2"><line y2="227.34" x2="69.26" y1="30.65" x1="69.26" class="cls-3"/></g><g id="LINE-3"><line y2="227.34" x2="211.23" y1="30.65" x1="211.23" class="cls-3"/></g><g id="LINE-4"><line y2="227.34" x2="97.89" y1="30.65" x1="97.89" class="cls-3"/></g><g id="LINE-5"><line y2="227.34" x2="153.96" y1="30.65" x1="153.96" class="cls-3"/></g><g id="LINE-6"><line y2="227.34" x2="125.33" y1="30.65" x1="125.33" class="cls-3"/></g><g id="LINE-7"><polyline points="213.65 30.65 40.63 30.65 40.63 227.34" class="cls-3"/></g><g id="LINE-8"><line y2="227.34" x2="68.07" y1="30.65" x1="68.07" class="cls-3"/></g><g id="LINE-9"><line y2="227.34" x2="183.79" y1="30.65" x1="183.79" class="cls-3"/></g><g id="LINE-10"><line y2="227.34" x2="182.6" y1="30.65" x1="182.6" class="cls-3"/></g><g id="LINE-11"><line y2="227.34" x2="96.7" y1="30.65" x1="96.7" class="cls-3"/></g><g id="LINE-12"><line y2="227.34" x2="155.16" y1="30.65" x1="155.16" class="cls-3"/></g><g id="LINE-13"><line y2="227.34" x2="126.53" y1="30.65" x1="126.53" class="cls-3"/></g><g id="LINE-14"><line y2="227.34" x2="212.03" y1="30.65" x1="212.03" class="cls-3"/></g><g id="LINE-15"><polyline points="213.65 30.65 213.65 227.34 40.63 227.34" class="cls-3"/></g><g id="LINE-16"><polyline points="32.47 47.04 32.47 52.77 40.6 52.77" class="cls-3"/></g><g id="LINE-17"><line y2="47.04" x2="32.47" y1="47.04" x1="40.6" class="cls-3"/></g><g id="LINE-18"><polyline points="32.47 126.12 32.47 131.86 40.6 131.86" class="cls-3"/></g><g id="LINE-19"><line y2="126.12" x2="32.47" y1="126.12" x1="40.6" class="cls-3"/></g><g id="LINE-20"><line y2="210.94" x2="40.6" y1="210.94" x1="32.47" class="cls-3"/></g><g id="LINE-21"><polyline points="40.6 205.21 32.47 205.21 32.47 210.94" class="cls-3"/></g><g id="LINE-22"><line y2="226.57" x2="267.13" y1="31.41" x1="267.13" class="cls-3"/></g><g id="LINE-23"><line y2="226.57" x2="264.53" y1="31.41" x1="264.53" class="cls-3"/></g><g id="LINE-24"><line y2="204.44" x2="256.17" y1="204.44" x1="262.58" class="cls-3"/></g><g id="LINE-25"><line y2="52.01" x2="256.29" y1="52.01" x1="262.58" class="cls-3"/></g><g id="LINE-26"><line y2="210.31" x2="256.17" y1="210.31" x1="262.58" class="cls-3"/></g><g id="LINE-27"><line y2="46.27" x2="256.19" y1="46.27" x1="262.58" class="cls-3"/></g><g id="LINE-28"><line y2="131.1" x2="256.26" y1="131.1" x1="262.58" class="cls-3"/></g><g id="LINE-29"><line y2="125.36" x2="256.17" y1="125.36" x1="262.58" class="cls-3"/></g><rect transform="translate(531.71 257.98) rotate(180)" height="195.16" width="6.46" y="31.41" x="262.62" class="cls-3"/><rect transform="translate(518.79 257.98) rotate(180)" height="195.16" width="6.46" y="31.41" x="256.17" class="cls-3"/><g id="LINE-30"><polyline points="42.85 273.97 41.16 274.41 41.16 276.36 50.53 276.36" class="cls-3"/></g><g id="LINE-31"><line y2="272.24" x2="42.85" y1="273.97" x1="42.85" class="cls-3"/></g><g id="LINE-32"><line y2="271.81" x2="41.16" y1="272.24" x1="42.85" class="cls-3"/></g><g id="LINE-33"><line y2="271.81" x2="41.16" y1="270.83" x1="41.16" class="cls-3"/></g><g id="ARC"><path d="M42.18,269.85c-.56,0-1.02.44-1.02.98" class="cls-3"/></g><g id="LINE-34"><line y2="269.85" x2="42.18" y1="269.85" x1="43.03" class="cls-3"/></g><g id="ARC-2"><path d="M43.11,269.9s-.04-.05-.08-.05" class="cls-3"/></g><g id="LINE-35"><line y2="269.9" x2="43.11" y1="270.23" x1="43.27" class="cls-3"/></g><g id="ARC-3"><path d="M43.27,270.23c.08.17.26.28.46.28" class="cls-3"/></g><g id="LINE-36"><line y2="270.51" x2="43.73" y1="270.51" x1="43.78" class="cls-3"/></g><g id="ARC-4"><path d="M43.78,270.51c.2,0,.37-.11.46-.28" class="cls-3"/></g><g id="LINE-37"><line y2="270.23" x2="44.24" y1="269.9" x1="44.4" class="cls-3"/></g><g id="ARC-5"><path d="M44.48,269.85s-.06.02-.08.05" class="cls-3"/></g><g id="LINE-38"><line y2="269.85" x2="44.48" y1="269.85" x1="45.4" class="cls-3"/></g><g id="ARC-6"><path d="M45.48,269.9s-.04-.05-.08-.05" class="cls-3"/></g><g id="LINE-39"><line y2="269.9" x2="45.48" y1="270.23" x1="45.64" class="cls-3"/></g><g id="ARC-7"><path d="M45.64,270.23c.08.17.26.28.46.28" class="cls-3"/></g><g id="LINE-40"><line y2="270.51" x2="46.1" y1="270.51" x1="46.15" class="cls-3"/></g><g id="ARC-8"><path d="M46.15,270.51c.2,0,.37-.11.46-.28" class="cls-3"/></g><g id="LINE-41"><line y2="270.23" x2="46.61" y1="269.9" x1="46.77" class="cls-3"/></g><g id="ARC-9"><path d="M46.85,269.85s-.06.02-.08.05" class="cls-3"/></g><g id="LINE-42"><line y2="269.85" x2="46.85" y1="269.85" x1="47.77" class="cls-3"/></g><g id="ARC-10"><path d="M47.85,269.9s-.04-.05-.08-.05" class="cls-3"/></g><g id="LINE-43"><line y2="269.9" x2="47.85" y1="270.23" x1="48.01" class="cls-3"/></g><g id="ARC-11"><path d="M48.01,270.23c.08.17.26.28.46.28" class="cls-3"/></g><g id="LINE-44"><line y2="270.51" x2="48.47" y1="270.51" x1="48.52" class="cls-3"/></g><g id="ARC-12"><path d="M48.52,270.51c.2,0,.37-.11.46-.28" class="cls-3"/></g><g id="LINE-45"><line y2="270.23" x2="48.98" y1="269.9" x1="49.14" class="cls-3"/></g><g id="ARC-13"><path d="M49.22,269.85s-.06.02-.08.05" class="cls-3"/></g><g id="LINE-46"><line y2="269.85" x2="49.22" y1="269.85" x1="50.14" class="cls-3"/></g><g id="ARC-14"><path d="M50.22,269.9s-.04-.05-.08-.05" class="cls-3"/></g><g id="LINE-47"><line y2="269.9" x2="50.22" y1="270.23" x1="50.38" class="cls-3"/></g><g id="ARC-15"><path d="M50.38,270.23c.08.17.26.28.46.28" class="cls-3"/></g><g id="LINE-48"><line y2="270.51" x2="50.84" y1="270.51" x1="50.89" class="cls-3"/></g><g id="ARC-16"><path d="M50.89,270.51c.2,0,.37-.11.46-.28" class="cls-3"/></g><g id="LINE-49"><line y2="270.23" x2="51.35" y1="269.9" x1="51.51" class="cls-3"/></g><g id="ARC-17"><path d="M51.59,269.85s-.06.02-.08.05" class="cls-3"/></g><g id="LINE-50"><line y2="269.85" x2="51.59" y1="269.85" x1="52.51" class="cls-3"/></g><g id="ARC-18"><path d="M52.59,269.9s-.04-.05-.08-.05" class="cls-3"/></g><g id="LINE-51"><line y2="269.9" x2="52.59" y1="270.23" x1="52.75" class="cls-3"/></g><g id="ARC-19"><path d="M52.75,270.23c.08.17.26.28.46.28" class="cls-3"/></g><g id="LINE-52"><line y2="270.51" x2="53.21" y1="270.51" x1="53.26" class="cls-3"/></g><g id="ARC-20"><path d="M53.26,270.51c.2,0,.37-.11.46-.28" class="cls-3"/></g><g id="LINE-53"><line y2="270.23" x2="53.72" y1="269.9" x1="53.88" class="cls-3"/></g><g id="ARC-21"><path d="M53.96,269.85s-.06.02-.08.05" class="cls-3"/></g><g id="LINE-54"><line y2="269.85" x2="53.96" y1="269.85" x1="54.88" class="cls-3"/></g><g id="ARC-22"><path d="M54.96,269.9s-.04-.05-.08-.05" class="cls-3"/></g><g id="LINE-55"><line y2="269.9" x2="54.96" y1="270.23" x1="55.12" class="cls-3"/></g><g id="ARC-23"><path d="M55.12,270.23c.08.17.26.28.46.28" class="cls-3"/></g><g id="LINE-56"><line y2="270.51" x2="55.58" y1="270.51" x1="55.63" class="cls-3"/></g><g id="ARC-24"><path d="M55.63,270.51c.2,0,.37-.11.46-.28" class="cls-3"/></g><g id="LINE-57"><line y2="270.23" x2="56.09" y1="269.9" x1="56.25" class="cls-3"/></g><g id="ARC-25"><path d="M56.33,269.85s-.06.02-.08.05" class="cls-3"/></g><g id="LINE-58"><line y2="269.85" x2="56.33" y1="269.85" x1="57.25" class="cls-3"/></g><g id="ARC-26"><path d="M57.33,269.9s-.04-.05-.08-.05" class="cls-3"/></g><g id="LINE-59"><line y2="269.9" x2="57.33" y1="270.23" x1="57.49" class="cls-3"/></g><g id="ARC-27"><path d="M57.49,270.23c.08.17.26.28.46.28" class="cls-3"/></g><g id="LINE-60"><line y2="270.51" x2="57.95" y1="270.51" x1="58" class="cls-3"/></g><g id="ARC-28"><path d="M58,270.51c.2,0,.37-.11.46-.28" class="cls-3"/></g><g id="LINE-61"><line y2="270.23" x2="58.46" y1="269.9" x1="58.62" class="cls-3"/></g><g id="ARC-29"><path d="M58.7,269.85s-.06.02-.08.05" class="cls-3"/></g><g id="LINE-62"><line y2="269.85" x2="58.7" y1="269.85" x1="59.62" class="cls-3"/></g><g id="ARC-30"><path d="M59.7,269.9s-.04-.05-.08-.05" class="cls-3"/></g><g id="LINE-63"><line y2="269.9" x2="59.7" y1="270.23" x1="59.86" class="cls-3"/></g><g id="ARC-31"><path d="M59.86,270.23c.08.17.26.28.46.28" class="cls-3"/></g><g id="LINE-64"><line y2="270.51" x2="60.32" y1="270.51" x1="60.37" class="cls-3"/></g><g id="ARC-32"><path d="M60.37,270.51c.2,0,.37-.11.46-.28" class="cls-3"/></g><g id="LINE-65"><line y2="270.23" x2="60.83" y1="269.9" x1="60.99" class="cls-3"/></g><g id="ARC-33"><path d="M61.07,269.85s-.06.02-.08.05" class="cls-3"/></g><g id="LINE-66"><line y2="269.85" x2="61.07" y1="269.85" x1="61.99" class="cls-3"/></g><g id="ARC-34"><path d="M62.07,269.9s-.04-.05-.08-.05" class="cls-3"/></g><g id="LINE-67"><line y2="269.9" x2="62.07" y1="270.23" x1="62.23" class="cls-3"/></g><g id="ARC-35"><path d="M62.23,270.23c.08.17.26.28.46.28" class="cls-3"/></g><g id="LINE-68"><line y2="270.51" x2="62.69" y1="270.51" x1="62.74" class="cls-3"/></g><g id="ARC-36"><path d="M62.74,270.51c.2,0,.37-.11.46-.28" class="cls-3"/></g><g id="LINE-69"><line y2="270.23" x2="63.2" y1="269.9" x1="63.36" class="cls-3"/></g><g id="ARC-37"><path d="M63.44,269.85s-.06.02-.08.05" class="cls-3"/></g><g id="LINE-70"><line y2="269.85" x2="63.44" y1="269.85" x1="64.36" class="cls-3"/></g><g id="ARC-38"><path d="M64.43,269.9s-.04-.05-.08-.05" class="cls-3"/></g><g id="LINE-71"><line y2="269.9" x2="64.43" y1="270.23" x1="64.6" class="cls-3"/></g><g id="ARC-39"><path d="M64.6,270.23c.08.17.26.28.46.28" class="cls-3"/></g><g id="LINE-72"><line y2="270.51" x2="65.06" y1="270.51" x1="65.11" class="cls-3"/></g><g id="ARC-40"><path d="M65.11,270.51c.2,0,.37-.11.46-.28" class="cls-3"/></g><g id="LINE-73"><line y2="270.23" x2="65.57" y1="269.9" x1="65.73" class="cls-3"/></g><g id="ARC-41"><path d="M65.81,269.85s-.06.02-.08.05" class="cls-3"/></g><g id="LINE-74"><line y2="269.85" x2="65.81" y1="269.85" x1="67.37" class="cls-3"/></g><g id="ARC-42"><path d="M68.38,270.83c0-.54-.45-.98-1.02-.98" class="cls-3"/></g><g id="LINE-75"><line y2="270.83" x2="68.38" y1="271.16" x1="68.38" class="cls-3"/></g><g id="LINE-76"><line y2="271.16" x2="68.38" y1="271.48" x1="68.72" class="cls-3"/></g><g id="LINE-77"><line y2="271.48" x2="68.72" y1="271.48" x1="69.23" class="cls-3"/></g><g id="LINE-78"><line y2="271.48" x2="69.23" y1="271.16" x1="69.57" class="cls-3"/></g><g id="LINE-79"><line y2="271.16" x2="69.57" y1="270.83" x1="69.57" class="cls-3"/></g><g id="ARC-43"><path d="M70.58,269.85c-.56,0-1.02.44-1.02.98" class="cls-3"/></g><g id="LINE-80"><line y2="269.85" x2="70.58" y1="269.85" x1="71.44" class="cls-3"/></g><g id="ARC-44"><path d="M71.52,269.9s-.04-.05-.08-.05" class="cls-3"/></g><g id="LINE-81"><line y2="269.9" x2="71.52" y1="270.23" x1="71.68" class="cls-3"/></g><g id="ARC-45"><path d="M71.68,270.23c.08.17.26.28.46.28" class="cls-3"/></g><g id="LINE-82"><line y2="270.51" x2="72.14" y1="270.51" x1="72.19" class="cls-3"/></g><g id="ARC-46"><path d="M72.19,270.51c.2,0,.37-.11.46-.28" class="cls-3"/></g><g id="LINE-83"><line y2="270.23" x2="72.65" y1="269.9" x1="72.81" class="cls-3"/></g><g id="ARC-47"><path d="M72.89,269.85s-.06.02-.08.05" class="cls-3"/></g><g id="LINE-84"><line y2="269.85" x2="72.89" y1="269.85" x1="73.81" class="cls-3"/></g><g id="ARC-48"><path d="M73.89,269.9s-.04-.05-.08-.05" class="cls-3"/></g><g id="LINE-85"><line y2="269.9" x2="73.89" y1="270.23" x1="74.05" class="cls-3"/></g><g id="ARC-49"><path d="M74.05,270.23c.08.17.26.28.46.28" class="cls-3"/></g><g id="LINE-86"><line y2="270.51" x2="74.51" y1="270.51" x1="74.56" class="cls-3"/></g><g id="ARC-50"><path d="M74.56,270.51c.2,0,.37-.11.46-.28" class="cls-3"/></g><g id="LINE-87"><line y2="270.23" x2="75.02" y1="269.9" x1="75.18" class="cls-3"/></g><g id="ARC-51"><path d="M75.26,269.85s-.06.02-.08.05" class="cls-3"/></g><g id="LINE-88"><line y2="269.85" x2="75.26" y1="269.85" x1="76.18" class="cls-3"/></g><g id="ARC-52"><path d="M76.26,269.9s-.04-.05-.08-.05" class="cls-3"/></g><g id="LINE-89"><line y2="269.9" x2="76.26" y1="270.23" x1="76.42" class="cls-3"/></g><g id="ARC-53"><path d="M76.42,270.23c.08.17.26.28.46.28" class="cls-3"/></g><g id="LINE-90"><line y2="270.51" x2="76.88" y1="270.51" x1="76.93" class="cls-3"/></g><g id="ARC-54"><path d="M76.93,270.51c.2,0,.37-.11.46-.28" class="cls-3"/></g><g id="LINE-91"><line y2="270.23" x2="77.39" y1="269.9" x1="77.55" class="cls-3"/></g><g id="ARC-55"><path d="M77.63,269.85s-.06.02-.08.05" class="cls-3"/></g><g id="LINE-92"><line y2="269.85" x2="77.63" y1="269.85" x1="78.55" class="cls-3"/></g><g id="ARC-56"><path d="M78.63,269.9s-.04-.05-.08-.05" class="cls-3"/></g><g id="LINE-93"><line y2="269.9" x2="78.63" y1="270.23" x1="78.79" class="cls-3"/></g><g id="ARC-57"><path d="M78.79,270.23c.08.17.26.28.46.28" class="cls-3"/></g><g id="LINE-94"><line y2="270.51" x2="79.25" y1="270.51" x1="79.3" class="cls-3"/></g><g id="ARC-58"><path d="M79.3,270.51c.2,0,.37-.11.46-.28" class="cls-3"/></g><g id="LINE-95"><line y2="270.23" x2="79.76" y1="269.9" x1="79.92" class="cls-3"/></g><g id="ARC-59"><path d="M80,269.85s-.06.02-.08.05" class="cls-3"/></g><g id="LINE-96"><line y2="269.85" x2="80" y1="269.85" x1="80.92" class="cls-3"/></g><g id="ARC-60"><path d="M81,269.9s-.04-.05-.08-.05" class="cls-3"/></g><g id="LINE-97"><line y2="269.9" x2="81" y1="270.23" x1="81.16" class="cls-3"/></g><g id="ARC-61"><path d="M81.16,270.23c.08.17.26.28.46.28" class="cls-3"/></g><g id="LINE-98"><line y2="270.51" x2="81.62" y1="270.51" x1="81.67" class="cls-3"/></g><g id="ARC-62"><path d="M81.67,270.51c.2,0,.37-.11.46-.28" class="cls-3"/></g><g id="LINE-99"><line y2="270.23" x2="82.13" y1="269.9" x1="82.29" class="cls-3"/></g><g id="ARC-63"><path d="M82.37,269.85s-.06.02-.08.05" class="cls-3"/></g><g id="LINE-100"><line y2="269.85" x2="82.37" y1="269.85" x1="83.29" class="cls-3"/></g><g id="ARC-64"><path d="M83.36,269.9s-.04-.05-.08-.05" class="cls-3"/></g><g id="LINE-101"><line y2="269.9" x2="83.36" y1="270.23" x1="83.53" class="cls-3"/></g><g id="ARC-65"><path d="M83.53,270.23c.08.17.26.28.46.28" class="cls-3"/></g><g id="LINE-102"><line y2="270.51" x2="83.99" y1="270.51" x1="84.04" class="cls-3"/></g><g id="ARC-66"><path d="M84.04,270.51c.2,0,.37-.11.46-.28" class="cls-3"/></g><g id="LINE-103"><line y2="270.23" x2="84.5" y1="269.9" x1="84.66" class="cls-3"/></g><g id="ARC-67"><path d="M84.74,269.85s-.06.02-.08.05" class="cls-3"/></g><g id="LINE-104"><line y2="269.85" x2="84.74" y1="269.85" x1="85.66" class="cls-3"/></g><g id="ARC-68"><path d="M85.73,269.9s-.04-.05-.08-.05" class="cls-3"/></g><g id="LINE-105"><line y2="269.9" x2="85.73" y1="270.23" x1="85.9" class="cls-3"/></g><g id="ARC-69"><path d="M85.9,270.23c.08.17.26.28.46.28" class="cls-3"/></g><g id="LINE-106"><line y2="270.51" x2="86.36" y1="270.51" x1="86.41" class="cls-3"/></g><g id="ARC-70"><path d="M86.41,270.51c.2,0,.37-.11.46-.28" class="cls-3"/></g><g id="LINE-107"><line y2="270.23" x2="86.87" y1="269.9" x1="87.03" class="cls-3"/></g><g id="ARC-71"><path d="M87.11,269.85s-.06.02-.08.05" class="cls-3"/></g><g id="LINE-108"><line y2="269.85" x2="87.11" y1="269.85" x1="88.03" class="cls-3"/></g><g id="ARC-72"><path d="M88.1,269.9s-.04-.05-.08-.05" class="cls-3"/></g><g id="LINE-109"><line y2="269.9" x2="88.1" y1="270.23" x1="88.27" class="cls-3"/></g><g id="ARC-73"><path d="M88.27,270.23c.08.17.26.28.46.28" class="cls-3"/></g><g id="LINE-110"><line y2="270.51" x2="88.72" y1="270.51" x1="88.78" class="cls-3"/></g><g id="ARC-74"><path d="M88.78,270.51c.2,0,.37-.11.46-.28" class="cls-3"/></g><g id="LINE-111"><line y2="270.23" x2="89.24" y1="269.9" x1="89.4" class="cls-3"/></g><g id="ARC-75"><path d="M89.48,269.85s-.06.02-.08.05" class="cls-3"/></g><g id="LINE-112"><line y2="269.85" x2="89.48" y1="269.85" x1="90.4" class="cls-3"/></g><g id="ARC-76"><path d="M90.47,269.9s-.04-.05-.08-.05" class="cls-3"/></g><g id="LINE-113"><line y2="269.9" x2="90.47" y1="270.23" x1="90.64" class="cls-3"/></g><g id="ARC-77"><path d="M90.64,270.23c.08.17.26.28.46.28" class="cls-3"/></g><g id="LINE-114"><line y2="270.51" x2="91.09" y1="270.51" x1="91.15" class="cls-3"/></g><g id="ARC-78"><path d="M91.15,270.51c.2,0,.37-.11.46-.28" class="cls-3"/></g><g id="LINE-115"><line y2="270.23" x2="91.61" y1="269.9" x1="91.77" class="cls-3"/></g><g id="ARC-79"><path d="M91.85,269.85s-.06.02-.08.05" class="cls-3"/></g><g id="LINE-116"><line y2="269.85" x2="91.85" y1="269.85" x1="92.77" class="cls-3"/></g><g id="ARC-80"><path d="M92.84,269.9s-.04-.05-.08-.05" class="cls-3"/></g><g id="LINE-117"><line y2="269.9" x2="92.84" y1="270.23" x1="93.01" class="cls-3"/></g><g id="ARC-81"><path d="M93.01,270.23c.08.17.26.28.46.28" class="cls-3"/></g><g id="LINE-118"><line y2="270.51" x2="93.46" y1="270.51" x1="93.52" class="cls-3"/></g><g id="ARC-82"><path d="M93.52,270.51c.2,0,.37-.11.46-.28" class="cls-3"/></g><g id="LINE-119"><line y2="270.23" x2="93.98" y1="269.9" x1="94.14" class="cls-3"/></g><g id="ARC-83"><path d="M94.22,269.85s-.06.02-.08.05" class="cls-3"/></g><g id="LINE-120"><line y2="269.85" x2="94.22" y1="269.85" x1="95.78" class="cls-3"/></g><g id="ARC-84"><path d="M96.79,270.83c0-.54-.45-.98-1.02-.98" class="cls-3"/></g><g id="LINE-121"><line y2="270.83" x2="96.79" y1="271.16" x1="96.79" class="cls-3"/></g><g id="LINE-122"><line y2="271.16" x2="96.79" y1="271.48" x1="97.13" class="cls-3"/></g><g id="LINE-123"><line y2="271.48" x2="97.13" y1="271.48" x1="97.64" class="cls-3"/></g><g id="LINE-124"><line y2="271.48" x2="97.64" y1="271.16" x1="97.98" class="cls-3"/></g><g id="LINE-125"><line y2="271.16" x2="97.98" y1="270.83" x1="97.98" class="cls-3"/></g><g id="ARC-85"><path d="M98.99,269.85c-.56,0-1.02.44-1.02.98" class="cls-3"/></g><g id="LINE-126"><line y2="269.85" x2="98.99" y1="269.85" x1="99.85" class="cls-3"/></g><g id="ARC-86"><path d="M99.92,269.9s-.04-.05-.08-.05" class="cls-3"/></g><g id="LINE-127"><line y2="269.9" x2="99.92" y1="270.23" x1="100.09" class="cls-3"/></g><g id="ARC-87"><path d="M100.09,270.23c.08.17.26.28.46.28" class="cls-3"/></g><g id="LINE-128"><line y2="270.51" x2="100.55" y1="270.51" x1="100.6" class="cls-3"/></g><g id="ARC-88"><path d="M100.6,270.51c.2,0,.37-.11.46-.28" class="cls-3"/></g><g id="LINE-129"><line y2="270.23" x2="101.06" y1="269.9" x1="101.22" class="cls-3"/></g><g id="ARC-89"><path d="M101.3,269.85s-.06.02-.08.05" class="cls-3"/></g><g id="LINE-130"><line y2="269.85" x2="101.3" y1="269.85" x1="102.22" class="cls-3"/></g><g id="ARC-90"><path d="M102.29,269.9s-.04-.05-.08-.05" class="cls-3"/></g><g id="LINE-131"><line y2="269.9" x2="102.29" y1="270.23" x1="102.46" class="cls-3"/></g><g id="ARC-91"><path d="M102.46,270.23c.08.17.26.28.46.28" class="cls-3"/></g><g id="LINE-132"><line y2="270.51" x2="102.92" y1="270.51" x1="102.97" class="cls-3"/></g><g id="ARC-92"><path d="M102.97,270.51c.2,0,.37-.11.46-.28" class="cls-3"/></g><g id="LINE-133"><line y2="270.23" x2="103.43" y1="269.9" x1="103.59" class="cls-3"/></g><g id="ARC-93"><path d="M103.67,269.85s-.06.02-.08.05" class="cls-3"/></g><g id="LINE-134"><line y2="269.85" x2="103.67" y1="269.85" x1="104.59" class="cls-3"/></g><g id="ARC-94"><path d="M104.66,269.9s-.04-.05-.08-.05" class="cls-3"/></g><g id="LINE-135"><line y2="269.9" x2="104.66" y1="270.23" x1="104.83" class="cls-3"/></g><g id="ARC-95"><path d="M104.83,270.23c.08.17.26.28.46.28" class="cls-3"/></g><g id="LINE-136"><line y2="270.51" x2="105.29" y1="270.51" x1="105.34" class="cls-3"/></g><g id="ARC-96"><path d="M105.34,270.51c.2,0,.37-.11.46-.28" class="cls-3"/></g><g id="LINE-137"><line y2="270.23" x2="105.8" y1="269.9" x1="105.96" class="cls-3"/></g><g id="ARC-97"><path d="M106.04,269.85s-.06.02-.08.05" class="cls-3"/></g><g id="LINE-138"><line y2="269.85" x2="106.04" y1="269.85" x1="106.96" class="cls-3"/></g><g id="ARC-98"><path d="M107.03,269.9s-.04-.05-.08-.05" class="cls-3"/></g><g id="LINE-139"><line y2="269.9" x2="107.03" y1="270.23" x1="107.2" class="cls-3"/></g><g id="ARC-99"><path d="M107.2,270.23c.08.17.26.28.46.28" class="cls-3"/></g><g id="LINE-140"><line y2="270.51" x2="107.65" y1="270.51" x1="107.71" class="cls-3"/></g><g id="ARC-100"><path d="M107.71,270.51c.2,0,.37-.11.46-.28" class="cls-3"/></g><g id="LINE-141"><line y2="270.23" x2="108.17" y1="269.9" x1="108.33" class="cls-3"/></g><g id="ARC-101"><path d="M108.41,269.85s-.06.02-.08.05" class="cls-3"/></g><g id="LINE-142"><line y2="269.85" x2="108.41" y1="269.85" x1="109.33" class="cls-3"/></g><g id="ARC-102"><path d="M109.4,269.9s-.04-.05-.08-.05" class="cls-3"/></g><g id="LINE-143"><line y2="269.9" x2="109.4" y1="270.23" x1="109.57" class="cls-3"/></g><g id="ARC-103"><path d="M109.57,270.23c.08.17.26.28.46.28" class="cls-3"/></g><g id="LINE-144"><line y2="270.51" x2="110.02" y1="270.51" x1="110.08" class="cls-3"/></g><g id="ARC-104"><path d="M110.08,270.51c.2,0,.37-.11.46-.28" class="cls-3"/></g><g id="LINE-145"><line y2="270.23" x2="110.54" y1="269.9" x1="110.7" class="cls-3"/></g><g id="ARC-105"><path d="M110.78,269.85s-.06.02-.08.05" class="cls-3"/></g><g id="LINE-146"><line y2="269.85" x2="110.78" y1="269.85" x1="111.7" class="cls-3"/></g><g id="ARC-106"><path d="M111.77,269.9s-.04-.05-.08-.05" class="cls-3"/></g><g id="LINE-147"><line y2="269.9" x2="111.77" y1="270.23" x1="111.94" class="cls-3"/></g><g id="ARC-107"><path d="M111.94,270.23c.08.17.26.28.46.28" class="cls-3"/></g><g id="LINE-148"><line y2="270.51" x2="112.39" y1="270.51" x1="112.45" class="cls-3"/></g><g id="ARC-108"><path d="M112.45,270.51c.2,0,.37-.11.46-.28" class="cls-3"/></g><g id="LINE-149"><line y2="270.23" x2="112.91" y1="269.9" x1="113.07" class="cls-3"/></g><g id="ARC-109"><path d="M113.15,269.85s-.06.02-.08.05" class="cls-3"/></g><g id="LINE-150"><line y2="269.85" x2="113.15" y1="269.85" x1="114.07" class="cls-3"/></g><g id="ARC-110"><path d="M114.14,269.9s-.04-.05-.08-.05" class="cls-3"/></g><g id="LINE-151"><line y2="269.9" x2="114.14" y1="270.23" x1="114.31" class="cls-3"/></g><g id="ARC-111"><path d="M114.31,270.23c.08.17.26.28.46.28" class="cls-3"/></g><g id="LINE-152"><line y2="270.51" x2="114.76" y1="270.51" x1="114.82" class="cls-3"/></g><g id="ARC-112"><path d="M114.82,270.51c.2,0,.37-.11.46-.28" class="cls-3"/></g><g id="LINE-153"><line y2="270.23" x2="115.28" y1="269.9" x1="115.44" class="cls-3"/></g><g id="ARC-113"><path d="M115.52,269.85s-.06.02-.08.05" class="cls-3"/></g><g id="LINE-154"><line y2="269.85" x2="115.52" y1="269.85" x1="116.44" class="cls-3"/></g><g id="ARC-114"><path d="M116.51,269.9s-.04-.05-.08-.05" class="cls-3"/></g><g id="LINE-155"><line y2="269.9" x2="116.51" y1="270.23" x1="116.68" class="cls-3"/></g><g id="ARC-115"><path d="M116.68,270.23c.08.17.26.28.46.28" class="cls-3"/></g><g id="LINE-156"><line y2="270.51" x2="117.13" y1="270.51" x1="117.19" class="cls-3"/></g><g id="ARC-116"><path d="M117.19,270.51c.2,0,.37-.11.46-.28" class="cls-3"/></g><g id="LINE-157"><line y2="270.23" x2="117.65" y1="269.9" x1="117.81" class="cls-3"/></g><g id="ARC-117"><path d="M117.88,269.85s-.06.02-.08.05" class="cls-3"/></g><g id="LINE-158"><line y2="269.85" x2="117.88" y1="269.85" x1="118.81" class="cls-3"/></g><g id="ARC-118"><path d="M118.88,269.9s-.04-.05-.08-.05" class="cls-3"/></g><g id="LINE-159"><line y2="269.9" x2="118.88" y1="270.23" x1="119.04" class="cls-3"/></g><g id="ARC-119"><path d="M119.04,270.23c.08.17.26.28.46.28" class="cls-3"/></g><g id="LINE-160"><line y2="270.51" x2="119.5" y1="270.51" x1="119.56" class="cls-3"/></g><g id="ARC-120"><path d="M119.56,270.51c.2,0,.37-.11.46-.28" class="cls-3"/></g><g id="LINE-161"><line y2="270.23" x2="120.01" y1="269.9" x1="120.18" class="cls-3"/></g><g id="ARC-121"><path d="M120.25,269.85s-.06.02-.08.05" class="cls-3"/></g><g id="LINE-162"><line y2="269.85" x2="120.25" y1="269.85" x1="121.18" class="cls-3"/></g><g id="ARC-122"><path d="M121.25,269.9s-.04-.05-.08-.05" class="cls-3"/></g><g id="LINE-163"><line y2="269.9" x2="121.25" y1="270.23" x1="121.41" class="cls-3"/></g><g id="ARC-123"><path d="M121.41,270.23c.08.17.26.28.46.28" class="cls-3"/></g><g id="LINE-164"><line y2="270.51" x2="121.87" y1="270.51" x1="121.93" class="cls-3"/></g><g id="ARC-124"><path d="M121.93,270.51c.2,0,.37-.11.46-.28" class="cls-3"/></g><g id="LINE-165"><line y2="270.23" x2="122.38" y1="269.9" x1="122.55" class="cls-3"/></g><g id="ARC-125"><path d="M122.62,269.85s-.06.02-.08.05" class="cls-3"/></g><g id="LINE-166"><line y2="269.85" x2="122.62" y1="269.85" x1="124.18" class="cls-3"/></g><g id="ARC-126"><path d="M125.2,270.83c0-.54-.45-.98-1.02-.98" class="cls-3"/></g><g id="LINE-167"><line y2="270.83" x2="125.2" y1="271.16" x1="125.2" class="cls-3"/></g><g id="LINE-168"><line y2="271.16" x2="125.2" y1="271.48" x1="125.54" class="cls-3"/></g><g id="LINE-169"><line y2="271.48" x2="125.54" y1="271.48" x1="126.05" class="cls-3"/></g><g id="LINE-170"><line y2="271.48" x2="126.05" y1="271.16" x1="126.38" class="cls-3"/></g><g id="LINE-171"><line y2="271.16" x2="126.38" y1="270.83" x1="126.38" class="cls-3"/></g><g id="ARC-127"><path d="M127.4,269.85c-.56,0-1.02.44-1.02.98" class="cls-3"/></g><g id="LINE-172"><line y2="269.85" x2="127.4" y1="269.85" x1="128.26" class="cls-3"/></g><g id="ARC-128"><path d="M128.33,269.9s-.04-.05-.08-.05" class="cls-3"/></g><g id="LINE-173"><line y2="269.9" x2="128.33" y1="270.23" x1="128.5" class="cls-3"/></g><g id="ARC-129"><path d="M128.5,270.23c.08.17.26.28.46.28" class="cls-3"/></g><g id="LINE-174"><line y2="270.51" x2="128.95" y1="270.51" x1="129.01" class="cls-3"/></g><g id="ARC-130"><path d="M129.01,270.51c.2,0,.37-.11.46-.28" class="cls-3"/></g><g id="LINE-175"><line y2="270.23" x2="129.47" y1="269.9" x1="129.63" class="cls-3"/></g><g id="ARC-131"><path d="M129.71,269.85s-.06.02-.08.05" class="cls-3"/></g><g id="LINE-176"><line y2="269.85" x2="129.71" y1="269.85" x1="130.63" class="cls-3"/></g><g id="ARC-132"><path d="M130.7,269.9s-.04-.05-.08-.05" class="cls-3"/></g><g id="LINE-177"><line y2="269.9" x2="130.7" y1="270.23" x1="130.87" class="cls-3"/></g><g id="ARC-133"><path d="M130.87,270.23c.08.17.26.28.46.28" class="cls-3"/></g><g id="LINE-178"><line y2="270.51" x2="131.32" y1="270.51" x1="131.38" class="cls-3"/></g><g id="ARC-134"><path d="M131.38,270.51c.2,0,.37-.11.46-.28" class="cls-3"/></g><g id="LINE-179"><line y2="270.23" x2="131.84" y1="269.9" x1="132" class="cls-3"/></g><g id="ARC-135"><path d="M132.08,269.85s-.06.02-.08.05" class="cls-3"/></g><g id="LINE-180"><line y2="269.85" x2="132.08" y1="269.85" x1="133" class="cls-3"/></g><g id="ARC-136"><path d="M133.07,269.9s-.04-.05-.08-.05" class="cls-3"/></g><g id="LINE-181"><line y2="269.9" x2="133.07" y1="270.23" x1="133.24" class="cls-3"/></g><g id="ARC-137"><path d="M133.24,270.23c.08.17.26.28.46.28" class="cls-3"/></g><g id="LINE-182"><line y2="270.51" x2="133.69" y1="270.51" x1="133.75" class="cls-3"/></g><g id="ARC-138"><path d="M133.75,270.51c.2,0,.37-.11.46-.28" class="cls-3"/></g><g id="LINE-183"><line y2="270.23" x2="134.21" y1="269.9" x1="134.37" class="cls-3"/></g><g id="ARC-139"><path d="M134.44,269.85s-.06.02-.08.05" class="cls-3"/></g><g id="LINE-184"><line y2="269.85" x2="134.44" y1="269.85" x1="135.37" class="cls-3"/></g><g id="ARC-140"><path d="M135.44,269.9s-.04-.05-.08-.05" class="cls-3"/></g><g id="LINE-185"><line y2="269.9" x2="135.44" y1="270.23" x1="135.6" class="cls-3"/></g><g id="ARC-141"><path d="M135.6,270.23c.08.17.26.28.46.28" class="cls-3"/></g><g id="LINE-186"><line y2="270.51" x2="136.06" y1="270.51" x1="136.12" class="cls-3"/></g><g id="ARC-142"><path d="M136.12,270.51c.2,0,.37-.11.46-.28" class="cls-3"/></g><g id="LINE-187"><line y2="270.23" x2="136.58" y1="269.9" x1="136.74" class="cls-3"/></g><g id="ARC-143"><path d="M136.81,269.85s-.06.02-.08.05" class="cls-3"/></g><g id="LINE-188"><line y2="269.85" x2="136.81" y1="269.85" x1="137.74" class="cls-3"/></g><g id="ARC-144"><path d="M137.81,269.9s-.04-.05-.08-.05" class="cls-3"/></g><g id="LINE-189"><line y2="269.9" x2="137.81" y1="270.23" x1="137.97" class="cls-3"/></g><g id="ARC-145"><path d="M137.97,270.23c.08.17.26.28.46.28" class="cls-3"/></g><g id="LINE-190"><line y2="270.51" x2="138.43" y1="270.51" x1="138.49" class="cls-3"/></g><g id="ARC-146"><path d="M138.49,270.51c.2,0,.37-.11.46-.28" class="cls-3"/></g><g id="LINE-191"><line y2="270.23" x2="138.94" y1="269.9" x1="139.11" class="cls-3"/></g><g id="ARC-147"><path d="M139.18,269.85s-.06.02-.08.05" class="cls-3"/></g><g id="LINE-192"><line y2="269.85" x2="139.18" y1="269.85" x1="140.1" class="cls-3"/></g><g id="ARC-148"><path d="M140.18,269.9s-.04-.05-.08-.05" class="cls-3"/></g><g id="LINE-193"><line y2="269.9" x2="140.18" y1="270.23" x1="140.34" class="cls-3"/></g><g id="ARC-149"><path d="M140.34,270.23c.08.17.26.28.46.28" class="cls-3"/></g><g id="LINE-194"><line y2="270.51" x2="140.8" y1="270.51" x1="140.86" class="cls-3"/></g><g id="ARC-150"><path d="M140.86,270.51c.2,0,.37-.11.46-.28" class="cls-3"/></g><g id="LINE-195"><line y2="270.23" x2="141.31" y1="269.9" x1="141.48" class="cls-3"/></g><g id="ARC-151"><path d="M141.55,269.85s-.06.02-.08.05" class="cls-3"/></g><g id="LINE-196"><line y2="269.85" x2="141.55" y1="269.85" x1="142.47" class="cls-3"/></g><g id="ARC-152"><path d="M142.55,269.9s-.04-.05-.08-.05" class="cls-3"/></g><g id="LINE-197"><line y2="269.9" x2="142.55" y1="270.23" x1="142.71" class="cls-3"/></g><g id="ARC-153"><path d="M142.71,270.23c.08.17.26.28.46.28" class="cls-3"/></g><g id="LINE-198"><line y2="270.51" x2="143.17" y1="270.51" x1="143.23" class="cls-3"/></g><g id="ARC-154"><path d="M143.23,270.51c.2,0,.37-.11.46-.28" class="cls-3"/></g><g id="LINE-199"><line y2="270.23" x2="143.68" y1="269.9" x1="143.85" class="cls-3"/></g><g id="ARC-155"><path d="M143.92,269.85s-.06.02-.08.05" class="cls-3"/></g><g id="LINE-200"><line y2="269.85" x2="143.92" y1="269.85" x1="144.84" class="cls-3"/></g><g id="ARC-156"><path d="M144.92,269.9s-.04-.05-.08-.05" class="cls-3"/></g><g id="LINE-201"><line y2="269.9" x2="144.92" y1="270.23" x1="145.08" class="cls-3"/></g><g id="ARC-157"><path d="M145.08,270.23c.08.17.26.28.46.28" class="cls-3"/></g><g id="LINE-202"><line y2="270.51" x2="145.54" y1="270.51" x1="145.6" class="cls-3"/></g><g id="ARC-158"><path d="M145.6,270.51c.2,0,.37-.11.46-.28" class="cls-3"/></g><g id="LINE-203"><line y2="270.23" x2="146.05" y1="269.9" x1="146.22" class="cls-3"/></g><g id="ARC-159"><path d="M146.29,269.85s-.06.02-.08.05" class="cls-3"/></g><g id="LINE-204"><line y2="269.85" x2="146.29" y1="269.85" x1="147.21" class="cls-3"/></g><g id="ARC-160"><path d="M147.29,269.9s-.04-.05-.08-.05" class="cls-3"/></g><g id="LINE-205"><line y2="269.9" x2="147.29" y1="270.23" x1="147.45" class="cls-3"/></g><g id="ARC-161"><path d="M147.45,270.23c.08.17.26.28.46.28" class="cls-3"/></g><g id="LINE-206"><line y2="270.51" x2="147.91" y1="270.51" x1="147.97" class="cls-3"/></g><g id="ARC-162"><path d="M147.97,270.51c.2,0,.37-.11.46-.28" class="cls-3"/></g><g id="LINE-207"><line y2="270.23" x2="148.42" y1="269.9" x1="148.59" class="cls-3"/></g><g id="ARC-163"><path d="M148.66,269.85s-.06.02-.08.05" class="cls-3"/></g><g id="LINE-208"><line y2="269.85" x2="148.66" y1="269.85" x1="149.58" class="cls-3"/></g><g id="ARC-164"><path d="M149.66,269.9s-.04-.05-.08-.05" class="cls-3"/></g><g id="LINE-209"><line y2="269.9" x2="149.66" y1="270.23" x1="149.82" class="cls-3"/></g><g id="ARC-165"><path d="M149.82,270.23c.08.17.26.28.46.28" class="cls-3"/></g><g id="LINE-210"><line y2="270.51" x2="150.28" y1="270.51" x1="150.33" class="cls-3"/></g><g id="ARC-166"><path d="M150.33,270.51c.2,0,.37-.11.46-.28" class="cls-3"/></g><g id="LINE-211"><line y2="270.23" x2="150.79" y1="269.9" x1="150.96" class="cls-3"/></g><g id="ARC-167"><path d="M151.03,269.85s-.06.02-.08.05" class="cls-3"/></g><g id="LINE-212"><line y2="269.85" x2="151.03" y1="269.85" x1="152.59" class="cls-3"/></g><g id="ARC-168"><path d="M153.61,270.83c0-.54-.45-.98-1.02-.98" class="cls-3"/></g><g id="LINE-213"><line y2="270.83" x2="153.61" y1="271.16" x1="153.61" class="cls-3"/></g><g id="LINE-214"><line y2="271.16" x2="153.61" y1="271.48" x1="153.95" class="cls-3"/></g><g id="LINE-215"><line y2="271.48" x2="153.95" y1="271.48" x1="154.45" class="cls-3"/></g><g id="LINE-216"><line y2="271.48" x2="154.45" y1="271.16" x1="154.79" class="cls-3"/></g><g id="LINE-217"><line y2="271.16" x2="154.79" y1="270.83" x1="154.79" class="cls-3"/></g><g id="ARC-169"><path d="M155.81,269.85c-.56,0-1.02.44-1.02.98" class="cls-3"/></g><g id="LINE-218"><line y2="269.85" x2="155.81" y1="269.85" x1="156.66" class="cls-3"/></g><g id="ARC-170"><path d="M156.74,269.9s-.04-.05-.08-.05" class="cls-3"/></g><g id="LINE-219"><line y2="269.9" x2="156.74" y1="270.23" x1="156.9" class="cls-3"/></g><g id="ARC-171"><path d="M156.9,270.23c.08.17.26.28.46.28" class="cls-3"/></g><g id="LINE-220"><line y2="270.51" x2="157.36" y1="270.51" x1="157.42" class="cls-3"/></g><g id="ARC-172"><path d="M157.42,270.51c.2,0,.37-.11.46-.28" class="cls-3"/></g><g id="LINE-221"><line y2="270.23" x2="157.87" y1="269.9" x1="158.04" class="cls-3"/></g><g id="ARC-173"><path d="M158.11,269.85s-.06.02-.08.05" class="cls-3"/></g><g id="LINE-222"><line y2="269.85" x2="158.11" y1="269.85" x1="159.03" class="cls-3"/></g><g id="ARC-174"><path d="M159.11,269.9s-.04-.05-.08-.05" class="cls-3"/></g><g id="LINE-223"><line y2="269.9" x2="159.11" y1="270.23" x1="159.27" class="cls-3"/></g><g id="ARC-175"><path d="M159.27,270.23c.08.17.26.28.46.28" class="cls-3"/></g><g id="LINE-224"><line y2="270.51" x2="159.73" y1="270.51" x1="159.79" class="cls-3"/></g><g id="ARC-176"><path d="M159.79,270.51c.2,0,.37-.11.46-.28" class="cls-3"/></g><g id="LINE-225"><line y2="270.23" x2="160.24" y1="269.9" x1="160.41" class="cls-3"/></g><g id="ARC-177"><path d="M160.48,269.85s-.06.02-.08.05" class="cls-3"/></g><g id="LINE-226"><line y2="269.85" x2="160.48" y1="269.85" x1="161.4" class="cls-3"/></g><g id="ARC-178"><path d="M161.48,269.9s-.04-.05-.08-.05" class="cls-3"/></g><g id="LINE-227"><line y2="269.9" x2="161.48" y1="270.23" x1="161.64" class="cls-3"/></g><g id="ARC-179"><path d="M161.64,270.23c.08.17.26.28.46.28" class="cls-3"/></g><g id="LINE-228"><line y2="270.51" x2="162.1" y1="270.51" x1="162.16" class="cls-3"/></g><g id="ARC-180"><path d="M162.16,270.51c.2,0,.37-.11.46-.28" class="cls-3"/></g><g id="LINE-229"><line y2="270.23" x2="162.61" y1="269.9" x1="162.78" class="cls-3"/></g><g id="ARC-181"><path d="M162.85,269.85s-.06.02-.08.05" class="cls-3"/></g><g id="LINE-230"><line y2="269.85" x2="162.85" y1="269.85" x1="163.77" class="cls-3"/></g><g id="ARC-182"><path d="M163.85,269.9s-.04-.05-.08-.05" class="cls-3"/></g><g id="LINE-231"><line y2="269.9" x2="163.85" y1="270.23" x1="164.01" class="cls-3"/></g><g id="ARC-183"><path d="M164.01,270.23c.08.17.26.28.46.28" class="cls-3"/></g><g id="LINE-232"><line y2="270.51" x2="164.47" y1="270.51" x1="164.53" class="cls-3"/></g><g id="ARC-184"><path d="M164.53,270.51c.2,0,.37-.11.46-.28" class="cls-3"/></g><g id="LINE-233"><line y2="270.23" x2="164.98" y1="269.9" x1="165.15" class="cls-3"/></g><g id="ARC-185"><path d="M165.22,269.85s-.06.02-.08.05" class="cls-3"/></g><g id="LINE-234"><line y2="269.85" x2="165.22" y1="269.85" x1="166.14" class="cls-3"/></g><g id="ARC-186"><path d="M166.22,269.9s-.04-.05-.08-.05" class="cls-3"/></g><g id="LINE-235"><line y2="269.9" x2="166.22" y1="270.23" x1="166.38" class="cls-3"/></g><g id="ARC-187"><path d="M166.38,270.23c.08.17.26.28.46.28" class="cls-3"/></g><g id="LINE-236"><line y2="270.51" x2="166.84" y1="270.51" x1="166.89" class="cls-3"/></g><g id="ARC-188"><path d="M166.89,270.51c.2,0,.37-.11.46-.28" class="cls-3"/></g><g id="LINE-237"><line y2="270.23" x2="167.35" y1="269.9" x1="167.52" class="cls-3"/></g><g id="ARC-189"><path d="M167.59,269.85s-.06.02-.08.05" class="cls-3"/></g><g id="LINE-238"><line y2="269.85" x2="167.59" y1="269.85" x1="168.51" class="cls-3"/></g><g id="ARC-190"><path d="M168.59,269.9s-.04-.05-.08-.05" class="cls-3"/></g><g id="LINE-239"><line y2="269.9" x2="168.59" y1="270.23" x1="168.75" class="cls-3"/></g><g id="ARC-191"><path d="M168.75,270.23c.08.17.26.28.46.28" class="cls-3"/></g><g id="LINE-240"><line y2="270.51" x2="169.21" y1="270.51" x1="169.26" class="cls-3"/></g><g id="ARC-192"><path d="M169.26,270.51c.2,0,.37-.11.46-.28" class="cls-3"/></g><g id="LINE-241"><line y2="270.23" x2="169.72" y1="269.9" x1="169.89" class="cls-3"/></g><g id="ARC-193"><path d="M169.96,269.85s-.06.02-.08.05" class="cls-3"/></g><g id="LINE-242"><line y2="269.85" x2="169.96" y1="269.85" x1="170.88" class="cls-3"/></g><g id="ARC-194"><path d="M170.96,269.9s-.04-.05-.08-.05" class="cls-3"/></g><g id="LINE-243"><line y2="269.9" x2="170.96" y1="270.23" x1="171.12" class="cls-3"/></g><g id="ARC-195"><path d="M171.12,270.23c.08.17.26.28.46.28" class="cls-3"/></g><g id="LINE-244"><line y2="270.51" x2="171.58" y1="270.51" x1="171.63" class="cls-3"/></g><g id="ARC-196"><path d="M171.63,270.51c.2,0,.37-.11.46-.28" class="cls-3"/></g><g id="LINE-245"><line y2="270.23" x2="172.09" y1="269.9" x1="172.26" class="cls-3"/></g><g id="ARC-197"><path d="M172.33,269.85s-.06.02-.08.05" class="cls-3"/></g><g id="LINE-246"><line y2="269.85" x2="172.33" y1="269.85" x1="173.25" class="cls-3"/></g><g id="ARC-198"><path d="M173.33,269.9s-.04-.05-.08-.05" class="cls-3"/></g><g id="LINE-247"><line y2="269.9" x2="173.33" y1="270.23" x1="173.49" class="cls-3"/></g><g id="ARC-199"><path d="M173.49,270.23c.08.17.26.28.46.28" class="cls-3"/></g><g id="LINE-248"><line y2="270.51" x2="173.95" y1="270.51" x1="174" class="cls-3"/></g><g id="ARC-200"><path d="M174,270.51c.2,0,.37-.11.46-.28" class="cls-3"/></g><g id="LINE-249"><line y2="270.23" x2="174.46" y1="269.9" x1="174.62" class="cls-3"/></g><g id="ARC-201"><path d="M174.7,269.85s-.06.02-.08.05" class="cls-3"/></g><g id="LINE-250"><line y2="269.85" x2="174.7" y1="269.85" x1="175.62" class="cls-3"/></g><g id="ARC-202"><path d="M175.7,269.9s-.04-.05-.08-.05" class="cls-3"/></g><g id="LINE-251"><line y2="269.9" x2="175.7" y1="270.23" x1="175.86" class="cls-3"/></g><g id="ARC-203"><path d="M175.86,270.23c.08.17.26.28.46.28" class="cls-3"/></g><g id="LINE-252"><line y2="270.51" x2="176.32" y1="270.51" x1="176.37" class="cls-3"/></g><g id="ARC-204"><path d="M176.37,270.51c.2,0,.37-.11.46-.28" class="cls-3"/></g><g id="LINE-253"><line y2="270.23" x2="176.83" y1="269.9" x1="176.99" class="cls-3"/></g><g id="ARC-205"><path d="M177.07,269.85s-.06.02-.08.05" class="cls-3"/></g><g id="LINE-254"><line y2="269.85" x2="177.07" y1="269.85" x1="177.99" class="cls-3"/></g><g id="ARC-206"><path d="M178.07,269.9s-.04-.05-.08-.05" class="cls-3"/></g><g id="LINE-255"><line y2="269.9" x2="178.07" y1="270.23" x1="178.23" class="cls-3"/></g><g id="ARC-207"><path d="M178.23,270.23c.08.17.26.28.46.28" class="cls-3"/></g><g id="LINE-256"><line y2="270.51" x2="178.69" y1="270.51" x1="178.74" class="cls-3"/></g><g id="ARC-208"><path d="M178.74,270.51c.2,0,.37-.11.46-.28" class="cls-3"/></g><g id="LINE-257"><line y2="270.23" x2="179.2" y1="269.9" x1="179.36" class="cls-3"/></g><g id="ARC-209"><path d="M179.44,269.85s-.06.02-.08.05" class="cls-3"/></g><g id="LINE-258"><line y2="269.85" x2="179.44" y1="269.85" x1="181" class="cls-3"/></g><g id="ARC-210"><path d="M182.02,270.83c0-.54-.45-.98-1.02-.98" class="cls-3"/></g><g id="LINE-259"><line y2="270.83" x2="182.02" y1="271.16" x1="182.02" class="cls-3"/></g><g id="LINE-260"><line y2="271.16" x2="182.02" y1="271.48" x1="182.35" class="cls-3"/></g><g id="LINE-261"><line y2="271.48" x2="182.35" y1="271.48" x1="182.86" class="cls-3"/></g><g id="LINE-262"><line y2="271.48" x2="182.86" y1="271.16" x1="183.2" class="cls-3"/></g><g id="LINE-263"><line y2="271.16" x2="183.2" y1="270.83" x1="183.2" class="cls-3"/></g><g id="ARC-211"><path d="M184.22,269.85c-.56,0-1.02.44-1.02.98" class="cls-3"/></g><g id="LINE-264"><line y2="269.85" x2="184.22" y1="269.85" x1="185.07" class="cls-3"/></g><g id="ARC-212"><path d="M185.15,269.9s-.04-.05-.08-.05" class="cls-3"/></g><g id="LINE-265"><line y2="269.9" x2="185.15" y1="270.23" x1="185.31" class="cls-3"/></g><g id="ARC-213"><path d="M185.31,270.23c.08.17.26.28.46.28" class="cls-3"/></g><g id="LINE-266"><line y2="270.51" x2="185.77" y1="270.51" x1="185.82" class="cls-3"/></g><g id="ARC-214"><path d="M185.82,270.51c.2,0,.37-.11.46-.28" class="cls-3"/></g><g id="LINE-267"><line y2="270.23" x2="186.28" y1="269.9" x1="186.45" class="cls-3"/></g><g id="ARC-215"><path d="M186.52,269.85s-.06.02-.08.05" class="cls-3"/></g><g id="LINE-268"><line y2="269.85" x2="186.52" y1="269.85" x1="187.44" class="cls-3"/></g><g id="ARC-216"><path d="M187.52,269.9s-.04-.05-.08-.05" class="cls-3"/></g><g id="LINE-269"><line y2="269.9" x2="187.52" y1="270.23" x1="187.68" class="cls-3"/></g><g id="ARC-217"><path d="M187.68,270.23c.08.17.26.28.46.28" class="cls-3"/></g><g id="LINE-270"><line y2="270.51" x2="188.14" y1="270.51" x1="188.19" class="cls-3"/></g><g id="ARC-218"><path d="M188.19,270.51c.2,0,.37-.11.46-.28" class="cls-3"/></g><g id="LINE-271"><line y2="270.23" x2="188.65" y1="269.9" x1="188.82" class="cls-3"/></g><g id="ARC-219"><path d="M188.89,269.85s-.06.02-.08.05" class="cls-3"/></g><g id="LINE-272"><line y2="269.85" x2="188.89" y1="269.85" x1="189.81" class="cls-3"/></g><g id="ARC-220"><path d="M189.89,269.9s-.04-.05-.08-.05" class="cls-3"/></g><g id="LINE-273"><line y2="269.9" x2="189.89" y1="270.23" x1="190.05" class="cls-3"/></g><g id="ARC-221"><path d="M190.05,270.23c.08.17.26.28.46.28" class="cls-3"/></g><g id="LINE-274"><line y2="270.51" x2="190.51" y1="270.51" x1="190.56" class="cls-3"/></g><g id="ARC-222"><path d="M190.56,270.51c.2,0,.37-.11.46-.28" class="cls-3"/></g><g id="LINE-275"><line y2="270.23" x2="191.02" y1="269.9" x1="191.18" class="cls-3"/></g><g id="ARC-223"><path d="M191.26,269.85s-.06.02-.08.05" class="cls-3"/></g><g id="LINE-276"><line y2="269.85" x2="191.26" y1="269.85" x1="192.18" class="cls-3"/></g><g id="ARC-224"><path d="M192.26,269.9s-.04-.05-.08-.05" class="cls-3"/></g><g id="LINE-277"><line y2="269.9" x2="192.26" y1="270.23" x1="192.42" class="cls-3"/></g><g id="ARC-225"><path d="M192.42,270.23c.08.17.26.28.46.28" class="cls-3"/></g><g id="LINE-278"><line y2="270.51" x2="192.88" y1="270.51" x1="192.93" class="cls-3"/></g><g id="ARC-226"><path d="M192.93,270.51c.2,0,.37-.11.46-.28" class="cls-3"/></g><g id="LINE-279"><line y2="270.23" x2="193.39" y1="269.9" x1="193.55" class="cls-3"/></g><g id="ARC-227"><path d="M193.63,269.85s-.06.02-.08.05" class="cls-3"/></g><g id="LINE-280"><line y2="269.85" x2="193.63" y1="269.85" x1="194.55" class="cls-3"/></g><g id="ARC-228"><path d="M194.63,269.9s-.04-.05-.08-.05" class="cls-3"/></g><g id="LINE-281"><line y2="269.9" x2="194.63" y1="270.23" x1="194.79" class="cls-3"/></g><g id="ARC-229"><path d="M194.79,270.23c.08.17.26.28.46.28" class="cls-3"/></g><g id="LINE-282"><line y2="270.51" x2="195.25" y1="270.51" x1="195.3" class="cls-3"/></g><g id="ARC-230"><path d="M195.3,270.51c.2,0,.37-.11.46-.28" class="cls-3"/></g><g id="LINE-283"><line y2="270.23" x2="195.76" y1="269.9" x1="195.92" class="cls-3"/></g><g id="ARC-231"><path d="M196,269.85s-.06.02-.08.05" class="cls-3"/></g><g id="LINE-284"><line y2="269.85" x2="196" y1="269.85" x1="196.92" class="cls-3"/></g><g id="ARC-232"><path d="M197,269.9s-.04-.05-.08-.05" class="cls-3"/></g><g id="LINE-285"><line y2="269.9" x2="197" y1="270.23" x1="197.16" class="cls-3"/></g><g id="ARC-233"><path d="M197.16,270.23c.08.17.26.28.46.28" class="cls-3"/></g><g id="LINE-286"><line y2="270.51" x2="197.62" y1="270.51" x1="197.67" class="cls-3"/></g><g id="ARC-234"><path d="M197.67,270.51c.2,0,.37-.11.46-.28" class="cls-3"/></g><g id="LINE-287"><line y2="270.23" x2="198.13" y1="269.9" x1="198.29" class="cls-3"/></g><g id="ARC-235"><path d="M198.37,269.85s-.06.02-.08.05" class="cls-3"/></g><g id="LINE-288"><line y2="269.85" x2="198.37" y1="269.85" x1="199.29" class="cls-3"/></g><g id="ARC-236"><path d="M199.37,269.9s-.04-.05-.08-.05" class="cls-3"/></g><g id="LINE-289"><line y2="269.9" x2="199.37" y1="270.23" x1="199.53" class="cls-3"/></g><g id="ARC-237"><path d="M199.53,270.23c.08.17.26.28.46.28" class="cls-3"/></g><g id="LINE-290"><line y2="270.51" x2="199.99" y1="270.51" x1="200.04" class="cls-3"/></g><g id="ARC-238"><path d="M200.04,270.51c.2,0,.37-.11.46-.28" class="cls-3"/></g><g id="LINE-291"><line y2="270.23" x2="200.5" y1="269.9" x1="200.66" class="cls-3"/></g><g id="ARC-239"><path d="M200.74,269.85s-.06.02-.08.05" class="cls-3"/></g><g id="LINE-292"><line y2="269.85" x2="200.74" y1="269.85" x1="201.66" class="cls-3"/></g><g id="ARC-240"><path d="M201.74,269.9s-.04-.05-.08-.05" class="cls-3"/></g><g id="LINE-293"><line y2="269.9" x2="201.74" y1="270.23" x1="201.9" class="cls-3"/></g><g id="ARC-241"><path d="M201.9,270.23c.08.17.26.28.46.28" class="cls-3"/></g><g id="LINE-294"><line y2="270.51" x2="202.36" y1="270.51" x1="202.41" class="cls-3"/></g><g id="ARC-242"><path d="M202.41,270.51c.2,0,.37-.11.46-.28" class="cls-3"/></g><g id="LINE-295"><line y2="270.23" x2="202.87" y1="269.9" x1="203.03" class="cls-3"/></g><g id="ARC-243"><path d="M203.11,269.85s-.06.02-.08.05" class="cls-3"/></g><g id="LINE-296"><line y2="269.85" x2="203.11" y1="269.85" x1="204.03" class="cls-3"/></g><g id="ARC-244"><path d="M204.11,269.9s-.04-.05-.08-.05" class="cls-3"/></g><g id="LINE-297"><line y2="269.9" x2="204.11" y1="270.23" x1="204.27" class="cls-3"/></g><g id="ARC-245"><path d="M204.27,270.23c.08.17.26.28.46.28" class="cls-3"/></g><g id="LINE-298"><line y2="270.51" x2="204.73" y1="270.51" x1="204.78" class="cls-3"/></g><g id="ARC-246"><path d="M204.78,270.51c.2,0,.37-.11.46-.28" class="cls-3"/></g><g id="LINE-299"><line y2="270.23" x2="205.24" y1="269.9" x1="205.4" class="cls-3"/></g><g id="ARC-247"><path d="M205.48,269.85s-.06.02-.08.05" class="cls-3"/></g><g id="LINE-300"><line y2="269.85" x2="205.48" y1="269.85" x1="206.4" class="cls-3"/></g><g id="ARC-248"><path d="M206.48,269.9s-.04-.05-.08-.05" class="cls-3"/></g><g id="LINE-301"><line y2="269.9" x2="206.48" y1="270.23" x1="206.64" class="cls-3"/></g><g id="ARC-249"><path d="M206.64,270.23c.08.17.26.28.46.28" class="cls-3"/></g><g id="LINE-302"><line y2="270.51" x2="207.1" y1="270.51" x1="207.15" class="cls-3"/></g><g id="ARC-250"><path d="M207.15,270.51c.2,0,.37-.11.46-.28" class="cls-3"/></g><g id="LINE-303"><line y2="270.23" x2="207.61" y1="269.9" x1="207.77" class="cls-3"/></g><g id="ARC-251"><path d="M207.85,269.85s-.06.02-.08.05" class="cls-3"/></g><g id="LINE-304"><line y2="269.85" x2="207.85" y1="269.85" x1="210.34" class="cls-3"/></g><g id="ARC-252"><path d="M211.36,270.83c0-.54-.45-.98-1.02-.98" class="cls-3"/></g><g id="LINE-305"><line y2="270.83" x2="211.36" y1="271.48" x1="211.36" class="cls-3"/></g><g id="LINE-306"><line y2="271.48" x2="211.36" y1="271.81" x1="211.7" class="cls-3"/></g><g id="LINE-307"><line y2="271.81" x2="211.7" y1="271.81" x1="212.15" class="cls-3"/></g><g id="LINE-308"><line y2="271.81" x2="212.15" y1="272.22" x1="213.76" class="cls-3"/></g><g id="LINE-309"><line y2="272.22" x2="213.76" y1="273.99" x1="213.76" class="cls-3"/></g><g id="LINE-310"><line y2="273.99" x2="213.76" y1="274.41" x1="212.15" class="cls-3"/></g><g id="LINE-311"><line y2="274.41" x2="212.15" y1="274.41" x1="211.7" class="cls-3"/></g><g id="LINE-312"><polyline points="211.7 274.41 211.36 274.73 211.36 276.36" class="cls-3"/></g><g id="LINE-313"><line y2="276.36" x2="50.53" y1="276.36" x1="211.78" class="cls-3"/></g><g id="LINE-314"><line y2="282.87" x2="73.35" y1="282.87" x1="79.03" class="cls-3"/></g><g id="LINE-315"><line y2="282.87" x2="127.81" y1="282.87" x1="133.49" class="cls-3"/></g><g id="LINE-316"><line y2="282.87" x2="182.28" y1="282.87" x1="187.96" class="cls-3"/></g><g id="LINE-317"><line y2="282.87" x2="187.96" y1="282.87" x1="198.8" class="cls-3"/></g><g id="LINE-318"><line y2="282.87" x2="133.49" y1="282.87" x1="182.28" class="cls-3"/></g><g id="LINE-319"><line y2="282.87" x2="41.41" y1="282.87" x1="73.35" class="cls-3"/></g><g id="LINE-320"><line y2="282.87" x2="79.03" y1="282.87" x1="127.81" class="cls-3"/></g><g id="LINE-321"><line y2="276.36" x2="211.78" y1="282.87" x1="211.78" class="cls-3"/></g><g id="LINE-322"><line y2="282.87" x2="198.8" y1="282.87" x1="211.78" class="cls-3"/></g><rect height="6.51" width="40.99" y="276.36" x="32.36" class="cls-3"/><rect height="6.51" width="48.8" y="276.36" x="79.01" class="cls-3"/><rect height="6.51" width="48.8" y="276.36" x="133.46" class="cls-3"/><rect height="6.51" width="23.85" y="276.36" x="187.95" class="cls-3"/><g id="MTEXT"><path d="M8.26,142.03h5.29v.72h-4.54l.64,1.3h-.73l-.67-1.36v-.67Z"/><path d="M8.32,138.85c.08-.21.19-.39.33-.54.14-.15.31-.27.51-.35.2-.08.42-.13.67-.13.14,0,.28.02.42.05.14.03.28.08.41.15.14.07.27.16.42.27.14.11.29.24.45.39l1.35,1.31v-2.29h.67v3.32h-.59l-1.85-1.79c-.12-.12-.23-.22-.33-.3-.1-.08-.21-.15-.3-.2-.1-.05-.19-.09-.29-.11-.09-.02-.19-.03-.29-.03-.15,0-.28.02-.4.07-.12.04-.23.11-.32.2-.09.09-.16.19-.21.3-.05.11-.07.24-.07.39,0,.25.08.47.23.65.15.18.36.31.63.39l-.23.67c-.42-.12-.74-.32-.97-.62s-.34-.66-.34-1.1c0-.25.04-.48.12-.69Z"/><path d="M8.4,134.3c.13-.25.32-.47.55-.65.23-.18.52-.32.85-.42.33-.1.69-.15,1.08-.15s.76.05,1.1.15.62.24.86.42c.24.18.43.4.56.65.13.25.2.52.2.83s-.07.57-.2.82-.32.47-.56.65c-.24.18-.53.32-.86.42-.33.1-.7.15-1.1.15s-.75-.05-1.08-.15c-.33-.1-.61-.24-.85-.42-.24-.18-.42-.4-.55-.65-.13-.25-.2-.53-.2-.83s.07-.58.2-.83ZM9.03,135.66c.1.16.23.29.41.41.18.11.38.2.63.27.24.07.51.1.81.1s.57-.03.82-.09c.25-.06.46-.15.64-.27.18-.12.32-.25.42-.41.1-.16.15-.33.15-.52s-.05-.37-.15-.53c-.1-.16-.24-.3-.42-.41-.18-.11-.39-.2-.64-.27-.25-.06-.52-.09-.82-.09s-.56.03-.81.09c-.25.06-.46.15-.63.26-.17.11-.31.25-.41.41-.1.16-.15.34-.15.53s.05.37.15.52Z"/><path d="M8.4,129.67c.13-.25.32-.47.55-.65.23-.18.52-.32.85-.42.33-.1.69-.15,1.08-.15s.76.05,1.1.15.62.24.86.42c.24.18.43.4.56.65.13.25.2.52.2.83s-.07.57-.2.82-.32.47-.56.65c-.24.18-.53.32-.86.42-.33.1-.7.15-1.1.15s-.75-.05-1.08-.15c-.33-.1-.61-.24-.85-.42-.24-.18-.42-.4-.55-.65-.13-.25-.2-.53-.2-.83s.07-.58.2-.83ZM9.03,131.02c.1.16.23.29.41.41.18.11.38.2.63.27.24.07.51.1.81.1s.57-.03.82-.09c.25-.06.46-.15.64-.27.18-.12.32-.25.42-.41.1-.16.15-.33.15-.52s-.05-.37-.15-.53c-.1-.16-.24-.3-.42-.41-.18-.11-.39-.2-.64-.27-.25-.06-.52-.09-.82-.09s-.56.03-.81.09c-.25.06-.46.15-.63.26-.17.11-.31.25-.41.41-.1.16-.15.34-.15.53s.05.37.15.52Z"/><path d="M9.9,124.84h.67c-.24-.11-.42-.26-.54-.45-.12-.18-.18-.4-.18-.63,0-.26.07-.48.2-.67.14-.19.33-.32.59-.41-.26-.11-.45-.27-.59-.46-.14-.2-.2-.43-.2-.7,0-.38.12-.67.37-.88.25-.21.61-.31,1.07-.31h2.25v.7h-2.16c-.29,0-.52.07-.69.2-.17.13-.25.31-.25.54,0,.12.02.22.07.32.05.1.11.18.2.26.09.07.19.13.32.16.12.04.26.06.4.06h2.11v.7h-2.16c-.14,0-.27.02-.38.06-.12.04-.22.09-.3.15-.08.06-.14.14-.19.23-.04.09-.07.2-.07.31s.02.22.07.32c.05.1.12.18.21.25.09.07.2.12.32.17.12.04.26.06.41.06h2.09v.7h-3.64v-.68Z"/><path d="M9.9,118.66h.67c-.24-.11-.42-.26-.54-.45-.12-.18-.18-.4-.18-.63,0-.26.07-.48.2-.67.14-.19.33-.32.59-.41-.26-.11-.45-.27-.59-.46-.14-.2-.2-.43-.2-.7,0-.38.12-.67.37-.88.25-.21.61-.31,1.07-.31h2.25v.7h-2.16c-.29,0-.52.07-.69.2-.17.13-.25.31-.25.54,0,.12.02.22.07.32.05.1.11.18.2.26.09.07.19.13.32.16.12.04.26.06.4.06h2.11v.7h-2.16c-.14,0-.27.02-.38.06-.12.04-.22.09-.3.15-.08.06-.14.14-.19.23-.04.09-.07.2-.07.31s.02.22.07.32c.05.1.12.18.21.25.09.07.2.12.32.17.12.04.26.06.41.06h2.09v.7h-3.64v-.68Z"/></g><line y2="31.56" x2="18.3" y1="226.42" x1="18.3" class="cls-3"/><rect height=".3" width="1.95" y="226.27" x="17.33" class="cls-4"/><rect height=".3" width="1.95" y="31.41" x="17.33" class="cls-4"/><g id="MTEXT-2"><path d="M13.49,281.56c-.07.22-.17.4-.31.56-.13.15-.29.28-.47.36-.18.09-.38.13-.6.13-.16,0-.31-.02-.45-.07-.15-.05-.28-.11-.4-.2-.12-.09-.22-.19-.3-.31s-.14-.25-.18-.4c-.05.14-.12.25-.2.36-.08.1-.17.19-.27.27s-.21.13-.33.17c-.12.04-.25.06-.38.06-.21,0-.39-.04-.56-.12-.17-.08-.32-.2-.44-.34-.13-.14-.22-.32-.29-.52-.07-.2-.1-.42-.1-.66s.03-.46.1-.66.17-.37.29-.52c.12-.15.27-.26.44-.35.17-.08.36-.13.57-.13.13,0,.26.02.38.06.12.04.24.1.34.17.1.07.19.16.27.27.08.1.14.22.19.35.04-.15.1-.28.18-.4s.19-.22.31-.3c.12-.08.25-.15.4-.2.14-.05.29-.07.45-.07.21,0,.41.04.6.13.18.09.34.21.47.36.13.15.24.34.31.56s.11.46.11.72-.04.5-.11.72ZM8.93,281.19c.04.11.09.2.16.28s.16.14.26.18.21.07.33.07c.11,0,.22-.02.32-.07s.19-.11.26-.19c.07-.08.13-.17.17-.28.04-.11.06-.23.06-.35s-.02-.25-.06-.35c-.04-.1-.1-.2-.17-.28s-.16-.14-.26-.19c-.1-.04-.21-.07-.32-.07-.12,0-.23.02-.33.07-.1.04-.19.11-.26.19s-.12.17-.16.28c-.04.11-.06.23-.06.36s.02.24.06.35ZM12.86,280.43c-.04-.13-.11-.23-.19-.32s-.18-.16-.29-.21c-.11-.05-.24-.08-.37-.08s-.26.03-.37.08c-.11.05-.21.12-.29.21s-.15.2-.2.33c-.05.13-.07.26-.07.41s.02.28.07.41c.04.13.11.23.19.33s.18.16.3.21c.12.05.24.07.37.07.14,0,.27-.02.38-.07.12-.05.21-.12.29-.21s.14-.2.19-.33c.04-.13.07-.26.07-.41s-.02-.29-.07-.41Z"/><path d="M8.4,275.65c.13-.25.32-.47.55-.65.23-.18.52-.32.85-.42s.69-.15,1.08-.15.76.05,1.1.15c.33.1.62.24.86.42.24.18.43.4.56.65.13.25.2.52.2.83s-.07.57-.2.82-.32.47-.56.65c-.24.18-.53.32-.86.42-.33.1-.7.15-1.1.15s-.75-.05-1.08-.15c-.33-.1-.62-.24-.85-.42-.24-.18-.42-.4-.55-.65-.13-.25-.2-.53-.2-.83s.07-.58.2-.83ZM9.03,277c.1.16.23.29.41.41.17.11.38.2.63.27.24.07.51.1.81.1s.57-.03.82-.09c.25-.06.46-.15.64-.27.18-.12.32-.25.42-.41.1-.16.15-.33.15-.52s-.05-.37-.15-.53c-.1-.16-.24-.3-.42-.41-.18-.11-.39-.2-.64-.27s-.52-.09-.82-.09-.56.03-.81.09-.46.15-.63.26c-.17.11-.31.25-.41.41-.1.16-.15.34-.15.53s.05.37.15.52Z"/><path d="M9.9,270.82h.67c-.24-.11-.42-.26-.54-.45-.12-.18-.18-.4-.18-.63,0-.26.07-.48.2-.67s.33-.32.59-.41c-.26-.11-.45-.27-.59-.46s-.2-.43-.2-.7c0-.38.12-.67.38-.88.25-.21.61-.31,1.07-.31h2.25v.7h-2.16c-.29,0-.52.07-.69.2-.17.13-.25.31-.25.54,0,.12.02.22.07.32s.11.18.2.26.19.13.32.16c.12.04.26.06.4.06h2.11v.7h-2.16c-.14,0-.27.02-.38.06-.12.04-.22.09-.3.15s-.14.14-.19.23c-.04.09-.07.2-.07.31s.02.22.07.32.12.18.21.25c.09.07.2.12.32.17.12.04.26.06.41.06h2.09v.7h-3.64v-.68Z"/><path d="M9.9,264.63h.67c-.24-.11-.42-.26-.54-.45-.12-.18-.18-.4-.18-.63,0-.26.07-.48.2-.67s.33-.32.59-.41c-.26-.11-.45-.27-.59-.46s-.2-.43-.2-.7c0-.38.12-.67.38-.88.25-.21.61-.31,1.07-.31h2.25v.7h-2.16c-.29,0-.52.07-.69.2-.17.13-.25.31-.25.54,0,.12.02.22.07.32s.11.18.2.26.19.13.32.16c.12.04.26.06.4.06h2.11v.7h-2.16c-.14,0-.27.02-.38.06-.12.04-.22.09-.3.15s-.14.14-.19.23c-.04.09-.07.2-.07.31s.02.22.07.32.12.18.21.25c.09.07.2.12.32.17.12.04.26.06.41.06h2.09v.7h-3.64v-.68Z"/></g><line y2="270" x2="18.3" y1="282.72" x1="18.3" class="cls-3"/><rect height=".3" width="1.95" y="282.57" x="17.33" class="cls-4"/><rect height=".3" width="1.95" y="269.85" x="17.33" class="cls-4"/><g id="MTEXT-3"><path d="M113.67,6.43v5.29h-.72v-4.54l-1.3.64v-.73l1.36-.67h.67Z"/><path d="M117.37,6.57c.25.13.47.32.65.55.18.23.32.52.42.85.1.33.15.69.15,1.08s-.05.76-.15,1.1-.24.62-.42.86c-.18.24-.4.43-.65.56-.25.13-.52.2-.83.2s-.57-.07-.82-.2-.47-.32-.65-.56c-.18-.24-.32-.53-.42-.86-.1-.33-.15-.7-.15-1.1s.05-.75.15-1.08c.1-.33.24-.61.42-.85.18-.24.4-.42.65-.55.25-.13.53-.2.83-.2s.58.07.83.2ZM116.02,7.21c-.16.1-.29.23-.41.41-.11.18-.2.38-.27.63-.07.24-.1.51-.1.81s.03.57.09.82c.06.25.15.46.27.64.12.18.25.32.41.42.16.1.33.15.52.15s.37-.05.53-.15c.16-.1.3-.24.41-.42.11-.18.2-.39.27-.64.06-.25.09-.52.09-.82s-.03-.56-.09-.81c-.06-.25-.15-.46-.26-.63-.11-.17-.25-.31-.41-.41-.16-.1-.34-.15-.53-.15s-.37.05-.52.15Z"/><path d="M122.01,6.57c.25.13.47.32.65.55.18.23.32.52.42.85.1.33.15.69.15,1.08s-.05.76-.15,1.1-.24.62-.42.86c-.18.24-.4.43-.65.56-.25.13-.52.2-.83.2s-.57-.07-.82-.2-.47-.32-.65-.56c-.18-.24-.32-.53-.42-.86-.1-.33-.15-.7-.15-1.1s.05-.75.15-1.08c.1-.33.24-.61.42-.85.18-.24.4-.42.65-.55.25-.13.53-.2.83-.2s.58.07.83.2ZM120.65,7.21c-.16.1-.29.23-.41.41-.11.18-.2.38-.27.63-.07.24-.1.51-.1.81s.03.57.09.82c.06.25.15.46.27.64.12.18.25.32.41.42.16.1.33.15.52.15s.37-.05.53-.15c.16-.1.3-.24.41-.42.11-.18.2-.39.27-.64.06-.25.09-.52.09-.82s-.03-.56-.09-.81c-.06-.25-.15-.46-.26-.63-.11-.17-.25-.31-.41-.41-.16-.1-.34-.15-.53-.15s-.37.05-.52.15Z"/><path d="M126.64,6.57c.25.13.47.32.65.55.18.23.32.52.42.85.1.33.15.69.15,1.08s-.05.76-.15,1.1-.24.62-.42.86c-.18.24-.4.43-.65.56-.25.13-.52.2-.83.2s-.57-.07-.82-.2-.47-.32-.65-.56c-.18-.24-.32-.53-.42-.86-.1-.33-.15-.7-.15-1.1s.05-.75.15-1.08c.1-.33.24-.61.42-.85.18-.24.4-.42.65-.55.25-.13.53-.2.83-.2s.58.07.83.2ZM125.29,7.21c-.16.1-.29.23-.41.41-.11.18-.2.38-.27.63-.07.24-.1.51-.1.81s.03.57.09.82c.06.25.15.46.27.64.12.18.25.32.41.42.16.1.33.15.52.15s.37-.05.53-.15c.16-.1.3-.24.41-.42.11-.18.2-.39.27-.64.06-.25.09-.52.09-.82s-.03-.56-.09-.81c-.06-.25-.15-.46-.26-.63-.11-.17-.25-.31-.41-.41-.16-.1-.34-.15-.53-.15s-.37.05-.52.15Z"/><path d="M131.47,8.07v.67c.11-.24.26-.42.45-.54.18-.12.4-.18.63-.18.26,0,.48.07.67.2.19.14.32.33.41.59.11-.26.27-.45.46-.59.2-.14.43-.2.7-.2.38,0,.67.12.88.37.21.25.31.61.31,1.07v2.25h-.7v-2.16c0-.29-.07-.52-.2-.69-.13-.17-.31-.25-.54-.25-.12,0-.22.02-.32.07-.1.05-.18.11-.26.2-.07.09-.13.19-.16.32-.04.12-.06.26-.06.4v2.11h-.7v-2.16c0-.14-.02-.27-.06-.38-.04-.12-.09-.22-.15-.3-.06-.08-.14-.14-.23-.19-.09-.04-.2-.07-.31-.07s-.22.02-.32.07c-.1.05-.18.12-.25.21-.07.09-.12.2-.17.32-.04.12-.06.26-.06.41v2.09h-.7v-3.64h.68Z"/><path d="M137.65,8.07v.67c.11-.24.26-.42.45-.54.18-.12.4-.18.63-.18.26,0,.48.07.67.2.19.14.32.33.41.59.11-.26.27-.45.46-.59.2-.14.43-.2.7-.2.38,0,.67.12.88.37.21.25.31.61.31,1.07v2.25h-.7v-2.16c0-.29-.07-.52-.2-.69-.13-.17-.31-.25-.54-.25-.12,0-.22.02-.32.07-.1.05-.18.11-.26.2-.07.09-.13.19-.16.32-.04.12-.06.26-.06.4v2.11h-.7v-2.16c0-.14-.02-.27-.06-.38-.04-.12-.09-.22-.15-.3-.06-.08-.14-.14-.23-.19-.09-.04-.2-.07-.31-.07s-.22.02-.32.07c-.1.05-.18.12-.25.21-.07.09-.12.2-.17.32-.04.12-.06.26-.06.41v2.09h-.7v-3.64h.68Z"/></g><line y2="16.47" x2="213.5" y1="16.47" x1="40.53" class="cls-3"/><rect height="1.95" width=".3" y="15.5" x="40.38" class="cls-4"/><rect height="1.95" width=".3" y="15.5" x="213.35" class="cls-4"/><line y2="276.36" x2="135.18" y1="276.36" x1="129.85" class="cls-2"/><line y2="276.36" x2="186.5" y1="276.36" x1="181.14" class="cls-2"/></g></g></svg>