<svg viewBox="0 0 531.27 288" xmlns:xlink="http://www.w3.org/1999/xlink" xmlns="http://www.w3.org/2000/svg" id="Camada_2"><defs><style>.cls-1,.cls-2,.cls-3{fill:none;}.cls-4{fill:#12100c;}.cls-2{stroke:#000;}.cls-2,.cls-3{stroke-linecap:round;stroke-linejoin:round;stroke-width:.3px;}.cls-3{stroke:#12100c;}</style><symbol viewBox="0 0 531.27 288" id="fundo_transparente"><rect height="288" width="531.27" x="0" class="cls-1"/></symbol></defs><g id="RePlastic"><g id="vedação_Easy"><use xlink:href="#fundo_transparente" height="288" width="531.27"/><g id="LINE"><line y2="285.05" x2="31.66" y1="214.46" x1="31.66" class="cls-2"/></g><g id="LINE-2"><line y2="214.46" x2="339.93" y1="285.05" x1="339.93" class="cls-2"/></g><g id="LINE-3"><line y2="285.05" x2="330.21" y1="254.62" x1="330.21" class="cls-2"/></g><g id="LINE-4"><line y2="249.43" x2="330.21" y1="225.47" x1="330.21" class="cls-2"/></g><g id="LINE-5"><line y2="220.29" x2="330.21" y1="214.46" x1="330.21" class="cls-2"/></g><g id="LINE-6"><line y2="213.82" x2="339.28" y1="214.46" x1="339.93" class="cls-2"/></g><g id="LINE-7"><line y2="214.46" x2="330.21" y1="213.82" x1="330.86" class="cls-2"/></g><g id="LINE-8"><line y2="213.82" x2="194.86" y1="214.46" x1="195.51" class="cls-2"/></g><g id="LINE-9"><line y2="214.46" x2="185.79" y1="213.82" x1="186.44" class="cls-2"/></g><g id="LINE-10"><line y2="214.46" x2="195.51" y1="220.29" x1="195.51" class="cls-2"/></g><g id="LINE-11"><line y2="225.47" x2="195.51" y1="249.43" x1="195.51" class="cls-2"/></g><g id="LINE-12"><line y2="254.62" x2="195.51" y1="285.05" x1="195.51" class="cls-2"/></g><g id="LINE-13"><line y2="285.05" x2="185.79" y1="254.62" x1="185.79" class="cls-2"/></g><g id="LINE-14"><line y2="249.43" x2="185.79" y1="225.47" x1="185.79" class="cls-2"/></g><g id="LINE-15"><line y2="220.29" x2="185.79" y1="214.46" x1="185.79" class="cls-2"/></g><g id="LINE-16"><line y2="213.82" x2="50.44" y1="214.46" x1="51.09" class="cls-2"/></g><g id="LINE-17"><line y2="214.46" x2="41.37" y1="213.82" x1="42.02" class="cls-2"/></g><g id="LINE-18"><line y2="214.46" x2="51.09" y1="220.29" x1="51.09" class="cls-2"/></g><g id="LINE-19"><line y2="225.47" x2="51.09" y1="249.43" x1="51.09" class="cls-2"/></g><g id="LINE-20"><line y2="254.62" x2="51.09" y1="285.05" x1="51.09" class="cls-2"/></g><g id="LINE-21"><line y2="214.46" x2="41.37" y1="285.05" x1="41.37" class="cls-2"/></g><g id="LINE-22"><line y2="213.82" x2="40.73" y1="214.46" x1="41.37" class="cls-2"/></g><g id="LINE-23"><line y2="220.29" x2="51.09" y1="220.29" x1="185.79" class="cls-2"/></g><g id="LINE-24"><line y2="225.47" x2="185.79" y1="225.47" x1="51.09" class="cls-2"/></g><g id="LINE-25"><line y2="220.29" x2="195.51" y1="220.29" x1="330.21" class="cls-2"/></g><g id="LINE-26"><line y2="225.47" x2="330.21" y1="225.47" x1="195.51" class="cls-2"/></g><g id="LINE-27"><line y2="249.43" x2="195.51" y1="249.43" x1="330.21" class="cls-2"/></g><g id="LINE-28"><line y2="254.62" x2="330.21" y1="254.62" x1="195.51" class="cls-2"/></g><g id="LINE-29"><line y2="249.43" x2="51.09" y1="249.43" x1="185.79" class="cls-2"/></g><g id="LINE-30"><line y2="254.62" x2="185.79" y1="254.62" x1="51.09" class="cls-2"/></g><g id="SPLINE"><path d="M330.21,249.43s0,.01.02.03.03.05.05.09.05.09.07.15.06.13.1.2.07.17.11.26.08.2.12.32c.04.12.08.25.12.38.02.07.04.14.05.21s.03.15.04.22c.02.14.04.28.05.42,0,.07,0,.15,0,.22s0,.15,0,.22c0,.12-.01.25-.03.37s-.04.25-.06.36-.05.23-.08.34-.07.22-.1.32c-.04.11-.08.22-.12.32s-.08.19-.12.27-.07.16-.11.22c-.02.03-.03.06-.04.09s-.02.05-.04.07c-.02.03-.03.06-.04.07,0,0,0,0,0,0" class="cls-2"/></g><g id="SPLINE-2"><path d="M330.21,220.29s0,.01.02.03.03.05.05.09.05.09.07.15.06.13.1.2.07.17.11.26.08.2.12.32c.04.12.08.25.12.38.02.07.04.14.05.21s.03.15.04.22c.02.14.04.28.05.42,0,.07,0,.15,0,.22s0,.15,0,.22c0,.12-.01.25-.03.37s-.04.25-.06.36-.05.23-.08.34-.07.22-.1.32c-.04.11-.08.22-.12.32s-.08.19-.12.27-.07.16-.11.22c-.02.03-.03.06-.04.09s-.02.05-.04.07c-.02.03-.03.06-.04.07,0,0,0,0,0,0" class="cls-2"/></g><g id="LINE-31"><line y2="214.46" x2="330.21" y1="214.46" x1="339.93" class="cls-2"/></g><g id="LINE-32"><line y2="285.05" x2="330.21" y1="285.05" x1="339.93" class="cls-2"/></g><g id="LINE-33"><line y2="213.82" x2="339.28" y1="213.82" x1="330.86" class="cls-2"/></g><g id="LINE-34"><line y2="213.82" x2="194.86" y1="213.82" x1="186.44" class="cls-2"/></g><g id="LINE-35"><line y2="214.46" x2="185.79" y1="214.46" x1="195.51" class="cls-2"/></g><g id="LINE-36"><line y2="285.05" x2="185.79" y1="285.05" x1="190.65" class="cls-2"/></g><g id="LINE-37"><line y2="285.05" x2="190.65" y1="285.05" x1="195.51" class="cls-2"/></g><g id="LWPOLYLINE"><polyline points="195.5 254.61 195.5 254.61 195.47 254.55 195.41 254.43 195.33 254.26 195.22 254.04 195.1 253.75 194.98 253.4 194.87 253 194.83 252.78 194.79 252.55 194.76 252.14 194.77 251.7 194.81 251.34 194.89 250.99 194.98 250.66 195.09 250.34 195.21 250.04 195.33 249.78 195.42 249.59 195.46 249.52 195.49 249.47 195.51 249.43 195.51 249.43" class="cls-2"/></g><g id="SPLINE-3"><path d="M186.54,252.02c0,.13,0,.26-.02.39s-.03.27-.06.39-.05.24-.08.36-.07.23-.1.34c-.04.11-.08.22-.12.32s-.08.2-.12.28-.08.17-.11.24c-.02.04-.03.07-.05.1s-.03.05-.04.08c-.02.04-.04.07-.04.08,0,0,0,0,0,.01" class="cls-2"/></g><g id="SPLINE-4"><path d="M185.8,249.44s0,0,0,.01c0,.01.02.04.04.07s.04.08.07.13.06.11.09.18.07.15.11.23c.04.09.08.19.12.3s.08.23.12.36.07.27.1.41c.02.07.03.15.04.23s.02.15.03.23c.01.14.02.28.02.43" class="cls-2"/></g><g id="LWPOLYLINE-2"><polyline points="195.5 225.46 195.5 225.46 195.47 225.4 195.41 225.29 195.33 225.12 195.22 224.89 195.1 224.6 194.98 224.26 194.87 223.86 194.83 223.64 194.79 223.41 194.76 222.99 194.77 222.56 194.81 222.2 194.89 221.85 194.98 221.51 195.09 221.2 195.21 220.9 195.33 220.64 195.42 220.45 195.46 220.38 195.49 220.33 195.51 220.29 195.51 220.29" class="cls-2"/></g><g id="SPLINE-5"><path d="M186.54,222.88c0,.13,0,.26-.02.39s-.03.27-.06.39-.05.24-.08.36-.07.23-.1.34c-.04.11-.08.22-.12.32s-.08.2-.12.28-.08.17-.11.24c-.02.04-.03.07-.05.1s-.03.05-.04.08c-.02.04-.04.07-.04.08,0,0,0,0,0,.01" class="cls-2"/></g><g id="SPLINE-6"><path d="M185.8,220.3s0,0,0,.01c0,.01.02.04.04.07s.04.08.07.13.06.11.09.18.07.15.11.23c.04.09.08.19.12.3s.08.23.12.36.07.27.1.41c.02.07.03.15.04.23s.02.15.03.23c.01.14.02.28.02.43" class="cls-2"/></g><g id="LINE-38"><line y2="213.82" x2="50.44" y1="213.82" x1="42.02" class="cls-2"/></g><g id="LINE-39"><line y2="214.46" x2="41.37" y1="214.46" x1="51.09" class="cls-2"/></g><g id="LWPOLYLINE-3"><polyline points="51.08 254.61 51.08 254.61 51.05 254.55 50.99 254.43 50.91 254.26 50.81 254.04 50.69 253.75 50.56 253.4 50.45 253 50.41 252.78 50.37 252.55 50.34 252.14 50.35 251.7 50.4 251.34 50.47 250.99 50.56 250.66 50.67 250.34 50.79 250.04 50.91 249.78 51 249.59 51.04 249.52 51.07 249.47 51.09 249.43 51.09 249.43" class="cls-2"/></g><g id="LWPOLYLINE-4"><polyline points="51.08 225.46 51.08 225.46 51.05 225.4 50.99 225.29 50.91 225.12 50.81 224.89 50.69 224.6 50.56 224.26 50.45 223.86 50.41 223.64 50.37 223.41 50.34 222.99 50.35 222.56 50.4 222.2 50.47 221.85 50.56 221.51 50.67 221.2 50.79 220.9 50.91 220.64 51 220.45 51.04 220.38 51.07 220.33 51.09 220.29 51.09 220.29" class="cls-2"/></g><g id="LINE-40"><line y2="285.05" x2="41.37" y1="285.05" x1="46.23" class="cls-2"/></g><g id="LINE-41"><line y2="285.05" x2="46.23" y1="285.05" x1="51.09" class="cls-2"/></g><g id="LINE-42"><line y2="285.05" x2="31.66" y1="285.05" x1="41.37" class="cls-2"/></g><g id="LINE-43"><line y2="214.46" x2="31.66" y1="214.46" x1="36.52" class="cls-2"/></g><g id="LINE-44"><line y2="214.46" x2="36.52" y1="214.46" x1="41.37" class="cls-2"/></g><g id="LINE-45"><line y2="213.82" x2="40.73" y1="213.82" x1="36.52" class="cls-2"/></g><g id="LINE-46"><polyline points="31.66 214.46 32.31 213.82 36.52 213.82" class="cls-2"/></g><g id="LINE-47"><line y2="214.46" x2="514.87" y1="285.05" x1="514.87" class="cls-2"/></g><g id="LINE-48"><line y2="213.82" x2="514.22" y1="214.46" x1="514.87" class="cls-2"/></g><g id="LINE-49"><line y2="285.05" x2="505.15" y1="285.05" x1="514.87" class="cls-2"/></g><g id="LINE-50"><line y2="285.05" x2="505.15" y1="214.46" x1="505.15" class="cls-2"/></g><g id="LINE-51"><line y2="214.46" x2="505.15" y1="213.82" x1="505.8" class="cls-2"/></g><g id="LINE-52"><line y2="213.82" x2="369.8" y1="214.46" x1="370.45" class="cls-2"/></g><g id="LINE-53"><line y2="214.46" x2="360.73" y1="213.82" x1="361.38" class="cls-2"/></g><g id="LINE-54"><line y2="214.46" x2="370.45" y1="220.29" x1="370.45" class="cls-2"/></g><g id="LINE-55"><line y2="225.47" x2="370.45" y1="249.43" x1="370.45" class="cls-2"/></g><g id="LINE-56"><line y2="254.62" x2="370.45" y1="285.05" x1="370.45" class="cls-2"/></g><g id="LINE-57"><line y2="285.05" x2="360.73" y1="214.46" x1="360.73" class="cls-2"/></g><g id="LINE-58"><line y2="249.43" x2="370.45" y1="249.43" x1="505.15" class="cls-2"/></g><g id="LINE-59"><line y2="254.62" x2="505.15" y1="254.62" x1="370.45" class="cls-2"/></g><g id="LINE-60"><line y2="220.29" x2="370.45" y1="220.29" x1="505.15" class="cls-2"/></g><g id="LINE-61"><line y2="225.47" x2="505.15" y1="225.47" x1="370.45" class="cls-2"/></g><g id="LINE-62"><line y2="214.46" x2="505.15" y1="214.46" x1="510.01" class="cls-2"/></g><g id="LINE-63"><line y2="214.46" x2="510.01" y1="214.46" x1="514.87" class="cls-2"/></g><g id="LINE-64"><line y2="213.82" x2="514.22" y1="213.82" x1="510.01" class="cls-2"/></g><g id="LINE-65"><line y2="213.82" x2="510.01" y1="213.82" x1="505.8" class="cls-2"/></g><g id="LINE-66"><line y2="213.82" x2="369.8" y1="213.82" x1="361.38" class="cls-2"/></g><g id="LINE-67"><line y2="214.46" x2="360.73" y1="214.46" x1="370.45" class="cls-2"/></g><g id="LWPOLYLINE-5"><polyline points="370.44 254.61 370.44 254.61 370.41 254.55 370.35 254.43 370.27 254.26 370.16 254.04 370.04 253.75 369.92 253.4 369.81 253 369.77 252.78 369.73 252.55 369.7 252.14 369.71 251.7 369.75 251.34 369.83 250.99 369.92 250.66 370.03 250.34 370.15 250.04 370.27 249.78 370.36 249.59 370.4 249.52 370.43 249.47 370.45 249.43 370.45 249.43" class="cls-2"/></g><g id="LWPOLYLINE-6"><polyline points="370.44 225.46 370.44 225.46 370.41 225.4 370.35 225.29 370.27 225.12 370.16 224.89 370.04 224.6 369.92 224.26 369.81 223.86 369.77 223.64 369.73 223.41 369.7 222.99 369.71 222.56 369.75 222.2 369.83 221.85 369.92 221.51 370.03 221.2 370.15 220.9 370.27 220.64 370.36 220.45 370.4 220.38 370.43 220.33 370.45 220.29 370.45 220.29" class="cls-2"/></g><g id="LINE-68"><line y2="285.05" x2="360.73" y1="285.05" x1="370.45" class="cls-2"/></g><g id="LINE-69"><line y2="45.12" x2="50.34" y1="45.12" x1="186.54" class="cls-2"/></g><g id="LINE-70"><line y2="45.12" x2="194.76" y1="45.12" x1="330.96" class="cls-2"/></g><g id="LINE-71"><line y2="50.3" x2="186.54" y1="50.3" x1="50.34" class="cls-2"/></g><g id="LINE-72"><line y2="50.3" x2="330.96" y1="50.3" x1="194.76" class="cls-2"/></g><g id="LINE-73"><line y2="188.02" x2="33.93" y1="51.81" x1="33.93" class="cls-2"/></g><g id="LINE-74"><line y2="51.81" x2="39.11" y1="188.02" x1="39.11" class="cls-2"/></g><g id="CIRCLE"><circle r="4.21" cy="47.71" cx="335.07" class="cls-2"/></g><g id="CIRCLE-2"><circle r="4.86" cy="47.71" cx="335.07" class="cls-2"/></g><g id="CIRCLE-3"><circle r="4.21" cy="47.71" cx="190.65" class="cls-2"/></g><g id="CIRCLE-4"><circle r="4.86" cy="47.71" cx="190.65" class="cls-2"/></g><g id="CIRCLE-5"><circle r="4.21" cy="47.71" cx="46.23" class="cls-2"/></g><g id="CIRCLE-6"><circle r="4.86" cy="47.71" cx="46.23" class="cls-2"/></g><g id="CIRCLE-7"><circle r="4.21" cy="47.71" cx="36.52" class="cls-2"/></g><g id="CIRCLE-8"><circle r="4.86" cy="47.71" cx="36.52" class="cls-2"/></g><g id="CIRCLE-9"><circle r="4.21" cy="192.13" cx="36.52" class="cls-2"/></g><g id="CIRCLE-10"><circle r="4.86" cy="192.13" cx="36.52" class="cls-2"/></g><line y2="285.02" x2="11.39" y1="213.97" x1="11.39" class="cls-3"/><rect height=".3" width="1.95" y="213.82" x="10.42" class="cls-4"/><rect height=".3" width="1.95" y="284.86" x="10.42" class="cls-4"/><path d="M3.01,261.94h5.29v.72H3.76l.64,1.3h-.73l-.67-1.36v-.67Z"/><path d="M3.01,259.1h5.29v.72H3.76l.64,1.3h-.73l-.67-1.36v-.67Z"/><path d="M3.16,255.4c.13-.25.32-.47.55-.65.23-.18.52-.32.85-.42.33-.1.69-.15,1.08-.15s.76.05,1.1.15.62.24.86.42c.24.18.43.4.56.65.13.25.2.52.2.83s-.07.57-.2.82-.32.47-.56.65c-.24.18-.53.32-.86.42-.33.1-.7.15-1.1.15s-.75-.05-1.08-.15c-.33-.1-.61-.24-.85-.42-.24-.18-.42-.4-.55-.65-.13-.25-.2-.53-.2-.83s.07-.58.2-.83ZM3.79,256.75c.1.16.23.29.41.41.18.11.38.2.63.27.24.07.51.1.81.1s.57-.03.82-.09c.25-.06.46-.15.64-.27.18-.12.32-.25.42-.41.1-.16.15-.33.15-.52s-.05-.37-.15-.53c-.1-.16-.24-.3-.42-.41-.18-.11-.39-.2-.64-.27-.25-.06-.52-.09-.82-.09s-.56.03-.81.09c-.25.06-.46.15-.63.26-.17.11-.31.25-.41.41-.1.16-.15.34-.15.53s.05.37.15.52Z"/><path d="M3.16,250.76c.13-.25.32-.47.55-.65.23-.18.52-.32.85-.42.33-.1.69-.15,1.08-.15s.76.05,1.1.15.62.24.86.42c.24.18.43.4.56.65.13.25.2.52.2.83s-.07.57-.2.82-.32.47-.56.65c-.24.18-.53.32-.86.42-.33.1-.7.15-1.1.15s-.75-.05-1.08-.15c-.33-.1-.61-.24-.85-.42-.24-.18-.42-.4-.55-.65-.13-.25-.2-.53-.2-.83s.07-.58.2-.83ZM3.79,252.12c.1.16.23.29.41.41.18.11.38.2.63.27.24.07.51.1.81.1s.57-.03.82-.09c.25-.06.46-.15.64-.27.18-.12.32-.25.42-.41.1-.16.15-.33.15-.52s-.05-.37-.15-.53c-.1-.16-.24-.3-.42-.41-.18-.11-.39-.2-.64-.27-.25-.06-.52-.09-.82-.09s-.56.03-.81.09c-.25.06-.46.15-.63.26-.17.11-.31.25-.41.41-.1.16-.15.34-.15.53s.05.37.15.52Z"/><path d="M4.66,245.94h.67c-.24-.11-.42-.26-.54-.45-.12-.18-.18-.4-.18-.63,0-.26.07-.48.2-.67.14-.19.33-.32.59-.41-.26-.11-.45-.27-.59-.46-.14-.2-.2-.43-.2-.7,0-.38.12-.67.37-.88.25-.21.61-.31,1.07-.31h2.25v.7h-2.16c-.29,0-.52.07-.69.2-.17.13-.25.31-.25.54,0,.12.02.22.07.32.05.1.11.18.2.26.09.07.19.13.32.16.12.04.26.06.4.06h2.11v.7h-2.16c-.14,0-.27.02-.38.06-.12.04-.22.09-.3.15-.08.06-.14.14-.19.23-.04.09-.07.2-.07.31s.02.22.07.32c.05.1.12.18.21.25.09.07.2.12.32.17.12.04.26.06.41.06h2.09v.7h-3.64v-.68Z"/><path d="M4.66,239.75h.67c-.24-.11-.42-.26-.54-.45-.12-.18-.18-.4-.18-.63,0-.26.07-.48.2-.67.14-.19.33-.32.59-.41-.26-.11-.45-.27-.59-.46-.14-.2-.2-.43-.2-.7,0-.38.12-.67.37-.88.25-.21.61-.31,1.07-.31h2.25v.7h-2.16c-.29,0-.52.07-.69.2-.17.13-.25.31-.25.54,0,.12.02.22.07.32.05.1.11.18.2.26.09.07.19.13.32.16.12.04.26.06.4.06h2.11v.7h-2.16c-.14,0-.27.02-.38.06-.12.04-.22.09-.3.15-.08.06-.14.14-.19.23-.04.09-.07.2-.07.31s.02.22.07.32c.05.1.12.18.21.25.09.07.2.12.32.17.12.04.26.06.41.06h2.09v.7h-3.64v-.68Z"/></g></g></svg>