<svg viewBox="0 0 531.27 288" xmlns:xlink="http://www.w3.org/1999/xlink" xmlns="http://www.w3.org/2000/svg" id="Camada_2"><defs><style>.cls-1,.cls-2{fill:none;}.cls-3{fill:#12100c;}.cls-2{stroke:#12100c;stroke-linecap:round;stroke-linejoin:round;stroke-width:.3px;}</style><symbol viewBox="0 0 531.27 288" id="fundo_transparente"><rect height="288" width="531.27" x="0" class="cls-1"/></symbol></defs><g id="RePlastic"><g id="resguardo_Simple_horizontal_1800"><use xlink:href="#fundo_transparente" height="288" width="531.27"/><line y2="174.01" x2="288.4" y1="174.66" x1="288.4" class="cls-2"/><line y2="188.43" x2="288.4" y1="189.08" x1="288.4" class="cls-2"/><line y2="202.85" x2="288.4" y1="203.5" x1="288.4" class="cls-2"/><line y2="217.27" x2="288.4" y1="217.92" x1="288.4" class="cls-2"/><line y2="231.69" x2="288.4" y1="232.34" x1="288.4" class="cls-2"/><line y2="246.11" x2="288.4" y1="246.77" x1="288.4" class="cls-2"/><line y2="260.53" x2="288.4" y1="261.19" x1="288.4" class="cls-2"/><polyline points="288.4 275.7 288.4 275.61 288.4 274.95" class="cls-2"/><line y2="267.74" x2="288.4" y1="268.4" x1="288.4" class="cls-2"/><line y2="253.32" x2="288.4" y1="253.98" x1="288.4" class="cls-2"/><line y2="238.9" x2="288.4" y1="239.55" x1="288.4" class="cls-2"/><line y2="224.48" x2="288.4" y1="225.13" x1="288.4" class="cls-2"/><line y2="210.06" x2="288.4" y1="210.71" x1="288.4" class="cls-2"/><line y2="195.64" x2="288.4" y1="196.29" x1="288.4" class="cls-2"/><line y2="181.22" x2="288.4" y1="181.87" x1="288.4" class="cls-2"/><line y2="166.8" x2="288.4" y1="167.45" x1="288.4" class="cls-2"/><line y2="174.01" x2="208.49" y1="174.66" x1="208.49" class="cls-2"/><line y2="188.43" x2="208.49" y1="189.08" x1="208.49" class="cls-2"/><line y2="202.85" x2="208.49" y1="203.5" x1="208.49" class="cls-2"/><line y2="217.27" x2="208.49" y1="217.92" x1="208.49" class="cls-2"/><line y2="231.69" x2="208.49" y1="232.34" x1="208.49" class="cls-2"/><line y2="246.11" x2="208.49" y1="246.77" x1="208.49" class="cls-2"/><line y2="260.53" x2="208.49" y1="261.19" x1="208.49" class="cls-2"/><polyline points="208.49 275.7 208.49 275.61 208.49 274.95" class="cls-2"/><line y2="267.74" x2="208.49" y1="268.4" x1="208.49" class="cls-2"/><line y2="253.32" x2="208.49" y1="253.98" x1="208.49" class="cls-2"/><line y2="238.9" x2="208.49" y1="239.55" x1="208.49" class="cls-2"/><line y2="224.48" x2="208.49" y1="225.13" x1="208.49" class="cls-2"/><line y2="210.06" x2="208.49" y1="210.71" x1="208.49" class="cls-2"/><line y2="195.64" x2="208.49" y1="196.29" x1="208.49" class="cls-2"/><line y2="181.22" x2="208.49" y1="181.87" x1="208.49" class="cls-2"/><line y2="166.8" x2="208.49" y1="167.45" x1="208.49" class="cls-2"/><rect height="6.56" width="2.03" y="160.24" x="294.3" class="cls-2"/><rect height="6.56" width="91.71" y="160.24" x="202.59" class="cls-2"/><rect height="6.56" width="2.03" y="167.45" x="294.3" class="cls-2"/><rect height="6.56" width="91.71" y="167.45" x="202.59" class="cls-2"/><rect height="6.56" width="2.03" y="174.66" x="294.3" class="cls-2"/><rect height="6.56" width="91.71" y="174.66" x="202.59" class="cls-2"/><rect height="6.56" width="2.03" y="181.87" x="294.3" class="cls-2"/><rect height="6.56" width="91.71" y="181.87" x="202.59" class="cls-2"/><rect height="6.56" width="91.71" y="189.08" x="202.59" class="cls-2"/><rect height="6.56" width="2.03" y="196.29" x="294.3" class="cls-2"/><rect height="6.56" width="91.71" y="196.29" x="202.59" class="cls-2"/><rect height="6.56" width="2.03" y="203.5" x="294.3" class="cls-2"/><rect height="6.56" width="91.71" y="203.5" x="202.59" class="cls-2"/><rect height="6.56" width="2.03" y="210.71" x="294.3" class="cls-2"/><rect height="6.56" width="91.71" y="210.71" x="202.59" class="cls-2"/><rect height="6.56" width="2.03" y="217.92" x="294.3" class="cls-2"/><rect height="6.56" width="91.71" y="217.92" x="202.59" class="cls-2"/><rect height="6.56" width="2.03" y="225.13" x="294.3" class="cls-2"/><rect height="6.56" width="91.71" y="225.13" x="202.59" class="cls-2"/><rect height="6.56" width="2.03" y="232.34" x="294.3" class="cls-2"/><rect height="6.56" width="91.71" y="232.34" x="202.59" class="cls-2"/><rect height="6.56" width="2.03" y="239.55" x="294.3" class="cls-2"/><rect height="6.56" width="91.71" y="239.55" x="202.59" class="cls-2"/><rect height="6.55" width="2.03" y="246.77" x="294.3" class="cls-2"/><rect height="6.55" width="91.71" y="246.77" x="202.59" class="cls-2"/><rect height="6.55" width="2.03" y="253.98" x="294.3" class="cls-2"/><rect height="6.55" width="2.03" y="261.19" x="294.3" class="cls-2"/><rect height="6.55" width="91.71" y="261.19" x="202.59" class="cls-2"/><rect height="6.55" width="2.03" y="268.4" x="294.3" class="cls-2"/><rect height="6.55" width="91.71" y="268.4" x="202.59" class="cls-2"/><rect height="6.55" width="2.03" y="275.61" x="294.3" class="cls-2"/><rect height="6.55" width="91.71" y="275.61" x="202.59" class="cls-2"/><g id="LINE"><line y2="267.74" x2="294.3" y1="268.4" x1="294.3" class="cls-2"/><line y2="253.32" x2="294.3" y1="253.98" x1="294.3" class="cls-2"/><line y2="231.69" x2="294.3" y1="232.34" x1="294.3" class="cls-2"/><line y2="238.9" x2="294.3" y1="239.55" x1="294.3" class="cls-2"/><line y2="217.27" x2="294.3" y1="217.92" x1="294.3" class="cls-2"/><line y2="202.85" x2="294.3" y1="203.5" x1="294.3" class="cls-2"/><rect height="6.56" width="2.03" y="189.08" x="294.3" class="cls-2"/><line y2="188.43" x2="294.3" y1="189.08" x1="294.3" class="cls-2"/><line y2="174.01" x2="294.3" y1="174.66" x1="294.3" class="cls-2"/><line y2="166.8" x2="294.3" y1="167.45" x1="294.3" class="cls-2"/><line y2="181.22" x2="294.3" y1="181.87" x1="294.3" class="cls-2"/><line y2="195.64" x2="294.3" y1="196.29" x1="294.3" class="cls-2"/><line y2="210.06" x2="294.3" y1="210.71" x1="294.3" class="cls-2"/><line y2="224.48" x2="294.3" y1="225.13" x1="294.3" class="cls-2"/><line y2="246.11" x2="294.3" y1="246.77" x1="294.3" class="cls-2"/><rect height="6.55" width="91.71" y="253.98" x="202.59" class="cls-2"/><line y2="260.53" x2="294.3" y1="261.19" x1="294.3" class="cls-2"/><line y2="274.95" x2="294.3" y1="275.61" x1="294.3" class="cls-2"/></g><polygon points="160.07 160.24 160.07 166.87 158.11 166.87 158.11 161.55 152.22 161.55 152.22 166.87 97.47 166.87 97.47 161.55 91.58 161.55 91.58 166.87 36.83 166.87 36.83 161.55 30.94 161.55 30.94 166.87 28.98 166.87 28.98 160.24 160.07 160.24" class="cls-2"/><rect height="6.63" width="1.96" y="167.41" x="28.98" class="cls-2"/><rect height="6.63" width="54.75" y="167.41" x="36.83" class="cls-2"/><rect height="6.63" width="54.75" y="167.41" x="97.47" class="cls-2"/><rect height="6.63" width="1.96" y="167.41" x="158.11" class="cls-2"/><rect height="6.63" width="1.96" y="174.7" x="28.98" class="cls-2"/><rect height="6.63" width="54.75" y="174.7" x="36.83" class="cls-2"/><rect height="6.63" width="54.75" y="174.7" x="97.47" class="cls-2"/><rect height="6.63" width="1.96" y="174.7" x="158.11" class="cls-2"/><rect height="6.64" width="1.96" y="181.86" x="28.98" class="cls-2"/><rect height="6.64" width="54.75" y="181.86" x="36.83" class="cls-2"/><rect height="6.64" width="54.75" y="181.86" x="97.47" class="cls-2"/><rect height="6.64" width="1.96" y="181.86" x="158.11" class="cls-2"/><rect height="6.63" width="1.96" y="189.07" x="28.98" class="cls-2"/><rect height="6.63" width="54.75" y="189.07" x="36.83" class="cls-2"/><rect height="6.63" width="54.75" y="189.07" x="97.47" class="cls-2"/><rect height="6.63" width="1.96" y="189.07" x="158.11" class="cls-2"/><rect height="6.63" width="1.96" y="196.24" x="28.98" class="cls-2"/><rect height="6.63" width="54.75" y="196.24" x="36.83" class="cls-2"/><rect height="6.63" width="54.75" y="196.24" x="97.47" class="cls-2"/><rect height="6.63" width="1.96" y="196.24" x="158.11" class="cls-2"/><rect height="6.64" width="1.96" y="203.52" x="28.98" class="cls-2"/><rect height="6.64" width="54.75" y="203.52" x="36.83" class="cls-2"/><rect height="6.64" width="54.75" y="203.52" x="97.47" class="cls-2"/><rect height="6.64" width="1.96" y="203.52" x="158.11" class="cls-2"/><rect height="6.63" width="1.96" y="210.69" x="28.98" class="cls-2"/><rect height="6.63" width="54.75" y="210.69" x="36.83" class="cls-2"/><rect height="6.63" width="54.75" y="210.69" x="97.47" class="cls-2"/><rect height="6.63" width="1.96" y="210.69" x="158.11" class="cls-2"/><rect height="6.63" width="1.96" y="217.86" x="28.98" class="cls-2"/><rect height="6.63" width="54.75" y="217.86" x="36.83" class="cls-2"/><rect height="6.63" width="54.75" y="217.86" x="97.47" class="cls-2"/><rect height="6.63" width="1.96" y="217.86" x="158.11" class="cls-2"/><rect height="6.63" width="1.96" y="225.03" x="28.98" class="cls-2"/><rect height="6.63" width="54.75" y="225.03" x="36.83" class="cls-2"/><rect height="6.63" width="54.75" y="225.03" x="97.47" class="cls-2"/><rect height="6.63" width="1.96" y="225.03" x="158.11" class="cls-2"/><rect height="6.64" width="1.96" y="232.31" x="28.98" class="cls-2"/><rect height="6.64" width="54.75" y="232.31" x="36.83" class="cls-2"/><rect height="6.64" width="54.75" y="232.31" x="97.47" class="cls-2"/><rect height="6.64" width="1.96" y="232.31" x="158.11" class="cls-2"/><rect height="6.63" width="1.96" y="239.48" x="28.98" class="cls-2"/><rect height="6.63" width="54.75" y="239.48" x="36.83" class="cls-2"/><rect height="6.63" width="54.75" y="239.48" x="97.47" class="cls-2"/><rect height="6.63" width="1.96" y="239.48" x="158.11" class="cls-2"/><rect height="6.63" width="1.96" y="246.69" x="28.98" class="cls-2"/><rect height="6.63" width="54.75" y="246.69" x="36.83" class="cls-2"/><rect height="6.63" width="54.75" y="246.69" x="97.47" class="cls-2"/><rect height="6.63" width="1.96" y="246.69" x="158.11" class="cls-2"/><rect height="6.64" width="1.96" y="253.85" x="28.98" class="cls-2"/><rect height="6.64" width="54.75" y="253.85" x="36.83" class="cls-2"/><rect height="6.64" width="54.75" y="253.85" x="97.47" class="cls-2"/><rect height="6.64" width="1.96" y="253.85" x="158.11" class="cls-2"/><rect height="6.63" width="1.96" y="261.14" x="28.98" class="cls-2"/><rect height="6.63" width="54.75" y="261.14" x="36.83" class="cls-2"/><rect height="6.63" width="54.75" y="261.14" x="97.47" class="cls-2"/><rect height="6.63" width="1.96" y="261.14" x="158.11" class="cls-2"/><rect height="6.63" width="1.96" y="268.42" x="28.98" class="cls-2"/><rect height="6.63" width="54.75" y="268.42" x="36.83" class="cls-2"/><rect height="6.63" width="54.75" y="268.42" x="97.47" class="cls-2"/><rect height="6.63" width="1.96" y="268.42" x="158.11" class="cls-2"/><rect height="6.63" width="1.96" y="275.7" x="28.98" class="cls-2"/><rect height="6.63" width="54.75" y="275.7" x="36.83" class="cls-2"/><rect height="6.63" width="54.75" y="275.7" x="97.47" class="cls-2"/><rect height="6.63" width="1.96" y="275.7" x="158.11" class="cls-2"/><g id="LINE-2"><line y2="160.28" x2="30.94" y1="161.55" x1="30.94" class="cls-2"/></g><g id="LINE-3"><line y2="160.28" x2="158.11" y1="161.55" x1="158.11" class="cls-2"/></g><rect height="120.78" width="5.89" y="161.55" x="152.22" class="cls-2"/><rect height="120.78" width="5.89" y="161.55" x="30.94" class="cls-2"/><rect height="120.78" width="5.89" y="161.55" x="91.58" class="cls-2"/><rect height="1.96" width="131.1" y="23.98" x="28.98" class="cls-2"/><rect transform="translate(-41.85 101.78) rotate(-90)" height="1.97" width="91.74" y="70.83" x="-15.9" class="cls-2"/><rect transform="translate(87.28 230.91) rotate(-90)" height="1.97" width="91.74" y="70.83" x="113.23" class="cls-2"/><rect height="5.96" width="5.9" y="25.95" x="152.21" class="cls-2"/><rect height="5.96" width="5.9" y="25.95" x="30.95" class="cls-2"/><rect height="5.96" width="5.9" y="111.76" x="30.95" class="cls-2"/><rect height="5.96" width="5.9" y="25.98" x="91.58" class="cls-2"/><rect height="5.96" width="5.9" y="111.76" x="152.21" class="cls-2"/><g id="MTEXT"><path d="M4.77,234.36h5.29v.72h-4.54l.64,1.3h-.73l-.67-1.36v-.67Z"/><path d="M10,232.47c-.07.22-.17.4-.31.56-.13.15-.29.28-.47.36s-.38.13-.6.13c-.16,0-.31-.02-.45-.07-.15-.05-.28-.11-.4-.2-.12-.09-.22-.19-.3-.31s-.14-.25-.18-.4c-.05.14-.12.25-.2.36-.08.1-.17.19-.27.27s-.21.13-.33.17c-.12.04-.25.06-.38.06-.21,0-.39-.04-.56-.12-.17-.08-.32-.2-.44-.34-.13-.14-.22-.32-.29-.52-.07-.2-.1-.42-.1-.66s.03-.46.1-.66c.07-.2.17-.37.29-.52.12-.15.27-.26.44-.35.17-.08.36-.13.57-.13.13,0,.26.02.38.06.12.04.24.1.34.17.1.07.19.16.27.27.08.1.14.22.19.35.04-.15.1-.28.18-.4s.19-.22.31-.3c.12-.08.25-.15.4-.2.14-.05.29-.07.45-.07.21,0,.41.04.6.13.18.09.34.21.47.36.13.15.24.34.31.56.07.22.11.46.11.72s-.04.5-.11.72ZM5.44,232.11c.04.11.09.2.16.28.07.08.15.14.26.18s.21.07.33.07c.11,0,.22-.02.32-.07.1-.04.19-.11.26-.19.07-.08.13-.17.17-.28s.06-.23.06-.35-.02-.25-.06-.35c-.04-.1-.1-.2-.17-.28s-.16-.14-.26-.19c-.1-.04-.21-.07-.32-.07-.12,0-.23.02-.33.07-.1.04-.19.11-.26.19-.07.08-.12.17-.16.28-.04.11-.06.23-.06.36s.02.24.06.35ZM9.37,231.34c-.04-.13-.11-.23-.19-.32-.08-.09-.18-.16-.29-.21-.11-.05-.24-.08-.37-.08s-.26.03-.37.08c-.11.05-.21.12-.29.21-.08.09-.15.2-.2.33-.05.13-.07.26-.07.41s.02.28.07.41c.04.13.11.23.19.33s.18.16.3.21c.11.05.24.07.37.07.14,0,.27-.02.38-.07.11-.05.21-.12.29-.21.08-.09.14-.2.19-.33.04-.13.07-.26.07-.41s-.02-.29-.07-.41Z"/><path d="M4.91,226.56c.13-.25.32-.47.55-.65.23-.18.52-.32.85-.42.33-.1.69-.15,1.08-.15s.76.05,1.1.15.62.24.86.42c.24.18.43.4.56.65.13.25.2.52.2.83s-.07.57-.2.82-.32.47-.56.65c-.24.18-.53.32-.86.42-.33.1-.7.15-1.1.15s-.75-.05-1.08-.15c-.33-.1-.61-.24-.85-.42-.24-.18-.42-.4-.55-.65-.13-.25-.2-.53-.2-.83s.07-.58.2-.83ZM5.54,227.92c.1.16.23.29.41.41.18.11.38.2.63.27.24.07.51.1.81.1s.57-.03.82-.09c.25-.06.46-.15.64-.27.18-.12.32-.25.42-.41.1-.16.15-.33.15-.52s-.05-.37-.15-.53c-.1-.16-.24-.3-.42-.41-.18-.11-.39-.2-.64-.27-.25-.06-.52-.09-.82-.09s-.56.03-.81.09c-.25.06-.46.15-.63.26-.17.11-.31.25-.41.41-.1.16-.15.34-.15.53s.05.37.15.52Z"/><path d="M4.91,221.93c.13-.25.32-.47.55-.65.23-.18.52-.32.85-.42.33-.1.69-.15,1.08-.15s.76.05,1.1.15.62.24.86.42c.24.18.43.4.56.65.13.25.2.52.2.83s-.07.57-.2.82-.32.47-.56.65c-.24.18-.53.32-.86.42-.33.1-.7.15-1.1.15s-.75-.05-1.08-.15c-.33-.1-.61-.24-.85-.42-.24-.18-.42-.4-.55-.65-.13-.25-.2-.53-.2-.83s.07-.58.2-.83ZM5.54,223.28c.1.16.23.29.41.41.18.11.38.2.63.27.24.07.51.1.81.1s.57-.03.82-.09c.25-.06.46-.15.64-.27.18-.12.32-.25.42-.41.1-.16.15-.33.15-.52s-.05-.37-.15-.53c-.1-.16-.24-.3-.42-.41-.18-.11-.39-.2-.64-.27-.25-.06-.52-.09-.82-.09s-.56.03-.81.09c-.25.06-.46.15-.63.26-.17.11-.31.25-.41.41-.1.16-.15.34-.15.53s.05.37.15.52Z"/><path d="M6.41,217.1h.67c-.24-.11-.42-.26-.54-.45-.12-.18-.18-.4-.18-.63,0-.26.07-.48.2-.67.14-.19.33-.32.59-.41-.26-.11-.45-.27-.59-.46-.14-.2-.2-.43-.2-.7,0-.38.12-.67.37-.88.25-.21.61-.31,1.07-.31h2.25v.7h-2.16c-.29,0-.52.07-.69.2-.17.13-.25.31-.25.54,0,.12.02.22.07.32.05.1.11.18.2.26.09.07.19.13.32.16.12.04.26.06.4.06h2.11v.7h-2.16c-.14,0-.27.02-.38.06-.12.04-.22.09-.3.15-.08.06-.14.14-.19.23-.04.09-.07.2-.07.31s.02.22.07.32c.05.1.12.18.21.25.09.07.2.12.32.17.12.04.26.06.41.06h2.09v.7h-3.64v-.68Z"/><path d="M6.41,210.92h.67c-.24-.11-.42-.26-.54-.45-.12-.18-.18-.4-.18-.63,0-.26.07-.48.2-.67.14-.19.33-.32.59-.41-.26-.11-.45-.27-.59-.46-.14-.2-.2-.43-.2-.7,0-.38.12-.67.37-.88.25-.21.61-.31,1.07-.31h2.25v.7h-2.16c-.29,0-.52.07-.69.2-.17.13-.25.31-.25.54,0,.12.02.22.07.32.05.1.11.18.2.26.09.07.19.13.32.16.12.04.26.06.4.06h2.11v.7h-2.16c-.14,0-.27.02-.38.06-.12.04-.22.09-.3.15-.08.06-.14.14-.19.23-.04.09-.07.2-.07.31s.02.22.07.32c.05.1.12.18.21.25.09.07.2.12.32.17.12.04.26.06.41.06h2.09v.7h-3.64v-.68Z"/></g><line y2="160.41" x2="14.81" y1="282.16" x1="14.81" class="cls-2"/><rect height=".3" width="1.95" y="282.01" x="13.84" class="cls-3"/><rect height=".3" width="1.95" y="160.26" x="13.84" class="cls-3"/></g></g></svg>