<svg viewBox="0 0 531.26 288" xmlns:xlink="http://www.w3.org/1999/xlink" xmlns="http://www.w3.org/2000/svg" id="Golf"><defs><style>.cls-1{fill:#1d1d1b;}.cls-2{stroke-width:.3px;}.cls-2,.cls-3{stroke-linecap:round;stroke-linejoin:round;}.cls-2,.cls-3,.cls-4{fill:none;stroke:#000;}.cls-3,.cls-4{stroke-width:.3px;}.cls-4{stroke-miterlimit:10;}</style><symbol viewBox="0 0 135.29 37.45" id="Floema_.com"><path d="M21.3,0h4.42s0,27.85,0,27.85h-4.42S21.3,0,21.3,0Z" class="cls-1"/><path d="M48.8,18.26c0,5.46-4.53,9.92-10.18,9.92-5.64,0-10.18-4.46-10.18-9.92,0-5.46,4.53-9.92,10.18-9.92,5.6,0,10.18,4.46,10.18,9.92ZM32.91,18.26c0,3.24,2.54,5.83,5.71,5.83,3.17,0,5.71-2.58,5.71-5.83s-2.54-5.83-5.71-5.83c-3.17,0-5.71,2.58-5.71,5.83Z" class="cls-1"/><path d="M69.95,18.23c0,.48-.04.81-.07.96h-14.93c.37,2.95,2.69,4.9,6.05,4.9,2.36,0,4.2-1,4.98-2.65l3.8,1.47c-1.36,3.36-4.61,5.27-8.85,5.27-6.19,0-10.54-4.09-10.54-9.92,0-5.71,4.17-9.92,9.84-9.92,5.64,0,9.73,4.17,9.73,9.88ZM65.01,15.9c-.59-2.1-2.43-3.47-4.76-3.47-2.32,0-4.17,1.36-4.98,3.47h9.73Z" class="cls-1"/><path d="M77.13,8.68v.74c0,.63.18.88.66.88.37,0,.7-.18,1.18-.59,1.03-.92,2.25-1.36,3.8-1.36,1.81,0,3.21.59,4.31,1.81.48.55.85.74,1.36.74.44,0,.77-.15,1.25-.66,1.22-1.25,2.73-1.88,4.61-1.88,3.95,0,6.23,2.8,6.23,7.6v11.91s-4.42,0-4.42,0v-11.28c0-2.77-1.33-4.5-3.43-4.5-2.25,0-3.72,1.92-3.72,4.76v11.02s-4.42,0-4.42,0v-11.28c0-2.77-1.33-4.5-3.47-4.5-2.21,0-3.72,1.95-3.72,4.83v10.95s-4.42,0-4.42,0V8.68s4.2,0,4.2,0Z" class="cls-1"/><path d="M120.15,16.02v11.84s-4.17,0-4.17,0l.04-1.25c0-.63-.22-.92-.77-.92-.41,0-.74.18-1.25.7-1.22,1.22-2.69,1.81-4.53,1.81-3.58,0-5.97-2.14-5.97-5.31,0-3.28,2.54-5.49,7.23-6.27l5.12-.85c-.26-2.21-1.88-3.5-4.5-3.5-2.21,0-3.69.92-4.28,2.69l-3.91-1.22c1.03-3.36,4.09-5.38,8.15-5.38,5.12,0,8.85,3.21,8.85,7.67ZM111.64,20.03c-2.54.44-3.76,1.29-3.76,2.65,0,1.33,1.14,2.14,2.99,2.14,2.95,0,4.87-2.14,5.01-5.57l-4.24.77Z" class="cls-1"/><path d="M19.08.01H0s0,27.84,0,27.84h4.57V10.41c0-1.23,1.49-1.85,2.36-.98l7.35,7.35,2.9-2.9-7.29-7.29c-.87-.87-.25-2.36.98-2.36h8.21V.01Z" class="cls-1"/><path d="M135.29,22.39c0,3.26-2.61,5.79-5.96,5.79-3.35,0-5.96-2.53-5.96-5.79,0-3.26,2.61-5.77,5.96-5.77,3.36,0,5.96,2.53,5.96,5.77ZM124.6,22.39c0,2.63,2.06,4.67,4.72,4.67,2.66,0,4.7-2.04,4.7-4.67s-2.04-4.65-4.7-4.65c-2.66,0-4.72,2.01-4.72,4.65ZM130.57,22.81c-.2.07-.3.2-.3.4,0,.12.07.27.15.4l1.39,1.89h-1.49s-1.71-2.41-1.71-2.41v2.41s-1.32,0-1.32,0v-6.19s2.31,0,2.31,0c1.27,0,2.19.8,2.19,1.89,0,.77-.47,1.37-1.22,1.62Z" class="cls-1"/><path d="M95.35,35.97c.17.16.25.36.25.6,0,.13-.02.25-.07.35-.05.11-.11.2-.19.28-.08.08-.16.14-.26.18-.1.04-.21.07-.34.07-.14,0-.26-.02-.37-.07-.11-.04-.2-.1-.28-.18-.07-.08-.13-.17-.18-.27-.05-.1-.07-.22-.07-.35,0-.25.08-.45.25-.61s.38-.24.62-.24.47.08.64.23Z" class="cls-1"/><path d="M101.56,33.29c-.06-.18-.15-.34-.26-.48-.11-.14-.25-.27-.41-.37-.16-.1-.34-.18-.53-.23-.19-.05-.39-.08-.6-.08-.29,0-.56.05-.8.16-.25.1-.46.25-.64.43-.18.18-.32.41-.42.67-.1.26-.15.54-.15.83,0,.31.05.6.15.85.1.26.24.48.43.67.19.19.41.33.66.44.25.1.53.16.84.16.42,0,.78-.1,1.1-.3.32-.2.55-.48.7-.84l1.05.31c-.19.61-.54,1.08-1.05,1.43s-1.12.52-1.81.52c-.47,0-.91-.08-1.31-.24-.4-.16-.75-.38-1.04-.67-.3-.29-.53-.63-.7-1.02-.17-.4-.25-.83-.25-1.29s.08-.89.25-1.28.39-.73.67-1.01c.28-.28.62-.51,1.02-.67.4-.16.82-.24,1.28-.24.35,0,.68.05.99.14.31.09.59.22.84.4.25.17.47.38.65.61.18.24.32.5.4.8l-1.06.32Z" class="cls-1"/><path d="M107.98,31.28c.4.17.75.4,1.04.68s.53.63.7,1.02.26.81.26,1.26-.09.85-.26,1.24-.41.73-.71,1.02c-.3.29-.65.52-1.04.7-.4.17-.82.26-1.26.26s-.89-.08-1.29-.25c-.4-.17-.74-.4-1.04-.68-.3-.29-.54-.63-.71-1.02-.17-.39-.26-.81-.26-1.26s.09-.87.26-1.26c.17-.39.41-.73.71-1.02.3-.29.65-.52,1.04-.68.4-.17.82-.25,1.28-.25s.87.08,1.28.25ZM105.89,32.3c-.25.1-.47.25-.66.44-.19.19-.33.42-.44.67-.1.26-.16.53-.16.83s.05.56.16.82c.1.26.25.49.44.68.19.19.41.34.66.44.25.1.52.16.81.16s.55-.05.8-.16c.25-.11.47-.26.67-.45s.34-.41.44-.67.16-.53.16-.82-.05-.56-.16-.82c-.1-.26-.25-.48-.44-.68s-.41-.34-.67-.44c-.25-.1-.52-.16-.8-.16s-.56.05-.81.16Z" class="cls-1"/><path d="M112.43,31.12v.25c0,.11.02.19.05.23s.09.06.16.06c.03,0,.06,0,.09-.01.03,0,.06-.02.09-.03s.06-.03.1-.06.07-.06.11-.09c.18-.15.38-.26.59-.34.21-.07.44-.11.7-.11.29,0,.55.05.78.14.24.1.45.25.63.47.08.1.15.16.22.2.07.04.15.05.23.05.03,0,.07,0,.1-.01.04,0,.07-.02.1-.04.03-.02.06-.04.1-.07s.08-.07.12-.11c.2-.21.43-.37.68-.47.26-.11.54-.16.84-.16.64,0,1.14.22,1.49.65.36.43.53,1.04.53,1.82v3.86h-1.2v-3.7c0-.5-.11-.89-.34-1.17-.23-.29-.53-.43-.92-.43-.2,0-.38.04-.55.12-.17.08-.31.2-.44.35-.12.15-.22.33-.28.55-.06.21-.1.44-.1.69v3.61h-1.2v-3.7c0-.24-.03-.46-.1-.66-.06-.2-.15-.37-.26-.51-.11-.14-.24-.25-.4-.32s-.33-.11-.53-.11-.37.04-.55.12c-.17.08-.32.2-.43.35s-.21.34-.28.55c-.07.21-.1.45-.1.7v3.58h-1.2v-6.23h1.14Z" class="cls-1"/></symbol></defs><g id="Club_House"><g id="ecoponto_Palmer_x2_"><g id="LINE"><line y2="18.79" x2="167.86" y1="18.79" x1="31.36" class="cls-3"/><rect height="1.95" width=".3" y="17.82" x="31.21"/><rect height="1.95" width=".3" y="17.82" x="167.71"/></g><g id="MTEXT"><path d="M87.08,14.87l1.78-4.62h-2.69v-.67h3.5v.59l-1.77,4.7h-.83Z"/><path d="M91.18,14.74c-.24-.12-.44-.29-.61-.51-.17-.22-.3-.5-.39-.82s-.14-.69-.14-1.09.05-.8.15-1.15c.1-.35.24-.64.43-.89.18-.25.41-.43.67-.56.26-.13.55-.2.88-.2.37,0,.7.09.97.27.27.18.47.43.59.76l-.64.29c-.07-.21-.18-.37-.34-.48-.16-.11-.35-.17-.56-.17-.2,0-.38.05-.55.14s-.31.23-.44.4c-.13.17-.22.37-.29.61s-.1.49-.1.77v.17c0,.06,0,.1,0,.15.08-.25.23-.45.45-.59.22-.14.48-.21.79-.21.24,0,.46.04.65.12.2.08.36.19.5.34.14.15.25.32.33.52.08.2.12.42.12.66s-.04.47-.13.68c-.08.21-.2.38-.35.53-.15.14-.32.26-.53.34s-.43.12-.68.12c-.3,0-.57-.06-.81-.18ZM92.35,14.17c.12-.05.22-.12.3-.21.08-.09.15-.19.2-.31.05-.12.07-.26.07-.41s-.02-.29-.07-.41c-.05-.12-.12-.23-.2-.32s-.19-.16-.31-.21-.25-.07-.4-.07-.27.02-.39.07-.22.12-.31.2c-.09.09-.15.19-.2.31-.05.12-.07.25-.07.4s.03.28.08.41.12.24.21.34.2.17.32.22c.12.05.26.08.4.08s.26-.03.38-.08Z"/><path d="M97.15,9.72c.25.13.47.32.65.55.18.23.32.52.42.85.1.33.15.69.15,1.08s-.05.76-.15,1.1-.24.62-.42.86c-.18.24-.4.43-.65.56-.25.13-.52.2-.83.2s-.57-.07-.82-.2-.47-.32-.65-.56c-.18-.24-.32-.53-.42-.86-.1-.33-.15-.7-.15-1.1s.05-.75.15-1.08c.1-.33.24-.61.42-.85.18-.24.4-.42.65-.55.25-.13.53-.2.83-.2s.58.07.83.2ZM95.8,10.36c-.16.1-.29.23-.41.41-.11.18-.2.38-.27.63-.07.24-.1.51-.1.81s.03.57.09.82c.06.25.15.46.27.64.12.18.25.32.41.42.16.1.33.15.52.15s.37-.05.53-.15c.16-.1.3-.24.41-.42.11-.18.2-.39.27-.64.06-.25.09-.52.09-.82s-.03-.56-.09-.81c-.06-.25-.15-.46-.26-.63-.11-.17-.25-.31-.41-.41-.16-.1-.34-.15-.53-.15s-.37.05-.52.15Z"/><path d="M101.98,11.23v.67c.11-.24.26-.42.45-.54.18-.12.4-.18.63-.18.26,0,.48.07.67.2.19.14.32.33.41.59.11-.26.27-.45.46-.59.2-.14.43-.2.7-.2.38,0,.67.12.88.37.21.25.31.61.31,1.07v2.25h-.7v-2.16c0-.29-.07-.52-.2-.69-.13-.17-.31-.25-.54-.25-.12,0-.22.02-.32.07-.1.05-.18.11-.26.2-.07.09-.13.19-.16.32-.04.12-.06.26-.06.4v2.11h-.7v-2.16c0-.14-.02-.27-.06-.38-.04-.12-.09-.22-.15-.3-.06-.08-.14-.14-.23-.19-.09-.04-.2-.07-.31-.07s-.22.02-.32.07c-.1.05-.18.12-.25.21-.07.09-.12.2-.17.32-.04.12-.06.26-.06.41v2.09h-.7v-3.64h.68Z"/><path d="M108.16,11.23v.67c.11-.24.26-.42.45-.54.18-.12.4-.18.63-.18.26,0,.48.07.67.2.19.14.32.33.41.59.11-.26.27-.45.46-.59.2-.14.43-.2.7-.2.38,0,.67.12.88.37.21.25.31.61.31,1.07v2.25h-.7v-2.16c0-.29-.07-.52-.2-.69-.13-.17-.31-.25-.54-.25-.12,0-.22.02-.32.07-.1.05-.18.11-.26.2-.07.09-.13.19-.16.32-.04.12-.06.26-.06.4v2.11h-.7v-2.16c0-.14-.02-.27-.06-.38-.04-.12-.09-.22-.15-.3-.06-.08-.14-.14-.23-.19-.09-.04-.2-.07-.31-.07s-.22.02-.32.07c-.1.05-.18.12-.25.21-.07.09-.12.2-.17.32-.04.12-.06.26-.06.41v2.09h-.7v-3.64h.68Z"/></g><g id="LINE-2"><path d="M168.05,124.02v160.92h-5.39v-21.55c1.29-.39,2.24-1.6,2.24-3.02s-.95-2.63-2.24-3.02V124.02h5.39Z" class="cls-3"/></g><g id="LINE-3"><path d="M158.6,260.37c0,1.43.95,2.64,2.26,3.02v21.55h-5.39V124.02h5.39v133.33c-1.31.38-2.26,1.59-2.26,3.02Z" class="cls-3"/></g><line y2="284.94" x2="162.72" y1="284.94" x1="160.92" class="cls-3"/><g id="LINE-4"><rect height="160.92" width="5.39" y="124.02" x="38.44" class="cls-3"/></g><g id="LINE-5"><rect height="160.92" width="5.39" y="124.02" x="31.25" class="cls-3"/></g><rect height="146.97" width="53.28" y="124.02" x="45.56" class="cls-2"/><path d="M71.08,160.38s-.01-.02-.02-.02c0,0-.02-.01-.02-.02l-2.29-1s-.02,0-.03,0c0,0-.02,0-.02,0l-.84.09-.68-.84s-.02-.02-.03-.02c-.01,0-.02-.01-.03-.01,0,0-.02,0-.03,0,0,0-.02,0-.03,0l-2.29,1s-.03.02-.04.03c0,.01-.01.02-.02.04,0,0,0,.02,0,.03,0,0,0,.02,0,.02,0,.01.01.02.02.04l.67.82-.67.82s0,.01-.01.02c0,0,0,.02,0,.02,0,.01,0,.03,0,.04,0,0,0,.02,0,.02,0,0,0,.01.01.02,0,0,.02.02.03.02l2.29,1.02s.01,0,.02,0c0,0,.01,0,.02,0,.02,0,.03,0,.05-.01.01,0,.02-.02.03-.03l.64-.79.64.79s.01.01.02.02c0,0,.01,0,.02.01.01,0,.03,0,.04,0,0,0,.02,0,.02,0,0,0,.01,0,.02,0l2.29-1.02s.03-.02.04-.03c0-.01.01-.02.02-.04,0-.02,0-.03,0-.05,0-.01-.01-.02-.02-.04l-.6-.74.7-.07s.02,0,.04-.01c.01,0,.02-.01.03-.02,0,0,.01-.01.02-.02,0,0,0-.02,0-.03,0-.01,0-.02,0-.04,0-.01,0-.02-.01-.03ZM64.96,159.69l2.1-.92.59.73-2.11.91-.59-.72ZM67.07,162.3l-2.1-.93.59-.72,2.11.93-.59.73ZM65.77,160.53l1.95-.84v1.49s0,.03,0,.04c0,.01.02.02.03.03,0,0,.02.01.03.02.01,0,.02,0,.03,0,.02,0,.03,0,.04,0,.01,0,.02-.02.03-.03,0,0,.01-.02.02-.03,0-.01,0-.02,0-.03v-1.49l1.95.84-2.05.9-2.05-.9ZM70.66,161.37l-2.1.93-.59-.73,2.11-.93.59.72ZM70.12,160.43l-1.93-.84.49-.05,1.92.84-.48.05Z"/><path d="M70.21,161.91s-.02-.01-.03-.02c-.01,0-.02,0-.03,0-.01,0-.03,0-.04,0-.01,0-.02.02-.03.03,0,0-.01.02-.02.03,0,.01,0,.02,0,.03v.86l-2.14.91v-1.71s0-.03,0-.04c0-.01-.02-.02-.03-.03,0,0-.02-.01-.03-.02-.01,0-.02,0-.03,0-.01,0-.03,0-.04,0-.01,0-.02.02-.03.03,0,0-.01.02-.02.03,0,.01,0,.02,0,.03v1.71l-2.14-.91v-.86s0-.03,0-.04c0-.01-.02-.02-.03-.03,0,0-.02-.01-.03-.02-.01,0-.02,0-.03,0-.01,0-.03,0-.04,0-.01,0-.02.02-.03.03,0,0-.01.02-.02.03,0,.01,0,.02,0,.03v.92s0,.02,0,.03c0,.01,0,.02.02.03,0,0,.01.01.02.02,0,0,.01,0,.02.01l2.34,1s0,0,0,0c0,0,0,0,0,0,0,0,0,0,0,0,0,0,0,0,0,0,0,0,0,0,.01,0,0,0,0,0,.01,0h0s0,0,.01,0c0,0,0,0,.01,0,0,0,0,0,0,0,0,0,0,0,0,0,0,0,0,0,0,0,0,0,0,0,0,0l2.34-1s.02-.01.03-.02c0,0,.01-.02.02-.02,0,0,0-.02,0-.02,0,0,0-.02,0-.03v-.92s0-.03,0-.04c0-.01-.02-.02-.03-.03Z"/><path d="M77.88,160.26s0-.02-.01-.02c0,0-.02-.02-.03-.02l-3.33-1.51s-.03,0-.05,0c-.01,0-.02,0-.04,0l-2.81,1.27s-.02,0-.02.02c0,0-.01.01-.02.02,0,.01-.01.03-.01.04,0,0,0,.02,0,.03,0,0,0,.02.01.03,0,.01.02.02.03.03l3.91,2.62s.02.01.03.01c0,0,.02,0,.03,0,.02,0,.03,0,.04-.01.01,0,.02-.01.03-.02l2.24-2.38s.01-.01.02-.02c0,0,0-.02,0-.02,0-.01,0-.03,0-.04,0,0,0-.02,0-.02ZM75.54,162.56l-3.69-2.47,2.61-1.18,3.16,1.44-2.08,2.22Z"/><path d="M77.57,161.06s-.02-.02-.02-.02c-.01,0-.03-.01-.04-.02-.01,0-.03,0-.04,0-.01,0-.02,0-.03.01,0,0-.02.02-.02.02l-1.82,2.56-3.59-2.52.25-.24s.02-.02.02-.04c0-.01,0-.03,0-.04,0-.01,0-.02,0-.03,0-.01-.01-.02-.02-.03-.01,0-.02-.02-.04-.02-.01,0-.03,0-.04,0-.01,0-.02,0-.03,0-.01,0-.02.01-.03.02l-.33.32s-.02.03-.03.04c0,.01,0,.02,0,.04,0,.02,0,.03.02.05,0,.01.02.02.03.03l3.77,2.64s.02.01.03.01c0,0,.02,0,.03,0,0,0,0,0,0,0,0,0,0,0,0,0,.01,0,.03,0,.04-.02,0,0,.02-.02.02-.02l1.88-2.64s.01-.03.02-.04c0-.01,0-.03,0-.04,0-.01,0-.02-.01-.03Z"/><path d="M73.02,160.36s-.02.02-.02.04c0,.01,0,.02,0,.03,0,.01,0,.02,0,.03,0,0,.01.02.02.03,0,0,.02.01.02.02.01,0,.03,0,.05.01,0,0,.02,0,.03,0,0,0,.01,0,.02,0l1.79-.88s.03-.02.03-.03c0-.01.02-.02.02-.04,0-.01,0-.02,0-.03,0-.01,0-.02,0-.03,0-.01-.02-.02-.03-.03-.01,0-.02-.02-.04-.02-.01,0-.02,0-.03,0-.01,0-.02,0-.03,0l-1.79.88s-.03.02-.03.03Z"/><path d="M74.37,161.15s0,.03,0,.04c0,.01,0,.02,0,.03,0,.01.01.02.02.03,0,0,.01.01.02.02,0,0,.01,0,.02.01.01,0,.02,0,.04,0,.01,0,.03,0,.04,0,0,0,.02,0,.03-.02l1.5-1.22s.02-.02.03-.03c0-.01,0-.03,0-.04,0-.01,0-.02,0-.03,0-.01-.01-.02-.02-.03-.01-.01-.02-.02-.04-.03-.01,0-.03,0-.04,0-.01,0-.02,0-.03,0-.01,0-.02.01-.03.02l-1.5,1.22s-.02.02-.03.03Z"/><path d="M73.75,160.69s-.01.03-.01.04c0,.01,0,.02,0,.03,0,.01,0,.02.01.03,0,0,.01.02.02.02,0,0,.01.01.02.02.01,0,.03,0,.04,0,.01,0,.02,0,.03,0,0,0,.02,0,.02-.01l1.54-.95s.02-.02.03-.03c0-.01.01-.03.01-.04,0-.01,0-.02,0-.03,0-.01,0-.02-.01-.03,0-.01-.02-.02-.03-.03-.01,0-.03-.01-.04-.01-.01,0-.02,0-.03,0-.01,0-.02,0-.03.01l-1.54.95s-.02.02-.03.03Z"/><path d="M80.66,135.24c-2.96-.77-6.02-1.16-9.09-1.16s-6.13.39-9.09,1.16c-2.95.77-5.75,1.89-8.31,3.34-.37.21-.61.62-.61,1.05v14.71c0,.27.22.49.49.49h35.03c.27,0,.49-.22.49-.49v-14.71c0-.44-.23-.84-.61-1.05-2.56-1.45-5.35-2.58-8.31-3.34Z" class="cls-3"/><path d="M122.59,161.68s0,.03,0,.04c0,.01-.01.03-.02.04-.01.01-.03.03-.04.03-.02,0-.03,0-.05.01h-.74s-.07,0-.11.02c-.03.01-.06.03-.09.05-.03.03-.06.06-.08.1-.02.04-.02.09-.03.13,0,.04,0,.07.02.11.01.03.03.06.05.09.03.03.07.06.11.08.04.02.09.02.14.03.01,0,.03,0,.04,0,.01,0,.03.01.04.02.01.01.03.03.03.04,0,.02,0,.03.01.05,0,.01,0,.03,0,.04,0,.01-.01.03-.02.04-.01.01-.03.03-.04.03-.02,0-.03,0-.05.01-.04,0-.07,0-.11.02-.03.01-.06.03-.09.05-.03.03-.06.06-.08.1-.02.04-.02.09-.03.13,0,.04,0,.07.02.11.01.03.03.06.05.09.03.03.07.06.11.08.04.02.09.02.14.03h.41s.03,0,.04,0c.01,0,.03.01.04.02.01.01.03.03.03.04,0,.02.01.03.01.05,0,.01,0,.03,0,.04,0,.01-.01.03-.02.04-.01.01-.03.03-.04.03-.02,0-.04,0-.05.01h-.41c-.07,0-.13-.01-.19-.03-.06-.02-.11-.05-.16-.09-.06-.05-.12-.12-.15-.19-.03-.07-.04-.16-.05-.24,0-.07.02-.15.04-.22.02-.04.04-.08.07-.12.03-.04.06-.07.1-.1-.05-.05-.1-.1-.14-.16-.02-.04-.04-.08-.05-.13-.01-.05-.02-.09-.02-.14,0-.07.02-.15.04-.22.02-.04.04-.08.07-.12.03-.04.06-.07.1-.1-.05-.05-.1-.1-.14-.16-.02-.04-.04-.08-.05-.13-.01-.05-.02-.09-.02-.14,0-.06,0-.12.02-.18.01-.08.04-.16.07-.24.03-.09.08-.17.13-.25.06-.1.13-.19.2-.28.09-.11.19-.21.29-.31v-.38s0-.03,0-.04c0-.01.01-.03.02-.04.01-.01.03-.03.04-.03.02,0,.03,0,.05-.01.01,0,.03,0,.04,0,.01,0,.03.01.04.02.01.01.03.03.03.04,0,.02,0,.03.01.05v.44s0,.03,0,.04c0,.02-.02.03-.03.05-.08.08-.16.15-.23.23-.06.07-.12.14-.17.21-.04.06-.08.12-.12.19-.04.07-.07.14-.09.21-.02.05-.03.11-.04.16,0,.04,0,.07-.01.11,0,.04,0,.07.02.11.01.03.03.06.05.09.03.03.07.06.11.08.04.02.09.02.14.03h.74s.03,0,.04,0c.01,0,.03.01.04.02.01.01.03.03.03.04,0,.02,0,.03.01.05Z"/><path d="M132.21,159.79s-.02-.08-.04-.11c-.02-.04-.04-.07-.07-.11-.01-.02-.03-.04-.05-.06-.01-.02-.03-.03-.04-.05,0-.02-.02-.04-.02-.06,0-.02,0-.04,0-.06,0-.03,0-.06,0-.1,0-.06,0-.13,0-.19-.01-.06-.04-.11-.08-.16-.03-.04-.07-.07-.11-.1-.05-.03-.1-.05-.16-.08,0,0,0,0,0,0,0,0,0,0,0,0-.01-.05-.03-.09-.06-.13-.01-.02-.03-.04-.04-.05-.02-.02-.04-.03-.06-.04-.02,0-.04-.01-.06-.02-.02,0-.04,0-.07,0-.04,0-.08.02-.11.03-.02,0-.04.01-.06.02-.02,0-.05,0-.07,0-.04,0-.08,0-.12,0-.05,0-.1,0-.15,0-.05,0-.11.01-.16.03-.03,0-.05.02-.07.04-.02.01-.05.03-.06.05-.02.02-.04.05-.05.08-.01.03-.02.07-.03.1,0,0,0,.02,0,.03,0,0,0,.02,0,.02,0,0,0,.01-.01.02,0,0,0,0-.01.01,0,0-.02,0-.03.01-.02,0-.03,0-.05,0-.03,0-.06,0-.1.02-.04.01-.07.03-.1.06-.02.02-.03.04-.04.06-.01.03-.02.05-.03.08,0,.04-.01.07-.01.11,0,.02,0,.03,0,.05,0,.01,0,.02-.01.03,0,.01-.01.02-.02.03-.02.02-.05.04-.09.05-.03.02-.07.04-.1.06-.04.03-.07.06-.09.09-.02.03-.04.07-.05.11-.01.05-.02.1-.02.15,0,.03,0,.06,0,.09,0,.02-.02.05-.03.07-.02.03-.05.06-.07.09-.03.03-.06.06-.08.1-.03.04-.05.09-.07.13s-.03.1-.03.15c0,.07,0,.13,0,.2,0,.06,0,.12,0,.17,0,.05-.02.1-.03.14-.02.06-.05.12-.09.17-.02.03-.03.06-.05.09-.02.03-.03.07-.03.11,0,.02,0,.04,0,.06,0,.02,0,.04.02.06,0,.02.02.04.04.05.02.02.04.04.06.05.01.01.03.02.04.04.01.02.02.03.02.05,0,.04,0,.08,0,.12,0,.04-.02.07-.03.11,0,0,0,.02-.01.03h0s0,0,0,0c0,.02-.01.04-.01.05,0,.02,0,.03.01.05,0,.01.01.02.02.03.01.01.02.02.04.02.02,0,.04.01.05.01s.04,0,.05-.01c.01,0,.02-.01.03-.02.01-.01.02-.02.03-.03.02-.06.04-.11.06-.17.01-.07.02-.13.01-.2,0-.05-.02-.11-.05-.15-.03-.05-.07-.09-.12-.13,0,0,0,0,0,0,0,0,0,0,0,0,0-.02.01-.03.02-.05,0-.02.02-.03.02-.04.02-.04.05-.08.07-.13.02-.05.05-.11.06-.17.01-.05.02-.11.03-.16,0-.06,0-.13,0-.19,0-.04,0-.07,0-.11,0-.03,0-.06,0-.08,0-.02.01-.04.02-.06.02-.04.05-.08.09-.11.02-.03.05-.05.07-.08.02-.03.05-.06.06-.1.02-.03.03-.07.03-.1,0-.04.01-.09.01-.13,0-.02,0-.04,0-.06,0-.02,0-.03.01-.05,0-.01.01-.02.02-.03.03-.03.06-.04.09-.06.03-.02.06-.03.09-.05.03-.02.06-.05.09-.09.02-.03.04-.06.05-.1.01-.04.02-.09.02-.14,0-.02,0-.03,0-.04,0,0,0-.01,0-.02,0,0,0,0,0,0,0,0,0,0,0,0,0,0,0,0,0,0,0,0,.01,0,.02,0,.01,0,.02,0,.03,0,.03,0,.06,0,.1-.02.04-.01.07-.03.11-.05.02-.01.04-.03.05-.05.02-.02.03-.05.04-.07.01-.03.02-.06.03-.1,0-.01,0-.02,0-.03,0,0,0-.02.01-.02,0,0,.01-.01.02-.02,0,0,.02-.01.03-.01.03,0,.05-.01.08-.01.05,0,.09,0,.13,0,.07,0,.14,0,.21,0,.05,0,.11-.02.16-.04,0,0,.01,0,.02,0,0,0,0,0,.01,0,0,.01.01.02.01.03,0,0,0,.02,0,.03.01.03.02.06.04.09,0,.01.02.02.03.03.01,0,.02.02.04.03,0,0,.02,0,.02.01,0,0,.02,0,.03,0,.04.01.07.03.11.05.03.02.05.04.07.06,0,.01.02.03.02.04,0,.02,0,.03.01.05,0,.02,0,.04,0,.06,0,.06-.01.12,0,.18,0,.04,0,.09.02.12.02.05.05.1.09.14.02.02.03.04.05.07.01.02.03.05.04.07,0,.02.01.04.02.06,0,.02,0,.05-.01.07-.01.05-.03.1-.06.14-.03.07-.07.15-.08.23-.01.07-.02.14-.02.21v.02c0,.06.02.13.01.19,0,.04,0,.09-.02.13-.01.03-.03.06-.05.09-.03.04-.06.07-.09.1-.04.05-.07.09-.1.15-.02.05-.04.11-.05.17-.01.09-.01.18-.02.27,0,.04,0,.08,0,.12,0,.02,0,.05,0,.07-.04.03-.07.05-.11.08-.04.04-.08.09-.12.13-.07.09-.14.19-.21.28-.02.03-.04.06-.07.1-.01.02-.02.03-.04.05-.02.02-.04.04-.07.05-.05.04-.11.06-.17.08-.07.02-.14.04-.22.05-.1.01-.2.01-.3.01h-.02s0,0-.01,0c-.06-.06-.11-.12-.18-.17-.07-.06-.16-.1-.25-.15-.1-.05-.2-.09-.31-.12-.12-.04-.23-.07-.35-.1-.2-.05-.41-.08-.62-.1-.22-.02-.44-.03-.65-.03-.2,0-.4.01-.6.03-.19.02-.38.04-.57.08-.17.03-.34.08-.51.13-.11.04-.22.08-.32.13-.09.05-.17.1-.25.16-.06.05-.12.12-.16.19-.03.07-.04.14-.06.22v1.65c.01.08.02.15.06.22.04.07.1.14.16.19.08.06.16.12.25.16.1.05.21.1.32.13.17.06.34.1.51.13.19.04.38.07.57.08.2.02.4.02.6.03.2,0,.4-.01.6-.03.19-.02.38-.04.57-.08.17-.03.34-.08.51-.13.11-.04.22-.08.32-.13.09-.05.17-.1.25-.16.06-.05.12-.12.16-.19.03-.07.04-.14.06-.22v-1.65s0-.02,0-.02c0,0,0-.01,0-.02,0,0,0,0,.01,0h0c.09,0,.18,0,.27-.02.07-.01.15-.03.22-.05.06-.02.11-.04.16-.07.04-.02.09-.05.13-.08.02-.02.04-.03.06-.05.02-.02.04-.05.06-.07.03-.03.05-.07.07-.1.03-.04.06-.08.09-.13.04-.05.07-.1.11-.15.03-.04.06-.07.09-.11,0,0,.02-.02.03-.03,0,0,.02-.01.02-.02.03-.02.07-.04.09-.07.02-.03.03-.07.04-.11.01-.07.01-.14.01-.22,0-.09,0-.17.02-.25,0-.03.01-.06.03-.09.01-.02.03-.04.04-.07.04-.04.08-.08.12-.13.03-.04.05-.08.07-.12.02-.04.03-.08.03-.12,0-.05,0-.1,0-.15,0-.06,0-.12-.01-.18v-.02c0-.06,0-.12.02-.18.01-.05.04-.09.06-.14.02-.04.04-.08.05-.12.02-.04.03-.09.03-.13,0-.04,0-.07,0-.11ZM125.61,162.83s.03-.06.05-.08c.03-.03.06-.06.09-.08.06-.05.13-.08.19-.12.08-.04.17-.08.26-.11.14-.05.29-.09.44-.12.18-.04.36-.06.54-.08.2-.02.41-.02.62-.03.18,0,.35,0,.52.02.16.01.31.03.47.06.14.02.27.05.4.09.13.04.26.08.38.13.1.04.19.09.27.15.03.02.05.04.08.07.02.02.04.04.05.07.01.02.02.05.03.07,0,.02,0,.05,0,.07,0,.03-.02.07-.04.09-.02.04-.05.07-.08.09-.04.03-.08.06-.13.09-.07.04-.14.08-.21.11-.09.04-.18.07-.27.1-.11.03-.22.06-.32.08-.12.03-.25.04-.37.06-.14.02-.28.03-.41.04-.13,0-.26.01-.4.01-.05,0-.11,0-.16,0-.05,0-.1,0-.16,0-.15,0-.31-.02-.46-.04-.14-.02-.27-.04-.41-.07.06-.01.12-.03.18-.04.06-.01.12-.02.19-.03.06,0,.13-.02.19-.02.07,0,.13-.01.2-.02.07,0,.14,0,.2-.01.07,0,.14,0,.21,0h.11c.14,0,.27,0,.41.02.02,0,.04,0,.05,0,.02,0,.03-.02.04-.03,0-.01.02-.02.02-.03,0-.01,0-.03.01-.04,0-.02,0-.04,0-.05,0-.02-.02-.03-.03-.04-.01-.01-.02-.02-.03-.02-.01,0-.03,0-.04-.01-.1,0-.2-.01-.3-.01-.02,0-.04,0-.06,0-.02,0-.04,0-.06,0-.02,0-.04,0-.06,0-.07,0-.15,0-.22,0-.17,0-.34.02-.52.04-.16.02-.32.04-.48.08-.14.03-.28.07-.43.11,0,0,0,0-.01,0,0,0,0,0,0,0-.08-.03-.16-.06-.23-.1-.06-.03-.12-.07-.17-.11-.02-.01-.04-.03-.05-.05-.01-.02-.03-.03-.04-.05-.01-.02-.02-.03-.03-.05,0-.02-.01-.03-.02-.05,0-.02,0-.03,0-.05,0-.03,0-.06.02-.08ZM130.02,164.56s0,.06-.02.08c-.01.03-.03.06-.05.08-.03.03-.06.06-.09.08-.06.05-.13.08-.19.12-.08.04-.17.08-.26.11-.14.05-.29.09-.44.12-.18.04-.36.06-.54.08-.21.02-.41.02-.62.03-.21,0-.41-.01-.62-.03-.18-.02-.36-.04-.54-.08-.15-.03-.3-.07-.44-.12-.09-.03-.18-.07-.26-.11-.07-.03-.13-.07-.19-.12-.03-.03-.06-.05-.09-.08-.02-.03-.04-.05-.05-.08-.01-.03-.01-.06-.02-.08v-1.22c.09.06.19.12.29.17.12.06.24.1.37.14.14.04.28.08.43.1.18.04.37.06.55.08.19.02.38.02.58.03.16,0,.33,0,.49-.02.16-.01.32-.03.48-.05.15-.02.3-.05.45-.09.11-.03.21-.06.31-.1.09-.03.18-.07.27-.12.08-.04.15-.09.22-.14v1.22Z"/><path d="M123.45,158.48c-.02-.05-.06-.1-.11-.14-.04-.03-.08-.05-.12-.07-.05-.01-.09-.02-.14-.02h-.84c-.06,0-.12.02-.18.04-.05.02-.1.06-.14.11-.03.04-.06.08-.07.12-.02.04-.02.09-.03.14v.56s0,.04.01.05c0,.02.02.03.03.04.01,0,.02.02.04.02s.03,0,.04,0h1.42s.04,0,.05-.01c.02,0,.03-.02.04-.03,0-.01.02-.02.02-.04,0-.01,0-.03,0-.04v-.56c0-.06-.02-.12-.04-.17ZM123.24,159.09h-1.17v-.44s0-.05.02-.07c0-.02.03-.04.04-.05.01-.01.03-.02.05-.03.02,0,.04,0,.06-.01h.84s.05,0,.07.02c.02,0,.04.02.06.04.01.01.02.03.03.05,0,.02,0,.04.01.06v.44Z"/><path d="M124.07,163.66v1.64s0,0,0,.01c0,0,0,0,0,.01,0,.03-.02.07-.03.1-.02.03-.04.06-.06.09-.03.03-.06.05-.09.08-.08.05-.16.08-.25.1-.11.02-.21.03-.32.04-.04,0-.08,0-.12,0-.05,0-.1-.01-.15-.02-.01,0-.03,0-.04-.02-.01,0-.02-.02-.03-.03-.01-.01-.02-.03-.02-.05,0-.02,0-.04,0-.05,0-.01,0-.03.02-.04,0-.01.02-.02.03-.03.01-.01.03-.02.05-.02.02,0,.04,0,.05,0,.03,0,.06.01.1.01.04,0,.09,0,.13,0,.07,0,.14,0,.22-.02.06-.01.11-.03.16-.05.04-.02.07-.03.1-.06,0,0,.01-.01.02-.02,0,0,0,0,.01-.02,0,0,0,0,0-.01,0,0,0,0,0-.01,0,0,0,0,0-.01s0,0,0-.01c0,0,0-.01-.01-.01,0,0-.01-.01-.02-.02-.03-.03-.07-.04-.1-.06-.05-.02-.11-.04-.16-.05-.07-.01-.14-.02-.22-.02-.05,0-.1,0-.14.02-.05.01-.09.03-.13.05-.05.03-.1.06-.15.1-.05.04-.1.08-.15.12-.09.07-.18.14-.28.2-.07.04-.14.07-.21.1-.08.02-.16.03-.25.04-.09,0-.17,0-.26-.02-.07-.01-.15-.03-.22-.07-.05-.02-.1-.05-.14-.08-.04-.03-.07-.06-.1-.1-.02-.04-.03-.08-.04-.12,0,0,0,0,0-.01,0,0,0,0,0-.01v-1.64s0-.03,0-.04c0-.01.01-.02.02-.04.01-.01.03-.03.04-.03.02,0,.03,0,.05-.01.01,0,.03,0,.04,0,.01,0,.03.01.04.02.01.01.03.03.03.04,0,.02,0,.03.01.05v1.64s0,0,0,.01c0,0,0,0,0,.01,0,0,0,.01.01.02,0,0,.01.01.02.02.03.03.06.04.1.06.05.02.11.04.16.05.07.01.14.02.21.02.05,0,.1,0,.14-.02.05-.01.09-.03.13-.05.05-.03.1-.06.15-.09.05-.04.1-.08.15-.12.09-.07.18-.14.28-.2.07-.04.14-.07.21-.1.08-.02.16-.03.25-.04.09,0,.17,0,.25.02.09.02.18.05.26.09v-1.31s0-.03,0-.04c0-.01.01-.02.02-.04.01-.01.03-.03.04-.03.02,0,.03,0,.05-.01.01,0,.03,0,.04,0,.01,0,.03.01.04.02.01.01.03.03.03.04,0,.02,0,.03.01.05Z"/><path d="M123.94,162.54c.05.05.1.1.14.16.02.04.04.08.05.13.01.05.01.09.02.14,0,.07-.01.13-.03.19-.02.06-.05.11-.09.16-.05.06-.12.11-.19.15-.07.03-.16.04-.24.05-.01,0-.03,0-.04,0-.01,0-.03-.01-.04-.02-.01-.01-.03-.03-.03-.04,0-.02,0-.03-.01-.05,0-.01,0-.03,0-.04,0-.01.01-.03.02-.04.01-.01.03-.03.04-.03.02,0,.03,0,.05-.01.04,0,.07,0,.11-.02.03-.01.06-.03.09-.05.03-.03.06-.06.08-.1.02-.04.02-.09.03-.13,0-.04,0-.07-.02-.11-.01-.03-.03-.06-.05-.09-.03-.03-.07-.06-.11-.08-.04-.02-.09-.02-.14-.03h-.77s-.03,0-.04,0c-.01,0-.03-.01-.04-.02-.01-.01-.03-.03-.03-.04,0-.02,0-.03-.01-.05,0-.01,0-.03,0-.04s.01-.03.02-.04c.01-.01.03-.03.04-.03.02,0,.03,0,.05-.01h.77s.07,0,.11-.02c.03-.01.06-.03.09-.05.03-.03.06-.06.08-.1.02-.04.02-.09.03-.13,0-.04,0-.07-.02-.11-.01-.03-.03-.06-.05-.09-.03-.03-.07-.06-.11-.08-.04-.02-.09-.02-.14-.03-.01,0-.03,0-.04,0s-.03-.01-.04-.02c-.01-.01-.03-.03-.03-.04,0-.02,0-.03-.01-.05,0-.01,0-.03,0-.04,0-.01.01-.02.02-.04.01-.01.03-.03.04-.03.02,0,.03-.01.05-.01.04,0,.07,0,.11-.02.03-.01.06-.03.09-.05.03-.03.06-.06.08-.1.02-.04.02-.09.03-.13,0-.05,0-.09-.01-.14-.01-.07-.04-.14-.06-.21-.03-.08-.07-.15-.12-.22-.06-.09-.12-.18-.19-.26-.09-.1-.19-.2-.29-.3-.01-.01-.02-.02-.03-.04,0-.02-.01-.04-.01-.05v-.44s0-.03,0-.04c0-.01.01-.03.02-.04.01-.01.03-.03.04-.03.02,0,.03,0,.05-.01.01,0,.03,0,.04,0,.01,0,.03.01.04.02.01.01.03.03.03.04,0,.02,0,.03.01.05v.38c.08.08.16.16.24.25.06.07.12.15.18.23.05.07.09.14.13.21.04.08.07.15.1.23.02.06.04.13.05.19,0,.05,0,.1.01.15,0,.07-.02.15-.04.22-.02.04-.04.08-.07.12-.03.04-.06.07-.1.1.05.05.1.1.14.16.02.04.04.08.05.13.01.05.01.09.02.14,0,.07-.02.15-.04.22-.02.04-.04.08-.07.12-.03.04-.06.07-.1.1Z"/><path d="M131.29,160.18c0,.07-.01.15-.02.22,0,.05-.02.11-.03.16,0,.01,0,.03-.02.04s-.02.02-.03.03c-.01.01-.03.02-.05.02-.02,0-.04,0-.05,0-.01,0-.03,0-.04-.02-.01,0-.02-.02-.03-.03-.01-.01-.02-.03-.02-.05,0-.02,0-.04,0-.05.02-.09.03-.18.04-.26,0-.07.01-.14.01-.22,0-.06,0-.11,0-.17,0-.06-.01-.11-.03-.16,0-.01-.01-.03-.02-.04,0,0,0,0,0-.01,0,0,0,0,0,0,0,0,0,0,0,0,0,0,0,0-.01,0,0,0,0,0-.01,0,0,0-.01,0-.02,0-.02.01-.04.03-.06.04-.03.02-.05.05-.07.08-.03.04-.06.07-.08.11-.04.07-.08.14-.12.21-.05.09-.09.18-.12.27-.04.11-.08.22-.12.34-.04.14-.07.28-.1.42-.02.08-.03.16-.03.25,0,.07,0,.15,0,.22,0,.05,0,.1.01.14,0,.03.01.07.02.1,0,.02.02.04.03.06,0,0,0,.01.01.02,0,0,0,0,0,0,0,0,0,0,0,0,0,0,0,0,0,0,0,0,0,0,0,0,0,0,0,0,.01,0,.01,0,.03-.01.04-.02.04-.03.07-.06.1-.1.05-.06.09-.12.13-.19.06-.09.1-.19.15-.29,0-.01.01-.02.02-.04,0-.01.02-.02.03-.02.02,0,.03-.01.05-.01.02,0,.04,0,.05.01.01,0,.03.01.04.02.01,0,.02.02.02.03,0,.02.01.03.01.05,0,.02,0,.04-.01.05-.03.07-.07.15-.11.22-.05.09-.1.17-.15.25-.04.05-.08.1-.12.14-.04.04-.09.08-.14.1-.05.02-.1.04-.15.04h-.01s-.01,0-.02,0c-.01,0-.03,0-.04,0-.02,0-.04-.01-.05-.02-.02,0-.04-.02-.05-.04-.02-.02-.03-.04-.05-.06-.02-.03-.04-.07-.05-.1-.02-.05-.03-.1-.04-.15-.01-.07-.01-.13-.02-.2,0-.13,0-.26.03-.39.02-.19.07-.38.12-.57.03-.11.07-.22.11-.33.04-.1.09-.21.14-.31.05-.09.1-.18.15-.27.04-.06.08-.11.13-.16.04-.04.08-.08.13-.11.04-.03.09-.05.13-.06.04,0,.09,0,.13,0,.04.02.09.04.12.07.03.03.06.08.08.12.02.05.04.1.05.16.01.06.02.12.02.18,0,.08,0,.16,0,.24Z"/><path d="M129.95,163.91s0,.03-.02.05c-.01.02-.02.03-.04.04-.11.06-.22.11-.34.16-.14.05-.28.09-.42.12-.16.04-.32.07-.48.09-.18.02-.35.04-.53.05-.08,0-.17,0-.25,0h-.11s-.05,0-.07,0c-.02,0-.05,0-.07,0-.02,0-.05,0-.07,0-.14,0-.29-.02-.43-.03-.01,0-.03,0-.04-.01-.01,0-.02-.01-.03-.02-.01-.01-.02-.03-.03-.04,0-.02,0-.04,0-.05,0-.01,0-.03.01-.04,0-.01.01-.02.02-.03.01-.01.03-.02.05-.03.02,0,.04,0,.05,0,.2.02.39.03.59.03.02,0,.04,0,.07,0,.07,0,.13,0,.2,0,.08,0,.15,0,.23-.01.08,0,.15-.01.23-.02.07,0,.15-.02.22-.03.14-.02.29-.05.43-.08.13-.03.25-.06.37-.11.1-.04.2-.09.29-.14.01,0,.03-.01.04-.02.01,0,.03,0,.04,0,.02,0,.04,0,.05.02.01.01.03.02.04.04,0,.01.01.03.02.04,0,.01,0,.03,0,.04Z"/><path d="M126.49,164.15s-.02.04-.03.05c-.01.01-.03.02-.05.03-.01,0-.03,0-.04,0,0,0,0,0,0,0,0,0,0,0,0,0,0,0-.01,0-.02,0-.09-.03-.17-.05-.26-.08-.09-.04-.18-.08-.28-.12-.01,0-.02-.02-.03-.03,0,0-.02-.02-.02-.03,0-.02-.01-.03,0-.05,0-.02,0-.03.01-.05,0-.01.02-.02.03-.03,0,0,.02-.02.04-.02.02,0,.03-.01.05,0,.02,0,.04,0,.05.01.06.03.13.06.19.09.09.04.19.07.29.1.01,0,.03.01.04.02.01,0,.02.02.03.03.01.01.02.03.02.05,0,.02,0,.04,0,.05Z"/><path d="M136.19,135.24c-2.96-.77-6.02-1.16-9.09-1.16s-6.13.39-9.09,1.16c-2.95.77-5.75,1.89-8.31,3.34-.37.21-.61.62-.61,1.05v14.71c0,.27.22.49.49.49h35.03c.27,0,.49-.22.49-.49v-14.71c0-.44-.23-.84-.61-1.05-2.56-1.45-5.35-2.58-8.31-3.34Z" class="cls-3"/><ellipse ry="1.87" rx="1.89" cy="177.23" cx="92.87" class="cls-3"/><ellipse ry="1.87" rx="1.89" cy="177.23" cx="148.44" class="cls-3"/><line y2="284.94" x2="38.44" y1="284.94" x1="36.64" class="cls-3"/><line y2="271" x2="155.38" y1="271" x1="43.87" class="cls-3"/><path d="M92.86,174.29c.07,0,.13-.06.13-.13v-37.01s-.02-.09-.06-.11c-6.08-4.1-13.67-6.35-21.37-6.35s-15.29,2.26-21.37,6.36c-.04.02-.06.07-.06.11v126.38c0,.07.06.13.13.13h7.09s0,0,0,0,0,0,0,0h7.09s0,0,0,0,0,0,0,0h7.09s0,0,0,0,0,0,0,0h7.09s0,0,0,0,0,0,0,0h7.09s0,0,0,0,0,0,0,0h7.14c.07,0,.13-.06.13-.13v-83.08c0-.07-.06-.13-.13-.13s-.13.06-.13.13v82.95h-6.87v-105.29c0-.07-.06-.13-.13-.13s-.13.06-.13.13v105.29h-6.82v-96.9c0-.07-.06-.13-.13-.13s-.13.06-.13.13v96.9h-6.82v-96.9c0-.07-.06-.13-.13-.13s-.13.06-.13.13v96.9h-6.82v-96.9c0-.07-.06-.13-.13-.13s-.13.06-.13.13v96.9h-6.82v-105.29c0-.07-.06-.13-.13-.13s-.13.06-.13.13v105.29h-6.82v-126.18c6.02-4.04,13.53-6.27,21.16-6.27s15.14,2.23,21.16,6.27v36.93c0,.07.06.13.13.13Z"/><path d="M148.39,174.29c.07,0,.13-.06.13-.13v-37.01s-.02-.09-.06-.11c-6.08-4.1-13.67-6.35-21.37-6.35s-15.29,2.26-21.37,6.36c-.04.02-.06.07-.06.11v126.38c0,.07.06.13.13.13h7.09s0,0,0,0,0,0,0,0h7.09s0,0,0,0,0,0,0,0h7.09s0,0,0,0,0,0,0,0h7.09s0,0,0,0,0,0,0,0h7.09s0,0,0,0,0,0,0,0h7.14c.07,0,.13-.06.13-.13v-83.08c0-.07-.06-.13-.13-.13s-.13.06-.13.13v82.95h-6.87v-105.29c0-.07-.06-.13-.13-.13s-.13.06-.13.13v105.29h-6.82v-96.9c0-.07-.06-.13-.13-.13s-.13.06-.13.13v96.9h-6.82v-96.9c0-.07-.06-.13-.13-.13s-.13.06-.13.13v96.9h-6.82v-96.9c0-.07-.06-.13-.13-.13s-.13.06-.13.13v96.9h-6.82v-105.29c0-.07-.06-.13-.13-.13s-.13.06-.13.13v105.29h-6.82v-126.18c6.02-4.04,13.53-6.27,21.16-6.27s15.14,2.23,21.16,6.27v36.93c0,.07.06.13.13.13Z"/><rect height="146.97" width="53.28" y="124.02" x="100.41" class="cls-2"/><g id="LINE-6"><rect height="1.08" width="136.8" y="122.94" x="31.25" class="cls-4"/></g><path d="M164.9,260.37c0,1.42-.95,2.63-2.24,3.02-.29.08-.59.13-.91.13s-.61-.04-.89-.13c-1.31-.38-2.26-1.59-2.26-3.02s.95-2.64,2.26-3.02c.28-.09.58-.13.89-.13s.62.05.91.13c1.29.39,2.24,1.6,2.24,3.02Z" class="cls-3"/><use xlink:href="#Floema_.com" transform="translate(159.48 259.84) scale(.04)" height="37.45" width="135.29"/><rect ry=".9" rx=".9" height="81" width="136.8" y="28.69" x="31.25" class="cls-3"/><rect height="1.08" width="81" y="122.95" x="236.75" class="cls-3"/><line y2="270.64" x2="305.16" y1="270.64" x1="249.38" class="cls-3"/><path d="M317.75,124.02v160.92h-5.4v-22.16c1.41-.32,2.46-1.58,2.46-3.08s-1.05-2.75-2.46-3.07V124.02h5.4Z" class="cls-3"/><path d="M308.51,259.7c0,1.35.85,2.5,2.04,2.95v22.29h-5.39V124.02h5.39v132.74c-1.19.45-2.04,1.6-2.04,2.94Z" class="cls-3"/><line y2="284.94" x2="310.55" y1="284.94" x1="312.35" class="cls-3"/><rect height="160.91" width="5.4" y="124.03" x="243.98" class="cls-3"/><rect height="160.91" width="5.4" y="124.03" x="236.78" class="cls-3"/><line y2="284.94" x2="243.98" y1="284.94" x1="242.18" class="cls-3"/><path d="M314.81,259.7c0,1.5-1.05,2.76-2.46,3.08-.22.04-.45.07-.69.07-.39,0-.76-.07-1.11-.2-1.19-.45-2.04-1.6-2.04-2.95s.85-2.49,2.04-2.94c.35-.13.72-.2,1.11-.2.24,0,.47.03.69.07,1.41.32,2.46,1.57,2.46,3.07Z" class="cls-3"/><path d="M310.2,259.18h.17s0,1.05,0,1.05h-.17s0-1.05,0-1.05Z"/><path d="M311.24,259.87c0,.21-.17.37-.38.37s-.38-.17-.38-.37c0-.21.17-.37.38-.37s.38.17.38.37ZM310.64,259.87c0,.12.1.22.22.22s.22-.1.22-.22-.1-.22-.22-.22-.22.1-.22.22Z"/><path d="M312.04,259.86s0,.03,0,.04h-.56c.01.11.1.19.23.19.09,0,.16-.04.19-.1l.14.06c-.05.13-.17.2-.33.2-.23,0-.4-.15-.4-.37s.16-.37.37-.37.37.16.37.37ZM311.85,259.78c-.02-.08-.09-.13-.18-.13s-.16.05-.19.13h.37Z"/><path d="M312.31,259.5v.03s0,.03.03.03c.01,0,.03,0,.04-.02.04-.03.08-.05.14-.05.07,0,.12.02.16.07.02.02.03.03.05.03.02,0,.03,0,.05-.03.05-.05.1-.07.17-.07.15,0,.24.11.24.29v.45s-.17,0-.17,0v-.43c0-.1-.05-.17-.13-.17-.08,0-.14.07-.14.18v.42s-.17,0-.17,0v-.43c0-.1-.05-.17-.13-.17s-.14.07-.14.18v.41s-.17,0-.17,0v-.72s.16,0,.16,0Z"/><path d="M313.93,259.78v.45s-.16,0-.16,0v-.05s0-.03-.03-.03c-.02,0-.03,0-.05.03-.05.05-.1.07-.17.07-.14,0-.23-.08-.23-.2s.1-.21.27-.24l.19-.03c0-.08-.07-.13-.17-.13-.08,0-.14.03-.16.1l-.15-.05c.04-.13.15-.2.31-.2.19,0,.33.12.33.29ZM313.61,259.93c-.1.02-.14.05-.14.1s.04.08.11.08c.11,0,.18-.08.19-.21l-.16.03Z"/><path d="M310.11,259.18h-.72v1.05h.17v-.66s.06-.07.09-.04l.28.28.11-.11-.28-.28s0-.09.04-.09h.31v-.16Z"/><path d="M314.51,260.02c0,.12-.1.22-.23.22s-.23-.1-.23-.22.1-.22.23-.22.23.1.23.22ZM314.1,260.02c0,.1.08.18.18.18s.18-.08.18-.18-.08-.18-.18-.18-.18.08-.18.18ZM314.33,260.04s-.01,0-.01.02c0,0,0,.01,0,.02l.05.07h-.06s-.06-.09-.06-.09v.09s-.05,0-.05,0v-.23s.09,0,.09,0c.05,0,.08.03.08.07,0,.03-.02.05-.05.06Z"/><path d="M313,260.53s0,.01,0,.02c0,0,0,0,0,.01,0,0,0,0,0,.01,0,0,0,0,0,0,0,0,0,0-.01,0,0,0,0,0-.01,0,0,0,0,0-.01,0,0,0,0,0,0-.01,0,0,0,0,0-.01,0,0,0-.02,0-.02s.01,0,.02,0,.02,0,.02,0Z"/><path d="M313.23,260.43s0-.01,0-.02c0,0,0-.01-.02-.01,0,0-.01,0-.02,0,0,0-.01,0-.02,0-.01,0-.02,0-.03,0,0,0-.02,0-.02.02,0,0-.01.02-.02.03,0,0,0,.02,0,.03,0,.01,0,.02,0,.03,0,0,0,.02.02.03,0,0,.02.01.02.02,0,0,.02,0,.03,0,.02,0,.03,0,.04-.01.01,0,.02-.02.03-.03h.04s-.02.05-.04.07-.04.02-.07.02c-.02,0-.03,0-.05,0-.02,0-.03-.01-.04-.03-.01-.01-.02-.02-.03-.04,0-.01,0-.03,0-.05s0-.03,0-.05.01-.03.03-.04c.01-.01.02-.02.04-.03.01,0,.03,0,.05,0,.01,0,.03,0,.04,0,.01,0,.02,0,.03.01,0,0,.02.01.02.02,0,0,.01.02.01.03h-.04Z"/><path d="M313.47,260.36s.03.01.04.03.02.02.03.04,0,.03,0,.05,0,.03,0,.05-.02.03-.03.04c-.01.01-.02.02-.04.03-.01,0-.03,0-.05,0s-.03,0-.05,0c-.01,0-.03-.01-.04-.03-.01-.01-.02-.02-.03-.04,0-.01,0-.03,0-.05s0-.03,0-.05c0-.01.02-.03.03-.04.01-.01.02-.02.04-.03.01,0,.03,0,.05,0s.03,0,.05,0ZM313.39,260.39s-.02,0-.02.02c0,0-.01.02-.02.03,0,0,0,.02,0,.03s0,.02,0,.03c0,0,0,.02.02.03,0,0,.02.01.02.02,0,0,.02,0,.03,0s.02,0,.03,0c0,0,.02,0,.03-.02s.01-.02.02-.03,0-.02,0-.03,0-.02,0-.03c0,0,0-.02-.02-.03s-.02-.01-.03-.02c0,0-.02,0-.03,0s-.02,0-.03,0Z"/><path d="M313.64,260.35h0s0,.02,0,.02,0,0,0,0c0,0,0,0,0,0,0,0,0,0,0,0s0,0,0,0,0,0,0,0c0,0,.01,0,.02-.01,0,0,.02,0,.03,0,.01,0,.02,0,.03,0,0,0,.02,0,.02.02,0,0,0,0,0,0,0,0,0,0,0,0,0,0,0,0,0,0,0,0,0,0,0,0,0,0,0,0,0,0s0,0,0,0c0,0,.02-.01.03-.02,0,0,.02,0,.03,0,.02,0,.04,0,.06.02.01.02.02.04.02.07v.15h-.05v-.14s0-.03-.01-.04c0-.01-.02-.02-.03-.02,0,0-.01,0-.02,0,0,0-.01,0-.02.01,0,0,0,.01-.01.02,0,0,0,.02,0,.03v.14h-.05v-.14s0-.02,0-.02c0,0,0-.01,0-.02,0,0,0,0-.01-.01s-.01,0-.02,0-.01,0-.02,0c0,0-.01,0-.02.01s0,.01-.01.02c0,0,0,.02,0,.03v.14h-.05v-.24h.04Z"/><path d="M298.63,136.98c-6.08-4.1-13.67-6.35-21.37-6.35,0,0-.01,0-.02,0,0,0,0,0,0,0s0,0,0,0c-7.69,0-15.27,2.26-21.34,6.35-.04.02-.06.07-.06.11v126.38c0,.07.06.13.14.13h7.09s0,0,0,0,0,0,0,0h7.09s0,0,0,0c0,0,0,0,0,0h7.09s0,0,0,0h7.09s0,0,0,0,0,0,0,0h7.09s0,0,0,0,0,0,0,0h7.14c.07,0,.14-.06.14-.13v-126.38s-.02-.09-.06-.11ZM298.42,263.34h-6.87v-81.52c-.09.09-.18.18-.27.28v81.25h-6.82v-77.52c-.09.03-.18.05-.27.07v77.45h-6.82v-76.56s-.07,0-.11,0c-.05,0-.11,0-.16,0v76.56h-6.82v-77.46c-.09-.02-.18-.05-.27-.07v77.54h-6.82v-81.29c-.09-.1-.18-.19-.27-.29v81.58h-6.82v-126.18c2.11-1.42,4.41-2.59,6.82-3.55v39.34c.09-.1.18-.19.27-.29v-39.13s-.01-.02-.02-.04c2.19-.85,4.49-1.48,6.84-1.92v37.32c.09-.03.18-.05.27-.07v-37.29s0,0,0,0c2.24-.4,4.52-.63,6.82-.64v37.04c.05,0,.11,0,.16,0,.04,0,.07,0,.11,0v-37.04c2.3,0,4.59.24,6.83.64,0,0,0,.01,0,.02v37.28c.09.02.18.05.27.07v-37.32c2.35.44,4.65,1.07,6.84,1.91,0,.02-.02.03-.02.05v39.08c.09.09.18.18.27.28v-39.31c2.43.96,4.75,2.14,6.87,3.57v126.18Z"/><ellipse ry="8.46" rx="15.18" cy="177.36" cx="277.26" class="cls-4"/><ellipse ry="7.75" rx="14.33" cy="177.36" cx="277.26" class="cls-4"/><g id="LINE-7"><line y2="122.39" x2="18.1" y1="284.61" x1="18.1" class="cls-3"/><rect height=".3" width="1.95" y="284.46" x="17.13"/><rect height=".3" width="1.95" y="122.24" x="17.13"/></g><g id="MTEXT-2"><path d="M9.01,214.69c.12-.24.29-.44.51-.61.22-.17.5-.3.82-.39.32-.09.69-.14,1.09-.14s.8.05,1.15.15c.35.1.64.24.89.43s.43.41.56.67c.13.26.2.55.2.88,0,.37-.09.7-.27.97-.18.27-.43.47-.76.59l-.29-.64c.21-.07.37-.18.48-.34.11-.16.17-.35.17-.56,0-.2-.05-.38-.14-.55-.09-.17-.23-.31-.4-.44-.17-.13-.37-.22-.61-.29-.24-.07-.49-.1-.77-.1h-.17c-.06,0-.1,0-.15,0,.25.08.45.23.59.45.14.22.21.48.21.79,0,.24-.04.46-.12.65-.08.2-.19.36-.34.5-.14.14-.32.25-.52.33-.2.08-.42.12-.66.12s-.47-.04-.68-.13c-.21-.08-.38-.2-.52-.35-.14-.15-.26-.32-.34-.53-.08-.21-.12-.43-.12-.68,0-.3.06-.57.18-.81ZM9.58,215.86c.05.12.12.22.21.3.09.08.19.15.31.2.12.05.26.07.41.07s.29-.02.41-.07c.12-.05.23-.12.32-.2.09-.09.16-.19.21-.31.05-.12.07-.25.07-.4s-.02-.27-.07-.39c-.05-.12-.12-.22-.2-.31-.09-.09-.19-.15-.31-.2-.12-.05-.25-.07-.4-.07s-.28.03-.41.08c-.13.05-.24.13-.34.21-.1.09-.17.2-.22.32s-.08.26-.08.4.03.26.08.38Z"/><path d="M9.04,210.12c.13-.25.32-.47.55-.65.23-.18.52-.32.85-.42.33-.1.69-.15,1.08-.15s.76.05,1.1.15.62.24.86.42c.24.18.43.4.56.65.13.25.2.52.2.83s-.07.57-.2.82-.32.47-.56.65c-.24.18-.53.32-.86.42-.33.1-.7.15-1.1.15s-.75-.05-1.08-.15c-.33-.1-.61-.24-.85-.42-.24-.18-.42-.4-.55-.65-.13-.25-.2-.53-.2-.83s.07-.58.2-.83ZM9.67,211.47c.1.16.23.29.41.41.18.11.38.2.63.27.24.07.51.1.81.1s.57-.03.82-.09c.25-.06.46-.15.64-.27.18-.12.32-.25.42-.41.1-.16.15-.33.15-.52s-.05-.37-.15-.53c-.1-.16-.24-.3-.42-.41-.18-.11-.39-.2-.64-.27-.25-.06-.52-.09-.82-.09s-.56.03-.81.09c-.25.06-.46.15-.63.26-.17.11-.31.25-.41.41-.1.16-.15.34-.15.53s.05.37.15.52Z"/><path d="M9.04,205.49c.13-.25.32-.47.55-.65.23-.18.52-.32.85-.42.33-.1.69-.15,1.08-.15s.76.05,1.1.15.62.24.86.42c.24.18.43.4.56.65.13.25.2.52.2.83s-.07.57-.2.82-.32.47-.56.65c-.24.18-.53.32-.86.42-.33.1-.7.15-1.1.15s-.75-.05-1.08-.15c-.33-.1-.61-.24-.85-.42-.24-.18-.42-.4-.55-.65-.13-.25-.2-.53-.2-.83s.07-.58.2-.83ZM9.67,206.84c.1.16.23.29.41.41.18.11.38.2.63.27.24.07.51.1.81.1s.57-.03.82-.09c.25-.06.46-.15.64-.27.18-.12.32-.25.42-.41.1-.16.15-.33.15-.52s-.05-.37-.15-.53c-.1-.16-.24-.3-.42-.41-.18-.11-.39-.2-.64-.27-.25-.06-.52-.09-.82-.09s-.56.03-.81.09c-.25.06-.46.15-.63.26-.17.11-.31.25-.41.41-.1.16-.15.34-.15.53s.05.37.15.52Z"/><path d="M10.54,200.66h.67c-.24-.11-.42-.26-.54-.45-.12-.18-.18-.4-.18-.63,0-.26.07-.48.2-.67.14-.19.33-.32.59-.41-.26-.11-.45-.27-.59-.46-.14-.2-.2-.43-.2-.7,0-.38.12-.67.37-.88.25-.21.61-.31,1.07-.31h2.25v.7h-2.16c-.29,0-.52.07-.69.2-.17.13-.25.31-.25.54,0,.12.02.22.07.32.05.1.11.18.2.26.09.07.19.13.32.16.12.04.26.06.4.06h2.11v.7h-2.16c-.14,0-.27.02-.38.06-.12.04-.22.09-.3.15-.08.06-.14.14-.19.23-.04.09-.07.2-.07.31s.02.22.07.32c.05.1.12.18.21.25.09.07.2.12.32.17.12.04.26.06.41.06h2.09v.7h-3.64v-.68Z"/><path d="M10.54,194.47h.67c-.24-.11-.42-.26-.54-.45-.12-.18-.18-.4-.18-.63,0-.26.07-.48.2-.67.14-.19.33-.32.59-.41-.26-.11-.45-.27-.59-.46-.14-.2-.2-.43-.2-.7,0-.38.12-.67.37-.88.25-.21.61-.31,1.07-.31h2.25v.7h-2.16c-.29,0-.52.07-.69.2-.17.13-.25.31-.25.54,0,.12.02.22.07.32.05.1.11.18.2.26.09.07.19.13.32.16.12.04.26.06.4.06h2.11v.7h-2.16c-.14,0-.27.02-.38.06-.12.04-.22.09-.3.15-.08.06-.14.14-.19.23-.04.09-.07.2-.07.31s.02.22.07.32c.05.1.12.18.21.25.09.07.2.12.32.17.12.04.26.06.41.06h2.09v.7h-3.64v-.68Z"/></g><g id="LINE-8"><line y2="109.51" x2="18.1" y1="28.81" x1="18.1" class="cls-3"/><rect height=".3" width="1.95" y="28.66" x="17.13"/><rect height=".3" width="1.95" y="109.36" x="17.13"/></g><g id="MTEXT-3"><path d="M8.89,78.2h5.29v.73h-4.36s.08.04.1.06c.03.02.06.04.09.07l2.02,1.35s.06.04.08.05.05.03.08.06v-3.2h.64v3.98h-.59l-3.35-2.22v-.87Z"/><path d="M8.89,73.77h.65v1.92l1.54.25c-.09-.1-.16-.22-.21-.36-.05-.14-.07-.29-.07-.46,0-.25.04-.47.13-.68.08-.21.2-.38.35-.53.15-.15.33-.27.54-.35.21-.08.44-.12.69-.12s.48.04.7.13c.21.09.4.21.55.36.15.16.27.34.36.56.08.21.13.45.13.71,0,.2-.03.39-.08.58s-.13.35-.23.5c-.1.15-.22.28-.36.39-.14.11-.3.19-.48.24l-.31-.63c.24-.07.43-.19.56-.39.14-.19.21-.42.21-.67,0-.15-.03-.29-.08-.41-.05-.13-.12-.23-.21-.33-.09-.09-.2-.16-.33-.21-.13-.05-.27-.08-.43-.08s-.3.03-.44.08c-.13.05-.25.13-.34.22s-.17.21-.22.34c-.05.13-.08.28-.08.44,0,.18.04.35.1.49.07.14.17.26.31.36l-.15.62-2.79-.47v-2.52Z"/><path d="M9.04,70.03c.13-.25.32-.47.55-.65.23-.18.52-.32.85-.42.33-.1.69-.15,1.08-.15s.76.05,1.1.15.62.24.86.42c.24.18.43.4.56.65.13.25.2.52.2.83s-.07.57-.2.82-.32.47-.56.65c-.24.18-.53.32-.86.42-.33.1-.7.15-1.1.15s-.75-.05-1.08-.15c-.33-.1-.61-.24-.85-.42-.24-.18-.42-.4-.55-.65-.13-.25-.2-.53-.2-.83s.07-.58.2-.83ZM9.67,71.38c.1.16.23.29.41.41.18.11.38.2.63.27.24.07.51.1.81.1s.57-.03.82-.09c.25-.06.46-.15.64-.27.18-.12.32-.25.42-.41.1-.16.15-.33.15-.52s-.05-.37-.15-.53c-.1-.16-.24-.3-.42-.41-.18-.11-.39-.2-.64-.27-.25-.06-.52-.09-.82-.09s-.56.03-.81.09c-.25.06-.46.15-.63.26-.17.11-.31.25-.41.41-.1.16-.15.34-.15.53s.05.37.15.52Z"/><path d="M10.54,65.2h.67c-.24-.11-.42-.26-.54-.45-.12-.18-.18-.4-.18-.63,0-.26.07-.48.2-.67.14-.19.33-.32.59-.41-.26-.11-.45-.27-.59-.46-.14-.2-.2-.43-.2-.7,0-.38.12-.67.37-.88.25-.21.61-.31,1.07-.31h2.25v.7h-2.16c-.29,0-.52.07-.69.2-.17.13-.25.31-.25.54,0,.12.02.22.07.32.05.1.11.18.2.26.09.07.19.13.32.16.12.04.26.06.4.06h2.11v.7h-2.16c-.14,0-.27.02-.38.06-.12.04-.22.09-.3.15-.08.06-.14.14-.19.23-.04.09-.07.2-.07.31s.02.22.07.32c.05.1.12.18.21.25.09.07.2.12.32.17.12.04.26.06.41.06h2.09v.7h-3.64v-.68Z"/><path d="M10.54,59.02h.67c-.24-.11-.42-.26-.54-.45-.12-.18-.18-.4-.18-.63,0-.26.07-.48.2-.67.14-.19.33-.32.59-.41-.26-.11-.45-.27-.59-.46-.14-.2-.2-.43-.2-.7,0-.38.12-.67.37-.88.25-.21.61-.31,1.07-.31h2.25v.7h-2.16c-.29,0-.52.07-.69.2-.17.13-.25.31-.25.54,0,.12.02.22.07.32.05.1.11.18.2.26.09.07.19.13.32.16.12.04.26.06.4.06h2.11v.7h-2.16c-.14,0-.27.02-.38.06-.12.04-.22.09-.3.15-.08.06-.14.14-.19.23-.04.09-.07.2-.07.31s.02.22.07.32c.05.1.12.18.21.25.09.07.2.12.32.17.12.04.26.06.41.06h2.09v.7h-3.64v-.68Z"/></g></g></g></svg>