<svg viewBox="0 0 531.27 288" xmlns:xlink="http://www.w3.org/1999/xlink" xmlns="http://www.w3.org/2000/svg" id="Camada_2"><defs><style>.cls-1,.cls-2{fill:none;}.cls-3{fill:#12100c;}.cls-2{stroke:#12100c;stroke-linecap:round;stroke-linejoin:round;stroke-width:.3px;}</style><symbol viewBox="0 0 531.27 288" id="fundo_transparente"><rect height="288" width="531.27" x="0" class="cls-1"/></symbol></defs><g id="Nature"><g id="Rotas_cicláveis"><g id="placas_direcionais_XS"><use xlink:href="#fundo_transparente" height="288" width="531.27"/><g id="MTEXT"><path d="M318.85,67.09v5.29h-.72v-4.54l-1.3.64v-.73l1.36-.67h.67Z"/><path d="M322.8,67.09v.65h-1.92l-.25,1.54c.1-.09.22-.16.36-.21.14-.05.29-.07.46-.07.25,0,.47.04.68.13s.38.2.53.35.27.33.35.54c.08.21.12.44.12.69s-.04.48-.13.7-.21.4-.36.55c-.16.15-.34.27-.56.36s-.45.13-.71.13c-.2,0-.39-.03-.58-.08s-.35-.13-.5-.23c-.15-.1-.28-.22-.39-.36-.11-.14-.19-.3-.24-.48l.63-.31c.07.24.19.43.39.56s.42.21.67.21c.15,0,.29-.03.41-.08s.23-.12.33-.21c.09-.09.16-.2.21-.33.05-.13.08-.27.08-.43s-.03-.3-.08-.44c-.05-.13-.13-.25-.22-.34-.1-.1-.21-.17-.34-.22-.13-.05-.28-.08-.45-.08-.18,0-.34.04-.49.1-.14.07-.26.17-.36.31l-.62-.15.47-2.79h2.52Z"/><path d="M326.54,67.23c.25.13.47.32.65.55s.32.52.42.85c.1.33.15.69.15,1.08s-.05.76-.15,1.1-.24.62-.42.86c-.18.24-.4.43-.65.56-.25.13-.52.2-.83.2s-.57-.07-.82-.2-.47-.32-.65-.56c-.18-.24-.32-.53-.42-.86-.1-.33-.15-.7-.15-1.1s.05-.75.15-1.08c.1-.33.24-.61.42-.85.18-.24.4-.42.65-.55.25-.13.53-.2.83-.2s.58.07.83.2ZM325.18,67.86c-.16.1-.29.23-.41.41-.11.18-.2.38-.27.63-.07.24-.1.51-.1.81s.03.57.09.82c.06.25.15.46.27.64.12.18.25.32.41.42.16.1.33.15.52.15s.37-.05.53-.15c.16-.1.3-.24.41-.42.11-.18.2-.39.27-.64.06-.25.09-.52.09-.82s-.03-.56-.09-.81c-.06-.25-.15-.46-.26-.63-.11-.17-.25-.31-.41-.41-.16-.1-.34-.15-.53-.15s-.37.05-.52.15Z"/><path d="M331.36,68.73v.67c.11-.24.26-.42.45-.54.18-.12.4-.18.63-.18.26,0,.48.07.67.2.19.14.32.33.41.59.11-.26.27-.45.46-.59.2-.14.43-.2.7-.2.38,0,.67.12.88.37.21.25.31.61.31,1.07v2.25h-.7v-2.16c0-.29-.07-.52-.2-.69s-.31-.25-.54-.25c-.12,0-.22.02-.32.07-.1.05-.18.11-.26.2-.07.09-.13.19-.16.32-.04.12-.06.26-.06.4v2.11h-.7v-2.16c0-.14-.02-.27-.06-.38-.04-.12-.09-.22-.15-.3-.06-.08-.14-.14-.23-.19-.09-.04-.19-.07-.31-.07s-.22.02-.32.07c-.1.05-.18.12-.25.21-.07.09-.12.2-.16.32-.04.12-.06.26-.06.41v2.09h-.7v-3.64h.68Z"/><path d="M337.55,68.73v.67c.11-.24.26-.42.45-.54.18-.12.4-.18.63-.18.26,0,.48.07.67.2.19.14.32.33.41.59.11-.26.27-.45.46-.59.2-.14.43-.2.7-.2.38,0,.67.12.88.37.21.25.31.61.31,1.07v2.25h-.7v-2.16c0-.29-.07-.52-.2-.69s-.31-.25-.54-.25c-.12,0-.22.02-.32.07-.1.05-.18.11-.26.2-.07.09-.13.19-.16.32-.04.12-.06.26-.06.4v2.11h-.7v-2.16c0-.14-.02-.27-.06-.38-.04-.12-.09-.22-.15-.3-.06-.08-.14-.14-.23-.19-.09-.04-.19-.07-.31-.07s-.22.02-.32.07c-.1.05-.18.12-.25.21-.07.09-.12.2-.16.32-.04.12-.06.26-.06.41v2.09h-.7v-3.64h.68Z"/></g><g id="MTEXT-2"><path d="M262.96,221.15c.08-.21.19-.39.33-.54.14-.15.31-.27.51-.35s.42-.13.67-.13c.14,0,.28.02.42.05s.28.08.41.15.27.16.42.27.29.24.45.39l1.35,1.31v-2.29h.67v3.32h-.59l-1.86-1.79c-.12-.12-.23-.22-.33-.3-.11-.08-.21-.15-.3-.2-.1-.05-.19-.09-.29-.11s-.19-.03-.29-.03c-.14,0-.28.02-.4.07-.12.04-.23.11-.32.2-.09.09-.16.19-.21.3-.05.11-.07.24-.07.39,0,.25.08.47.23.65.15.18.36.31.63.39l-.23.67c-.42-.12-.74-.32-.97-.62s-.34-.66-.34-1.1c0-.25.04-.48.12-.69Z"/><path d="M262.9,216.36h.65v1.92l1.54.25c-.09-.1-.16-.22-.21-.36-.05-.14-.07-.29-.07-.46,0-.25.04-.47.13-.68.08-.21.2-.38.35-.53.15-.15.33-.27.54-.35.21-.08.44-.12.69-.12s.48.04.7.13c.21.09.4.21.55.36s.27.34.36.56c.08.21.13.45.13.71,0,.2-.03.39-.08.58-.05.18-.13.35-.23.5-.1.15-.22.28-.36.39-.14.11-.3.19-.48.24l-.31-.63c.24-.07.43-.19.56-.39.14-.19.21-.42.21-.67,0-.15-.03-.29-.08-.41-.05-.13-.12-.23-.21-.33s-.2-.16-.33-.21c-.13-.05-.27-.08-.43-.08s-.3.03-.44.08c-.13.05-.25.13-.34.22s-.17.21-.22.34c-.05.13-.08.28-.08.44,0,.18.03.35.1.49.07.14.17.26.31.36l-.15.62-2.79-.47v-2.52Z"/><path d="M263.04,212.62c.13-.25.32-.47.55-.65.23-.18.52-.32.85-.42.33-.1.69-.15,1.08-.15s.76.05,1.1.15c.33.1.62.24.86.42.24.18.43.4.56.65.13.25.2.52.2.83s-.07.57-.2.82c-.13.25-.32.47-.56.65-.24.18-.53.32-.86.42-.33.1-.7.15-1.1.15s-.75-.05-1.08-.15c-.33-.1-.62-.24-.85-.42-.24-.18-.42-.4-.55-.65-.13-.25-.2-.53-.2-.83s.07-.58.2-.83ZM263.68,213.98c.1.16.23.29.41.41.17.11.38.2.63.27.24.07.51.1.81.1s.57-.03.82-.09c.25-.06.46-.15.64-.27.18-.12.32-.25.42-.41.1-.16.15-.33.15-.52s-.05-.37-.15-.53c-.1-.16-.24-.3-.42-.41-.18-.11-.39-.2-.64-.27-.25-.06-.52-.09-.82-.09s-.56.03-.81.09-.46.15-.63.26c-.17.11-.31.25-.41.41-.1.16-.15.34-.15.53s.05.37.15.52Z"/><path d="M264.54,207.8h.66c-.24-.11-.42-.26-.54-.45s-.18-.4-.18-.63c0-.26.07-.48.2-.67.14-.19.33-.32.59-.41-.26-.11-.45-.27-.59-.46-.14-.2-.2-.43-.2-.7,0-.38.12-.67.37-.88s.61-.31,1.07-.31h2.25v.7h-2.16c-.29,0-.52.07-.69.2-.17.13-.25.31-.25.54,0,.12.02.22.07.32s.11.18.2.26.19.13.32.16c.12.04.26.06.4.06h2.11v.7h-2.16c-.14,0-.27.02-.39.06-.12.04-.22.09-.3.15s-.14.14-.19.23c-.04.09-.07.2-.07.31s.02.22.07.32.12.18.21.25.2.12.32.17c.12.04.26.06.41.06h2.09v.7h-3.64v-.68Z"/><path d="M264.54,201.61h.66c-.24-.11-.42-.26-.54-.45s-.18-.4-.18-.63c0-.26.07-.48.2-.67.14-.19.33-.32.59-.41-.26-.11-.45-.27-.59-.46-.14-.2-.2-.43-.2-.7,0-.38.12-.67.37-.88s.61-.31,1.07-.31h2.25v.7h-2.16c-.29,0-.52.07-.69.2-.17.13-.25.31-.25.54,0,.12.02.22.07.32s.11.18.2.26.19.13.32.16c.12.04.26.06.4.06h2.11v.7h-2.16c-.14,0-.27.02-.39.06-.12.04-.22.09-.3.15s-.14.14-.19.23c-.04.09-.07.2-.07.31s.02.22.07.32.12.18.21.25.2.12.32.17c.12.04.26.06.41.06h2.09v.7h-3.64v-.68Z"/></g><g id="MTEXT-3"><path d="M262.9,102.85h5.29v.72h-4.54l.64,1.3h-.73l-.67-1.36v-.67Z"/><path d="M263.04,99.14c.13-.25.32-.47.55-.65.23-.18.52-.32.85-.42.33-.1.69-.15,1.08-.15s.76.05,1.1.15c.33.1.62.24.86.42.24.18.43.4.56.65.13.25.2.52.2.83s-.07.57-.2.82c-.13.25-.32.47-.56.65-.24.18-.53.32-.86.42-.33.1-.7.15-1.1.15s-.75-.05-1.08-.15c-.33-.1-.62-.24-.85-.42-.24-.18-.42-.4-.55-.65-.13-.25-.2-.53-.2-.83s.07-.58.2-.83ZM263.68,100.49c.1.16.23.29.41.41.17.11.38.2.63.27.24.07.51.1.81.1s.57-.03.82-.09c.25-.06.46-.15.64-.27.18-.12.32-.25.42-.41.1-.16.15-.33.15-.52s-.05-.37-.15-.53c-.1-.16-.24-.3-.42-.41-.18-.11-.39-.2-.64-.27-.25-.06-.52-.09-.82-.09s-.56.03-.81.09-.46.15-.63.26c-.17.11-.31.25-.41.41-.1.16-.15.34-.15.53s.05.37.15.52Z"/><path d="M264.54,94.31h.66c-.24-.11-.42-.26-.54-.45s-.18-.4-.18-.63c0-.26.07-.48.2-.67.14-.19.33-.32.59-.41-.26-.11-.45-.27-.59-.46-.14-.2-.2-.43-.2-.7,0-.38.12-.67.37-.88s.61-.31,1.07-.31h2.25v.7h-2.16c-.29,0-.52.07-.69.2-.17.13-.25.31-.25.54,0,.12.02.22.07.32s.11.18.2.26.19.13.32.16c.12.04.26.06.4.06h2.11v.7h-2.16c-.14,0-.27.02-.39.06-.12.04-.22.09-.3.15s-.14.14-.19.23c-.04.09-.07.2-.07.31s.02.22.07.32.12.18.21.25.2.12.32.17c.12.04.26.06.41.06h2.09v.7h-3.64v-.68Z"/><path d="M264.54,88.13h.66c-.24-.11-.42-.26-.54-.45s-.18-.4-.18-.63c0-.26.07-.48.2-.67.14-.19.33-.32.59-.41-.26-.11-.45-.27-.59-.46-.14-.2-.2-.43-.2-.7,0-.38.12-.67.37-.88s.61-.31,1.07-.31h2.25v.7h-2.16c-.29,0-.52.07-.69.2-.17.13-.25.31-.25.54,0,.12.02.22.07.32s.11.18.2.26.19.13.32.16c.12.04.26.06.4.06h2.11v.7h-2.16c-.14,0-.27.02-.39.06-.12.04-.22.09-.3.15s-.14.14-.19.23c-.04.09-.07.2-.07.31s.02.22.07.32.12.18.21.25.2.12.32.17c.12.04.26.06.41.06h2.09v.7h-3.64v-.68Z"/></g><path d="M365.56,280.93h-72.02c-3.55,0-6.42-2.88-6.42-6.42v-128.6c0-3.55,2.87-6.42,6.42-6.42h72.02c3.55,0,6.42,2.87,6.42,6.42v128.6c0,3.55-2.88,6.42-6.42,6.42" class="cls-2"/><path d="M364.62,143.72h-70.14c-1.77,0-3.21,1.44-3.21,3.21v126.53c0,1.78,1.44,3.21,3.21,3.21h70.14c1.77,0,3.21-1.44,3.21-3.21v-126.53c0-1.77-1.44-3.21-3.21-3.21M364.62,146.94h0v126.53h-70.14v-126.53h70.14Z" class="cls-2"/><path d="M312.38,233.33c1.56,0,3.03.4,4.31,1.1l-5.17,7.33c-.22.32-.25.74-.07,1.08.18.35.54.56.93.56h8.97c-.52,4.49-4.34,7.99-8.97,7.99-4.98,0-9.03-4.05-9.03-9.03s4.05-9.03,9.03-9.03M322.42,229.92l3.4,11.4h-2.37c-.28-2.95-1.71-5.57-3.84-7.4l2.82-4ZM340.42,227.39l-12.7,12.98-3.53-11.83,16.23-1.15ZM321.35,241.32h-6.96l4.01-5.69c1.61,1.44,2.69,3.44,2.95,5.69M346.73,233.33c4.98,0,9.03,4.05,9.03,9.03s-4.05,9.03-9.03,9.03-9.03-4.05-9.03-9.03c0-3.57,2.08-6.67,5.1-8.13l2.9,8.47c.15.44.55.71.99.71.11,0,.23-.02.34-.06.55-.19.84-.78.65-1.33l-2.91-8.48c.63-.14,1.29-.22,1.96-.22M312.38,253.48c5.78,0,10.54-4.43,11.07-10.07h3.78s.08,0,.12,0c0,0,.03,0,.04,0,.04,0,.08-.01.12-.02h.01s0,0,0,0c.02,0,.04,0,.05-.02.02,0,.03-.01.05-.02,0,0,.02,0,.03,0,.09-.04.17-.09.24-.15h0s.05-.05.07-.07h0s13.24-13.52,13.24-13.52l.92,2.68c-3.83,1.76-6.51,5.63-6.51,10.11,0,6.13,4.99,11.12,11.12,11.12s11.12-4.99,11.12-11.12-4.98-11.12-11.12-11.12c-.91,0-1.79.11-2.64.32l-1.41-4.12c0-.05-.02-.11-.04-.16l-.45-1.33c-.02-.06-.05-.11-.07-.16l-1.9-5.53c-.15-.42-.54-.7-.99-.7h-3.2c-.58,0-1.05.46-1.05,1.04s.47,1.04,1.05,1.04h2.45l1.27,3.71-16.18,1.15-.89-2.99h1.68c.57,0,1.04-.46,1.04-1.04s-.47-1.04-1.04-1.04h-6.15c-.58,0-1.04.47-1.04,1.04s.46,1.04,1.04,1.04h2.3l1.15,3.87-3.76,5.34c-1.63-.94-3.51-1.47-5.52-1.47-6.13,0-11.12,4.99-11.12,11.12s4.99,11.12,11.12,11.12" class="cls-3"/><path d="M359.85,192.05l-28.46-28.46c-1.02-1.02-2.67-1.02-3.69,0l-28.45,28.46c-.61.61-.78,1.54-.42,2.32.55,1.2,2.08,1.58,3.14.78l25.85-17.88c1.02-.79,2.45-.79,3.47,0l25.85,17.88c1.05.81,2.58.43,3.13-.78.36-.79.2-1.71-.42-2.32" class="cls-2"/><rect height="141.44" width="5.66" y="139.48" x="414.5" class="cls-2"/><rect height="5.66" width="84.87" y="91.3" x="287.12" class="cls-2"/><line y2="77.13" x2="371.83" y1="77.13" x1="287.27" class="cls-2"/><rect height="1.95" width=".3" y="76.16" x="287.12" class="cls-3"/><rect height="1.95" width=".3" y="76.16" x="371.68" class="cls-3"/><line y2="96.81" x2="272.94" y1="91.45" x1="272.94" class="cls-2"/><rect height=".3" width="1.95" y="91.3" x="271.97" class="cls-3"/><rect height=".3" width="1.95" y="96.66" x="271.97" class="cls-3"/><line y2="280.78" x2="272.94" y1="139.63" x1="272.94" class="cls-2"/><rect height=".3" width="1.95" y="139.48" x="271.97" class="cls-3"/><rect height=".3" width="1.95" y="280.63" x="271.97" class="cls-3"/><g id="MTEXT-4"><path d="M89.67,123.09c.21.08.39.19.54.33s.27.31.35.51c.08.2.13.42.13.67,0,.14-.02.28-.05.42-.03.14-.08.28-.15.41-.07.14-.16.27-.27.42-.11.14-.24.29-.39.45l-1.31,1.35h2.29v.67h-3.32v-.59l1.79-1.85c.12-.12.22-.23.3-.33.08-.1.15-.21.2-.3s.09-.19.11-.29c.02-.09.03-.19.03-.29,0-.15-.02-.28-.07-.4-.04-.12-.11-.23-.2-.32-.09-.09-.19-.16-.3-.21-.12-.05-.24-.07-.39-.07-.25,0-.47.08-.65.23-.18.15-.31.36-.39.63l-.67-.23c.12-.42.32-.74.62-.97s.67-.34,1.1-.34c.25,0,.48.04.69.12Z"/><path d="M94.46,123.03v.65h-1.92l-.25,1.54c.1-.09.22-.16.36-.21.14-.05.29-.07.46-.07.25,0,.47.04.68.13.21.08.38.2.53.35s.27.33.35.54c.08.21.12.44.12.69s-.04.48-.13.7c-.09.21-.21.4-.36.55-.16.15-.34.27-.56.36s-.45.13-.72.13c-.2,0-.39-.03-.57-.08-.18-.05-.35-.13-.5-.23-.15-.1-.28-.22-.39-.36-.11-.14-.19-.3-.24-.48l.63-.31c.07.24.19.43.39.56.19.14.42.21.67.21.15,0,.29-.03.41-.08.13-.05.23-.12.33-.21.09-.09.16-.2.21-.33.05-.13.08-.27.08-.43s-.03-.3-.08-.44c-.05-.13-.13-.25-.22-.34-.1-.1-.21-.17-.34-.22s-.28-.08-.45-.08c-.18,0-.34.04-.49.1-.14.07-.26.17-.36.31l-.62-.15.47-2.79h2.52Z"/><path d="M98.2,123.17c.25.13.46.32.65.55s.32.52.42.85c.1.33.15.69.15,1.08s-.05.76-.15,1.1c-.1.33-.24.62-.42.86-.18.24-.4.43-.65.56s-.52.2-.83.2-.57-.07-.82-.2c-.25-.13-.47-.32-.65-.56-.18-.24-.32-.53-.42-.86s-.15-.7-.15-1.1.05-.75.15-1.08c.1-.33.24-.61.42-.85.18-.24.39-.42.64-.55.25-.13.53-.2.83-.2s.58.07.83.2ZM96.85,123.81c-.16.1-.29.23-.41.41-.11.18-.21.38-.27.63-.07.24-.1.51-.1.81s.03.57.09.82c.06.25.15.46.27.64.12.18.25.32.41.42.16.1.33.15.52.15s.37-.05.53-.15c.16-.1.29-.24.41-.42.11-.18.2-.39.27-.64.06-.25.09-.52.09-.82s-.03-.56-.09-.81c-.06-.25-.15-.46-.26-.63-.11-.17-.25-.31-.41-.41-.16-.1-.34-.15-.53-.15s-.37.05-.52.15Z"/><path d="M103.03,124.68v.67c.11-.24.26-.42.44-.54.19-.12.4-.18.63-.18.26,0,.48.07.67.2.19.14.32.33.41.59.11-.26.27-.45.46-.59.2-.14.43-.2.7-.2.38,0,.67.12.88.37.21.25.31.61.31,1.07v2.25h-.7v-2.16c0-.29-.07-.52-.2-.69-.13-.17-.31-.25-.54-.25-.12,0-.22.02-.32.07-.1.05-.18.11-.26.2-.07.09-.13.19-.17.32-.04.12-.06.26-.06.4v2.11h-.7v-2.16c0-.14-.02-.27-.06-.38s-.09-.22-.15-.3c-.06-.08-.14-.14-.23-.19-.09-.04-.2-.07-.31-.07s-.22.02-.32.07c-.1.05-.18.12-.25.21-.07.09-.12.2-.17.32-.04.12-.06.26-.06.41v2.09h-.7v-3.64h.68Z"/><path d="M109.22,124.68v.67c.11-.24.26-.42.44-.54.19-.12.4-.18.63-.18.26,0,.48.07.67.2.19.14.32.33.41.59.11-.26.27-.45.46-.59.2-.14.43-.2.7-.2.38,0,.67.12.88.37.21.25.31.61.31,1.07v2.25h-.7v-2.16c0-.29-.07-.52-.2-.69-.13-.17-.31-.25-.54-.25-.12,0-.22.02-.32.07-.1.05-.18.11-.26.2-.07.09-.13.19-.17.32-.04.12-.06.26-.06.4v2.11h-.7v-2.16c0-.14-.02-.27-.06-.38s-.09-.22-.15-.3c-.06-.08-.14-.14-.23-.19-.09-.04-.2-.07-.31-.07s-.22.02-.32.07c-.1.05-.18.12-.25.21-.07.09-.12.2-.17.32-.04.12-.06.26-.06.41v2.09h-.7v-3.64h.68Z"/></g><g id="MTEXT-5"><path d="M5.68,248.88h5.28v.72h-4.54l.64,1.3h-.73l-.66-1.36v-.67Z"/><path d="M5.68,244.93h.65v1.92l1.54.25c-.09-.1-.16-.22-.21-.36-.05-.14-.07-.29-.07-.46,0-.25.04-.47.13-.68.08-.21.2-.38.35-.53.15-.15.33-.27.54-.35.21-.08.44-.12.69-.12s.48.04.7.13c.21.09.4.21.55.36.15.16.27.34.36.56.08.21.13.45.13.71,0,.2-.03.39-.08.58s-.13.35-.23.5c-.1.15-.22.28-.36.39-.14.11-.3.19-.48.24l-.31-.63c.24-.07.43-.19.56-.39.14-.19.21-.42.21-.67,0-.15-.03-.29-.08-.41-.05-.13-.12-.23-.21-.33s-.2-.16-.33-.21c-.13-.05-.27-.08-.43-.08s-.3.03-.44.08-.25.13-.34.22-.17.21-.22.34c-.05.13-.08.28-.08.44,0,.18.04.35.11.49.07.14.17.26.31.36l-.15.62-2.79-.47v-2.52Z"/><path d="M5.83,241.19c.13-.25.32-.47.55-.65.23-.18.52-.32.85-.42s.69-.15,1.09-.15.76.05,1.1.15.62.24.86.42.43.4.56.65c.13.25.2.52.2.83s-.07.57-.2.82-.32.47-.56.65c-.24.18-.53.32-.86.42-.33.1-.7.15-1.1.15s-.75-.05-1.09-.15c-.33-.1-.61-.24-.85-.42-.24-.18-.42-.4-.55-.65-.13-.25-.2-.53-.2-.83s.07-.58.2-.83ZM6.46,242.54c.1.16.23.29.41.41.17.11.38.2.63.27.24.07.51.1.81.1s.57-.03.82-.09c.25-.06.46-.15.64-.27.18-.12.32-.25.42-.41.1-.16.15-.33.15-.52s-.05-.37-.15-.53c-.1-.16-.24-.3-.42-.41-.18-.11-.39-.2-.64-.27-.25-.06-.52-.09-.82-.09s-.56.03-.81.09-.46.15-.63.26c-.18.11-.31.25-.41.41-.1.16-.15.34-.15.53s.05.37.15.52Z"/><path d="M7.33,236.36h.67c-.24-.11-.42-.26-.54-.45-.12-.18-.18-.4-.18-.63,0-.26.07-.48.2-.67.13-.19.33-.32.59-.41-.26-.11-.45-.27-.59-.46-.14-.2-.2-.43-.2-.7,0-.38.12-.67.37-.88.25-.21.61-.31,1.07-.31h2.25v.7h-2.16c-.29,0-.52.07-.69.2-.17.13-.25.31-.25.54,0,.12.02.22.07.32.05.1.11.18.2.26.09.07.19.13.32.16.12.04.26.06.4.06h2.11v.7h-2.16c-.14,0-.27.02-.39.06-.12.04-.22.09-.3.15-.08.06-.14.14-.19.23-.04.09-.07.2-.07.31s.02.22.07.32c.05.1.12.18.21.25.09.07.2.12.32.17.12.04.26.06.41.06h2.09v.7h-3.64v-.68Z"/><path d="M7.33,230.18h.67c-.24-.11-.42-.26-.54-.45-.12-.18-.18-.4-.18-.63,0-.26.07-.48.2-.67.13-.19.33-.32.59-.41-.26-.11-.45-.27-.59-.46-.14-.2-.2-.43-.2-.7,0-.38.12-.67.37-.88.25-.21.61-.31,1.07-.31h2.25v.7h-2.16c-.29,0-.52.07-.69.2-.17.13-.25.31-.25.54,0,.12.02.22.07.32.05.1.11.18.2.26.09.07.19.13.32.16.12.04.26.06.4.06h2.11v.7h-2.16c-.14,0-.27.02-.39.06-.12.04-.22.09-.3.15-.08.06-.14.14-.19.23-.04.09-.07.2-.07.31s.02.22.07.32c.05.1.12.18.21.25.09.07.2.12.32.17.12.04.26.06.41.06h2.09v.7h-3.64v-.68Z"/></g><g id="MTEXT-6"><path d="M5.68,158.79h5.29v.72h-4.54l.64,1.3h-.73l-.67-1.36v-.67Z"/><path d="M5.83,155.08c.13-.25.32-.47.55-.65s.52-.32.85-.42c.33-.1.69-.15,1.08-.15s.76.05,1.1.15.62.24.86.42c.24.18.43.4.56.64.13.25.2.52.2.83s-.07.57-.2.82-.32.47-.56.65c-.24.18-.53.32-.86.42s-.7.15-1.1.15-.75-.05-1.08-.15c-.33-.1-.61-.24-.85-.42-.24-.18-.42-.39-.55-.65-.13-.25-.2-.53-.2-.83s.07-.58.2-.83ZM6.46,156.44c.1.16.23.29.41.41s.38.2.63.27c.24.07.51.1.8.1s.57-.03.82-.09c.25-.06.46-.15.64-.27.18-.12.32-.25.42-.41.1-.16.15-.33.15-.52s-.05-.37-.15-.53c-.1-.16-.24-.3-.42-.41s-.39-.2-.64-.27c-.25-.06-.52-.09-.82-.09s-.56.03-.81.09c-.24.06-.46.15-.63.26-.17.11-.31.25-.41.41-.1.16-.15.34-.15.53s.05.37.15.52Z"/><path d="M7.33,150.26h.66c-.24-.11-.42-.26-.54-.45-.12-.18-.18-.4-.18-.63,0-.26.07-.48.2-.67.14-.19.33-.32.59-.41-.26-.11-.45-.27-.59-.46-.14-.2-.2-.43-.2-.7,0-.38.12-.67.38-.88.25-.21.61-.31,1.07-.31h2.25v.7h-2.16c-.29,0-.52.07-.69.2-.17.13-.25.31-.25.54,0,.12.02.22.07.32.05.1.11.18.2.26.09.07.2.13.32.17.12.04.26.06.4.06h2.11v.7h-2.16c-.14,0-.27.02-.38.06-.12.04-.22.09-.3.15-.08.06-.14.14-.19.23-.04.09-.07.2-.07.31s.02.22.07.32c.05.1.12.18.21.25.09.07.2.12.32.17s.26.06.41.06h2.09v.7h-3.64v-.68Z"/><path d="M7.33,144.07h.66c-.24-.11-.42-.26-.54-.45-.12-.18-.18-.4-.18-.63,0-.26.07-.48.2-.67.14-.19.33-.32.59-.41-.26-.11-.45-.27-.59-.46-.14-.2-.2-.43-.2-.7,0-.38.12-.67.38-.88.25-.21.61-.31,1.07-.31h2.25v.7h-2.16c-.29,0-.52.07-.69.2-.17.13-.25.31-.25.54,0,.12.02.22.07.32.05.1.11.18.2.26.09.07.2.13.32.17.12.04.26.06.4.06h2.11v.7h-2.16c-.14,0-.27.02-.38.06-.12.04-.22.09-.3.15-.08.06-.14.14-.19.23-.04.09-.07.2-.07.31s.02.22.07.32c.05.1.12.18.21.25.09.07.2.12.32.17s.26.06.41.06h2.09v.7h-3.64v-.68Z"/></g><path d="M127.65,195.43H35.6c-3.15,0-5.7,2.55-5.7,5.7v74.1c0,3.15,2.55,5.7,5.7,5.7h92.05c1.51,0,2.96-.6,4.03-1.67l38.66-38.66c1.34-1.34,1.34-3.5,0-4.83l-38.66-38.66c-1.07-1.07-2.52-1.67-4.03-1.67" class="cls-2"/><path d="M125.92,199.1H36.55c-1.58,0-2.85,1.27-2.85,2.85v72.45c0,1.58,1.27,2.85,2.85,2.85h89.37c1.38,0,2.71-.55,3.68-1.52l35.34-35.34c1.22-1.22,1.22-3.2,0-4.42l-35.34-35.34c-.98-.98-2.3-1.53-3.68-1.53M125.92,201.95c.63,0,1.22.25,1.67.69l25.7,33.45c.94,1.23.94,2.94,0,4.17l-25.7,33.45c-.45.45-1.04.69-1.67.69H37.03c-.31,0-.57-.26-.57-.57v-71.32c0-.31.26-.57.57-.57h88.89Z" class="cls-2"/><path d="M71.64,234.99c1.56,0,3.03.4,4.31,1.1l-5.16,7.33c-.22.32-.25.73-.07,1.08.18.35.54.56.93.56h8.97c-.52,4.49-4.34,7.99-8.97,7.99-4.98,0-9.03-4.05-9.03-9.03s4.05-9.03,9.03-9.03M81.68,231.58l3.4,11.4h-2.38c-.28-2.95-1.71-5.57-3.84-7.4l2.82-4ZM99.68,229.04l-12.7,12.98-3.53-11.83,16.23-1.15ZM80.61,242.97h-6.96l4.01-5.69c1.6,1.44,2.69,3.44,2.95,5.69M105.99,234.99c4.98,0,9.03,4.05,9.03,9.03s-4.05,9.03-9.03,9.03-9.03-4.05-9.03-9.03c0-3.57,2.09-6.66,5.1-8.13l2.91,8.47c.15.43.55.7.99.7.11,0,.22-.02.34-.06.55-.19.83-.78.65-1.32l-2.91-8.48c.63-.14,1.29-.21,1.96-.21M71.64,255.13c5.78,0,10.54-4.43,11.06-10.07h3.78s.08,0,.12,0c.01,0,.03,0,.04,0,.04,0,.08-.01.12-.02,0,0,0,0,.01,0h0s.04-.01.05-.02c.02,0,.03-.01.05-.02,0,0,.02,0,.03,0,.09-.04.17-.09.24-.15,0,0,0,0,0,0,.03-.02.05-.05.07-.07l13.24-13.52.92,2.68c-3.83,1.76-6.51,5.63-6.51,10.11,0,6.13,4.99,11.12,11.12,11.12s11.12-4.99,11.12-11.12-4.99-11.11-11.12-11.11c-.91,0-1.79.11-2.64.32l-1.42-4.12c0-.05-.02-.11-.04-.15l-.46-1.33c-.02-.06-.04-.11-.07-.16l-1.9-5.53c-.14-.42-.54-.7-.98-.7h-3.2c-.58,0-1.04.47-1.04,1.04s.47,1.04,1.04,1.04h2.45l1.27,3.71-16.18,1.15-.89-2.99h1.68c.58,0,1.04-.47,1.04-1.04s-.47-1.04-1.04-1.04h-6.15c-.58,0-1.04.47-1.04,1.04s.46,1.04,1.04,1.04h2.3l1.15,3.87-3.76,5.34c-1.63-.94-3.51-1.47-5.52-1.47-6.13,0-11.11,4.99-11.11,11.11s4.98,11.12,11.11,11.12" class="cls-3"/><rect height="85.5" width="5.66" y="195.43" x="213.86" class="cls-2"/><rect height="5.66" width="141.44" y="147.25" x="29.9" class="cls-2"/><line y2="133.07" x2="171.19" y1="133.07" x1="30.05" class="cls-2"/><rect height="1.95" width=".3" y="132.1" x="29.9" class="cls-3"/><rect height="1.95" width=".3" y="132.1" x="171.04" class="cls-3"/><line y2="152.76" x2="15.73" y1="147.4" x1="15.73" class="cls-2"/><rect height=".3" width="1.95" y="147.25" x="14.75" class="cls-3"/><rect height=".3" width="1.95" y="152.61" x="14.75" class="cls-3"/><line y2="280.78" x2="15.73" y1="196.52" x1="15.73" class="cls-2"/><rect height=".3" width="1.95" y="196.36" x="14.75" class="cls-3"/><rect height=".3" width="1.95" y="280.63" x="14.75" class="cls-3"/></g></g></g></svg>