<svg viewBox="0 0 531.27 288" xmlns:xlink="http://www.w3.org/1999/xlink" xmlns="http://www.w3.org/2000/svg" id="Camada_2"><defs><style>.cls-1,.cls-2,.cls-3{fill:none;}.cls-4{fill:#12100c;}.cls-2,.cls-3{stroke:#12100c;stroke-linecap:round;stroke-linejoin:round;stroke-width:.3px;}.cls-3{fill-rule:evenodd;}</style><symbol viewBox="0 0 531.27 288" id="fundo_transparente"><rect height="288" width="531.27" x="0" class="cls-1"/></symbol></defs><g id="Nature"><g id="Sinalética_ICNF"><g id="mesa_interpretativa_pequena_ICNF"><use xlink:href="#fundo_transparente" height="288" width="531.27"/><g id="LINE"><line y2="199.31" x2="13.4" y1="281.85" x1="13.4" class="cls-2"/><rect height=".3" width="1.95" y="281.7" x="12.42" class="cls-4"/><rect height=".3" width="1.95" y="199.16" x="12.42" class="cls-4"/></g><g id="MTEXT"><path d="M3.35,253.15h5.29v.72h-4.54l.64,1.3h-.73l-.67-1.36v-.67Z"/><path d="M3.41,249.97c.08-.21.19-.39.33-.54.14-.15.31-.27.51-.35.2-.08.42-.13.67-.13.14,0,.28.02.42.05.14.03.28.08.41.15.14.07.27.16.42.27.14.11.29.24.45.39l1.35,1.31v-2.29h.67v3.32h-.59l-1.85-1.79c-.12-.12-.23-.22-.33-.3-.1-.08-.21-.15-.3-.2-.1-.05-.19-.09-.29-.11-.09-.02-.19-.03-.29-.03-.15,0-.28.02-.4.07-.12.04-.23.11-.32.2-.09.09-.16.19-.21.3-.05.11-.07.24-.07.39,0,.25.08.47.23.65.15.18.36.31.63.39l-.23.67c-.42-.12-.74-.32-.97-.62s-.34-.66-.34-1.1c0-.25.04-.48.12-.69Z"/><path d="M8.64,247.56l-4.62-1.78v2.69h-.67v-3.5h.59l4.7,1.77v.83Z"/><path d="M3.49,241.73c.13-.25.32-.47.55-.65.23-.18.52-.32.85-.42.33-.1.69-.15,1.08-.15s.76.05,1.1.15.62.24.86.42c.24.18.43.4.56.65.13.25.2.52.2.83s-.07.57-.2.82-.32.47-.56.65c-.24.18-.53.32-.86.42-.33.1-.7.15-1.1.15s-.75-.05-1.08-.15c-.33-.1-.61-.24-.85-.42-.24-.18-.42-.4-.55-.65-.13-.25-.2-.53-.2-.83s.07-.58.2-.83ZM4.13,243.08c.1.16.23.29.41.41.18.11.38.2.63.27.24.07.51.1.81.1s.57-.03.82-.09c.25-.06.46-.15.64-.27.18-.12.32-.25.42-.41.1-.16.15-.33.15-.52s-.05-.37-.15-.53c-.1-.16-.24-.3-.42-.41-.18-.11-.39-.2-.64-.27-.25-.06-.52-.09-.82-.09s-.56.03-.81.09c-.25.06-.46.15-.63.26-.17.11-.31.25-.41.41-.1.16-.15.34-.15.53s.05.37.15.52Z"/><path d="M5,236.9h.67c-.24-.11-.42-.26-.54-.45-.12-.18-.18-.4-.18-.63,0-.26.07-.48.2-.67.14-.19.33-.32.59-.41-.26-.11-.45-.27-.59-.46-.14-.2-.2-.43-.2-.7,0-.38.12-.67.37-.88.25-.21.61-.31,1.07-.31h2.25v.7h-2.16c-.29,0-.52.07-.69.2-.17.13-.25.31-.25.54,0,.12.02.22.07.32.05.1.11.18.2.26.09.07.19.13.32.16.12.04.26.06.4.06h2.11v.7h-2.16c-.14,0-.27.02-.38.06-.12.04-.22.09-.3.15-.08.06-.14.14-.19.23-.04.09-.07.2-.07.31s.02.22.07.32c.05.1.12.18.21.25.09.07.2.12.32.17.12.04.26.06.41.06h2.09v.7h-3.64v-.68Z"/><path d="M5,230.71h.67c-.24-.11-.42-.26-.54-.45-.12-.18-.18-.4-.18-.63,0-.26.07-.48.2-.67.14-.19.33-.32.59-.41-.26-.11-.45-.27-.59-.46-.14-.2-.2-.43-.2-.7,0-.38.12-.67.37-.88.25-.21.61-.31,1.07-.31h2.25v.7h-2.16c-.29,0-.52.07-.69.2-.17.13-.25.31-.25.54,0,.12.02.22.07.32.05.1.11.18.2.26.09.07.19.13.32.16.12.04.26.06.4.06h2.11v.7h-2.16c-.14,0-.27.02-.38.06-.12.04-.22.09-.3.15-.08.06-.14.14-.19.23-.04.09-.07.2-.07.31s.02.22.07.32c.05.1.12.18.21.25.09.07.2.12.32.17.12.04.26.06.41.06h2.09v.7h-3.64v-.68Z"/></g><g id="LINE-2"><line y2="100.04" x2="13.4" y1="156.36" x1="13.4" class="cls-2"/><rect height=".3" width="1.95" y="156.21" x="12.42" class="cls-4"/><rect height=".3" width="1.95" y="99.89" x="12.42" class="cls-4"/></g><g id="MTEXT-2"><path d="M8.58,140.61c-.07.22-.17.4-.31.56-.13.15-.29.28-.47.36s-.38.13-.6.13c-.16,0-.31-.02-.45-.07-.15-.05-.28-.11-.4-.2-.12-.09-.22-.19-.3-.31s-.14-.25-.18-.4c-.05.14-.12.25-.2.36-.08.1-.17.19-.27.27s-.21.13-.33.17c-.12.04-.25.06-.38.06-.21,0-.39-.04-.56-.12-.17-.08-.32-.2-.44-.34-.13-.14-.22-.32-.29-.52-.07-.2-.1-.42-.1-.66s.03-.46.1-.66c.07-.2.17-.37.29-.52.12-.15.27-.26.44-.35.17-.08.36-.13.57-.13.13,0,.26.02.38.06.12.04.24.1.34.17.1.07.19.16.27.27.08.1.14.22.19.35.04-.15.1-.28.18-.4s.19-.22.31-.3c.12-.08.25-.15.4-.2.14-.05.29-.07.45-.07.21,0,.41.04.6.13.18.09.34.21.47.36.13.15.24.34.31.56.07.22.11.46.11.72s-.04.5-.11.72ZM4.03,140.24c.04.11.09.2.16.28.07.08.15.14.26.18s.21.07.33.07c.11,0,.22-.02.32-.07.1-.04.19-.11.26-.19.07-.08.13-.17.17-.28s.06-.23.06-.35-.02-.25-.06-.35c-.04-.1-.1-.2-.17-.28s-.16-.14-.26-.19c-.1-.04-.21-.07-.32-.07-.12,0-.23.02-.33.07-.1.04-.19.11-.26.19-.07.08-.12.17-.16.28-.04.11-.06.23-.06.36s.02.24.06.35ZM7.95,139.47c-.04-.13-.11-.23-.19-.32-.08-.09-.18-.16-.29-.21-.11-.05-.24-.08-.37-.08s-.26.03-.37.08c-.11.05-.21.12-.29.21-.08.09-.15.2-.2.33-.05.13-.07.26-.07.41s.02.28.07.41c.04.13.11.23.19.33s.18.16.3.21c.11.05.24.07.37.07.14,0,.27-.02.38-.07.11-.05.21-.12.29-.21.08-.09.14-.2.19-.33.04-.13.07-.26.07-.41s-.02-.29-.07-.41Z"/><path d="M3.47,135.03c.12-.24.29-.44.51-.61.22-.17.5-.3.82-.39.32-.09.69-.14,1.09-.14s.8.05,1.15.15c.35.1.64.24.89.43s.43.41.56.67c.13.26.2.55.2.88,0,.37-.09.7-.27.97-.18.27-.43.47-.76.59l-.29-.64c.21-.07.37-.18.48-.34.11-.16.17-.35.17-.56,0-.2-.05-.38-.14-.55-.09-.17-.23-.31-.4-.44-.17-.13-.37-.22-.61-.29-.24-.07-.49-.1-.77-.1h-.17c-.06,0-.1,0-.15,0,.25.08.45.23.59.45.14.22.21.48.21.79,0,.24-.04.46-.12.65-.08.2-.19.36-.34.5-.14.14-.32.25-.52.33-.2.08-.42.12-.66.12s-.47-.04-.68-.13c-.21-.08-.38-.2-.52-.35-.14-.15-.26-.32-.34-.53-.08-.21-.12-.43-.12-.68,0-.3.06-.57.18-.81ZM4.04,136.2c.05.12.12.22.21.3.09.08.19.15.31.2.12.05.26.07.41.07s.29-.02.41-.07c.12-.05.23-.12.32-.2.09-.09.16-.19.21-.31.05-.12.07-.25.07-.4s-.02-.27-.07-.39c-.05-.12-.12-.22-.2-.31-.09-.09-.19-.15-.31-.2-.12-.05-.25-.07-.4-.07s-.28.03-.41.08c-.13.05-.24.13-.34.21-.1.09-.17.2-.22.32s-.08.26-.08.4.03.26.08.38Z"/><path d="M3.49,130.46c.13-.25.32-.47.55-.65.23-.18.52-.32.85-.42.33-.1.69-.15,1.08-.15s.76.05,1.1.15.62.24.86.42c.24.18.43.4.56.65.13.25.2.52.2.83s-.07.57-.2.82-.32.47-.56.65c-.24.18-.53.32-.86.42-.33.1-.7.15-1.1.15s-.75-.05-1.08-.15c-.33-.1-.61-.24-.85-.42-.24-.18-.42-.4-.55-.65-.13-.25-.2-.53-.2-.83s.07-.58.2-.83ZM4.13,131.81c.1.16.23.29.41.41.18.11.38.2.63.27.24.07.51.1.81.1s.57-.03.82-.09c.25-.06.46-.15.64-.27.18-.12.32-.25.42-.41.1-.16.15-.33.15-.52s-.05-.37-.15-.53c-.1-.16-.24-.3-.42-.41-.18-.11-.39-.2-.64-.27-.25-.06-.52-.09-.82-.09s-.56.03-.81.09c-.25.06-.46.15-.63.26-.17.11-.31.25-.41.41-.1.16-.15.34-.15.53s.05.37.15.52Z"/><path d="M5,125.63h.67c-.24-.11-.42-.26-.54-.45-.12-.18-.18-.4-.18-.63,0-.26.07-.48.2-.67.14-.19.33-.32.59-.41-.26-.11-.45-.27-.59-.46-.14-.2-.2-.43-.2-.7,0-.38.12-.67.37-.88.25-.21.61-.31,1.07-.31h2.25v.7h-2.16c-.29,0-.52.07-.69.2-.17.13-.25.31-.25.54,0,.12.02.22.07.32.05.1.11.18.2.26.09.07.19.13.32.16.12.04.26.06.4.06h2.11v.7h-2.16c-.14,0-.27.02-.38.06-.12.04-.22.09-.3.15-.08.06-.14.14-.19.23-.04.09-.07.2-.07.31s.02.22.07.32c.05.1.12.18.21.25.09.07.2.12.32.17.12.04.26.06.41.06h2.09v.7h-3.64v-.68Z"/><path d="M5,119.45h.67c-.24-.11-.42-.26-.54-.45-.12-.18-.18-.4-.18-.63,0-.26.07-.48.2-.67.14-.19.33-.32.59-.41-.26-.11-.45-.27-.59-.46-.14-.2-.2-.43-.2-.7,0-.38.12-.67.37-.88.25-.21.61-.31,1.07-.31h2.25v.7h-2.16c-.29,0-.52.07-.69.2-.17.13-.25.31-.25.54,0,.12.02.22.07.32.05.1.11.18.2.26.09.07.19.13.32.16.12.04.26.06.4.06h2.11v.7h-2.16c-.14,0-.27.02-.38.06-.12.04-.22.09-.3.15-.08.06-.14.14-.19.23-.04.09-.07.2-.07.31s.02.22.07.32c.05.1.12.18.21.25.09.07.2.12.32.17.12.04.26.06.41.06h2.09v.7h-3.64v-.68Z"/></g><polygon points="179.37 225.73 171.64 229.6 197.73 282.13 207.32 282.13 179.37 225.73" class="cls-3"/><polygon points="211.41 199.32 163 223.41 166.82 231.98 215.23 207.89 211.41 199.32" class="cls-3"/><rect height="2.35" width="82.46" y="199.03" x="32.81" class="cls-2"/><rect height=".8" width="82.46" y="201.37" x="32.81" class="cls-2"/><rect height="2.32" width="82.46" y="220.88" x="32.81" class="cls-2"/><rect height="8.69" width="82.46" y="223.2" x="32.81" class="cls-2"/><rect height="24.17" width="5.24" y="199.03" x="115.25" class="cls-2"/><rect height="24.17" width="5.24" y="199.03" x="27.57" class="cls-2"/><rect height="8.7" width="5.23" y="223.2" x="115.25" class="cls-2"/><rect height="8.7" width="5.23" y="223.2" x="27.57" class="cls-2"/><rect height="50.25" width="5.23" y="231.88" x="115.25" class="cls-2"/><rect height="50.25" width="5.23" y="231.88" x="27.57" class="cls-2"/><g id="LINE-3"><line y2="85.71" x2="120.33" y1="85.71" x1="27.71" class="cls-2"/><rect height="1.95" width=".3" y="84.74" x="27.56" class="cls-4"/><rect height="1.95" width=".3" y="84.74" x="120.18" class="cls-4"/></g><g id="MTEXT-3"><path d="M61.18,75.67v5.29h-.72v-4.54l-1.3.64v-.73l1.36-.67h.67Z"/><path d="M65.08,75.67v5.29h-.73v-4.36s-.04.08-.06.1c-.02.03-.04.06-.07.09l-1.35,2.02s-.04.06-.05.08-.03.05-.06.08h3.2v.64h-3.98v-.59l2.22-3.35h.87Z"/><path d="M68.6,75.73c.21.08.39.19.54.33.15.14.27.31.35.51.08.2.13.42.13.67,0,.14-.02.28-.05.42-.03.14-.08.28-.15.41-.07.14-.16.27-.27.42-.11.14-.24.29-.39.45l-1.31,1.35h2.29v.67h-3.32v-.59l1.79-1.85c.12-.12.22-.23.3-.33.08-.1.15-.21.2-.3.05-.1.09-.19.11-.29.02-.09.03-.19.03-.29,0-.15-.02-.28-.07-.4-.04-.12-.11-.23-.2-.32-.09-.09-.19-.16-.3-.21-.11-.05-.24-.07-.39-.07-.25,0-.47.08-.65.23-.18.15-.31.36-.39.63l-.67-.23c.12-.42.32-.74.62-.97s.66-.34,1.1-.34c.25,0,.48.04.69.12Z"/><path d="M73.14,75.81c.25.13.47.32.65.55.18.23.32.52.42.85.1.33.15.69.15,1.08s-.05.76-.15,1.1-.24.62-.42.86c-.18.24-.4.43-.65.56-.25.13-.52.2-.83.2s-.57-.07-.82-.2-.47-.32-.65-.56c-.18-.24-.32-.53-.42-.86-.1-.33-.15-.7-.15-1.1s.05-.75.15-1.08c.1-.33.24-.61.42-.85.18-.24.4-.42.65-.55.25-.13.53-.2.83-.2s.58.07.83.2ZM71.79,76.45c-.16.1-.29.23-.41.41-.11.18-.2.38-.27.63-.07.24-.1.51-.1.81s.03.57.09.82c.06.25.15.46.27.64.12.18.25.32.41.42.16.1.33.15.52.15s.37-.05.53-.15c.16-.1.3-.24.41-.42.11-.18.2-.39.27-.64.06-.25.09-.52.09-.82s-.03-.56-.09-.81c-.06-.25-.15-.46-.26-.63-.11-.17-.25-.31-.41-.41-.16-.1-.34-.15-.53-.15s-.37.05-.52.15Z"/><path d="M77.97,77.31v.67c.11-.24.26-.42.45-.54.18-.12.4-.18.63-.18.26,0,.48.07.67.2.19.14.32.33.41.59.11-.26.27-.45.46-.59.2-.14.43-.2.7-.2.38,0,.67.12.88.37.21.25.31.61.31,1.07v2.25h-.7v-2.16c0-.29-.07-.52-.2-.69-.13-.17-.31-.25-.54-.25-.12,0-.22.02-.32.07-.1.05-.18.11-.26.2-.07.09-.13.19-.16.32-.04.12-.06.26-.06.4v2.11h-.7v-2.16c0-.14-.02-.27-.06-.38-.04-.12-.09-.22-.15-.3-.06-.08-.14-.14-.23-.19-.09-.04-.2-.07-.31-.07s-.22.02-.32.07c-.1.05-.18.12-.25.21-.07.09-.12.2-.17.32-.04.12-.06.26-.06.41v2.09h-.7v-3.64h.68Z"/><path d="M84.15,77.31v.67c.11-.24.26-.42.45-.54.18-.12.4-.18.63-.18.26,0,.48.07.67.2.19.14.32.33.41.59.11-.26.27-.45.46-.59.2-.14.43-.2.7-.2.38,0,.67.12.88.37.21.25.31.61.31,1.07v2.25h-.7v-2.16c0-.29-.07-.52-.2-.69-.13-.17-.31-.25-.54-.25-.12,0-.22.02-.32.07-.1.05-.18.11-.26.2-.07.09-.13.19-.16.32-.04.12-.06.26-.06.4v2.11h-.7v-2.16c0-.14-.02-.27-.06-.38-.04-.12-.09-.22-.15-.3-.06-.08-.14-.14-.23-.19-.09-.04-.2-.07-.31-.07s-.22.02-.32.07c-.1.05-.18.12-.25.21-.07.09-.12.2-.17.32-.04.12-.06.26-.06.41v2.09h-.7v-3.64h.68Z"/></g><rect height="51.87" width="5.22" y="104.64" x="27.57" class="cls-2"/><rect height="51.87" width="5.22" y="104.64" x="115.25" class="cls-2"/><rect height="4.66" width="82.47" y="104.64" x="32.79" class="cls-2"/><rect height="4.66" width="82.47" y="99.93" x="32.79" class="cls-2"/><rect height="4.66" width="82.47" y="151.85" x="32.79" class="cls-2"/><line y2="151.27" x2="32.79" y1="151.27" x1="115.25" class="cls-2"/><rect height="4.71" width="5.22" y="99.89" x="27.57" class="cls-2"/><rect height="4.71" width="5.22" y="99.89" x="115.25" class="cls-2"/></g></g></g></svg>