<svg viewBox="0 0 531.26 288" xmlns="http://www.w3.org/2000/svg"><defs><style>.cls-1 {
        fill: #1d1d1b;
      }

      .cls-1, .cls-2, .cls-3, .cls-4 {
        stroke-width: .3px;
      }

      .cls-1, .cls-3 {
        stroke: #1d1d1b;
        stroke-miterlimit: 22.93;
      }

      .cls-2 {
        fill-rule: evenodd;
      }

      .cls-2, .cls-3, .cls-5, .cls-4 {
        fill: none;
      }

      .cls-2, .cls-4 {
        stroke: #12100a;
        stroke-linecap: round;
        stroke-linejoin: round;
      }

      .cls-6 {
        fill: #12100a;
      }

      .cls-5 {
        stroke: #000;
        stroke-miterlimit: 10;
        stroke-width: .28px;
      }</style></defs><g id="bases"><rect height="358.35" width="589.11" y="-33.95" x="-25.44" class="cls-5"/></g><g id="Urban"><g id="Plaza"><g id="mesa_Community"><g id="LINE"><g><line y2="18.79" x2="244.73" y1="18.79" x1="51.45" class="cls-4"/><rect height="1.95" width=".3" y="17.82" x="51.3" class="cls-6"/><rect height="1.95" width=".3" y="17.82" x="244.58" class="cls-6"/></g></g><g id="MTEXT"><g><path d="M135.38,9.58v5.29h-.72v-4.54l-1.3.64v-.73l1.36-.67h.67Z"/><path d="M139.28,9.58v5.29h-.73v-4.36s-.04.08-.06.1c-.02.03-.04.06-.07.09l-1.35,2.02s-.04.06-.05.08-.03.05-.06.08h3.2v.64h-3.98v-.59l2.22-3.35h.87Z"/><path d="M141.72,14.75c-.24-.12-.44-.29-.61-.51-.17-.22-.3-.5-.39-.82s-.14-.69-.14-1.09.05-.8.15-1.15c.1-.35.24-.64.43-.89.18-.25.41-.43.67-.56.26-.13.55-.2.88-.2.37,0,.7.09.97.27.27.18.47.43.59.76l-.64.29c-.07-.21-.18-.37-.34-.48-.16-.11-.35-.17-.56-.17-.2,0-.38.05-.55.14s-.31.23-.44.4c-.13.17-.22.37-.29.61s-.1.49-.1.77v.17c0,.06,0,.1,0,.15.08-.25.23-.45.45-.59.22-.14.48-.21.79-.21.24,0,.46.04.65.12.2.08.36.19.5.34.14.15.25.32.33.52.08.2.12.42.12.66s-.04.47-.13.68c-.08.21-.2.38-.35.53-.15.14-.32.26-.53.34s-.43.12-.68.12c-.3,0-.57-.06-.81-.18ZM142.89,14.18c.12-.05.22-.12.3-.21.08-.09.15-.19.2-.31.05-.12.07-.26.07-.41s-.02-.29-.07-.41c-.05-.12-.12-.23-.2-.32s-.19-.16-.31-.21-.25-.07-.4-.07-.27.02-.39.07-.22.12-.31.2c-.09.09-.15.19-.2.31-.05.12-.07.25-.07.4s.03.28.08.41.12.24.21.34.2.17.32.22c.12.05.26.08.4.08s.26-.03.38-.08Z"/><path d="M147.17,9.65c.21.08.39.19.54.33.15.14.27.31.35.51.08.2.13.42.13.67,0,.14-.02.28-.05.42-.03.14-.08.28-.15.41-.07.14-.16.27-.27.42-.11.14-.24.29-.39.45l-1.31,1.35h2.29v.67h-3.32v-.59l1.79-1.85c.12-.12.22-.23.3-.33.08-.1.15-.21.2-.3.05-.1.09-.19.11-.29.02-.09.03-.19.03-.29,0-.15-.02-.28-.07-.4-.04-.12-.11-.23-.2-.32-.09-.09-.19-.16-.3-.21-.11-.05-.24-.07-.39-.07-.25,0-.47.08-.65.23-.18.15-.31.36-.39.63l-.67-.23c.12-.42.32-.74.62-.97s.66-.34,1.1-.34c.25,0,.48.04.69.12Z"/><path d="M151.91,11.23v.67c.11-.24.26-.42.45-.54.18-.12.4-.18.63-.18.26,0,.48.07.67.2.19.14.32.33.41.59.11-.26.27-.45.46-.59.2-.14.43-.2.7-.2.38,0,.67.12.88.37.21.25.31.61.31,1.07v2.25h-.7v-2.16c0-.29-.07-.52-.2-.69-.13-.17-.31-.25-.54-.25-.12,0-.22.02-.32.07-.1.05-.18.11-.26.2-.07.09-.13.19-.16.32-.04.12-.06.26-.06.4v2.11h-.7v-2.16c0-.14-.02-.27-.06-.38-.04-.12-.09-.22-.15-.3-.06-.08-.14-.14-.23-.19-.09-.04-.2-.07-.31-.07s-.22.02-.32.07c-.1.05-.18.12-.25.21-.07.09-.12.2-.17.32-.04.12-.06.26-.06.41v2.09h-.7v-3.64h.68Z"/><path d="M158.1,11.23v.67c.11-.24.26-.42.45-.54.18-.12.4-.18.63-.18.26,0,.48.07.67.2.19.14.32.33.41.59.11-.26.27-.45.46-.59.2-.14.43-.2.7-.2.38,0,.67.12.88.37.21.25.31.61.31,1.07v2.25h-.7v-2.16c0-.29-.07-.52-.2-.69-.13-.17-.31-.25-.54-.25-.12,0-.22.02-.32.07-.1.05-.18.11-.26.2-.07.09-.13.19-.16.32-.04.12-.06.26-.06.4v2.11h-.7v-2.16c0-.14-.02-.27-.06-.38-.04-.12-.09-.22-.15-.3-.06-.08-.14-.14-.23-.19-.09-.04-.2-.07-.31-.07s-.22.02-.32.07c-.1.05-.18.12-.25.21-.07.09-.12.2-.17.32-.04.12-.06.26-.06.41v2.09h-.7v-3.64h.68Z"/></g></g><g id="LINE-2"><g><line y2="283.12" x2="16.7" y1="183.45" x1="16.7" class="cls-4"/><rect height=".3" width="1.95" y="183.3" x="15.72" class="cls-6"/><rect height=".3" width="1.95" y="282.97" x="15.72" class="cls-6"/></g></g><g id="MTEXT-2"><g><path d="M12.77,245.36l-4.62-1.78v2.69h-.67v-3.5h.59l4.7,1.77v.83Z"/><path d="M7.49,239.29h.65v1.92l1.54.25c-.09-.1-.16-.22-.21-.36-.05-.14-.07-.29-.07-.46,0-.25.04-.47.13-.68.08-.21.2-.38.35-.53.15-.15.33-.27.54-.35.21-.08.44-.12.69-.12s.48.04.7.13c.21.09.4.21.55.36.15.16.27.34.36.56.08.21.13.45.13.71,0,.2-.03.39-.08.58s-.13.35-.23.5c-.1.15-.22.28-.36.39-.14.11-.3.19-.48.24l-.31-.63c.24-.07.43-.19.56-.39.14-.19.21-.42.21-.67,0-.15-.03-.29-.08-.41-.05-.13-.12-.23-.21-.33-.09-.09-.2-.16-.33-.21-.13-.05-.27-.08-.43-.08s-.3.03-.44.08c-.13.05-.25.13-.34.22s-.17.21-.22.34c-.05.13-.08.28-.08.44,0,.18.04.35.1.49.07.14.17.26.31.36l-.15.62-2.79-.47v-2.52Z"/><path d="M7.49,235.31h.65v1.92l1.54.25c-.09-.1-.16-.22-.21-.36-.05-.14-.07-.29-.07-.46,0-.25.04-.47.13-.68.08-.21.2-.38.35-.53.15-.15.33-.27.54-.35.21-.08.44-.12.69-.12s.48.04.7.13c.21.09.4.21.55.36.15.16.27.34.36.56.08.21.13.45.13.71,0,.2-.03.39-.08.58s-.13.35-.23.5c-.1.15-.22.28-.36.39-.14.11-.3.19-.48.24l-.31-.63c.24-.07.43-.19.56-.39.14-.19.21-.42.21-.67,0-.15-.03-.29-.08-.41-.05-.13-.12-.23-.21-.33-.09-.09-.2-.16-.33-.21-.13-.05-.27-.08-.43-.08s-.3.03-.44.08c-.13.05-.25.13-.34.22s-.17.21-.22.34c-.05.13-.08.28-.08.44,0,.18.04.35.1.49.07.14.17.26.31.36l-.15.62-2.79-.47v-2.52Z"/><path d="M9.13,231.37h.67c-.24-.11-.42-.26-.54-.45-.12-.18-.18-.4-.18-.63,0-.26.07-.48.2-.67.14-.19.33-.32.59-.41-.26-.11-.45-.27-.59-.46-.14-.2-.2-.43-.2-.7,0-.38.12-.67.37-.88.25-.21.61-.31,1.07-.31h2.25v.7h-2.16c-.29,0-.52.07-.69.2-.17.13-.25.31-.25.54,0,.12.02.22.07.32.05.1.11.18.2.26.09.07.19.13.32.16.12.04.26.06.4.06h2.11v.7h-2.16c-.14,0-.27.02-.38.06-.12.04-.22.09-.3.15-.08.06-.14.14-.19.23-.04.09-.07.2-.07.31s.02.22.07.32c.05.1.12.18.21.25.09.07.2.12.32.17.12.04.26.06.41.06h2.09v.7h-3.64v-.68Z"/><path d="M9.13,225.19h.67c-.24-.11-.42-.26-.54-.45-.12-.18-.18-.4-.18-.63,0-.26.07-.48.2-.67.14-.19.33-.32.59-.41-.26-.11-.45-.27-.59-.46-.14-.2-.2-.43-.2-.7,0-.38.12-.67.37-.88.25-.21.61-.31,1.07-.31h2.25v.7h-2.16c-.29,0-.52.07-.69.2-.17.13-.25.31-.25.54,0,.12.02.22.07.32.05.1.11.18.2.26.09.07.19.13.32.16.12.04.26.06.4.06h2.11v.7h-2.16c-.14,0-.27.02-.38.06-.12.04-.22.09-.3.15-.08.06-.14.14-.19.23-.04.09-.07.2-.07.31s.02.22.07.32c.05.1.12.18.21.25.09.07.2.12.32.17.12.04.26.06.41.06h2.09v.7h-3.64v-.68Z"/></g></g><g id="LINE-3"><g><line y2="148.32" x2="16.7" y1="36.07" x1="16.7" class="cls-4"/><rect height=".3" width="1.95" y="35.92" x="15.72" class="cls-6"/><rect height=".3" width="1.95" y="148.17" x="15.72" class="cls-6"/></g></g><g id="MTEXT-3"><g><path d="M12.72,104.48c-.07.22-.17.4-.31.56-.13.15-.29.28-.47.36s-.38.13-.6.13c-.16,0-.31-.02-.45-.07-.15-.05-.28-.11-.4-.2-.12-.09-.22-.19-.3-.31s-.14-.25-.18-.4c-.05.14-.12.25-.2.36-.08.1-.17.19-.27.27s-.21.13-.33.17c-.12.04-.25.06-.38.06-.21,0-.39-.04-.56-.12-.17-.08-.32-.2-.44-.34-.13-.14-.22-.32-.29-.52-.07-.2-.1-.42-.1-.66s.03-.46.1-.66c.07-.2.17-.37.29-.52.12-.15.27-.26.44-.35.17-.08.36-.13.57-.13.13,0,.26.02.38.06.12.04.24.1.34.17.1.07.19.16.27.27.08.1.14.22.19.35.04-.15.1-.28.18-.4s.19-.22.31-.3c.12-.08.25-.15.4-.2.14-.05.29-.07.45-.07.21,0,.41.04.6.13.18.09.34.21.47.36.13.15.24.34.31.56.07.22.11.46.11.72s-.04.5-.11.72ZM8.17,104.12c.04.11.09.2.16.28.07.08.15.14.26.18s.21.07.33.07c.11,0,.22-.02.32-.07.1-.04.19-.11.26-.19.07-.08.13-.17.17-.28s.06-.23.06-.35-.02-.25-.06-.35c-.04-.1-.1-.2-.17-.28s-.16-.14-.26-.19c-.1-.04-.21-.07-.32-.07-.12,0-.23.02-.33.07-.1.04-.19.11-.26.19-.07.08-.12.17-.16.28-.04.11-.06.23-.06.36s.02.24.06.35ZM12.09,103.35c-.04-.13-.11-.23-.19-.32-.08-.09-.18-.16-.29-.21-.11-.05-.24-.08-.37-.08s-.26.03-.37.08c-.11.05-.21.12-.29.21-.08.09-.15.2-.2.33-.05.13-.07.26-.07.41s.02.28.07.41c.04.13.11.23.19.33s.18.16.3.21c.11.05.24.07.37.07.14,0,.27-.02.38-.07.11-.05.21-.12.29-.21.08-.09.14-.2.19-.33.04-.13.07-.26.07-.41s-.02-.29-.07-.41Z"/><path d="M7.49,98.33h.65v1.92l1.54.25c-.09-.1-.16-.22-.21-.36-.05-.14-.07-.29-.07-.46,0-.25.04-.47.13-.68.08-.21.2-.38.35-.53.15-.15.33-.27.54-.35.21-.08.44-.12.69-.12s.48.04.7.13c.21.09.4.21.55.36.15.16.27.34.36.56.08.21.13.45.13.71,0,.2-.03.39-.08.58s-.13.35-.23.5c-.1.15-.22.28-.36.39-.14.11-.3.19-.48.24l-.31-.63c.24-.07.43-.19.56-.39.14-.19.21-.42.21-.67,0-.15-.03-.29-.08-.41-.05-.13-.12-.23-.21-.33-.09-.09-.2-.16-.33-.21-.13-.05-.27-.08-.43-.08s-.3.03-.44.08c-.13.05-.25.13-.34.22s-.17.21-.22.34c-.05.13-.08.28-.08.44,0,.18.04.35.1.49.07.14.17.26.31.36l-.15.62-2.79-.47v-2.52Z"/><path d="M7.63,94.59c.13-.25.32-.47.55-.65.23-.18.52-.32.85-.42.33-.1.69-.15,1.08-.15s.76.05,1.1.15.62.24.86.42c.24.18.43.4.56.65.13.25.2.52.2.83s-.07.57-.2.82-.32.47-.56.65c-.24.18-.53.32-.86.42-.33.1-.7.15-1.1.15s-.75-.05-1.08-.15c-.33-.1-.61-.24-.85-.42-.24-.18-.42-.4-.55-.65-.13-.25-.2-.53-.2-.83s.07-.58.2-.83ZM8.27,95.94c.1.16.23.29.41.41.18.11.38.2.63.27.24.07.51.1.81.1s.57-.03.82-.09c.25-.06.46-.15.64-.27.18-.12.32-.25.42-.41.1-.16.15-.33.15-.52s-.05-.37-.15-.53c-.1-.16-.24-.3-.42-.41-.18-.11-.39-.2-.64-.27-.25-.06-.52-.09-.82-.09s-.56.03-.81.09c-.25.06-.46.15-.63.26-.17.11-.31.25-.41.41-.1.16-.15.34-.15.53s.05.37.15.52Z"/><path d="M9.13,89.76h.67c-.24-.11-.42-.26-.54-.45-.12-.18-.18-.4-.18-.63,0-.26.07-.48.2-.67.14-.19.33-.32.59-.41-.26-.11-.45-.27-.59-.46-.14-.2-.2-.43-.2-.7,0-.38.12-.67.37-.88.25-.21.61-.31,1.07-.31h2.25v.7h-2.16c-.29,0-.52.07-.69.2-.17.13-.25.31-.25.54,0,.12.02.22.07.32.05.1.11.18.2.26.09.07.19.13.32.16.12.04.26.06.4.06h2.11v.7h-2.16c-.14,0-.27.02-.38.06-.12.04-.22.09-.3.15-.08.06-.14.14-.19.23-.04.09-.07.2-.07.31s.02.22.07.32c.05.1.12.18.21.25.09.07.2.12.32.17.12.04.26.06.41.06h2.09v.7h-3.64v-.68Z"/><path d="M9.13,83.57h.67c-.24-.11-.42-.26-.54-.45-.12-.18-.18-.4-.18-.63,0-.26.07-.48.2-.67.14-.19.33-.32.59-.41-.26-.11-.45-.27-.59-.46-.14-.2-.2-.43-.2-.7,0-.38.12-.67.37-.88.25-.21.61-.31,1.07-.31h2.25v.7h-2.16c-.29,0-.52.07-.69.2-.17.13-.25.31-.25.54,0,.12.02.22.07.32.05.1.11.18.2.26.09.07.19.13.32.16.12.04.26.06.4.06h2.11v.7h-2.16c-.14,0-.27.02-.38.06-.12.04-.22.09-.3.15-.08.06-.14.14-.19.23-.04.09-.07.2-.07.31s.02.22.07.32c.05.1.12.18.21.25.09.07.2.12.32.17.12.04.26.06.41.06h2.09v.7h-3.64v-.68Z"/></g></g><g><path d="M103.62,202.99l1.01-.18c.75-.13,1.25-.8,1.12-1.51l-.67-4.68c-.02-.11-.03-.23-.03-.34,0-1.08.93-1.96,2.07-1.96h81.52c.12,0,.24,0,.36.03,1.13.19,1.88,1.2,1.68,2.26l-.64,4.66c-.09.81.32,1.44,1.1,1.51l.87.06" class="cls-4"/><path d="M117.41,280.13l-16.09-88.68c-.02-.08-.02-.15-.02-.23,0-.73.68-1.32,1.52-1.32h89.68c.09,0,.18,0,.26.02.82.13,1.37.81,1.23,1.53l-15.41,88.73c-.29,1.43.81,2.8,2.46,3.06.17.03.35.04.53.04l51.48-.19c1.47,0,2.73-.92,2.99-2.18l8.7-49.51c.29-1.43-.6-2.95-2.25-3.2-.17-.03-.35-.04-.53-.04l-33.22.02v1.32l32.99.03c.09,0,.18,0,.26.02.82.13,1.37.81,1.23,1.53l-8.68,49.6c-.13.63-.76,1.09-1.49,1.09l-51.48.19c-.09,0-.18,0-.26-.02-.82-.13-1.37-.81-1.23-1.53l15.41-88.73c.29-1.43-.81-2.8-2.46-3.06-.17-.03-.35-.04-.53-.04h-89.68" class="cls-4"/><path d="M102.82,188.58c-1.67,0-3.03,1.18-3.03,2.64,0,.15.02.31.05.46l16.09,88.68" class="cls-4"/><g id="LINE-4"><path d="M85.54,229.41v2.27c0,.59-.25,1.16-.69,1.57-.44.42-1.04.65-1.67.65h-25.44c-.27-.01-.53.06-.77.21-.47.3-.68.85-.58,1.37l.03.15.08.43.13.7.17.94.21,1.16.25,1.35c.09.51.19,1.02.28,1.53.1.56.2,1.12.31,1.69.11.61.22,1.21.33,1.82.12.64.23,1.29.35,1.93.12.67.25,1.35.37,2.02.13.7.25,1.4.38,2.09l.39,2.14c.13.72.26,1.44.39,2.17s.26,1.45.39,2.17c.13.72.26,1.44.39,2.16s.26,1.41.39,2.12.25,1.37.37,2.06.24,1.32.36,1.98c.11.63.23,1.25.34,1.88l.32,1.75c.1.54.19,1.07.29,1.61l.26,1.44c.08.42.15.84.23,1.25l.19,1.05c.09.48.16.96.25,1.44.1.48.33.94.77,1.2.44.26.97.3,1.47.3.5,0,1.02-.01,1.53,0,.24,0,.44.03.65.14.2.1.37.25.51.41.4.46.33,1.04.34,1.6,0,.47,0,.94,0,1.44" class="cls-4"/></g><g id="LINE-5"><path d="M210.2,229.5v2.17c0,.59.25,1.16.69,1.57.44.42,1.04.65,1.67.65h25.44c.27-.01.53.06.77.21.47.3.68.85.58,1.37l-.03.15-.08.43-.13.7-.17.94-.21,1.16-.25,1.35c-.09.51-.19,1.02-.28,1.53l-.31,1.69-.33,1.82c-.12.64-.23,1.29-.35,1.93-.12.67-.25,1.35-.37,2.02-.13.7-.25,1.4-.38,2.09-.13.71-.26,1.43-.39,2.14s-.26,1.44-.39,2.17l-.39,2.17c-.13.72-.26,1.44-.39,2.16s-.26,1.41-.39,2.12l-.37,2.06c-.12.66-.24,1.32-.36,1.98-.11.63-.23,1.25-.34,1.88l-.32,1.75-.29,1.61c-.09.48-.17.96-.26,1.44-.08.42-.15.84-.23,1.25l-.19,1.05c-.09.48-.16.96-.25,1.44-.1.48-.33.94-.77,1.2-.44.26-.97.3-1.47.3-.5,0-1.02-.01-1.53,0-.24,0-.44.03-.65.14-.2.1-.37.25-.51.41-.4.46-.33,1.04-.34,1.6,0,.47,0,.94,0,1.44" class="cls-4"/></g><rect height="5.25" width="10.54" y="222.89" x="231.16" class="cls-4"/><rect height="5.25" width="10.54" y="222.89" x="219.95" class="cls-4"/><rect height="5.25" width="10.54" y="222.89" x="208.75" class="cls-4"/><path d="M117.4,280c.29,1.43-.81,2.8-2.46,3.06-.17.03-.35.04-.53.04l-51.48-.19c-1.47,0-2.73-.92-2.99-2.18l-8.7-49.51c-.29-1.43.6-2.95,2.25-3.2.17-.03.35-.04.53-.04l33.22.02v1.32l-32.99.03c-.09,0-.18,0-.26.02-.82.13-1.37.81-1.23,1.53l8.68,49.6c.13.63.76,1.09,1.49,1.09l51.48.19c.09,0,.18,0,.26-.02.82-.13,1.37-.81,1.23-1.53" class="cls-4"/><rect transform="translate(119.08 450.7) rotate(180)" height="5.25" width="10.54" y="222.72" x="54.27" class="cls-4"/><rect transform="translate(141.49 450.7) rotate(180)" height="5.25" width="10.54" y="222.72" x="65.47" class="cls-4"/><rect transform="translate(163.89 450.7) rotate(180)" height="5.25" width="10.54" y="222.72" x="76.67" class="cls-4"/><g><rect height="5.25" width="10.65" y="183.3" x="125.28" class="cls-4"/><rect height="5.25" width="10.65" y="183.3" x="136.6" class="cls-4"/><rect height="5.25" width="10.65" y="183.3" x="147.92" class="cls-4"/><rect height="5.25" width="10.65" y="183.3" x="159.24" class="cls-4"/><rect height="5.25" width="10.65" y="183.3" x="170.56" class="cls-4"/><rect height="5.25" width="10.65" y="183.3" x="181.88" class="cls-4"/><rect height="5.25" width="10.65" y="183.3" x="113.96" class="cls-4"/><rect height="5.25" width="10.65" y="183.3" x="102.65" class="cls-4"/></g><ellipse ry=".92" rx=".93" cy="191.96" cx="127" class="cls-4"/><ellipse ry=".92" rx=".93" cy="191.96" cx="168.64" class="cls-4"/><ellipse ry=".92" rx=".93" cy="231.52" cx="63.56" class="cls-4"/><ellipse ry=".92" rx=".93" cy="231.52" cx="76.81" class="cls-4"/><ellipse ry=".92" rx=".93" cy="231.52" cx="218.95" class="cls-4"/><ellipse ry=".92" rx=".93" cy="231.52" cx="232.2" class="cls-4"/></g><g><rect height="5.79" width="95.34" y="228.2" x="315.37" class="cls-4"/><rect height="5.79" width=".05" y="228.2" x="419.3" class="cls-4"/><rect height="5.7" width="95.34" y="188.59" x="315.37" class="cls-4"/><rect height="34.33" width="8.59" y="188.59" x="306.77" class="cls-4"/><rect height="5.28" width="112.53" y="183.31" x="306.77" class="cls-4"/><rect height="55.07" width="8.59" y="228.2" x="306.77" class="cls-4"/><rect height="5.28" width="112.53" y="222.92" x="306.77" class="cls-4"/><rect height="34.33" width="8.59" y="188.59" x="410.7" class="cls-4"/><rect height="55.07" width="8.59" y="228.2" x="410.7" class="cls-4"/></g><g><rect height="8.59" width="2.9" y="35.94" x="51.3" class="cls-4"/><rect height="112.53" width="10.6" y="35.94" x="65.46" class="cls-4"/><rect height="8.59" width=".65" y="35.94" x="64.8" class="cls-4"/><rect height="8.59" width=".65" y="35.94" x="76.06" class="cls-4"/><rect height="112.53" width="10.6" y="35.94" x="102.64" class="cls-4"/><rect height="8.59" width="15.32" y="35.94" x="87.32" class="cls-4"/><rect height="8.59" width=".79" y="35.94" x="113.24" class="cls-4"/><polyline points="135.99 118.69 135.99 148.46 125.43 148.46 125.43 118.7" class="cls-4"/><polyline points="125.43 65.67 125.43 35.93 135.99 35.93 135.99 65.61" class="cls-4"/><rect height="8.59" width=".79" y="35.94" x="124.64" class="cls-4"/><rect height="8.59" width=".79" y="35.94" x="135.99" class="cls-4"/><polyline points="158.79 118.78 158.79 148.46 148.18 148.46 148.18 118.69" class="cls-4"/><polyline points="148.18 65.61 148.18 35.93 158.79 35.93 158.79 65.67" class="cls-4"/><rect height="8.59" width=".79" y="35.94" x="147.39" class="cls-4"/><rect height="8.59" width=".79" y="35.94" x="158.79" class="cls-4"/><polyline points="170.98 65.72 170.98 35.93 181.58 35.93 181.58 148.46 170.98 148.46 170.98 118.69" class="cls-4"/><rect height="8.59" width=".79" y="35.94" x="170.18" class="cls-4"/><rect height="8.59" width=".79" y="35.94" x="181.58" class="cls-4"/><rect height="112.53" width="10.56" y="35.94" x="208.63" class="cls-4"/><rect height="8.59" width="15.7" y="35.94" x="192.93" class="cls-4"/><rect height="8.59" width=".7" y="35.94" x="219.19" class="cls-4"/><rect height="112.53" width="10.56" y="35.94" x="231.14" class="cls-4"/><rect height="8.59" width=".7" y="35.94" x="230.44" class="cls-4"/><rect height="8.59" width="3.18" y="35.94" x="241.7" class="cls-4"/><rect height="4.25" width=".65" y="90.08" x="64.8" class="cls-4"/><rect height="4.25" width=".65" y="90.08" x="76.06" class="cls-4"/><rect height="4.25" width=".79" y="90.08" x="113.24" class="cls-4"/><rect height="4.25" width=".79" y="90.08" x="181.58" class="cls-4"/><rect height="4.25" width=".7" y="89.89" x="219.19" class="cls-4"/><rect height="4.25" width=".7" y="89.89" x="230.44" class="cls-4"/><rect height="112.53" width="10.6" y="35.94" x="54.2" class="cls-4"/><rect height="8.59" width="2.9" y="139.87" x="51.3" class="cls-4"/><rect height="8.59" width=".65" y="139.87" x="64.8" class="cls-4"/><rect height="112.53" width="10.6" y="35.94" x="76.71" class="cls-4"/><rect height="8.59" width=".65" y="139.87" x="76.06" class="cls-4"/><rect height="8.59" width="15.32" y="139.87" x="87.32" class="cls-4"/><line y2="120.56" x2="124.64" y1="118.7" x1="124.64" class="cls-4"/><polyline points="124.64 118.69 124.64 148.46 114.04 148.46 114.04 35.93 124.64 35.93 124.64 65.67" class="cls-4"/><rect height="8.59" width=".79" y="139.87" x="113.24" class="cls-4"/><rect height="8.59" width=".79" y="139.87" x="124.64" class="cls-4"/><polyline points="147.39 118.73 147.39 148.46 136.79 148.46 136.79 118.69" class="cls-4"/><polyline points="136.79 65.67 136.79 35.93 147.39 35.93 147.39 65.61" class="cls-4"/><rect height="8.59" width=".79" y="139.87" x="135.99" class="cls-4"/><rect height="8.59" width=".79" y="139.87" x="147.39" class="cls-4"/><polyline points="170.18 118.69 170.18 148.46 159.58 148.46 159.58 118.78" class="cls-4"/><polyline points="159.58 65.67 159.58 35.93 170.18 35.93 170.18 65.67" class="cls-4"/><rect height="8.59" width=".79" y="139.87" x="158.79" class="cls-4"/><rect height="8.59" width=".79" y="139.87" x="170.18" class="cls-4"/><rect height="112.53" width="10.56" y="35.94" x="182.38" class="cls-4"/><rect height="8.59" width=".79" y="139.87" x="181.58" class="cls-4"/><rect height="8.59" width="15.7" y="139.87" x="192.93" class="cls-4"/><rect height="112.53" width="10.56" y="35.94" x="219.89" class="cls-4"/><rect height="8.59" width=".7" y="139.87" x="219.19" class="cls-4"/><rect height="8.59" width=".7" y="139.87" x="230.44" class="cls-4"/><rect height="8.59" width="3.18" y="139.87" x="241.7" class="cls-4"/></g><g><path d="M147.79,79.88v6.16h6.15v-6.16h-6.15ZM147.79,79.88v6.16h6.15v-6.16h-6.15ZM141.63,86.04v6.16h6.16v-6.16h-6.16ZM147.79,79.88v6.16h6.15v-6.16h-6.15ZM147.79,79.88v6.16h6.15v-6.16h-6.15ZM141.63,86.04v6.16h6.16v-6.16h-6.16ZM141.63,86.04v6.16h6.16v-6.16h-6.16ZM147.79,79.88v6.16h6.15v-6.16h-6.15ZM147.79,79.88v6.16h6.15v-6.16h-6.15ZM141.63,86.04v6.16h6.16v-6.16h-6.16ZM141.63,86.04v6.16h6.16v-6.16h-6.16ZM147.79,79.88v6.16h6.15v-6.16h-6.15ZM147.79,92.2v6.15h6.15v-6.15h-6.15ZM147.79,79.88v6.16h6.15v-6.16h-6.15ZM147.79,92.2v6.15h6.15v-6.15h-6.15ZM141.63,86.04v6.16h6.16v-6.16h-6.16ZM141.63,86.04v6.16h6.16v-6.16h-6.16ZM147.79,79.88v6.16h6.15v-6.16h-6.15ZM147.79,92.2v6.15h6.15v-6.15h-6.15ZM147.79,79.88v6.16h6.15v-6.16h-6.15ZM147.79,92.2v6.15h6.15v-6.15h-6.15ZM141.63,86.04v6.16h6.16v-6.16h-6.16ZM141.63,86.04v6.16h6.16v-6.16h-6.16ZM147.79,79.88v6.16h6.15v-6.16h-6.15ZM147.79,92.2v6.15h6.15v-6.15h-6.15ZM153.94,86.04v-6.16h-6.15v6.16h6.15ZM147.79,98.35h6.15v-6.15h-6.15v6.15ZM147.79,86.04h-6.16v6.16h6.16v-6.16ZM121.3,65.71v52.97h52.97v-52.97h-52.97ZM123.15,73.72h6.16v6.16h-6.16v-6.16ZM123.15,86.04h6.16v6.16h-6.16v-6.16ZM123.15,98.35h6.16v6.16h-6.16v-6.16ZM123.15,116.83v-6.16h6.16v6.16h-6.16ZM135.47,116.83v-6.16h6.16v6.16h-6.16ZM147.79,116.83v-6.16h6.15v-6.16h-6.15v-6.16h-6.16v6.16h-6.16v-6.16h6.16v-6.15h-6.16v-6.16h6.16v-6.16h-6.16v-6.16h6.16v-6.16h6.16v6.16h6.15v-6.16h6.16v6.16h-6.16v6.16h6.16v6.16h-6.16v6.16h6.16v6.15h-6.16v6.16h6.16v6.16h-6.16v6.16h-6.15ZM172.42,110.67h-6.16v-6.16h6.16v6.16ZM172.42,98.35h-6.16v-6.15h6.16v6.15ZM172.42,86.04h-6.16v-6.16h6.16v6.16ZM172.42,73.72h-6.16v-6.16h6.16v6.16ZM153.94,98.35v-6.15h-6.15v6.15h6.15ZM147.79,79.88v6.16h6.15v-6.16h-6.15ZM147.79,92.2v-6.16h-6.16v6.16h6.16ZM141.63,86.04v6.16h6.16v-6.16h-6.16ZM147.79,92.2v6.15h6.15v-6.15h-6.15ZM147.79,79.88v6.16h6.15v-6.16h-6.15ZM147.79,92.2v6.15h6.15v-6.15h-6.15ZM147.79,79.88v6.16h6.15v-6.16h-6.15ZM141.63,86.04v6.16h6.16v-6.16h-6.16ZM141.63,86.04v6.16h6.16v-6.16h-6.16ZM147.79,92.2v6.15h6.15v-6.15h-6.15ZM147.79,79.88v6.16h6.15v-6.16h-6.15ZM147.79,92.2v6.15h6.15v-6.15h-6.15ZM147.79,79.88v6.16h6.15v-6.16h-6.15ZM141.63,86.04v6.16h6.16v-6.16h-6.16ZM141.63,86.04v6.16h6.16v-6.16h-6.16ZM147.79,79.88v6.16h6.15v-6.16h-6.15ZM147.79,79.88v6.16h6.15v-6.16h-6.15ZM141.63,86.04v6.16h6.16v-6.16h-6.16ZM141.63,86.04v6.16h6.16v-6.16h-6.16ZM147.79,79.88v6.16h6.15v-6.16h-6.15ZM147.79,79.88v6.16h6.15v-6.16h-6.15ZM141.63,86.04v6.16h6.16v-6.16h-6.16ZM147.79,79.88v6.16h6.15v-6.16h-6.15ZM147.79,79.88v6.16h6.15v-6.16h-6.15Z" class="cls-2"/><rect height="6.16" width="6.16" y="73.72" x="123.15" class="cls-4"/><rect height="6.16" width="6.16" y="73.72" x="135.47" class="cls-4"/><path d="M172.42,79.88v-6.16h-6.16v-6.16h-6.16v6.16h-6.16v6.16h6.16v6.16h-6.16v6.16h6.16v6.15h-6.16v6.16h6.16v6.16h-6.16v6.16h18.48v-6.16h-6.16v-6.16h6.16v-6.16h-6.16v-6.15h6.16v-6.16h-6.16v-6.16h6.16ZM147.79,104.51v-6.16h-6.16v6.16h-6.16v-6.16h6.16v-6.15h-6.16v-6.16h6.16v-6.16h-6.16v-6.16h6.16v-6.16h-18.48v6.16h6.16v6.16h-6.16v6.16h6.16v6.16h-6.16v6.15h6.16v6.16h-6.16v6.16h6.16v6.16h6.16v-6.16h6.16v6.16h6.16v-6.16h6.15v-6.16h-6.15ZM141.63,73.72v6.16h6.16v-6.16h-6.16ZM147.79,67.56v6.16h6.15v-6.16h-6.15Z" class="cls-2"/><rect height="6.16" width="6.16" y="110.67" x="123.15" class="cls-4"/><rect height="6.16" width="6.16" y="110.67" x="135.47" class="cls-4"/><rect height="6.16" width="6.15" y="110.67" x="147.79" class="cls-4"/><rect height="6.16" width="6.16" y="104.51" x="166.26" class="cls-4"/><rect height="6.16" width="6.16" y="104.51" x="153.94" class="cls-4"/><rect height="6.16" width="6.15" y="98.35" x="147.79" class="cls-4"/><rect height="6.16" width="6.16" y="98.35" x="135.47" class="cls-4"/><rect height="6.16" width="6.16" y="98.35" x="123.15" class="cls-4"/><rect height="6.16" width="6.16" y="86.04" x="123.15" class="cls-4"/><rect height="6.16" width="6.16" y="86.04" x="135.47" class="cls-4"/><rect height="6.16" width="6.16" y="79.88" x="141.63" class="cls-4"/><rect height="6.16" width="6.16" y="79.88" x="153.94" class="cls-4"/><rect height="6.16" width="6.15" y="86.04" x="147.79" class="cls-4"/><rect height="6.15" width="6.16" y="92.2" x="141.63" class="cls-4"/><rect height="6.15" width="6.16" y="92.2" x="153.94" class="cls-4"/><rect height="6.15" width="6.16" y="92.2" x="166.26" class="cls-4"/><rect height="6.16" width="6.16" y="79.88" x="166.26" class="cls-4"/><rect height="6.16" width="6.16" y="67.56" x="166.26" class="cls-4"/><rect height="6.16" width="6.16" y="67.56" x="153.94" class="cls-4"/><rect height="6.16" width="6.16" y="67.56" x="141.63" class="cls-4"/><g><rect height="6.16" width="6.16" y="67.56" x="123.15" class="cls-1"/><rect height="6.16" width="6.15" y="73.72" x="147.79" class="cls-3"/><rect height="6.16" width="6.16" y="73.72" x="141.63" class="cls-1"/><rect height="6.16" width="6.16" y="79.88" x="123.15" class="cls-1"/><rect height="6.16" width="6.16" y="86.04" x="141.63" class="cls-1"/><rect height="6.15" width="6.16" y="92.2" x="123.15" class="cls-1"/><rect height="6.16" width="6.16" y="98.35" x="141.63" class="cls-1"/><rect height="6.16" width="6.16" y="104.51" x="123.15" class="cls-1"/><rect height="6.16" width="6.16" y="110.67" x="141.63" class="cls-1"/><rect height="6.16" width="6.15" y="67.56" x="147.79" class="cls-1"/><rect height="6.16" width="6.15" y="79.88" x="147.79" class="cls-1"/><rect height="6.15" width="6.15" y="92.2" x="147.79" class="cls-1"/><rect height="6.16" width="6.15" y="104.51" x="147.79" class="cls-1"/><rect height="6.16" width="6.16" y="73.72" x="129.31" class="cls-1"/><rect height="6.16" width="6.16" y="86.04" x="129.31" class="cls-1"/><rect height="6.16" width="6.16" y="98.35" x="129.31" class="cls-1"/><rect height="6.16" width="6.16" y="110.67" x="129.31" class="cls-1"/><rect height="6.16" width="6.16" y="67.56" x="135.47" class="cls-1"/><rect height="6.16" width="6.16" y="79.88" x="135.47" class="cls-1"/><rect height="6.15" width="6.16" y="92.2" x="135.47" class="cls-1"/><rect height="6.16" width="6.16" y="104.51" x="135.47" class="cls-1"/><rect height="6.16" width="6.16" y="73.72" x="153.94" class="cls-1"/><rect height="6.16" width="6.16" y="86.04" x="153.94" class="cls-1"/><rect height="6.16" width="6.16" y="98.35" x="153.94" class="cls-1"/><rect height="6.16" width="6.16" y="110.67" x="153.94" class="cls-1"/><rect height="6.16" width="6.16" y="67.56" x="160.1" class="cls-1"/><rect height="6.16" width="6.16" y="79.88" x="160.1" class="cls-1"/><rect height="6.15" width="6.16" y="92.2" x="160.1" class="cls-1"/><rect height="6.16" width="6.16" y="104.51" x="160.1" class="cls-1"/><rect height="6.16" width="6.16" y="73.72" x="166.26" class="cls-1"/><rect height="6.16" width="6.16" y="86.04" x="166.26" class="cls-1"/><rect height="6.16" width="6.16" y="98.35" x="166.26" class="cls-1"/><rect height="6.16" width="6.16" y="110.67" x="166.26" class="cls-1"/></g><g><g><path d="M125.69,66.75v-.13h.84s-.06-.07-.09-.12c-.03-.05-.05-.1-.07-.14h.13c.03.07.08.14.13.19.05.05.1.09.14.12v.08h-1.07Z"/><path d="M131.97,66.95h-.13v-.71s.06,0,.09.02c.05.02.1.05.14.09.05.04.1.1.16.17.1.12.17.2.23.24.06.04.11.06.16.06.05,0,.1-.02.13-.06.04-.04.05-.09.05-.15,0-.06-.02-.11-.06-.15-.04-.04-.09-.06-.16-.06v-.14c.11,0,.19.04.24.1.05.06.08.14.08.24s-.03.18-.09.24c-.06.06-.13.09-.21.09-.04,0-.08,0-.13-.03-.04-.02-.08-.05-.13-.09-.05-.04-.11-.11-.19-.2-.07-.08-.11-.13-.13-.15-.02-.02-.05-.04-.07-.06v.52Z"/><path d="M138.29,66.26l.02.13c-.07.02-.13.04-.16.08-.03.04-.05.08-.05.13,0,.06.02.11.06.16.04.04.1.06.16.06s.11-.02.15-.06c.04-.04.06-.09.06-.15,0-.02,0-.06-.01-.09h.12s0,.03,0,.04c0,.06.01.11.04.15.03.04.07.07.14.07.05,0,.09-.02.12-.05.03-.03.05-.07.05-.13s-.02-.09-.05-.13c-.03-.03-.08-.06-.14-.07l.02-.13c.09.02.16.05.2.11.05.06.07.13.07.21,0,.06-.01.11-.04.16-.03.05-.06.09-.1.11-.04.03-.09.04-.14.04-.05,0-.09-.01-.13-.04-.04-.02-.07-.06-.09-.11-.01.06-.04.11-.09.15-.05.03-.1.05-.17.05-.09,0-.17-.03-.24-.1-.07-.07-.1-.15-.1-.26,0-.09.03-.17.08-.23.06-.06.13-.1.22-.11Z"/><path d="M144.17,66.65h.26v-.46h.12l.69.49v.11h-.69v.14h-.12v-.14h-.26v-.13h0ZM144.55,66.65h.48l-.48-.33v.33Z"/><path d="M150.61,66.26v.14c-.06.01-.11.03-.14.07-.03.04-.05.08-.05.13,0,.06.02.12.07.16.05.04.11.07.19.07s.13-.02.18-.06c.04-.04.07-.1.07-.17,0-.04,0-.08-.03-.11-.02-.03-.04-.06-.07-.08l.02-.12.55.1v.53h-.13v-.43l-.29-.06c.04.06.07.13.07.2,0,.09-.03.17-.1.24-.06.06-.15.1-.25.1s-.18-.03-.25-.08c-.09-.07-.13-.16-.13-.28,0-.1.03-.18.08-.24.05-.06.13-.1.22-.11Z"/><path d="M157.3,66.94v-.13s.08-.03.1-.05c.04-.04.06-.08.06-.13,0-.04-.01-.08-.04-.11-.03-.04-.07-.07-.13-.1-.06-.02-.14-.04-.25-.04.05.03.08.07.11.12.02.05.03.09.03.14,0,.09-.03.16-.1.22-.06.06-.15.09-.25.09-.07,0-.13-.01-.19-.04-.06-.03-.1-.07-.13-.12-.03-.05-.05-.11-.05-.17,0-.11.04-.2.12-.27.08-.07.21-.1.4-.1.21,0,.36.04.45.11.08.07.12.16.12.27,0,.08-.02.15-.07.21-.05.05-.11.09-.2.1h0ZM156.84,66.4s-.09,0-.13.03c-.04.02-.07.05-.09.08-.02.03-.03.07-.03.11,0,.06.02.1.07.14.04.04.11.06.18.06s.13-.02.17-.06c.04-.04.06-.09.06-.15s-.02-.11-.06-.15c-.04-.04-.1-.06-.17-.06Z"/><path d="M163.58,66.27h.13v.69h-.1c-.07-.07-.17-.14-.29-.2-.12-.07-.24-.12-.37-.15-.09-.03-.19-.04-.29-.05v-.14c.08,0,.19.02.31.05.12.03.23.08.34.14.11.06.2.12.28.19v-.52Z"/><path d="M169.39,66.46c.02-.05.05-.09.09-.12.04-.03.08-.04.13-.04.08,0,.14.03.2.08.05.06.08.13.08.22s-.03.17-.08.23c-.05.06-.12.09-.2.09-.05,0-.09-.01-.13-.04-.04-.03-.07-.07-.08-.12-.02.07-.06.12-.1.15-.05.03-.1.05-.17.05-.09,0-.17-.03-.23-.1-.06-.06-.09-.15-.09-.26s.03-.19.09-.26c.06-.06.14-.1.23-.1.07,0,.13.02.17.05.05.04.08.09.1.15h0ZM169.62,66.43c-.05,0-.09.02-.12.05-.03.03-.05.07-.05.13s.02.09.05.12c.03.03.07.05.12.05s.09-.02.12-.05c.03-.03.05-.07.05-.12s-.02-.09-.05-.12c-.03-.03-.07-.05-.12-.05h0ZM169.12,66.39s-.07,0-.11.03c-.04.02-.06.04-.08.08-.02.04-.03.07-.03.11,0,.06.02.11.06.16.04.04.09.06.15.06s.12-.02.16-.06.06-.09.06-.16-.02-.11-.06-.15c-.04-.04-.09-.06-.15-.06Z"/></g><g><path d="M121.66,70.08l1.07.41v.15l-1.07.44v-.16l.32-.12v-.45l-.32-.12v-.15h0ZM122.1,70.39v.36l.3-.11c.09-.03.16-.06.22-.08-.07-.01-.14-.03-.2-.06l-.31-.12Z"/><path d="M121.66,76.35h1.07v.4c0,.08-.01.15-.03.2-.02.05-.06.09-.1.12-.04.03-.09.04-.14.04-.05,0-.09-.01-.13-.04-.04-.02-.07-.06-.1-.11-.02.06-.05.11-.1.15-.05.03-.1.05-.16.05-.05,0-.1-.01-.14-.03-.04-.02-.08-.05-.1-.08-.02-.03-.04-.07-.05-.12-.01-.05-.02-.1-.02-.17v-.41h0ZM122.28,76.49v.23c0,.06,0,.11.01.14.01.04.03.06.05.08s.06.03.09.03c.04,0,.07,0,.09-.03.03-.02.05-.04.06-.07,0-.03.01-.09.01-.16v-.21h-.32ZM121.79,76.49v.27s0,.08,0,.1c0,.03.02.06.03.08.01.02.03.04.06.05.03.01.06.02.09.02.04,0,.07-.01.1-.03.03-.02.05-.05.06-.09.01-.04.02-.09.02-.16v-.25h-.37Z"/><path d="M122.04,83.3l-.04.14c-.12-.03-.2-.08-.27-.16-.06-.08-.09-.17-.09-.28s.02-.21.07-.28c.05-.07.12-.13.2-.16.09-.04.18-.06.29-.06.11,0,.21.02.29.06.08.04.15.1.19.18.04.08.06.16.06.26,0,.11-.03.2-.08.27-.05.07-.13.12-.23.15l-.03-.14c.08-.02.13-.06.17-.11.04-.05.05-.11.05-.18,0-.08-.02-.15-.06-.21-.04-.06-.09-.09-.16-.12-.07-.02-.13-.03-.21-.03-.09,0-.17.01-.24.04-.07.03-.12.07-.15.12-.03.06-.05.12-.05.18,0,.08.02.15.07.2.05.06.11.09.2.11Z"/><path d="M121.66,88.66h1.07v.37c0,.08,0,.15-.02.19-.01.06-.04.11-.08.16-.05.06-.11.1-.18.13-.07.03-.16.04-.25.04-.08,0-.15,0-.22-.03-.06-.02-.11-.04-.16-.07-.04-.03-.07-.06-.1-.1-.02-.04-.04-.08-.05-.13-.01-.05-.02-.11-.02-.17v-.39h0ZM121.79,88.81v.23c0,.07,0,.13.02.17.01.04.03.07.06.1.03.03.08.06.14.08.06.02.13.03.21.03.11,0,.2-.02.26-.06.06-.04.1-.08.12-.13.01-.04.02-.1.02-.18v-.22h-.82Z"/><polygon points="121.66 94.86 122.73 94.86 122.73 95.63 122.61 95.63 122.61 95 122.28 95 122.28 95.59 122.15 95.59 122.15 95 121.79 95 121.79 95.66 121.66 95.66 121.66 94.86"/><polygon points="121.66 101.12 122.73 101.12 122.73 101.84 122.61 101.84 122.61 101.26 122.27 101.26 122.27 101.76 122.15 101.76 122.15 101.26 121.66 101.26 121.66 101.12"/><path d="M122.08,107.64h.13v.45s-.4,0-.4,0c-.06-.07-.1-.14-.13-.22-.03-.07-.04-.15-.04-.23,0-.11.02-.2.07-.29.04-.09.11-.15.2-.19.09-.04.18-.07.29-.07s.2.02.29.07c.09.04.16.11.2.19.04.08.07.18.07.28,0,.08-.01.15-.04.21-.02.06-.06.11-.1.15-.04.04-.1.06-.18.08l-.04-.13c.05-.02.1-.04.13-.06.03-.02.06-.06.07-.1.02-.04.03-.09.03-.15,0-.06,0-.12-.03-.17-.02-.05-.05-.09-.08-.11-.03-.03-.07-.05-.11-.07-.07-.03-.14-.04-.22-.04-.1,0-.18.02-.24.05-.06.03-.11.08-.14.14-.03.06-.05.13-.05.2,0,.06.01.12.04.18.02.06.05.1.08.13h.2v-.31Z"/><polygon points="121.66 113.31 122.73 113.31 122.73 113.45 122.29 113.45 122.29 114 122.73 114 122.73 114.15 121.66 114.15 121.66 114 122.17 114 122.17 113.45 121.66 113.45 121.66 113.31"/></g></g><g><g><path d="M169.89,117.65v.13h-.84s.06.07.09.12c.03.05.05.1.07.14h-.13c-.03-.07-.08-.14-.13-.19-.05-.05-.1-.09-.14-.12v-.08h1.07Z"/><path d="M163.6,117.45h.13v.71s-.06,0-.09-.02c-.05-.02-.1-.05-.14-.09-.05-.04-.1-.1-.16-.17-.1-.12-.17-.19-.23-.24-.06-.04-.11-.06-.16-.06-.05,0-.1.02-.13.06-.04.04-.05.09-.05.15,0,.06.02.11.06.15.04.04.09.06.16.06v.14c-.11,0-.19-.04-.24-.1-.05-.06-.08-.14-.08-.24s.03-.18.09-.24c.06-.06.13-.09.21-.09.04,0,.08,0,.13.03.04.02.08.05.13.09.05.04.11.11.19.2.07.08.11.13.13.15.02.02.05.04.07.06v-.52Z"/><path d="M157.29,118.14l-.02-.13c.07-.02.13-.04.16-.08.03-.04.05-.08.05-.13,0-.06-.02-.11-.06-.16-.04-.04-.1-.06-.16-.06s-.11.02-.15.06c-.04.04-.06.09-.06.15,0,.02,0,.06.01.09h-.12s0-.03,0-.04c0-.06-.01-.11-.04-.15-.03-.04-.07-.07-.14-.07-.05,0-.09.02-.12.05-.03.03-.05.07-.05.13s.02.09.05.13c.03.03.08.06.14.07l-.02.13c-.09-.02-.16-.05-.2-.11-.05-.06-.07-.13-.07-.21,0-.06.01-.11.04-.16.03-.05.06-.09.1-.11.04-.03.09-.04.14-.04.05,0,.09.01.13.04.04.02.07.06.09.11.01-.06.04-.11.09-.15.05-.03.1-.05.17-.05.09,0,.17.03.24.1.07.07.1.15.1.26,0,.09-.03.17-.08.23-.06.06-.13.1-.22.11Z"/><path d="M151.4,117.75h-.26v.46h-.12l-.69-.49v-.11h.69v-.14h.12v.14h.26v.13h0ZM151.02,117.75h-.48l.48.33v-.33Z"/><path d="M144.96,118.14v-.14c.06-.01.11-.03.14-.07.03-.04.05-.08.05-.13,0-.06-.02-.12-.07-.16-.05-.04-.11-.07-.19-.07s-.13.02-.18.06c-.04.04-.07.1-.07.17,0,.04,0,.08.03.11.02.03.04.06.07.08l-.02.12-.55-.1v-.53h.13v.43l.29.06c-.04-.06-.07-.13-.07-.2,0-.09.03-.17.1-.24.06-.06.15-.1.25-.1s.18.03.25.08c.09.07.13.16.13.28,0,.1-.03.18-.08.24-.05.06-.13.1-.22.11Z"/><path d="M138.27,117.46v.13s-.08.03-.1.05c-.04.04-.06.08-.06.13,0,.04.01.08.04.11.03.04.07.07.13.1.06.02.14.04.25.04-.05-.03-.08-.07-.11-.12-.02-.05-.03-.09-.03-.14,0-.09.03-.16.1-.22.06-.06.15-.09.25-.09.07,0,.13.01.19.04.06.03.1.07.13.12.03.05.05.11.05.17,0,.11-.04.2-.12.27-.08.07-.21.1-.4.1-.21,0-.36-.04-.45-.11-.08-.07-.12-.16-.12-.27,0-.08.02-.15.07-.21.05-.05.11-.09.2-.1h0ZM138.73,118s.09,0,.13-.03c.04-.02.07-.05.09-.08.02-.03.03-.07.03-.11,0-.06-.02-.1-.07-.14-.04-.04-.11-.06-.18-.06s-.13.02-.17.06c-.04.04-.06.09-.06.15s.02.11.06.15c.04.04.1.06.17.06Z"/><path d="M131.99,118.14h-.13v-.69h.1c.07.07.17.14.29.2.12.07.24.12.37.15.09.03.19.04.29.05v.14c-.08,0-.19-.02-.31-.05-.12-.03-.23-.08-.34-.14-.11-.06-.2-.12-.28-.19v.52Z"/><path d="M126.18,117.94c-.02.05-.05.09-.09.12-.04.03-.08.04-.13.04-.08,0-.14-.03-.2-.08-.05-.06-.08-.13-.08-.22s.03-.17.08-.23c.05-.06.12-.09.2-.09.05,0,.09.01.13.04.04.03.07.07.08.12.02-.07.06-.12.1-.15.05-.03.1-.05.17-.05.09,0,.17.03.23.1.06.06.09.15.09.26s-.03.19-.09.26c-.06.06-.14.1-.23.1-.07,0-.13-.02-.17-.05-.05-.04-.08-.09-.1-.15h0ZM125.96,117.97c.05,0,.09-.02.12-.05.03-.03.05-.07.05-.13s-.02-.09-.05-.12c-.03-.03-.07-.05-.12-.05s-.09.02-.12.05c-.03.03-.05.07-.05.12s.02.09.05.12c.03.03.07.05.12.05h0ZM126.45,118.01s.07,0,.11-.03c.04-.02.06-.04.08-.08.02-.04.03-.07.03-.11,0-.06-.02-.11-.06-.16-.04-.04-.09-.06-.15-.06s-.12.02-.16.06c-.04.04-.06.09-.06.16s.02.11.06.15c.04.04.09.06.15.06Z"/></g><g><path d="M173.91,114.32l-1.07-.41v-.15l1.07-.44v.16l-.32.12v.45l.32.12v.15h0ZM173.47,114.01v-.36l-.3.11c-.09.03-.16.06-.22.08.07.01.14.03.2.06l.31.12Z"/><path d="M173.91,108.05h-1.07v-.4c0-.08.01-.15.03-.2.02-.05.06-.09.1-.12.04-.03.09-.04.14-.04.05,0,.09.01.13.04.04.02.07.06.1.11.02-.06.05-.11.1-.15.05-.03.1-.05.16-.05.05,0,.1.01.14.03.04.02.08.05.1.08s.04.07.05.12c.01.05.02.1.02.17v.41h0ZM173.29,107.91v-.23c0-.06,0-.11-.01-.14-.01-.04-.03-.06-.05-.08-.02-.02-.06-.03-.09-.03-.04,0-.07,0-.09.03-.03.02-.05.04-.06.07,0,.03-.01.09-.01.16v.21h.32ZM173.79,107.91v-.27s0-.08,0-.1c0-.03-.02-.06-.03-.08-.01-.02-.03-.04-.06-.05-.03-.01-.06-.02-.09-.02-.04,0-.07.01-.1.03-.03.02-.05.05-.06.09-.01.04-.02.09-.02.16v.25h.37Z"/><path d="M173.54,101.1l.04-.14c.12.03.2.08.27.16.06.08.09.17.09.28s-.02.21-.07.28c-.05.07-.12.13-.2.16-.09.04-.18.06-.29.06-.11,0-.21-.02-.29-.06-.08-.04-.15-.1-.19-.18-.04-.08-.06-.16-.06-.26,0-.11.03-.2.08-.27.05-.07.13-.12.23-.15l.03.14c-.08.02-.13.06-.17.11-.04.05-.05.11-.05.18,0,.08.02.15.06.21.04.06.09.09.16.12.07.02.13.03.21.03.09,0,.17-.01.24-.04.07-.03.12-.07.15-.12.03-.06.05-.12.05-.18,0-.08-.02-.15-.07-.2-.05-.06-.11-.09-.2-.11Z"/><path d="M173.91,95.74h-1.07v-.37c0-.08,0-.15.02-.19.01-.06.04-.11.08-.16.05-.06.11-.1.18-.13.07-.03.16-.04.25-.04.08,0,.15,0,.22.03.06.02.11.04.16.07.04.03.07.06.1.1.02.04.04.08.05.13.01.05.02.11.02.17v.39h0ZM173.79,95.59v-.23c0-.07,0-.13-.02-.17-.01-.04-.03-.07-.06-.1-.03-.03-.08-.06-.14-.08-.06-.02-.13-.03-.21-.03-.11,0-.2.02-.26.06-.06.04-.1.08-.12.13-.01.04-.02.1-.02.18v.22h.82Z"/><polygon points="173.91 89.54 172.84 89.54 172.84 88.77 172.97 88.77 172.97 89.4 173.3 89.4 173.3 88.81 173.42 88.81 173.42 89.4 173.79 89.4 173.79 88.75 173.91 88.75 173.91 89.54"/><polygon points="173.91 83.28 172.84 83.28 172.84 82.56 172.97 82.56 172.97 83.14 173.3 83.14 173.3 82.64 173.43 82.64 173.43 83.14 173.91 83.14 173.91 83.28"/><path d="M173.49,76.76h-.13v-.45s.4,0,.4,0c.06.07.1.14.13.22.03.07.04.15.04.23,0,.11-.02.2-.07.29-.04.09-.11.15-.2.19-.09.04-.18.07-.29.07s-.2-.02-.29-.07c-.09-.04-.16-.11-.2-.19-.04-.08-.07-.18-.07-.28,0-.08.01-.15.04-.21.02-.06.06-.11.1-.15.04-.04.1-.06.18-.08l.04.13c-.05.02-.1.04-.13.06-.03.02-.06.06-.07.1-.02.04-.03.09-.03.15,0,.06,0,.12.03.17.02.05.05.09.08.11.03.03.07.05.11.07.07.03.14.04.22.04.1,0,.18-.02.24-.05.06-.03.11-.08.14-.14.03-.06.05-.13.05-.2,0-.06-.01-.12-.04-.18-.02-.06-.05-.1-.08-.13h-.2v.31Z"/><polygon points="173.91 71.09 172.84 71.09 172.84 70.95 173.28 70.95 173.28 70.4 172.84 70.4 172.84 70.25 173.91 70.25 173.91 70.4 173.41 70.4 173.41 70.95 173.91 70.95 173.91 71.09"/></g></g></g></g></g></g></svg>