<svg viewBox="0 0 531.27 288" xmlns:xlink="http://www.w3.org/1999/xlink" xmlns="http://www.w3.org/2000/svg" id="Camada_2"><defs><style>.cls-1,.cls-2{fill:none;}.cls-3{fill:#12100c;}.cls-2{stroke:#12100c;stroke-linecap:round;stroke-linejoin:round;stroke-width:.3px;}</style><symbol viewBox="0 0 531.27 288" id="fundo_transparente"><rect height="288" width="531.27" x="0" class="cls-1"/></symbol></defs><g id="Nature"><g id="Centros_Cyclin_Portugal"><g id="e-bike_charger"><use xlink:href="#fundo_transparente" height="288" width="531.27"/><g id="LINE"><line y2="18.6" x2="28.7" y1="18.6" x1="64.86" class="cls-2"/><rect height="1.95" width=".3" y="17.63" x="64.71" class="cls-3"/><rect height="1.95" width=".3" y="17.63" x="28.54" class="cls-3"/></g><g id="MTEXT"><path d="M35.95,8.56v5.29h-.72v-4.54l-1.3.64v-.73l1.36-.67h.67Z"/><path d="M37.92,13.72c-.24-.12-.44-.29-.61-.51-.17-.22-.3-.5-.39-.82s-.14-.69-.14-1.09.05-.8.15-1.15c.1-.35.24-.64.43-.89.18-.25.41-.43.67-.56.26-.13.55-.2.88-.2.37,0,.7.09.97.27.27.18.47.43.59.76l-.64.29c-.07-.21-.18-.37-.34-.48-.16-.11-.35-.17-.56-.17-.2,0-.38.05-.55.14s-.31.23-.44.4c-.13.17-.22.37-.29.61s-.1.49-.1.77v.17c0,.06,0,.1,0,.15.08-.25.23-.45.45-.59.22-.14.48-.21.79-.21.24,0,.46.04.65.12.2.08.36.19.5.34.14.15.25.32.33.52.08.2.12.42.12.66s-.04.47-.13.68c-.08.21-.2.38-.35.53-.15.14-.32.26-.53.34s-.43.12-.68.12c-.3,0-.57-.06-.81-.18ZM39.09,13.15c.12-.05.22-.12.3-.21.08-.09.15-.19.2-.31.05-.12.07-.26.07-.41s-.02-.29-.07-.41c-.05-.12-.12-.23-.2-.32s-.19-.16-.31-.21-.25-.07-.4-.07-.27.02-.39.07-.22.12-.31.2c-.09.09-.15.19-.2.31-.05.12-.07.25-.07.4s.03.28.08.41.12.24.21.34.2.17.32.22c.12.05.26.08.4.08s.26-.03.38-.08Z"/><path d="M43.89,8.7c.25.13.47.32.65.55.18.23.32.52.42.85.1.33.15.69.15,1.08s-.05.76-.15,1.1-.24.62-.42.86c-.18.24-.4.43-.65.56-.25.13-.52.2-.83.2s-.57-.07-.82-.2-.47-.32-.65-.56c-.18-.24-.32-.53-.42-.86-.1-.33-.15-.7-.15-1.1s.05-.75.15-1.08c.1-.33.24-.61.42-.85.18-.24.4-.42.65-.55.25-.13.53-.2.83-.2s.58.07.83.2ZM42.53,9.34c-.16.1-.29.23-.41.41-.11.18-.2.38-.27.63-.07.24-.1.51-.1.81s.03.57.09.82c.06.25.15.46.27.64.12.18.25.32.41.42.16.1.33.15.52.15s.37-.05.53-.15c.16-.1.3-.24.41-.42.11-.18.2-.39.27-.64.06-.25.09-.52.09-.82s-.03-.56-.09-.81c-.06-.25-.15-.46-.26-.63-.11-.17-.25-.31-.41-.41-.16-.1-.34-.15-.53-.15s-.37.05-.52.15Z"/><path d="M48.72,10.2v.67c.11-.24.26-.42.45-.54.18-.12.4-.18.63-.18.26,0,.48.07.67.2.19.14.32.33.41.59.11-.26.27-.45.46-.59.2-.14.43-.2.7-.2.38,0,.67.12.88.37.21.25.31.61.31,1.07v2.25h-.7v-2.16c0-.29-.07-.52-.2-.69-.13-.17-.31-.25-.54-.25-.12,0-.22.02-.32.07-.1.05-.18.11-.26.2-.07.09-.13.19-.16.32-.04.12-.06.26-.06.4v2.11h-.7v-2.16c0-.14-.02-.27-.06-.38-.04-.12-.09-.22-.15-.3-.06-.08-.14-.14-.23-.19-.09-.04-.2-.07-.31-.07s-.22.02-.32.07c-.1.05-.18.12-.25.21-.07.09-.12.2-.17.32-.04.12-.06.26-.06.41v2.09h-.7v-3.64h.68Z"/><path d="M54.9,10.2v.67c.11-.24.26-.42.45-.54.18-.12.4-.18.63-.18.26,0,.48.07.67.2.19.14.32.33.41.59.11-.26.27-.45.46-.59.2-.14.43-.2.7-.2.38,0,.67.12.88.37.21.25.31.61.31,1.07v2.25h-.7v-2.16c0-.29-.07-.52-.2-.69-.13-.17-.31-.25-.54-.25-.12,0-.22.02-.32.07-.1.05-.18.11-.26.2-.07.09-.13.19-.16.32-.04.12-.06.26-.06.4v2.11h-.7v-2.16c0-.14-.02-.27-.06-.38-.04-.12-.09-.22-.15-.3-.06-.08-.14-.14-.23-.19-.09-.04-.2-.07-.31-.07s-.22.02-.32.07c-.1.05-.18.12-.25.21-.07.09-.12.2-.17.32-.04.12-.06.26-.06.41v2.09h-.7v-3.64h.68Z"/></g><g id="LINE-2"><line y2="32.7" x2="14.37" y1="60.2" x1="14.37" class="cls-2"/><rect height=".3" width="1.95" y="60.05" x="13.4" class="cls-3"/><rect height=".3" width="1.95" y="32.55" x="13.4" class="cls-3"/></g><g id="MTEXT-2"><path d="M4.33,57.18h5.29v.72h-4.54l.64,1.3h-.73l-.67-1.36v-.67Z"/><path d="M4.39,53.99c.08-.21.19-.39.33-.54.14-.15.31-.27.51-.35.2-.08.42-.13.67-.13.14,0,.28.02.42.05.14.03.28.08.41.15.14.07.27.16.42.27.14.11.29.24.45.39l1.35,1.31v-2.29h.67v3.32h-.59l-1.85-1.79c-.12-.12-.23-.22-.33-.3-.1-.08-.21-.15-.3-.2-.1-.05-.19-.09-.29-.11-.09-.02-.19-.03-.29-.03-.15,0-.28.02-.4.07-.12.04-.23.11-.32.2-.09.09-.16.19-.21.3-.05.11-.07.24-.07.39,0,.25.08.47.23.65.15.18.36.31.63.39l-.23.67c-.42-.12-.74-.32-.97-.62s-.34-.66-.34-1.1c0-.25.04-.48.12-.69Z"/><path d="M4.47,49.45c.13-.25.32-.47.55-.65.23-.18.52-.32.85-.42.33-.1.69-.15,1.08-.15s.76.05,1.1.15.62.24.86.42c.24.18.43.4.56.65.13.25.2.52.2.83s-.07.57-.2.82-.32.47-.56.65c-.24.18-.53.32-.86.42-.33.1-.7.15-1.1.15s-.75-.05-1.08-.15c-.33-.1-.61-.24-.85-.42-.24-.18-.42-.4-.55-.65-.13-.25-.2-.53-.2-.83s.07-.58.2-.83ZM5.1,50.8c.1.16.23.29.41.41.18.11.38.2.63.27.24.07.51.1.81.1s.57-.03.82-.09c.25-.06.46-.15.64-.27.18-.12.32-.25.42-.41.1-.16.15-.33.15-.52s-.05-.37-.15-.53c-.1-.16-.24-.3-.42-.41-.18-.11-.39-.2-.64-.27-.25-.06-.52-.09-.82-.09s-.56.03-.81.09c-.25.06-.46.15-.63.26-.17.11-.31.25-.41.41-.1.16-.15.34-.15.53s.05.37.15.52Z"/><path d="M5.97,44.62h.67c-.24-.11-.42-.26-.54-.45-.12-.18-.18-.4-.18-.63,0-.26.07-.48.2-.67.14-.19.33-.32.59-.41-.26-.11-.45-.27-.59-.46-.14-.2-.2-.43-.2-.7,0-.38.12-.67.37-.88.25-.21.61-.31,1.07-.31h2.25v.7h-2.16c-.29,0-.52.07-.69.2-.17.13-.25.31-.25.54,0,.12.02.22.07.32.05.1.11.18.2.26.09.07.19.13.32.16.12.04.26.06.4.06h2.11v.7h-2.16c-.14,0-.27.02-.38.06-.12.04-.22.09-.3.15-.08.06-.14.14-.19.23-.04.09-.07.2-.07.31s.02.22.07.32c.05.1.12.18.21.25.09.07.2.12.32.17.12.04.26.06.41.06h2.09v.7h-3.64v-.68Z"/><path d="M5.97,38.43h.67c-.24-.11-.42-.26-.54-.45-.12-.18-.18-.4-.18-.63,0-.26.07-.48.2-.67.14-.19.33-.32.59-.41-.26-.11-.45-.27-.59-.46-.14-.2-.2-.43-.2-.7,0-.38.12-.67.37-.88.25-.21.61-.31,1.07-.31h2.25v.7h-2.16c-.29,0-.52.07-.69.2-.17.13-.25.31-.25.54,0,.12.02.22.07.32.05.1.11.18.2.26.09.07.19.13.32.16.12.04.26.06.4.06h2.11v.7h-2.16c-.14,0-.27.02-.38.06-.12.04-.22.09-.3.15-.08.06-.14.14-.19.23-.04.09-.07.2-.07.31s.02.22.07.32c.05.1.12.18.21.25.09.07.2.12.32.17.12.04.26.06.41.06h2.09v.7h-3.64v-.68Z"/></g><g id="LINE-3"><line y2="102.79" x2="14.37" y1="284.82" x1="14.37" class="cls-2"/><rect height=".3" width="1.95" y="284.67" x="13.4" class="cls-3"/><rect height=".3" width="1.95" y="102.64" x="13.4" class="cls-3"/></g><g id="MTEXT-3"><path d="M9.56,206.41c-.07.22-.17.4-.31.56-.13.15-.29.28-.47.36s-.38.13-.6.13c-.16,0-.31-.02-.45-.07-.15-.05-.28-.11-.4-.2-.12-.09-.22-.19-.3-.31s-.14-.25-.18-.4c-.05.14-.12.25-.2.36-.08.1-.17.19-.27.27s-.21.13-.33.17c-.12.04-.25.06-.38.06-.21,0-.39-.04-.56-.12-.17-.08-.32-.2-.44-.34-.13-.14-.22-.32-.29-.52-.07-.2-.1-.42-.1-.66s.03-.46.1-.66c.07-.2.17-.37.29-.52.12-.15.27-.26.44-.35.17-.08.36-.13.57-.13.13,0,.26.02.38.06.12.04.24.1.34.17.1.07.19.16.27.27.08.1.14.22.19.35.04-.15.1-.28.18-.4s.19-.22.31-.3c.12-.08.25-.15.4-.2.14-.05.29-.07.45-.07.21,0,.41.04.6.13.18.09.34.21.47.36.13.15.24.34.31.56.07.22.11.46.11.72s-.04.5-.11.72ZM5,206.05c.04.11.09.2.16.28.07.08.15.14.26.18s.21.07.33.07c.11,0,.22-.02.32-.07.1-.04.19-.11.26-.19.07-.08.13-.17.17-.28s.06-.23.06-.35-.02-.25-.06-.35c-.04-.1-.1-.2-.17-.28s-.16-.14-.26-.19c-.1-.04-.21-.07-.32-.07-.12,0-.23.02-.33.07-.1.04-.19.11-.26.19-.07.08-.12.17-.16.28-.04.11-.06.23-.06.36s.02.24.06.35ZM8.93,205.28c-.04-.13-.11-.23-.19-.32-.08-.09-.18-.16-.29-.21-.11-.05-.24-.08-.37-.08s-.26.03-.37.08c-.11.05-.21.12-.29.21-.08.09-.15.2-.2.33-.05.13-.07.26-.07.41s.02.28.07.41c.04.13.11.23.19.33s.18.16.3.21c.11.05.24.07.37.07.14,0,.27-.02.38-.07.11-.05.21-.12.29-.21.08-.09.14-.2.19-.33.04-.13.07-.26.07-.41s-.02-.29-.07-.41Z"/><path d="M4.47,200.5c.13-.25.32-.47.55-.65.23-.18.52-.32.85-.42.33-.1.69-.15,1.08-.15s.76.05,1.1.15.62.24.86.42c.24.18.43.4.56.65.13.25.2.52.2.83s-.07.57-.2.82-.32.47-.56.65c-.24.18-.53.32-.86.42-.33.1-.7.15-1.1.15s-.75-.05-1.08-.15c-.33-.1-.61-.24-.85-.42-.24-.18-.42-.4-.55-.65-.13-.25-.2-.53-.2-.83s.07-.58.2-.83ZM5.1,201.86c.1.16.23.29.41.41.18.11.38.2.63.27.24.07.51.1.81.1s.57-.03.82-.09c.25-.06.46-.15.64-.27.18-.12.32-.25.42-.41.1-.16.15-.33.15-.52s-.05-.37-.15-.53c-.1-.16-.24-.3-.42-.41-.18-.11-.39-.2-.64-.27-.25-.06-.52-.09-.82-.09s-.56.03-.81.09c-.25.06-.46.15-.63.26-.17.11-.31.25-.41.41-.1.16-.15.34-.15.53s.05.37.15.52Z"/><path d="M4.47,195.87c.13-.25.32-.47.55-.65.23-.18.52-.32.85-.42.33-.1.69-.15,1.08-.15s.76.05,1.1.15.62.24.86.42c.24.18.43.4.56.65.13.25.2.52.2.83s-.07.57-.2.82-.32.47-.56.65c-.24.18-.53.32-.86.42-.33.1-.7.15-1.1.15s-.75-.05-1.08-.15c-.33-.1-.61-.24-.85-.42-.24-.18-.42-.4-.55-.65-.13-.25-.2-.53-.2-.83s.07-.58.2-.83ZM5.1,197.22c.1.16.23.29.41.41.18.11.38.2.63.27.24.07.51.1.81.1s.57-.03.82-.09c.25-.06.46-.15.64-.27.18-.12.32-.25.42-.41.1-.16.15-.33.15-.52s-.05-.37-.15-.53c-.1-.16-.24-.3-.42-.41-.18-.11-.39-.2-.64-.27-.25-.06-.52-.09-.82-.09s-.56.03-.81.09c-.25.06-.46.15-.63.26-.17.11-.31.25-.41.41-.1.16-.15.34-.15.53s.05.37.15.52Z"/><path d="M5.97,191.04h.67c-.24-.11-.42-.26-.54-.45-.12-.18-.18-.4-.18-.63,0-.26.07-.48.2-.67.14-.19.33-.32.59-.41-.26-.11-.45-.27-.59-.46-.14-.2-.2-.43-.2-.7,0-.38.12-.67.37-.88.25-.21.61-.31,1.07-.31h2.25v.7h-2.16c-.29,0-.52.07-.69.2-.17.13-.25.31-.25.54,0,.12.02.22.07.32.05.1.11.18.2.26.09.07.19.13.32.16.12.04.26.06.4.06h2.11v.7h-2.16c-.14,0-.27.02-.38.06-.12.04-.22.09-.3.15-.08.06-.14.14-.19.23-.04.09-.07.2-.07.31s.02.22.07.32c.05.1.12.18.21.25.09.07.2.12.32.17.12.04.26.06.41.06h2.09v.7h-3.64v-.68Z"/><path d="M5.97,184.85h.67c-.24-.11-.42-.26-.54-.45-.12-.18-.18-.4-.18-.63,0-.26.07-.48.2-.67.14-.19.33-.32.59-.41-.26-.11-.45-.27-.59-.46-.14-.2-.2-.43-.2-.7,0-.38.12-.67.37-.88.25-.21.61-.31,1.07-.31h2.25v.7h-2.16c-.29,0-.52.07-.69.2-.17.13-.25.31-.25.54,0,.12.02.22.07.32.05.1.11.18.2.26.09.07.19.13.32.16.12.04.26.06.4.06h2.11v.7h-2.16c-.14,0-.27.02-.38.06-.12.04-.22.09-.3.15-.08.06-.14.14-.19.23-.04.09-.07.2-.07.31s.02.22.07.32c.05.1.12.18.21.25.09.07.2.12.32.17.12.04.26.06.41.06h2.09v.7h-3.64v-.68Z"/></g><rect ry="1.14" rx="1.14" height="27.35" width="36.46" y="32.78" x="28.55" class="cls-2"/><polygon points="109.08 125.4 110.69 124.52 110.69 134.78 107.78 133.7 109.08 125.4" class="cls-2"/><polygon points="109.08 137.6 110.69 136.72 110.69 146.97 107.78 145.89 109.08 137.6" class="cls-2"/><line y2="145.77" x2="107.54" y1="137.5" x1="108.83" class="cls-2"/><path d="M110.04,137.41c.12.32-.05.68-.38.8-.32.12-.68-.05-.8-.38-.12-.32.05-.68.38-.8.32-.12.68.05.8.38Z" class="cls-2"/><path d="M112.04,102.68h24.98c.65,0,1.18.53,1.18,1.18v181.1h-27.35V103.86c0-.65.53-1.18,1.18-1.18Z" class="cls-2"/><line y2="133.6" x2="107.53" y1="125.3" x1="108.88" class="cls-2"/><path d="M110.09,125.21c.12.32-.05.68-.38.8-.32.12-.68-.05-.8-.38-.12-.32.05-.68.38-.8.32-.12.68.05.8.38Z" class="cls-2"/><polygon points="139.95 125.4 138.34 124.52 138.34 134.78 141.25 133.7 139.95 125.4" class="cls-2"/><polygon points="139.95 137.6 138.34 136.72 138.34 146.97 141.25 145.89 139.95 137.6" class="cls-2"/><line y2="145.76" x2="141.43" y1="137.5" x1="140.2" class="cls-2"/><path d="M138.99,137.41c-.12.32.05.68.38.8.32.12.68-.05.8-.38.12-.32-.05-.68-.38-.8-.32-.12-.68.05-.8.38Z" class="cls-2"/><line y2="133.6" x2="141.5" y1="125.3" x1="140.16" class="cls-2"/><path d="M138.94,125.21c-.12.32.05.68.38.8.32.12.68-.05.8-.38.12-.32-.05-.68-.38-.8-.32-.12-.68.05-.8.38Z" class="cls-2"/><path d="M29.73,102.64h34.1c.65,0,1.18.53,1.18,1.18v181.14H28.55V103.83c0-.65.53-1.18,1.18-1.18Z" class="cls-2"/><rect transform="translate(190.35 97.03) rotate(90)" ry="1.95" rx="1.95" height="27.27" width="68.16" y="130.06" x="12.58" class="cls-2"/><path d="M51.7,125.99c-.32,0-.63.05-.92.14l-.98-2.36h.45c.14,0,.25-.11.25-.25s-.11-.25-.25-.25h-.82c-.08,0-.16.04-.21.11-.03.04-.04.09-.04.14,0,.03,0,.06.02.09l.51,1.22h-3.67l-.44-1.07h.4c.14,0,.25-.11.25-.25s-.11-.25-.25-.25h-1.26c-.14,0-.25.11-.25.25s.11.25.25.25h.32l.53,1.28-.87,1.31c-.43-.24-.93-.38-1.46-.38-.98,0-1.85.47-2.4,1.2v-2.6c.93-.15,1.64-.95,1.64-1.91v-1.26c0-.18-.15-.33-.33-.33h-.6v-1.3c0-.17-.14-.3-.3-.3s-.3.14-.3.3v1.3h-.81v-1.3c0-.17-.14-.3-.3-.3s-.3.14-.3.3v1.3h-.6c-.18,0-.33.15-.33.33v1.26c0,.97.71,1.77,1.64,1.91v4.44s0,.04,0,.07c.06,1.6,1.38,2.89,2.99,2.89s2.83-1.19,2.98-2.7h1.24s0,0,0,0c.03,0,.07,0,.1-.02.07-.03.12-.09.14-.15l2.3-3.5.29.71c-.96.5-1.62,1.5-1.62,2.66,0,1.65,1.34,3,3,3s3-1.34,3-3-1.34-3-3-3ZM43.26,131.37c-1.32,0-2.39-1.07-2.39-2.39s1.07-2.39,2.39-2.39c.41,0,.79.1,1.13.28l-1.34,2.02s-.04.09-.04.14c0,.04,0,.08.03.12.04.08.13.13.22.13h2.37c-.15,1.18-1.15,2.09-2.37,2.09ZM43.72,128.79l1.08-1.63c.47.4.79.98.84,1.63h-1.92ZM46.25,128.79c-.06-.86-.48-1.63-1.12-2.14l.68-1.03.59,1.45.71,1.73h-.86ZM47.54,128.5l-1.3-3.16h3.38l-2.08,3.16ZM51.7,131.37c-1.32,0-2.39-1.07-2.39-2.39,0-.9.51-1.69,1.25-2.1l.93,2.25c.05.13.2.19.32.13.13-.05.19-.2.13-.32l-.93-2.25c.22-.07.45-.1.69-.1,1.32,0,2.39,1.07,2.39,2.39s-1.07,2.39-2.39,2.39Z" class="cls-3"/><rect transform="translate(93.32 303.86) rotate(180)" ry="1.08" rx="1.08" height="34.08" width="18.18" y="134.89" x="37.57" class="cls-2"/><rect transform="translate(93.32 287.96) rotate(180)" ry=".59" rx=".59" height="13.63" width="13.63" y="137.16" x="39.84" class="cls-2"/><rect transform="translate(93.32 319.77) rotate(180)" ry=".59" rx=".59" height="13.63" width="13.63" y="153.07" x="39.84" class="cls-2"/><path d="M48.27,138.4v-.74c0-.26-.21-.46-.46-.46h-2.3c-.26,0-.46.21-.46.46v.74c0,.2-.13.37-.31.44-2.21.8-3.78,2.95-3.72,5.46.08,2.99,2.52,5.42,5.5,5.49,3.18.08,5.78-2.48,5.78-5.64,0-2.44-1.55-4.52-3.72-5.31-.18-.07-.31-.24-.31-.44Z" class="cls-2"/><path d="M48.27,154.27v-.74c0-.26-.21-.46-.46-.46h-2.3c-.26,0-.46.21-.46.46v.74c0,.2-.13.37-.31.44-2.21.8-3.78,2.95-3.72,5.46.08,2.99,2.52,5.42,5.5,5.49,3.18.08,5.78-2.48,5.78-5.64,0-2.44-1.55-4.52-3.72-5.31-.18-.07-.31-.24-.31-.44Z" class="cls-2"/><circle r=".68" cy="111.77" cx="58.14" class="cls-2"/><circle r=".68" cy="111.77" cx="35.42" class="cls-2"/><circle r=".68" cy="175.5" cx="58.14" class="cls-2"/><circle r=".68" cy="175.5" cx="35.42" class="cls-2"/></g></g></g></svg>