<svg viewBox="0 0 531.27 288" xmlns:xlink="http://www.w3.org/1999/xlink" xmlns="http://www.w3.org/2000/svg" id="Camada_2"><defs><style>.cls-1,.cls-2{fill:none;}.cls-3{fill:#12100c;}.cls-2{stroke:#12100c;stroke-linecap:round;stroke-linejoin:round;stroke-width:.3px;}</style><symbol viewBox="0 0 531.27 288" id="fundo_transparente"><rect height="288" width="531.27" x="0" class="cls-1"/></symbol></defs><g id="RePlastic"><g id="deck_apoiado_ao_solo_2500_mm"><use xlink:href="#fundo_transparente" height="288" width="531.27"/><g id="LINE"><line y2="104.56" x2="14.28" y1="281.72" x1="14.28" class="cls-2"/><rect height=".3" width="1.95" y="281.57" x="13.3" class="cls-3"/><rect height=".3" width="1.95" y="104.41" x="13.3" class="cls-3"/></g><g id="MTEXT"><path d="M4.3,206.41c.08-.21.19-.39.33-.54.14-.15.31-.27.51-.35.2-.08.42-.13.67-.13.14,0,.28.02.42.05s.28.08.41.15.27.16.42.27c.14.11.29.24.45.39l1.35,1.31v-2.29h.67v3.32h-.59l-1.85-1.79c-.12-.12-.23-.22-.33-.3-.1-.08-.21-.15-.3-.2-.1-.05-.19-.09-.29-.11-.09-.02-.19-.03-.29-.03-.15,0-.28.02-.4.07-.12.04-.23.11-.32.2-.09.09-.16.19-.21.3-.05.11-.07.24-.07.39,0,.25.08.47.23.65.15.18.36.31.63.39l-.23.67c-.42-.12-.75-.32-.97-.62s-.34-.66-.34-1.1c0-.25.04-.48.12-.69Z"/><path d="M4.23,201.62h.65v1.92l1.54.25c-.09-.1-.16-.22-.21-.36-.05-.14-.07-.29-.07-.46,0-.25.04-.47.13-.68.08-.21.2-.38.35-.53.15-.15.33-.27.54-.35.21-.08.44-.12.69-.12s.48.04.7.13c.21.09.4.21.55.36s.27.34.36.56c.08.21.13.45.13.71,0,.2-.03.39-.08.58-.05.18-.13.35-.23.5-.1.15-.22.28-.36.39-.14.11-.3.19-.48.24l-.31-.63c.24-.07.43-.19.56-.39.14-.19.21-.42.21-.67,0-.15-.03-.29-.08-.41-.05-.13-.12-.23-.21-.33-.09-.09-.2-.16-.33-.21-.13-.05-.27-.08-.43-.08s-.3.03-.44.08-.25.13-.34.22-.17.21-.22.34c-.05.13-.08.28-.08.44,0,.18.04.35.1.49.07.14.17.26.31.36l-.15.62-2.79-.47v-2.52Z"/><path d="M4.38,197.88c.13-.25.32-.47.55-.65.23-.18.52-.32.85-.42.33-.1.69-.15,1.08-.15s.76.05,1.1.15c.33.1.62.24.86.42s.43.4.56.65c.13.25.2.52.2.83s-.07.57-.2.82-.32.47-.56.65c-.24.18-.53.32-.86.42-.33.1-.7.15-1.1.15s-.75-.05-1.08-.15c-.33-.1-.61-.24-.85-.42-.24-.18-.42-.4-.55-.65-.13-.25-.2-.53-.2-.83s.07-.58.2-.83ZM5.01,199.23c.1.16.23.29.41.41.18.11.38.2.63.27.24.07.51.1.8.1s.57-.03.82-.09c.25-.06.46-.15.64-.27.18-.12.32-.25.42-.41.1-.16.15-.33.15-.52s-.05-.37-.15-.53c-.1-.16-.24-.3-.42-.41-.18-.11-.39-.2-.64-.27-.25-.06-.52-.09-.82-.09s-.56.03-.81.09c-.25.06-.46.15-.63.26-.17.11-.31.25-.41.41-.1.16-.15.34-.15.53s.05.37.15.52Z"/><path d="M4.38,193.24c.13-.25.32-.47.55-.65.23-.18.52-.32.85-.42.33-.1.69-.15,1.08-.15s.76.05,1.1.15c.33.1.62.24.86.42s.43.4.56.65c.13.25.2.52.2.83s-.07.57-.2.82-.32.47-.56.65c-.24.18-.53.32-.86.42-.33.1-.7.15-1.1.15s-.75-.05-1.08-.15c-.33-.1-.61-.24-.85-.42-.24-.18-.42-.4-.55-.65-.13-.25-.2-.53-.2-.83s.07-.58.2-.83ZM5.01,194.59c.1.16.23.29.41.41.18.11.38.2.63.27.24.07.51.1.8.1s.57-.03.82-.09c.25-.06.46-.15.64-.27.18-.12.32-.25.42-.41.1-.16.15-.33.15-.52s-.05-.37-.15-.53c-.1-.16-.24-.3-.42-.41-.18-.11-.39-.2-.64-.27-.25-.06-.52-.09-.82-.09s-.56.03-.81.09c-.25.06-.46.15-.63.26-.17.11-.31.25-.41.41-.1.16-.15.34-.15.53s.05.37.15.52Z"/><path d="M5.88,188.41h.67c-.24-.11-.42-.26-.54-.45s-.18-.4-.18-.63c0-.26.07-.48.2-.67.14-.19.33-.32.59-.41-.26-.11-.45-.27-.59-.46-.13-.2-.2-.43-.2-.7,0-.38.12-.67.37-.88s.61-.31,1.07-.31h2.25v.7h-2.16c-.29,0-.52.07-.69.2-.17.13-.25.31-.25.54,0,.12.02.22.07.32.05.1.11.18.2.26.09.07.2.13.32.16.12.04.26.06.4.06h2.11v.7h-2.16c-.14,0-.27.02-.38.06-.12.04-.22.09-.3.15-.08.06-.14.14-.19.23-.04.09-.07.2-.07.31s.02.22.07.32c.05.1.12.18.21.25s.2.12.32.17c.12.04.26.06.41.06h2.09v.7h-3.64v-.68Z"/><path d="M5.88,182.23h.67c-.24-.11-.42-.26-.54-.45s-.18-.4-.18-.63c0-.26.07-.48.2-.67.14-.19.33-.32.59-.41-.26-.11-.45-.27-.59-.46-.13-.2-.2-.43-.2-.7,0-.38.12-.67.37-.88s.61-.31,1.07-.31h2.25v.7h-2.16c-.29,0-.52.07-.69.2-.17.13-.25.31-.25.54,0,.12.02.22.07.32.05.1.11.18.2.26.09.07.2.13.32.16.12.04.26.06.4.06h2.11v.7h-2.16c-.14,0-.27.02-.38.06-.12.04-.22.09-.3.15-.08.06-.14.14-.19.23-.04.09-.07.2-.07.31s.02.22.07.32c.05.1.12.18.21.25s.2.12.32.17c.12.04.26.06.41.06h2.09v.7h-3.64v-.68Z"/></g><rect height="8.55" width="207.27" y="53.59" x="28.45" class="cls-2"/><line y2="61.98" x2="32.58" y1="53.59" x1="32.58" class="cls-2"/><line y2="61.98" x2="231.4" y1="53.59" x1="231.4" class="cls-2"/><path d="M41.85,50.78h-.65v.02c0,.19-.13.34-.3.34-.15,0-.27-.14-.27-.34v-.02h-.45v.02c0,.19-.13.34-.27.34-.18,0-.3-.14-.3-.34v-.02h-.42v.02c0,.19-.13.34-.28.34s-.3-.14-.3-.34v-.02h-.43v.02c0,.19-.12.34-.3.34-.15,0-.28-.14-.28-.34v-.02h-.4v.02c0,.19-.13.34-.28.34-.17,0-.3-.14-.3-.34v-.02h-.47v.02c0,.19-.13.34-.28.34-.17,0-.3-.14-.3-.34v-.02h-.38v.02c0,.19-.15.34-.3.34s-.28-.14-.28-.34v-.02h-.47v.02c0,.19-.13.34-.27.34s-.28-.14-.28-.34v-.02h-.45v.02c0,.19-.13.34-.28.34-.18,0-.3-.14-.3-.34v-.02h-.48v.02c0,.19-.13.34-.27.34-.18,0-.3-.14-.3-.34v-.02h-.42v.02c0,.19-.13.34-.28.34-.17,0-.3-.14-.3-.34v-.02h-.43v.02c0,.19-.12.34-.3.34-.15,0-.28-.14-.28-.34v-.02h-.55c-.3,0-.52.24-.52.51v2.29h13.9v-2.29c0-.27-.23-.51-.5-.51Z" class="cls-2"/><path d="M56.63,50.78h-.65v.02c0,.19-.13.34-.3.34-.15,0-.27-.14-.27-.34v-.02h-.45v.02c0,.19-.13.34-.27.34-.18,0-.3-.14-.3-.34v-.02h-.42v.02c0,.19-.13.34-.28.34s-.3-.14-.3-.34v-.02h-.43v.02c0,.19-.12.34-.3.34-.15,0-.28-.14-.28-.34v-.02h-.4v.02c0,.19-.13.34-.28.34-.17,0-.3-.14-.3-.34v-.02h-.47v.02c0,.19-.13.34-.28.34-.17,0-.3-.14-.3-.34v-.02h-.38v.02c0,.19-.15.34-.3.34s-.28-.14-.28-.34v-.02h-.47v.02c0,.19-.13.34-.27.34s-.28-.14-.28-.34v-.02h-.45v.02c0,.19-.13.34-.28.34-.18,0-.3-.14-.3-.34v-.02h-.48v.02c0,.19-.13.34-.27.34-.18,0-.3-.14-.3-.34v-.02h-.42v.02c0,.19-.13.34-.28.34-.17,0-.3-.14-.3-.34v-.02h-.43v.02c0,.19-.12.34-.3.34-.15,0-.28-.14-.28-.34v-.02h-.55c-.3,0-.52.24-.52.51v2.29h13.9v-2.29c0-.27-.23-.51-.5-.51Z" class="cls-2"/><path d="M71.61,50.78h-.65v.02c0,.19-.13.34-.3.34-.15,0-.27-.14-.27-.34v-.02h-.45v.02c0,.19-.13.34-.27.34-.18,0-.3-.14-.3-.34v-.02h-.42v.02c0,.19-.13.34-.28.34s-.3-.14-.3-.34v-.02h-.43v.02c0,.19-.12.34-.3.34-.15,0-.28-.14-.28-.34v-.02h-.4v.02c0,.19-.13.34-.28.34-.17,0-.3-.14-.3-.34v-.02h-.47v.02c0,.19-.13.34-.28.34-.17,0-.3-.14-.3-.34v-.02h-.38v.02c0,.19-.15.34-.3.34s-.28-.14-.28-.34v-.02h-.47v.02c0,.19-.13.34-.27.34s-.28-.14-.28-.34v-.02h-.45v.02c0,.19-.13.34-.28.34-.18,0-.3-.14-.3-.34v-.02h-.48v.02c0,.19-.13.34-.27.34-.18,0-.3-.14-.3-.34v-.02h-.42v.02c0,.19-.13.34-.28.34-.17,0-.3-.14-.3-.34v-.02h-.43v.02c0,.19-.12.34-.3.34-.15,0-.28-.14-.28-.34v-.02h-.55c-.3,0-.52.24-.52.51v2.29h13.9v-2.29c0-.27-.23-.51-.5-.51Z" class="cls-2"/><path d="M86.46,50.78h-.65v.02c0,.19-.13.34-.3.34-.15,0-.27-.14-.27-.34v-.02h-.45v.02c0,.19-.13.34-.27.34-.18,0-.3-.14-.3-.34v-.02h-.42v.02c0,.19-.13.34-.28.34s-.3-.14-.3-.34v-.02h-.43v.02c0,.19-.12.34-.3.34-.15,0-.28-.14-.28-.34v-.02h-.4v.02c0,.19-.13.34-.28.34-.17,0-.3-.14-.3-.34v-.02h-.47v.02c0,.19-.13.34-.28.34-.17,0-.3-.14-.3-.34v-.02h-.38v.02c0,.19-.15.34-.3.34s-.28-.14-.28-.34v-.02h-.47v.02c0,.19-.13.34-.27.34s-.28-.14-.28-.34v-.02h-.45v.02c0,.19-.13.34-.28.34-.18,0-.3-.14-.3-.34v-.02h-.48v.02c0,.19-.13.34-.27.34-.18,0-.3-.14-.3-.34v-.02h-.42v.02c0,.19-.13.34-.28.34-.17,0-.3-.14-.3-.34v-.02h-.43v.02c0,.19-.12.34-.3.34-.15,0-.28-.14-.28-.34v-.02h-.55c-.3,0-.52.24-.52.51v2.29h13.9v-2.29c0-.27-.23-.51-.5-.51Z" class="cls-2"/><path d="M101.32,50.78h-.65v.02c0,.19-.13.34-.3.34-.15,0-.27-.14-.27-.34v-.02h-.45v.02c0,.19-.13.34-.27.34-.18,0-.3-.14-.3-.34v-.02h-.42v.02c0,.19-.13.34-.28.34s-.3-.14-.3-.34v-.02h-.43v.02c0,.19-.12.34-.3.34-.15,0-.28-.14-.28-.34v-.02h-.4v.02c0,.19-.13.34-.28.34-.17,0-.3-.14-.3-.34v-.02h-.47v.02c0,.19-.13.34-.28.34-.17,0-.3-.14-.3-.34v-.02h-.38v.02c0,.19-.15.34-.3.34s-.28-.14-.28-.34v-.02h-.47v.02c0,.19-.13.34-.27.34s-.28-.14-.28-.34v-.02h-.45v.02c0,.19-.13.34-.28.34-.18,0-.3-.14-.3-.34v-.02h-.48v.02c0,.19-.13.34-.27.34-.18,0-.3-.14-.3-.34v-.02h-.42v.02c0,.19-.13.34-.28.34-.17,0-.3-.14-.3-.34v-.02h-.43v.02c0,.19-.12.34-.3.34-.15,0-.28-.14-.28-.34v-.02h-.55c-.3,0-.52.24-.52.51v2.29h13.9v-2.29c0-.27-.23-.51-.5-.51Z" class="cls-2"/><path d="M116.09,50.78h-.65v.02c0,.19-.13.34-.3.34-.15,0-.27-.14-.27-.34v-.02h-.45v.02c0,.19-.13.34-.27.34-.18,0-.3-.14-.3-.34v-.02h-.42v.02c0,.19-.13.34-.28.34s-.3-.14-.3-.34v-.02h-.43v.02c0,.19-.12.34-.3.34-.15,0-.28-.14-.28-.34v-.02h-.4v.02c0,.19-.13.34-.28.34-.17,0-.3-.14-.3-.34v-.02h-.47v.02c0,.19-.13.34-.28.34-.17,0-.3-.14-.3-.34v-.02h-.38v.02c0,.19-.15.34-.3.34s-.28-.14-.28-.34v-.02h-.47v.02c0,.19-.13.34-.27.34s-.28-.14-.28-.34v-.02h-.45v.02c0,.19-.13.34-.28.34-.18,0-.3-.14-.3-.34v-.02h-.48v.02c0,.19-.13.34-.27.34-.18,0-.3-.14-.3-.34v-.02h-.42v.02c0,.19-.13.34-.28.34-.17,0-.3-.14-.3-.34v-.02h-.43v.02c0,.19-.12.34-.3.34-.15,0-.28-.14-.28-.34v-.02h-.55c-.3,0-.52.24-.52.51v2.29h13.9v-2.29c0-.27-.23-.51-.5-.51Z" class="cls-2"/><path d="M130.94,50.78h-.65v.02c0,.19-.13.34-.3.34-.15,0-.27-.14-.27-.34v-.02h-.45v.02c0,.19-.13.34-.27.34-.18,0-.3-.14-.3-.34v-.02h-.42v.02c0,.19-.13.34-.28.34s-.3-.14-.3-.34v-.02h-.43v.02c0,.19-.12.34-.3.34-.15,0-.28-.14-.28-.34v-.02h-.4v.02c0,.19-.13.34-.28.34-.17,0-.3-.14-.3-.34v-.02h-.47v.02c0,.19-.13.34-.28.34-.17,0-.3-.14-.3-.34v-.02h-.38v.02c0,.19-.15.34-.3.34s-.28-.14-.28-.34v-.02h-.47v.02c0,.19-.13.34-.27.34s-.28-.14-.28-.34v-.02h-.45v.02c0,.19-.13.34-.28.34-.18,0-.3-.14-.3-.34v-.02h-.48v.02c0,.19-.13.34-.27.34-.18,0-.3-.14-.3-.34v-.02h-.42v.02c0,.19-.13.34-.28.34-.17,0-.3-.14-.3-.34v-.02h-.43v.02c0,.19-.12.34-.3.34-.15,0-.28-.14-.28-.34v-.02h-.55c-.3,0-.52.24-.52.51v2.29h13.9v-2.29c0-.27-.23-.51-.5-.51Z" class="cls-2"/><path d="M145.9,50.78h-.65v.02c0,.19-.13.34-.3.34-.15,0-.27-.14-.27-.34v-.02h-.45v.02c0,.19-.13.34-.27.34-.18,0-.3-.14-.3-.34v-.02h-.42v.02c0,.19-.13.34-.28.34s-.3-.14-.3-.34v-.02h-.43v.02c0,.19-.12.34-.3.34-.15,0-.28-.14-.28-.34v-.02h-.4v.02c0,.19-.13.34-.28.34-.17,0-.3-.14-.3-.34v-.02h-.47v.02c0,.19-.13.34-.28.34-.17,0-.3-.14-.3-.34v-.02h-.38v.02c0,.19-.15.34-.3.34s-.28-.14-.28-.34v-.02h-.47v.02c0,.19-.13.34-.27.34s-.28-.14-.28-.34v-.02h-.45v.02c0,.19-.13.34-.28.34-.18,0-.3-.14-.3-.34v-.02h-.48v.02c0,.19-.13.34-.27.34-.18,0-.3-.14-.3-.34v-.02h-.42v.02c0,.19-.13.34-.28.34-.17,0-.3-.14-.3-.34v-.02h-.43v.02c0,.19-.12.34-.3.34-.15,0-.28-.14-.28-.34v-.02h-.55c-.3,0-.52.24-.52.51v2.29h13.9v-2.29c0-.27-.23-.51-.5-.51Z" class="cls-2"/><path d="M160.91,50.78h-.65v.02c0,.19-.13.34-.3.34-.15,0-.27-.14-.27-.34v-.02h-.45v.02c0,.19-.13.34-.27.34-.18,0-.3-.14-.3-.34v-.02h-.42v.02c0,.19-.13.34-.28.34s-.3-.14-.3-.34v-.02h-.43v.02c0,.19-.12.34-.3.34-.15,0-.28-.14-.28-.34v-.02h-.4v.02c0,.19-.13.34-.28.34-.17,0-.3-.14-.3-.34v-.02h-.47v.02c0,.19-.13.34-.28.34-.17,0-.3-.14-.3-.34v-.02h-.38v.02c0,.19-.15.34-.3.34s-.28-.14-.28-.34v-.02h-.47v.02c0,.19-.13.34-.27.34s-.28-.14-.28-.34v-.02h-.45v.02c0,.19-.13.34-.28.34-.18,0-.3-.14-.3-.34v-.02h-.48v.02c0,.19-.13.34-.27.34-.18,0-.3-.14-.3-.34v-.02h-.42v.02c0,.19-.13.34-.28.34-.17,0-.3-.14-.3-.34v-.02h-.43v.02c0,.19-.12.34-.3.34-.15,0-.28-.14-.28-.34v-.02h-.55c-.3,0-.52.24-.52.51v2.29h13.9v-2.29c0-.27-.23-.51-.5-.51Z" class="cls-2"/><path d="M175.58,50.78h-.65v.02c0,.19-.13.34-.3.34-.15,0-.27-.14-.27-.34v-.02h-.45v.02c0,.19-.13.34-.27.34-.18,0-.3-.14-.3-.34v-.02h-.42v.02c0,.19-.13.34-.28.34s-.3-.14-.3-.34v-.02h-.43v.02c0,.19-.12.34-.3.34-.15,0-.28-.14-.28-.34v-.02h-.4v.02c0,.19-.13.34-.28.34-.17,0-.3-.14-.3-.34v-.02h-.47v.02c0,.19-.13.34-.28.34-.17,0-.3-.14-.3-.34v-.02h-.38v.02c0,.19-.15.34-.3.34s-.28-.14-.28-.34v-.02h-.47v.02c0,.19-.13.34-.27.34s-.28-.14-.28-.34v-.02h-.45v.02c0,.19-.13.34-.28.34-.18,0-.3-.14-.3-.34v-.02h-.48v.02c0,.19-.13.34-.27.34-.18,0-.3-.14-.3-.34v-.02h-.42v.02c0,.19-.13.34-.28.34-.17,0-.3-.14-.3-.34v-.02h-.43v.02c0,.19-.12.34-.3.34-.15,0-.28-.14-.28-.34v-.02h-.55c-.3,0-.52.24-.52.51v2.29h13.9v-2.29c0-.27-.23-.51-.5-.51Z" class="cls-2"/><path d="M190.47,50.78h-.65v.02c0,.19-.13.34-.3.34-.15,0-.27-.14-.27-.34v-.02h-.45v.02c0,.19-.13.34-.27.34-.18,0-.3-.14-.3-.34v-.02h-.42v.02c0,.19-.13.34-.28.34s-.3-.14-.3-.34v-.02h-.43v.02c0,.19-.12.34-.3.34-.15,0-.28-.14-.28-.34v-.02h-.4v.02c0,.19-.13.34-.28.34-.17,0-.3-.14-.3-.34v-.02h-.47v.02c0,.19-.13.34-.28.34-.17,0-.3-.14-.3-.34v-.02h-.38v.02c0,.19-.15.34-.3.34s-.28-.14-.28-.34v-.02h-.47v.02c0,.19-.13.34-.27.34s-.28-.14-.28-.34v-.02h-.45v.02c0,.19-.13.34-.28.34-.18,0-.3-.14-.3-.34v-.02h-.48v.02c0,.19-.13.34-.27.34-.18,0-.3-.14-.3-.34v-.02h-.42v.02c0,.19-.13.34-.28.34-.17,0-.3-.14-.3-.34v-.02h-.43v.02c0,.19-.12.34-.3.34-.15,0-.28-.14-.28-.34v-.02h-.55c-.3,0-.52.24-.52.51v2.29h13.9v-2.29c0-.27-.23-.51-.5-.51Z" class="cls-2"/><path d="M205.44,50.78h-.65v.02c0,.19-.13.34-.3.34-.15,0-.27-.14-.27-.34v-.02h-.45v.02c0,.19-.13.34-.27.34-.18,0-.3-.14-.3-.34v-.02h-.42v.02c0,.19-.13.34-.28.34s-.3-.14-.3-.34v-.02h-.43v.02c0,.19-.12.34-.3.34-.15,0-.28-.14-.28-.34v-.02h-.4v.02c0,.19-.13.34-.28.34-.17,0-.3-.14-.3-.34v-.02h-.47v.02c0,.19-.13.34-.28.34-.17,0-.3-.14-.3-.34v-.02h-.38v.02c0,.19-.15.34-.3.34s-.28-.14-.28-.34v-.02h-.47v.02c0,.19-.13.34-.27.34s-.28-.14-.28-.34v-.02h-.45v.02c0,.19-.13.34-.28.34-.18,0-.3-.14-.3-.34v-.02h-.48v.02c0,.19-.13.34-.27.34-.18,0-.3-.14-.3-.34v-.02h-.42v.02c0,.19-.13.34-.28.34-.17,0-.3-.14-.3-.34v-.02h-.43v.02c0,.19-.12.34-.3.34-.15,0-.28-.14-.28-.34v-.02h-.55c-.3,0-.52.24-.52.51v2.29h13.9v-2.29c0-.27-.23-.51-.5-.51Z" class="cls-2"/><path d="M220.26,50.78h-.65v.02c0,.19-.13.34-.3.34-.15,0-.27-.14-.27-.34v-.02h-.45v.02c0,.19-.13.34-.27.34-.18,0-.3-.14-.3-.34v-.02h-.42v.02c0,.19-.13.34-.28.34s-.3-.14-.3-.34v-.02h-.43v.02c0,.19-.12.34-.3.34-.15,0-.28-.14-.28-.34v-.02h-.4v.02c0,.19-.13.34-.28.34-.17,0-.3-.14-.3-.34v-.02h-.47v.02c0,.19-.13.34-.28.34-.17,0-.3-.14-.3-.34v-.02h-.38v.02c0,.19-.15.34-.3.34s-.28-.14-.28-.34v-.02h-.47v.02c0,.19-.13.34-.27.34s-.28-.14-.28-.34v-.02h-.45v.02c0,.19-.13.34-.28.34-.18,0-.3-.14-.3-.34v-.02h-.48v.02c0,.19-.13.34-.27.34-.18,0-.3-.14-.3-.34v-.02h-.42v.02c0,.19-.13.34-.28.34-.17,0-.3-.14-.3-.34v-.02h-.43v.02c0,.19-.12.34-.3.34-.15,0-.28-.14-.28-.34v-.02h-.55c-.3,0-.52.24-.52.51v2.29h13.9v-2.29c0-.27-.23-.51-.5-.51Z" class="cls-2"/><path d="M235.23,50.78h-.65v.02c0,.19-.13.34-.3.34-.15,0-.27-.14-.27-.34v-.02h-.45v.02c0,.19-.13.34-.27.34-.18,0-.3-.14-.3-.34v-.02h-.42v.02c0,.19-.13.34-.28.34s-.3-.14-.3-.34v-.02h-.43v.02c0,.19-.12.34-.3.34-.15,0-.28-.14-.28-.34v-.02h-.4v.02c0,.19-.13.34-.28.34-.17,0-.3-.14-.3-.34v-.02h-.47v.02c0,.19-.13.34-.28.34-.17,0-.3-.14-.3-.34v-.02h-.38v.02c0,.19-.15.34-.3.34s-.28-.14-.28-.34v-.02h-.47v.02c0,.19-.13.34-.27.34s-.28-.14-.28-.34v-.02h-.45v.02c0,.19-.13.34-.28.34-.18,0-.3-.14-.3-.34v-.02h-.48v.02c0,.19-.13.34-.27.34-.18,0-.3-.14-.3-.34v-.02h-.42v.02c0,.19-.13.34-.28.34-.17,0-.3-.14-.3-.34v-.02h-.43v.02c0,.19-.12.34-.3.34-.15,0-.28-.14-.28-.34v-.02h-.55c-.3,0-.52.24-.52.51v2.29h13.9v-2.29c0-.27-.23-.51-.5-.51Z" class="cls-2"/><path d="M455.04,274.72c.27,0,.5.24.5.51v2.29s-177.46,0-177.46,0v-2.29c0-.27.23-.51.52-.51h.55s175.89,0,175.89,0Z" class="cls-2"/><rect transform="translate(646.35 -87) rotate(90)" height="174.9" width="4.3" y="192.23" x="364.52" class="cls-2"/><rect height="177.16" width="14.15" y="104.66" x="28.45" class="cls-2"/><rect height="4.31" width=".73" y="243.66" x="42.59" class="cls-2"/><rect height="4.31" width=".7" y="243.66" x="57.47" class="cls-2"/><rect height="4.31" width=".7" y="243.66" x="72.32" class="cls-2"/><rect height="4.31" width=".73" y="243.66" x="87.17" class="cls-2"/><rect height="4.31" width=".7" y="243.66" x="102.04" class="cls-2"/><rect height="4.31" width=".7" y="243.66" x="116.87" class="cls-2"/><rect height="4.31" width=".7" y="243.66" x="131.72" class="cls-2"/><rect height="4.31" width=".73" y="243.66" x="146.57" class="cls-2"/><rect height="4.31" width=".7" y="243.66" x="161.44" class="cls-2"/><rect height="4.31" width=".7" y="243.66" x="176.29" class="cls-2"/><rect height="4.31" width=".73" y="243.66" x="191.14" class="cls-2"/><rect height="4.31" width=".7" y="243.66" x="206.01" class="cls-2"/><rect height="4.31" width=".7" y="243.66" x="220.86" class="cls-2"/><rect height="4.31" width=".73" y="209.53" x="42.59" class="cls-2"/><rect height="4.31" width=".7" y="209.53" x="57.47" class="cls-2"/><rect height="4.31" width=".7" y="209.53" x="72.32" class="cls-2"/><rect height="4.31" width=".73" y="209.53" x="87.17" class="cls-2"/><rect height="4.31" width=".7" y="209.53" x="102.04" class="cls-2"/><rect height="4.31" width=".7" y="209.53" x="116.87" class="cls-2"/><rect height="4.31" width=".7" y="209.53" x="131.72" class="cls-2"/><rect height="4.31" width=".73" y="209.53" x="146.57" class="cls-2"/><rect height="4.31" width=".7" y="209.53" x="161.44" class="cls-2"/><rect height="4.31" width=".7" y="209.53" x="176.29" class="cls-2"/><rect height="4.31" width=".73" y="209.53" x="191.14" class="cls-2"/><rect height="4.31" width=".7" y="209.53" x="206.01" class="cls-2"/><rect height="4.31" width=".7" y="209.53" x="220.86" class="cls-2"/><rect height="4.31" width=".73" y="175.67" x="42.59" class="cls-2"/><rect height="4.31" width=".7" y="175.67" x="57.47" class="cls-2"/><rect height="4.31" width=".7" y="175.67" x="72.32" class="cls-2"/><rect height="4.31" width=".73" y="175.67" x="87.17" class="cls-2"/><rect height="4.31" width=".7" y="175.67" x="102.04" class="cls-2"/><rect height="4.31" width=".7" y="175.67" x="116.87" class="cls-2"/><rect height="4.31" width=".7" y="175.67" x="131.72" class="cls-2"/><rect height="4.31" width=".73" y="175.67" x="146.57" class="cls-2"/><rect height="4.31" width=".7" y="175.67" x="161.44" class="cls-2"/><rect height="4.31" width=".7" y="175.67" x="176.29" class="cls-2"/><rect height="4.31" width=".73" y="175.67" x="191.14" class="cls-2"/><rect height="4.31" width=".7" y="175.67" x="206.01" class="cls-2"/><rect height="4.31" width=".7" y="175.67" x="220.86" class="cls-2"/><rect height="4.31" width=".73" y="141.82" x="42.59" class="cls-2"/><rect height="4.31" width=".7" y="141.82" x="57.47" class="cls-2"/><rect height="4.31" width=".7" y="141.82" x="72.32" class="cls-2"/><rect height="4.31" width=".73" y="141.82" x="87.17" class="cls-2"/><rect height="4.31" width=".7" y="141.82" x="102.04" class="cls-2"/><rect height="4.31" width=".7" y="141.82" x="116.87" class="cls-2"/><rect height="4.31" width=".7" y="141.82" x="131.72" class="cls-2"/><rect height="4.31" width=".73" y="141.82" x="146.57" class="cls-2"/><rect height="4.31" width=".7" y="141.82" x="161.44" class="cls-2"/><rect height="4.31" width=".7" y="141.82" x="176.29" class="cls-2"/><rect height="4.31" width=".73" y="141.82" x="191.14" class="cls-2"/><rect height="4.31" width=".7" y="141.82" x="206.01" class="cls-2"/><rect height="4.31" width=".7" y="141.82" x="220.86" class="cls-2"/><rect height="177.16" width="14.15" y="104.66" x="43.32" class="cls-2"/><rect height="4.31" width=".73" y="105.83" x="42.59" class="cls-2"/><rect height="4.31" width=".7" y="105.83" x="57.47" class="cls-2"/><rect height="177.16" width="14.15" y="104.66" x="73.02" class="cls-2"/><rect height="4.31" width=".7" y="105.83" x="72.32" class="cls-2"/><rect height="4.31" width=".73" y="105.83" x="87.17" class="cls-2"/><rect height="177.16" width="14.12" y="104.66" x="102.74" class="cls-2"/><rect height="4.31" width=".7" y="105.83" x="102.04" class="cls-2"/><rect height="4.31" width=".7" y="105.83" x="116.87" class="cls-2"/><rect height="177.16" width="14.15" y="104.66" x="132.42" class="cls-2"/><rect height="4.31" width=".7" y="105.83" x="131.72" class="cls-2"/><rect height="4.31" width=".73" y="105.83" x="146.57" class="cls-2"/><rect height="177.16" width="14.15" y="104.66" x="162.14" class="cls-2"/><rect height="4.31" width=".7" y="105.83" x="161.44" class="cls-2"/><rect height="4.31" width=".7" y="105.83" x="176.29" class="cls-2"/><rect height="177.16" width="14.15" y="104.66" x="191.87" class="cls-2"/><rect height="4.31" width=".73" y="105.83" x="191.14" class="cls-2"/><rect height="4.31" width=".7" y="105.83" x="206.01" class="cls-2"/><rect height="177.16" width="14" y="104.66" x="221.56" class="cls-2"/><rect height="4.31" width=".7" y="105.83" x="220.86" class="cls-2"/><rect height="4.31" width=".73" y="276.14" x="42.59" class="cls-2"/><rect height="177.16" width="14.15" y="104.66" x="58.17" class="cls-2"/><rect height="4.31" width=".7" y="276.14" x="57.47" class="cls-2"/><rect height="4.31" width=".7" y="276.14" x="72.32" class="cls-2"/><rect height="177.16" width="14.15" y="104.66" x="87.89" class="cls-2"/><rect height="4.31" width=".73" y="276.14" x="87.17" class="cls-2"/><rect height="4.31" width=".7" y="276.14" x="102.04" class="cls-2"/><rect height="177.16" width="14.15" y="104.66" x="117.57" class="cls-2"/><rect height="4.31" width=".7" y="276.14" x="116.87" class="cls-2"/><rect height="4.31" width=".7" y="276.14" x="131.72" class="cls-2"/><rect height="177.16" width="14.15" y="104.66" x="147.29" class="cls-2"/><rect height="4.31" width=".73" y="276.14" x="146.57" class="cls-2"/><rect height="4.31" width=".7" y="276.14" x="161.44" class="cls-2"/><rect height="177.16" width="14.15" y="104.66" x="176.99" class="cls-2"/><rect height="4.31" width=".7" y="276.14" x="176.29" class="cls-2"/><rect height="4.31" width=".73" y="276.14" x="191.14" class="cls-2"/><rect height="177.16" width="14.15" y="104.66" x="206.72" class="cls-2"/><rect height="4.31" width=".7" y="276.14" x="206.01" class="cls-2"/><rect height="4.31" width=".7" y="276.14" x="220.86" class="cls-2"/></g></g></svg>